<?xml version="1.0" encoding="UTF-8" standalone="no"?>
<!-- Created with Inkscape (http://www.inkscape.org/) -->

<svg
   width="1000"
   height="800"
   viewBox="0 0 210 297"
   version="1.1"
   id="svg5"
   inkscape:version="1.1 (c68e22c387, 2021-05-23)"
   sodipodi:docname="Abu_Ghosh_Flag.svg"
   xmlns:inkscape="http://www.inkscape.org/namespaces/inkscape"
   xmlns:sodipodi="http://sodipodi.sourceforge.net/DTD/sodipodi-0.dtd"
   xmlns="http://www.w3.org/2000/svg"
   xmlns:svg="http://www.w3.org/2000/svg">
  <sodipodi:namedview
     id="namedview7"
     pagecolor="#ffffff"
     bordercolor="#666666"
     borderopacity="1.0"
     inkscape:pageshadow="2"
     inkscape:pageopacity="0.0"
     inkscape:pagecheckerboard="0"
     inkscape:document-units="mm"
     showgrid="false"
     showguides="true"
     inkscape:guide-bbox="true"
     inkscape:zoom="0.7547406"
     inkscape:cx="502.15928"
     inkscape:cy="412.0621"
     inkscape:window-width="1826"
     inkscape:window-height="1046"
     inkscape:window-x="83"
     inkscape:window-y="-11"
     inkscape:window-maximized="1"
     inkscape:current-layer="layer1" />
  <defs
     id="defs2" />
  <g
     inkscape:groupmode="layer"
     id="layer4"
     inkscape:label="Background 1">
    <rect
       style="fill:#ffffff;stroke:#ff0000;stroke-width:0;stroke-linecap:round;stroke-linejoin:round;paint-order:stroke fill markers"
       id="rect889"
       width="371.25"
       height="297"
       x="-80.625"
       y="7.2631076e-07" />
  </g>
  <g
     inkscape:label="Layer 1"
     inkscape:groupmode="layer"
     id="layer1">
    <path
       style="fill:#0f8226;fill-opacity:1;stroke:#000000;stroke-width:0;stroke-linecap:butt;stroke-linejoin:miter;stroke-opacity:1;stroke-miterlimit:4;stroke-dasharray:none"
       d="m 57.381002,153.38545 h 44.711048 c 4.63066,5.35443 4.33356,0.29078 6.07968,0 h 44.96436 v 9.24619 h -42.17783 c -2.33868,3.76861 -4.97977,9.80979 -11.652745,0 H 56.874361 Z"
       id="path905"
       sodipodi:nodetypes="ccccccccc" />
    <path
       style="fill:#0f8226;fill-opacity:1;stroke:#000000;stroke-width:0;stroke-linecap:butt;stroke-linejoin:miter;stroke-opacity:1;stroke-miterlimit:4;stroke-dasharray:none"
       d="m 106.55462,56.11045 c 5.1524,2.827188 -2.75661,19.222439 11.65274,40.784571 2.69111,-2.491293 -1.49893,-8.77293 -0.75996,-13.679299 40.02469,42.179328 8.21869,59.720158 -10.25948,66.243258 5.94814,-27.76417 -12.022707,-28.0209 -6.33301,0.25333 C 70.580619,138.12708 69.434161,121.09064 77.61419,104.71712 82.648354,94.640505 91.293551,86.782176 98.621983,74.758105 102.06806,69.103969 104.02504,62.125522 106.55462,56.11045 Z"
       id="path1742"
       sodipodi:nodetypes="cccccssc" />
    <circle
       style="fill:none;stroke:#ff0000;stroke-width:0;stroke-linecap:round;stroke-linejoin:round;stroke-miterlimit:4;stroke-dasharray:none;paint-order:stroke fill markers"
       id="path1317"
       cx="-122.22457"
       cy="-134.67891"
       r="100.09004"
       transform="rotate(-173.03846)" />
    <circle
       style="fill:none;stroke:#ff0000;stroke-width:0;stroke-linecap:round;stroke-linejoin:round;stroke-miterlimit:4;stroke-dasharray:none;paint-order:stroke fill markers"
       id="path1317-5"
       cx="-81.732094"
       cy="162.47189"
       r="114.17585"
       transform="matrix(-0.98886532,0.14881325,0.14881325,0.98886532,0,0)" />
    <path
       style="fill:#0f8226;fill-opacity:1;stroke-width:0.33175"
       d="m 86.679593,262.43582 c -2.688419,-1.01528 -5.380683,-2.56053 -5.045373,-2.89583 0.230819,-0.23083 0.940744,-0.11386 2.224781,0.36658 2.387446,0.89324 4.501405,0.91749 6.727088,0.077 1.819332,-0.68694 5.714269,-3.77286 5.714269,-4.52736 0,-0.23777 -0.485137,-0.60146 -1.078077,-0.80816 -1.655514,-0.5771 -2.901221,-2.238 -2.902153,-3.86941 -0.0016,-2.84188 1.588492,-5.52594 3.637426,-6.13983 2.200456,-0.65926 3.810586,0.8973 3.708906,3.58555 -0.0589,1.55835 0.35221,2.42186 1.15314,2.42186 0.55952,0 0.60395,-1.46998 0.0891,-2.94697 -0.32136,-0.92189 -0.24789,-1.29551 0.58056,-2.9523 1.25691,-2.51365 2.94813,-3.49771 6.06985,-3.53184 2.8584,-0.0312 3.75282,0.25063 5.33715,1.68198 2.15166,1.9439 1.91982,2.1144 -2.82128,2.07477 -3.50946,-0.0293 -4.30518,0.0615 -5.22507,0.59676 -1.6687,0.97093 -1.61237,2.03482 0.20834,3.93499 1.44017,1.50308 1.55366,1.55565 2.92232,1.35392 3.01797,-0.44481 4.82935,-0.8265 7.19769,-1.51667 1.35093,-0.39368 2.57958,-0.59242 2.73034,-0.44166 0.42869,0.42868 -0.29491,2.55368 -1.12213,3.29537 -1.80079,1.6146 -8.57433,3.09031 -14.20237,3.09419 -1.78692,0.001 -3.02063,0.15562 -3.32834,0.41664 -0.2689,0.22808 -1.0812,1.30944 -1.805084,2.40303 -0.723894,1.09358 -1.753656,2.36252 -2.288366,2.81988 -2.126143,1.81854 -5.888436,2.48713 -8.482691,1.50742 z m 10.550621,-13.32648 c 0.101534,-0.70778 -0.708758,-1.29284 -1.291547,-0.93266 -0.356609,0.22039 -0.40182,1.26378 -0.06918,1.59642 0.43827,0.43827 1.260202,0.0372 1.360718,-0.66376 z m 40.456006,10.6054 c -1.30928,-0.15919 -1.64429,-0.61323 -0.66351,-0.89929 0.31931,-0.0932 1.327,-0.26304 2.23933,-0.37757 3.5004,-0.43941 5.9755,-2.37074 7.95452,-6.20697 1.44928,-2.80929 1.49635,-3.38584 0.25629,-3.13937 -1.1974,0.238 -3.56692,-0.36001 -4.16262,-1.05055 -0.25922,-0.30045 -0.64164,-1.24689 -0.84981,-2.10317 -1.00097,-4.1171 0.27971,-7.23454 2.97206,-7.23454 1.42779,0 2.62449,1.16984 3.65427,3.57221 0.55751,1.30065 0.6862,1.40144 1.52147,1.1918 1.41671,-0.35556 4.9102,-2.00877 5.3405,-2.52724 0.30369,-0.36593 0.22784,-0.63604 -0.35396,-1.26053 -0.40725,-0.43713 -0.74046,-0.92246 -0.74046,-1.0785 0,-0.15599 -0.59715,-0.69076 -1.327,-1.18823 -1.21273,-0.82659 -1.31914,-1.01711 -1.23563,-2.21219 0.12511,-1.79087 0.28668,-2.13706 0.99727,-2.13706 0.62402,0 2.39358,1.6059 2.39616,2.17453 6.6e-4,0.17254 0.4481,0.98539 0.99405,1.80647 0.54594,0.82108 1.31162,2.46323 1.70149,3.64925 0.38986,1.18601 0.83775,2.32033 0.99528,2.52071 0.41941,0.53349 -0.54475,1.27224 -3.19979,2.4517 -1.27439,0.56613 -2.98112,1.35843 -3.79271,1.76066 l -1.47562,0.73132 -0.54966,2.81988 c -0.66965,3.43541 -0.78669,3.73661 -2.22861,5.73496 -1.55894,2.16054 -3.03439,2.85179 -6.44229,3.01829 -1.51632,0.0741 -3.31679,0.0666 -4.00102,-0.0169 z m 8.64754,-16.28401 c -0.0624,-0.54313 -0.30634,-0.91232 -0.6026,-0.91232 -0.29624,0 -0.5401,0.36919 -0.6026,0.91232 -0.0855,0.7429 0.0264,0.91232 0.6026,0.91232 0.57617,0 0.68809,-0.16934 0.6026,-0.91232 z m -89.677579,11.37396 c -3.363785,-0.9034 -4.844381,-1.59946 -6.425032,-3.02061 -2.640026,-2.37361 -2.825352,-5.06712 -0.608871,-8.84926 1.054744,-1.79979 4.372914,-5.75295 5.045484,-6.01104 0.90443,-0.34708 0.812504,0.37984 -0.209545,1.65706 -3.83481,4.79219 -4.457531,7.29278 -2.419346,9.71503 1.524379,1.81162 5.628589,3.14304 9.759442,3.16598 2.060316,0.0107 2.736442,-0.12832 3.932306,-0.81294 2.211646,-1.26613 2.717957,-2.55366 2.536151,-6.44928 l -0.148897,-3.19022 1.189098,-1.3162 c 0.653998,-0.72389 1.308137,-1.24261 1.453641,-1.15268 0.534947,0.33062 0.711786,3.45459 0.299771,5.29566 -0.492197,2.19938 -0.385024,2.36124 1.975889,2.98402 1.66336,0.43879 1.746106,0.42722 2.703341,-0.37824 0.54939,-0.46229 0.987461,-1.15763 0.987461,-1.56736 0,-0.87016 0.835559,-2.12885 1.182718,-1.78169 0.132932,0.13288 0.264683,1.13644 0.292756,2.22998 0.04088,1.59273 0.207688,2.15499 0.838491,2.82644 1.640975,1.74677 2.53853,0.79379 2.153659,-2.28662 -0.210634,-1.68587 -0.172071,-1.82485 0.657092,-2.36813 1.060929,-0.69517 1.429927,-0.41211 1.636763,1.25553 0.147015,1.18537 -0.605557,4.24718 -1.716033,6.98151 -0.669724,1.64907 -1.673172,1.90466 -3.500534,0.89164 -0.758469,-0.42047 -1.49842,-0.96265 -1.644332,-1.20485 -0.17177,-0.28511 -0.990483,-0.44936 -2.322253,-0.46586 -1.131327,-0.0134 -2.654107,-0.21338 -3.383958,-0.44304 l -1.327002,-0.41755 -1.658751,1.70228 c -2.267391,2.3269 -4.360226,3.29787 -7.298508,3.38613 -1.277241,0.0383 -3.068692,-0.13061 -3.981006,-0.37569 z m 99.246299,-2.07058 c -0.50938,-0.13141 -0.58579,-0.40563 -0.46111,-1.65494 0.19311,-1.93499 0.88642,-2.39892 2.81337,-1.88251 0.62326,0.16709 0.74644,0.42907 0.74644,1.58787 0,0.76329 -0.17913,1.56698 -0.3981,1.78592 -0.39576,0.39576 -1.53349,0.4647 -2.7006,0.16371 z m 5.66401,-11.4066 c -0.32247,-0.18777 -1.12083,-1.40278 -1.77412,-2.70004 -0.65329,-1.29727 -1.52371,-2.89325 -1.93425,-3.54662 -0.41055,-0.65337 -1.34304,-2.23295 -2.07219,-3.5102 -0.72916,-1.27723 -2.09547,-3.6399 -3.03625,-5.25036 -1.53469,-2.62715 -1.71051,-3.12903 -1.71051,-4.88291 0,-1.42776 0.11184,-1.91178 0.41469,-1.79524 0.39596,0.15242 2.77853,3.59343 5.97209,8.62536 0.81562,1.28515 2.3248,4.02525 3.35373,6.08915 1.57835,3.16602 1.87076,4.0323 1.87076,5.54246 0,1.85895 -0.10555,1.99803 -1.08395,1.4284 z m -55.39656,-3.31031 c -1.42444,-0.75199 -1.49415,-1.05605 -0.5842,-2.54848 0.76982,-1.26259 0.94172,-1.29008 2.64189,-0.42272 1.38172,0.70491 1.46618,1.28928 0.4207,2.91086 -0.5811,0.90129 -0.87202,0.90838 -2.47839,0.0603 z m -29.691662,-1.32277 c -0.593004,-0.55579 -1.078189,-1.12536 -1.078189,-1.26571 0,-0.48773 1.886797,-2.36518 2.376955,-2.36518 0.722698,0 1.859877,1.35798 1.986986,2.37282 0.122846,0.98071 -0.832312,2.27261 -1.678417,2.27014 -0.29103,-0.001 -1.014332,-0.45627 -1.607335,-1.01207 z m 5.071154,-0.22453 c -0.990907,-1.45823 -1.052412,-2.12293 -0.260773,-2.81807 1.211552,-1.06391 1.847127,-0.97441 3.011075,0.42393 l 1.103517,1.32573 -1.153279,1.15328 c -0.634299,0.6343 -1.31211,1.15327 -1.50624,1.15327 -0.19413,0 -0.731566,-0.55716 -1.1943,-1.23814 z m 100.504388,-0.40175 c -1.31334,-0.53287 -3.48237,-3.10713 -4.63205,-5.49743 -0.64326,-1.33737 -1.16956,-2.6672 -1.16956,-2.95514 0,-0.28795 -0.14929,-0.52354 -0.33176,-0.52354 -0.18245,0 -0.33174,-0.44788 -0.33174,-0.99527 0,-1.77416 1.05853,-0.96262 2.16361,1.65875 1.6577,3.93227 3.31814,5.4447 5.71067,5.20162 1.85163,-0.18815 2.70273,-0.78881 4.91107,-3.46608 3.11395,-3.77519 4.41891,-7.54261 3.33719,-9.63441 -0.73175,-1.41507 -3.23775,-3.30876 -5.00359,-3.78104 -1.8334,-0.49037 -2.80523,-1.63411 -3.0708,-3.61402 -0.17774,-1.32514 -0.17526,-1.32861 0.7801,-1.09469 1.30724,0.3201 2.99499,1.24346 4.14381,2.26708 0.52564,0.46834 1.08339,0.85153 1.23944,0.85153 0.15606,0 0.82914,-0.5297 1.49576,-1.1771 1.59308,-1.54719 1.66848,-3.02433 0.21676,-4.24587 -0.54739,-0.4606 -0.99525,-1.14566 -0.99525,-1.52236 0,-0.83968 0.22091,-0.85097 1.49287,-0.0763 2.31839,1.41193 3.81513,1.16312 3.81513,-0.63419 0,-0.81365 -0.15783,-0.96921 -1.17741,-1.16048 -1.49768,-0.28097 -2.14009,-0.9279 -2.14009,-2.15513 0,-0.84023 0.12417,-0.97156 0.91824,-0.97156 0.50503,0 1.47805,0.38039 2.16225,0.84533 0.6842,0.46492 1.37651,0.76344 1.53844,0.66334 0.36164,-0.2235 2.11828,-3.18492 1.96239,-3.30828 -0.44663,-0.35344 -2.46967,-1.18808 -2.9001,-1.19651 -0.29128,-0.005 -1.12674,-0.37812 -1.85659,-0.82766 -0.72986,-0.44952 -1.56998,-0.8181 -1.86695,-0.81901 -0.29697,-0.001 -0.72183,-0.22087 -0.94413,-0.48873 -0.22231,-0.26786 -0.50183,-0.46875 -0.62118,-0.44639 -0.22694,0.0425 -1.92902,-0.66168 -4.21981,-1.74578 -0.74184,-0.35108 -1.90091,-0.63832 -2.57572,-0.63832 -1.41673,0 -3.3396,-1.12459 -3.85552,-2.25492 -0.50335,-1.10276 -0.43365,-1.39433 0.33326,-1.39433 0.37461,0 1.21804,-0.36485 1.87429,-0.81079 l 1.19317,-0.81078 1.29905,0.66272 c 0.71448,0.36449 1.60061,1.17386 1.9692,1.79855 0.51443,0.87189 1.1285,1.30296 2.64249,1.85499 1.0848,0.39553 2.05122,0.84677 2.14761,1.00273 0.0965,0.15599 0.38156,0.28358 0.6337,0.28358 0.25213,0 1.69887,0.57352 3.21499,1.27449 4.32825,2.00114 4.89795,2.1907 5.31884,1.76981 0.42646,-0.42644 0.84812,-1.5451 2.39803,-6.3618 0.61649,-1.91585 1.22414,-3.74463 1.35035,-4.06394 0.3513,-0.88883 -0.36472,-0.70734 -1.96337,0.49762 -1.73935,1.31102 -3.37272,3.38782 -4.38808,5.57936 -0.84383,1.82131 -1.49724,2.05027 -2.31022,0.80953 -0.41415,-0.63208 -0.51214,-1.41154 -0.41621,-3.31106 0.1243,-2.46154 0.14011,-2.49926 1.72164,-4.10493 0.8779,-0.89131 3.31763,-2.64484 5.42161,-3.89672 2.45815,-1.4626 3.93084,-2.55344 4.12038,-3.05199 0.39776,-1.0462 0.37444,-3.29835 -0.0368,-3.55252 -0.18247,-0.11279 -0.33174,-0.50973 -0.33174,-0.88212 0,-0.61985 -0.41235,-1.08921 -3.33686,-3.79833 -0.53675,-0.49721 -0.97589,-1.04269 -0.97589,-1.21219 0,-0.16953 -0.29236,-0.71875 -0.64968,-1.22056 -0.58817,-0.82602 -1.03074,-3.12802 -0.66142,-3.44025 0.47301,-0.3999 3.68183,-1.95277 4.91911,-2.38054 1.67664,-0.57968 4.10933,-0.65617 5.0393,-0.15844 1.11286,0.59559 0.74198,3.36092 -0.92648,6.9079 l -0.83609,1.77742 0.77473,1.3742 c 1.46058,2.59079 1.16017,7.9491 -0.69083,12.32198 -0.15449,0.36491 -0.65924,1.78313 -1.12172,3.15161 -1.75552,5.19471 -4.16952,11.97675 -4.40174,12.36656 -0.13301,0.22322 -0.64534,0.92833 -1.1386,1.56697 -0.49324,0.63862 -1.28344,1.87001 -1.75597,2.7364 -0.72909,1.33683 -0.80146,1.70185 -0.47816,2.41144 0.33626,0.73798 0.26731,0.95503 -0.58744,1.84914 -0.53262,0.55717 -1.52515,1.32655 -2.20563,1.70977 -0.80002,0.45054 -1.36272,1.07696 -1.59232,1.77267 -0.1953,0.59175 -0.96932,1.77371 -1.72006,2.62661 l -1.36496,1.55068 0.88384,1.80212 c 2.0298,4.1387 0.32214,9.91815 -4.29144,14.52393 -0.89408,0.89255 -2.106,1.82559 -2.69313,2.07343 -1.16911,0.49347 -3.52471,0.56434 -4.57626,0.13777 z m 24.61198,-68.47243 c 0.67636,-1.30794 0.33767,-1.45809 -1.3927,-0.61739 -1.65423,0.80369 -1.71143,0.92383 -0.95443,2.0046 0.51508,0.73538 0.55133,0.74016 1.19511,0.1575 0.36513,-0.33045 0.88356,-1.02559 1.15202,-1.54475 z M 32.272529,233.44465 c 0,-0.19487 0.559828,-0.93429 1.244064,-1.64319 2.001459,-2.07355 3.863856,-4.14582 4.569267,-5.08416 2.893269,-3.84866 5.659051,-7.44975 5.827362,-7.58728 0.247714,-0.20242 0.965821,-1.54286 0.965821,-1.80282 0,-0.10314 -0.264561,-0.18776 -0.587915,-0.18776 -0.976414,0 -2.697422,1.68517 -6.876469,6.73329 -3.815717,4.60923 -6.305779,6.86847 -7.570188,6.86847 -0.324353,0 -1.664861,-1.04504 -2.978904,-2.32229 -1.314046,-1.2773 -2.660462,-2.58293 -2.992039,-2.90143 -1.136518,-1.09172 -2.516819,-3.91868 -2.645727,-5.41862 -0.168422,-1.9598 -0.957524,-3.10007 -2.743705,-3.96474 -1.501738,-0.72698 -4.789589,-4.28037 -4.789589,-5.17641 0,-0.26618 -0.5464,-1.63404 -1.214217,-3.0397 -0.66782,-1.40563 -1.238567,-2.79721 -1.268325,-3.09237 -0.02975,-0.29515 -0.379089,-1.08744 -0.776286,-1.76064 -0.397197,-0.67321 -0.722178,-1.39994 -0.722178,-1.61496 0,-0.21504 -0.353367,-1.13955 -0.785259,-2.05449 -1.8422958,-3.90277 -2.2158414,-4.77426 -2.1585737,-5.03602 0.0333,-0.15223 -0.1973126,-0.8578 -0.5124814,-1.568 -0.3151701,-0.71021 -0.5513297,-1.53128 -0.5247968,-1.82463 0.169739,-1.87671 -0.096967,-3.68803 -0.8733206,-5.93092 -0.6359245,-1.8372 -0.8612489,-3.08191 -0.7945631,-4.38909 0.2117016,-4.14963 0.155906,-5.76574 -0.2164354,-6.26922 -0.2831346,-0.38288 -0.4954095,-0.43101 -0.7585292,-0.17198 -0.5475309,0.53891 -0.9949875,3.84357 -0.6167403,4.55489 0.378187,0.71123 -0.069359,1.372 -1.3928183,2.05639 -1.2020785,0.62161 -2.7509314,0.36849 -4.1159389,-0.67265 -2.5224873,-1.92399 -3.1859802,-4.0701 -3.0737166,-9.94206 0.073565,-3.84771 0.1760548,-4.51934 0.9405689,-6.16408 0.986755,-2.12285 2.88568,-3.85735 4.5686813,-4.17308 2.0613504,-0.38671 5.2827457,0.50327 7.742827,2.13911 1.2316411,0.81898 2.2393461,1.58053 2.2393461,1.69234 0,0.11185 -0.276236,0.3758 -0.613858,0.58663 -0.498767,0.31148 -0.887499,0.22664 -2.0734391,-0.45256 -1.9522881,-1.1181 -4.3146795,-1.72016 -5.3078975,-1.35275 -2.496359,0.92347 -3.9183128,4.54382 -3.9438558,10.04119 -0.015793,3.39903 0.3527579,4.97626 1.1627883,4.97626 0.5510484,0 0.6660821,-0.24242 0.7084171,-1.49289 0.064899,-1.91709 0.6775537,-3.57168 1.4818791,-4.00215 0.805168,-0.43091 2.8090752,-0.0806 4.1459786,0.7247 1.0421527,0.6278 2.5447204,2.61218 3.1163323,4.11563 0.17006,0.4473 0.395979,1.57218 0.502028,2.49973 0.106049,0.92752 0.332208,2.05304 0.502574,2.50113 0.17036,0.44811 0.402227,1.74356 0.515246,2.87879 0.113013,1.13523 0.345946,2.32841 0.517614,2.65151 0.171676,0.32306 0.221769,0.7336 0.111326,0.91229 -0.31004,0.50166 0.507386,0.38934 2.651851,-0.36438 1.078613,-0.3791 4.354744,-1.42758 7.280294,-2.32995 2.925548,-0.90238 5.852731,-2.01043 6.504853,-2.46236 0.910801,-0.63119 1.604537,-0.82049 2.992469,-0.8166 0.993738,0.001 2.030727,0.14981 2.30442,0.32669 0.317884,0.20542 0.350917,0.32342 0.09146,0.32668 -0.530933,0.008 -1.418458,1.74022 -1.418458,2.77067 0,1.30621 -2.798975,2.3927 -4.188173,1.62573 -0.945163,-0.52181 -3.259242,-0.11881 -8.086591,1.40815 -7.601199,2.40442 -7.667404,2.45365 -6.8095,5.06355 0.345194,1.05014 0.877741,2.50652 1.183444,3.23634 0.305699,0.72987 0.726253,1.74458 0.934559,2.25495 0.208306,0.51035 0.378741,1.3797 0.378741,1.93188 0,1.58384 1.052066,1.11512 1.669947,-0.74399 0.565722,-1.70217 0.423096,-4.62067 -0.358644,-7.33895 -0.540684,-1.88006 -0.296237,-2.21541 1.452456,-1.99259 0.886633,0.11292 1.652629,0.53611 2.533458,1.39951 2.225541,2.18147 2.180861,4.76146 -0.202393,11.68732 l -1.458833,4.23944 0.82348,1.30449 c 1.514648,2.39935 3.233469,3.26075 7.878459,3.94827 2.420971,0.35835 5.244841,1.58307 5.244841,2.27472 0,0.8875 -1.288831,3.78602 -2.286988,5.1433 -0.566786,0.77071 -1.030516,1.56411 -1.030516,1.76309 0,0.19898 0.737985,1.08869 1.639966,1.97711 l 1.639964,1.61529 1.096976,-1.13668 c 1.246068,-1.29117 2.36669,-2.58032 4.72572,-5.43637 0.904259,-1.09477 1.728739,-2.06513 1.832175,-2.15637 1.141444,-1.00674 2.998715,-3.56826 2.998715,-4.13578 0,-0.85355 0.979324,-1.8263 2.814965,-2.79605 1.722107,-0.90976 1.944774,-0.88206 1.718661,0.21388 -0.19712,0.95542 0.436274,4.39569 0.809301,4.39569 0.118694,0 0.772676,-0.23266 1.453298,-0.51705 2.227128,-0.93055 2.091952,-0.64193 -2.961276,6.32269 -4.325303,5.96136 -8.141237,10.1459 -10.189853,11.17419 -2.152356,1.08032 -3.597608,1.47566 -3.597608,0.98405 z m -4.788506,-15.02043 c 0.679239,-1.3135 0.596979,-1.61714 -0.436564,-1.61136 -1.463268,0.008 -1.845862,0.42063 -1.572264,1.69515 0.132195,0.61581 0.310731,1.23885 0.396747,1.38455 0.220727,0.37389 1.050039,-0.38146 1.612081,-1.46834 z m 51.482373,13.37271 c -1.157883,-1.13835 -1.148169,-1.70081 0.04919,-2.84794 1.111863,-1.06523 1.823164,-0.88307 2.998852,0.76804 l 0.68899,0.96759 -0.861287,1.02359 c -1.046368,1.24353 -1.681199,1.26311 -2.875743,0.0887 z m 68.668134,-11.08875 c -0.0792,-0.22937 0.005,-0.75072 0.18845,-1.15853 0.27823,-0.62061 0.18888,-0.85446 -0.54794,-1.43402 -1.10703,-0.87081 -1.12666,-1.9261 -0.0778,-4.1788 0.95415,-2.04924 1.99417,-2.57699 2.89239,-1.46776 0.75629,0.93399 0.47827,1.59548 -0.91533,2.17775 -0.61649,0.25758 -1.12089,0.6999 -1.12089,0.98289 0,0.70503 2.25555,0.69024 3.27164,-0.0214 1.08686,-0.76126 1.66775,-0.12926 0.92423,1.00546 -1.5724,2.39977 -4.34922,4.86354 -4.61475,4.09448 z m 62.14802,-25.93676 c -0.69646,-0.74134 -0.71719,-0.86512 -0.25531,-1.52456 0.27648,-0.39472 0.82948,-0.94658 1.2289,-1.22635 0.6681,-0.46794 0.78274,-0.4521 1.43306,0.19823 0.67451,0.67451 0.6816,0.74857 0.15482,1.61724 -0.30363,0.5007 -0.83362,1.09757 -1.17777,1.32634 -0.53483,0.35555 -0.73577,0.29879 -1.3837,-0.3909 z M -9.6282803,173.47714 c -0.5719657,-0.76249 -0.5725677,-0.8399 -0.013904,-1.78575 l 0.5840363,-0.98868 0.9119183,0.87366 c 0.7181901,0.68808 0.8428522,1.00274 0.5868078,1.48116 -0.6056573,1.13167 -1.4120763,1.29523 -2.0689159,0.41961 z m 0.3031748,-3.73701 c -0.6984025,-0.77173 -0.5153091,-2.26412 0.3169517,-2.58349 0.4869023,-0.18683 1.8023857,0.72437 1.8023857,1.24847 0,0.14397 -0.3388578,0.65578 -0.7530171,1.13728 l -0.7530172,0.87545 z M 200.10435,131.1225 c -0.72125,-0.48445 -1.16432,-1.07427 -1.23019,-1.63764 -0.0896,-0.76686 0.0601,-0.92736 1.16114,-1.24383 0.69523,-0.19986 2.38372,-0.50901 3.75219,-0.68706 5.20345,-0.67693 7.0759,-1.37722 7.42743,-2.77785 0.11372,-0.45288 -0.0181,-2.42482 -0.29287,-4.38208 -0.95322,-6.7905 -0.69329,-7.55946 2.24157,-6.63086 2.7217,0.86117 2.74092,0.8852 2.08376,2.60592 -0.34634,0.90688 -0.49387,1.92114 -0.37947,2.60862 0.10301,0.61863 0.28597,2.56533 0.4067,4.326 0.20217,2.94838 0.16081,3.29616 -0.5237,4.40373 -1.01419,1.64098 -2.09652,2.11747 -6.08014,2.67666 -1.87696,0.26348 -4.0609,0.70775 -4.85317,0.98729 -1.91591,0.67598 -2.3829,0.64467 -3.71325,-0.2489 z M -4.1655739,130.84536 c -0.4262134,-0.16089 -1.4226195,-0.75753 -2.2142371,-1.32603 -1.4371611,-1.0321 -1.622792,-1.72382 -0.5541975,-2.06517 0.3066897,-0.0979 0.930836,-0.39856 1.3869914,-0.66799 2.3846017,-1.40856 3.2320484,-1.58518 6.2452945,-1.30165 6.090377,0.57308 8.6016356,-1.64161 6.7297763,-5.93507 -1.5238095,-3.49513 -6.0566055,-5.70017 -7.6847636,-3.73836 -0.2174119,0.26197 -0.9440918,0.47629 -1.6148434,0.47629 -0.9760604,0 -1.5016461,-0.27106 -2.6324431,-1.35764 -1.8557917,-1.78319 -1.746116,-2.44734 0.615733,-3.72842 2.2859553,-1.23991 5.5135111,-1.41122 7.1326328,-0.37853 3.5656595,2.2742 5.8308216,4.60662 7.2330736,7.4479 0.895657,1.81477 1.060687,2.52054 1.060687,4.53603 0,2.65081 -0.492904,3.65316 -2.452436,4.98721 -1.063824,0.72425 -2.2439846,0.93302 -6.976144,1.23407 -1.7055693,0.1085 -2.7246785,0.35017 -3.3175033,0.78669 -1.5229362,1.12142 -2.1437404,1.33776 -2.9576206,1.03067 z m -0.8073125,-8.04424 c -0.8661314,-0.75438 -1.573564,-1.5442 -1.5720812,-1.75516 0.00335,-0.45826 2.8909844,-2.58713 3.9768236,-2.93176 1.0234506,-0.32484 3.2026531,0.39997 4.7187685,1.56942 2.8857014,2.22594 4.3676421,5.37325 1.8521737,3.93363 -1.6312202,-0.93357 -4.098512,-1.1968 -5.0953735,-0.54363 -1.8531274,1.2142 -2.2014877,1.18974 -3.8803111,-0.2725 z M 199.01974,119.57915 c -1.97339,-1.55227 -1.8354,-2.68412 0.38388,-3.1484 0.67773,-0.14171 1.30688,-0.28026 1.39812,-0.30767 0.0912,-0.0275 1.01333,-0.16691 2.04911,-0.30974 1.80515,-0.24905 1.93925,-0.2148 3.23456,0.82613 1.92952,1.5506 1.79901,2.16694 -0.55624,2.62673 -1.04915,0.20481 -2.62806,0.51409 -3.50868,0.68729 -2.08753,0.41056 -1.98696,0.42311 -3.00075,-0.37434 z m -3.12137,-8.14151 c -1.04477,-2.86594 -2.0634,-6.1242 -2.0634,-6.60019 0,-0.83427 3.89155,-0.97861 4.34931,-0.16126 0.44239,0.78979 1.54808,3.41183 1.78367,4.2298 0.27608,0.95852 0.60999,0.9395 2.4634,-0.1404 2.42687,-1.41395 3.94667,-2.76658 4.32369,-3.84815 0.74612,-2.14031 0.2409,-3.15458 -2.3088,-4.63508 -1.57777,-0.91615 -3.00623,-0.99979 -5.30326,-0.31052 -0.63862,0.19163 -2.04315,0.56792 -3.12118,0.83623 -1.87756,0.46729 -2.00697,0.45772 -3.07532,-0.22726 -0.82245,-0.52735 -1.09176,-0.92047 -1.02571,-1.4973 0.10877,-0.94992 1.3025,-1.39052 6.00499,-2.21641 3.77842,-0.66357 4.65597,-1.2279 5.8398,-3.755436 0.43074,-0.919662 0.99286,-1.752564 1.24915,-1.850897 0.2567,-0.09845 0.37497,-0.03161 0.26331,0.149046 -0.11145,0.180431 0.0388,0.327951 0.33409,0.327951 0.29524,0 0.45684,-0.129262 0.35913,-0.287471 -0.20965,-0.339216 2.81962,0.17668 3.166,0.53919 0.12926,0.13533 -0.42195,1.365555 -1.22484,2.734027 -0.80288,1.36846 -1.46229,2.67473 -1.46535,2.90281 -0.003,0.22808 0.35886,0.4147 0.80424,0.4147 0.44538,0 0.90356,0.15168 1.01817,0.33716 0.11466,0.18552 0.35676,0.24545 0.53812,0.13342 0.41362,-0.25566 1.66434,0.83986 1.41656,1.24076 -0.10046,0.16258 0.015,0.25462 0.25664,0.20448 0.24298,-0.0504 0.41902,0.16671 0.39386,0.48584 -0.025,0.31735 0.0747,0.50264 0.22181,0.4118 0.42472,-0.2625 0.71562,1.65395 0.46257,3.04734 -0.60399,3.32581 -2.68227,5.58148 -7.02953,7.62947 -2.40967,1.13519 -3.5963,1.49196 -5.49649,1.65261 l -2.42334,0.20482 z m -184.811157,-3.4513 c -0.795395,-0.36092 -1.602385,-0.65621 -1.793313,-0.65621 -0.190932,0 -0.810591,-0.35348 -1.377026,-0.78553 -0.5664378,-0.43205 -1.5135742,-0.89178 -2.1047568,-1.02162 -0.5911785,-0.1298 -1.0748714,-0.37351 -1.0748714,-0.54147 0,-0.70065 -1.6326494,-0.2255 -2.8728622,0.83607 -2.0523971,1.75677 -2.8050325,1.81367 -3.8301441,0.28946 -1.6386142,-2.43636 -1.5621206,-2.88275 0.9068201,-5.29167 2.5073684,-2.44643 2.2291994,-2.42914 6.2839512,-0.39046 1.4542786,0.73121 3.3950172,1.6165 4.3127572,1.96736 0.917736,0.35084 2.303842,1.19485 3.080239,1.87557 1.177784,1.03262 1.446298,1.49869 1.620908,2.81348 0.207891,1.56538 0.202939,1.57575 -0.74813,1.56851 -0.526571,-0.004 -1.608181,-0.30256 -2.403572,-0.66349 z m 2.884401,-4.77506 C 12.561382,101.88983 12.405323,101.58882 12.212478,99.81823 11.781979,95.86553 11.140687,94.92854 8.605776,94.5484 7.1932336,94.33658 6.9847776,94.40405 5.7262967,95.48132 4.8727968,96.21189 4.1411996,96.58289 3.7537915,96.48157 3.415097,96.39307 2.6571049,95.41831 2.0693649,94.31561 1.2120032,92.707041 1.0913529,92.259031 1.459061,92.049452 1.7111285,91.905844 2.7937328,91.105077 3.8648482,90.270165 5.2329594,89.20372 6.1212127,88.752482 6.8506024,88.753353 c 1.1487016,0.0013 4.0525226,1.342891 5.8486516,2.701963 0.638621,0.483226 2.083933,1.134491 3.211809,1.447265 2.652437,0.735574 3.586567,1.681019 3.3149,3.355119 -0.266771,1.64394 -0.659244,1.99366 -1.703395,1.51791 -1.60404,-0.73085 -2.504196,0.31435 -1.66626,1.93475 0.559507,1.08197 0.573367,3.73978 0.02332,4.47147 -0.299212,0.39805 -0.623557,0.23306 -1.908011,-0.97055 z m 175.999246,-8.1537 c -1.05726,-0.42657 -1.17243,-0.83141 -0.48501,-1.704913 0.59925,-0.761493 1.49514,-1.409116 6.60708,-4.776142 1.33311,-0.878057 2.56473,-1.859751 2.73695,-2.181526 0.17219,-0.321762 0.31513,-1.378616 0.31762,-2.348536 0.008,-3.218877 0.11828,-3.357636 2.98124,-3.760304 l 1.49287,-0.209967 0.056,2.928018 c 0.0387,2.020183 -0.099,3.256839 -0.44412,3.988568 -0.49072,1.040619 -2.62325,2.834266 -5.25165,4.417089 -0.72985,0.439504 -2.24271,1.5142 -3.36191,2.388171 -2.06817,1.615052 -3.08512,1.890572 -4.64909,1.259542 z M 24.732638,85.157178 C 23.961256,84.67114 23.243573,84.016914 23.137785,83.70335 23.031991,83.389799 21.827977,81.99381 20.462191,80.60117 17.733813,77.819158 18.21226,77.971098 14.323285,78.651645 c -1.193176,0.208802 -1.197067,0.205547 -1.741689,-1.459529 -0.693311,-2.119695 -0.708748,-3.368781 -0.04163,-3.368781 0.277322,0 1.095438,-0.373212 1.818037,-0.829379 0.722597,-0.456154 1.727325,-0.828817 2.232723,-0.828134 0.978067,0.0013 3.075282,1.10884 3.075282,1.624039 0,0.16934 1.570318,1.893654 3.489593,3.831627 3.417329,3.450611 3.494835,3.562834 3.742861,5.419518 0.443036,3.316527 0.167099,3.586155 -2.165829,2.116172 z M 186.00636,83.130244 c -1.80641,-0.282943 -4.06745,-0.94226 -4.61203,-1.344901 -0.18246,-0.134954 -0.9289,-0.432404 -1.65876,-0.661124 -1.43229,-0.448854 -2.81986,-1.525439 -2.81986,-2.187876 0,-0.533443 2.61726,-2.458999 3.34234,-2.458999 0.30669,0 1.09357,0.223938 1.74861,0.497625 0.65504,0.273701 1.33919,0.497625 1.52033,0.497625 0.401,0 3.57724,-4.248753 4.75998,-6.367243 0.77672,-1.391233 0.83913,-1.769388 0.66715,-4.043179 l -0.1897,-2.508419 0.95946,-0.375034 c 0.52771,-0.206283 1.51929,-0.454225 2.20352,-0.551017 l 1.24408,-0.175931 -0.001,3.278244 c -0.001,3.72182 0.12591,3.424196 -3.60366,8.420378 -1.29398,1.73341 -2.35581,3.314285 -2.35964,3.513067 -0.0121,0.592328 1.57091,1.131424 3.3209,1.131424 1.3357,0 1.83504,-0.176105 2.70629,-0.95457 1.02456,-0.915456 1.06555,-1.04808 0.9995,-3.23457 -0.0379,-1.253989 0.0435,-2.440734 0.18093,-2.637239 0.28851,-0.412634 3.72855,-1.582555 3.96325,-1.34786 0.0863,0.08626 0.2098,1.510154 0.27448,3.164118 0.11493,2.939237 0.093,3.043022 -0.96904,4.589249 -2.14636,3.124978 -6.58706,4.55349 -11.67688,3.756299 z M 28.460819,81.469167 c -0.118345,-0.538828 -0.518314,-1.365059 -0.888823,-1.836082 -0.959203,-1.219416 -0.659028,-1.925668 2.166354,-5.097041 l 2.468405,-2.770653 -0.818527,-1.210334 c -1.149151,-1.699225 -3.895504,-4.030227 -4.748354,-4.030227 -0.437838,0 -1.446355,0.757087 -2.600472,1.952191 -2.407376,2.49284 -3.111142,2.873714 -3.834006,2.074942 -0.29666,-0.327803 -0.539382,-0.890287 -0.539382,-1.24997 0,-0.359683 -0.147856,-0.801826 -0.328567,-0.982525 -0.180709,-0.180618 -0.424935,-1.031644 -0.542719,-1.890988 -0.206243,-1.504716 -0.183339,-1.562409 0.620356,-1.562409 0.597596,0 1.536313,-0.706359 3.306556,-2.488125 2.196619,-2.210902 2.61009,-2.488125 3.711023,-2.488125 0.681439,0 1.519815,0.150359 1.863057,0.333992 0.343242,0.183632 1.767955,2.066262 3.166027,4.183492 l 2.541951,3.849502 1.214187,-0.194175 c 1.200452,-0.19195 1.226311,-0.171777 2.286045,1.787298 0.58952,1.089805 1.071856,2.205222 1.071856,2.478708 0,0.2735 -1.828774,2.421941 -4.063942,4.774267 -2.235168,2.352348 -4.256438,4.517519 -4.491712,4.811486 -0.659938,0.824531 -1.321943,0.635513 -1.559313,-0.445224 z M 171.89914,70.490091 c -2.53113,-2.57317 -4.26401,-4.593474 -4.20461,-4.901934 0.10757,-0.558506 2.73671,-2.712586 3.31081,-2.712586 0.18773,0 1.44741,1.072526 2.79931,2.38339 1.48133,1.436361 2.57444,2.260235 2.75105,2.073442 0.6399,-0.676743 0.98245,-10.783997 0.44276,-13.063936 -0.47799,-2.0193 -0.0891,-2.82355 1.76095,-3.641932 0.85025,-0.376092 1.64954,-0.619775 1.77622,-0.541467 0.55877,0.345323 0.36878,5.301789 -0.31074,8.106318 -0.38648,1.595173 -0.65469,3.488278 -0.59601,4.206934 0.0987,1.20949 0.17706,1.301648 1.05311,1.239508 0.52053,-0.03684 1.3043,-0.301629 1.7417,-0.588215 0.7119,-0.466455 0.79527,-0.760824 0.79527,-2.808253 v -2.287173 l 1.40994,-0.51761 c 2.27847,-0.836479 2.36227,-0.820486 2.42535,0.462731 0.0314,0.638621 0.1629,1.907571 0.29224,2.819893 0.21853,1.541432 0.16062,1.747554 -0.81862,2.914234 -1.06483,1.268642 -3.3078,2.595821 -5.13169,3.036477 -1.59253,0.384758 -1.82648,0.765378 -1.82648,2.971578 0,1.788905 -0.12578,2.192752 -1.02125,3.279128 -1.98111,2.403442 -1.8457,2.452923 -6.64931,-2.430527 z M 38.447545,68.140015 c -0.62946,-1.344511 -1.558839,-3.786544 -2.065286,-5.426738 -0.95144,-3.08139 -1.344797,-3.631055 -3.739501,-5.225491 l -1.365481,-0.90916 v -2.657157 c 0,-1.461437 0.09434,-2.657157 0.209656,-2.657157 0.115318,0 0.675139,0.283264 1.244064,0.629472 0.568923,0.346208 2.079422,0.962941 3.356661,1.370538 1.277238,0.407571 2.620827,0.863859 2.985753,1.013963 0.364926,0.150172 1.309708,0.456235 2.099516,0.680293 1.200349,0.340528 1.483916,0.329893 1.727885,-0.06483 0.669762,-1.083697 -0.555437,-3.297666 -1.824908,-3.297666 -1.514796,0 -1.977488,-0.755399 -2.113595,-3.450705 -0.136623,-2.705499 -0.05363,-2.819866 1.494157,-2.059243 0.516559,0.253849 1.600648,0.664393 2.409091,0.912308 2.143943,0.657494 3.008738,2.411385 3.008738,6.102088 0,1.790941 0.143734,2.846362 0.418715,3.074573 0.230295,0.191133 1.26171,0.662919 2.29203,1.048401 1.030321,0.385495 2.029935,0.889617 2.221364,1.120279 0.543782,0.655218 0.615759,4.842059 0.08884,5.167705 -0.423605,0.261793 -3.06734,-0.84331 -3.306901,-1.382312 -0.06083,-0.13683 -0.441506,-0.248813 -0.845964,-0.248813 -0.40446,0 -0.877204,-0.137767 -1.050543,-0.305995 -0.483594,-0.469496 -5.445289,-1.401294 -6.194901,-1.163358 -0.57227,0.181556 -0.633465,0.397069 -0.44592,1.56991 0.302586,1.892261 0.719948,2.281976 2.319905,2.166243 1.308863,-0.0947 1.365401,-0.05626 1.782062,1.213789 0.91053,2.775248 0.04418,4.517699 -2.493259,5.014587 -1.054997,0.206578 -1.081314,0.180056 -2.212176,-2.235481 z M 164.189,63.281239 c -0.10595,-0.171402 1.0721,-2.88309 2.61781,-6.026044 1.54572,-3.142928 2.81038,-6.063752 2.81038,-6.490638 0,-0.995049 -1.75049,-2.748899 -3.52869,-3.535482 -0.75886,-0.335679 -1.84287,-1.137786 -2.40891,-1.782462 -1.79839,-2.048246 -1.29031,-3.721056 1.70779,-5.622908 0.83522,-0.529813 0.9123,-0.532452 0.9123,-0.03121 0,1.07566 1.10697,2.199944 3.78012,3.83924 4.54733,2.788643 4.87987,4.325319 2.05397,9.491243 -0.98789,1.805944 -2.34157,4.65051 -3.00818,6.321244 -0.96973,2.430527 -1.38988,3.107967 -2.10189,3.389021 -1.51101,0.596467 -2.63333,0.773884 -2.8347,0.448063 z m -8.17357,-5.668049 c 0,-0.583407 1.92757,-4.935382 2.79362,-6.3073 0.93238,-1.476989 2.44699,-2.363833 4.03706,-2.363833 0.84993,0 0.86199,0.02599 0.34732,0.746424 -0.29324,0.410544 -1.28877,2.188573 -2.21227,3.95117 -1.49035,2.844473 -1.82729,3.264018 -2.99739,3.732188 -1.49083,0.59652 -1.96834,0.65507 -1.96834,0.241351 z m -98.338841,-2.608439 -0.233615,-2.578019 1.068194,-0.954449 c 1.034127,-0.923989 1.054524,-0.992759 0.639671,-2.157014 -1.642941,-4.610713 -2.753953,-6.222375 -4.462299,-6.473103 -1.134005,-0.16634 -1.458162,-1.094842 -1.360767,-3.897362 0.09951,-2.8634 0.463589,-3.666632 1.334373,-2.943958 0.682149,0.566141 2.241486,0.114796 6.431762,-1.861626 2.516724,-1.187067 3.326614,-1.426717 4.241324,-1.255127 2.220321,0.416545 2.344808,0.644609 5.414771,9.920567 0.60388,1.824643 1.248234,3.648964 1.431908,4.054056 0.439252,0.968822 0.374913,2.279819 -0.190877,3.889298 -0.924302,2.629322 -1.412572,1.954535 -3.415972,-4.720874 -1.316163,-4.38553 -1.884407,-5.755412 -2.651423,-6.391983 -0.617587,-0.512547 -1.753214,-0.652619 -2.466574,-0.304201 -0.273694,0.133682 -1.221022,0.577004 -2.105169,0.98519 -1.502958,0.693862 -1.596965,0.809729 -1.444957,1.781216 0.178065,1.138001 1.522071,4.785372 2.538719,6.889595 0.692666,1.433643 1.211201,5.522299 0.777533,6.130834 -0.269457,0.378102 -3.350207,1.886569 -4.612996,2.258709 -0.65713,0.193665 -0.714292,0.04849 -0.933606,-2.371749 z M 105.88072,48.78851 c -0.0655,-3.246283 0.0561,-9.91036 0.194,-10.628346 0.0701,-0.364921 0.1388,-1.217031 0.15277,-1.893587 0.0197,-0.953913 0.3118,-1.531185 1.30102,-2.571067 0.70159,-0.73753 1.41071,-1.341005 1.57582,-1.341043 0.17208,-3.7e-5 0.27683,3.316648 0.24547,7.772608 l -0.0546,7.772689 -1.10643,1.483713 c -1.58744,2.12875 -2.2565,1.956289 -2.30796,-0.594967 z m 38.42731,0.817056 c -0.0954,-0.364934 -0.0363,-0.663509 0.13141,-0.663509 0.68292,0 3.94577,-8.713501 3.94577,-10.537273 0,-1.643904 -1.03258,-2.580538 -3.38654,-3.07184 -4.21678,-0.88008 -6.10206,-2.191559 -5.6807,-3.951712 0.11212,-0.468227 0.72414,-1.568931 1.36012,-2.44601 l 1.15631,-1.59468 1.04098,1.136509 c 0.62187,0.678902 1.50653,1.230185 2.19722,1.369212 2.58414,0.520158 4.3472,1.286965 5.41568,2.355455 1.79552,1.795501 1.81935,2.978616 0.17017,8.446571 -0.3577,1.186022 -0.79159,2.415618 -0.96418,2.73245 -0.1726,0.316833 -0.31382,0.828737 -0.31382,1.137559 0,1.165528 -0.87393,2.94373 -2.12447,4.32268 -1.4185,1.564177 -2.65494,1.884881 -2.94791,0.764588 z M 81.858586,47.929608 c -0.108767,-0.175917 -0.185696,-3.085744 -0.170979,-6.466138 0.01465,-3.380394 -0.115211,-6.411473 -0.288761,-6.735753 -0.173536,-0.324254 -0.909242,-1.308051 -1.634889,-2.186175 -1.408064,-1.703962 -1.490306,-2.283738 -0.680522,-4.797561 0.800424,-2.484765 0.907281,-2.554985 1.996958,-1.312395 0.536613,0.611916 1.373258,1.686382 1.859212,2.387726 0.820734,1.184493 0.914811,1.232384 1.323303,0.673752 0.241864,-0.330778 0.589586,-1.157842 0.772715,-1.837928 0.484704,-1.800056 1.672557,-2.599116 3.863791,-2.599116 1.727878,0 1.861859,0.06597 3.407683,1.678245 1.348161,1.406107 1.694092,2.038209 2.133285,3.898071 1.343184,5.687982 1.497694,12.747667 0.307783,14.062508 -0.291172,0.321735 -1.068738,0.693126 -1.727923,0.825321 -1.494775,0.299741 -1.285748,0.25038 -2.857271,0.674761 -0.72985,0.197081 -1.745569,0.452819 -2.257153,0.56827 l -0.93015,0.209941 0.06888,-2.359332 c 0.08255,-2.827087 0.472359,-3.383127 2.786664,-3.975026 2.719451,-0.695523 2.917064,-0.863832 2.65176,-2.258361 -0.127186,-0.668518 -0.297713,-1.588716 -0.37896,-2.044884 -0.396008,-2.223359 -0.876138,-3.332841 -1.857528,-4.292335 -1.148662,-1.123014 -1.93975,-1.155173 -3.504917,-0.142468 -1.587062,1.026896 -2.140838,3.148091 -2.197102,8.415804 -0.04514,4.226785 -0.138389,4.976464 -0.768625,6.179404 -0.729221,1.391877 -1.559418,2.012655 -1.917263,1.433656 z M 136.5867,46.544483 c 0.63703,-4.802089 1.54496,-7.166109 3.18824,-8.301377 1.13064,-0.781091 2.30698,-1.18696 2.30698,-0.795946 0,0.141907 -0.64877,2.181018 -0.91289,2.869388 -0.26057,0.679114 -0.2367,0.585764 -0.72145,2.819866 -0.23754,1.094789 -0.64605,2.407648 -0.90777,2.917489 -0.43976,0.856652 -2.2135,2.220533 -2.89158,2.2234 -0.16037,6.83e-4 -0.18804,-0.779082 -0.0615,-1.73282 z m -7.27718,-0.331246 c -1.45971,-0.174617 -2.84061,-0.373855 -3.06869,-0.442692 -0.64857,-0.195768 -0.49004,-1.615426 0.40682,-3.643392 l 0.8215,-1.857581 2.62982,0.229403 2.62982,0.229403 0.20584,-2.445221 c 0.42804,-5.084522 -0.56953,-7.148349 -3.2415,-6.70621 -2.18241,0.361112 -3.95989,2.820033 -4.87875,6.749101 -1.07991,4.617799 -1.52153,5.56117 -3.01683,6.444465 -0.86661,0.511931 -0.97135,0.514851 -1.15652,0.03228 -0.3805,-0.991513 0.70188,-5.593654 2.40261,-10.215632 0.62403,-1.69589 0.562,-3.136467 -0.20326,-4.720735 -0.79293,-1.641575 -0.81187,-2.234169 -0.11452,-3.582801 1.23629,-2.39077 2.76848,-3.737259 2.76848,-2.432947 0,0.540833 1.32226,3.89234 1.71107,4.336978 0.15953,0.182502 0.87441,-0.316361 1.72364,-1.202668 1.31857,-1.376129 1.57872,-1.507226 2.84897,-1.435542 2.01859,0.113898 3.03698,1.03199 3.90559,3.520965 0.87374,2.503674 0.95599,5.283087 0.29445,9.950528 -0.41054,2.896526 -0.79445,4.18135 -1.97317,6.603625 -0.47205,0.970054 -0.97773,1.033453 -4.69542,0.588684 z m -28.50388,-1.274322 c -0.39612,-1.141055 -0.85603,-5.927899 -0.85603,-8.909631 0,-4.328628 -0.29053,-5.059668 -2.508251,-6.311278 -1.226742,-0.692323 -1.859486,-1.282154 -2.007317,-1.871159 -0.218275,-0.869673 0.735835,-4.661534 1.253432,-4.981429 0.149864,-0.09267 0.772625,0.213101 1.383936,0.679354 0.61129,0.466272 1.34315,0.847758 1.62633,0.847758 0.2832,0 0.96645,0.514294 1.51835,1.142882 1.08781,1.238943 1.26049,2.099124 1.53539,7.648502 0.0813,1.642162 0.23947,3.732187 0.35137,4.644509 0.44802,3.652568 0.43219,3.977598 -0.25048,5.142134 -1.04457,1.781873 -1.84444,2.551109 -2.04673,1.968358 z m 10.29967,-0.544012 c -0.31574,-0.315734 -0.25106,-1.385353 0.20151,-3.331931 0.35557,-1.529403 0.67931,-1.999528 2.46046,-3.573015 2.33639,-2.063971 3.40016,-4.306954 2.79613,-5.895663 -0.48135,-1.266065 -1.13192,-1.466535 -5.33429,-1.643755 -2.09831,-0.08853 -4.07708,-0.271834 -4.39725,-0.407424 -0.32016,-0.135513 -0.82017,-0.748162 -1.11111,-1.361281 -0.50521,-1.064636 -0.48895,-1.219583 0.36149,-3.445126 0.48976,-1.281702 1.00537,-2.401371 1.14582,-2.488166 0.14044,-0.08684 0.60165,0.210806 1.02491,0.661328 0.42325,0.45054 1.0421,0.819152 1.37522,0.819152 0.33313,0 0.60567,0.158067 0.60567,0.351338 0,0.193215 0.16598,0.248736 0.36885,0.123301 0.65906,-0.407311 6.03925,-0.07386 7.32418,0.454055 1.13436,0.46599 1.42511,1.045127 1.89004,3.764701 0.48757,2.851873 0.0841,4.854806 -1.72729,8.576573 -1.82041,3.740157 -6.10403,8.27618 -6.98434,7.39586 z M 74.640474,40.067722 c 0.157617,-2.946489 0.110148,-3.31354 -0.532981,-4.121393 -0.3883,-0.48778 -1.136566,-0.981413 -1.66281,-1.096999 -1.806622,-0.396787 -2.12958,-1.128169 -1.705404,-3.862064 0.438908,-2.828832 0.839328,-3.52215 1.639675,-2.839094 0.293147,0.250202 1.222385,0.780227 2.064971,1.177878 2.039484,0.962484 2.548132,1.590564 2.933436,3.622286 0.327626,1.727569 0.263728,2.993626 -0.288155,5.709466 -0.166846,0.821062 -0.310743,1.532766 -0.319763,1.581537 -0.163011,0.881687 -1.456998,3.062972 -1.817024,3.062972 -0.404129,0 -0.456126,-0.539189 -0.311945,-3.234589 z"
       id="path4581" />
  </g>
  <g
     inkscape:groupmode="layer"
     id="layer2"
     inkscape:label="Background"
     style="display:none">
    <rect
       style="fill:#ffffff;stroke:#ff0000;stroke-width:0;stroke-linecap:round;stroke-linejoin:round;paint-order:stroke fill markers"
       id="rect1007"
       width="371.25"
       height="297"
       x="-80.625"
       y="6.6703944e-07" />
  </g>
  <g
     inkscape:groupmode="layer"
     id="layer3"
     inkscape:label="Torch">
    <path
       id="path4491-4-8-9"
       style="fill:#0f8226;stroke:#ff0000;stroke-width:0;stroke-linecap:round;stroke-linejoin:round;paint-order:stroke fill markers"
       d="m 72.775489,179.1251 a 9.4040375,9.4040375 0 0 0 9.40404,9.40404 9.4040375,9.4040375 0 0 0 9.40403,-9.40404 9.4040375,9.4040375 0 0 0 -9.40403,-9.40403 9.4040375,9.4040375 0 0 0 -9.40404,9.40403 z m 10.61312,19.70369 a 9.4040375,9.4040375 0 0 0 9.404039,9.40404 9.4040375,9.4040375 0 0 0 9.404032,-9.40404 9.4040375,9.4040375 0 0 0 -9.404032,-9.40403 9.4040375,9.4040375 0 0 0 -9.404039,9.40403 z m 53.835901,-19.51111 a 9.4040375,9.4040375 0 0 1 -9.40404,9.40404 9.4040375,9.4040375 0 0 1 -9.40404,-9.40404 9.4040375,9.4040375 0 0 1 9.40404,-9.40403 9.4040375,9.4040375 0 0 1 9.40404,9.40403 z m -10.61311,19.70369 a 9.4040375,9.4040375 0 0 1 -9.40404,9.40404 9.4040375,9.4040375 0 0 1 -9.40404,-9.40404 9.4040375,9.4040375 0 0 1 9.40404,-9.40403 9.4040375,9.4040375 0 0 1 9.40404,9.40403 z M 114.40404,179.09744 A 9.4040375,9.4040375 0 0 1 105,188.50148 9.4040375,9.4040375 0 0 1 95.595965,179.09744 9.4040375,9.4040375 0 0 1 105,169.69341 a 9.4040375,9.4040375 0 0 1 9.40404,9.40403 z m -0.0669,38.6429 a 9.4040375,9.4040375 0 0 1 -9.40404,9.40404 9.4040375,9.4040375 0 0 1 -9.404036,-9.40404 9.4040375,9.4040375 0 0 1 9.404036,-9.40404 9.4040375,9.4040375 0 0 1 9.40404,9.40404 z" />
  </g>
</svg>
