<?xml version="1.0" encoding="UTF-8"?>
<svg xmlns="http://www.w3.org/2000/svg" xmlns:svg="http://www.w3.org/2000/svg" xmlns:sodipodi="http://sodipodi.sourceforge.net/DTD/sodipodi-0.dtd" xmlns:inkscape="http://www.inkscape.org/namespaces/inkscape" version="1.1" viewBox="0 0 1000 800">
  <!-- Generator: Adobe Illustrator 30.3.0, SVG Export Plug-In . SVG Version: 2.1.3 Build 182)  -->
  <defs>
    <style>
      .st0 {
        fill: none;
      }

      .st1 {
        fill: #0f8226;
      }

      .st2 {
        fill: #fff;
      }

      .st3 {
        display: none;
      }
    </style>
  </defs>
  <g id="svg5" inkscape:version="1.1 (c68e22c387, 2021-05-23)" sodipodi:docname="Abu_Ghosh_Flag.svg">
    <sodipodi:namedview id="namedview7" bordercolor="#666666" borderopacity="1.0" inkscape:current-layer="layer1" inkscape:cx="502.15928" inkscape:cy="412.0621" inkscape:document-units="mm" inkscape:guide-bbox="true" inkscape:pagecheckerboard="0" inkscape:pageopacity="0.0" inkscape:pageshadow="2" inkscape:window-height="1046" inkscape:window-maximized="1" inkscape:window-width="1826" inkscape:window-x="83" inkscape:window-y="-11" inkscape:zoom="0.7547406" pagecolor="#ffffff" showgrid="false" showguides="true"/>
    <g id="layer1" inkscape:groupmode="layer" inkscape:label="Layer 1">
      <path id="path905" class="st1" d="M371.7,413.2h120.4c12.5,14.4,11.7.8,16.4,0h121.1v24.9h-113.6c-6.3,10.2-13.4,26.4-31.4,0h-114.3l1.4-24.9Z" sodipodi:nodetypes="ccccccccc"/>
      <path id="path1742" class="st1" d="M504.2,151.1c13.9,7.6-7.4,51.8,31.4,109.9,7.2-6.7-4-23.6-2-36.8,107.8,113.6,22.1,160.9-27.6,178.4,16-74.8-32.4-75.5-17.1.7-81.5-31.2-84.6-77.1-62.6-121.2,13.6-27.1,36.8-48.3,56.6-80.7,9.3-15.2,14.6-34,21.4-50.2Z" sodipodi:nodetypes="cccccssc"/>
      <circle id="path1317" class="st0" cx="500" cy="400" r="269.6"/>
      <circle id="path1317-5" class="st0" cx="500" cy="400" r="307.5"/>
      <path id="path4581" class="st1" d="M450.7,706.9c-7.2-2.7-14.5-6.9-13.6-7.8.6-.6,2.5-.3,6,1,6.4,2.4,12.1,2.5,18.1.2,4.9-1.9,15.4-10.2,15.4-12.2s-1.3-1.6-2.9-2.2c-4.5-1.6-7.8-6-7.8-10.4,0-7.7,4.3-14.9,9.8-16.5,5.9-1.8,10.3,2.4,10,9.7-.2,4.2.9,6.5,3.1,6.5s1.6-4,.2-7.9c-.9-2.5-.7-3.5,1.6-8,3.4-6.8,7.9-9.4,16.3-9.5,7.7,0,10.1.7,14.4,4.5,5.8,5.2,5.2,5.7-7.6,5.6-9.5,0-11.6.2-14.1,1.6-4.5,2.6-4.3,5.5.6,10.6,3.9,4,4.2,4.2,7.9,3.6,8.1-1.2,13-2.2,19.4-4.1,3.6-1.1,6.9-1.6,7.4-1.2,1.2,1.2-.8,6.9-3,8.9-4.9,4.3-23.1,8.3-38.3,8.3-4.8,0-8.1.4-9,1.1-.7.6-2.9,3.5-4.9,6.5-1.9,2.9-4.7,6.4-6.2,7.6-5.7,4.9-15.9,6.7-22.8,4.1h0ZM479.1,671c.3-1.9-1.9-3.5-3.5-2.5-1,.6-1.1,3.4-.2,4.3,1.2,1.2,3.4.1,3.7-1.8h0ZM588,699.6c-3.5-.4-4.4-1.7-1.8-2.4.9-.3,3.6-.7,6-1,9.4-1.2,16.1-6.4,21.4-16.7,3.9-7.6,4-9.1.7-8.5-3.2.6-9.6-1-11.2-2.8-.7-.8-1.7-3.4-2.3-5.7-2.7-11.1.8-19.5,8-19.5s7.1,3.2,9.8,9.6c1.5,3.5,1.8,3.8,4.1,3.2,3.8-1,13.2-5.4,14.4-6.8.8-1,.6-1.7-1-3.4-1.1-1.2-2-2.5-2-2.9s-1.6-1.9-3.6-3.2c-3.3-2.2-3.6-2.7-3.3-6,.3-4.8.8-5.8,2.7-5.8s6.4,4.3,6.5,5.9c0,.5,1.2,2.7,2.7,4.9s3.5,6.6,4.6,9.8c1.1,3.2,2.3,6.3,2.7,6.8,1.1,1.4-1.5,3.4-8.6,6.6-3.4,1.5-8,3.7-10.2,4.7l-4,2-1.5,7.6c-1.8,9.3-2.1,10.1-6,15.4-4.2,5.8-8.2,7.7-17.4,8.1-4.1.2-8.9.2-10.8,0h0ZM611.3,655.7c-.2-1.5-.8-2.5-1.6-2.5s-1.5,1-1.6,2.5c-.2,2,0,2.5,1.6,2.5s1.9-.5,1.6-2.5ZM369.8,686.3c-9.1-2.4-13-4.3-17.3-8.1-7.1-6.4-7.6-13.6-1.6-23.8,2.8-4.8,11.8-15.5,13.6-16.2,2.4-.9,2.2,1-.6,4.5-10.3,12.9-12,19.6-6.5,26.2,4.1,4.9,15.2,8.5,26.3,8.5,5.5,0,7.4-.3,10.6-2.2,6-3.4,7.3-6.9,6.8-17.4l-.4-8.6,3.2-3.5c1.8-1.9,3.5-3.3,3.9-3.1,1.4.9,1.9,9.3.8,14.3-1.3,5.9-1,6.4,5.3,8,4.5,1.2,4.7,1.2,7.3-1,1.5-1.2,2.7-3.1,2.7-4.2,0-2.3,2.3-5.7,3.2-4.8.4.4.7,3.1.8,6,.1,4.3.6,5.8,2.3,7.6,4.4,4.7,6.8,2.1,5.8-6.2-.6-4.5-.5-4.9,1.8-6.4,2.9-1.9,3.9-1.1,4.4,3.4.4,3.2-1.6,11.4-4.6,18.8-1.8,4.4-4.5,5.1-9.4,2.4-2-1.1-4-2.6-4.4-3.2-.5-.8-2.7-1.2-6.3-1.3-3,0-7.1-.6-9.1-1.2l-3.6-1.1-4.5,4.6c-6.1,6.3-11.7,8.9-19.7,9.1-3.4.1-8.3-.4-10.7-1h0ZM637.1,680.8c-1.4-.4-1.6-1.1-1.2-4.5.5-5.2,2.4-6.5,7.6-5.1,1.7.5,2,1.2,2,4.3s-.5,4.2-1.1,4.8c-1.1,1.1-4.1,1.3-7.3.4h0ZM652.4,650c-.9-.5-3-3.8-4.8-7.3-1.8-3.5-4.1-7.8-5.2-9.6-1.1-1.8-3.6-6-5.6-9.5s-5.6-9.8-8.2-14.1c-4.1-7.1-4.6-8.4-4.6-13.2s.3-5.1,1.1-4.8c1.1.4,7.5,9.7,16.1,23.2,2.2,3.5,6.3,10.8,9,16.4,4.3,8.5,5,10.9,5,14.9s-.3,5.4-2.9,3.8h0ZM503.2,641.1c-3.8-2-4-2.8-1.6-6.9,2.1-3.4,2.5-3.5,7.1-1.1,3.7,1.9,3.9,3.5,1.1,7.8-1.6,2.4-2.3,2.4-6.7.2h0ZM423.2,637.6c-1.6-1.5-2.9-3-2.9-3.4,0-1.3,5.1-6.4,6.4-6.4,1.9,0,5,3.7,5.4,6.4.3,2.6-2.2,6.1-4.5,6.1-.8,0-2.7-1.2-4.3-2.7ZM436.8,637c-2.7-3.9-2.8-5.7-.7-7.6,3.3-2.9,5-2.6,8.1,1.1l3,3.6-3.1,3.1c-1.7,1.7-3.5,3.1-4.1,3.1s-2-1.5-3.2-3.3ZM707.6,635.9c-3.5-1.4-9.4-8.4-12.5-14.8-1.7-3.6-3.2-7.2-3.2-8s-.4-1.4-.9-1.4-.9-1.2-.9-2.7c0-4.8,2.9-2.6,5.8,4.5,4.5,10.6,8.9,14.7,15.4,14,5-.5,7.3-2.1,13.2-9.3,8.4-10.2,11.9-20.3,9-26-2-3.8-8.7-8.9-13.5-10.2-4.9-1.3-7.6-4.4-8.3-9.7-.5-3.6-.5-3.6,2.1-2.9,3.5.9,8.1,3.3,11.2,6.1,1.4,1.3,2.9,2.3,3.3,2.3s2.2-1.4,4-3.2c4.3-4.2,4.5-8.1.6-11.4-1.5-1.2-2.7-3.1-2.7-4.1,0-2.3.6-2.3,4-.2,6.2,3.8,10.3,3.1,10.3-1.7s-.4-2.6-3.2-3.1c-4-.8-5.8-2.5-5.8-5.8s.3-2.6,2.5-2.6,4,1,5.8,2.3c1.8,1.3,3.7,2.1,4.1,1.8,1-.6,5.7-8.6,5.3-8.9-1.2-1-6.7-3.2-7.8-3.2-.8,0-3-1-5-2.2-2-1.2-4.2-2.2-5-2.2-.8,0-1.9-.6-2.5-1.3s-1.4-1.3-1.7-1.2c-.6.1-5.2-1.8-11.4-4.7-2-.9-5.1-1.7-6.9-1.7-3.8,0-9-3-10.4-6.1-1.4-3-1.2-3.8.9-3.8s3.3-1,5-2.2l3.2-2.2,3.5,1.8c1.9,1,4.3,3.2,5.3,4.8,1.4,2.3,3,3.5,7.1,5,2.9,1.1,5.5,2.3,5.8,2.7.3.4,1,.8,1.7.8s4.6,1.5,8.7,3.4c11.7,5.4,13.2,5.9,14.3,4.8,1.1-1.1,2.3-4.2,6.5-17.1,1.7-5.2,3.3-10.1,3.6-10.9.9-2.4-1-1.9-5.3,1.3-4.7,3.5-9.1,9.1-11.8,15-2.3,4.9-4,5.5-6.2,2.2-1.1-1.7-1.4-3.8-1.1-8.9.3-6.6.4-6.7,4.6-11.1,2.4-2.4,8.9-7.1,14.6-10.5,6.6-3.9,10.6-6.9,11.1-8.2,1.1-2.8,1-8.9,0-9.6-.5-.3-.9-1.4-.9-2.4,0-1.7-1.1-2.9-9-10.2-1.4-1.3-2.6-2.8-2.6-3.3s-.8-1.9-1.7-3.3c-1.6-2.2-2.8-8.4-1.8-9.3,1.3-1.1,9.9-5.3,13.3-6.4,4.5-1.6,11.1-1.8,13.6-.4,3,1.6,2,9.1-2.5,18.6l-2.3,4.8,2.1,3.7c3.9,7,3.1,21.4-1.9,33.2-.4,1-1.8,4.8-3,8.5-4.7,14-11.2,32.3-11.9,33.3-.4.6-1.7,2.5-3.1,4.2-1.3,1.7-3.5,5-4.7,7.4-2,3.6-2.2,4.6-1.3,6.5.9,2,.7,2.6-1.6,5-1.4,1.5-4.1,3.6-5.9,4.6-2.2,1.2-3.7,2.9-4.3,4.8-.5,1.6-2.6,4.8-4.6,7.1l-3.7,4.2,2.4,4.9c5.5,11.1.9,26.7-11.6,39.1-2.4,2.4-5.7,4.9-7.3,5.6-3.1,1.3-9.5,1.5-12.3.4h0ZM773.8,451.4c1.8-3.5.9-3.9-3.8-1.7-4.5,2.2-4.6,2.5-2.6,5.4,1.4,2,1.5,2,3.2.4,1-.9,2.4-2.8,3.1-4.2h0ZM304.1,628.8c0-.5,1.5-2.5,3.4-4.4,5.4-5.6,10.4-11.2,12.3-13.7,7.8-10.4,15.2-20.1,15.7-20.4.7-.5,2.6-4.2,2.6-4.9s-.7-.5-1.6-.5c-2.6,0-7.3,4.5-18.5,18.1-10.3,12.4-17,18.5-20.4,18.5s-4.5-2.8-8-6.3c-3.5-3.4-7.2-7-8.1-7.8-3.1-2.9-6.8-10.6-7.1-14.6-.5-5.3-2.6-8.4-7.4-10.7-4-2-12.9-11.5-12.9-13.9s-1.5-4.4-3.3-8.2c-1.8-3.8-3.3-7.5-3.4-8.3,0-.8-1-2.9-2.1-4.7s-1.9-3.8-1.9-4.4-1-3.1-2.1-5.5c-5-10.5-6-12.9-5.8-13.6,0-.4-.5-2.3-1.4-4.2-.8-1.9-1.5-4.1-1.4-4.9.5-5.1-.3-9.9-2.4-16-1.7-4.9-2.3-8.3-2.1-11.8.6-11.2.4-15.5-.6-16.9-.8-1-1.3-1.2-2-.5-1.5,1.5-2.7,10.4-1.7,12.3,1,1.9-.2,3.7-3.8,5.5-3.2,1.7-7.4,1-11.1-1.8-6.8-5.2-8.6-11-8.3-26.8.2-10.4.5-12.2,2.5-16.6,2.7-5.7,7.8-10.4,12.3-11.2,5.6-1,14.2,1.4,20.9,5.8,3.3,2.2,6,4.3,6,4.6s-.7,1-1.7,1.6c-1.3.8-2.4.6-5.6-1.2-5.3-3-11.6-4.6-14.3-3.6-6.7,2.5-10.6,12.2-10.6,27,0,9.2,1,13.4,3.1,13.4s1.8-.7,1.9-4c.2-5.2,1.8-9.6,4-10.8,2.2-1.2,7.6-.2,11.2,2,2.8,1.7,6.9,7,8.4,11.1.5,1.2,1.1,4.2,1.4,6.7.3,2.5.9,5.5,1.4,6.7.5,1.2,1.1,4.7,1.4,7.8.3,3.1.9,6.3,1.4,7.1.5.9.6,2,.3,2.5-.8,1.4,1.4,1,7.1-1,2.9-1,11.7-3.8,19.6-6.3,7.9-2.4,15.8-5.4,17.5-6.6,2.5-1.7,4.3-2.2,8.1-2.2,2.7,0,5.5.4,6.2.9.9.6.9.9.2.9-1.4,0-3.8,4.7-3.8,7.5s-7.5,6.4-11.3,4.4c-2.5-1.4-8.8-.3-21.8,3.8-20.5,6.5-20.7,6.6-18.3,13.6.9,2.8,2.4,6.8,3.2,8.7.8,2,2,4.7,2.5,6.1.6,1.4,1,3.7,1,5.2,0,4.3,2.8,3,4.5-2,1.5-4.6,1.1-12.4-1-19.8-1.5-5.1-.8-6,3.9-5.4,2.4.3,4.5,1.4,6.8,3.8,6,5.9,5.9,12.8-.5,31.5l-3.9,11.4,2.2,3.5c4.1,6.5,8.7,8.8,21.2,10.6,6.5,1,14.1,4.3,14.1,6.1s-3.5,10.2-6.2,13.9c-1.5,2.1-2.8,4.2-2.8,4.7s2,2.9,4.4,5.3l4.4,4.4,3-3.1c3.4-3.5,6.4-7,12.7-14.6,2.4-2.9,4.7-5.6,4.9-5.8,3.1-2.7,8.1-9.6,8.1-11.1,0-2.3,2.6-4.9,7.6-7.5,4.6-2.5,5.2-2.4,4.6.6-.5,2.6,1.2,11.8,2.2,11.8s2.1-.6,3.9-1.4c6-2.5,5.6-1.7-8,17-11.7,16.1-21.9,27.3-27.4,30.1-5.8,2.9-9.7,4-9.7,2.7h0ZM291.2,588.3c1.8-3.5,1.6-4.4-1.2-4.3-3.9,0-5,1.1-4.2,4.6.4,1.7.8,3.3,1.1,3.7.6,1,2.8-1,4.3-4ZM429.9,624.4c-3.1-3.1-3.1-4.6.1-7.7,3-2.9,4.9-2.4,8.1,2.1l1.9,2.6-2.3,2.8c-2.8,3.3-4.5,3.4-7.7.2h0ZM614.8,594.5c-.2-.6,0-2,.5-3.1.7-1.7.5-2.3-1.5-3.9-3-2.3-3-5.2-.2-11.3,2.6-5.5,5.4-6.9,7.8-4,2,2.5,1.3,4.3-2.5,5.9-1.7.7-3,1.9-3,2.6,0,1.9,6.1,1.9,8.8,0,2.9-2.1,4.5-.3,2.5,2.7-4.2,6.5-11.7,13.1-12.4,11h0ZM782.2,524.6c-1.9-2-1.9-2.3-.7-4.1.7-1.1,2.2-2.5,3.3-3.3,1.8-1.3,2.1-1.2,3.9.5,1.8,1.8,1.8,2,.4,4.4-.8,1.3-2.2,3-3.2,3.6-1.4,1-2,.8-3.7-1.1h0ZM191.2,467.3c-1.5-2.1-1.5-2.3,0-4.8l1.6-2.7,2.5,2.4c1.9,1.9,2.3,2.7,1.6,4-1.6,3-3.8,3.5-5.6,1.1h0ZM192.1,457.2c-1.9-2.1-1.4-6.1.9-7,1.3-.5,4.9,2,4.9,3.4s-.9,1.8-2,3.1l-2,2.4-1.7-1.8ZM756.2,353.2c-1.9-1.3-3.1-2.9-3.3-4.4-.2-2.1.2-2.5,3.1-3.4,1.9-.5,6.4-1.4,10.1-1.9,14-1.8,19.1-3.7,20-7.5.3-1.2,0-6.5-.8-11.8-2.6-18.3-1.9-20.4,6-17.9,7.3,2.3,7.4,2.4,5.6,7-.9,2.4-1.3,5.2-1,7,.3,1.7.8,6.9,1.1,11.7.5,7.9.4,8.9-1.4,11.9-2.7,4.4-5.6,5.7-16.4,7.2-5.1.7-10.9,1.9-13.1,2.7-5.2,1.8-6.4,1.7-10-.7h0ZM206,352.4c-1.1-.4-3.8-2-6-3.6-3.9-2.8-4.4-4.6-1.5-5.6.8-.3,2.5-1.1,3.7-1.8,6.4-3.8,8.7-4.3,16.8-3.5,16.4,1.5,23.2-4.4,18.1-16-4.1-9.4-16.3-15.4-20.7-10.1-.6.7-2.5,1.3-4.3,1.3-2.6,0-4-.7-7.1-3.7-5-4.8-4.7-6.6,1.7-10,6.2-3.3,14.9-3.8,19.2-1,9.6,6.1,15.7,12.4,19.5,20.1,2.4,4.9,2.9,6.8,2.9,12.2s-1.3,9.8-6.6,13.4c-2.9,2-6,2.5-18.8,3.3-4.6.3-7.3.9-8.9,2.1-4.1,3-5.8,3.6-8,2.8ZM203.8,330.8c-2.3-2-4.2-4.2-4.2-4.7,0-1.2,7.8-7,10.7-7.9,2.8-.9,8.6,1.1,12.7,4.2,7.8,6,11.8,14.5,5,10.6-4.4-2.5-11-3.2-13.7-1.5-5,3.3-5.9,3.2-10.5-.7ZM753.3,322.1c-5.3-4.2-4.9-7.2,1-8.5,1.8-.4,3.5-.8,3.8-.8.2,0,2.7-.4,5.5-.8,4.9-.7,5.2-.6,8.7,2.2,5.2,4.2,4.8,5.8-1.5,7.1-2.8.6-7.1,1.4-9.5,1.9-5.6,1.1-5.4,1.1-8.1-1h0ZM744.8,300.2c-2.8-7.7-5.6-16.5-5.6-17.8,0-2.2,10.5-2.6,11.7-.4,1.2,2.1,4.2,9.2,4.8,11.4.7,2.6,1.6,2.5,6.6-.4,6.5-3.8,10.6-7.5,11.6-10.4,2-5.8.6-8.5-6.2-12.5-4.2-2.5-8.1-2.7-14.3-.8-1.7.5-5.5,1.5-8.4,2.3-5.1,1.3-5.4,1.2-8.3-.6-2.2-1.4-2.9-2.5-2.8-4,.3-2.6,3.5-3.7,16.2-6,10.2-1.8,12.5-3.3,15.7-10.1,1.2-2.5,2.7-4.7,3.4-5,.7-.3,1,0,.7.4-.3.5.1.9.9.9s1.2-.3,1-.8c-.6-.9,7.6.5,8.5,1.5.3.4-1.1,3.7-3.3,7.4-2.2,3.7-3.9,7.2-3.9,7.8,0,.6,1,1.1,2.2,1.1s2.4.4,2.7.9c.3.5,1,.7,1.4.4,1.1-.7,4.5,2.3,3.8,3.3-.3.4,0,.7.7.6.7-.1,1.1.4,1.1,1.3,0,.9.2,1.4.6,1.1,1.1-.7,1.9,4.5,1.2,8.2-1.6,9-7.2,15-18.9,20.6-6.5,3.1-9.7,4-14.8,4.5l-6.5.6-1.9-5.3ZM247,290.9c-2.1-1-4.3-1.8-4.8-1.8s-2.2-1-3.7-2.1c-1.5-1.2-4.1-2.4-5.7-2.8-1.6-.3-2.9-1-2.9-1.5,0-1.9-4.4-.6-7.7,2.3-5.5,4.7-7.6,4.9-10.3.8-4.4-6.6-4.2-7.8,2.4-14.3,6.8-6.6,6-6.5,16.9-1.1,3.9,2,9.1,4.4,11.6,5.3,2.5.9,6.2,3.2,8.3,5.1,3.2,2.8,3.9,4,4.4,7.6.6,4.2.5,4.2-2,4.2-1.4,0-4.3-.8-6.5-1.8h0ZM254.8,278c-3.8-3.6-4.2-4.4-4.7-9.1-1.2-10.6-2.9-13.2-9.7-14.2-3.8-.6-4.4-.4-7.8,2.5-2.3,2-4.3,3-5.3,2.7-.9-.2-3-2.9-4.5-5.8-2.3-4.3-2.6-5.5-1.6-6.1.7-.4,3.6-2.5,6.5-4.8,3.7-2.9,6.1-4.1,8-4.1,3.1,0,10.9,3.6,15.8,7.3,1.7,1.3,5.6,3.1,8.7,3.9,7.1,2,9.7,4.5,8.9,9-.7,4.4-1.8,5.4-4.6,4.1-4.3-2-6.7.8-4.5,5.2,1.5,2.9,1.5,10.1,0,12-.8,1.1-1.7.6-5.1-2.6h0ZM728.9,256c-2.8-1.1-3.2-2.2-1.3-4.6,1.6-2.1,4-3.8,17.8-12.9,3.6-2.4,6.9-5,7.4-5.9.5-.9.8-3.7.9-6.3,0-8.7.3-9,8-10.1l4-.6.2,7.9c.1,5.4-.3,8.8-1.2,10.7-1.3,2.8-7.1,7.6-14.1,11.9-2,1.2-6,4.1-9.1,6.4-5.6,4.4-8.3,5.1-12.5,3.4h0ZM283.8,229.4c-2.1-1.3-4-3.1-4.3-3.9-.3-.8-3.5-4.6-7.2-8.4-7.3-7.5-6.1-7.1-16.5-5.3q-3.2.6-4.7-3.9c-1.9-5.7-1.9-9.1-.1-9.1s3-1,4.9-2.2c1.9-1.2,4.7-2.2,6-2.2,2.6,0,8.3,3,8.3,4.4s4.2,5.1,9.4,10.3c9.2,9.3,9.4,9.6,10.1,14.6,1.2,8.9.5,9.7-5.8,5.7h0ZM718.2,223.9c-4.9-.8-11-2.5-12.4-3.6-.5-.4-2.5-1.2-4.5-1.8-3.9-1.2-7.6-4.1-7.6-5.9s7-6.6,9-6.6,2.9.6,4.7,1.3c1.8.7,3.6,1.3,4.1,1.3,1.1,0,9.6-11.4,12.8-17.2,2.1-3.7,2.3-4.8,1.8-10.9l-.5-6.8,2.6-1c1.4-.6,4.1-1.2,5.9-1.5l3.4-.5v8.8c0,10,.3,9.2-9.7,22.7-3.5,4.7-6.3,8.9-6.4,9.5,0,1.6,4.2,3,8.9,3s4.9-.5,7.3-2.6c2.8-2.5,2.9-2.8,2.7-8.7-.1-3.4.1-6.6.5-7.1.8-1.1,10-4.3,10.7-3.6.2.2.6,4.1.7,8.5.3,7.9.3,8.2-2.6,12.4-5.8,8.4-17.7,12.3-31.5,10.1h0ZM293.8,219.4c-.3-1.5-1.4-3.7-2.4-4.9-2.6-3.3-1.8-5.2,5.8-13.7l6.6-7.5-2.2-3.3c-3.1-4.6-10.5-10.9-12.8-10.9s-3.9,2-7,5.3c-6.5,6.7-8.4,7.7-10.3,5.6-.8-.9-1.5-2.4-1.5-3.4s-.4-2.2-.9-2.6c-.5-.5-1.1-2.8-1.5-5.1-.6-4.1-.5-4.2,1.7-4.2s4.1-1.9,8.9-6.7c5.9-6,7-6.7,10-6.7s4.1.4,5,.9c.9.5,4.8,5.6,8.5,11.3l6.8,10.4,3.3-.5c3.2-.5,3.3-.5,6.2,4.8,1.6,2.9,2.9,5.9,2.9,6.7s-4.9,6.5-10.9,12.9c-6,6.3-11.5,12.2-12.1,13-1.8,2.2-3.6,1.7-4.2-1.2h0ZM680.2,189.9c-6.8-6.9-11.5-12.4-11.3-13.2.3-1.5,7.4-7.3,8.9-7.3s3.9,2.9,7.5,6.4c4,3.9,6.9,6.1,7.4,5.6,1.7-1.8,2.6-29,1.2-35.2-1.3-5.4-.2-7.6,4.7-9.8,2.3-1,4.4-1.7,4.8-1.5,1.5.9,1,14.3-.8,21.8-1,4.3-1.8,9.4-1.6,11.3.3,3.3.5,3.5,2.8,3.3,1.4,0,3.5-.8,4.7-1.6,1.9-1.3,2.1-2,2.1-7.6v-6.2l3.8-1.4c6.1-2.3,6.4-2.2,6.5,1.2,0,1.7.4,5.1.8,7.6.6,4.2.4,4.7-2.2,7.8-2.9,3.4-8.9,7-13.8,8.2-4.3,1-4.9,2.1-4.9,8s-.3,5.9-2.8,8.8c-5.3,6.5-5,6.6-17.9-6.5h0ZM320.7,183.5c-1.7-3.6-4.2-10.2-5.6-14.6-2.6-8.3-3.6-9.8-10.1-14.1l-3.7-2.4v-7.2c0-3.9.3-7.2.6-7.2s1.8.8,3.4,1.7,5.6,2.6,9,3.7c3.4,1.1,7.1,2.3,8,2.7,1,.4,3.5,1.2,5.7,1.8,3.2.9,4,.9,4.7-.2,1.8-2.9-1.5-8.9-4.9-8.9s-5.3-2-5.7-9.3c-.4-7.3-.1-7.6,4-5.5,1.4.7,4.3,1.8,6.5,2.5,5.8,1.8,8.1,6.5,8.1,16.4s.4,7.7,1.1,8.3c.6.5,3.4,1.8,6.2,2.8,2.8,1,5.5,2.4,6,3,1.5,1.8,1.7,13,.2,13.9-1.1.7-8.3-2.3-8.9-3.7-.2-.4-1.2-.7-2.3-.7s-2.4-.4-2.8-.8c-1.3-1.3-14.7-3.8-16.7-3.1-1.5.5-1.7,1.1-1.2,4.2.8,5.1,1.9,6.1,6.2,5.8,3.5-.3,3.7-.2,4.8,3.3,2.5,7.5.1,12.2-6.7,13.5-2.8.6-2.9.5-6-6h0ZM659.4,170.5c-.3-.5,2.9-7.8,7.1-16.2,4.2-8.5,7.6-16.3,7.6-17.5,0-2.7-4.7-7.4-9.5-9.5-2-.9-5-3.1-6.5-4.8-4.8-5.5-3.5-10,4.6-15.1,2.2-1.4,2.5-1.4,2.5,0,0,2.9,3,5.9,10.2,10.3,12.2,7.5,13.1,11.7,5.5,25.6-2.7,4.9-6.3,12.5-8.1,17-2.6,6.5-3.7,8.4-5.7,9.1-4.1,1.6-7.1,2.1-7.6,1.2h0ZM637.4,155.2c0-1.6,5.2-13.3,7.5-17,2.5-4,6.6-6.4,10.9-6.4s2.3,0,.9,2c-.8,1.1-3.5,5.9-6,10.6-4,7.7-4.9,8.8-8.1,10.1-4,1.6-5.3,1.8-5.3.7h0ZM372.5,148.2l-.6-6.9,2.9-2.6c2.8-2.5,2.8-2.7,1.7-5.8-4.4-12.4-7.4-16.8-12-17.4-3.1-.4-3.9-2.9-3.7-10.5.3-7.7,1.2-9.9,3.6-7.9,1.8,1.5,6,.3,17.3-5,6.8-3.2,9-3.8,11.4-3.4,6,1.1,6.3,1.7,14.6,26.7,1.6,4.9,3.4,9.8,3.9,10.9,1.2,2.6,1,6.1-.5,10.5-2.5,7.1-3.8,5.3-9.2-12.7-3.5-11.8-5.1-15.5-7.1-17.2-1.7-1.4-4.7-1.8-6.6-.8-.7.4-3.3,1.6-5.7,2.7-4,1.9-4.3,2.2-3.9,4.8.5,3.1,4.1,12.9,6.8,18.6,1.9,3.9,3.3,14.9,2.1,16.5-.7,1-9,5.1-12.4,6.1-1.8.5-1.9.1-2.5-6.4h0ZM502.4,131.4c-.2-8.7.2-26.7.5-28.6.2-1,.4-3.3.4-5.1,0-2.6.8-4.1,3.5-6.9,1.9-2,3.8-3.6,4.2-3.6.5,0,.7,8.9.7,20.9v20.9c-.1,0-3.1,4-3.1,4-4.3,5.7-6.1,5.3-6.2-1.6h0ZM605.9,133.6c-.3-1,0-1.8.4-1.8,1.8,0,10.6-23.5,10.6-28.4s-2.8-7-9.1-8.3c-11.4-2.4-16.4-5.9-15.3-10.6.3-1.3,2-4.2,3.7-6.6l3.1-4.3,2.8,3.1c1.7,1.8,4.1,3.3,5.9,3.7,7,1.4,11.7,3.5,14.6,6.3,4.8,4.8,4.9,8,.5,22.8-1,3.2-2.1,6.5-2.6,7.4-.5.9-.8,2.2-.8,3.1,0,3.1-2.4,7.9-5.7,11.6-3.8,4.2-7.2,5.1-7.9,2.1h0ZM437.7,129.1c-.3-.5-.5-8.3-.5-17.4,0-9.1-.3-17.3-.8-18.1-.5-.9-2.4-3.5-4.4-5.9-3.8-4.6-4-6.2-1.8-12.9,2.2-6.7,2.4-6.9,5.4-3.5,1.4,1.6,3.7,4.5,5,6.4,2.2,3.2,2.5,3.3,3.6,1.8.7-.9,1.6-3.1,2.1-5,1.3-4.8,4.5-7,10.4-7s5,.2,9.2,4.5c3.6,3.8,4.6,5.5,5.7,10.5,3.6,15.3,4,34.3.8,37.9-.8.9-2.9,1.9-4.7,2.2-4,.8-3.5.7-7.7,1.8-2,.5-4.7,1.2-6.1,1.5l-2.5.6.2-6.4c.2-7.6,1.3-9.1,7.5-10.7,7.3-1.9,7.9-2.3,7.1-6.1-.3-1.8-.8-4.3-1-5.5-1.1-6-2.4-9-5-11.6-3.1-3-5.2-3.1-9.4-.4-4.3,2.8-5.8,8.5-5.9,22.7-.1,11.4-.4,13.4-2.1,16.6-2,3.7-4.2,5.4-5.2,3.9h0ZM585.1,125.4c1.7-12.9,4.2-19.3,8.6-22.4,3-2.1,6.2-3.2,6.2-2.1s-1.7,5.9-2.5,7.7c-.7,1.8-.6,1.6-1.9,7.6-.6,2.9-1.7,6.5-2.4,7.9-1.2,2.3-6,6-7.8,6-.4,0-.5-2.1-.2-4.7h0ZM565.5,124.5c-3.9-.5-7.7-1-8.3-1.2-1.7-.5-1.3-4.4,1.1-9.8l2.2-5,7.1.6,7.1.6.6-6.6c1.2-13.7-1.5-19.3-8.7-18.1-5.9,1-10.7,7.6-13.1,18.2-2.9,12.4-4.1,15-8.1,17.4-2.3,1.4-2.6,1.4-3.1,0-1-2.7,1.9-15.1,6.5-27.5,1.7-4.6,1.5-8.4-.5-12.7-2.1-4.4-2.2-6-.3-9.7,3.3-6.4,7.5-10.1,7.5-6.6s3.6,10.5,4.6,11.7c.4.5,2.4-.9,4.6-3.2,3.6-3.7,4.3-4.1,7.7-3.9,5.4.3,8.2,2.8,10.5,9.5,2.4,6.7,2.6,14.2.8,26.8-1.1,7.8-2.1,11.3-5.3,17.8-1.3,2.6-2.6,2.8-12.6,1.6h0ZM488.7,121c-1.1-3.1-2.3-16-2.3-24,0-11.7-.8-13.6-6.8-17-3.3-1.9-5-3.5-5.4-5-.6-2.3,2-12.6,3.4-13.4.4-.2,2.1.6,3.7,1.8,1.6,1.3,3.6,2.3,4.4,2.3s2.6,1.4,4.1,3.1c2.9,3.3,3.4,5.7,4.1,20.6.2,4.4.6,10.1.9,12.5,1.2,9.8,1.2,10.7-.7,13.9-2.8,4.8-5,6.9-5.5,5.3ZM516.4,119.6c-.9-.9-.7-3.7.5-9,1-4.1,1.8-5.4,6.6-9.6,6.3-5.6,9.2-11.6,7.5-15.9-1.3-3.4-3-4-14.4-4.4-5.7-.2-11-.7-11.8-1.1-.9-.4-2.2-2-3-3.7-1.4-2.9-1.3-3.3,1-9.3,1.3-3.5,2.7-6.5,3.1-6.7.4-.2,1.6.6,2.8,1.8,1.1,1.2,2.8,2.2,3.7,2.2s1.6.4,1.6.9.4.7,1,.3c1.8-1.1,16.3-.2,19.7,1.2,3.1,1.3,3.8,2.8,5.1,10.1,1.3,7.7.2,13.1-4.7,23.1-4.9,10.1-16.4,22.3-18.8,19.9h0ZM418.2,107.9c.4-7.9.3-8.9-1.4-11.1-1-1.3-3.1-2.6-4.5-3-4.9-1.1-5.7-3-4.6-10.4,1.2-7.6,2.3-9.5,4.4-7.6.8.7,3.3,2.1,5.6,3.2,5.5,2.6,6.9,4.3,7.9,9.8.9,4.7.7,8.1-.8,15.4-.4,2.2-.8,4.1-.9,4.3-.4,2.4-3.9,8.3-4.9,8.3s-1.2-1.5-.8-8.7h0Z"/>
    </g>
    <g id="layer2" class="st3" inkscape:groupmode="layer" inkscape:label="Background">
      <rect id="rect1007" class="st2" x="0" y="0" width="1000" height="800"/>
    </g>
    <g id="layer3" inkscape:groupmode="layer" inkscape:label="Torch">
      <path id="path4491-4-8-9" class="st1" d="M413.2,482.5c0,14,11.3,25.3,25.3,25.3h0c14,0,25.3-11.3,25.3-25.3s-11.3-25.3-25.3-25.3-25.3,11.3-25.3,25.3h0ZM441.8,535.6c0,14,11.3,25.3,25.3,25.3h0c14,0,25.3-11.3,25.3-25.3,0-14-11.3-25.3-25.3-25.3s-25.3,11.3-25.3,25.3ZM586.8,483c0,14-11.3,25.3-25.3,25.3h0c-14,0-25.3-11.3-25.3-25.3h0c0-14,11.3-25.3,25.3-25.3s25.3,11.3,25.3,25.3ZM558.2,536.1c0,14-11.3,25.3-25.3,25.3h0c-14,0-25.3-11.3-25.3-25.3h0c0-14,11.3-25.3,25.3-25.3h0c14,0,25.3,11.3,25.3,25.3h0ZM525.3,482.4c0,14-11.3,25.3-25.3,25.3h0c-14,0-25.3-11.3-25.3-25.3h0c0-14,11.3-25.3,25.3-25.3h0c14,0,25.3,11.3,25.3,25.3h0ZM525.2,586.5c0,14-11.3,25.3-25.3,25.3h0c-14,0-25.3-11.3-25.3-25.3h0c0-14,11.3-25.3,25.3-25.3h0c14,0,25.3,11.3,25.3,25.3h0Z"/>
    </g>
  </g>
</svg>