<?xml version="1.0" encoding="UTF-8" standalone="no"?>
<!-- Created with Inkscape (http://www.inkscape.org/) -->

<svg
   xmlns:dc="http://purl.org/dc/elements/1.1/"
   xmlns:cc="http://creativecommons.org/ns#"
   xmlns:rdf="http://www.w3.org/1999/02/22-rdf-syntax-ns#"
   xmlns:svg="http://www.w3.org/2000/svg"
   xmlns="http://www.w3.org/2000/svg"
   xmlns:sodipodi="http://sodipodi.sourceforge.net/DTD/sodipodi-0.dtd"
   xmlns:inkscape="http://www.inkscape.org/namespaces/inkscape"
   width="354.83405"
   height="415.22324"
   id="svg2"
   version="1.1"
   inkscape:version="0.47pre4 r22446"
   sodipodi:docname="acre_COA.svg">
  <defs
     id="defs4">
    <inkscape:perspective
       sodipodi:type="inkscape:persp3d"
       inkscape:vp_x="0 : 526.18109 : 1"
       inkscape:vp_y="0 : 1000 : 0"
       inkscape:vp_z="744.09448 : 526.18109 : 1"
       inkscape:persp3d-origin="372.04724 : 350.78739 : 1"
       id="perspective10" />
    <inkscape:perspective
       id="perspective2824"
       inkscape:persp3d-origin="0.5 : 0.33333333 : 1"
       inkscape:vp_z="1 : 0.5 : 1"
       inkscape:vp_y="0 : 1000 : 0"
       inkscape:vp_x="0 : 0.5 : 1"
       sodipodi:type="inkscape:persp3d" />
    <inkscape:perspective
       id="perspective2838"
       inkscape:persp3d-origin="0.5 : 0.33333333 : 1"
       inkscape:vp_z="1 : 0.5 : 1"
       inkscape:vp_y="0 : 1000 : 0"
       inkscape:vp_x="0 : 0.5 : 1"
       sodipodi:type="inkscape:persp3d" />
    <inkscape:perspective
       id="perspective2887"
       inkscape:persp3d-origin="0.5 : 0.33333333 : 1"
       inkscape:vp_z="1 : 0.5 : 1"
       inkscape:vp_y="0 : 1000 : 0"
       inkscape:vp_x="0 : 0.5 : 1"
       sodipodi:type="inkscape:persp3d" />
    <inkscape:perspective
       id="perspective3755"
       inkscape:persp3d-origin="0.5 : 0.33333333 : 1"
       inkscape:vp_z="1 : 0.5 : 1"
       inkscape:vp_y="0 : 1000 : 0"
       inkscape:vp_x="0 : 0.5 : 1"
       sodipodi:type="inkscape:persp3d" />
    <inkscape:perspective
       id="perspective3997"
       inkscape:persp3d-origin="0.5 : 0.33333333 : 1"
       inkscape:vp_z="1 : 0.5 : 1"
       inkscape:vp_y="0 : 1000 : 0"
       inkscape:vp_x="0 : 0.5 : 1"
       sodipodi:type="inkscape:persp3d" />
    <inkscape:perspective
       id="perspective4019"
       inkscape:persp3d-origin="0.5 : 0.33333333 : 1"
       inkscape:vp_z="1 : 0.5 : 1"
       inkscape:vp_y="0 : 1000 : 0"
       inkscape:vp_x="0 : 0.5 : 1"
       sodipodi:type="inkscape:persp3d" />
    <inkscape:perspective
       id="perspective4045"
       inkscape:persp3d-origin="0.5 : 0.33333333 : 1"
       inkscape:vp_z="1 : 0.5 : 1"
       inkscape:vp_y="0 : 1000 : 0"
       inkscape:vp_x="0 : 0.5 : 1"
       sodipodi:type="inkscape:persp3d" />
    <inkscape:perspective
       id="perspective4093"
       inkscape:persp3d-origin="0.5 : 0.33333333 : 1"
       inkscape:vp_z="1 : 0.5 : 1"
       inkscape:vp_y="0 : 1000 : 0"
       inkscape:vp_x="0 : 0.5 : 1"
       sodipodi:type="inkscape:persp3d" />
    <inkscape:perspective
       id="perspective4147"
       inkscape:persp3d-origin="0.5 : 0.33333333 : 1"
       inkscape:vp_z="1 : 0.5 : 1"
       inkscape:vp_y="0 : 1000 : 0"
       inkscape:vp_x="0 : 0.5 : 1"
       sodipodi:type="inkscape:persp3d" />
  </defs>
  <sodipodi:namedview
     id="base"
     pagecolor="#ffffff"
     bordercolor="#666666"
     borderopacity="1.0"
     inkscape:pageopacity="0.0"
     inkscape:pageshadow="2"
     inkscape:zoom="1.3975053"
     inkscape:cx="194.7365"
     inkscape:cy="205.79629"
     inkscape:document-units="px"
     inkscape:current-layer="layer2"
     showgrid="false"
     showguides="true"
     inkscape:guide-bbox="true"
     inkscape:window-width="1680"
     inkscape:window-height="974"
     inkscape:window-x="0"
     inkscape:window-y="25"
     inkscape:window-maximized="1">
    <sodipodi:guide
       orientation="0,1"
       position="-7.84388,357.77628"
       id="guide3817" />
    <sodipodi:guide
       orientation="0,1"
       position="247.5426,308.7237"
       id="guide3819" />
    <sodipodi:guide
       orientation="0,1"
       position="116.26326,297.68699"
       id="guide3847" />
    <sodipodi:guide
       orientation="0,1"
       position="247.85827,266.99177"
       id="guide3849" />
  </sodipodi:namedview>
  <metadata
     id="metadata7">
    <rdf:RDF>
      <cc:Work
         rdf:about="">
        <dc:format>image/svg+xml</dc:format>
        <dc:type
           rdf:resource="http://purl.org/dc/dcmitype/StillImage" />
        <dc:title></dc:title>
      </cc:Work>
    </rdf:RDF>
  </metadata>
  <g
     inkscape:groupmode="layer"
     id="layer2"
     inkscape:label="vec"
     style="display:inline"
     transform="translate(-327.48674,-265.27237)">
    <path
       style="fill:#ffffff;fill-opacity:1;stroke:#ef3e34;stroke-width:6;stroke-miterlimit:4;stroke-opacity:1;stroke-dasharray:none"
       d="m 638.51799,268.30362 c -102.67714,0.13046 -205.35394,0.51381 -308.03125,0.5 0.3467,104.81514 0.0765,209.66925 1.29767,314.4587 4.68432,20.42709 19.68906,36.11793 38.17303,46.01845 23.73586,12.71359 53.70064,17.19012 80.13163,23.79431 42.18094,7.33008 55.33859,24.42052 55.33859,24.42052 6.16015,-10.61624 26.09299,-21.96894 82.98394,-30.70528 38.85969,-5.96741 92.01561,-27.3034 90.62802,-86.11159 0.78963,-97.46686 -0.34824,-194.9377 -0.21944,-292.40636 -16.88542,0.008 -23.41677,0.0212 -40.30219,0.0312 l 0,5e-5 z"
       id="path2921"
       sodipodi:nodetypes="cccsccscccc" />
    <path
       style="fill:#e93030;fill-opacity:1;stroke:none"
       d="m 668.8125,278.28125 c -10.09375,0.006 -20.1875,0.0215 -30.28125,0.0312 -43.51502,0.0561 -87.0163,0.15595 -130.53125,0.25 l 0,168.25 161.21875,0 c -0.11868,-56.17987 -0.33785,-112.35107 -0.40625,-168.5312 z"
       id="path3813" />
    <path
       style="fill:#1a3e94;fill-opacity:1;stroke:none"
       d="m 502,278.5625 c -53.82853,0.11586 -107.67133,0.23408 -161.5,0.25 0.37403,55.99504 0.14079,111.99629 0.28125,168 l 161.21875,0 0,-168.25 z"
       id="path3811" />
    <path
       style="fill:#e93030;fill-opacity:1;stroke:none"
       d="m 340.78125,452.8125 c 0.1334,43.96522 0.52826,87.93365 1.6875,131.875 8.50361,25.37726 34.04988,39.6153 58.4375,46.3125 33.4881,10.49581 70.93316,11.30347 101.09375,30.8125 l 0,-209 -161.21875,0 z"
       id="path3809" />
    <path
       style="fill:#1b4093;fill-opacity:1;stroke:none"
       d="m 508,452.8125 0,208.5625 c 24.10087,-17.70162 55.59236,-19.05979 84,-25.34375 25.75517,-5.17375 53.74584,-15.42377 68,-38.96875 10.28745,-16.3857 9.78873,-36.52378 9.28125,-55.21875 0.0557,-29.67398 0.0268,-59.35758 -0.0312,-89.03125 l -161.25,0 z"
       id="path3807" />
    <path
       style="fill:#e93030;fill-opacity:1;stroke:none"
       d="m 504.4375,663.4375 c 0.15482,0.10688 0.31434,0.20456 0.46875,0.3125 0.13331,-0.10896 0.27243,-0.20465 0.40625,-0.3125 l -0.875,0 z"
       id="path3775" />
    <path
       style="fill:#ffffff;fill-opacity:1;stroke:none;display:inline"
       d="m 441.96588,470.29075 4.10555,0 2.14286,65 -8.92857,2.5 2.68016,-67.5 z"
       id="path2863"
       sodipodi:nodetypes="ccccc" />
    <path
       style="fill:#ffffff;fill-opacity:1;stroke:none;display:inline"
       d="m 461.42953,470.29075 4.64222,0 2.14286,65 -9.99936,3.21429 3.21428,-68.21429 z"
       id="path2863-4"
       sodipodi:nodetypes="ccccc" />
    <path
       id="path3725"
       style="fill:#ffffff;fill-opacity:1;stroke:none"
       d="m 433.04064,566.1987 -12.34392,-0.21353 c -9.77358,8.74795 -24.78824,7.91652 -33.5362,-1.85706 -8.74795,-9.77357 -7.91652,-24.78824 1.85706,-33.53619 9.77357,-8.74796 24.78824,-7.91652 33.53619,1.85705 0.91882,1.02654 1.74658,2.13109 2.4739,3.30114 l 9.61199,-2.56405 c -1.68824,-3.37164 -3.91515,-6.51503 -6.57683,-8.90959 l 5.39315,-9.15663 -4.70654,-4.03265 -8.39034,7.62272 c -3.52607,-1.85299 -7.24592,-3.11802 -11.02902,-3.52143 l -0.44801,-10.88015 -7.25064,0.066 -1.13518,10.80655 c -4.00705,0.52993 -7.90647,1.78198 -11.48954,3.70963 l -6.92638,-7.84801 -5.32131,3.62163 5.01901,9.47989 c 0,0 -6.61393,9.26344 -6.61393,9.26344 l -11.08756,-2.04724 -1.9214,6.87361 9.8448,4.04841 c 0,0 -0.65818,8.21278 0.0488,12.22706 l -10.02627,3.8893 2.17614,6.56829 10.7487,-1.81853 c 1.6862,3.3786 3.96656,6.41485 6.80306,9.25638 l -4.85183,10.52804 4.99769,3.38826 7.46294,-8.48199 c 3.56153,1.79122 7.549,2.49919 11.52319,3.2306 l 0.66363,11.14085 6.97733,0.0869 0.75591,-11.32149 c 4.01824,-0.47154 7.91079,-1.53921 11.37532,-3.10873 l 7.73155,8.31095 5.12255,-4.23182 -5.15556,-9.09016 c 2.08883,-1.94762 3.70856,-4.18459 4.68755,-6.65739 l 0,-2e-5 0,-4e-5 z"
       sodipodi:nodetypes="ccsssccccccccccccccccccccccccccccccccccccc" />
    <path
       style="fill:#ffffff;fill-opacity:1;stroke:none"
       d="m 405.42967,548.41249 21.84455,-4.9245 0.50508,5.3033 17.42513,-5.3033 0.25254,3.78807 17.42513,-4.29314 0,5.05076 17.42514,-4.79822 -0.25255,15.27855 -74.75129,0.12627 0.12627,-10.22779 z"
       id="path3745"
       sodipodi:nodetypes="ccccccccccc" />
    <path
       style="fill:#ffffff;fill-opacity:1;stroke:none"
       d="m 558.36182,321.26427 67.93276,0 c -7.25796,25.76227 -1.6901,39.41079 5.05076,50.50763 l -76.26652,0 c -5.51364,-22.74827 -3.99574,-39.20517 3.283,-50.50763"
       id="path3821"
       sodipodi:nodetypes="ccccc" />
    <path
       style="font-size:medium;font-style:normal;font-variant:normal;font-weight:normal;font-stretch:normal;text-indent:0;text-align:start;text-decoration:none;line-height:normal;letter-spacing:normal;word-spacing:normal;text-transform:none;direction:ltr;block-progression:tb;writing-mode:lr-tb;text-anchor:start;color:#000000;fill:#ffffff;fill-opacity:1;stroke:none;stroke-width:6;marker:none;visibility:visible;display:inline;overflow:visible;enable-background:accumulate;font-family:Aharoni CLM;-inkscape-font-specification:Aharoni CLM"
       d="m 584.40625,312.1875 0,70.6875 6,0 0,-70.6875 -6,0 z"
       id="path3823" />
    <path
       id="path3829"
       d="m 584.02744,312.1875 0,70.6875 6.37881,0 0,-70.6875 -6.37881,0 z"
       style="font-size:medium;font-style:normal;font-variant:normal;font-weight:normal;font-stretch:normal;text-indent:0;text-align:start;text-decoration:none;line-height:normal;letter-spacing:normal;word-spacing:normal;text-transform:none;direction:ltr;block-progression:tb;writing-mode:lr-tb;text-anchor:start;color:#000000;fill:#ffffff;fill-opacity:1;stroke:none;stroke-width:6;marker:none;visibility:visible;display:inline;overflow:visible;enable-background:accumulate;font-family:Aharoni CLM;-inkscape-font-specification:Aharoni CLM"
       sodipodi:nodetypes="ccccc" />
    <path
       style="font-size:medium;font-style:normal;font-variant:normal;font-weight:normal;font-stretch:normal;text-indent:0;text-align:start;text-decoration:none;line-height:normal;letter-spacing:normal;word-spacing:normal;text-transform:none;direction:ltr;block-progression:tb;writing-mode:lr-tb;text-anchor:start;color:#000000;fill:#e93030;fill-opacity:1;stroke:none;stroke-width:6;marker:none;visibility:visible;display:inline;overflow:visible;enable-background:accumulate;font-family:Aharoni CLM;-inkscape-font-specification:Aharoni CLM"
       d="m 584.02744,321.25 0,50.53125 6.37881,0 0,-50.53125 -6.37881,0 z"
       id="path3832"
       sodipodi:nodetypes="ccccc" />
    <path
       style="fill:#ffffff;fill-opacity:1;stroke:none"
       d="m 530.45636,366.21607 17.17259,-2.65166 c 1.49472,4.38146 0.68654,6.07621 0.25254,8.20749 -0.67217,3.98977 -2.03452,8.16358 2.14657,10.85914 l 77.78175,0 c 3.01805,-4.14348 4.17937,-8.64633 17.17259,-10.85914 1.39358,0.76237 2.70635,1.62574 2.77792,4.04061 -14.17722,7.59164 -12.86644,18.40994 -11.23795,29.29443 l -93.18657,0 c -19.46388,-13.92485 -10.80354,-23.69498 -1.26269,-33.33504 l -11.99556,0 0.37881,-5.55583 z"
       id="path3837"
       sodipodi:nodetypes="cccccccccccc" />
    <path
       style="font-size:medium;font-style:normal;font-variant:normal;font-weight:normal;font-stretch:normal;text-indent:0;text-align:start;text-decoration:none;line-height:normal;letter-spacing:normal;word-spacing:normal;text-transform:none;direction:ltr;block-progression:tb;writing-mode:lr-tb;text-anchor:start;color:#000000;fill:#ffffff;fill-opacity:1;stroke:none;stroke-width:6;marker:none;visibility:visible;display:inline;overflow:visible;enable-background:accumulate;font-family:Aharoni CLM;-inkscape-font-specification:Aharoni CLM"
       d="m 551.90625,382.625 18.5625,30.875 6,0 -18.53125,-30.875 -6.03125,0 z m 13,0 18.5625,30.875 6,0 -18.53125,-30.875 -6.03125,0 z m 13,0 18.5625,30.875 6,0 -18.53125,-30.875 -6.03125,0 z m 12.5,0 18.5625,30.875 6,0 -18.5625,-30.875 -6,0 z m 12.9375,0 18.5625,30.875 6,0 -18.5625,-30.875 -6,0 z"
       id="path3841" />
    <path
       style="fill:#e93030;fill-opacity:1;stroke:none"
       d="m 551.90625,382.625 13.5,22.46875 6.03125,0 -13.5,-22.46875 -6.03125,0 z m 13,0 13.5,22.46875 6.03125,0 -13.5,-22.46875 -6.03125,0 z m 13,0 13.5,22.46875 6.03125,0 -13.5,-22.46875 -6.03125,0 z m 12.5,0 13.5,22.46875 6,0 -13.5,-22.46875 -6,0 z m 12.9375,0 13.5,22.46875 6,0 -13.5,-22.46875 -6,0 z"
       id="path3839" />
    <g
       id="g3910">
      <path
         sodipodi:nodetypes="ccccc"
         id="path3868"
         d="m 344.5,282.04629 0,160.42246 5.5,0 0,-160.42246 -5.5,0 z"
         style="font-size:medium;font-style:normal;font-variant:normal;font-weight:normal;font-stretch:normal;text-indent:0;text-align:start;text-decoration:none;line-height:normal;letter-spacing:normal;word-spacing:normal;text-transform:none;direction:ltr;block-progression:tb;writing-mode:lr-tb;text-anchor:start;color:#000000;fill:#ffffff;fill-opacity:1;fill-rule:nonzero;stroke:none;stroke-width:6;marker:none;visibility:visible;display:inline;overflow:visible;enable-background:accumulate;font-family:Aharoni CLM;-inkscape-font-specification:Aharoni CLM" />
      <path
         style="font-size:medium;font-style:normal;font-variant:normal;font-weight:normal;font-stretch:normal;text-indent:0;text-align:start;text-decoration:none;line-height:normal;letter-spacing:normal;word-spacing:normal;text-transform:none;direction:ltr;block-progression:tb;writing-mode:lr-tb;text-anchor:start;color:#000000;fill:#ffffff;fill-opacity:1;fill-rule:nonzero;stroke:none;stroke-width:6;marker:none;visibility:visible;display:inline;overflow:visible;enable-background:accumulate;font-family:Aharoni CLM;-inkscape-font-specification:Aharoni CLM"
         d="m 352.67838,282.04629 0,160.42246 5.5,0 0,-160.42246 -5.5,0 z"
         id="path3874"
         sodipodi:nodetypes="ccccc" />
      <path
         sodipodi:nodetypes="ccccc"
         id="path3876"
         d="m 360.85676,282.04629 0,160.42246 5.5,0 0,-160.42246 -5.5,0 z"
         style="font-size:medium;font-style:normal;font-variant:normal;font-weight:normal;font-stretch:normal;text-indent:0;text-align:start;text-decoration:none;line-height:normal;letter-spacing:normal;word-spacing:normal;text-transform:none;direction:ltr;block-progression:tb;writing-mode:lr-tb;text-anchor:start;color:#000000;fill:#ffffff;fill-opacity:1;fill-rule:nonzero;stroke:none;stroke-width:6;marker:none;visibility:visible;display:inline;overflow:visible;enable-background:accumulate;font-family:Aharoni CLM;-inkscape-font-specification:Aharoni CLM" />
      <path
         style="font-size:medium;font-style:normal;font-variant:normal;font-weight:normal;font-stretch:normal;text-indent:0;text-align:start;text-decoration:none;line-height:normal;letter-spacing:normal;word-spacing:normal;text-transform:none;direction:ltr;block-progression:tb;writing-mode:lr-tb;text-anchor:start;color:#000000;fill:#ffffff;fill-opacity:1;fill-rule:nonzero;stroke:none;stroke-width:6;marker:none;visibility:visible;display:inline;overflow:visible;enable-background:accumulate;font-family:Aharoni CLM;-inkscape-font-specification:Aharoni CLM"
         d="m 369.03514,282.04629 0,160.42246 5.5,0 0,-160.42246 -5.5,0 z"
         id="path3878"
         sodipodi:nodetypes="ccccc" />
      <path
         sodipodi:nodetypes="ccccc"
         id="path3880"
         d="m 377.21352,282.04629 0,160.42246 5.5,0 0,-160.42246 -5.5,0 z"
         style="font-size:medium;font-style:normal;font-variant:normal;font-weight:normal;font-stretch:normal;text-indent:0;text-align:start;text-decoration:none;line-height:normal;letter-spacing:normal;word-spacing:normal;text-transform:none;direction:ltr;block-progression:tb;writing-mode:lr-tb;text-anchor:start;color:#000000;fill:#ffffff;fill-opacity:1;fill-rule:nonzero;stroke:none;stroke-width:6;marker:none;visibility:visible;display:inline;overflow:visible;enable-background:accumulate;font-family:Aharoni CLM;-inkscape-font-specification:Aharoni CLM" />
      <path
         style="font-size:medium;font-style:normal;font-variant:normal;font-weight:normal;font-stretch:normal;text-indent:0;text-align:start;text-decoration:none;line-height:normal;letter-spacing:normal;word-spacing:normal;text-transform:none;direction:ltr;block-progression:tb;writing-mode:lr-tb;text-anchor:start;color:#000000;fill:#ffffff;fill-opacity:1;fill-rule:nonzero;stroke:none;stroke-width:6;marker:none;visibility:visible;display:inline;overflow:visible;enable-background:accumulate;font-family:Aharoni CLM;-inkscape-font-specification:Aharoni CLM"
         d="m 385.3919,282.04629 0,160.42246 5.5,0 0,-160.42246 -5.5,0 z"
         id="path3882"
         sodipodi:nodetypes="ccccc" />
      <path
         sodipodi:nodetypes="ccccc"
         id="path3884"
         d="m 393.57027,282.04629 0,160.42246 5.5,0 0,-160.42246 -5.5,0 z"
         style="font-size:medium;font-style:normal;font-variant:normal;font-weight:normal;font-stretch:normal;text-indent:0;text-align:start;text-decoration:none;line-height:normal;letter-spacing:normal;word-spacing:normal;text-transform:none;direction:ltr;block-progression:tb;writing-mode:lr-tb;text-anchor:start;color:#000000;fill:#ffffff;fill-opacity:1;fill-rule:nonzero;stroke:none;stroke-width:6;marker:none;visibility:visible;display:inline;overflow:visible;enable-background:accumulate;font-family:Aharoni CLM;-inkscape-font-specification:Aharoni CLM" />
      <path
         style="font-size:medium;font-style:normal;font-variant:normal;font-weight:normal;font-stretch:normal;text-indent:0;text-align:start;text-decoration:none;line-height:normal;letter-spacing:normal;word-spacing:normal;text-transform:none;direction:ltr;block-progression:tb;writing-mode:lr-tb;text-anchor:start;color:#000000;fill:#ffffff;fill-opacity:1;fill-rule:nonzero;stroke:none;stroke-width:6;marker:none;visibility:visible;display:inline;overflow:visible;enable-background:accumulate;font-family:Aharoni CLM;-inkscape-font-specification:Aharoni CLM"
         d="m 401.74865,282.04629 0,160.42246 5.5,0 0,-160.42246 -5.5,0 z"
         id="path3886"
         sodipodi:nodetypes="ccccc" />
      <path
         sodipodi:nodetypes="ccccc"
         id="path3888"
         d="m 409.92703,282.04629 0,160.42246 5.5,0 0,-160.42246 -5.5,0 z"
         style="font-size:medium;font-style:normal;font-variant:normal;font-weight:normal;font-stretch:normal;text-indent:0;text-align:start;text-decoration:none;line-height:normal;letter-spacing:normal;word-spacing:normal;text-transform:none;direction:ltr;block-progression:tb;writing-mode:lr-tb;text-anchor:start;color:#000000;fill:#ffffff;fill-opacity:1;fill-rule:nonzero;stroke:none;stroke-width:6;marker:none;visibility:visible;display:inline;overflow:visible;enable-background:accumulate;font-family:Aharoni CLM;-inkscape-font-specification:Aharoni CLM" />
      <path
         style="font-size:medium;font-style:normal;font-variant:normal;font-weight:normal;font-stretch:normal;text-indent:0;text-align:start;text-decoration:none;line-height:normal;letter-spacing:normal;word-spacing:normal;text-transform:none;direction:ltr;block-progression:tb;writing-mode:lr-tb;text-anchor:start;color:#000000;fill:#ffffff;fill-opacity:1;fill-rule:nonzero;stroke:none;stroke-width:6;marker:none;visibility:visible;display:inline;overflow:visible;enable-background:accumulate;font-family:Aharoni CLM;-inkscape-font-specification:Aharoni CLM"
         d="m 418.10541,282.04629 0,160.42246 5.5,0 0,-160.42246 -5.5,0 z"
         id="path3890"
         sodipodi:nodetypes="ccccc" />
      <path
         sodipodi:nodetypes="ccccc"
         id="path3892"
         d="m 426.28379,282.04629 0,160.42246 5.5,0 0,-160.42246 -5.5,0 z"
         style="font-size:medium;font-style:normal;font-variant:normal;font-weight:normal;font-stretch:normal;text-indent:0;text-align:start;text-decoration:none;line-height:normal;letter-spacing:normal;word-spacing:normal;text-transform:none;direction:ltr;block-progression:tb;writing-mode:lr-tb;text-anchor:start;color:#000000;fill:#ffffff;fill-opacity:1;fill-rule:nonzero;stroke:none;stroke-width:6;marker:none;visibility:visible;display:inline;overflow:visible;enable-background:accumulate;font-family:Aharoni CLM;-inkscape-font-specification:Aharoni CLM" />
      <path
         style="font-size:medium;font-style:normal;font-variant:normal;font-weight:normal;font-stretch:normal;text-indent:0;text-align:start;text-decoration:none;line-height:normal;letter-spacing:normal;word-spacing:normal;text-transform:none;direction:ltr;block-progression:tb;writing-mode:lr-tb;text-anchor:start;color:#000000;fill:#ffffff;fill-opacity:1;fill-rule:nonzero;stroke:none;stroke-width:6;marker:none;visibility:visible;display:inline;overflow:visible;enable-background:accumulate;font-family:Aharoni CLM;-inkscape-font-specification:Aharoni CLM"
         d="m 434.46217,282.04629 0,160.42246 5.5,0 0,-160.42246 -5.5,0 z"
         id="path3894"
         sodipodi:nodetypes="ccccc" />
      <path
         sodipodi:nodetypes="ccccc"
         id="path3896"
         d="m 442.64055,282.04629 0,160.42246 5.5,0 0,-160.42246 -5.5,0 z"
         style="font-size:medium;font-style:normal;font-variant:normal;font-weight:normal;font-stretch:normal;text-indent:0;text-align:start;text-decoration:none;line-height:normal;letter-spacing:normal;word-spacing:normal;text-transform:none;direction:ltr;block-progression:tb;writing-mode:lr-tb;text-anchor:start;color:#000000;fill:#ffffff;fill-opacity:1;fill-rule:nonzero;stroke:none;stroke-width:6;marker:none;visibility:visible;display:inline;overflow:visible;enable-background:accumulate;font-family:Aharoni CLM;-inkscape-font-specification:Aharoni CLM" />
      <path
         style="font-size:medium;font-style:normal;font-variant:normal;font-weight:normal;font-stretch:normal;text-indent:0;text-align:start;text-decoration:none;line-height:normal;letter-spacing:normal;word-spacing:normal;text-transform:none;direction:ltr;block-progression:tb;writing-mode:lr-tb;text-anchor:start;color:#000000;fill:#ffffff;fill-opacity:1;fill-rule:nonzero;stroke:none;stroke-width:6;marker:none;visibility:visible;display:inline;overflow:visible;enable-background:accumulate;font-family:Aharoni CLM;-inkscape-font-specification:Aharoni CLM"
         d="m 450.81893,282.04629 0,160.42246 5.5,0 0,-160.42246 -5.5,0 z"
         id="path3898"
         sodipodi:nodetypes="ccccc" />
      <path
         sodipodi:nodetypes="ccccc"
         id="path3900"
         d="m 458.99731,282.04629 0,160.42246 5.5,0 0,-160.42246 -5.5,0 z"
         style="font-size:medium;font-style:normal;font-variant:normal;font-weight:normal;font-stretch:normal;text-indent:0;text-align:start;text-decoration:none;line-height:normal;letter-spacing:normal;word-spacing:normal;text-transform:none;direction:ltr;block-progression:tb;writing-mode:lr-tb;text-anchor:start;color:#000000;fill:#ffffff;fill-opacity:1;fill-rule:nonzero;stroke:none;stroke-width:6;marker:none;visibility:visible;display:inline;overflow:visible;enable-background:accumulate;font-family:Aharoni CLM;-inkscape-font-specification:Aharoni CLM" />
      <path
         style="font-size:medium;font-style:normal;font-variant:normal;font-weight:normal;font-stretch:normal;text-indent:0;text-align:start;text-decoration:none;line-height:normal;letter-spacing:normal;word-spacing:normal;text-transform:none;direction:ltr;block-progression:tb;writing-mode:lr-tb;text-anchor:start;color:#000000;fill:#ffffff;fill-opacity:1;fill-rule:nonzero;stroke:none;stroke-width:6;marker:none;visibility:visible;display:inline;overflow:visible;enable-background:accumulate;font-family:Aharoni CLM;-inkscape-font-specification:Aharoni CLM"
         d="m 467.17569,282.04629 0,160.42246 5.5,0 0,-160.42246 -5.5,0 z"
         id="path3902"
         sodipodi:nodetypes="ccccc" />
      <path
         sodipodi:nodetypes="ccccc"
         id="path3904"
         d="m 475.35406,282.04629 0,160.42246 5.5,0 0,-160.42246 -5.5,0 z"
         style="font-size:medium;font-style:normal;font-variant:normal;font-weight:normal;font-stretch:normal;text-indent:0;text-align:start;text-decoration:none;line-height:normal;letter-spacing:normal;word-spacing:normal;text-transform:none;direction:ltr;block-progression:tb;writing-mode:lr-tb;text-anchor:start;color:#000000;fill:#ffffff;fill-opacity:1;fill-rule:nonzero;stroke:none;stroke-width:6;marker:none;visibility:visible;display:inline;overflow:visible;enable-background:accumulate;font-family:Aharoni CLM;-inkscape-font-specification:Aharoni CLM" />
      <path
         style="font-size:medium;font-style:normal;font-variant:normal;font-weight:normal;font-stretch:normal;text-indent:0;text-align:start;text-decoration:none;line-height:normal;letter-spacing:normal;word-spacing:normal;text-transform:none;direction:ltr;block-progression:tb;writing-mode:lr-tb;text-anchor:start;color:#000000;fill:#ffffff;fill-opacity:1;fill-rule:nonzero;stroke:none;stroke-width:6;marker:none;visibility:visible;display:inline;overflow:visible;enable-background:accumulate;font-family:Aharoni CLM;-inkscape-font-specification:Aharoni CLM"
         d="m 483.53244,282.04629 0,160.42246 5.5,0 0,-160.42246 -5.5,0 z"
         id="path3906"
         sodipodi:nodetypes="ccccc" />
      <path
         sodipodi:nodetypes="ccccc"
         id="path3908"
         d="m 491.71082,282.04629 0,160.42246 5.5,0 0,-160.42246 -5.5,0 z"
         style="font-size:medium;font-style:normal;font-variant:normal;font-weight:normal;font-stretch:normal;text-indent:0;text-align:start;text-decoration:none;line-height:normal;letter-spacing:normal;word-spacing:normal;text-transform:none;direction:ltr;block-progression:tb;writing-mode:lr-tb;text-anchor:start;color:#000000;fill:#ffffff;fill-opacity:1;fill-rule:nonzero;stroke:none;stroke-width:6;marker:none;visibility:visible;display:inline;overflow:visible;enable-background:accumulate;font-family:Aharoni CLM;-inkscape-font-specification:Aharoni CLM" />
    </g>
    <g
       id="g3931"
       transform="translate(168.13043,175.34627)">
      <path
         style="font-size:medium;font-style:normal;font-variant:normal;font-weight:normal;font-stretch:normal;text-indent:0;text-align:start;text-decoration:none;line-height:normal;letter-spacing:normal;word-spacing:normal;text-transform:none;direction:ltr;block-progression:tb;writing-mode:lr-tb;text-anchor:start;color:#000000;fill:#ffffff;fill-opacity:1;fill-rule:nonzero;stroke:none;stroke-width:6;marker:none;visibility:visible;display:inline;overflow:visible;enable-background:accumulate;font-family:Aharoni CLM;-inkscape-font-specification:Aharoni CLM"
         d="m 344.5,282.04629 0,198.86632 5.5,-3.84614 0,-195.02018 -5.5,0 z"
         id="path3933"
         sodipodi:nodetypes="ccccc" />
      <path
         sodipodi:nodetypes="ccccc"
         id="path3935"
         d="m 352.67838,282.04629 0,194.04697 5.5,-2.05724 0,-191.98973 -5.5,0 z"
         style="font-size:medium;font-style:normal;font-variant:normal;font-weight:normal;font-stretch:normal;text-indent:0;text-align:start;text-decoration:none;line-height:normal;letter-spacing:normal;word-spacing:normal;text-transform:none;direction:ltr;block-progression:tb;writing-mode:lr-tb;text-anchor:start;color:#000000;fill:#ffffff;fill-opacity:1;fill-rule:nonzero;stroke:none;stroke-width:6;marker:none;visibility:visible;display:inline;overflow:visible;enable-background:accumulate;font-family:Aharoni CLM;-inkscape-font-specification:Aharoni CLM" />
      <path
         style="font-size:medium;font-style:normal;font-variant:normal;font-weight:normal;font-stretch:normal;text-indent:0;text-align:start;text-decoration:none;line-height:normal;letter-spacing:normal;word-spacing:normal;text-transform:none;direction:ltr;block-progression:tb;writing-mode:lr-tb;text-anchor:start;color:#000000;fill:#ffffff;fill-opacity:1;fill-rule:nonzero;stroke:none;stroke-width:6;marker:none;visibility:visible;display:inline;overflow:visible;enable-background:accumulate;font-family:Aharoni CLM;-inkscape-font-specification:Aharoni CLM"
         d="m 360.85676,282.04629 0,190.19571 5.5,-0.9839 0,-189.21181 -5.5,0 z"
         id="path3937"
         sodipodi:nodetypes="ccccc" />
      <path
         sodipodi:nodetypes="ccccc"
         id="path3939"
         d="m 369.03514,282.04629 0,188.23859 5.5,-2.05724 0,-186.18135 -5.5,0 z"
         style="font-size:medium;font-style:normal;font-variant:normal;font-weight:normal;font-stretch:normal;text-indent:0;text-align:start;text-decoration:none;line-height:normal;letter-spacing:normal;word-spacing:normal;text-transform:none;direction:ltr;block-progression:tb;writing-mode:lr-tb;text-anchor:start;color:#000000;fill:#ffffff;fill-opacity:1;fill-rule:nonzero;stroke:none;stroke-width:6;marker:none;visibility:visible;display:inline;overflow:visible;enable-background:accumulate;font-family:Aharoni CLM;-inkscape-font-specification:Aharoni CLM" />
      <path
         style="font-size:medium;font-style:normal;font-variant:normal;font-weight:normal;font-stretch:normal;text-indent:0;text-align:start;text-decoration:none;line-height:normal;letter-spacing:normal;word-spacing:normal;text-transform:none;direction:ltr;block-progression:tb;writing-mode:lr-tb;text-anchor:start;color:#000000;fill:#ffffff;fill-opacity:1;fill-rule:nonzero;stroke:none;stroke-width:6;marker:none;visibility:visible;display:inline;overflow:visible;enable-background:accumulate;font-family:Aharoni CLM;-inkscape-font-specification:Aharoni CLM"
         d="m 377.21352,282.04629 0,186.02359 5.5,-1.61001 0,-184.41358 -5.5,0 z"
         id="path3941"
         sodipodi:nodetypes="ccccc" />
      <path
         sodipodi:nodetypes="ccccc"
         id="path3943"
         d="m 385.3919,282.04629 0,183.28773 5.5,-0.89445 0,-182.39328 -5.5,0 z"
         style="font-size:medium;font-style:normal;font-variant:normal;font-weight:normal;font-stretch:normal;text-indent:0;text-align:start;text-decoration:none;line-height:normal;letter-spacing:normal;word-spacing:normal;text-transform:none;direction:ltr;block-progression:tb;writing-mode:lr-tb;text-anchor:start;color:#000000;fill:#ffffff;fill-opacity:1;fill-rule:nonzero;stroke:none;stroke-width:6;marker:none;visibility:visible;display:inline;overflow:visible;enable-background:accumulate;font-family:Aharoni CLM;-inkscape-font-specification:Aharoni CLM" />
      <path
         style="font-size:medium;font-style:normal;font-variant:normal;font-weight:normal;font-stretch:normal;text-indent:0;text-align:start;text-decoration:none;line-height:normal;letter-spacing:normal;word-spacing:normal;text-transform:none;direction:ltr;block-progression:tb;writing-mode:lr-tb;text-anchor:start;color:#000000;fill:#ffffff;fill-opacity:1;fill-rule:nonzero;stroke:none;stroke-width:6;marker:none;visibility:visible;display:inline;overflow:visible;enable-background:accumulate;font-family:Aharoni CLM;-inkscape-font-specification:Aharoni CLM"
         d="m 393.57027,282.04629 0,181.63566 5.5,0 0,-181.63566 -5.5,0 z"
         id="path3945"
         sodipodi:nodetypes="ccccc" />
      <path
         sodipodi:nodetypes="ccccc"
         id="path3947"
         d="m 401.74865,282.04629 0,179.8679 5.5,0 0,-179.8679 -5.5,0 z"
         style="font-size:medium;font-style:normal;font-variant:normal;font-weight:normal;font-stretch:normal;text-indent:0;text-align:start;text-decoration:none;line-height:normal;letter-spacing:normal;word-spacing:normal;text-transform:none;direction:ltr;block-progression:tb;writing-mode:lr-tb;text-anchor:start;color:#000000;fill:#ffffff;fill-opacity:1;fill-rule:nonzero;stroke:none;stroke-width:6;marker:none;visibility:visible;display:inline;overflow:visible;enable-background:accumulate;font-family:Aharoni CLM;-inkscape-font-specification:Aharoni CLM" />
      <path
         style="font-size:medium;font-style:normal;font-variant:normal;font-weight:normal;font-stretch:normal;text-indent:0;text-align:start;text-decoration:none;line-height:normal;letter-spacing:normal;word-spacing:normal;text-transform:none;direction:ltr;block-progression:tb;writing-mode:lr-tb;text-anchor:start;color:#000000;fill:#ffffff;fill-opacity:1;fill-rule:nonzero;stroke:none;stroke-width:6;marker:none;visibility:visible;display:inline;overflow:visible;enable-background:accumulate;font-family:Aharoni CLM;-inkscape-font-specification:Aharoni CLM"
         d="m 409.92703,282.04629 0,180.09951 5.5,-1.61001 0,-178.4895 -5.5,0 z"
         id="path3949"
         sodipodi:nodetypes="ccccc" />
      <path
         sodipodi:nodetypes="ccccc"
         id="path3951"
         d="m 418.10541,282.04629 0,177.77928 5.5,-1.69946 0,-176.07982 -5.5,0 z"
         style="font-size:medium;font-style:normal;font-variant:normal;font-weight:normal;font-stretch:normal;text-indent:0;text-align:start;text-decoration:none;line-height:normal;letter-spacing:normal;word-spacing:normal;text-transform:none;direction:ltr;block-progression:tb;writing-mode:lr-tb;text-anchor:start;color:#000000;fill:#ffffff;fill-opacity:1;fill-rule:nonzero;stroke:none;stroke-width:6;marker:none;visibility:visible;display:inline;overflow:visible;enable-background:accumulate;font-family:Aharoni CLM;-inkscape-font-specification:Aharoni CLM" />
      <path
         style="font-size:medium;font-style:normal;font-variant:normal;font-weight:normal;font-stretch:normal;text-indent:0;text-align:start;text-decoration:none;line-height:normal;letter-spacing:normal;word-spacing:normal;text-transform:none;direction:ltr;block-progression:tb;writing-mode:lr-tb;text-anchor:start;color:#000000;fill:#ffffff;fill-opacity:1;fill-rule:nonzero;stroke:none;stroke-width:6;marker:none;visibility:visible;display:inline;overflow:visible;enable-background:accumulate;font-family:Aharoni CLM;-inkscape-font-specification:Aharoni CLM"
         d="m 426.28379,282.04629 0,175.72739 5.5,-1.16279 0,-174.5646 -5.5,0 z"
         id="path3953"
         sodipodi:nodetypes="ccccc" />
      <path
         sodipodi:nodetypes="ccccc"
         id="path3955"
         d="m 434.46217,282.04629 0,174.22795 5.5,-1.43112 0,-172.79683 -5.5,0 z"
         style="font-size:medium;font-style:normal;font-variant:normal;font-weight:normal;font-stretch:normal;text-indent:0;text-align:start;text-decoration:none;line-height:normal;letter-spacing:normal;word-spacing:normal;text-transform:none;direction:ltr;block-progression:tb;writing-mode:lr-tb;text-anchor:start;color:#000000;fill:#ffffff;fill-opacity:1;fill-rule:nonzero;stroke:none;stroke-width:6;marker:none;visibility:visible;display:inline;overflow:visible;enable-background:accumulate;font-family:Aharoni CLM;-inkscape-font-specification:Aharoni CLM" />
      <path
         style="font-size:medium;font-style:normal;font-variant:normal;font-weight:normal;font-stretch:normal;text-indent:0;text-align:start;text-decoration:none;line-height:normal;letter-spacing:normal;word-spacing:normal;text-transform:none;direction:ltr;block-progression:tb;writing-mode:lr-tb;text-anchor:start;color:#000000;fill:#ffffff;fill-opacity:1;fill-rule:nonzero;stroke:none;stroke-width:6;marker:none;visibility:visible;display:inline;overflow:visible;enable-background:accumulate;font-family:Aharoni CLM;-inkscape-font-specification:Aharoni CLM"
         d="m 442.64055,282.04629 0,170.77652 5.5,0 0,-170.77652 -5.5,0 z"
         id="path3957"
         sodipodi:nodetypes="ccccc" />
      <path
         sodipodi:nodetypes="ccccc"
         id="path3959"
         d="m 450.81893,282.04629 0,168.83521 5.5,-1.34168 0,-167.49353 -5.5,0 z"
         style="font-size:medium;font-style:normal;font-variant:normal;font-weight:normal;font-stretch:normal;text-indent:0;text-align:start;text-decoration:none;line-height:normal;letter-spacing:normal;word-spacing:normal;text-transform:none;direction:ltr;block-progression:tb;writing-mode:lr-tb;text-anchor:start;color:#000000;fill:#ffffff;fill-opacity:1;fill-rule:nonzero;stroke:none;stroke-width:6;marker:none;visibility:visible;display:inline;overflow:visible;enable-background:accumulate;font-family:Aharoni CLM;-inkscape-font-specification:Aharoni CLM" />
      <path
         style="font-size:medium;font-style:normal;font-variant:normal;font-weight:normal;font-stretch:normal;text-indent:0;text-align:start;text-decoration:none;line-height:normal;letter-spacing:normal;word-spacing:normal;text-transform:none;direction:ltr;block-progression:tb;writing-mode:lr-tb;text-anchor:start;color:#000000;fill:#ffffff;fill-opacity:1;fill-rule:nonzero;stroke:none;stroke-width:6;marker:none;visibility:visible;display:inline;overflow:visible;enable-background:accumulate;font-family:Aharoni CLM;-inkscape-font-specification:Aharoni CLM"
         d="m 458.99731,282.04629 0,165.21022 5.5,-1.25223 0,-163.95799 -5.5,0 z"
         id="path3961"
         sodipodi:nodetypes="ccccc" />
      <path
         sodipodi:nodetypes="ccccc"
         id="path3963"
         d="m 467.17569,282.04629 0,160.63828 5.5,-3.24628 0,-157.392 -5.5,0 z"
         style="font-size:medium;font-style:normal;font-variant:normal;font-weight:normal;font-stretch:normal;text-indent:0;text-align:start;text-decoration:none;line-height:normal;letter-spacing:normal;word-spacing:normal;text-transform:none;direction:ltr;block-progression:tb;writing-mode:lr-tb;text-anchor:start;color:#000000;fill:#ffffff;fill-opacity:1;fill-rule:nonzero;stroke:none;stroke-width:6;marker:none;visibility:visible;display:inline;overflow:visible;enable-background:accumulate;font-family:Aharoni CLM;-inkscape-font-specification:Aharoni CLM" />
      <path
         style="font-size:medium;font-style:normal;font-variant:normal;font-weight:normal;font-stretch:normal;text-indent:0;text-align:start;text-decoration:none;line-height:normal;letter-spacing:normal;word-spacing:normal;text-transform:none;direction:ltr;block-progression:tb;writing-mode:lr-tb;text-anchor:start;color:#000000;fill:#ffffff;fill-opacity:1;fill-rule:nonzero;stroke:none;stroke-width:6;marker:none;visibility:visible;display:inline;overflow:visible;enable-background:accumulate;font-family:Aharoni CLM;-inkscape-font-specification:Aharoni CLM"
         d="m 475.35406,282.04629 0,154.88775 5.5,-4.31428 0,-150.57347 -5.5,0 z"
         id="path3965"
         sodipodi:nodetypes="ccccc" />
      <path
         sodipodi:nodetypes="ccccc"
         id="path3967"
         d="m 483.53244,282.04629 0,41.98207 5.5,0 0,-41.98207 -5.5,0 z"
         style="font-size:medium;font-style:normal;font-variant:normal;font-weight:normal;font-stretch:normal;text-indent:0;text-align:start;text-decoration:none;line-height:normal;letter-spacing:normal;word-spacing:normal;text-transform:none;direction:ltr;block-progression:tb;writing-mode:lr-tb;text-anchor:start;color:#000000;fill:#ffffff;fill-opacity:1;fill-rule:nonzero;stroke:none;stroke-width:6;marker:none;visibility:visible;display:inline;overflow:visible;enable-background:accumulate;font-family:Aharoni CLM;-inkscape-font-specification:Aharoni CLM" />
      <path
         style="font-size:medium;font-style:normal;font-variant:normal;font-weight:normal;font-stretch:normal;text-indent:0;text-align:start;text-decoration:none;line-height:normal;letter-spacing:normal;word-spacing:normal;text-transform:none;direction:ltr;block-progression:tb;writing-mode:lr-tb;text-anchor:start;color:#000000;fill:#ffffff;fill-opacity:1;fill-rule:nonzero;stroke:none;stroke-width:6;marker:none;visibility:visible;display:inline;overflow:visible;enable-background:accumulate;font-family:Aharoni CLM;-inkscape-font-specification:Aharoni CLM"
         d="m 491.71082,282.04629 0,42.23461 5.5,0 0,-42.23461 -5.5,0 z"
         id="path3969"
         sodipodi:nodetypes="ccccc" />
    </g>
    <rect
       style="fill:#1b3f95;fill-opacity:1;stroke:none;display:inline"
       id="rect3973"
       width="159.55357"
       height="78.75"
       x="341.42856"
       y="322.71933" />
    <path
       style="fill:#ffffff;stroke:none"
       d="m 344.28571,345.3979 36.42858,0.17857 0,16.24999 16.42857,0 0,-13.03571 19.28571,0 0.33963,-4.82612 22.01752,0 0,15.18327 5.7083,0 0,-5.68865 35.68391,0.35714 0.17857,8.54579 5.17794,0 0,-19.64285 12.31556,-1e-5 0,51.78572 -53.56428,0 2.8e-4,-17.87902 c 0.8831,-3.8814 12.1406,-0.86972 13.40254,1.9511 0.0763,-6.93333 -8.04177,-13.36909 -14.39819,-6.29924 -2.44278,-6.7662 -16.19361,-4.19664 -16.62131,4.7769 4.04829,-2.16991 8.95036,-5.57411 12.43096,-0.90057 l 0,18.35085 -94.81429,0 0,-49.10714 0,-2e-5 z"
       id="path3976"
       sodipodi:nodetypes="ccccccccccccccccccccccccccc" />
    <path
       id="rect3982-1-4"
       style="fill:#1a4094;fill-opacity:1;stroke:none;display:inline"
       d="m 487.79501,348.26261 -5e-4,13.74261 5.28874,0 0,-11.39304 3.37612,0 0,-2.34957 -8.66436,0 z m -58.76079,-0.51497 -5e-4,14.32083 5.38903,0 0,-11.78725 3.27583,0 0,-2.53358 -8.66436,0 z m -11.10048,0 -5e-4,14.32083 5.38903,0 0,-11.78725 3.27583,0 0,-2.53358 -8.66436,0 z m -48.20626,3.11454 -5e-4,11.20629 5.38903,0 0,-8.9257 3.27583,0 0,-2.28059 -8.66436,0 z m -11.10048,0 -5e-4,11.20629 5.38903,0 0,-8.9257 3.27583,0 0,-2.28059 -8.66436,0 z"
       sodipodi:nodetypes="ccccccccccccccccccccccccccccccccccc" />
    <g
       id="g4069">
      <path
         id="path4067"
         style="fill:#1b3f95;fill-opacity:1;stroke:none"
         d="m 372.15923,394.50505 2.8e-4,-17.62604 c 3.88265,-3.8814 8.52268,-0.95281 12.32921,1.42079 0.22183,-6.71946 -5.90328,-12.39247 -13.32486,-5.76893 -6.87404,-8.70011 -14.94563,-3.44842 -16.7478,3.89144 4.04829,-2.16991 9.07685,-4.68865 12.55745,-0.0151 l 0,18.09786 5.18572,-2e-5 z m 36.12649,-10e-6 2.8e-4,-17.62603 c 0.8831,-3.8814 11.24616,-1.1317 12.41865,1.68912 -0.81815,-8.45228 -7.05788,-11.59564 -13.4143,-6.03726 -2.14709,-6.94362 -14.29931,-6.09219 -15.98884,3.63845 4.04829,-2.16991 8.31789,-4.43566 11.79849,0.23788 l 0,18.09786 5.18572,-2e-5 z m 72.37947,10e-6 2.8e-4,-17.62604 c 3.08239,-4.32126 9.12005,-0.68859 10.98753,1.42079 -0.14864,-8.14849 -5.72893,-12.0425 -11.98318,-5.76893 -3.67645,-8.30115 -16.5137,-3.93175 -16.24183,3.89144 3.82991,-2.82507 8.13108,-6.00804 12.05148,-0.0151 l 0,18.09786 5.18572,-2e-5 z m -36.37947,-10e-6 -5.18572,2e-5 5.18572,-2e-5 z"
         sodipodi:nodetypes="ccccccccccccccccccccccccccc" />
    </g>
    <path
       style="fill:none;stroke:#1b3e95;stroke-width:4.5;stroke-miterlimit:4;stroke-opacity:1;stroke-dasharray:none"
       d="m 510,657.53125 c 34.61392,-22.36356 79.1282,-16.7283 115.83942,-34.15065 20.43604,-8.84935 38.55896,-26.82567 41.23279,-49.56436 2.55403,-21.12304 -0.49852,-42.94567 0.24029,-64.22249 0.007,-18.26044 -0.0391,-36.52084 -0.0625,-54.78125 -52.41667,0 -104.83333,0 -157.25,0 0,67.57292 0,135.14583 0,202.71875 z"
       id="path4075"
       sodipodi:nodetypes="ccccccc" />
    <path
       style="fill:#1b3f95;fill-opacity:1;stroke:none"
       d="m 510.21545,498.00015 157.29587,0 c 0.0701,0 0.1265,0.0564 0.1265,0.1265 l 0,60.1408 c -0.7712,22.82307 -6.0467,36.88779 -15.40415,43.01536 l -142.01822,0 c -0.0701,0 -0.12649,-0.0564 -0.12649,-0.12649 l 0,-103.02967 c 0,-0.0701 0.0564,-0.1265 0.12649,-0.1265 z"
       id="rect4079"
       sodipodi:nodetypes="ccccccccc" />
    <path
       style="fill:#ffffff;stroke:none"
       d="m 646.90625,518.25 0,30.8125 -6.71875,0 0,-13.9375 -7.84375,0 0,9.375 -3.40625,0 0,-9.375 -6.6207,0 0,9.375 -3.3793,0 0,-9.375 -6.70041,0 0,9.375 -3.28237,0 0,-9.375 -7.86097,0 0,18.21875 -6.6875,0 0,-34.69292 -5.40625,0 0,13.03125 -3.45041,0 0,-13.03125 -6.45584,0 0,13.03125 -3.6757,0 0,-13.03125 -6.23916,0 0,13.03125 -3.68862,0 0,-13.03125 -5.36527,0 0,38.47417 -6.09375,0 0,-21.875 -4,0 0,12.40625 -2.96875,0 0,-12.40625 -7.28125,0 0,12.40625 -3.4375,0 0,-12.40625 -6.09375,0 0,12.40625 -3.5625,0 0,-12.40625 -6.28125,0 0,12.40625 -3.5625,0 0,-12.40625 -4.53125,0 0,29.5625 c 2.77074,1.65443 4.69906,2.28175 6.8125,2.0625 2.11344,-0.21925 4.85933,-1.41993 8.75,-4.59375 4.29992,-3.50767 8.14786,-5.92783 12.59375,-6.21875 4.44589,-0.29092 8.7726,1.68987 13.625,5.40625 4.44267,3.40257 7.37227,4.92026 9.78125,5.0625 2.40898,0.14224 5.149,-0.924 9.625,-4.3125 5.08896,-3.85253 9.9276,-5.49639 14.5,-5.1875 4.5724,0.30889 8.54576,2.42601 12.3125,5.125 3.43689,2.46263 6.49433,4.19192 9.4375,4.53125 2.94317,0.33933 6.15172,-0.43753 10.71875,-4.15625 5.401,-4.39779 10.7324,-6.1642 15.625,-5.8125 4.8926,0.3517 9.06961,2.68624 12.65625,5.53125 5.87062,4.65672 11.96254,4.8338 17,2.21875 l 0,-35.59375 -11.21875,0 0,-10.625 -7.625,0 z m 18.34862,52.53125 c -6.49741,2.42363 -13.6053,1.40606 -20.22362,-3.84375 -3.04733,-2.41721 -6.14428,-3.98651 -9.375,-4.21875 -3.23072,-0.23224 -6.85464,0.76259 -11.40625,4.46875 -5.38557,4.38522 -10.5054,6.00858 -15.1875,5.46875 -4.6821,-0.53983 -8.57865,-2.99436 -12.25,-5.625 -3.34149,-2.39428 -6.28273,-3.8329 -9.21875,-4.03125 -2.92217,-0.19741 -6.14901,0.73664 -10.4375,3.96875 L 577.09375,567 c -4.93202,3.73372 -9.10333,5.79454 -13.5625,5.53125 -4.43498,-0.26186 -8.34514,-2.66709 -13.03125,-6.25 l -0.0625,-0.0625 c -4.31095,-3.30168 -7.10332,-4.31717 -9.5625,-4.15625 -2.45918,0.16092 -5.27029,1.65404 -9.21875,4.875 -4.35771,3.55481 -8.10857,5.51228 -11.90625,5.90625 -2.63315,0.27316 -5.0874,-0.26764 -7.4375,-1.28125 l 0,11.1875 0.34375,-0.5625 c 2.77074,1.65443 4.69906,2.313 6.8125,2.09375 2.11344,-0.21925 4.82808,-1.45118 8.71875,-4.625 4.29992,-3.50767 8.17911,-5.92783 12.625,-6.21875 4.44589,-0.29092 8.7726,1.68987 13.625,5.40625 4.44267,3.40257 7.34102,4.92026 9.75,5.0625 2.40898,0.14224 5.149,-0.924 9.625,-4.3125 5.08896,-3.85253 9.9276,-5.49639 14.5,-5.1875 4.5724,0.30889 8.57701,2.42601 12.34375,5.125 3.43689,2.46263 6.46308,4.19192 9.40625,4.53125 2.94317,0.33933 6.15172,-0.43753 10.71875,-4.15625 5.401,-4.39779 10.7324,-6.1642 15.625,-5.8125 4.8926,0.3517 9.22665,2.53449 12.6875,5.53125 7.42189,6.42664 12.8441,3.65712 12.8441,3.65712 0,0 2.8298,-4.5956 3.31702,-12.50087 z m 0.49513,17.53125 0,0 z m -5.82418,0.78266 c -4.94528,0.25008 -9.88993,-1.02949 -14.58207,-4.75141 -3.04733,-2.41721 -6.14428,-4.01776 -9.375,-4.25 -3.23072,-0.23224 -6.85464,0.76259 -11.40625,4.46875 -5.38557,4.38522 -10.5054,6.00858 -15.1875,5.46875 -4.6821,-0.53983 -8.5474,-2.99436 -12.21875,-5.625 -3.34149,-2.39428 -6.31398,-3.80165 -9.25,-4 -2.9273,-0.19776 -6.1377,0.6915 -10.4375,3.9375 l -0.0312,0.0312 c -4.93202,3.73372 -9.13458,5.79454 -13.59375,5.53125 -4.43489,-0.26185 -8.31402,-2.66721 -13,-6.25 l -0.0625,-0.0625 c -4.31095,-3.30168 -7.13457,-4.31717 -9.59375,-4.15625 -2.45918,0.16092 -5.27029,1.65404 -9.21875,4.875 -4.35771,3.55481 -8.07732,5.54353 -11.875,5.9375 -2.75693,0.286 -5.32133,-0.35312 -7.78125,-1.46875 l 0,6.1875 144.6392,0.38084 c 1.50122,-1.873 2.53085,-3.89552 2.97407,-6.25438 z m -147.61332,-0.31391 0,-6.03125 0,6.03125 z m 0,-17.21875 0,-6.75 0,6.75 z"
       id="path4112"
       sodipodi:nodetypes="ccccccccccccccccccccccccccccccccccccccccccccccccccccccssssssssssssccccccssssssccsccssscccsssssssssssscccccssssssccsccssscccccccccc" />
  </g>
</svg>
