<?xml version="1.0" encoding="utf-8"?>
<!-- Generator: Adobe Illustrator 15.1.0, SVG Export Plug-In . SVG Version: 6.00 Build 0)  -->
<!DOCTYPE svg PUBLIC "-//W3C//DTD SVG 1.1//EN" "http://www.w3.org/Graphics/SVG/1.1/DTD/svg11.dtd">
<svg version="1.1" id="Layer_1" xmlns="http://www.w3.org/2000/svg" xmlns:xlink="http://www.w3.org/1999/xlink" x="0px" y="0px"
	 width="979px" height="1317px" viewBox="0 0 979 1317" enable-background="new 0 0 979 1317" xml:space="preserve">
<g>
	<g>
		<path fill="#F47A20" d="M140.35,1160.301l825.278-995.244H749.151l156.027-154.93H76.287l156.028,154.93H9.831
			c0,0,0,601.407,0,743.661C9.831,978.941,57.67,1077.993,140.35,1160.301z"/>
		<path fill="#008A44" d="M146.082,1165.922c84.508,81.751,203.755,145.613,344.652,145.613
			c284.605,0,480.902-260.563,480.902-402.817c0-134.428,0-678.875,0-738.373L146.082,1165.922z"/>
	</g>
	<g>
		<path fill="#FFFFFF" d="M382.424,155.059h-20.369v-33.37c0-8.676-2.34-14.671-7.02-17.987c-4.681-3.314-11.725-4.972-21.133-4.972
			c-7.033,0-14.695,0.557-22.988,1.669l-1.455-15.017c7.904-1.29,17.241-1.936,28.007-1.936c11.688,0,20.733,1.546,27.135,4.638
			c6.402,3.093,10.972,6.964,13.713,11.613c2.739,4.65,4.11,11.069,4.11,19.255V155.059z M330.774,118.285v36.774h-20.442v-36.774
			H330.774z"/>
		<path fill="#FFFFFF" d="M457.79,84.247v18.22c0,6.674-0.316,11.569-0.946,14.683c-0.631,3.115-1.964,6.007-4.001,8.676
			l-3.274,4.338c-2.037,2.759-3.419,4.995-4.146,6.708c-0.728,1.713-1.091,3.86-1.091,6.44v11.746h-20.369v-12.681
			c0-3.648,0.521-6.741,1.564-9.277c1.042-2.536,3.091-5.74,6.147-9.611l1.964-2.469c2.474-3.159,3.71-7.075,3.71-11.746v-8.876
			h-41.102V57.217h20.369v27.03H457.79z"/>
		<path fill="#FFFFFF" d="M496.272,84.247v70.812h-21.024V84.247H496.272z"/>
		<path fill="#FFFFFF" d="M515.332,86.449c9.166-2.269,18.501-3.403,28.007-3.403c13.531,0,24.309,3.26,32.336,9.777
			c8.026,6.519,12.04,14.961,12.04,25.328c0,12.058-4.365,21.401-13.095,28.031c-8.729,6.63-20.15,9.944-34.264,9.944
			c-8.875,0-17.872-1.49-26.989-4.472l4.001-12.614c7.372,2.581,14.379,3.871,21.024,3.871c8.486,0,15.276-2.012,20.369-6.04
			c5.092-4.026,7.638-10,7.638-17.92c0-7.252-2.062-12.948-6.183-17.085c-4.123-4.138-9.919-6.207-17.387-6.207
			c-2.717,0-5.481,0.245-8.293,0.734v8.209c0,6.497,2.837,9.744,8.511,9.744c0.775,0,1.648-0.044,2.619-0.134l3.419,11.613
			c-3.444,1.335-7.202,2.002-11.275,2.002c-3.783,0-7.336-0.623-10.657-1.869c-3.323-1.245-6.124-3.448-8.402-6.607
			c-2.28-3.159-3.419-8.609-3.419-16.352V86.449z"/>
		<path fill="#FFFFFF" d="M632.31,141.11c5.576-2.403,9.202-5.216,10.875-8.443c1.674-3.225,2.51-8.197,2.51-14.917l0.873-33.503
			h20.297l-1.092,25.428c-0.291,7.742-0.74,13.604-1.346,17.586c-0.606,3.982-1.989,7.932-4.146,11.846
			c-2.158,3.916-5.505,7.453-10.039,10.612c-4.535,3.16-11.446,6.129-20.732,8.91c-9.288,2.78-20.188,5.105-32.7,6.974l-2.546-15.35
			c7.759-1.068,14.477-2.247,20.15-3.538l-13.385-62.469h20.66L632.31,141.11z"/>
	</g>
	<g>
		<path fill="#FFFFFF" d="M299.6,1142.27l-9.696,9.124c-3.551,3.342-6.387,5.548-8.502,6.619c-2.118,1.071-4.628,1.486-7.534,1.245
			l-4.695-0.364c-2.953-0.196-5.151-0.147-6.592,0.146c-1.442,0.295-2.85,1.088-4.223,2.38l-6.25,5.882l-14.85-15.78l6.748-6.35
			c1.941-1.827,3.967-2.973,6.077-3.434c2.109-0.463,5.308-0.479,9.595-0.051l2.746,0.285c3.484,0.335,6.469-0.668,8.956-3.008
			l4.723-4.444l-29.964-31.843l22.978-21.623l14.85,15.78l-14.384,13.535L299.6,1142.27z"/>
		<path fill="#FFFFFF" d="M352.151,1200.844l13.687,30.16l-23.333-10.38l-15.846-35.017c-5.298,0.738-9.44,4.466-12.426,11.179
			l-5.313,8.898l-19.232-8.556l5.874-9.396c4.003-6.332,7.951-10.385,11.845-12.157c3.894-1.772,8.446-2.55,13.657-2.331
			l-10.488-23.453l23.263,10.348l13.105,28.994c5.39-0.058,9.347-2.923,11.871-8.597l4.438-7.312l18.384,8.178l-3.405,5.37
			c-3.884,6.065-7.619,9.955-11.204,11.669C363.44,1200.154,358.481,1200.956,352.151,1200.844z"/>
		<path fill="#FFFFFF" d="M421.521,1230.971c6.141-0.748,10.286-2.136,12.432-4.166c2.146-2.029,3.625-5.465,4.439-10.307
			l4.973-23.988l21.293,3.578l-4.224,18.131c-1.243,5.527-2.424,9.673-3.542,12.436c-1.119,2.763-3.047,5.364-5.785,7.806
			c-2.739,2.44-6.678,4.399-11.817,5.876c-5.141,1.478-12.75,2.398-22.83,2.766c-10.08,0.366-21.796,0.12-35.149-0.739l-0.812-11.51
			c8.269,0.598,15.459,0.934,21.568,1.003l-6.478-47.374l21.674,3.643L421.521,1230.971z"/>
		<path fill="#FFFFFF" d="M545.661,1247.247l-21.664,0.438l-0.516-25.451c-0.111-5.525-2.371-9.431-6.777-11.716
			c-4.408-2.284-11.357-3.33-20.848-3.138c-4.848,0.098-11.263,0.537-19.246,1.316l-1.843-10.742
			c7.406-1.224,15.956-1.934,25.655-2.13c14.699-0.298,25.777,1.413,33.232,5.132c7.453,3.719,11.268,9.836,11.439,18.352
			L545.661,1247.247z"/>
		<path fill="#FFFFFF" d="M616.822,1193.831c-7.068,1.21-12.539,3.192-16.412,5.949c-3.873,2.758-5.433,6.331-4.682,10.721
			c0.208,1.219,0.69,2.818,1.448,4.799c2.285,5.712,3.837,10.954,4.653,15.729l1.316,7.691l-19.909,3.405l-1.11-6.489
			c-0.751-4.39-2.006-9.271-3.762-14.645c-0.65-1.966-1.091-3.623-1.32-4.969c-0.987-5.768,1.502-10.646,7.467-14.636l-22.35,3.823
			l-1.99-11.633l54.998-9.407L616.822,1193.831z"/>
		<path fill="#FFFFFF" d="M648.468,1174.102l8.094,27.712l-21.469,6.27L627,1180.371L648.468,1174.102z"/>
		<path fill="#FFFFFF" d="M787.918,1162.551l-18.417,11.416l-13.412-21.637c-2.911-4.697-6.846-6.906-11.802-6.627
			c-4.956,0.28-11.468,2.921-19.536,7.922c-4.122,2.555-9.419,6.202-15.89,10.939l-7.06-8.304
			c5.749-4.826,12.745-9.794,20.989-14.904c12.498-7.747,22.9-11.919,31.21-12.519c8.309-0.598,14.708,2.723,19.195,9.962
			L787.918,1162.551z"/>
		<path fill="#FFFFFF" d="M790.095,1089.712l20.337,20.491l-15.874,15.755l-20.337-20.491L790.095,1089.712z"/>
		<path fill="#FFFFFF" d="M855.488,1065.522c0.779-6.138,0.448-10.496-0.994-13.074c-1.442-2.577-4.41-4.854-8.905-6.828
			l-22.04-10.697l8.685-19.768l16.544,8.536c5.055,2.559,8.785,4.719,11.189,6.479c2.404,1.762,4.455,4.269,6.15,7.521
			c1.696,3.253,2.631,7.552,2.804,12.896c0.173,5.347-0.798,12.95-2.91,22.812c-2.114,9.863-5.223,21.162-9.326,33.898
			l-11.358-2.032c2.605-7.87,4.691-14.76,6.256-20.665l-47.519-5.323l8.84-20.122L855.488,1065.522z"/>
	</g>
	<path fill="#FFFFFF" d="M600.363,818.993c-53.842,0-99.433,36.184-114.847,86.096c20.938-31.433,56.191-52.072,96.151-52.072
		c64.228,0,116.295,53.314,116.295,119.08c0,22.533-6.114,43.604-16.733,61.57c24.296-22.56,39.556-55.139,39.556-91.368
		C720.785,874.199,666.87,818.993,600.363,818.993z"/>
	<path fill="#FFFFFF" d="M654,1051.667l9.333-30.666l-198.667-65.667L475,918.001l-42-24.334l-47.667,85l20,79.334h-59l42,59.667
		H406l-23.667-41.001L634,1080.334l-13,39.667h9l49.333-68.334H654z M431.667,1056.667l12-54.333l171,47.333L431.667,1056.667z"/>
	<polygon fill="#FFFFFF" points="804,510 804,557.667 752,508.667 752,461 	"/>
	<polygon fill="#FFFFFF" points="804,587 804,634.667 752,585.667 752,538 	"/>
	<polygon fill="#FFFFFF" points="804,657.334 804,705.001 752,656.001 752,608.334 	"/>
	<polygon fill="#FFFFFF" points="804,727.834 804,775.501 752,726.501 752,678.834 	"/>
	<polygon fill="#FFFFFF" points="804,799.168 804,846.835 752,797.835 752,750.168 	"/>
	<polygon fill="#FFFFFF" points="820.334,510 820.334,557.667 872.334,508.667 872.334,461 	"/>
	<polygon fill="#FFFFFF" points="820.334,587 820.334,634.667 872.334,585.667 872.334,538 	"/>
	<polygon fill="#FFFFFF" points="820.334,657.334 820.334,705.001 872.334,656.001 872.334,608.334 	"/>
	<polygon fill="#FFFFFF" points="820.334,727.834 820.334,775.501 872.334,726.501 872.334,678.834 	"/>
	<path fill="#FFFFFF" d="M820.334,799.168v47.667l2.416-2.276V863H807v87.5c0,0,3.75-4.5,9-12.25S828.25,913,830.25,900
		s5.25-41.5,5.75-44.75s36.334-57.415,36.334-57.415v-47.667L820.334,799.168z"/>
	<polygon fill="#FFFFFF" points="864.75,371.75 864.75,453.25 815.75,500.5 797,476.5 851.5,409.5 852.25,383.5 	"/>
	<polygon fill="#FFFFFF" points="794,401.5 794,425.75 808.5,436.75 791.25,455.75 781.75,444.75 781.75,417.75 	"/>
	<path fill="#FFFFFF" d="M927,355.5c0,0,0,436.25,0,485.75s-1.5,92.5-34,124.25c-26.25,26.75-30.75,30-30.75,30s27.25-55.5,31-71.75
		s8.5-65.75,8.5-76.25s0-549,0-549L927,355.5z"/>
	<path fill="#FFFFFF" d="M169.5,398.5c0,0,87-70,132-70s91,37,91,37s16.25-19.75,23.25-24.5S440,330.25,449,323
		s11.5-10.25,11.5-10.25s33.75,13.75,46.5,20s22.5,15.5,32.25,21s16.5,11.5,16.5,11.5s43.25-36.75,58.5-36.75
		s53.5,16.25,60.25,25.75S708,394,708,398.75s-1.75,10.5-4,10.5s-30.75-24.5-38-30.75s-12.5-10.5-16.5-14.25S634.5,346,620,346
		c-17.75,0-57,35.75-57,35.75s7.5,10.5,9.75,14.25s10,16.25,10,16.25l-5.5,3.25c0,0-10.75-17.75-24.75-31.25
		c-21.75-21-83.5-51.75-83.5-51.75s-10,7.5-19.5,11s-24.25,7.75-31.75,11.5c-14.25,7.25-17,24.5-17,24.5s16.75,24.25,17.75,25.25
		s3,5.25,3,8.25s0,12.5,0.75,15s2,9.5,2,9.5S413,429,406,417s-22-38-33.25-44.5s-49.5-20.5-64.5-20.5c-34.25,0-136,66.25-136,66.25
		L169.5,398.5z"/>
	<polygon fill="#FFFFFF" points="278.25,464.75 463.25,464.75 463.25,485.75 378.5,485.75 378.5,515.5 314.5,515.5 279.25,481.5 
		242,505.75 242,530.5 230,530.5 229.5,524 217.75,524 217.75,517.5 	"/>
	<path fill="#FFFFFF" d="M547.5,516.25L531,499c0,0,13.5-3,18.5-13c2.75-6,4.75-15.25,4.75-15.25s-2,1.25-7,1.25s-18-9-18-9
		s0-20,0-24.25s-8-8.5-8-21c0-4-4.25-16-4.25-16s-6.25,32.5-25,32.5c-1.75,0-3.75,0-3.75,0s0,14.75,0,23s-13.75,14.25-13.75,26
		c0,3.25,2.25,12.25,2.25,12.25h2.75v14.25h-7.75v-9l-78.75,1.5v19.25h11V541c0,0-136.75,0-154.75,0s-56.5-5.5-56.5-5.5v-8.75h10.5
		L205,515l-7.25-8.25h-8.5c0,0,0-7,0-10S192,488,192,485s-2.75-10-4-12.25s-2.75-13-10.5-13c-16.25,0-17,12.5-17,12.5h-37.25v8.5
		c0,0-9.5,3.25-9.5,9c0,3.25,1.25,6,1.25,6s-13.5,0-16.25,0s-16.25,2.25-16.25,17c0,19,14,14.5,14,22.75
		c0,10.75-18.5,18.25-18.5,18.25v49.5c0,0,13.5,11.75,28.5,11.75s28.25-10,28.25-10H152v15.25h51.5v28.25h223.25v-37h49.75v-50.75
		h18.75c0,0,0,13.5,0,19s4.25,8.5,4.25,16.25s0,31.75,0,31.75H524V606c0,0,4-4,6.25-7.5s1.75-10.75,1.75-10.75s7-6,7-12.5
		s-5-12.75-5-14.5s3.5-5.5,8-10.25s7.75-11.5,10.5-16.75s9-12.5,9-12.5v-15L547.5,516.25z M252.75,633h-35v-27.5h35V633z
		 M300.75,637.75h-35v-27.5h35V637.75z M355,637.75h-35v-27.5h35V637.75z M415,633h-35v-27.5h35V633z M461.25,582.25H215V554.5
		h246.25V582.25z"/>
</g>
</svg>
