<?xml version="1.0" encoding="UTF-8" standalone="no"?>
<!-- Generator: Adobe Illustrator 15.1.0, SVG Export Plug-In . SVG Version: 6.00 Build 0)  -->

<svg
   xmlns:dc="http://purl.org/dc/elements/1.1/"
   xmlns:cc="http://creativecommons.org/ns#"
   xmlns:rdf="http://www.w3.org/1999/02/22-rdf-syntax-ns#"
   xmlns:svg="http://www.w3.org/2000/svg"
   xmlns="http://www.w3.org/2000/svg"
   xmlns:sodipodi="http://sodipodi.sourceforge.net/DTD/sodipodi-0.dtd"
   xmlns:inkscape="http://www.inkscape.org/namespaces/inkscape"
   version="1.1"
   id="Layer_1"
   x="0px"
   y="0px"
   width="818.66699"
   height="1129.0698"
   viewBox="0 0 818.667 1129.0698"
   enable-background="new 0 0 818.667 1077.907"
   xml:space="preserve"
   sodipodi:docname="Coat_of_arms_of_Ariel.svg"
   inkscape:version="0.92.3 (2405546, 2018-03-11)"><metadata
   id="metadata89"><rdf:RDF><cc:Work
       rdf:about=""><dc:format>image/svg+xml</dc:format><dc:type
         rdf:resource="http://purl.org/dc/dcmitype/StillImage" /><dc:title></dc:title></cc:Work></rdf:RDF></metadata><defs
   id="defs87">
	
	
	
	
	
	
	
	
	
	
	
	
	
	
	
	
	
	
	
	
	
	
	
	
	
	
	
	
	
	
	
	
	
	
	
	
	
	
	
	
</defs><sodipodi:namedview
   pagecolor="#ffffff"
   bordercolor="#666666"
   borderopacity="1"
   objecttolerance="10"
   gridtolerance="10"
   guidetolerance="10"
   inkscape:pageopacity="0"
   inkscape:pageshadow="2"
   inkscape:window-width="1920"
   inkscape:window-height="1005"
   id="namedview85"
   showgrid="false"
   inkscape:zoom="0.30963191"
   inkscape:cx="380.18527"
   inkscape:cy="715.60786"
   inkscape:window-x="-9"
   inkscape:window-y="-9"
   inkscape:window-maximized="1"
   inkscape:current-layer="Layer_1"
   inkscape:snap-bbox="true"
   inkscape:bbox-nodes="true"
   inkscape:bbox-paths="true"
   inkscape:snap-bbox-edge-midpoints="true"
   inkscape:snap-bbox-midpoints="true"
   inkscape:object-paths="true"
   inkscape:snap-intersection-paths="true"
   inkscape:snap-smooth-nodes="true"
   inkscape:snap-object-midpoints="true"
   inkscape:snap-center="true"
   fit-margin-top="0"
   fit-margin-left="0"
   fit-margin-right="0"
   fit-margin-bottom="0" />
<path
   style="fill:#00007e;fill-opacity:1;stroke-width:1.86471224"
   d="m 0.0582955,0 v 39.158958 c 0,50.521395 -3.2453452,46.609732 38.6927785,46.643297 21.69576,0.04065 44.537186,-1.729409 42.648008,24.951455 -1.874035,26.46717 -11.649387,39.78408 -33.943588,50.80248 -7.665292,3.78854 -14.746526,6.89069 -14.746526,6.89069 l 18.483234,27.34791 c 0,0 8.711259,-3.38727 17.07013,-7.52805 C 102.86287,171.12649 119.96711,142.90502 120.20841,102.55917 120.32262,74.249113 104.44987,51.829118 65.323224,51.279587 H 46.912832 c -7.55876,0 -8.813678,-1.317065 -8.813678,-9.268944 L 37.76773,25.639793 37.246921,0 H 18.654429 Z M 507.70801,42.192751 492.59729,70.403815 c 9.64741,16.709874 18.9637,14.749763 41.52262,15.37295 23.91898,0.711574 32.81093,0.6966 32.81093,28.058085 l 0.004,74.50109 h 18.64712 18.64713 l -0.0152,-79.71645 C 604.1518,62.065643 586.1012,51.997054 548.29439,51.997054 l -19.99104,-0.342342 c -11.52935,-0.198779 -15.8497,-1.24175 -20.5956,-9.461961 z m -306.50115,0.109254 -24.00089,24.933254 31.65641,26.146026 c 3.25401,2.65274 5.54597,6.670035 1.64982,10.576425 l -3.4417,3.45263 c -9.878,10.71631 -21.17629,34.54726 -26.08412,55.01994 -5.11709,21.34573 -5.80538,23.57841 -5.80538,23.57841 l 36.39103,7.89224 c 4.00372,-29.7705 13.18273,-47.28244 27.91241,-72.47247 l 8.88653,6.47549 c 21.16927,20.59892 58.45436,65.09377 58.45436,65.09377 l 25.15177,-23.39266 c 0,0 -22.24759,-30.02844 -32.17358,-40.33899 l -7.49891,-7.7939 8.37663,-9.92087 c 10.5075,-12.447884 17.17398,-23.944376 21.965,-37.869675 5.6948,-16.552305 4.85482,-16.203324 4.85482,-16.203324 L 292.65059,43.547577 c -4.26182,19.178006 -10.15731,38.737271 -23.27612,53.792585 L 254.52597,83.839217 C 240.37627,70.97548 217.74557,53.022273 206.455,45.70365 Z m 486.6899,0 -24.00088,24.933254 31.6564,26.146026 c 3.25402,2.65274 5.54597,6.670035 1.64982,10.576425 l -3.4417,3.45263 c -9.87799,10.71631 -21.17628,34.54726 -26.08411,55.01994 -5.11709,21.34573 -5.80537,23.57841 -5.80537,23.57841 l 36.39101,7.89224 c 4.00373,-29.7705 13.18273,-47.28244 27.91241,-72.47247 l 8.88653,6.47549 c 21.16928,20.59892 58.45437,65.09377 58.45437,65.09377 L 818.667,169.60506 c 0,0 -22.24758,-30.02844 -32.17358,-40.33899 l -7.4989,-7.7939 8.37662,-9.92087 c 10.50751,-12.447884 17.17398,-23.944376 21.96501,-37.869675 5.69479,-16.552305 4.85481,-16.203324 4.85481,-16.203324 L 779.3405,43.547577 c -4.26182,19.178006 -10.15731,38.737271 -23.27612,53.792585 L 741.21588,83.839217 C 727.06618,70.97548 704.43547,53.022273 693.1449,45.70365 Z m -290.62195,3.365227 -17.28503,30.534664 c 0,0 3.90786,1.946293 8.11077,4.308511 11.47615,6.45004 12.8709,10.651889 12.8709,38.805683 v 24.4015 l 18.18094,-0.53172 18.18095,-0.53538 v -30.76775 c -0.0418,-29.110773 -0.12792,-45.700633 -27.46445,-61.750398 -5.99944,-3.028479 -12.59408,-4.46511 -12.59408,-4.46511 z"
   id="path921"
   inkscape:connector-curvature="0" /><g
   id="g990"
   transform="translate(0,51.162789)"><path
     d="m 282.525,355.825 c 7.112,-3.042 14.406,-5.827 21.868,-8.339 l -80.08,-182.854 h -42.229 z"
     id="path12"
     inkscape:connector-curvature="0"
     style="fill:#017efe;fill-opacity:1" /><path
     d="M 285.726,164.632 H 248.77 l 67.666,179.079 c 6.43,-1.869 12.972,-3.538 19.614,-5.001 z"
     id="path14"
     inkscape:connector-curvature="0"
     style="fill:#017efe;fill-opacity:1" /><path
     d="M 90.81,164.632 H 48.647 l 181.614,220.461 c 5.08,-3.629 10.319,-7.105 15.716,-10.415 z"
     id="path16"
     inkscape:connector-curvature="0"
     style="fill:#017efe;fill-opacity:1" /><path
     d="m 344.053,164.632 h -30.657 l 38.581,170.987 c 6.59,-1.096 13.27,-1.985 20.024,-2.67 z"
     id="path18"
     inkscape:connector-curvature="0"
     style="fill:#017efe;fill-opacity:1" /><path
     d="m 0,412.75 v 39.791 l 143.956,49.061 c 2.072,-6.973 4.532,-13.816 7.363,-20.515 z"
     id="path20"
     inkscape:connector-curvature="0"
     style="fill:#017efe;fill-opacity:1" /><path
     d="m 252.737,370.654 c 5.752,-3.305 11.674,-6.417 17.737,-9.347 L 152.794,164.632 h -35.059 z"
     id="path22"
     inkscape:connector-curvature="0"
     style="fill:#017efe;fill-opacity:1" /><path
     d="M 15.358,164.632 H 0 v 51.839 L 203.193,407.37 c 5.359,-5.078 10.986,-9.951 16.866,-14.605 z"
     id="path24"
     inkscape:connector-curvature="0"
     style="fill:#017efe;fill-opacity:1" /><path
     d="m 404.902,331.301 -1.805,-166.669 h -31.363 l 16.739,167.084 c 5.358,-0.267 10.754,-0.418 16.193,-0.418 0.08,0 0.158,0.003 0.236,0.003 z"
     id="path26"
     inkscape:connector-curvature="0"
     style="fill:#017efe;fill-opacity:1" /><path
     d="M 170.98,445.089 0,340.141 v 43.373 l 159.083,81.281 c 3.588,-6.751 7.56,-13.326 11.897,-19.706 z"
     id="path28"
     inkscape:connector-curvature="0"
     style="fill:#017efe;fill-opacity:1" /><path
     d="m 0,255.509 v 48.513 L 179.854,432.95 c 5.222,-6.661 10.846,-13.082 16.862,-19.226 z"
     id="path30"
     inkscape:connector-curvature="0"
     style="fill:#017efe;fill-opacity:1" /><polygon
     points="49.505,588.299 0,588.299 0,618.299 22.025,618.299 "
     id="polygon32"
     style="fill:#017efe;fill-opacity:1" /><polygon
     points="64.124,572.341 84.927,549.63 0,533.252 0,567.071 "
     id="polygon34"
     style="fill:#017efe;fill-opacity:1" /><path
     d="m 0,475.406 v 33.366 l 136.605,32.276 c 0.664,-8.462 1.904,-16.792 3.658,-24.973 z"
     id="path36"
     inkscape:connector-curvature="0"
     style="fill:#017efe;fill-opacity:1" /><path
     d="m 488.5,342.469 c 6.282,1.724 12.462,3.636 18.53,5.729 L 588.802,164.632 H 552.29 Z"
     id="path38"
     inkscape:connector-curvature="0"
     style="fill:#017efe;fill-opacity:1" /><path
     d="M 818.667,374.854 650.858,465.91 c 3.442,6.573 6.52,13.309 9.211,20.191 l 158.598,-70.055 z"
     id="path40"
     inkscape:connector-curvature="0"
     style="fill:#017efe;fill-opacity:1" /><path
     d="M 818.667,343.969 V 300.188 L 630.179,433.82 c 3.903,5.029 7.577,10.192 11,15.487 z"
     id="path42"
     inkscape:connector-curvature="0"
     style="fill:#017efe;fill-opacity:1" /><path
     d="M 818.667,214.476 609.413,410.514 c 5.355,5.267 10.428,10.739 15.192,16.407 L 818.667,270.792 Z"
     id="path44"
     inkscape:connector-curvature="0"
     style="fill:#017efe;fill-opacity:1" /><path
     d="m 579.344,385.274 c 6.126,4.388 12.008,9.005 17.638,13.831 L 818.667,180.59 v -15.958 h -49.332 z"
     id="path46"
     inkscape:connector-curvature="0"
     style="fill:#017efe;fill-opacity:1" /><path
     d="m 818.667,485.994 v -45.011 l -153.104,61.193 c 2.295,7.809 4.106,15.776 5.396,23.882 z"
     id="path48"
     inkscape:connector-curvature="0"
     style="fill:#017efe;fill-opacity:1" /><path
     d="m 464.242,164.632 h -34.979 l -11.42,166.938 c 6.857,0.277 13.646,0.769 20.359,1.468 z"
     id="path50"
     inkscape:connector-curvature="0"
     style="fill:#017efe;fill-opacity:1" /><polygon
     points="769.869,560.633 818.667,601.298 818.667,560.633 "
     id="polygon52"
     style="fill:#017efe;fill-opacity:1" /><path
     d="m 452.28,334.816 c 7.254,1.085 14.401,2.426 21.441,3.988 l 55.716,-174.172 h -40.119 z"
     id="path54"
     inkscape:connector-curvature="0"
     style="fill:#017efe;fill-opacity:1" /><path
     d="m 618.548,164.632 -94.521,190.019 c 6.71,2.787 13.269,5.791 19.646,9.021 l 116.923,-199.04 z"
     id="path56"
     inkscape:connector-curvature="0"
     style="fill:#017efe;fill-opacity:1" /><path
     d="M 733.79,164.632 H 689.11 L 554.502,369.459 c 5.98,3.367 11.784,6.936 17.41,10.683 z"
     id="path58"
     inkscape:connector-curvature="0"
     style="fill:#017efe;fill-opacity:1" /><polygon
     points="818.667,505.816 729.42,526.926 755.11,548.334 818.667,541.484 "
     id="polygon60"
     style="fill:#017efe;fill-opacity:1" /><path
     d="m 672.676,540.349 c 0.424,5.16 0.657,10.365 0.657,15.616 0,0.396 -0.013,0.791 -0.018,1.187 l 14.011,-1.511 14.847,-22.27 z"
     id="path62"
     inkscape:connector-curvature="0"
     style="fill:#017efe;fill-opacity:1" /></g><path
   style="fill:#00007e;fill-opacity:1"
   inkscape:connector-curvature="0"
   id="path64"
   d="m 194.333,1064.8028 163.333,-180.00101 188,214.00001 6.144,6.846 c 23.496,-9.007 45.212,-20.011 65.225,-32.478 l -0.701,-2.367 L 356,772.13479 130.333,1019.1338 l -0.981,0.764 c 18.578,17.686 39.334,34.486 62.392,49.437 z" /><path
   style="fill:#00007e;fill-opacity:1"
   inkscape:connector-curvature="0"
   id="path66"
   d="m 276.333,840.13279 47.333,-56.334 -73,-80.666 -197,223.333 -0.602,0.368 c 13.53,21.136 29.839,43.306 49.106,64.94 l 1.497,-1.974 L 254,819.79879 Z" /><path
   style="fill:#00007e;fill-opacity:1"
   inkscape:connector-curvature="0"
   id="path68"
   d="m 100.333,748.13279 -85,93 -4.816,3.422 c 6.987,17.971 17.8,41.096 32.78,66.418 l 1.37,-1.174 99,-110 z" /><path
   style="fill:#00007e;fill-opacity:1"
   inkscape:connector-curvature="0"
   id="path70"
   d="m 616.666,703.46779 50,51.667 56,-55 87.868,86.228 c 0.085,-1.592 0.133,-3.12 0.133,-4.566 0,-49.248 0,-85.129 0,-103.963 l -91.001,-89.365 z" /><path
   style="fill:#00007e;fill-opacity:1"
   inkscape:connector-curvature="0"
   id="path72"
   d="m 0.66700001,720.78579 c 0,29.503 0,70.33 0,89.011 0,1.148 0.161,2.661 0.47699999,4.494 l 101.19,-89.16 52.666,58.665 49.333,-49.333 -106.166,-122.167 z" /><path
   style="fill:#00007e;fill-opacity:1"
   inkscape:connector-curvature="0"
   id="path74"
   d="m 499.667,616.46779 -126.334,136.666 48,54.667 80.667,-77.667 225.666,240.335 0.588,0.715 c 16.605,-21.628 30.521,-43.698 41.905,-64.996 z" /><path
   style="fill:#00007e;fill-opacity:1"
   inkscape:connector-curvature="0"
   id="path76"
   d="m 723.999,730.79979 -44.333,45 100.979,109.532 c 12.246,-25.999 20.567,-50.13 25.287,-69.966 z" /><path
   style="fill:#00007e;fill-opacity:1"
   inkscape:connector-curvature="0"
   id="path78"
   d="m 523,1108.1358 -161.333,-192.00001 -146,162.66701 -3.537,2.894 c 23.486,13.306 49.13,24.64 77.031,33.145 l 0.172,-2.705 75.667,-81.668 89.808,98.601 c 24.344,-2.742 47.292,-7.476 68.875,-13.876 z" /><path
   style="fill:#00007e;fill-opacity:1"
   inkscape:connector-curvature="0"
   id="path80"
   d="M 713.868,988.99179 499,755.13479 l -64.667,64.666 46,55 15,-10.333 163.667,177.66701 0.279,0.683 c 20.411,-16.772 38.572,-34.992 54.589,-53.82601 z" />
</svg>