<?xml version="1.0" encoding="UTF-8" standalone="no"?>
<!-- Generator: Adobe Illustrator 13.0.0, SVG Export Plug-In . SVG Version: 6.00 Build 14948)  -->

<svg
   version="1.1"
   id="Layer_2"
   x="0px"
   y="0px"
   width="504.495px"
   height="653.933px"
   viewBox="0 0 504.495 653.933"
   enable-background="new 0 0 504.495 653.933"
   xml:space="preserve"
   sodipodi:docname="Old_Coats_of_arms_of_Ashdod.svg"
   inkscape:version="1.3.2 (091e20e, 2023-11-25)"
   xmlns:inkscape="http://www.inkscape.org/namespaces/inkscape"
   xmlns:sodipodi="http://sodipodi.sourceforge.net/DTD/sodipodi-0.dtd"
   xmlns="http://www.w3.org/2000/svg"
   xmlns:svg="http://www.w3.org/2000/svg"><defs
   id="defs8" /><sodipodi:namedview
   id="namedview8"
   pagecolor="#ffffff"
   bordercolor="#000000"
   borderopacity="0.25"
   inkscape:showpageshadow="2"
   inkscape:pageopacity="0.0"
   inkscape:pagecheckerboard="0"
   inkscape:deskcolor="#d1d1d1"
   inkscape:zoom="1.506457"
   inkscape:cx="252.2475"
   inkscape:cy="326.92603"
   inkscape:window-width="2560"
   inkscape:window-height="1302"
   inkscape:window-x="0"
   inkscape:window-y="25"
   inkscape:window-maximized="1"
   inkscape:current-layer="Layer_2" />
<path
   fill="#004FB3"
   d="M249.146,62.142c0.011-29.902,24.228-54.119,54.13-54.129l0,0c29.901,0.011,54.118,24.228,54.131,54.129l0,0  c-0.013,29.902-24.229,54.119-54.131,54.131l0,0C273.374,116.26,249.157,92.043,249.146,62.142L249.146,62.142z M283.945,62.142  c0.018,10.672,8.661,19.313,19.331,19.333l0,0c10.669-0.02,19.313-8.663,19.332-19.333l0,0c-0.02-10.67-8.663-19.313-19.332-19.331  l0,0C292.606,42.829,283.963,51.472,283.945,62.142L283.945,62.142L283.945,62.142z"
   id="path1" />
<polygon
   fill="#004FB3"
   points="286.776,416.488 286.776,96.975 319.777,96.975 319.777,416.488 286.776,416.488 "
   id="polygon1" />
<path
   fill="#004FB3"
   d="M265.044,114.909c-10.991,0.001-21.787,0.836-32.328,2.441l7.329,32.295  c8.168-1.134,16.511-1.734,24.999-1.735c49.756,0.006,94.648,20.12,127.272,52.716c32.599,32.624,52.71,77.519,52.719,127.275  c-0.009,49.753-20.12,94.646-52.719,127.271c-32.624,32.599-77.517,52.71-127.272,52.718  c-49.756-0.008-94.648-20.119-127.272-52.718c-28.861-28.883-47.921-67.387-51.922-110.362l-33.13-0.024  c8.614,109.74,100.369,196.094,212.324,196.105c117.637-0.013,212.98-95.354,212.991-212.99  C478.025,210.263,382.681,114.919,265.044,114.909z"
   id="path2" />
<path
   fill="#004FB3"
   d="M447.952,329.884l-39.271-44.751l-39.576,44.751h21.678c-2.255,20.406-11.442,38.623-25.224,52.426  c-15.98,15.953-37.868,25.765-62.223,25.773c-24.355-0.008-46.243-9.82-62.224-25.773c-13.872-13.895-23.098-32.259-25.274-52.829  h-35.144c4.806,63.545,57.867,113.592,122.642,113.604c64.636-0.012,117.605-49.848,122.608-113.201H447.952z"
   id="path3" />
<path
   fill="#004fb3"
   d="m 206.33,123.867 c -4.253,-5.847 -24.984,-22.857 -24.984,-22.857 0,0 -8.239,3.721 -15.15,7.974 -18.583,11.437 -40.4,14.618 -55.815,17.01 -15.415,2.392 -28.439,4.784 -31.097,6.113 -2.658,1.329 -21.263,15.15 -31.629,22.592 -10.366,7.442 -14.884,3.721 -18.871,5.316 -3.987,1.595 -8.771,6.645 -8.771,6.645 v 44.387 h 7.974 l -8.505,8.505 c 0,0 -1.063,3.189 -3.189,10.631 -2.126,7.442 -1.595,29.236 -1.595,29.236 h 14.884 c 0,0 -17.01,53.158 -20.731,62.726 C 5.13,331.713 5.395,345.8 5.395,345.8 h 175.42 l 38.007,1.329 V 153.37 c 0,0 -8.239,-23.656 -12.492,-29.503 z m -26.578,185.786 -123.06,-0.595 c 0,0 19.934,-60.004 20.466,-62.131 C 77.69,244.8 65.995,236.561 64.135,234.7 c -1.86,-1.861 -3.721,-7.974 1.595,-7.974 5.316,0 14.353,0.266 18.074,0.266 3.721,0 8.239,-5.582 8.239,-11.163 0,-5.581 -4.784,-11.429 -11.163,-11.429 -6.379,0 -11.429,3.987 -11.429,3.987 l -9.037,-17.276 9.303,-9.303 h 9.568 l 8.24,-15.681 16.745,-6.911 h 38.273 l 20.731,-14.353 16.479,29.237 v 135.553 z"
   id="path4" />
<path
   fill="#004FB3"
   d="M88.823,184.668v-6.914h27.446c0,0-14.884,11.928-20.584,11.928S88.823,184.668,88.823,184.668z"
   id="path5" />
<polygon
   fill="#004FB3"
   points="439.51,501.176 458.421,489.19 473.603,507.568 473.603,524.082 493.313,528.077 494.112,555.777   442.707,550.184 443.505,561.37 451.762,583.477 425.927,593.332 416.605,566.964 417.137,547.521 404.353,544.324 405.418,520.619   447.5,521.951 448.3,512.629 "
   id="polygon5" />
<path
   fill="#004FB3"
   d="M359.606,596.257v-45.545h25.835v53.535c0,0-6.127,11.188-13.317,16.78s-46.077,22.905-50.605,25.036  s-6.925,1.865-10.121-0.532s-36.223-60.461-36.223-60.461l21.308-14.915l14.649,25.036l7.191-2.131v-29.564h25.569v30.63  l-21.041,13.851l2.131,5.326L359.606,596.257z"
   id="path6" />
<polygon
   fill="#004FB3"
   points="193.669,566.425 257.859,590.13 244.542,611.438 239.747,609.308 235.219,616.765 230.159,643.666   202.192,643.666 211.515,599.985 179.553,586.401 "
   id="polygon6" />
<polygon
   fill="#004FB3"
   points="141.997,544.322 163.838,568.826 143.329,621.829 119.091,619.965 119.091,608.778 134.273,574.686   123.886,561.635 "
   id="polygon7" />
<polygon
   fill="#004FB3"
   points="114.829,543.26 91.124,557.109 86.33,552.848 78.073,557.376 59.428,580.281 32.794,565.633   65.821,528.077 41.85,499.046 65.821,485.995 "
   id="polygon8" />
</svg>
