<?xml version="1.0" encoding="utf-8"?>
<!-- Generator: Adobe Illustrator 15.1.0, SVG Export Plug-In . SVG Version: 6.00 Build 0)  -->
<!DOCTYPE svg PUBLIC "-//W3C//DTD SVG 1.1//EN" "http://www.w3.org/Graphics/SVG/1.1/DTD/svg11.dtd">
<svg version="1.1" id="Layer_1" xmlns="http://www.w3.org/2000/svg" xmlns:xlink="http://www.w3.org/1999/xlink" x="0px" y="0px"
	 width="924.002px" height="1183.22px" viewBox="0 0 924.002 1183.22" enable-background="new 0 0 924.002 1183.22"
	 xml:space="preserve">
<g>
	<g>
		<path fill="#7B7D81" d="M401.539,602.4c8.038-0.065,29.035-0.074,58.389,1.106l1.437-58.076c-0.622,0.008-0.946,0.013-0.946,0.013
			h-88.166C382.852,563.31,392.691,582.268,401.539,602.4z"/>
		<path fill="#7B7D81" d="M564.051,547.015l1.494,64.421c29.863,3.322,61.733,7.846,93.873,14.008
			c126.32,24.22,186.922,57.817,202.706,67.675c17.914-30.948,32.346-64.165,42.747-99.118
			c-11.883-3.526-54.056-14.698-158.953-31.057C685.208,553.476,618.002,549.051,564.051,547.015z"/>
		<g>
			<linearGradient id="SVGID_1_" gradientUnits="userSpaceOnUse" x1="143.7402" y1="276.2764" x2="143.7402" y2="307.9092">
				<stop  offset="0" style="stop-color:#04B9E8"/>
				<stop  offset="1" style="stop-color:#0379B6"/>
			</linearGradient>
			<path fill="url(#SVGID_1_)" d="M196.418,278.609c0,0-1.667-2.333-4-2.333s-36.333,17.333-69.667,17.333
				c-15.292,0-25.312-0.912-31.69-1.899c9.042,4.92,18.647,10.326,28.654,16.199c10.93-2.307,28.179-6.392,39.702-11.3
				C177.418,288.943,196.418,278.609,196.418,278.609z"/>
			<path fill="#0379B6" d="M474.127,470.443c-1.25,0-3.959,2.5-5.084,3.875s-2.375,4.75-2.375,4.75v12.25h14.918v-12.25
				c0,0-1.25-3.375-2.375-4.75S475.377,470.443,474.127,470.443z"/>
			<path fill="#0379B6" d="M525.261,470.443c-1.25,0-3.959,2.5-5.084,3.875s-2.375,4.75-2.375,4.75v12.25h14.918v-12.25
				c0,0-1.25-3.375-2.375-4.75S526.511,470.443,525.261,470.443z"/>
			<linearGradient id="SVGID_2_" gradientUnits="userSpaceOnUse" x1="492.8511" y1="0" x2="492.851" y2="565.4546">
				<stop  offset="0" style="stop-color:#04B9E8"/>
				<stop  offset="1" style="stop-color:#0379B6"/>
			</linearGradient>
			<path fill="url(#SVGID_2_)" d="M462,0C344.935,0,238.043,43.545,156.627,115.315c-0.866,7.19-1.958,20.941-1.958,44.628
				c0,63,15,96,15,96s-17.5-7.25-36.5-45c-13.375-26.573-17.578-44.708-18.897-53.126c-6.941,7.929-13.617,16.096-20.011,24.489
				c2.905,7.423,9.992,23.422,22.908,40.887c17.75,24,42.25,45.25,42.25,45.25s-29.5-3.5-60.5-30.25
				c-15.131-13.057-22.33-21.042-25.746-25.805c-3.969,6.17-7.794,12.441-11.473,18.808c8.712,8.302,45.883,40.747,94.719,40.747
				c34,0,64.667-20.333,80.667-20.333s36.667,15.667,36.667,23s-2.667,10-2.667,10s-1.334-10.333-16.667-10.333s-30.667,10-43,21
				s-32,25-39.333,29.333c-4.123,2.437-10.038,4.978-14.426,6.737c4.539,2.951,9.118,5.987,13.724,9.101
				c3.841-2.878,10.716-8.293,16.369-14.171c8.333-8.667,18-22,18-22s3,20.667,9,33.333s12.333,19.667,12.333,19.667
				s-11.867,1.249-29.857,1.329c12.874,9.404,25.795,19.409,38.524,30.003c40.984,34.11,82.906,76.201,118.582,128.664
				c9.779,0,37.489,0,104.085,0c1.217,0,2.426,0.009,3.641,0.011l0.015-0.589l-18.907-28.001v-27.5h19.75l2.521-116.167
				c0,0-5.083,0-7.167,0s-2.896-1.188-2.896-3.146s0.854-3.688,2.771-3.688s6.521,0,6.521,0s-34-14.5-34-44.75s37.75-48,50.5-55
				s20.25-12.75,20.25-12.75s-7.25-3-7.25-11.75c0-13.75,13.75-9.5,13.75-17.75s-8.75-7-8.75-14.5s9.25-8.5,9.25-13
				s-5.5-5.75-5.5-11s6.75-8,6.75-8l1.667-31.198c-10.107-1.329-17.917-9.957-17.917-20.427c0-11.391,9.234-20.625,20.625-20.625
				c5.129,0,9.811,1.884,13.42,4.982c-2.108-1.101-4.502-1.732-7.045-1.732c-8.422,0-15.25,6.828-15.25,15.25
				s6.828,15.25,15.25,15.25c6.085,0,11.322-3.573,13.77-8.728c-2.017,9.276-10.265,16.228-20.145,16.228
				c-0.157,0-0.31-0.02-0.467-0.023l1.658,31.023c0,0,6.75,2.75,6.75,8s-5.5,6.5-5.5,11s9.25,5.5,9.25,13s-8.75,6.25-8.75,14.5
				s13.75,4,13.75,17.75c0,8.75-7.25,11.75-7.25,11.75s7.5,5.75,20.25,12.75s50.5,24.75,50.5,55s-34,44.75-34,44.75s4.604,0,6.521,0
				c1.916,0,2.77,1.729,2.77,3.688s-0.812,3.146-2.895,3.146c-2.084,0-7.168,0-7.168,0l2.521,116.167h19.75v27.5l-18.403,27.256
				l0.089,3.867c90.576,4.297,171.34,13.384,232.999,22.123c60.625,8.593,99.028,18.551,115.952,23.515
				c7.607-33.261,11.631-67.887,11.631-103.454C924.002,206.845,717.158,0,462,0z M258.752,350.943
				c-18.167,0-32.667-11.5-39.167-25.167s-8.167-16.5-8.167-18.333s1.167-5,4.667-5c6,0,16.167,14.5,40.167,25.5
				s42.5,11.833,42.5,11.833S276.919,350.943,258.752,350.943z M301.085,325.943c-49,0-74.5-23.667-74.5-23.667
				s47.5,3.834,81.167-4.333s64.333-20.833,64.333-20.833S361.919,325.943,301.085,325.943z"/>
			<path fill="#0379B6" d="M550.827,470.443c-1.25,0-3.959,2.5-5.084,3.875s-2.375,4.75-2.375,4.75v12.25h14.918v-12.25
				c0,0-1.25-3.375-2.375-4.75S552.077,470.443,550.827,470.443z"/>
			<path fill="#0379B6" d="M499.695,470.443c-1.25,0-3.959,2.5-5.084,3.875s-2.375,4.75-2.375,4.75v12.25h14.918v-12.25
				c0,0-1.25-3.375-2.375-4.75S500.945,470.443,499.695,470.443z"/>
		</g>
		<path fill="#7B7D81" d="M628.918,650.443c-122.699-21.473-198.922-20.285-215.889-19.664c9.097,24.462,16.74,50.522,22.564,78.313
			c17.14,0.896,100.867,6.424,179.824,31.851c74,23.83,132.957,58.491,150.293,69.212c30.907-26.984,58.186-58.018,81.014-92.273
			C835.896,711.305,772.117,675.504,628.918,650.443z"/>
		<linearGradient id="SVGID_3_" gradientUnits="userSpaceOnUse" x1="64.6812" y1="697.9844" x2="328.2347" y2="545.8217">
			<stop  offset="0" style="stop-color:#93C24C"/>
			<stop  offset="1" style="stop-color:#508342"/>
		</linearGradient>
		<path fill="url(#SVGID_3_)" d="M263.168,856.443c-22.25-25.25-28.25-32.75-51.75-72s-40.333-83.166-51-117.833
			c-8.607-27.973-14.173-54.632-16.002-63.889c-7.403,0.895-14.346-4.065-15.781-11.5c-1.5-7.772,3.584-15.291,11.357-16.791
			c7.772-1.501,15.29,3.585,16.791,11.357c1.285,6.653-2.265,13.108-8.188,15.773c10.537,22.923,77.359,166.256,125.824,221.382
			c52.75,60,74.75,76.75,92.75,86c7.69,3.952,17.652,7.396,26.551,10.051c2.377,0.353,4.76,0.686,7.148,1.002
			c3.19-10.868,9.551-39.61,9.551-96.055c0-213.334-118.667-333.333-198.667-405.333c-62.384-56.146-148.68-99.315-183.663-115.606
			C9.918,352.575,0,406.129,0,462c0,201.579,129.088,372.998,309.103,436.109C300.218,891.46,279.984,875.526,263.168,856.443z
			 M244.595,607.148c-2.752,9.352-15.532,11.126-15.532,11.126s8.955,9.289,5.341,18.346c-3.613,9.054-16.378,10.69-26.131,6.797
			c-30.88-12.321-39.282-45.914-39.282-45.914s27.356-21.229,59.254-11.844C238.318,588.624,247.348,597.795,244.595,607.148z
			 M182.905,513.465c7.604-7.24,20.061-10.474,26.786-3.414c6.722,7.06,1.869,19.015,1.869,19.015s12.521-3.11,18.559,4.547
			c6.033,7.655,1.069,19.529-7.18,26.028c-26.111,20.582-59.404,11.062-59.404,11.062S158.829,536.397,182.905,513.465z
			 M108.148,491.731c9.477-2.294,17.402,7.888,17.402,7.888s3.567-12.4,13.216-13.798c9.648-1.399,17.448,8.84,18.953,19.229
			c4.769,32.905-20.122,56.979-20.122,56.979s-32.062-13.079-39.884-45.396C95.245,506.43,98.672,494.024,108.148,491.731z
			 M41.513,570.509c2.752-9.354,15.532-11.127,15.532-11.127s-8.955-9.288-5.341-18.345c3.613-9.055,16.378-10.69,26.13-6.799
			c30.88,12.323,39.284,45.915,39.284,45.915s-27.358,21.228-59.255,11.844C47.79,589.033,38.761,579.862,41.513,570.509z
			 M103.203,664.19c-7.604,7.241-20.061,10.476-26.784,3.415c-6.724-7.06-1.871-19.015-1.871-19.015s-12.522,3.111-18.557-4.547
			c-6.035-7.656-1.07-19.529,7.178-26.028c26.111-20.582,59.404-11.063,59.404-11.063S127.278,641.259,103.203,664.19z"/>
		<path fill="#7B7D81" d="M558.918,757.943c-78.427-17.428-109.671-19.703-118.032-19.974c4.875,31.03,7.532,64.081,7.532,99.305
			c0,41.566-5.874,72.831-8.904,86.195c7.451,0.357,14.946,0.544,22.485,0.544c105.596,0,202.917-35.427,280.728-95.044
			C726.961,820.432,643.959,776.842,558.918,757.943z"/>
	</g>
	<g>
		<g>
			<path fill="#231F20" d="M53.578,1126.421c1.812-2.804,3.56-5.225,5.243-7.263l4.338-5.21l0.024,4.635h19.785
				c6.118,0,10.068,1.128,11.852,3.38c1.21,1.241,1.816,4.426,1.816,9.553v28.311l-6.763,6.787l-0.023-35.127
				c0-1.975-0.311-3.312-0.932-4.014c-0.621-0.7-2.126-1.052-4.517-1.052H53.578z M65.048,1159.826l-6.811,6.787l-0.024-25.138
				l6.835-6.883V1159.826z"/>
			<path fill="#231F20" d="M125.716,1132.514c0,3.852-3.187,9.738-9.558,17.66l-4.97,1.84c0.956-1.911,2.214-4.139,3.775-6.687
				c2.739-4.52,4.206-7.878,4.397-10.074c0-1.337-0.496-2.618-1.484-3.844c-0.989-1.227-5.393-4.02-13.211-8.381l6.021-7.742
				c6.925,5.345,11.161,8.957,12.709,10.834C124.942,1127.996,125.716,1130.129,125.716,1132.514z"/>
			<path fill="#231F20" d="M153.817,1132.514c0,3.852-3.186,9.738-9.558,17.66l-4.969,1.84c0.955-1.911,2.214-4.139,3.775-6.687
				c2.74-4.52,4.206-7.878,4.397-10.074c0-1.337-0.495-2.618-1.484-3.844c-0.989-1.227-5.393-4.02-13.211-8.381l6.021-7.742
				c6.925,5.345,11.161,8.957,12.709,10.834C153.043,1127.996,153.817,1130.129,153.817,1132.514z"/>
			<path fill="#231F20" d="M159.624,1126.421c2.574-3.791,5.768-7.948,9.582-12.473l0.023,4.635h13.286
				c5.353,0,8.737,0.94,10.156,2.819c1.417,1.881,2.126,4.876,2.126,8.985v26.142h6.021l-6.021,7.837h-35.173l5.496-7.837h22.844
				v-23.322c0-2.453-0.272-4.196-0.814-5.232c-0.543-1.035-1.755-1.554-3.637-1.554H159.624z"/>
			<path fill="#231F20" d="M206.123,1126.421c3.623-5.543,6.817-9.701,9.583-12.473l0.024,4.635h10.943
				c4.333,0,7.797,1.331,10.395,3.991c2.596,2.66,3.895,6.349,3.895,11.063v25.185l-6.858,7.791l-0.023-28.817
				c0-4.397-0.63-7.392-1.889-8.985c-1.258-1.592-3.225-2.39-5.901-2.39H206.123z"/>
			<path fill="#231F20" d="M256.017,1117.819c2.389,2.995,3.583,5.48,3.583,7.455c0,1.976-3.17,9.128-9.509,21.457h-1.386
				c2.42-6.817,3.632-12.026,3.632-15.627c0-1.465-1.037-3.6-3.106-6.403L256.017,1117.819z"/>
			<path fill="#231F20" d="M276.16,1114.426c4.484,10.388,7.617,18.432,9.398,24.134c2.099,6.596,3.626,11.343,4.581,14.242
				l4.062-2.915c3.026-2.899,4.54-5.926,4.54-9.081c0-5.161-1.417-11.374-4.253-18.638l8.292-7.742
				c1.258,5.257,1.887,10.45,1.887,15.58c0,6.531-0.86,11.828-2.581,15.89c-1.72,4.062-4.293,7.36-7.718,9.893
				c-3.426,2.533-10.697,6.571-21.816,12.115c-1.753,0.892-3.297,1.721-4.635,2.484l3.297-10.083
				c2.135-0.637,4.27-1.386,6.404-2.246c2.612-0.828,5.129-1.864,7.551-3.106c-0.382-1.243-1.346-3.839-2.892-7.79
				c-1.545-3.95-2.684-6.897-3.416-8.841c-1.785-4.589-4.987-9.973-9.606-16.153L276.16,1114.426z"/>
			<path fill="#231F20" d="M317.809,1108.214v10.369h14.623c4.556,0,7.51,0.2,8.865,0.598c1.354,0.399,2.414,1.331,3.178,2.797
				c0.765,1.465,1.146,3.042,1.146,4.73v5.544c0,7.901-3.186,14.942-9.558,21.123c-6.372,6.182-14.178,10.594-23.417,13.238
				l4.684-10.084c5.798-0.987,10.912-3.219,15.34-6.691c4.428-3.472,6.643-8.234,6.643-14.288v-3.298c0-2.166-0.359-3.68-1.075-4.54
				c-0.717-0.86-2.191-1.291-4.421-1.291h-19.164c-1.274,0-1.911-0.702-1.911-2.105v-2.919c0-7.306-0.765-11.612-2.295-12.92
				l5.998-7.861c0.031,0.127,0.156,0.414,0.375,0.86C317.479,1102.75,317.809,1104.996,317.809,1108.214z"/>
			<path fill="#231F20" d="M356.757,1116.242c6.276,5.145,10.371,8.721,12.282,10.729c1.593,1.467,5.225,5.114,10.896,10.944
				c2.613,2.708,4.094,4.222,4.445,4.54c2.453-3.729,3.68-6.803,3.68-9.224c0-1.88-0.852-4.779-2.556-8.698l7.502-8.291
				c1.736,3.446,2.605,6.176,2.605,8.186c0,5.171-2.932,11.968-8.793,20.394l12.091,13.786l-4.183,8.006
				c-0.7-0.829-1.974-2.406-3.819-4.732c-7.577-9.461-15.9-18.812-24.973-28.052c-3.537,4.62-5.305,9.112-5.305,13.476
				c0,5.227,0.382,7.998,1.147,8.316h6.021l-3.775,8.745h-12.33l2.341-4.54v-1.098v-1.29c0-6.112,0.367-10.235,1.1-12.369
				s1.784-4.306,3.155-6.52c1.369-2.213,3.089-4.497,5.161-6.854l-11.757-9.027L356.757,1116.242z"/>
			<path fill="#231F20" d="M431.74,1126.421c1.812-2.804,3.559-5.225,5.243-7.263l4.338-5.21l0.024,4.635h19.785
				c6.117,0,10.067,1.128,11.852,3.38c1.211,1.241,1.816,4.426,1.816,9.553v28.311l-6.763,6.787l-0.024-35.127
				c0-1.975-0.31-3.312-0.931-4.014c-0.622-0.7-2.127-1.052-4.517-1.052H431.74z M443.208,1159.826l-6.81,6.787l-0.024-25.138
				l6.833-6.883V1159.826z"/>
			<path fill="#231F20" d="M483.449,1126.421c2.134-3.121,5.336-7.279,9.605-12.473l0.024,4.635h22.972
				c5.253,0,8.764,0.773,10.53,2.318c1.768,1.546,2.65,5.042,2.65,10.49v1.72c0,5.258-2.229,10.896-6.689,16.918
				c-4.461,6.021-11.678,11.119-21.649,15.293l3.585-8.697c4.779-1.083,9.047-3.521,12.807-7.312
				c3.759-3.792,5.64-8.985,5.64-15.581v-1.386c0-2.611-0.502-4.253-1.506-4.922c-1.003-0.669-2.35-1.004-4.038-1.004H483.449z
				 M496.161,1174.474l-4.971,8.746l-3.631-40.765l5.926-10.179L496.161,1174.474z"/>
			<path fill="#231F20" d="M541.417,1116.242c6.276,5.145,10.37,8.721,12.282,10.729c1.593,1.467,5.225,5.114,10.896,10.944
				c2.612,2.708,4.093,4.222,4.443,4.54c2.454-3.729,3.68-6.803,3.68-9.224c0-1.88-0.852-4.779-2.556-8.698l7.503-8.291
				c1.736,3.446,2.604,6.176,2.604,8.186c0,5.171-2.932,11.968-8.794,20.394l12.092,13.786l-4.182,8.006
				c-0.701-0.829-1.975-2.406-3.82-4.732c-7.576-9.461-15.9-18.812-24.974-28.052c-3.537,4.62-5.305,9.112-5.305,13.476
				c0,5.227,0.382,7.998,1.146,8.316h6.022l-3.775,8.745h-12.33l2.342-4.54v-1.098v-1.29c0-6.112,0.366-10.235,1.1-12.369
				c0.732-2.134,1.783-4.306,3.153-6.52c1.369-2.213,3.091-4.497,5.161-6.854l-11.756-9.027L541.417,1116.242z"/>
			<path fill="#231F20" d="M589.016,1126.421c2.574-3.791,5.768-7.948,9.582-12.473l0.023,4.635h13.287
				c5.353,0,8.736,0.94,10.154,2.819c1.418,1.881,2.127,4.876,2.127,8.985v26.142h6.022l-6.022,7.837h-35.174l5.496-7.837h22.844
				v-23.322c0-2.453-0.271-4.196-0.813-5.232c-0.543-1.035-1.756-1.554-3.638-1.554H589.016z"/>
			<path fill="#231F20" d="M681.958,1137.891c0.644,5.448,0.966,10.164,0.966,14.146l-2.58,12.33h-18.066l5.536-7.837h10.067
				c0-2.581-0.238-5.592-0.716-9.033c-0.479-3.44-0.878-6.323-1.194-8.649c-0.798-6.34-1.387-10.481-1.77-12.426h-9.964
				c2.706-3.854,6.935-8.012,12.688-12.473l0.023,4.635h17.826c4.619,0,8.14,1.004,10.562,3.012
				c2.611,1.911,3.919,5.687,3.919,11.325v25.902l-6.188,7.791l-0.024-33.07c0-2.422-0.367-4.214-1.101-5.377
				s-2.376-1.745-4.928-1.745h-16.409L681.958,1137.891z"/>
			<path fill="#231F20" d="M736.472,1132.514c0,3.852-3.187,9.738-9.558,17.66l-4.971,1.84c0.956-1.911,2.215-4.139,3.775-6.687
				c2.74-4.52,4.206-7.878,4.396-10.074c0-1.337-0.494-2.618-1.483-3.844c-0.989-1.227-5.394-4.02-13.211-8.381l6.021-7.742
				c6.925,5.345,11.161,8.957,12.709,10.834C735.698,1127.996,736.472,1130.129,736.472,1132.514z"/>
			<path fill="#231F20" d="M764.573,1132.514c0,3.852-3.186,9.738-9.558,17.66l-4.971,1.84c0.956-1.911,2.215-4.139,3.776-6.687
				c2.739-4.52,4.205-7.878,4.396-10.074c0-1.337-0.494-2.618-1.483-3.844c-0.989-1.227-5.394-4.02-13.211-8.381l6.021-7.742
				c6.924,5.345,11.16,8.957,12.709,10.834C763.799,1127.996,764.573,1130.129,764.573,1132.514z"/>
			<path fill="#231F20" d="M771.479,1126.421c3.623-5.543,6.817-9.701,9.582-12.473l0.023,4.635h10.944
				c4.332,0,7.797,1.331,10.395,3.991c2.596,2.66,3.895,6.349,3.895,11.063v25.185l-6.858,7.791l-0.023-28.817
				c0-4.397-0.63-7.392-1.888-8.985c-1.259-1.592-3.226-2.39-5.901-2.39H771.479z"/>
			<path fill="#231F20" d="M833.773,1132.514c0,3.852-3.187,9.738-9.558,17.66l-4.971,1.84c0.957-1.911,2.215-4.139,3.776-6.687
				c2.739-4.52,4.205-7.878,4.396-10.074c0-1.337-0.494-2.618-1.482-3.844c-0.99-1.227-5.395-4.02-13.212-8.381l6.021-7.742
				c6.926,5.345,11.161,8.957,12.709,10.834C833,1127.996,833.773,1130.129,833.773,1132.514z"/>
			<path fill="#231F20" d="M848.875,1114.426c4.484,10.388,7.617,18.432,9.397,24.134c2.1,6.596,3.626,11.343,4.581,14.242
				l4.062-2.915c3.027-2.899,4.54-5.926,4.54-9.081c0-5.161-1.418-11.374-4.253-18.638l8.291-7.742
				c1.259,5.257,1.888,10.45,1.888,15.58c0,6.531-0.86,11.828-2.58,15.89c-1.721,4.062-4.294,7.36-7.719,9.893
				c-3.424,2.533-10.696,6.571-21.816,12.115c-1.751,0.892-3.297,1.721-4.635,2.484l3.298-10.083
				c2.134-0.637,4.269-1.386,6.403-2.246c2.612-0.828,5.129-1.864,7.551-3.106c-0.382-1.243-1.347-3.839-2.891-7.79
				c-1.546-3.95-2.685-6.897-3.417-8.841c-1.785-4.589-4.987-9.973-9.606-16.153L848.875,1114.426z"/>
		</g>
		<g>
			<path fill="#231F20" d="M854.461,999.925v32.974c-0.033,0.479-0.91,1.989-2.247,1.989h-19.192v-68.853h-15.562v68.853H799.13
				v-18.709c0-15.319-16.214-24.726-27.838-24.726c-8.789,0-17.517,5.006-18.483,5.577l7.917,13.398
				c1.22-0.721,6.59-3.414,10.566-3.414c3.644,0,12.276,3.557,12.276,9.164v18.709h-34.063v15.562h102.709
				c10.495,0,17.81-9.241,17.81-17.535v-32.99H854.461z"/>
			<path fill="#231F20" d="M720.283,1032.898c-0.033,0.479-0.91,1.989-2.247,1.989h-21.614v-35.481h-27.838
				c-5.836,0-10.851,5.013-17.308,17.304c-1.238,2.358-7.42,14.403-7.42,19.873c0,7.612,7.395,12.05,14.312,13.663l0.873,0.204
				h58.994c10.496,0,17.81-9.241,17.81-17.535v-32.99h-15.562V1032.898z M680.86,1034.888h-19.867
				c-0.271-0.086-0.548-0.184-0.817-0.285c2.071-5.566,7.423-16.158,10.464-19.634h10.221V1034.888z"/>
			<path fill="#231F20" d="M589.908,1032.898c-0.033,0.479-0.911,1.989-2.247,1.989h-21.268v-67.47h-15.562v83.032h36.829
				c10.495,0,17.81-9.241,17.81-17.535v-32.99h-15.562V1032.898z"/>
			<path fill="#231F20" d="M518.15,1000.651h-16.254c-7.624,0-21.268,11.068-21.268,21.96c0,3.346,1.545,7.087,3.788,10.755h-22.808
				v-35.481H433.77c-5.836,0-10.85,5.013-17.307,17.304c-1.239,2.358-7.42,14.402-7.42,19.873c0,7.612,7.393,12.049,14.313,13.663
				l0.872,0.203H533.54v-34.271C533.54,1007.922,527.656,1000.651,518.15,1000.651z M446.046,1033.366H426.18
				c-0.272-0.086-0.549-0.184-0.818-0.286c2.071-5.566,7.423-16.157,10.464-19.634h10.221V1033.366z M517.977,1033.366h-13.884
				c-3.925-4.341-7.225-8.836-7.857-10.849c0.563-1.839,4.33-5.358,6.426-6.304h15.315V1033.366z"/>
			<rect x="358.207" y="965.343" fill="#231F20" width="15.562" height="82.998"/>
			<path fill="#231F20" d="M325.008,1029.528c0,2.771-0.863,4.621-1.408,5.359h-27.644c8.987-18.104,8.995-21.847,8.995-23.204
				c0-3.255-1.257-6.234-3.541-8.388c-3.631-3.424-8.482-3.609-10.292-3.543h-28.27c-1.795-0.093-6.548,0.024-10.344,3.441
				c-1.947,1.753-4.268,4.948-4.268,10.218c0,4.874,3.983,13.461,8.392,21.476h-27.066v-38.075h-15.562v55.699
				c0,2.771-0.863,4.621-1.408,5.359h-12.944v15.562h13.833c9.017,0,16.081-9.19,16.081-20.922v-2.062h94.928
				c9.017,0,16.081-9.19,16.081-20.922v-63.632h-15.562V1029.528z M264.402,1015.314h23.476c-2.041,4.836-5.739,12.5-9.384,19.573
				h-3.883C270.282,1027.626,265.983,1019.55,264.402,1015.314z"/>
			<path fill="#231F20" d="M176.65,1032.898c-0.034,0.479-0.912,1.989-2.248,1.989h-27.841v-34.271h-15.562v34.271H99.187v-35.481
				H71.349c-5.836,0-10.85,5.013-17.307,17.304c-1.239,2.358-7.42,14.403-7.42,19.873c0,7.612,7.393,12.05,14.313,13.663
				l0.872,0.204h112.596c10.495,0,17.809-9.241,17.809-17.535v-32.99h-15.562L176.65,1032.898z M83.625,1034.888H63.758
				c-0.271-0.086-0.549-0.184-0.817-0.285c2.071-5.566,7.423-16.158,10.464-19.634h10.221V1034.888z"/>
		</g>
		<circle fill="#231F20" cx="857.058" cy="1064.248" r="7.608"/>
		<circle fill="#231F20" cx="590.688" cy="1064.248" r="7.607"/>
		<circle fill="#231F20" cx="176.739" cy="1064.248" r="7.608"/>
		<circle fill="#231F20" cx="731.524" cy="1064.248" r="7.607"/>
		<circle fill="#231F20" cx="711.293" cy="1064.248" r="7.607"/>
		<circle fill="#231F20" cx="143.799" cy="1064.248" r="7.608"/>
		<circle fill="#231F20" cx="123.568" cy="1064.248" r="7.608"/>
		<circle fill="#231F20" cx="688.469" cy="980.991" r="7.607"/>
		<circle fill="#231F20" cx="668.238" cy="980.991" r="7.608"/>
		<circle fill="#231F20" cx="516.509" cy="980.991" r="7.608"/>
		<circle fill="#231F20" cx="496.278" cy="980.991" r="7.608"/>
		<circle fill="#231F20" cx="455.039" cy="980.991" r="7.608"/>
		<circle fill="#231F20" cx="434.808" cy="980.991" r="7.608"/>
		<circle fill="#231F20" cx="90.022" cy="980.991" r="7.608"/>
		<circle fill="#231F20" cx="69.791" cy="980.991" r="7.608"/>
		<circle fill="#231F20" cx="277.632" cy="980.991" r="7.608"/>
	</g>
</g>
</svg>
