<?xml version="1.0" encoding="UTF-8" standalone="no"?>
<!-- Created with Inkscape (http://www.inkscape.org/) -->

<svg
   xmlns:dc="http://purl.org/dc/elements/1.1/"
   xmlns:cc="http://creativecommons.org/ns#"
   xmlns:rdf="http://www.w3.org/1999/02/22-rdf-syntax-ns#"
   xmlns:svg="http://www.w3.org/2000/svg"
   xmlns="http://www.w3.org/2000/svg"
   xmlns:sodipodi="http://sodipodi.sourceforge.net/DTD/sodipodi-0.dtd"
   xmlns:inkscape="http://www.inkscape.org/namespaces/inkscape"
   width="95.454552mm"
   height="144.04893mm"
   viewBox="0 0 95.454552 144.04893"
   version="1.1"
   id="svg8"
   inkscape:version="0.92.3 (2405546, 2018-03-11)"
   sodipodi:docname="Coat_of_arms_of_Bat-Yam (1).svg">
  <defs
     id="defs2" />
  <sodipodi:namedview
     id="base"
     pagecolor="#ffffff"
     bordercolor="#666666"
     borderopacity="1.0"
     inkscape:pageopacity="0.0"
     inkscape:pageshadow="2"
     inkscape:zoom="0.9899495"
     inkscape:cx="-155.89969"
     inkscape:cy="238.56592"
     inkscape:document-units="mm"
     inkscape:current-layer="layer1"
     showgrid="false"
     fit-margin-top="2"
     fit-margin-right="2"
     fit-margin-left="2"
     fit-margin-bottom="2"
     inkscape:window-width="1920"
     inkscape:window-height="1005"
     inkscape:window-x="-9"
     inkscape:window-y="-9"
     inkscape:window-maximized="1" />
  <metadata
     id="metadata5">
    <rdf:RDF>
      <cc:Work
         rdf:about="">
        <dc:format>image/svg+xml</dc:format>
        <dc:type
           rdf:resource="http://purl.org/dc/dcmitype/StillImage" />
        <dc:title></dc:title>
      </cc:Work>
    </rdf:RDF>
  </metadata>
  <g
     inkscape:label="Layer 1"
     inkscape:groupmode="layer"
     id="layer1"
     transform="translate(99.227709,-90.463984)">
    <g
       transform="matrix(0.26458333,0,0,0.26458333,217.42963,99.883679)"
       id="g1791">
      <g
         transform="matrix(-1,0,0,1,-2033.5055,0)"
         inkscape:transform-center-y="5.7979355"
         inkscape:transform-center-x="-109.41032"
         id="g1741">
        <path
           inkscape:connector-curvature="0"
           id="path1733"
           d="m -1071.2217,39.891211 5.4649,7.131787 c 0.8365,0.766534 1.6075,2.539336 1.5935,4.672069 -0.014,2.024765 -0.6651,3.761583 -1.9663,5.208013 -1.2646,1.559891 -2.8842,2.408467 -10.4315,4.018397 -7.5472,1.609915 -19.852,5.777173 -31.4642,11.025436 -11.3037,5.280596 -21.9113,11.491525 -31.8245,18.635219 l -0.693,0.45998 9.0262,6.24753 h 0.1156 c 3.2025,2.02776 3.8991,6.277398 2.3139,9.145868 l -17.2436,13.07765 -36.9173,-18.86336 c -7.2881,-4.207836 -5.4944,-15.570013 -0.9255,-20.138994 5.5161,-6.437251 10.6467,-11.717847 15.3911,-15.854599 4.6357,-4.008038 10.654,-8.412592 18.0562,-13.190517 7.5201,-5.049992 14.4235,-9.023258 20.713,-11.920384 5.8322,-2.621378 13.2754,-5.32574 22.3365,-8.101458 l 0.8089,-0.230604 c 24.1621,-6.054063 25.2842,-4.845099 35.6465,8.677967 z"
           style="clip-rule:evenodd;fill:#0000ff;fill-opacity:1;fill-rule:evenodd;stroke-width:0.61005038" />
        <path
           inkscape:connector-curvature="0"
           id="path1735"
           d="m -1108.9491,42.900558 -8.1014,2.548795 6.4805,6.478115 -1.6196,7.409676 7.1753,-1.853332 4.8603,4.397847 0.2306,0.45998 1.3903,-6.712386 8.3315,-2.545128 -6.7112,-6.247527 1.8521,-7.870868 -7.4071,2.083935 -4.8598,-4.628451 z"
           style="clip-rule:evenodd;fill:#fefc01;fill-opacity:1;fill-rule:evenodd;stroke-width:0.61005038" />
        <path
           inkscape:connector-curvature="0"
           id="path1737"
           d="m -1126.7722,50.079016 -6.7125,3.702398 -6.0181,-3.241805 v 6.247527 l -7.1736,4.399074 7.6379,4.857827 0.2305,7.870869 6.4806,-3.702398 5.7857,3.241818 0.2331,0.459967 -0.2331,-6.944203 7.6397,-4.397233 -7.871,-4.629679 v -7.864162 z"
           style="clip-rule:evenodd;fill:#fefc01;fill-opacity:1;fill-rule:evenodd;stroke-width:0.61005038" />
        <path
           inkscape:connector-curvature="0"
           id="path1739"
           d="m -1160.3317,71.1404 -6.2512,-2.545128 0.9278,6.476903 -6.7136,5.325741 8.3339,3.702397 1.3879,7.640259 5.7856,-4.629065 6.2512,2.545129 0.2294,0.229405 -1.1572,-6.712393 6.9441,-5.32086 -8.5644,-3.472409 -1.1585,-7.869656 z"
           style="clip-rule:evenodd;fill:#fefc01;fill-opacity:1;fill-rule:evenodd;stroke-width:0.61005038" />
      </g>
      <g
         id="g1731">
        <path
           inkscape:connector-curvature="0"
           style="clip-rule:evenodd;fill:#0000ff;fill-opacity:1;fill-rule:evenodd;stroke-width:0.61005038"
           d="m -1071.2217,39.891211 5.4649,7.131787 c 0.8365,0.766534 1.6075,2.539336 1.5935,4.672069 -0.014,2.024765 -0.6651,3.761583 -1.9663,5.208013 -1.2646,1.559891 -2.8842,2.408467 -10.4315,4.018397 -7.5472,1.609915 -19.852,5.777173 -31.4642,11.025436 -11.3037,5.280596 -21.9113,11.491525 -31.8245,18.635219 l -0.693,0.45998 9.0262,6.24753 h 0.1156 c 3.2025,2.02776 3.8991,6.277398 2.3139,9.145868 l -17.2436,13.07765 -36.9173,-18.86336 c -7.2881,-4.207836 -5.4944,-15.570013 -0.9255,-20.138994 5.5161,-6.437251 10.6467,-11.717847 15.3911,-15.854599 4.6357,-4.008038 10.654,-8.412592 18.0562,-13.190517 7.5201,-5.049992 14.4235,-9.023258 20.713,-11.920384 5.8322,-2.621378 13.2754,-5.32574 22.3365,-8.101458 l 0.8089,-0.230604 c 24.1621,-6.054063 25.2842,-4.845099 35.6465,8.677967 z"
           id="path1725" />
        <path
           inkscape:connector-curvature="0"
           style="clip-rule:evenodd;fill:#fefc01;fill-opacity:1;fill-rule:evenodd;stroke-width:0.61005038"
           d="m -1108.9491,42.900558 -8.1014,2.548795 6.4805,6.478115 -1.6196,7.409676 7.1753,-1.853332 4.8603,4.397847 0.2306,0.45998 1.3903,-6.712386 8.3315,-2.545128 -6.7112,-6.247527 1.8521,-7.870868 -7.4071,2.083935 -4.8598,-4.628451 z"
           id="path1723" />
        <path
           inkscape:connector-curvature="0"
           style="clip-rule:evenodd;fill:#fefc01;fill-opacity:1;fill-rule:evenodd;stroke-width:0.61005038"
           d="m -1126.7722,50.079016 -6.7125,3.702398 -6.0181,-3.241805 v 6.247527 l -7.1736,4.399074 7.6379,4.857827 0.2305,7.870869 6.4806,-3.702398 5.7857,3.241818 0.2331,0.459967 -0.2331,-6.944203 7.6397,-4.397233 -7.871,-4.629679 v -7.864162 z"
           id="path1721" />
        <path
           inkscape:connector-curvature="0"
           style="clip-rule:evenodd;fill:#fefc01;fill-opacity:1;fill-rule:evenodd;stroke-width:0.61005038"
           d="m -1160.3317,71.1404 -6.2512,-2.545128 0.9278,6.476903 -6.7136,5.325741 8.3339,3.702397 1.3879,7.640259 5.7856,-4.629065 6.2512,2.545129 0.2294,0.229405 -1.1572,-6.712393 6.9441,-5.32086 -8.5644,-3.472409 -1.1585,-7.869656 z"
           id="path1697" />
      </g>
      <g
         transform="rotate(-1.317814,-1016.035,112.64476)"
         id="g1693">
        <g
           id="g1666"
           transform="rotate(60,-1016.035,112.6448)">
          <path
             inkscape:transform-center-x="-7.1311666e-005"
             inkscape:transform-center-y="44.856802"
             sodipodi:nodetypes="ccccc"
             inkscape:connector-curvature="0"
             id="path1662"
             d="m -1008.64,170.15456 h -14.79 l -2,-25.306 h 18.79 z"
             style="fill:#00c9eb;stroke:#00c9eb;stroke-width:2" />
          <path
             style="fill:#00c9eb;stroke:#00c9eb;stroke-width:2"
             d="m -1023.4301,55.134962 h 14.79 l 2,25.306 h -18.79 z"
             id="path1664"
             inkscape:connector-curvature="0"
             sodipodi:nodetypes="ccccc"
             inkscape:transform-center-y="-44.856799"
             inkscape:transform-center-x="2.8688337e-005" />
        </g>
        <g
           transform="rotate(150,-1016.035,112.64476)"
           id="g1672">
          <path
             style="fill:#00c9eb;stroke:#00c9eb;stroke-width:2"
             d="m -1008.64,170.15456 h -14.79 l -2,-25.306 h 18.79 z"
             id="path1668"
             inkscape:connector-curvature="0"
             sodipodi:nodetypes="ccccc"
             inkscape:transform-center-y="44.856802"
             inkscape:transform-center-x="-7.1311666e-005" />
          <path
             inkscape:transform-center-x="2.8688337e-005"
             inkscape:transform-center-y="-44.856799"
             sodipodi:nodetypes="ccccc"
             inkscape:connector-curvature="0"
             id="path1670"
             d="m -1023.4301,55.134962 h 14.79 l 2,25.306 h -18.79 z"
             style="fill:#00c9eb;stroke:#00c9eb;stroke-width:2" />
        </g>
        <g
           id="g1660"
           transform="rotate(30,-1016.035,112.64482)">
          <path
             inkscape:transform-center-x="-7.1311666e-005"
             inkscape:transform-center-y="44.856802"
             sodipodi:nodetypes="ccccc"
             inkscape:connector-curvature="0"
             id="path1656"
             d="m -1008.64,170.15456 h -14.79 l -2,-25.306 h 18.79 z"
             style="fill:#00c9eb;stroke:#00c9eb;stroke-width:2" />
          <path
             style="fill:#00c9eb;stroke:#00c9eb;stroke-width:2"
             d="m -1023.4301,55.134962 h 14.79 l 2,25.306 h -18.79 z"
             id="path1658"
             inkscape:connector-curvature="0"
             sodipodi:nodetypes="ccccc"
             inkscape:transform-center-y="-44.856799"
             inkscape:transform-center-x="2.8688337e-005" />
        </g>
        <g
           transform="rotate(120,-1016.035,112.64476)"
           id="g1654">
          <path
             style="fill:#00c9eb;stroke:#00c9eb;stroke-width:2"
             d="m -1008.64,170.15456 h -14.79 l -2,-25.306 h 18.79 z"
             id="path1650"
             inkscape:connector-curvature="0"
             sodipodi:nodetypes="ccccc"
             inkscape:transform-center-y="44.856802"
             inkscape:transform-center-x="-7.1311666e-005" />
          <path
             inkscape:transform-center-x="2.8688337e-005"
             inkscape:transform-center-y="-44.856799"
             sodipodi:nodetypes="ccccc"
             inkscape:connector-curvature="0"
             id="path1652"
             d="m -1023.4301,55.134962 h 14.79 l 2,25.306 h -18.79 z"
             style="fill:#00c9eb;stroke:#00c9eb;stroke-width:2" />
        </g>
        <g
           id="g1648"
           transform="rotate(90,-1016.035,112.64476)">
          <path
             inkscape:transform-center-x="-7.1311666e-005"
             inkscape:transform-center-y="44.856802"
             sodipodi:nodetypes="ccccc"
             inkscape:connector-curvature="0"
             id="path1644"
             d="m -1008.64,170.15456 h -14.79 l -2,-25.306 h 18.79 z"
             style="fill:#00c9eb;stroke:#00c9eb;stroke-width:2" />
          <path
             style="fill:#00c9eb;stroke:#00c9eb;stroke-width:2"
             d="m -1023.4301,55.134962 h 14.79 l 2,25.306 h -18.79 z"
             id="path1646"
             inkscape:connector-curvature="0"
             sodipodi:nodetypes="ccccc"
             inkscape:transform-center-y="-44.856799"
             inkscape:transform-center-x="2.8688337e-005" />
        </g>
        <g
           id="g1642">
          <path
             style="fill:#00c9eb;stroke:#00c9eb;stroke-width:2"
             d="m -1008.64,170.15456 h -14.79 l -2,-25.306 h 18.79 z"
             id="path1638"
             inkscape:connector-curvature="0"
             sodipodi:nodetypes="ccccc"
             inkscape:transform-center-y="44.856802"
             inkscape:transform-center-x="-7.1311666e-005" />
          <path
             inkscape:transform-center-x="2.8688337e-005"
             inkscape:transform-center-y="-44.856799"
             sodipodi:nodetypes="ccccc"
             inkscape:connector-curvature="0"
             id="path1618"
             d="m -1023.4301,55.134962 h 14.79 l 2,25.306 h -18.79 z"
             style="fill:#00c9eb;stroke:#00c9eb;stroke-width:2" />
        </g>
        <path
           style="fill:#ff0101;stroke:#ffffff;stroke-width:3"
           inkscape:connector-curvature="0"
           id="path1128"
           d="m -1016.0351,78.920765 c -18.625,0 -33.724,15.099 -33.724,33.723995 0,18.625 15.099,33.724 33.724,33.724 18.625,0 33.724,-15.099 33.724,-33.724 0,-18.624995 -15.099,-33.723995 -33.724,-33.723995 z m 0,47.143995 c -7.412,0 -13.42,-6.008 -13.42,-13.41999 0,-7.412 6.008,-13.420005 13.42,-13.420005 7.412,0 13.421,6.008005 13.421,13.420005 0,7.412 -6.009,13.41999 -13.421,13.41999 z" />
      </g>
      <path
         style="fill:#0000ff;fill-opacity:1"
         inkscape:connector-curvature="0"
         id="path1132"
         d="m -869.18611,171.35175 v 18.274 h -20.139 v -18.274 h -25.586 v 18.274 h -20.139 v -18.274 h -25.585 v 18.274 h -20.139 v -18.274 h -25.58599 v 18.274 h -20.139 v -18.274 h -25.585 v 18.274 h -20.139 v -18.274 h -25.585 v 18.274 h -20.139 v -18.274 h -25.585 v 18.274 h -20.139 v -18.274 h -25.585 v 22.452 h 0.156 c 0.428,10.46 1.854,39.612 5.588,75.709 4.699,45.426 16.708,82.498 16.708,82.498 0,0 24.541,12.531 38.638,12.531 14.097,0 30.806,-4.177 30.806,-4.177 l 133.14499,-10.443 29.763,13.576 c 0,0 38.639,-12.531 50.647,-12.531 12.008,0 13.575,4.177 13.575,4.177 0,0 13.575,-34.983 19.841,-79.365 5.087,-36.03 6.388,-70.338 6.698,-81.975 h 0.09 v -22.452 z" />
      <path
         style="fill:#ffffff"
         d="m -1022.8909,187.14724 -1.76,0.4414 0.5427,6.71005 c 0.4785,5.91711 0.385,7.39164 -2.6142,13.01756 l -59.6308,111.85596 c 0,0 -2.9922,8.33715 -13.9442,8.33715 h -3.6044 v 3.12809 h 65.2665 l 0.666,1.79101 30.7071,-7.80468 v 0 l 1.4492,-0.15039 -0.3438,-2.8418 84.19341,-3.99414 v 3.33398 l 16.00195,-2.39062 z"
         id="path1134"
         inkscape:connector-curvature="0"
         sodipodi:nodetypes="ccsscccccccccccccc" />
      <path
         style="fill:#0000ff;fill-opacity:1;stroke-width:0.93249744"
         d="m -1017.0387,217.62874 c 1.6123,1.00803 21.57862,14.11062 21.57862,44.83454 0,29.80076 -9.86032,40.04835 -11.22462,41.32494 z"
         id="path1136"
         inkscape:connector-curvature="0" />
      <path
         style="fill:#36c1e2;fill-opacity:1"
         inkscape:connector-curvature="0"
         id="path1138"
         d="m -1141.7776,415.57386 c 12.392,1.412 21.178,5.96601 37.049,5.96601 18.782,0 21.971,-8.50601 37.21,-8.50601 15.239,0 26.579,7.79701 38.628,7.79701 12.049,0 18.428,-8.859 30.83196,-8.859 12.404,0 21.617,9.923 31.54,9.923 9.923,0 21.617,-10.986 34.375,-10.986 12.758,0 17.01,9.568 28.705,9.568 2.438,0 4.815,-0.497 7.15,-1.27801 4.996,-7.87799 9.218,-15.51799 12.66,-22.30099 h -268.55296 c 2.912,5.736 6.38,12.086 10.404,18.67599 z m 27.835,36.44201 c 7.116,7.269 15.636,13.69199 24.622,19.30199 3.503,0.938 6.954,1.607 10.463,1.607 12.049,0 18.428,-8.859 30.832,-8.859 12.404,0 21.617,9.923 31.54,9.923 9.923,0 21.61696,-10.986 34.37496,-10.986 12.758,0 17.01,9.568 28.705,9.568 2.298,0 4.541,-0.442 6.746,-1.146 9.049,-5.634 17.632,-12.095 24.793,-19.409 0.635,-0.648 1.261,-1.303 1.884,-1.961 h -195.84396 c 0.623,0.658 1.249,1.313 1.884,1.96101 z m -5.629,-6.05201 c 17.192,-0.526 20.664,-8.478 35.398,-8.478 15.239,0 26.579,7.79701 38.628,7.79701 12.049,0 18.428,-8.859 30.832,-8.859 12.404,0 21.61696,9.923 31.53996,9.923 9.923,0 21.617,-10.986 34.375,-10.986 12.758,0 17.01,9.568 28.705,9.568 1.839,0 3.644,-0.281 5.421,-0.75401 5.202,-6.033 9.93,-12.324 14.18,-18.57299 h -234.82296 c 4.672,6.87 9.921,13.79 15.744,20.36199 z m -43.985,-74.748 c 0,0 2.213,6.25901 6.617,15.84 11.624,1.587 20.33,5.778 35.555,5.778 18.782,0 21.971,-8.506 37.21,-8.506 15.239,0 26.579,7.797 38.628,7.797 12.049,0 18.428,-8.85899 30.832,-8.85899 12.404,0 21.61696,9.923 31.53996,9.923 9.923,0 21.617,-10.986 34.375,-10.986 12.758,0 17.01,9.568 28.705,9.568 11.695,0 21.973,-11.34 32.958,-11.34 3.167,0 6.776,0.856 10.31,2.072 3.044,-6.961 4.574,-11.287 4.574,-11.287 z m 145.652,130.06001 c 0,0 30.65696,-7.582 60.39396,-23.579 h -120.78796 c 29.736,15.997 60.394,23.579 60.394,23.579 z" />
      <path
         style="fill:#ff0101"
         d="m -1002.8496,323.47886 v 13.61507 c 40.18081,-13.05122 76.80142,-16.80231 114.86998,-21.44707 l -34.982,48.55901 -164.99598,-3.13201 -12.009,-13.05399 c 35.623,-4.52329 97.117,-24.541 97.117,-24.54101 z"
         id="path1140"
         inkscape:connector-curvature="0"
         sodipodi:nodetypes="ccccccc" />
      <path
         id="path1142"
         d="m -1017.6053,242.56941 c -0.8964,0.93254 -6.5768,16.31351 -7.6337,31.04225 -0.7714,14.0058 2.7004,27.65736 16.9896,47.27479 z"
         style="fill:#0000ff;fill-opacity:1;stroke-width:0.81170386"
         inkscape:connector-curvature="0"
         sodipodi:nodetypes="cccc" />
      <polygon
         transform="translate(-1206.0399,-47.412235)"
         style="fill:#fefc01"
         id="polygon1152"
         points="256.415,45.58 252.951,61.113 232.702,56.598 230.926,64.559 262.995,71.708 264.769,63.748 260.443,62.784 265.682,39.291 237.939,33.105 236.165,41.065 " />
      <polygon
         transform="translate(-1206.0399,-47.412235)"
         style="fill:#fefc01"
         id="polygon1154"
         points="204.576,61.569 206.04,36.547 220.489,37.392 219.025,62.416 227.167,62.892 229.081,30.206 198.346,28.408 196.917,52.81 190.579,52.438 190.094,60.722 " />
      <rect
         style="fill:#fefc01"
         id="rect1156"
         height="8.2980003"
         width="13.621"
         y="-6.4442363"
         x="-1031.45" />
      <rect
         style="fill:#fefc01;stroke-width:0.99995428"
         id="rect1158"
         height="8.2986202"
         width="13.621377"
         transform="rotate(-97.926711)"
         y="-1035.5137"
         x="148.06757" />
      <path
         style="fill:#fefc01"
         inkscape:connector-curvature="0"
         id="path1160"
         d="m -1086.1329,-7.876235 9.606,30.862 27.197,-8.465 -9.606,-30.862 z m 27.571,16.74 -13.57,4.224 -4.766,-15.311 13.57,-4.224 z" />
      <path
         style="fill:#0000ff;fill-opacity:1;stroke:none;stroke-width:1.56799829;stroke-opacity:1"
         d="m -1016.4286,-28.042942 c -33.257,0.222594 -67.5756,11.298752 -93.9453,32.570313 l 8.2149,9.445312 21.0136,24.158203 c 20.2966,-12.716506 38.7465,-23.357422 64.7168,-23.357422 25.97031,0 44.68676,11.793054 64.71682,23.357422 l 21.01368,-24.158203 8.21484,-9.445312 c -27.49882,-21.581024 -62.50632,-32.443543 -93.94534,-32.570313 z"
         id="path1162"
         inkscape:connector-curvature="0"
         sodipodi:nodetypes="ccccscccc" />
      <g
         id="g1174"
         transform="matrix(1.5865748,0,0,1.5865748,-1945.4246,-279.29262)"
         style="fill:#fefc01;fill-opacity:1">
        <path
           sodipodi:nodetypes="cccccccccccc"
           inkscape:connector-curvature="0"
           id="path1164"
           d="m 557,167.38672 -20,8.875 2.40625,5.1875 3.75,-1.96875 4.09375,10.03125 16.125,-8.25 z m -3,6.625 2.5,5.25 -6.0625,3.0625 -2.5625,-5.28125 z"
           style="fill:#fefc01;fill-opacity:1;stroke:none;stroke-width:1px;stroke-linecap:butt;stroke-linejoin:miter;stroke-opacity:1" />
        <path
           sodipodi:nodetypes="ccccc"
           inkscape:connector-curvature="0"
           id="path1166"
           d="m 563.38733,165.40842 1.61009,6.92723 5.37259,-1.53554 -1.5026,-6.71751 z"
           style="fill:#fefc01;fill-opacity:1;stroke:none;stroke-width:1px;stroke-linecap:butt;stroke-linejoin:miter;stroke-opacity:1" />
        <path
           sodipodi:nodetypes="ccccc"
           inkscape:connector-curvature="0"
           id="path1168"
           d="m 574.34748,167.88329 0.17678,3.97748 7.20365,-0.53033 -0.30936,-4.06586 z"
           style="fill:#fefc01;fill-opacity:1;stroke:none;stroke-width:1px;stroke-linecap:butt;stroke-linejoin:miter;stroke-opacity:1" />
        <path
           sodipodi:nodetypes="ccccccccccc"
           inkscape:connector-curvature="0"
           id="path1170"
           d="m 586.10313,172.92143 3.23538,0.59699 1.97954,-10.49648 16.88217,3.44714 -2.71216,15.24927 -5.55215,-1.48236 1.65571,-9.59749 -5.58899,-1.07583 -1.74171,9.63095 -8.95328,-1.41083 z"
           style="fill:#fefc01;fill-opacity:1;stroke:none;stroke-width:1px;stroke-linecap:butt;stroke-linejoin:miter;stroke-opacity:1" />
        <path
           sodipodi:nodetypes="ccccccccccc"
           inkscape:connector-curvature="0"
           id="path1172"
           d="m 620.04962,182.74142 1.84543,-4.41758 -10.21299,-5.03151 2.12132,-5.12653 15.25649,7.2305 -3.79668,9.86369 2.11151,1.02404 -2.02714,4.93379 -17.4125,-8.48528 2.03293,-4.86136 z"
           style="fill:#fefc01;fill-opacity:1;stroke:none;stroke-width:1px;stroke-linecap:butt;stroke-linejoin:miter;stroke-opacity:1" />
      </g>
    </g>
  </g>
</svg>
