<?xml version="1.0" encoding="utf-8"?>
<!-- Generator: Adobe Illustrator 15.0.0, SVG Export Plug-In . SVG Version: 6.00 Build 0)  -->
<!DOCTYPE svg PUBLIC "-//W3C//DTD SVG 1.1//EN" "http://www.w3.org/Graphics/SVG/1.1/DTD/svg11.dtd">
<svg version="1.1" id="svg2" xmlns:svg="http://www.w3.org/2000/svg"
	 xmlns="http://www.w3.org/2000/svg" xmlns:xlink="http://www.w3.org/1999/xlink" x="0px" y="0px" width="509.125px"
	 height="711.096px" viewBox="20.782 34.892 509.125 711.096" enable-background="new 20.782 34.892 509.125 711.096"
	 xml:space="preserve">
<g id="g2463">
	<g id="g6325" transform="translate(-78.062545,-226.70714)">
		<path id="rect16808" fill="#0B6326" stroke="#0DB131" stroke-width="2.7" stroke-linejoin="bevel" d="M176.777,588.702h68.69
			v32.325h-68.69V588.702z"/>
		<path id="path17780" fill="#0B6326" stroke="#0DB131" stroke-width="2.2008" stroke-linejoin="bevel" d="M255.319,576.331h44.946
			v32.824h-44.946V576.331z"/>
		<path id="path17782" fill="#0B6326" stroke="#0DB131" stroke-width="2.6104" stroke-linejoin="bevel" d="M263.605,532.089h75.851
			v27.364h-75.851V532.089z"/>
		<path id="path17784" fill="#0B6326" stroke="#0DB131" stroke-width="2.7831" stroke-linejoin="bevel" d="M354.605,508.941h58.505
			v40.323h-58.505V508.941z"/>
		<path id="path17786" fill="#0B6326" stroke="#0DB131" stroke-width="2.722" stroke-linejoin="bevel" d="M317.199,567.5h82.812
			v27.252h-82.812V567.5z"/>
		<path id="path17788" fill="#0B6326" stroke="#0DB131" stroke-width="2.583" stroke-linejoin="bevel" d="M202.982,487.628h60.727
			v33.453h-60.727V487.628z"/>
		<path id="path17790" fill="#0B6326" stroke="#0DB131" stroke-width="2.0126" stroke-linejoin="bevel" d="M138.047,540.882h44.124
			v27.961h-44.124V540.882z"/>
		<path id="path17792" fill="#0B6326" stroke="#0DB131" stroke-width="2.0167" stroke-linejoin="bevel" d="M273.41,502.498h69.374
			v17.855H273.41V502.498z"/>
		<path id="path17794" fill="#0B6326" stroke="#0DB131" stroke-width="1.2297" stroke-linejoin="bevel" d="M146.747,577.865h18.643
			v24.704h-18.643V577.865z"/>
		<path id="path17796" fill="#0B6326" stroke="#0DB131" stroke-width="2.7597" stroke-linejoin="bevel" d="M194.989,533.174h53.479
			v43.377h-53.479V533.174z"/>
		<path id="path17802" fill="#0B6326" stroke="#0DB131" stroke-width="2.583" stroke-linejoin="bevel" d="M195.97,522.032
			l0.252-18.183h-43.689v31.567l30.304-0.253v-12.879L195.97,522.032z"/>
	</g>
	<path id="rect21706" fill="#400B70" d="M20.782,524.528h509.125v70.711H20.782V524.528z"/>
	<g id="g2425">
		<g id="g6205" transform="translate(-54.1985,-215.42057)">
			<path id="path6145" fill="none" stroke="#F8F5FD" stroke-width="15.14" d="M409.099,739.88v70.962"/>
			<path id="path6147" fill="none" stroke="#C29DF7" stroke-width="5.1254" d="M409.234,740.271v69.354"/>
		</g>
		<g id="g6169" transform="translate(-73.875084,-216.70714)">
			<path id="path25587" fill="none" stroke="#F8F5FD" stroke-width="15.14" d="M118.571,741.167v70.962"/>
			<path id="path23647" fill="none" stroke="#C29DF7" stroke-width="5.1254" d="M118.708,741.557v69.354"/>
		</g>
		<g id="g6173" transform="translate(-71.550871,-216.70713)">
			<path id="path25599" fill="none" stroke="#F8F5FD" stroke-width="15.14" d="M150.714,741.167v70.962"/>
			<path id="path6113" fill="none" stroke="#C29DF7" stroke-width="5.1254" d="M150.295,741.359v69.353"/>
		</g>
		<g id="g6177" transform="translate(-66.992923,-217.44248)">
			<path id="path6117" fill="none" stroke="#F8F5FD" stroke-width="15.14" d="M180.623,741.902v70.962"/>
			<path id="path6119" fill="none" stroke="#C29DF7" stroke-width="5.1254" d="M180.76,742.293v69.354"/>
		</g>
		<g id="g6181" transform="translate(-67.572177,-218.11645)">
			<path id="path6121" fill="none" stroke="#F8F5FD" stroke-width="15.14" d="M215.67,742.576v70.962"/>
			<path id="path6123" fill="none" stroke="#C29DF7" stroke-width="5.1254" d="M215.806,742.967v69.354"/>
		</g>
		<g id="g6185" transform="translate(-65.455558,-217.44248)">
			<path id="path6125" fill="none" stroke="#F8F5FD" stroke-width="15.14" d="M248.02,741.902v70.962"/>
			<path id="path6127" fill="none" stroke="#C29DF7" stroke-width="5.1254" d="M248.157,742.293v69.354"/>
		</g>
		<g id="g6189" transform="translate(-63.338924,-218.11645)">
			<path id="path6129" fill="none" stroke="#F8F5FD" stroke-width="15.14" d="M280.371,742.576v70.962"/>
			<path id="path6131" fill="none" stroke="#C29DF7" stroke-width="5.1254" d="M280.507,742.967v69.354"/>
		</g>
		<g id="g6193" transform="translate(-59.200408,-217.44248)">
			<path id="path6133" fill="none" stroke="#F8F5FD" stroke-width="15.14" d="M310.699,741.902v70.962"/>
			<path id="path6135" fill="none" stroke="#C29DF7" stroke-width="5.1254" d="M310.836,742.293v69.354"/>
		</g>
		<g id="g6197" transform="translate(-56.409824,-216.76851)">
			<path id="path6137" fill="none" stroke="#F8F5FD" stroke-width="15.14" d="M342.376,741.228v70.962"/>
			<path id="path6139" fill="none" stroke="#C29DF7" stroke-width="5.1254" d="M342.512,741.619v69.354"/>
		</g>
		<g id="g6201" transform="translate(-54.293189,-216.76852)">
			<path id="path6141" fill="none" stroke="#F8F5FD" stroke-width="15.14" d="M374.725,741.228v70.962"/>
			<path id="path6143" fill="none" stroke="#C29DF7" stroke-width="5.1254" d="M374.862,741.619v69.354"/>
		</g>
		<g id="g6225" transform="translate(-67.203149,-216.76851)">
			<path id="path6157" fill="none" stroke="#F8F5FD" stroke-width="15.14" d="M572.2,741.228v70.962"/>
			<path id="path6159" fill="none" stroke="#C29DF7" stroke-width="5.1254" d="M572.334,741.619v69.354"/>
		</g>
		<g id="g6221" transform="translate(-70.706253,-217.44248)">
			<path id="path6161" fill="none" stroke="#F8F5FD" stroke-width="15.14" d="M541.871,741.902v70.962"/>
			<path id="path6163" fill="none" stroke="#C29DF7" stroke-width="5.1254" d="M542.008,742.293v69.354"/>
		</g>
	</g>
	<path id="rect2221" fill="#400B70" d="M390.514,202.244h48.516v543.183h-48.516V202.244z"/>
	<path id="path6102" fill="none" stroke="#400B70" stroke-width="15.6064" d="M484.389,73.775l0.244,95.075l-29.17,39.048
		l-0.182,538.087"/>
	<path id="path8048" fill="#AE11AD" d="M469.415,166.131l-27.533,35.562l-25.586-32.726l0.311-133.826l52.914-0.248L469.415,166.131
		z"/>
	<path id="path14864" fill="none" stroke="#850C0C" stroke-width="4.161" d="M307.346,204.941H23.464v311.694"/>
	<path id="path10013" fill="#850C0C" d="M136.48,402.757l35.051,0.051c0,0,4.521,25.909,22.021,20.909
		c17.5-5.001,42.929-44.95,42.929-44.95h24.041c0,0-28.408,32.449-40.908,54.95c-12.5,22.5-12.449,19.04,5.051,34.04
		s41.893,20.758,55.857,31.011c13.965,10.252,5,7.5,0,10s-20,0-20,0l-56.969-22.021H182.44c0,0-23.939,16.515-41.919,22.021
		c-17.979,5.505-30,0-30,0s49.47-27.93,66.97-42.93S136.48,402.757,136.48,402.757z"/>
	<path id="path4171" fill="none" stroke="#850C0C" stroke-width="5.2" d="M23.84,603.814v132.412l76.159-0.359"/>
	<path id="flowRoot2195" d="M344.252,654.798h-8.477v-28.633h-5.039v-7.852h11.25c0.703,0,1.275,0.403,1.719,1.211
		c0.365,0.677,0.547,1.367,0.547,2.07V654.798z M324.252,635.501h-8.633v-9.336h-5.313v-7.852h11.758
		c1.459,0,2.188,0.886,2.188,2.656V635.501z M304.174,654.798h-32.031v-22.07l2.422-6.563h-2.969v-7.852h11.68
		c1.067,0,1.601,0.664,1.602,1.992v5.859h-1.992l-2.227,7.266v13.516h15.039v-18.398c-0.677-1.198-1.862-1.94-3.555-2.227
		l-2.461,7.109h-4.414l4.648-15.508c3.671,0,6.784,0.847,9.335,2.539c2.813,1.875,4.453,4.492,4.922,7.852V654.798z
		 M265.229,645.579c0,2.37-0.833,4.499-2.5,6.387c-1.667,1.888-3.581,2.832-5.742,2.832h-24.57v-7.852h5.625v-20.781h-4.492v-7.852
		h11.289c1.12,0,1.68,0.742,1.68,2.227v26.406h8.32c1.276,0,1.914-0.69,1.914-2.07v-18.711h-4.727v-7.852h11.133
		c1.38,0,2.07,0.808,2.07,2.422V645.579z M204.76,654.798h-9.688l-13.594-20.781c-0.287,0-0.625,0.247-1.016,0.742
		s-0.586,0.989-0.586,1.484l0.742,3.516l3.125,15.039h-13.047v-5.117c0-1.823,0.286-2.734,0.859-2.734h2.344l-1.836-7.891
		c-0.391-1.614-0.586-2.773-0.586-3.477c0-4.011,1.927-6.719,5.781-8.125l-5.859-9.141h8.008c0.963,0,1.588,0.091,1.875,0.273
		c0.208,0.13,0.573,0.573,1.094,1.328l9.57,14.414c2.578-0.859,3.867-2.761,3.867-5.703v-2.461h-3.516v-7.852h9.102
		c1.718,0.703,2.578,2.565,2.578,5.586v4.258c0,3.958-2.644,8.255-7.93,12.891L204.76,654.798z M161.948,647.766
		c-0.573,2.239-1.706,3.997-3.399,5.273c-1.536,1.172-3.255,1.758-5.156,1.758h-35.898v-22.734l1.758-5.898h-3.789v-7.852h11.21
		c0.912,0.521,1.367,1.614,1.367,3.281c-0.052,2.239-0.052,3.763,0,4.57h-2.07v20.781h9.688v-20.781h-4.18v-7.852h11.29
		c0.911,0.521,1.367,1.614,1.367,3.281v25.352h7.266c1.38,0,2.07-0.742,2.07-2.227v-18.555h-4.648v-7.852h11.797
		c0.885,0.521,1.328,1.614,1.328,3.281V647.766z M109.565,642.141c0,3.203-1.133,5.964-3.399,8.281
		c-2.89,2.917-7.096,4.375-12.617,4.375h-3.125v-7.852h3.125c5.026,0,7.54-1.836,7.54-5.508v-15.273H81.87v-15.43h8.164v7.578
		h17.031c1.667,0,2.5,0.989,2.5,2.969V642.141z"/>
	<path id="flowRoot2205" d="M382.098,718.914h-26.543v-7.066h16.031v-18.703h-16.277v-7.066h20.32c1.031,0,1.887,0.393,2.566,1.178
		s1.02,1.717,1.02,2.795v21.797h2.883V718.914z"/>
	<path id="flowRoot2215" fill="#400B70" d="M352.364,718.903h-36.865v-9.814h22.266v-25.977h-22.607v-9.814h28.223
		c1.434,0,2.621,0.545,3.564,1.636c0.945,1.091,1.416,2.385,1.416,3.882v30.273h4.004V718.903z M307.833,718.903h-12.109
		l-16.992-25.977c-0.358,0-0.781,0.31-1.27,0.928s-0.732,1.237-0.732,1.855l0.928,4.395l3.906,18.799h-16.309v-6.396
		c0-2.278,0.358-3.418,1.074-3.418h2.93l-2.295-9.863c-0.488-2.019-0.732-3.467-0.732-4.346c0-5.013,2.409-8.398,7.227-10.156
		l-7.324-11.426h10.01c1.204,0,1.985,0.114,2.344,0.342c0.26,0.163,0.716,0.716,1.367,1.66l11.963,18.018
		c3.223-1.074,4.834-3.45,4.834-7.129v-3.076h-4.395v-9.814h11.376c2.148,0.879,3.223,3.206,3.223,6.982v5.322
		c0,4.948-3.304,10.319-9.912,16.113L307.833,718.903z M255.148,718.903h-10.596v-35.791h-23.73v-9.814h29.639
		c2.051,0,3.401,0.96,4.053,2.881c0.423,1.237,0.635,3.548,0.635,6.934V718.903z M184.982,710.114
		c-0.716,2.8-2.132,4.997-4.248,6.592c-1.921,1.465-4.069,2.197-6.445,2.197h-44.873v-28.418l2.197-7.373h-4.736v-9.814h14.014
		c1.139,0.651,1.709,2.019,1.709,4.102c-0.065,2.8-0.065,4.704,0,5.713h-2.588v25.977h12.109v-25.977h-5.225v-9.814h14.111
		c1.139,0.651,1.709,2.019,1.709,4.102v31.689h9.082c1.725,0,2.588-0.928,2.588-2.783v-23.193h-5.811v-9.814h14.746
		c1.106,0.651,1.66,2.019,1.66,4.102V710.114z M119.748,718.903H82.882v-9.814h22.266v-25.977H82.541v-9.814h28.223
		c1.432,0,2.62,0.545,3.564,1.636c0.944,1.091,1.416,2.385,1.416,3.882v30.273h4.004V718.903z M75.998,707.38
		c0,2.962-1.042,5.623-3.125,7.983c-2.083,2.36-4.476,3.54-7.178,3.54H34.982v-9.814h7.031v-25.977h-5.615v-9.814h14.111
		c1.399,0,2.1,0.928,2.1,2.783v33.008h10.4c1.595,0,2.393-0.862,2.393-2.588v-23.389h-5.908v-9.814H73.41
		c1.725,0,2.588,1.009,2.588,3.027V707.38z"/>
	<path id="path4169" fill="none" stroke="#400B70" stroke-width="15.0775" d="M356.168,128.727l1.1,54.946l15.434,20.158
		l-1.738,471.706"/>
	<path id="path9040" fill="#850C0C" d="M403.368,73.135l0.219,101.6l15.785,23.465h-29.336l-16.174-23.446l-0.289-101.618"/>
	<path id="rect6353" fill="#DCD6F1" d="M438.53,516.342h9.096v80.127h-9.096V516.342z"/>
	<path id="path9263" fill="#DCD6F1" d="M379.362,516.323h11.004v80.128h-11.004V516.323z"/>
</g>
</svg>
