<?xml version="1.0" encoding="utf-8"?>
<!-- Generator: Adobe Illustrator 15.1.0, SVG Export Plug-In . SVG Version: 6.00 Build 0)  -->
<!DOCTYPE svg PUBLIC "-//W3C//DTD SVG 1.1//EN" "http://www.w3.org/Graphics/SVG/1.1/DTD/svg11.dtd">
<svg version="1.1" id="Layer_1" xmlns="http://www.w3.org/2000/svg" xmlns:xlink="http://www.w3.org/1999/xlink" x="0px" y="0px"
	 width="688.667px" height="918.5px" viewBox="0 0 688.667 918.5" enable-background="new 0 0 688.667 918.5" xml:space="preserve">
<g>
	<g>
		<radialGradient id="SVGID_1_" cx="344.3335" cy="459.2495" r="403.8998" gradientUnits="userSpaceOnUse">
			<stop  offset="0" style="stop-color:#FDF6AA"/>
			<stop  offset="1" style="stop-color:#FBED00"/>
		</radialGradient>
		<path fill="url(#SVGID_1_)" d="M686.667,2c0,0,0,439.5,0,619.5s-177.334,295-342.334,295S2,801.5,2,621.5S2,2,2,2H686.667z"/>
		<path fill="#2C3494" d="M344.333,918.5c-84.102,0-169.494-29.315-234.281-80.43c-34.003-26.827-60.761-58.318-79.532-93.6
			C10.269,706.405,0,665.032,0,621.5V0h688.667v621.5c0,43.532-10.269,84.905-30.521,122.971
			c-18.771,35.281-45.529,66.772-79.532,93.6C513.828,889.184,428.436,918.5,344.333,918.5z M4,4v617.5
			c0,180.979,176.658,293,340.333,293c163.676,0,340.334-112.021,340.334-293V4H4z"/>
	</g>
	<rect x="1.833" y="2" fill="#FFFFFF" width="684" height="101.5"/>
	<g>
		<path fill="#2C3494" d="M17.692,27.486c0-2.271,0.435-4.474,1.305-6.613c0.87-2.137,1.903-3.207,3.101-3.207
			c0.435,0,0.708,0.104,0.82,0.312C23.029,18.187,23.056,18.528,23,19c-0.057,0.474-0.085,0.88-0.085,1.22
			c0.266,1.287,0.912,1.968,1.937,2.043l5.184,0.454c1.633,0.19,2.896,0.719,3.788,1.589c0.893,0.871,1.624,2.157,2.193,3.86
			c0.342,0.985,0.532,2.441,0.57,4.371c0.038,1.93-0.114,3.482-0.456,4.654c-0.19,0.644-0.579,0.908-1.168,0.795
			c-0.589-0.114-1.206-0.312-1.852-0.596c-0.646-0.284-1.386-0.142-2.222,0.426c-0.835,0.644-1.548,2.375-2.137,5.194
			c-0.589,2.819-0.655,5.818-0.199,8.997c1.367,10.407,3.854,15.251,7.463,14.531c0.885-5.865,1.714-10.065,2.489-12.601
			c0.553-2.081,1.65-4.588,3.292-7.521c1.641-2.932,2.613-4.947,2.917-6.045c0.646-2.081,0.875-3.349,0.689-3.803
			c-0.261-0.567-0.875-0.937-1.841-1.107c-0.967-0.17-1.706-0.369-2.213-0.596c-1.922-1.172-2.882-3.633-2.882-7.379
			c0-2.271,0.417-4.474,1.251-6.613c0.833-2.137,1.868-3.207,3.101-3.207c0.435,0,0.717,0.104,0.846,0.312
			c0.129,0.208,0.166,0.549,0.109,1.022c-0.057,0.474-0.085,0.88-0.085,1.22c0.076,0.53,0.322,0.985,0.74,1.362
			c0.418,0.379,0.817,0.568,1.197,0.568l5.126,0.511c3.303,0.341,5.354,1.987,6.152,4.938c0.987,3.671,0.854,6.888-0.398,9.649
			c-0.266,0.568-0.627,0.805-1.083,0.709c-0.456-0.094-0.968-0.284-1.538-0.567c-0.57-0.284-1.31-0.199-2.221,0.255
			c-0.569,0.265-1.063,1.003-1.481,2.214c-0.342,0.908-0.817,2.734-1.424,5.478c-0.608,2.744-1.196,4.891-1.763,6.442
			c-0.454,1.287-1.165,2.82-2.13,4.598c-0.966,1.779-1.748,3.444-2.346,4.995c-0.598,1.552-0.988,3.273-1.169,5.165h8.025
			c1.658,0,2.854-0.292,3.588-0.879c0.734-0.586,1.517-1.618,2.346-3.094c4.414-7.379,9.283-14.512,14.608-21.399
			c1.097-1.362,1.097-2.725,0-4.087c-0.644-0.832-1.854-1.268-3.633-1.306c-1.779-0.037-2.922-0.227-3.43-0.568
			c-2.031-1.21-3.046-3.783-3.046-7.72c0-2.271,0.417-4.474,1.251-6.613c0.834-2.137,1.868-3.207,3.101-3.207
			c0.435,0,0.717,0.104,0.846,0.312c0.129,0.208,0.166,0.549,0.109,1.022c-0.057,0.474-0.085,0.88-0.085,1.22
			c0.189,1.098,0.832,1.741,1.93,1.93l5.676,0.965c1.665,0.265,2.942,1.022,3.832,2.271c0.889,1.249,1.362,2.734,1.419,4.456
			c0.057,1.722-0.028,3.32-0.255,4.796c-0.227,1.476-0.53,2.838-0.908,4.087c-0.719,2.195-2.157,4.986-4.314,8.373
			c-2.157,3.387-3.52,5.591-4.087,6.613c-1.173,2.271-3.161,6.244-5.964,11.92s-4.938,9.915-6.404,12.715
			c-0.527,0.833-0.979,1.362-1.354,1.589s-1.054,0.341-2.032,0.341h-23.14c-0.715,0-1.242-0.114-1.581-0.341
			s-0.602-0.756-0.791-1.589c-0.64-2.762-1.336-5.827-2.088-9.195c-0.752-3.368-1.25-5.648-1.496-6.84
			c-0.245-1.192-0.527-2.592-0.846-4.201c-0.32-1.608-0.546-2.866-0.677-3.774c-0.132-0.908-0.273-1.949-0.423-3.122
			c-0.527-4.503,0.429-8.969,2.867-13.396c0.722-1.438,0.417-2.271-0.912-2.498c-0.11,0-0.383-0.019-0.82-0.057
			c-0.437-0.038-0.847-0.104-1.229-0.199c-0.383-0.094-0.757-0.274-1.12-0.54C18.566,33.239,17.692,30.892,17.692,27.486z"/>
		<path fill="#2C3494" d="M86.205,27.486c0-2.308,0.435-4.521,1.306-6.641c0.87-2.119,1.948-3.179,3.235-3.179
			c0.454,0,0.728,0.104,0.823,0.312c0.094,0.208,0.104,0.549,0.028,1.022c-0.076,0.474-0.076,0.88,0,1.22
			c0.075,0.53,0.302,0.985,0.681,1.362c0.378,0.379,0.775,0.568,1.192,0.568h1.987c4.768,0,7.682,2.063,8.741,6.187
			c0.643,2.46,0.586,5.109-0.17,7.947c2.989-1.476,5.25-3.311,6.783-5.506c1.533-2.194,2.847-4.805,3.945-7.833
			c0.34-0.832,0.72-1.314,1.141-1.447c0.419-0.132,1.011-0.104,1.774,0.085c3.207,0.568,5.983,1.741,8.33,3.52
			c2.347,1.779,4.169,4.011,5.468,6.698c1.298,2.688,2.242,5.544,2.834,8.571c0.591,3.028,0.888,6.357,0.888,9.99
			c0,9.953-1.18,19.281-3.538,27.984c-0.19,0.758-0.466,1.269-0.827,1.533c-0.362,0.265-0.922,0.397-1.684,0.397h-24.138
			c-1.027,0-1.645-0.208-1.854-0.625c-0.209-0.416-0.182-1.021,0.083-1.816l2.611-10.047c0.113-0.529,0.302-0.87,0.567-1.022
			c0.264-0.15,0.756-0.227,1.476-0.227h16.177c0.908,0,1.636-0.16,2.186-0.482c0.548-0.321,1.144-0.974,1.788-1.958
			c0.757-1.173,1.268-3.197,1.533-6.074c0.264-2.875,0.037-6.054-0.681-9.536c-0.833-3.368-2.441-6.064-4.825-8.089
			c-2.384-2.024-5.298-3.037-8.742-3.037c-6.207,0-11.173,3.472-14.9,10.416c-3.728,6.944-5.27,16.225-4.626,27.842
			c0.076,1.022-0.123,1.921-0.596,2.696c-0.474,0.776-1.032,1.344-1.675,1.703c-0.644,0.359-1.315,0.625-2.015,0.794
			c-0.701,0.17-1.325,0.189-1.873,0.057c-0.549-0.133-0.899-0.332-1.05-0.596c-0.19-0.341-0.284-1.306-0.284-2.895
			c0-8.136,0.804-14.994,2.413-20.576c1.608-5.582,4.172-10.794,7.691-15.638c0.529-0.719,0.643-1.457,0.34-2.214
			c-0.303-0.757-0.851-1.229-1.646-1.419c-0.833-0.189-1.779-0.312-2.838-0.369c-1.06-0.057-1.978-0.179-2.753-0.369
			c-0.776-0.189-1.58-0.604-2.412-1.249C87.17,33.996,86.205,31.309,86.205,27.486z"/>
		<path fill="#2C3494" d="M141.436,27.486c0-2.271,0.435-4.474,1.305-6.613c0.87-2.137,1.903-3.207,3.101-3.207
			c0.435,0,0.708,0.104,0.82,0.312c0.111,0.208,0.138,0.549,0.082,1.022c-0.057,0.474-0.085,0.88-0.085,1.22
			c0.266,1.287,0.912,1.968,1.937,2.043l5.184,0.454c1.633,0.19,2.896,0.719,3.788,1.589c0.893,0.871,1.624,2.157,2.193,3.86
			c0.342,0.985,0.532,2.441,0.57,4.371c0.038,1.93-0.114,3.482-0.456,4.654c-0.19,0.644-0.579,0.908-1.168,0.795
			c-0.589-0.114-1.206-0.312-1.852-0.596c-0.646-0.284-1.386-0.142-2.222,0.426c-0.835,0.644-1.548,2.375-2.137,5.194
			c-0.589,2.819-0.655,5.818-0.199,8.997c1.367,10.407,3.854,15.251,7.463,14.531c0.885-5.865,1.714-10.065,2.489-12.601
			c0.553-2.081,1.65-4.588,3.292-7.521c1.641-2.932,2.613-4.947,2.917-6.045c0.646-2.081,0.875-3.349,0.689-3.803
			c-0.261-0.567-0.875-0.937-1.841-1.107c-0.967-0.17-1.706-0.369-2.213-0.596c-1.922-1.172-2.882-3.633-2.882-7.379
			c0-2.271,0.417-4.474,1.251-6.613c0.833-2.137,1.868-3.207,3.101-3.207c0.435,0,0.717,0.104,0.846,0.312
			c0.129,0.208,0.166,0.549,0.109,1.022c-0.057,0.474-0.085,0.88-0.085,1.22c0.076,0.53,0.322,0.985,0.74,1.362
			c0.418,0.379,0.817,0.568,1.197,0.568l5.126,0.511c3.303,0.341,5.354,1.987,6.152,4.938c0.987,3.671,0.854,6.888-0.398,9.649
			c-0.266,0.568-0.627,0.805-1.083,0.709c-0.456-0.094-0.968-0.284-1.538-0.567c-0.57-0.284-1.31-0.199-2.221,0.255
			c-0.569,0.265-1.063,1.003-1.481,2.214c-0.342,0.908-0.817,2.734-1.424,5.478c-0.608,2.744-1.196,4.891-1.763,6.442
			c-0.454,1.287-1.165,2.82-2.13,4.598c-0.966,1.779-1.748,3.444-2.346,4.995c-0.598,1.552-0.988,3.273-1.169,5.165h8.025
			c1.658,0,2.854-0.292,3.588-0.879c0.734-0.586,1.517-1.618,2.346-3.094c4.414-7.379,9.283-14.512,14.608-21.399
			c1.097-1.362,1.097-2.725,0-4.087c-0.644-0.832-1.854-1.268-3.633-1.306c-1.779-0.037-2.922-0.227-3.43-0.568
			c-2.031-1.21-3.046-3.783-3.046-7.72c0-2.271,0.417-4.474,1.251-6.613c0.834-2.137,1.868-3.207,3.101-3.207
			c0.435,0,0.717,0.104,0.846,0.312c0.129,0.208,0.166,0.549,0.109,1.022c-0.057,0.474-0.085,0.88-0.085,1.22
			c0.189,1.098,0.832,1.741,1.93,1.93l5.676,0.965c1.665,0.265,2.942,1.022,3.832,2.271c0.889,1.249,1.362,2.734,1.419,4.456
			c0.057,1.722-0.028,3.32-0.255,4.796c-0.227,1.476-0.53,2.838-0.908,4.087c-0.719,2.195-2.157,4.986-4.314,8.373
			c-2.157,3.387-3.52,5.591-4.087,6.613c-1.173,2.271-3.161,6.244-5.964,11.92s-4.938,9.915-6.404,12.715
			c-0.527,0.833-0.979,1.362-1.354,1.589s-1.054,0.341-2.032,0.341h-23.14c-0.715,0-1.242-0.114-1.581-0.341
			s-0.602-0.756-0.791-1.589c-0.64-2.762-1.336-5.827-2.088-9.195c-0.752-3.368-1.25-5.648-1.496-6.84
			c-0.245-1.192-0.527-2.592-0.846-4.201c-0.32-1.608-0.546-2.866-0.677-3.774c-0.132-0.908-0.273-1.949-0.423-3.122
			c-0.527-4.503,0.429-8.969,2.867-13.396c0.722-1.438,0.417-2.271-0.912-2.498c-0.11,0-0.383-0.019-0.82-0.057
			c-0.437-0.038-0.847-0.104-1.229-0.199c-0.383-0.094-0.757-0.274-1.12-0.54C142.309,33.239,141.436,30.892,141.436,27.486z"/>
		<path fill="#2C3494" d="M208.585,54.392l1.816-7.152c0.189-0.983,0.775-1.476,1.76-1.476h27.53
			c1.286,0.038,1.76,0.701,1.419,1.987l-1.816,7.152c-0.265,0.984-0.889,1.458-1.873,1.419h-27.417
			C208.793,56.322,208.32,55.679,208.585,54.392z"/>
		<path fill="#2C3494" d="M246.548,79.651c-0.208-0.416-0.18-1.021,0.085-1.816l2.611-10.047c0.113-0.529,0.302-0.87,0.567-1.022
			c0.264-0.15,0.756-0.227,1.476-0.227h3.803c0.757,0,1.381-0.085,1.874-0.255c0.491-0.17,0.803-0.444,0.937-0.823
			c0.132-0.378,0.199-0.681,0.199-0.908s-0.089-0.662-0.265-1.306c-0.175-0.643-0.263-1.041-0.263-1.192
			c-0.984-5.109-0.945-10.009,0.117-14.702c1.015-4.503,3.438-8.325,7.266-11.466h-1.694c-2.748,0-4.789-0.671-6.125-2.015
			c-1.336-1.343-2.004-3.471-2.004-6.386c0-2.271,0.413-4.474,1.241-6.613c0.827-2.137,1.852-3.207,3.075-3.207
			c0.468,0,0.752,0.104,0.85,0.312c0.098,0.208,0.117,0.549,0.059,1.022c-0.059,0.474-0.049,0.88,0.029,1.22
			c0.078,0.53,0.312,0.985,0.702,1.362c0.39,0.379,0.781,0.568,1.173,0.568h25.746c2.003,0,3.733,0.388,5.189,1.164
			c1.456,0.776,2.571,1.826,3.346,3.15c0.775,1.325,1.342,2.678,1.701,4.059c0.359,1.382,0.539,2.848,0.539,4.399
			c0,3.936-0.02,10.142-0.057,18.618c-0.038,8.477-0.057,14.248-0.057,17.312c0,3.028-0.19,5.128-0.568,6.301
			c-0.34,1.022-1.021,1.893-2.043,2.611c-1.021,0.718-1.949,1.079-2.781,1.079c-0.378,0-0.701-0.162-0.965-0.483
			c-0.265-0.321-0.397-0.671-0.397-1.05V43.834c0-2.914-0.634-4.967-1.902-6.159s-3.586-1.788-6.954-1.788h-6.926
			c-1.931,0-3.455,0.312-4.571,0.937c-1.116,0.625-2.318,1.77-3.604,3.435c-2.196,2.838-3.353,6.396-3.47,10.671
			c-0.078,2.536,0.263,5.658,1.025,9.366c0.762,3.709,1.144,6.944,1.144,9.707c0,3.217-0.762,6.055-2.285,8.514
			c-0.743,1.173-1.778,1.76-3.106,1.76h-12.87C247.371,80.276,246.756,80.068,246.548,79.651z"/>
		<path fill="#2C3494" d="M306.956,27.373c0-2.308,0.439-4.503,1.319-6.584c0.879-2.081,1.906-3.122,3.078-3.122
			c0.513,0,0.817,0.104,0.911,0.312c0.094,0.208,0.103,0.587,0.027,1.135c-0.076,0.549-0.113,0.956-0.113,1.221
			c0.113,0.53,0.377,0.965,0.794,1.306c0.416,0.34,0.813,0.511,1.192,0.511h5.62c3.027,0,5.279,0.577,6.755,1.731
			c1.476,1.155,2.516,3.416,3.122,6.783c0.529,2.838,0.463,5.847-0.199,9.025c-0.663,3.179-1.826,5.979-3.491,8.401
			c-1.627,2.46-3.312,4.447-5.052,5.96c-1.741,1.514-3.16,1.703-4.257,0.568c-0.984-1.097-0.701-2.421,0.852-3.974
			c3.86-3.67,5.506-7.228,4.938-10.671c-0.19-1.286-0.767-2.289-1.731-3.008c-0.965-0.718-2.091-1.079-3.377-1.079h-2.44
			c-2.733,0-4.741-0.69-6.023-2.072C307.597,32.435,306.956,30.288,306.956,27.373z"/>
		<path fill="#2C3494" d="M336.473,79.651c-0.227-0.416-0.208-1.021,0.057-1.816l2.611-10.047c0.113-0.529,0.302-0.87,0.567-1.022
			c0.264-0.15,0.756-0.227,1.476-0.227h21.61c2.086,0,3.375-0.264,3.869-0.794c0.91-0.908,1.658-2.715,2.246-5.421
			c0.588-2.705,0.883-5.685,0.883-8.94c0-5.298-0.721-9.158-2.162-11.58c-1.631-2.573-4.381-3.879-8.248-3.917h-13.709
			c-2.706,0-4.709-0.671-6.006-2.015c-1.298-1.343-1.946-3.471-1.946-6.386c0-2.271,0.421-4.474,1.264-6.613
			c0.842-2.137,1.887-3.207,3.133-3.207c0.442,0,0.708,0.104,0.8,0.312c0.092,0.208,0.11,0.549,0.053,1.022
			c-0.057,0.474-0.067,0.88-0.028,1.22c0.075,0.53,0.312,0.985,0.71,1.362c0.398,0.379,0.825,0.568,1.281,0.568h21.331
			c1.098,0,2.357,0.303,3.777,0.908c1.42,0.605,2.547,1.589,3.381,2.952c2.082,3.746,3.123,9.631,3.123,17.653
			c0,7.493-1.646,14.758-4.938,21.797c-0.076,0.189-0.076,0.417,0,0.681c0.074,0.265,0.227,0.397,0.453,0.397h6.982
			c0.984,0,1.59,0.19,1.816,0.568c0.227,0.379,0.207,0.965-0.057,1.76l-2.611,9.479c-0.189,0.758-0.445,1.269-0.766,1.533
			c-0.322,0.265-0.975,0.397-1.959,0.397H338.29C337.305,80.276,336.7,80.068,336.473,79.651z"/>
		<path fill="#2C3494" d="M420.015,79.651c-0.208-0.416-0.18-1.021,0.086-1.816l2.61-10.047c0.114-0.529,0.303-0.87,0.568-1.022
			c0.264-0.15,0.756-0.227,1.476-0.227h3.803c0.757,0,1.381-0.085,1.873-0.255c0.491-0.17,0.804-0.444,0.937-0.823
			c0.133-0.378,0.199-0.681,0.199-0.908s-0.089-0.662-0.265-1.306c-0.176-0.643-0.264-1.041-0.264-1.192
			c-0.984-5.109-0.945-10.009,0.117-14.702c1.016-4.503,3.438-8.325,7.266-11.466h-1.693c-2.748,0-4.79-0.671-6.125-2.015
			c-1.337-1.343-2.005-3.471-2.005-6.386c0-2.271,0.413-4.474,1.241-6.613c0.826-2.137,1.852-3.207,3.074-3.207
			c0.469,0,0.753,0.104,0.85,0.312c0.098,0.208,0.117,0.549,0.059,1.022c-0.059,0.474-0.049,0.88,0.029,1.22
			c0.078,0.53,0.312,0.985,0.703,1.362c0.39,0.379,0.781,0.568,1.172,0.568h25.747c2.003,0,3.732,0.388,5.188,1.164
			c1.456,0.776,2.571,1.826,3.347,3.15c0.775,1.325,1.342,2.678,1.701,4.059c0.359,1.382,0.539,2.848,0.539,4.399
			c0,3.936-0.02,10.142-0.057,18.618c-0.038,8.477-0.057,14.248-0.057,17.312c0,3.028-0.189,5.128-0.567,6.301
			c-0.341,1.022-1.022,1.893-2.044,2.611c-1.021,0.718-1.949,1.079-2.781,1.079c-0.379,0-0.7-0.162-0.965-0.483
			c-0.266-0.321-0.397-0.671-0.397-1.05V43.834c0-2.914-0.634-4.967-1.902-6.159s-3.586-1.788-6.954-1.788h-6.926
			c-1.932,0-3.455,0.312-4.571,0.937c-1.117,0.625-2.318,1.77-3.604,3.435c-2.196,2.838-3.353,6.396-3.47,10.671
			c-0.078,2.536,0.264,5.658,1.025,9.366c0.762,3.709,1.143,6.944,1.143,9.707c0,3.217-0.762,6.055-2.284,8.514
			c-0.743,1.173-1.778,1.76-3.106,1.76h-12.87C420.838,80.276,420.223,80.068,420.015,79.651z"/>
		<path fill="#2C3494" d="M480.422,27.373c0-2.308,0.439-4.503,1.319-6.584c0.88-2.081,1.905-3.122,3.078-3.122
			c0.513,0,0.817,0.104,0.911,0.312c0.094,0.208,0.103,0.587,0.027,1.135c-0.076,0.549-0.113,0.956-0.113,1.221
			c0.113,0.53,0.378,0.965,0.795,1.306c0.415,0.34,0.812,0.511,1.191,0.511h5.62c3.026,0,5.278,0.577,6.754,1.731
			c1.477,1.155,2.517,3.416,3.122,6.783c0.529,2.838,0.463,5.847-0.198,9.025c-0.663,3.179-1.826,5.979-3.491,8.401
			c-1.627,2.46-3.312,4.447-5.052,5.96c-1.741,1.514-3.16,1.703-4.257,0.568c-0.984-1.097-0.701-2.421,0.852-3.974
			c3.859-3.67,5.506-7.228,4.938-10.671c-0.189-1.286-0.766-2.289-1.73-3.008c-0.966-0.718-2.092-1.079-3.378-1.079h-2.44
			c-2.732,0-4.741-0.69-6.023-2.072C481.064,32.435,480.422,30.288,480.422,27.373z"/>
		<path fill="#2C3494" d="M512.153,27.373c0-2.308,0.439-4.503,1.319-6.584c0.88-2.081,1.905-3.122,3.078-3.122
			c0.513,0,0.817,0.104,0.911,0.312c0.094,0.208,0.103,0.587,0.027,1.135c-0.076,0.549-0.113,0.956-0.113,1.221
			c0.113,0.53,0.378,0.965,0.795,1.306c0.415,0.34,0.812,0.511,1.191,0.511h5.62c3.026,0,5.278,0.577,6.754,1.731
			c1.477,1.155,2.517,3.416,3.122,6.783c0.529,2.838,0.463,5.847-0.198,9.025c-0.663,3.179-1.826,5.979-3.491,8.401
			c-1.627,2.46-3.312,4.447-5.052,5.96c-1.741,1.514-3.16,1.703-4.257,0.568c-0.984-1.097-0.701-2.421,0.852-3.974
			c3.859-3.67,5.506-7.228,4.938-10.671c-0.189-1.286-0.766-2.289-1.73-3.008c-0.966-0.718-2.092-1.079-3.378-1.079h-2.44
			c-2.732,0-4.741-0.69-6.023-2.072C512.794,32.435,512.153,30.288,512.153,27.373z"/>
		<path fill="#2C3494" d="M543.998,27.486c0-2.271,0.435-4.474,1.305-6.613c0.87-2.137,1.949-3.207,3.236-3.207
			c0.454,0,0.728,0.104,0.822,0.312c0.095,0.208,0.104,0.549,0.028,1.022c-0.076,0.474-0.076,0.88,0,1.22
			c0.076,0.53,0.303,0.985,0.682,1.362c0.378,0.379,0.775,0.568,1.192,0.568h23.783c2.081,0,3.85,0.388,5.308,1.164
			c1.456,0.776,2.572,1.826,3.349,3.15c0.775,1.325,1.324,2.678,1.646,4.059c0.32,1.382,0.482,2.848,0.482,4.399
			c0,3.936,0,10.142,0,18.618c0,8.477,0,14.248,0,17.312c0,3.028-0.19,5.128-0.568,6.301c-0.378,1.022-1.069,1.893-2.071,2.611
			c-1.003,0.718-1.939,1.079-2.81,1.079c-0.379,0-0.701-0.162-0.965-0.483c-0.266-0.321-0.397-0.671-0.397-1.05V43.834
			c0-2.914-0.625-4.967-1.873-6.159c-1.249-1.192-3.596-1.788-7.039-1.788h-17.994c-2.838,0-4.9-0.671-6.187-2.015
			C544.64,32.529,543.998,30.401,543.998,27.486z"/>
		<path fill="#2C3494" d="M593.267,27.373c0-2.308,0.439-4.503,1.319-6.584c0.88-2.081,1.905-3.122,3.078-3.122
			c0.513,0,0.817,0.104,0.911,0.312c0.094,0.208,0.103,0.587,0.027,1.135c-0.076,0.549-0.113,0.956-0.113,1.221
			c0.113,0.53,0.378,0.965,0.795,1.306c0.415,0.34,0.812,0.511,1.191,0.511h5.62c3.026,0,5.278,0.577,6.754,1.731
			c1.477,1.155,2.517,3.416,3.122,6.783c0.529,2.838,0.463,5.847-0.198,9.025c-0.663,3.179-1.826,5.979-3.491,8.401
			c-1.627,2.46-3.312,4.447-5.052,5.96c-1.741,1.514-3.16,1.703-4.257,0.568c-0.984-1.097-0.701-2.421,0.852-3.974
			c3.859-3.67,5.506-7.228,4.938-10.671c-0.189-1.286-0.766-2.289-1.73-3.008c-0.966-0.718-2.092-1.079-3.378-1.079h-2.44
			c-2.732,0-4.741-0.69-6.023-2.072C593.909,32.435,593.267,30.288,593.267,27.373z"/>
		<path fill="#2C3494" d="M624.089,92.083l0.795-11.296c0.075-0.832,0.256-1.419,0.539-1.76c0.284-0.34,0.785-0.643,1.505-0.908
			l11.238-4.257c1.816-0.719,3.33-1.637,4.541-2.753c1.211-1.116,1.778-2.356,1.703-3.718c-0.113-1.172-0.445-2.261-0.993-3.264
			c-0.549-1.002-1.003-1.693-1.362-2.072c-0.36-0.378-1.013-1.022-1.958-1.93c-1.287-1.21-2.309-2.204-3.065-2.98
			c-0.758-0.775-1.523-1.797-2.299-3.065c-0.776-1.268-1.259-2.507-1.447-3.718c-0.19-1.21-0.105-2.904,0.255-5.08
			c0.359-2.176,0.672-3.86,0.937-5.052c0.265-1.192,0.228-2.242-0.113-3.15c-0.454-0.53-1.438-0.956-2.951-1.277
			c-1.515-0.321-2.574-0.633-3.179-0.937c-2.12-1.211-3.179-3.67-3.179-7.379c0-2.271,0.435-4.474,1.305-6.613
			c0.87-2.137,1.949-3.207,3.236-3.207c0.454,0,0.728,0.104,0.822,0.312c0.095,0.208,0.114,0.549,0.057,1.022
			c-0.057,0.474-0.048,0.88,0.029,1.22c0.113,0.985,0.718,1.589,1.816,1.816c0.908,0.19,2.279,0.369,4.115,0.54
			c1.835,0.17,3.32,0.464,4.455,0.88c1.136,0.417,2.157,1.173,3.065,2.271c0.757,0.984,1.201,2.829,1.334,5.534
			c0.132,2.706-0.274,4.796-1.221,6.272c-0.189,0.265-0.87,0.17-2.043-0.284c-1.174-0.454-2.025-0.473-2.555-0.057
			c-0.53,0.341-0.852,1.419-0.965,3.235s0.113,3.576,0.682,5.279c0.378,1.021,1.2,2.167,2.469,3.434
			c1.268,1.268,2.535,2.621,3.803,4.059c1.268,1.438,2.147,3.008,2.64,4.711c0.984,3.028,0.984,6.453,0,10.274
			c1.627-1.097,2.81-2.459,3.548-4.087c0.738-1.627,1.419-3.604,2.044-5.932c0.624-2.328,1.353-4.286,2.185-5.875
			c0.832-1.665,1.931-3.52,3.293-5.563s2.384-3.661,3.064-4.853c0.682-1.192,1.022-2.279,1.022-3.264
			c-0.075-0.643-0.342-1.172-0.803-1.589c-0.461-0.416-1.043-0.662-1.744-0.738c-3.026-0.189-5.222-0.974-6.588-2.355
			c-1.366-1.381-2.048-3.528-2.048-6.443c0-2.271,0.424-4.474,1.271-6.613c0.849-2.137,1.899-3.207,3.153-3.207
			c0.442,0,0.711,0.104,0.803,0.312c0.092,0.208,0.11,0.549,0.055,1.022c-0.055,0.474-0.046,0.88,0.027,1.22
			c0.074,0.719,0.406,1.249,0.996,1.589c0.59,0.341,1.171,0.549,1.742,0.625c0.571,0.076,1.355,0.152,2.352,0.227
			c0.185,0,0.331,0,0.442,0c6.572,0.265,10.072,2.744,10.501,7.436c0.113,1.287,0.006,2.498-0.323,3.633
			c-0.33,1.135-0.689,1.997-1.078,2.583c-0.39,0.587-1.021,1.391-1.897,2.413c-0.877,1.021-1.469,1.798-1.777,2.327
			c-1.198,1.666-2.261,3.747-3.188,6.244c-0.928,2.498-1.623,4.664-2.086,6.499c-0.464,1.836-1.082,4.589-1.854,8.259
			c-0.076,0.113-0.189,0.567-0.341,1.362c-0.151,0.794-0.246,1.268-0.283,1.419c-0.038,0.152-0.142,0.567-0.312,1.249
			c-0.17,0.681-0.283,1.135-0.341,1.362c-0.057,0.227-0.17,0.644-0.34,1.249c-0.171,0.606-0.322,1.06-0.454,1.362
			c-0.134,0.303-0.275,0.691-0.426,1.164c-0.152,0.474-0.322,0.89-0.511,1.249c-0.19,0.36-0.397,0.748-0.625,1.164
			c-0.227,0.417-0.474,0.814-0.737,1.192c-1.666,2.536-3.473,4.532-5.421,5.988c-1.95,1.457-4.306,2.829-7.067,4.116l-18.334,8.514
			c-0.833,0.454-1.391,0.605-1.675,0.454C624.061,93.747,623.976,93.142,624.089,92.083z"/>
	</g>
	<path fill="#2C3494" d="M484.833,736.75c6.083-4.779,28.955-18.235,34.849-21.683l32.901,26.683l73-200.5l-79.696,68.898
		c-2.129-3.08-4.73-6.818-7.886-11.313c-12.166-17.333-27.334-25.167-35.334-19.5s1.834,26.833,9.834,43.333
		c3.087,5.705,5.122,9.048,6.315,10.884l-9.149,7.909c-3.015-1.573-8.654-4.127-13.5-4.127c-3.166,0-7.834,1.833-7.834,7.665
		c0,4.755,1.395,9.31,2.711,12.562l-15.703,13.576c-0.402-1.402-1.025-2.644-2.015-3.336c-1.827-1.278-5.796-0.295-7.494,0.714
		c-3.606,2.142-6.399,6.207-8.299,9.792c-1.213,2.291-2.033,4.386-2.79,6.892c-3.346,11.065-9.118,20.761-13.91,31.302
		c-2.271,4.996-4.112,11.291-6.667,16.167c-0.644,1.229-0.993,2.707-1.409,4.11c-4.383,1.153-8.738,2.007-12.424,2.224
		c-1.582,0.093-6.67,0.16-14.303,0.221c5.854-8.343,17.827-22.277,19.553-25.722c2.334-4.655,8.807-30.617-4.5-27.5
		S380.76,719.626,379,723.804c-0.896,2.128-2.145,9.009-2.148,15.593c-8.599,0.048-18.057,0.103-28.002,0.17
		c5.188-7.769,16.38-21.366,18.949-24.393c3.372-3.968,13.599-27.873-0.067-28.002c-13.667-0.129-38.604,28.304-41.304,31.944
		c-1.853,2.498-3.622,12.686-4.568,20.666c-12.781,0.119-25.794,0.268-38.365,0.461c5.204-7.867,15.999-21.236,18.505-24.244
		c3.333-4,13.333-28-0.333-28s-38.333,28.667-41,32.333c-1.808,2.485-3.462,12.478-4.34,20.423
		c-10.244,0.236-19.74,0.515-28.017,0.846c4.516-7.404,16.974-22.842,19.69-26.102c3.333-4,13.333-28-0.333-28
		s-38.333,28.667-41,32.333c-2.051,2.819-3.903,15.296-4.65,23.487c-0.976,0.123-1.831,0.25-2.567,0.381l-39.382-97.399
		l23.895-9.974c14.016-5.85,20.635-21.955,14.785-35.971s-21.954-20.638-35.971-14.785l-76.667,32
		c-14.016,5.85-20.635,21.955-14.785,35.971c4.405,10.555,14.625,16.914,25.389,16.914c3.53,0,7.12-0.684,10.582-2.129
		l26.931-11.241l41.116,101.688C153.484,777.605,128,807.333,128,807.333s1.333,6.334,7.333,6.334s8-3.667,9.333-5.334
		s26.667-33.333,34-40.333c0.095-0.091,0.2-0.181,0.296-0.271l26.761,66.185c2.203,5.448,7.447,8.756,12.984,8.756
		c1.747,0,3.523-0.329,5.243-1.024c7.168-2.898,10.629-11.06,7.731-18.228l-25.435-62.906c5.568,10.74,14.502,25.062,16.753,27.988
		c3.333,4.333,27.667,18.667,31.667,18.667c1.917,0,3-1.667,3-5s-9.667-19-13.333-23c-2.782-3.034-11.503-19.103-15.555-28.145
		c7.444-0.229,16.656-0.446,26.962-0.652c1.2,7.035,18.046,34.451,21.26,38.63c3.333,4.333,27.667,18.667,31.667,18.667
		c1.917,0,3-1.667,3-5s-9.667-19-13.333-23c-2.957-3.226-12.629-21.186-16.265-29.769c12.69-0.206,26.046-0.398,39.191-0.578
		c1.411,7.36,17.707,34.446,20.852,38.615c3.292,4.364,27.489,18.928,31.488,18.965c1.917,0.019,3.016-1.639,3.048-4.971
		c0.031-3.333-9.487-19.091-13.115-23.125c-2.917-3.243-12.365-21.183-15.946-29.833c11.139-0.145,21.628-0.278,30.842-0.401
		c0.96,2.078,2.104,3.691,2.395,4.935c1.294,5.517,26.886,24.988,31.119,28.447c1.232,1.007,4.396,2.434,8.352,3.927
		c-3.104,2.677-6.188,5.317-9.209,7.871c-27.5,23.25-36.75,38-36.75,46s9.25,13,15.75,13s15-3.75,17.25-7.25
		c1.113-1.731,18.376-27.015,36.387-52.791c1.544,0.254,2.705,0.337,3.31,0.195c1.866-0.437,2.541-2.308,1.781-5.552
		c-0.072-0.307-0.253-0.7-0.525-1.165c8.064-11.495,16.013-22.691,22.477-31.541c7.593,0.83,15.161,1.998,22.883,2.359
		c6.586,0.309,13.268,0.005,19.865-0.006c4.702-0.008,9.584,1.541,14.335,0.756c3.6-0.595,4.048-2.333,1.551-4.823
		c-2.156-2.151-5.929-3.009-8.874-3.94c-3.764-1.191-7.981-2.07-11.822-2.984c-9.331-2.222-18.89-2.85-28.349-4.124
		C482.493,739.17,484.049,737.366,484.833,736.75z M464.833,716.5c1.773-3.258,3.579-5.593,4.671-9.087
		c1.676-5.362,3.316-10.26,4.571-15.786c0.916-4.03,1.787-7.872,1.976-11.943l21.391,17.348
		c-6.41,4.889-25.156,19.144-35.785,26.828c0.139-0.301,0.276-0.604,0.414-0.883C462.947,721.199,463.868,718.275,464.833,716.5z
		 M430.583,768c-4.062-2.771-21.834-10.501-26.687-19.808c3.848-0.068,6.733-0.133,8.437-0.191
		c6.854-0.236,13.955-1.815,20.391-3.812c0.476,0.739,1.396,1.489,1.914,2.072c0.845,0.95,1.695,1.89,2.827,2.507
		c2.044,1.114,4.619,1.768,6.979,2.226c4.343,0.841,8.704,1.567,13.074,2.173c-6.367,5.614-13.867,12.279-21.744,19.208
		C433.69,770.437,431.815,768.839,430.583,768z M467.173,739.441c-2.006-0.511-6.819-0.746-8.282-2.504
		c-0.855-1.027-0.383-1.512-0.295-2.731c0.037-0.517,0.117-1.069,0.215-1.635c9.17-6.403,35.069-25.401,43.498-31.593l14.239,11.548
		c-7.945,4.979-36.839,23.07-40.715,25.224c-0.66,0.367-1.944,1.346-3.716,2.798C470.463,740.222,468.814,739.86,467.173,739.441z"
		/>
	<path fill="#2C3494" d="M344.333,918.5c-84.102,0-169.494-29.315-234.281-80.43c-34.003-26.827-60.761-58.318-79.532-93.6
		C10.269,706.405,0,665.032,0,621.5V0h688.667v621.5c0,43.532-10.269,84.905-30.521,122.971
		c-18.771,35.281-45.529,66.772-79.532,93.6C513.828,889.184,428.436,918.5,344.333,918.5z M4,4v617.5
		c0,180.979,176.658,293,340.333,293c163.676,0,340.334-112.021,340.334-293V4H4z"/>
	<rect x="1.833" y="174.067" fill="#2C3494" width="685.5" height="4"/>
	<rect x="1.833" y="101.067" fill="#2C3494" width="685.5" height="4"/>
	<rect x="1.833" y="247.067" fill="#2C3494" width="685.5" height="4"/>
	<rect x="1.833" y="320.067" fill="#2C3494" width="685.5" height="4"/>
	<rect x="1.833" y="395.067" fill="#2C3494" width="685.5" height="4"/>
	<rect x="1.833" y="467.567" fill="#2C3494" width="685.5" height="4"/>
	<rect x="1.833" y="540.067" fill="#2C3494" width="685.5" height="4"/>
	<rect x="1.833" y="610.567" fill="#2C3494" width="685.5" height="4"/>
	<rect x="10" y="684.465" fill="#2C3494" width="669.166" height="4"/>
	<rect x="41.334" y="758.647" fill="#2C3494" width="606.5" height="4"/>
	<rect x="107.667" y="832.829" fill="#2C3494" width="473.833" height="4"/>
	<rect x="139.333" y="542" fill="#2C3494" width="4" height="316"/>
	<rect x="545.083" y="542" fill="#2C3494" width="4" height="316"/>
	<rect x="342.333" y="612.5" fill="#2C3494" width="4" height="304"/>
	<g>
		<g>
			<polygon fill="#2C3494" points="424.07,613 424.07,542.5 519.07,542.5 519.07,470 570.07,470 570.07,397.5 616.07,397.5 
				616.07,322.5 572.07,322.5 572.07,249 518.07,249 518.07,176.5 464.07,176.5 464.07,133 224.602,133 224.602,176.5 
				170.602,176.5 170.602,249 116.602,249 116.602,322.5 72.602,322.5 72.602,397.5 118.602,397.5 118.602,470 169.602,470 
				169.602,542.5 264.602,542.5 264.602,613 			"/>
		</g>
		<polygon fill="#FFFFFF" points="198.958,478.375 242.833,467.875 334.208,493.375 		"/>
		<polygon fill="#FFFFFF" points="328.604,524.984 326.73,520.349 468.161,463.175 468.625,463.167 507.125,462.5 507.21,467.5 
			469.174,468.158 		"/>
		<path fill="#FFFFFF" d="M408.261,541.258l-3.855-3.184c1.092-1.323,27.018-32.408,50.262-32.408
			c20.303,0,34.524,17.528,35.12,18.274l-3.908,3.119c-0.13-0.162-13.349-16.394-31.212-16.394
			C433.778,510.667,408.514,540.953,408.261,541.258z"/>
		<path fill="#FFFFFF" d="M418.368,589.136c-0.484-0.295-48.747-29.469-77.367-29.469c-25.613,0-55.287,24.025-55.584,24.268
			l-3.167-3.869c1.267-1.037,31.34-25.398,58.75-25.398c30.023,0,77.941,28.965,79.967,30.197L418.368,589.136z"/>
		<path fill="#FFFFFF" d="M208.76,525.416l-2.185-4.498c1.226-0.595,30.225-14.584,48.259-14.584
			c18.207,0,31.645,8.707,32.208,9.078l-2.749,4.176c-0.124-0.08-12.804-8.254-29.459-8.254
			C237.951,511.333,209.05,525.274,208.76,525.416z"/>
		<g>
			<defs>
				<path id="SVGID_2_" d="M344.334,146.861c-107.512,0-194.667,87.155-194.667,194.667c0,35.912,9.736,69.546,26.695,98.426
					C224.529,460.154,282.976,472,346,472c61.113,0,117.926-11.137,165.231-30.229C528.857,412.489,539,378.194,539,341.528
					C539,234.017,451.846,146.861,344.334,146.861z"/>
			</defs>
			<clipPath id="SVGID_3_">
				<use xlink:href="#SVGID_2_"  overflow="visible"/>
			</clipPath>
			<g clip-path="url(#SVGID_3_)">
				<radialGradient id="SVGID_4_" cx="344.3335" cy="341.5278" r="113.4995" gradientUnits="userSpaceOnUse">
					<stop  offset="0" style="stop-color:#FDF6AA"/>
					<stop  offset="1" style="stop-color:#FBED00"/>
				</radialGradient>
				<circle fill="url(#SVGID_4_)" cx="344.334" cy="341.528" r="113.499"/>
				<g>
					<rect x="343.334" y="149.694" fill="#FBED00" width="2" height="63.333"/>
					
						<rect x="281.421" y="183.437" transform="matrix(0.1951 0.9808 -0.9808 0.1951 432.9018 -158.6156)" fill="#FBED00" width="63.333" height="2"/>
					
						<rect x="251.375" y="192.552" transform="matrix(0.3827 0.9239 -0.9239 0.3827 353.5468 -142.0131)" fill="#FBED00" width="63.334" height="2"/>
					
						<rect x="223.684" y="207.352" transform="matrix(0.5556 0.8315 -0.8315 0.5556 286.7232 -119.7184)" fill="#FBED00" width="63.334" height="2"/>
					
						<rect x="199.412" y="227.271" transform="matrix(0.7071 0.7071 -0.7071 0.7071 229.0931 -96.5387)" fill="#FBED00" width="63.334" height="2"/>
					
						<rect x="179.493" y="251.541" transform="matrix(0.8315 0.5556 -0.5556 0.8315 175.885 -74.7527)" fill="#FBED00" width="63.334" height="2"/>
					
						<rect x="164.692" y="279.232" transform="matrix(0.9239 0.3827 -0.3827 0.9239 122.183 -53.811)" fill="#FBED00" width="63.334" height="2"/>
					
						<rect x="155.577" y="309.278" transform="matrix(0.9808 0.1951 -0.1951 0.9808 64.1269 -30.5665)" fill="#FBED00" width="63.335" height="2"/>
					<rect x="152.499" y="340.524" fill="#FBED00" width="63.335" height="2"/>
					
						<rect x="186.243" y="341.104" transform="matrix(0.1953 0.9807 -0.9807 0.1953 516.2759 116.3418)" fill="#FBED00" width="2" height="63.335"/>
					
						<rect x="195.357" y="371.15" transform="matrix(0.3828 0.9238 -0.9238 0.3828 493.3229 67.2148)" fill="#FBED00" width="2" height="63.335"/>
					
						<rect x="210.158" y="398.841" transform="matrix(0.5556 0.8314 -0.8314 0.5556 451.7843 15.7507)" fill="#FBED00" width="2" height="63.335"/>
					
						<rect x="230.076" y="423.112" transform="matrix(0.7071 0.7071 -0.7071 0.7071 389.2589 -30.1935)" fill="#FBED00" width="2" height="63.336"/>
					
						<rect x="254.347" y="443.032" transform="matrix(0.8314 0.5556 -0.5556 0.8314 306.7827 -61.8598)" fill="#FBED00" width="2" height="63.336"/>
					
						<rect x="282.038" y="457.833" transform="matrix(0.9238 0.3828 -0.3828 0.9238 208.9469 -71.063)" fill="#FBED00" width="2" height="63.336"/>
					
						<rect x="312.084" y="466.948" transform="matrix(0.9807 0.1953 -0.1953 0.9807 103.3923 -51.5376)" fill="#FBED00" width="2" height="63.336"/>
					<rect x="343.331" y="470.025" fill="#FBED00" width="2" height="63.337"/>
					
						<rect x="343.91" y="497.616" transform="matrix(0.1951 0.9808 -0.9808 0.1951 791.3335 32.9712)" fill="#FBED00" width="63.336" height="1.999"/>
					
						<rect x="373.957" y="488.502" transform="matrix(0.3827 0.9239 -0.9239 0.3827 702.6259 -72.5784)" fill="#FBED00" width="63.336" height="2"/>
					
						<rect x="401.648" y="473.701" transform="matrix(0.5556 0.8315 -0.8315 0.5556 587.2584 -149.3225)" fill="#FBED00" width="63.336" height="1.999"/>
					
						<rect x="425.919" y="453.783" transform="matrix(0.7071 0.7071 -0.7071 0.7071 455.5901 -190.3604)" fill="#FBED00" width="63.337" height="2"/>
					
						<rect x="445.837" y="429.512" transform="matrix(0.8315 0.5556 -0.5556 0.8315 319.6495 -192.7329)" fill="#FBED00" width="63.338" height="2"/>
					
						<rect x="460.639" y="401.821" transform="matrix(0.9239 0.3827 -0.3827 0.9239 191.6268 -157.7347)" fill="#FBED00" width="63.338" height="2"/>
					
						<rect x="469.753" y="371.774" transform="matrix(0.9808 0.1951 -0.1951 0.9808 82.3579 -90.6585)" fill="#FBED00" width="63.338" height="2"/>
					<rect x="472.832" y="340.528" fill="#FBED00" width="63.338" height="2"/>
					
						<rect x="500.423" y="278.611" transform="matrix(0.1953 0.9807 -0.9807 0.1953 707.817 -242.0791)" fill="#FBED00" width="2" height="63.338"/>
					
						<rect x="491.309" y="248.564" transform="matrix(0.3828 0.9238 -0.9238 0.3828 562.7349 -281.8511)" fill="#FBED00" width="2" height="63.339"/>
					
						<rect x="476.508" y="220.873" transform="matrix(0.5556 0.8314 -0.8314 0.5556 422.1803 -284.7942)" fill="#FBED00" width="2" height="63.339"/>
					
						<rect x="456.589" y="196.602" transform="matrix(0.7071 0.7071 -0.7071 0.7071 295.4371 -256.7054)" fill="#FBED00" width="2" height="63.339"/>
					
						<rect x="432.319" y="176.683" transform="matrix(0.8313 0.5558 -0.5558 0.8313 188.9096 -205.7005)" fill="#FBED00" width="1.999" height="63.339"/>
					
						<rect x="404.627" y="161.882" transform="matrix(0.9238 0.3828 -0.3828 0.9238 104.9918 -140.5355)" fill="#FBED00" width="2" height="63.339"/>
					
						<rect x="374.581" y="152.767" transform="matrix(0.9807 0.1954 -0.1954 0.9807 43.2696 -69.8213)" fill="#FBED00" width="1.999" height="63.339"/>
				</g>
			</g>
		</g>
	</g>
</g>
</svg>
