<?xml version="1.0" encoding="utf-8"?>
<!-- Generator: Adobe Illustrator 15.1.0, SVG Export Plug-In . SVG Version: 6.00 Build 0)  -->
<!DOCTYPE svg PUBLIC "-//W3C//DTD SVG 1.1//EN" "http://www.w3.org/Graphics/SVG/1.1/DTD/svg11.dtd">
<svg version="1.1" id="Layer_1" xmlns="http://www.w3.org/2000/svg" xmlns:xlink="http://www.w3.org/1999/xlink" x="0px" y="0px"
	 width="1268.994px" height="1462.689px" viewBox="0 0 1268.994 1462.689" enable-background="new 0 0 1268.994 1462.689"
	 xml:space="preserve">
<g>
	<path fill="#FFFFFF" d="M719.406,235.956v-43.111c0,0,32.091,3,80.091-6s92-16,92-16v46c0,0,84-14,120-31s50-27,50-27v-131h115v225
		c0,0-28,17-28,47s0,53,0,53s32-3,32,35s0,192,0,212s-12,51-38,51c0,32,0,182,0,182s43-4,43,23s-7,84-3,102s17,64,17,64l-38,42
		l81,113l-138-9.5c0,0-25,73-48,94.5s-97,49-143,57.5s-171.5,30-206,56s-73.75,75.5-73.75,75.5s-39.25-49.5-73.75-75.5
		s-160-47.5-206-56s-120-36-143-57.5s-48-94.5-48-94.5l-138,9.5l81-113l-38-42c0,0,13-46,17-64s-3-75-3-102s43-23,43-23s0-150,0-182
		c-26,0-38-31-38-51s0-174,0-212s32-35,32-35s0-23,0-53s-28-47-28-47v-225h115v131c0,0,14,10,50,27s120,31,120,31v-46
		c0,0,44,7,92,16s80.091,6,80.091,6v43.111H719.406z"/>
	<g>
		<g>
			<polygon fill="#002168" points="577.112,70.458 562.019,70.458 562.019,41.133 520.781,41.133 520.781,26.04 577.112,26.04 			
				"/>
			<rect x="520.781" y="1.327" fill="#002168" width="56.13" height="15.093"/>
			<polygon fill="#002168" points="475.495,70.458 460.404,70.458 460.404,41.133 419.166,41.133 419.166,26.04 475.495,26.04 			
				"/>
			<rect x="419.166" y="1.327" fill="#002168" width="56.258" height="15.093"/>
			<polygon fill="#002168" points="853.514,70.458 838.409,70.458 838.409,41.133 797.19,41.133 797.19,26.04 853.514,26.04 			"/>
			<rect x="797.19" y="1.327" fill="#002168" width="56.257" height="15.093"/>
			<polygon fill="#002168" points="762.06,123.508 746.955,123.508 746.955,41.133 616.315,41.133 616.315,26.04 762.06,26.04 			
				"/>
			<rect x="616.315" y="1.327" fill="#002168" width="145.988" height="15.093"/>
			<path fill="#002168" d="M388.023,111.12l-15.093-0.02l0.066-69.968h-72.294v54.15l-38.711-4.087l1.586-15.015l22.031,2.326
				V41.133h-18.874V26.04H388.11L388.023,111.12z M888.877,107.067l-3.135-14.772l40.064-8.495V41.225l-29.39,0.355l-0.177-15.093
				l44.667-0.54v54.651l47.889-10.16V40.904l-29.699-0.91l0.468-15.093l44.335,1.367v56.403L888.877,107.067z M896.408,16.868
				l-0.155-15.093l43.235-0.448l0.156,15.093L896.408,16.868z M389.876,16.42H266.736V1.327h123.142L389.876,16.42L389.876,16.42z
				 M1005.488,16.42l-46.341-1.138l0.37-15.093l46.34,1.138L1005.488,16.42z"/>
		</g>
		<g>
			<path fill="#F04607" d="M797.571,978.674l-11.979-2.363v-64.725l-32.311-6.373v-17.789l38.945,7.678
				c2.354,0.479,3.883,2.521,4.622,6.134c0.467,2.323,0.72,6.565,0.72,12.696L797.571,978.674L797.571,978.674z"/>
			<path fill="#F04607" d="M834.589,990.088l-14.451-4.447v-64.713l-13.633-4.862v-17.802l21.643,7.328
				c2.842,0.953,4.71,3.185,5.586,6.93c0.556,2.396,0.855,6.677,0.855,12.808V990.088z"/>
			<path fill="#F04607" d="M1047.968,1058.979l-13.322-2.442V996.62l-35.889-6.562v-16.465l43.272,7.902
				c2.609,0.467,4.32,2.404,5.139,5.762c0.517,2.18,0.8,6.103,0.8,11.773V1058.979L1047.968,1058.979z"/>
			<path fill="#F04607" d="M1085.132,1021.803l-13.306-2.44v-22.054l-14.557-3.805v-16.475l21.936,5.146
				c2.605,0.613,4.328,2.414,5.138,5.781c0.516,2.16,0.788,6.082,0.788,11.756L1085.132,1021.803L1085.132,1021.803z"/>
			<path fill="#F04607" d="M712.948,977.858l-11.97,1.041v-46.353l11.97-1.051V977.858z M744.614,965.012l-13.312,3.096V908.18
				l-35.88,8.312v-16.478l43.266-10.014c2.608-0.604,4.312,0.623,5.128,3.641c0.517,1.945,0.799,5.763,0.799,11.427L744.614,965.012
				L744.614,965.012z"/>
			<path fill="#F04607" d="M967.207,1040.711l-14.829-5.43v-59.916l-39.986-14.637v-16.476l48.209,17.633
				c2.908,1.08,4.826,3.396,5.721,6.939c0.584,2.274,0.888,6.266,0.888,11.93v59.956H967.207z M925.724,1025.014h-11.98v-46.356
				h11.98V1025.014z"/>
			<path fill="#F04607" d="M867.802,991.696l-1.605,11.812l-26.525-10.383l1.944-11.971l13.741,5.596l-0.104-53.289l-8.156-2.986
				V914.02l48.209,20.767c2.91,1.266,4.809,3.698,5.723,7.299c0.584,2.315,0.875,6.326,0.875,11.998v59.936l-14.83-6.383v-59.906
				l-19.559-8.698L867.802,991.696z"/>
			<path fill="#F04607" d="M1088.314,1045.801l16.543-1.918v-47.498l-6.979-3.812v-16.468l14.363,5.156
				c2.551,0.916,4.33,2.404,5.14,5.765c0.516,2.159,0.788,6.092,0.788,11.754v41.94l19.043-9.887v-40.658l-9.038-3.795v-16.475
				l16.416,5.146c2.577,0.81,4.329,2.414,5.146,5.771c0.516,2.17,0.789,6.102,0.789,11.766v43.89
				c-16.281,13.272-37.047,22.03-62.768,24.442L1088.314,1045.801z"/>
			<path fill="#F04607" d="M224.457,1053.887l-14.966-2.654v-60.219l-30.956-6.363v-17.788l56.715,10.526l0.445,13.646
				c0.078,2.287-11.238-4.037-11.238,2.062V1053.887L224.457,1053.887z"/>
			<path fill="#F04607" d="M465.959,977.848l-11.482,3.668V917.69l-30.965,9.293v-17.81l37.339-11.188
				c2.247-0.673,3.728,0.631,4.428,3.891c0.457,2.104,0.683,6.229,0.683,12.35L465.959,977.848L465.959,977.848z"/>
			<path fill="#F04607" d="M270.69,1052.77l-13.848,1.597v-63.646l-13.079,1.853v-17.812l20.757-3.326
				c2.715-0.43,4.496,0.886,5.333,4.193c0.545,2.121,0.837,6.268,0.837,12.387V1052.77z"/>
			<path fill="#F04607" d="M577.879,968.719v-51.742c0-5.672-0.253-9.633-0.75-11.83c-0.787-3.428-2.424-5.51-4.925-6.221
				l-41.483-11.619v16.478l33.311,9.537l0.226,51.518l-32.658-9.693l0.165,15.453l52.832,17.361v-16.846L577.879,968.719z"/>
			<path fill="#F04607" d="M359.761,984.795l-12.758,4.098V964.34l-13.955,3.328v-16.465l21.028-8.088
				c2.49-0.953,4.146,0.293,4.913,3.27c0.508,1.892,0.771,8.177,0.771,13.851V984.795z"/>
			<path fill="#F04607" d="M415.656,960.614l-12.758,4.086v-24.551l-13.944,3.327V927l21.021-8.076
				c2.502-0.955,4.146,0.301,4.925,3.26c0.496,1.896,0.759,8.185,0.759,13.849L415.656,960.614L415.656,960.614z"/>
			<path fill="#F04607" d="M490.568,969.43l-13.331,2.843v-47.867l13.331-1.041V969.43z M522.779,969.098l-12.135-2.102v-63.721
				l-36.872,8.311v-16.465l43.324-10.033c2.5-0.574,4.145,0.633,4.914,3.648c0.506,1.928,0.769,5.762,0.769,11.426V969.098
				L522.779,969.098z"/>
			<path fill="#F04607" d="M293.432,1040.645l-11.483,1.052v-46.369l11.483-1.041V1040.645z M325.556,1032.771l-14.539,3.084V975.93
				l-34.391,8.312v-16.467l43.256-10.021c2.501-0.574,4.136,0.611,4.914,3.639c0.496,1.945,0.76,5.763,0.76,11.427V1032.771
				L325.556,1032.771z"/>
			<path fill="#F04607" d="M169.865,1044.875l-14.229-5.574V978.83l-38.312-16.514v-16.478l46.192,19.91
				c2.804,1.197,4.633,3.611,5.498,7.201c0.556,2.297,0.848,6.307,0.848,11.969L169.865,1044.875L169.865,1044.875z
				 M130.102,1028.312l-11.481-1.645v-46.359l11.481,0.564V1028.312z"/>
		</g>
		<path fill="#914231" d="M1265.429,1172.276l-94.114-110.229c0.521-0.435,1.038-0.868,1.539-1.298
			c21.344-18.332,30.157-36.718,30.521-37.491l1.763-3.779l-2.252-3.497c-0.14-0.214-13.794-21.787-13.794-53.921
			c0-30.269,2.295-63.98,2.854-71.753c2.37-6.237,4.812-15.377,4.812-26.579c0-13.32-5.77-23.58-17.146-30.493
			c-11.821-7.184-29.709-10.675-54.686-10.675c-58.436,0-79.168,22.178-79.168,41.168c0,0.305,0.001,0.645,0.003,1h-0.119v64.773
			c-77.181-1.185-119.022-22.048-159.521-42.247c-41.096-20.499-83.591-41.695-160.529-41.695c-50.797,0-80.39,24.271-92.334,36.882
			c-11.945-12.609-41.537-36.882-92.334-36.882c-76.939,0-119.435,21.196-160.53,41.695c-40.496,20.199-82.34,41.062-159.521,42.247
			v-64.773h-0.128c0.004-0.334,0.012-0.66,0.012-1c0-18.99-20.733-41.168-79.167-41.168c-24.979,0-42.865,3.491-54.687,10.675
			c-11.378,6.913-17.146,17.173-17.146,30.493c0,11.202,2.44,20.343,4.812,26.579c0.561,7.773,2.855,41.485,2.855,71.753
			c0,32.134-13.656,53.707-13.782,53.902l-2.287,3.507l1.785,3.788c0.365,0.773,9.178,19.159,30.522,37.491
			c0.749,0.643,1.525,1.292,2.317,1.942L2.417,1172.275c-3.418,4.004-3.957,9.719-1.354,14.293c2.603,4.577,7.8,7.026,12.984,6.143
			c1-0.172,104.039-17.151,451.877-17.151c69.768,0,104.805,8.778,121.914,16.145c18.446,7.939,19.582,15.355,19.586,15.355
			c0,3.771-3.592,8.47-5.374,10.205c-3.83,3.459-5.062,8.845-3.217,13.668c1.852,4.839,6.576,7.96,11.758,7.96h46.664
			c5.141,0,9.756-3.146,11.635-7.931s0.638-10.231-3.129-13.729c-1.368-1.271-5.339-6.24-5.341-10.096
			c0.006-0.072,1.136-7.49,19.589-15.434c17.106-7.365,52.146-16.145,121.913-16.145c347.838,0,450.876,16.979,451.864,17.149
			c5.191,0.899,10.388-1.552,12.996-6.129S1268.849,1176.282,1265.429,1172.276z M1124.926,837.56
			c56.832,0,56.832,19.012,56.832,26.167c0,8.386-1.711,15.3-3.418,20.113l-0.373,0.703c-0.186,0.348-15.074,27.074-68.209,39.175
			v-70.174l-12.676,12.088c-0.122,0.116-12.621,11.595-29.156,11.595c-3.844,0-4.59-0.943-4.948-1.396
			c-0.829-1.051-2.22-4.021-2.22-12.104C1060.758,850.724,1082.799,837.56,1124.926,837.56z M1060.642,891.299
			c2.114,0.595,4.526,0.928,7.284,0.928c10.731,0,19.982-3.361,26.832-6.979v41.312c-10.176,1.558-21.514,2.588-34.116,2.897
			V891.299L1060.642,891.299z M141.591,837.56c42.126,0,64.167,13.164,64.167,26.167c0,13.5-3.163,13.5-7.167,13.5
			c-16.605,0-29.055-11.499-29.157-11.595l-12.676-12.087v70.106c-19.774-4.531-33.897-10.976-43.526-16.791
			C94.903,895.79,88.583,884.6,88.55,884.543l-0.375-0.708c-1.707-4.813-3.416-11.727-3.416-20.108
			C84.758,856.571,84.758,837.56,141.591,837.56z M205.874,891.318v38.134c-12.644-0.318-23.982-1.375-34.117-2.943v-41.262
			c6.849,3.618,16.101,6.979,26.833,6.979C201.274,892.227,203.694,891.922,205.874,891.318z M78.519,1020.153
			c4.493-8.417,13.905-29.466,13.905-58.095c0-18.529-0.844-38.304-1.64-52.832c18.125,15.427,54.763,35.332,123.14,35.332
			c85.189,0,129.914-22.309,173.165-43.882c41.36-20.631,80.429-40.118,153.835-40.118c58.981,0,85.097,36.243,86.164,37.765
			l6.138,8.837l6.187-8.814c1.083-1.543,27.198-37.786,86.181-37.786c73.405,0,112.474,19.487,153.835,40.118
			c43.251,21.573,87.976,43.882,173.165,43.882c68.378,0,105.015-19.905,123.141-35.332c-0.797,14.528-1.641,34.302-1.641,52.832
			c0,28.632,9.413,49.682,13.905,58.098c-7.853,13.318-42.188,62.402-121.405,62.402c-79.421,0-121.482-22.001-166.014-45.294
			c-42.959-22.471-87.38-45.706-165.986-45.706c-56.042,0-89.028,22.07-101.334,32.33c-12.307-10.26-45.292-32.33-101.334-32.33
			c-78.607,0-123.029,23.235-165.987,45.706c-44.531,23.293-86.591,45.294-166.013,45.294c-38.098,0-70.379-11.011-95.945-32.726
			C89.923,1037.895,81.849,1025.803,78.519,1020.153z M801.922,1150.559c-60.975,0-106.033,6.435-133.927,19.122
			c-29.399,13.374-32.573,30.595-32.573,37.378c0,2.381,0.275,4.664,0.749,6.833h-4.496c0.473-2.169,0.749-4.452,0.749-6.833
			c0-6.782-3.174-24.004-32.574-37.378c-27.893-12.688-72.952-19.122-133.926-19.122c-248.132,0-371.319,8.396-423.678,13.568
			l74.483-87.238c6.111,3.454,12.903,6.73,20.428,9.611l-23.233,33.559c0,0,468,0,487,0c23,0,33,31,33,31s10-31,33-31
			c19,0,487,0,487,0l-23.518-33.969c7.475-2.924,14.213-6.234,20.271-9.713l74.921,87.75
			C1173.24,1158.954,1050.054,1150.559,801.922,1150.559z"/>
		<path fill="#002168" d="M1180.132,357.819c-8.755-10.27-23.867-15.261-46.207-15.261c-29.986,0-54.095,8.761-67.5,15.024v-86.802
			l-9.787,3.135c-1.521,0.486-154.982,48.643-422.714,48.643c-139.76,0-247.249-13.226-312.812-24.321
			c-71.04-12.022-109.521-24.201-109.901-24.322l-9.786-3.128v86.796c-13.407-6.265-37.515-15.024-67.5-15.024
			c-22.34,0-37.455,4.991-46.208,15.261c-8.167,9.58-9.292,21.638-9.292,33.239v202c0,23.481,3.564,39.237,11.221,49.585
			c8.031,10.857,20.195,15.915,38.279,15.915c35.391,0,42.5-17.792,42.5-46.5c0-4.142-3.358-7.5-7.5-7.5c-4.143,0-7.5,3.358-7.5,7.5
			c0,24.405-3.609,31.5-27.5,31.5c-20.113,0-31.521-6.045-33.987-36.5h0.153c0-20.809,10.357-30.5,32.598-30.5
			c11.785,0,31.5,4.628,48.275,17.672c12.512,9.729,27.427,27.484,27.427,56.828c0,41.099-3.604,53.432-4.788,56.372l-27.215,15.515
			l33.031-2.405c0.409-0.03,41.922-2.98,127.767-2.98c52.507,0,93.015,8.11,117.145,23.454
			c22.005,13.992,23.716,29.598,23.716,34.046c0,17.428-10.75,28.61-10.829,28.69l-15.902,15.863l22.243-3.127
			c0.777-0.109,78.742-10.928,166.365-10.928s165.589,10.817,166.364,10.928l22.245,3.127l-15.902-15.863
			c-0.108-0.108-10.829-11.289-10.829-28.69c0-4.448,1.71-20.054,23.715-34.046c24.131-15.344,64.639-23.454,117.146-23.454
			c85.845,0,127.357,2.95,127.769,2.98l33.032,2.405l-27.219-15.515c-1.184-2.939-4.787-15.272-4.787-56.371
			c0-29.344,14.914-47.101,27.429-56.828c16.774-13.043,36.489-17.672,48.274-17.672c22.238,0,32.599,9.691,32.599,30.5h0.151
			c-2.467,30.455-13.873,36.5-33.985,36.5c-23.894,0-27.5-7.095-27.5-31.5c0-4.142-3.357-7.5-7.5-7.5c-4.144,0-7.5,3.358-7.5,7.5
			c0,28.709,7.108,46.5,42.5,46.5c18.084,0,30.248-5.057,38.278-15.914c7.654-10.35,11.222-26.104,11.222-49.586v-202
			C1189.425,379.457,1188.298,367.398,1180.132,357.819z M1141.16,561.559c-14.838,0-37.729,5.473-57.481,20.829
			c-15.156,11.783-33.222,33.263-33.222,68.671c0,27.892,1.57,44.202,3.57,53.863c-17.848-0.889-56.623-2.363-117.365-2.363
			c-148.347,0-155.86,60.395-155.86,72.5c0,9.848,2.493,18.16,5.465,24.571c-27.628-3.189-87.365-9.071-152.343-9.071
			s-124.715,5.882-152.342,9.071c2.971-6.411,5.464-14.725,5.464-24.571c0-12.105-7.515-72.5-155.86-72.5
			c-60.741,0-99.518,1.476-117.366,2.363c2-9.661,3.57-25.973,3.57-53.863c0-35.408-18.064-56.888-33.22-68.671
			c-19.752-15.356-42.645-20.829-57.482-20.829c-14.001,0-25.231,3.561-33.264,10.244V391.059c0-8.732,0.691-17.625,5.708-23.51
			c5.651-6.629,17.357-9.99,34.792-9.99c41.083,0,70.651,18.622,70.934,18.803l11.566,7.462v-92.747
			c15.66,4.37,49.884,13.083,101.746,21.877c66.205,11.225,174.726,24.604,315.753,24.604s249.55-13.381,315.755-24.604
			c51.86-8.793,86.086-17.507,101.746-21.877v78.981l0.012,13.698l11.543-7.388c0.293-0.188,29.863-18.811,70.945-18.811
			c17.436,0,29.141,3.361,34.791,9.99c5.018,5.885,5.709,14.777,5.709,23.51v180.743
			C1166.392,565.119,1155.16,561.559,1141.16,561.559z"/>
		<g>
			<path fill="#002168" d="M838.924,362.559c0,0,8.501,37,37.501,37s90.5,0,107.5,0s28.5,12,28.5,47c-1,22-4,76-4,87s13.5,24,24,24
				c0,11.5-3,65-3,65h-186.5v-69.5c0,0,125,0,137,0s19.5-8.5,19.5-17.5s-5.5-32.5-8-40s-13-16-31.5-16s-80,0-90,0s-21-3.5-23-21.5
				S838.924,362.559,838.924,362.559z"/>
			<path fill="#002168" d="M374.425,479.559c-18.5,0-98,0-108,0s-21-3.5-23-21.5s-8-95.5-8-95.5s8.5,37,37.5,37s108.5,0,125.5,0
				c23,0,25,25.5,25,60.5c-0.5,25-15.5,35-15.5,44s9,36.5,9,66.5s-11.5,58-11.5,58s-15.5-19.5-15.5-54s11.5-77,11.5-83
				S390.925,479.559,374.425,479.559z"/>
			<path fill="#002168" d="M685.424,460.059c0-35-2-60.5-25-60.5c-17,0-142,0-171,0s-37.5-37-37.5-37s6,77.5,8,95.5s13,21.5,23,21.5
				c2.251,0,10.345,0,21.728,0c2.215,7.346,5.772,20.269,5.772,27.5c0,10.5,6.5,50.5-13.5,50.5s-43,0-43,0s3.5,12,3.5,29
				s-8.5,37-8.5,37s55.5,0,65.5,0s13.5-13,13.5-25s5-34.5-2-58.5s-7.5-34.5-7.5-45c0-6.407,0.372-12.06,0.662-15.5
				c41.416,0,104.604,0,117.337,0c16.5,0,27,6,27,12s-11.5,48.5-11.5,83s15.5,54,15.5,54s11.5-28,11.5-58s-9-57.5-9-66.5
				S684.924,485.059,685.424,460.059z"/>
			<path fill="#002168" d="M805.424,535.559c0-9-5.5-32.5-8-40s-13-16-31.5-16s-18,0-28,0s-21-3.5-23-21.5s-8-95.5-8-95.5
				s8.5,37,37.5,37s28.5,0,45.5,0s28.5,12,28.5,47C817.424,468.559,805.424,524.559,805.424,535.559z"/>
		</g>
		<g>
			<path fill="#002168" d="M562.557,715.305c0-9.671-0.58-20.688-7.247-20.688c-4.929,0-41.164,0-49.57,0
				c-8.405,0-10.87-10.225-10.87-10.225s1.739,21.415,2.319,26.389s3.768,9.913,6.667,9.913c0.652,0,2.999,0,6.298,0
				c0.643,2.028,1.673,1.628,1.673,3.626c0,2.9,1.885,13.954-3.913,13.954c-5.797,0-12.465,0-12.465,0s1.015,3.315,1.015,8.014
				S494,756.511,494,756.511s16.088,0,18.986,0c2.899,0,3.914-3.592,3.914-6.908c0-3.314,1.449-9.532-0.58-16.163
				c-2.029-6.633-2.174-9.533-2.174-12.436c0-1.771,0.107,0.64,0.192-0.311c12.005,0,30.322,0,34.014,0
				c4.783,0,7.827,1.657,7.827,3.313c0,1.655-3.333,9.433-3.333,18.964c0,9.533,4.493,14.922,4.493,14.922s3.334-7.736,3.334-16.025
				c0-8.29-2.609-11.924-2.609-14.41C558.064,724.973,562.412,722.213,562.557,715.305z"/>
			<path fill="#002168" d="M753.041,696.393c-7.955,0-9.181-9-9.181-9l1.561,33.308h22.309c0,0,0.306,5.358,0.306,9.025
				s-0.611,9.667-0.611,9.667h-32.091c-0.875-2.989-3.375-11.553-3.94-13.709c-0.688-2.625-1.263-4.983,0.688-4.983
				c0.14,0,0.239,0.023,0.319,0h3.2v-25.974c0,0-9.486,0-18.973,0c-9.485,0-12.239-8.333-12.239-8.333l2.754,34.308h12.727
				c0.053,0.023,0.105,0,0.163,0c1.951,0,6.771,6.733,7.345,11.733c0.376,3.272,0.357,5.682,0.301,6.959h-21.452v20.333h64.26
				c0,0,0-12.667,0-29.667s3.365-33.667,3.365-33.667S760.996,696.393,753.041,696.393z"/>
			<path fill="#002168" d="M667.246,683.684c0,0,4.704,13,13.771,13s16.522,0,16.522,0s1.264,16.392,1.264,24.017
				s-5.049,16.358-5.049,16.358s-1.377-16.358-10.786-16.358c-9.41,0-12.854,0-12.854,0L667.246,683.684z"/>
			<path fill="#002168" d="M570.513,683.684c0,0,4.705,13,13.77,13c9.065,0,16.524,0,16.524,0s1.262,16.392,1.262,24.017
				s-5.049,16.358-5.049,16.358s-1.377-16.358-10.787-16.358c-9.409,0-12.852,0-12.852,0L570.513,683.684z"/>
			<path fill="#002168" d="M602.412,660.809c0,0,2.524,6.5,8.263,6.5c5.736,0,8.95,0,8.95,0v13.75c0,0-2.295,0-3.214,0
				c-0.918,0-2.523,0.75-2.523,4s1.377,9.75,4.819,9.75c3.441,0,38.556,0,38.556,0s6.655,27.5-0.688,42.5
				c-7.343,15-23.867,22.75-23.867,22.75l-0.229-19c0,0,2.065,0,6.426,0c4.361,0,15.836-2.608,15.836-20.358
				c-5.508,0-44.063,0-44.063,0s0-14.142,0-21.392s-4.131-18.75-7.803-18.75C602.871,677.809,602.412,660.809,602.412,660.809z"/>
		</g>
		<path fill="#098537" d="M1160.425,341.059h-25v-46c0-25.97,18.625-39.927,30-46.029V37.559h-93v139.549l-7.328,3.331
			c-1.832,0.833-45.308,20.521-81.826,30.665c-35.691,9.914-89.668,23.916-90.209,24.056l-15.637,4.054v-53.765
			c-24.854,6.558-72.727,18.111-101.501,18.111h-43.5v44h-197v-44h-43.5c-28.775,0-76.648-11.554-101.5-18.111v53.765l-15.638-4.054
			c-0.541-0.141-54.517-14.142-90.208-24.056c-36.52-10.144-79.993-29.831-81.826-30.665l-7.328-3.331V37.559h-93V249.03
			c11.375,6.102,30,20.06,30,46.029v46h-25v-46c0-18.773-21.238-26.07-21.453-26.142l-8.547-2.849V12.559h143v148.348
			c13.838,5.988,44.76,18.862,70.846,26.108c23.655,6.571,55.435,14.959,74.154,19.864V152.43l15.975,4.622
			c0.743,0.215,74.745,21.507,110.525,21.507h68.5v44h147v-44h68.5c35.779,0,109.781-21.292,110.525-21.507l15.974-4.622
			l0.002,54.449c18.721-4.905,50.502-13.293,74.153-19.864c26.087-7.246,57.007-20.12,70.847-26.108V12.559h143v253.509
			l-8.547,2.849c-0.808,0.281-21.453,7.673-21.453,26.142V341.059z"/>
		<g>
			<polygon fill="#098537" points="123.425,911.139 121.425,581.146 146.424,580.979 148.424,910.971 			"/>
			<polygon fill="#098537" points="1144.424,911.139 1119.424,910.971 1121.424,580.979 1146.424,581.146 			"/>
		</g>
		<path fill="#098537" d="M633.87,1462.878l-10.612-17.301c-0.188-0.306-21.408-33.958-71.707-63.765
			c-44.373-26.297-153.329-46.558-225.428-59.966c-12.468-2.317-24.243-4.508-34.586-6.519
			c-34.708-6.749-67.213-24.639-94.002-51.731c-21.622-21.868-38.237-48.456-45.584-72.946l23.944-7.185
			c10.335,34.45,52.166,94.052,120.413,107.321c10.242,1.992,21.969,4.173,34.385,6.48c78.249,14.552,185.414,34.479,233.603,63.035
			c35.4,20.979,57.736,43.655,69.627,57.907c11.891-14.252,34.227-36.929,69.628-57.907
			c48.188-28.556,155.354-48.483,233.602-63.035c12.416-2.309,24.144-4.488,34.385-6.48
			c68.248-13.271,110.078-72.871,120.414-107.321l23.945,7.185c-7.348,24.49-23.963,51.078-45.584,72.946
			c-26.791,27.095-59.297,44.982-94.004,51.731c-10.342,2.011-22.117,4.2-34.586,6.519
			c-72.098,13.408-181.054,33.669-225.428,59.966c-50.299,29.807-71.519,63.459-71.727,63.797L633.87,1462.878z"/>
	</g>
</g>
</svg>
