<?xml version="1.0" encoding="utf-8"?>
<!-- Generator: Adobe Illustrator 13.0.0, SVG Export Plug-In . SVG Version: 6.00 Build 14948)  -->
<!DOCTYPE svg PUBLIC "-//W3C//DTD SVG 1.1//EN" "http://www.w3.org/Graphics/SVG/1.1/DTD/svg11.dtd">
<svg version="1.1" id="Layer_1" xmlns="http://www.w3.org/2000/svg" xmlns:xlink="http://www.w3.org/1999/xlink" x="0px" y="0px"
	 width="820px" height="713.5px" viewBox="0 0 820 713.5" enable-background="new 0 0 820 713.5" xml:space="preserve">
<g>
	<path fill-rule="evenodd" clip-rule="evenodd" fill="#000E78" d="M168.452,11.547c-0.262,158.918,0.524,318.905-0.393,477.17
		c-36.816,0-73.633,0-110.449,0c0,9.564,0,19.129,0,28.693c-15.197,0-30.396,0-45.594,0c0,28.691,0,57.385,0,86.078
		c39.437,0,78.873,0,118.31,0c0.262-9.564-0.523-20.176,0.394-29.086c12.447,0.262,25.941-0.523,37.732,0.393
		c0,17.332,0,35.266,0,53.455c0,18.104-1.506,36.078,6.289,47.168c3.418,4.861,11.24,9.168,18.475,11.398
		c7.529,2.32,16.49,1.965,26.334,1.965c55.307,0,116.228,0,168.621,0c12.046,5.51,16.706,18.406,24.763,27.906
		c4.27-5.885,9.019-15.451,14.543-21.225c2.454-2.564,6.661-6.02,10.219-6.682c6.344-1.18,14.926,0,22.798,0
		c38.985,0,77.635,0,115.951,0c30.111,0,63.313,3.428,74.681-14.15c7.287-11.268,5.503-30.742,5.503-49.525
		c0-17.283,0-34.703,0-50.703c12.185,0,24.369,0,36.554,0c0,9.695,0,19.391,0,29.086c39.437,0,78.873,0,118.31,0
		c0-28.693,0-57.387,0-86.078c-15.067-0.264-31.182,0.523-45.594-0.395c0-9.434,0-18.865,0-28.299c-36.424,0-72.847,0-109.27,0
		c0-159.453,0-318.896,0-478.349c-9.434,0-18.867,0-28.301,0c0,7.075,0,14.15,0,21.225c-9.564-0.262-20.176,0.523-29.086-0.393
		c0-6.944,0-13.888,0-20.832c-9.434,0-18.866,0-28.3,0c-0.262,6.944,0.523,14.935-0.393,21.225
		c-9.435-0.262-19.915,0.523-28.693-0.393c0-6.944,0-13.888,0-20.832c-9.434,0-18.867,0-28.3,0c0,7.075,0,14.15,0,21.225
		c-9.565-0.262-20.177,0.523-29.086-0.393c0-6.944,0-13.888,0-20.832c-9.564,0-19.129,0-28.693,0c0,7.075,0,14.15,0,21.225
		c-9.695,0-19.391,0-29.086,0c0-7.075,0-14.15,0-21.225c-9.434,0-18.867,0-28.301,0c0,7.075,0,14.15,0,21.225
		c-9.564-0.262-20.176,0.523-29.086-0.393c0-6.944,0-13.888,0-20.832c-9.434,0-18.866,0-28.3,0c0,7.075,0,14.15,0,21.225
		c-9.695,0-19.391,0-29.086,0c0-7.075,0-14.15,0-21.225c-9.434,0-18.866,0-28.3,0c0,7.075,0,14.15,0,21.225
		c-9.564-0.262-20.177,0.523-29.086-0.393c0-6.944,0-13.888,0-20.832c-9.564,0-19.129,0-28.693,0
		c-0.262,6.944,0.523,14.935-0.393,21.225c-9.303-0.262-19.652,0.523-28.301-0.393c0-6.944,0-13.888,0-20.832
		c-9.434,0-18.867,0-28.3,0C168.388,10.434,168.419,10.989,168.452,11.547z"/>
	<path fill-rule="evenodd" clip-rule="evenodd" fill="#FFFFFF" d="M204.614,206.109c25.045,11.378,49.545,23.301,74.68,34.589
		c-5.335-0.746-11.26,1.065-16.508,0.393c-4.313-0.552-10.063-4.591-14.543-6.682c-14.719-6.869-29.119-13.64-43.629-20.046
		C204.614,211.612,204.614,208.861,204.614,206.109z"/>
	<path fill-rule="evenodd" clip-rule="evenodd" fill="#FFFFFF" d="M204.614,226.941c14.69,4.7,28.544,10.236,42.843,15.329
		c-3.99,1.25-8.722,1.761-12.578,3.145c-10.132-3.625-20.22-7.294-30.265-11.006C204.614,231.92,204.614,229.431,204.614,226.941z"
		/>
	<path fill-rule="evenodd" clip-rule="evenodd" fill="#FFFFFF" d="M204.614,246.201c6.011,1.064,11.266,2.884,16.9,4.324
		c-2.92,0.853-5.093,4.666-8.254,5.11c-2.826,0.397-5.227-1.936-8.646-1.965C204.614,251.18,204.614,248.69,204.614,246.201z"/>
	<path fill-rule="evenodd" clip-rule="evenodd" fill="#FFFFFF" d="M565.046,300.049c13.102-0.917,27.906-0.131,41.664-0.393
		c0,2.489,0,4.979,0,7.468c-8.375-0.787-15.061,1.082-22.012,0C577.779,306.047,571.783,300.578,565.046,300.049z"/>
	<path fill-rule="evenodd" clip-rule="evenodd" fill="#FFFFFF" d="M412.54,489.502c2.408-12.393,12.232-22.871,26.335-22.797
		c13.924,0.072,24.998,10.537,26.335,24.762c2.475,26.34-1.875,68.029,0,94.334c-34.982,0-69.965,0-104.946,0
		c0-13.807,0-30.891,0-48.346c0-16.947-1.703-34.93,0-48.346c1.577-12.428,12.179-21.779,24.763-22.404
		C401.034,465.91,409.284,476.467,412.54,489.502z"/>
	<path fill-rule="evenodd" clip-rule="evenodd" fill="#999FC9" d="M59.97,490.682c77.433,0,154.861,0,232.295,0
		c0,27.383,0,54.766,0,82.148c-77.563,0-155.124,0-232.688,0c0-26.99,0-53.979,0-80.969
		C59.542,491.303,59.511,490.748,59.97,490.682z"/>
	<path fill-rule="evenodd" clip-rule="evenodd" fill="#999FC9" d="M531.636,490.682c77.433,0,154.862,0,232.296,0
		c0,27.383,0,54.766,0,82.148c-77.563,0-155.124,0-232.688,0c0-26.99,0-53.979,0-80.969
		C531.209,491.303,531.178,490.748,531.636,490.682z"/>
	<path fill-rule="evenodd" clip-rule="evenodd" fill="#999FC9" d="M13.982,519.375c14.543,0,29.086,0,43.628,0
		c0,18.342,0,36.686,0,55.027c22.799,0.916,47.297,0.131,70.75,0.393c0,8.91,0,17.818,0,26.729c-38.256,0-76.515,0-114.771,0
		c0-26.99,0-53.98,0-80.971C13.555,519.996,13.524,519.441,13.982,519.375z"/>
	<path fill-rule="evenodd" clip-rule="evenodd" fill="#999FC9" d="M766.29,519.375c14.543,0,29.086,0,43.629,0
		c0,27.383,0,54.766,0,82.148c-38.257,0-76.516,0-114.771,0c0-8.91,0-17.818,0-26.729c23.451,0,46.904,0,70.356,0
		c0.915-17.295,0.132-36.291,0.394-54.242C765.863,519.996,765.832,519.441,766.29,519.375z"/>
	<path fill-rule="evenodd" clip-rule="evenodd" fill="#FFFFFF" d="M287.941,242.271c-2.03-0.241,0.616-1.08,0-2.358
		c-28.214-15.416-55.188-32.069-83.327-47.56c0-2.883,0-5.765,0-8.647c29.347,16.64,58.143,33.833,87.65,50.311
		c5.381-3.903-4.444-7.679-8.646-10.612c-25.791-18.004-53.791-38.507-79.004-55.421c0-2.751,0-5.503,0-8.254
		c1.527-0.538,3.853,1.73,5.896,3.144c27.835,19.271,56.327,39.599,84.507,59.352c1.719,1.205,4.044,3.429,5.896,0.393
		c0.045-2.935-3.36-4.021-5.109-5.503c-29.788-25.228-61.146-51.536-91.188-77.039c0-2.751,0-5.503,0-8.254
		c2.025-0.431,4.109,2.508,6.289,4.324c30.25,25.209,60.506,50.973,91.188,76.646c2.798,2.341,5.708,4.121,6.683,1.179
		c0.821-2.479-9.327-10.506-12.185-13.364c-30.504-30.503-61.699-61.946-91.975-92.368c0-3.013,0-6.027,0-9.04
		c1.484-0.593,2.299,1.513,3.145,2.358c33.229,33.23,66.806,66.806,100.621,100.622c0.408,0.407,2.176,2.287,3.538,3.538
		c2.663,2.446,2.628,2.84,4.323,1.179c2.332-2.284-2.881-6.445-4.717-8.647c-34.635-41.562-71.407-84.689-104.945-125.778
		c9.484-1.87,10.797,2.401,15.329,7.861c33.307,40.13,68.571,81.043,101.802,120.275c4.991-1.229,0.639-5.712-1.966-9.433
		c-27.207-38.868-57.386-81.082-82.935-118.703c2.883,0,5.765,0,8.647,0c26.37,38.075,53.797,76.622,80.576,114.772
		c1.566,2.231,2.565,5.645,5.503,6.682c0.83-0.349,1.162-1.196,2.357-1.179c-21.603-39.715-45.844-80.193-68.784-119.882
		c2.102-0.912,5.893-0.134,8.647-0.393c21.971,39.084,44.784,77.324,66.819,116.345c0.993-0.58,1.756-1.389,3.145-1.572
		c-3.366-9.847-8.148-19.172-12.577-28.693c-13.166-28.297-27.085-57.277-40.092-86.079c2.619,0,5.24,0,7.86,0
		c17.819,36.815,34.142,75.13,52.669,111.235c0.783-0.528,1.872-0.749,2.752-1.179c-12.265-35.949-26.334-73.502-39.698-109.663
		c1.84-0.911,5.367-0.135,7.86-0.393c13.129,35.741,25.813,71.928,39.307,107.304c1.414,0.105,1.894-0.726,3.145-0.786
		c-8.059-35.179-18.93-70.95-27.908-106.518c2.49,0,4.979,0,7.469,0c9.537,34.748,18.465,70.104,28.3,104.553
		c1.101-0.209,2.044-0.577,3.145-0.786c-4.745-34.167-12.103-69.129-17.688-103.767c2.489,0,4.979,0,7.468,0
		c5.885,34.339,11.93,68.516,18.081,102.588c0.979-0.331,2.105-0.515,3.537-0.393c-2.179-33.197-5.837-68.32-8.647-102.195
		c2.49,0,4.979,0,7.469,0c2.967,33.849,5.621,68.012,9.04,101.409c1.048,0,2.097,0,3.145,0c0.917-33.017,0.131-67.736,0.394-101.409
		c2.488,0,4.979,0,7.467,0c0,33.803,0,67.605,0,101.409c1.049,0,2.097,0,3.145,0c1.889-3.664,1.625-8.076,1.966-12.185
		c2.396-28.918,5.23-60.316,7.861-89.224c2.358,0,4.717,0,7.075,0c-2.469,34.479-5.963,67.932-8.647,102.195
		c1.229,0.08,2.886-0.265,3.537,0.393c6.764-33.59,12.118-68.59,18.474-102.588c2.489,0,4.979,0,7.469,0
		c-6.316,34.431-12.104,69.391-18.474,103.767c1.05,0.26,2.455,0.165,3.144,0.786c2.546-3.677,3.168-8.287,4.324-12.578
		c8.021-29.77,16.447-61.394,24.369-91.975c2.62,0,5.241,0,7.861,0c-9.483,35.456-19.343,70.537-28.3,106.518
		c1.101,0.209,2.043,0.577,3.145,0.786c13.826-35.043,26.439-71.3,39.306-107.304c2.62,0,5.24,0,7.86,0
		c-12.899,37.02-26.784,73.052-39.698,110.056c1.203,0.238,2.048,0.834,3.145,1.179c18.15-36.353,34.922-74.084,52.276-111.235
		c2.751,0,5.503,0,8.254,0c-17.604,38.342-35.997,75.893-53.063,114.772c1.004,0.175,1.808,0.551,2.358,1.179
		c4.112-3.323,6.227-9.139,9.04-14.15c18.839-33.545,40.029-67.761,58.959-101.802c2.751,0,5.502,0,8.254,0
		c-22.561,40.329-46.105,79.671-68.785,119.882c1.271,0.131,1.853,1.459,2.358,1.572c2.188,0.488,9.009-10.683,11.398-14.15
		c24.45-35.464,50.981-73.152,75.074-107.304c2.62,0,5.24,0,7.861,0c0.609,1.359-0.93,3.015-1.572,3.931
		c-28.11,40.046-57.662,81.615-85.687,122.24c3.894,3.997,5.908-1.204,7.861-3.538c33.927-40.548,69.529-82.329,103.373-122.633
		c2.752,0,5.503,0,8.255,0c0.772,1.716-1.591,3.029-2.358,3.931c-34.249,40.222-67.891,81.437-102.588,122.24
		c-1.211,1.424-6.792,6.697-3.537,8.647c1.694,1.015,5.317-3.746,7.075-5.503c34.817-34.818,71.616-71.694,106.125-105.339
		c-0.622,2.405,0.806,6.493,0,9.434c-1.072,3.906-9.48,9.872-13.364,13.757c-31.05,31.049-62.975,62.895-93.154,93.94
		c2.479,4.064,4.732,0.439,6.682-1.179c32.85-27.264,67.669-56.739,99.837-82.935c-0.588,2.083,0.754,5.66,0,8.254
		c-0.884,3.036-8.654,8.11-12.186,11.005c-28.972,23.755-58.743,49.306-86.472,73.108c0.244,1.065,1.642,0.978,1.572,2.358
		c4.629-1.421,8.57-4.655,12.577-7.468c27.514-19.312,56.791-40.563,84.508-58.958c-0.626,1.978,0.803,5.409,0,7.861
		c-0.674,2.056-8.004,6.531-11.006,8.647c-26.638,18.774-55.553,38.055-80.97,56.6c0.819,0.753,1.638,1.507,1.966,2.751
		c29.801-15.531,59.868-34.203,89.616-51.097c0.912,2.101,0.135,5.892,0.394,8.647c-28.688,16.251-57.533,32.347-85.294,49.525
		c0.441,1,0.966,1.917,1.572,2.751c27.47-11.574,55.986-25.508,83.328-38.52c0.912,1.971,0.135,5.63,0.394,8.254
		c-26.796,12.379-53.467,24.884-80.184,37.34c0.467,1.236,1.326,2.08,1.572,3.538c25.476-8.458,52.582-18.691,78.218-28.3
		c0.911,1.84,0.136,5.367,0.394,7.861c-24.999,9.459-50.948,17.967-75.467,27.907c0.238,1.203,0.834,2.048,1.179,3.144
		c24.492-5.118,49.503-13.125,74.288-19.259c0,2.489,0,4.979,0,7.468c-23.805,6.724-48.467,12.589-71.93,19.653
		c0.175,1.267,0.753,2.129,0.786,3.538c23.09-3.116,47.628-8.185,71.144-12.185c0,2.49,0,4.979,0,7.468
		c-23.017,4.104-46.03,8.211-69.178,12.185c-0.276,1.717,0.668,2.214,0.393,3.931c22.383-0.808,45.883-3.904,68.785-5.502
		c0,2.489,0,4.979,0,7.468c-10.17,0.91-20.452,1.419-30.659,2.358c-10.01,0.92-20.185,3.137-29.872,2.751
		c-7.159-0.286-14.02-2.689-21.225-3.145c-26.289-1.663-45.518,6.407-62.496,15.722c-13.631,7.479-24.821,16.867-36.161,26.728
		c23.488,23.417,57.136,36.674,86.473,54.242c-0.321,1.775,3.427,3.188,1.965,3.538c-21.308-10.464-43.978-18.91-64.461-29.872
		c-20.714-11.085-41.076-21.073-57.386-36.554C360.743,294.694,337.166,254.387,287.941,242.271z"/>
	<path fill-rule="evenodd" clip-rule="evenodd" fill="#000E78" d="M404.286,634.146c-52.264-14.004-115.848,3.699-166.263,6.682
		c19.348-2.678,41.306-6.609,62.889-10.611c20.718-3.842,42.22-10.129,62.89-8.648C379.183,622.67,390.524,630.082,404.286,634.146z
		"/>
	<path fill-rule="evenodd" clip-rule="evenodd" fill="#000E78" d="M420.794,634.539c13.111-4.34,24.799-11.793,40.092-12.971
		c22.28-1.715,43.412,5.393,64.461,9.041c21.521,3.73,42.131,7.107,61.71,10.613C534.754,637.367,473.594,619.877,420.794,634.539z"
		/>
	<path fill-rule="evenodd" clip-rule="evenodd" fill="#000E78" d="M168.846,10.368c9.433,0,18.866,0,28.3,0
		c0,6.944,0,13.888,0,20.832c8.648,0.917,18.998,0.131,28.301,0.393c0.916-6.29,0.131-14.281,0.393-21.225
		c9.564,0,19.129,0,28.693,0c0,6.944,0,13.888,0,20.832c8.909,0.917,19.521,0.131,29.086,0.393c0-7.075,0-14.15,0-21.225
		c9.434,0,18.866,0,28.3,0c0,7.075,0,14.15,0,21.225c9.695,0,19.391,0,29.086,0c0-7.075,0-14.15,0-21.225c9.434,0,18.866,0,28.3,0
		c0,6.944,0,13.888,0,20.832c8.91,0.917,19.521,0.131,29.086,0.393c0-7.075,0-14.15,0-21.225c9.434,0,18.867,0,28.301,0
		c0,7.075,0,14.15,0,21.225c9.695,0,19.391,0,29.086,0c0-7.075,0-14.15,0-21.225c9.564,0,19.129,0,28.693,0
		c0,6.944,0,13.888,0,20.832c8.909,0.917,19.521,0.131,29.086,0.393c0-7.075,0-14.15,0-21.225c9.433,0,18.866,0,28.3,0
		c0,6.944,0,13.888,0,20.832c8.778,0.917,19.259,0.131,28.693,0.393c0.916-6.29,0.131-14.281,0.393-21.225c9.434,0,18.866,0,28.3,0
		c0,6.944,0,13.888,0,20.832c8.91,0.917,19.521,0.131,29.086,0.393c0-7.075,0-14.15,0-21.225c9.434,0,18.867,0,28.301,0
		c0,159.453,0,318.896,0,478.349c36.423,0,72.846,0,109.27,0c0,9.434,0,18.865,0,28.299c14.412,0.918,30.526,0.131,45.594,0.395
		c0,28.691,0,57.385,0,86.078c-39.437,0-78.873,0-118.31,0c0-9.695,0-19.391,0-29.086c-12.185,0-24.369,0-36.554,0
		c0,16,0,33.42,0,50.703c0,18.783,1.784,38.258-5.503,49.525c-11.368,17.578-44.569,14.15-74.681,14.15
		c-38.316,0-76.966,0-115.951,0c-7.872,0-16.454-1.18-22.798,0c-3.558,0.662-7.765,4.117-10.219,6.682
		c-5.524,5.773-10.273,15.34-14.543,21.225c-8.057-9.5-12.717-22.396-24.763-27.906c-52.394,0-113.314,0-168.621,0
		c-9.844,0-18.805,0.355-26.334-1.965c-7.234-2.23-15.057-6.537-18.475-11.398c-7.795-11.09-6.289-29.064-6.289-47.168
		c0-18.189,0-36.123,0-53.455c-11.791-0.916-25.285-0.131-37.732-0.393c-0.917,8.91-0.132,19.521-0.394,29.086
		c-39.437,0-78.873,0-118.31,0c0-28.693,0-57.387,0-86.078c15.198,0,30.396,0,45.594,0c0-9.564,0-19.129,0-28.693
		c36.816,0,73.633,0,110.449,0c0.917-158.265,0.131-318.252,0.393-477.17C168.419,10.989,168.388,10.434,168.846,10.368z
		 M392.888,325.205c16.31,15.481,36.672,25.469,57.386,36.554c20.483,10.962,43.153,19.408,64.461,29.872
		c1.462-0.349-2.286-1.763-1.965-3.538c-29.337-17.568-62.984-30.825-86.473-54.242c11.34-9.861,22.53-19.249,36.161-26.728
		c16.979-9.315,36.207-17.385,62.496-15.722c7.205,0.456,14.065,2.859,21.225,3.145c9.688,0.386,19.862-1.831,29.872-2.751
		c10.207-0.939,20.489-1.448,30.659-2.358c0-2.489,0-4.979,0-7.468c-22.902,1.598-46.402,4.695-68.785,5.502
		c0.275-1.717-0.669-2.214-0.393-3.931c23.147-3.973,46.161-8.081,69.178-12.185c0-2.489,0-4.979,0-7.468
		c-23.516,4-48.054,9.069-71.144,12.185c-0.033-1.408-0.611-2.271-0.786-3.538c23.463-7.064,48.125-12.929,71.93-19.653
		c0-2.489,0-4.979,0-7.468c-24.785,6.135-49.796,14.142-74.288,19.259c-0.345-1.096-0.94-1.941-1.179-3.144
		c24.519-9.94,50.468-18.448,75.467-27.907c-0.258-2.494,0.518-6.021-0.394-7.861c-25.636,9.608-52.742,19.841-78.218,28.3
		c-0.246-1.458-1.105-2.301-1.572-3.538c26.717-12.457,53.388-24.961,80.184-37.34c-0.259-2.624,0.519-6.283-0.394-8.254
		c-27.342,13.012-55.858,26.945-83.328,38.52c-0.606-0.834-1.131-1.752-1.572-2.751c27.761-17.178,56.606-33.273,85.294-49.525
		c-0.259-2.755,0.519-6.546-0.394-8.647c-29.748,16.894-59.815,35.566-89.616,51.097c-0.328-1.245-1.146-1.998-1.966-2.751
		c25.417-18.545,54.332-37.825,80.97-56.6c3.002-2.116,10.332-6.592,11.006-8.647c0.803-2.453-0.626-5.884,0-7.861
		c-27.717,18.395-56.994,39.646-84.508,58.958c-4.007,2.813-7.948,6.047-12.577,7.468c0.069-1.38-1.328-1.293-1.572-2.358
		c27.729-23.802,57.5-49.353,86.472-73.108c3.531-2.896,11.302-7.969,12.186-11.005c0.754-2.595-0.588-6.172,0-8.254
		c-32.168,26.195-66.987,55.671-99.837,82.935c-1.949,1.618-4.203,5.244-6.682,1.179c30.18-31.045,62.104-62.891,93.154-93.94
		c3.884-3.885,12.292-9.851,13.364-13.757c0.806-2.94-0.622-7.028,0-9.434c-34.509,33.645-71.308,70.521-106.125,105.339
		c-1.758,1.757-5.381,6.518-7.075,5.503c-3.255-1.951,2.326-7.223,3.537-8.647c34.697-40.804,68.339-82.019,102.588-122.24
		c0.768-0.901,3.131-2.214,2.358-3.931c-2.752,0-5.503,0-8.255,0c-33.844,40.304-69.446,82.085-103.373,122.633
		c-1.953,2.334-3.968,7.535-7.861,3.538c28.024-40.625,57.576-82.194,85.687-122.24c0.643-0.916,2.182-2.571,1.572-3.931
		c-2.621,0-5.241,0-7.861,0c-24.093,34.152-50.624,71.84-75.074,107.304c-2.39,3.467-9.211,14.638-11.398,14.15
		c-0.506-0.113-1.087-1.44-2.358-1.572c22.68-40.211,46.225-79.553,68.785-119.882c-2.752,0-5.503,0-8.254,0
		c-18.93,34.041-40.12,68.256-58.959,101.802c-2.813,5.011-4.928,10.827-9.04,14.15c-0.551-0.628-1.354-1.004-2.358-1.179
		c17.065-38.88,35.459-76.431,53.063-114.772c-2.751,0-5.503,0-8.254,0c-17.354,37.15-34.126,74.882-52.276,111.235
		c-1.097-0.345-1.941-0.941-3.145-1.179c12.914-37.004,26.799-73.036,39.698-110.056c-2.62,0-5.24,0-7.86,0
		c-12.866,36.004-25.479,72.261-39.306,107.304c-1.102-0.209-2.044-0.577-3.145-0.786c8.957-35.981,18.816-71.062,28.3-106.518
		c-2.62,0-5.241,0-7.861,0c-7.922,30.581-16.349,62.206-24.369,91.975c-1.156,4.291-1.778,8.901-4.324,12.578
		c-0.688-0.621-2.094-0.526-3.144-0.786c6.37-34.375,12.157-69.335,18.474-103.767c-2.49,0-4.979,0-7.469,0
		c-6.355,33.998-11.71,68.998-18.474,102.588c-0.651-0.658-2.308-0.313-3.537-0.393c2.685-34.263,6.179-67.716,8.647-102.195
		c-2.358,0-4.717,0-7.075,0c-2.631,28.908-5.465,60.306-7.861,89.224c-0.341,4.109-0.077,8.521-1.966,12.185
		c-1.048,0-2.096,0-3.145,0c0-33.803,0-67.606,0-101.409c-2.488,0-4.979,0-7.467,0c-0.263,33.672,0.523,68.392-0.394,101.409
		c-1.048,0-2.097,0-3.145,0c-3.419-33.397-6.073-67.56-9.04-101.409c-2.49,0-4.979,0-7.469,0
		c2.811,33.875,6.469,68.998,8.647,102.195c-1.432-0.122-2.558,0.062-3.537,0.393c-6.151-34.072-12.196-68.249-18.081-102.588
		c-2.489,0-4.979,0-7.468,0c5.585,34.638,12.942,69.6,17.688,103.767c-1.101,0.209-2.044,0.577-3.145,0.786
		c-9.835-34.449-18.763-69.805-28.3-104.553c-2.489,0-4.979,0-7.469,0c8.979,35.568,19.85,71.339,27.908,106.518
		c-1.251,0.06-1.73,0.891-3.145,0.786c-13.494-35.376-26.178-71.563-39.307-107.304c-2.493,0.258-6.021-0.518-7.86,0.393
		c13.364,36.16,27.434,73.713,39.698,109.663c-0.88,0.43-1.969,0.651-2.752,1.179c-18.527-36.105-34.85-74.42-52.669-111.235
		c-2.62,0-5.241,0-7.86,0c13.007,28.802,26.926,57.782,40.092,86.079c4.429,9.521,9.211,18.847,12.577,28.693
		c-1.389,0.184-2.151,0.993-3.145,1.572c-22.035-39.021-44.849-77.26-66.819-116.345c-2.755,0.259-6.546-0.519-8.647,0.393
		c22.94,39.689,47.182,80.167,68.784,119.882c-1.195-0.018-1.527,0.83-2.357,1.179c-2.938-1.037-3.937-4.45-5.503-6.682
		c-26.779-38.151-54.206-76.697-80.576-114.772c-2.883,0-5.765,0-8.647,0c25.549,37.621,55.728,79.835,82.935,118.703
		c2.604,3.721,6.957,8.204,1.966,9.433c-33.23-39.231-68.495-80.145-101.802-120.275c-4.532-5.46-5.845-9.731-15.329-7.861
		c33.538,41.088,70.311,84.216,104.945,125.778c1.836,2.203,7.049,6.363,4.717,8.647c-1.695,1.661-1.66,1.267-4.323-1.179
		c-1.362-1.251-3.13-3.13-3.538-3.538c-33.815-33.816-67.392-67.392-100.621-100.622c-0.846-0.845-1.66-2.951-3.145-2.358
		c0,3.013,0,6.027,0,9.04c30.275,30.422,61.471,61.865,91.975,92.368c2.857,2.857,13.006,10.885,12.185,13.364
		c-0.975,2.942-3.885,1.162-6.683-1.179c-30.682-25.672-60.938-51.436-91.188-76.646c-2.18-1.816-4.264-4.754-6.289-4.324
		c0,2.751,0,5.503,0,8.254c30.043,25.503,61.4,51.811,91.188,77.039c1.749,1.482,5.154,2.568,5.109,5.503
		c-1.852,3.036-4.177,0.812-5.896-0.393c-28.18-19.753-56.672-40.081-84.507-59.352c-2.043-1.414-4.368-3.682-5.896-3.144
		c0,2.751,0,5.502,0,8.254c25.213,16.914,53.213,37.417,79.004,55.421c4.202,2.934,14.027,6.709,8.646,10.612
		c-29.508-16.479-58.304-33.671-87.65-50.311c0,2.882,0,5.765,0,8.647c28.139,15.49,55.113,32.144,83.327,47.56
		c0.616,1.278-2.03,2.118,0,2.358C337.166,254.387,360.743,294.694,392.888,325.205z M204.614,214.363
		c14.51,6.406,28.91,13.177,43.629,20.046c4.48,2.091,10.23,6.13,14.543,6.682c5.248,0.672,11.173-1.139,16.508-0.393
		c-25.135-11.288-49.635-23.211-74.68-34.589C204.614,208.861,204.614,211.612,204.614,214.363z M204.614,234.409
		c10.045,3.712,20.133,7.38,30.265,11.006c3.856-1.384,8.588-1.894,12.578-3.145c-14.299-5.093-28.152-10.629-42.843-15.329
		C204.614,229.431,204.614,231.92,204.614,234.409z M204.614,253.669c3.42,0.03,5.82,2.362,8.646,1.965
		c3.161-0.444,5.334-4.257,8.254-5.11c-5.635-1.439-10.89-3.26-16.9-4.324C204.614,248.69,204.614,251.18,204.614,253.669z
		 M584.698,307.125c6.951,1.082,13.637-0.787,22.012,0c0-2.489,0-4.979,0-7.468c-13.758,0.262-28.563-0.524-41.664,0.393
		C571.783,300.578,577.779,306.047,584.698,307.125z M385.026,466.705c-12.584,0.625-23.186,9.977-24.763,22.404
		c-1.703,13.416,0,31.398,0,48.346c0,17.455,0,34.539,0,48.346c34.981,0,69.964,0,104.946,0c-1.875-26.305,2.475-67.994,0-94.334
		c-1.337-14.225-12.411-24.689-26.335-24.762c-14.103-0.074-23.927,10.404-26.335,22.797
		C409.284,476.467,401.034,465.91,385.026,466.705z M59.576,491.861c0,26.99,0,53.979,0,80.969c77.564,0,155.126,0,232.688,0
		c0-27.383,0-54.766,0-82.148c-77.434,0-154.862,0-232.295,0C59.511,490.748,59.542,491.303,59.576,491.861z M531.243,491.861
		c0,26.99,0,53.979,0,80.969c77.564,0,155.125,0,232.688,0c0-27.383,0-54.766,0-82.148c-77.434,0-154.863,0-232.296,0
		C531.178,490.748,531.209,491.303,531.243,491.861z M13.589,520.553c0,26.99,0,53.98,0,80.971c38.257,0,76.516,0,114.771,0
		c0-8.91,0-17.818,0-26.729c-23.453-0.262-47.951,0.523-70.75-0.393c0-18.342,0-36.686,0-55.027c-14.542,0-29.085,0-43.628,0
		C13.524,519.441,13.555,519.996,13.589,520.553z M765.897,520.553c-0.262,17.951,0.521,36.947-0.394,54.242
		c-23.452,0-46.905,0-70.356,0c0,8.91,0,17.818,0,26.729c38.256,0,76.515,0,114.771,0c0-27.383,0-54.766,0-82.148
		c-14.543,0-29.086,0-43.629,0C765.832,519.441,765.863,519.996,765.897,520.553z M370.09,613.707
		c-2.53-0.389-5.408-0.588-8.254-0.393c-22.389,1.545-44.718,8.904-67.605,13.363c-23.005,4.484-46.78,5.178-70.75,8.648
		c-4.521,5.043-7.891,11.238-9.827,18.867c57.04-1.789,117.63-2.736,174.91-4.717c3.943-0.137,8.96,0.344,11.792-0.395
		c1.573-0.408,4.278-3.129,6.288-4.717c0.992-0.781,4.833-4.814,6.29-4.715c-0.139-0.01,2.501,2.16,2.751,2.357
		c2.948,2.334,6.357,6.346,9.434,7.074c2.956,0.701,7.406,0.256,11.398,0.395c58.31,2.018,117.604,2.904,174.909,4.717
		c-1.754-7.811-5.198-13.93-9.826-18.867c-24.629-3.445-48.716-4.289-73.108-9.434c-11.02-2.324-22.605-5.156-33.803-7.469
		c-11.753-2.426-24.989-5.816-36.554-5.109c-18.574,1.137-31.274,11.986-45.595,18.475
		C399.882,625.209,386.334,616.207,370.09,613.707z"/>
	<path fill-rule="evenodd" clip-rule="evenodd" fill="#FFFFFF" d="M412.54,631.789c14.32-6.488,27.021-17.338,45.595-18.475
		c11.564-0.707,24.801,2.684,36.554,5.109c11.197,2.313,22.783,5.145,33.803,7.469c24.393,5.145,48.479,5.988,73.108,9.434
		c4.628,4.938,8.072,11.057,9.826,18.867c-57.306-1.813-116.6-2.699-174.909-4.717c-3.992-0.139-8.442,0.307-11.398-0.395
		c-3.076-0.729-6.485-4.74-9.434-7.074c-0.25-0.197-2.89-2.367-2.751-2.357c-1.457-0.1-5.298,3.934-6.29,4.715
		c-2.01,1.588-4.715,4.309-6.288,4.717c-2.832,0.738-7.849,0.258-11.792,0.395c-57.28,1.98-117.87,2.928-174.91,4.717
		c1.937-7.629,5.306-13.824,9.827-18.867c23.97-3.471,47.745-4.164,70.75-8.648c22.888-4.459,45.217-11.818,67.605-13.363
		c2.846-0.195,5.724,0.004,8.254,0.393C386.334,616.207,399.882,625.209,412.54,631.789z M363.802,621.568
		c-20.67-1.48-42.172,4.807-62.89,8.648c-21.583,4.002-43.541,7.934-62.889,10.611c50.415-2.982,113.999-20.686,166.263-6.682
		C390.524,630.082,379.183,622.67,363.802,621.568z M587.057,641.223c-19.579-3.506-40.188-6.883-61.71-10.613
		c-21.049-3.648-42.181-10.756-64.461-9.041c-15.293,1.178-26.98,8.631-40.092,12.971
		C473.594,619.877,534.754,637.367,587.057,641.223z"/>
</g>
<rect x="58.638" y="489.548" fill-rule="evenodd" clip-rule="evenodd" fill="none" stroke="#000000" stroke-width="2" width="235.442" height="84.356"/>
<polyline fill-rule="evenodd" clip-rule="evenodd" fill="none" stroke="#000000" stroke-width="2" points="58.059,518.542 
	12.75,518.542 12.75,602.5 129.667,602.5 "/>
<g>
	<path d="M560.553,554.999l1.228-5.319c1.289,0.446,2.69,0.67,4.203,0.67c1.711,0,2.889-0.378,3.534-1.135
		c0.644-0.756,0.967-2.126,0.967-4.109v-22.764c-2.133,0-4.749,0.224-7.849,0.67l-0.632-5.914
		c5.653-0.719,11.394-1.079,17.221-1.079c5.901,0,10.439,0.497,13.613,1.488c3.174,0.992,5.598,2.808,7.271,5.449
		c1.674,2.641,2.511,6.527,2.511,11.66v21.313h-7.104v-19.416c0-3.843-0.291-6.657-0.874-8.442
		c-0.582-1.786-1.854-3.236-3.813-4.353c-1.959-1.115-5.194-1.673-9.707-1.673l-3.571,0.074v23.916c0,2.479-0.229,4.377-0.688,5.69
		c-0.459,1.314-1.414,2.394-2.864,3.236s-3.614,1.265-6.49,1.265C565.178,556.227,562.859,555.817,560.553,554.999z"/>
	<path d="M621.032,516.465v20.42h-7.253v-20.42H621.032z"/>
	<path d="M639.815,516.465v20.42h-7.253v-20.42H639.815z"/>
	<path d="M647.067,516.837c3.818-0.545,7.328-0.818,10.526-0.818c7.984,0,13.545,1.544,16.682,4.631
		c3.137,3.088,4.705,7.743,4.705,13.967v21.313h-7.066v-19.416c0-3.595-0.385-6.31-1.153-8.146
		c-0.769-1.834-2.244-3.322-4.426-4.463c-2.183-1.141-5.232-1.711-9.15-1.711c-2.653,0-5.827,0.248-9.521,0.744L647.067,516.837z"/>
	<path d="M697.393,516.465v20.42h-7.253v-20.42H697.393z"/>
	<path d="M714.911,551.131l-6.844-34.666h7.476l5.84,32.472c4.215-1.661,6.855-4.048,7.922-7.16c1.066-3.111,1.6-7.023,1.6-11.735
		l0.372-13.576h7.179l-0.372,10.452c-0.199,5.034-0.416,8.567-0.651,10.601s-0.88,4.271-1.934,6.714
		c-1.055,2.442-2.598,4.563-4.631,6.359c-2.033,1.799-5.016,3.441-8.945,4.929c-3.931,1.488-9.54,2.839-16.83,4.055l-1.005-6.175
		C708.525,552.755,712.134,551.999,714.911,551.131z"/>
</g>
<g>
	<path d="M69.71,513.424h30.561v9.819c0,2.803-0.242,5.053-0.724,6.751c-0.482,1.699-1.347,3.44-2.594,5.227l-1.87,2.678
		c-1.93,2.728-2.894,5.616-2.894,8.666v6.323h-6.74v-5.318c0-2.703,0.229-4.892,0.688-6.565c0.458-1.674,1.417-3.478,2.876-5.412
		l2.082-2.826c1.011-1.363,1.676-2.598,1.994-3.701c0.318-1.103,0.477-2.56,0.477-4.37v-5.319H69.71V513.424z M70.275,568.063
		v-37.418h6.458v37.418H70.275z"/>
	<path d="M105.564,513.796c3.623-0.545,6.952-0.818,9.987-0.818c7.575,0,12.851,1.544,15.827,4.631
		c2.976,3.088,4.464,7.743,4.464,13.967v21.313h-6.705v-19.416c0-3.595-0.365-6.31-1.094-8.146
		c-0.729-1.834-2.129-3.322-4.199-4.463c-2.07-1.141-4.964-1.711-8.681-1.711c-2.518,0-5.529,0.248-9.034,0.744L105.564,513.796z"/>
	<path d="M172.578,546.937h5.964v5.951h-35.818v-5.951h23.114v-13.465c0-3.669-0.388-6.428-1.165-8.275
		c-0.776-1.847-2.183-3.316-4.217-4.407c-2.035-1.091-5.205-1.637-9.51-1.637c-1.53,0-3.894,0.174-7.093,0.521l-0.564-5.877
		c3.176-0.545,6.552-0.818,10.128-0.818c6.728,0,11.604,1.538,14.627,4.612c3.023,3.075,4.535,7.736,4.535,13.985V546.937z"/>
	<path d="M182.424,536.522v-6.732h19.515v6.732H182.424z"/>
	<path d="M216.548,513.424v20.42h-6.881v-20.42H216.548z"/>
	<path d="M242.204,552.888h-18.068v-5.951h11.328v-19.341c0-2.133-0.153-3.751-0.459-4.854c-0.306-1.103-0.959-1.989-1.958-2.659
		c-1-0.669-2.335-1.004-4.005-1.004c-1.435,0-2.717,0.124-3.846,0.372l-0.494-5.654c1.576-0.545,3.505-0.818,5.787-0.818
		c3.199,0,5.646,0.633,7.34,1.897s2.846,2.821,3.458,4.668c0.611,1.848,0.917,4.457,0.917,7.829V552.888z"/>
	<path d="M279.116,546.937h5.964v5.951h-35.818v-5.951h23.114v-13.465c0-3.669-0.388-6.428-1.165-8.275
		c-0.776-1.847-2.183-3.316-4.217-4.407c-2.035-1.091-5.205-1.637-9.51-1.637c-1.53,0-3.894,0.174-7.093,0.521l-0.564-5.877
		c3.176-0.545,6.552-0.818,10.128-0.818c6.728,0,11.604,1.538,14.627,4.612c3.023,3.075,4.535,7.736,4.535,13.985V546.937z"/>
</g>
<line fill-rule="evenodd" clip-rule="evenodd" fill="none" stroke="#000000" stroke-width="2" x1="129.326" y1="603.488" x2="129.326" y2="574"/>
<rect x="529.89" y="489.768" fill-rule="evenodd" clip-rule="evenodd" fill="none" stroke="#000000" stroke-width="2" width="234.732" height="84.149"/>
<polyline fill-rule="evenodd" clip-rule="evenodd" fill="none" stroke="#000000" stroke-width="2" points="764.513,518.725 
	809.919,518.725 809.919,602.523 694.182,602.523 694.182,573.776 "/>
</svg>
