<?xml version="1.0" encoding="UTF-8" standalone="no"?>
<!-- Created with Inkscape (http://www.inkscape.org/) -->

<svg
   xmlns:dc="http://purl.org/dc/elements/1.1/"
   xmlns:cc="http://creativecommons.org/ns#"
   xmlns:rdf="http://www.w3.org/1999/02/22-rdf-syntax-ns#"
   xmlns:svg="http://www.w3.org/2000/svg"
   xmlns="http://www.w3.org/2000/svg"
   xmlns:sodipodi="http://sodipodi.sourceforge.net/DTD/sodipodi-0.dtd"
   xmlns:inkscape="http://www.inkscape.org/namespaces/inkscape"
   width="114.96832mm"
   height="148.00401mm"
   viewBox="0 0 114.96833 148.00402"
   version="1.1"
   id="svg8"
   inkscape:version="0.92.3 (2405546, 2018-03-11)"
   sodipodi:docname="Dimona_COA.svg">
  <defs
     id="defs2" />
  <sodipodi:namedview
     id="base"
     pagecolor="#ffffff"
     bordercolor="#666666"
     borderopacity="1.0"
     inkscape:pageopacity="0.0"
     inkscape:pageshadow="2"
     inkscape:zoom="0.7"
     inkscape:cx="657.31937"
     inkscape:cy="425.97579"
     inkscape:document-units="mm"
     inkscape:current-layer="layer1"
     showgrid="false"
     fit-margin-top="0"
     fit-margin-left="0"
     fit-margin-right="0"
     fit-margin-bottom="0"
     inkscape:window-width="1920"
     inkscape:window-height="1001"
     inkscape:window-x="-9"
     inkscape:window-y="-9"
     inkscape:window-maximized="1" />
  <metadata
     id="metadata5">
    <rdf:RDF>
      <cc:Work
         rdf:about="">
        <dc:format>image/svg+xml</dc:format>
        <dc:type
           rdf:resource="http://purl.org/dc/dcmitype/StillImage" />
        <dc:title></dc:title>
      </cc:Work>
    </rdf:RDF>
  </metadata>
  <g
     inkscape:label="Layer 1"
     inkscape:groupmode="layer"
     id="layer1"
     transform="translate(411.8443,-50.049977)">
    <path
       inkscape:connector-curvature="0"
       style="color:#000000;font-style:normal;font-variant:normal;font-weight:normal;font-stretch:normal;font-size:medium;line-height:normal;font-family:sans-serif;font-variant-ligatures:normal;font-variant-position:normal;font-variant-caps:normal;font-variant-numeric:normal;font-variant-alternates:normal;font-feature-settings:normal;text-indent:0;text-align:start;text-decoration:none;text-decoration-line:none;text-decoration-style:solid;text-decoration-color:#000000;letter-spacing:normal;word-spacing:normal;text-transform:none;writing-mode:lr-tb;direction:ltr;text-orientation:mixed;dominant-baseline:auto;baseline-shift:baseline;text-anchor:start;white-space:normal;shape-padding:0;clip-rule:nonzero;display:inline;overflow:visible;visibility:visible;opacity:1;isolation:auto;mix-blend-mode:normal;color-interpolation:sRGB;color-interpolation-filters:linearRGB;solid-color:#000000;solid-opacity:1;vector-effect:none;fill:#002d71;fill-opacity:1;fill-rule:nonzero;stroke:#002d71;stroke-width:6;stroke-linecap:butt;stroke-linejoin:miter;stroke-miterlimit:4;stroke-dasharray:none;stroke-dashoffset:0;stroke-opacity:1;color-rendering:auto;image-rendering:auto;shape-rendering:auto;text-rendering:auto;enable-background:accumulate"
       d="m -397.93139,53.049977 -10.56679,104.444803 c -0.21654,2.14042 -0.38921,3.84254 -0.33589,5.45753 0.0533,1.61502 0.39722,3.25543 1.30379,4.66431 1.81313,2.81779 4.72268,4.02847 9.50692,6.27044 l 43.66348,20.84266 43.66297,-20.84266 c 4.78425,-2.24197 7.69376,-3.45265 9.5069,-6.27044 0.90657,-1.40888 1.2505,-3.04929 1.30381,-4.66431 0.0533,-1.61499 -0.11938,-3.31711 -0.33591,-5.45753 L -315.02224,53.049977 h -16.10651 v 10.045911 h -5.53143 V 53.049977 h -17.39067 v 10.045911 h -0.29766 -4.25659 -0.29765 V 53.049977 h -17.39067 v 10.045911 h -5.53146 V 53.049977 Z"
       id="path1221-5" />
    <path
       style="fill:#ffffff;stroke:none;stroke-width:0.26458332px;stroke-linecap:butt;stroke-linejoin:miter;stroke-opacity:1"
       d="m -385.6965,151.00637 -3.61992,1.96731 c 0.35822,1.03958 1.13075,2.04108 3.04321,3.00241 l 3.9419,2.00867 0.006,0.004 c 0.66913,0.38635 1.0133,0.86363 1.07487,1.37099 0.0616,0.50737 -0.13922,0.99171 -0.40203,1.44693 l -3.25872,6.21202 4.11705,2.12132 3.96565,-7.8827 c 0.39087,-0.77695 0.57256,-1.89021 0.28216,-2.98794 -0.29044,-1.09776 -1.03889,-2.18967 -2.54921,-2.975 l -3.75274,-1.9508 c -1.21283,-0.58251 -1.83127,-0.99478 -2.21899,-1.39422 -0.31302,-0.3225 -0.46135,-0.62524 -0.62941,-0.94258 z m 64.27671,0.0884 -9.67176,4.55941 -0.005,0.003 c -1.07662,0.45562 -1.84468,0.46964 -2.67685,0.29766 l -0.031,4.23283 1.40044,0.03 c 0.90763,-1.9e-4 1.44582,-0.19093 2.16162,-0.4744 l 5.11286,-2.71457 -0.1421,0.57518 c -0.0947,0.38253 -0.11039,0.71715 0.1793,1.17768 l 0.004,0.006 3.77756,6.69624 3.96822,-2.03139 -3.63543,-7.03109 0.006,0.0108 c -0.15997,-0.27707 -0.24194,-0.61446 -0.20982,-0.94723 0.0322,-0.33277 0.20305,-0.67927 0.54883,-0.85058 l 0.478,-0.2372 z m -69.05368,5.97017 -2.82617,5.49526 4.13411,2.16524 3.32383,-6.67141 z m 18.58751,0.72863 -2.69804,3.01273 2.7032,1.81385 -1.38182,5.37332 -3.21479,-0.46405 -1.43867,3.8163 8.43669,1.19578 1.85983,-7.99174 v -0.004 c 0.45226,-1.68783 0.44432,-2.73217 0.21135,-3.41477 -0.23296,-0.6826 -0.68633,-1.04666 -1.26246,-1.39475 z m 31.63268,0.26459 -0.76015,4.2473 1.08003,0.0589 h -0.0145 c 0.41712,0 0.73978,0.17621 0.91363,0.43822 0.17389,0.262 0.22919,0.56457 0.29716,0.87228 l 1.06039,3.82665 4.17804,-2.26859 -1.3906,-4.38889 c -0.24378,-0.76927 -0.60878,-1.47351 -1.05214,-1.97196 -0.44336,-0.49848 -0.94869,-0.7864 -1.50998,-0.79116 z m -23.45232,1.16271 -2.11251,3.43598 0.6015,0.3483 c 0.36261,0.19103 0.6458,0.36333 0.78909,0.68109 0.14394,0.31911 0.11803,0.69114 0.0222,1.25315 v 0.007 l -1.16015,8.20568 4.64159,0.54004 1.12448,-10.13375 c 0.0742,-0.99256 -0.0685,-1.71334 -0.35812,-2.24121 -0.28958,-0.52787 -0.72784,-0.87865 -1.30897,-1.12397 h -0.003 z m 16.86512,0.4894 c -3.27366,-0.003 -4.56787,1.1526 -5.79448,2.19263 l -0.17259,0.14676 -0.17155,-0.1478 c -0.85971,-0.74223 -1.54948,-1.43144 -3.94396,-1.68568 l -1.50585,3.87625 0.93845,0.13126 0.0161,0.004 c 0.31385,0.0841 0.54271,0.24498 0.67077,0.45217 0.12811,0.2072 0.1514,0.43223 0.1514,0.63096 v -0.0164 l 0.56017,8.88783 4.70308,-0.22479 -0.57825,-6.57995 v -0.0114 c 0,-1.62283 1.2478,-3.37291 3.62302,-3.37291 0.42611,0 0.87035,0.0816 1.23404,0.34105 0.36372,0.25947 0.61857,0.70281 0.6594,1.31 v 0.009 2.84737 l -0.008,0.031 c -0.1044,0.4291 -0.25423,0.75388 -0.46921,0.98856 -0.215,0.23469 -0.49551,0.3638 -0.78962,0.4036 -0.51366,0.0695 -1.08881,-0.0911 -1.7322,-0.27544 l -0.73949,3.30626 c 1.14144,0.41133 2.96157,1.12776 4.75888,0.82839 0.62825,-0.10467 1.6007,-0.48144 2.37196,-1.07696 0.77124,-0.59553 1.33472,-1.38274 1.29241,-2.34559 l -0.26561,-6.03787 c -0.0421,-0.95858 -0.37672,-2.12381 -1.12758,-3.03236 -0.75086,-0.90858 -1.90656,-1.57975 -3.68144,-1.57975 z"
       id="path1185-1"
       inkscape:connector-curvature="0" />
    <path
       id="path1199-6"
       d="m -397.93139,53.049977 -10.56679,104.444803 c -0.21654,2.14042 -0.38921,3.84254 -0.33589,5.45753 0.0533,1.61502 0.39722,3.25543 1.30379,4.66431 1.81313,2.81779 4.72268,4.02847 9.50692,6.27044 l 43.66348,20.84266 43.66297,-20.84266 c 4.78425,-2.24197 7.69376,-3.45265 9.5069,-6.27044 0.90657,-1.40888 1.2505,-3.04929 1.30381,-4.66431 0.0533,-1.61499 -0.11938,-3.31711 -0.33591,-5.45753 L -315.02224,53.049977 h -16.10651 v 10.045911 h -5.53143 V 53.049977 h -17.39067 v 10.045911 h -0.29766 -4.25659 -0.29765 V 53.049977 h -17.39067 v 10.045911 h -5.53146 V 53.049977 Z m 5.26169,5.820833 h 5.02399 v 10.045911 h 17.17313 V 58.87081 h 5.74899 v 10.045911 h 6.11849 4.25659 6.11849 V 58.87081 h 5.749 v 10.045911 h 17.1731 V 58.87081 h 5.02399 l 14.27046,99.20996 c 0.21405,2.11572 0.34293,3.66776 0.30954,4.67932 -0.0334,1.01155 -0.16495,1.37054 -0.38137,1.70685 -0.43284,0.67265 -2.36083,1.93733 -7.08174,4.14962 l -41.19284,19.66857 -41.19335,-19.66857 c -4.72091,-2.21229 -6.6489,-3.47697 -7.08173,-4.14962 -0.21643,-0.33631 -0.34798,-0.6953 -0.38137,-1.70685 -0.0334,-1.01156 0.0955,-2.5636 0.30953,-4.67932 z"
       style="color:#000000;font-style:normal;font-variant:normal;font-weight:normal;font-stretch:normal;font-size:medium;line-height:normal;font-family:sans-serif;font-variant-ligatures:normal;font-variant-position:normal;font-variant-caps:normal;font-variant-numeric:normal;font-variant-alternates:normal;font-feature-settings:normal;text-indent:0;text-align:start;text-decoration:none;text-decoration-line:none;text-decoration-style:solid;text-decoration-color:#000000;letter-spacing:normal;word-spacing:normal;text-transform:none;writing-mode:lr-tb;direction:ltr;text-orientation:mixed;dominant-baseline:auto;baseline-shift:baseline;text-anchor:start;white-space:normal;shape-padding:0;clip-rule:nonzero;display:inline;overflow:visible;visibility:visible;opacity:1;isolation:auto;mix-blend-mode:normal;color-interpolation:sRGB;color-interpolation-filters:linearRGB;solid-color:#000000;solid-opacity:1;vector-effect:none;fill:#ffffff;fill-opacity:1;fill-rule:nonzero;stroke:#002d71;stroke-width:1.05833328;stroke-linecap:butt;stroke-linejoin:miter;stroke-miterlimit:4;stroke-dasharray:none;stroke-dashoffset:0;stroke-opacity:1;color-rendering:auto;image-rendering:auto;shape-rendering:auto;text-rendering:auto;enable-background:accumulate"
       inkscape:connector-curvature="0" />
    <path
       style="opacity:1;fill:#ffffff;fill-opacity:1;stroke:none;stroke-width:1.99999988;stroke-linecap:square;stroke-linejoin:miter;stroke-miterlimit:10;stroke-dasharray:none;stroke-dashoffset:0;stroke-opacity:1"
       d="m -411.67969,131.65625 c -1.9864,-0.0131 -3.47635,0.34803 -4.62695,1.05469 l -0.0234,0.0156 -0.0215,0.0137 c -2.3672,1.28235 -4.27187,4.55623 -5.90625,10.45313 -6.1e-4,0.003 6.4e-4,0.005 0,0.008 -5.47491,24.86255 -6.86761,37.81017 -4.08985,57.85938 l 0.11133,0.76757 -0.72461,0.29493 c -18.73852,7.61348 -29.26437,15.2907 -48.0332,32.4375 -0.008,0.008 -0.008,0.0139 -0.0156,0.0215 -4.30208,4.3728 -6.19246,7.65511 -6.11914,10.34961 v 0.0312 0.0293 c -0.073,2.6945 1.8171,5.97684 6.11914,10.34961 l 0.0156,0.0234 c 18.76883,17.14678 29.29468,24.82215 48.0332,32.43555 l 0.72461,0.29492 -0.11133,0.76758 c -2.77708,20.04435 -1.38944,32.99355 4.08204,57.84375 l 0.008,0.0234 c 1.63389,5.89183 3.54011,9.17137 5.90625,10.45312 l 0.0215,0.0156 0.0234,0.0137 c 2.29773,1.41094 6.09021,1.40772 12.03125,-0.13281 0.008,-0.002 0.0159,0.002 0.0234,0 24.23266,-7.68064 36.14699,-12.95787 52.10937,-25.37891 l 0.61133,-0.48047 0.61328,0.48047 c 15.96234,12.42104 27.87667,17.69827 52.10938,25.37891 0.008,0.003 0.0139,-0.003 0.0215,0 5.94104,1.54076 9.73548,1.54405 12.0332,0.13281 l 0.0234,-0.0137 0.0215,-0.0156 c 2.36613,-1.28175 4.27232,-4.56129 5.90625,-10.45312 0.004,-0.0113 0.006,-0.0159 0.008,-0.0234 5.47147,-24.8502 6.8513,-37.79952 4.07422,-57.84375 l -0.10352,-0.76758 0.7168,-0.29492 c 18.73856,-7.6134 29.27218,-15.28877 48.04101,-32.43555 0.008,-0.008 0.008,-0.0159 0.0156,-0.0234 4.30193,-4.37265 6.19246,-7.65485 6.11914,-10.34961 v -0.0293 -0.0312 c 0.073,-2.69495 -1.81721,-5.97692 -6.11914,-10.34961 -18.78331,-17.16157 -29.31041,-24.84043 -48.05664,-32.45703 l -0.7168,-0.29688 0.10352,-0.76757 c 2.7778,-20.04921 1.39288,-32.99683 -4.08203,-57.85938 -1.63495,-5.90204 -3.53601,-9.17605 -5.9043,-10.45898 l -0.0234,-0.0156 -0.0234,-0.0137 c -2.29772,-1.41121 -6.09024,-1.41629 -12.03125,0.125 -0.008,0.003 -0.0159,-0.003 -0.0234,0 -24.23271,7.68065 -36.14704,12.96568 -52.10938,25.38672 l -0.61133,0.47851 -0.61328,-0.47851 c -15.96238,-12.42106 -27.87671,-17.70608 -52.10937,-25.38672 -0.008,-0.002 -0.0139,0.002 -0.0215,0 -2.96636,-0.76927 -5.42344,-1.16917 -7.40429,-1.18164 z m 8.29883,23.50391 0.77539,0.11132 c 16.78674,2.39494 25.5883,9.50148 44.30664,23.81446 l 0.70117,0.53125 -16.47656,28.53711 h -30.87109 l -0.11133,-0.8711 c -3.12748,-24.16829 -5.03343,-35.4014 1.38867,-51.39258 z m 103.69336,0 0.29492,0.73046 c 6.4221,15.99112 4.51604,27.22424 1.38867,51.39258 l -0.11914,0.8711 h -30.87109 l -16.47656,-28.53711 0.70312,-0.53125 c 18.71966,-14.31415 27.51728,-21.41941 44.30469,-23.81446 z m -51.84375,51.88086 11.16992,19.35546 h 21.66602 l -10.83008,18.76368 10.83008,18.75781 h -21.66602 l -11.16992,19.35547 -11.17578,-19.35547 h -21.66602 l 10.83789,-18.75781 -10.83789,-18.76368 h 21.66602 l 10.30469,-17.85742 z m -60.50781,10.87304 16.16601,28 -15.28125,26.46289 -0.8125,-0.33789 c -21.75662,-9.05484 -32.30933,-13.12398 -42.77734,-26.46484 l -0.48047,-0.61328 0.48047,-0.61914 c 10.32336,-13.15671 20.75624,-17.30347 41.90039,-26.09571 z m 121.00976,0 0.8125,0.33203 c 21.14351,8.79204 31.56937,12.93919 41.89258,26.09571 l 0.48633,0.61914 -0.48633,0.61328 c -10.46778,13.34079 -21.02102,17.41019 -42.77734,26.46484 l -0.80469,0.33789 -15.28906,-26.46289 15.73047,-27.24023 z m -114.16015,65.75 h 31.11523 l 15.71484,27.22461 -0.69335,0.53125 c -18.18558,13.91452 -26.9975,20.86842 -43.55274,23.23047 l -0.77539,0.11133 -0.28711,-0.73047 c -6.24763,-15.55703 -4.60454,-26.67349 -1.63281,-49.49609 z m 76.19531,0 h 31.12305 l 0.10937,0.8711 c 2.9715,22.82267 4.61681,33.93906 -1.63086,49.49609 l -0.29492,0.73047 -0.77539,-0.11133 c -16.55516,-2.36205 -25.35946,-9.31599 -43.54492,-23.23047 l -0.69531,-0.53125 15.42187,-26.72265 z"
       transform="matrix(0.26458333,0,0,0.26458333,-261.3503,38.536924)"
       id="path925-1"
       inkscape:connector-curvature="0" />
    <path
       style="color:#000000;font-style:normal;font-variant:normal;font-weight:normal;font-stretch:normal;font-size:medium;line-height:normal;font-family:sans-serif;font-variant-ligatures:normal;font-variant-position:normal;font-variant-caps:normal;font-variant-numeric:normal;font-variant-alternates:normal;font-feature-settings:normal;text-indent:0;text-align:start;text-decoration:none;text-decoration-line:none;text-decoration-style:solid;text-decoration-color:#000000;letter-spacing:normal;word-spacing:normal;text-transform:none;writing-mode:lr-tb;direction:ltr;text-orientation:mixed;dominant-baseline:auto;baseline-shift:baseline;text-anchor:start;white-space:normal;shape-padding:0;clip-rule:nonzero;display:inline;overflow:visible;visibility:visible;opacity:1;isolation:auto;mix-blend-mode:normal;color-interpolation:sRGB;color-interpolation-filters:linearRGB;solid-color:#000000;solid-opacity:1;vector-effect:none;fill:#ffffff;fill-opacity:1;fill-rule:nonzero;stroke:none;stroke-width:0.52916664;stroke-linecap:round;stroke-linejoin:round;stroke-miterlimit:4;stroke-dasharray:none;stroke-dashoffset:0;stroke-opacity:1;color-rendering:auto;image-rendering:auto;shape-rendering:auto;text-rendering:auto;enable-background:accumulate"
       d="m -354.40486,123.314 c -1.67942,0.0254 -3.0207,1.40671 -2.99673,3.08612 v 1.92339 h 0.26459 v 0.26458 16.39745 l -9.06508,-6.97992 c -2.09491,-1.61314 -4.41438,-2.99236 -7.20214,-3.21273 -2.7803,-0.21982 -5.74545,0.85484 -8.69199,3.25199 l -10.77761,8.76845 c -0.87974,0.71597 -1.05474,1.76065 -0.74055,2.64481 0.31422,0.88415 1.10906,1.58363 2.24327,1.58387 h 34.23463 v 5.15525 0.003 c -0.022,1.55295 1.22499,2.81792 2.77812,2.81792 1.55311,0 2.80009,-1.26494 2.77813,-2.81792 v -0.003 -5.15525 h 34.23303 c 1.15083,0 1.94813,-0.71604 2.25362,-1.61385 0.30548,-0.89781 0.1107,-1.95181 -0.80098,-2.65409 l -11.38743,-8.76845 c -2.09491,-1.61316 -4.41388,-2.99236 -7.20161,-3.21273 -2.78029,-0.21982 -5.74601,0.85487 -8.69251,3.25199 l -8.40412,6.83731 v -16.2941 -0.26458 h 0.26405 v -1.92339 c 0.0246,-1.71548 -1.37324,-3.11208 -3.08869,-3.08612 z m -19.90783,16.21141 h 0.003 c 0.18291,-0.004 0.35968,0.003 0.5307,0.0151 1.40341,0.11094 2.90412,0.87662 4.67157,2.23759 l 5.84512,4.50101 h -21.40852 l 5.58106,-4.54028 c 1.90352,-1.54863 3.30468,-2.09103 4.52012,-2.18128 v -0.0265 z m 38.92063,0 h 0.003 c 0.18288,-0.004 0.35968,0.003 0.53073,0.0151 1.4034,0.11094 2.90409,0.87662 4.67154,2.23759 l 5.84512,4.50101 h -21.40903 l 5.58107,-4.54028 c 1.90352,-1.54863 3.30504,-2.09103 4.52065,-2.18128 v -0.0265 z"
       id="path1205-5"
       inkscape:connector-curvature="0" />
  </g>
</svg>
