<?xml version="1.0" encoding="utf-8"?>
<!-- Generator: Adobe Illustrator 13.0.1, SVG Export Plug-In . SVG Version: 6.00 Build 14948)  -->
<!DOCTYPE svg PUBLIC "-//W3C//DTD SVG 1.1//EN" "http://www.w3.org/Graphics/SVG/1.1/DTD/svg11.dtd">
<svg version="1.1" id="Layer_1" xmlns="http://www.w3.org/2000/svg" xmlns:xlink="http://www.w3.org/1999/xlink" x="0px" y="0px"
	 width="630px" height="708px" viewBox="0 0 630 708" enable-background="new 0 0 630 708" xml:space="preserve">
<polygon fill="#064054" points="121.683,453.741 166.854,149.003 141.986,149.004 141.986,24.734 240.117,24.734 240.117,75.368 
	266.106,75.368 266.105,23.391 314.045,23.391 363.039,23.365 363.039,75.351 389.027,75.351 389.027,24.718 487.158,24.718 
	487.158,148.987 462.291,148.986 507.462,453.725 479.104,453.725 428.98,120.31 458.481,120.309 458.481,53.396 417.705,53.396 
	417.705,104.028 334.361,104.028 334.361,52.06 314.054,52.067 294.783,52.068 294.783,104.045 211.44,104.045 211.44,53.412 
	170.664,53.412 170.664,120.326 200.165,120.326 150.042,453.741 "/>
<path fill-rule="evenodd" clip-rule="evenodd" fill="#064054" d="M264.724,181.663c-1.239,0.647-2.919,1.763-5.043,3.347
	c-2.124,1.583-3.539,2.591-4.247,3.022h-0.664l1.062-20.254c0-1.022,0-2.081,0-3.176s0-2.226,0-3.394
	c0-2.044-0.154-3.833-0.462-5.365c-0.308-1.533-0.947-2.883-1.916-4.051l-2.378-1.094c-1.058,0-2.731,0-5.021,0s-4.008,0-5.154,0
	c-2.466,0-4.228-0.043-5.285-0.128c-1.057-0.085-2.511-0.299-4.361-0.641c-1.497,1.464-2.796,2.983-3.897,4.557
	c-1.101,1.574-1.828,3.166-2.181,4.776c0.442,2.05,1.04,4.063,1.792,6.039c0.752,1.977,2.101,4.978,4.047,9.004l-2.389,11.53
	h-18.048L213.366,172c0.177,0,0.752,0,1.725,0s1.769,0,2.389,0h2.124c0.796,0,1.902,0,3.317,0c-1.592-3.272-2.676-5.652-3.251-7.14
	c-0.575-1.487-0.862-3.198-0.862-5.133c0-1.264,0.265-2.565,0.796-3.905c0.619-1.041,1.703-2.305,3.251-3.792
	c1.548-1.488,2.411-2.38,2.588-2.678c-1.858,0-3.473-0.274-4.844-0.823c-1.372-0.549-2.543-1.556-3.517-3.02
	c-0.974-1.464-1.46-3.294-1.46-5.49c0-3.001,1.056-5.527,3.168-7.577c0.55-0.293,1.215-0.641,1.996-1.043
	c0.78-0.402,1.492-0.641,2.135-0.714c0.088,0.905,0.243,1.847,0.465,2.827c0.221,0.979,0.818,1.62,1.791,1.922h25.97
	c2.285,0.292,4.307,1.116,6.064,2.47c1.758,1.354,3.164,3.093,4.219,5.216c0.966,8.272,1.757,15.483,2.373,21.632
	C264.417,170.902,264.724,176.539,264.724,181.663z"/>
<path fill-rule="evenodd" clip-rule="evenodd" fill="#064054" d="M317.947,141.364c0.797,2.343,1.194,4.648,1.194,6.918
	c0,7.394-3.361,13.579-10.085,18.557c-2.919,2.708-5.375,5.014-7.366,6.917c-1.99,1.903-2.985,3.99-2.985,6.259
	c0,1.537-0.133,2.727-0.398,3.569s-1.018,1.482-2.256,1.921c-1.062,0.22-2.256,0.33-3.583,0.33c-1.239,0-2.19-0.092-2.854-0.275
	s-1.283-0.604-1.858-1.263s-0.929-1.519-1.062-2.581c-0.133-1.062-0.199-1.812-0.199-2.251c0-3.221,2.344-6.149,7.034-8.784
	c4.689-2.636,7.653-4.575,8.892-5.82c2.477-1.464,4.379-3.02,5.706-4.667c1.327-1.647,1.991-3.532,1.991-5.655
	c0-0.439-0.088-1.098-0.265-1.977c-0.354-0.732-0.929-1.299-1.726-1.702c-0.796-0.402-1.725-0.677-2.787-0.823
	c-2.743,0-5.441,0.037-8.095,0.11s-5.264,0.146-7.83,0.219c-1.858,0-3.317-0.036-4.379-0.109c-1.062-0.073-2.743-0.219-5.042-0.438
	c-2.566-0.731-4.402-2.137-5.508-4.217c-1.105-2.081-1.659-4.435-1.659-7.064c0-3.286,0.332-6.152,0.995-8.598
	c0.664-2.446,1.88-4.838,3.65-7.175c-1.593-0.584-3.186-1.168-4.778-1.751c-1.77-0.803-2.787-1.625-3.052-2.464
	c-0.266-0.84-0.398-1.589-0.398-2.245c0-1.169,0.222-2.301,0.664-3.396c0.442-1.095,1.105-2.281,1.99-3.559s2.3-1.917,4.247-1.917
	c0.177,1.458,1.57,2.534,4.18,3.227s4.136,1.221,4.579,1.586c1.062,0.51,1.592,1.604,1.592,3.28
	c-2.035,4.813-4.07,9.626-6.104,14.438c0,1.605,0.486,3.1,1.459,4.485l2.389,0.985h25.746
	C314.231,135.801,316.886,137.777,317.947,141.364z"/>
<path fill-rule="evenodd" clip-rule="evenodd" fill="#064054" d="M351.807,138.823c1.327,2.787,1.99,5.499,1.99,8.138
	c0,3.739-1.105,7.441-3.317,11.107s-5.132,7-8.759,10.007l-3.849-2.09c1.858-2.273,3.384-4.234,4.578-5.883s1.969-3.28,2.323-4.893
	c0.265-1.32,0.397-2.309,0.397-2.968c0-1.173-0.331-1.87-0.995-2.09s-3.097-0.458-7.299-0.714c-4.203-0.257-7.012-1.448-8.427-3.574
	c-1.416-2.126-2.124-4.252-2.124-6.377c0-0.66,0.045-1.137,0.133-1.431c0-1.099,0.243-2.217,0.73-3.354
	c0.486-1.136,1.282-2.126,2.389-2.969c1.105-0.843,2.366-1.264,3.782-1.264c0,1.466,0.088,2.493,0.265,3.079
	c0.178,0.586,0.797,1.063,1.858,1.43c0.796,0.146,3.296,0.275,7.498,0.384C347.184,135.469,350.125,136.624,351.807,138.823z"/>
<path fill-rule="evenodd" clip-rule="evenodd" fill="#064054" d="M413.31,139.909c0.266,1.464,0.397,2.929,0.397,4.393
	c0,1.757-0.221,3.185-0.663,4.282h-4.645c-2.743,3.294-4.733,5.82-5.972,7.577c-1.239,1.756-2.256,3.477-3.053,5.16
	c4.955,3.587,8.516,6.442,10.684,8.565c2.167,2.123,3.251,4.685,3.251,7.686c0,0.439-0.089,1.098-0.266,1.977
	c-0.442,1.318-1.149,2.507-2.123,3.569s-2.256,2.178-3.849,3.349l-28.399-28.851c-2.39,1.464-3.938,3.477-4.646,6.04
	c0.266,1.61,0.818,3.056,1.659,4.337s2.322,3.239,4.446,5.875c1.062,1.098,2.034,1.977,2.919,2.635l-2.787,9.114h-18.712l1.063-5.49
	h5.175c-0.973-2.05-1.813-3.972-2.521-5.765c-0.707-1.794-1.062-3.569-1.062-5.326c0-3.66,1.194-6.698,3.583-9.113
	c1.062-0.879,2.234-1.793,3.518-2.745c1.282-0.951,2.499-1.61,3.649-1.976c-2.92-2.782-5.84-5.563-8.759-8.345
	c-1.77-2.05-2.654-4.063-2.654-6.039c0-0.439,0.088-1.099,0.265-1.977c0.708-1.318,1.726-2.654,3.052-4.008
	c1.326-1.354,2.652-2.324,3.979-2.91l24.833,25.574c1.501-2.564,2.693-4.451,3.576-5.659c0.882-1.208,1.854-2.289,2.914-3.242
	c-1.327-0.292-2.455-0.549-3.385-0.769c-0.929-0.219-2.123-0.915-3.582-2.088c-1.46-1.172-2.19-3.443-2.19-6.813
	c0-1.025,0.155-2.124,0.465-3.296c0.31-1.173,0.995-2.198,2.057-3.077c1.062-0.879,2.345-1.319,3.849-1.319
	c-0.177,0.585-0.11,1.153,0.199,1.702c0.31,0.549,0.642,1.08,0.995,1.592c0.885,0.731,3.097,1.299,6.636,1.702
	C410.744,136.634,412.779,137.86,413.31,139.909z"/>
<rect x="278.998" y="462.644" fill="#064054" width="70.856" height="42.168"/>
<rect x="278.998" y="519.999" fill="#064054" width="70.856" height="42.168"/>
<path fill-rule="evenodd" clip-rule="evenodd" fill="#064054" d="M22.974,483.166c4.269,2.49,26.232,13.161,46.062,13.161
	c35.035,0,99.416-45.706,143.342-45.706c33.702,0,58.777,19.829,58.777,19.829v29.7c0,0-40.727-24.364-75.761-24.364
	c-35.035,0-88.567,36.103-117.911,36.103S22.974,483.166,22.974,483.166z"/>
<path fill-rule="evenodd" clip-rule="evenodd" fill="#064054" d="M50.628,522.692c-0.312,0.934,17.387,5.29,43.04,5.29
	s46.638-17.873,63.267-23.785c16.628-5.913,14.45-10.405,37.614-10.405s44.907,10.094,55.176,15.072
	c10.269,4.979,20.985,12.272,20.985,12.272v36.681c0,0-25.342-19.877-36.37-24.233c-11.027-4.356-20.363-11.825-38.858-11.825
	c-18.496,0-37.75,7.644-48.953,13.692s-28.764,12.895-44.771,12.895C73.791,548.346,50.939,521.759,50.628,522.692z"/>
<path fill-rule="evenodd" clip-rule="evenodd" fill="#064054" d="M97.091,558.751c0.934,0.312,5.426,0,19.741,0
	c14.314,0,50.508-24.855,78.339-24.855c27.832,0,74.917,43.663,74.917,43.663s-23.922,9.023-65.27,9.023
	S97.091,558.751,97.091,558.751z"/>
<path fill-rule="evenodd" clip-rule="evenodd" fill="#064054" d="M605.722,483.181c-4.269,2.49-26.232,13.161-46.062,13.161
	c-35.035,0-99.415-45.706-143.342-45.706c-33.701,0-58.777,19.83-58.777,19.83v29.699c0,0,40.727-24.364,75.762-24.364
	s88.566,36.103,117.91,36.103S605.722,483.181,605.722,483.181z"/>
<path fill-rule="evenodd" clip-rule="evenodd" fill="#064054" d="M578.068,522.708c0.311,0.934-17.388,5.29-43.041,5.29
	c-25.652,0-46.638-17.874-63.267-23.786s-14.45-10.405-37.614-10.405c-23.163,0-44.907,10.094-55.176,15.073
	c-10.27,4.979-20.985,12.272-20.985,12.272v36.68c0,0,25.342-19.876,36.369-24.232c11.027-4.357,20.362-11.825,38.858-11.825
	s37.75,7.644,48.953,13.692c11.202,6.048,28.764,12.895,44.771,12.895C554.904,548.361,577.757,521.774,578.068,522.708z"/>
<path fill-rule="evenodd" clip-rule="evenodd" fill="#064054" d="M531.604,558.766c-0.934,0.312-5.426,0-19.74,0
	s-50.509-24.855-78.34-24.855s-74.917,43.663-74.917,43.663s23.922,9.024,65.271,9.024S531.604,558.766,531.604,558.766z"/>
<path fill="#064054" d="M257.144,413.224l-59.744,20.313l-8.364-48.393l21.508-1.195v-17.923l-21.508-4.183l7.767-40.626
	l22.703,1.792l3.584-10.156l-17.923-12.547l20.313-30.47l14.339,9.56l8.961-8.364l-12.546-12.547l28.08-25.092l16.932,15.239V229.27
	l-71.957,0v-24.173h71.957h0.569c0.366-7.635,15.33-13.777,33.736-13.777c18.406,0,33.37,6.142,33.736,13.777h68.032v24.173
	l-69.148,0v18.997l16.514-14.862l28.079,25.093l-12.546,12.546l8.962,8.364l14.339-9.559l20.313,30.47l-17.924,12.546l3.585,10.157
	l22.703-1.792l7.767,40.626l-21.508,4.182v17.923l21.508,1.195l-8.364,48.393l-59.744-20.313c0,0,17.923-16.131,17.923-54.367
	s-29.872-65.122-29.872-65.122l-11.733-7.467v161.739h-66.925V286.001l-12.152,7.733c0,0-29.872,26.885-29.872,65.122
	S257.144,413.224,257.144,413.224z"/>
<path fill="#064054" d="M278.998,574.366h35.233c0.598-0.656,0.865-1.027,0.865-1.027s0.258,0.371,0.841,1.027h33.917v18.323
	c15.145,4.552,36.333,8.107,65.572,8.107c81.252,0,129.048-38.236,156.53-57.354s53.77-47.796,52.574-41.821
	c-1.194,5.975,0,74.083,0,74.083s-21.508-8.364-33.457-8.364c-11.948,0-38.352,28.793-95.59,60.939
	c-64.432,36.187-117.1,39.432-143.387,46.602c-26.287,7.169-37.002,25.117-37.002,25.117s-11.352-17.924-37.639-25.093
	c-26.288-7.17-78.955-10.415-143.386-46.602c-57.239-32.146-83.642-60.939-95.591-60.939s-33.457,8.364-33.457,8.364
	s1.195-68.108,0-74.083s25.092,22.703,52.575,41.821s75.278,57.354,156.53,57.354c28.675,0,49.686-3.423,64.87-7.853V574.366z"/>
</svg>
