<?xml version="1.0" encoding="utf-8"?>
<!-- Generator: Adobe Illustrator 15.1.0, SVG Export Plug-In . SVG Version: 6.00 Build 0)  -->
<!DOCTYPE svg PUBLIC "-//W3C//DTD SVG 1.1//EN" "http://www.w3.org/Graphics/SVG/1.1/DTD/svg11.dtd">
<svg version="1.1" id="Layer_1" xmlns="http://www.w3.org/2000/svg" xmlns:xlink="http://www.w3.org/1999/xlink" x="0px" y="0px"
	 width="384.089px" height="360px" viewBox="9.104 8.9 384.089 360" enable-background="new 9.104 8.9 384.089 360"
	 xml:space="preserve">
<g>
	<path fill="#FFFFFF" d="M200.398,360.9c-13.023,0-18.352-17.311-20.578-31.254c5.236,2.101,12.351,4.004,20.953,4.004
		c8.123,0,15.533-1.924,21.357-4.126C219.81,343.544,214.187,360.9,200.398,360.9z"/>
	<path fill="#FFFFFF" d="M333.648,289.4l-109.25,20.25l-0.584,2.41c-0.029,0.118-0.064,2.438-0.33,6
		c-5.227,2.507-13.521,5.59-22.711,5.59c-10.646,0-18.514-3.571-22.292-5.725c-0.232-3.173-0.289-5.263-0.333-5.525l-0.405-2.672
		L68.399,289.15L18.694,16.9h131.048c1.371,10.134,8.2,36,42.157,36c13.027,0,23.23-3.807,30.328-11.313
		c7.691-8.138,9.613-18.486,10.062-24.187h151.314L333.648,289.4z"/>
</g>
<g>
	<g>
		<defs>
			<path id="SVGID_1_" d="M202.399,328.9c-22,0-35-8.5-35-8.5l-101.5-25.5l-51.5-281.5h137.5c0,0,3.5,36.5,41,36.5s36.5-36,36.5-36
				l159.5-0.5l-53,280l-106.5,27.5C229.399,320.9,210.899,328.9,202.399,328.9z"/>
		</defs>
		<clipPath id="SVGID_2_">
			<use xlink:href="#SVGID_1_"  overflow="visible"/>
		</clipPath>
		<path clip-path="url(#SVGID_2_)" fill="#F0F5FC" d="M483.833,188.355l19.569-52.709l-258.118,33.079l-0.169-0.789L474.234,61.392
			l-5.238-55.979L250.791,147.207l-0.494-0.638L410.499-48.833l-29.008-48.164L246.418,125.428l-0.722-0.36l59.557-245.558
			l-47.033-30.809l-25.19,259.004l-0.807-0.012l-52.886-247.08l-55.742-7.353l89.68,244.286l-0.731,0.34L57.692-101.778
			L4.279-84.216l186.79,181.184l-0.512,0.625L-35.601-15.1l-40.5,39l246.913,82.181l-0.19,0.784l-252.657-3.408l-19.567,52.71
			l258.118-33.089l0.169,0.789L-72.433,230.419l5.239,55.979l218.2-141.804l0.495,0.638L-8.693,340.643l29.009,48.163
			l135.065-222.434l0.724,0.359L96.557,412.296l47.032,30.807l25.183-259.009l0.807,0.011l52.895,247.083l55.741,7.35
			l-89.689-244.285l0.73-0.34l154.86,199.664l53.411-17.563l-186.799-181.18l0.512-0.624L437.395,306.91l40.501-38.998
			l-246.91-82.19l0.189-0.784L483.833,188.355z M221.721,166.098l-10.823,7.034l-12.806,1.641l-12.25-4.078l-9.267-8.987
			l-4.449-12.119l1.249-12.848l6.701-11.035l10.825-7.035l12.805-1.642l12.246,4.076l9.271,8.993l4.447,12.119l-1.249,12.848
			L221.721,166.098z"/>
	</g>
</g>
<g>
	<path fill="#87AB3F" d="M207.26,291.172v0.003C207.267,291.156,207.273,291.132,207.26,291.172z"/>
	<path fill="#87AB3F" d="M294.03,232.745c-0.632-2.11-3.318-1.537-4.864-2.511c-1.781-1.12-0.287-3.456-1.609-4.899
		c-0.655-0.715-1.47-0.317-2.418-0.532c-0.733-0.166-1.274-0.534-1.961-0.811c-3.452-1.391-6.059-5.061-9.919-5.974
		c-0.721-0.171-2.393-0.204-3.111,0.003c-0.612,0.178-0.847,0.808-1.332,1.017c-1.678,0.719-4.117-0.544-5.771,0.378
		c-0.249,1.477-0.121,2.474-1.674,2.611c-0.45,0.04-1.927,0.01-2.315-0.274c-1.653-1.205-1.032-5.633-1.028-7.318
		c0.002-1.066,0.258-3.116-0.311-3.966c-0.54-0.809-0.504-0.419-1.336-0.312c-1.528,0.197-2.986,1.396-4.478,1.499
		c-2.077,0.145-4.726-0.496-6.787-0.855c-1.653-0.289-3.528-0.742-4.399-2.301c-0.729-1.308-0.526-2.615-1.406-3.757
		c-1.666-2.16-2.428-1.898-4.937-1.3c-1.414,0.339-2.907,0.644-4.318,0.214c-0.705-0.216-1.362-0.845-2.056-1.14
		c-1.132-0.479-2.381-0.542-3.586-0.475c-0.045,1.112,0.402,2.614-0.54,3.196c-0.812,0.503-2.271,0.143-2.822-0.489
		c-0.307-0.352-0.089-0.812-0.494-1.19c-0.579-0.543-1.066-0.131-1.641-0.532c-1.07-0.75-0.541-2.928-0.641-4.043
		c-0.275-3.069-2.963-4.195-6.003-3.713c-1.36,0.218-1.983,0.742-2.585,1.76c-0.415,0.702-1.472,2.188-1.462,0.379
		c-0.775,0.529-2.8,2.44-3.827,2.092c-0.935-0.316-0.533-1.856-1.151-2.573c-1.765-2.049-6.045-1.646-8.444-1.399
		c-1.35,0.139-2.631,0.31-3.586,1.365c-0.939,1.041-0.958,2.705-2.188,3.48c-0.414,0.261-0.911,0.172-1.284,0.516
		c-0.35,0.323-0.393,0.923-0.619,1.319c-0.817,1.436-2.22,2.984-4.053,2.886c-0.788-0.042-1.42-0.429-1.979-0.96
		c-0.263-0.25-1.147-1.938-1.341-1.964c-1.892-0.257-3.637-1.325-5.461-1.871c-2.055-0.615-2.349-0.057-3.213,1.702
		c-0.729,1.483-0.757,1.03-2.324,0.801c-1.112-0.163-2.759-0.225-3.709,0.39c-0.279,1.781,1.039,1.784,1.724,2.984
		c0.929,1.63-0.823,1.036-1.373,2.47c-0.41,1.067,0.422,2.794,0.38,4.006c-0.146,4.18-9.438-1.689-9.118,4.061
		c0.083,1.489,1.341,3.504-0.496,4.654c-0.871,0.546-5.349-0.086-6.21-1.029c-2.216-2.428,1.111-8.096-4.963-6.692
		c-4.646,1.073-2.583,4.851-2.875,8.161c-0.471,0.162-0.953,0.021-1.462,0.105c-0.608,0.1-2.514-0.529-3.494-0.514
		c-1.252,0.021-2.575-0.137-3.818,0.001c-3.125,0.348-3.572,1.791-5.438,4.042c-2.915,3.519-3.268-0.183-6.741-0.053
		c-3.206,0.12-2.714,4.532-2.203,6.76c0.282,1.23,1.145,2.27,1.208,3.758c0.041,0.924-0.512,1.879-0.274,2.743
		c0.839,3.072,5.153,2.632,7.655,3.819c5.762,2.735,0.985,5.748,1.95,9.894c4.105,0.086,5.667,2.227,8.944,3.338
		c2.929,0.993,9.431,1.621,10.505-2.263c2.229-0.111,4.136,1.688,5.964,2.47c2.216,0.945,4.873,1.156,7.494,0.992
		c2.766-0.173,3.317-1.796,5.798-2.692c2.382-0.861,5.054,0.293,7.45,0.645c3.137,0.46,6.498,0.475,9.502,1.562
		c2.166,0.784,4.658,2.319,6.562,3.933c1.792,1.519,3.223,2.894,1.883,5.373c-1.11,2.056-3.147,2.357-1.964,4.945
		c0.308,0.671,1.451,1.358,1.783,2.729c0.229,0.938-0.061,1.915,0.269,2.819c0.995,2.74,4.054,4.089,4.475,7.2
		c0.322,2.381-1.817,3.688-2.13,5.904c-0.152,1.082-0.115,2.443,0.041,3.783l-0.042,0.007l0.167,4.667c0,0,2.5,1.874,5.5,1.833
		s5.083-2.291,5.083-2.291l0.486-6.142c-0.008,0.02-0.014,0.035,0-0.003c0.626-1.926,0.881-3.97,1.292-5.904
		c0.352-1.647,1.266-2.629,1.348-4.465c0.07-1.582,0.362-1.986,1.628-2.907c0.913-0.663,1.796-1.214,2.973-1.496
		c1.806-0.432,2.696-1.073,4.057-2.347c2.192-2.053,1.433-5.279,1.69-8.129c0.231-2.558,0.109-5.113,0.153-7.676
		c0.017-0.926,0.464-4.869,1.893-4.955c3.235-0.195,6.703-0.187,9.934,0.072c3.338,0.266,6.628,0.839,10.051,0.412
		c1.274-0.159,2.234-0.574,3.17-1.477c0.542-0.521,0.854-1.362,1.477-1.655c0.61-0.288,1.78-0.227,2.471-0.379
		c0.776-0.171,1.314-0.394,2.073-0.618c1.947-0.578,3.917-0.807,5.918-1.253c1.764-0.394,3.782-1.044,5.394-1.822
		c0.286-0.14,0.63-0.311,0.994-0.47l0.047,0.025c0.011-0.021,0.019-0.039,0.028-0.059c0.709-0.305,1.498-0.553,2.158-0.422
		c0.499,0.1,0.747,0.421,1.241,0.635c0.665,0.29,1.219,0.146,1.753,0.733c0.355,0.393,0.384,1.503,0.888,1.763
		c1.433,0.736,3.306-0.833,4.314,0.98c0.923-0.124,1.204-0.933,1.852-1.362c0.753-0.499,1.64-0.524,2.218-1.257
		c0.688-0.868,0.362-1.728,0.56-2.844c0.217-1.221,0.354-1.457,1.444-1.649c0.997-0.176,2.105,0.073,2.9,0.596
		c1.13,0.743,0.837,1.688,1.696,2.561c1.537,1.562,2.538-0.75,2.926-2.137c1.422-0.234,2.285,0.456,3.728-0.359
		c1.369-0.774,1.953-2.717,2.125-4.091C293.878,237.394,294.579,234.578,294.03,232.745z M236.34,232.525
		c1.245,0.14,2.521,0.356,3.29,1.504c0.483,0.722,0.348,1.218,1.251,1.834c0.829,0.564,1.729,0.741,2.652,0.871
		c-0.867,0.03-1.736,0.044-2.598,0.048c-0.762,0.003-1.518,0.006-2.262,0.025c-1.438,0.041-2.91,0.02-4.332-0.005
		c-0.268-0.004-0.535-0.005-0.804-0.009c0.008-0.41-0.014-0.854-0.015-1.318C233.521,232.957,233.688,232.23,236.34,232.525z
		 M213.396,238.315c-0.374,0.437-1.104,0.925-1.44,1.442c-1.075-0.818-2.334-1.297-3.717-1.815l-0.821-0.311
		c-1.639-0.635-3.212-1.219-4.844-1.679c-0.065-0.6-0.196-1.194-0.299-1.54c-0.498-1.677-1-3.011-0.611-4.795
		c3.374,0.353,7.564,1.765,10.148,4.148c1.146,1.059,1.815,2.441,2.294,3.887C213.856,237.841,213.618,238.057,213.396,238.315z
		 M184.9,234.669c0.129-0.367,0.512-1.104,0.566-1.492c0.108-0.76-0.791-1.508-0.213-1.991c0.519-0.433,1.539-0.012,2.055-0.487
		c1.296-1.197,0.182-4.205,1.936-5.026c2.31-1.08,1.24,2.943,1.333,3.796c0.558,0.193,1.381-0.145,1.872,0.096
		c0.659,0.323,0.522,1.18,0.531,1.912c0.025,1.996-1.417,1.272-2.837,2.021c-0.75,0.396-0.47,0.899-0.663,1.587
		c-0.25,0.884-0.662,0.79-1.674,1.004c-0.62,0.131-1.449,0.114-2.043,0.429c-0.604-0.212-1.146-0.459-1.601-0.798
		C184.467,235.498,184.721,235.175,184.9,234.669z M180.946,237.079c0.681-0.62,1.481-0.73,2.202-0.923
		c0.555,0.532,1.232,0.896,1.947,1.176c-0.099,0.326-0.103,0.628-0.417,0.986c-0.423,0.482-0.975,0.788-1.479,1.173
		c-0.991,0.753-2.062,1.402-2.951,2.308c-0.324,0.329-0.789,0.527-1.046,0.901c-0.103,0.148-0.184,0.291-0.271,0.438
		c-0.042-1.328,0.363-2.951,0.734-4.427c0.022-0.087,0.041-0.166,0.062-0.252c0.072-0.02,0.144-0.041,0.201-0.08
		C180.341,238.098,180.562,237.428,180.946,237.079z M170.075,251.9c-0.829-0.034-1.561-0.146-2.372,0.092
		c-1.553,0.454-2.678,1.368-4.03,2.107c-0.517,0.282-1.146,0.648-1.763,0.761c-0.963,0.177-2.064,0.04-3.044,0.04
		c-0.938,0-1.696-0.273-2.508-0.776c-0.789-0.487-1.552-0.946-2.295-1.479c-0.517-0.37-0.916-0.832-1.521-1.083
		c-0.394-0.164-0.814-0.312-1.225-0.44c-0.313-0.1-0.322-0.07-0.457-0.354c-0.305-0.638-0.128-1.66-0.177-2.361
		c-0.028-0.398-0.185-0.812,0.051-1.084c0.3-0.348,0.729-0.067,1.088-0.25c0.429-0.221,0.131-0.646,0.36-1.012
		c0.193-0.311,0.402-0.022,0.653-0.272c0.231-0.23-0.006-1.493-0.038-1.776c-0.075-0.668-0.104-1.308-0.104-1.983
		c0-0.621-0.029-1.188-0.13-1.794c-0.053-0.312-0.158-0.918-0.083-1.249c0.086-0.386,0.542-0.801,0.849-1.028
		c0.669-0.499,1.212-0.532,1.958-0.245c0.894,0.345,1.72,0.778,2.487,1.349c0.181,0.134,0.462,0.273,0.56,0.496
		c0.185,0.418-0.101,0.998-0.099,1.421c0.001,0.372,0.021,0.396,0.331,0.577c0.403,0.237,0.852,0.276,1.296,0.362
		c0.793,0.153,1.488,0.517,2.245,0.784c1.21,0.429,2.52,0.628,3.681,1.169c0.61,0.283,0.581,0.492,0.667,1.133
		c0.117,0.869,0.305,1.792,1.064,2.323c0.956,0.67,2.209,0.8,3.27,1.232c0.711,0.291,0.827,0.418,1.114,1.124
		c0.211,0.52,0.521,0.934,0.743,1.434c0.123,0.277,0.232,0.615,0.485,0.808C172.08,251.921,171.123,251.945,170.075,251.9z
		 M173.736,250.368c-0.366-0.953-0.637-1.926-1.5-2.568c-0.567-0.424-1.171-0.786-1.835-1.017c-0.5-0.175-0.529-0.646-0.473-1.157
		c0.068-0.631,0.524-1.438,0.877-1.955c0.154-0.229,0.293-0.473,0.441-0.693c0.259-0.382,0.623-0.623,0.898-0.982
		c0.131-0.173,0.178-0.288,0.349-0.416c0.081-0.062,0.187-0.096,0.27-0.166c0.5-0.431,0.78-1.392,1.014-1.987
		c0.378-0.967,1-1.88,1.594-2.742c0.434-0.629,0.757-0.973,1.545-1.001c1.02-0.036,1.759,0.273,1.896,1.378
		c0.039,0.31,0.019,0.438-0.248,0.613c-0.223,0.146-0.629,0.176-0.542,0.537c0.048,0.2,0.344,0.28,0.659,0.309
		c-0.491,1.951-1.021,4.132-0.585,5.811c-0.022,0.048-0.053,0.092-0.068,0.143c-0.099,0.305,0.035,0.454,0.184,0.71
		c0.241,0.417,0.395,0.854,0.726,1.098c0.312,0.59,0.555,1.112,0.587,2.02l0.026,0.713c0.042,1.081,0.077,2.12,0.053,3.159
		c-0.667-0.014-1.33-0.021-1.979-0.021C175.806,252.149,174.473,252.289,173.736,250.368z M190.479,254.73
		c-2.264-0.311-4.344-1.873-6.667-2.246c-1.031-0.165-2.118-0.247-3.21-0.29c0.025-1.087-0.012-2.167-0.053-3.223l-0.026-0.71
		c-0.029-0.827-0.209-1.399-0.439-1.91c0.344-0.124,0.701-0.317,0.975-0.439c0.645-0.289,1.237-0.647,1.9-0.896
		c0.604-0.226,1.197-0.545,1.75-0.865c0.421-0.243,0.783-0.456,1.284-0.407c0.551,0.052,1.157,0.342,1.598,0.681
		c0.36,0.277,0.467,0.748,0.834,1.035c0.319,0.248,0.812,0.419,1.164,0.643c0.931,0.588,2.002,1.275,3.13,1.395
		c-0.132,1.11,2.286,1.061,2.906,0.779c1.254-0.565,1.908-1.918,1.939-3.183c0.042-1.669-0.107-2.879,0.649-4.381
		c0.587-1.165,0.955-1.456,2.047-1.909c0.482-0.2,1.878-0.745,2.165-1.214c0.091-0.146,0.139-0.354,0.164-0.587
		c1.495,0.437,2.952,0.977,4.467,1.562l0.831,0.314c1.499,0.562,2.767,1.045,3.786,1.942c-0.1,1.198,0.256,2.627,0.638,3.595
		c1.075,2.729,0.685,5.381,1,8.258c0.06,0.543,0.165,1.066,0.284,1.587c-0.121,0.103-0.243,0.208-0.346,0.285
		c-0.26,0.199-0.52,0.402-0.78,0.607c-0.646,0.51-1.315,1.034-1.995,1.477c-0.451,0.292-0.895,0.593-1.336,0.894
		c-1.113,0.757-2.164,1.472-3.329,2.046c-0.436,0.216-0.849,0.442-1.254,0.667c-1.081,0.598-2.016,1.112-3.165,1.265
		c-0.688,0.09-1.395,0.154-2.139,0.201c0.268-0.688,0.565-1.352,0.811-2.049c0.344-0.979,0.839-3.39,0.088-4.259
		c-0.787-0.91-3.608-0.412-4.715-0.412C193.764,254.982,192.125,254.957,190.479,254.73z M214.565,264.163
		c-0.096,2.714,0.222,5.568-1.979,7.423c-0.765,0.645-1.467,1.311-2.263,1.968c-0.921,0.76-1.788,0.818-3.057,0.618
		c-1.306-0.206-2.598-0.257-3.899-0.436c-1.548-0.211-2.735-1.029-4.146-1.695c-3.167-1.495-0.98-5.748-0.561-8.312
		c1.056-0.045,2.039-0.123,2.987-0.248c1.525-0.199,2.718-0.857,3.872-1.495c0.38-0.21,0.767-0.424,1.173-0.625
		c1.289-0.636,2.447-1.423,3.567-2.185c0.431-0.293,0.86-0.586,1.301-0.87c0.756-0.491,1.46-1.045,2.142-1.58
		c0.145-0.111,0.285-0.222,0.428-0.333c0.086,0.338,0.173,0.676,0.245,1.021C214.829,259.535,214.642,261.996,214.565,264.163z
		 M214.986,237.142c-0.519-1.509-1.248-2.959-2.496-4.108c-2.452-2.266-6.557-3.946-10.471-4.389
		c0.42-0.671,1.076-0.712,2.079-1.175c1.382-0.639,2.892-1.569,3.15-3.178c0.187-1.152,0.026-2.376,0.076-3.548
		c0.893-0.053,2.261-0.276,3.059,0.188c0.859,1.354-0.34,3.018,1.497,3.935c2.745,1.368,6.23,0.561,8.625,2.822
		c0.8,0.755,1.35,1.748,1.743,2.695c0.274,0.659,0.312,1.107,0.9,1.562c0.698,0.538,1.992,1.132,2.818,1.383
		c1.245,3.602-2.381,3.401-4.829,3.401C219.041,236.732,216.793,236.356,214.986,237.142z M239.868,246.025
		c-1.947-0.134-3.832-0.25-5.849-0.25c-0.812,0-1.646-0.021-2.434,0.057c-0.479,0.046-1.197,0.415-1.776,0.166
		c-1.146-0.49-0.948-1.946-2.16-2.348c-1.069-0.353-2.475,0.395-3.141,1.128c1.28,0.89-0.209,1.494-1.145,1.497
		c-0.555,0.002-1.106-0.065-1.654-0.148c-0.246-0.037-0.49-0.063-0.726-0.153c-0.251-0.097-0.445-0.221-0.715-0.248
		c-0.204-0.021-0.37-0.103-0.541-0.214c-0.273-0.18-0.502-0.421-0.654-0.711c-0.308-0.589-0.275-1.293-0.11-1.918
		c0.337-1.274,1.293-2.702,2.585-3.19c3.322-1.229,7.521,0.453,10.877-0.916c0.542-0.221,0.82-0.562,0.967-0.981
		c0.312,0.004,0.623,0.005,0.934,0.01c0.858,0.014,1.733,0.027,2.611,0.027c0.589,0,1.179-0.006,1.766-0.022
		c0.735-0.021,1.483-0.022,2.236-0.025c1.785-0.008,3.613-0.017,5.385-0.263c0.485,0.37,0.831,0.87,1.481,1.496
		c0.5,0.48,1.271,0.998,2.067,1.331c-0.19,0.189-0.386,0.379-0.565,0.569c-1.146,1.202-2.094,2.455-3.166,4.188
		c-0.438,0.71-0.854,1.423-1.244,2.135c-0.088-0.064-0.176-0.13-0.273-0.184C243.213,246.278,241.502,246.137,239.868,246.025z
		 M262.151,245.392c-2.598,1.236-5.771,1.491-8.478,2.516c-1.064,0.401-2.195,0.409-3.373,0.674
		c-0.979,0.22-2.256,0.941-3.272,0.571c-0.58-0.211-0.965-0.703-1.382-1.188c0.422-0.777,0.865-1.558,1.346-2.335
		c1.035-1.672,1.944-2.876,3.04-4.025c0.294-0.31,0.606-0.615,0.922-0.927c0.004-0.004,0.008-0.008,0.012-0.012
		c1.518,0.229,3.808,0.303,5.307-0.011c0.686-0.145,1.316-0.618,2.023-0.783c0.778-0.183,1.438-0.043,2.128-0.479
		c1.245-0.787,0.508-2.256,0.875-3.722c0.233-0.93,1.768-2.998,2.976-2.662c0.836,0.232,0.762,1.472,1.085,2.053
		c0.346,0.621,0.617,0.861,1.163,1.06c-0.839,1.382-1.686,2.801-2.396,4.263c-0.357,0.737-0.651,1.491-0.936,2.221
		c-0.354,0.906-0.688,1.764-1.127,2.565l0.277,0.151C262.282,245.347,262.209,245.365,262.151,245.392z M276.429,238.341
		c-1.351,0.492-2.137,1.316-3.519,1.564c-1.616,0.289-4.787,0.346-6.008,1.673c-0.867,0.942-0.188,2.045-1.372,2.695
		c-0.303,0.166-0.653,0.288-1.017,0.396c0.19-0.449,0.367-0.899,0.54-1.342c0.281-0.726,0.548-1.408,0.87-2.072
		c0.761-1.563,1.707-3.12,2.626-4.625c0.992,0.196,2.048,0.33,2.956,0.249c0.2-2.146,0.64-4.417,0.535-6.588
		c1.158-0.397,2.549-0.441,3.234,0.315c0.634,0.7,0.821,1.98,0.767,3.022c1.731,0.64,3.424-0.579,3.605,1.647
		C279.869,237.986,278.573,237.559,276.429,238.341z"/>
</g>
<path fill="#2D3293" d="M224.168,9.4l0.237,4.226c0.008,0.132,0.646,13.327-7.992,22.465c-5.525,5.846-13.772,8.81-24.514,8.81
	c-33.934,0-34.493-30.704-34.5-32v-4H9.104l58.545,319.25l109.75,23.75c2.205,7.108,7.045,17,23,17
	c15.921,0,21.523-10.503,24.25-17.5l110.75-22.25L393.193,9.4H224.168z M200.399,360.9c-13.023,0-18.353-17.311-20.578-31.254
	c5.236,2.101,12.351,4.004,20.953,4.004c8.122,0,15.533-1.924,21.356-4.126C219.811,343.544,214.188,360.9,200.399,360.9z
	 M333.649,289.4l-109.25,20.25l-0.585,2.41c-0.028,0.118-0.064,2.438-0.329,6c-5.227,2.507-13.521,5.59-22.711,5.59
	c-10.646,0-18.515-3.571-22.292-5.725c-0.232-3.173-0.289-5.263-0.333-5.525l-0.405-2.672L68.399,289.15L18.694,16.9h131.048
	c1.371,10.134,8.2,36,42.157,36c13.026,0,23.229-3.807,30.327-11.313c7.691-8.138,9.614-18.486,10.062-24.187h151.315L333.649,289.4
	z"/>
<path fill="#2D3293" d="M213.841,300.861c10.331-2.951,118.312-22.116,119.4-22.311l-0.35-1.969
	c-4.452,0.789-109.17,19.376-119.601,22.354c-6.939,1.983-10.283,5.318-11.819,7.553l0.718-2.299
	c0.018-0.057,1.886-5.706,11.65-8.496c10.331-2.951,118.312-22.116,119.4-22.311l-0.35-1.969
	c-4.452,0.789-109.17,19.376-119.601,22.354c-7.318,2.092-10.642,5.688-12.059,7.909c-1.418-2.221-4.74-5.817-12.06-7.909
	c-10.43-2.979-115.146-21.565-119.6-22.354l-0.35,1.969c1.09,0.193,109.068,19.358,119.399,22.311
	c9.767,2.79,11.634,8.439,11.65,8.49l0.663,2.22c-1.563-2.231-4.911-5.51-11.764-7.468c-10.43-2.979-115.146-21.565-119.6-22.354
	l-0.35,1.969c1.09,0.193,109.068,19.358,119.399,22.311c9.767,2.79,11.634,8.439,11.65,8.49l0.663,2.22
	c-1.563-2.231-4.911-5.51-11.764-7.468c-10.43-2.979-115.146-21.565-119.6-22.354l-0.35,1.969
	c1.09,0.193,109.068,19.358,119.399,22.311c9.767,2.79,11.634,8.439,11.65,8.49l0.937,3.139l0.979-3.133
	c0.018-0.057,1.886-5.706,11.65-8.496c10.331-2.951,118.312-22.116,119.4-22.311l-0.35-1.969
	c-4.452,0.789-109.171,19.376-119.601,22.354c-6.939,1.983-10.283,5.318-11.82,7.553l0.719-2.299
	C202.207,309.3,204.075,303.651,213.841,300.861z"/>
<path fill="#2D3293" d="M312.399,154.15c0,0,16.75-13.625,16.75-30.875c0-3.5-0.625-13-0.625-13h-18.792c0,3.026,0,8.068,0,15.792
	c0,14.333-5.333,17.167-5.333,17.167l-22.641-32.958h-20.734v2l17.5,19.75c0,0-15.75,11.75-15.75,32.75c0,3,0,13.938,0,13.938
	h19.125c0,0,0-28.688,0-32.062s3.625-5,3.625-5l22.5,37.062h21.625V176.4L312.399,154.15z"/>
<path fill="#2D3293" d="M204.232,122.4V88.733h17.167v22.333c0,0,7.167,1,17.5,1s18-0.833,18-0.833s0,15.5,0,33.833
	s-17.333,32.833-29.5,35.5c-5.167,1.333-7,1.167-7,1.167s-4.5-8.333-4.5-9.667s0-2,0-2s6.499,0,11.166,0s12-7.667,12-22.333
	s0-25.167,0-25.167s-4.832,0.833-16.666,0.833S204.232,122.4,204.232,122.4z"/>
<path fill="#2D3293" d="M179.399,109.9c0,3.161,0,10.821,0,29.167c0,29.167-8.5,30.333-8.5,30.333l-13.457-59.5h-18.71v2.667
	l17.667,61.333c0,0-6.667,2.833-12,2.833s-5.333,0-5.333,0s0.167,3,1.667,6.167s3.667,5.833,3.667,5.833s23.167-4.333,33.333-9.5
	s20.833-17,20.833-35.5s0-33.833,0-33.833H179.399z"/>
<path fill="#2D3293" d="M72.566,109.4c0,0,12.833,1.833,29.833,1.833s30.667-0.667,30.667-0.667s-0.667,3.333-1,5.833
	s-2.333,5.833-2.333,5.833l-8-1.167v58.167H103.4v-57.167c0,0-24,1.5-29.5,1.5s-6.5,0-6.5,0s2-6.333,3-8.833
	S72.566,109.4,72.566,109.4z"/>
</svg>
