<?xml version="1.0" encoding="UTF-8" standalone="no"?>
<!-- Created with Inkscape (http://www.inkscape.org/) -->

<svg
   xmlns:dc="http://purl.org/dc/elements/1.1/"
   xmlns:cc="http://creativecommons.org/ns#"
   xmlns:rdf="http://www.w3.org/1999/02/22-rdf-syntax-ns#"
   xmlns:svg="http://www.w3.org/2000/svg"
   xmlns="http://www.w3.org/2000/svg"
   xmlns:sodipodi="http://sodipodi.sourceforge.net/DTD/sodipodi-0.dtd"
   xmlns:inkscape="http://www.inkscape.org/namespaces/inkscape"
   width="88.031319mm"
   height="111.57407mm"
   viewBox="0 0 88.031319 111.57407"
   version="1.1"
   id="svg8"
   inkscape:version="0.92.3 (2405546, 2018-03-11)"
   sodipodi:docname="Immanuel COA.svg">
  <defs
     id="defs2" />
  <sodipodi:namedview
     id="base"
     pagecolor="#ffffff"
     bordercolor="#666666"
     borderopacity="1.0"
     inkscape:pageopacity="0.0"
     inkscape:pageshadow="2"
     inkscape:zoom="0.49497475"
     inkscape:cx="294.55768"
     inkscape:cy="166.03066"
     inkscape:document-units="mm"
     inkscape:current-layer="layer1"
     showgrid="false"
     fit-margin-top="0"
     fit-margin-left="0"
     fit-margin-right="0"
     fit-margin-bottom="0"
     inkscape:window-width="1920"
     inkscape:window-height="1001"
     inkscape:window-x="-9"
     inkscape:window-y="-9"
     inkscape:window-maximized="1" />
  <metadata
     id="metadata5">
    <rdf:RDF>
      <cc:Work
         rdf:about="">
        <dc:format>image/svg+xml</dc:format>
        <dc:type
           rdf:resource="http://purl.org/dc/dcmitype/StillImage" />
        <dc:title></dc:title>
      </cc:Work>
    </rdf:RDF>
  </metadata>
  <g
     inkscape:label="Layer 1"
     inkscape:groupmode="layer"
     id="layer1"
     transform="translate(136.24185,-84.730823)">
    <g
       transform="matrix(0.35277777,0,0,-0.35277777,-179.65249,216.59033)"
       id="g1319">
      <path
         sodipodi:nodetypes="cccsscsscccccccccccccccc"
         inkscape:connector-curvature="0"
         id="path1139"
         d="M 123.05379,373.77499 138.795,106.58749 c 0.7671,-11.355139 2.08878,-14.818234 7.02099,-18.391121 4.93902,-3.577793 7.89666,-4.157288 15.63867,-3.061523 13.63472,1.929788 39.97342,0.498083 51.10694,-2.929687 12.90439,-3.972975 25.61574,-15.004703 35.26172,-24.703126 9.64599,9.698423 22.35587,20.730151 35.26026,24.703126 11.13352,3.42777 37.47222,4.859475 51.10693,2.929687 7.74202,-1.095765 10.69966,-0.51627 15.63867,3.061523 4.93222,3.572887 6.25537,7.035982 7.02247,18.391121 l 15.73974,267.1875 h -27.30762 v -18.87597 h -38.08593 v 18.87597 h -39.72657 l -0.45556,-18.87597 h -38.38624 l -0.45556,18.87597 h -39.72656 v -18.87597 h -38.08594 v 18.87597 z"
         style="fill:#75c5e3;fill-opacity:1;stroke-width:0.99999994" />
      <g
         style="stroke-width:0.50174314"
         transform="matrix(1.9930518,0,0,1.9930518,-548.34276,-75.434193)"
         id="g1302">
        <path
           style="color:#000000;font-style:normal;font-variant:normal;font-weight:normal;font-stretch:normal;font-size:medium;line-height:normal;font-family:sans-serif;font-variant-ligatures:normal;font-variant-position:normal;font-variant-caps:normal;font-variant-numeric:normal;font-variant-alternates:normal;font-feature-settings:normal;text-indent:0;text-align:start;text-decoration:none;text-decoration-line:none;text-decoration-style:solid;text-decoration-color:#000000;letter-spacing:normal;word-spacing:normal;text-transform:none;writing-mode:lr-tb;direction:ltr;text-orientation:mixed;dominant-baseline:auto;baseline-shift:baseline;text-anchor:start;white-space:normal;shape-padding:0;clip-rule:nonzero;display:inline;overflow:visible;visibility:visible;opacity:1;isolation:auto;mix-blend-mode:normal;color-interpolation:sRGB;color-interpolation-filters:linearRGB;solid-color:#000000;solid-opacity:1;vector-effect:none;fill:#0994dc;fill-opacity:1;fill-rule:nonzero;stroke:none;stroke-width:0.12342881;stroke-linecap:butt;stroke-linejoin:miter;stroke-miterlimit:4;stroke-dasharray:none;stroke-dashoffset:0;stroke-opacity:1;color-rendering:auto;image-rendering:auto;shape-rendering:auto;text-rendering:auto;enable-background:accumulate"
           d="m 386.16059,99.777825 -0.84173,0.880465 c 0,0 0.0495,0.0396 0.0495,0.0396 l -0.01,0.01 c 0,0 1.06846,0.91623 2.57359,1.94471 0.10948,0.0748 0.27295,0.11741 0.38688,0.19369 1.16734,0.99247 1.42052,1.50914 3.88938,2.8348 4.19542,2.25011 6.60807,5.02476 9.03661,8.59156 1.39525,2.05048 4.23965,3.14034 6.72427,3.82167 2.48457,0.68133 4.65374,0.89978 4.65374,0.89978 l 0.67726,0.0679 v -0.67727 -3.97647 l -2.36077,0.2031 c -0.61099,0.0535 -2.27067,-0.25858 -3.88938,-1.06429 -1.61872,-0.80582 -3.24868,-2.07396 -4.16035,-3.79264 -1.05538,-1.98979 -2.55452,-3.2088 -4.19899,-4.00555 -1.64447,-0.79675 -3.42943,-1.19656 -5.14717,-1.6254 -1.5081,-0.37796 -3.24159,-1.40689 -4.65379,-2.35106 -0.58299,-0.5031 -1.94357,-1.37024 -2.08015,-1.50934 -0.12879,-0.10651 -0.64823,-0.483976 -0.64823,-0.483976 z m -19.24386,0.06786 0.86105,2.070495 c 0,0 1.06202,2.56581 4.00555,5.6309 1.57641,1.63882 3.82251,2.41596 5.89215,3.09605 2.06965,0.68014 3.97038,1.29435 4.915,2.26398 2.36042,2.42299 6.35824,4.58993 11.5715,6.76296 5.11611,2.13048 5.66968,3.42651 9.72353,7.76916 2.19735,2.35389 6.13454,3.62624 9.52999,4.39251 3.3955,0.76625 6.27918,0.98689 6.27918,0.98689 l 1.26745,0.0966 -0.71595,-1.05459 c 0,0 -0.9203,-1.33115 -2.32204,-2.77678 -1.40174,-1.44563 -3.27919,-3.04433 -5.3794,-3.54109 -1.89602,-0.45029 -3.26879,-0.72983 -4.33447,-1.0643 -1.06564,-0.33437 -1.82083,-0.70585 -2.62194,-1.37385 -1.6684,-1.39035 -4.63803,-4.40244 -7.92395,-6.47268 -1.67628,-1.05776 -3.34899,-1.58141 -4.92465,-2.26398 -1.57572,-0.68257 -3.06737,-1.50027 -4.50865,-3.14445 -3.11443,-3.56368 -6.4861,-4.86813 -10.18793,-5.2246 -1.57572,-0.15207 -3.9892,-1.33615 -5.92119,-2.50586 -1.93203,-1.16967 -3.41536,-2.29301 -3.41536,-2.29301 z m 3.84104,4.198985 c 0.36558,0.23728 0.32001,0.24174 0.73527,0.49339 1.99133,1.20563 4.41339,2.48521 6.43399,2.68004 3.50082,0.33685 6.45584,1.45688 9.3849,4.80854 h 0.01 c 1.58537,1.80858 3.27547,2.73963 4.92465,3.45405 1.64913,0.71438 3.24134,1.22817 4.76014,2.18655 h 0.01 c 3.11423,1.96211 6.00911,4.88349 7.78847,6.36627 0.92772,0.77353 1.88795,1.2421 3.0477,1.60609 1.15976,0.36409 2.53321,0.64704 4.41185,1.09328 1.66954,0.39481 3.45306,1.83444 4.77956,3.20245 0.71922,0.74176 0.80611,0.92877 1.19002,1.42225 -0.95353,-0.0966 -2.08951,-0.16148 -4.54733,-0.71596 -3.29945,-0.74458 -7.06618,-2.06885 -8.90112,-4.03451 -4.0108,-4.29659 -4.89235,-5.87031 -10.14925,-8.05939 -5.14985,-2.14663 -9.0472,-4.30807 -11.17481,-6.49205 -1.2994,-1.33383 -3.35909,-1.90013 -5.40843,-2.57359 -2.04934,-0.67346 -4.08738,-1.42354 -5.38906,-2.77679 -1.42443,-1.48327 -1.31792,-1.71051 -1.90598,-2.66067 z m 22.90106,1.38357 c 1.58206,0.39233 3.14945,0.7587 4.49898,1.41258 1.47387,0.71408 2.72616,1.7278 3.65721,3.48303 1.07475,2.02626 2.91291,3.41958 4.69242,4.30545 1.77956,0.88586 3.44959,1.29489 4.53767,1.19973 l 1.03522,-0.0872 v 1.90603 c -0.49666,-0.0589 -1.76475,-0.18179 -3.78298,-0.73532 -2.37494,-0.65125 -4.99509,-1.78239 -6.04695,-3.32828 -2.24828,-3.30198 -4.8881,-5.91093 -8.59157,-8.15614 z"
           id="path1146"
           inkscape:connector-curvature="0" />
        <path
           d="m 411.67854,112.48416 c 0,0 -1.58518,-2.76415 -4.17595,-5.70168 -2.59078,-2.93753 -4.31961,-3.94313 -4.31961,-3.94313 0,0 4.31961,1.49601 6.76672,3.76975 2.44712,2.27374 3.16541,3.11091 3.16541,3.11091 z"
           style="fill:#ffffff;fill-opacity:1;fill-rule:nonzero;stroke:none;stroke-width:0.50174314"
           id="path1150"
           inkscape:connector-curvature="0" />
        <path
           style="color:#000000;font-style:normal;font-variant:normal;font-weight:normal;font-stretch:normal;font-size:medium;line-height:normal;font-family:sans-serif;font-variant-ligatures:normal;font-variant-position:normal;font-variant-caps:normal;font-variant-numeric:normal;font-variant-alternates:normal;font-feature-settings:normal;text-indent:0;text-align:start;text-decoration:none;text-decoration-line:none;text-decoration-style:solid;text-decoration-color:#000000;letter-spacing:normal;word-spacing:normal;text-transform:none;writing-mode:lr-tb;direction:ltr;text-orientation:mixed;dominant-baseline:auto;baseline-shift:baseline;text-anchor:start;white-space:normal;shape-padding:0;clip-rule:nonzero;display:inline;overflow:visible;visibility:visible;opacity:1;isolation:auto;mix-blend-mode:normal;color-interpolation:sRGB;color-interpolation-filters:linearRGB;solid-color:#000000;solid-opacity:1;vector-effect:none;fill:#0994dc;fill-opacity:1;fill-rule:nonzero;stroke:none;stroke-width:0.12342881;stroke-linecap:butt;stroke-linejoin:miter;stroke-miterlimit:4;stroke-dasharray:none;stroke-dashoffset:0;stroke-opacity:1;color-rendering:auto;image-rendering:auto;shape-rendering:auto;text-rendering:auto;enable-background:accumulate"
           d="m 356.7342,97.800217 -0.98688,0.715955 0.01,0.01982 0.058,0.07728 c 0.0495,0.06886 0.51429,0.739535 1.24813,1.799578 0.55649,1.07579 1.43657,3.29677 2.29301,5.56323 0.85639,2.26646 1.70411,4.5927 2.26398,5.99856 0.72759,1.81755 2.77594,3.43017 4.75048,4.90533 0.98732,0.73755 1.96161,1.42963 2.74776,2.02209 0.78614,0.59251 1.39297,1.13133 1.56739,1.38357 0.65185,0.94288 1.88552,1.96968 2.9896,2.83479 1.10407,0.86516 2.07048,1.52871 2.07048,1.52871 0.0248,0.0198 3.28969,2.56234 6.72423,5.46643 1.72418,1.45792 3.47629,3.00084 4.86664,4.34418 1.39035,1.34329 2.42661,2.57413 2.61228,3.01863 v 0.01 c 1.19314,2.84446 2.41234,4.67236 6.51136,8.41735 4.12181,3.77084 8.83346,6.83068 8.83346,6.83068 l 0.28038,0.18378 0.29028,-0.13524 c 0,0 0.87234,-0.35666 1.63511,-1.00624 0.38143,-0.32446 0.74895,-0.72948 0.95785,-1.25774 0.20904,-0.52831 0.20904,-1.19379 -0.13574,-1.79962 -0.62896,-1.10958 -2.16431,-2.64715 -4.00549,-4.19899 -1.84119,-1.55184 -3.94898,-3.05508 -5.71804,-3.84103 -1.74008,-0.77312 -2.60474,-1.79551 -3.32823,-2.70422 2.2786,0.67692 7.42944,2.26909 11.70694,4.3103 5.26849,2.51404 8.91083,7.11121 8.91083,7.11121 l 0.31951,0.39679 3.5024,-1.85763 -0.56115,-0.58053 c 0,0 -3.49259,-3.6406 -9.75256,-7.25634 -6.29241,-3.63952 -17.30038,-6.2459 -17.52171,-6.29851 -0.13177,-0.11938 -9.72864,-8.80735 -13.64199,-11.80373 -1.94878,-1.49408 -4.69074,-3.43543 -7.21766,-5.4858 -2.5248,-2.0487 -4.83277,-4.22812 -5.89216,-6.05667 v -0.01 c -1.6205,-2.80334 -5.04101,-7.79338 -6.97577,-10.594289 -0.0149,-0.02972 -0.0248,-0.03963 -0.0396,-0.06787 -0.005,-0.005 -0.005,-0.003 -0.01,-0.0099 -0.12384,-0.232823 -0.2358,-0.442859 -0.34824,-0.599841 l -0.01,-0.0099 -0.99658,-1.344875 z m 46.64395,4.460243 -0.50314,1.10294 c 0,0 1.62257,0.93327 4.17,3.82171 2.54694,2.8878 4.1023,5.60192 4.1023,5.60192 l 0.56115,0.96751 0.51275,-0.98688 1.62545,-3.13474 -0.27096,-0.3096 c 0,0 -0.75395,-0.87972 -3.21217,-3.16377 -2.56045,-2.3791 -6.68514,-3.76559 -6.85,-3.82171 -1.4e-4,-1e-4 -0.0297,-0.0297 -0.0297,-0.0297 v 0.01 c -0.002,-6.9e-4 -0.1065,-0.058 -0.1065,-0.058 z m -42.80292,3.49274 c 1.30797,1.96552 2.70431,3.94709 3.49274,5.31164 1.22544,2.11864 3.61322,4.31059 6.18244,6.3953 2.56918,2.0847 5.32194,4.03695 7.23698,5.50517 3.79749,2.90761 13.66136,11.81334 13.66136,11.81334 l 0.11592,0.1065 0.15455,0.0396 c 0,0 11.33828,2.7438 17.36691,6.23079 5.68009,3.28078 8.35453,6.07549 8.80443,6.53074 l -1.17071,0.61921 c -0.32248,-0.40224 -3.58478,-4.57478 -8.92048,-7.12092 -5.51821,-2.63323 -13.7968,-4.95368 -13.7968,-4.95368 l -1.3255,-0.37747 0.61921,1.23842 c 0,0 1.56204,3.12652 5.10848,4.70213 1.56482,0.6952 3.64413,2.16352 5.4278,3.66687 1.78367,1.50334 3.30371,3.1173 3.72492,3.8604 0.18081,0.31803 0.16545,0.5078 0.0679,0.75464 -0.0976,0.2467 -0.32942,0.52722 -0.61921,0.77402 -0.45623,0.38836 -0.82018,0.54584 -1.03522,0.64823 -0.29474,-0.19269 -4.50042,-2.93515 -8.38836,-6.49204 -4.04483,-3.69545 -5.05657,-5.23847 -6.21147,-7.99168 -0.39877,-0.95487 -1.45921,-2.05889 -2.88319,-3.43468 -1.42394,-1.37579 -3.19835,-2.93431 -4.93431,-4.40219 -3.47199,-2.93575 -6.792,-5.51483 -6.792,-5.51483 l -0.0198,-0.01 -0.01,-0.01 c 0,0 -0.93213,-0.64135 -2.00272,-1.48025 -1.07059,-0.83891 -2.28999,-1.91148 -2.74776,-2.57364 -0.38044,-0.55025 -1.0264,-1.05221 -1.83826,-1.66409 -0.81191,-0.61188 -1.77897,-1.29836 -2.74776,-2.02214 -1.93763,-1.44752 -3.83831,-3.11919 -4.34418,-4.38282 -0.52548,-1.31971 -1.34834,-3.56814 -2.17689,-5.76638 z m 46.44561,-0.51275 c 0.94244,0.52915 1.77218,1.13246 2.51067,1.81894 2.21499,2.05801 2.72398,2.64006 2.84451,2.77673 l -0.78368,1.49968 c -0.39035,-0.6518 -1.37672,-2.40085 -3.62817,-4.95368 -0.32496,-0.36806 -0.64497,-0.82979 -0.94333,-1.14167 z"
           id="path1154"
           inkscape:connector-curvature="0"
           sodipodi:nodetypes="cccccccccccccccccccccccsccccccccccccccccccccccccccccccccccccccccccccsccccscccccccccccscccccccccccc" />
        <path
           d="m 376.74221,152.91759 c 1.21861,1.65453 2.69976,3.60133 2.69976,3.60133 0,0 1.78332,-0.70343 2.62545,0.86689 0.84212,1.57032 -0.44088,2.40749 -0.44088,2.40749 0,0 -0.23778,-2.49665 -2.23411,-2.11027 -1.99633,0.38639 -2.98707,2.46198 -2.98707,2.46198 l -1.42666,-0.83222 c 0,0 2.75425,-2.23906 2.23411,-2.95734 -0.52014,-0.71829 -2.30842,-1.73379 -3.45767,-3.31402 -1.02541,-1.40684 -0.95606,-1.53564 -0.92634,-1.54554 h 0.005 -0.005 c -0.0693,0.01 -1.99633,0.42601 -2.11027,2.83845 -0.11888,2.45208 -2.66012,2.50657 -2.66012,2.50657 0,0 0.57958,-4.60197 2.34309,-5.53822 1.75856,-0.93624 1.69416,-1.98642 1.2087,-2.95735 -0.48546,-0.97092 -2.93754,-3.36354 0.30713,-14.76692 1.71397,-6.04349 -2.12018,-13.61271 -3.63105,-15.37127 l 15.8914,13.34026 c 0,0 -6.05835,-2.77406 -7.77727,0.37648 -1.71893,3.15054 -4.89424,13.29073 -2.74434,15.64868 1.09971,1.2087 2.73443,-1.32263 6.47446,-0.18329 3.74498,1.1443 3.56169,1.76847 3.56169,1.76847 l -2.01614,-0.2675 c 0,0 -3.22485,-1.16907 -5.50354,-0.2031 -2.2787,0.96597 -0.64894,2.57591 0.56967,4.23044"
           style="fill:#7c3812;fill-opacity:1;fill-rule:nonzero;stroke:none;stroke-width:0.50174314"
           id="path1158"
           inkscape:connector-curvature="0" />
        <path
           d="m 379.58513,151.45725 c 0.66379,-0.15852 0.23777,-0.535 0.23777,-0.535 0,0 -1.16906,-2.99698 0.44088,-3.35364 1.60995,-0.35667 1.97652,0.25759 1.97652,0.25759 0,0 0.39629,-1.0799 1.63471,-0.75296 1.23842,0.32199 1.43657,0.75296 1.43657,0.75296 0,0 0.24769,-1.02046 1.19384,-1.30282 0.94615,-0.28236 1.09476,-0.0198 1.09476,-0.0198 0,0 0.77278,-1.52078 2.23411,-1.4118 1.45638,0.11393 2.22421,1.59508 2.22421,1.59508 0,0 0.78268,-1.11458 2.21924,-0.35666 1.43657,0.75791 1.64958,1.59508 1.64958,1.59508 0,0 4.44345,-0.71333 4.03725,1.42666 -0.41116,2.13504 -1.60499,2.46694 -2.47684,2.75425 -0.87185,0.29227 -1.62481,0.19319 -1.62481,0.19319 0,0 0.12384,0.50528 -0.63902,0.97092 -0.76782,0.4706 -0.81736,-0.10402 -0.81736,-0.10402 0,0 -1.28796,3.73507 -3.01679,3.74993 -1.72884,0.0149 -3.22485,-0.10898 -3.46758,-0.70837 -0.24273,-0.5994 0.10403,-1.77342 0.10403,-1.77342 0,0 -0.65884,0.23778 -1.16412,-0.3963 l -0.50527,-0.63407 c 0,0 -0.68856,0.47556 -1.4762,-0.35666 -0.78763,-0.83222 -1.26814,-0.57463 -1.26814,-0.57463 0,0 -1.0799,1.88735 -2.66508,1.2731 -1.58022,-0.61426 -2.02606,-2.13504 -1.36226,-2.2886"
           style="fill:#1c8934;fill-opacity:1;fill-rule:nonzero;stroke:none;stroke-width:0.50174314"
           id="path1162"
           inkscape:connector-curvature="0" />
        <path
           d="m 353.44555,142.77146 c 0,0 0.0545,-1.97156 1.79818,-1.98642 1.7437,-0.0149 4.85461,-0.32199 4.85461,-0.32199 0,0 -0.14861,-2.35795 2.04092,-2.65022 2.18952,-0.29722 2.81864,0.75791 2.81864,0.75791 0,0 2.77901,-1.25823 2.91772,0.1932 0.14365,1.44647 -0.87185,2.54619 -1.77837,2.4273 -0.90653,-0.11889 -1.92699,0.26254 -1.92699,0.26254 l -0.43097,2.0855 c 0,0 0.97093,0.39134 0.27741,1.79324 -0.69847,1.40189 -1.18888,1.13934 -1.18888,1.13934 0,0 1.96661,1.8824 0.24768,2.89295 -1.71893,1.0056 -2.47684,-0.65388 -2.47684,-0.65388 0,0 -0.30217,1.52078 -1.03037,1.61985 -0.72819,0.0991 -0.77772,0.0941 -0.77772,0.0941 0,0 0.52509,0.65389 0.43097,1.74369 l -0.0892,1.09477 c 0,0 2.0112,0.26254 1.93194,0.87185 -0.0793,0.60435 1.83286,-1.08981 2.54123,0.16842 0.70343,1.26319 0.48547,1.36226 0.48547,1.36226 0,0 1.32758,1.57527 1.99633,0.3963 0.66379,-1.17898 1.56041,-1.35236 2.31337,-2.03596 0.75791,-0.67866 2.96725,-1.52574 3.97285,-0.59445 1.00064,0.92634 1.71893,2.51647 0.73314,2.96726 -0.98082,0.45574 -1.12944,2.74434 -0.35666,1.95175 0.76782,-0.79259 2.72452,-1.24833 4.03229,-0.68856 1.30778,0.56472 1.31768,2.06073 1.48611,3.12082 0.16842,1.06008 0.91148,0.44583 0.91148,0.44583 0,0 -0.4607,-3.11587 1.1443,-3.61619 1.60499,-0.50528 2.0954,0.4062 2.0954,0.4062 0,0 -0.01,-1.07495 1.75361,-0.84212 1.75855,0.23282 1.52078,1.26814 1.08981,2.18952 -0.42602,0.91643 0.4706,0.32199 1.25328,1.0056 0.77773,0.68856 0.37648,2.97221 0.37648,2.97221 0,0 0.88175,-0.46565 2.81864,-1.96661 1.93689,-1.49601 2.74434,-3.33878 3.25457,-1.38703 0.51023,1.95175 0.55481,2.40749 0.55481,2.40749 l 2.10532,-0.82232 c 0,0 -2.42235,-2.40253 0.95606,-3.06137 3.37345,-0.65884 6.1277,0.61426 5.10724,3.66077 -1.0155,3.05147 -2.01119,5.19146 -4.07688,4.919 -2.06073,-0.26749 -2.53628,0.20311 -2.53628,0.20311 0,0 0.90157,2.11522 -0.95606,2.58582 -1.85268,0.4706 -2.83846,-0.95606 -3.53693,0.44583 -0.69847,1.39694 1.66939,2.87809 -2.32823,3.26447 -3.99267,0.38144 -2.8236,2.80874 -5.03294,2.06569 -2.20439,-0.74801 -2.56601,-3.06633 -2.56601,-3.06633 0,0 -0.40124,2.26879 -1.99633,2.33318 -1.60004,0.0644 -3.07128,-0.40124 -3.07128,-0.40124 0,0 -0.89166,2.09045 -3.19017,1.26814 -2.29851,-0.82231 -2.66013,-5.09239 -2.66013,-5.09239 0,0 -1.1443,2.12018 -3.71526,1.0056 -2.56601,-1.11953 -5.16669,-4.90414 -5.16669,-4.90414 0,0 -3.5072,0.77277 -4.16109,-1.64958 -0.65389,-2.4273 0.28731,-4.50785 0.28731,-4.50785 0,0 -0.87184,-1.56041 -1.15916,-2.4917 -0.28731,-0.93129 -0.0743,-2.15485 -0.0743,-2.15485 0,0 -1.29291,0.48051 -1.79324,0.41116 -0.50527,-0.0644 0.27246,2.9623 -1.25823,2.95734 -1.53564,-0.01 -7.24228,-1.02046 -5.89983,-5.78094 0.20805,-0.7381 1.80314,-0.47556 1.80314,-0.47556 0,0 0.62911,-1.66939 2.13008,-1.02045 1.50592,0.65388 2.75425,-0.6737 2.75425,-0.6737 0,0 -2.69976,-0.87681 -3.92332,-2.0756 -1.22356,-1.20374 -0.62416,-4.24035 -0.62416,-4.24035 l 1.38703,-1.96165 c 0,0 0.38638,-1.00065 2.11026,-0.85699 1.72389,0.14366 1.01056,0.49041 1.01056,0.49041"
           style="fill:#1c8934;fill-opacity:1;fill-rule:nonzero;stroke:none;stroke-width:0.50174314"
           id="path1166"
           inkscape:connector-curvature="0" />
        <path
           d="m 364.7117,89.838413 c -0.28731,-0.06935 -0.57958,-0.104027 -0.88671,-0.104027 -0.29226,0 -0.59939,0.02972 -0.91643,0.08421 l -0.50032,3.576557 c -0.0644,0.450785 -0.19319,0.772774 -0.38143,0.956061 -0.1932,0.188239 -0.51519,0.277406 -0.96597,0.277406 h -0.69352 l 0.52509,-3.759844 c 0.0495,-0.341804 -0.0941,-0.698469 -0.43592,-1.074949 h -2.53133 c 0.11889,0.61921 0.30713,1.065042 0.56472,1.342448 h 0.59444 l -0.49041,3.492345 h -0.8669 c 0.10898,0.663793 0.28236,1.164115 0.52509,1.510872 0.55977,-0.128795 1.11953,-0.193193 1.67435,-0.193193 h 1.5505 c 1.02046,0 1.74369,-0.262545 2.1598,-0.792589 0.2675,-0.336851 0.45574,-0.921385 0.57463,-1.738742 z m 2.26383,3.685539 c -0.0594,-0.173379 -0.15356,-0.331897 -0.2774,-0.475553 -0.29722,-0.356665 -0.7381,-0.624164 -1.32264,-0.80745 l -0.51518,3.680584 c 0.21796,0.07431 0.49042,0.113935 0.81736,0.113935 0.29722,0 0.61426,-0.02972 0.95606,-0.08917 z m 5.56794,2.551145 c 1.23347,-0.916431 1.9468,-2.065684 2.13999,-3.437854 0.10898,-0.76782 -0.01,-1.406845 -0.35171,-1.912121 -0.41611,-0.61921 -1.11953,-0.931292 -2.10532,-0.931292 h -1.48115 c 0.15852,0.663794 0.37648,1.109625 0.65389,1.342448 h 0.27741 c 0.53004,0 0.89661,0.14861 1.08485,0.445831 0.16843,0.267499 0.21301,0.673701 0.13871,1.223559 -0.0892,0.614257 -0.44584,1.208698 -1.07991,1.778371 -0.8124,-0.09412 -1.26319,-0.658839 -1.35235,-1.684251 l -0.2675,-3.061375 c -0.23282,-0.07926 -0.52014,-0.118888 -0.85203,-0.118888 -0.31704,0 -0.64398,0.03963 -0.97588,0.118888 0.0842,0.9412 0.2031,2.115222 0.35667,3.517114 -0.31704,0.520136 -0.66875,0.980828 -1.05514,1.382077 0.0892,0.544904 0.41116,1.074948 0.97092,1.580224 0.18329,-0.22787 0.49042,-0.693516 0.92634,-1.391985 0.30713,0.341804 0.70838,0.599396 1.19879,0.777728 0.41116,0.148611 1.00065,0.272453 1.77342,0.371526 m 5.25586,-6.236684 c -0.22787,-0.07431 -0.51023,-0.10898 -0.83718,-0.10898 -0.29226,0 -0.60435,0.02972 -0.94615,0.08917 l -0.85699,6.102934 c 0.22292,0.07431 0.49537,0.113935 0.82231,0.113935 0.29723,0 0.61921,-0.02972 0.96102,-0.08917 z m 6.2664,4.299795 v 0 c 0.17338,-1.258235 0.0743,-2.219249 -0.30217,-2.892949 -0.46565,-0.822311 -1.38703,-1.347401 -2.76416,-1.575271 0,0.708377 0.13871,1.27805 0.40125,1.70902 0.77773,0.163472 1.08486,0.84708 0.91643,2.040917 l -0.01,0.05944 -0.15851,1.129439 h -4.18091 c 0.0892,0.698469 0.2675,1.213652 0.52509,1.530687 0.4706,-0.128795 0.97588,-0.193193 1.51583,-0.193193 h 0.0149 3.20998 c 0.38144,0 0.60435,-0.208055 0.6638,-0.629118 z m -3.15054,-5.681871 c -0.32694,-0.381434 -0.86689,-0.639025 -1.61985,-0.772775 l -0.76287,5.404466 c 0.27245,0.09412 0.55977,0.138703 0.86194,0.138703 0.31208,0 0.5994,-0.04458 0.86689,-0.123842 z m 8.69371,7.61876 c 1.23842,-0.916431 1.95175,-2.065684 2.14494,-3.437854 0.10403,-0.76782 -0.01,-1.406845 -0.35171,-1.912121 -0.42106,-0.61921 -1.11953,-0.931292 -2.10531,-0.931292 h -1.48115 c 0.15852,0.663794 0.37648,1.109625 0.65388,1.342448 h 0.27246 c 0.53499,0 0.89661,0.14861 1.08981,0.445831 0.16842,0.267499 0.213,0.673701 0.1387,1.223559 -0.0892,0.614257 -0.44583,1.208698 -1.0799,1.778371 -0.81241,-0.09412 -1.26815,-0.658839 -1.35731,-1.684251 l -0.26255,-3.061375 c -0.23282,-0.07926 -0.52013,-0.118888 -0.85203,-0.118888 -0.31704,0 -0.64398,0.03963 -0.97588,0.118888 0.0842,0.9412 0.20311,2.115222 0.35172,3.517114 -0.31209,0.520136 -0.6638,0.980828 -1.05018,1.382077 0.0892,0.544904 0.41115,1.074948 0.97092,1.580224 0.18328,-0.22787 0.49041,-0.693516 0.92634,-1.391985 0.30712,0.341804 0.70837,0.599396 1.19383,0.777728 0.41611,0.148611 1.0056,0.272453 1.77342,0.371526 m 11.80957,-6.236684 c -0.23282,-0.07431 -0.51518,-0.10898 -0.85203,-0.10898 -0.29227,0 -0.6093,0.02972 -0.95111,0.08917 l -0.46564,3.294197 c -0.0595,0.440878 -0.16843,0.762867 -0.3319,0.975875 -0.25759,0.351712 -0.69351,0.530044 -1.30282,0.530044 h -2.55609 c 0.0941,0.634071 0.27245,1.129439 0.53004,1.491058 0.49041,-0.108981 1.02046,-0.163471 1.59508,-0.163471 h 0.94616 c 1.04027,0 1.79323,-0.287314 2.25392,-0.856987 0.31704,-0.396295 0.53995,-1.025412 0.65884,-1.887352 z m -3.78956,0 c -0.27741,-0.05944 -0.57958,-0.09412 -0.91643,-0.09412 -0.29227,0 -0.57958,0.02972 -0.85699,0.08421 l -0.46069,3.259522 c 0.21301,0.07431 0.47555,0.108981 0.79754,0.108981 0.31704,0 0.64398,-0.02972 0.98083,-0.09412 z m 9.09,6.27136 c 0.18329,-0.772774 0.29722,-1.273096 0.32695,-1.500965 0.14861,-1.040273 -0.15357,-1.818001 -0.90653,-2.343091 l 1.36226,-1.510873 c -0.0594,-0.401248 -0.26254,-0.723237 -0.60434,-0.961014 h -4.99331 c 0.17337,0.356665 0.29226,0.589488 0.35171,0.698469 0.14365,0.257592 0.29226,0.4706 0.44087,0.629118 h 2.28365 l -3.72517,4.062018 c 0.36658,0.534997 0.83718,0.842126 1.4118,0.906523 l 2.45207,-2.734431 c 0.21797,0.213008 0.29227,0.554812 0.22787,1.020458 -0.0198,0.133749 -0.12384,0.530044 -0.31703,1.193837 0.2774,0.361619 0.8124,0.544905 1.6149,0.544905 0.0396,0 0.0644,0 0.0743,-0.005 m 6.79645,-1.912121 c 0.0495,-0.208054 0.0941,-0.416109 0.12384,-0.639024 0.14366,-1.000644 -0.0396,-1.847723 -0.54985,-2.541239 -0.46565,-0.639024 -1.17403,-1.114578 -2.12513,-1.421706 -0.4062,-0.128796 -0.94616,-0.326943 -1.62976,-0.589488 l -0.88176,-0.341804 c -0.0248,0.822311 0.0842,1.441521 0.3319,1.862584 0.2675,0.04954 0.71333,0.158518 1.32263,0.331897 l -2.40749,4.542525 c 0.34181,0.43097 0.84708,0.663793 1.51583,0.708376 l 2.29355,-4.592062 c 0.3963,0.361619 0.535,0.961014 0.41116,1.808094 -0.0446,0.351711 -0.13871,0.752959 -0.27741,1.213651 -0.0198,0.0644 -0.12384,0.411156 -0.31703,1.040273 0.31703,0.341804 0.84212,0.515183 1.57031,0.515183 0.0446,0 0.0842,-0.005 0.11889,-0.005 z m 3.38832,-4.359239 c -0.22787,-0.07431 -0.51023,-0.10898 -0.83717,-0.10898 -0.29227,0 -0.60435,0.02972 -0.94615,0.08917 l -0.85699,6.102934 c 0.22291,0.07431 0.49537,0.113935 0.82231,0.113935 0.29722,0 0.61921,-0.02972 0.96101,-0.08917 z m 5.04285,6.236684 c 1.23346,-0.916431 1.94679,-2.065684 2.13999,-3.437854 0.10898,-0.76782 -0.01,-1.406845 -0.35171,-1.912121 -0.41611,-0.61921 -1.11954,-0.931292 -2.10532,-0.931292 h -1.48115 c 0.15852,0.663794 0.37648,1.109625 0.65389,1.342448 h 0.2774 c 0.53005,0 0.89167,0.14861 1.08486,0.445831 0.16842,0.267499 0.21301,0.673701 0.1387,1.223559 -0.0892,0.614257 -0.44583,1.208698 -1.07495,1.778371 -0.81735,-0.09412 -1.26814,-0.658839 -1.35731,-1.684251 l -0.26749,-3.061375 c -0.23283,-0.07926 -0.51519,-0.118888 -0.85204,-0.118888 -0.31703,0 -0.64398,0.03963 -0.97587,0.118888 0.0842,0.9412 0.2031,2.115222 0.35666,3.517114 -0.31703,0.520136 -0.66379,0.980828 -1.05513,1.382077 0.0892,0.544904 0.41115,1.074948 0.97092,1.580224 0.18329,-0.22787 0.49041,-0.693516 0.92634,-1.391985 0.30713,0.341804 0.70838,0.599396 1.19879,0.777728 0.41115,0.148611 1.00064,0.272453 1.77342,0.371526"
           style="fill:#254aa5;fill-opacity:1;fill-rule:nonzero;stroke:none;stroke-width:0.50174314"
           id="path1170"
           inkscape:connector-curvature="0" />
        <path
           d="m 414.04838,158.80851 c -0.62912,-1.72388 -1.63967,-2.90286 -3.03165,-3.53693 -1.20375,-0.5449 -2.78893,-0.70838 -4.75554,-0.50032 0.63903,1.04523 1.17403,1.66939 1.6149,1.87249 0.89167,-0.0495 1.57527,0.0396 2.06073,0.26255 0.60931,0.28235 1.06009,0.82726 1.35236,1.62976 l 0.005,0.0248 0.56472,1.53565 -3.86882,1.40684 c -0.16347,0.0594 -0.28236,0.18824 -0.36162,0.38639 -0.0793,0.19815 -0.0892,0.38143 -0.0297,0.5449 l 1.15916,3.19017 c 0.6737,0.29227 1.54059,0.29722 2.60068,0.005 l -1.08981,-2.99203 3.8292,-1.39198 c 0.49041,-0.17833 0.63902,-0.535 0.44583,-1.07495 z m 7.4107,-8.03983 c -0.72323,-0.56471 -1.4861,-0.78268 -2.2985,-0.66379 l -1.95671,5.30539 c -0.49536,-0.19814 -0.96101,-0.88671 -1.39693,-2.05577 l -0.53996,-1.4762 c -0.35171,0.0198 -0.72323,0.0991 -1.11457,0.24273 -0.40125,0.14366 -0.76287,0.32694 -1.09972,0.54986 l 0.69351,1.90221 c 0.45574,1.25328 1.37217,2.12513 2.73939,2.6205 l -0.95111,2.52142 c 0.85204,0.49042 1.66444,0.64398 2.44712,0.4706 l 1.78333,-4.92891 c 0.46069,0.1387 0.8124,0.5449 1.05513,1.2186 0.10403,0.27741 0.22787,0.82232 0.38639,1.64463 0.57462,0.29226 1.37217,0.25263 2.39262,-0.11889 0.0545,-0.0198 0.0941,-0.0396 0.13375,-0.0545 l -0.2774,-1.16907 c -0.0545,-0.24768 -0.12384,-0.4706 -0.19815,-0.6737 -0.50527,-1.39694 -1.46629,-2.23411 -2.87809,-2.51152 z m 2.97717,-2.24401 c -0.34676,0.0198 -0.72819,0.10898 -1.15421,0.26254 -0.37648,0.13871 -0.76782,0.32199 -1.16907,0.55481 l 2.87809,7.90113 c 0.3319,-0.0149 0.71333,-0.0941 1.13439,-0.24769 0.39134,-0.14366 0.78764,-0.3319 1.18889,-0.55976 z m 5.67691,-0.74801 c -0.50032,-0.45078 -0.94615,-0.7381 -1.34244,-0.8768 l -3.69049,1.3474 c 0.55481,0.69847 1.10962,1.1443 1.66443,1.3375 l 1.36722,-0.49537 1.03532,2.84836 c 0.36657,1.01551 0.26254,1.76847 -0.31704,2.25888 l -0.80249,0.51518 c 1.0155,0.77278 1.69911,1.17898 2.05577,1.22852 1.52078,-1.30777 1.92203,-2.96726 1.18889,-4.96854 z m 9.96186,4.20568 c 1.00064,-1.71398 1.17402,-3.45767 0.52509,-5.23604 -0.36162,-0.99569 -0.92634,-1.72388 -1.70407,-2.18458 -0.9412,-0.56472 -2.05578,-0.61425 -3.33383,-0.14861 l -1.91212,0.69847 c 0.63903,0.7381 1.21365,1.18393 1.71893,1.3375 l 0.35667,-0.1288 c 0.69351,-0.25264 1.25823,-0.24273 1.70406,0.0347 0.39134,0.24768 0.71333,0.72819 0.97092,1.43656 0.29227,0.79755 0.21301,1.69416 -0.22787,2.69481 -1.11953,0.26749 -2.07064,-0.21301 -2.85827,-1.42666 l -2.34309,-3.64096 c -0.35171,0.0149 -0.74801,0.0991 -1.18393,0.25759 -0.4062,0.14861 -0.8025,0.35171 -1.17898,0.60435 0.72324,1.11953 1.63967,2.50656 2.75425,4.15118 -0.0693,0.78764 -0.22292,1.51583 -0.46069,2.19449 0.4706,0.63407 1.23346,1.12943 2.2886,1.4861 0.0892,-0.36657 0.18328,-1.08486 0.28731,-2.14494 0.62416,0.27245 1.30777,0.4062 2.06073,0.39134 0.62912,-0.0149 1.4762,-0.13871 2.53629,-0.37648 m 9.30796,-6.14752 c -0.0644,-0.27741 -0.14861,-0.55481 -0.24768,-0.84213 -0.47555,-1.29291 -1.26319,-2.24897 -2.37777,-2.86322 -1.0155,-0.56472 -2.24402,-0.81241 -3.68058,-0.74306 -0.60931,0.0297 -1.43657,0.0446 -2.4917,0.0446 l -1.36722,-0.005 c 0.50528,1.02046 1.05513,1.72884 1.64462,2.12513 0.38639,-0.0644 1.03037,-0.13375 1.93689,-0.21301 l -0.15356,6.71719 c 0.72323,0.36658 1.53068,0.41611 2.42235,0.15357 l -0.0248,-6.72215 c 0.74305,0.2576 1.31768,0.93625 1.71397,2.03101 0.16347,0.45079 0.30713,0.99074 0.43097,1.6149 0.0149,0.0892 0.10403,0.56968 0.2675,1.43162 0.63903,0.27245 1.42666,0.23282 2.36786,-0.10898 0.0594,-0.0198 0.10898,-0.0446 0.14861,-0.0644 z"
           style="fill:#ffffff;fill-opacity:1;fill-rule:nonzero;stroke:none;stroke-width:0.50174314"
           id="path1174"
           inkscape:connector-curvature="0" />
        <path
           d="m 398.46658,151.60239 -15.29697,5.53821 v 22.24203 l 15.31183,-5.62243"
           style="fill:#0994dc;fill-opacity:1;fill-rule:nonzero;stroke:none;stroke-width:0.50174314"
           id="path1178"
           inkscape:connector-curvature="0" />
        <path
           d="m 404.03055,138.52814 h 17.34779 17.34779 v 35.82006 c 0,0 -0.01,7.70793 -8.52033,7.70793 -6.33576,0 -8.82746,-8.78783 -8.82746,-8.78783 0,0 -2.4917,8.78783 -8.82746,8.78783 -8.51042,0 -8.52033,-7.70793 -8.52033,-7.70793 z m -4.94873,-5.989 v 45.6878 c 0,0 0.78764,9.83305 11.64611,9.83305 8.07945,0 10.48198,-5.87506 10.48198,-5.87506 0,0 2.40254,5.87506 10.48199,5.87506 10.85847,0 11.64611,-9.83305 11.64611,-9.83305 v -45.6878 h -22.1281 z"
           style="fill:#ffffff;fill-opacity:1;fill-rule:nonzero;stroke:none;stroke-width:0.50174314"
           id="path1180"
           inkscape:connector-curvature="0" />
        <path
           d="m 421.38032,139.15676 h 16.73849 v 35.20581 c -0.005,0 0,0.42106 -0.12384,1.09476 -0.12385,0.67866 -0.37648,1.58023 -0.8669,2.46694 -1.00064,1.76846 -2.85332,3.52206 -6.92029,3.54188 -2.15485,0 -3.81929,-1.10963 -5.12211,-2.57592 -1.29291,-1.46133 -2.16971,-3.25952 -2.65517,-4.45831 -0.31703,-0.79754 -0.46564,-1.31272 -0.46564,-1.31272 l -0.58454,-2.07064 -0.58949,2.07064 c 0,0 -0.14365,0.51518 -0.46564,1.31272 -0.32199,0.79754 -0.81736,1.86259 -1.49601,2.91772 -1.37217,2.12513 -3.41804,4.12146 -6.27632,4.11651 -6.04349,-0.0297 -7.35621,-3.95304 -7.78718,-6.00882 -0.12385,-0.6737 -0.12385,-1.09476 -0.12385,-1.09476 v -35.20581 z m 0,-1.2186 h -17.34779 -0.6093 v 36.42441 c 0.005,0.0545 0,2.07064 1.1443,4.15118 1.12944,2.0855 3.54188,4.19082 7.98533,4.171 3.48244,-0.005 5.84535,-2.40749 7.30173,-4.67132 0.68361,-1.06504 1.18393,-2.11522 1.52573,-2.93753 0.34181,0.82231 0.84213,1.87249 1.52078,2.93753 1.46134,2.26383 3.82424,4.66637 7.30668,4.67132 4.44345,0.0198 6.85094,-2.0855 7.98533,-4.171 1.1443,-2.08054 1.1443,-4.09669 1.1443,-4.15118 v -36.42441 z m -0.16842,-4.77535 h 21.51878 v 45.05372 c -0.01,0.0446 -0.0198,0.16348 -0.0495,0.35172 -0.0396,0.25263 -0.10898,0.61425 -0.22292,1.05513 -0.23282,0.8768 -0.64893,2.04587 -1.38703,3.20998 -1.48115,2.31833 -4.13632,4.61683 -9.37732,4.63665 -6.78158,-0.01 -9.28319,-4.26512 -9.81819,-5.29053 -0.0743,-0.14366 -0.0991,-0.2031 -0.0991,-0.2031 l -0.56472,-1.38208 -0.56472,1.38208 c 0,-0.005 -0.0248,0.0594 -0.0991,0.2031 -0.0743,0.14365 -0.18824,0.35666 -0.35171,0.61425 -0.32694,0.51519 -0.84708,1.20375 -1.60499,1.89726 -1.52078,1.37713 -3.97285,2.77407 -7.86149,2.77902 -7.81196,-0.0248 -10.0213,-5.19146 -10.76435,-7.84663 -0.2031,-0.76287 -0.25759,-1.27805 -0.27245,-1.40189 v -45.05868 z m 0,-1.21861 h -22.12809 v 0.60931 h 0.6093 -0.6093 v -0.60931 h -0.60931 v 46.32187 0.0248 c 0.01,0.0545 0.20806,2.59573 1.84773,5.19146 1.61985,2.60068 4.78525,5.22118 10.40768,5.20631 6.28622,0 9.33273,-3.43785 10.48199,-5.21622 1.1443,1.77837 4.19081,5.21622 10.48198,5.21622 5.61748,0.0149 8.78783,-2.60563 10.40769,-5.20631 1.63967,-2.59573 1.83781,-5.13697 1.84277,-5.19146 l 0.005,-0.0297 V 131.9442 Z"
           style="fill:#254aa5;fill-opacity:1;fill-rule:nonzero;stroke:none;stroke-width:0.50174314"
           id="path1184"
           inkscape:connector-curvature="0" />
        <path
           d="M 404.62252,171.50479 451.841,154.16691 v -21.88536 l -47.21353,17.07534 z"
           style="fill:#0994dc;fill-opacity:1;fill-rule:nonzero;stroke:none;stroke-width:0.50174314"
           id="path1188"
           inkscape:connector-curvature="0" />
        <path
           d="m 414.04838,158.80851 c -0.62912,-1.72388 -1.63967,-2.90286 -3.03165,-3.53693 -1.20375,-0.5449 -2.78893,-0.70838 -4.75554,-0.50032 0.63903,1.04523 1.17403,1.66939 1.6149,1.87249 0.89167,-0.0495 1.57527,0.0396 2.06073,0.26255 0.60931,0.28235 1.06009,0.82726 1.35236,1.62976 l 0.005,0.0248 0.56472,1.53565 -3.86882,1.40684 c -0.16347,0.0594 -0.28236,0.18824 -0.36162,0.38639 -0.0793,0.19815 -0.0892,0.38143 -0.0297,0.5449 l 1.15916,3.19017 c 0.6737,0.29227 1.54059,0.29722 2.60068,0.005 l -1.08981,-2.99203 3.8292,-1.39198 c 0.49041,-0.17833 0.63902,-0.535 0.44583,-1.07495 z m 7.4107,-8.03983 c -0.72323,-0.56471 -1.4861,-0.78268 -2.2985,-0.66379 l -1.95671,5.30539 c -0.49536,-0.19814 -0.96101,-0.88671 -1.39693,-2.05577 l -0.53996,-1.4762 c -0.35171,0.0198 -0.72323,0.0991 -1.11457,0.24273 -0.40125,0.14366 -0.76287,0.32694 -1.09972,0.54986 l 0.69351,1.90221 c 0.45574,1.25328 1.37217,2.12513 2.73939,2.6205 l -0.95111,2.52142 c 0.85204,0.49042 1.66444,0.64398 2.44712,0.4706 l 1.78333,-4.92891 c 0.46069,0.1387 0.8124,0.5449 1.05513,1.2186 0.10403,0.27741 0.22787,0.82232 0.38639,1.64463 0.57462,0.29226 1.37217,0.25263 2.39262,-0.11889 0.0545,-0.0198 0.0941,-0.0396 0.13375,-0.0545 l -0.2774,-1.16907 c -0.0545,-0.24768 -0.12384,-0.4706 -0.19815,-0.6737 -0.50527,-1.39694 -1.46629,-2.23411 -2.87809,-2.51152 z m 2.97717,-2.24401 c -0.34676,0.0198 -0.72819,0.10898 -1.15421,0.26254 -0.37648,0.13871 -0.76782,0.32199 -1.16907,0.55481 l 2.87809,7.90113 c 0.3319,-0.0149 0.71333,-0.0941 1.13439,-0.24769 0.39134,-0.14366 0.78764,-0.3319 1.18889,-0.55976 z m 5.67691,-0.74801 c -0.50032,-0.45078 -0.94615,-0.7381 -1.34244,-0.8768 l -3.69049,1.3474 c 0.55481,0.69847 1.10962,1.1443 1.66443,1.3375 l 1.36722,-0.49537 1.03532,2.84836 c 0.36657,1.01551 0.26254,1.76847 -0.31704,2.25888 l -0.80249,0.51518 c 1.0155,0.77278 1.69911,1.17898 2.05577,1.22852 1.52078,-1.30777 1.92203,-2.96726 1.18889,-4.96854 z m 9.96186,4.20568 c 1.00064,-1.71398 1.17402,-3.45767 0.52509,-5.23604 -0.36162,-0.99569 -0.92634,-1.72388 -1.70407,-2.18458 -0.9412,-0.56472 -2.05578,-0.61425 -3.33383,-0.14861 l -1.91212,0.69847 c 0.63903,0.7381 1.21365,1.18393 1.71893,1.3375 l 0.35667,-0.1288 c 0.69351,-0.25264 1.25823,-0.24273 1.70406,0.0347 0.39134,0.24768 0.71333,0.72819 0.97092,1.43656 0.29227,0.79755 0.21301,1.69416 -0.22787,2.69481 -1.11953,0.26749 -2.07064,-0.21301 -2.85827,-1.42666 l -2.34309,-3.64096 c -0.35171,0.0149 -0.74801,0.0991 -1.18393,0.25759 -0.4062,0.14861 -0.8025,0.35171 -1.17898,0.60435 0.72324,1.11953 1.63967,2.50656 2.75425,4.15118 -0.0693,0.78764 -0.22292,1.51583 -0.46069,2.19449 0.4706,0.63407 1.23346,1.12943 2.2886,1.4861 0.0892,-0.36657 0.18328,-1.08486 0.28731,-2.14494 0.62416,0.27245 1.30777,0.4062 2.06073,0.39134 0.62912,-0.0149 1.4762,-0.13871 2.53629,-0.37648 m 9.30796,-6.14752 c -0.0644,-0.27741 -0.14861,-0.55481 -0.24768,-0.84213 -0.47555,-1.29291 -1.26319,-2.24897 -2.37777,-2.86322 -1.0155,-0.56472 -2.24402,-0.81241 -3.68058,-0.74306 -0.60931,0.0297 -1.43657,0.0446 -2.4917,0.0446 l -1.36722,-0.005 c 0.50528,1.02046 1.05513,1.72884 1.64462,2.12513 0.38639,-0.0644 1.03037,-0.13375 1.93689,-0.21301 l -0.15356,6.71719 c 0.72323,0.36658 1.53068,0.41611 2.42235,0.15357 l -0.0248,-6.72215 c 0.74305,0.2576 1.31768,0.93625 1.71397,2.03101 0.16347,0.45079 0.30713,0.99074 0.43097,1.6149 0.0149,0.0892 0.10403,0.56968 0.2675,1.43162 0.63903,0.27245 1.42666,0.23282 2.36786,-0.10898 0.0594,-0.0198 0.10898,-0.0446 0.14861,-0.0644 z"
           style="fill:#ffffff;fill-opacity:1;fill-rule:nonzero;stroke:none;stroke-width:0.50174314"
           id="path1190"
           inkscape:connector-curvature="0" />
      </g>
    </g>
  </g>
</svg>
