<?xml version="1.0" encoding="UTF-8" standalone="no"?>
<!-- Generator: Adobe Illustrator 15.0.0, SVG Export Plug-In . SVG Version: 6.00 Build 0)  -->

<svg
   xmlns:dc="http://purl.org/dc/elements/1.1/"
   xmlns:cc="http://creativecommons.org/ns#"
   xmlns:rdf="http://www.w3.org/1999/02/22-rdf-syntax-ns#"
   xmlns:svg="http://www.w3.org/2000/svg"
   xmlns="http://www.w3.org/2000/svg"
   xmlns:sodipodi="http://sodipodi.sourceforge.net/DTD/sodipodi-0.dtd"
   xmlns:inkscape="http://www.inkscape.org/namespaces/inkscape"
   inkscape:version="0.92.3 (2405546, 2018-03-11)"
   sodipodi:docname="Jezreel_Valley_Regional_Council_COA.svg"
   xml:space="preserve"
   enable-background="new 0 0 1589.138 2202.86"
   viewBox="0 0 1593.138 2183.0416"
   height="2183.0417"
   width="1593.1379"
   y="0px"
   x="0px"
   id="Layer_1"
   version="1.1"><sodipodi:namedview
   inkscape:lockguides="true"
   inkscape:current-layer="Layer_1"
   inkscape:window-maximized="1"
   inkscape:window-y="-9"
   inkscape:window-x="-9"
   inkscape:cy="938.17571"
   inkscape:cx="499.95781"
   inkscape:zoom="0.2166359"
   inkscape:snap-center="true"
   inkscape:snap-object-midpoints="true"
   inkscape:snap-intersection-paths="true"
   inkscape:snap-smooth-nodes="true"
   inkscape:object-paths="true"
   inkscape:snap-bbox-midpoints="true"
   inkscape:snap-bbox-edge-midpoints="true"
   inkscape:bbox-nodes="true"
   inkscape:bbox-paths="true"
   inkscape:snap-bbox="true"
   showgrid="false"
   id="namedview59"
   inkscape:window-height="1005"
   inkscape:window-width="1920"
   inkscape:pageshadow="2"
   inkscape:pageopacity="0"
   guidetolerance="10"
   gridtolerance="10"
   objecttolerance="10"
   borderopacity="1"
   bordercolor="#666666"
   pagecolor="#ffffff"
   fit-margin-top="2"
   fit-margin-right="2"
   fit-margin-left="2"
   fit-margin-bottom="2" /><metadata
   id="metadata63"><rdf:RDF><cc:Work
       rdf:about=""><dc:format>image/svg+xml</dc:format><dc:type
         rdf:resource="http://purl.org/dc/dcmitype/StillImage" /><dc:title></dc:title></cc:Work></rdf:RDF></metadata><defs
   id="defs61">
	
	
	

	
	
	
	
	
	
	
	
	
	
	
	
	
	
	
	
	
	
	
	
	
	
</defs>
<path
   style="color:#000000;font-style:normal;font-variant:normal;font-weight:normal;font-stretch:normal;font-size:medium;line-height:normal;font-family:sans-serif;font-variant-ligatures:normal;font-variant-position:normal;font-variant-caps:normal;font-variant-numeric:normal;font-variant-alternates:normal;font-feature-settings:normal;text-indent:0;text-align:start;text-decoration:none;text-decoration-line:none;text-decoration-style:solid;text-decoration-color:#000000;letter-spacing:normal;word-spacing:normal;text-transform:none;writing-mode:lr-tb;direction:ltr;text-orientation:mixed;dominant-baseline:auto;baseline-shift:baseline;text-anchor:start;white-space:normal;shape-padding:0;clip-rule:nonzero;display:inline;overflow:visible;visibility:visible;opacity:1;isolation:auto;mix-blend-mode:normal;color-interpolation:sRGB;color-interpolation-filters:linearRGB;solid-color:#000000;solid-opacity:1;vector-effect:none;fill:#602026;fill-opacity:1;fill-rule:nonzero;stroke:none;stroke-width:70;stroke-linecap:butt;stroke-linejoin:miter;stroke-miterlimit:4;stroke-dasharray:none;stroke-dashoffset:0;stroke-opacity:1;color-rendering:auto;image-rendering:auto;shape-rendering:auto;text-rendering:auto;enable-background:accumulate"
   d="m 1170.4189,152.13642 -27.248,19.71875 c 0,0 -50.3354,36.08775 -84.6758,68.58789 l -0.021,0.0195 -0.023,0.0215 C 929.85242,362.6119 855.50839,546.08607 791.30948,714.12712 733.82897,606.95335 663.36312,495.56159 602.00284,391.81658 564.65393,328.66882 530.80423,272.98193 505.39347,232.79119 c -12.70538,-20.09538 -25.31455,-28.50874 -33.46039,-40.21983 -4.07292,-5.85554 -7.44951,-10.51501 -10.84571,-14.66992 -1.6981,-2.07746 -3.25675,-3.97003 -6.01953,-6.56445 -1.38138,-1.29722 -2.96573,-2.80326 -6.27734,-4.89063 -3.31162,-2.08737 -6.31871,-14.34291 -19.99469,-13.27236 l -15.29883,1.19727 -9.48437,12.06445 C 333.96295,255.5381 290.2215,358.4832 290.17667,483.77556 v 0.004 0.004 c -0.0437,289.4062 223.01939,526.71234 505.63672,526.61134 282.60521,0.087 505.65701,-237.21386 505.61331,-526.61134 v -0.004 -0.004 c -0.039,-109.73886 -33.0337,-207.93152 -88.7989,-290.94336 -7.9033,-11.7649 -16.2612,-23.23123 -25.039,-34.39648 z m -17.5918,77.30906 c 0.5534,0.81322 1.1451,1.60581 1.6933,2.42188 48.7425,72.55797 76.8718,156.05218 76.9063,251.93359 0.034,253.72613 -192.0592,456.68077 -435.61331,456.59375 h -0.0117 -0.0137 C 552.23384,940.48172 360.14233,737.52708 360.17667,483.80095 v -0.004 -0.004 c 0.0345,-92.39535 25.71508,-167.06445 71.52344,-236.22656 4.46027,6.85724 9.18307,14.17812 14.52734,22.63086 24.80522,39.23299 58.43228,94.5406 95.52539,157.25586 74.18623,125.4305 162.40978,280.80963 222.93946,398.20508 l 34.38086,66.67968 29.00586,-69.1875 C 903.67655,642.82471 980.60335,387.3806 1103.036,271.10369 v -0.004 c 14.2434,-13.47476 33.7288,-29.18516 49.7871,-41.6543 z"
   id="path887"
   inkscape:connector-curvature="0"
   sodipodi:nodetypes="ccccccsssccccccccccccccccccccccccccssccccccc" /><path
   d="m 775.149,968.265 -378.748,494.117 16.878,12.928 378.748,-494.096 z m 0,12.949 378.975,494.418 16.941,-12.959 -379.038,-494.408 z m 3.711,-15.966 -767.655,381.588 9.456,19.077 767.696,-381.599 z m -0.062,19.014 757.847,382.241 9.56,-19.025 -757.784,-382.23 z m 2.924,0.943 757.784,135.13 3.733,-20.952 -757.806,-135.11 z m 0.062,-20.932 -767.759,134.467 3.67,21.005 767.696,-134.488 z"
   id="path2"
   style="fill:#602026;fill-opacity:1"
   inkscape:connector-curvature="0" />
<path
   style="fill:#058860;fill-opacity:1"
   d="m 431.52789,180.06736 c -66.477,84.558 -106.30956,186.3397 -106.35156,303.7207 -0.041,271.568 207.538,491.70142 470.625,491.60742 263.08697,0.094 470.66597,-220.03942 470.62497,-491.60742 -0.042,-117.381 -39.8746,-219.1627 -106.3516,-303.7207 0,0 -53.3501,34.3707 -84.4941,63.8457 C 940.70488,372.00303 869.90464,602.85651 795.80133,779.61814 721.69802,602.85651 650.89778,372.00303 516.02203,243.91306 c -31.144,-29.475 -84.49414,-63.8457 -84.49414,-63.8457 z"
   id="path4"
   inkscape:connector-curvature="0"
   sodipodi:nodetypes="ccccccccc" />

<path
   style="fill:#602026;fill-opacity:1"
   d="m 775.149,981.215 v 378.964 h 42.983 l -0.041,-379.017 z"
   id="path952"
   inkscape:connector-curvature="0" /><path
   style="fill:#602026;fill-opacity:1"
   d="m 45.647,1601.764 c 51.962,-47.161 82.567,-104.225 115.309,-147.044 16.193,-21.501 32.739,-39.354 51.567,-51.836 18.931,-12.493 40.122,-20.238 68.903,-21.409 l 1.887,-0.041 c 26.437,-0.197 44.041,9.579 62.102,27.836 26.852,27.34 48.209,74.377 75.351,116.458 13.727,21.005 29.237,41.087 49.599,56.473 20.237,15.396 45.865,25.453 75.538,25.256 h 2.115 c 39.19,-0.467 70.292,-18.673 92.977,-42.528 34.232,-35.788 55.341,-83.832 80.161,-121.114 12.233,-18.672 25.068,-34.45 39.086,-45.046 14.162,-10.606 28.966,-16.672 49.08,-17.138 H 811 c 26.811,0.249 44.83,10.502 63.056,29.05 27.164,27.816 48.5,74.822 75.248,116.677 13.479,20.911 28.697,40.796 48.604,56.005 19.761,15.209 45.015,25.059 74.045,24.395 l 5.556,-0.196 c 37.739,-2.031 66.768,-21.347 87.025,-45.648 30.564,-36.483 47.712,-83.967 68.862,-120.522 10.451,-18.277 21.502,-33.487 33.736,-43.534 12.336,-10.035 25.109,-15.604 43.585,-16.079 l 1.285,-0.052 c 26.853,0.052 47.815,8.075 67.866,22.32 30.024,21.295 56.275,58.131 83.168,99.073 26.997,40.837 54.74,85.365 91.795,121.009 l 29.713,-30.988 c -42.589,-40.516 -75.33,-101.487 -113.669,-154.445 -19.285,-26.427 -40.227,-50.977 -65.979,-69.545 -25.67,-18.507 -56.877,-30.491 -92.935,-30.347 h -1.991 c -37.489,0.425 -66.871,18.828 -87.087,42.58 -30.563,35.644 -47.649,82.92 -68.944,119.994 -10.514,18.578 -21.751,34.357 -34.274,45.058 -12.691,10.75 -25.92,17.032 -44.644,18.256 l -3.795,0.146 c -25.711,0.176 -42.858,-9.466 -60.691,-27.743 -26.562,-27.34 -47.752,-74.347 -74.853,-116.46 -13.665,-21.046 -29.176,-41.086 -49.433,-56.513 -20.155,-15.407 -45.68,-25.566 -75.249,-25.411 h -2.425 c -39.128,0.466 -70.188,18.62 -92.873,42.477 -34.172,35.789 -55.28,83.831 -80.101,121.165 -12.232,18.673 -25.109,34.4 -39.126,45.046 -14.183,10.607 -29.029,16.641 -49.246,17.087 l -1.431,0.052 c -26.998,-0.196 -45.12,-10.398 -63.367,-28.947 -27.246,-27.815 -48.583,-74.831 -75.579,-116.737 -13.623,-20.953 -29.091,-40.816 -49.246,-56.048 -20.114,-15.157 -45.617,-24.933 -75.082,-24.291 l -2.737,0.095 c -36.017,1.284 -66.166,11.941 -90.987,28.51 -37.301,24.964 -62.577,61.127 -87.771,97.755 -25.172,36.785 -50.241,74.398 -84.227,105.086 z"
   id="path950"
   inkscape:connector-curvature="0" /><path
   style="fill:#602026;fill-opacity:1"
   d="M 1591.138,1608.668 1590.993,2.342 1568.537,3.409 c -2.073,0.197 -198.622,9.684 -397.058,137.111 -198.683,127.064 -396.932,375.305 -396.33,840.694 l 42.942,-0.052 c 0.498,-453.176 188.73,-683.086 376.57,-804.521 94.054,-60.515 188.523,-93.256 259.209,-110.694 35.416,-8.719 64.839,-13.644 85.305,-16.391 10.243,-1.369 18.226,-2.177 23.576,-2.675 5.35,-0.446 7.879,-0.549 7.879,-0.549 l -1.1,-21.471 h -21.439 l 5.5679,1598.1345 c 17.6977,17.6977 37.4791,6.2032 37.4791,-14.3275 z"
   id="path948"
   inkscape:connector-curvature="0"
   sodipodi:nodetypes="ccccccccccccccc" /><path
   style="fill:#602026;fill-opacity:1"
   d="M 45.647,1601.764 44.943,24.518 h -21.44 l -1.099,21.44 c 0,0 2.425,0.104 7.671,0.57 39.479,3.4 223.504,26.261 397.43,149.572 173.822,123.613 339.808,345.437 347.395,757.568 0.146,9.092 0.249,18.257 0.249,27.547 l 42.942,-0.052 c 0,-9.486 -0.104,-18.92 -0.29,-28.21 C 810.46,501.062 612.13,259.976 415.519,136.467 219.158,12.647 26.571,3.265 24.539,3.088 L 2,2 2.208,1581.7291 c 0,27.0771 14.335608,39.4807 43.439,20.0349 z"
   id="path8"
   inkscape:connector-curvature="0"
   sodipodi:nodetypes="ccccccccccccccc" /><g
   aria-label="מועצה אזורית"
   transform="matrix(61.959906,0,0,61.959906,-121829.74,-103903.07)"
   style="font-style:normal;font-variant:normal;font-weight:normal;font-stretch:normal;font-size:5.4666667px;line-height:1000%;font-family:Tipograf2;-inkscape-font-specification:Tipograf2;letter-spacing:0px;word-spacing:0px;fill:#602026;fill-opacity:1;stroke:none;stroke-width:1px;stroke-linecap:butt;stroke-linejoin:miter;stroke-opacity:1"
   id="flowRoot891"><path
     d="m 1991.3053,1705.3674 q 0,1.42 -0.993,1.42 -0.1682,0 -0.3337,-0.048 0.01,-0.099 0.069,-0.2669 0.096,0.048 0.1842,0.048 0.4965,0 0.4965,-1.1371 0,-1.1051 -0.5232,-1.1051 -0.4618,0 -0.5605,1.0731 l -0.1281,1.3987 h -0.5419 l 0.1121,-1.3106 q 0.075,-0.8756 0.5339,-1.1558 h -0.614 q -0.01,-0.085 -0.01,-0.1255 0,-0.053 0.01,-0.1521 h 1.3427 q 0.9556,0 0.9556,1.3613 z"
     style=""
     id="path854" /><path
     d="m 1988.4171,1706.7501 h -0.5445 v -2.744 h 0.5445 z"
     style=""
     id="path856" /><path
     d="m 1987.2667,1705.7704 q 0,0.4565 -0.2403,0.7154 -0.2482,0.2643 -0.6966,0.2643 h -1.1452 q -0.013,-0.1282 -0.013,-0.1442 0,-0.064 0.013,-0.1281 h 0.6967 q -0.2162,-0.2162 -0.3897,-0.67 -0.2749,-0.7127 -0.2749,-1.7377 0,-0.064 0.069,-0.064 h 0.4831 q 0,0.9716 0.1842,1.719 0.1041,0.4297 0.3043,0.7527 0.2162,0 0.3203,-0.1228 0.1388,-0.1575 0.1388,-0.5392 v -1.8097 h 0.5499 z"
     style=""
     id="path858" /><path
     d="m 1984.6374,1704.4865 q 0,0.8088 -0.7741,1.3267 0.1842,0.1921 0.59,0.5098 0.1067,0.083 0.1067,0.1975 0,0.2296 -0.2616,0.2296 h -1.7163 q -0.013,-0.1228 -0.013,-0.1549 0,-0.045 0.013,-0.1174 h 1.2252 q 0.04,0 0.048,-0.043 0.01,-0.043 -0.027,-0.067 -0.5605,-0.4351 -0.9075,-1.009 -0.387,-0.638 -0.3951,-1.2866 0,-0.067 0.069,-0.067 h 0.4859 q 0.032,0.5819 0.2295,1.0543 0.1308,0.315 0.363,0.5579 0.1789,-0.1762 0.2856,-0.4004 0.1282,-0.2749 0.1282,-0.5659 v -0.6459 h 0.5498 z"
     style=""
     id="path860" /><path
     d="m 1982.0082,1706.7501 h -0.5445 v -1.8685 q 0,-0.2483 -0.1362,-0.4164 -0.1441,-0.1815 -0.387,-0.1815 h -0.9369 q -0.021,-0.099 -0.019,-0.1469 0,-0.045 0.019,-0.1307 h 1.0624 q 0.9422,0 0.9422,0.8755 z m -1.4547,0 h -0.5446 v -1.6123 q 0.2563,-0.2055 0.5446,-0.2295 z"
     style=""
     id="path862" /><path
     d="m 1978.3033,1706.6993 q 0,0.051 -0.093,0.051 h -0.4778 l -0.9983,-1.5322 q -0.1708,0.1495 -0.1708,0.3924 v 1.1398 h -0.5445 v -0.5633 q 0,-0.8728 0.5765,-1.1878 l -0.5765,-0.8782 q -0.021,-0.032 -0.021,-0.059 0,-0.056 0.091,-0.056 h 0.4698 l 0.9182,1.4067 q 0.083,-0.053 0.1495,-0.2376 0.059,-0.1655 0.059,-0.2749 v -0.8942 h 0.5445 v 0.4431 q 0,0.8408 -0.6032,1.1958 l 0.6513,0.9849 q 0.027,0.043 0.027,0.069 z"
     style=""
     id="path864" /><path
     d="m 1975.5673,1704.0061 q -0.013,0.1334 -0.1148,0.2669 -0.1468,0.056 -0.2429,0.1788 -0.1629,0.2109 -0.1629,0.6193 0,0.1388 0.024,0.2963 l 0.1948,1.3827 h -0.5579 l -0.1815,-1.2466 q -0.019,-0.1174 -0.019,-0.2349 0,-0.3069 0.1067,-0.5712 0.1308,-0.3257 0.3737,-0.4191 h -0.5899 q -0.016,-0.091 -0.019,-0.1201 -0,-0.027 0.011,-0.1521 z"
     style=""
     id="path866" /><path
     d="m 1973.8215,1706.7501 h -0.5445 v -2.744 h 0.5445 z"
     style=""
     id="path868" /><path
     d="m 1972.6791,1706.7501 h -0.5445 v -1.8685 q 0,-0.2483 -0.1362,-0.4164 -0.1441,-0.1815 -0.387,-0.1815 h -0.8115 q -0.019,-0.093 -0.021,-0.1362 0,-0.048 0.021,-0.1414 h 0.9343 q 0.9449,0 0.9449,0.8755 z"
     style=""
     id="path870" /><path
     d="m 1970.3141,1705.4875 q -0.2322,0.2242 -0.5498,0.2723 v -1.7537 h 0.5498 z"
     style=""
     id="path872" /><path
     d="m 1969.1583,1706.7501 h -0.5392 v -1.9833 q 0,-0.4831 -0.4404,-0.4831 h -0.4698 q -0.051,0 -0.051,0.051 v 1.7003 q 0,0.4671 -0.2029,0.6433 -0.1601,0.1388 -0.4698,0.1388 -0.1414,0 -0.2615,-0.067 0.032,-0.08 0.088,-0.2403 0.048,0.032 0.1202,0.032 0.1895,0 0.1895,-0.2403 v -2.0019 q 0,-0.2936 0.2749,-0.2936 h 0.8809 q 0.4538,0 0.6566,0.1841 0.2242,0.2056 0.2242,0.6086 z"
     style=""
     id="path874" /></g><path
   inkscape:connector-curvature="0"
   id="path915"
   style="font-style:normal;font-variant:normal;font-weight:normal;font-stretch:normal;font-size:medium;line-height:1000%;font-family:Tipograf2;-inkscape-font-specification:Tipograf2;letter-spacing:0px;word-spacing:0px;fill:#602026;fill-opacity:1;stroke:none;stroke-width:61.95977402px;stroke-linecap:butt;stroke-linejoin:miter;stroke-opacity:1"
   d="m 1558.2501,2071.5526 q 0,28.2847 -14.8827,44.3261 -15.3784,16.3759 -43.1675,16.3759 h -70.95 q -0.8055,-7.9432 -0.8055,-8.9346 0,-3.9653 0.8055,-7.937 h 43.1673 q -13.3957,-13.3957 -24.1458,-41.5131 -17.0388,-44.1586 -17.0388,-107.6675 0,-3.9653 4.2752,-3.9653 h 29.9389 q 0,60.2001 11.413,106.5087 6.45,26.6242 18.8483,46.6372 13.4019,0 19.8519,-7.6088 8.5999,-9.7585 8.5999,-33.4085 v -112.1286 h 34.0656 z" /><path
   inkscape:connector-curvature="0"
   id="path917"
   style="font-style:normal;font-variant:normal;font-weight:normal;font-stretch:normal;font-size:medium;line-height:1000%;font-family:Tipograf2;-inkscape-font-specification:Tipograf2;letter-spacing:0px;word-spacing:0px;fill:#602026;fill-opacity:1;stroke:none;stroke-width:61.95977402px;stroke-linecap:butt;stroke-linejoin:miter;stroke-opacity:1"
   d="m 1382.8765,2046.5828 q 0,87.9829 -61.5198,87.9829 -10.4217,0 -20.6761,-2.9741 0.6196,-6.1339 4.2752,-16.537 5.9482,2.9741 11.4131,2.9741 30.7629,0 30.7629,-70.4544 0,-68.4718 -32.4172,-68.4718 -28.6131,0 -34.7286,66.489 l -7.9431,86.6631 h -33.5699 l 6.9457,-81.2045 q 4.6471,-54.2519 33.0742,-71.6131 h -38.0371 q -0.6196,-5.2665 -0.6196,-7.7759 0,-3.2839 0.6196,-9.424 h 83.1872 q 59.2087,0 59.2087,84.3457 z" /><path
   inkscape:connector-curvature="0"
   id="path919"
   style="font-style:normal;font-variant:normal;font-weight:normal;font-stretch:normal;font-size:medium;line-height:1000%;font-family:Tipograf2;-inkscape-font-specification:Tipograf2;letter-spacing:0px;word-spacing:0px;fill:#602026;fill-opacity:1;stroke:none;stroke-width:61.95977402px;stroke-linecap:butt;stroke-linejoin:miter;stroke-opacity:1"
   d="m 1192.899,2034.3458 q 0,38.5328 -21.0045,66.8111 -22.987,31.0977 -60.0327,31.0977 -0.9914,-3.7794 -0.8055,-8.2715 0.6196,-2.7883 0.8055,-8.6001 45.3174,-10.0871 45.3174,-80.0459 0,-24.313 -3.9655,-36.0544 -6.6173,-19.8457 -25.9672,-19.8457 h -69.4631 q -0.6816,-3.2837 -1.3012,-8.439 0,-1.7968 1.3012,-8.7609 h 77.902 q 29.4371,0 42.337,13.8913 14.8828,16.2087 14.8828,58.2174 z m -101.3785,146.6959 h -33.4088 v -150.0046 q 8.2715,-7.2802 15.5458,-10.4215 8.4325,-3.4699 17.863,-4.9568 z" /><path
   inkscape:connector-curvature="0"
   id="path921"
   style="font-style:normal;font-variant:normal;font-weight:normal;font-stretch:normal;font-size:medium;line-height:1000%;font-family:Tipograf2;-inkscape-font-specification:Tipograf2;letter-spacing:0px;word-spacing:0px;fill:#602026;fill-opacity:1;stroke:none;stroke-width:61.95977402px;stroke-linecap:butt;stroke-linejoin:miter;stroke-opacity:1"
   d="m 1010.9145,2057.3329 h -74.7544 v -18.1914 h 74.7544 z" /><path
   inkscape:connector-curvature="0"
   id="path923"
   style="font-style:normal;font-variant:normal;font-weight:normal;font-stretch:normal;font-size:medium;line-height:1000%;font-family:Tipograf2;-inkscape-font-specification:Tipograf2;letter-spacing:0px;word-spacing:0px;fill:#602026;fill-opacity:1;stroke:none;stroke-width:61.95977402px;stroke-linecap:butt;stroke-linejoin:miter;stroke-opacity:1"
   d="m 886.85842,2054.0243 q -14.38699,13.8914 -34.07163,16.8716 v -108.6588 h 34.07163 z" /><path
   inkscape:connector-curvature="0"
   id="path925"
   style="font-style:normal;font-variant:normal;font-weight:normal;font-stretch:normal;font-size:medium;line-height:1000%;font-family:Tipograf2;-inkscape-font-specification:Tipograf2;letter-spacing:0px;word-spacing:0px;fill:#602026;fill-opacity:1;stroke:none;stroke-width:61.95977402px;stroke-linecap:butt;stroke-linejoin:miter;stroke-opacity:1"
   d="m 807.21892,1962.2371 q -0.80534,8.2653 -7.10678,16.537 -9.10185,3.4696 -15.0499,11.0784 -10.09331,13.0674 -10.09331,38.3717 0,8.6 1.48711,18.3586 l 12.07587,85.6718 h -34.56727 l -11.2457,-77.239 q -1.17722,-7.274 -1.17722,-14.5544 0,-19.0154 6.6173,-35.3913 8.10423,-20.1803 23.15431,-25.9674 h -36.55002 q -0.99146,-5.6384 -1.1774,-7.4414 0,-1.6728 0.68158,-9.424 z" /><path
   inkscape:connector-curvature="0"
   id="path927"
   style="font-style:normal;font-variant:normal;font-weight:normal;font-stretch:normal;font-size:medium;line-height:1000%;font-family:Tipograf2;-inkscape-font-specification:Tipograf2;letter-spacing:0px;word-spacing:0px;fill:#602026;fill-opacity:1;stroke:none;stroke-width:61.95977402px;stroke-linecap:butt;stroke-linejoin:miter;stroke-opacity:1"
   d="m 688.01786,2132.2546 h -33.7371 v -115.7718 q 0,-15.3846 -8.43259,-25.8001 -8.93477,-11.2457 -23.98467,-11.2457 h -50.27429 q -1.17721,-5.7621 -1.30098,-8.439 0,-2.974 1.30098,-8.7609 h 57.88287 q 58.54578,0 58.54578,54.2457 z" /><path
   inkscape:connector-curvature="0"
   id="path929"
   style="font-style:normal;font-variant:normal;font-weight:normal;font-stretch:normal;font-size:medium;line-height:1000%;font-family:Tipograf2;-inkscape-font-specification:Tipograf2;letter-spacing:0px;word-spacing:0px;fill:#602026;fill-opacity:1;stroke:none;stroke-width:61.95977402px;stroke-linecap:butt;stroke-linejoin:miter;stroke-opacity:1"
   d="m 524.72037,2071.5526 q 0,28.2847 -14.88282,44.3261 -15.38462,16.3759 -43.16733,16.3759 h -70.95021 q -0.80534,-7.9432 -0.80534,-8.9346 0,-3.9653 0.80534,-7.937 h 43.16135 q -13.39571,-13.3957 -24.14577,-41.5131 -17.03283,-44.1586 -17.03283,-107.6675 0,-3.9653 4.27519,-3.9653 h 29.93291 q 0,60.2001 11.41296,106.5087 6.45004,26.6242 18.85429,46.6372 13.39571,0 19.84574,-7.6088 8.60005,-9.7585 8.60005,-33.4085 v -112.1286 h 34.07164 z" /><path
   inkscape:connector-curvature="0"
   id="path931"
   style="font-style:normal;font-variant:normal;font-weight:normal;font-stretch:normal;font-size:medium;line-height:1000%;font-family:Tipograf2;-inkscape-font-specification:Tipograf2;letter-spacing:0px;word-spacing:0px;fill:#602026;fill-opacity:1;stroke:none;stroke-width:61.95977402px;stroke-linecap:butt;stroke-linejoin:miter;stroke-opacity:1"
   d="m 349.24768,2129.1071 q 0,3.16 -5.7623,3.16 h -29.60435 l -61.85452,-94.9349 q -10.58895,9.2631 -10.58895,24.313 v 70.6219 h -33.7371 v -34.902 q 0,-54.0785 35.726,-73.5959 l -35.726,-54.413 q -1.30118,-1.9828 -1.30118,-3.6556 0,-3.4697 5.63835,-3.4697 h 29.1087 l 56.8916,87.1587 q 5.14251,-3.2838 9.26295,-14.7215 3.6556,-10.2545 3.6556,-17.0329 v -55.4043 h 33.74326 v 27.4543 q 0,52.0958 -37.38038,74.0916 l 40.35441,61.0241 q 1.67304,2.6643 1.67304,4.2752 z" /><path
   inkscape:connector-curvature="0"
   id="path933"
   style="font-style:normal;font-variant:normal;font-weight:normal;font-stretch:normal;font-size:medium;line-height:1000%;font-family:Tipograf2;-inkscape-font-specification:Tipograf2;letter-spacing:0px;word-spacing:0px;fill:#602026;fill-opacity:1;stroke:none;stroke-width:61.95977402px;stroke-linecap:butt;stroke-linejoin:miter;stroke-opacity:1"
   d="m 164.56468,2027.5613 q 0,45.9802 -21.6672,73.7631 -23.15449,29.4371 -67.145827,32.9129 -1.177214,-3.9653 -0.805531,-8.9284 0,-2.4784 0.805531,-7.9431 16.208631,-2.6644 28.117237,-13.8914 25.30451,-24.1458 25.30451,-74.9219 0,-49.1155 -26.13468,-49.1155 H 56.56265 q -16.70427,0 -16.70427,-15.2172 v -43.6631 h 32.256155 v 36.55 q 0,5.1427 5.452597,5.1427 h 32.751798 q 30.26127,0 42.83279,16.537 11.41296,15.0501 11.41296,48.7872 z" /><flowRoot
   xml:space="preserve"
   id="flowRoot907"
   style="font-style:normal;font-variant:normal;font-weight:normal;font-stretch:normal;font-size:5.4666667px;line-height:1000%;font-family:AmbivalentiAAA-Bold;-inkscape-font-specification:AmbivalentiAAA-Bold;letter-spacing:-2px;word-spacing:0px;fill:#000000;fill-opacity:1;stroke:none;stroke-width:1px;stroke-linecap:butt;stroke-linejoin:miter;stroke-opacity:1"
   transform="translate(-10.587,0.299)"><flowRegion
     id="flowRegion909"><rect
       id="rect911"
       width="0"
       height="16.526861"
       x="2456.3049"
       y="1876.4546" /></flowRegion><flowPara
     id="flowPara913" /></flowRoot></svg>