<?xml version="1.0" encoding="utf-8"?>
<!-- Generator: Adobe Illustrator 15.0.0, SVG Export Plug-In . SVG Version: 6.00 Build 0)  -->
<!DOCTYPE svg PUBLIC "-//W3C//DTD SVG 1.1//EN" "http://www.w3.org/Graphics/SVG/1.1/DTD/svg11.dtd">
<svg version="1.1" id="Layer_1" xmlns="http://www.w3.org/2000/svg" xmlns:xlink="http://www.w3.org/1999/xlink" x="0px" y="0px"
	 width="828px" height="930px" viewBox="0 0 828 930" enable-background="new 0 0 828 930" xml:space="preserve">
<g>
	<g>
		<path fill="#E5A722" d="M132.89,39.59c186.11,0,372.22-0.01,558.33,0c-9.39,50.62-18.84,101.22-28.31,151.82
			c-167.92,0.01-335.85-0.02-503.77,0.02C150.33,140.82,141.64,90.2,132.89,39.59z M415.48,83.48c-1.27,1.31-1.73,3.07-1.88,4.84
			c4.12,0.11,8.23,0.09,12.35,0.04c0.15,31.54-0.06,63.09,0.11,94.64c5.14-3.6,10.29-7.21,15.77-10.27
			c0.5-13.91-0.12-27.82,0.03-41.73c-0.11-14.17,0.22-28.34-0.19-42.5c8.11-0.23,16.23-0.04,24.34-0.13
			c1.83,0.14,4.05-0.29,5.46,1.21c1.65,1.4,1.53,3.73,1.04,5.63c-5.1,21.64-10.68,43.16-15.5,64.86
			c6.13-3.84,12.68-7.04,18.58-11.22c5.18-20.31,9.85-40.78,14.14-61.3c1.55-6.04,0.06-12.81-4.71-17.01l-0.47,0.03
			c-2.13-0.69-4.36-0.93-6.59-0.83c-14.12,0.19-28.26-0.18-42.38,0.2c-2.17-0.75-3.52-2.61-4.52-4.56
			C425.85,71.4,420.59,77.39,415.48,83.48z M164.21,81.16c-1.76,2.01-2.35,4.64-2.75,7.21c12.54,0.1,25.08-0.08,37.62,0.08
			c2.99-0.27,4.96,2.86,4.56,5.59c0.03,21.98-0.03,43.97,0.03,65.96c5.57-3.43,10.86-7.28,16.31-10.89
			c0.03-22.05,0.02-44.1,0.01-66.15c0.09-5.23-2.18-11.84-7.89-13.07c-9.61-0.38-19.24,0.17-28.84-0.22
			c-2.54,0.08-3.84-2.36-4.83-4.29C173.53,70.49,168.64,75.63,164.21,81.16z M227.32,88.33c4,0.06,8,0.05,12,0.16
			c-0.07,8.82-0.07,17.64-0.04,26.46c-0.08,2.8,0.89,5.71,3.12,7.52c3.56,3.44,8.86,1.74,13.27,2.12
			c3.58-4.62,7.36-9.09,10.72-13.88c-3.2-0.16-6.44,0.14-9.6-0.44c-1.63-0.76-2.85-2.4-2.86-4.22c-0.25-5.85,0.04-11.72-0.11-17.57
			c6.76-0.13,13.53-0.12,20.29-0.07c3.95-0.31,5.64,4.31,5.52,7.57c0.01,13.03,0.05,26.07-0.02,39.1c0.21,3.51-3.02,6.62-6.48,6.5
			c-12.38,0.1-24.75-0.05-37.13,0.06c-3.73,5.16-8.02,9.9-11.44,15.27c5.45,0.37,10.92,0.12,16.38,0.05
			c9.68,0.56,19.37-0.61,29.05,0.13c5.72-0.19,12.06,0.37,17.01-3.06c5.81-3.96,9.36-11.08,9.03-18.1
			c-0.09-18.33,0.03-36.65-0.05-54.98c0.32-6.3-5.92-11.53-11.98-11.19c-10.93-0.05-21.86,0.19-32.77-0.09
			c-2.53,0.07-3.64-2.52-4.77-4.31C240.14,73.07,233.5,80.51,227.32,88.33z M301.36,84.45c-1.04,1.06-0.87,2.59-0.93,3.94
			c4.07,0.01,8.14,0,12.2,0c0.05,24.2-0.05,48.4,0.06,72.59c5.02-4.38,10.3-8.51,14.95-13.3c1.56-1.46,0.79-3.81,1.01-5.69
			c-0.33-17.86,0.06-35.73-0.32-53.59c7.25,0.07,14.5-0.15,21.74,0.07c2.84-0.09,4.52,2.97,4.2,5.53
			c0.01,22.02-0.03,44.05,0.02,66.07c5.5-3.5,10.79-7.31,16.25-10.87c0.18-21.72,0-43.43,0.09-65.15
			c0.15-4.81-1.07-10.25-5.24-13.16c-1.67-0.84-3.5-1.24-5.37-1.15c-12.78,0.12-25.57-0.06-38.36,0.1
			c-1.92-0.89-3.01-2.78-4.11-4.48C312.3,71.85,306.56,77.93,301.36,84.45z M501.43,83.55c-0.98,1.44-1.48,3.13-2.04,4.75
			c2.8,0.09,5.61,0.1,8.42,0.11c2,4.26,5.49,7.93,6.93,12.33c-6.87,9.72-14.3,19.06-21.33,28.67c-1.37,1.88-2.25,4.13-2.22,6.48
			c-0.16,8.14-0.3,16.3-0.11,24.45c14.76-19.03,28.88-38.55,43.59-57.62c1.32-2.63,5.9-3.41,6.52,0.1
			c3.44,11.01,6.61,22.13,9.84,33.21c1.21,2.68-1.35,5.58-4.08,5.5c-8.6,0.24-17.21-0.07-25.82,0.13c-3.89,5.14-8,10.09-11.99,15.15
			c13.6,0.52,27.23-0.12,40.85,0.14c4.33,0.2,8.71,0.37,13.01-0.33c3.05-0.54,5.83-2.69,6.88-5.64c1.48-3.88,0.41-8.06-0.61-11.9
			c-5.81-21.02-11.22-42.16-17.5-63.05c-1.35-6.28-9.81-8.33-14.66-4.86c-3.43,3.33-5.45,7.81-8.65,11.34
			c-0.81,1.08-2.2,1.25-3.44,1.21c-4.26-6-7.77-12.51-11.89-18.61C509.23,71.26,505.38,77.44,501.43,83.55z M587.72,69.5
			c-5.229,6.32-10.82,12.34-15.81,18.86c2.96,0.05,5.93,0.04,8.91,0c5.11,17.76,10.71,35.4,15.34,53.29
			c-4.08-0.05-8.16-0.06-12.23-0.05c-3.98,5.09-8.03,10.12-11.88,15.31l0.09,1.01c17.93,0.19,35.85-0.07,53.78,0.1
			c2.18-0.04,4.53,0.04,6.43-1.26c5.61-1.34,9.43-7.08,9.16-12.74c-0.02-22.35-0.01-44.69-0.01-67.04c0.34-3.09-1.65-6.58-4.95-6.86
			c-0.62-2.08-5.39-2.09-6.1-0.07c-1.61,0.75-2.54,2.37-3.69,3.64c-3.89,4.96-8.31,9.5-11.92,14.67c3.39,0.06,6.79,0.04,10.18-0.01
			c0.29,14.2,0.02,28.41,0.14,42.61c-0.11,2.88,0.37,5.92-0.65,8.68c-1.99,3.56-6.94,1.4-10.25,1.98
			c-6.7-22.61-13.27-45.27-19.97-67.87C593.59,70.75,590.49,69.56,587.72,69.5z"/>
	</g>
	<path fill="#E5A722" d="M27.67,74.4c6.45-0.68,12.92-0.31,19.39-0.37c27.56-0.08,55.13,0.13,82.69-0.13
		c7.8,45.04,15.36,90.13,22.97,135.2c-22.45-0.01-44.89,0.1-67.33-0.05C66.23,164.13,46.83,119.32,27.67,74.4z"/>
	<path fill="#E5A722" d="M693.11,73.78c34.11,0.73,68.26-0.31,102.37,0.53c-19.61,44.78-38.69,89.81-57.97,134.74
		c-22.44,0.15-44.89,0.03-67.33,0.06C677.73,163.98,685.42,118.88,693.11,73.78z"/>
	<g>
		<path fill="#E5A722" d="M161.05,200.55c166.37-0.09,332.74-0.04,499.11-0.02c-1.35,6.14-3.32,12.18-4.22,18.41l0.07,0.89
			c11.68,0.43,23.37,0.05,35.05,0.18c10.26-0.11,20.53,0.24,30.78-0.21c-0.45,47.74-0.06,95.51-0.19,143.26
			c0,76.32,0,152.64,0,228.96c0.4,16.15-2.46,32.15-5.52,47.95c-7.94,38.78-21.5,76.52-41.09,110.97
			c-13.08,22.81-28.84,44.18-47.52,62.72c-21.3,21.5-46.42,39.16-73.75,52.14c-49.56,23.58-105.39,31.38-159.84,29.1
			c-33.84-1.5-67.68-7.35-99.5-19.19c-36.31-13.34-69.62-34.76-96.75-62.33c-39.36-39.97-65.66-91.3-81-144.91
			c-6.15-22.06-11.12-44.59-12.93-67.45c-0.11-127.86,0.01-255.73-0.06-383.59c20.04-0.17,40.08,0.07,60.13-0.12
			C163.08,211.69,162.2,206.09,161.05,200.55z M190.55,208.86c0.21,119.7,0.03,239.4,0.09,359.09c0.12,12.97-0.51,26.01,1.2,38.91
			c2.94,24.92,9.94,49.31,20.02,72.27c15.74,35.73,39.99,68.18,71.91,90.98c31.31,22.61,69.36,34.8,107.7,37.55
			c3.06,1.77,6.97,2.1,10.23,0.66c7.17,0.29,14.37,0.29,21.54,0c3.28,1.39,7.18,1.05,10.27-0.65c18.14-1.34,36.2-4.38,53.61-9.72
			c34.63-10.38,66.39-30.48,90.03-57.89c22.48-25.7,38.13-56.94,47.45-89.67c6.23-22.2,9.99-45.25,9.52-68.35
			c0-72.01,0-144.02,0-216.03c0.1-52.38-0.21-104.77,0.15-157.14c-3.16-1.69-6.92-0.66-10.33-0.9c-143.3,0.05-286.6,0.01-429.9,0.02
			C192.82,208.03,191.65,208.32,190.55,208.86z M645.25,247.03c0.02,53.92-0.03,107.84,0.03,161.77c5.02,1.82,9.91,4.01,14.74,6.31
			c-4.7-62.35-9.85-124.66-14.52-187.01C644.98,234.4,645.32,240.72,645.25,247.03z M675.78,249.06
			c-3.7,55.64-7.46,111.28-11.1,166.92c-0.28,1.73,1.37,2.76,2.37,3.88c3.89,3.49,6.78,7.88,10.09,11.89
			c2.22-3.6,4.29-7.33,7.19-10.43c1.51-1.82,3.78-3.56,3.25-6.23c-1.98-37.02-4.03-74.04-6.09-111.06
			c-1.22-25.35-3.04-50.68-3.92-76.05C676.47,234.95,676.28,242.02,675.78,249.06z M117.47,408.74c4.96,1.94,9.86,4.03,14.67,6.32
			c-2.43-32.69-5.44-65.34-8.09-98.02c-2.63-29.33-4.56-58.72-7.63-88C116.77,288.94,117.16,348.84,117.47,408.74z M147.5,228.93
			c-1.77,16.32-2.03,32.77-3.1,49.15c-2.64,46.37-4.97,92.77-7.72,139.14c4.13,4.4,7.42,9.42,10.93,14.3
			c3.74-4.89,7.34-9.98,12.19-13.87C155.99,354.73,151.28,291.86,147.5,228.93z M704.32,270.53c-4.05,48.18-8.09,96.36-12.1,144.55
			c4.85-2.2,9.69-4.44,14.72-6.21c0.46-55.29,0.61-110.59,1.03-165.88c0.09-4.64-0.09-9.29-0.47-13.92
			C706.81,242.92,705.42,256.71,704.32,270.53z M164.47,414.89c4.92-1.93,9.65-4.35,14.68-5.99c0.28-55.32-0.01-110.63,0.15-165.95
			c0.05-3.03-0.23-6.05-0.72-9.03C173.91,294.24,169.04,354.55,164.47,414.89z M116.38,423c-0.29,10.12,0.84,20.72,6.01,29.63
			c5.38,8.89,14.31,16.34,24.94,17.46c0.44-10.49-2.44-20.92-7.33-30.14C135.33,430.99,125.96,425.38,116.38,423z M157.27,436.31
			c-6.68,9.84-10.32,21.88-9.57,33.8c8.29-1.13,15.75-5.91,20.98-12.34c8.13-9.51,10.25-22.72,9.42-34.85
			C170.17,425.42,162.41,429.6,157.27,436.31z M646.22,422.92c-0.42,10.18,0.771,20.86,6,29.81c5.38,8.97,14.47,16.37,25.16,17.36
			c-0.13-11.06-3.07-22.16-8.76-31.67C663.66,430.46,655,425.57,646.22,422.92z M685.36,438.41c-5.47,9.53-8.87,20.62-7.63,31.69
			c8.52-1.32,16.14-6.34,21.36-13.12c7.66-9.47,9.48-22.26,8.88-34.09C699.09,425.46,690.23,430.25,685.36,438.41z M707.75,469.12
			c-8.41,2.9-17.07,7.09-21.92,14.89c-5.85,9.68-9.26,21.07-8.14,32.43c11.12-1.63,20.41-9.69,25.5-19.45
			C707.29,488.39,708.73,478.57,707.75,469.12z M116.53,469.37c-0.5,10.02,0.7,20.54,5.73,29.4c5.33,9.05,14.39,16.49,25.1,17.65
			c0.28-11.01-2.65-22.04-8.17-31.55C134.32,476.73,125.51,471.7,116.53,469.37z M155.79,484.83c-5.57,9.49-8.83,20.52-8.12,31.58
			c10.41-1.27,19.22-8.45,24.53-17.22c5.28-8.92,6.42-19.63,6.07-29.81C169.38,471.8,160.78,476.91,155.79,484.83z M656.32,504.74
			c5.3,6.23,12.8,11.06,21.13,11.59c-0.27-11.31-3.24-22.71-9.31-32.31c-4.99-7.57-13.38-11.93-21.71-14.86
			C645.38,481.59,647.82,495.16,656.32,504.74z M116.4,516.04c-0.3,9.4,0.65,19.14,4.89,27.67c5.13,9.93,14.67,18.16,26.05,19.47
			c0.36-10.72-2.55-21.45-7.71-30.81C134.88,523.73,125.68,518.5,116.4,516.04z M157.35,529.32c-6.74,9.83-10.42,21.9-9.63,33.84
			c11.04-1.43,20.3-9.35,25.44-18.94c4.38-8.65,5.58-18.63,4.99-28.21C170.24,518.49,162.49,522.64,157.35,529.32z M646.22,516.02
			c-0.42,10.42,0.84,21.4,6.38,30.46c5.46,8.6,14.35,15.87,24.83,16.6c-0.27-11.06-3.11-22.17-8.85-31.67
			C663.59,523.51,654.97,518.67,646.22,516.02z M685.44,531.38c-5.53,9.53-8.95,20.67-7.68,31.77c11.23-1.65,20.65-9.87,25.63-19.83
			c4.02-8.48,5.05-18.09,4.55-27.37C699.12,518.56,690.31,523.28,685.44,531.38z M161.47,571.45c-4.58,4.2-7.01,10.08-9.05,15.81
			c-2.45,7.33-4.02,15.06-3.7,22.82c10.45-1.65,19.34-8.85,24.45-17.91c5.1-9.13,5.99-19.9,5.48-30.16
			C172.25,563.64,166.3,566.96,161.47,571.45z M645.98,561.86c-0.96,11.78,0.65,24.48,7.86,34.22c5.06,7.1,12.73,12.25,21.31,13.98
			c1.11-10.87-1.95-21.73-6.73-31.4C663.98,569.96,654.97,564.77,645.98,561.86z M116.43,564.47c-0.11,9.32,1.53,18.86,5.99,27.12
			c5.44,9.38,14.75,17.19,25.79,18.48c1.18-11.2-2.54-22.42-8.69-31.67C134.2,570.74,125.28,566.52,116.43,564.47z M684.32,579.35
			c-5.73,9.1-9.07,19.91-8.6,30.71c10.18-0.85,18.93-7.51,24.61-15.69c5.92-8.73,7.71-19.53,7.83-29.89
			C698.88,566.51,689.55,571.12,684.32,579.35z M161.64,620.6c-4.49,9.78-5.1,20.74-4.97,31.34c-1.4-9.19-5.99-17.62-11.94-24.65
			c-6.38-7.44-16.34-10.71-25.87-11.34c1.77,12.65,6.99,25.73,17.71,33.38c6.67,4.76,15.37,8.71,23.6,5.92
			c8.6-3.46,15.11-11,18.58-19.46c4.06-10.03,3.59-21.3,1.16-31.67C172.54,607.87,165.5,613.11,161.64,620.6z M648.58,641.41
			c4.21,6.74,10.57,12.9,18.62,14.46c1.04-11.49,0.58-23.4-3.87-34.18c-3.63-8.06-11.04-13.64-18.72-17.55
			C641.6,616.45,641.66,630.37,648.58,641.41z M679.07,628.08c-6.46,8.02-11.51,17.82-11.7,28.31c7.98,0.04,15.77-2.99,21.85-8.1
			c9.91-7.72,14.76-20.25,16.28-32.39C695.68,616.65,685.36,620.09,679.07,628.08z M194.25,670.98c1.18,6.44,3.11,12.71,4.87,19.01
			c5.79,19.76,13.04,39.31,24.06,56.82c4.24,6.6,8.42,13.4,14.04,18.95c0.93-5.21,1.43-10.5,2.62-15.66
			c-6.78-8.3-13.29-16.82-19.29-25.69C209.71,707.71,201.7,689.39,194.25,670.98z M629.74,671.99
			c-5.54,13.95-11.56,27.75-18.88,40.87c-7.27,13.35-16.65,25.39-26.19,37.17c1.21,5.31,1.76,10.73,2.5,16.12
			c15.65-17.96,26.29-39.79,33.81-62.25C624.31,693.39,627.97,682.89,629.74,671.99z M614.66,749.68
			c-8.34,10.49-16.42,21.47-27.04,29.8c-0.91,5.4-2.26,10.75-4.61,15.72c2.91,0.7,5.83,1.35,8.8,1.77
			c8.47-6.97,15.17-15.76,21.9-24.34c9.13-12.09,18.41-24.21,25.1-37.87c8.68-17.41,15.6-35.78,20.04-54.72
			C645.42,704.03,631.46,727.85,614.66,749.68z M166.1,680.79c0.47,5.61,2.67,10.84,4.21,16.2c6.4,19.49,14.34,38.69,25.89,55.74
			c8.8,12.44,17.79,24.83,28,36.18c2.77,2.79,5.29,6.06,8.85,7.9c2.84-0.05,5.57-0.93,8.31-1.61c-2.23-5.11-3.57-10.52-4.69-15.96
			c-7.62-5.62-13.55-13.1-19.57-20.32C197.31,734.83,181.18,708.01,166.1,680.79z M633.63,769.62c-9.31,10.52-18.46,21.27-29,30.61
			c4.37,2.25,8.51,4.93,12.4,7.95c4.85-3.86,8.83-8.64,12.85-13.32c7.79-9.28,15.13-18.92,22.34-28.66
			c11.12-14.96,19.98-31.5,27.33-48.6c3.89-9.45,7.98-18.92,10.39-28.87C672.69,716.67,655.44,744.91,633.63,769.62z M134.89,689.59
			c0.95,5.38,3.16,10.4,4.99,15.52c7.24,19.04,16.19,37.53,27.63,54.42c8.77,12.43,18.04,24.52,27.81,36.18
			c3.77,4.22,7.28,8.79,11.87,12.16c4.45-2.13,8.11-5.76,12.82-7.51c-11.22-9.92-20.92-21.39-30.79-32.61
			c-13.94-16.02-25.98-33.57-37.48-51.39C145.87,707.59,140.91,698.24,134.89,689.59z M247.98,763.39
			c-1.98,8.27-2.76,17.26,0.43,25.33c4.01,9.18,10.75,16.92,18.5,23.17c-9.16-4.75-19.46-7.71-29.85-7.21
			c-8.31,0.81-16.11,5.04-22.03,10.83c9.09,6.18,19.68,11.2,30.91,10.81c9.06-0.4,18.59-3.63,24.54-10.76
			c4.41-6.16,4.33-14.4,3.01-21.54C270.82,780.3,260.03,769.59,247.98,763.39z M551.42,792.28c-1.99,8.13-2.14,17.97,3.73,24.61
			c6.43,6.53,15.84,9.31,24.83,9.47c10.71-0.02,20.65-4.95,29.36-10.78c-5.57-5.91-13.34-9.78-21.37-10.85
			c-10.05-0.75-19.91,2.27-29.04,6.22c5.63-5.13,10.95-10.69,14.69-17.38c5.57-8.96,5.64-20.34,2.65-30.19
			C564.96,769.59,554.51,779.32,551.42,792.28z M280.33,787.94c-0.26,8.82,0.97,18.19,6.26,25.52c5.64,7.4,13.09,13.39,21.48,17.39
			c-8.89-1.61-18.04-2.62-27-0.97c-9.21,1.87-16.95,8.25-22.2,15.84c11.64,4.94,25.31,7.58,37.39,2.62
			c7.55-3.02,15.05-8.34,17.75-16.33c1.81-7.52-0.18-15.49-3.75-22.19C304.26,798.44,292.4,791.33,280.33,787.94z M514.78,808.82
			c-4.15,7.22-6.37,16.14-3.99,24.31c3.97,8.88,13.06,14.33,22.15,16.78c10.95,2.75,22.35-0.02,32.6-4.08
			c-4.31-6.77-10.87-12.19-18.42-14.96c-9.82-2.89-20.31-2-30.22-0.02c8.13-4.49,15.78-10.21,21.28-17.78
			c5.03-7.32,6.29-16.54,5.86-25.23C532.46,791.44,520.85,797.88,514.78,808.82z M318.07,805c1.16,8.83,4.11,17.93,10.66,24.26
			c6.91,6.29,15.31,10.89,24.32,13.37c-9.79-0.24-19.89,0.43-28.93,4.51c-7.85,3.73-13.57,10.88-17.23,18.6
			c11.36,2.44,23.98,3.25,34.58-2.36c7.87-4.07,15.16-10.77,17.27-19.67c-1.54-0.07-3.08-0.14-4.61-0.19
			c1.64-0.08,3.27-0.16,4.92-0.21c0.1-8.36-3.1-16.55-8.55-22.83C342.57,810.88,330.09,806.47,318.07,805z M472.84,821.89
			c-5.58,7.21-9.37,17.19-5.69,26.09c4.17,8.54,12.34,14.61,21.2,17.65c9.42,3.03,19.58,2.15,29.12,0.17
			c-3.33-7.73-9.16-14.62-16.72-18.48c-9.27-4.26-19.68-5.04-29.75-4.6c9.07-2.39,17.53-6.97,24.51-13.22
			c6.67-6.35,9.84-15.54,10.81-24.52C493.75,806.59,480.65,811.38,472.84,821.89z M403.09,826.09c2.55,5.04,6.02,9.61,9.41,14.13
			c2.39-4.82,5.5-9.3,7.48-14.31c-2.08-5.15-5.19-9.83-7.91-14.66C408.97,816.12,405.67,820.91,403.09,826.09z M359.63,817.11
			c1.63,7.6,5.49,14.78,11.07,20.21c8.19,7,18.81,10.54,29.32,12.18c-9.83,0.67-19.7,3.12-28.16,8.32
			c-7.25,4.86-12.1,12.8-14.42,21.12c10.75,0.74,22.2-0.22,31.59-5.97c8.2-5.14,15.15-13.36,16.43-23.22
			c-0.57-0.03-1.7-0.1-2.26-0.14c1.64-0.23,2.32-1.08,2.02-2.56c-1.49-8.89-7.32-16.55-14.49-21.77
			C381.79,818.83,370.41,817.14,359.63,817.11z M440.4,821.48c-11.16,4.92-20.15,15.52-21.54,27.86c8.11,0.5,16.13-1.68,23.47-4.96
			c4.83-2.21,9.64-4.83,13.2-8.85c4.69-5.12,7.53-11.6,9.51-18.18C456.66,816.82,448.14,818.22,440.4,821.48z M418.88,849.75
			c1.74,10.97,9.86,19.98,19.56,24.88c8.86,4.28,19,5.03,28.68,4.24c-2.72-8.81-7.89-17.41-16.13-22.01
			C441.23,851.56,429.98,848.99,418.88,849.75z M403.08,878.09c2.57,5.02,6,9.62,9.44,14.1c2.4-4.79,5.44-9.27,7.46-14.24
			c-2.05-5.18-5.2-9.87-7.91-14.72C408.99,868.13,405.68,872.91,403.08,878.09z"/>
	</g>
</g>
<g>
	<path fill="#103A74" d="M415.48,83.48c5.11-6.09,10.37-12.08,15.58-18.1c1,1.95,2.35,3.81,4.52,4.56c4.62,1.75,9.65,0.89,14.47,1
		c11.49-0.22,23.01,0.45,34.5-0.37l0.47-0.03c4.77,4.2,6.26,10.97,4.71,17.01c-4.29,20.52-8.96,40.99-14.14,61.3
		c-5.9,4.18-12.45,7.38-18.58,11.22c4.82-21.7,10.4-43.22,15.5-64.86c0.49-1.9,0.61-4.23-1.04-5.63c-1.41-1.5-3.63-1.07-5.46-1.21
		c-8.11,0.09-16.23-0.1-24.34,0.13c0.41,14.16,0.08,28.33,0.19,42.5c-0.15,13.91,0.47,27.82-0.03,41.73
		c-5.48,3.06-10.63,6.67-15.77,10.27c-0.17-31.55,0.04-63.1-0.11-94.64c-4.12,0.05-8.23,0.07-12.35-0.04
		C413.75,86.55,414.21,84.79,415.48,83.48z"/>
	<path fill="#103A74" d="M164.21,81.16c4.43-5.53,9.32-10.67,14.22-15.78c0.99,1.93,2.29,4.37,4.83,4.29
		c9.6,0.39,19.23-0.16,28.84,0.22c5.71,1.23,7.98,7.84,7.89,13.07c0.01,22.05,0.02,44.1-0.01,66.15
		c-5.45,3.61-10.74,7.46-16.31,10.89c-0.06-21.99,0-43.98-0.03-65.96c0.4-2.73-1.57-5.86-4.56-5.59
		c-12.54-0.16-25.08,0.02-37.62-0.08C161.86,85.8,162.45,83.17,164.21,81.16z"/>
	<path fill="#103A74" d="M227.32,88.33c6.18-7.82,12.82-15.26,19.14-22.97c1.13,1.79,2.24,4.38,4.77,4.31
		c10.91,0.28,21.84,0.04,32.77,0.09c6.06-0.34,12.3,4.89,11.98,11.19c0.08,18.33-0.04,36.65,0.05,54.98
		c0.33,7.02-3.22,14.14-9.03,18.1c-4.95,3.43-11.29,2.87-17.01,3.06c-9.68-0.74-19.37,0.43-29.05-0.13
		c-5.46,0.07-10.93,0.32-16.38-0.05c3.42-5.37,7.71-10.11,11.44-15.27c12.38-0.11,24.75,0.04,37.13-0.06
		c3.46,0.12,6.69-2.99,6.48-6.5c0.07-13.03,0.03-26.07,0.02-39.1c0.12-3.26-1.57-7.88-5.52-7.57c-6.76-0.05-13.53-0.06-20.29,0.07
		c0.15,5.85-0.14,11.72,0.11,17.57c0.01,1.82,1.23,3.46,2.86,4.22c3.16,0.58,6.4,0.28,9.6,0.44c-3.36,4.79-7.14,9.26-10.72,13.88
		c-4.41-0.38-9.71,1.32-13.27-2.12c-2.23-1.81-3.2-4.72-3.12-7.52c-0.03-8.82-0.03-17.64,0.04-26.46
		C235.32,88.38,231.32,88.39,227.32,88.33z"/>
	<path fill="#103A74" d="M301.36,84.45c5.2-6.52,10.94-12.6,16.19-19.09c1.1,1.7,2.19,3.59,4.11,4.48c3.25,1.4,6.86,1.19,10.32,1.17
		c11.13-0.19,22.27,0.05,33.41-0.12c4.17,2.91,5.39,8.35,5.24,13.16c-0.09,21.72,0.09,43.43-0.09,65.15
		c-5.46,3.56-10.75,7.37-16.25,10.87c-0.05-22.02-0.01-44.05-0.02-66.07c0.32-2.56-1.36-5.62-4.2-5.53
		c-7.24-0.22-14.49,0-21.74-0.07c0.38,17.86-0.01,35.73,0.32,53.59c-0.22,1.88,0.55,4.23-1.01,5.69c-4.65,4.79-9.93,8.92-14.95,13.3
		c-0.11-24.19-0.01-48.39-0.06-72.59c-4.06,0-8.13,0.01-12.2,0C300.49,87.04,300.32,85.51,301.36,84.45z"/>
	<path fill="#103A74" d="M501.43,83.55c3.95-6.11,7.8-12.29,11.7-18.44c4.12,6.1,7.63,12.61,11.89,18.61
		c1.24,0.04,2.63-0.13,3.44-1.21c3.2-3.53,5.22-8.01,8.65-11.34c4.85-3.47,13.31-1.42,14.66,4.86c6.28,20.89,11.69,42.03,17.5,63.05
		c1.02,3.84,2.09,8.02,0.61,11.9c-1.05,2.95-3.83,5.1-6.88,5.64c-4.3,0.7-8.68,0.53-13.01,0.33c-13.62-0.26-27.25,0.38-40.85-0.14
		c3.99-5.06,8.1-10.01,11.99-15.15c8.61-0.2,17.22,0.11,25.82-0.13c2.73,0.08,5.29-2.82,4.08-5.5c-3.23-11.08-6.4-22.2-9.84-33.21
		c-0.62-3.51-5.2-2.73-6.52-0.1c-14.71,19.07-28.83,38.59-43.59,57.62c-0.19-8.15-0.05-16.31,0.11-24.45
		c-0.03-2.35,0.85-4.6,2.22-6.48c7.03-9.61,14.46-18.95,21.33-28.67c-1.44-4.4-4.93-8.07-6.93-12.33c-2.81-0.01-5.62-0.02-8.42-0.11
		C499.95,86.68,500.45,84.99,501.43,83.55z"/>
	<path fill="#103A74" d="M587.72,69.5c2.771,0.06,5.87,1.25,6.57,4.25c6.7,22.6,13.27,45.26,19.97,67.87
		c3.31-0.58,8.26,1.58,10.25-1.98c1.02-2.76,0.54-5.8,0.65-8.68c-0.12-14.2,0.15-28.41-0.14-42.61c-3.39,0.05-6.79,0.07-10.18,0.01
		c3.61-5.17,8.03-9.71,11.92-14.67c1.15-1.27,2.08-2.89,3.69-3.64c2.03,0.02,4.06,0.04,6.1,0.07c3.3,0.28,5.29,3.77,4.95,6.86
		c0,22.35-0.01,44.69,0.01,67.04c0.27,5.66-3.55,11.4-9.16,12.74c-20.1,0.31-40.2-0.01-60.3,0.15c3.85-5.19,7.9-10.22,11.88-15.31
		c4.07-0.01,8.15,0,12.23,0.05c-4.63-17.89-10.23-35.53-15.34-53.29c-2.98,0.04-5.95,0.05-8.91,0
		C576.9,81.84,582.49,75.82,587.72,69.5z"/>
	<g>
		<path fill="#103A74" d="M367.39,265.98c3.57-1.89,8.4-0.77,9.26,3.61c0.33,5.65-0.1,11.3-0.22,16.94
			c-0.1,3.63-0.09,7.27,0.19,10.89c0.48,3.19,0.91,6.54,2.62,9.35c1.46,2.2,4.23,2.83,6.48,3.89c4.15-3.46,10.62-3.99,14.67-0.09
			c4.14,3.66,4,9.58,3.49,14.61c1.05,0.34,2.1,0.68,3.16,1.03c-1.18-0.25-2.35-0.47-3.52-0.68c-1.77,3.25-4.45,5.87-7.61,7.79
			c-2.09,1.57-4.72,3.07-5.5,5.74c-0.4,3.11,0.32,6.22,0.69,9.3c0.52,3.61,0.62,7.29,0.34,10.93c-0.55,4.77-1.61,9.5-3.4,13.97
			c-1.21,2.79-2.56,5.53-4.13,8.13c-5.33,9.02-13.81,15.44-20.27,23.56c-1.27,1.28-2.5,2.61-3.69,3.98c0.8,2.48-0.07,4.95-0.75,7.34
			c-1.82,6.08-2.28,12.44-2.54,18.75c-0.09,2.98-0.04,5.97,0.1,8.96c0.26,6.01,0.85,12,1.61,17.96c0.37,2.98,0.83,5.95,1.33,8.92
			c0.94,5.55,2.08,11.07,3.39,16.56c0.7,2.98,1.49,5.94,2.4,8.88c1.17,3.75,2.44,7.48,3.59,11.25c-14.1-0.01-28.21-0.18-42.31,0.08
			c0.46,2.11,0.9,4.24,1.49,6.33l-0.72-0.36c0.58,3.61,1.2,7.21,1.89,10.81l0.07,0.03c1.29,6.68,4.26,12.94,5.15,19.71
			c0.33,0.17,1,0.49,1.34,0.66c0.89,3.04,2.08,5.99,3.35,8.89c2.67,6.3,5.54,12.51,8.52,18.67c1.44,2.94,2.98,5.83,4.51,8.73
			c2.85,5.56,5.76,11.09,8.77,16.57c1.44,2.64,2.91,5.27,4.38,7.92c2.18,3.96,4.3,7.95,6.41,11.96c1.38,2.66,2.73,5.35,3.98,8.09
			c2.35,5.3,4.24,10.81,5.82,16.4c1.19,4.37,2.24,8.78,3.16,13.21c1.27,6.08,2.33,12.2,3.02,18.37c0.39,4.01,0.76,8.04,0.74,12.08
			c-0.24,4.6-1.17,9.18-2.83,13.49c-1.5,1.91-3.25,4.08-5.86,4.3c-3.17,0.41-5.72-1.95-7.49-4.28c-2.28-3.91-4.35-7.95-6.49-11.94
			c-1.39-2.67-2.76-5.34-4.11-8.02c-2.77-5.48-5.38-11.04-8.07-16.56c-1.51-2.98-3.16-5.9-5.1-8.62c-1.58-2.22-3.32-4.31-5.09-6.37
			c-1.33,2.08-2.62,4.18-3.81,6.35c-1.51,2.76-2.88,5.59-4.31,8.39c-2.62,5.03-5.36,10.03-8.75,14.58c-1.83,2.39-3.77,4.7-5.8,6.93
			c-6.23,6.55-13.18,12.71-21.5,16.46c-3.87,1.64-8.93,2.46-12.4-0.46c-2.83-2.31-2.75-6.3-2.56-9.62c0.67-3.1,1.54-6.15,2.67-9.12
			c2.66-6.89,5.95-13.51,9.2-20.13c2.56-4.9,4.97-9.87,7.46-14.8c3.47-6.61,6.91-13.52,7.34-21.12c0.24-3.41,0.06-6.83-0.36-10.2
			c-0.64-4.98-1.7-9.89-3.12-14.7c-0.9-3.05-1.88-6.06-2.95-9.05c-1.66-4.56-3.44-9.08-5.38-13.52c-1.18-2.66-2.38-5.3-3.62-7.92
			c-2.76-5.81-5.63-11.56-8.58-17.26c-7.22-1.3-14.63-0.36-21.92-0.2c-11.66-0.32-23.36,0.51-34.99-0.55
			c-2.4-2.05-3.06-5.19-3.96-8.05l-0.88,0.08c-0.59-0.01-1.78-0.02-2.37-0.03c1.03-0.2,2.07-0.39,3.11-0.57
			c-1.54-6.34-3.05-12.7-4.03-19.16c-0.33-2.23-0.64-4.46-0.92-6.69c-0.78-5.89-1.13-11.83-1.39-17.76
			c-3.28-0.01-6.56,0.01-9.84-0.01c3.04-0.16,6.09-0.33,9.14-0.43h0.67c-0.05-3-0.11-6-0.13-8.99c-3.26,0.01-6.51-0.02-9.77-0.01
			c-0.14-0.21-0.41-0.65-0.55-0.86c3.41,0.36,6.83,0.55,10.26,0.55c0.18-6.07,0.41-12.14,0.92-18.19c0.33-3.9,0.71-7.8,1.18-11.68
			c0.68-5.29,1.45-10.58,2.4-15.83c0.6-3.23,1.24-6.45,1.86-9.67c-0.76,0.13-2.29,0.38-3.06,0.51c1.04-0.22,2.08-0.44,3.13-0.67
			c1.34-6.31,2.82-12.59,4.48-18.83c1.12-4.04,2.29-8.07,3.52-12.08c2.11-7.2,4.55-14.31,7.1-21.36c1.73-4.59,3.49-9.17,5.27-13.74
			c2-4.74,4.02-9.48,6.11-14.18c1.27-2.79,2.59-5.57,3.89-8.34c2.02-4.28,3.91-8.61,6.08-12.81c1.32-2.49,2.79-4.89,4.25-7.3
			c3.66-6.19,8.59-11.45,13.27-16.87c-2.62-0.13-5.24-0.24-7.86-0.34c3.21,0.07,6.5,0.26,9.62-0.69c7.27-6.89,16.1-11.93,25.37-15.6
			c7.38-2.41,14.67-5.27,22.37-6.55c6.97-1.27,14.31-1.7,20.69-5.1c4.72-3.4,8.72-7.66,13.1-11.47
			C364.62,268,365.98,266.96,367.39,265.98z M360.37,286.99c-0.31,9.07,0.19,18.46,3.72,26.94c2.18,5.37,6.36,9.9,11.55,12.48
			c6.07,2.96,14.03,1.88,18.72-3.1c1.72-2.08,1.15-5.21-0.82-6.9c-1.71,1.19-3.2,3.03-5.39,3.28c-4.12,0.48-7.99-1.53-11.51-3.41
			c-4.5-2.38-6.77-7.33-7.84-12.09c-1.95-8.97-1.27-18.2-0.92-27.3C365.08,279.96,359.9,282.14,360.37,286.99z M317.13,298.16
			c-16.92,4.77-32.08,15.5-41.66,30.29c-3.27,5.28-7.68,11.06-6.29,17.65c1.03,7.38,5.42,14.21,11.82,18.07
			c7.51,4.55,16.19,7.55,25.04,7.48c4.17,0.06,8.11-1.45,12.03-2.66c-1.47,8.63-2.07,19.42,5.4,25.57
			c7.44,5.04,16.87,5.57,25.57,5.93c2.61-0.22,5.94,0.72,7.84-1.62c4.12-4.55,8.37-8.98,12.65-13.38
			c7.36-7.69,12.66-17.74,13.13-28.52c0.63-6.71-2.05-13.24-1.13-19.95c-10-0.81-18.96-7.24-23.8-15.88
			c-5.19-9.44-6.33-20.49-6.3-31.09C340.22,293.75,328.15,293.79,317.13,298.16z M262.77,357.15c-4.1,11.97-6.3,24.5-8.09,37
			c-2.01,14.83-3.24,30-0.69,44.84c2.83,17.07,8.2,33.61,14.32,49.76c7.23,18.81,15.54,37.21,24.88,55.07
			c2.21,3.66,3.7,7.68,5.38,11.6c7.83,15.51,15.11,31.48,19.23,48.43c2.87,11.95,3.72,25.01-1.3,36.53
			c-4.7,10.48-10.28,20.53-15.23,30.9c-3.37,7.04-6.9,14.16-8.24,21.92c2.66-0.86,5.3-1.91,7.61-3.5
			c10.97-7.33,19.99-17.52,25.88-29.33c3.6-6.35,6.1-13.42,10.86-19.04c3.31-3.89,9.36-2.7,12.68,0.55
			c7.99,7.39,11.98,17.82,16.77,27.35c3.87,7.65,7.49,15.47,12.04,22.76c2.08-9.9-0.12-19.99-1.66-29.8
			c-2.59-13.63-5.96-27.34-12.67-39.6c-11.44-21.51-23.83-42.58-33.25-65.09c-7.16-16.63-12.68-34.27-13.23-52.49
			c-0.34-15.8,1.26-31.72,5.8-46.9c4.45-17.81,13.28-34.22,24.26-48.82c-9.83-0.26-20.14-1.45-28.68-6.68
			c-7.39-4.71-10.67-13.61-11.2-22.01c-13.06,0.21-26.36-3.98-36.53-12.27C267.81,365.37,265.75,360.85,262.77,357.15z
			 M228.57,485.99c-0.42,19.29,1.37,38.81,7.02,57.33c15.71,0.2,31.42-0.07,47.13-0.21C275.26,528,268.14,512.7,261.99,497
			c-7.21-18.4-13.6-37.27-16.78-56.83c-2.32-13.61-1.54-27.48-0.52-41.18C235.54,427.1,229.39,456.37,228.57,485.99z M347.78,427.81
			c-12.78,21.24-21.89,45.68-20.31,70.81c9.79,0.05,19.58-0.02,29.37,0.04c-5-17.82-8.1-36.19-8.95-54.69
			C347.56,438.58,348.12,433.19,347.78,427.81z"/>
	</g>
	<g>
		<path fill="#103A74" d="M311.37,306.42c12.86-4.14,27.8,4.11,31.28,17.12c3.87,12.3-3.39,26.66-15.61,30.75
			c-8.07,2.95-17.62,1.46-24.3-3.98c-6.67-5.21-10.29-13.95-9.34-22.36C294.29,318.01,301.76,309.1,311.37,306.42z M308.94,317.47
			c-2-1.55-5.02,1.46-3.51,3.48c-3.12,3.91-4.13,9.43-2.62,14.2c2.14,8.01,11,13.32,19.09,11.38c9.31-1.771,15.44-12.6,11.88-21.47
			C330.59,315.2,317.07,310.87,308.94,317.47z"/>
	</g>
	<path fill="#103A74" d="M309.52,329.03c0.12-3.97,3.32-7.97,7.47-8.04c2.84-0.28,5.46,0.93,7.86,2.31
		c-4.37,4.59-8.11,9.78-12.8,14.06C310.27,334.99,309.44,331.97,309.52,329.03z"/>
</g>
<g>
	<path fill="#BE9E54" d="M630.45,70.05c0.71-2.02,5.48-2.01,6.1,0.07C634.51,70.09,632.48,70.07,630.45,70.05z"/>
</g>
<g>
	<path fill="#25394F" d="M321.66,69.84c12.79-0.16,25.58,0.02,38.36-0.1c1.87-0.09,3.7,0.31,5.37,1.15
		c-11.14,0.17-22.28-0.07-33.41,0.12C328.52,71.03,324.91,71.24,321.66,69.84z"/>
</g>
<g>
	<path fill="#23384E" d="M435.58,69.94c14.12-0.38,28.26-0.01,42.38-0.2c2.23-0.1,4.46,0.14,6.59,0.83
		c-11.49,0.82-23.01,0.15-34.5,0.37C445.23,70.83,440.2,71.69,435.58,69.94z"/>
</g>
<g>
	<path fill="#D9B058" d="M27.04,73.06c31.99-0.28,63.98-0.01,95.97-0.13c2.17,0.28,4.95-0.52,6.74,0.97
		c-27.56,0.26-55.13,0.05-82.69,0.13c-6.47,0.06-12.94-0.31-19.39,0.37C27.51,74.07,27.2,73.39,27.04,73.06z"/>
</g>
<g>
	<path fill="#D8AF58" d="M693.11,73.78c1.9-0.5,3.84-0.91,5.83-0.85c31.37,0.04,62.74,0,94.11,0.02c1.02-0.01,2.53-0.12,2.43,1.36
		C761.37,73.47,727.22,74.51,693.11,73.78z"/>
</g>
<g>
	<path fill="#CDA954" d="M572.05,156.91c20.1-0.16,40.2,0.16,60.3-0.15c-1.9,1.3-4.25,1.22-6.43,1.26
		c-17.93-0.17-35.85,0.09-53.78-0.1L572.05,156.91z"/>
</g>
<g>
	<path fill="#DEB35A" d="M190.55,208.86c1.1-0.54,2.27-0.83,3.49-0.87c143.3-0.01,286.6,0.03,429.9-0.02
		c3.41,0.24,7.17-0.79,10.33,0.9c-48.42,0.42-96.86,0.06-145.28,0.18c-92.33,0-184.66,0-276.99,0
		C204.85,208.96,197.69,209.25,190.55,208.86z"/>
	<path fill="#DEB35A" d="M655.94,218.94c21.38,0.08,42.78-0.11,64.16,0.09c0.44,0.19,1.31,0.58,1.74,0.77
		c-10.25,0.45-20.52,0.1-30.78,0.21c-11.68-0.13-23.37,0.25-35.05-0.18L655.94,218.94z"/>
</g>
<g>
	<path fill="#00AAAA" d="M202.1,217.73c57.96-0.11,115.92-0.28,173.88-0.26c11.57-0.05,23.14,0.14,34.71-0.19v0.53
		c0.01,8.98-0.17,17.96,0.14,26.94c-4.31-0.32-8.58-1.12-12.77-2.14c-6.21-1.52-10.14-7.11-15.75-9.8
		c-2.47-1.09-5.45-0.74-7.68,0.74c-5.2,3.21-9.61,7.93-15.67,9.55c-6.51,1.69-13.34,1.46-20,1.1c-7.59-0.59-13.85-5.31-19.97-9.38
		c-2.32-1.55-5.14-3.1-8-2.06c-6.37,2.31-10.9,8.02-17.5,9.84c-7.28,2.1-15.02,2.2-22.51,1.39c-8.48-1.03-14-8.46-21.59-11.49
		c-6.09-1.73-10.66,3.58-15.13,6.74c-5.31,4.5-12.62,5.13-19.29,5.16c-4.35,0.06-9.11-2.68-12.99,0.4
		c0.02-4.71,0.02-9.42-0.07-14.13C201.94,226.36,201.9,222.04,202.1,217.73z"/>
	<path fill="#00AAAA" d="M236.57,248.57c3.64-2.21,6.55-5.49,10.43-7.29c4.25,2.15,7.75,5.51,11.95,7.77
		c4.23,2.57,9.12,3.84,14.04,4.14c8.02,0.51,16.23,0.14,23.94-2.28c5.99-1.84,10.77-6.06,15.98-9.37c7.35,5,14.99,10.47,24.1,11.41
		c7.62,0.73,15.43,0.73,22.95-0.88c7.39-1.5,13.29-6.48,19.17-10.88c4.9,3.42,9.27,7.95,15.15,9.65c5.28,1.56,10.76,2.23,16.21,2.83
		c0.07,6.15-0.01,12.3-0.12,18.45c-4.66-0.78-9.43-1.18-13.93-2.7c-5.8-2.16-9.58-7.71-15.43-9.79c-5.47-1.2-9.43,3.74-13.62,6.35
		c-1.41,0.98-2.77,2.02-4.13,3.06c-7.06,2.92-14.8,2.71-22.29,2.54c-5.82,0.1-11.26-2.36-16.02-5.5c-3.92-2.22-7.34-5.8-11.94-6.45
		c-6.91,1.23-11.47,7.37-17.91,9.74c-7.34,2.74-15.33,2.38-23.02,2.06c-7.12-0.44-12.54-5.54-18.2-9.28
		c-2.56-1.74-5.66-3.39-8.86-2.55c-6.5,2.1-10.59,8.41-17.1,10.48c-6.84,2.04-14.16,1.91-21.1,0.48c-1.81-0.51-3.28,0.83-4.81,1.54
		c-0.03-7.34-0.01-14.69-0.03-22.03c5.01,3.28,11.19,3.55,16.98,3.17C225.02,252.74,231.36,251.96,236.57,248.57z"/>
	<path fill="#00AAAA" d="M231.38,278.39c5.96-2.02,10.44-6.67,15.57-10.12c7.4,5.01,14.68,11.43,24.02,12.05
		c10.01,0.48,20.56,0.74,29.83-3.65c4.36-1.98,7.76-5.58,12.16-7.47c5.6,2.96,10.52,7.25,16.61,9.31c6.56,2.55,13.7,2.03,20.59,2
		c-6.38,3.4-13.72,3.83-20.69,5.1c-7.7,1.28-14.99,4.14-22.37,6.55c-6.84,1.84-13.02,5.86-20.2,6.41
		c-5.58,0.46-11.22,0.48-16.79-0.11c-8.92-1.31-14.35-10.29-23.09-11.83c-7.77,0.79-12.12,8.86-19.45,10.89
		c-6.7,1.78-13.81,1.72-20.58,0.36c-2.21-0.91-3.72,1.1-5.31,2.24c0.39-7.62,0.02-15.25,0.27-22.87c2.4,1.63,5.1,2.87,8.04,3.06
		C217.14,280.85,224.5,280.62,231.38,278.39z"/>
	<path fill="#00AAAA" d="M376.65,269.59c4.21-1.44,6.97,2.67,10.12,4.66c4.87,3.97,11.26,5,17.27,6c2.37,0.54,4.72-0.13,7-0.78
		c-0.53,6.75-0.62,13.55-0.19,20.3c-5.13-1.23-10.49-1.53-15.44-3.43c-6.46-3.05-11.06-10.46-18.98-9.81
		C376.55,280.89,376.98,275.24,376.65,269.59z"/>
	<path fill="#00AAAA" d="M236.99,302.92c3.44-2.16,6.25-5.28,10-6.92c5.22,2.59,9.46,6.87,14.86,9.19
		c6.16,3.07,13.21,2.57,19.88,2.57c-3.12,0.95-6.41,0.76-9.62,0.69c2.62,0.1,5.24,0.21,7.86,0.34c-4.68,5.42-9.61,10.68-13.27,16.87
		l-0.27-0.7c-5.62-2.97-10.46-7.2-16.06-10.18c-5.8-2.46-10.77,2.29-15,5.55c-7.47,6.62-18.4,6.77-27.71,5.05
		c-2.07-0.64-3.91,0.37-5.65,1.36c-0.14-7.58,0.3-15.18-0.3-22.75c3.67,3.9,9.32,3.8,14.26,3.81
		C223.19,307.78,230.84,307.03,236.99,302.92z"/>
	<path fill="#00AAAA" d="M376.62,297.42c1.16-0.38,2.46-1.67,3.66-0.66c4.29,2.69,7.82,6.65,12.74,8.28
		c5.7,1.85,11.76,3.15,17.78,2.33c-0.37,6.76-0.41,13.58,0.23,20.33c-1.3-0.58-2.64-1.08-3.99-1.49c-1.06-0.35-2.11-0.69-3.16-1.03
		c0.51-5.03,0.65-10.95-3.49-14.61c-4.05-3.9-10.52-3.37-14.67,0.09c-2.25-1.06-5.02-1.69-6.48-3.89
		C377.53,303.96,377.1,300.61,376.62,297.42z"/>
	<g>
		<path fill="#00AAAA" d="M230.89,333.19c6.26-1.75,10.49-7.05,16.1-9.97c5.31,2.97,9.97,7.02,15.46,9.74
			c-2.17,4.2-4.06,8.53-6.08,12.81c-3.49-2.36-7.45-5.53-11.94-4.07c-6.13,2.37-10.19,8.23-16.46,10.32c-6.78,2-14.03,2-20.92,0.54
			c-2.08-0.76-3.7,0.92-5.36,1.85c0.06-7.46-0.08-14.92,0.24-22.38c2.45,1.46,5.14,2.83,8.09,2.3
			C216.97,333.6,224.17,335.81,230.89,333.19z M208.68,335.45c4.73,0.98,9.64,0.89,14.38,0.01
			C218.34,334.59,213.4,334.6,208.68,335.45z"/>
	</g>
	<path fill="#00AAAA" d="M390.41,339.06c0.78-2.67,3.41-4.17,5.5-5.74c4.77,1.09,9.67,1.94,14.57,1.27
		c-0.21,6.61-0.17,13.22-0.08,19.82c-6.5-1.75-13.83-1.59-19.3-6.05C390.73,345.28,390.01,342.17,390.41,339.06z"/>
	<path fill="#00AAAA" d="M230.45,360.63c6.4-1.84,11.12-6.79,16.51-10.42c1.84,1.29,3.68,2.59,5.52,3.9
		c-2.09,4.7-4.11,9.44-6.11,14.18c-6.38,1.95-10.74,7.3-16.52,10.31c-7.56,3.08-16.04,2.45-23.92,1.13
		c-1.76-0.31-2.91,1.5-4.32,2.25c-0.24-7.72-0.16-15.46-0.05-23.18c2.2,1.61,4.6,3.07,7.39,3.31
		C216.1,362.98,223.49,362.59,230.45,360.63z"/>
	<path fill="#00AAAA" d="M391.44,359.29c6.34,1.45,13.02,4.43,19.53,2.2c-0.62,6.7-0.69,13.47-0.13,20.17
		c-4.61-0.97-9.34-1.46-13.86-2.81c-3.43-1.03-6.12-3.52-8.94-5.59C389.83,368.79,390.89,364.06,391.44,359.29z"/>
	<path fill="#00AAAA" d="M208.9,389.4c11.11,1.12,23.37,0.24,32.2-7.37c-2.55,7.05-4.99,14.16-7.1,21.36
		c-7.77,5.65-18.28,5.71-27.32,3.67c-2.05-0.69-3.53,1.3-5.14,2.18c-0.07-7.71-0.17-15.42,0.06-23.13
		C203.77,387.7,206.14,389.19,208.9,389.4z"/>
	<path fill="#00AAAA" d="M363.64,404.95c6.46-8.12,14.94-14.54,20.27-23.56c6.05,5.53,14.19,7.64,22.17,8.28
		c1.74,0.21,3.38-0.49,4.92-1.2c-0.84,6.99-0.82,14.1-0.02,21.1c-5.98-2.75-13.33-1.57-18.7-5.83c-4.45-2.81-8.31-8-14.03-7.75
		C372.65,397.55,368.7,402.28,363.64,404.95z"/>
	<path fill="#00AAAA" d="M359.2,416.27c7.66-1.57,13.62-6.69,19.9-10.93c4.82,2.58,8.46,7.1,13.74,8.91
		c5.61,1.87,11.56,3.08,17.49,2.41c-0.23,6.44-0.11,12.89-0.17,19.34c-4.6-0.78-9.29-1.22-13.73-2.7c-5.61-2.12-9.35-7.32-14.87-9.6
		c-3.91-1.43-7.49,1.21-10.43,3.45c-4.31,3.47-9.01,6.58-14.47,7.87C356.92,428.71,357.38,422.35,359.2,416.27z"/>
	<g>
		<path fill="#00AAAA" d="M201.81,413.6c2.06,1.68,4.52,2.9,7.21,3.05c7.16,0.62,14.42,0.31,21.46-1.18
			c-1.66,6.24-3.14,12.52-4.48,18.83c-1.05,0.23-2.09,0.45-3.13,0.67c-5.24,1.08-10.61,0.57-15.82-0.45
			c-1.96-0.67-3.57,0.78-5.2,1.6C201.84,428.62,202,421.11,201.81,413.6z M208.93,417.51c4.65,0.88,9.42,0.76,14.09,0.1
			C218.36,416.84,213.6,416.73,208.93,417.51z"/>
	</g>
	<path fill="#00AAAA" d="M356.76,443.98c8.63-1.12,15.76-6.35,22.37-11.62c5.04,3.57,9.59,8.27,15.74,9.86
		c4.97,1.36,10.11,2.32,15.28,2.09c0.05,6.4,0.01,12.81-0.01,19.21c-4.89-1.11-9.97-1.49-14.69-3.28
		c-5.24-2.45-8.94-7.43-14.43-9.41c-3.66-1.16-6.91,1.53-9.7,3.5c-3.95,3.11-8.12,6.04-12.95,7.61
		C357.61,455.98,357.02,449.99,356.76,443.98z"/>
	<path fill="#00AAAA" d="M201.84,441.1c6.44,4.66,14.81,3.25,22.23,3.03c-0.95,5.25-1.72,10.54-2.4,15.83
		c-0.08,0.66-0.25,1.98-0.34,2.64c-4.82,0.34-9.67,0.16-14.41-0.82c-2.07-0.81-3.52,0.99-5.09,1.99
		C201.94,456.21,201.87,448.66,201.84,441.1z"/>
	<path fill="#00AAAA" d="M370.19,466.21c3.06-1.93,5.72-4.47,8.94-6.15c4.89,2.49,8.49,7.12,13.82,8.84
		c5.51,1.75,11.32,3.13,17.14,2.5c-0.37,6.27,0.18,12.56-0.2,18.83l-1.11,0.36c-4.17-0.97-8.48-1.33-12.54-2.73
		c-6.32-2.32-10.32-9.31-17.29-9.99c-6.23,1.19-10.44,6.63-15.86,9.55c-1.31-5.49-2.45-11.01-3.39-16.56
		C363.32,469.63,366.99,468.36,370.19,466.21z"/>
	<path fill="#00AAAA" d="M201.83,468.24c5.2,4.41,12.37,3.35,18.66,3.4c-0.51,6.05-0.74,12.12-0.92,18.19
		c-3.43,0-6.85-0.19-10.26-0.55c-2.72-0.73-5.33-0.2-7.46,1.59C201.87,483.32,201.93,475.78,201.83,468.24z"/>
	<path fill="#00AAAA" d="M365.49,496.3c4.81-2.68,9.28-5.91,13.64-9.25c4.93,3.37,9.27,7.94,15.16,9.64
		c5.12,1.55,10.49,2.38,15.84,1.99c-0.36,6.08-0.19,12.18-0.25,18.27c-6.45-0.56-13.68-0.38-18.88-4.88
		c-4.18-2.84-8.28-7.99-13.93-6.51c-4.9,1.89-8.47,6.02-13.04,8.52c-6.64,3.89-14.62,3.49-22.04,3.43
		c-4.79-0.01-9.53-1.26-13.73-3.55c-0.59-2.09-1.03-4.22-1.49-6.33c14.1-0.26,28.21-0.09,42.31-0.08
		C367.93,503.78,366.66,500.05,365.49,496.3z"/>
	<path fill="#00AAAA" d="M201.86,495.8c4.98,3.66,11.39,3.01,17.23,3.34c-3.05,0.1-6.1,0.27-9.14,0.43c3.28,0.02,6.56,0,9.84,0.01
		c0.26,5.93,0.61,11.87,1.39,17.76c-4.83,0.46-9.65-0.03-14.39-0.93c-1.9-0.53-3.43,0.91-5.01,1.68
		C202.01,510.66,201.82,503.23,201.86,495.8z"/>
	<path fill="#00AAAA" d="M361.91,524.7c6.57-1.87,11.87-6.37,17.22-10.39c4.22,2.97,8,6.71,12.79,8.78c5.81,2.1,12.07,2.32,18.15,3
		c-0.21,6.42-0.15,12.85-0.11,19.27c-6.3-1.42-13.39-1.34-18.58-5.7c-4.17-2.75-7.93-7.62-13.41-7.05
		c-6.26,1.96-10.45,7.67-16.52,10.09c-8.1,3.23-16.99,1.56-25.46,2.11c-0.34-0.17-1.01-0.49-1.34-0.66
		c-0.89-6.77-3.86-13.03-5.15-19.71c4.04,1.22,8.25,1.97,12.49,2C348.65,526.5,355.46,526.68,361.91,524.7z"/>
	<path fill="#00AAAA" d="M201.69,522.91c5.93,4.52,13.77,3.5,20.73,3.33c-0.08-0.55-0.24-1.66-0.32-2.21
		c0.98,6.46,2.49,12.82,4.03,19.16c-1.04,0.18-2.08,0.37-3.11,0.57c0.59,0.01,1.78,0.02,2.37,0.03c-6.11,1.27-12.4,1.23-18.5-0.06
		c-2.05-0.77-3.51,0.99-5.07,2C201.71,538.12,201.87,530.51,201.69,522.91z"/>
	<path fill="#00AAAA" d="M365.5,550.71c5.05-2.05,8.88-6.1,13.61-8.67c4.66,2.27,8.04,6.56,12.92,8.45
		c5.67,2.14,11.77,3.17,17.83,3.07c-0.1,6.36-0.06,12.73-0.05,19.1c-6.34-1.41-13.48-1.41-18.67-5.85
		c-3.8-2.63-7.23-6.61-12.08-7.06c-5.57,0.84-9.3,5.65-14,8.33c-5.04,3.47-11.31,3.81-17.2,4.29c-2.98-6.16-5.85-12.37-8.52-18.67
		C348.09,553.59,357.29,554.43,365.5,550.71z"/>
	<path fill="#00AAAA" d="M201.8,550.19c2.31,1.72,4.96,3.03,7.89,3.22c6.86,0.56,13.91,0.42,20.54-1.65
		c11.63,1.06,23.33,0.23,34.99,0.55c7.19,1.87,14.62,0.06,21.92,0.2c2.95,5.7,5.82,11.45,8.58,17.26
		c-4.47,1.32-9.08,2.22-13.75,2.14c-6.1-0.12-12.76,0.78-18.19-2.64c-5.73-2.93-10.22-8.5-16.81-9.52
		c-7.62,0.9-11.93,8.64-19.07,10.79c-7.22,1.96-15.02,2.44-22.19-0.03c-1.28,0.77-2.55,1.55-3.81,2.35
		C202.29,565.3,201.65,557.75,201.8,550.19z"/>
	<g>
		<path fill="#00AAAA" d="M235.22,577.13c4.19-2.2,7.37-5.92,11.63-8.01c4.88,2.18,8.68,6.19,13.52,8.5
			c6.85,3.95,15.03,3.22,22.62,3.23c5.6,0,11.19-0.97,16.35-3.16c1.94,4.44,3.72,8.96,5.38,13.52c-3.39,2.44-6.75,5.13-10.81,6.35
			c-7.39,2.26-15.26,2.28-22.88,1.54c-8.41-1.07-13.95-8.28-21.42-11.46c-6.12-1.96-10.8,3.48-15.3,6.65
			c-4.76,4.08-11.22,4.93-17.25,5.19c-4.95,0.22-9.76-1.66-14.71-0.87c-0.06-0.72-0.17-2.15-0.23-2.87
			c-0.2-2.91-0.18-5.82-0.21-8.72c-0.03-3.01-0.03-6.01-0.05-9.01c3.13,1.65,6.56,2.82,10.14,2.81
			C219.83,580.99,228.16,581,235.22,577.13z M209.83,581.59c4.06,0.77,8.22,0.69,12.28-0.05
			C218.03,580.97,213.89,580.82,209.83,581.59z M270.83,581.61c5.37,0.76,10.83,0.7,16.2-0.03
			C281.66,580.85,276.19,580.76,270.83,581.61z"/>
	</g>
	<path fill="#00AAAA" d="M370.41,575.31c3.11-1.8,5.6-4.78,9.03-5.96c4.52,2.69,8.15,6.83,13.16,8.71
		c5.52,1.92,11.38,2.88,17.23,2.7c-0.16,6.36-0.13,12.73-0.09,19.09c-6.4-1.19-13.55-1.34-18.73-5.83
		c-4.28-2.96-8.69-8.37-14.5-6.31c-5.49,2.72-9.85,7.25-15.37,9.96c-3.01-5.48-5.92-11.01-8.77-16.57
		C358.67,580.34,365.14,579.07,370.41,575.31z"/>
	<path fill="#00AAAA" d="M235.97,604.02c3.89-2.26,6.98-5.69,11.02-7.68c7.17,4.1,13.46,10.46,22.05,11.47
		c13.13,1.57,27.76,0.88,38.63-7.55c1.42,4.81,2.48,9.72,3.12,14.7c-4.71,2.44-8.82,5.84-13.42,8.45c-7.8,3.93-16.82,3.4-25.28,3.1
		c-6.9-0.42-12.24-5.25-17.7-8.94c-2.72-1.85-5.97-3.8-9.39-2.9c-5.96,2-9.91,7.38-15.56,9.95c-5.61,2.28-11.8,2.13-17.74,1.85
		c-1.95-0.24-3.76,0.57-5.49,1.35c-1.39-7.2-2.74-14.43-3.21-21.75c5.7,2.59,12.13,2.63,18.26,2.07
		C226.32,607.55,231.57,606.76,235.97,604.02z"/>
	<path fill="#00AAAA" d="M365.52,605.59c4.78-2.74,9.28-5.93,13.61-9.33c4.19,2.98,8,6.62,12.72,8.79
		c5.75,2.21,11.92,3.09,18.05,3.37c-0.1,6.16-0.11,12.32-0.01,18.48c-4.5-0.44-9.05-0.89-13.35-2.36
		c-5.85-2.14-9.65-7.71-15.51-9.83c-3.36-1.04-6.35,1.29-9.1,2.84C369.82,613.54,367.7,609.55,365.52,605.59z"/>
	<path fill="#00AAAA" d="M232.39,633.11c5.48-2.23,9.74-6.48,14.56-9.77c7.18,4.86,14.19,11.07,23.18,11.98
		c8.95,0.57,18.18,0.81,26.81-2.01c5.3-1.6,9.63-5.19,14.21-8.15c-0.43,7.6-3.87,14.51-7.34,21.12c-8.62,8.48-21.56,8.06-32.75,7.37
		c-8.4-0.85-13.89-8.14-21.3-11.31c-2.47-1.17-5.32-0.56-7.53,0.86c-5.13,2.81-9,7.73-14.73,9.42c-4.47,1.44-9.89-0.07-13.47,3.62
		c-2.65-7.51-4.59-15.22-6.79-22.86c1.02,1.05,2.19,2.07,3.78,2.03C218.18,635.98,225.58,635.57,232.39,633.11z"/>
	<path fill="#00AAAA" d="M375.91,625.64c1.43-0.49,2.97-2.23,4.46-1c4.31,2.65,7.85,6.64,12.79,8.23
		c5.32,1.75,10.92,2.74,16.53,2.71c-0.09,6.32-0.06,12.65-0.02,18.98c-6.03-1.37-12.82-1.29-17.87-5.33
		c-3.29-2.5-6.53-5.06-10.07-7.19C380.15,636.45,378.26,630.94,375.91,625.64z"/>
	<path fill="#00AAAA" d="M235.18,659.12c4.25-2.22,7.42-6.09,11.82-8.05c3.96,1.83,7.15,4.94,10.93,7.11
		c3.8,2.47,8.18,3.8,12.6,4.68c5.22,1.61,10.8,1.74,16.01,0.03c3.27-0.62,6.53-1.26,9.81-1.81c-3.25,6.62-6.54,13.24-9.2,20.13
		c-6.07,0.09-12.24,0.73-18.22-0.59c-7.57-1.84-12.66-8.54-19.82-11.16c-6.66-1.77-10.87,4.82-16.1,7.5
		c-2.92,1.78-8.11,2.24-7.54,6.81c-2.65-6.91-6.59-13.33-8.56-20.48l-0.03-0.6C223.09,662.5,229.62,662.27,235.18,659.12z"/>
	<path fill="#00AAAA" d="M384.89,655.25c6.75,5.94,16.08,7.48,24.78,7.54c-0.2,6.35-0.22,12.71-0.12,19.07
		c-4.08-0.76-8.22-1.23-12.21-2.4c-3.62-1.05-6.46-3.65-9.43-5.84C387.22,667.45,386.16,661.33,384.89,655.25z"/>
	<path fill="#00AAAA" d="M326.74,677.02c3.39-4.55,6.13-9.55,8.75-14.58c6.08,0.66,12.21,0.69,18.31,0.25
		c2.69,5.52,5.3,11.08,8.07,16.56c-7.33,2.54-15.18,2.4-22.81,1.98C334.63,680.96,330.59,679.04,326.74,677.02z"/>
	<path fill="#00AAAA" d="M227.91,687.7c7.59,0.02,13.31-5.49,19.03-9.69c5.22,3.47,10.13,7.52,15.92,10.04
		c6.83,2.83,14.39,2.28,21.62,2.28c-0.19,3.32-0.27,7.31,2.56,9.62c3.47,2.92,8.53,2.1,12.4,0.46c8.32-3.75,15.27-9.91,21.5-16.46
		c5.22,3.13,10.93,5.67,17.08,6.15c9.37,0.67,19.06,0.57,27.96-2.83c2.14,3.99,4.21,8.03,6.49,11.94
		c-4.66,3.65-9.46,7.66-15.47,8.72c-6.12,1.1-12.42,0.82-18.6,0.53c-8.5-0.75-14.93-6.83-22.04-10.82
		c-4.86-2.77-9.57,1.7-13.49,4.19c-5.83,4.79-13.4,6.83-20.86,6.82c-5.82-0.04-12.07,0.57-17.36-2.35
		c-5.52-2.69-9.8-7.52-15.63-9.58c-5.25-1.65-9.25,3.27-11.75,7.17C233.94,698.61,230.63,693.31,227.91,687.7z"/>
	<path fill="#00AAAA" d="M388.65,685.7c6.56,2.91,13.67,4.48,20.84,4.62c-0.04,6.21-0.02,12.41,0.01,18.62
		c-4.64-0.67-9.38-1.08-13.78-2.76c-3.71-1.69-6.73-4.51-9.9-6.99C387.48,694.88,388.41,690.3,388.65,685.7z"/>
	<path fill="#00AAAA" d="M247.58,705.9c7.06,4.46,13.73,10.49,22.41,11.34c10.09,0.75,20.69,0.88,30.15-3.22
		c4.66-1.95,8.2-5.81,12.83-7.78c3.67,1.78,6.81,4.45,10.41,6.39c5.3,3.11,11.38,4.89,17.54,4.94c7.68,0.09,15.63,0.44,22.95-2.31
		c4.73-1.67,8.65-4.89,12.66-7.79c1.14-0.66,2.48-2.07,3.8-0.93c4.34,2.7,7.92,6.7,12.9,8.31c5.23,1.7,10.71,2.58,16.2,2.75
		c-0.16,6.11-0.07,12.22-0.09,18.33c-6.21-0.66-13.06-0.93-18.08-5.14c-4.09-2.77-7.87-7.49-13.26-7.03
		c-5.47,1.72-9.31,6.35-14.28,9.01c-5.33,3.15-11.73,3.06-17.71,3.3c-5.02-0.07-10.26-0.11-14.9-2.26
		c-4.91-2.16-9.12-5.53-13.68-8.29c-2.21-1.49-5.14-1.78-7.56-0.66c-5.58,2.48-9.86,7.27-15.71,9.22c-7.14,2.3-14.73,1.81-22.1,2.4
		c-2.53,0.27-3,3.39-3.18,5.39c-1.65-1.23-3.26-2.51-4.7-3.96c-8.48-9.07-16.66-18.51-23.42-28.96
		C243.3,708.61,245.56,707.43,247.58,705.9z"/>
	<g>
		<path fill="#00AAAA" d="M368.41,740.43c3.78-2.09,6.89-5.18,10.68-7.24c4.47,2.19,7.74,6.3,12.38,8.26
			c5.59,2.35,11.72,2.88,17.71,3.41c-0.1,6.12,0.05,12.25-0.17,18.38l-0.78,0.33c-5.93-0.97-12.42-1.51-17.17-5.62
			c-4.31-3.01-8.73-8.38-14.6-6.34c-5.94,2.77-10.29,8.27-16.68,10.21c-6.38,1.91-13.16,1.73-19.74,1.45
			c-7.43-0.28-13.79-4.54-19.72-8.59c-2.73-1.81-5.9-4.22-9.36-2.94c-4.41,1.63-8.4,4.31-12.11,7.17c-2.5,1.7-1.93,5.34,0.35,6.96
			c1.42,0.69,3.16,1.2,4.58,0.21c3.14-1.69,6.02-3.81,9.07-5.63c4.7,3.23,9.43,6.51,14.64,8.88c6.72,3.02,14.27,3.2,21.52,3
			c6.24-0.25,12.7-0.99,18.3-3.98c4.24-2.27,7.96-5.34,11.82-8.19c4,2.83,7.64,6.25,12.05,8.47c5.66,2.5,11.9,3.32,18.02,3.8
			c-0.15,6.14-0.18,12.28,0.04,18.42c-5.9-0.83-12.35-1.16-17.26-4.91c-3.64-2.5-6.78-5.92-11.04-7.36c-4-0.88-7.63,1.62-10.97,3.43
			c-3.02,1.94-6.5,3.4-8.9,6.14c-0.47,1.59-0.42,3.29-0.52,4.95c-30.36-7.17-58.87-21.9-82.47-42.25c-2.01-1.74-3.99-3.53-6.08-5.16
			c4.63-0.06,9.26-0.23,13.89-0.19c-4.81-0.18-9.71,0.44-14.43-0.78c9,0.3,18.32,0.54,26.91-2.63c5.36-2.04,9.73-5.88,14.56-8.87
			c6.84,4.56,13.77,9.73,22.09,11.08c5.27,0.78,10.63,0.47,15.94,0.47C357.01,744.74,363.16,743.52,368.41,740.43z M337.77,745.5
			c5.37,0.91,10.85,0.75,16.24,0.06C348.62,744.96,343.17,745.04,337.77,745.5z"/>
	</g>
	<path fill="#00AAAA" d="M367.12,794.45c3.79-2.64,7.79-4.98,11.87-7.15c5.88,4.57,11.73,9.75,19.35,11.07
		C387.85,798.46,377.32,796.81,367.12,794.45z"/>
</g>
<g>
	<path fill="#A2C4E9" d="M410.69,217.81c71.33,0.04,142.66-0.05,214,0.05c-0.03,122.71,0.01,245.41-0.02,368.12
		c-0.52,11.11-1.32,22.22-2.23,33.31l-0.11,0.02c-0.29,0.07-0.89,0.22-1.18,0.29c-5.12,2.3-9.94,6.23-15.89,5.61
		c-0.23-44.9,0.27-89.8,0.09-134.7c-17.64-0.02-35.29,0.01-52.93-0.02c-0.25,39.49,0.49,78.97,0.2,118.46
		c-6.73-0.14-13.46,0.51-20.13,1.44c0.02-14.66-0.01-29.31,0.02-43.96c-30.86-0.07-61.72,0.01-92.58-0.04
		c-0.1,22.7-0.02,45.4-0.04,68.1c-2.31,0.03-4.61,0.06-6.91,0.09c-4.02-24.25-2.43-49.1,1.66-73.23
		c1.97-10.36,3.85-20.81,7.47-30.74c2.79,5.43,5.32,11.19,9.86,15.43c9.67,9.49,23.79,12.83,36.97,12.67
		c13.76,0.59,27.82-4.42,37.69-14.11c9.37-9.03,15.06-21.28,18.07-33.8c2.29-13.6-0.74-27.68-6.31-40.13
		c-2.26-5.41-6.25-9.82-8.85-15.02c-1.02-1.82-1.37-5.56,1.44-5.76c7.57-1.39,15.31-0.01,22.95-0.35
		c-5.96-0.1-11.91-0.34-17.84-0.98c13.82,0.05,27.96,0.94,41.42-2.8c9.06-2.36,16.63-8.85,21.36-16.8
		c7.21-12.21,8.99-27.36,5.58-41.05c-3.65-14.39-14.29-26.12-26.92-33.45c-4.4-2.93-9.69-4.68-13.39-8.56
		c-3.1-6.21-1.32-13.33-1.05-19.93c0.66-10.84-4.02-21.81-12.26-28.86c-5.87-4.84-12.98-9-20.83-8.85
		c-6.68-0.41-13.04,1.83-19.42,3.41c-2.59-8.33-1.05-17.16-2.4-25.67c-0.85-7.25-4.33-13.84-8.27-19.86
		c-5.88-8.91-13.99-16.71-24.08-20.58c-13.7-5.45-29.67-5.4-43,1.13c-8.8,4.17-12.71,14.6-22,18.06
		C410.52,235.77,410.7,226.79,410.69,217.81z"/>
	<path fill="#A2C4E9" d="M561.1,546.51c4.72-0.02,9.45-0.02,14.18,0c-0.08,21.95,0.15,43.91-0.12,65.86
		c-4.43-1.92-9.25-2.75-14.05-2.97C561.11,588.44,561.13,567.48,561.1,546.51z"/>
	<path fill="#A2C4E9" d="M584.1,546.51c4.23-0.03,8.47-0.03,12.71,0.03c-0.09,25.2,0.02,50.39-0.06,75.59
		c-4.03-2.46-7.91-5.39-12.59-6.48C584.04,592.6,584.15,569.56,584.1,546.51z"/>
</g>
<g>
	<path fill="#FFEF80" d="M432.83,226.69c13.33-6.53,29.3-6.58,43-1.13c10.09,3.87,18.2,11.67,24.08,20.58
		c3.94,6.02,7.42,12.61,8.27,19.86c1.35,8.51-0.19,17.34,2.4,25.67c6.38-1.58,12.74-3.82,19.42-3.41
		c7.85-0.15,14.96,4.01,20.83,8.85c8.24,7.05,12.92,18.02,12.26,28.86c-0.27,6.6-2.05,13.72,1.05,19.93
		c3.7,3.88,8.99,5.63,13.39,8.56c12.63,7.33,23.27,19.06,26.92,33.45c3.41,13.69,1.63,28.84-5.58,41.05
		c-4.73,7.95-12.3,14.44-21.36,16.8c-13.46,3.74-27.6,2.85-41.42,2.8c5.93,0.64,11.88,0.88,17.84,0.98
		c-7.64,0.34-15.38-1.04-22.95,0.35c-2.81,0.2-2.46,3.94-1.44,5.76c2.6,5.2,6.59,9.61,8.85,15.02c5.57,12.45,8.6,26.53,6.31,40.13
		c-3.01,12.52-8.7,24.77-18.07,33.8c-9.87,9.69-23.93,14.7-37.69,14.11c-13.18,0.16-27.3-3.18-36.97-12.67
		c-4.54-4.24-7.07-10-9.86-15.43c-3.62,9.93-5.5,20.38-7.47,30.74c-4.09,24.13-5.68,48.98-1.66,73.23c2.3-0.03,4.6-0.06,6.91-0.09
		c0,3.05-0.02,6.11-0.06,9.18c-1.5-0.06-3.02-0.12-4.5-0.14c1.89,6.77,5.46,12.92,9.58,18.57c5.36,7.25,12.6,12.78,19.63,18.31
		c3.97,3.2,9.11,4.67,12.79,8.24c6.14,7.12,4.67,20.12-3.99,24.6c-6.75,3.18-14.66-0.3-21.46,2.66c-1.6,2.56-1.19,6.16,0.93,8.32
		c2.97,3.03,6.93,4.95,9.62,8.29c4.99,5.97,7.44,14.76,4.21,22.12c-2.56,6.02-9.14,9.85-15.63,9.32
		c-8.04-0.2-14.87-5.16-20.52-10.44c-5.69-5.56-13.95-6.66-21.31-8.66c-5.99-0.53-12.12-1.06-17.71-3.41
		c-4.64-1.96-7.91-6.07-12.38-8.26c-3.79,2.06-6.9,5.15-10.68,7.24c-5.25,3.09-11.4,4.31-17.45,4.34c-5.31,0-10.67,0.31-15.94-0.47
		c-8.32-1.35-15.25-6.52-22.09-11.08c-4.83,2.99-9.2,6.83-14.56,8.87c-8.59,3.17-17.91,2.93-26.91,2.63
		c-0.42-0.47-1.25-1.41-1.67-1.87c-2.72,0.03-5.15-2.36-5.61-4.94c1.44,1.45,3.05,2.73,4.7,3.96c0.18-2,0.65-5.12,3.18-5.39
		c7.37-0.59,14.96-0.1,22.1-2.4c5.85-1.95,10.13-6.74,15.71-9.22c2.42-1.12,5.35-0.83,7.56,0.66c4.56,2.76,8.77,6.13,13.68,8.29
		c4.64,2.15,9.88,2.19,14.9,2.26c5.98-0.24,12.38-0.15,17.71-3.3c4.97-2.66,8.81-7.29,14.28-9.01c5.39-0.46,9.17,4.26,13.26,7.03
		c5.02,4.21,11.87,4.48,18.08,5.14c0.02-6.11-0.07-12.22,0.09-18.33c-5.49-0.17-10.97-1.05-16.2-2.75
		c-4.98-1.61-8.56-5.61-12.9-8.31c-1.32-1.14-2.66,0.27-3.8,0.93c-4.01,2.9-7.93,6.12-12.66,7.79c-7.32,2.75-15.27,2.4-22.95,2.31
		c-6.16-0.05-12.24-1.83-17.54-4.94c-3.6-1.94-6.74-4.61-10.41-6.39c-4.63,1.97-8.17,5.83-12.83,7.78
		c-9.46,4.1-20.06,3.97-30.15,3.22c-8.68-0.85-15.35-6.88-22.41-11.34c-2.02,1.53-4.28,2.71-6.82,3.05
		c-1.18-1.68-2.38-3.35-3.49-5.06c2.5-3.9,6.5-8.82,11.75-7.17c5.83,2.06,10.11,6.89,15.63,9.58c5.29,2.92,11.54,2.31,17.36,2.35
		c7.46,0.01,15.03-2.03,20.86-6.82c3.92-2.49,8.63-6.96,13.49-4.19c7.11,3.99,13.54,10.07,22.04,10.82
		c6.18,0.29,12.48,0.57,18.6-0.53c6.01-1.06,10.81-5.07,15.47-8.72c1.77,2.33,4.32,4.69,7.49,4.28c2.61-0.22,4.36-2.39,5.86-4.3
		c3.17,2.48,6.19,5.3,9.9,6.99c4.4,1.68,9.14,2.09,13.78,2.76c-0.03-6.21-0.05-12.41-0.01-18.62c-7.17-0.14-14.28-1.71-20.84-4.62
		c0.02-4.04-0.35-8.07-0.74-12.08c2.97,2.19,5.81,4.79,9.43,5.84c3.99,1.17,8.13,1.64,12.21,2.4c-0.1-6.36-0.08-12.72,0.12-19.07
		c-8.7-0.06-18.03-1.6-24.78-7.54c-0.92-4.43-1.97-8.84-3.16-13.21c3.54,2.13,6.78,4.69,10.07,7.19c5.05,4.04,11.84,3.96,17.87,5.33
		c-0.04-6.33-0.07-12.66,0.02-18.98c-5.61,0.03-11.21-0.96-16.53-2.71c-4.94-1.59-8.48-5.58-12.79-8.23c-1.49-1.23-3.03,0.51-4.46,1
		c-1.25-2.74-2.6-5.43-3.98-8.09c2.75-1.55,5.74-3.88,9.1-2.84c5.86,2.12,9.66,7.69,15.51,9.83c4.3,1.47,8.85,1.92,13.35,2.36
		c0.26,29.4-0.38,58.79-0.01,88.18c-0.5,6.86-0.25,13.75-0.34,20.63c5.93,1.44,11.83,3.04,17.59,5.06
		c7.79,2.65,12.16,10.65,19.9,13.4c3.39,1.42,7.97,1.51,10.47-1.6c2.94-3.61,1.66-8.83-0.6-12.45c-2.84-4.83-8.72-6.6-11.82-11.2
		c-4.32-5.7-4.21-14.7,0.85-19.88c6.09-4.38,14.07-2.95,21.1-3.33c6.15,0.02,7.03-10.36,1.65-12.37
		c-8.43-4.13-15.54-10.36-22.5-16.55c-7.05-6.5-12.66-14.51-16.68-23.21c-3.99-8.97-5.74-18.76-6.79-28.47
		c-2.12-22.04-0.5-44.31,3.3-66.08c2.35-12.34,4.67-24.81,9.66-36.41c-8.55,0.99-17.12,1.94-25.6,3.47c-6.08-0.68-12.34-0.9-18.15-3
		c-4.79-2.07-8.57-5.81-12.79-8.78c-5.35,4.02-10.65,8.52-17.22,10.39c-6.45,1.98-13.26,1.8-19.92,1.74
		c-4.24-0.03-8.45-0.78-12.49-2l-0.07-0.03c-0.69-3.6-1.31-7.2-1.89-10.81l0.72,0.36c4.2,2.29,8.94,3.54,13.73,3.55
		c7.42,0.06,15.4,0.46,22.04-3.43c4.57-2.5,8.14-6.63,13.04-8.52c5.65-1.48,9.75,3.67,13.93,6.51c5.2,4.5,12.43,4.32,18.88,4.88
		c0.06-6.09-0.11-12.19,0.25-18.27c-5.35,0.39-10.72-0.44-15.84-1.99c-5.89-1.7-10.23-6.27-15.16-9.64
		c-4.36,3.34-8.83,6.57-13.64,9.25c-0.91-2.94-1.7-5.9-2.4-8.88c5.42-2.92,9.63-8.36,15.86-9.55c6.97,0.68,10.97,7.67,17.29,9.99
		c4.06,1.4,8.37,1.76,12.54,2.73c0.82,0.44,1.63,0.9,2.44,1.38c-0.7,8.26-0.97,16.55-0.76,24.86c8.16-1.13,16.2-3.56,24.49-3.42
		c4.67-0.2,8.26,3.27,11.16,6.49c4.78,5.34,5.92,12.89,10.71,18.22c5.27,6.22,13.21,9.41,21.07,10.78c12,2.07,25.12,1.3,35.64-5.35
		c11.89-7.32,18.81-20.46,22.18-33.64c2.48-11.9-0.61-24.24-5.3-35.21c-2.73-6.94-9.01-12.12-10.37-19.64
		c-1.09-5.2,1.58-11.28,6.73-13.17c5.52-1.97,11.48-1.55,17.25-1.82c10.67-0.54,21.63,0.05,31.97-3.17
		c7.03-2.08,12.61-7.56,16-13.93c5.62-10.59,6.77-23.48,3.22-34.91c-3.75-11.68-13.02-20.76-23.51-26.67
		c-5.3-3.31-11.67-5.58-15.39-10.87c-3.49-6.91-3.19-14.99-2.26-22.48c0.92-7.68-1.2-15.82-6.51-21.57
		c-4.98-5.39-11.92-9.82-19.53-9.37c-6.17-0.01-11.83,3.38-18.01,3.02c-4.4-0.35-7.75-4.08-8.69-8.21
		c-2.65-10.77,0.51-22.55-4.37-32.85c-5.41-11.46-14.39-22.27-26.92-26.04c-11.03-3.79-23.59-3.32-34.01,2.07
		c-4.67,2.86-7.51,7.74-11.56,11.32c-3.81,3.75-8.65,6.26-13.77,7.7c0.18,7.01-0.58,14.05,0.39,21.02c0.12,1.45,0.11,2.89-0.03,4.34
		c-2.28,0.65-4.63,1.32-7,0.78c-6.01-1-12.4-2.03-17.27-6c-3.15-1.99-5.91-6.1-10.12-4.66c-0.86-4.38-5.69-5.5-9.26-3.61
		c4.19-2.61,8.15-7.55,13.62-6.35c5.85,2.08,9.63,7.63,15.43,9.79c4.5,1.52,9.27,1.92,13.93,2.7c0.11-6.15,0.19-12.3,0.12-18.45
		c-5.45-0.6-10.93-1.27-16.21-2.83c-5.88-1.7-10.25-6.23-15.15-9.65c-5.88,4.4-11.78,9.38-19.17,10.88
		c-7.52,1.61-15.33,1.61-22.95,0.88c-9.11-0.94-16.75-6.41-24.1-11.41c-5.21,3.31-9.99,7.53-15.98,9.37
		c-7.71,2.42-15.92,2.79-23.94,2.28c-4.92-0.3-9.81-1.57-14.04-4.14c-4.2-2.26-7.7-5.62-11.95-7.77c-3.88,1.8-6.79,5.08-10.43,7.29
		c-5.21,3.39-11.55,4.17-17.61,4.67c-5.79,0.38-11.97,0.11-16.98-3.17c0.01-1.76,0.01-3.52,0-5.27c3.88-3.08,8.64-0.34,12.99-0.4
		c6.67-0.03,13.98-0.66,19.29-5.16c4.47-3.16,9.04-8.47,15.13-6.74c7.59,3.03,13.11,10.46,21.59,11.49
		c7.49,0.81,15.23,0.71,22.51-1.39c6.6-1.82,11.13-7.53,17.5-9.84c2.86-1.04,5.68,0.51,8,2.06c6.12,4.07,12.38,8.79,19.97,9.38
		c6.66,0.36,13.49,0.59,20-1.1c6.06-1.62,10.47-6.34,15.67-9.55c2.23-1.48,5.21-1.83,7.68-0.74c5.61,2.69,9.54,8.28,15.75,9.8
		c4.19,1.02,8.46,1.82,12.77,2.14C420.12,241.29,424.03,230.86,432.83,226.69z"/>
	<path fill="#FFEF80" d="M645.25,247.03c0.07-6.31-0.27-12.63,0.25-18.93c4.67,62.35,9.82,124.66,14.52,187.01
		c-4.83-2.3-9.72-4.49-14.74-6.31C645.22,354.87,645.27,300.95,645.25,247.03z"/>
	<path fill="#FFEF80" d="M675.78,249.06c0.5-7.04,0.69-14.11,1.79-21.08c0.88,25.37,2.7,50.7,3.92,76.05
		c2.06,37.02,4.11,74.04,6.09,111.06c0.53,2.67-1.74,4.41-3.25,6.23c-2.9,3.1-4.97,6.83-7.19,10.43c-3.31-4.01-6.2-8.4-10.09-11.89
		c-1-1.12-2.65-2.15-2.37-3.88C668.32,360.34,672.08,304.7,675.78,249.06z"/>
	<path fill="#FFEF80" d="M117.47,408.74c-0.31-59.9-0.7-119.8-1.05-179.7c3.07,29.28,5,58.67,7.63,88
		c2.65,32.68,5.66,65.33,8.09,98.02C127.33,412.77,122.43,410.68,117.47,408.74z"/>
	<path fill="#FFEF80" d="M147.5,228.93c3.78,62.93,8.49,125.8,12.3,188.72c-4.85,3.89-8.45,8.98-12.19,13.87
		c-3.51-4.88-6.8-9.9-10.93-14.3c2.75-46.37,5.08-92.77,7.72-139.14C145.47,261.7,145.73,245.25,147.5,228.93z"/>
	<path fill="#FFEF80" d="M704.32,270.53c1.1-13.82,2.49-27.61,3.18-41.46c0.38,4.63,0.56,9.28,0.47,13.92
		c-0.42,55.29-0.57,110.59-1.03,165.88c-5.03,1.77-9.87,4.01-14.72,6.21C696.23,366.89,700.27,318.71,704.32,270.53z"/>
	<path fill="#FFEF80" d="M164.47,414.89c4.57-60.34,9.44-120.65,14.11-180.97c0.49,2.98,0.77,6,0.72,9.03
		c-0.16,55.32,0.13,110.63-0.15,165.95C174.12,410.54,169.39,412.96,164.47,414.89z"/>
	<path fill="#FFEF80" d="M227.92,270.08c6.51-2.07,10.6-8.38,17.1-10.48c3.2-0.84,6.3,0.81,8.86,2.55
		c5.66,3.74,11.08,8.84,18.2,9.28c7.69,0.32,15.68,0.68,23.02-2.06c6.44-2.37,11-8.51,17.91-9.74c4.6,0.65,8.02,4.23,11.94,6.45
		c4.76,3.14,10.2,5.6,16.02,5.5c7.49,0.17,15.23,0.38,22.29-2.54c-4.38,3.81-8.38,8.07-13.1,11.47c-6.89,0.03-14.03,0.55-20.59-2
		c-6.09-2.06-11.01-6.35-16.61-9.31c-4.4,1.89-7.8,5.49-12.16,7.47c-9.27,4.39-19.82,4.13-29.83,3.65
		c-9.34-0.62-16.62-7.04-24.02-12.05c-5.13,3.45-9.61,8.1-15.57,10.12c-6.88,2.23-14.24,2.46-21.39,1.92
		c-2.94-0.19-5.64-1.43-8.04-3.06c0.04-1.72,0.06-3.44,0.06-5.15c1.53-0.71,3-2.05,4.81-1.54
		C213.76,271.99,221.08,272.12,227.92,270.08z"/>
	<g>
		<path fill="#FFEF80" d="M227.57,297.52c7.33-2.03,11.68-10.1,19.45-10.89c8.74,1.54,14.17,10.52,23.09,11.83
			c5.57,0.59,11.21,0.57,16.79,0.11c7.18-0.55,13.36-4.57,20.2-6.41c-9.27,3.67-18.1,8.71-25.37,15.6c-6.67,0-13.72,0.5-19.88-2.57
			c-5.4-2.32-9.64-6.6-14.86-9.19c-3.75,1.64-6.56,4.76-10,6.92c-6.15,4.11-13.8,4.86-21.02,4.88c-4.94-0.01-10.59,0.09-14.26-3.81
			c0.04-1.29,0.04-2.58-0.03-3.87c1.59-1.14,3.1-3.15,5.31-2.24C213.76,299.24,220.87,299.3,227.57,297.52z M210.85,299.55
			c3.1,0.61,6.29,0.68,9.4,0.08C217.15,298.88,213.96,298.92,210.85,299.55z"/>
	</g>
	<path fill="#FFEF80" d="M376.62,297.42c-0.28-3.62-0.29-7.26-0.19-10.89c7.92-0.65,12.52,6.76,18.98,9.81
		c4.95,1.9,10.31,2.2,15.44,3.43c0.39,2.53,0.34,5.07-0.05,7.6c-6.02,0.82-12.08-0.48-17.78-2.33c-4.92-1.63-8.45-5.59-12.74-8.28
		C379.08,295.75,377.78,297.04,376.62,297.42z"/>
	<path fill="#FFEF80" d="M235.37,320.33c4.23-3.26,9.2-8.01,15-5.55c5.6,2.979,10.44,7.21,16.06,10.18l0.27,0.7
		c-1.46,2.41-2.93,4.81-4.25,7.3c-5.49-2.72-10.15-6.77-15.46-9.74c-5.61,2.92-9.84,8.22-16.1,9.97
		c-6.72,2.62-13.92,0.41-20.87,1.14c-2.95,0.53-5.64-0.84-8.09-2.3c0.05-1.771,0.08-3.53,0.08-5.29c1.74-0.99,3.58-2,5.65-1.36
		C216.97,327.1,227.9,326.95,235.37,320.33z"/>
	<path fill="#FFEF80" d="M403.52,325.53c1.17,0.21,2.34,0.43,3.52,0.68c1.35,0.41,2.69,0.91,3.99,1.49
		c0.41,5.43-0.86,10.85-0.44,16.3c-0.44,5.85,0.85,11.67,0.38,17.49c-6.51,2.23-13.19-0.75-19.53-2.2
		c0.28-3.64,0.18-7.32-0.34-10.93c5.47,4.46,12.8,4.3,19.3,6.05c-0.09-6.6-0.13-13.21,0.08-19.82c-4.9,0.67-9.8-0.18-14.57-1.27
		C399.07,331.4,401.75,328.78,403.52,325.53z"/>
	<path fill="#FFEF80" d="M244.43,341.7c4.49-1.46,8.45,1.71,11.94,4.07c-1.3,2.77-2.62,5.55-3.89,8.34
		c-1.84-1.31-3.68-2.61-5.52-3.9c-5.39,3.63-10.11,8.58-16.51,10.42c-6.96,1.96-14.35,2.35-21.5,1.48c-2.79-0.24-5.19-1.7-7.39-3.31
		c0.07-1.03,0.11-2.05,0.12-3.07l0.01-1.32c1.66-0.93,3.28-2.61,5.36-1.85c6.89,1.46,14.14,1.46,20.92-0.54
		C234.24,349.93,238.3,344.07,244.43,341.7z"/>
	<path fill="#FFEF80" d="M229.85,378.6c5.78-3.01,10.14-8.36,16.52-10.31c-1.78,4.57-3.54,9.15-5.27,13.74
		c-8.83,7.61-21.09,8.49-32.2,7.37c-2.76-0.21-5.13-1.7-7.3-3.29c0.09-1.38,0.09-2.75,0.01-4.13c1.41-0.75,2.56-2.56,4.32-2.25
		C213.81,381.05,222.29,381.68,229.85,378.6z"/>
	<path fill="#FFEF80" d="M383.91,381.39c1.57-2.6,2.92-5.34,4.13-8.13c2.82,2.07,5.51,4.56,8.94,5.59
		c4.52,1.35,9.25,1.84,13.86,2.81c0.28,2.25,0.61,4.54,0.16,6.81c-1.54,0.71-3.18,1.41-4.92,1.2
		C398.1,389.03,389.96,386.92,383.91,381.39z"/>
	<path fill="#FFEF80" d="M363.64,404.95c5.06-2.67,9.01-7.4,14.61-8.96c5.72-0.25,9.58,4.94,14.03,7.75
		c5.37,4.26,12.72,3.08,18.7,5.83c0.66,3.48-0.4,6.95-0.38,10.44c-0.04,6.67-0.28,13.36,0.53,20c-1.12,9.83-0.52,19.76-0.01,29.59
		c-0.26,0.45-0.77,1.35-1.03,1.8c-5.82,0.63-11.63-0.75-17.14-2.5c-5.33-1.72-8.93-6.35-13.82-8.84c-3.22,1.68-5.88,4.22-8.94,6.15
		c-3.2,2.15-6.87,3.42-10.49,4.65c-0.5-2.97-0.96-5.94-1.33-8.92c4.83-1.57,9-4.5,12.95-7.61c2.79-1.97,6.04-4.66,9.7-3.5
		c5.49,1.98,9.19,6.96,14.43,9.41c4.72,1.79,9.8,2.17,14.69,3.28c0.02-6.4,0.06-12.81,0.01-19.21c-5.17,0.23-10.31-0.73-15.28-2.09
		c-6.15-1.59-10.7-6.29-15.74-9.86c-6.61,5.27-13.74,10.5-22.37,11.62c-0.14-2.99-0.19-5.98-0.1-8.96
		c5.46-1.29,10.16-4.4,14.47-7.87c2.94-2.24,6.52-4.88,10.43-3.45c5.52,2.28,9.26,7.48,14.87,9.6c4.44,1.48,9.13,1.92,13.73,2.7
		c0.06-6.45-0.06-12.9,0.17-19.34c-5.93,0.67-11.88-0.54-17.49-2.41c-5.28-1.81-8.92-6.33-13.74-8.91
		c-6.28,4.24-12.24,9.36-19.9,10.93c0.68-2.39,1.55-4.86,0.75-7.34C361.14,407.56,362.37,406.23,363.64,404.95z"/>
	<path fill="#FFEF80" d="M206.68,407.06c9.04,2.04,19.55,1.98,27.32-3.67c-1.23,4.01-2.4,8.04-3.52,12.08
		c-7.04,1.49-14.3,1.8-21.46,1.18c-2.69-0.15-5.15-1.37-7.21-3.05l-0.08-1.4c-0.05-1-0.11-1.98-0.19-2.96
		C203.15,408.36,204.63,406.37,206.68,407.06z"/>
	<path fill="#FFEF80" d="M116.38,423c9.58,2.38,18.95,7.99,23.62,16.95c4.89,9.22,7.77,19.65,7.33,30.14
		c-10.63-1.12-19.56-8.57-24.94-17.46C117.22,443.72,116.09,433.12,116.38,423z"/>
	<path fill="#FFEF80" d="M157.27,436.31c5.14-6.71,12.9-10.89,20.83-13.39c0.83,12.13-1.29,25.34-9.42,34.85
		c-5.23,6.43-12.69,11.21-20.98,12.34C146.95,458.19,150.59,446.15,157.27,436.31z"/>
	<path fill="#FFEF80" d="M646.22,422.92c8.78,2.65,17.44,7.54,22.4,15.5c5.69,9.51,8.63,20.61,8.76,31.67
		c-10.69-0.99-19.78-8.39-25.16-17.36C646.99,443.78,645.8,433.1,646.22,422.92z"/>
	<path fill="#FFEF80" d="M685.36,438.41c4.87-8.16,13.73-12.95,22.61-15.52c0.6,11.83-1.22,24.62-8.88,34.09
		c-5.22,6.78-12.84,11.8-21.36,13.12C676.49,459.03,679.89,447.94,685.36,438.41z"/>
	<path fill="#FFEF80" d="M201.85,436.12c1.63-0.82,3.24-2.27,5.2-1.6c5.21,1.02,10.58,1.53,15.82,0.45c0.77-0.13,2.3-0.38,3.06-0.51
		c-0.62,3.22-1.26,6.44-1.86,9.67c-7.42,0.22-15.79,1.63-22.23-3.03C201.84,439.43,201.84,437.78,201.85,436.12z"/>
	<path fill="#FFEF80" d="M221.33,462.6c0.09-0.66,0.26-1.98,0.34-2.64c-0.47,3.88-0.85,7.78-1.18,11.68
		c-6.29-0.05-13.46,1.01-18.66-3.4c0-1.49,0-2.98,0-4.47c1.57-1,3.02-2.8,5.09-1.99C211.66,462.76,216.51,462.94,221.33,462.6z"/>
	<path fill="#FFEF80" d="M707.75,469.12c0.98,9.45-0.46,19.27-4.56,27.87c-5.09,9.76-14.38,17.82-25.5,19.45
		c-1.12-11.36,2.29-22.75,8.14-32.43C690.68,476.21,699.34,472.02,707.75,469.12z"/>
	<path fill="#FFEF80" d="M116.53,469.37c8.98,2.33,17.79,7.36,22.66,15.5c5.52,9.51,8.45,20.54,8.17,31.55
		c-10.71-1.16-19.77-8.6-25.1-17.65C117.23,489.91,116.03,479.39,116.53,469.37z"/>
	<path fill="#FFEF80" d="M155.79,484.83c4.99-7.92,13.59-13.03,22.48-15.45c0.35,10.18-0.79,20.89-6.07,29.81
		c-5.31,8.77-14.12,15.95-24.53,17.22C146.96,505.35,150.22,494.32,155.79,484.83z"/>
	<path fill="#FFEF80" d="M656.32,504.74c-8.5-9.58-10.94-23.15-9.89-35.58c8.33,2.93,16.72,7.29,21.71,14.86
		c6.07,9.6,9.04,21,9.31,32.31C669.12,515.8,661.62,510.97,656.32,504.74z"/>
	<path fill="#FFEF80" d="M201.85,490.87c2.13-1.79,4.74-2.32,7.46-1.59c0.14,0.21,0.41,0.65,0.55,0.86
		c3.26-0.01,6.51,0.02,9.77,0.01c0.02,2.99,0.08,5.99,0.13,8.99h-0.67c-5.84-0.33-12.25,0.32-17.23-3.34
		C201.85,494.15,201.84,492.5,201.85,490.87z"/>
	<path fill="#FFEF80" d="M561.24,499.35c11.77,0.05,23.54-0.1,35.31,0.08c-0.08,12.72-0.05,25.45-0.02,38.18
		c-11.76,0.09-23.53,0.01-35.29,0.04C561.23,524.88,561.22,512.11,561.24,499.35z"/>
	<path fill="#FFEF80" d="M116.4,516.04c9.28,2.46,18.48,7.69,23.23,16.33c5.16,9.36,8.07,20.09,7.71,30.81
		c-11.38-1.31-20.92-9.54-26.05-19.47C117.05,535.18,116.1,525.44,116.4,516.04z"/>
	<path fill="#FFEF80" d="M157.35,529.32c5.14-6.68,12.89-10.83,20.8-13.31c0.59,9.58-0.61,19.56-4.99,28.21
		c-5.14,9.59-14.4,17.51-25.44,18.94C146.93,551.22,150.61,539.15,157.35,529.32z"/>
	<path fill="#FFEF80" d="M201.78,518.09c1.58-0.77,3.11-2.21,5.01-1.68c4.74,0.9,9.56,1.39,14.39,0.93
		c0.28,2.23,0.59,4.46,0.92,6.69c0.08,0.55,0.24,1.66,0.32,2.21c-6.96,0.17-14.8,1.19-20.73-3.33l-0.01-1.46
		c0.01-0.28,0.02-0.84,0.02-1.11C201.72,519.77,201.76,518.65,201.78,518.09z"/>
	<path fill="#FFEF80" d="M646.22,516.02c8.75,2.65,17.37,7.49,22.36,15.39c5.74,9.5,8.58,20.61,8.85,31.67
		c-10.48-0.73-19.37-8-24.83-16.6C647.06,537.42,645.8,526.44,646.22,516.02z"/>
	<path fill="#FFEF80" d="M685.44,531.38c4.87-8.1,13.68-12.82,22.5-15.43c0.5,9.28-0.53,18.89-4.55,27.37
		c-4.98,9.96-14.4,18.18-25.63,19.83C676.49,552.05,679.91,540.91,685.44,531.38z"/>
	<path fill="#FFEF80" d="M361.45,542.7c6.07-2.42,10.26-8.13,16.52-10.09c5.48-0.57,9.24,4.3,13.41,7.05
		c5.19,4.36,12.28,4.28,18.58,5.7c-0.01,21.02,0.02,42.04-0.06,63.06c-6.13-0.28-12.3-1.16-18.05-3.37
		c-4.72-2.17-8.53-5.81-12.72-8.79c-4.33,3.4-8.83,6.59-13.61,9.33c-1.47-2.65-2.94-5.28-4.38-7.92c5.52-2.71,9.88-7.24,15.37-9.96
		c5.81-2.06,10.22,3.35,14.5,6.31c5.18,4.49,12.33,4.64,18.73,5.83c-0.04-6.36-0.07-12.73,0.09-19.09
		c-5.85,0.18-11.71-0.78-17.23-2.7c-5.01-1.88-8.64-6.02-13.16-8.71c-3.43,1.18-5.92,4.16-9.03,5.96
		c-5.27,3.76-11.74,5.03-18.04,5.79c-1.53-2.9-3.07-5.79-4.51-8.73c5.89-0.48,12.16-0.82,17.2-4.29c4.7-2.68,8.43-7.49,14-8.33
		c4.85,0.45,8.28,4.43,12.08,7.06c5.19,4.44,12.33,4.44,18.67,5.85c-0.01-6.37-0.05-12.74,0.05-19.1
		c-6.06,0.1-12.16-0.93-17.83-3.07c-4.88-1.89-8.26-6.18-12.92-8.45c-4.73,2.57-8.56,6.62-13.61,8.67
		c-8.21,3.72-17.41,2.88-26.16,2.99c-1.27-2.9-2.46-5.85-3.35-8.89C344.46,544.26,353.35,545.93,361.45,542.7z"/>
	<path fill="#FFEF80" d="M201.82,545.73c1.56-1.01,3.02-2.77,5.07-2c6.1,1.29,12.39,1.33,18.5,0.06l0.88-0.08
		c0.9,2.86,1.56,6,3.96,8.05c-6.63,2.07-13.68,2.21-20.54,1.65c-2.93-0.19-5.58-1.5-7.89-3.22
		C201.83,548.7,201.84,547.21,201.82,545.73z"/>
	<g>
		<path fill="#FFEF80" d="M227.9,570.54c7.14-2.15,11.45-9.89,19.07-10.79c6.59,1.02,11.08,6.59,16.81,9.52
			c5.43,3.42,12.09,2.52,18.19,2.64c4.67,0.08,9.28-0.82,13.75-2.14c1.24,2.62,2.44,5.26,3.62,7.92
			c-5.16,2.19-10.75,3.16-16.35,3.16c-7.59-0.01-15.77,0.72-22.62-3.23c-4.84-2.31-8.64-6.32-13.52-8.5
			c-4.26,2.09-7.44,5.81-11.63,8.01c-7.06,3.87-15.39,3.86-23.22,3.69c-3.58,0.01-7.01-1.16-10.14-2.81c0.02,3,0.02,6,0.05,9.01
			c-0.33-4.17-0.61-8.32-0.08-12.48c0.02-0.42,0.05-1.26,0.07-1.68c1.26-0.8,2.53-1.58,3.81-2.35
			C212.88,572.98,220.68,572.5,227.9,570.54z M270.92,572.49c5.33,0.89,10.8,0.95,16.13-0.01
			C281.7,571.78,276.27,571.8,270.92,572.49z"/>
	</g>
	<path fill="#FFEF80" d="M161.47,571.45c4.83-4.49,10.78-7.81,17.18-9.44c0.51,10.26-0.38,21.03-5.48,30.16
		c-5.11,9.06-14,16.26-24.45,17.91c-0.32-7.76,1.25-15.49,3.7-22.82C154.46,581.53,156.89,575.65,161.47,571.45z"/>
	<path fill="#FFEF80" d="M645.98,561.86c8.99,2.91,18,8.1,22.44,16.8c4.78,9.67,7.84,20.53,6.73,31.4
		c-8.58-1.73-16.25-6.88-21.31-13.98C646.63,586.34,645.02,573.64,645.98,561.86z"/>
	<path fill="#FFEF80" d="M116.43,564.47c8.85,2.05,17.77,6.27,23.09,13.93c6.15,9.25,9.87,20.47,8.69,31.67
		c-11.04-1.29-20.35-9.1-25.79-18.48C117.96,583.33,116.32,573.79,116.43,564.47z"/>
	<path fill="#FFEF80" d="M684.32,579.35c5.23-8.23,14.56-12.84,23.84-14.87c-0.12,10.36-1.91,21.16-7.83,29.89
		c-5.68,8.18-14.43,14.84-24.61,15.69C675.25,599.26,678.59,588.45,684.32,579.35z"/>
	<path fill="#FFEF80" d="M234.31,594.29c4.5-3.17,9.18-8.61,15.3-6.65c7.47,3.18,13.01,10.39,21.42,11.46
		c7.62,0.74,15.49,0.72,22.88-1.54c4.06-1.22,7.42-3.91,10.81-6.35c1.07,2.99,2.05,6,2.95,9.05c-10.87,8.43-25.5,9.12-38.63,7.55
		c-8.59-1.01-14.88-7.37-22.05-11.47c-4.04,1.99-7.13,5.42-11.02,7.68c-4.4,2.74-9.65,3.53-14.71,4.12
		c-6.13,0.56-12.56,0.52-18.26-2.07c-1.56-3.23-0.34-6.92-0.88-10.33c0.06,0.72,0.17,2.15,0.23,2.87c4.95-0.79,9.76,1.09,14.71,0.87
		C223.09,599.22,229.55,598.37,234.31,594.29z"/>
	<g>
		<path fill="#FFEF80" d="M448.73,598.51c24.95-0.04,49.91,0.03,74.86-0.04c0.14,12.16-0.04,24.32,0.1,36.48
			c-11.03,0.12-22.06,0.02-33.09,0.05c0-7.54,0-15.09,0.01-22.63c-2.97,0-5.93,0.01-8.88,0.1c0.1,7.5-0.01,15,0.07,22.51
			c-11.03,0.05-22.05,0.01-33.07,0.02C448.73,622.83,448.72,610.67,448.73,598.51z M461.39,604c0,4.07,0,8.14,0.01,12.22
			c2.94,0,5.88,0,8.83,0c-0.01-4.08-0.01-8.15,0-12.22C467.28,604,464.34,604,461.39,604z M502,604c-0.01,4.07,0,8.14,0.01,12.21
			c2.92,0,5.84,0.01,8.76,0.06c0.11-4.09,0.09-8.18,0.09-12.26C507.91,604,504.95,604,502,604z"/>
	</g>
	<path fill="#FFEF80" d="M161.64,620.6c3.86-7.49,10.9-12.73,18.27-16.48c2.43,10.37,2.9,21.64-1.16,31.67
		c-3.47,8.46-9.98,16-18.58,19.46c-8.23,2.79-16.93-1.16-23.6-5.92c-10.72-7.65-15.94-20.73-17.71-33.38
		c9.53,0.63,19.49,3.9,25.87,11.34c5.95,7.03,10.54,15.46,11.94,24.65C156.54,641.34,157.15,630.38,161.64,620.6z"/>
	<path fill="#FFEF80" d="M648.58,641.41c-6.92-11.04-6.98-24.96-3.97-37.27c7.68,3.91,15.09,9.49,18.72,17.55
		c4.45,10.78,4.91,22.69,3.87,34.18C659.15,654.31,652.79,648.15,648.58,641.41z"/>
	<path fill="#FFEF80" d="M532.49,610.39c6.67-0.93,13.4-1.58,20.13-1.44c2.83,0.16,5.66,0.3,8.49,0.45
		c4.8,0.22,9.62,1.05,14.05,2.97c2.93,1.27,5.91,2.46,9,3.28c4.68,1.09,8.56,4.02,12.59,6.48c2.62,1.55,5.55,2.41,8.51,3.08
		c5.95,0.62,10.77-3.31,15.89-5.61c0.29-0.07,0.89-0.22,1.18-0.29c-0.86,3.55-0.66,7.83-2.87,10.83c-4.46,3.52-10.45,5.08-16.07,4.3
		c-5.98-1.14-11.12-4.58-16.47-7.28c-7.87-4-16.21-7.38-25-8.59c-9.8-0.74-19.7-0.63-29.43,0.8
		C532.49,616.37,532.49,613.38,532.49,610.39z"/>
	<path fill="#FFEF80" d="M229.44,624.62c5.65-2.57,9.6-7.95,15.56-9.95c3.42-0.9,6.67,1.05,9.39,2.9c5.46,3.69,10.8,8.52,17.7,8.94
		c8.46,0.3,17.48,0.83,25.28-3.1c4.6-2.61,8.71-6.01,13.42-8.45c0.42,3.37,0.6,6.79,0.36,10.2c-4.58,2.96-8.91,6.55-14.21,8.15
		c-8.63,2.82-17.86,2.58-26.81,2.01c-8.99-0.91-16-7.12-23.18-11.98c-4.82,3.29-9.08,7.54-14.56,9.77
		c-6.81,2.46-14.21,2.87-21.37,2.3c-1.59,0.04-2.76-0.98-3.78-2.03c-1.39-1.55-0.84-3.7-1.03-5.56c1.73-0.78,3.54-1.59,5.49-1.35
		C217.64,626.75,223.83,626.9,229.44,624.62z"/>
	<path fill="#FFEF80" d="M679.07,628.08c6.29-7.99,16.61-11.43,26.43-12.18c-1.52,12.14-6.37,24.67-16.28,32.39
		c-6.08,5.11-13.87,8.14-21.85,8.1C667.56,645.9,672.61,636.1,679.07,628.08z"/>
	<g>
		<path fill="#FFEF80" d="M242.23,643.2c2.21-1.42,5.06-2.03,7.53-0.86c7.41,3.17,12.9,10.46,21.3,11.31
			c11.19,0.69,24.13,1.11,32.75-7.37c-2.49,4.93-4.9,9.9-7.46,14.8c-3.28,0.55-6.54,1.19-9.81,1.81c-5.34-0.05-10.67-0.1-16.01-0.03
			c-4.42-0.88-8.8-2.21-12.6-4.68c-3.78-2.17-6.97-5.28-10.93-7.11c-4.4,1.96-7.57,5.83-11.82,8.05c-5.56,3.15-12.09,3.38-18.3,3.57
			l0.03,0.6l0.01,0.23c-1.35-2.26-2.51-4.65-2.89-7.28c3.58-3.69,9-2.18,13.47-3.62C233.23,650.93,237.1,646.01,242.23,643.2z
			 M271.74,654.51c4.76,0.95,9.65,0.76,14.43,0.11C281.41,653.65,276.53,653.91,271.74,654.51z"/>
	</g>
	<path fill="#FFEF80" d="M497.24,643.74c0.08,4.84,0.08,9.68,0.03,14.53C497.04,653.43,497.04,648.58,497.24,643.74z"/>
	<path fill="#FFEF80" d="M339.8,654.05c2.96,0.1,5.93,0.12,8.9,0.02c1.94,2.72,3.59,5.64,5.1,8.62c-6.1,0.44-12.23,0.41-18.31-0.25
		C336.92,659.64,338.29,656.81,339.8,654.05z"/>
	<g>
		<path fill="#FFEF80" d="M497.01,667.09c24.96,0.02,49.91,0.01,74.87,0c0.01,12.23,0.02,24.47,0,36.7c-11-0.02-22-0.01-33-0.01
			c-0.04-7.58-0.04-15.17,0-22.76C535.91,681,532.96,681,530,681c-0.01,7.6,0.03,15.2-0.03,22.8c-10.979-0.04-21.97-0.02-32.96-0.01
			C496.99,691.56,496.99,679.32,497.01,667.09z M509.64,672.78c0,4.07,0,8.14,0,12.22c2.95-0.01,5.9-0.01,8.85,0
			c0-4.08,0-8.15,0-12.22C515.53,672.77,512.59,672.77,509.64,672.78z M550.4,672.78c-0.02,4.07-0.01,8.14,0.01,12.22
			c2.93-0.01,5.88-0.01,8.82,0c0-4.08,0-8.15,0-12.22C556.28,672.77,553.34,672.77,550.4,672.78z"/>
	</g>
	<path fill="#FFEF80" d="M233.01,676.96c5.23-2.68,9.44-9.27,16.1-7.5c7.16,2.62,12.25,9.32,19.82,11.16
		c5.98,1.32,12.15,0.68,18.22,0.59c-1.13,2.97-2,6.02-2.67,9.12c-7.23,0-14.79,0.55-21.62-2.28c-5.79-2.52-10.7-6.57-15.92-10.04
		c-5.72,4.2-11.44,9.71-19.03,9.69h-0.02c-0.81-1.32-1.75-2.55-2.42-3.93C224.9,679.2,230.09,678.74,233.01,676.96z"/>
	<path fill="#FFEF80" d="M194.25,670.98c7.45,18.41,15.46,36.73,26.3,53.43c6,8.87,12.51,17.39,19.29,25.69
		c-1.19,5.16-1.69,10.45-2.62,15.66c-5.62-5.55-9.8-12.35-14.04-18.95c-11.02-17.51-18.27-37.06-24.06-56.82
		C197.36,683.69,195.43,677.42,194.25,670.98z"/>
	<path fill="#FFEF80" d="M629.74,671.99c-1.771,10.9-5.43,21.4-8.76,31.91c-7.52,22.46-18.16,44.29-33.81,62.25
		c-0.74-5.39-1.29-10.81-2.5-16.12c9.54-11.78,18.92-23.82,26.19-37.17C618.18,699.74,624.2,685.94,629.74,671.99z"/>
	<path fill="#FFEF80" d="M320.94,683.95c2.03-2.23,3.97-4.54,5.8-6.93c3.85,2.02,7.89,3.94,12.32,4.21
		c7.63,0.42,15.48,0.56,22.81-1.98c1.35,2.68,2.72,5.35,4.11,8.02c-8.9,3.4-18.59,3.5-27.96,2.83
		C331.87,689.62,326.16,687.08,320.94,683.95z"/>
	<path fill="#FFEF80" d="M614.66,749.68c16.8-21.83,30.76-45.65,44.19-69.64c-4.44,18.94-11.36,37.31-20.04,54.72
		c-6.69,13.66-15.97,25.78-25.1,37.87c-6.73,8.58-13.43,17.37-21.9,24.34c-2.97-0.42-5.89-1.07-8.8-1.77
		c2.35-4.97,3.7-10.32,4.61-15.72C598.24,771.15,606.32,760.17,614.66,749.68z"/>
	<path fill="#FFEF80" d="M166.1,680.79c15.08,27.22,31.21,54.04,51,78.13c6.02,7.22,11.95,14.7,19.57,20.32
		c1.12,5.44,2.46,10.85,4.69,15.96c-2.74,0.68-5.47,1.56-8.31,1.61c-3.56-1.84-6.08-5.11-8.85-7.9c-10.21-11.35-19.2-23.74-28-36.18
		c-11.55-17.05-19.49-36.25-25.89-55.74C168.77,691.63,166.57,686.4,166.1,680.79z"/>
	<path fill="#FFEF80" d="M633.63,769.62c21.81-24.71,39.06-52.95,56.31-80.89c-2.41,9.95-6.5,19.42-10.39,28.87
		c-7.35,17.1-16.21,33.64-27.33,48.6c-7.21,9.74-14.55,19.38-22.34,28.66c-4.02,4.68-8,9.46-12.85,13.32
		c-3.89-3.02-8.03-5.7-12.4-7.95C615.17,790.89,624.32,780.14,633.63,769.62z"/>
	<path fill="#FFEF80" d="M134.89,689.59c6.02,8.65,10.98,18,16.85,26.77c11.5,17.82,23.54,35.37,37.48,51.39
		c9.87,11.22,19.57,22.69,30.79,32.61c-4.71,1.75-8.37,5.38-12.82,7.51c-4.59-3.37-8.1-7.94-11.87-12.16
		c-9.77-11.66-19.04-23.75-27.81-36.18c-11.44-16.89-20.39-35.38-27.63-54.42C138.05,699.99,135.84,694.97,134.89,689.59z"/>
	<path fill="#FFEF80" d="M376.46,751.61c5.87-2.04,10.29,3.33,14.6,6.34c4.75,4.11,11.24,4.65,17.17,5.62
		c1.35,1.12,3.15,2.4,2.78,4.44c-0.44,1.53-1.14,2.97-1.81,4.42c-6.12-0.48-12.36-1.3-18.02-3.8c-4.41-2.22-8.05-5.64-12.05-8.47
		c-3.86,2.85-7.58,5.92-11.82,8.19c-5.6,2.99-12.06,3.73-18.3,3.98c-7.25,0.2-14.8,0.02-21.52-3c-5.21-2.37-9.94-5.65-14.64-8.88
		c-3.05,1.82-5.93,3.94-9.07,5.63c-1.42,0.99-3.16,0.48-4.58-0.21c-2.28-1.62-2.85-5.26-0.35-6.96c3.71-2.86,7.7-5.54,12.11-7.17
		c3.46-1.28,6.63,1.13,9.36,2.94c5.93,4.05,12.29,8.31,19.72,8.59c6.58,0.28,13.36,0.46,19.74-1.45
		C366.17,759.88,370.52,754.38,376.46,751.61z"/>
	<path fill="#FFEF80" d="M247.98,763.39c12.05,6.2,22.84,16.91,25.51,30.63c1.32,7.14,1.4,15.38-3.01,21.54
		c-5.95,7.13-15.48,10.36-24.54,10.76c-11.23,0.39-21.82-4.63-30.91-10.81c5.92-5.79,13.72-10.02,22.03-10.83
		c10.39-0.5,20.69,2.46,29.85,7.21c-7.75-6.25-14.49-13.99-18.5-23.17C245.22,780.65,246,771.66,247.98,763.39z"/>
	<path fill="#FFEF80" d="M551.42,792.28c3.09-12.96,13.54-22.69,24.85-28.9c2.99,9.85,2.92,21.23-2.65,30.19
		c-3.74,6.69-9.06,12.25-14.69,17.38c9.13-3.95,18.99-6.97,29.04-6.22c8.03,1.07,15.8,4.94,21.37,10.85
		c-8.71,5.83-18.65,10.76-29.36,10.78c-8.99-0.16-18.4-2.94-24.83-9.47C549.28,810.25,549.43,800.41,551.42,792.28z"/>
	<path fill="#FFEF80" d="M369.97,782.01c3.34-1.81,6.97-4.31,10.97-3.43c4.26,1.44,7.4,4.86,11.04,7.36
		c4.91,3.75,11.36,4.08,17.26,4.91c1.72,2.33,1.77,5.14,1.18,7.88c-4.01,0.98-8.08,0.13-12.08-0.36
		c-7.62-1.32-13.47-6.5-19.35-11.07c-4.08,2.17-8.08,4.51-11.87,7.15c-2.27,0.04-4.43-0.61-6.57-1.26v-0.09
		c0.1-1.66,0.05-3.36,0.52-4.95C363.47,785.41,366.95,783.95,369.97,782.01z"/>
	<path fill="#FFEF80" d="M280.33,787.94c12.07,3.39,23.93,10.5,29.93,21.88c3.57,6.7,5.56,14.67,3.75,22.19
		c-2.7,7.99-10.2,13.31-17.75,16.33c-12.08,4.96-25.75,2.32-37.39-2.62c5.25-7.59,12.99-13.97,22.2-15.84
		c8.96-1.65,18.11-0.64,27,0.97c-8.39-4-15.84-9.99-21.48-17.39C281.3,806.13,280.07,796.76,280.33,787.94z"/>
	<path fill="#FFEF80" d="M514.78,808.82c6.07-10.94,17.68-17.38,29.26-20.98c0.43,8.69-0.83,17.91-5.86,25.23
		c-5.5,7.57-13.15,13.29-21.28,17.78c9.91-1.98,20.4-2.87,30.22,0.02c7.55,2.77,14.11,8.19,18.42,14.96
		c-10.25,4.06-21.65,6.83-32.6,4.08c-9.09-2.45-18.18-7.9-22.15-16.78C508.41,824.96,510.63,816.04,514.78,808.82z"/>
	<path fill="#FFEF80" d="M318.07,805c12.02,1.47,24.5,5.88,32.43,15.48c5.45,6.28,8.65,14.47,8.55,22.83
		c-1.65,0.05-3.28,0.13-4.92,0.21c1.53,0.05,3.07,0.12,4.61,0.19c-2.11,8.9-9.4,15.6-17.27,19.67c-10.6,5.61-23.22,4.8-34.58,2.36
		c3.66-7.72,9.38-14.87,17.23-18.6c9.04-4.08,19.14-4.75,28.93-4.51c-9.01-2.48-17.41-7.08-24.32-13.37
		C322.18,822.93,319.23,813.83,318.07,805z"/>
	<path fill="#FFEF80" d="M472.84,821.89c7.81-10.51,20.91-15.3,33.48-16.91c-0.97,8.98-4.14,18.17-10.81,24.52
		c-6.98,6.25-15.44,10.83-24.51,13.22c10.07-0.44,20.48,0.34,29.75,4.6c7.56,3.86,13.39,10.75,16.72,18.48
		c-9.54,1.98-19.7,2.86-29.12-0.17c-8.86-3.04-17.03-9.11-21.2-17.65C463.47,839.08,467.26,829.1,472.84,821.89z"/>
	<path fill="#FFEF80" d="M403.09,826.09c2.58-5.18,5.88-9.97,8.98-14.84c2.72,4.83,5.83,9.51,7.91,14.66
		c-1.98,5.01-5.09,9.49-7.48,14.31C409.11,835.7,405.64,831.13,403.09,826.09z"/>
	<path fill="#FFEF80" d="M359.63,817.11c10.78,0.03,22.16,1.72,31.1,8.17c7.17,5.22,13,12.88,14.49,21.77
		c0.3,1.48-0.38,2.33-2.02,2.56c0.56,0.04,1.69,0.11,2.26,0.14c-1.28,9.86-8.23,18.08-16.43,23.22c-9.39,5.75-20.84,6.71-31.59,5.97
		c2.32-8.32,7.17-16.26,14.42-21.12c8.46-5.2,18.33-7.65,28.16-8.32c-10.51-1.64-21.13-5.18-29.32-12.18
		C365.12,831.89,361.26,824.71,359.63,817.11z"/>
	<path fill="#FFEF80" d="M440.4,821.48c7.74-3.26,16.26-4.66,24.64-4.13c-1.98,6.58-4.82,13.06-9.51,18.18
		c-3.56,4.02-8.37,6.64-13.2,8.85c-7.34,3.28-15.36,5.46-23.47,4.96C420.25,837,429.24,826.4,440.4,821.48z"/>
	<path fill="#FFEF80" d="M418.88,849.75c11.1-0.76,22.35,1.81,32.11,7.11c8.24,4.6,13.41,13.2,16.13,22.01
		c-9.68,0.79-19.82,0.04-28.68-4.24C428.74,869.73,420.62,860.72,418.88,849.75z"/>
	<path fill="#FFEF80" d="M403.08,878.09c2.6-5.18,5.91-9.96,8.99-14.86c2.71,4.85,5.86,9.54,7.91,14.72
		c-2.02,4.97-5.06,9.45-7.46,14.24C409.08,887.71,405.65,883.11,403.08,878.09z"/>
</g>
<g>
	<path fill="#293030" d="M201.31,246.07c0.08-5.13-0.82-10.38,0.6-15.4c0.09,4.71,0.09,9.42,0.07,14.13c0.01,1.75,0.01,3.51,0,5.27
		c0.02,7.34,0,14.69,0.03,22.03c0,1.71-0.02,3.43-0.06,5.15c-0.25,7.62,0.12,15.25-0.27,22.87c-1.69-9.22-0.23-18.73-0.4-28.07
		C201.01,263.39,201.24,254.73,201.31,246.07z"/>
</g>
<g>
	<g>
		<path fill="#00A850" d="M436.01,235.09c10.42-5.39,22.98-5.86,34.01-2.07c12.53,3.77,21.51,14.58,26.92,26.04
			c4.88,10.3,1.72,22.08,4.37,32.85c0.94,4.13,4.29,7.86,8.69,8.21c6.18,0.36,11.84-3.03,18.01-3.02
			c7.61-0.45,14.55,3.98,19.53,9.37c5.31,5.75,7.43,13.89,6.51,21.57c-0.93,7.49-1.23,15.57,2.26,22.48
			c3.72,5.29,10.09,7.56,15.39,10.87c10.49,5.91,19.76,14.99,23.51,26.67c3.55,11.43,2.4,24.32-3.22,34.91
			c-3.39,6.37-8.97,11.85-16,13.93c-10.34,3.22-21.3,2.63-31.97,3.17c-5.77,0.27-11.73-0.15-17.25,1.82
			c-5.15,1.89-7.82,7.97-6.73,13.17c1.36,7.52,7.64,12.7,10.37,19.64c4.69,10.97,7.78,23.31,5.3,35.21
			c-3.37,13.18-10.29,26.32-22.18,33.64c-10.52,6.65-23.64,7.42-35.64,5.35c-7.86-1.37-15.8-4.56-21.07-10.78
			c-4.79-5.33-5.93-12.88-10.71-18.22c-2.9-3.22-6.49-6.69-11.16-6.49c-8.29-0.14-16.33,2.29-24.49,3.42
			c-0.21-8.31,0.06-16.6,0.76-24.86c-0.35-7.45-0.35-14.92-0.1-22.37c-0.51-9.83-1.11-19.76,0.01-29.59
			c-0.81-6.64-0.57-13.33-0.53-20c-0.02-3.49,1.04-6.96,0.38-10.44c-0.8-7-0.82-14.11,0.02-21.1c0.45-2.27,0.12-4.56-0.16-6.81
			c-0.56-6.7-0.49-13.47,0.13-20.17c0.47-5.82-0.82-11.64-0.38-17.49c-0.42-5.45,0.85-10.87,0.44-16.3
			c-0.64-6.75-0.6-13.57-0.23-20.33c0.39-2.53,0.44-5.07,0.05-7.6c-0.43-6.75-0.34-13.55,0.19-20.3c0.14-1.45,0.15-2.89,0.03-4.34
			c-0.97-6.97-0.21-14.01-0.39-21.02c5.12-1.44,9.96-3.95,13.77-7.7C428.5,242.83,431.34,237.95,436.01,235.09z M432.73,264.85
			c-9.93,2.93-14.78,15.86-9.11,24.55c4.84,8.6,17.62,10.77,24.96,4.12c7.29-5.78,7.9-17.77,1.28-24.3
			C445.6,264.5,438.7,263.29,432.73,264.85z M495.36,321.37c-7.41,3.07-11.52,11.92-9.34,19.6c1.48,5.68,6.2,10.43,11.92,11.8
			c8.11,2.44,17.38-2.82,19.93-10.79c2.34-6.69-0.14-14.71-5.94-18.81C507.28,319.62,500.68,319.37,495.36,321.37z M559.71,382.06
			c-5.28,1.06-9.96,4.7-12.15,9.63c-4.14,8.57,0.84,19.77,9.88,22.59c9.68,3.84,21.45-3.99,21.91-14.36
			C580.68,389.38,570.04,379.71,559.71,382.06z M447.46,397.7c-9.21,1.92-15.32,12.37-12.2,21.32c2.71,9.62,14.94,14.72,23.64,9.7
			c8.27-4,11.42-15.39,6.58-23.15C462.04,399.34,454.35,396.15,447.46,397.7z M481.4,483.69c-9.58,4.38-12.32,18.31-5.04,25.94
			c5.76,7.01,17.18,7.5,23.71,1.31c6.62-5.78,7.16-16.86,1.29-23.35C496.6,481.89,487.95,480.7,481.4,483.69z"/>
	</g>
</g>
<g>
	<path fill="#F8A01A" d="M432.73,264.85c5.97-1.56,12.87-0.35,17.13,4.37c6.62,6.53,6.01,18.52-1.28,24.3
		c-7.34,6.65-20.12,4.48-24.96-4.12C417.95,280.71,422.8,267.78,432.73,264.85z"/>
	<path fill="#F8A01A" d="M495.36,321.37c5.32-2,11.92-1.75,16.57,1.8c5.8,4.1,8.28,12.12,5.94,18.81
		c-2.55,7.97-11.82,13.23-19.93,10.79c-5.72-1.37-10.44-6.12-11.92-11.8C483.84,333.29,487.95,324.44,495.36,321.37z"/>
	<path fill="#F8A01A" d="M559.71,382.06c10.33-2.35,20.97,7.32,19.64,17.86c-0.46,10.37-12.23,18.2-21.91,14.36
		c-9.04-2.82-14.02-14.021-9.88-22.59C549.75,386.76,554.43,383.12,559.71,382.06z"/>
	<path fill="#F8A01A" d="M447.46,397.7c6.89-1.55,14.58,1.64,18.02,7.87c4.84,7.76,1.69,19.15-6.58,23.15
		c-8.7,5.02-20.93-0.08-23.64-9.7C432.14,410.07,438.25,399.62,447.46,397.7z"/>
	<path fill="#F8A01A" d="M481.4,483.69c6.55-2.99,15.2-1.8,19.96,3.9c5.87,6.49,5.33,17.57-1.29,23.35
		c-6.53,6.19-17.95,5.7-23.71-1.31C469.08,502,471.82,488.07,481.4,483.69z"/>
</g>
<g>
	<path fill="#A2A8B6" d="M360.37,286.99c-0.47-4.85,4.71-7.03,7.51-10.1c-0.35,9.1-1.03,18.33,0.92,27.3
		c1.07,4.76,3.34,9.71,7.84,12.09c3.52,1.88,7.39,3.89,11.51,3.41c2.19-0.25,3.68-2.09,5.39-3.28c1.97,1.69,2.54,4.82,0.82,6.9
		c-4.69,4.98-12.65,6.06-18.72,3.1c-5.19-2.58-9.37-7.11-11.55-12.48C360.56,305.45,360.06,296.06,360.37,286.99z"/>
	<g>
		<path fill="#A2A8B6" d="M317.13,298.16c11.02-4.37,23.09-4.41,34.3-8.11c-0.03,10.6,1.11,21.65,6.3,31.09
			c4.84,8.64,13.8,15.07,23.8,15.88c-0.92,6.71,1.76,13.24,1.13,19.95c-0.47,10.78-5.77,20.83-13.13,28.52
			c-4.28,4.4-8.53,8.83-12.65,13.38c-1.9,2.34-5.23,1.4-7.84,1.62c-8.7-0.36-18.13-0.89-25.57-5.93c-7.47-6.15-6.87-16.94-5.4-25.57
			c-3.92,1.21-7.86,2.72-12.03,2.66c-8.85,0.07-17.53-2.93-25.04-7.48c-6.4-3.86-10.79-10.69-11.82-18.07
			c-1.39-6.59,3.02-12.37,6.29-17.65C285.05,313.66,300.21,302.93,317.13,298.16z M311.37,306.42
			c-9.61,2.68-17.08,11.59-17.97,21.53c-0.95,8.41,2.67,17.15,9.34,22.36c6.68,5.44,16.23,6.93,24.3,3.98
			c12.22-4.09,19.48-18.45,15.61-30.75C339.17,310.53,324.23,302.28,311.37,306.42z"/>
	</g>
	<path fill="#A2A8B6" d="M262.77,357.15c2.98,3.7,5.04,8.22,8.94,11.18c10.17,8.29,23.47,12.48,36.53,12.27
		c0.53,8.4,3.81,17.3,11.2,22.01c8.54,5.23,18.85,6.42,28.68,6.68c-10.98,14.6-19.81,31.01-24.26,48.82
		c-4.54,15.18-6.14,31.1-5.8,46.9c0.55,18.22,6.07,35.86,13.23,52.49c9.42,22.51,21.81,43.58,33.25,65.09
		c6.71,12.26,10.08,25.97,12.67,39.6c1.54,9.81,3.74,19.9,1.66,29.8c-4.55-7.29-8.17-15.11-12.04-22.76
		c-4.79-9.53-8.78-19.96-16.77-27.35c-3.32-3.25-9.37-4.44-12.68-0.55c-4.76,5.62-7.26,12.69-10.86,19.04
		c-5.89,11.81-14.91,22-25.88,29.33c-2.31,1.59-4.95,2.64-7.61,3.5c1.34-7.76,4.87-14.88,8.24-21.92
		c4.95-10.37,10.53-20.42,15.23-30.9c5.02-11.52,4.17-24.58,1.3-36.53c-4.12-16.95-11.4-32.92-19.23-48.43
		c-1.68-3.92-3.17-7.94-5.38-11.6c-9.34-17.86-17.65-36.26-24.88-55.07c-6.12-16.15-11.49-32.69-14.32-49.76
		c-2.55-14.84-1.32-30.01,0.69-44.84C256.47,381.65,258.67,369.12,262.77,357.15z"/>
	<path fill="#A2A8B6" d="M228.57,485.99c0.82-29.62,6.97-58.89,16.12-87c-1.02,13.7-1.8,27.57,0.52,41.18
		c3.18,19.56,9.57,38.43,16.78,56.83c6.15,15.7,13.27,31,20.73,46.11c-15.71,0.14-31.42,0.41-47.13,0.21
		C229.94,524.8,228.15,505.28,228.57,485.99z"/>
	<path fill="#A2A8B6" d="M347.78,427.81c0.34,5.38-0.22,10.77,0.11,16.16c0.85,18.5,3.95,36.87,8.95,54.69
		c-9.79-0.06-19.58,0.01-29.37-0.04C325.89,473.49,335,449.05,347.78,427.81z"/>
</g>
<g>
	<path fill="#E1F6A0" d="M210.85,299.55c3.11-0.63,6.3-0.67,9.4,0.08C217.14,300.23,213.95,300.16,210.85,299.55z"/>
</g>
<g>
	<path fill="#2A4949" d="M201.07,309c0-1.69,0.3-3.36,0.64-5.01c0.6,7.57,0.16,15.17,0.3,22.75c0,1.76-0.03,3.52-0.08,5.29
		c-0.32,7.46-0.18,14.92-0.24,22.38l-0.01,1.32c-1.21-5.5-0.17-11.17-0.56-16.75C201.37,328.99,201.03,319,201.07,309z"/>
</g>
<g>
	<path fill="#223D62" d="M305.43,320.95c-1.51-2.02,1.51-5.03,3.51-3.48C307.76,318.62,306.59,319.78,305.43,320.95z"/>
</g>
<g>
	<path fill="#32A78A" d="M208.68,335.45c4.72-0.85,9.66-0.86,14.38,0.01C218.32,336.34,213.41,336.43,208.68,335.45z"/>
</g>
<g>
	<path fill="#347271" d="M201.07,421.99c0.07-3.27-0.49-6.65,0.66-9.79l0.08,1.4c0.19,7.51,0.03,15.02,0.04,22.52
		c-0.01,1.66-0.01,3.31-0.01,4.98c0.03,7.56,0.1,15.11-0.01,22.67c0,1.49,0,2.98,0,4.47c0.1,7.54,0.04,15.08,0.02,22.63
		c-0.01,1.63,0,3.28,0.01,4.93c-0.04,7.43,0.15,14.86-0.08,22.29c-0.02,0.56-0.06,1.68-0.08,2.25c-0.35-1.43-0.67-2.87-0.67-4.33
		C201.11,484.67,201.04,453.33,201.07,421.99z"/>
</g>
<g>
	<path fill="#2CA68B" d="M208.93,417.51c4.67-0.78,9.43-0.67,14.09,0.1C218.35,418.27,213.58,418.39,208.93,417.51z"/>
</g>
<g>
	<path fill="#79B96A" d="M410.09,471.4c0.26-0.45,0.77-1.35,1.03-1.8c-0.25,7.45-0.25,14.92,0.1,22.37
		c-0.81-0.48-1.62-0.94-2.44-1.38l1.11-0.36C410.27,483.96,409.72,477.67,410.09,471.4z"/>
</g>
<g>
	<g>
		<path fill="#5D2E02" d="M552.62,608.95c0.29-39.49-0.45-78.97-0.2-118.46c17.64,0.03,35.29,0,52.93,0.02
			c0.18,44.9-0.32,89.8-0.09,134.7c-2.96-0.67-5.89-1.53-8.51-3.08c0.08-25.2-0.03-50.39,0.06-75.59
			c-4.24-0.06-8.48-0.06-12.71-0.03c0.05,23.05-0.06,46.09,0.06,69.14c-3.09-0.82-6.07-2.01-9-3.28
			c0.27-21.95,0.04-43.91,0.12-65.86c-4.73-0.02-9.46-0.02-14.18,0c0.03,20.97,0.01,41.93,0.01,62.89
			C558.28,609.25,555.45,609.11,552.62,608.95z M561.24,499.35c-0.021,12.76-0.01,25.53,0,38.3c11.76-0.03,23.53,0.05,35.29-0.04
			c-0.03-12.73-0.06-25.46,0.02-38.18C584.78,499.25,573.01,499.4,561.24,499.35z"/>
	</g>
	<path fill="#5D2E02" d="M410.07,526.09c8.48-1.53,17.05-2.48,25.6-3.47c-4.99,11.6-7.31,24.07-9.66,36.41
		c-3.8,21.77-5.42,44.04-3.3,66.08c1.05,9.71,2.8,19.5,6.79,28.47c4.02,8.7,9.63,16.71,16.68,23.21
		c6.96,6.19,14.07,12.42,22.5,16.55c5.38,2.01,4.5,12.39-1.65,12.37c-7.03,0.38-15.01-1.05-21.1,3.33
		c-5.06,5.18-5.17,14.18-0.85,19.88c3.1,4.6,8.98,6.37,11.82,11.2c2.26,3.62,3.54,8.84,0.6,12.45c-2.5,3.11-7.08,3.02-10.47,1.6
		c-7.74-2.75-12.11-10.75-19.9-13.4c-5.76-2.02-11.66-3.62-17.59-5.06c0.09-6.88-0.16-13.77,0.34-20.63
		c-0.37-29.39,0.27-58.78,0.01-88.18c-0.1-6.16-0.09-12.32,0.01-18.48c0.08-21.02,0.05-42.04,0.06-63.06
		C409.92,538.94,409.86,532.51,410.07,526.09z"/>
	<g>
		<path fill="#5D2E02" d="M439.93,566.39c30.86,0.05,61.72-0.03,92.58,0.04c-0.03,14.65,0,29.3-0.02,43.96c0,2.99,0,5.98,0,8.98
			c0,5.25,0,10.51,0.03,15.77c16.08,0.03,32.16-0.04,48.24,0.04c-0.08,25.81,0.01,51.63-0.04,77.44c-30.85,0-61.7-0.04-92.54,0.02
			c-0.08-22.93,0.01-45.85-0.05-68.77c-16.1-0.14-32.2,0.22-48.3-0.2c0.04-3.07,0.06-6.13,0.06-9.18
			C439.91,611.79,439.83,589.09,439.93,566.39z M448.31,589.84c23.54,0.39,47.08,0,70.63,0.21c1.78,0.07,3.55-0.2,5.26-0.69
			c-0.48-4.89-0.25-9.81-0.3-14.71c-25.03-0.21-50.07,0.07-75.11-0.14C447.82,579.57,448.43,584.73,448.31,589.84z M448.73,598.51
			c-0.01,12.16,0,24.32,0,36.49c11.02-0.01,22.04,0.03,33.07-0.02c-0.08-7.51,0.03-15.01-0.07-22.51c2.95-0.09,5.91-0.1,8.88-0.1
			c-0.01,7.54-0.01,15.09-0.01,22.63c11.03-0.03,22.06,0.07,33.09-0.05c-0.14-12.16,0.04-24.32-0.1-36.48
			C498.64,598.54,473.68,598.47,448.73,598.51z M497.24,643.36v0.38c-0.2,4.84-0.2,9.69,0.03,14.53l-0.01,0.37
			c24.87-0.15,49.73-0.11,74.6-0.02c0.42-5.09,0.39-10.19,0.09-15.27C547.05,643.44,522.14,643.42,497.24,643.36z M497.01,667.09
			c-0.02,12.23-0.02,24.47,0,36.7c10.99-0.01,21.98-0.03,32.96,0.01c0.06-7.6,0.021-15.2,0.03-22.8c2.96,0,5.91,0,8.88,0.02
			c-0.04,7.59-0.04,15.18,0,22.76c11,0,22-0.01,33,0.01c0.02-12.23,0.01-24.47,0-36.7C546.92,667.1,521.97,667.11,497.01,667.09z"/>
	</g>
	<path fill="#5D2E02" d="M461.39,604c2.95,0,5.89,0,8.84,0c-0.01,4.07-0.01,8.14,0,12.22c-2.95,0-5.89,0-8.83,0
		C461.39,612.14,461.39,608.07,461.39,604z"/>
	<path fill="#5D2E02" d="M502,604c2.95,0,5.91,0,8.86,0.01c0,4.08,0.02,8.17-0.09,12.26c-2.92-0.05-5.84-0.06-8.76-0.06
		C502,612.14,501.99,608.07,502,604z"/>
	<path fill="#5D2E02" d="M509.64,672.78c2.95-0.01,5.89-0.01,8.85,0c0,4.07,0,8.14,0,12.22c-2.95-0.01-5.9-0.01-8.85,0
		C509.64,680.92,509.64,676.85,509.64,672.78z"/>
	<path fill="#5D2E02" d="M550.4,672.78c2.94-0.01,5.88-0.01,8.83,0c0,4.07,0,8.14,0,12.22c-2.94-0.01-5.89-0.01-8.82,0
		C550.39,680.92,550.38,676.85,550.4,672.78z"/>
</g>
<g>
	<path fill="#264E4E" d="M201.12,540c0.33-6.18-0.67-12.46,0.56-18.55l0.01,1.46c0.18,7.6,0.02,15.21,0.13,22.82
		c0.02,1.48,0.01,2.97-0.02,4.46c-0.15,7.56,0.49,15.11,0.1,22.67c-0.02,0.42-0.05,1.26-0.07,1.68
		C200.31,563.11,201.7,551.5,201.12,540z"/>
</g>
<g>
	<path fill="#25A2AD" d="M265.22,552.31c7.29-0.16,14.7-1.1,21.92,0.2C279.84,552.37,272.41,554.18,265.22,552.31z"/>
</g>
<g>
	<path fill="#D2F2A2" d="M270.92,572.49c5.35-0.69,10.78-0.71,16.13-0.01C281.72,573.44,276.25,573.38,270.92,572.49z"/>
</g>
<g>
	<path fill="#A9442B" d="M448.31,589.84c0.12-5.11-0.49-10.27,0.48-15.33c0.44,4.83,0.37,9.68,0.33,14.53
		c25.02,0.32,50.07-0.26,75.08,0.32c-1.71,0.49-3.48,0.76-5.26,0.69C495.39,589.84,471.85,590.23,448.31,589.84z"/>
</g>
<g>
	<path fill="#D2232A" d="M448.79,574.51c25.04,0.21,50.08-0.07,75.11,0.14c0.05,4.9-0.18,9.82,0.3,14.71
		c-25.01-0.58-50.06,0-75.08-0.32C449.16,584.19,449.23,579.34,448.79,574.51z"/>
	<path fill="#D2232A" d="M497.24,643.36c24.9,0.06,49.81,0.08,74.71-0.01c0.3,5.08,0.33,10.18-0.09,15.27
		c-24.87-0.09-49.73-0.13-74.6,0.02l0.01-0.37c0.05-4.85,0.05-9.69-0.03-14.53V643.36z"/>
</g>
<g>
	<path fill="#1FA18A" d="M209.83,581.59c4.06-0.77,8.2-0.62,12.28-0.05C218.05,582.28,213.89,582.36,209.83,581.59z"/>
</g>
<g>
	<path fill="#20A088" d="M270.83,581.61c5.36-0.85,10.83-0.76,16.2-0.03C281.66,582.31,276.2,582.37,270.83,581.61z"/>
</g>
<g>
	<path fill="#97BE6F" d="M532.49,619.37c9.729-1.43,19.63-1.54,29.43-0.8c8.79,1.21,17.13,4.59,25,8.59
		c5.35,2.7,10.49,6.14,16.47,7.28c5.62,0.78,11.61-0.78,16.07-4.3c-0.95,2.62-1.56,5.34-2.08,8.08
		c-9.08,40.45-30.35,78.22-60.79,106.43c-26.27,24.59-59.58,41.25-94.71,48.71c-16.89,3.65-34.18,5.41-51.46,5.37
		c0.59-2.74,0.54-5.55-1.18-7.88c-0.22-6.14-0.19-12.28-0.04-18.42c0.67-1.45,1.37-2.89,1.81-4.42c0.37-2.04-1.43-3.32-2.78-4.44
		l0.78-0.33c0.22-6.13,0.07-12.26,0.17-18.38c7.36,2,15.62,3.1,21.31,8.66c5.65,5.28,12.48,10.24,20.52,10.44
		c6.49,0.53,13.07-3.3,15.63-9.32c3.23-7.36,0.78-16.15-4.21-22.12c-2.69-3.34-6.65-5.26-9.62-8.29c-2.12-2.16-2.53-5.76-0.93-8.32
		c6.8-2.96,14.71,0.52,21.46-2.66c8.66-4.48,10.13-17.48,3.99-24.6c-3.68-3.57-8.82-5.04-12.79-8.24
		c-7.03-5.53-14.27-11.06-19.63-18.31c-4.12-5.65-7.69-11.8-9.58-18.57c1.48,0.02,3,0.08,4.5,0.14c16.1,0.42,32.2,0.06,48.3,0.2
		c0.06,22.92-0.03,45.84,0.05,68.77c30.84-0.06,61.69-0.02,92.54-0.02c0.05-25.81-0.04-51.63,0.04-77.44
		c-16.08-0.08-32.16-0.01-48.24-0.04C532.49,629.88,532.49,624.62,532.49,619.37z"/>
</g>
<g>
	<path fill="#01A9AA" d="M339.8,654.05c1.19-2.17,2.48-4.27,3.81-6.35c1.77,2.06,3.51,4.15,5.09,6.37
		C345.73,654.17,342.76,654.15,339.8,654.05z"/>
</g>
<g>
	<path fill="#D5F4A3" d="M271.74,654.51c4.79-0.6,9.67-0.86,14.43,0.11C281.39,655.27,276.5,655.46,271.74,654.51z"/>
</g>
<g>
	<path fill="#1EA18B" d="M270.53,662.86c5.34-0.07,10.67-0.02,16.01,0.03C281.33,664.6,275.75,664.47,270.53,662.86z"/>
</g>
<g>
	<path fill="#1BA28F" d="M337.77,745.5c5.4-0.46,10.85-0.54,16.24,0.06C348.62,746.25,343.14,746.41,337.77,745.5z"/>
</g>
<g>
	<path fill="#D7A845" d="M391.47,807.66c3.41,0.1,6.83,0.26,10.23,0.66C398.44,809.76,394.53,809.43,391.47,807.66z"/>
</g>
<g>
	<path fill="#D7A846" d="M423.24,808.32c3.41-0.4,6.84-0.56,10.27-0.65C430.42,809.37,426.52,809.71,423.24,808.32z"/>
</g>
</svg>
