<?xml version="1.0" encoding="utf-8"?>
<!-- Generator: Adobe Illustrator 15.0.0, SVG Export Plug-In . SVG Version: 6.00 Build 0)  -->
<!DOCTYPE svg PUBLIC "-//W3C//DTD SVG 1.1//EN" "http://www.w3.org/Graphics/SVG/1.1/DTD/svg11.dtd">
<svg version="1.1" id="Layer_1" xmlns="http://www.w3.org/2000/svg" xmlns:xlink="http://www.w3.org/1999/xlink" x="0px" y="0px"
	 width="647.349px" height="744.023px" viewBox="0 0 647.349 744.023" enable-background="new 0 0 647.349 744.023"
	 xml:space="preserve">
<path fill="#10218B" d="M0,69.31c0,0,16.09-8.29,44.605-19.162v53.681h4.607c13.368-8.708,29.249-16.753,47.294-23.943V32.609
	c14.764-4.397,30.994-8.761,48.48-12.792v44.17c16.3-4.363,33.682-8.115,51.866-11.221V9.661c15.566-2.496,31.727-4.642,48.55-6.265
	v42.896c16.789-1.641,34.136-2.757,51.866-3.281V0.219c15.776-0.384,31.972-0.279,48.516,0.437v42.355
	c17.207,0.523,34.03,1.57,50.4,3.141v-41.5c15.95,1.868,32.146,4.363,48.515,7.504v40.348c18.464,3.124,36.056,6.911,52.564,11.273
	V24.599c16.056,4.502,32.216,9.721,48.48,15.689v39.284c18.883,7.469,35.462,15.863,49.248,25.043h2.653v-42.6
	c16.509,7.801,33.088,16.439,49.702,26.021v383.778c0,0-46.072,272.209-324.739,272.209C43.908,744.023,0,455.234,0,455.234V69.31z"
	/>
<path fill="#FFFFFF" d="M36.997,383.718v-9.058h37.939l6.632,2.339v-5.445h8.586v10.978c0,0.925-0.07,1.605-0.244,2.077
	c-0.104,0.488-0.384,0.855-0.803,1.029c-0.384,0.262-0.942,0.367-1.57,0.367H86.28h-4.712l-5.864-2.286H36.997z"/>
<path fill="#FFFFFF" d="M90.154,406.702v27.765c0,0.419-0.104,0.768-0.279,1.257c-0.14,0.488-0.453,0.907-0.907,1.256
	s-0.907,0.628-1.326,0.768c-0.35,0.209-0.698,0.279-1.048,0.279h-5.025v-3.56H49.527v-8.97h32.041v-18.795H90.154z"/>
<path fill="#FFFFFF" d="M84.186,470.487l-3.525-20.034l8.412-1.466l3.979,22.338c0.279,1.675,0.21,2.862-0.209,3.595
	c-0.419,0.803-0.838,1.431-1.151,1.885c-0.314,0.454-0.942,1.012-1.815,1.571c-0.907,0.628-1.745,0.978-2.548,1.117l-33.088,5.829
	l-1.641-9.25L84.186,470.487z"/>
<path fill="#FFFFFF" d="M83.139,512.266l-2.443-8.621l10.122-2.932l-1.71-6.003l8.271-2.374l3.421,12.006
	c0,0.384,0,0.733-0.035,1.117c-0.034,0.489-0.14,0.837-0.384,1.187c-0.209,0.279-0.594,0.559-1.082,0.768
	c-0.453,0.279-0.838,0.454-1.082,0.523L83.139,512.266z"/>
<path fill="#FFFFFF" d="M68.654,535.546l20.558-10.471l4.049,7.993l-20.523,10.506L68.654,535.546z M108.583,543.295l-11.378-22.303
	l7.644-3.909l13.647,26.806c0.418,0.803,0.593,1.466,0.593,2.06c-0.034,0.558-0.14,0.977-0.313,1.326
	c-0.175,0.279-0.385,0.698-0.664,1.187c-0.279,0.489-0.732,0.908-1.466,1.257l-32.39,16.509l-4.258-8.412L108.583,543.295z"/>
<path fill="#FFFFFF" d="M135.982,597.116l-26.038,24.292l-6.108-6.597l26.003-24.258L135.982,597.116z M142.475,578.338
	l20.802,22.268c0.419,0.489,0.698,0.873,0.873,1.187c0.174,0.279,0.209,0.628,0.14,1.047c-0.035,0.419-0.279,0.837-0.698,1.256
	c-0.489,0.384-0.838,0.698-1.082,0.908l-18.289,17.067c-1.327,1.222-2.688,1.99-4.154,2.338c-1.431,0.349-3.106,0.419-5.061,0.209
	c-1.989-0.209-3.63-0.558-4.921-1.187c-1.327-0.628-2.549-1.536-3.77-2.827l-2.688-2.897l6.247-5.829l1.92,1.99
	c0.838,0.942,1.989,1.396,3.455,1.396c1.501,0,2.443-0.07,2.897-0.209c0.453-0.174,0.907-0.488,1.396-0.907l13.159-12.286
	l-16.475-17.661L142.475,578.338z"/>
<path fill="#FFFFFF" d="M192.211,623.153c3.49,2.618,5.689,6.073,6.527,10.262c0.872,4.223,0,8.027-2.479,11.378l-15.776,20.907
	l-16.823-12.67l5.131-6.876l9.668,7.295l10.366-13.752c1.292-1.675,1.606-3.595,0.942-5.654c-0.559-2.094-1.779-3.804-3.664-5.235
	l-0.664-0.489c-1.744-1.291-3.629-1.885-5.724-1.815c-2.06,0.14-3.7,1.047-4.921,2.653l-15.532,20.593l-7.226-5.445l16.266-21.605
	c0.209-0.314,0.523-0.593,0.977-0.942c0.419-0.279,0.769-0.593,1.082-0.803c0.385-0.175,0.873-0.384,1.536-0.524
	c0.663-0.069,1.187-0.139,1.536-0.209l-4.572-3.421l5.165-6.841l6.876,5.166c0.489,0.419,0.803,0.698,0.942,0.978
	c0.21,0.279,0.35,0.698,0.419,1.396c0.104,0.628,0.07,1.117-0.035,1.396c-0.069,0.349-0.279,0.733-0.593,1.187
	c2.06-0.14,3.944,0,5.584,0.488C188.896,621.024,190.57,621.897,192.211,623.153"/>
<path fill="#FFFFFF" d="M234.863,656.73l-5.236-2.513l3.77-7.714l10.855,5.34c0.663,0.279,1.117,0.593,1.291,0.803
	c0.21,0.209,0.314,0.593,0.35,1.012c0.069,0.523,0,0.978-0.175,1.326c-0.14,0.384-0.279,0.768-0.523,1.117l-12.53,25.759
	c-0.488,1.047-1.152,1.814-1.989,2.373c-0.803,0.629-1.885,1.117-3.142,1.605c-1.291,0.419-2.408,0.629-3.386,0.698
	c-0.872,0.034-1.885-0.21-3.002-0.769l-24.571-12.006l3.734-7.714l5.969,2.932l10.296-21.116l-4.886-2.408l3.77-7.714l10.854,5.306
	c0.523,0.279,0.907,0.523,1.187,0.733c0.279,0.174,0.419,0.523,0.454,1.082c0.069,0.488,0.035,0.907-0.104,1.326
	c-0.14,0.384-0.314,0.838-0.523,1.187l-12.531,25.758l6.667,3.246c0.349,0.175,0.698,0.244,1.013,0.175
	c0.384,0,0.977-0.104,1.745-0.279c0.837-0.21,1.431-0.698,1.885-1.571L234.863,656.73z"/>
<path fill="#FFFFFF" d="M291.511,672.472l-1.676,32.006l-13.646-0.698l0.419-8.517l4.677,0.209l0.907-16.857l3.037-6.457
	l-3.875-0.21l0.489-8.552l28.062,1.467c1.361,0.07,2.408,0.314,3.106,0.803c0.629,0.35,1.222,0.873,1.78,1.535
	c0.488,0.559,0.942,1.326,1.326,2.339c0.35,1.013,0.523,1.92,0.454,2.723l-1.745,33.542l-8.971-0.454l1.676-32.075L291.511,672.472z
	"/>
<path fill="#FFFFFF" d="M347.041,683.466l-8.97,0.418l-0.559-10.54l-6.178,0.349l-0.488-8.586l12.46-0.629
	c0.35,0.07,0.733,0.176,1.082,0.279c0.454,0.105,0.768,0.314,1.013,0.629c0.244,0.279,0.419,0.697,0.593,1.222
	c0.14,0.523,0.244,0.872,0.244,1.187L347.041,683.466z"/>
<path fill="#FFFFFF" d="M377.617,666.992l-19.616,5.235l-2.198-8.272l21.849-5.863c1.676-0.454,2.862-0.454,3.665-0.104
	c0.768,0.349,1.466,0.698,1.955,0.977c0.488,0.314,1.116,0.838,1.745,1.675c0.663,0.838,1.081,1.641,1.291,2.443l8.69,32.46
	l-9.074,2.443L377.617,666.992z"/>
<path fill="#FFFFFF" d="M428.331,684.374l-8.831,3.211l-10.959-30.156l-5.166,1.885l-2.932-8.028l11.379-4.188
	c0.697-0.209,1.221-0.349,1.5-0.279c0.279-0.07,0.664,0.14,1.117,0.488c0.454,0.349,0.838,1.047,1.257,2.094L428.331,684.374z"/>
<path fill="#FFFFFF" d="M429.273,638.86l12.041-5.584c0.419-0.245,0.908-0.349,1.432-0.384c0.453-0.035,0.872,0.035,1.222,0.175
	c0.313,0.209,0.698,0.419,1.116,0.768c0.419,0.349,0.698,0.698,0.908,1.117l2.094,4.607l-1.745,0.803l0.454,7.539l10.61,22.722
	l-8.167,3.77l-10.541-22.687l-0.488-7.539l-5.341,2.443L429.273,638.86z"/>
<path fill="#FFFFFF" d="M476.672,658.406l-5.061-6.981l2.792-2.024l-8.621-7.749c-0.559-0.628-0.907-1.047-1.047-1.256
	c-0.908-1.187-1.432-2.862-1.641-5.026c-0.21-2.164,0.419-4.258,1.919-6.213l-11.622-4.119l8.83-6.422l20.209,7.539
	c0.663-0.907,1.013-1.815,1.082-2.757c0.279-1.466,0-2.757-0.768-3.804l-2.513-3.456l-3.142,2.269l-5.026-6.911l7.889-5.759
	c0.349-0.245,0.768-0.454,1.151-0.663c0.384-0.209,0.907-0.209,1.536,0c0.593,0.209,1.151,0.663,1.675,1.396l5.969,8.202
	c1.222,1.675,2.024,3.246,2.443,4.782c0.419,1.466,0.419,3.141-0.035,5.026c-0.488,1.745-1.222,3.351-2.339,4.607l17.313,6.771
	l-8.9,6.492l-25.759-9.947c-0.488,0.523-0.663,1.152-0.523,1.85c0.07,0.698,0.384,1.327,0.942,1.885l14.59,13.961L476.672,658.406z"
	/>
<path fill="#FFFFFF" d="M542.255,600.047l-17.94-14.52l5.654-6.981l17.94,14.52L542.255,600.047z M533.075,560.397l-15.776,19.476
	l-6.631-5.41l18.882-23.385c0.594-0.663,1.117-1.082,1.676-1.291c0.523-0.279,0.978-0.349,1.326-0.279
	c0.384,0,0.803,0.035,1.326,0.104c0.594,0.035,1.152,0.314,1.78,0.803l28.271,22.862l-5.934,7.33L533.075,560.397z"/>
<path fill="#FFFFFF" d="M560.858,510.067l4.153,2.199c2.373,1.256,3.944,2.618,4.677,4.083c0.803,1.466,1.292,3.246,1.501,5.201
	c0.175,1.919,0.21,2.897,0.175,2.932l10.052-3.037l7.574,4.049l-16.684,31.343l-7.574-4.014l10.61-20l-23.664,7.33l-5.34-2.862
	L544,541.759l-7.574-4.014l5.096-9.598c0.245-0.279,0.559-0.559,0.873-0.838c0.314-0.314,0.628-0.488,1.047-0.558
	c0.35-0.07,0.803,0,1.292,0.174c0.558,0.14,0.907,0.245,1.151,0.384l6.98,3.7l10.75-3.281l-0.069-1.85
	c-0.07-0.942-0.14-1.605-0.244-1.99c-0.07-0.489-0.314-1.117-0.803-1.955c-0.454-0.768-1.501-1.605-3.106-2.513l-2.758-1.431
	l-2.548,4.816l-7.574-4.014l5.62-10.646c0.244-0.244,0.488-0.523,0.768-0.803s0.559-0.489,0.873-0.489
	c0.384-0.07,0.837,0.07,1.466,0.349c0.663,0.279,1.012,0.419,1.116,0.454L560.858,510.067z"/>
<path fill="#FFFFFF" d="M568.014,478.305l-1.013,5.724l-8.411-1.466l2.059-11.937c0.14-0.698,0.279-1.187,0.489-1.466
	c0.14-0.209,0.453-0.454,0.872-0.593c0.454-0.209,0.908-0.279,1.292-0.209c0.419,0.035,0.872,0.104,1.256,0.174l28.202,4.957
	c1.117,0.209,2.06,0.628,2.862,1.256c0.768,0.628,1.57,1.501,2.304,2.618c0.803,1.082,1.361,2.129,1.641,3.037
	c0.313,0.838,0.349,1.85,0.104,3.071l-4.747,26.98l-8.412-1.501l1.117-6.562l-23.141-4.049l-0.942,5.375l-8.446-1.466l2.094-11.937
	c0.104-0.593,0.244-1.012,0.384-1.326c0.104-0.349,0.384-0.559,0.907-0.768c0.454-0.209,0.873-0.279,1.327-0.244
	c0.384,0,0.837,0.07,1.256,0.14l28.202,4.991l1.291-7.33c0.07-0.349,0.035-0.733-0.104-1.012c-0.104-0.384-0.349-0.873-0.733-1.64
	c-0.418-0.698-1.081-1.152-2.059-1.327L568.014,478.305z"/>
<path fill="#FFFFFF" d="M604.068,440.889l-0.488,9.424l-32.041-1.675l-0.279,5.41l-8.552-0.454l0.628-12.076
	c0.035-0.733,0.14-1.257,0.279-1.466c0.105-0.279,0.419-0.558,0.978-0.803c0.454-0.314,1.222-0.454,2.339-0.384L604.068,440.889z"/>
<path fill="#FFFFFF" d="M563.127,398.325c0-4.363,1.431-8.185,4.293-11.396s6.388-4.869,10.576-4.869h26.177v21.099h-8.551v-12.077
	H578.38c-2.095,0-3.84,0.855-5.096,2.601c-1.292,1.71-1.955,3.752-1.955,6.108v0.82c0,2.146,0.698,4.049,2.024,5.654
	c1.361,1.571,3.037,2.356,5.026,2.356h25.793v9.075h-27.015c-0.384,0-0.803-0.07-1.326-0.209c-0.489-0.14-0.942-0.279-1.326-0.418
	c-0.35-0.157-0.769-0.437-1.292-0.908c-0.523-0.454-0.872-0.82-1.117-1.1v5.724h-8.551v-8.621c0-0.611,0.069-1.029,0.175-1.326
	c0.104-0.314,0.384-0.715,0.872-1.169c0.419-0.471,0.803-0.715,1.152-0.837c0.349-0.14,0.768-0.209,1.291-0.209
	c-1.361-1.571-2.339-3.141-2.967-4.747C563.441,402.269,563.127,400.401,563.127,398.325"/>
<path fill="#FFFFFF" d="M275.036,514.709v-46.387c-8.063-38.289-31.273-56.089-31.273-95.478v-29.65
	c0-37.207-48.969-48.463-48.969-85.67c0-24.816,26.212-37.276,39.685-57.224c15.637-23.193,41.081-16.771,65.374-31.308
	c9.18-5.41,12.914-15.654,23.176-18.883c23.21-7.574,42.616-3.787,60.417-20.505h25.375c5.375,15.113-1.117,27.521,6.457,41.535
	c12.949,23.717,37.591,37.661,37.591,65.182c0,16.701-20.313,23.874-20.313,40.575v38.585c0,42.076-31.832,60.627-31.832,102.685
	c0,10.785-4.397,8.936-4.397,19.72c0,25.34-16.649,38.533-31.763,57.939c-19.93,25.34-42.581,39.371-75.495,39.371
	C279.364,535.197,277.724,523.889,275.036,514.709"/>
<path fill="none" stroke="#FFFFFF" stroke-width="17" stroke-miterlimit="3.864" d="M389.379,153.793
	c5.062-7.294,2.792-14.903,6.736-22.547c3.071-5.619,9.773-2.967,13.438-7.94c4.747-6.649,3.072-13.577,2.234-22.547
	 M298.631,499.91c-6.422,4.328-20.139,12.251-20.139,21.256c0,9.214,10.052,11.937,10.052,21.151
	c0,12.949-15.812,11.518-19.022,23.874c-4.468,17.242,21.291,33.193,17.94,47.748"/>
</svg>
