<?xml version="1.0" encoding="UTF-8"?>
<!-- Generator: Adobe Illustrator 15.0.0, SVG Export Plug-In . SVG Version: 6.00 Build 0)  -->
<!DOCTYPE svg PUBLIC "-//W3C//DTD SVG 1.1//EN" "http://www.w3.org/Graphics/SVG/1.1/DTD/svg11.dtd">
<svg version="1.1" id="Layer_1" xmlns="http://www.w3.org/2000/svg" xmlns:xlink="http://www.w3.org/1999/xlink" x="0px" y="0px" width="552.055px" height="858.086px" viewBox="0 0 552.055 858.086" enable-background="new 0 0 552.055 858.086" xml:space="preserve">
<g>
	<path fill="#015504" d="M31.096,29.851c3.84-0.1,7.69-0.09,11.54-0.12c0.21,48.96,0,97.91,0.1,146.87c0.01,2.7-0.05,5.39-0.24,8.09   c-4.05-3.44-7.79-7.24-11.4-11.13V29.851z"/>
	<path fill="#015504" d="M52.506,29.691c3.66,0.09,7.31,0.08,10.96,0.1c0.24,55.94,0.02,111.88,0.11,167.82   c0.01,2.52-0.01,5.05-0.16,7.57c-4.23-2.78-7.79-6.67-10.94-10.55C52.366,139.661,52.296,84.671,52.506,29.691z"/>
	<path fill="#015504" d="M72.736,29.931c3.73-0.23,7.46-0.18,11.2-0.16c0.01,60.96-0.03,121.93,0.02,182.89   c0.36,3.48-2.89,6.4-5.77,7.69c-2.19-1.25-4.83-3.22-5.36-5.83C72.726,152.99,72.906,91.461,72.736,29.931z"/>
	<path fill="#015504" d="M93.556,29.831c3.68-0.08,7.37-0.05,11.06-0.11c0.28,53.3,0,106.6,0.14,159.9   c-0.04,1.62,0.09,3.27-0.3,4.87c-3.25,3.99-7.04,7.51-10.87,10.93C93.596,146.891,93.656,88.361,93.556,29.831z"/>
	<path fill="#015504" d="M113.816,29.981c3.93-0.32,7.87-0.25,11.81-0.12c-0.13,45.25-0.02,90.5-0.05,135.74   c-0.1,2.79,0.3,5.64-0.28,8.39c-3.68,3.62-7.23,7.46-11.38,10.55C113.816,133.021,114.036,81.501,113.816,29.981z"/>
	<path fill="#015504" d="M31.096,193.481c1.96,1.74,4.03,3.38,5.89,5.24c11.46,11.52,22.95,23.01,34.48,34.47   c1.6,1.3,1.19,3.52,1.3,5.34c-0.13,10.46,0.14,20.93-0.17,31.4c-14.22-13.42-27.69-27.63-41.5-41.47V193.481z"/>
	<path fill="#015504" d="M123.375,195.51c0.53-0.21,1.6-0.63,2.14-0.84c0.05,11.31,0.18,22.63-0.05,33.94   c-2.28,3.13-5.32,5.6-7.95,8.43c-11.12,10.85-21.6,22.37-33.06,32.86c-0.19-10.45-0.02-20.89-0.11-31.34   c0.13-1.84-0.4-4.16,1.3-5.45C98.266,220.631,110.696,207.941,123.375,195.51z"/>
	<g>
		<path fill="#015504" d="M300.355,237.811c16.3-10.32,36.13-15.23,55.35-12.89c12.67,1.26,24.86,5.78,35.86,12.1    c1.07,0.74,2.24-0.2,3.21-0.65c9.89-5.81,20.96-9.64,32.32-11.21c8.94-0.37,18.04-0.84,26.85,1    c16.35,3.25,32.02,10.87,43.81,22.78c16.37,15.54,25.26,38.23,24.99,60.68c-0.03,156,0.1,312-0.15,468    c-1.3,12.52-6.85,24.74-15.95,33.53c-8.43,8.35-19.8,13.54-31.51,15.04c-14.01,0.34-28.03,0.06-42.04,0.15    c-101.33,0.01-202.66,0-303.99,0.01c-13.26,0.56-26.55-4.53-36.43-13.31c-11.29-9.75-18.2-24.49-18.15-39.44    c0.06-26.09-0.08-52.17,0.07-78.25c3.32-0.04,6.63-0.04,9.95,0.01c0.14,26.43,0.01,52.87,0.06,79.3    c0.56,21.67,19.76,41.08,41.49,41.57c114.33,0.04,228.66-0.01,342.99,0.02c19.22,0.42,37.67-13.88,42.03-32.63    c1.35-4.55,1.63-9.3,1.54-14.01c-0.06-154,0.12-308.01-0.14-462.01c-0.74-17.57-6.97-35.28-19.24-48.14    c-15.85-17.55-40.41-26.56-63.85-24c-9.48,1.53-19.2,3.79-27.36,9.05c15.21,11.97,26.14,29.42,29.89,48.45    c1.42,8.81,2.49,17.88,0.83,26.75c-1.29,13.36-6.7,26.72-16.82,35.82c-6.98,6.25-16.48,9.51-25.83,8.79    c-10.72-0.34-20.61-6.39-26.99-14.82c-9.59-12.38-12.42-28.63-11.63-43.95c1.15-23.64,13.34-46.2,31.62-61.07    c-6.21-3.99-13.45-6.03-20.53-7.89c-8.23-2.18-16.84-1.73-25.25-1.35c-10.21,1.66-20.53,4.53-29.23,10.3    c17.37,13.53,28.67,34.28,31.41,56.05c1.01,13.2,0.76,27.16-5.43,39.2c-4.39,9.66-12.52,17.64-22.49,21.39    c-10.3,3.62-22.38,2.6-31.55-3.51c-10.33-6.74-16.96-18.18-19.21-30.17c-2.49-12.75-2.06-26.14,1.12-38.74    c4.3-16.78,14.13-31.84,26.83-43.49c-0.04-0.31-0.12-0.92-0.16-1.22c-7.6-4.08-16.04-6.51-24.55-7.84    c-14.79-1.11-30.5-0.96-43.84,6.39c-17.62,8.99-29.27,25.92-38.22,42.99c-1.39,2.41-2.37,6.34-5.92,5.94    c-4.06,0.51-6.89-4.41-4.87-7.81c7.34-15.29,17.22-29.72,30.42-40.53c14.26-11.88,32.86-18.51,51.43-18.18    c15.28-0.2,30.57,4.11,43.78,11.73C297.926,238.45,299.286,238.62,300.355,237.811z M391.625,251.191    c-19.02,14.54-31.07,38.42-29.93,62.5c0.82,9.71,2.97,19.66,8.54,27.83c4.87,6.73,12.32,12.34,20.9,12.6    c9.78,0.64,19-5.52,23.92-13.69c7.98-11.93,8.57-26.94,7.48-40.8c-2.37-18.77-12.99-35.96-27.64-47.73    C394.036,251.22,392.625,250.291,391.625,251.191z M269.596,315.66c0.37,10.43,3.39,21.12,10.31,29.14    c5.71,6.59,14.77,10.6,23.5,8.93c9.32-1.58,16.86-8.67,20.96-16.92c5.51-10.56,6.17-22.91,4.84-34.54    c-2.72-19.99-13.75-38.71-30.14-50.53C279.616,266.47,268.246,291.301,269.596,315.66z"/>
	</g>
	<path fill="#015504" d="M31.096,253.49c3.08,2.61,6.13,5.27,8.9,8.22c9.98,10.02,19.96,20.04,30.01,30   c1.28,1.36,2.99,2.77,2.71,4.87c-0.01,11.33,0.15,22.68-0.11,34.01c-3.59-3.24-6.92-6.75-10.15-10.34   c-10.32-10.73-21.19-20.91-31.36-31.78V253.49z"/>
	<path fill="#015504" d="M87.686,291.2c12.71-12.4,24.93-25.29,37.81-37.5c0.04,11.78,0.3,23.58-0.11,35.34   c-13.4,14.07-27.47,27.51-40.96,41.51c-0.1-11.3-0.06-22.61-0.04-33.92C84.056,294.211,86.276,292.771,87.686,291.2z"/>
	<path fill="#015504" d="M87.236,351.751c12.86-12.57,25.32-25.55,38.25-38.04c0.1,11.81,0.22,23.64-0.03,35.44   c-9.24,9.99-19.37,19.17-28.64,29.15c-4.05,4.21-8.13,8.38-12.45,12.31c0.02-11.32-0.01-22.65,0.01-33.98   C84.006,354.47,86.006,353.171,87.236,351.751z"/>
	<path fill="#015504" d="M31.096,314.041c6.12,5.04,11.39,10.99,17.09,16.49c8.02,8.27,16.5,16.13,24.32,24.59   c0.49,11.81,0.23,23.7,0.08,35.54c-7.82-7.35-15.39-14.99-22.63-22.91c-6.21-6.44-12.8-12.52-18.86-19.1V314.041z"/>
	<path fill="#015504" d="M31.096,374.031c5.75,4.75,10.7,10.35,16.05,15.52c8.37,8.6,17.17,16.81,25.34,25.58   c0.54,11.86,0.21,23.8,0.13,35.69c-14.05-13.81-27.96-27.77-41.52-42.05V374.031z"/>
	<path fill="#015504" d="M122.456,376.841c0.91-0.9,1.97-1.6,3.03-2.3c0.21,11.57,0,23.14,0.11,34.71   c-13.78,13.77-27.04,28.05-41.21,41.41c0.13-11.86-0.3-23.76,0.19-35.6C97.016,402.14,110.026,389.771,122.456,376.841z"/>
	<path fill="#015504" d="M200.066,408.43c18.71-4.31,37.21-9.48,56-13.41c-24.14,9.19-48.37,18.12-72.58,27.12   c-7.32,2.58-14.45,5.74-21.92,7.87c-0.17-3.95-0.08-7.9-0.18-11.84C174.176,414.561,187.216,411.821,200.066,408.43z"/>
	<path fill="#015504" d="M264.605,396.051c2.97-1.55,6.38-1.11,9.6-1.05c-0.39,1.78-2.23,2.37-3.61,3.16   c-31.02,15.63-61.99,31.38-93.03,46.97c-5.2,2.86-10.51,5.53-15.98,7.84c-0.23-4.51-0.13-9.03-0.1-13.54   C195.776,424.791,230.226,410.49,264.605,396.051z"/>
	<path fill="#015504" d="M161.566,460.601c40.94-21.48,81.74-43.22,122.63-64.8c4.67-1.53,9.81-0.85,14.65-0.54   c-2.6,2.88-6.23,4.41-9.45,6.45c-40.12,23.61-80.09,47.46-120.3,70.91c-2.4,1.53-4.88,2.95-7.52,4.03   C161.375,471.301,161.396,465.95,161.566,460.601z"/>
	<path fill="#015504" d="M309.266,396.821c4.23-3.14,9.83-1.63,14.71-1.68c-1.43,2.29-3.48,4.07-5.74,5.5   c-47.87,32.76-95.55,65.8-143.32,98.68c-4.43,2.84-8.46,6.41-13.36,8.4c-0.17-6.38-0.11-12.78-0.09-19.17   c-0.33-1.98,1.97-2.54,3.19-3.49C212.855,455.651,261.066,426.24,309.266,396.821z"/>
	<path fill="#015504" d="M317.736,407.351c5.46-4.06,10.78-8.33,16.44-12.11c4-0.68,8.11-0.24,12.15-0.14   c-0.88,1.66-2.21,2.97-3.66,4.14c-56.92,48.37-113.93,96.64-170.89,144.97c-3.27,2.83-6.46,5.78-10.15,8.06   c-0.33-9.24-0.17-18.48-0.09-27.72C213.576,485.45,265.716,446.481,317.736,407.351z"/>
	<path fill="#015504" d="M239.746,502.191c40-35.47,79.37-71.64,119.38-107.09c5.65-0.35,11.33-0.23,16.98,0.04   c-2.3,3.75-5.72,6.6-8.61,9.88c-30.5,31.83-60.84,63.82-91.35,95.64c-10.58,11.75-22.08,22.61-32.62,34.39   c-10.27,10.42-20.03,21.32-30.39,31.64c-15,15.96-30.1,31.82-45.35,47.54c-1.93,1.99-3.51,4.51-6.22,5.53   c-0.2-15.71-0.13-31.43-0.04-47.14C187.616,549.171,213.756,525.76,239.746,502.191z"/>
	<path fill="#015504" d="M362.756,420.251c7.58-8.24,14.58-17.03,22.41-25.03c4.24-0.62,8.56-0.21,12.84-0.19   c-0.31,1.69-0.91,3.31-1.94,4.7c-57.83,82.78-115.76,165.49-173.53,248.31c-1.62,2.48-4.91,1.86-7.44,2.05   c-14-0.01-28,0.05-42-0.03c-3.74-0.24-7.63,0.42-11.19-1.06C228.625,572.551,295.916,496.591,362.756,420.251z"/>
	<path fill="#015504" d="M411.276,395.331c4.42-0.92,9.08-0.2,13.59-0.3c-0.01,3.92-2.19,7.24-3.74,10.69   c-39.17,81.47-78.4,162.9-117.62,244.34c-18.48,0.04-36.95,0.09-55.42-0.02c1.7-4.15,4.51-7.71,6.81-11.53   C307.046,557.461,359.036,476.311,411.276,395.331z"/>
	<path fill="#015504" d="M398.736,482.901c12.42-29.31,24.18-58.91,37.25-87.94c5.3-0.04,10.61-0.05,15.92,0   c-0.12,1.88-0.18,3.77-0.44,5.64c-9.42,44.67-20.34,89-30.98,133.38c-9.22,38.72-19.03,77.3-28.28,116.02   c-20.63,0.21-41.26,0.07-61.89,0.07c6.82-18.01,14.48-35.69,21.7-53.54C367.466,558.601,383.236,520.811,398.736,482.901z"/>
	<path fill="#015504" d="M457.776,395.14c6.3-0.39,12.61-0.19,18.91-0.13c0.18,57.86,0.02,115.73,0.08,173.6   c0.08,7-0.39,14.04,0.67,21c-0.03,20.05,0.15,40.11-0.09,60.16c-20.97-0.02-41.93,0.4-62.89,0.28c0.1-3.7,1.01-7.29,1.7-10.9   C429.866,557.781,443.986,476.49,457.776,395.14z"/>
	<path fill="#015504" d="M206.086,397.551c6.03-0.26,11.98-1.75,18.03-1.28c-2.14,1.82-5.08,1.84-7.67,2.48   c-18.32,3.72-36.54,7.96-54.89,11.51c-0.1-2.71-0.1-5.41-0.06-8.11C176.355,400.68,191.216,399.021,206.086,397.551z"/>
	<path fill="#015504" d="M31.096,434.151c5.06,4.06,9.41,8.9,14.03,13.43c9.06,9.25,18.51,18.14,27.33,27.6   c0.59,11.85,0.26,23.79,0.13,35.66c-9.48-8.75-18.11-18.38-27.41-27.32c-4.63-4.94-9.9-9.3-14.08-14.64V434.151z"/>
	<path fill="#015504" d="M118.536,441.051c2.22-2.28,4.43-4.59,6.97-6.53c0.14,11.3,0.05,22.61,0.05,33.91   c0.13,1.26-1.05,2.07-1.74,2.97c-9.55,9.76-19.19,19.42-28.86,29.06c-3.52,3.43-6.59,7.32-10.46,10.38   c-0.29-10.42-0.02-20.86-0.15-31.28c0.16-1.86-0.46-4.2,1.22-5.54C96.566,463.051,107.556,452.051,118.536,441.051z"/>
	<path fill="#015504" d="M31.096,494.421c13.18,11.89,25.14,25.05,37.96,37.32c1.55,1.68,3.98,3.21,3.67,5.84   c-0.03,11.1,0.16,22.22-0.14,33.32c-14.27-13.38-27.62-27.73-41.49-41.53V494.421z"/>
	<path fill="#015504" d="M88.056,531.571c12.59-12.24,24.61-25.09,37.45-37.06c0.14,11.86,0.05,23.71,0.05,35.57   c-13.96,13.33-26.94,27.67-41.08,40.81c-0.23-11.09-0.06-22.18-0.11-33.26C83.986,534.93,86.456,533.311,88.056,531.571z"/>
	<path fill="#015504" d="M31.096,554.521c13.19,11.83,25.09,25.02,37.91,37.24c1.55,1.68,4,3.19,3.71,5.81   c0.01,11.15,0.13,22.3-0.09,33.45c-1.08-0.89-2.14-1.79-3.15-2.74c-12.76-12.94-25.72-25.7-38.38-38.74V554.521z"/>
	<path fill="#015504" d="M87.125,592.651c12.93-12.52,25.26-25.64,38.37-37.95c0.16,11.79,0.05,23.58,0.06,35.38   c-13.8,13.71-27.39,27.63-41.19,41.35c0.08-11.59-0.11-23.19,0.07-34.77C84.366,594.851,86.086,593.851,87.125,592.651z"/>
	<path fill="#015504" d="M31.096,614.901c3.38,2.47,6.52,5.27,9.37,8.35c9.82,9.84,19.62,19.71,29.51,29.48   c1.26,1.37,3.01,2.76,2.74,4.85c-0.01,11.35,0.15,22.7-0.12,34.05c-8.35-7.5-15.56-16.13-23.62-23.91   c-5.92-6.06-12.12-11.85-17.88-18.07V614.901z"/>
	<path fill="#015504" d="M117.746,622.26c2.46-2.41,4.61-5.27,7.78-6.79c-0.03,11.52,0.28,23.08-0.14,34.6   c-11.35,12.24-23.66,23.57-35.12,35.72c-1.9,1.96-3.89,3.86-5.86,5.77c-0.05-11.31-0.05-22.62-0.02-33.93   c-0.3-1.88,1.19-3.17,2.34-4.38C97.116,642.97,107.396,632.581,117.746,622.26z"/>
	<path fill="#015504" d="M454.736,682.191c2-3.84,5.74-7.36,10.37-7.03c4.89-0.49,9.04,3.56,10.78,7.81   c3.05,6.5,1.98,15.07-3.27,20.14c-3.57,3.06-8.58,2.95-13,2.65c-0.12-1.93-0.2-3.86-0.25-5.78c2.24-0.2,4.99,0.51,6.68-1.42   c3.13-2.71,2.71-7.18,2.51-10.9c-0.11-3.65-4.06-7.5-7.63-5.14c-6.96,5.46-5.05,15.38-8.4,22.64c-2.67-0.12-5.34-0.12-8.01-0.15   c0.71-5.2,2.33-10.24,2.81-15.46c-0.07-4.68-2.14-9.01-3.24-13.49c2.95,0,5.91,0,8.87,0.01   C453.625,678.081,454.246,680.111,454.736,682.191z"/>
	<path fill="#015504" d="M200.286,676.021c2.64,0.05,5.28,0.05,7.93,0.03c0.25,5.17,0.3,10.37,0.07,15.55   c-1.73,2.48-5.27,2.25-7.95,2.85C200.176,688.301,200.256,682.16,200.286,676.021z"/>
	<path fill="#015504" d="M241.855,676.2c2.94-0.15,5.87-0.14,8.81-0.14c0,9.67,0.04,19.35-0.03,29.02   c-2.92-0.03-5.84-0.03-8.75-0.13C241.855,695.37,241.906,685.791,241.855,676.2z"/>
	<path fill="#015504" d="M297.446,676.061c2.78,0.01,5.56,0.01,8.35-0.01c-0.02,3.12,0.24,6.26-0.18,9.37   c-0.64,3.46-3.38,5.91-5.76,8.28c2.27,3.78,5.13,7.2,6.96,11.24c-2.93,0.1-5.86,0.23-8.79,0.1c-4.3-4.37-6.71-10.31-10.98-14.75   c-3.92,3.94-1.6,9.86-2.34,14.76c-2.72,0-5.43,0-8.15-0.01c-0.05-5.57-1.1-12.3,3.43-16.54c0.85-1.22,2.83-1.97,2.59-3.69   c-2.11-3.02-4.88-5.53-6.96-8.58c3.24-0.22,6.48-0.15,9.73-0.24c4.01,3.96,6.85,8.94,11.06,12.71   C297.736,684.611,297.436,680.291,297.446,676.061z"/>
	<path fill="#015504" d="M359.916,676.171c3.26-0.1,6.53-0.26,9.8-0.02c3.33,3.4,5.27,7.89,8.3,11.56c0.6-0.2,1.82-0.58,2.42-0.78   c0.03-3.62,0.02-7.24,0.09-10.85c2.65-0.02,5.31-0.02,7.96,0.03c0,3.6,0.4,7.34-0.95,10.78c-0.64,2.76-3.31,4.14-5.17,6.01   c0.86,2.86,3.54,4.75,5,7.32c0.28,1.58,0.16,3.19,0.2,4.8c-9,0.12-18-0.01-27,0.06c-0.03-2.06-0.05-4.12-0.09-6.17   c5.27-0.14,10.55,0.03,15.82-0.18C371.286,690.881,364.726,684.12,359.916,676.171z"/>
	<path fill="#015504" d="M395.146,676.061c2.85,0,5.71,0.01,8.57,0.03c1.64,7.48,3.29,14.96,4.97,22.43   c3.29,0.09,5.64-2.8,5.86-5.91c0.41-5.46,0.12-10.95,0.2-16.42c2.89-0.14,5.79-0.14,8.68-0.06c-0.7,7.09,1.68,14.96-2.38,21.35   c-2.55,4.42-7.49,6.46-12.1,8.01c-4.79,1.53-9.39,3.65-14.29,4.85c-0.03-1.95-0.1-3.88,0.06-5.81c1.88-1.16,3.98-1.88,6.03-2.65   C399.256,693.191,396.046,684.841,395.146,676.061z"/>
	<path fill="#015504" d="M429.786,676.111c2.81-0.04,5.62-0.04,8.44-0.08c0.21,9.68,0.49,19.42-0.15,29.08   c-2.75-0.05-5.5-0.07-8.24-0.13C429.796,695.361,429.906,685.731,429.786,676.111z"/>
	<path fill="#015504" d="M160.706,676.231c7.8-0.34,15.61-0.12,23.42-0.16c5.2-0.53,9.95,4.37,9.6,9.51   c0.04,6.48,0.09,12.97-0.08,19.46c-2.56-0.42-6,0.96-8.02-0.7c-0.37-5.91,0.14-11.84-0.19-17.75c-1.39-4.84-6.77-5.09-10.92-4.61   c-0.11,5.19,0.1,10.38-0.09,15.57c-0.1,3.26-2.4,6.18-5.34,7.44c-2.95,0.59-6.11,0.46-8.82-0.93c0.11-1.6,0.21-3.2,0.29-4.79   c2.2-0.06,5.33,0.23,5.71-2.67c0.32-4.86,0.05-9.73,0.08-14.59c-1.71-0.05-3.43-0.07-5.14-0.06   C160.855,680.061,160.756,678.131,160.706,676.231z"/>
	<path fill="#015504" d="M213.666,676.12c6.25,0.43,13.22-1.58,18.81,2.05c3.44,2.17,3.83,6.74,3.87,10.42   c-0.14,5.51,0.31,11.05-0.36,16.54c-2.77-0.07-5.53-0.1-8.29-0.12c-0.1-6.15,0.08-12.3-0.06-18.44c0.14-1.9-1.32-3.69-3.02-4.33   c-3.6-0.55-7.27-0.24-10.91-0.33C213.686,679.97,213.676,678.041,213.666,676.12z"/>
	<path fill="#015504" d="M254.546,676.131c5.96-0.1,11.92-0.12,17.89,0c-0.1,1.75,0.18,3.57-0.3,5.3c-2.1,1.69-5.04,3.14-5.41,6.12   c-0.44,5.81-0.03,11.64-0.23,17.46c-2.73,0.03-5.46,0.04-8.19,0.09c-0.92-7.74-1.95-16.98,3.92-23.14   c-2.55-0.02-5.1-0.05-7.65-0.07C254.546,679.961,254.546,678.041,254.546,676.131z"/>
	<path fill="#015504" d="M326.416,676.091c5.91-0.01,11.82-0.1,17.73,0.01c5.12-0.07,9.72,4.54,9.6,9.67   c0.12,6.44,0.06,12.88-0.02,19.33c-2.67-0.04-5.33-0.07-7.99-0.1c-0.07-5.82,0.06-11.63-0.05-17.44c0.19-2.63-2.01-5.55-4.75-5.5   c-4.82-0.3-9.65-0.05-14.47-0.13C326.426,679.97,326.406,678.031,326.416,676.091z"/>
	<path fill="#015504" d="M326.486,689.211c2.69-0.71,5.41-1.3,8.14-1.84c0.19,5.89,0.16,11.78,0.01,17.68c-2.69,0-5.37,0-8.06,0   C326.396,699.771,326.486,694.49,326.486,689.211z"/>
	<path fill="#015504" d="M111.016,703.311c9.48-0.1,18.96-0.07,28.44-0.02c0.1,6.71,0.09,13.43,0.02,20.15   c11.69,0.31,23.4-0.33,35.07,0.37c-0.46,5.65,0.99,11.63-1.39,16.99c-6.31,16.73-12.62,33.46-18.84,50.23   c-10.7,0.17-21.4,0.11-32.09,0.04c6.87-16.38,14.33-32.52,20.82-49.04c-10.66-0.19-21.34,0.04-32.01-0.13   C110.906,729.041,110.956,716.171,111.016,703.311z"/>
	<path fill="#015504" d="M184.396,723.751c9.99-0.37,20.01-0.47,30,0.09c0.17,20.93,0,41.86,0.09,62.8c0.15,1.6-0.43,3.1-0.99,4.58   c-9.46-0.28-18.92,0.04-28.38-0.14l-0.6-0.63C184.276,768.22,184.526,745.981,184.396,723.751z"/>
	<path fill="#015504" d="M224.646,723.821c7.8-0.6,15.63-0.2,23.44-0.32c8.39-0.1,17.32,0.86,24.32,5.92   c8.91,6.22,12.62,17.68,12.33,28.18c0.41,9.4-2.26,19.65-9.59,26.01c-6.65,5.54-15.56,7.46-24.03,7.49   c-8.81,0.05-17.61,0-26.42,0.02c0.03-5.61,0.02-11.22,0.01-16.83c5.46,0.01,10.93,0.12,16.4-0.04c4.52-0.02,9.13-2.19,11.55-6.09   c2.96-4.59,2.29-10.38,2-15.56c-0.36-5.86-5.8-10.46-11.54-10.57c-6.12-0.2-12.25,0-18.37-0.1   C224.666,735.89,224.786,729.851,224.646,723.821z"/>
	<path fill="#015504" d="M294.855,723.691c9.14-0.27,18.3-0.4,27.43,0.12c0.17,11.6-0.01,23.22,0.08,34.83   c-0.01,6.63,4.09,13.04,10.19,15.71c8.26,3.59,18.08,3.51,26.32-0.09c6.03-2.67,9.88-8.97,10.07-15.49   c0.87-11.65,0.19-23.36,0.38-35.03c9.01-0.39,18.04-0.34,27.05-0.04c0.12,10.97,0,21.94,0.06,32.92   c-0.03,9.43-3.36,19.41-11.03,25.36c-10.97,8.89-25.63,10.94-39.31,11.11c-14.03-0.06-28.95-2.38-40.29-11.25   c-7.14-5.42-10.9-14.37-10.98-23.2C294.826,746.99,294.766,735.341,294.855,723.691z"/>
	<path fill="#015504" d="M332.066,723.751c9.04-0.4,18.11-0.38,27.14-0.01c-0.12,13.15,0.5,26.34-0.32,39.46   c-8.86,2.18-17.7,4.46-26.63,6.32C331.676,754.281,332.016,739.001,332.066,723.751z"/>
	<path fill="#015504" d="M405.396,723.881c3.56-0.16,7.13-0.49,10.7-0.29c6.55,0.42,13.17-0.74,19.69,0.34   c6.76,8.24,12.22,17.62,19.48,25.47c0.98-8.52,0.32-17.1,0.57-25.64c9.34-0.4,18.71-0.4,28.05-0.02   c-0.23,7.21,0.41,14.46-0.48,21.64c-1.39,8.04-8.05,13.8-15.19,16.97c0.97,3.37,3.53,5.9,5.34,8.82   c4.29,6.54,9.02,12.85,12.47,19.89c-9.54,0.14-19.07,0-28.61,0.08c-5.98-10.8-11.88-21.76-19.34-31.63   c-1.44,8.96-0.44,18.09-0.71,27.12c-0.29,1.41,0.5,3.77-1.22,4.45c-8.82,0.18-17.64-0.12-26.46,0.14   c-1.47-3.71-0.73-7.74-0.88-11.61c-0.13-7.24,0.07-14.97,3.86-21.38c2.86-4.95,7.46-8.53,12.17-11.62   C418.276,739.111,411.886,731.45,405.396,723.881z"/>
</g>
</svg>