<?xml version="1.0" encoding="utf-8"?>
<!-- Generator: Adobe Illustrator 15.0.0, SVG Export Plug-In . SVG Version: 6.00 Build 0)  -->
<!DOCTYPE svg PUBLIC "-//W3C//DTD SVG 1.1//EN" "http://www.w3.org/Graphics/SVG/1.1/DTD/svg11.dtd">
<svg version="1.1" id="Layer_1" xmlns="http://www.w3.org/2000/svg" xmlns:xlink="http://www.w3.org/1999/xlink" x="0px" y="0px"
	 width="1065px" height="1185px" viewBox="0 0 1065 1185" enable-background="new 0 0 1065 1185" xml:space="preserve">
<path fill-rule="evenodd" clip-rule="evenodd" fill="#231F20" d="M426.681,869.168h182.633l257.905,19.67
	c-5.195,12.09-8.512,23.28-13.936,35.647l-240.661-44.109l233.407,58.617c-8.496,17.546-19.654,34.781-30.551,50.514
	L574.843,881.567l233.39,117.595c-11.207,13.609-24.504,28.443-38.113,40.811c-49.273,12.105-67.406-32.037-107.914-17.203
	c-49.583,17.203-60.161,30.534-142.402,4.836c-24.474-7.271-48.08,9.655-74.987,10.864c-46.839,5.146-75.266-14.508-94.306-12.105
	c-21.173,1.241-42.036,7.27-62.89,13.608c-13.291-13.608-24.783-27.201-36.596-43.212l229.471-115.193L243.787,985.864
	c-11.19-13.593-19.947-29.325-28.41-45.336l224.619-58.961L209.03,924.485c-4.844-10.864-9.696-23.558-12.105-35.647
	L426.681,869.168z M735.656,1065.671c-25.682,2.434-61.363-20.846-90.713-11.175c-29.308,12.399-56.509,13.608-87.345,7.254
	c-36.873-15.716-81.024-8.446-118.804,5.146c-25.69,6.045-56.534-16.026-81.023-13.592c-16.329-3.644-28.435,3.594-43.245,7.531
	c-3.635-3.938-9.671-7.531-14.507-9.966c57.752-24.505,107.939,14.802,164.474-1.209c31.727-13.608,66.198-9.688,96.724,3.644
	c27.218,4.819,51.405,2.418,76.499-7.27c29.015-18.429,84.634,10.863,116.384,8.462
	C749.281,1056.897,741.717,1061.75,735.656,1065.671 M436.369,1117.067c19.653-4.819,46.544-14.214,67.097-12.073
	c38.408,1.209,60.186,17.22,87.689,14.802c34.16-3.611,62.276-25.683,80.72-18.445c-42.94,19.638-79.821,38.099-125.165,27.218
	c-35.664-9.966-36.881-16.32-81.024-5.146C454.511,1122.214,443.614,1119.796,436.369,1117.067 M343.853,1078.985
	c44.764-1.209,81.325,18.444,126.988,1.503c33.858-13.593,63.478,0,96.731,6.045c14.826,5.162,23.583,2.418,38.106,0
	c34.128-6.045,67.415-23.28,99.442-2.729c4.854-2.401,9.689-3.316,14.508-6.028c-64.965-42.934-98.242,23.574-192.557-10.881
	c-50.498-8.772-103.103,29.619-151.167,0c-17.244-2.434-34.463-1.225-50.188,1.209L343.853,1078.985z M692.73,1091.695
	c-4.844,2.418-7.238,3.316-12.375,5.734c-25.691-25.698-36.595,25.993-114.001,9.966c-22.055-3.316-41.684-14.817-77.38-10.881
	c-28.116,3.627-58.952,13.315-87.077,9.688c-17.211-7.271-30.844-14.508-48.047-22.398c10.864-0.882,25.976,0,33.229,5.146
	c28.442,9.981,60.169,9.981,89.494-1.209c52.605-16.011,109.132,29.325,165.993-3.938
	C655.865,1076.567,683.066,1078.985,692.73,1091.695 M551.562,887.629c51.691,45.63,127.575,98.235,178.964,142.378
	c13.609,7.254,7.564,2.418,23.574,2.418L551.562,887.629z M614.116,1032.425h4.844c0,0,1.512-2.418,2.427-2.418
	c-30.231-47.786-61.379-94.33-93.416-142.378l83.72,144.796H614.116z M539.153,1028.814l-29.324-141.186l20.862,137.542l7.262,4.836
	L539.153,1028.814z M466.911,1028.814c1.209-1.209,2.394,0,4.812-1.209l26.915-139.977l-34.145,142.378L466.911,1028.814z
	 M397.062,1026.364L491.4,887.629L388.616,1022.77C388.616,1025.171,393.125,1025.171,397.062,1026.364 M312.109,1026.364
	c1.209,0,142.401-116.369,170.804-139.944l-194.076,143.587L312.109,1026.364z M910.119,243.359
	c12.074-29.635,38.082-46.854,60.137-69.841C945.799,182.586,910.119,214.64,910.119,243.359 M988.406,174.434
	c-24.178,14.817-68.615,49.272-75.852,84.659C918.582,245.777,976.334,186.817,988.406,174.434 M994.762,188.026
	c-19.652,6.061-74.971,51.396-77.404,89.494C935.818,234.604,975.109,206.487,994.762,188.026 M966.957,326.205l-24.783-70.739
	C910.119,292.648,959.703,329.521,966.957,326.205 M151.278,239.423c-2.418-18.135-13.307-30.502-29.324-44.127
	c-9.681-8.479-22.063-15.716-28.419-25.715l6.355,13.609C121.954,202.55,133.749,214.051,151.278,239.423 M146.435,257.884
	c1.209-20.863-14.817-35.387-30.828-50.188c-13.314-12.4-32.969-22.088-41.406-34.178
	C91.117,199.217,135.546,223.706,146.435,257.884 M136.747,266.33c1.225-27.806-41.995-63.47-65.292-77.684l-9.663-5.456
	C85.358,213.725,125.572,228.559,136.747,266.33 M121.954,254.24L89.9,330.437C131.323,330.437,140.685,271.786,121.954,254.24
	 M644.943,555.055L622.89,453.177l-19.637,7.254c-6.649,9.672-8.773,18.444-14.818,24.783c0.613,1.52,16.027-2.107,3.619,8.463
	c0,1.209,22.063,7.27,0,7.27c24.203,11.779,0,7.271,0,13.609c2.703,0.294,16.043,0.294,9.99,7.254c-5.131,0-5.44-3.022-9.99,1.519
	c1.813,4.819,8.772-3.332,8.772,6.943c-2.418,0-2.418,1.503-4.844,1.503c3.349,1.813,11.199,4.248,1.813,9.395
	c4.541,1.797,7.883-3.039,7.883,6.648l-7.271,1.209c11.787,3.316,12.408,4.804,0,8.446c0,3.644,25.103,8.773,2.418,8.773
	c11.485,6.061,6.069,13.314-1.495,9.688c-0.923,3.627,3.922,8.446,7.564,10.864l23.256,1.226
	c-3.341-9.083-7.262-10.587,3.651-10.587l4.804,10.587c4.23,0,6.06,1.192,11.19,0v-8.463c2.434-1.209,3.635,2.401,4.867,4.819
	c3.293,0,4.199,0.915,7.541-2.418l-3.938-19.637L644.943,555.055z M539.153,586.798h7.557c3.643,0,1.217-3.627,4.852-4.836
	l18.429,4.836l-1.209-18.134c0-1.209,1.209-1.209,3.644-1.209c2.418,0,2.418,3.627,5.121,4.852c0,2.712,0,3.627-1.201,6.045
	c0,1.209,1.201,4.819,2.418,6.028c3.636,2.418,8.455,2.418,13.291,0c0-1.209,0-2.418,1.52-4.819l-14.811-18.444
	c-18.755-34.472,6.062-85.868-26.017-114.278l-26.874-4.852l1.2,6.061c0,2.418-1.2,3.921-4.835,5.13l-3.93-5.13h-10.905
	c-2.703,1.503-3.937,5.13-2.703,7.548l13.608,6.355l1.495,6.028h-9.974c1.217,0,1.217,3.333,0,4.852
	c-1.201,1.209-2.427,0-5.13,1.209l8.765,3.627v3.627l-6.062,1.209l8.479,2.712c2.426,0,2.426,2.435,2.426,4.853l-7.262,4.819v6.061
	l7.262,11.191l8.765,41.692v7.286H544.3v3.921l-13.608,3.627c-3.619,3.643,2.409,3.643,6.044,4.852
	c1.218,2.418-1.217,2.418-3.635,3.921v4.525L539.153,586.798z M229.885,493.677c32.952-12.384,72.553-41.709,109.14-20.847
	l72.863-34.16c-31.13-15.112-58.952-52.001-103.414-34.472c-23.566,6.045-40.188,16.941-61.37,26.907
	c-22.071,8.773-44.126,19.359-65.299,30.845v61.378C196.925,513.347,214.168,503.364,229.885,493.677 M284.907,435.958l24.784-2.435
	c1.2-1.192,1.2-3.627,3.627-6.045h6.354c4.844,0,2.418-5.13,4.844-8.772h19.336c0-1.209,6.657-2.418,2.728-4.836l-26.907,3.627
	c-1.511,1.209,0,3.643-1.511,4.852l-19.335,3.627c0,2.418,0,0-1.217,3.921l-13.617,3.627L284.907,435.958z M477.792,472.521
	c-1.218,0-2.426-4.542-3.651-6.943c0-1.209,0-2.418,1.226-3.627h18.428l-4.819-49.289c-2.427-1.209-3.627,2.418-3.627,2.418
	l-20.854,8.479c0,0,0,3.921-1.201,3.921l-13.608,2.418c2.394,4.853,7.54,1.209,9.958,1.209c1.217,0,3.65,0,3.65,1.226l-18.477,8.446
	l11.207-0.898c2.418,0.898,3.619,2.107,3.619,4.525l-16.027,5.146l12.408,2.418c1.201,1.209,1.201,2.418,1.201,3.627l-16.019,3.938
	c1.226,3.627,3.61,0,7.245,0.898c0,0,1.233,1.52,1.233,2.729l-12.105,4.819c-2.418,0-2.418,2.124,0,3.333l28.107,1.519l16.64,5.13
	l15.431,3.039C499.839,462.865,486.548,466.182,477.792,472.521 M574.843,463.747l21.14-5.718c-1.503-1.226-1.503-2.435-1.503-3.644
	c-11.779-0.294-17.529-9.066,3.929-6.339c0-1.209,0-2.434,0.923-2.434l21.141-1.209c2.418-2.418-3.929-1.209-6.355-2.418
	c-2.426,0-3.602,0-2.426-3.316c0.932-2.712,7.27,0,11.199-1.209c3.627-1.503-1.503-2.712-1.503-5.13l1.503-4.853l-1.503-17.235
	l-96.716-6.045c2.401,0-10.619,4.231,2.998,6.649l-11.787,4.231h9.99c0,2.418,1.2,0,0,2.418l-14.826,4.852l8.757,1.209
	c2.435,0,3.03,2.418,3.03,4.836h-11.787c0,1.503-3.644,2.712-1.217,3.938l55.325,6.339l-3.938,4.525l17.546,1.209v3.643
	c1.201,0,2.418,3.921,3.636,5.13c0,3.938-4.853,0-7.556,1.209C574.843,454.386,569.99,464.956,574.843,463.747 M868.084,524.211
	v-57.409c-41.709-19.964-86.773-45.662-132.428-63.813c-42.926-12.399-62.563,19.359-93.089,35.681
	c18.108,10.88,36.569,25.698,57.417,36.578c16.025-5.146,36.889-13.298,57.75-2.418C792.189,490.066,832.73,512.138,868.084,524.211
	 M666.73,429.896l26-2.418c0-1.503,0-3.921,2.4-5.13c1.227-1.209,3.652-1.209,7.582,0c3.324,0,0.906-6.061,3.324-9.688h19.652
	c1.512-1.209,6.363-2.418,1.512-4.819l-24.488,3.61c-2.729,1.209,0,3.627-2.729,4.836l-18.445,3.643c-1.184,3.627,0,0-3.611,3.627
	l-11.197,3.921V429.896z M374.99,860.689c-5.75-17.514-18.747-34.733-37.771-39.896c-9.101-3.921-16.95-6.943-23.901-6.943
	C319.379,850.43,346.874,861.898,374.99,860.689 M386.786,859.48c8.168-16.305,11.484-37.771,1.503-54.991
	c-3.603-9.394-7.237-16.646-12.09-21.777C354.741,812.919,365.924,840.464,386.786,859.48 M325.113,753.681
	c9.06-15.993,13.307-37.183,4.224-54.729c-3.015-9.361-6.348-17.22-11.175-22.66C295.486,705.634,305.46,733.423,325.113,753.681
	 M345.665,810.828c-5.129-15.732-17.219-32.036-34.471-36.579c-8.438-3.643-15.708-6.061-22.071-6.061
	C294.571,801.451,319.968,812.054,345.665,810.828 M316.651,762.749c-5.155-15.701-16.942-32.037-34.472-36.563
	c-8.463-3.627-15.732-6.355-22.071-6.355C265.557,753.371,290.937,763.957,316.651,762.749 M354.145,806.907
	c16.909-12.416,9.663-34.471,6.028-52.916l-16.026-24.505c-8.757,11.19-10.849,29.341-7.254,42.95
	c2.418,14.801,7.254,23.28,14.825,34.471H354.145z M241.369,542.966c17.22,42.329,30.837,68.027,32.634,115.192
	c0.915,21.157,8.471,44.437,22.39,56.526c12.081-14.508,10.276-36.578,7.866-47.754c-0.612-17.545-24.775-38.408-55.039-124.553
	L241.369,542.966z M180.906,616.434v12.399c18.428,22.971,30.231,31.139,55.325,68.616c11.787,16.925,31.433,17.546,49.559,17.235
	c-10.872-25.698-18.723-31.105-36.57-41.431C218.987,671.163,203.892,640.335,180.906,616.434 M183.332,550.529
	c45.932,64.695,29.325,77.095,45.033,95.523c10.292,13.004,31.743,25.714,43.546,32.968c-5.138-26.318-6.053-46.561-22.079-66.23
	c-35.664-22.055-41.12-44.73-66.5-72.242V550.529z M669.449,860.689c5.752-17.514,18.738-34.733,37.805-39.896
	c9.066-3.921,16.916-6.943,23.885-6.943C725.094,850.43,697.566,861.898,669.449,860.689 M657.646,859.48
	c-8.16-16.305-11.484-37.771-1.496-54.991c3.637-9.394,7.254-16.646,12.107-21.777C689.699,812.919,678.525,840.464,657.646,859.48
	 M719.352,753.681c-9.084-15.993-13.314-37.183-4.248-54.729c2.998-9.361,6.355-17.22,11.199-22.66
	C748.986,705.634,739.014,733.423,719.352,753.681 M698.783,810.828c5.139-15.732,17.227-32.036,34.471-36.579
	c8.463-3.643,15.732-6.061,22.055-6.061C749.861,801.451,724.48,812.054,698.783,810.828 M727.822,762.749
	c5.121-15.701,16.916-32.037,34.455-36.563c8.463-3.627,15.717-6.355,22.055-6.355C778.893,753.371,753.512,763.957,727.822,762.749
	 M690.336,806.907c-16.973-12.416-9.703-34.471-6.068-52.916l16.01-24.505c8.773,11.19,10.881,29.341,7.279,42.95
	c-2.436,14.801-7.279,23.28-14.826,34.471H690.336z M803.055,542.966c-17.219,42.329-30.795,68.027-32.625,115.192
	c-0.898,21.157-8.479,44.437-22.35,56.526c-12.123-14.508-10.293-36.578-7.883-47.754c0.613-17.545,24.791-38.408,55.016-124.553
	L803.055,542.966z M863.559,616.434v12.399c-18.461,22.971-30.24,31.139-55.326,68.616c-11.811,16.925-31.465,17.546-49.582,17.235
	c10.881-25.698,18.738-31.105,36.563-41.431C825.461,671.163,840.572,640.335,863.559,616.434 M861.141,550.529
	c-45.955,64.695-29.342,77.095-45.057,95.523c-10.285,13.004-31.752,25.714-43.531,32.968c5.146-26.318,6.029-46.561,22.055-66.23
	c35.705-22.055,41.146-44.73,66.533-72.242V550.529z M435.16,438.67c0,0-66.5,30.224-81.31,37.787
	c-2.451,2.418,36.864,16.011,36.864,17.22c2.41,1.209-19.661,0-2.099,4.852c3.316,0,5.718,7.254,2.099,7.254
	c-26-12.105-52.892-30.534-85.859-31.743c-46.854,20.847-85.541,36.579-121.523,61.362l206.166,1.209l9.981,40.826
	c-5.146,0.915-8.765,3.316-10.863,5.734c0,1.209,0,3.627,2.099,3.627l23.599-14.491c-2.426-7.27-8.789-13.625-11.207-22.071
	c-12.392-28.426,9.998-58.96,11.207-82.257c4.525-1.177,8.137-6.028,12.073-8.446C431.525,453.177,431.525,446.838,435.16,438.67
	 M638.606,439.879c-0.891,31.433-4.804,26.923,1.2,40.205l9.99,56.526h206.492c-23.559-20.846-81.008-47.753-109.443-61.362
	c-39.289-8.446-71.344,29.325-93.414,42.935v-1.193l44.135-38.114L638.606,439.879z M638.606,437.461
	c13.624-9.067,35.687-24.8,54.124-37.184c61.369-25.698,122.748,40.5,176.873,56.526V354.027
	c2.402-38.393,6.045-75.298,22.088-108.25c3.611-17.219,32.92-61.378,57.424-78.598H112.273c5.751,4.836,13.299,12.4,19.344,19.638
	c14.817,19.67,30.836,41.741,40.524,69.857c7.262,24.489,9.663,42.019,9.663,60.169v137.542
	c45.646-23.28,88.897-44.143,127.887-58.96c59.858-15.717,81.023,36.905,131.514,35.68c19.653-42.934,19.653-94.624,39.29-143.603
	l-8.772-22.071l24.497-32.037c1.536,0,12.408-1.209,12.408-1.209c4.836-1.209,7.254-4.836,8.757-9.688l21.769-11.175l9.975,2.402
	l36.578-8.446c2.729,1.209,5.449,2.418,5.449,3.643l12.098,3.627l2.426,25.977l6.012,4.835l0.932,15.733
	c-2.107,1.503-3.309,2.434-4.525,3.921c-7.271,15.716,18.42,26.923,8.446,47.476c4.844,29.635,6.347,64.09,19.646,90.997
	C641.04,413.87,641.04,423.558,638.606,437.461 M591.465,386.963c0.874-0.588,1.512-1.813,1.512-3.316h0.89
	c0.613,2.729,0.613,8.446-4.223,9.377c-4.533,0-6.649-3.021-7.858-6.648c0-2.141,0.613-4.231,1.813-5.146
	C588.124,381.229,585.706,390.002,591.465,386.963 M492.911,335.566c-1.511,12.988-5.767,25.404-6.363,38.392
	c-0.906,8.186-5.121,13.005-5.121,21.189c-0.932,5.13-2.418,8.757-7.286,9.361c-2.998,0-5.727,0.898-7.229-2.14
	c1.503-1.504,4.231-2.092,2.092-4.199c-0.589,0-0.589-1.52,0-2.435c0.612-1.208,4.23,0,3.643-2.712
	c-1.503-1.519-2.124-1.519-2.124-3.021c1.528-0.915,2.712-1.536,4.239-2.418l-3.618-3.938c1.503-3.039,6.339-1.503,7.262-3.938
	l-5.171-1.813c0-5.44,5.775-3.022,7.262-6.649c-2.091-0.588-5.734,0-5.734-3.006c0-1.535,1.504-1.535,2.107-2.124
	c2.141-0.914,3.627,0.589,5.139-1.519c0.906-0.915-0.58-1.503-1.512-2.124l-3.627,0.621v-3.039c1.536-2.107,5.139-0.588,6.045-3.316
	c-1.486-1.503-3.904-1.503-3.904-3.627c-2.141-5.13,13.266-5.13,2.418-7.27c-0.932-0.883-1.527-2.418-0.932-3.921
	c2.418-1.52,6.053-1.52,5.146-4.836l-3.635-0.898c-0.58-1.503,0.906-3.022,1.527-3.022
	C488.06,335.566,494.398,326.205,492.911,335.566 M606.259,334.685c2.123,3.006,13.919,56.82,12.416,61.051
	c-1.52,0-16.019-64.4-16.019-73.762C605.679,325.29,605.679,331.335,606.259,334.685 M596.913,324.081
	c2.696,9.982,4.82,20.879,7.834,31.155c1.512,7.237,3.635,14.507,3.635,22.659c1.527,4.248,1.527,9.688,1.527,15.732
	c-3.65,0.899-5.742-0.604-8.772-3.038c-0.588-4.836,7.245-3.627,5.759-8.446c-1.217-1.536-4.239-4.248-7.286-2.435
	c-2.107-1.813-1.201-6.339-2.107-9.051c-1.52-19.67-6.037-38.098-10.889-56.248c0-3.627,3.03-1.503,4.852-1.503L596.913,324.081z
	 M577.243,308.659c9.37,15.422,9.37,34.766,15.096,52.312c2.141,7.27,0,14.523,0.638,20.258c-0.638-2.124-2.729-4.231-4.853-5.734
	c-3.904-2.124-10.881,4.215-10.268-3.627c1.512-16.631-4.231-31.465-4.853-47.182c-1.503-4.215-2.417-12.383-0.89-17.529
	C573.625,308.071,575.732,308.071,577.243,308.659 M561.829,305.653c5.146,6.649,3.023,17.823,6.666,25.682
	c0.597,9.998,3.006,20.274,4.509,31.139c0.621,8.772,0.621,16.631,0.621,25.11c-2.124,3.921-7.271,4.509-11.796,3.921
	c-2.703-0.915-4.23-3.039-6.665-5.751c0-3.61,3.047-6.045,4.558-8.757c2.713,0,2.107,5.146,4.216,5.734
	c2.417-0.588,6.053-0.588,5.154-3.627c-0.597-3.61-3.644-6.649-7.263-7.858c-2.703-0.588-5.758,4.248-8.462,0.621
	c1.797-12.399,0-26.907,1.797-38.702c-0.286-4.836-0.286-11.191-0.286-15.732c0.286-4.525-2.132-10.881,0.286-14.802
	C559.126,300.801,559.126,305.653,561.829,305.653 M545.803,302.631c3.945,26.58,3.945,57.425,2.427,83.123
	c-4.224,1.83-5.131,7.874-11.199,4.836c-4.215-0.588-6.339-4.836-7.851-8.446c2.124-1.536,0.613-5.146,1.512-8.186
	c3.047,0,6.339,2.435,7.262,5.751c0,0.898-0.923,1.52,0.62,2.435c2.998,0,2.395-2.435,3.905-4.248
	c0.62-3.022-0.907-6.649-3.905-8.152l-7.882-0.62c-0.898-9.067,0-18.135,2.124-27.79c1.503-5.767,0-10.896,2.409-16.043
	c-1.486-4.819,2.729-9.966,1.806-16.01c2.418-2.729-0.588-6.977,2.418-9.067C541.571,300.213,544.586,300.801,545.803,302.631
	 M528.575,325.29c-1.2,7.875-2.14,16.632-2.703,26.319c0.563,12.073-6.649,23.885-0.932,35.975
	c-0.612,3.921-3.014,6.943-5.138,9.066c-3.619,0-6.339,1.52-9.394-0.915c-3.905-1.208-3.007-6.648-2.402-9.981
	c2.402,0,3.945-3.61,5.457-1.52c2.72,1.52,0,4.231,2.72,6.355c2.124,0,3.619-0.588,4.542-3.006c1.201-3.35-3.03-3.35-3.03-6.977
	c-2.124-2.712-7.286-0.898-9.688-4.215c2.402-6.649,3.039-13.298,3.945-20.568c2.713-15.7,5.743-33.851,8.773-50.792
	c0-2.729-0.923-7.237,2.107-7.858c3.039-0.898,4.542,0,5.742,3.039C532.194,308.659,526.436,316.844,528.575,325.29
	 M495.926,297.795c0,9.361,0.907,19.638-1.527,29.913c-3.618,0.621-6.339,2.729-10.269,1.503c0-2.418,0.916-5.13,3.015-5.13
	c1.527-0.604,3.636-0.604,5.13-2.107c0-2.418-5.13-3.038-1.494-6.045c-0.597-2.123,3.618-3.021,1.494-5.146
	c-1.494-0.589-3.603,0.915-4.215,0c-2.418-5.13,9.377-4.231,1.217-8.479c8.16-2.091-5.146-9.361,5.122-6.648L495.926,297.795z
	 M512.532,297.174c-0.58,23.297-5.13,48.669-7.221,71.066c0,8.152-4.559,12.988-3.643,20.847c-2.108,3.937,0,9.083-3.325,11.778
	c-0.907,1.504-0.907,3.039-3.015,3.644c-3.929,1.503-5.146-2.14-7.27-3.644c-0.915-2.091-0.915-5.718,2.124-7.237
	c2.091,2.107,2.728-1.535,5.146-1.535c1.504-2.091,0-4.509-2.418-5.718h-2.728c0-8.479,2.091-18.135,5.146-26.319
	c1.504-6.943,1.504-15.096,4.231-22.365c-2.124-2.124,2.108-4.525,2.108-7.254c-0.916-5.146-0.916-11.501,3.03-16.026
	c-5.139-3.627,0-19.638,2.703-19.638C510.409,293.563,511.952,296.275,512.532,297.174 M579.368,213.725
	c0.906,2.744-1.512,5.146,1.527,6.976c4.215-0.621,6.322-5.767,12.971-4.231c5.743,5.113-0.89,12.384,2.116,19.017
	c-1.503,8.789,12.399,11.501,8.185,19.98c-3.03-0.621-3.618-5.751-6.053-7.858c-2.132-3.333-4.248-7.27-6.649-9.394
	c-2.115-1.193-2.72-5.114-6.354-4.215c-0.891,0-0.891,1.486-0.891,3.021c2.998,2.729-2.148,8.757,3.904,9.378
	c1.226,2.712,0.621,6.339,3.341,7.548c0,3.938-1.519,7.58-2.115,11.175c0.597,2.123,2.989,1.519,4.517,2.123
	c1.545,4.542-4.517,2.124-6.648,2.124c-4.518-4.247-7.85-9.377-15.717-7.253c-5.439-7.271-13.902,0-18.134-8.169
	c-6.053-4.231-12.399,4.542-15.414-1.209c-6.649,0.915-13.013,0-16.026,7.254c-1.52,4.541-5.154,8.168-5.154,13.902
	c-0.589,0-1.201,0.915-2.107,0.915c-1.495-6.649-0.613-14.817,4.23-19.343c3.031-2.729,8.773,0,10.897-4.231
	c-2.124-6.355-8.479-0.621-11.485-5.457c-2.736,0.621-3.643-2.418-5.775-3.022c-6.648,0-12.972,3.022-16.606,8.479
	c0,1.503,2.124,2.712,3.635,3.61c2.108,0.621,5.416-2.729,6.323,0.621c0,6.061-5.131,10.275-4.215,16.32
	c-2.108,1.52-2.108-2.418-2.108-3.627c0-2.418-1.511-3.038-2.417-5.146c-3.35,1.519-2.745,6.354-4.869,7.286
	c-2.418-3.66,3.055-12.416-4.215-11.812c-1.512,3.627-4.525,6.044-3.93,9.671h-2.123c2.123-4.541-0.891-11.778,6.363-12.693
	c3.904-2.729,2.41-7.858,6.959-10.587c5.424-5.13,14.205-8.757,22.979-5.13c4.525,0,1.495-5.75,3.619-7.253
	c0.906,0.604,1.52,2.107,3.014,1.503c2.729-1.503,2.132-4.525,3.316-6.649c0.923,1.503,1.536,3.006,3.938,2.124
	c0-6.683,7.254,0,8.773-5.146c11.477-4.853,12.996,8.772,18.754,14.507c-7.277,3.007-10.921-4.23-15.422-7.857
	c-3.332-0.621-6.347-2.124-9.981,1.52c-0.58,1.503,1.2,2.107,2.712,2.107c3.03-0.604,4.541,3.61,6.068,5.146
	c5.702,7.237,15.7,5.13,24.474,4.525c0.923-1.52,0-3.022,0-4.525c-5.743-3.627-6.355-12.399-11.501-16.958
	c-2.107-2.712,0.62-5.439,3.65-6.943c6.34-1.503,10.865-6.648,18.135-4.525L579.368,213.725z M606.896,292.061
	c0.866,6.633,2.418,10.57-1.512,15.717c-4.835,0-1.217-5.474-2.131-6.977c-0.597-6.649-2.704-12.399-2.704-18.134
	C604.167,284.187,604.167,289.937,606.896,292.061 M593.866,278.142c-0.89,8.74,3.636,15.096,4.248,23.28
	c-0.612,1.209,0.906,1.209,0,3.61c-2.132,0.621-5.775-1.503-8.168-2.729c-4.836-8.152-2.729-18.117-3.333-27.495
	C589.35,273.894,590.853,277.227,593.866,278.142 M580.896,276.622c1.805,7.858,0.58,13.314,0,21.173c-2.133,0-4.551,0-6.053-2.14
	c-3.342-8.152,1.502-15.406-2.729-22.35c0-2.435,0-6.666,3.618-5.146C579.368,270.3,579.368,273.894,580.896,276.622
	 M566.976,267.244c0,7.858,2.116,18.135,0,25.993c-2.123,1.535-3.618-1.177-5.146-1.177c-4.23-4.558,1.528-9.394-2.107-13.919
	c-1.511-4.248,0.621-8.773-0.923-13.609C562.435,261.526,565.448,265.121,566.976,267.244 M537.953,256.381
	c0.62,3.61-2.435,7.237-4.215,9.36c-1.544,1.503-2.435,4.559,0,6.045c1.185,2.107,4.835,0.604,7.229,0.604
	c2.131-2.091,3.332-3.022,5.742-5.146l-1.486-7.253c3.577-0.604,5.129,5.75,8.74,3.022c1.2,6.354,0,13.004-0.597,19.653
	c-2.418,1.52-3.619-2.418-5.138-2.418h-12.711l-7.85-5.44l-1.797-9.067C529.18,262.115,532.194,256.969,537.953,256.381
	 M526.436,497.304c0,2.124-2.107,2.744-4.509,2.124c-2.124,0-5.743,0.62-5.154-2.124c0.923-1.503,2.45-3.006,3.953-3.006
	C523.446,495.212,524.94,495.212,526.436,497.304 M532.194,509.409c0.621,2.418-1.503,3.022-2.401,3.022
	c-2.124-1.503-4.853,0-7.866-0.604c0-1.52-0.613-5.734,2.401-4.231C527.375,507.596,530.691,506.697,532.194,509.409
	 M535.829,519.996c0.613,1.209,0,2.712-0.604,2.712c-3.921-0.589-8.789,1.209-10.284-2.712c0-2.435,2.729-1.503,3.635-2.435
	C531.304,517.562,534.318,517.562,535.829,519.996 M535.829,528.458c-1.511,0.604-5.138,0-7.254,0.604
	c-0.906-0.604-2.14-2.728,0-3.627C531.304,526.335,535.829,523.917,535.829,528.458 M540.968,535.124v2.107
	c-3.938,0.898-8.152,0.898-11.175,0c-0.613-1.52-1.218-3.644,0.898-4.542C533.738,532.689,539.448,531.187,540.968,535.124
	 M544.586,544.485c-3.015,4.215-8.144,1.503-12.392,2.123c-1.503-0.62-2.401-2.728-1.503-4.23l1.503-0.915
	C535.829,542.378,542.479,540.858,544.586,544.485 M544.586,552.343c0.638,0.899,0.638,1.487,0.638,3.007
	c-2.125,4.247-5.775-2.107-8.193,1.241c-1.806,0.882-5.727,0.882-6.339-1.241c-0.898-0.883,0-2.107,0-3.007
	C535.225,550.235,540.061,550.235,544.586,552.343 M430.316,584.086c6.053-0.294,10.889-5.44,17.228-6.943
	c1.52-1.209,1.52-1.209,3.92-2.124c2.125,6.339,9.99,4.215,15.447,4.215c6.322-1.502,13.584-2.091,19.344-1.502
	c3.021-1.504,7.245-0.589,10.268,0c0,2.123-3.611,1.502-5.122,2.123c-17.554,3.938-34.773,2.418-50.8,6.649v1.52
	c7.85,0.588,16.026,0.588,24.783-1.52c3.333,2.107,6.339-1.503,9.377,0.604c15.096-3.316,30.216,0,46.553-2.107
	c2.704-2.124,0.613-5.768,0.613-7.858c-7.572-10.896-20.553-12.399-31.146-17.546c-11.771-2.124-21.165,1.52-31.434,5.146
	c0.58-5.146-5.758,0-5.758-4.231c1.511-0.915,3.635-2.418,5.146-3.921c-1.511-1.241-5.146,0.882-5.146-2.124
	c3.635-3.349,10.283-3.349,15.128-4.231c10.889-4.247,22.063,0,33.556-1.535c1.504,0,4.231,3.038,4.828-0.588v-1.504
	c-8.463-1.519-16.32-0.62-25.984-2.728c-0.621-2.418,0.891-1.503,1.512-2.418c2.123,2.418,4.215,0,6.648,0
	c5.122,0,11.477,0.915,16.607,2.418l1.217,1.209c5.432-7.858,0-17.252-1.217-26.009c-3.611-6.649-6.045-13.903-11.485-20.553
	c-6.028-4.852-11.771-11.484-20.552-13.592c-6.339-0.915-10.864-5.146-16.011-1.52c-4.247,4.525-10.881,0-15.112,5.113
	c2.092,2.435,11.485-3.006,9.354,4.265c-4.533,0-8.463,1.503-11.477,3.626c0.604,0.883,4.844-0.62,4.215,2.712
	c-0.588,3.938-5.727,1.52-7.85,3.022c-1.512,1.503-3.636-0.604-4.518,1.503c2.401,0.915,5.718,0,7.237,3.039
	c-0.597,5.734-7.858,2.712-10.881,5.734c-1.209,0-2.712,0.915-4.215,1.503c0,1.503,0.588,2.124,1.503,3.055
	c2.092-2.434,5.734-2.434,7.858,0c1.503,2.092-2.124,1.504-3.635,2.092c-2.721,2.124-7.254,2.729-8.161,6.354
	c2.435,1.504,8.161,0.899,8.161,3.022c-3.636,2.107-9.37,2.107-10.284,6.666c2.123,3.333,10.284-1.536,6.648,4.836
	c-2.091,1.503-8.144,0-8.144,4.525c0,1.503,0,3.006,1.495,3.627c3.627,2.123,8.152-3.627,8.772,2.123
	c-2.124,4.231-10.268,0-8.772,6.355c2.123,2.418,6.648,0.882,8.772,0.882c2.107,2.124,0,4.248-2.124,4.248
	c-2.091-0.604-5.146,0-6.648,1.52c0,0.882-0.588,0.882-0.588,1.503c2.711,3.627,12.383-3.022,10.872,4.215
	c-3.636,3.022-8.161,3.938-10.284,6.976c3.627,0.294,6.648-1.536,10.284,0c-0.915,1.798-6.657,3.921-8.781,4.819L430.316,584.086z
	 M487.749,511.517c0.621,3.333-3.619,0.621-5.121,1.83c-1.512,0-3.619,0.898-5.146-0.621c-0.907-2.107,5.146-2.712,1.527-5.13
	c-0.923,0.915-2.435,0-3.039,0c-0.906,0-1.209-0.604-0.906-2.107c0.906-0.915,3.945,0.604,5.432-2.124
	C483.208,503.985,486.255,508.511,487.749,511.517 M491.4,521.499c-3.03,2.418-6.053-1.503-9.394,1.52
	c-0.891,0-3.921-0.604-5.433,0.898c6.054,0,13.92,0.294,18.444,3.921c-0.62,2.434-4.524,1.519-5.742,1.519
	c-6.648-2.107-15.43,0.915-21.156-1.519c-0.923-2.107,1.495-4.819-1.209-7.842c2.704-6.649,9.663-0.604,14.205-4.231
	C484.751,517.268,490.494,516.353,491.4,521.499 M496.833,535.401v2.141c-8.773,0.588-17.824-3.644-25.69,0
	c-2.14,3.006,2.998,1.503,0.907,4.509c-3.636,0.621-8.178,4.264-11.502,0.621c-0.906-4.542,9.974-0.621,4.231-7.271
	c-0.907-1.503,0.604-1.503,1.511-2.401C476.265,533,487.145,532.396,496.833,535.401 M503.776,554.467
	c1.2,3.006-2.402,2.124-3.023,3.627c-3.609-2.744-9.973-0.621-13.91-3.627c-8.757,0.883-15.7,0-23.86,2.124l-2.124-3.039
	c8.145-2.123,15.111-1.813,23.271-2.434C489.856,551.738,498.638,551.118,503.776,554.467 M473.233,569.89v2.091
	c-5.726,1.535-12.375,3.953-17.521,3.038c0-6.061,7.271-4.558,11.199-6.648C468.12,569.89,470.235,570.461,473.233,569.89
	 M552.746,571.98c-0.89,0.915-1.511,0-2.394,0.915c-2.123-2.435-1.552-5.146-2.123-7.237c0.571-0.915,1.519-0.915,2.123,0
	C552.746,567.161,551.856,569.89,552.746,571.98 M922.813,134.538c0,0,7.238-0.914,9.672-0.914c0,0,1.193-16.044,2.746-22.366
	c3.594-6.339,7.842-5.75,9.949-5.75h5.129c3.938,2.123,6.666,16.01,6.666,16.01h-18.15l-1.504,10.897h24.162
	c0,0,1.537-6.649,1.537-9.361c0-6.062-0.932-16.926-0.932-17.546c-2.092-12.4-7.221-11.796-7.221-11.796h-13.004l-7.254,11.796
	c0,0-1.52-8.773-1.52-10.293c-0.605-1.503-0.605-1.503-2.125-1.503h-3.92l-1.209-4.215h-5.131
	c0.605,7.237,0.605,16.011,0.605,16.011h6.633c0.621,2.123-0.898,7.857-0.898,7.857L922.813,134.538z M904.059,93.712
	c-1.504,0-2.092-2.712-2.092-2.712h-4.557c1.518,6.355,1.518,13.919,1.518,14.508h5.734c2.436,3.006,3.039,7.27,3.039,9.981v19.049
	l6.633-2.712c-0.898-6.061,0-33.589,0-33.589s-0.898-4.525-4.525-4.525H904.059z M882.902,128.771
	c0.898-1.503,4.852-21.141,4.852-21.141c1.504,0,2.418-0.62,3.938-2.123v-9.688c0-1.52-0.932-2.107-2.434-2.107H878.67
	c-0.604,0-1.52,0-1.52,1.503c0.916,2.141,0.916,6.649,1.52,10.293c0,0,3.611,1.503,4.232,1.503v0.62
	c0,0.883-1.504,8.446-4.232,13.887c-2.123,1.536-5.113,2.729-5.113,2.729l-6.666-16.615c0-0.62,0.883-0.62,0.883-0.62
	c0.637-0.883,2.141-1.503,3.643-1.503l0.59-9.688c0-0.604,0-2.107-2.092-2.107h-8.186L861.141,91l-4.23,0.588
	c0,0,0.604,7.271,0.604,13.92c1.486,0.62,2.729,1.503,2.729,1.503s8.168,17.84,8.758,17.84c0,0.915-0.59,0.915-0.59,0.915
	c-2.139,1.503-7.27,2.124-12.121,3.627v9.965C872.625,134.538,877.15,133.02,882.902,128.771 M819.693,93.712
	c-0.572,0-1.486-2.712-1.486-2.712h-4.23c0,4.215,0.619,15.128,0.619,15.128c2.387,0,6.014,1.503,6.014,1.503
	c6.371,6.339,10.275,13.887,10.275,13.887h-17.84l-2.115,10.897h28.451c1.191,0,2.107-2.124,2.107-2.124l1.518-5.44
	c0-1.209-1.518-3.333-1.518-3.333c-3.627-2.401-5.734-5.44-5.734-5.44l5.734-8.446l7.857-1.503V95.819
	c0-2.107-1.83-2.107-1.83-2.107h-11.143v12.416l-3.643,7.842l-4.23-6.339V96.734c0-3.022-2.125-3.022-2.125-3.022H819.693z
	 M766.785,113.365c0,7.254-1.486,20.259-1.486,20.259s4.543-1.209,8.74-1.798c-0.555-11.207-0.555-19.964-0.555-19.964
	S769.842,112.777,766.785,113.365 M768.305,91H764.4c0.898,6.355,0.898,13.919,0.898,14.508h26.287
	c2.744,4.835,1.535,28.116,1.535,28.116l8.758-1.798c0,0-3.039-21.483-2.418-26.318l4.215-1.503l-0.621-8.186
	c0,0-0.898-2.107-2.695-2.107h-28.428C769.842,93.712,768.305,91,768.305,91 M703.619,109.134c0,0,21.475,18.756,27.52,24.49
	c0,0,3.006-12.106,3.006-13.005c-3.619-2.124-9.664-5.751-13.902-9.361l4.238-5.75l9.664,0.62l-1.486-12.416
	c-12.416-0.604-15.432,0-15.432,0l1.512,10.293l-1.512,5.129c-7.252-7.27-14.514-11.778-17.242-19.049L696.969,91v2.712
	c-0.889,3.644-0.889,6.028-1.51,9.672l4.525,2.744c-4.525,6.649-1.512,14.491-0.924,16.926l-5.709,0.588l-2.125,8.773h16.027
	l0.58-6.649C707.834,125.766,701.201,119.116,703.619,109.134 M679.416,131.826c-1.797-6.976-2.713-22.104-1.797-25.698
	c1.217,0,7.873,1.503,7.873,1.503V97.355c-0.611-1.536-2.148-3.644-3.029-3.644h-13.014L668.568,91l-4.248,0.588
	c0,0,0,5.768,0.914,13.92c0.605,0,3.334,0,5.424,0.62v27.496L679.416,131.826z M647.084,93.712c-2.418,0-2.418-2.712-2.418-2.712
	h-4.517c0.891,6.355,1.504,13.919,1.504,14.508h6.052c1.168,3.006,2.092,7.27,2.703,9.981v19.049l6.674-2.712
	c-0.652-6.061,0-33.589,0-33.589s-0.652-4.525-4.256-4.525H647.084z M626.517,133.624c4.55-1.209,6.641-1.798,8.16-1.798
	c-0.874-6.061-1.52-19.964-0.874-29.962c0-1.503-2.736-8.152-6.371-8.152h-18.118c-1.552,0-3.055-2.712-3.055-2.712h-4.525
	c0,0,1.52,9.361,1.52,14.508h16.925c1.209,0,4.853-0.589,6.339,5.75C627.432,116.992,628.02,123.642,626.517,133.624
	 M595.411,96.734c0-0.915,0-3.022-2.745-3.022h-6.96c-1.217,0-2.107-1.192-2.712-4.215c-0.596,0-5.138,0.588-5.138,0.588
	s1.512,9.655,1.512,15.423h7.245c0.604,0,3.635,4.215,2.132,7.27c0,1.192-1.527,5.718-4.256,8.74c0,0.621,4.256,2.124,7.278,4.248
	C596.913,110.343,597.502,104.005,595.411,96.734 M544.586,105.508h12.105c3.03,0,4.525-0.589,6.666,5.75
	c0.58,5.734,0.58,12.384,0,22.366c4.525-1.209,6.021-1.798,7.229-1.798c0-6.061-0.597-19.964-0.597-29.962
	c0-1.503-3.015-8.152-6.633-8.152h-23.909c-3.006,0-3.006-3.627-3.006-3.627L532.815,91c0,0,0.923,8.74,0.923,13.005l6.322,1.503
	c-0.612,2.123-4.231,7.27-3.618,10.569c0.882,4.542,0.882,6.977,0.882,6.977s-6.021,1.192-6.633,1.192l-2.116,8.169h14.523
	l1.487-7.564c-0.58-1.797-1.487-4.231-3.015-10.881C540.968,107.631,544.006,105.508,544.586,105.508 M462.361,113.365
	c0,7.254-0.597,20.259-0.597,20.259s3.619-1.209,7.238-1.798c-0.589-11.207,0-19.964,0-19.964S464.779,112.777,462.361,113.365
	 M463.872,91h-3.324c0.311,6.355,0.311,13.919,0.311,14.508h27.201c2.124,4.835,0.612,28.116,0.612,28.116l8.765-1.798
	c0,0-3.643-21.483-2.107-26.318l4.51-1.503l-0.883-8.186c0,0-0.612-2.107-3.03-2.107h-28.124C465.384,93.712,463.872,91,463.872,91
	 M443.614,120.619c0.907,8.773,4.248,13.919,4.248,13.919l6.648-4.247c-8.176-6.045-5.758-29.93-6.648-32.054
	c0-1.503-0.613-4.525-2.132-4.525h-6.339c-3.022-0.604-3.627-2.712-3.627-2.712l-4.525,0.588c0.588,4.231,0.588,13.92,0.588,13.92
	h8.169l2.107,11.484c0,0-2.712,4.525-9.361,4.525h-5.767c0.62,7.254,0.62,10.897,0.62,10.897h9.688
	C437.284,132.415,439.392,127.269,443.614,120.619 M381.942,96.734c-0.597-0.915-0.597-3.022-3.619-3.022h-6.666
	c-1.511,0-2.107-1.192-2.997-4.215c-0.629,0-5.154,0.588-5.154,0.588s1.519,9.655,1.519,15.423h7.549c0.62,0,3.332,4.215,2.131,7.27
	c0,1.192-1.511,5.718-4.558,8.74c0,0.621,4.558,2.124,7.271,4.248C382.849,110.343,383.47,104.005,381.942,96.734 M257.086,113.365
	c0,7.254-0.915,20.259-0.915,20.259s4.248-1.209,8.185-1.798c-0.915-11.207-0.915-19.964-0.915-19.964
	S259.798,112.777,257.086,113.365 M259.21,91h-4.551c0.924,6.355,1.512,13.919,1.512,14.508h26.303
	c2.107,4.835,0.621,28.116,0.621,28.116l9.369-1.798c0,0-3.627-21.483-2.736-26.318l5.162-1.503l-1.503-8.186
	c0,0-0.923-2.107-3.047-2.107h-27.503C259.798,93.712,259.21,91,259.21,91 M238.952,128.771c0.588-1.503,5.733-21.141,5.733-21.141
	c0.621,0,2.124-0.62,3.039-2.123v-9.688c0-1.52,0-2.107-2.418-2.107h-10.88c0,0-0.613,0-0.613,1.503
	c0,2.141,0.613,6.649,0.613,10.293c0,0,3.609,1.503,4.525,1.503l0.588,0.62c0,0.883-2.092,8.446-4.224,13.887
	c-3.014,1.536-6.053,2.729-6.053,2.729l-6.355-16.615c0-0.62,0.621-0.62,0.621-0.62c0.588-0.883,2.107-1.503,3.635-1.503
	l1.503-9.688c0-0.604,0-2.107-3.03-2.107h-6.943L217.183,91l-4.224,0.588c0,0,0.303,7.271,0.303,13.92
	c1.511,0.62,3.014,1.503,3.014,1.503l8.757,17.84c0,0.915,0,0.915-0.915,0.915c-2.091,1.503-6.33,2.124-12.073,3.627v9.965
	C229.264,134.538,232.891,133.02,238.952,128.771 M166.382,96.734c0-0.915-0.596-3.022-3.021-3.022h-7.254
	c-1.52,0-2.1-1.192-3.006-4.215l-4.24,0.588c0,0,0.597,9.655,0.597,15.423h7.271c1.502,0,3.626,4.215,3.021,7.27
	c0,1.192-1.52,5.718-5.162,8.74c0.637,0.621,4.264,2.124,8.185,4.248C167.591,110.343,167.591,104.005,166.382,96.734
	 M132.237,93.712c-1.511,0-2.418-2.712-2.418-2.712h-3.34c0.62,6.355,0.62,13.919,0.62,14.508h5.718
	c2.418,3.006,2.729,7.27,2.729,9.981c0.923,5.13,0,19.049,0,19.049l7.572-2.712c-1.52-6.061-0.923-33.589-0.923-33.589
	s0-4.525-3.619-4.525H132.237z M116.808,148.131c-2.124-19.359-1.495-42.003-1.495-42.003l5.13-1.209v-6.682
	c0-3.022-3.03-4.525-4.542-4.525h-10.586c0-0.604-1.487-4.215-1.487-4.215h-5.146c0,0,0.596,9.361,0.596,14.508
	c0.907,0,8.773,1.503,8.773,1.503s0.906,30.533-1.218,45.041L116.808,148.131z M513.758,869.462
	c-0.588-16.305,3.015-37.477-2.132-52.589c-20.846,20.552-20.846,0-20.846,1.503c-35.362,22.382-7.867-21.45-43.531,13.021
	c-7.857-1.847-3.635-5.441-24.799-9.982c-2.124-3.644,5.448-28.116,5.448-28.721c8.772-3.921,13.608,2.401,19.351,2.401
	c0.613-3.022,2.124-4.819,3.039-7.858c-26.025,3.922-48.096-16.01-3.039-16.01c0-13.903-36.889-7.271-29.619-24.783
	c3.316,0,8.757-1.52,11.771-2.418c-2.1-3.039-6.951-5.473-8.455-9.982c5.44-5.75,18.739-6.339,21.777-9.361
	c0-6.061-6.648-11.207-2.123-21.777c5.734,0,12.988,9.361,17.529,12.678c2.729-8.74-1.503-7.857-6.339-15.716
	c7.262-15.112,8.136-19.343,20.259-21.761c0.89-7.564,19.023-4.232,21.744-6.65c-27.504-39.911,21.777-12.987,22.979-14.816
	c23.002-64.107,9.394,35.386,12.407,35.386c6.943-12.71,2.418-38.114,20.259-45.663c12.081,4.836-9.067,40.223-6.96,42.02
	c5.448-7.237,24.783-32.053,38.702-26.286c3.039,9.671,6.348,30.224,11.796,31.416c7.27,0,6.96,33.263,19.931,14.214
	c10.604,0-0.285,13.314-2.393,17.545c26.891,9.067,8.445,39.308-12.106,36.596c0,2.418,2.141,5.44,3.929,7.857
	c4.845,0,11.502-9.981,18.135-8.772c0.915-1.536,42.622,52.589-2.091,30.208c-12.702,29.945-1.528,13.625-26.327,19.343
	c-1.495,2.417,0.923,8.495-3.006,10.913c-6.348-1.83-11.805-4.542-17.261-6.062c-1.486,3.022-1.486,6.96-4.525,8.479
	c-15.7-12.4-34.446-13.92-32.649,15.406l-0.58,1.519l2.41,28.704H513.758z M527.669,644.844c-0.906,4.542,2.729,13.625-0.597,20.862
	c-5.759-5.734-9.083-16.941-0.906-22.953L527.669,644.844z M507.713,669.333v6.339c-4.247-5.13-4.827-11.779-9.957-14.785
	c-1.233,4.819,5.71,13.298,5.71,19.327c-6.322-3.627-12.393-19.327-8.137-25.683C501.374,656.949,505.312,663.305,507.713,669.333
	 M548.801,667.83c-2.377,2.417-3.904,7.253-6.322,8.757c1.821-5.131,3.015-10.276,3.945-15.994c-0.931,0-1.527-0.932-2.124-0.932
	c-14.81,33.851-5.146,1.813,2.124-6.045C549.438,657.243,547.927,662.684,548.801,667.83 M520.113,669.039l0.612,4.542
	c-4.248-1.536-8.773-8.186-7.556-11.485C516.772,662.096,518.602,665.706,520.113,669.039 M519.509,684.461
	c4.509,7.858-3.031,13.903-10.881,13.903C488.37,689.885,513.758,673.254,519.509,684.461 M495.329,683.579
	c-1.535,6.633-17.243,1.486-19.359-2.435C478.086,677.175,491.98,682.647,495.329,683.579 M587.218,686.879
	c-1.201,6.633-3.619,9.051-9.672,9.981C583.272,695.93,580.568,685.948,587.218,686.879 M560.343,689.885
	c-1.838,6.355-9.704,11.501-16.043,9.982c0.597-2.418,12.082-6.355,12.082-9.361c-5.146-0.621-17.229,6.943-23.877,8.446
	C532.505,692.924,554.273,688.088,560.343,689.885 M525.872,699.573v10.88C520.726,710.453,517.099,696.24,525.872,699.573
	 M592.977,697.449c-5.448,17.235-7.556,4.835-19.352,10.896c6.069-3.022,4.525-10.603,18.429-12.416L592.977,697.449z
	 M479.009,705.323c2.998,7.548-17.856,5.734-17.856-2.418c4.844,0.898,8.772,3.022,13.911,3.938v-0.915
	c-3.635-2.124-7.556-6.061-12.996-6.976C469.003,696.86,475.063,700.782,479.009,705.323 M504.396,698.952l0.58,3.039
	C481.427,707.431,504.396,694.149,504.396,698.952 M552.746,702.905h1.218c-7.867,8.152-10.865,1.52-19.932,5.44
	C534.032,696.534,545.803,709.849,552.746,702.905 M505.884,747.048c4.852,1.504,2.434,6.943,2.434,10.865
	C488.672,764.284,471.723,747.048,505.884,747.048 M500.468,710.764c4.844,1.503,2.418,6.943,2.418,10.57
	C483.208,727.983,466.29,710.764,500.468,710.764 M596.604,713.182c0.571,3.022-1.847,10.587-5.448,10.587
	c-1.512-4.836,5.758-6.977,1.821-12.711c-3.03,2.418-3.333,6.649-5.759,10.276c-1.201-3.333,2.729-14.817,7.866-12.988
	L596.604,713.182z M520.113,730.106c-4.542,0-11.796-1.209-10.284-11.174c2.418,1.78,2.418,5.75,5.742,6.338
	c0-6.338-3.945-11.484-4.836-16.925C516.772,713.182,521.616,718.933,520.113,730.106 M473.561,722.249
	c-0.915,2.434,1.503,5.456,1.503,7.857c-3.635,0-12.408-4.558-9.99-9.394c2.435,0.621,3.047,7.581,6.977,5.474
	c-2.125-3.334-3.93-8.479-4.542-11.502C469.003,717.119,472.05,718.312,473.561,722.249 M582.071,726.187
	c-3.921-0.916-14.81-4.853-14.81,1.519c4.525,0,10.284,0.589,14.81,2.401c0,2.729-18.714,7.254-18.714-6.338
	C565.154,723.769,583.272,719.21,582.071,726.187 M461.152,728.294c-1.511,6.354-7.563,6.354-13.29,7.253l-0.613-1.503
	c3.039-2.434,9.378-2.434,9.378-7.27c-0.311-0.278-5.473,1.52-7.254,1.52C449.373,725.271,461.152,722.56,461.152,728.294
	 M495.329,731.61v5.439c-3.635-4.836-16.32-6.943-13.902-11.779C485.348,728.294,490.78,730.106,495.329,731.61 M557.002,730.106
	c0,3.938-0.62,8.447-4.256,10.881c-2.728-3.938,3.636-6.943,2.132-10.881c-4.859,0.605-5.439,6.943-7.563,9.966
	C543.385,733.112,557.002,721.04,557.002,730.106 M606.896,736.136c0.866,6.077-11.484,10.603-14.842,7.891
	C583.599,729.813,598.408,719.521,606.896,736.136 M619.867,730.106c-0.907,4.542-3.324,9.966-8.446,11.502
	C611.421,734.338,614.116,730.106,619.867,730.106 M536.442,741.608l-3.938,2.418c2.107-4.853,2.107-9.378,3.938-13.92
	C538.573,734.044,536.442,737.981,536.442,741.608 M489.276,737.981c0,7.857-7.85,6.045-7.85-3.938
	C484.425,735.547,488.37,734.648,489.276,737.981 M520.726,752.472c-5.154,1.52-8.773-9.36-7.556-13.298
	C515.571,744.026,519.223,748.552,520.726,752.472 M584.22,743.111c0,4.509-3.039,8.446-5.457,13.903
	c10.881-0.621,18.739-17.53,18.739,21.777c-7.556,0,1.829-6.977-12.392-6.977c-7.867-10.275-17.538-24.195-1.838-32.642
	L584.22,743.111z M524.018,747.62c-3.904,5.146-6.322-5.407-6.322-8.446C520.726,741.608,522.53,744.026,524.018,747.62
	 M570.301,744.026c0,3.021-2.418,3.021-4.509,5.439c-13.626,0-7.899-7.857,4.509-6.354V744.026z M463.578,747.048
	c-1.217,1.193-14.515,8.447-16.329,8.447C441.205,744.026,460.254,739.174,463.578,747.048 M553.367,750.97
	c-2.132,8.445-8.144,12.105-16.925,7.857C536.442,740.987,551.562,740.072,553.367,750.97 M479.605,753.371
	c0.89-0.899,0.89,1.519,1.821,1.519c0,2.713-9.377-1.797-9.377-9.36C475.063,747.048,476.574,750.055,479.605,753.371
	 M569.696,756.394c-1.813,3.021-6.339,6.355-10.268,7.891C560.343,757.913,565.154,747.048,569.696,756.394 M471.429,757.015
	c0.621,2.4-3.309,4.852-2.426,7.27c-3.93,0.588-7.851,0-11.779-1.535c0-8.758,5.759,1.829,7.85-4.836
	c-1.495-1.52-5.432,0-7.85-2.418C461.152,750.97,468.12,752.472,471.429,757.015 M485.936,769.724c-1.511,2.713,2.435,7.532,0,10.57
	c-6.927-2.711-10.872-8.772-10.872-16.01c2.729,1.503,5.13,10.57,9.361,10.57c-1.512-4.542-2.998-9.067-5.416-12.988
	C482.913,762.749,482.913,766.686,485.936,769.724 M540.968,767.307c-0.907,4.803-5.743,13.576-10.873,14.491
	c-2.426-5.44,8.152-5.44,7.229-14.214c-0.294-0.277-4.509-0.898-4.819,0.311c2.107-1.209,0-3.61,2.107-4.525
	C536.442,765.787,542.479,762.749,540.968,767.307 M464.191,776.357c-0.613,0.898-0.613,0.898-1.536,0.898
	c-0.294-0.294-0.891-8.152-0.588-8.446C465.996,770.313,465.073,773.939,464.191,776.357 M498.638,778.792
	c-8.781,5.734-3.929-8.186-2.418-9.068C496.833,772.437,500.468,775.736,498.638,778.792 M520.726,777.256
	c5.44,17.84-10.316,10.913-11.485,13.903C500.468,775.736,503.776,770.933,520.726,777.256 M447.249,777.876
	c7.851,0-4.223,11.779-13.004,3.007c5.44-0.589,8.479,3.349,13.004-0.589c-2.728-1.829-11.484-4.558-15.422-4.558
	C435.765,774.854,443.614,773.318,447.249,777.876 M561.829,782.712c0.605,1.52-1.486,1.52-2.4,2.141
	c-2.427-0.621-6.062,0-7.572-3.97C554.878,777.876,557.002,784.231,561.829,782.712 M468.12,784.853
	c-0.923,0-3.627,9.345-9.386,7.842c0.907-3.039,6.339-2.418,6.339-6.96c-3.921-3.022-6.339,3.921-10.268,4.542
	c3.324-6.045,7.262-6.977,13.314-6.977V784.853z M556.382,790.276c6.665,17.84-20.259,14.801-17.809,1.797
	C545.224,776.667,550.019,791.779,556.382,790.276 M569.696,790.276c0.891,3.022,5.742,9.655,3.021,13.282h-0.931
	c-1.486-5.424-5.995-10.864-6.935-16.321C567.262,786.649,567.883,789.655,569.696,790.276 M503.466,805.698
	c-2.418,7.221-14.794,3.316-10.555-10.603C498.638,796.615,503.466,799.017,503.466,805.698 M538.573,808.411
	c-2.131,0-2.131,3.643-5.473,3.643c0-5.473-2.091-9.998-0.596-14.54C534.032,800.552,540.371,803.559,538.573,808.411
	 M396.458,866.75H190.577c-9.671-23.264-16.019-51.396-16.019-75.886V336.481c0-26.907-3.635-53.814-12.105-83.434
	c-7.54,22.055-16.019,48.047-33.229,65.005c-16.027,13.593-24.514,18.429-46.586,17.22l35.387-87.077
	c-18.134-19.637-67.129-55.317-71.05-81.016c9.965-35.68,32.331-95.85,45.352-104.313c8.748-6.338,20.87-9.671,56.534-9.671h805.386
	c0,0,18.445,2.418,26.891,12.105c18.461,26.907,34.471,68.616,36.889,108.217c-2.418,25.698-34.455,34.178-48.979,48.979
	l-22.348,25.698v2.418l29.635,83.45c-6.078,2.418-10.896-2.418-20.879-2.418c-35.664-12.4-34.471-62.588-55.318-88.286
	c-12.383,41.726-19.637,90.704-19.637,132.429v412.658c0,23.264-1.225,51.396-8.494,78.304l-227.063-0.882
	c-6.011-23.313-20.534-47.492,10.922-81.342c0-8.79,16.01-13.299,14.793-30.535l22.072-30.844l-12.375-28.427l-20.855,6.354
	l-7.27-24.488l7.27-25.699l-35.394-30.828l-19.645,20.553l-30.551-10.57l-1.486-28.116l-51.699-2.417l-7.262,32.951l-30.551,9.672
	l-22.055-24.489c-16.043,6.339-33.263,19.653-46.545,33.245l10.864,25.699l-19.653,26.906l-35.975-2.418
	c-4.525,9.982-8.462,25.421-9.377,36.612l22.97,24.767c0,18.429,3.938,17.22,11.191,28.41
	C412.19,819.585,407.338,834.991,396.458,866.75 M978.768,89.791c-9.115-15.422-12.121-24.783-37.82-25.698H118.024
	c-13.005,0-22.97,2.124-30.836,15.422l-33.867,82.813c4.844-5.13,14.516-8.446,25.984-8.446h901.831
	c8.807,2.418,11.191,7.237,16.043,12.089C1006.852,164.762,981.137,97.028,978.768,89.791 M405.835,132.415
	c8.152-6.649,11.485-11.796,15.406-19.05c1.209-4.231,1.209-5.734,1.209-12.399c0-0.604-2.124-7.254-6.339-7.254h-16.019
	c0,0-5.139,0.588-6.053-6.633v-5.473l4.541-0.883v-7.27c0-0.588-0.604-3.022-3.022-3.022h-6.942v35.076h16.623
	c0,0,5.733,0,10.872,2.123c-2.124,2.092-1.503,12.988-16.926,15.423v9.361H405.835z M341.14,132.415
	c8.749-6.649,12.384-11.796,16.02-19.05c1.502-4.231,1.502-5.734,1.502-12.399c-0.58-0.604-2.099-7.254-6.347-7.254h-16.304
	c0,0-4.845,0.588-5.768-6.633v-5.473l4.559-0.883v-7.27c0-0.588-1.504-3.022-3.039-3.022h-7.246v35.076h16.02
	c0,0,5.75,0,10.863,2.123c-1.511,2.092-1.511,12.988-16.598,15.423c0.588,4.215,0.588,9.361,0.588,9.361H341.14z M190.267,132.415
	c8.496-6.649,12.09-11.796,15.129-19.05c2.107-4.231,2.107-5.734,1.503-12.399c0-0.604-1.503-7.254-5.759-7.254h-16.917
	c0,0-4.231,0.588-5.734-6.633v-5.473l5.146-0.883l-0.914-7.27c0-0.588-0.605-3.022-1.813-3.022h-7.271v35.076h16.043
	c0,0,5.734,0,10.57,2.123c-1.486,2.092-1.486,12.988-16.615,15.423c0.589,4.215,0.589,9.361,0.589,9.361H190.267z"/>
</svg>
