<?xml version="1.0" encoding="utf-8"?>
<!-- Generator: Adobe Illustrator 15.0.0, SVG Export Plug-In . SVG Version: 6.00 Build 0)  -->
<!DOCTYPE svg PUBLIC "-//W3C//DTD SVG 1.1//EN" "http://www.w3.org/Graphics/SVG/1.1/DTD/svg11.dtd">
<svg version="1.1" id="Layer_1" xmlns="http://www.w3.org/2000/svg" xmlns:xlink="http://www.w3.org/1999/xlink" x="0px" y="0px"
	 width="1029.805px" height="1286.512px" viewBox="0 0 1029.805 1286.512" enable-background="new 0 0 1029.805 1286.512"
	 xml:space="preserve">
<path fill="#FFFFFF" d="M237.319,157.405l-98.593,109.252l-118.115-9.091C71.41,339.595,80.58,413.841,73.318,499.235
	c-6.023,70.84-25.356,112.761-67.237,170.821c21.406,32.215,36.796,49.986,47.242,87.231
	c29.07,103.568-2.728,166.043,43.616,256.208c29.739,57.871,53.558,89.187,103.567,130.832
	c49.939,41.598,85.529,57.571,147.176,78.133c49.057,16.368,61.568,14.349,98.128,30.89c20.507,9.272,31.79,15.327,50.878,27.265
	c19.088-11.938,28.075-18.056,47.25-27.265c36.142-17.361,49.056-14.522,98.112-30.89c61.654-20.562,96.03-43.127,147.184-85.402
	c50.728-41.913,77.266-70.612,110.837-127.205c49.466-83.4,36.331-136.288,65.424-239.855
	c10.438-37.245,32.325-62.964,58.139-99.941c-43.285-57.689-64.856-99.98-70.88-170.821c-7.254-85.395,0.631-170.379,56.341-256.2
	l-125.375,12.709L723.81,124.165L237.319,157.405z"/>
<path fill="none" stroke="#026397" stroke-width="10" stroke-miterlimit="3.864" d="M237.319,157.405l-98.593,109.252
	l-118.115-9.091C71.41,339.595,80.58,413.841,73.318,499.235c-6.023,70.84-25.356,112.761-67.237,170.821
	c21.406,32.215,36.796,49.986,47.242,87.231c29.07,103.568-2.728,166.043,43.616,256.208
	c29.739,57.871,53.558,89.187,103.567,130.832c49.939,41.598,85.529,57.571,147.176,78.133
	c49.057,16.368,61.568,14.349,98.128,30.89c20.507,9.272,31.79,15.327,50.878,27.265c19.088-11.938,28.075-18.056,47.25-27.265
	c36.142-17.361,49.056-14.522,98.112-30.89c61.654-20.562,96.03-43.127,147.184-85.402c50.728-41.913,77.266-70.612,110.837-127.205
	c49.466-83.4,36.331-136.288,65.424-239.855c10.438-37.245,32.325-62.964,58.139-99.941c-43.285-57.689-64.856-99.98-70.88-170.821
	c-7.254-85.395,0.631-170.379,56.341-256.2l-125.375,12.709L723.81,124.165L237.319,157.405z"/>
<polygon fill="#FFFFFF" points="127.617,187.57 47.434,255.761 139.664,263.771 139.664,323.929 235.883,259.766 219.847,235.704 
	219.847,207.644 "/>
<polygon fill="none" stroke="#026397" stroke-width="10" stroke-miterlimit="3.864" points="127.617,187.57 47.434,255.761 
	139.664,263.771 139.664,323.929 235.883,259.766 219.847,235.704 219.847,207.644 "/>
<path fill="none" stroke="#026397" stroke-width="10" stroke-miterlimit="3.864" d="M175.75,243.729
	c7.19,8.688,13.293,12.726,24.094,15.934c10.479,3.138,17.535,3.154,28.029,0.103"/>
<path fill="#FFFFFF" d="M885.516,191.591l52.131,56.16l-56.136,8.011l-4.005,76.209l-92.246-68.183
	c7.679-4.391,11.637-8.365,15.989-16.052c6.181-10.983,7.316-19.892,4.068-32.065L885.516,191.591z"/>
<path fill="none" stroke="#026397" stroke-width="10" stroke-miterlimit="3.864" d="M885.516,191.591l52.131,56.16l-56.136,8.011
	l-4.005,76.209l-92.246-68.183c7.679-4.391,11.637-8.365,15.989-16.052c6.181-10.983,7.316-19.892,4.068-32.065L885.516,191.591z"/>
<path fill="none" stroke="#026397" stroke-width="10" stroke-miterlimit="3.864" d="M841.932,250.297
	c-8.673,9.745-15.942,14.152-28.572,17.393c-10.597,2.696-17.409,2.728-28.037,0.095"/>
<path fill="#FFFFFF" d="M284.183,154.015l59.865,147.184c63.413-28.068,105.104-36.315,174.439-34.525
	c66.322,1.695,105.57,11.188,165.349,39.965l74.002-135.602c-86.569-34.683-140.703-46.194-233.91-49.734
	C429.631,117.715,374.071,125.292,284.183,154.015z"/>
<path fill="none" stroke="#026397" stroke-width="10" stroke-miterlimit="3.864" d="M284.183,154.015l59.865,147.184
	c63.413-28.068,105.104-36.315,174.439-34.525c66.322,1.695,105.57,11.188,165.349,39.965l74.002-135.602
	c-86.569-34.683-140.703-46.194-233.91-49.734C429.631,117.715,374.071,125.292,284.183,154.015z"/>
<path fill="#07723F" d="M167.795,452.008c12.33-8.83,18.322-16.675,23.621-30.89c7.427-19.971,3.635-34.518-3.635-54.512
	l-25.45,27.256c-7.939-5.259-11.945-9.721-16.337-18.181c-3.729-7.151-5.038-11.914-5.463-19.971l-3.627-9.09
	c-11.646,10.281-16.376,20.798-16.36,36.346c0.016,10.321,1.167,17.117,7.27,25.427c4.794,6.513,8.862,9.69,16.352,12.726
	c-1.111,7.143-0.126,12,3.635,18.165C152.625,447.184,158.602,450.976,167.795,452.008z"/>
<path fill="none" stroke="#07723F" stroke-width="10" stroke-miterlimit="3.864" d="M167.795,452.008
	c12.33-8.83,18.322-16.675,23.621-30.89c7.427-19.971,3.635-34.518-3.635-54.512l-25.45,27.256
	c-7.939-5.259-11.945-9.721-16.337-18.181c-3.729-7.151-5.038-11.914-5.463-19.971l-3.627-9.09
	c-11.646,10.281-16.376,20.798-16.36,36.346c0.016,10.321,1.167,17.117,7.27,25.427c4.794,6.513,8.862,9.69,16.352,12.726
	c-1.111,7.143-0.126,12,3.635,18.165C152.625,447.184,158.602,450.976,167.795,452.008z"/>
<path fill="none" stroke="#07723F" stroke-width="10" stroke-miterlimit="3.864" d="M142.36,475.63
	c0-12.04,9.77-21.792,21.801-21.792c12.047,0,21.815,9.752,21.815,21.792c0,12.047-9.769,21.8-21.815,21.8
	C152.129,497.43,142.36,487.677,142.36,475.63z"/>
<path fill="none" stroke="#07723F" stroke-width="10" stroke-miterlimit="3.864" d="M102.379,651.891
	c0-12.047,9.769-21.792,21.8-21.792c12.047,0,21.815,9.745,21.815,21.792c0,12.047-9.769,21.792-21.815,21.792
	C112.148,673.683,102.379,663.938,102.379,651.891z"/>
<path fill="none" stroke="#07723F" stroke-width="10" stroke-miterlimit="3.864" d="M171.421,839.063
	c0-10.061,8.145-18.166,18.166-18.166c10.044,0,18.181,8.105,18.181,18.166c0,10.013-8.137,18.166-18.181,18.166
	C179.566,857.229,171.421,849.077,171.421,839.063z"/>
<path fill="none" stroke="#07723F" stroke-width="10" stroke-miterlimit="3.864" d="M167.795,1020.78
	c0-12.047,9.769-21.808,21.792-21.808c12.047,0,21.815,9.761,21.815,21.808c0,12.047-9.769,21.792-21.815,21.792
	C177.564,1042.572,167.795,1032.827,167.795,1020.78z"/>
<path fill="#07723F" d="M145.995,555.577l10.896,16.359c11.156,1.081,18.993-1.537,27.256-9.09
	c9.935-9.059,10.525-19.269,10.904-32.72c0.173-6.41-0.229-10.124-1.813-16.336l9.074-21.815c-11.4,3.887-17.66,7.229-27.239,14.546
	c-7.979,6.071-12.111,10.187-18.182,18.166c-2.838-14.066-5.764-21.974-12.709-34.518c-3.729-6.702-6.276-10.257-10.912-16.36
	c-6.978-9.185-11.433-14.065-19.995-21.816c-9.035,12.308-12.606,21.201-14.53,36.347c-1.987,15.611-3.083,26.759,5.456,39.981
	c6.008,9.304,12.323,12.449,21.8,18.166C133.333,550.925,137.834,552.959,145.995,555.577z"/>
<path fill="none" stroke="#07723F" stroke-width="10" stroke-miterlimit="3.864" d="M145.995,555.577l10.896,16.359
	c11.156,1.081,18.993-1.537,27.256-9.09c9.935-9.059,10.525-19.269,10.904-32.72c0.173-6.41-0.229-10.124-1.813-16.336l9.074-21.815
	c-11.4,3.887-17.66,7.229-27.239,14.546c-7.979,6.071-12.111,10.187-18.182,18.166c-2.838-14.066-5.764-21.974-12.709-34.518
	c-3.729-6.702-6.276-10.257-10.912-16.36c-6.978-9.185-11.433-14.065-19.995-21.816c-9.035,12.308-12.606,21.201-14.53,36.347
	c-1.987,15.611-3.083,26.759,5.456,39.981c6.008,9.304,12.323,12.449,21.8,18.166C133.333,550.925,137.834,552.959,145.995,555.577z
	"/>
<path fill="#07723F" d="M138.726,630.075c7.332-5.337,10.935-9.847,14.53-18.165c2.602-6,4.313-9.863,3.635-16.352
	c-1.08-10.581-8.768-14.373-16.359-21.816c-5.764-5.653-9.28-8.783-16.337-12.709c-4.715-2.633-8.302-2.357-12.726-5.456
	c-5.345-3.745-8.01-6.859-10.896-12.726c-0.354,11.338-0.354,17.748,0,29.085c0.354,11.346-2.649,18.615,1.806,29.062
	c3.571,8.35,7.506,12.434,14.546,18.181C124.29,625.187,129.493,627.804,138.726,630.075z"/>
<path fill="none" stroke="#07723F" stroke-width="10" stroke-miterlimit="3.864" d="M138.726,630.075
	c7.332-5.337,10.935-9.847,14.53-18.165c2.602-6,4.313-9.863,3.635-16.352c-1.08-10.581-8.768-14.373-16.359-21.816
	c-5.764-5.653-9.28-8.783-16.337-12.709c-4.715-2.633-8.302-2.357-12.726-5.456c-5.345-3.745-8.01-6.859-10.896-12.726
	c-0.354,11.338-0.354,17.748,0,29.085c0.354,11.346-2.649,18.615,1.806,29.062c3.571,8.35,7.506,12.434,14.546,18.181
	C124.29,625.187,129.493,627.804,138.726,630.075z"/>
<path fill="#07723F" d="M155.085,717.299c14.318-11.858,21.493-20.278,30.891-36.331c9.17-15.689,18.197-25.553,16.353-43.624
	c-0.6-5.811-2.113-8.878-3.635-14.531c-1.341-4.991-2.145-7.782-3.627-12.725c-12.552,13.017-19.364,20.617-30.891,34.525
	c-8.058,9.721-16.518,13.316-19.994,25.442c-2.531,8.862-1.885,14.602,0,23.621C146.248,703.612,148.865,709.288,155.085,717.299z"
	/>
<path fill="none" stroke="#07723F" stroke-width="10" stroke-miterlimit="3.864" d="M155.085,717.299
	c14.318-11.858,21.493-20.278,30.891-36.331c9.17-15.689,18.197-25.553,16.353-43.624c-0.6-5.811-2.113-8.878-3.635-14.531
	c-1.341-4.991-2.145-7.782-3.627-12.725c-12.552,13.017-19.364,20.617-30.891,34.525c-8.058,9.721-16.518,13.316-19.994,25.442
	c-2.531,8.862-1.885,14.602,0,23.621C146.248,703.612,148.865,709.288,155.085,717.299z"/>
<path fill="#07723F" d="M129.635,779.08c9.477-5.708,14.255-11.448,18.165-21.792c5.299-13.987,3.942-25.277-3.635-38.176
	c-5.329-9.067-13.111-10.186-19.986-18.165c-5.638-6.544-8.365-10.691-12.71-18.166c-3.177-5.487-4.793-8.704-7.269-14.554
	c-4.423,22.99-4.841,36.772-1.821,59.983c1.695,12.946,0.323,21.634,7.27,32.704C115.247,769.839,120.221,774.365,129.635,779.08z"
	/>
<path fill="none" stroke="#07723F" stroke-width="10" stroke-miterlimit="3.864" d="M129.635,779.08
	c9.477-5.708,14.255-11.448,18.165-21.792c5.299-13.987,3.942-25.277-3.635-38.176c-5.329-9.067-13.111-10.186-19.986-18.165
	c-5.638-6.544-8.365-10.691-12.71-18.166c-3.177-5.487-4.793-8.704-7.269-14.554c-4.423,22.99-4.841,36.772-1.821,59.983
	c1.695,12.946,0.323,21.634,7.27,32.704C115.247,769.839,120.221,774.365,129.635,779.08z"/>
<path fill="#07723F" d="M173.25,829.965c5.456-3.611,8.334-6.071,12.726-10.896c4.084-4.525,6.103-7.411,9.075-12.741
	c6.473-11.542,7.679-19.521,9.09-32.704c0.899-8.452,1.325-13.403,0-21.792c-1.15-7.316-1.766-11.763-5.463-18.165
	c-2.76-4.825-4.857-7.333-9.075-10.912c0.354,6.402-0.063,10.187-1.821,16.352c-4.25,15.012-18.765,16.762-25.435,30.891
	c-4.407,9.335-7.12,15.122-7.262,25.451c-0.149,9.43,0.063,15.832,5.44,23.621C164.239,824.43,167.37,827.111,173.25,829.965z"/>
<path fill="none" stroke="#07723F" stroke-width="10" stroke-miterlimit="3.864" d="M173.25,829.965
	c5.456-3.611,8.334-6.071,12.726-10.896c4.084-4.525,6.103-7.411,9.075-12.741c6.473-11.542,7.679-19.521,9.09-32.704
	c0.899-8.452,1.325-13.403,0-21.792c-1.15-7.316-1.766-11.763-5.463-18.165c-2.76-4.825-4.857-7.333-9.075-10.912
	c0.354,6.402-0.063,10.187-1.821,16.352c-4.25,15.012-18.765,16.762-25.435,30.891c-4.407,9.335-7.12,15.122-7.262,25.451
	c-0.149,9.43,0.063,15.832,5.44,23.621C164.239,824.43,167.37,827.111,173.25,829.965z"/>
<path fill="#07723F" d="M162.347,895.389c7.545-2.933,11.755-8.326,12.726-16.352c0.812-6.67-2.547-10.297-5.456-16.352
	c-3.312-6.922-5.961-10.486-10.896-16.368c-6.142-7.285-11.842-9.209-18.165-16.336c-3.02-3.391-4.637-5.409-7.285-9.083
	l-3.635-19.995c-11.015,11.858-15.358,21.981-16.336,38.16c-1.104,17.897,4.115,29.014,14.53,43.6
	c5.826,8.152,8.2,17.077,18.165,18.181C152.681,901.602,157.458,899.993,162.347,895.389z"/>
<path fill="none" stroke="#07723F" stroke-width="10" stroke-miterlimit="3.864" d="M162.347,895.389
	c7.545-2.933,11.755-8.326,12.726-16.352c0.812-6.67-2.547-10.297-5.456-16.352c-3.312-6.922-5.961-10.486-10.896-16.368
	c-6.142-7.285-11.842-9.209-18.165-16.336c-3.02-3.391-4.637-5.409-7.285-9.083l-3.635-19.995
	c-11.015,11.858-15.358,21.981-16.336,38.16c-1.104,17.897,4.115,29.014,14.53,43.6c5.826,8.152,8.2,17.077,18.165,18.181
	C152.681,901.602,157.458,899.993,162.347,895.389z"/>
<path fill="#07723F" d="M187.782,937.175c6.521,0.347,10.589-0.567,16.359-3.627c9.879-5.267,12.654-13.056,16.353-23.621
	c3.745-10.723,2.342-17.724,1.813-29.077c-0.474-10.029-0.166-16.052-3.635-25.451c-2.523-6.843-4.604-10.581-9.091-16.336
	c-3.279,7.569-5.747,11.7-10.903,18.166c-4.376,5.487-8.649,7.001-12.702,12.709c-5.346,7.538-6.606,12.931-9.091,21.824
	c-2.72,9.635-4.415,15.422-3.635,25.419c0.497,6.528,1.325,10.25,3.635,16.368c-7.222-2.507-11.227-4.131-18.188-7.269
	c-5.764-2.618-9.248-3.769-14.531-7.27c-3.776-2.523-5.795-4.131-9.074-7.285c-3.84,7.127-5.148,11.921-5.456,19.994
	c-0.615,16.462,7.072,25.987,18.165,38.176c7.167,7.837,11.969,12.347,21.816,16.336c5.408,2.223,8.72,3.043,14.53,3.643
	c6.993-5.078,10.336-9.855,12.726-18.166c2.53-8.894,1.837-15.138-1.821-23.621C193.033,943.388,191.33,940.865,187.782,937.175z"/>
<path fill="none" stroke="#07723F" stroke-width="10" stroke-miterlimit="3.864" d="M187.782,937.175
	c6.521,0.347,10.589-0.567,16.359-3.627c9.879-5.267,12.654-13.056,16.353-23.621c3.745-10.723,2.342-17.724,1.813-29.077
	c-0.474-10.029-0.166-16.052-3.635-25.451c-2.523-6.843-4.604-10.581-9.091-16.336c-3.279,7.569-5.747,11.7-10.903,18.166
	c-4.376,5.487-8.649,7.001-12.702,12.709c-5.346,7.538-6.606,12.931-9.091,21.824c-2.72,9.635-4.415,15.422-3.635,25.419
	c0.497,6.528,1.325,10.25,3.635,16.368c-7.222-2.507-11.227-4.131-18.188-7.269c-5.764-2.618-9.248-3.769-14.531-7.27
	c-3.776-2.523-5.795-4.131-9.074-7.285c-3.84,7.127-5.148,11.921-5.456,19.994c-0.615,16.462,7.072,25.987,18.165,38.176
	c7.167,7.837,11.969,12.347,21.816,16.336c5.408,2.223,8.72,3.043,14.53,3.643c6.993-5.078,10.336-9.855,12.726-18.166
	c2.53-8.894,1.837-15.138-1.821-23.621C193.033,943.388,191.33,940.865,187.782,937.175z"/>
<path fill="#07723F" d="M244.115,1055.297c11.148-5.74,16.975-12.047,21.8-23.637c4.652-11.133,3.942-18.985,1.829-30.875
	c-1.727-9.713-4.698-14.791-9.09-23.621c-3.683-7.412-6.11-11.448-10.904-18.166c-12.575,7.411-18.938,15.217-23.621,29.062
	c-4.313,12.757-2.516,21.303,0,34.517c1.388,7.27,1.727,11.795,5.456,18.181C233.621,1047.681,237.192,1051.261,244.115,1055.297z"
	/>
<path fill="none" stroke="#07723F" stroke-width="10" stroke-miterlimit="3.864" d="M244.115,1055.297
	c11.148-5.74,16.975-12.047,21.8-23.637c4.652-11.133,3.942-18.985,1.829-30.875c-1.727-9.713-4.698-14.791-9.09-23.621
	c-3.683-7.412-6.11-11.448-10.904-18.166c-12.575,7.411-18.938,15.217-23.621,29.062c-4.313,12.757-2.516,21.303,0,34.517
	c1.388,7.27,1.727,11.795,5.456,18.181C233.621,1047.681,237.192,1051.261,244.115,1055.297z"/>
<path fill="#07723F" d="M289.536,1082.545c-6.583-8.326-11.944-12.347-21.792-16.352c-9.303-3.753-15.421-3.532-25.45-3.627
	c-7.813-0.095-12.205,0.946-19.986,1.813c-5.669,0.63-8.87,2.539-14.539,1.813c-10.139-1.293-16.707-5.677-21.792-14.539
	c-0.26,5.708,0.157,9.067,1.806,14.539c2.389,7.916,5.211,12.173,10.896,18.181c6.362,6.702,11.645,8.752,19.994,12.709
	c13.206,6.26,21.815,10.675,36.347,9.099c8.909-0.978,14.562-1.987,21.8-7.285C283.339,1094.135,286.516,1090.036,289.536,1082.545z
	"/>
<path fill="none" stroke="#07723F" stroke-width="10" stroke-miterlimit="3.864" d="M289.536,1082.545
	c-6.583-8.326-11.944-12.347-21.792-16.352c-9.303-3.753-15.421-3.532-25.45-3.627c-7.813-0.095-12.205,0.946-19.986,1.813
	c-5.669,0.63-8.87,2.539-14.539,1.813c-10.139-1.293-16.707-5.677-21.792-14.539c-0.26,5.708,0.157,9.067,1.806,14.539
	c2.389,7.916,5.211,12.173,10.896,18.181c6.362,6.702,11.645,8.752,19.994,12.709c13.206,6.26,21.815,10.675,36.347,9.099
	c8.909-0.978,14.562-1.987,21.8-7.285C283.339,1094.135,286.516,1090.036,289.536,1082.545z"/>
<path fill="#07723F" d="M331.331,1107.98c8.878-6.182,13.009-12.915,14.531-23.622c2.081-14.759-7.53-22.518-16.36-34.533
	c-8.602-11.716-15.209-17.282-27.256-25.435c-7.349-4.967-11.818-7.411-19.971-10.896c-1.86,3.879-2.326,6.623-1.829,10.896
	c0.78,6.639,6.575,8.342,9.09,14.554c2.973,7.317,1.956,12.237,3.635,19.979c2.326,10.738,1.475,17.913,7.27,27.264
	C308.222,1098.708,316.926,1104.858,331.331,1107.98z"/>
<path fill="none" stroke="#07723F" stroke-width="10" stroke-miterlimit="3.864" d="M331.331,1107.98
	c8.878-6.182,13.009-12.915,14.531-23.622c2.081-14.759-7.53-22.518-16.36-34.533c-8.602-11.716-15.209-17.282-27.256-25.435
	c-7.349-4.967-11.818-7.411-19.971-10.896c-1.86,3.879-2.326,6.623-1.829,10.896c0.78,6.639,6.575,8.342,9.09,14.554
	c2.973,7.317,1.956,12.237,3.635,19.979c2.326,10.738,1.475,17.913,7.27,27.264C308.222,1098.708,316.926,1104.858,331.331,1107.98z
	"/>
<path fill="#07723F" d="M385.842,1146.156c-1.403-10.455-10.431-13.734-19.994-18.165c-13.498-6.292-23.282-0.426-38.152,0
	c-13.482,0.362-21.043,2.065-34.525,1.813c-9.941-0.189-15.563-0.599-25.442-1.813c5.274,16.32,12.607,25.608,27.256,34.517
	c12.481,7.601,21.792,7.695,36.347,9.083c14.129,1.356,24.087,5.33,36.347-1.813
	C377.706,1163.911,387.388,1157.683,385.842,1146.156z"/>
<path fill="none" stroke="#07723F" stroke-width="10" stroke-miterlimit="3.864" d="M385.842,1146.156
	c-1.403-10.455-10.431-13.734-19.994-18.165c-13.498-6.292-23.282-0.426-38.152,0c-13.482,0.362-21.043,2.065-34.525,1.813
	c-9.941-0.189-15.563-0.599-25.442-1.813c5.274,16.32,12.607,25.608,27.256,34.517c12.481,7.601,21.792,7.695,36.347,9.083
	c14.129,1.356,24.087,5.33,36.347-1.813C377.706,1163.911,387.388,1157.683,385.842,1146.156z"/>
<path fill="#07723F" d="M493.038,1169.777c-1.695-5.267-4.747-7.458-9.091-10.896c-8.09-6.418-15.178-8.452-25.427-7.27
	c1.758-6.859,1.758-11.322,0-18.181c-4.155-16.084-18.733-18.292-32.72-27.248c-11.992-7.711-19.144-11.921-32.696-16.368
	c-9.65-3.154-15.351-4.384-25.442-5.44c7.293,10.77,10.943,17.235,16.352,29.062c3.186,6.938,3.249,11.7,7.27,18.181
	c5.282,8.515,10.013,12.347,18.181,18.166c7.734,5.535,12.741,8.026,21.801,10.896c-0.261,3.816-1.199,6.15-3.635,9.099
	c-5.07,6.086-12.11,2.87-19.995,3.643c-9.169,0.883-14.443,0.883-23.621,0c5.606,8.925,9.816,13.561,18.165,19.979
	c11.078,8.5,18.962,12.158,32.721,14.523c12.591,2.192,20.987,3.28,32.711-1.798c9.233-4.005,14.791-7.727,19.972-16.368
	C491.752,1182.849,495.513,1177.457,493.038,1169.777z"/>
<path fill="none" stroke="#07723F" stroke-width="10" stroke-miterlimit="3.864" d="M493.038,1169.777
	c-1.695-5.267-4.747-7.458-9.091-10.896c-8.09-6.418-15.178-8.452-25.427-7.27c1.758-6.859,1.758-11.322,0-18.181
	c-4.155-16.084-18.733-18.292-32.72-27.248c-11.992-7.711-19.144-11.921-32.696-16.368c-9.65-3.154-15.351-4.384-25.442-5.44
	c7.293,10.77,10.943,17.235,16.352,29.062c3.186,6.938,3.249,11.7,7.27,18.181c5.282,8.515,10.013,12.347,18.181,18.166
	c7.734,5.535,12.741,8.026,21.801,10.896c-0.261,3.816-1.199,6.15-3.635,9.099c-5.07,6.086-12.11,2.87-19.995,3.643
	c-9.169,0.883-14.443,0.883-23.621,0c5.606,8.925,9.816,13.561,18.165,19.979c11.078,8.5,18.962,12.158,32.721,14.523
	c12.591,2.192,20.987,3.28,32.711-1.798c9.233-4.005,14.791-7.727,19.972-16.368
	C491.752,1182.849,495.513,1177.457,493.038,1169.777z"/>
<path fill="#07723F" d="M547.549,1149.783c-12.3-3.643-21.509-2.602-32.712,3.643c-7.86,4.384-11.945,8.468-16.337,16.352
	c6.553,13.529,13.719,20.704,27.256,27.264c14.713,7.127,25.498,5.172,41.787,3.627c12.315-1.167,22.564,1.892,30.891-7.27
	c5.566-6.134,7.601-11.716,7.254-19.979c-6.402,0.331-10.155-0.095-16.337-1.829c-9.492-2.681-14.822-5.787-21.808-12.709
	c8.594-3.406,13.262-6.386,19.979-12.726c10.597-10.044,11.748-19.6,18.166-32.72c5.455-11.101,5.677-18.906,12.74-29.062
	c3.706-5.377,6.15-8.215,10.896-12.725c-11.243-1.671-18.134-1.246-29.093,1.813c-19.916,5.582-31.001,15.043-41.787,32.72
	C549.331,1121.131,546.555,1132.28,547.549,1149.783z"/>
<path fill="none" stroke="#07723F" stroke-width="10" stroke-miterlimit="3.864" d="M547.549,1149.783
	c-12.3-3.643-21.509-2.602-32.712,3.643c-7.86,4.384-11.945,8.468-16.337,16.352c6.553,13.529,13.719,20.704,27.256,27.264
	c14.713,7.127,25.498,5.172,41.787,3.627c12.315-1.167,22.564,1.892,30.891-7.27c5.566-6.134,7.601-11.716,7.254-19.979
	c-6.402,0.331-10.155-0.095-16.337-1.829c-9.492-2.681-14.822-5.787-21.808-12.709c8.594-3.406,13.262-6.386,19.979-12.726
	c10.597-10.044,11.748-19.6,18.166-32.72c5.455-11.101,5.677-18.906,12.74-29.062c3.706-5.377,6.15-8.215,10.896-12.725
	c-11.243-1.671-18.134-1.246-29.093,1.813c-19.916,5.582-31.001,15.043-41.787,32.72
	C549.331,1121.131,546.555,1132.28,547.549,1149.783z"/>
<path fill="#07723F" d="M629.325,1135.229c-0.174-6.718,1.277-11.07,5.456-16.336c6.513-8.278,10.896-7.285,25.435-9.083
	c-1.451-14.98-0.126-24.205,5.456-38.176c5.472-13.703,10.659-21.208,21.792-30.891c12.457-10.801,21.934-15.295,38.16-18.166
	c-5.646,7.632-8.2,12.694-10.912,21.792c-3.643,12.236,0.836,20.215-1.813,32.72c-2.807,13.387-5.755,20.925-12.709,32.72
	c6.354,3.784,10.77,5.109,18.165,5.44c7.222,0.331,11.621-0.567,18.165-3.643c-5.267,13.167-10.644,20.341-21.808,29.077
	c-12,9.398-19.979,9.083-36.331,14.539c-10.123,3.375-17.345,2.082-27.264-1.829C640.82,1149.357,635.174,1144.626,629.325,1135.229
	z"/>
<path fill="none" stroke="#07723F" stroke-width="10" stroke-miterlimit="3.864" d="M629.325,1135.229
	c-0.174-6.718,1.277-11.07,5.456-16.336c6.513-8.278,10.896-7.285,25.435-9.083c-1.451-14.98-0.126-24.205,5.456-38.176
	c5.472-13.703,10.659-21.208,21.792-30.891c12.457-10.801,21.934-15.295,38.16-18.166c-5.646,7.632-8.2,12.694-10.912,21.792
	c-3.643,12.236,0.836,20.215-1.813,32.72c-2.807,13.387-5.755,20.925-12.709,32.72c6.354,3.784,10.77,5.109,18.165,5.44
	c7.222,0.331,11.621-0.567,18.165-3.643c-5.267,13.167-10.644,20.341-21.808,29.077c-12,9.398-19.979,9.083-36.331,14.539
	c-10.123,3.375-17.345,2.082-27.264-1.829C640.82,1149.357,635.174,1144.626,629.325,1135.229z"/>
<path fill="#07723F" d="M741.975,1109.81c16.179-0.221,24.804-8.657,36.347-19.995c7.979-7.853,8.326-15.8,16.336-23.621
	c10.029-9.745,17.503-14.16,30.906-18.166c-19.553-3.343-31.315-3.343-50.869,0c-16.131,2.744-27.484,2.176-39.989,12.709
	c-8.578,7.222-14.948,12.52-16.352,23.621c-1.088,8.704-1.246,16.163,5.456,21.824
	C729.344,1110.85,734.738,1109.904,741.975,1109.81z"/>
<path fill="none" stroke="#07723F" stroke-width="10" stroke-miterlimit="3.864" d="M741.975,1109.81
	c16.179-0.221,24.804-8.657,36.347-19.995c7.979-7.853,8.326-15.8,16.336-23.621c10.029-9.745,17.503-14.16,30.906-18.166
	c-19.553-3.343-31.315-3.343-50.869,0c-16.131,2.744-27.484,2.176-39.989,12.709c-8.578,7.222-14.948,12.52-16.352,23.621
	c-1.088,8.704-1.246,16.163,5.456,21.824C729.344,1110.85,734.738,1109.904,741.975,1109.81z"/>
<path fill="#07723F" d="M765.612,1040.759c7.38-6.181,10.912-11.054,14.523-19.979c4.777-11.858,1.514-19.947,1.813-32.72
	c0.252-9.918-1.893-15.69,0-25.435c1.293-6.607,2.522-10.313,5.456-16.368c-17.299,9.13-26.334,17.74-36.331,34.533
	c-8.357,14.065-17.755,24.41-12.726,39.989c2.35,7.285,4.432,12.205,10.896,16.352
	C754.748,1040.648,759.116,1041.626,765.612,1040.759z"/>
<path fill="none" stroke="#07723F" stroke-width="10" stroke-miterlimit="3.864" d="M765.612,1040.759
	c7.38-6.181,10.912-11.054,14.523-19.979c4.777-11.858,1.514-19.947,1.813-32.72c0.252-9.918-1.893-15.69,0-25.435
	c1.293-6.607,2.522-10.313,5.456-16.368c-17.299,9.13-26.334,17.74-36.331,34.533c-8.357,14.065-17.755,24.41-12.726,39.989
	c2.35,7.285,4.432,12.205,10.896,16.352C754.748,1040.648,759.116,1041.626,765.612,1040.759z"/>
<path fill="#07723F" d="M829.207,1004.413c10.676-1.514,16.968-4.21,25.435-10.896c10.029-7.931,11.228-16.541,18.166-27.264
	c9.508-14.696,14.696-23.101,23.637-38.16c-8.184-2.413-13.34-2.838-21.808-1.813c-13.214,1.593-19.711,7.316-30.906,14.523
	c-5.961,3.847-9.162,6.276-14.523,10.912c5.787-8.799,7.995-14.949,9.099-25.435c1.672-16.068-4.431-25.183-10.928-39.973
	c-5.992-13.703-10.518-21.13-19.979-32.72c-11.385,14.05-16.179,24.142-19.994,41.802c-3.406,15.942-7.412,27.28,0,41.787
	c5.014,9.824,9.603,16.336,19.994,19.995c4.73,1.671,7.711,2.097,12.709,1.829c-8.436,8.831-10.359,19.679-5.439,30.875
	C817.885,997.222,821.859,1001.196,829.207,1004.413z"/>
<path fill="none" stroke="#07723F" stroke-width="10" stroke-miterlimit="3.864" d="M829.207,1004.413
	c10.676-1.514,16.968-4.21,25.435-10.896c10.029-7.931,11.228-16.541,18.166-27.264c9.508-14.696,14.696-23.101,23.637-38.16
	c-8.184-2.413-13.34-2.838-21.808-1.813c-13.214,1.593-19.711,7.316-30.906,14.523c-5.961,3.847-9.162,6.276-14.523,10.912
	c5.787-8.799,7.995-14.949,9.099-25.435c1.672-16.068-4.431-25.183-10.928-39.973c-5.992-13.703-10.518-21.13-19.979-32.72
	c-11.385,14.05-16.179,24.142-19.994,41.802c-3.406,15.942-7.412,27.28,0,41.787c5.014,9.824,9.603,16.336,19.994,19.995
	c4.73,1.671,7.711,2.097,12.709,1.829c-8.436,8.831-10.359,19.679-5.439,30.875C817.885,997.222,821.859,1001.196,829.207,1004.413z
	"/>
<path fill="#07723F" d="M867.351,911.756c11.779-11.89,17.566-19.773,25.45-34.533c6.434-12.079,11.022-19.143,12.71-32.704
	c1.324-10.581,0.819-16.936-1.798-27.264c-1.893-7.396-3.532-11.511-7.285-18.165c-2.555,9.161-5.125,14.254-10.912,21.808
	c-6.717,8.768-13.766,10.534-21.792,18.166c-8.357,7.947-15.595,11.132-19.994,21.808c-4.856,11.811-5.897,21.398,0,32.72
	C849.123,903.872,856.029,909.202,867.351,911.756z"/>
<path fill="none" stroke="#07723F" stroke-width="10" stroke-miterlimit="3.864" d="M867.351,911.756
	c11.779-11.89,17.566-19.773,25.45-34.533c6.434-12.079,11.022-19.143,12.71-32.704c1.324-10.581,0.819-16.936-1.798-27.264
	c-1.893-7.396-3.532-11.511-7.285-18.165c-2.555,9.161-5.125,14.254-10.912,21.808c-6.717,8.768-13.766,10.534-21.792,18.166
	c-8.357,7.947-15.595,11.132-19.994,21.808c-4.856,11.811-5.897,21.398,0,32.72C849.123,903.872,856.029,909.202,867.351,911.756z"
	/>
<path fill="#07723F" d="M854.641,826.322c6.813-7.111,9.871-12.378,12.71-21.792c4.1-13.592,1.45-22.549-1.813-36.347
	c-2.649-11.148-4.746-17.598-10.896-27.264c-5.66-8.894-9.871-13.498-18.165-19.979c-8.578,15.5-11.605,25.939-12.741,43.6
	c-0.852,13.53-1.955,22.202,3.643,34.533C833.606,812.746,840.955,820.11,854.641,826.322z"/>
<path fill="none" stroke="#07723F" stroke-width="10" stroke-miterlimit="3.864" d="M854.641,826.322
	c6.813-7.111,9.871-12.378,12.71-21.792c4.1-13.592,1.45-22.549-1.813-36.347c-2.649-11.148-4.746-17.598-10.896-27.264
	c-5.66-8.894-9.871-13.498-18.165-19.979c-8.578,15.5-11.605,25.939-12.741,43.6c-0.852,13.53-1.955,22.202,3.643,34.533
	C833.606,812.746,840.955,820.11,854.641,826.322z"/>
<path fill="#07723F" d="M878.263,780.909c12.016,1.324,20.877-1.987,29.077-10.912c6.67-7.253,5.865-14.286,9.082-23.621
	c4.068-11.874,4.637-19.143,9.083-30.875c4.699-12.473,7.932-19.332,14.539-30.891l-49.072,30.891
	c-0.757-13.056-2.429-20.578-7.253-32.72c-4.227-10.612-7.064-16.809-14.555-25.45c-6.576-7.601-11.212-11.377-19.979-16.336
	c-1.057,17.677-1.057,27.737,0,45.429c0.788,13.498-2.555,22.486,3.643,34.518c4.367,8.467,8.373,12.946,16.336,18.181
	c-1.782,8.294-1.782,13.482,0,21.792C870.978,769.272,873.138,774.034,878.263,780.909z"/>
<path fill="none" stroke="#07723F" stroke-width="10" stroke-miterlimit="3.864" d="M878.263,780.909
	c12.016,1.324,20.877-1.987,29.077-10.912c6.67-7.253,5.865-14.286,9.082-23.621c4.068-11.874,4.637-19.143,9.083-30.875
	c4.699-12.473,7.932-19.332,14.539-30.891l-49.072,30.891c-0.757-13.056-2.429-20.578-7.253-32.72
	c-4.227-10.612-7.064-16.809-14.555-25.45c-6.576-7.601-11.212-11.377-19.979-16.336c-1.057,17.677-1.057,27.737,0,45.429
	c0.788,13.498-2.555,22.486,3.643,34.518c4.367,8.467,8.373,12.946,16.336,18.181c-1.782,8.294-1.782,13.482,0,21.792
	C870.978,769.272,873.138,774.034,878.263,780.909z"/>
<path fill="none" stroke="#07723F" stroke-width="10" stroke-miterlimit="3.864" d="M585.725,1149.783
	c0-12.031,9.776-21.792,21.792-21.792c12.047,0,21.823,9.761,21.823,21.792c0,12.047-9.776,21.808-21.823,21.808
	C595.501,1171.591,585.725,1161.83,585.725,1149.783z"/>
<path fill="none" stroke="#07723F" stroke-width="10" stroke-miterlimit="3.864" d="M796.502,1022.578
	c0-12.047,9.777-21.792,21.809-21.792c12.047,0,21.808,9.745,21.808,21.792c0,12.047-9.761,21.792-21.808,21.792
	C806.28,1044.37,796.502,1034.625,796.502,1022.578z"/>
<path fill="none" stroke="#07723F" stroke-width="10" stroke-miterlimit="3.864" d="M881.906,666.429
	c0-12.047,9.761-21.8,21.808-21.8s21.808,9.753,21.808,21.8c0,12.047-9.761,21.792-21.808,21.792S881.906,678.477,881.906,666.429z"
	/>
<path fill="#07723F" d="M890.972,648.264c9.666-9.808,14.302-16.557,19.995-29.085c6.622-14.546,3.736-24.898,9.098-39.965
	c4.463-12.544,7.711-19.474,14.523-30.906c-10.518,7.947-16.525,12.339-27.248,19.995c-7.033,5.022-11.038,7.829-18.182,12.725
	c4.463-11.227,3.927-20.271-1.813-30.891c-5.519-10.226-14.381-11.125-23.621-18.166c-16.903-12.898-26.491-20.089-43.616-32.711
	c0.615,21.989,4.132,35.132,14.555,54.512c7.175,13.348,9.509,25.301,23.605,30.883c7.947,3.153,13.467,3.603,21.824,1.829
	c-7.285,14.531-14.429,18.749-14.539,32.696c-0.079,8.768,1.167,14.16,5.44,21.816c3.201,5.7,5.755,8.688,10.896,12.725
	L890.972,648.264z"/>
<path fill="none" stroke="#07723F" stroke-width="10" stroke-miterlimit="3.864" d="M890.972,648.264
	c9.666-9.808,14.302-16.557,19.995-29.085c6.622-14.546,3.736-24.898,9.098-39.965c4.463-12.544,7.711-19.474,14.523-30.906
	c-10.518,7.947-16.525,12.339-27.248,19.995c-7.033,5.022-11.038,7.829-18.182,12.725c4.463-11.227,3.927-20.271-1.813-30.891
	c-5.519-10.226-14.381-11.125-23.621-18.166c-16.903-12.898-26.491-20.089-43.616-32.711c0.615,21.989,4.132,35.132,14.555,54.512
	c7.175,13.348,9.509,25.301,23.605,30.883c7.947,3.153,13.467,3.603,21.824,1.829c-7.285,14.531-14.429,18.749-14.539,32.696
	c-0.079,8.768,1.167,14.16,5.44,21.816c3.201,5.7,5.755,8.688,10.896,12.725L890.972,648.264z"/>
<path fill="#07723F" d="M898.257,531.955c8.704-7.963,12.741-14.208,16.353-25.435c3.484-10.817,0.961-17.748,1.813-29.077
	c0.631-8.515,0.458-13.388,1.813-21.816c1.025-6.441,1.845-10.061,3.643-16.344c-9.918,2.152-15.548,4.747-23.621,10.904
	c-10.486,7.987-15.39,14.901-19.994,27.256c-3.753,10.044-6.087,16.809-3.627,27.256
	C877.837,518.386,885.154,526.838,898.257,531.955z"/>
<path fill="none" stroke="#07723F" stroke-width="10" stroke-miterlimit="3.864" d="M898.257,531.955
	c8.704-7.963,12.741-14.208,16.353-25.435c3.484-10.817,0.961-17.748,1.813-29.077c0.631-8.515,0.458-13.388,1.813-21.816
	c1.025-6.441,1.845-10.061,3.643-16.344c-9.918,2.152-15.548,4.747-23.621,10.904c-10.486,7.987-15.39,14.901-19.994,27.256
	c-3.753,10.044-6.087,16.809-3.627,27.256C877.837,518.386,885.154,526.838,898.257,531.955z"/>
<path fill="#07723F" d="M861.895,462.905c6.938-3.84,8.073-10.313,9.099-18.166c1.119-8.696-1.025-14.239-5.456-21.808
	c-4.81-8.239-11.811-9.256-18.165-16.36c-7.49-8.333-11.196-13.679-16.353-23.621c-8.389,14.949-9.887,27.059-5.456,43.608
	c2.713,10.107,6.954,14.894,12.71,23.629c3.91,5.921,6.308,9.138,10.912,14.546C854.074,465.83,857.527,465.349,861.895,462.905z"/>
<path fill="none" stroke="#07723F" stroke-width="10" stroke-miterlimit="3.864" d="M861.895,462.905
	c6.938-3.84,8.073-10.313,9.099-18.166c1.119-8.696-1.025-14.239-5.456-21.808c-4.81-8.239-11.811-9.256-18.165-16.36
	c-7.49-8.333-11.196-13.679-16.353-23.621c-8.389,14.949-9.887,27.059-5.456,43.608c2.713,10.107,6.954,14.894,12.71,23.629
	c3.91,5.921,6.308,9.138,10.912,14.546C854.074,465.83,857.527,465.349,861.895,462.905z"/>
<path fill="#07723F" d="M880.092,421.118c5.598-3.359,8.436-6.67,10.88-12.726c2.949-7.214,1.829-12.394,0-19.986
	c-2.05-8.641-6.244-12.418-10.88-19.987c-6.387-10.384-10.424-16.037-18.166-25.435c-3.374,16.021-4.194,25.45-3.643,41.787
	c0.269,7.837-1.481,12.907,1.813,19.995C864.339,413.904,870.299,418.761,880.092,421.118z"/>
<path fill="none" stroke="#07723F" stroke-width="10" stroke-miterlimit="3.864" d="M880.092,421.118
	c5.598-3.359,8.436-6.67,10.88-12.726c2.949-7.214,1.829-12.394,0-19.986c-2.05-8.641-6.244-12.418-10.88-19.987
	c-6.387-10.384-10.424-16.037-18.166-25.435c-3.374,16.021-4.194,25.45-3.643,41.787c0.269,7.837-1.481,12.907,1.813,19.995
	C864.339,413.904,870.299,418.761,880.092,421.118z"/>
<path fill="none" stroke="#07723F" stroke-width="10" stroke-miterlimit="3.864" d="M825.564,486.534
	c0-12.047,9.776-21.8,21.809-21.8c12.047,0,21.808,9.753,21.808,21.8c0,12.047-9.761,21.8-21.808,21.8
	C835.34,508.334,825.564,498.581,825.564,486.534z"/>
<path fill="#026397" d="M216.859,819.069c13.758-13.23,23.724-19.301,41.795-25.45c17.565-5.961,28.722-6.497,47.242-5.456
	c20.428,1.167,31.135,7.379,50.877,12.741c14.94,4.037,22.771,12.583,38.16,10.896c13.237-1.467,18.401-9.918,30.891-14.539
	c12.41-4.621,19.466-8.91,32.712-9.099c13.916-0.189,23.251,0.915,34.518,9.099c4.864,3.516,7.363,6.023,10.903,10.896l-14.53,1.813
	c-6.189-2.113-9.871-2.917-16.36-3.643c-20.325-2.176-31.032,7.79-50.877,12.741c-17.007,4.242-26.16,9.177-43.616,10.896
	c-27.027,2.665-41.881-9.508-69.042-9.098c-14.956,0.221-24.693-2.854-38.16,3.658c-11.282,5.44-17.29,10.975-23.621,21.792
	l-12.726-7.253l18.182-16.368l-3.627-9.083l-19.994,18.166L216.859,819.069"/>
<path fill="#026397" d="M244.115,871.768c16.604-14.413,30.717-19.774,52.69-19.995c13.774-0.142,21.091,4.352,34.525,7.269
	c15.627,3.406,24.008,8.373,39.981,9.099c27.138,1.198,40.265-14.854,67.229-18.166c13.387-1.671,21.523-5.456,34.524-1.829
	c13.254,3.69,22.943,7.664,29.062,19.995c2.311,4.604,5.945,8.074,3.65,12.709c-1.837,3.706-4.951,5.582-9.09,5.456
	c-5.086-3.28-8.539-4.589-14.531-5.456c-8.539-1.23-13.254,2.586-21.815,3.643c-8.46,1.057-13.285,2.476-21.8,1.813
	c-11.851-0.931-18.813-3.106-29.078-9.083c-8.491,0.789-13.293,1.199-21.8,1.813c-12.741,0.915-20.018,3.296-32.712,1.813
	c-14.018-1.64-20.704-8.01-34.525-10.912c-11.172-2.318-17.66-4.32-29.061-3.626c-18.135,1.104-29.228,5.267-43.616,16.352
	L244.115,871.768"/>
<path fill="#FFFFFF" d="M431.264,869.938c0,0,6.362,7.27,19.986,1.83c13.632,1.797,25.435,0,25.435,0l-10.903-7.285l-16.353,1.829
	L431.264,869.938z"/>
<path fill="none" stroke="#FFFFFF" stroke-width="10" stroke-miterlimit="3.864" d="M431.264,869.938c0,0,6.362,7.27,19.986,1.83
	c13.632,1.797,25.435,0,25.435,0l-10.903-7.285l-16.353,1.829L431.264,869.938z"/>
<path fill="#026397" d="M229.569,908.098l12.725,9.083c15.469-11.164,28.258-14.633,47.242-12.709
	c12.71,1.262,20.185,3.911,30.891,10.896c-5.921,5.251-10.415,7.506-18.181,9.083c-11.298,2.318-17.551-6.087-29.062-5.456
	c-11.866,0.662-19.229,2.46-29.085,9.099c-12.221,8.231-18.134,16.588-21.792,30.875l18.165,3.643
	c1.79-7.08,4.021-11.085,9.091-16.352c6.583-6.843,12.299-10.628,21.792-10.912c8.302-0.221,11.739,6.465,19.994,7.27
	c10.108,0.993,16.353-0.915,25.443-5.44c7.222-3.595,11.077-6.591,16.344-12.725c8.381,2.065,13.222,2.886,21.815,3.643
	c14.839,1.293,23.653,1.592,38.152-1.829c15.13-3.564,21.319-12.394,36.347-16.336c15.13-3.989,24.433-5.582,39.965-3.658
	c8.704,1.104,13.632,2.333,21.816,5.456l10.896-7.254c-6.583-4.415-10.683-6.48-18.181-9.098
	c-14.098-4.936-23.267-4.967-38.152-3.643c-19.411,1.766-28.131,12.52-47.227,16.368c-13.293,2.665-21.059,4.873-34.541,3.627
	c-15.619-1.451-22.928-8.925-38.16-12.709c-18.757-4.667-29.786-9.051-49.048-7.285
	C257.392,893.528,245.944,897.501,229.569,908.098"/>
<path fill="#026397" d="M273.184,971.708l7.262,16.352c7.773-9.54,14.522-13.955,26.357-17.267
	c18.133-5.078,28.43,8.894,47.242,9.997c13.805,0.804,21.689-3.39,35.424-1.829c13.167,1.514,19.561,7.569,32.72,9.099
	c16.936,1.987,26.673-1.435,43.593-3.643c11.045-1.419,21.57,4.415,28.178-4.542c4.455-6.055,5.748-12.205,2.712-19.08
	c-3.082-7.017-8.909-9.035-16.336-10.896c-10.92-2.728-29.565-1.719-48.157,0.899c-15.918,2.255-24.236,6.749-39.973,9.997
	c-12.323,2.539-19.254,6.308-31.798,5.456c-9.863-0.662-14.87-4.273-24.544-6.354c-10.187-2.224-15.918-5.093-26.333-4.557
	c-7.995,0.426-12.71,1.246-19.995,4.557C282.37,963.146,278.53,965.921,273.184,971.708"/>
<path fill="#FFFFFF" d="M431.264,970.794c0,0,6.362,7.269,19.986,1.829c13.632,1.797,28.162,0,28.162,0
	c0-5.456-13.631-7.285-13.631-7.285l-16.353,1.829L431.264,970.794z"/>
<path fill="none" stroke="#FFFFFF" stroke-width="10" stroke-miterlimit="3.864" d="M431.264,970.794c0,0,6.362,7.269,19.986,1.829
	c13.632,1.797,28.162,0,28.162,0c0-5.456-13.631-7.285-13.631-7.285l-16.353,1.829L431.264,970.794z"/>
<polyline fill="#026397" points="324.061,1025.306 336.787,1018.951 364.95,1019.85 398.568,1024.407 419.461,1022.578 
	446.717,1008.954 481.235,1004.413 497.594,1012.581 494.867,1019.85 461.248,1025.306 416.733,1038.945 382.208,1052.569 
	359.485,1063.466 344.955,1059.823 348.589,1050.74 364.042,1038.945 348.589,1037.132 334.059,1040.759 325.867,1035.303 
	324.061,1025.306 "/>
<path fill="#026397" d="M397.661,1058.025l-3.635,9.998c1.538,5.298,4.132,8.42,9.091,10.896c4.763,2.381,8.365,1.75,13.632,0.899
	c7.972-1.262,12.805-3.911,18.166-9.966l9.989,0.883l13.632,11.811c8.168-2.728,13.175-3.563,21.8-3.626
	c6.426-0.032,10.107,0.363,16.353,1.813l6.362-12.709c0.418-6.386-1.128-10.754-5.456-15.454c-2.602-2.807-4.762-3.706-8.168-5.456
	c-9.871-5.03-17.18-4.983-28.163-3.627c-11.369,1.388-18.07,4.068-27.256,10.912l-12.725,4.525L397.661,1058.025"/>
<path fill="#D72027" d="M503.035,752.747v13.624l2.728,10.912l5.44,7.253l2.728,73.608v25.45l-6.354,18.166l0.915,54.496
	l4.541,12.741l4.533,15.422c-7.009,31.537,9.343,61.875,5.464,93.602l1.798,9.997l13.624,15.453l12.741-5.472v-11.811l-9.998-8.168
	l-0.914-30.906l-10.896-30.875l2.729-20.909l3.627-12.709l-3.627-34.533l-4.541-18.166l-4.542-15.453l6.354-13.624l8.185-25.451
	v-20.877l-5.456-13.64l-3.643-24.52l2.728-16.368l6.371-4.541l-0.915,10.912l6.371,32.704l13.623,22.707l6.355,14.555l-0.915,18.165
	L573,924.466l17.267,31.79l6.339,30.906l14.555,23.621l12.693,19.08l3.643,19.995l7.285,8.168l8.168-10.912l0.898-23.622
	l-10.896-17.25l-21.792-27.248v-24.536l-7.27-12.725l-4.558-11.811l-9.981-10.912l-8.184-18.165l1.813-14.539l1.829-17.267
	l-6.37-11.811l-19.995-23.622l-2.712-16.352l5.456-9.997l5.456,22.723l19.994,21.792l18.166,16.368l7.253,27.248l2.728,17.267
	l14.539,9.083l11.811,6.355l4.541,10.912l16.368,9.998l21.792,22.707l1.798,16.352l12.741,15.453l15.453,9.981l9.066-5.456
	l-1.813-8.168L712,995.33l0.898-12.709l-9.997-3.626l-22.691-36.362l-24.535-26.349l-13.624-14.523l-11.827-0.915l-5.439-22.707
	l0.898-15.453l-11.795-13.64l-14.555-8.168l-16.352-13.624l-2.712-13.64l1.798-17.25l16.367,24.536l15.453,10.88l31.789,16.368
	l14.539,17.251l8.168,13.64l20.909,12.725l12.71,6.355l13.623-0.899l11.827,7.253l10.896,18.166l12.726,18.197l2.712,8.168
	l12.71,5.456l7.285-8.2l-6.371-7.253l-10.896-10.912l-3.643-13.624l-14.523-18.166l-16.352-12.709l-19.096-4.557l-19.979-9.997
	l-9.083-11.811l-9.083-13.624l-26.349-19.08l-19.08-12.725l-8.168-13.64l20.894,8.2l17.25,12.709l12.741,14.539l15.422,11.811
	l16.367,4.557L712,859.973l24.52,15.421l17.267,10.912l25.451,2.712l6.354-6.354l-5.456-9.067l-9.997-4.557l-18.166-1.813
	l-22.722-16.352l-19.064-15.453l-14.555-5.44l-11.795-0.915l-20.909-22.707l-12.709-11.826l-41.787-22.707l8.168-3.626
	l30.891,16.336l51.769,36.362l19.096,2.712l25.45,16.368l24.521,9.067l22.707,9.997l8.199-2.712l0.883-11.811l-14.522-9.099
	l-18.182-9.067l-16.336-5.456l-19.08-11.811l-13.64-9.099l-25.435-2.728l-11.826-13.624l21.808,7.269l19.994,0.915l21.809,17.267
	l16.367,8.168l18.166,0.899l15.421,13.624l12.741,4.573l6.354-7.285l-11.811-14.539l-13.624-9.083l-22.707-6.354l-21.808-7.27
	l-2.728-7.285l17.251,3.658l25.45,9.966l26.333,3.658l14.539-1.829l-9.997-16.352l6.37-6.355V768.2l-7.27-4.542l2.729-3.643
	l8.168-1.813v-10.912l-8.168-10.896l-38.16,2.728l-71.778,8.168l-21.809,3.658l-16.352-7.285l-26.333,8.168l-13.624,11.827
	l-9.998-4.542l-9.098-8.168L503.035,752.747"/>
<polyline fill="#07723F" points="641.135,748.205 638.408,734.565 633.881,727.296 618.428,721.84 608.431,710.045 603.89,680.053 
	602.975,666.429 596.621,659.16 600.263,646.435 607.517,638.267 604.805,607.36 635.679,586.467 647.506,590.102 655.674,579.198 
	674.754,587.366 688.377,593.729 712.914,588.288 730.165,588.288 742.906,597.363 757.428,600.091 763.784,602.819 
	776.524,589.195 787.405,586.467 797.402,594.651 807.399,612.816 821.938,616.451 831.935,628.27 834.663,648.248 833.733,656.432 
	840.103,668.227 834.663,680.968 824.666,691.848 821.023,708.216 814.668,716.4 802.858,720.042 792.86,722.754 792.86,736.378 
	782.863,736.378 782.863,722.754 771.967,725.467 771.967,740.021 756.53,740.021 754.701,730.04 741.975,724.568 733.807,723.669 
	731.994,734.565 735.636,741.834 706.543,746.376 701.087,731.837 689.292,721.84 679.295,719.112 666.57,727.296 670.212,738.208 
	672.026,745.461 664.756,743.664 641.135,748.205 "/>
<polygon fill="#FFFFFF" points="693.833,624.635 702.917,635.539 710.186,650.992 718.354,641.901 725.624,627.363 726.538,614.646 
	721.082,606.469 712.914,610.104 707.458,616.467 699.29,614.646 693.833,614.646 "/>
<polygon fill="none" stroke="#FFFFFF" stroke-width="10" stroke-miterlimit="3.864" points="693.833,624.635 702.917,635.539 
	710.186,650.992 718.354,641.901 725.624,627.363 726.538,614.646 721.082,606.469 712.914,610.104 707.458,616.467 699.29,614.646 
	693.833,614.646 "/>
<polygon fill="#FFFFFF" points="709.287,661.888 707.458,685.509 712,706.403 720.183,712.757 725.639,707.301 722.911,700.048 
	718.37,690.965 717.456,680.968 721.082,672.784 717.456,665.515 "/>
<polygon fill="none" stroke="#FFFFFF" stroke-width="10" stroke-miterlimit="3.864" points="709.287,661.888 707.458,685.509 
	712,706.403 720.183,712.757 725.639,707.301 722.911,700.048 718.37,690.965 717.456,680.968 721.082,672.784 717.456,665.515 "/>
<polygon fill="#D72027" points="662.044,575.563 737.45,574.664 772.866,573.757 791.946,562.846 783.778,533.776 773.781,517.424 
	770.154,503.792 753.801,487.433 665.671,490.168 "/>
<polygon fill="none" stroke="#D72027" stroke-width="10" stroke-miterlimit="3.864" points="662.044,575.563 737.45,574.664 
	772.866,573.757 791.946,562.846 783.778,533.776 773.781,517.424 770.154,503.792 753.801,487.433 665.671,490.168 "/>
<path fill="none" stroke="#026397" stroke-width="10" stroke-miterlimit="3.864" d="M661.129,581.926l0.915-178.989
	c-2.712-7.443-4.762-11.527-9.083-18.166c-3.989-6.118-6.213-9.863-11.826-14.531c-6.686-5.59-11.29-9.335-19.994-9.997
	c-4.983-0.387-8.011,0.055-12.71,1.813c-4.289-9.816-7.899-15.114-15.438-22.723c-9.413-9.477-16.777-12.915-29.062-18.166
	c-9.192-3.918-14.617-6.26-24.551-7.261c-16.573-1.695-27.272,0.852-41.787,9.09c-9.832,5.566-16.888,8.894-21.8,19.064
	c-2.531,5.267-2.941,8.736-3.635,14.554c-1.112,9.169-0.694,14.72,1.813,23.621l-29.984,19.064l5.456,15.453l5.456,335.263
	l9.997,14.522l21.8-4.525l-13.632-377.972"/>
<line fill="none" stroke="#026397" stroke-width="10" stroke-linecap="round" stroke-linejoin="round" stroke-miterlimit="3.864" x1="514.853" y1="674.613" x2="500.323" y2="323.897"/>
<line fill="none" stroke="#026397" stroke-width="10" stroke-linecap="round" stroke-linejoin="round" stroke-miterlimit="3.864" x1="574.829" y1="331.182" x2="586.639" y2="725.499"/>
<line fill="none" stroke="#026397" stroke-width="10" stroke-miterlimit="3.864" x1="607.517" y1="362.057" x2="609.346" y2="603.726"/>
<line fill="none" stroke="#026397" stroke-width="10" stroke-linecap="round" stroke-linejoin="round" stroke-miterlimit="3.864" x1="619.328" y1="395.675" x2="622.97" y2="593.729"/>
<line fill="none" stroke="#026397" stroke-width="10" stroke-linecap="round" stroke-linejoin="round" stroke-miterlimit="3.864" x1="641.135" y1="413.841" x2="643.847" y2="583.739"/>
<polygon fill="#FEE600" points="444.888,745.461 442.16,633.709 382.208,647.341 339.499,680.053 311.336,734.565 312.243,750.002 
	330.409,760.915 354.952,753.629 374.939,758.187 394.917,745.461 433.992,738.208 "/>
<polygon fill="none" stroke="#FEE600" stroke-width="10" stroke-miterlimit="3.864" points="444.888,745.461 442.16,633.709 
	382.208,647.341 339.499,680.053 311.336,734.565 312.243,750.002 330.409,760.915 354.952,753.629 374.939,758.187 
	394.917,745.461 433.992,738.208 "/>
<line fill="none" stroke="#FEE600" stroke-width="10" stroke-linecap="round" stroke-linejoin="round" stroke-miterlimit="3.864" x1="431.264" y1="611.011" x2="425.8" y2="542.867"/>
<line fill="none" stroke="#FEE600" stroke-width="10" stroke-linecap="round" stroke-linejoin="round" stroke-miterlimit="3.864" x1="405.83" y1="613.739" x2="384.936" y2="544.696"/>
<line fill="none" stroke="#FEE600" stroke-width="10" stroke-linecap="round" stroke-linejoin="round" stroke-miterlimit="3.864" x1="380.403" y1="629.192" x2="353.147" y2="592.845"/>
<line fill="none" stroke="#FEE600" stroke-width="10" stroke-linecap="round" stroke-linejoin="round" stroke-miterlimit="3.864" x1="351.333" y1="650.992" x2="232.312" y2="555.592"/>
<line fill="none" stroke="#FEE600" stroke-width="10" stroke-linecap="round" stroke-linejoin="round" stroke-miterlimit="3.864" x1="325.89" y1="671.885" x2="290.458" y2="660.083"/>
<line fill="none" stroke="#FEE600" stroke-width="10" stroke-linecap="round" stroke-linejoin="round" stroke-miterlimit="3.864" x1="314.08" y1="702.776" x2="234.141" y2="690.965"/>
<line fill="none" stroke="#FEE600" stroke-width="10" stroke-linecap="round" stroke-linejoin="round" stroke-miterlimit="3.864" x1="304.989" y1="747.291" x2="225.05" y2="735.464"/>
<path fill-rule="evenodd" clip-rule="evenodd" fill="#026397" d="M206.87,764.541l-0.907,10.912
	c8.46,4.052,14.255,5.172,23.622,4.542c7.719-0.521,11.803-2.807,19.071-5.456c11.913-4.321,16.455-13.372,29.077-14.523
	c6.733-0.615,10.676,0.252,17.267,1.813c10.637,2.491,14.688,9.761,25.427,11.811c9.753,1.861,15.548-0.047,25.451-0.915
	c8.184-0.709,12.788-1.309,20.893-2.728l28.163,12.709l34.518,4.573l23.629-4.573l10.896-13.624l-8.169-19.995l-12.725-4.525
	l-9.091-5.456l-28.162,4.557l-19.072,6.355l-11.818,9.067l-19.987-5.424l-24.527,8.168l-17.259-10.912l-21.8-1.829l-25.451-0.883
	c7.798-3.911-12.188,6.086-19.986,9.981c-7.072,3.548-10.352,7.742-18.165,9.099C219.673,768.688,214.328,767.979,206.87,764.541"/>
<polygon fill="#FFFFFF" points="401.295,762.744 406.751,769.997 419.461,773.64 442.175,769.997 450.344,762.744 444.904,758.202 
	434.007,754.576 421.283,760.016 "/>
<polygon fill="none" stroke="#FFFFFF" stroke-width="10" stroke-miterlimit="3.864" points="401.295,762.744 406.751,769.997 
	419.461,773.64 442.175,769.997 450.344,762.744 444.904,758.202 434.007,754.576 421.283,760.016 "/>
<path fill="#FFFFFF" d="M113.795,145.507C241.505,41.277,347.635,3.882,512.48,5.025c165.112,1.167,270.888,40.178,397.226,146.521
	l-57.43,104.214C747.888,160.377,656.873,124.046,515.5,121.334c-141.933-2.728-234.699,30.371-342.832,122.333L113.795,145.507z"/>
<path fill="none" stroke="#026397" stroke-width="10" stroke-miterlimit="3.864" d="M113.795,145.507
	C241.505,41.277,347.635,3.882,512.48,5.025c165.112,1.167,270.888,40.178,397.226,146.521l-57.43,104.214
	C747.888,160.377,656.873,124.046,515.5,121.334c-141.933-2.728-234.699,30.371-342.832,122.333L113.795,145.507z"/>
<path fill="none" stroke="#07723F" stroke-width="10" stroke-miterlimit="3.864" d="M804.387,841.082
	c0-12.047,9.761-21.808,21.808-21.808c12.031,0,21.808,9.761,21.808,21.808c0,12.032-9.776,21.792-21.808,21.792
	C814.148,862.874,804.387,853.113,804.387,841.082z"/>
<g>
	<path fill="#026397" d="M546.871,51.204c4.068-8.002,9.335-15.335,15.327-21.989c-0.063,2.547-0.063,5.093,0.284,7.624
		c8.578,0.765,17.188,1.435,25.766,2.302c3.942,0.284,6.907,3.256,9.146,6.245c1.262,1.663,1.924,3.721,2.113,5.795
		c-1.072,11.881-2.081,23.779-3.153,35.652c-3.122,2.98-6.371,5.858-9.572,8.76c-0.362,0.055-1.088,0.149-1.466,0.197
		c0.819-11.535,2.05-23.062,2.933-34.612c0.41-2.5-1.419-4.62-3.312-5.945c-1.75-1.183-3.941-1.072-5.929-1.23
		C568.285,53.064,557.578,52.086,546.871,51.204z"/>
	<path fill="#026397" d="M446.292,53.908c2.72-8.444,6.567-16.62,11.685-23.874c0.521,2.428,0.749,4.904,1.427,7.285
		c8.775-0.765,17.566-1.222,26.342-1.916c4.415,0.142,8.128,3.028,10.777,6.347c1.34,1.758,1.782,4.029,1.877,6.205
		c0.606,11.204,1.805,22.415,2.145,33.611c-2.729,3.351-5.291,6.891-8.208,10.068c-0.331,0.039-0.985,0.118-1.309,0.158
		c-0.544-10.699-1.467-21.351-2.152-32.018c-0.095-1.79,0.047-3.729-1.097-5.235c-1.174-1.466-2.814-2.602-4.628-3.083
		c-2.278-0.221-4.557,0.142-6.819,0.332C466.317,52.481,456.304,53.112,446.292,53.908z"/>
	<path fill="#026397" d="M413.706,50.092c2.199-4.754,4.36-9.524,6.552-14.294c4.983,4.163,9.887,9.351,11.133,15.95
		c0.229,7.009-4.936,12.544-9.13,17.598c4.998,4.108,9.934,8.294,14.933,12.394c-1.316,4.675-2.799,9.295-4.218,13.932
		c-0.135,1.206-1.562,1.679-2.318,0.686c-4.699-4.155-9.13-8.586-13.789-12.78c-6.355-6.15-13.821-11.007-21.462-15.422
		c-1.529,2.002-2.16,4.533-2.578,6.985c0.017,3.028,0.607,6.055,1.207,9.027c3.39-0.41,6.765-1.025,10.139-1.608
		c-1.127,5.456-2.278,10.928-3.39,16.392c-6.024,1.057-12.071,1.955-18.11,2.901c0.914-2.775,2.097-5.448,2.933-8.255
		c-0.331-5.282-1.167-10.604-0.528-15.902c0.788-4.431,2.862-8.483,4.786-12.497c-4.242-2.815-8.909-4.896-13.514-6.994
		c2.199-5.219,4.715-10.313,7.127-15.461c6.244,3.382,12.189,7.293,18.11,11.219c5.843,3.887,11.109,8.531,16.557,12.922
		c0.6-2.673,0.387-5.479-0.291-8.113c-0.884-2.625-2.917-4.597-4.747-6.583C412.823,51.456,413.516,50.778,413.706,50.092z"/>
	<path fill="#026397" d="M614.676,50.707c4.651-4.187,9.271-8.428,13.938-12.599c-0.126,6.583,1.515,13.183,4.763,18.914
		c2.648,4.739,5.298,9.485,8.515,13.861c1.734-2.287,3.186-4.952,3.501-7.853c-0.158-2.807-1.719-5.227-3.091-7.584
		c4.353-4.116,8.515-8.42,12.836-12.567c1.655,5.014,2.996,10.391,2.019,15.682c-1.924,7.072-7.601,12.197-12.71,17.117
		c3.169,4.124,6.023,8.578,7.411,13.632c-2.965,4.281-5.929,8.555-8.799,12.891c-12.426-2.287-24.914-4.447-37.371-6.623
		c3.469-4.66,6.844-9.406,10.249-14.113c8.121,1.419,16.21,2.933,24.347,4.257c-6.023-6.946-11.952-13.955-17.944-20.94
		C618.697,60.783,616.631,55.674,614.676,50.707z"/>
	<path fill="#026397" d="M336.156,65.403c1.932-5.7,3.879-11.4,5.818-17.101c8.397,0.946,15.706,5.629,22.849,9.776
		c-0.567,5.125-1.584,10.187-2.255,15.288c-3.469-1.458-6.883-2.996-10.384-4.399c2.642,7.167,6.623,13.766,11.599,19.545
		c1.104,1.466,2.578,2.665,3.548,4.233c-0.032,5.598-0.561,11.164-0.639,16.77c-1.064,0.733-1.734-0.489-2.437-1.025
		c-7.75-7.79-13.411-17.322-18.614-26.925c0.591-4.715,1.481-9.39,2.278-14.073C344.008,66.736,340.075,66.136,336.156,65.403z"/>
	<path fill="#026397" d="M673.334,63.668c5.646-3.855,11.196-7.845,16.873-11.645c0.268,3.8,0.314,7.632,0.426,11.44
		c0.583,4.494-0.111,9.004-0.143,13.506c-0.205,6.41-0.725,12.812-1.198,19.206c2.822-0.694,5.566-1.813,8.152-3.185
		c3.091-3.989,2.744-9.232,2.634-13.971c-0.127-2.735-0.946-5.353-1.498-8.01c5.313-3.934,10.438-8.184,15.941-11.858
		c0.6,7.853,0.095,15.808-1.34,23.55c-1.215,5.629-3.044,11.369-6.891,15.784c-4.006,4.155-9.178,7.23-14.791,8.633
		c-4.778,1.262-9.698,1.688-14.555,2.421c-6.985,0.946-13.971,1.971-20.973,2.901c3.485-5.188,6.671-10.565,10.203-15.722
		c4.446,0.237,8.83,0.946,13.276,0.805c0.126-6.41,0.095-12.867-1.198-19.167C677.12,73.311,675.322,68.455,673.334,63.668z"/>
	<path fill="#026397" d="M455.106,71.025c3.461-4.447,7.057-8.791,10.479-13.27c0.441,8.239,1.088,16.486,1.671,24.709
		c-2.468,3.989-5.677,7.514-8.294,11.424c-0.772,0.118-1.545,0.252-2.303,0.378C456.304,86.501,455.603,78.775,455.106,71.025z"/>
	<path fill="#026397" d="M553.021,69.377c4.131-3.65,8.026-7.498,12.236-11.03c-0.646,8.215-1.482,16.415-2.113,24.638
		c-3.406,3.201-6.718,6.536-10.123,9.753c-0.536-0.023-1.577-0.086-2.098-0.11C551.633,84.87,552.201,77.119,553.021,69.377z"/>
	<path fill="#026397" d="M305.273,59.174c5.148,1.94,9.95,4.747,14.342,8.058c2.286,1.869,4.62,4.052,5.4,7.033
		c2.973,9.351,6.244,18.63,9.06,28.028c-1.144,4.794-2.949,9.469-4.297,14.231c-0.395,1.009-0.441,2.341-1.538,2.886
		c-3.477-10.699-6.938-21.414-10.423-32.097c-0.441-1.608-1.939-2.491-3.201-3.39c-4.336-2.814-9.209-4.612-13.979-6.536
		l-0.158-0.378C301.994,71.056,303.759,65.135,305.273,59.174z"/>
	<path fill="#026397" d="M725.939,77.474c5.062-3.698,10.092-7.451,15.106-11.228c3.153,5.866,5.96,12.11,6.843,18.772
		c0.568,3.619-1.388,6.852-2.428,10.179c-2.587,7.112-5.141,14.239-7.727,21.351c-0.348,0.765-0.568,1.671-1.325,2.129
		c-4.053,2.799-8.137,5.559-12.142,8.405c-0.662,0.536-1.482,0.835-2.286,1.033c3.232-9.453,6.827-18.788,10.171-28.202
		c0.709-2.239,2.207-4.494,1.355-6.922C731.899,87.424,728.746,82.488,725.939,77.474z"/>
	<path fill="#026397" d="M259.411,77.119c1.363,2.066,2.333,4.36,3.563,6.504c4.533-1.742,8.996-3.626,13.506-5.44
		c2.342-0.946,4.99-0.994,7.427-0.386c3.65,1.033,7.459,3.027,8.901,6.772c3.919,9.611,7.798,19.229,11.661,28.841
		c-1.554,5.495-2.988,11.014-4.542,16.51c-4.076-10.628-8.499-21.114-12.693-31.687c-1.064-3.713-5.952-5.385-9.264-3.737
		c-7.396,2.988-14.799,6-22.194,8.957C255.997,94.591,257.03,85.673,259.411,77.119z"/>
	<path fill="#026397" d="M763.247,93.558c6.497-3.272,12.931-6.726,19.459-9.911c0.552,4.636,1.088,9.43-0.158,13.995
		c-0.819,3.832-2.35,7.458-3.626,11.164c5.519-4.187,10.754-9.469,17.818-10.77c4.462-0.922,8.673,2.066,11.054,5.614
		c3.106,4.612,2.838,10.51,2.16,15.8c-1.388,7.27-3.974,14.318-7.521,20.807c-3.091,5.314-6.954,10.534-12.473,13.482
		c-0.82,0.63-1.735-0.103-2.492-0.402c-9.02-4.486-18.102-8.886-27.153-13.269c4.399-3.667,8.799-7.356,13.214-11.022
		c6.213,2.98,12.363,6.11,18.607,9.012c3.737-6.315,5.487-14.089,3.658-21.303c-1.104-4.479-5.818-7.782-10.407-7.135
		c-2.791,0.371-5.188,2.026-7.396,3.666c-5.692,4.652-10.864,9.926-15.942,15.232c-5.219,2.712-10.706,4.888-15.974,7.522
		c-0.804-0.347-1.592-0.694-2.365-1.057c5.977-6.686,12.441-12.993,18.213-19.916c1.608-2.113,3.91-4.013,4.289-6.804
		C767.063,103.161,765.013,98.217,763.247,93.558z"/>
	<path fill="#026397" d="M219.485,97.555c5.054,1.64,10.162,3.106,15.232,4.738c3.721,1.191,7.332,3.816,8.428,7.774
		c1.254,4.352,0.505,9.02-1.057,13.207c-2.097,5.795-4.376,11.558-7.34,16.967c-0.143-6.095-0.261-12.236-1.333-18.26
		c-0.3-2.098-1.963-3.737-3.871-4.486c-3.831-1.632-8.073-1.27-12.142-1.293C218.096,109.989,218.751,103.768,219.485,97.555z"/>
	<path fill="#026397" d="M824.429,129.644c7.442-5.014,15.516-9.13,23.968-12.189c-1.072,2.334-2.476,4.51-3.374,6.915
		c5.929,3.658,11.7,7.569,17.582,11.337c2.869,1.908,6.323,3.564,7.694,6.962c1.625,3.903,2.603,8.791,0.143,12.552
		c-6.244,9.737-12.631,19.372-18.859,29.117c-3.974,1.096-8.011,2.074-12.016,3.138c-0.757,0.284-1.388,0.111-1.939-0.504
		c6.103-9.776,12.52-19.348,18.749-29.038c2.145-3.075,0.378-7.703-2.744-9.39C843.872,142.267,834.19,135.896,824.429,129.644z"/>
	<path fill="#026397" d="M186.142,120.9c3.61-2.499,8.404-2.089,12.37-0.717c2.121,0.709,3.942,2.208,5.125,4.107
		c6.055,9.359,12.126,18.741,18.221,28.092c-0.907,4.92-1.916,9.84-2.775,14.775c-6.197-9.737-12.56-19.348-18.813-29.062
		c-1.899-3.296-6.898-3.563-9.736-1.364c-4.747,3.146-9.588,6.126-14.263,9.359c5.724,5.763,11.786,11.227,17.267,17.211
		c1.032,5.077,1.939,10.202,2.822,15.319c-6.213,3.934-12.354,7.994-18.521,11.992c-0.891-5.669-1.907-11.322-2.673-17.014
		c2.775-1.703,5.448-3.509,8.192-5.283c-5.52-5.409-11.274-10.565-16.864-15.91c-2.934,1.687-5.606,3.808-8.595,5.369
		c-1.309-8.768-2.026-17.669-1.435-26.515c2.303,1.451,4.431,3.178,6.765,4.589C170.784,130.748,178.51,125.883,186.142,120.9z"/>
	<path fill="#026397" d="M821.338,148.598c5.44-1.27,10.849-2.72,16.241-4.131c-4.305,6.481-8.483,13.048-12.74,19.561
		c-0.442,0.663-0.915,1.435-1.767,1.577c-4.226,1.214-8.452,2.428-12.678,3.674c-0.6-0.354-1.198-0.725-1.798-1.088
		C812.855,161.678,817.081,155.134,821.338,148.598z"/>
	<path fill="#026397" d="M466.948,190.992c3.761-11.732,8.334-23.267,14.491-33.958c0.521,3.556,0.962,7.127,1.53,10.691
		c6.205-0.149,12.401-0.78,18.591-0.907c4.73-0.086,8.578,3.241,11.448,6.639c2.302,2.641,3.776,6.016,3.958,9.54
		c0.78,14.791,1.616,29.598,2.294,44.396c-3.627,6.867-7.837,13.442-11.472,20.31c-0.686-16.754-1.774-33.508-2.53-50.263
		c-0.481-4.754-5.48-9.035-10.313-7.9C485.61,189.919,476.291,190.463,466.948,190.992z"/>
	<path fill="#026397" d="M426.296,162.679c4.439,3.051,8.231,6.922,11.977,10.778c3.335,3.824,6.852,7.821,8.413,12.765
		c0.906,4.163,1.229,8.428,1.939,12.607c1.435,10.754,3.256,21.493,4.415,32.271c-2.941,7.285-5.992,14.562-9.265,21.705
		c-0.229,0.063-0.701,0.197-0.938,0.269c-1.838-14.231-3.958-28.423-5.922-42.623c-0.552-2.957-0.307-6.339-2.389-8.767
		c-4.896-6.024-11.338-10.479-17.526-15.083C420.124,178.637,423.182,170.65,426.296,162.679z"/>
	<path fill="#026397" d="M604.174,183.849c5.361-6.694,10.785-13.34,16.178-20.018c3.47,4.762,6.182,10.021,8.642,15.366
		c1.86,4.549,3.815,9.406,3.374,14.413c-3.863,22.604-7.853,45.185-11.857,67.781c-0.221,0.843-0.205,1.869-0.898,2.515
		c-3.863,4.305-7.648,8.672-11.496,13.009c-1.229-0.008-2.491-0.008-3.721,0c3.689-21.43,7.537-42.835,11.274-64.241
		c0.536-3.358,1.593-6.796,0.772-10.202c-0.915-3.051-2.965-5.503-4.415-8.294C609.977,190.33,606.965,187.168,604.174,183.849z"/>
	<path fill="#026397" d="M652.63,192.75c5.661-6.568,11.338-13.12,17.03-19.632c3.106,3.997,5.156,8.688,7.175,13.293
		c2.145,5.4,4.289,11.109,3.674,17.022c-0.662,11.354-2.602,22.581-4.273,33.815c-0.883,4.565-1.229,9.28-2.617,13.743
		c-3.406,5.645-6.891,11.282-10.471,16.833c-0.362-0.032-1.088-0.103-1.435-0.142c1.262-9.232,2.16-18.512,3.012-27.792
		c0.095-1.19,0.063-2.381,0-3.564c-4.415,7.766-10.092,15.217-18.149,19.474c-4.589,2.5-9.824,3.706-15.06,3.69
		c3.58-7.333,7.159-14.625,10.66-21.973c8.104-2.074,16.462-5.188,22.076-11.677c1.324-1.356,1.072-3.406,1.198-5.148
		c0.188-5.842-0.253-12.008-3.249-17.164C659.853,199.231,655.485,196.629,652.63,192.75z"/>
	<path fill="#026397" d="M346.563,180.214c1.223,3.351,2.46,6.702,3.666,10.076c10.107-2.563,20.152-5.409,30.244-8.034
		c2.736-0.56,5.717-0.354,8.224,0.962c4.715,2.35,9.343,5.953,10.754,11.291c4.407,16.17,8.704,32.38,13.024,48.583
		c-2.436,5.298-4.446,10.785-6.961,16.036c-0.379,0.142-1.144,0.402-1.53,0.536c-4.187-15.634-8.373-31.269-12.567-46.896
		c-0.639-4.573-5.424-8.2-9.941-7.64c-14.019,3.706-28.021,7.569-42.063,11.219C340.445,204.087,342.708,191.898,346.563,180.214z"
		/>
	<path fill="#026397" d="M547.313,196.022c11.132,0.946,22.328,1.451,33.444,2.468c-2.728,4.66-5.313,9.406-7.868,14.168
		c-11.212-0.607-22.407-1.521-33.603-2.271C541.857,205.546,544.631,200.815,547.313,196.022z"/>
	<path fill="#026397" d="M363.617,217.909c3.106,11.022,5.937,22.147,8.965,33.216c0.441,1.025-0.143,2.034-0.497,2.996
		c-2.09,5.196-4.045,10.447-6.126,15.643c-0.772,0.252-1.537,0.512-2.311,0.789c-2.972-10.652-5.842-21.319-8.594-32.019
		C357.648,231.572,360.874,224.831,363.617,217.909z"/>
</g>
</svg>
