<?xml version="1.0" encoding="UTF-8"?>
<!-- Generator: Adobe Illustrator 15.0.0, SVG Export Plug-In . SVG Version: 6.00 Build 0)  -->
<!DOCTYPE svg PUBLIC "-//W3C//DTD SVG 1.1//EN" "http://www.w3.org/Graphics/SVG/1.1/DTD/svg11.dtd">
<svg version="1.1" id="Layer_1" xmlns="http://www.w3.org/2000/svg" xmlns:xlink="http://www.w3.org/1999/xlink" x="0px" y="0px" width="260.204px" height="225.51px" viewBox="0 0 260.204 225.51" enable-background="new 0 0 260.204 225.51" xml:space="preserve">
<path fill-rule="evenodd" clip-rule="evenodd" fill="#D980A6" d="M69.561,61.235c0-0.274,0-0.547,0-0.958c0.137,0,0.274,0,0.411,0  c0,0.274,0,0.547,0,0.958C69.834,61.235,69.697,61.235,69.561,61.235 M64.909,84.906c-4.652-2.325-13-3.01-17.104-3.01  c-0.137,0.137-0.137,0.273-0.137,0.547c-3.42-2.325-6.432-1.915-9.032-1.778c-1.231-4.379-1.231-4.379-1.368-7.115  c0.547-0.137,1.094-0.273,1.78-0.41c-0.139-0.821-0.139-1.643-0.139-2.326c0.547-0.137,1.233-0.273,1.916-0.41  c0-3.01,1.233-3.421,0.411-6.021c1.644,0,4.106-0.41,6.021-1.368c0.137-1.231,0.274-2.462,0.411-3.694  c2.463,0,6.02,0.411,8.756-2.326c1.231-0.137,1.231-0.137,4.654,1.231c8.346,0,17.651,1.916,27.092,4.378  c-0.821,1.642-4.652,3.557-6.294,4.516c-0.958,1.368-0.958,1.368-6.706,6.704C72.981,76.696,68.329,84.223,64.909,84.906z   M92.821,88.602c0-0.138,0-0.273,0-0.547c0.137,0,0.273,0,0.411,0c0,0.136,0,0.273,0,0.547  C93.095,88.602,92.958,88.602,92.821,88.602z M151.111,97.633c0-0.137,0-0.274,0-0.412c0.137,0,0.273,0,0.548,0  c0,0.138,0,0.275,0,0.412C151.521,97.633,151.385,97.633,151.111,97.633z M156.584,98.18c-2.052-2.053-3.968-4.105-5.883-6.157  c-4.378-2.6-12.313-5.885-14.231-9.168c-2.6,0-8.072-0.411-9.304-0.958c-2.462,1.231-1.778,0.547-3.83,0.547  c-4.104,4.79-8.485,8.484-11.905,13.684c-3.558,0.82-16.01-5.063-16.693-5.884c9.442-10.81,27.641-13.409,42.144-8.894  c5.748,2.873,18.608,8.483,20.661,16.83C157.132,98.18,156.857,98.18,156.584,98.18z M124.293,102.694  c-2.6-2.6-5.473,0.137-7.526-3.968c-0.821-0.137-1.642-0.273-2.326-0.41c0-6.705,8.211-10.126,13.82-12.315  c7.662,0.548,16.557,3.011,22.44,11.22c-7.389-0.819-15.188-1.642-20.661,0.686C125.114,102.421,125.114,102.421,124.293,102.694z   M142.902,110.904c-2.189-2.874-2.736-1.231-5.199-1.231c-2.327-1.23-8.348-4.379-9.716-5.747c6.431-6.43,12.179-4.925,21.346-3.831  c1.368,0.548,9.167,1.368,10.674,1.916c1.778,4.651,1.778,4.651,2.598,8.894c-3.558-0.684-3.694-0.273-5.747-0.273  c-0.41-0.684-0.82-1.232-1.231-1.778c-0.957,0.684-1.915,1.778-3.283,1.778c-0.547-0.684-1.095-1.232-1.642-1.778  c-1.778,0-1.916,0.82-2.873,1.778c-1.643-1.232-2.326-1.368-3.147-1.368C143.997,109.811,143.449,110.357,142.902,110.904z   M189.424,111.315c-0.273-0.685-0.547-1.368-0.684-1.917c0.41,0,1.505,0,2.052,1.917  C190.245,111.315,189.835,111.315,189.424,111.315z M185.319,116.377c-0.137-0.273-0.273-0.409-0.41-0.546  c0.273-0.138,0.547-0.273,0.958-0.411C185.593,115.693,185.456,115.968,185.319,116.377z M196.265,117.336  c0-0.137,0.139-0.273,0.274-0.41C196.403,117.063,196.265,117.199,196.265,117.336z M157.132,117.336c0-0.137,0-0.273,0-0.548  c0.273,0,0.547,0,0.822,0c0,0.138,0,0.274,0,0.548C157.679,117.336,157.405,117.336,157.132,117.336z M165.753,118.157  c-0.137-0.687-0.273-1.231-0.41-1.78c0.273,0,0.547,0.138,0.957,0.275C166.3,117.884,166.3,117.884,165.753,118.157z   M185.319,119.525c0-0.137,0-0.273,0-0.411c0.137,0,0.273,0,0.548,0c0,0.138,0,0.274,0,0.411  C185.73,119.525,185.593,119.525,185.319,119.525z M174.372,120.072c0-0.547,0-1.231,0-1.915c0.273,0,0.548,0,0.958,0  c0,0.547,0,1.231,0,1.915C175.057,120.072,174.783,120.072,174.372,120.072z M165.343,120.072c0-0.41,0.137-0.82,0.273-1.095  c0.273-0.137,0.684-0.273,1.095-0.273C166.3,119.662,166.3,119.662,165.343,120.072z M202.697,121.44  c-0.41-0.41-0.821-0.82-1.095-1.231c0.548,0.273,1.095,0.548,1.779,0.821C203.107,121.167,202.834,121.304,202.697,121.44z   M185.319,122.809c0-0.137,0-0.273,0-0.547c0.137,0,0.273,0,0.548,0c0,0.137,0,0.273,0,0.547  C185.73,122.809,185.593,122.809,185.319,122.809z M172.184,122.809c-0.411-0.82-0.411-0.82,0.137-1.368  c0.41,0.137,0.41,0.137,0.684,1.368C172.73,122.809,172.457,122.809,172.184,122.809z M204.476,123.219  C204.749,122.945,204.749,122.945,204.476,123.219z M175.33,124.587c0.41-2.599,0.273-2.052,2.326-2.736  C177.108,123.493,176.014,124.313,175.33,124.587z M184.909,124.998c0-0.548,0-1.095,0-1.779c0.137,0,0.273,0,0.41,0  c0,0.548,0,1.095,0,1.779C185.183,124.998,185.046,124.998,184.909,124.998z M177.108,125.957c0-0.139,0-0.273,0-0.412  c0.137,0,0.273,0,0.548,0c0,0.139,0,0.273,0,0.412C177.521,125.957,177.382,125.957,177.108,125.957z M212.274,127.325  c-0.137-0.273-0.273-0.412-0.41-0.547c0.41,0,0.82,0,1.231,0.135C212.821,127.052,212.548,127.187,212.274,127.325z   M183.951,129.103c0-0.273,0-0.548,0-0.821c0.137,0,0.273,0,0.548,0c0,0.273,0,0.548,0,0.821  C184.362,129.103,184.225,129.103,183.951,129.103z M203.107,130.062c-1.505-1.232-2.873-2.464-4.241-3.559c0-0.273,0-0.546,0-0.819  c1.095,1.095,3.01,2.051,4.516,3.966C203.244,129.788,203.107,129.923,203.107,130.062z M193.118,131.018  c0-0.135,0.137-0.273,0.273-0.408C193.255,130.744,193.118,130.883,193.118,131.018z M205.434,131.43  c-0.137-0.273-0.273-0.412-0.273-0.547c0.273,0,0.547,0,0.958,0.135C205.844,131.156,205.57,131.291,205.434,131.43z   M208.58,133.756c-0.273-0.275-0.547-0.41-0.82-0.549c0.273-0.683,0.273-0.683,0.684-0.548  C208.443,132.934,208.443,133.346,208.58,133.756z M191.34,135.124c0-0.137,0-0.273,0-0.549c0.273,0,0.547,0,0.82,0  c0,0.139,0,0.275,0,0.549C191.887,135.124,191.613,135.124,191.34,135.124z M186.688,135.534c0-0.41,0-0.684,0-0.959  c0.137,0.139,0.411,0.275,0.685,0.412C187.099,135.124,186.824,135.261,186.688,135.534z M213.232,136.492  c-0.958-0.684-1.778-1.231-2.6-1.778c1.095,0,1.095,0,3.42,1.505C213.779,136.219,213.506,136.355,213.232,136.492z M191.75,136.492  c0-0.137,0-0.273,0-0.549c0.137,0,0.273,0,0.41,0c0,0.139,0,0.275,0,0.549C192.023,136.492,191.887,136.492,191.75,136.492z   M196.265,136.903C196.539,136.629,196.539,136.629,196.265,136.903z M186.688,138.682c0-0.137,0-0.273,0-0.411  c0.273,0,0.548,0,0.958,0c0,0.138,0,0.274,0,0.411C187.372,138.682,187.099,138.682,186.688,138.682z M188.604,139.64  c0-0.138,0-0.274,0-0.411c0.273,0,0.547,0,0.82,0c0,0.137,0,0.273,0,0.411C189.15,139.64,188.877,139.64,188.604,139.64z   M204.476,141.008c0-0.138,0.137-0.274,0.273-0.411C204.612,140.733,204.476,140.87,204.476,141.008z M191.75,141.418  c-0.273-0.41-0.547-0.821-0.685-1.231c0.548-0.137,1.095-0.137,1.643-0.137c0,0.41,0,0.82,0,1.368  C192.297,141.418,192.023,141.418,191.75,141.418z M193.118,141.965c0-0.137,0-0.273,0-0.547c0.137,0,0.273,0,0.41,0  c0,0.137,0,0.273,0,0.547C193.392,141.965,193.255,141.965,193.118,141.965z M194.486,143.333c0-0.137,0-0.273,0-0.547  c0.137,0,0.273,0,0.41,0c0,0.137,0,0.273,0,0.547C194.76,143.333,194.623,143.333,194.486,143.333z M241.419,153.321  c0-0.136,0-0.274,0-0.409c0.139,0,0.275,0,0.549,0c0,0.135,0,0.273,0,0.409C241.831,153.321,241.694,153.321,241.419,153.321z   M236.903,153.321c-0.41-0.274-0.684-0.548-0.957-0.683c0.273,0,0.684,0,1.094,0C236.903,152.773,236.903,153.047,236.903,153.321z   M232.389,154.691c-0.273-0.55-0.548-1.095-0.821-1.645C232.662,154.415,232.662,154.415,232.389,154.691z M234.577,155.102  c0-0.137,0-0.273,0-0.41c0.138,0,0.274,0,0.548,0c0,0.137,0,0.273,0,0.41C234.988,155.102,234.852,155.102,234.577,155.102z   M239.642,155.648c-0.273-0.412-0.547-0.82-0.82-1.233C239.095,154.828,239.368,155.236,239.642,155.648z M210.906,155.648  c0-0.139,0-0.273,0-0.547c0.137,0,0.273,0,0.41,0c0,0.135,0,0.273,0,0.547C211.18,155.648,211.043,155.648,210.906,155.648z   M220.075,156.47c-0.137-0.273-0.273-0.41-0.411-0.548c0.138-0.138,0.274-0.138,0.546-0.138  C220.075,155.922,220.075,156.196,220.075,156.47z M239.231,157.838c-0.685-0.548-1.231-1.095-1.779-1.505c0.548,0,1.23,0,1.916,0  c0.137,0.41,0.408,0.957,0.683,1.505C239.776,157.838,239.505,157.838,239.231,157.838z M223.632,158.796  c-0.273-1.643-0.273-1.643-1.642-3.968c0.548,0.408,3.147,1.505,3.968,3.968C225.138,158.796,224.316,158.796,223.632,158.796z   M248.262,169.33c-2.189-1.915-4.242-3.83-6.294-5.746c-3.694-0.684-4.928-1.642-6.021-3.146  c-10.262-7.116-24.219-19.293-34.48-24.355c-2.19,0-3.559-2.326-4.517-2.736c-0.546,0.273,3.559,3.283,3.97,5.336  c-1.37-0.548-2.602-1.095-3.833-1.644c2.054,1.37,2.875,3.148,6.979,3.148c-0.547-0.41-0.958-0.821-1.368-1.095  c0.685,0,1.368-0.684,2.873,0.821c-0.273,0.684-0.547,1.368-0.821,2.188c0.548-0.273,1.095-0.41,1.643-0.547  c0.41,3.01,8.209,7.936,11.904,9.304c1.914,1.78,1.914,1.78,2.189,2.875c-4.653-2.189-16.557-7.938-17.515-7.938  c1.368,0.823,6.704,3.833,6.704,7.251c-5.473,0-9.306-6.702-12.042-8.209c-1.915,0.274-2.052-1.094-2.188-1.505  c1.505,0.548,3.97,1.916,6.979,1.916c-3.558-3.284-6.706-6.704-9.579-8.211c0-0.819,0-1.641,0.137-2.324c0.273,0,0.547,0,0.821,0  c-2.737-2.328-4.105-2.875-6.431-3.696c-0.137-0.956-0.137-1.915-0.137-2.736c1.231,0,1.505,0,3.01,2.328c1.915,0,1.915,0,2.6-0.548  c-1.779-0.959-3.421-1.915-5.063-2.736c0.273-4.927,0.547-9.854,0.958-14.778c2.325,0.547,3.968,2.053,6.978,4.105  c0.547-2.19-3.694-4.517-3.968-4.653c4.515,0,12.315,8.758,17.241,12.588c-0.548,0-1.095,0-1.505,0.138  c-1.231-1.231-1.231-1.231-2.326-1.231c2.873,2.19,2.873,2.19,4.515,2.736c0.273-0.272,0.548-0.411,0.958-0.546  c2.326,4.239,9.306,9.44,14.642,12.45c0.137,0.685,0.273,1.368,0.41,2.189c-4.515-2.873-4.515-2.873-4.926-2.6  c3.147,4.789,10.125,8.346,14.503,13.82c-1.095,0.273-2.052-0.273-2.326,0.135c0.821,0.821,0.958,0.821,0.958,2.736  c-0.41,0.139-0.684,0.413-0.958,0.687c3.147,2.326,10.674,6.294,13,11.631C246.346,166.732,249.355,168.236,248.262,169.33z   M253.323,174.258c-2.052-2.053-2.873-2.873-3.557-4.653c0.137,0,3.968,2.327,4.515,4.653  C253.871,174.258,253.597,174.258,253.323,174.258z"/>
<path fill-rule="evenodd" clip-rule="evenodd" fill="#A9CFD0" d="M96.732,95.031c-9.031-9.031,2.053-3.421,6.704-1.368  C99.469,94.758,99.469,94.758,96.732,95.031 M122.729,103.241c-0.41-0.548-0.82-1.095-1.23-1.642c0.82-0.548,0.82-0.548,2.462-0.411  c0,0.411,0.137,0.821,0.274,1.368C123.688,102.693,123.141,102.968,122.729,103.241z M85.785,103.241  c0.958-4.105,2.189-5.884,4.379-8.895c0.547,0,1.094,0,1.78,0c1.095,1.505,1.095,1.505,1.368,3.147  C90.711,99.41,88.248,101.325,85.785,103.241z M19.287,105.156c0-0.137,0-0.273,0-0.547c0.137,0,0.273,0,0.41,0  c0,0.137,0,0.273,0,0.547C19.56,105.156,19.423,105.156,19.287,105.156z M126.424,109.262c0-3.146,0.273-3.831,0.958-5.474  c2.189,0.273,5.201,2.463,8.621,3.147c-0.547,0.684-1.095,1.369-1.507,2.053C131.078,107.483,128.203,108.441,126.424,109.262z   M86.333,111.041c2.6-15.736,31.608-17.651,35.576-1.779c-3.146-0.41-7.253,0.548-9.44,0.548c-1.917-1.916-3.012-0.411-3.833,0.137  c-2.326-2.327-3.42-0.137-4.788-0.137c-0.821-0.821-0.821-0.821-2.053-0.821c-0.41,0.41-0.821,0.821-1.231,1.231  c-3.283-1.095-3.694,0-5.336,0c-1.915-1.915-3.148-0.41-4.653-0.41c-0.273-0.411-0.548-0.685-0.685-0.958  C88.658,109.535,87.428,110.22,86.333,111.041z M80.313,111.451c0-0.137,0-0.273,0-0.41c0.137,0,0.273,0,0.548,0  c0,0.137,0,0.273,0,0.41C80.724,111.451,80.586,111.451,80.313,111.451z M18.739,111.451c0-0.137,0-0.273,0-0.41  c0.273,0,0.547,0,0.958,0c0,0.137,0,0.273,0,0.41C19.423,111.451,19.15,111.451,18.739,111.451z M22.433,112.409  c-2.189-2.189-1.094-3.421-0.684-4.926c1.095,0.958,1.642,1.915,2.052,4.926C23.254,112.409,22.844,112.409,22.433,112.409z   M10.528,112.409c0-0.411,0-0.821,0.139-1.095c0.135,0.137,0.273,0.41,0.547,0.684C10.94,112.135,10.667,112.271,10.528,112.409z   M24.759,118.839c-0.274-0.684-0.411-1.368-0.547-1.915c0.684,0,1.368,0.137,2.052,0.273c0,0.548,0.137,1.095,0.274,1.642  C25.854,118.839,25.307,118.839,24.759,118.839z M131.486,120.62c-0.135-0.413-0.135-0.823-0.135-1.233  C131.352,119.797,131.352,120.207,131.486,120.62z M120.541,120.62c0-0.687,0-1.507,0-2.328c0.137,0,0.273,0,0.41,0  c0,0.686,0,1.505,0,2.328C120.814,120.62,120.678,120.62,120.541,120.62z M134.635,121.028c-0.684-1.642-1.233-3.283-1.78-4.926  c0.412,0,0.96,0,1.507,0.137c0.958,2.463,1.778,3.284,2.052,4.789C135.729,121.028,135.183,121.028,134.635,121.028z   M119.993,121.575c0-0.135,0-0.273,0-0.547c0.138,0,0.274,0,0.548,0c0,0.139,0,0.273,0,0.547  C120.404,121.575,120.268,121.575,119.993,121.575z M115.889,121.575c0.548-2.323,0.548-2.323,1.643-4.104  c-0.274,1.095-0.411,2.189-0.548,3.423C116.573,121.028,116.163,121.302,115.889,121.575z M111.784,121.575c0-0.135,0-0.273,0-0.547  c0.136,0,0.274,0,0.548,0c0,0.139,0,0.273,0,0.547C112.193,121.575,112.059,121.575,111.784,121.575z M107.678,121.988  c0-0.139,0-0.274,0-0.413c0.138,0,0.275,0,0.548,0c0,0.139,0,0.274,0,0.413C108.089,121.988,107.953,121.988,107.678,121.988z   M41.59,121.988c0-0.274,0-0.548,0-0.821c1.368,0.408,1.368,0.408,1.368,0.821C42.411,121.988,42,121.988,41.59,121.988z   M24.212,121.988c0-0.139,0-0.274,0-0.413c0.137,0,0.273,0,0.547,0c0,0.139,0,0.274,0,0.413  C24.623,121.988,24.485,121.988,24.212,121.988z M71.691,123.765c-1.231-0.683-1.231-0.683-1.642-1.503  c0.547-0.548,0.547-0.548,1.778-0.548c0.958,0.956,0.958,0.956,1.233,2.051C72.512,123.765,72.104,123.765,71.691,123.765z   M80.86,124.725c-0.274-1.507-0.411-3.011-0.548-4.518c0.137,0,0.273,0,0.548,0C80.86,121.714,80.86,123.218,80.86,124.725z   M126.835,125.133c0.137-0.408,0.41-0.821,0.686-1.095c2.871-0.135,5.881-0.273,8.893-0.273c-0.137,0.273-0.273,0.686-0.273,1.095  C132.993,124.859,129.845,124.998,126.835,125.133z M164.736,125.682c0-0.137,0-0.275,0-0.549c0.137,0,0.274,0,0.411,0  c0,0.139,0,0.273,0,0.549C165.011,125.682,164.873,125.682,164.736,125.682z M115.479,125.682c0.958-3.012,2.873-1.644,5.883-1.917  c-0.137,0.412-0.273,0.96-0.273,1.507C119.173,125.406,117.257,125.545,115.479,125.682z M69.915,125.682c0-0.684,0-1.505,0-2.325  c0.135,0,0.273,0,0.409,0c0,0.682,0,1.503,0,2.325C70.188,125.682,70.05,125.682,69.915,125.682z M61.156,126.093  c0-0.137,0-0.274,0-0.411c0.137,0,0.274,0,0.547,0c0,0.137,0,0.274,0,0.411C61.567,126.093,61.43,126.093,61.156,126.093z   M154.202,127.05c0-0.822-6.296-6.568-6.296-6.568c0.273-0.136,0.547-0.136,0.958-0.136c0.273,0.274,3.559,2.051,4.104,4.652  c0.959,0.273,0.959,0.408,2.19,2.052C154.749,127.05,154.476,127.05,154.202,127.05z M138.739,127.05c0-0.137,0-0.275,0-0.549  c0.137,0,0.273,0,0.41,0c0,0.139,0,0.273,0,0.549C139.013,127.05,138.876,127.05,138.739,127.05z M164.326,127.869  c0-0.545,0-1.095,0-1.776c0.137,0,0.273,0,0.41,0c0,0.547,0,1.094,0,1.776C164.6,127.869,164.463,127.869,164.326,127.869z   M103.163,127.869c0.821-1.368,1.778-2.736,2.736-3.966c0,0.273,0,0.547,0.137,0.956  C105.078,125.818,104.121,126.774,103.163,127.869z M93.994,127.869c0-0.135,0-0.273,0-0.408c0.139,0,0.275,0,0.55,0  c0,0.135,0,0.273,0,0.408C94.407,127.869,94.27,127.869,93.994,127.869z M74.019,127.869c-0.684-3.419-0.684-3.419-0.273-3.283  C73.746,125.682,73.88,126.774,74.019,127.869z M70.734,127.869c0-0.135,0-0.273,0-0.408c0.138,0,0.273,0,0.549,0  c0,0.135,0,0.273,0,0.408C71.144,127.869,71.007,127.869,70.734,127.869z M61.704,128.418c0-0.549,0-1.231,0-1.917  c0.137,0,0.274,0,0.411,0c0,0.549,0,1.233,0,1.917C61.978,128.418,61.84,128.418,61.704,128.418z M156.117,128.829  c-0.137-0.274-0.273-0.411-0.41-0.548c0.137-0.137,0.273-0.137,0.547-0.137C156.117,128.281,156.117,128.555,156.117,128.829z   M76.755,128.829c0.137-0.548,0.411-1.095,0.684-1.643c0.273-0.137,0.685-0.137,1.095-0.137c-0.137,0.411-0.273,0.958-0.273,1.505  C77.713,128.555,77.166,128.692,76.755,128.829z M92.626,129.239c0-0.137,0-0.275,0-0.41c0.139,0,0.275,0,0.55,0  c0,0.135,0,0.273,0,0.41C93.039,129.239,92.901,129.239,92.626,129.239z M86.743,129.786c0-0.137,0-0.273,0-0.547  c0.137,0,0.273,0,0.41,0c0,0.137,0,0.273,0,0.547C87.017,129.786,86.88,129.786,86.743,129.786z M82.229,129.786  c-0.548-1.642-0.958-3.146-1.368-4.653c0.273,0,0.547,0,0.82,0C81.954,126.093,82.502,127.461,82.229,129.786z M32.421,130.197  c0-0.274,0-0.548,0-0.958c0.137,0,0.275,0,0.549,0c0,0.273,0,0.547,0,0.958C32.833,130.197,32.696,130.197,32.421,130.197z   M158.854,131.565c-0.685-0.685-1.231-1.368-1.778-1.916c0.684,0,1.505,0.137,2.325,0.273c0,0.548,0.138,1.095,0.274,1.643  C159.4,131.565,159.127,131.565,158.854,131.565z M62.524,131.565c0-0.137,0-0.274,0-0.411c0.137,0,0.274,0,0.547,0  c0,0.137,0,0.274,0,0.411C62.935,131.565,62.798,131.565,62.524,131.565z M134.225,131.976c-3.423-2.189-8.348-3.012-10.947-3.558  c0-0.273,0-0.41,0-0.549c3.831,0,7.801,0,11.768,0c0,1.233,0,2.465,0.138,3.833C134.771,131.702,134.496,131.839,134.225,131.976z   M68.955,132.522c-0.684-0.957-0.684-0.957-0.684-2.6c0.547,0,1.094,0,1.779,0c0,0.821,0.138,1.643,0.273,2.6  C69.776,132.522,69.365,132.522,68.955,132.522z M83.597,132.934c0-0.274,0-0.548,0-0.958c0.137,0,0.273,0,0.41,0  c0,0.273,0,0.547,0,0.958C83.87,132.934,83.733,132.934,83.597,132.934z M93.994,133.344c-0.135-0.273-0.273-0.547-0.273-0.685  c4.38-5.063,4.38-5.063,7.391-7.8C99.743,126.913,96.596,132.797,93.994,133.344z M108.226,133.891  c-0.958-0.684-1.779-1.231-2.6-1.778c0-0.273,0-0.547,0-0.821c2.6-0.957,4.926-2.736,8.621-2.736  c1.505,1.506,5.336,2.736,8.482,3.968c0,0.274,0,0.548,0,0.821C117.805,133.48,113.016,133.617,108.226,133.891z M142.844,134.302  c-2.325-1.505-1.505-2.736-1.642-3.831c1.095-0.821,3.421,1.368,2.736,3.558C143.528,134.028,143.117,134.165,142.844,134.302z   M88.111,134.302c0-2.6,1.644-3.011,3.421-3.968C89.481,133.207,89.481,133.207,88.111,134.302z M79.902,134.302  c-0.41-0.137-0.685-0.273-0.958-0.411c0-0.684,0.137-1.368,0.273-2.052c0.274,0,0.548,0,0.821,0c0.273,0.82,0.547,1.642,0.821,2.463  C80.449,134.302,80.176,134.302,79.902,134.302z M84.417,134.712c0-0.273,0-0.547,0-0.821c0.137,0,0.273,0,0.548,0  c0,0.274,0,0.548,0,0.821C84.828,134.712,84.69,134.712,84.417,134.712z M41.179,134.712c-3.968-4.515-9.579-7.799-12.042-11.221  c-3.694-0.273-12.724-7.114-13.134-8.346c4.104,0.684,2.6,0.684,7.251-0.958c-0.137-0.548-0.274-0.958-0.411-1.368  c0.547,0.273,1.095,0.547,1.779,0.82c-0.137-0.82-0.274-1.505-0.411-2.188c2.736,0,6.978,1.231,9.167,4.788  c0.412-0.137,0.959-0.273,1.507-0.41c1.094,0.821,3.694,2.736,4.789,5.611c0-0.273,0-0.547,0.137-0.686c0.273,0,0.547,0,0.821,0.139  c0.137-0.821,0.137-0.821-0.41-1.37c0.41-0.137,0.821-0.271,1.231-0.41c0-0.411,0-0.821,0-1.095  c-4.104-3.558-5.199-7.252-10.126-7.252c-4.105-4.105-5.336-3.694-9.714-4.925c-1.368,1.367-5.883,0.683-6.841,0.683  c-0.137,0.548-0.137,1.095-0.137,1.78c-3.694-0.821-3.694-6.842-3.833-8.621c2.875-1.915,3.833-7.252,3.01-10.125  c3.559,0,5.064-1.369,5.475-4.927c1.778-0.684,6.704-2.188,7.935-3.968c3.421,0.411,3.421,0.411,18.199-0.41  c3.831,1.915,13.684,2.326,19.704,3.146c0,0.548,0.137,1.231,0.274,1.916c-9.03,15.188-9.44,31.198-5.063,48.985  c-4.654,0-7.39-2.736-11.221,0.137C46.378,134.438,43.779,134.575,41.179,134.712z M155.57,135.259  c-4.379-6.02-6.569-8.072-8.21-10.947c0.819,0,9.167,7.117,10.125,10.947C156.801,135.259,156.117,135.259,155.57,135.259z   M91.808,135.67c0-1.916,0.957-1.642,1.642-2.189C93.721,135.122,92.901,135.396,91.808,135.67z M186.629,136.082  c-0.135-0.275-0.273-0.412-0.273-0.549c0.273,0,0.548,0,0.958,0.137C187.04,135.807,186.767,135.943,186.629,136.082z   M73.472,136.082c-0.273-0.412-0.547-0.687-0.686-0.96c0.412-0.137,0.823-0.137,1.368-0.137c0-2.188-1.229-3.283-1.368-3.968  c0.959-0.957,0.959-0.957,1.368-2.188c0.959,4.515,1.78,5.746,2.054,7.253C75.25,136.082,74.293,136.082,73.472,136.082z   M68.955,136.627c-0.137-0.273-0.273-0.545-0.409-0.684c0.682,0,1.368,0.139,2.05,0.273C70.05,136.354,69.502,136.49,68.955,136.627  z M188.408,137.038c0-0.137,0-0.273,0-0.411c0.137,0,0.273,0,0.547,0c0,0.138,0,0.274,0,0.411  C188.818,137.038,188.682,137.038,188.408,137.038z M167.884,137.038c0-0.137,0-0.273,0-0.411c0.137,0,0.273,0,0.547,0  c0,0.138,0,0.274,0,0.411C168.296,137.038,168.157,137.038,167.884,137.038z M96.732,137.038c1.231-2.189,1.779-4.104,3.831-4.789  C100.563,134.985,99.195,136.217,96.732,137.038z M159.675,137.45c0-0.139,0-0.273,0-0.412c0.137,0,0.273,0,0.547,0  c0,0.139,0,0.273,0,0.412C160.085,137.45,159.948,137.45,159.675,137.45z M104.121,137.45c-0.137-0.686-0.273-1.368-0.273-2.055  c0.41,0,0.82,0,1.23,0c0,0.411,0,0.821,0,1.369C104.668,136.901,104.395,137.177,104.121,137.45z M110.004,138.406  c-0.137-0.548-0.273-1.095-0.273-1.642c0.821-0.138,1.644-0.138,2.602-0.138c-0.273,0.411-0.548,0.958-0.685,1.506  C111.099,138.133,110.552,138.27,110.004,138.406z M171.99,138.818c0-0.139,0-0.273,0-0.412c0.137,0,0.271,0,0.545,0  c0,0.139,0,0.273,0,0.412C172.4,138.818,172.262,138.818,171.99,138.818z M152.423,139.774c-3.559-4.379-10.399-13.956-9.716-16.283  c2.873,3.422,9.716,10.537,11.084,16.283C153.244,139.774,152.834,139.774,152.423,139.774z M117.257,139.774  c0-1.229,0-2.324,0-3.421c0.411,0,0.958,0,1.506,0c0.137,1.097,0.273,2.191,0.41,3.421  C118.488,139.774,117.805,139.774,117.257,139.774z M195.251,141.143c0-0.135,0-0.273,0-0.409c0.137,0,0.273,0,0.547,0  c0,0.136,0,0.274,0,0.409C195.661,141.143,195.524,141.143,195.251,141.143z M131.486,142.923c-1.915-1.915-1.229-5.201-1.368-6.841  c0.547,0,1.097,0,1.78,0c0.41,2.188,0.821,4.513,1.368,6.841C132.583,142.923,132.035,142.923,131.486,142.923z M184.851,143.47  c0-0.139,0-0.273,0-0.547c0.137,0,0.273,0,0.41,0c0,0.135,0,0.273,0,0.547C185.124,143.47,184.987,143.47,184.851,143.47z   M169.252,143.47c0-0.139,0-0.273,0-0.547c0.139,0,0.273,0,0.547,0c0,0.135,0,0.273,0,0.547  C169.664,143.47,169.525,143.47,169.252,143.47z M185.672,143.879c0-0.135,0-0.273,0-0.409c0.137,0,0.273,0,0.547,0  c0,0.136,0,0.274,0,0.409C186.082,143.879,185.945,143.879,185.672,143.879z M166.104,143.879c0-1.095,0-2.051,0-3.01  c0.274,0.959,0.548,1.915,0.958,3.01C166.652,143.879,166.379,143.879,166.104,143.879z M139.149,145.249  c-1.778-3.56-1.778-4.516-2.462-7.116c3.693,0.547,4.241,1.642,5.199,6.705c-0.821-0.139-1.506-0.273-2.189-0.412  C139.424,144.699,139.287,144.974,139.149,145.249z M146.948,145.659c-1.642-3.558-1.642-3.558-1.778-5.473  c1.368,0,3.694,1.229,4.241,4.239C148.453,145.386,148.453,145.386,146.948,145.659z M199.902,147.574  c-0.137-0.273-0.273-0.547-0.41-0.684c0.273,0,0.547,0.137,0.958,0.271C200.176,147.301,200.039,147.436,199.902,147.574z   M200.724,148.396c0-0.137,0-0.273,0-0.41c0.273,0,0.547,0,0.957,0c0,0.137,0,0.273,0,0.41  C201.407,148.396,201.134,148.396,200.724,148.396z M178.831,149.764c0-0.137,0-0.273,0-0.41c0.273,0,0.547,0,0.957,0  c0,0.137,0,0.273,0,0.41C179.515,149.764,179.241,149.764,178.831,149.764z M207.564,152.5c0-0.137,0-0.273,0-0.41  c0.139,0,0.273,0,0.547,0c0,0.137,0,0.273,0,0.41C207.975,152.5,207.838,152.5,207.564,152.5z M179.378,156.194  c-0.41-0.273-0.684-0.548-0.958-0.685c0.274,0,0.685,0,1.095,0C179.378,155.646,179.378,155.921,179.378,156.194z M213.997,163.037  c-0.274-0.548-0.274-0.548,0.137-0.687C213.997,162.489,213.997,162.764,213.997,163.037z M182.936,163.037  c-1.779-2.875-8.346-4.106-9.44-5.885c0.957-1.368,1.231-1.779,3.283-2.6c-0.137-0.685-0.273-1.231-0.41-1.779  c1.231-1.231,1.231-1.231,3.42-1.915c3.968,3.283,7.799,6.431,13.82,8.348c0.274,0.547,0.548,1.095,0.958,1.776  c-4.79-1.503-9.442-3.01-14.094-4.378c0.958,1.368,0.958,1.368,3.968,3.423c0,0.82,0,1.776,0,2.736  C183.893,162.764,183.346,162.898,182.936,163.037z M187.04,164.813c0-0.135,0-0.273,0-0.408c0.137,0,0.273,0,0.547,0  c0,0.135,0,0.273,0,0.408C187.45,164.813,187.313,164.813,187.04,164.813z M199.355,165.361c-0.411-0.821-0.821-1.504-1.231-2.189  c1.231,0.412,1.368,0.412,2.189,2.189C199.902,165.361,199.629,165.361,199.355,165.361z M218.512,170.288  c-4.104-2.052-4.104-2.052-6.157-2.6c-0.137-0.41-0.273-0.686-0.273-0.957c-11.084-4.242-23.263-13.273-31.608-18.746  c0-3.968,3.146-8.346,4.515-11.221c4.243,1.368,8.896,4.925,13.684,7.935c0,0.413,0.137,0.96,0.273,1.507  c-2.462-1.094-4.788-2.327-6.156-2.052c3.831,4.241,9.987,8.482,16.01,12.45c-0.687,0.139-1.37,0.273-2.055,0.548  c0,0.41,0,0.82,0,1.232c0.411,0.274,0.96,0.546,1.505,0.821c0,0.273,0.137,0.683,0.274,1.095c-0.685,0-1.368,0-2.053,0  c0.685,1.503,10.126,7.661,13.273,9.577C219.332,170.015,218.922,170.151,218.512,170.288z M227.679,177.129  c0.137-0.271,0.273-0.545,0.41-0.684c0.137,0.139,0.275,0.412,0.549,0.684C228.226,177.129,227.952,177.129,227.679,177.129z"/>
<path fill-rule="evenodd" clip-rule="evenodd" fill="#553B72" d="M129.777,25.713c-2.647-0.884-5.444-1.62-7.801-1.62  c-3.384,0.809-7.288,2.503-7.875-1.325c0.587-0.221,1.175-0.44,1.766-0.664c0.147-1.323,0.368-1.839,0.883-2.573  c0.368,0,0.737,0,1.105,0c0.737,0.956,0.883,2.279,1.104,4.046c0.221,0,0.513,0,0.811,0.074c0.221-0.293,0.514-0.59,0.81-0.883  c-0.368-2.281-2.135-3.828-1.841-5.374c1.252-0.295,1.62,0.072,2.429,1.767c2.281-0.147,1.104-1.99,0.883-3.386  c0.662-0.958,1.03-0.663,2.43-0.663c0.885,1.321-0.737,2.429,0.368,4.049c0.294,0,0.662,0,1.031,0  c0.66-1.471,0.368-1.838,2.06-1.838c0.074,0.513,0.146,1.027,0.221,1.542c-3.091,4.711-1.104,7.067,0.81,1.178  c0.441,0,0.883,0,1.324,0c0.296,0.738,0.591,1.472,0.885,2.284C133.681,23.797,132.061,25.121,129.777,25.713 M123.448,26.448  c-0.295-0.072-0.514-0.146-0.736-0.218c-0.075-0.297-0.148-0.593-0.148-0.886c0.443,0,0.96,0,1.475,0  c0.074,0.293,0.146,0.588,0.223,0.958C123.965,26.302,123.669,26.376,123.448,26.448z M119.032,26.963c0-0.295,0-0.516,0-0.733  c0.439-0.078,0.958-0.151,1.472-0.225C120.211,26.668,119.472,26.815,119.032,26.963z M127.349,27.183  c-0.293-0.146-0.587-0.294-0.81-0.442c-0.073-0.293-0.146-0.511-0.146-0.736c0.442,0.074,0.885,0.225,1.325,0.371  c0.074,0.22,0.146,0.439,0.221,0.661C127.718,27.037,127.498,27.112,127.349,27.183z M125.659,28.657  c-0.518-0.148-1.034-0.296-1.547-0.443c0-0.22,0-0.44,0-0.588c0.735,0,1.252-0.147,2.574,0.516  C126.32,28.288,125.951,28.436,125.659,28.657z M121.46,28.657c-0.441-0.148-0.881-0.296-1.324-0.443  c-0.073-0.22-0.146-0.366-0.146-0.517c0.956-0.218,1.911-0.365,2.944-0.514c0,0.369,0,0.811,0,1.252  C122.418,28.509,121.901,28.583,121.46,28.657z M119.99,29.908c0-0.222,0.072-0.442,0.146-0.587c0.735,0,1.473,0,2.209,0  c0.073,0.145,0.219,0.366,0.367,0.587C121.756,29.908,120.871,29.908,119.99,29.908z M125.142,30.127  c-0.367-0.073-0.662-0.147-0.958-0.22c0-0.222,0-0.368,0-0.515c0.591,0,1.181-0.369,2.651,0.368  C126.247,29.833,125.659,29.98,125.142,30.127z M124.921,31.6c-0.296-0.221-0.588-0.366-0.883-0.516  c0.81-0.07,1.621-0.07,2.428-0.07c0,0.146,0,0.293,0,0.441C125.951,31.455,125.438,31.526,124.921,31.6z M120.504,31.6  c-0.221-0.074-0.368-0.145-0.514-0.221c0-0.22,0-0.366,0-0.514c0.735-0.074,1.545-0.074,2.354-0.074  c0.073,0.147,0.219,0.368,0.367,0.587C121.977,31.455,121.241,31.526,120.504,31.6z M125.364,34.104  c0.073-0.368,0.146-0.738,0.219-1.105c0.368-0.073,0.81-0.147,1.252-0.147c-0.073,0.294-0.148,0.662-0.222,1.03  C126.174,33.956,125.73,34.028,125.364,34.104z M123.448,34.104c-0.221-0.148-0.441-0.294-0.662-0.441  c0.075-0.369,0.148-0.665,0.221-0.958c0.221,0,0.517,0,0.811,0c0,0.367,0,0.735,0,1.176  C123.669,33.956,123.523,34.028,123.448,34.104z M120.504,34.104c-0.221-0.148-0.441-0.294-0.66-0.441  c0.071-0.369,0.146-0.665,0.219-0.958c0.296,0.072,0.663,0.146,1.033,0.293c0,0.367,0.071,0.738,0.146,1.105  C120.946,34.104,120.726,34.104,120.504,34.104z M122.935,36.017c-3.386-0.146-4.49-0.146-5.816-1.914  c0.075-0.294,0.223-0.59,0.369-0.81c0.295,0,0.589,0,0.883,0c1.62,2.428,5.372,1.693,8.76,1.546c0-1.03,0.883-1.25,1.399-1.694  c0.146,0.075,0.366,0.22,0.587,0.368C129.116,36.31,124.702,35.871,122.935,36.017z M94.447,37.784  c-0.517-0.294-1.031-0.514-1.547-0.737c0-0.44,0-0.809,0.072-1.176c2.505-0.589,3.829-1.473,6.92,0.071  c-0.071,0.367-0.145,0.739-0.219,1.104C98.056,37.857,96.066,37.708,94.447,37.784z M148.698,38.741  c-0.737-0.369-1.473-0.738-2.137-1.033c-0.072-0.365-0.146-0.734-0.221-1.026c2.282-0.96,3.534-1.252,6.626,0  c0.074,0.439,0.144,0.881,0.219,1.396C151.643,39.109,149.802,38.741,148.698,38.741z M128.823,41.465  c-0.223-0.442-0.369-0.882-0.517-1.252c0.589-0.075,1.181-0.148,1.768-0.221C129.852,41.096,129.777,41.243,128.823,41.465z   M116.823,41.465c-0.219-0.147-0.365-0.222-0.513-0.294c0-0.516,0-1.033,0-1.472c0.366,0,0.735,0.073,1.104,0.146  c0.073,0.369,0.146,0.739,0.221,1.178C117.341,41.17,117.046,41.317,116.823,41.465z M121.683,41.686  c-0.366-0.515-0.366-0.515-0.295-1.401c0.441,0,0.883,0,1.398,0.076c0,0.294,0,0.589,0,0.957  C122.418,41.391,122.05,41.538,121.683,41.686z M119.032,41.686c-0.147-0.515-0.221-1.031-0.294-1.473  c0.59,0.072,1.177,0.147,1.766,0.222C120.211,41.243,119.915,41.538,119.032,41.686z M126.393,41.906  c-0.146-0.368-0.293-0.735-0.441-1.029c0.073-0.223,0.223-0.442,0.369-0.592c0.515,0,1.028,0.076,1.543,0.15  c-0.071,0.367-0.146,0.735-0.219,1.103C127.203,41.612,126.762,41.758,126.393,41.906z M124.184,41.906  c-0.881-0.588-0.66-1.323-0.66-1.545c0.883-0.076,0.883-0.076,1.693,0.223c-0.075,0.367-0.148,0.734-0.221,1.175  C124.702,41.758,124.406,41.831,124.184,41.906z M109.169,43.157c-2.135-2.503-1.252-4.416,1.326-4.785  c0.587,0.662,0.955,0.884,1.251,2.65C111.008,41.831,110.054,42.937,109.169,43.157z M136.184,43.378  c-2.428-3.018-2.428-2.651-0.368-5.006c0.368,0,0.735,0,1.178,0C137.875,39.623,139.201,42.79,136.184,43.378z M117.267,43.378  c-0.073-0.441-0.148-0.81-0.221-1.179c0.514,0.075,1.104,0.146,1.692,0.222c-0.074,0.147-0.146,0.369-0.146,0.589  C118.149,43.084,117.708,43.23,117.267,43.378z M127.863,43.671c-0.438-0.734-0.438-0.734-0.365-1.397  c0.515-0.075,1.031-0.075,1.544-0.075c-0.073,0.369-0.146,0.738-0.146,1.105C128.529,43.378,128.159,43.524,127.863,43.671z   M122.418,43.894c-0.073-0.443-0.147-0.884-0.221-1.252c0.664-0.074,1.326-0.146,1.986-0.221  C123.892,43.821,123.376,43.748,122.418,43.894z M123.153,48.088c-1.252-1.618-1.252-1.618-2.574-2.871  c-0.883,0.737-2.503,2.431-3.682,2.431c-0.734-1.104-1.474-2.136-2.209-3.165c-3.533,3.165-3.533,3.165-4.048,3.31  c0.073-1.324,0.146-2.652,0.294-3.899c1.547,0,2.43-0.884,3.902-1.915c0.662,0.294,1.545,2.872,2.798,3.238  c1.104-1.104,1.618-2.428,3.384-2.428c0.664,0.809,1.326,1.619,1.988,2.428c1.177-0.587,1.473-2.428,3.167-2.428  c0.735,0.809,1.544,1.619,2.355,2.503c0.733-1.105,1.545-2.208,2.354-3.238c1.471,0,1.767,3.087,4.344,2.059  c0,1.326,0,2.651,0,3.975c-1.841-0.881-2.652-2.357-3.608-3.385c-0.885,1.028-1.768,2.133-2.577,3.238  c-1.324,0-2.868-2.132-3.312-2.502C124.848,46.323,123.965,47.207,123.153,48.088z M116.088,52.946  c-1.618-1.618-2.355-2.943-2.578-4.268c0.296-0.295,0.296-0.295,0.813-0.221C114.395,48.604,116.382,51.917,116.088,52.946z   M141.337,53.241c-0.223-0.148-0.37-0.22-0.518-0.295c0-1.396,0.443-1.323,1.178-1.765c-0.072-1.179,0.075-1.179,1.327-0.958  c0-0.516,0.072-1.031,0.146-1.545c0.368-0.074,0.81-0.148,1.253-0.148c-0.297-0.367-0.297-0.367-0.297-1.104  c0.297-0.074,0.662-0.147,1.032-0.147c-0.149-0.59-0.295-1.178-0.441-1.694c0.441-0.074,0.956-0.147,1.473-0.147  c0.072-0.146,0.146-0.297,0.293-0.368c-0.662-0.884-0.662-0.884-0.81-1.693c0.517-0.073,1.032-0.148,1.622-0.148  c-0.443-0.588-0.887-1.102-1.254-1.618c0.441-0.885,0.441-0.441,1.473-0.589c-3.459-3.459,3.681-1.474,5.521-1.324  c-0.149,0.737-0.812,1.472-1.399,1.914c0.073,0.516,0.148,1.03,0.296,1.618c-0.296,0.221-0.517,0.441-0.737,0.664  c0,0.514,0,1.03,0,1.545c-0.441,0.223-0.883,0.442-1.253,0.737c-0.073,0.442-0.146,0.956-0.219,1.472  c-1.693,0.515-1.324,0.439-1.768,2.206c-0.513,0.074-1.029,0.148-1.473,0.222C146.12,51.475,142.881,53.021,141.337,53.241z   M124.921,53.241c0.075-1.692,0.147-3.018,0.81-4.049c0.221,0,0.443,0,0.662,0c0.073,0.588,0.073,0.588-1.028,3.9  C125.217,53.093,125.068,53.168,124.921,53.241z M129.339,53.464c0.735-1.622,1.473-3.241,2.28-4.786  C133.827,48.678,130.293,53.093,129.339,53.464z M120.946,53.464c-0.442-1.031-2.431-4.934-0.442-4.271  C120.798,49.707,120.798,49.707,120.946,53.464z M106.005,53.464c-2.356-0.885-3.977-1.4-4.712-2.873  c-0.734-0.073-1.4-0.146-2.062-0.22c-0.147-0.442-0.293-0.882-0.442-1.249c-0.369-0.076-0.733-0.149-1.029-0.222  c-0.075-0.517-0.147-1.032-0.147-1.547c-0.517-0.295-1.031-0.516-1.546-0.734c-0.518-1.989-1.105-2.064-1.249-3.608  c-1.476-0.956-0.96-1.693-0.739-2.575c-1.398-1.031-0.957-0.886-1.105-1.694c2.062-0.075,4.123-0.075,6.259-0.075  c-0.589,1.178-0.589,1.178-1.253,1.618c0.517,0,1.031,0.076,1.62,0.15c0,0.735-0.881,1.619-1.471,2.28  c0.59,0.075,1.175,0.149,1.765,0.222c-0.294,0.587-0.515,1.176-0.733,1.839c0.515-0.073,1.102-0.146,1.69-0.146  c0,0.663-0.364,1.325-0.883,1.693c0.369,0.366,0.811,0.366,1.693,0.366c0,0.518,0,0.518-0.441,1.179  c0.368,0.148,0.81,0.368,1.249,0.589c-0.29,0.665-0.29,0.665-0.144,0.956c0.441,0,0.956,0.076,1.472,0.149  c0,1.542,1.545,1.84,2.87,3.679C106.445,53.315,106.225,53.389,106.005,53.464z M141.114,54.714c-0.808-1.839-1.47-3.24-1.619-4.343  c5.593-4.64,4.418-8.026,5.374-13.986c2.356-1.693,7.95-3.827,9.789,0.809C154.658,46.247,149.581,51.623,141.114,54.714z   M123.892,57.363c0-4.488-1.255-7.509,2.133-10.527c0.662,0.662,1.324,1.327,1.988,2.063  C128.013,51.255,126.174,55.523,123.892,57.363z M122.197,57.878c-2.282-3.384-3.827-5.888-4.048-9.2  c2.354-2.355,1.841-2.576,4.121,0.811c0.293,1.692,0.293,1.692,0.441,8.39C122.493,57.878,122.345,57.878,122.197,57.878z   M125.659,58.394c0.292-1.251,0.292-1.251,5.519-11.85c0.221,0,0.441,0,0.664,0c0.733,0.736,1.469,1.544,2.208,2.356  C134.05,52.286,128.382,56.702,125.659,58.394z M120.211,58.394c-2.944-1.988-8.465-6.919-8.465-9.937  c1.177-1.031,1.693-1.914,3.091-2.355c1.03,3.46,3.756,7.876,5.815,11.85C120.504,58.1,120.358,58.244,120.211,58.394z   M122.418,60.601c-7.802-2.573-11.704-9.496-14.501-15.825c-5.151-4.416-2.798-10.304,4.123-8.391  c0.587,0.296,2.797,2.428,4.271,2.428c2.648-3.092,7.284-1.178,11.996-1.693c1.251,1.693,1.251,1.693,1.841,1.988  c3.973-2.356,7.8-5.299,10.819,0.809c0,1.032,0,1.032-0.515,2.65C134.859,49.122,131.988,59.131,122.418,60.601z M131.768,60.825  c-0.22-0.076-0.369-0.148-0.517-0.224c1.104-3.165,2.356-6.697,5.447-7.875c0.221,0.956,0.517,1.916,0.81,2.871  C137.215,56.848,132.873,60.383,131.768,60.825z M113.364,60.825c-3.24-5.375-11.04-7.732-15.459-9.939  c-4.12-4.122-9.128-11.187-5.669-16.269c2.432-1.619,6.773-1.251,9.205,1.621c0,6.33-0.223,6.552,3.163,12.44  c4.344,3.461,8.905,5.449,9.497,12.146C113.806,60.825,113.587,60.825,113.364,60.825z M116.311,67.668  c-0.296-1.03-0.519-2.061-0.737-3.017c-0.587-0.077-1.179-0.15-1.692-0.15c0.293-0.88,0.589-1.692,0.881-2.501  c2.873,0,2.873,0,3.535,0.294c0.073,1.399,0.147,2.8,0.219,4.196C117.855,66.639,117.855,66.639,116.311,67.668z M129.777,71.865  c0-2.06,0.297-6.7-1.177-7.802c0.295-0.665,0.591-1.253,0.887-1.842c0.146-0.074,0.364-0.074,0.587-0.074  c1.768,1.324,1.914,5.301,1.324,8.024c-0.883,1.031-0.883,1.031-1.105,1.693C130.074,71.865,129.927,71.865,129.777,71.865z   M124.406,72.381c-0.146-7.361,1.253-8.172-4.195-8.392c0.293-0.809,0.587-1.546,0.956-2.283c1.396,0,3.166,0.148,5.08,0.515  C127.571,65.755,127.571,69.655,124.406,72.381z M133.756,73.114c-0.662-3.459-0.148-5.004,0.883-7.726  c-0.445-0.15-0.883-0.223-1.252-0.293c0-1.327,0.145-1.032,0.733-1.989c1.326,0.292,2.726,0.662,4.123,1.03  c0.075,0.221,0.149,0.439,0.221,0.664c-0.294,0.366-0.589,0.808-0.808,1.25c-2.943,0-2.355,3.385-2.355,6.109  C134.784,72.452,134.271,72.747,133.756,73.114z M143.545,76.798c-1.179-1.844-1.841-4.566-2.649-5.08  c-1.988,1.839-1.915,2.796-4.491,2.575c0.368-2.207,1.988-3.533,3.755-4.638c0.072-0.733,0.072-0.733-0.737-3.238  c0.81-0.809,1.03-0.883,2.136-1.179c1.839,4.64,1.839,4.64,2.427,5.595c0.147-0.148,0.37-0.293,0.591-0.44  c-0.075-1.03-0.149-1.986-0.149-2.944c0.662-0.221,1.4-0.442,2.136-0.589c1.841,2.209,0.59,3.754-1.913,5.227  c0.221,1.471,0.736,2.428,0.957,3.46C144.869,76.279,144.869,76.279,143.545,76.798z M102.324,76.798  c-0.221-2.798-0.296-2.725,1.839-3.756c-0.367-1.766-0.662-3.534-0.956-5.226c-0.812-0.075-1.62-0.148-2.357-0.148  c0.15-0.884,0.369-1.767,0.592-2.573c2.867-0.665,5.813-1.327,8.758-1.989c2.06,2.06,5.153,7.066,2.135,10.083  c-1.839-1.84-2.28-5.227-3.459-6.845c-2.209,0.221-2.209,0.221-3.092,0.662c0.295,2.062,1.986,5.08,0.81,7.875  C105.119,75.474,103.722,76.134,102.324,76.798z M93.491,81.654c-1.766-2.354-3.902-4.786-5.962-4.786  c-2.798,2.432-2.798,2.432-4.491,3.463c-1.324-4.64,0.737-4.27,4.269-7.142c0.515,0,1.029,0,1.618,0  c2.137,2.136,6.036,4.049,4.86,8.319C93.637,81.509,93.564,81.58,93.491,81.654z M153.629,82.686  c-2.135-0.809-2.135-0.809-2.135-1.031c1.029-0.811,2.135-1.618,3.238-2.354c0.735,0.146,1.473,0.294,2.209,0.516  c0,0.148,0,0.294,0,0.441C155.836,81.067,154.732,81.877,153.629,82.686z M88.852,85.851c-0.81-1.619-1.84-2.428-2.648-3.165  c0-1.472,0.368-1.693,0.809-2.576c0.146,0,0.295,0,0.443,0C88.631,81.509,91.209,83.494,88.852,85.851z M158.268,86.071  c-0.813-0.074-1.621-0.148-2.432-0.221c0-1.914,4.417-3.239,5.964-5.08c-0.737-2.208-3.606-3.163-4.05-4.491  c3.386-1.03,4.785-0.146,7.067,3.463C164.521,82.611,160.842,85.483,158.268,86.071z M83.921,91.961  c-1.177-2.431-0.883-3.607-0.883-5.67c-2.209-1.471-3.829-0.882-5.593-1.324c-0.221-0.735-0.443-1.398-0.664-2.062  c3.531,0,6.698-0.44,10.157,3.018c0,0.589,0.073,1.252,0.147,1.914c-1.324-0.44-1.324-0.44-1.843-0.293  C85.243,89.383,85.394,90.193,83.921,91.961z M162.683,93.947c-1.03-2.503-3.682-4.196-4.048-5.89  c0.81-0.146,1.692-0.293,2.575-0.366c0.59,0.734,1.179,1.472,1.838,2.281c0.222,0,0.446,0,0.664,0c0.81-2.208,1.621-4.64,1.915-6.55  c1.397-0.223,1.397-0.223,2.43,0c-0.074,1.91-1.324,4.121-1.324,6.328c0.292,0.148,0.292,0.148,1.912-0.294  c0.221-0.664,0.441-1.324,0.662-1.988c0.736,0.075,1.474,0.148,2.209,0.223c0.221,0.883,0.443,1.839,0.737,2.797  c-2.062,0.37-4.123,0.736-6.183,1.104C164.892,93.135,164.595,93.727,162.683,93.947z M80.977,95.934  c-2.134-1.251-1.47-2.354-1.915-4.048c-1.324-1.471-1.324-1.471-2.649-2.281c-1.397,0.956-1.841,3.094-3.681,3.46  c-0.883-0.517-0.883-0.517-2.649-0.736c-0.295-1.03-0.295-1.03-0.148-2.798c2.797,0.885,2.722-0.221,4.344-2.574  c3.9,0.513,8.39,3.383,7.286,8.757C81.344,95.787,81.123,95.859,80.977,95.934z M156.573,98.587  c-5.298-6.923-12.147-10.308-18.845-14.208c-0.366-0.591-0.735-1.105-1.102-1.619c-0.591,0-1.181,0-1.696,0  c-0.146,0.146-0.292,0.292-0.441,0.514c-1.987,0-0.958-1.619-3.312-1.251c-2.944,1.988-2.209-0.22-4.122-0.22  c-0.442,0.366-0.882,0.809-1.325,1.249c-0.441-0.146-0.441-0.146-1.105-1.249c-0.219,0-0.364,0-0.513,0  c-1.326,1.691-2.283,2.279-7.73,7.873c-1.766,2.285-3.532,4.567-5.227,6.849c-2.28,0-3.604-0.883-5.445-1.253  c-3.532,0-6.259,0.956-9.129,0.956c-1.692-1.913-3.09-3.163-4.489-4.267c0-3.314,11.775-9.275,14.722-10.675  c2.355-0.663,4.783-1.322,7.215-1.986c3.165-0.442,3.165-0.442,3.9-0.737c15.016-0.515,24.952,2.871,36.512,13.766  c1.323,1.986,2.647,3.976,3.974,6.034C157.75,98.438,157.162,98.512,156.573,98.587z M166.878,101.527  c-1.839-3.604-1.839-3.604-3.166-5.668c1.476-0.146,2.283-1.323,3.606,1.105c1.915,0,3.829-2.87,4.197-4.488  c0.958,0.145,1.986,0.368,3.019,0.588c-0.589,3.018-3.681,4.417-6.33,5.298c0,0.737,0,0.737,0.369,1.327  c2.207,0,3.973,0,5.739-2.062c0.738-0.074,1.472-0.074,2.207-0.074c0,2.504-0.145,2.797-2.574,3.607  C171.589,101.235,169.233,101.381,166.878,101.527z M123.448,105.723c-3.313-3.9-5.593-6.106-9.347-7.95  c0-4.046,6.332-8.756,9.567-10.598c10.158-4.123,20.906,2.43,28.563,10.307c0,0.22,0.071,0.441,0.146,0.66  c-7.437-1.397-15.827-2.942-22.526,0.074c-1.177,0.884-2.354,1.767-3.459,2.651C123.742,105.575,123.742,105.575,123.448,105.723z   M77.295,105.723c-0.662-0.586-1.324-1.176-1.914-1.764c0.367-1.474,0.737-2.943,1.105-4.343c-4.712-1.844-5.303-2.651-6.553,2.649  c-4.343,0-0.587-5.374,0-6.258c1.77-0.884,4.933,0.736,7.067,1.915c0.222,0,0.443,0,0.735,0c0.149-0.295,0.295-0.514,0.441-0.737  c0.441,0,0.883,0,1.692,0.587C79.871,100.058,78.326,103.148,77.295,105.723z M170.266,106.241  c-0.736-0.442-1.472-0.884-2.136-1.324c1.692-0.297,3.386-0.592,5.078-0.812c1.693-1.03,2.797-2.944,5.079-0.662  C175.859,106.388,173.575,106.093,170.266,106.241z M83.405,107.419c0.957-3.46,4.195-12.883,7.284-13.618  c0.372,0.367,3.537,2.943,3.096,4.415c-3.606,2.576-3.606,2.576-6.773,5.301C84.362,106.313,83.775,107.272,83.405,107.419z   M67.728,108.449c-0.96-1.252-1.62-2.136-1.62-2.874c2.43-0.513,8.908-1.176,10.451,2.356  C72.512,107.419,71.038,107.344,67.728,108.449z M162.903,112.57c-0.589-0.369-1.768-2.355-2.282-2.574  c-0.958,0.66-1.913,1.321-2.871,1.985c-1.471-0.736-1.177-1.689-1.545-2.502c-0.22-0.075-0.369-0.148-0.515-0.221  c-1.032,0.59-2.062,1.986-2.944,2.21c-0.883-1.105-2.062-2.432-2.65-2.432c-0.735,0.734-1.473,1.472-2.135,2.208  c-1.62-0.589-1.913-1.986-2.798-1.986c-0.588,0.737-1.179,1.472-1.767,2.21c-1.692-0.518-1.618-1.916-2.43-2.21  c-0.956,0.662-1.766,1.692-2.724,1.914c-0.881-1.401-1.397-1.769-2.06-1.914c-0.589,0.59-1.104,1.25-1.62,1.914  c-0.37,0-0.662,0-0.956,0c-0.37-0.517-0.734-0.958-1.105-1.401c-1.472,0-1.913,1.255-2.796,1.697  c-0.515-0.442-0.515-0.442-1.177-1.697c-1.031,0.297-1.62,1.105-2.43,1.915c-0.221-0.075-0.44-0.146-0.59-0.218  c0.59-11.559,6.992-12.294,17.519-12.294c5.742,0.957,11.483,1.986,17.225,3.017C160.989,104.105,163.565,109.849,162.903,112.57z   M85.173,112.865c0.514-7.214,4.563-9.201,10.305-12.733c10.306-4.198,20.833-0.149,26.572,9.937c0,0.366,0,0.736,0,1.104  c-0.733,0.514-0.733,0.514-1.471,0.514c-0.443-0.589-0.883-1.178-1.326-1.69c-0.66,0.219-1.471,0.881-1.618,1.473  c-0.441-0.077-0.812-0.151-1.177-0.224c-0.666-1.103-0.591-1.249-1.253-1.474c-0.883,0.521-1.841,1.915-2.724,1.915  c-0.296-0.589-0.589-1.178-0.885-1.69c-1.839,0-2.28,1.396-3.53,1.69c-0.368-0.589-0.738-1.178-1.107-1.69c-0.293,0-0.514,0-0.734,0  c-0.739,0.734-1.399,1.615-2.649,1.838c-0.441-0.808-0.883-1.619-1.324-2.354c-2.43,2.65-2.724,2.65-4.195,0.517  c-1.031,0.734-2.063,1.69-3.021,1.69c-0.587-0.66-1.177-1.323-1.692-1.915c-1.546,0.812-1.397,1.474-2.944,1.697  c-0.294-0.442-0.588-0.886-0.883-1.254C87.748,110.215,86.571,112.349,85.173,112.865z M174.681,116.251  c-0.956-0.368-0.956-0.368-5.151-0.735c-0.148-1.179-0.223-2.355-0.296-3.534c0.958,0.148,1.988,0.367,3.02,0.589  c0,0.368,0,0.811,0,1.251c1.178,0,4.784,0.516,4.784-1.691c-2.136-2.65-6.11-2.43-8.318-3.681c0-0.222,0-0.37,0-0.518  c2.944,0.371,5.666,1.105,8.538-1.102c0.589,0.146,1.251,0.294,1.915,0.514c0,0.664-0.591,1.84-1.03,2.799  c0.883,0.292,1.104,0.588,2.281,1.987C179.907,115.295,177.479,115.516,174.681,116.251z M75.823,120.667  c-2.724-2.06-2.06-2.648-2.501-5.005c-2.944,0.367-3.535,0.957-5.745,2.725c-1.543,0-2.206-1.032-2.206-1.768  c2.649-1.252,4.563-1.914,8.096-2.355c0-0.516,0-1.03,0-1.472c-3.24-1.619-4.269,0.146-6.33,0.146  c-0.515-0.442-1.031-0.884-1.547-1.327c0-0.22,0-0.438,0.073-0.585c3.536-0.958,7.583-1.695,10.603,2.795  c-0.075,2.208-0.148,4.416-0.148,6.698C75.971,120.52,75.896,120.594,75.823,120.667z M162.683,121.919  c-1.986-1.252-6.697-3.974-7.215-5.079c2.282,0,5.3,1.988,7.729,3.238c0,0.589,0,1.18,0,1.841  C162.979,121.919,162.83,121.919,162.683,121.919z M174.681,122.433c-0.515-1.913-1.029-4.414,0.515-4.783  C175.49,118.607,176.595,121.476,174.681,122.433z M134.931,123.17c-1.986-0.956-3.163-5.374-3.383-6.403  c3.383,0.146,3.383,2.135,5.225,5.596c-0.074,0.146-0.146,0.366-0.222,0.587C135.961,123.022,135.446,123.097,134.931,123.17z   M130.516,123.17c-1.62-5.668-1.62-5.668-1.547-6.257c1.179,0,3.386,5.595,3.092,6.036  C131.548,123.022,131.03,123.097,130.516,123.17z M126.835,123.17c-0.369-1.251-0.884-5.151-0.811-6.257  c1.547,0,1.693,4.269,2.06,6.257C127.645,123.17,127.203,123.17,126.835,123.17z M123.448,123.17  c-0.146-2.06-0.146-2.06,0.075-6.034c0.294-0.075,0.589-0.146,0.883-0.146c0.368,4.342,0.368,4.342,0.219,6.181  C124.184,123.17,123.817,123.17,123.448,123.17z M119.032,123.17c0.296-2.944,0.296-2.944,1.104-6.257  c0.443-0.073,0.883-0.146,1.324-0.146c-0.293,2.135-0.514,4.269-0.734,6.403C120.136,123.17,119.549,123.17,119.032,123.17z   M114.616,123.17c0.736-2.135,1.547-4.195,2.354-6.257c0.443-0.073,0.885-0.146,1.326-0.146c-0.589,2.135-1.179,4.269-1.768,6.403  C115.867,123.17,115.205,123.17,114.616,123.17z M82.449,123.611c0-0.368,0.071-0.737,0.147-1.03  c2.355-1.399,7.213-5.521,10.01-5.154C85.539,121.991,85.539,121.991,82.449,123.611z M108.948,125.084  c1.547-2.722,3.092-5.375,4.639-8.023c0.365-0.147,0.808-0.221,1.25-0.294c0,1.62-2.797,6.037-3.829,7.654  C110.274,124.643,109.61,124.863,108.948,125.084z M172.987,125.379c-1.104-1.841-1.988-2.724-1.028-4.344  c0.956,0.956,1.397,2.431,1.543,4.344C173.281,125.379,173.134,125.379,172.987,125.379z M161.947,125.6  c-1.032-0.883-10.012-7.95-10.305-8.833c1.986,0,8.318,5.666,10.893,7.582c-0.073,0.368-0.073,0.806-0.073,1.251  C162.241,125.6,162.094,125.6,161.947,125.6z M174.681,125.82c0.737-2.354,0.887-3.092,3.24-3.829  C177.921,123.685,176.448,125.231,174.681,125.82z M82.963,126.114c0-2.28,10.306-7.656,13.25-9.125  C95.111,119.27,86.128,123.759,82.963,126.114z M121.241,126.852c-0.074-0.149-0.146-0.296-0.223-0.443  c0.148-0.367,0.369-0.662,0.59-0.954c1.398,0,2.871,0,4.343,0c0,0.735,0,0.735-0.292,1.248  C124.184,126.702,122.712,126.776,121.241,126.852z M113.587,127.293c0.515-0.811,1.102-1.62,1.689-2.357  c6.994-0.072,13.986-0.146,21.055-0.219c0.22,0.073,0.441,0.146,0.735,0.296c-0.439,0.66-0.883,1.396-1.326,2.132  C128.307,127.145,120.946,127.22,113.587,127.293z M83.702,128.767c-0.076-0.368-0.151-0.737-0.151-1.105  c5.153-3.535,10.38-7.067,15.608-10.601C99.159,118.164,86.497,126.924,83.702,128.767z M160.696,129.279  c-11.998-10.893-12.735-10.893-13.252-12.513c2.137,0,11.413,8.688,14.131,10.966c-0.073,0.517-0.145,1.034-0.145,1.547  C161.136,129.279,160.915,129.279,160.696,129.279z M172.765,129.796c-1.984-1.988-1.984-2.651-2.205-4.417  c1.471,0.148,2.282,1.914,2.501,4.048C172.915,129.5,172.842,129.647,172.765,129.796z M173.945,130.017  c0.883-2.724,1.397-3.093,3.976-3.902C177.184,127.953,176.228,129.5,173.945,130.017z M105.267,130.017  c1.251-2.576,3.756-2.797,6.406-3.827C111.155,128.542,107.18,129.279,105.267,130.017z M72.365,131.488  c-2.209-3.756-2.209-4.344-2.43-7.581C72.365,124.717,72.512,128.398,72.365,131.488z M84.877,132.003  c-0.146-0.589-0.296-1.102-0.366-1.62c5.738-4.414,11.481-8.833,17.224-13.247c0.221-0.075,0.517-0.146,0.811-0.146  C97.979,121.991,90.179,128.985,84.877,132.003z M137.656,132.959c0-2.87-0.073-4.856,0.955-7.139c0.15,0,0.296,0,0.515,0  C139.126,128.47,139.201,130.383,137.656,132.959z M171.516,133.696c-1.914-2.282-1.545-2.87-1.693-4.93  C170.41,128.767,172.842,132.076,171.516,133.696z M173.208,134.214c1.397-2.284,1.769-2.579,4.196-3.462  C176.448,132.74,175.343,133.696,173.208,134.214z M159.001,134.651c-2.796-2.869-5.518-5.738-8.243-8.61  c-3.163-1.915-7.361-6.994-8.906-9.274c3.9,0,8.833,7.654,13.322,11.187c0.662,1.547,3.534,2.503,4.638,5.376  C159.518,133.769,159.222,134.214,159.001,134.651z M108.213,135.389c-1.547-0.81-3.094-1.62-4.564-2.354c0-0.149,0-0.295,0-0.441  c3.09-1.18,6.255-2.356,9.42-3.462c16.419-0.296,16.419-0.296,22.159-0.073c0,1.843,0,3.754,0.073,5.666  C134.859,135.17,111.819,135.243,108.213,135.389z M87.086,136.126c-0.515-1.401-0.589-1.547-0.589-2.284  c6.036-5.739,11.998-11.409,18.182-16.706c0.221,0,0.44,0,0.735,0.07C90.249,132.813,89.147,134.285,87.086,136.126z   M169.822,138.112c-1.249-2.428-1.249-4.048-1.104-6.036c1.179,1.178,1.767,3.535,1.618,5.891  C170.118,137.967,169.971,138.039,169.822,138.112z M155.836,138.848c-2.428-9.935-15.529-15.236-17.225-22.081  c0.369,0,0.737,0.073,1.105,0.146C153.261,131.635,160.768,137.452,155.836,138.848z M170.999,139.07  c0.443-1.912,2.873-4.123,5.081-3.755C174.385,137.596,173.575,138.26,170.999,139.07z M89.81,140.542  c-1.251-1.841-1.251-1.841-1.399-2.43c0.515-0.883,0.515-0.883,19.212-21.272c0.222-0.073,0.516-0.073,0.812-0.073  c-5.3,7.728-12.071,15.459-17.592,22.966C90.472,139.953,90.104,140.248,89.81,140.542z M167.613,142.31  c-0.66-2.136-1.472-3.827-0.589-5.595c0.958,1.397,1.988,2.722,1.4,5.153C168.13,142.015,167.836,142.162,167.613,142.31z   M120.726,142.751c-0.146-2.136-0.292-3.608-0.073-5.299c0.515,0.219,1.03,0.515,1.545,0.808  C121.977,139.218,121.756,141.719,120.726,142.751z M169.307,143.047c-0.073-0.149-0.146-0.296-0.221-0.443  c1.399-1.988,3.019-2.65,5.372-3.533C173.651,141.576,171.295,142.087,169.307,143.047z M152.155,143.78  c-3.532-5.962-10.524-15.163-11.63-20.758c-2.282-0.515-4.489-5.227-4.564-6.256c0.37,0,0.737,0.073,1.105,0.146  c5.668,7.287,11.263,16.491,16.931,24.663C153.554,142.31,153.11,143.266,152.155,143.78z M93.71,144.959  c-1.03-1.033-1.691-2.135-1.839-2.797c6.185-8.539,12.513-17.008,18.916-25.249c0.295-0.073,0.591-0.073,0.886-0.073  c0,0.149,0,0.296,0.073,0.515c-0.517,0.368-0.738,1.179-1.472,1.842c-3.095,4.93-6.26,9.494-10.382,13.839  c0.074,0.661,0.368,0.807,0.368,2.28c-1.914,3.167-3.829,6.332-5.739,9.495C94.227,144.811,93.931,144.886,93.71,144.959z   M160.253,147.168c0.223-1.473,1.249-2.726,2.65-3.167C162.683,146.134,161.947,146.433,160.253,147.168z M146.269,148.64  c-1.989-4.491-6.552-11.852-6.552-15.604c0.956-1.621,0.956-1.621,1.323-2.946c2.575,3.607,8.245,12.59,8.245,16.709  C148.255,147.389,147.226,147.976,146.269,148.64z M158.044,148.932c0.149-1.839-0.145-3.311,1.474-3.68  C159.37,146.725,159.076,147.755,158.044,148.932z M99.378,149.154c-1.25-0.883-2.207-1.545-2.43-2.207  c2.062-3.829,4.121-7.656,6.186-11.481c0.588,0.291,1.691,0.291,1.985,1.692C99.674,149.009,99.674,149.009,99.378,149.154z   M159.738,149.377c0.368-1.179,1.472-1.622,2.944-1.694c-0.075,0.147-0.147,0.37-0.147,0.589  C161.575,148.64,160.621,149.009,159.738,149.377z M155.321,151.14c0-2.208-0.072-2.5,1.252-4.119  C157.088,148.053,156.869,150.406,155.321,151.14z M166.364,151.582c0.954-1.986,0.589-2.354,2.942-2.942  C168.351,150.186,168.277,151.066,166.364,151.582z M157.313,152.099c-0.15-0.221-0.298-0.368-0.443-0.517  c1.03-1.028,1.398-0.955,3.092-1.176C159.738,151.289,158.044,151.878,157.313,152.099z M121.46,152.613  c-1.839-2.06-1.47-4.415-1.47-6.407c1.397,0,1.839,5.01,1.986,6.407C121.756,152.613,121.608,152.613,121.46,152.613z   M139.126,152.836c-3.825-12.737-3.825-12.737-4.413-15.459c2.943-0.147,2.943-0.147,3.53-0.368  c1.768,4.491,3.608,8.979,5.447,13.47C143.324,151.289,139.717,152.54,139.126,152.836z M163.934,153.571  c0.294-1.473,0.294-1.473,0.809-2.574c0.223-0.075,0.445-0.149,0.664-0.149C165.114,152.099,165.039,152.687,163.934,153.571z   M152.378,153.792c0.072-1.693,0.146-3.018,1.176-4.05C153.554,150.922,153.85,152.319,152.378,153.792z M107.255,153.792  c-1.25-0.662-2.43-1.323-3.606-1.914c0.587-5.227,3.238-9.716,5.227-14.426c1.179-0.075,2.354-0.075,3.535-0.075  c-1.476,5.447-2.946,10.895-4.416,16.415C107.698,153.792,107.476,153.792,107.255,153.792z M165.114,154.306  c0.292-1.396,1.102-1.324,2.499-1.692C167.17,153.792,166.142,154.16,165.114,154.306z M153.85,154.526  c0.441-1.396,2.062-1.251,3.68-1.472C156.719,154.306,154.732,154.381,153.85,154.526z M130.812,155.266  c-1.916-14.209-1.916-14.209-2.211-18.107c0.887,0,1.77,0,2.65,0c1.104,5.666,2.28,11.405,3.462,17.147  C134.193,154.675,134.193,154.675,130.812,155.266z M149.434,155.78c0.072-1.399,0.662-2.357,1.396-3.312  C151.053,153.939,150.685,154.896,149.434,155.78z M125.879,155.78c-0.075-1.105-0.148-2.135-0.22-3.167  c0.365-0.073,0.807-0.073,1.25-0.073c0.294,0.666,0.146,1.545-0.074,2.726c-0.148,0-0.296,0-0.442,0c0,0.146,0,0.292,0,0.515  C126.174,155.78,126.024,155.78,125.879,155.78z M114.837,155.78c-0.735-0.223-1.473-0.369-2.21-0.515  c1.843-10.526,1.843-10.526,3.388-17.813c2.501-0.223,2.501-0.223,3.018-0.075c-0.735,6.111-1.473,12.219-2.209,18.403  C116.163,155.78,115.499,155.78,114.837,155.78z M160.989,156.001c0-1.841,0.367-1.99,1.693-2.65  c-0.294,0.81-0.589,1.619-0.883,2.502C161.502,155.853,161.21,155.926,160.989,156.001z M162.462,157.029  c-0.073-0.146-0.147-0.293-0.221-0.441c0.441-0.514,0.441-0.514,2.946-1.545c-0.073,0.223-0.148,0.515-0.148,0.81  C164.154,156.222,163.27,156.588,162.462,157.029z M152.155,157.029c-0.44-0.221-0.88-0.37-1.248-0.513c0-0.222,0-0.37,0-0.516  c1.177-0.075,2.354-0.075,3.533-0.075C154.144,156.588,152.599,156.884,152.155,157.029z M145.973,157.473  c0.662-1.986,0.662-2.577,1.988-3.901C147.961,154.896,147.961,157.029,145.973,157.473z M147.742,158.725  c-0.077-0.223-0.147-0.441-0.147-0.591c0.808-0.296,0.808-0.296,3.458-0.22C150.022,158.429,148.698,158.651,147.742,158.725z   M158.044,158.943c0-1.397,0.149-2.207,1.253-2.648c0.073,1.178,0.073,1.178-0.296,2.43  C158.635,158.797,158.339,158.87,158.044,158.943z M159.222,159.458c0.371-1.471,1.693-1.396,3.24-1.691  C161.652,159.093,160.621,159.166,159.222,159.458z M123.448,159.458c-0.072-2.941-0.072-6.252-0.441-8.61  c-2.061-6.33-0.736-7.288,0.662-12.956c0.148,0,0.296,0,0.515,0c0,1.62-0.956,5.374,0.441,6.771  c0.371-0.737,0.664-3.313,0.885-3.163c0.441,6.109,0.441,6.109,0.664,6.183c0.073-1.914,0.146-3.829,0.219-5.668  c0.146,0,0.294,0.072,0.517,0.147c0.589,1.764,0.221,6.109,0.221,8.686c-2.062,0-2.062-3.386-3.018-3.605  C124.112,148.932,124.921,158.725,123.448,159.458z M127.863,160.711c-0.66-0.883-0.66-0.883-1.25-2.944  c0.222-0.075,0.442-0.147,0.735-0.221C127.938,158.134,127.938,159.312,127.863,160.711z M155.101,161.152  c0.294-1.549,0.442-2.209,1.691-3.165C156.792,159.312,156.573,160.419,155.101,161.152z M156.792,161.667  c1.401-0.956,1.179-1.029,3.535-1.029C159.001,161.667,158.12,161.594,156.792,161.667z M120.504,162.625  c-1.176-0.369-1.545-2.503-2.281-3.091c-14.574-2.43-24.807-7.952-32.979-19.802c-0.662-1.179-1.322-2.355-1.911-3.461  c-6.255-15.531-6.551-26.867,1.47-41.44c1.548-1.986,3.095-3.973,4.713-5.963c17.078-17.076,42.546-18.255,62.128-3.459  c1.03,0.957,2.06,1.915,3.09,2.87c8.612,10.158,12,17.666,12,31.946c-1.768,12.368-6.405,21.052-15.68,29.664  c-4.933,3.24-16.046,10.084-22.084,9.129c0-0.367,0-0.663,0-0.956c1.324-0.517,3.24-0.739,9.424-2.724  c4.269-1.988,8.242-4.491,12.219-7.067c7.876-7.879,12.513-14.795,14.354-26.132c0-3.388,0-6.697,0-10.01  c-2.43-9.718-5.079-15.679-11.04-22.6c-12.662-11.999-26.499-14.355-42.475-11.703c-21.788,6.184-34.005,24.218-30.621,46.963  c2.134,7.436,4.123,12.733,9.937,19.505c7.581,6.404,13.984,10.675,24.808,13.324c2.871,0.219,2.871,0.219,3.606,0.072  c0.441-1.032,0.883-2.06,1.324-3.017c0.148,0,0.294,0,0.442,0C121.241,156.222,122.861,161.446,120.504,162.625z M124.184,163.139  c0-2.134,0.149-2.428,0.813-4.046c0.514,0,0.514,0,0.955,0.292C125.879,160.345,125.659,162.697,124.184,163.139z M152.155,163.657  c0.223-1.695,0.738-1.916,1.398-2.875c0.148,0,0.296,0,0.443,0.076C153.702,161.814,153.408,162.918,152.155,163.657z   M153.629,164.611c-0.221-0.146-0.368-0.294-0.519-0.367c1.254-0.81,1.622-0.957,3.463-1.326  C156.132,164.244,154.732,164.391,153.629,164.611z M129.339,164.611c-0.147-0.294-0.297-0.515-0.443-0.733  c4.564-1.326,9.127-2.652,13.766-3.975c0.59-1.916,0.809-2.505,2.135-3.829c-0.221,0.884-0.37,1.764-0.517,2.723  c0.884,0.296,2.282-0.146,3.315,0.884c-1.401,1.619-3.979,0.957-5.375,1.102C136.404,162.774,136.404,162.774,129.339,164.611z   M154.07,166.602c0-0.073,0-0.147,0-0.296c0.073,0,0.147,0,0.294,0c0,0.073,0,0.148,0,0.296  C154.291,166.602,154.218,166.602,154.07,166.602z M122.418,167.041c-0.662-1.177-1.322-0.513-1.839-1.616  c0.146-0.37,0.292-0.664,0.517-0.96c0.513,0.146,1.102,0.296,1.69,0.517c0,0.515,0,1.102,0,1.693  C122.637,166.747,122.493,166.894,122.418,167.041z M155.543,167.335c0-0.073,0-0.146,0-0.294c0.072,0,0.147,0,0.293,0  c0,0.075,0,0.147,0,0.294C155.764,167.335,155.69,167.335,155.543,167.335z M129.042,168.071c0-0.219,0-0.368,0-0.514  c8.687-1.62,15.017-3.606,22.967-8.392c4.344-3.463,8.833-7.656,12.513-11.557c0-3.018-0.071-4.271,0.958-6.332  c0.147-0.073,0.297-0.073,0.516-0.073c0.441,1.475,0.441,1.475,0.811,4.417c1.768-0.811,1.768-0.811,5.225-1.768  c0,0.147,0,0.295,0.074,0.441c-2.134,2.138-4.048,2.575-6.771,3.239c-5.889,7.509-14.28,13.912-22.967,17.668  C137.656,166.454,133.311,167.409,129.042,168.071z M124.625,168.294c-0.146-0.591-0.292-1.178-0.441-1.692  c0.441,0,0.885,0,1.399,0.073c0-1.473,0.221-2.21,0.664-2.944c0.146,0.072,0.292,0.147,0.439,0.221  c0.075,0.954,0.148,1.913,0.223,2.942C125.879,167.188,125.583,167.924,124.625,168.294z M122.418,170.502  c0.075-0.223,0.146-0.441,0.219-0.588c0.812-0.076,1.624-0.149,2.505-0.149c0,0.149,0,0.296,0,0.515  C124.184,170.355,123.303,170.427,122.418,170.502z M120.504,171.016c-1.324-0.883-0.955-1.842-1.032-2.502  c0.664,0.072,1.326,0.222,2.063,0.368c-0.075,0.587-0.147,1.251-0.219,1.915C121.019,170.87,120.726,170.939,120.504,171.016z   M102.545,171.016c-3.018-0.589-6.332-1.251-7.803-3.458c2.282-0.517,5.666-1.62,8.392-0.517c-1.474,0.221-2.873,0.443-4.271,0.737  c1.252,2.577,9.274,0.221,11.777-0.369c-3.461-0.808-6.257-1.913-8.833-2.944c-3.68-0.221-3.68-0.221-7.215,0.073  c-0.221,0.223-0.441,0.517-0.587,0.811c-2.726,0.076-2.872-0.221-2.797-2.135c1.324-1.326,4.563,0.073,7.211-0.075  c0-0.221,0-0.364,0-0.514c-2.207-0.884-2.207-0.884-4.929-2.357c-1.988,0.077-3.977,0.151-5.891,0.296  c-3.898-1.252-7.654-3.165-9.791-5.816c1.326-0.662,8.833-0.441,9.57,2.503c-1.914-0.366-3.754-0.881-5.153-0.955  c0,0.222,0.074,0.441,0.149,0.734c3.238,1.549,5.593,1.914,9.86,2.21c0-0.221,0-0.369,0-0.515c-3.751-2.282-5.813-5.229-9.568-5.519  c-2.87-1.034-3.532-0.737-5.591-0.737c-1.916-1.621-1.328-2.063-1.328-3.389c2.138-1.027,2.727-0.294,3.904,2.577  c1.104,0.294,1.104,0.294,4.05,0.441c-4.123-6.257-6.332-5.597-12.222-8.61c-3.459-3.096-4.048-4.641-4.712-8.1  c2.724,0.296,7.436,3.606,8.32,7.14c-0.664-0.291-5.079-3.975-6.18-4.637c0,0.81,0.071,2.65,1.764,3.165c0,0.147,0,0.294,0,0.52  c2.207,1.248,4.048,2.425,7.138,3.31c-1.028-6.256-7.432-10.161-11.409-12.883c-0.146-0.294-0.219-0.589-0.293-0.881  c0.881-1.771,1.914-2.063,3.458-0.148c0,2.723,0.958,2.723,3.608,4.86c0-0.149,0-0.298,0.073-0.445  c-3.019-5.151-6.549-8.906-3.9-14.278c0.219,0,0.44,0,0.662,0c1.695,1.693,2.941,3.606,3.973,6.477  c0.442,7.064,0.442,7.064,0.737,7.36c0.368-1.179,0.737-2.354,1.177-3.459c0-2.138-2.206-5.227,1.913-3.901  c0,1.104,0.15,1.986-0.808,2.577c-2.135,7.139-1.545,7.213,2.722,14.646c0.074-2.501,1.328-9.274-1.177-9.863  c-0.737,2.135,0.146,3.386,0,5.891c-2.872-1.401-1.029-7.509-0.515-9.35c1.475,1.105,2.208,3.386,3.312,5.67  c0,4.046-2.06,10.376,3.094,12.956c-0.225-1.843-1.475-2.726-2.062-3.167c-0.075-2.284-0.149-2.355,2.135-2.284  c0.662,1.032,0.221,2.284,0.221,3.977c1.692,5.227,3.973,6.035,8.979,9.938c0.075-0.076,0.221-0.149,0.368-0.149  c-1.692-3.902-3.09-6.847-5.301-9.42c0,1.618,0.223,2.501,1.179,4.857c-3.018,0.59-3.606-7.509-3.606-8.614  c4.712,1.841,6.623,7.435,8.318,12.586c0.589,0.813,4.635,5.08,6.551,4.493c-0.811-0.958-1.62-1.912-2.355-2.797  c-2.501-1.251-3.163-1.915-2.209-3.902c0.739-0.074,1.547-0.146,2.355-0.146c0.293,0.439,1.105,1.691,0.441,3.092  c2.944,4.411,7.436,6.771,13.398,7.505c-1.694-2.28-3.533-4.637-4.855-6.034c-0.739-0.221-0.739-0.221-1.843-0.146  c-0.073,0.219-0.073,0.516-0.073,0.808c2.944,2.873,2.944,2.873,3.386,3.68c-1.988,0-4.714-2.944-4.933-3.68  c-0.223,0-0.368,0-0.517,0c-0.662-1.253-1.764-2.428-1.547-3.461c6.407,1.916,7.143,2.578,11.779,8.614  c0.515,0.367,3.682,0.883,3.535,2.207c-1.99,0.073-3.977,0.146-5.89,0.296C108.581,170.061,105.561,170.649,102.545,171.016z   M129.339,171.238c-0.076-0.149-0.147-0.223-0.223-0.299c5.964-1.102,11.924-2.204,18.109-4.781c1.766-1.324,1.473-3.24,3.682-3.975  c-0.666,2.207-0.666,2.207-0.666,3.09c0.958,0.075,1.914,0.151,2.944,0.223c0,0.146,0,0.295,0,0.441  c-2.205,1.104-3.68,0.591-5.591,0.517C141.631,169.323,135.228,170.133,129.339,171.238z M112.113,171.753  c1.915-1.251,3.017-0.956,5.669-1.028c-0.074,0.146-0.147,0.364-0.147,0.587C115.792,171.458,113.952,171.604,112.113,171.753z   M125.879,172.709c-0.148-0.589-0.296-1.105-0.369-1.62c0.294-0.149,0.664-0.292,1.029-0.439c0.223-0.885,0.441-1.694,0.664-2.505  c0.146,0,0.295,0,0.441,0C128.307,169.546,128.382,172.266,125.879,172.709z M127.863,174.181c-0.071-0.366-0.146-0.734-0.146-1.104  c0.221,0,0.441,0,0.664,0c0,0.296,0,0.59,0,0.956C128.159,174.033,128.013,174.106,127.863,174.181z M123.153,174.402  c-1.104-1.693-1.471-3.236,1.03-3.018c0,0.589,0,1.251,0.077,1.913C123.892,173.667,123.523,174.033,123.153,174.402z   M119.99,177.347c0-2.503-0.441-3.385,0.662-5.003c0.515,0.511,0.664,2.572,0.808,4.047  C120.579,176.832,120.579,177.347,119.99,177.347z M129.339,178.379c-0.443-0.887,0-0.887,0.148-1.181  c20.681-2.43,37.318-13.026,47.991-31.211c1.618-3.75,3.24-7.434,4.932-11.113c2.796-10.599,2.944-20.02,1.472-30.398  c-0.662-2.284-1.324-4.493-1.986-6.703c-5.153-11.481-9.791-18.546-18.626-26.645c-8.021-6.108-14.571-8.833-23.038-11.702  c-2.942-7.509-3.386-8.171-2.724-8.835c1.254,1.251,2.799,5.374,3.829,7.879c1.987,0.661,3.972,1.323,6.037,1.986  c16.854,7.95,27.969,17.96,35.478,36.509c3.167,10.676,4.195,21.054,1.986,32.831c-0.66,2.353-1.322,4.71-1.913,7.066  c-5.154,13.175-12.365,22.081-23.555,30.768c-7.435,4.344-13.102,6.994-20.978,9.129  C135.374,177.275,132.354,177.789,129.339,178.379z M114.837,178.598c-8.392-1.693-15.459-3.682-22.601-6.994  c-5.15-3.236-5.15-3.236-6.108-3.532c0-0.219,0-0.368,0-0.514c-3.017-1.104-5.005-4.198-6.844-5.155c0-0.219,0-0.367,0-0.515  c-1.839-0.662-5.891-5.887-6.185-6.256c-1.693-2.356-3.386-4.635-5.006-6.919c-8.685-16.487-11.186-30.694-6.917-48.215  c1.323-3.386,2.649-6.771,3.972-10.083c8.32-15.825,23.556-29.814,41.59-32.757c-0.072,0.294-0.146,0.663-0.146,1.03  c-2.284,0.664-4.489,1.327-6.7,1.989c-17.002,6.475-28.633,19.211-35.994,35.702c-2.576,8.315-4.048,15.971-3.459,25.172  c0.662,3.534,1.324,7.067,1.988,10.599c5.889,17.447,14.942,29.666,31.724,38.94c6.109,2.578,16.344,6.92,23.852,6.258  c0,0.368,0,0.81,0,1.251C116.897,178.598,115.867,178.598,114.837,178.598z M122.418,179.849c-0.81-1.692-0.296-2.796,0-3.975  c1.251,0.296,0.81,2.357,0.735,3.975C122.861,179.849,122.637,179.849,122.418,179.849z M125.364,181.027  c-0.885-1.988-1.031-2.503-0.885-3.902C125.142,178.452,125.583,178.892,125.364,181.027z M128.307,182.793  c-0.147-2.207-0.147-2.207,0.147-3.681C128.601,179.407,129.042,181.691,128.307,182.793z M126.613,183.972  c0-2.944-0.883-6.919,0.442-8.687c1.178,1.178,0.074,6.257,0.074,8.464C126.909,183.826,126.762,183.897,126.613,183.972z   M120.946,183.972c-0.294-2.28-0.735-2.871,0-4.418c0.955,0.664,1.03,0.81,1.84,2.8  C122.345,183.089,121.901,183.749,120.946,183.972z M119.472,188.168c-1.984-1.471-1.469-5.67-1.543-7.288  c-19.211-1.914-33.052-9.201-45.417-22.597c-4.71-6.185-8.171-12.219-11.19-18.33c-3.165-9.864-4.489-18.771-4.267-28.636  c1.102-7.801,2.94-14.132,5.813-21.052c4.415-8.905,10.081-14.72,16.929-21.639c5.964-5.006,12.369-8.392,19.876-11.484  c-0.075-0.148-0.075-0.294-0.075-0.369C91.28,52.14,85.243,45.071,85.243,35.942c2.212-8.094,12.075-5.521,18.109-3.459  c0.883,0.515,1.767,1.03,2.726,1.545c2.576-8.684,8.169-25.172,20.096-22.671c9.2,5.814,11.409,11.558,13.837,22.671  c0.148,0,0.296,0.075,0.441,0.148c5.668-3.679,20.39-5.593,20.39,5.08c-1.766,8.685-7.213,13.47-14.501,18.329  c5.668,2.353,11.483,5.298,17.153,9.274c0.218,0.515,1.179,1.032,2.208,1.693c6.771,6.11,11.702,12.439,16.708,21.198  c5.004,10.086,6.109,20.021,6.109,31.651c-0.809,6.627-2.576,13.472-4.933,20.245c-6.992,14.056-15.162,23.555-29.146,31.65  c-8.468,3.9-16.048,5.741-24.808,7.288c-0.223,1.693,0.66,5.521-0.958,7.141C125.583,187.872,122.493,188.021,119.472,188.168z"/>
<path fill="#553B72" d="M34.8,209.064c0,3.323-0.965,5.755-2.895,7.291c-1.478,1.186-3.504,1.782-6.08,1.782  c-1.678,0-2.812-0.122-3.39-0.359c-0.726-0.284-1.089-0.666-1.089-1.131v-3.34l0.124-0.064c0.439,0.746,1.271,1.117,2.496,1.117  c0.343,0,0.472-0.201,0.39-0.604l-1.974-8.809c-0.31-1.374-0.691-2.171-1.151-2.39v-0.307h4.158c0.879,0,1.434,0.534,1.669,1.606  l1.095,5.11c0.129,0.693,0.195,1.328,0.195,1.908c0,1.648-0.631,2.674-1.892,3.066l0.086,0.385c2.313,0,3.47-1.343,3.47-4.028  v-5.446c0-1.248-0.345-2.015-1.036-2.295v-0.307h3.937c0.641,0,1.109,0.133,1.401,0.403c0.325,0.337,0.487,0.946,0.487,1.812  V209.064z"/>
<path fill="#553B72" d="M41.511,215.378c0,1.496-0.613,2.247-1.837,2.247H36.75v-13.102c0-0.988-0.321-1.642-0.956-1.966v-0.307  h3.556c1.439,0,2.162,0.735,2.162,2.215V215.378z"/>
<path fill="#553B72" d="M55.045,214.962c0,0.866-0.081,1.49-0.249,1.875c-0.253,0.524-0.755,0.788-1.501,0.788H42.919v-1.997  c0-0.805,0.124-1.368,0.372-1.696c0.25-0.323,0.699-0.487,1.354-0.487h2.926c0.706,0,1.184-0.279,1.428-0.834  c0.195-0.376,0.29-0.994,0.29-1.86v-2.135c0-1.03-0.18-1.707-0.543-2.03c-0.421-0.379-1.295-0.571-2.62-0.571  c-1.549,0-2.514,0.435-2.897,1.301h-0.195v-3.482c0-0.57,0.321-1.025,0.971-1.364c0.651-0.343,1.979-0.513,3.986-0.513  c2.332,0,3.953,0.409,4.865,1.226c0.909,0.814,1.363,2.299,1.363,4.455v1.244c0,2.299-0.826,3.692-2.49,4.18v0.385h1.625  c0.708,0,1.219-0.243,1.523-0.729h0.168V214.962z"/>
<path fill="#553B72" d="M67.091,210.46c0,2.43-0.651,4.296-1.952,5.586c-1.146,1.156-2.585,1.732-4.323,1.732h-0.082  c-0.841,0-1.514-0.131-2.016-0.401c-0.339-0.196-0.507-0.454-0.507-0.771v-3.329h0.113c0.403,0.317,0.867,0.479,1.401,0.479  c1.716,0,2.576-1.051,2.576-3.143v-4.276h-5.754c-0.401,0-0.602-0.254-0.602-0.755v-5.592c0-0.328-0.12-0.941-0.354-1.829v-0.168  h3.794c0.823,0,1.233,0.576,1.233,1.718v2.478h4.694c0.617,0,1.047,0.106,1.299,0.313c0.321,0.275,0.48,0.83,0.48,1.654V210.46z"/>
<path fill="#553B72" d="M77.81,215.659c0,1.31-0.554,1.966-1.664,1.966h-2.523c-0.177-1.289-0.263-2.568-0.263-3.842  c0-0.164-0.118-0.244-0.348-0.244c-0.226,0-0.339,0.08-0.339,0.244c0,1.146-0.124,2.003-0.369,2.572  c-0.248,0.567-0.525,0.952-0.837,1.153c-0.305,0.2-0.753,0.303-1.342,0.303c-0.98,0-1.472-0.456-1.472-1.364v-4.63h0.171  c0.365,0.582,0.872,0.866,1.525,0.866c1.773,0,2.664-1.025,2.664-3.081v-1.934c0-1.009-0.669-1.518-2.003-1.518  c-0.861,0-1.52,0.308-1.974,0.915h-0.171v-3.393c0-0.481,0.21-0.857,0.631-1.116c0.625-0.401,1.724-0.603,3.291-0.603  c3.351,0,5.023,1.532,5.023,4.599V215.659z"/>
<path fill="#553B72" d="M84.898,208.911c-0.374,0.443-0.565,0.998-0.565,1.669v4.831c0,1.474-0.631,2.214-1.902,2.214h-2.924v-6.023  c0-1.992,0.793-2.986,2.38-2.986h3.012V208.911z M92.01,215.378c0,1.496-0.62,2.247-1.864,2.247h-2.953v-9.321  c0-0.927-0.234-1.544-0.697-1.839c-0.469-0.303-1.478-0.451-3.026-0.451c-1.166,0-2.045,0.148-2.633,0.451  c-0.439,0.237-0.813,0.627-1.118,1.171h-0.211v-3.619c0-0.671,0.324-1.146,0.979-1.427c0.999-0.423,2.424-0.635,4.269-0.635  c2.7,0,4.582,0.393,5.649,1.179c1.071,0.782,1.605,2.215,1.605,4.287V215.378z"/>
<path fill="#553B72" d="M114.665,215.378c0,0.847-0.139,1.434-0.41,1.762c-0.277,0.321-0.752,0.485-1.425,0.485h-2.983v-10.343  c0-0.931-0.41-1.394-1.232-1.394h-1.118c-0.363,0-0.546,0.332-0.546,0.992v6.237c0,3.084-1.333,4.628-3.989,4.628h-0.086  c-1.793,0-2.688-0.544-2.688-1.639v-2.831c0.206,0.338,0.498,0.491,0.88,0.449c0.713-0.063,1.065-0.466,1.065-1.212v-2.335  c0-1.125,0.135-1.928,0.406-2.415c0.345-0.628,1.051-1.084,2.112-1.363v-0.355c-1.772,0.069-3.015,0.435-3.723,1.084h-0.195v-3.112  c0-0.693,0.248-1.135,0.74-1.332c1.263-0.465,3.231-0.696,5.913-0.696c2.861,0,4.794,0.379,5.788,1.146  c0.994,0.763,1.49,2.226,1.49,4.382V215.378z"/>
<path fill="#553B72" d="M121.218,210.084c0,1.496-0.658,2.246-1.988,2.246h-2.771v-7.807c0-1.009-0.297-1.663-0.894-1.966v-0.307  h3.779c0.649,0,1.115,0.133,1.387,0.403c0.325,0.337,0.487,0.946,0.487,1.812V210.084z"/>
<path fill="#553B72" d="M133.414,215.564c0,1.375-0.61,2.061-1.835,2.061h-2.982v-8.979c0-0.973-0.172-1.638-0.517-1.997  c-0.401-0.403-1.184-0.604-2.352-0.604c-1.623,0-2.628,0.435-3.01,1.301h-0.196v-3.488c0-0.686,0.364-1.161,1.091-1.421  c0.858-0.301,2.092-0.448,3.697-0.448c2.247,0,3.829,0.406,4.737,1.22c0.912,0.819,1.366,2.231,1.366,4.245V215.564z"/>
<path fill="#553B72" d="M140.139,215.378c0,1.496-0.611,2.247-1.835,2.247h-2.925v-13.102c0-0.988-0.32-1.642-0.956-1.966v-0.307  h3.556c1.439,0,2.16,0.735,2.16,2.215V215.378z"/>
<path fill="#553B72" d="M149.922,206.946h-0.252c-0.248-0.366-0.64-0.546-1.177-0.546h-0.067c-0.496,0-0.744,0.371-0.744,1.115  v7.862c0,1.496-0.616,2.247-1.86,2.247h-2.98v-7.508c0-1.227,0.242-2.116,0.74-2.664c0.343-0.339,0.894-0.587,1.638-0.74V206.4  h-2.001c-0.746,0-1.276,0.232-1.583,0.697h-0.166v-3.329c0-0.588,0.105-0.989,0.315-1.2c0.206-0.212,0.587-0.317,1.137-0.317h4.876  c0.822,0,1.357,0.08,1.61,0.25c0.344,0.257,0.515,0.818,0.515,1.686V206.946z"/>
<path fill="#553B72" d="M163.812,217.625h-3.26c-0.765-1.453-2.322-4.075-4.679-7.864c-0.128,0.239-0.195,0.482-0.195,0.725v2.928  c0,0.424,0.2,0.633,0.602,0.633c0.168,0,0.407-0.095,0.717-0.29h0.109v1.903c0,0.682-0.114,1.167-0.348,1.453  c-0.283,0.401-1.139,0.608-2.576,0.608h-0.059c-1.068,0-1.829-0.285-2.264-0.856c-0.441-0.565-0.66-1.507-0.66-2.818v-2.196  c0-0.946,0.268-1.76,0.799-2.432c0.363-0.443,1.146-1.089,2.35-1.936c-0.744-1.062-1.452-1.594-2.112-1.594  c-0.347,0-0.624,0.109-0.839,0.326h-0.168v-2.413c0-1.147,0.773-1.719,2.322-1.719c1.074,0,1.896,0.179,2.472,0.54  c0.572,0.357,1.184,1.045,1.824,2.06c0.441,0.682,1.144,1.822,2.104,3.435c0.091-0.237,0.139-0.532,0.139-0.897v-1.839  c0-1.501-0.345-2.437-1.036-2.823v-0.307h3.756c1.266,0,1.902,0.921,1.902,2.754v1.117c0,0.992-0.271,1.831-0.813,2.524  c-0.401,0.513-1.175,1.204-2.322,2.072l3.106,4.94c0.148,0.259,0.225,0.54,0.225,0.85  C164.906,217.255,164.543,217.625,163.812,217.625"/>
<path fill="#553B72" d="M178.528,208.911c-0.373,0.443-0.564,0.998-0.564,1.669v4.831c0,1.474-0.631,2.214-1.902,2.214h-2.924  v-6.023c0-1.992,0.793-2.986,2.38-2.986h3.011V208.911z M185.641,215.378c0,1.496-0.622,2.247-1.864,2.247h-2.953v-9.321  c0-0.927-0.235-1.544-0.699-1.839c-0.467-0.303-1.476-0.451-3.024-0.451c-1.166,0-2.047,0.148-2.634,0.451  c-0.44,0.237-0.813,0.627-1.119,1.171h-0.209v-3.619c0-0.671,0.324-1.146,0.979-1.427c0.998-0.423,2.422-0.635,4.269-0.635  c2.7,0,4.582,0.393,5.647,1.179c1.071,0.782,1.607,2.215,1.607,4.287V215.378z"/>
<path fill="#553B72" d="M199.883,206.122c0,2.508-1.281,4.227-3.837,5.157c0.897,0.955,1.782,1.722,2.662,2.287  c0.616,0.407,0.923,1.063,0.923,1.967v2.092h-12.477v-2.479c0-0.487,0.15-0.887,0.445-1.215c0.301-0.323,0.699-0.487,1.191-0.487  h5.252v-0.296c-0.56-0.042-1.171-0.215-1.826-0.532c-0.66-0.313-1.114-0.62-1.366-0.92c-1.587-1.919-2.782-4.454-3.585-7.604  c-0.224-0.845-0.526-1.354-0.908-1.534v-0.307h4.269c0.951,0,1.529,0.514,1.725,1.551c0.306,1.604,1.052,3.393,2.236,5.352  c0.401-0.359,0.602-1.114,0.602-2.272v-1.843c0-1.27-0.372-2.094-1.118-2.48v-0.307h3.892c0.692,0,1.186,0.183,1.48,0.534  c0.292,0.355,0.44,0.989,0.44,1.897V206.122z"/>
<path fill="#553B72" d="M214.359,209.064c0,3.323-0.965,5.755-2.895,7.291c-1.478,1.186-3.505,1.782-6.08,1.782  c-1.679,0-2.812-0.122-3.39-0.359c-0.727-0.284-1.089-0.666-1.089-1.131v-3.34l0.124-0.064c0.439,0.746,1.271,1.117,2.495,1.117  c0.343,0,0.473-0.201,0.393-0.604l-1.976-8.809c-0.311-1.374-0.691-2.171-1.151-2.39v-0.307h4.157c0.881,0,1.434,0.534,1.669,1.606  l1.095,5.11c0.13,0.693,0.195,1.328,0.195,1.908c0,1.648-0.631,2.674-1.892,3.066l0.086,0.385c2.313,0,3.47-1.343,3.47-4.028v-5.446  c0-1.248-0.345-2.015-1.036-2.295v-0.307h3.937c0.642,0,1.109,0.133,1.4,0.403c0.325,0.337,0.487,0.946,0.487,1.812V209.064z"/>
<path fill="#553B72" d="M221.071,215.378c0,1.496-0.613,2.247-1.837,2.247h-2.925v-13.102c0-0.988-0.321-1.642-0.956-1.966v-0.307  h3.556c1.439,0,2.162,0.735,2.162,2.215V215.378z"/>
<path fill="#553B72" d="M236.723,210.084c0,1.939-0.153,3.394-0.448,4.349c-0.303,0.964-0.799,1.75-1.492,2.362  c-0.697,0.613-1.815,0.926-3.369,0.926h-0.081c-0.822,0-1.454-0.138-1.894-0.407c-0.324-0.239-0.486-0.586-0.486-1.053v-2.783h0.139  c0.324,0.379,0.746,0.568,1.262,0.568c0.933,0,1.401-0.664,1.401-1.995v-4.255c0-0.746-0.126-1.253-0.374-1.528  c-0.248-0.273-0.673-0.412-1.28-0.412h-0.349c-0.59,0-0.991,0.181-1.2,0.529c-0.21,0.35-0.349,0.999-0.411,1.95l-0.45,7.198  c-0.101,1.396-0.744,2.092-1.931,2.092h-3.126l0.492-7.293c0.091-1.374,0.301-2.32,0.631-2.85c0.511-0.803,1.363-1.204,2.549-1.204  v-0.423c-1.85,0-3.026,0.387-3.528,1.147h-0.196v-3.234c0-0.628,0.24-1.04,0.713-1.237c0.861-0.343,2.772-0.513,5.741-0.513  c1.604,0,2.729,0.05,3.358,0.138c1.356,0.208,2.342,0.66,2.964,1.358c0.62,0.691,1.027,1.708,1.225,3.039  c0.095,0.703,0.142,1.845,0.142,3.425V210.084z"/>
</svg>