<?xml version="1.0" encoding="UTF-8"?>
<svg id="Layer_1" xmlns="http://www.w3.org/2000/svg" version="1.1" viewBox="0 0 260.2 225.5">
  <!-- Generator: Adobe Illustrator 30.3.0, SVG Export Plug-In . SVG Version: 2.1.3 Build 182)  -->
  <defs>
    <style>
      .st0 {
        fill-rule: evenodd;
      }

      .st0, .st1 {
        fill: #553b72;
      }
    </style>
  </defs>
  <path class="st0" d="M129.8,25.7c-2.6-.9-5.4-1.6-7.8-1.6-3.4.8-7.3,2.5-7.9-1.3.6-.2,1.2-.4,1.8-.7.1-1.3.4-1.8.9-2.6h1.1c.7,1,.9,2.3,1.1,4,.2,0,.5,0,.8,0,.2-.3.5-.6.8-.9-.4-2.3-2.1-3.8-1.8-5.4,1.3-.3,1.6,0,2.4,1.8,2.3-.1,1.1-2,.9-3.4.7-1,1-.7,2.4-.7.9,1.3-.7,2.4.4,4h1c.7-1.5.4-1.8,2.1-1.8,0,.5.1,1,.2,1.5-3.1,4.7-1.1,7.1.8,1.2h1.3c.3.7.6,1.5.9,2.3,2.5,1.5.9,2.8-1.4,3.4M123.4,26.4c-.3,0-.5-.1-.7-.2,0-.3-.1-.6-.1-.9h1.5c0,.3.1.6.2,1-.3,0-.6,0-.8.1ZM119,27v-.7c.4,0,1-.2,1.5-.2-.3.7-1,.8-1.5,1ZM127.3,27.2c-.3-.1-.6-.3-.8-.4,0-.3-.1-.5-.1-.7.4,0,.9.2,1.3.4,0,.2.1.4.2.7-.2,0-.4,0-.6.1ZM125.7,28.7c-.5-.1-1-.3-1.5-.4v-.6c.7,0,1.3-.1,2.6.5-.4.1-.7.3-1,.5ZM121.5,28.7c-.4-.1-.9-.3-1.3-.4,0-.2-.1-.4-.1-.5,1-.2,1.9-.4,2.9-.5v1.3c-.5,0-1,.1-1.5.2ZM120,29.9c0-.2,0-.4.1-.6h2.2c0,.1.2.4.4.6h-2.7ZM125.1,30.1c-.4,0-.7-.1-1-.2v-.5c.6,0,1.2-.4,2.7.4-.6,0-1.2.2-1.7.4ZM124.9,31.6c-.3-.2-.6-.4-.9-.5.8,0,1.6,0,2.4,0v.4c-.5,0-1,0-1.5.1ZM120.5,31.6c-.2,0-.4-.1-.5-.2v-.5c.7,0,1.5,0,2.4,0,0,.1.2.4.4.6-.7,0-1.5.1-2.2.2ZM125.4,34.1c0-.4.1-.7.2-1.1.4,0,.8-.1,1.3-.1,0,.3-.1.7-.2,1-.4,0-.9.1-1.2.2ZM123.4,34.1c-.2-.1-.4-.3-.7-.4,0-.4.1-.7.2-1h.8v1.2c-.1,0-.3.1-.4.2ZM120.5,34.1c-.2-.1-.4-.3-.7-.4,0-.4.1-.7.2-1,.3,0,.7.1,1,.3,0,.4,0,.7.1,1.1-.3,0-.5,0-.7,0ZM122.9,36c-3.4-.1-4.5-.1-5.8-1.9,0-.3.2-.6.4-.8h.9c1.6,2.4,5.4,1.7,8.8,1.5,0-1,.9-1.2,1.4-1.7.1,0,.4.2.6.4,0,2.8-4.4,2.4-6.2,2.5ZM94.4,37.8c-.5-.3-1-.5-1.5-.7,0-.4,0-.8,0-1.2,2.5-.6,3.8-1.5,6.9,0,0,.4-.1.7-.2,1.1-1.6.8-3.6.7-5.2.7ZM148.7,38.7c-.7-.4-1.5-.7-2.1-1,0-.4-.1-.7-.2-1,2.3-1,3.5-1.3,6.6,0,0,.4.1.9.2,1.4-1.5,1-3.4.7-4.5.7ZM128.8,41.5c-.2-.4-.4-.9-.5-1.3.6,0,1.2-.1,1.8-.2-.2,1.1-.3,1.3-1.3,1.5ZM116.8,41.5c-.2-.1-.4-.2-.5-.3v-1.5c.4,0,.7,0,1.1.1,0,.4.1.7.2,1.2-.3.1-.6.3-.8.4ZM121.7,41.7q-.4-.5-.3-1.4c.4,0,.9,0,1.4,0v1c-.4,0-.7.2-1.1.4ZM119,41.7c-.1-.5-.2-1-.3-1.5.6,0,1.2.1,1.8.2-.3.8-.6,1.1-1.5,1.3ZM126.4,41.9c-.1-.4-.3-.7-.4-1,0-.2.2-.4.4-.6.5,0,1,0,1.5.2,0,.4-.1.7-.2,1.1-.4,0-.9.2-1.3.4ZM124.2,41.9c-.9-.6-.7-1.3-.7-1.5q.9,0,1.7.2c0,.4-.1.7-.2,1.2-.3,0-.6,0-.8.1ZM109.2,43.2c-2.1-2.5-1.3-4.4,1.3-4.8.6.7,1,.9,1.3,2.7-.7.8-1.7,1.9-2.6,2.1ZM136.2,43.4c-2.4-3-2.4-2.7-.4-5h1.2c.9,1.3,2.2,4.4-.8,5ZM117.3,43.4c0-.4-.1-.8-.2-1.2.5,0,1.1.1,1.7.2,0,.1-.1.4-.1.6-.4,0-.9.2-1.3.4ZM127.9,43.7q-.4-.7-.4-1.4c.5,0,1,0,1.5,0,0,.4-.1.7-.1,1.1-.4,0-.7.2-1,.4ZM122.4,43.9c0-.4-.1-.9-.2-1.3.7,0,1.3-.1,2-.2-.3,1.4-.8,1.3-1.8,1.5ZM123.2,48.1q-1.3-1.6-2.6-2.9c-.9.7-2.5,2.4-3.7,2.4-.7-1.1-1.5-2.1-2.2-3.2q-3.5,3.2-4,3.3c0-1.3.1-2.7.3-3.9,1.5,0,2.4-.9,3.9-1.9.7.3,1.5,2.9,2.8,3.2,1.1-1.1,1.6-2.4,3.4-2.4.7.8,1.3,1.6,2,2.4,1.2-.6,1.5-2.4,3.2-2.4.7.8,1.5,1.6,2.4,2.5.7-1.1,1.5-2.2,2.4-3.2,1.5,0,1.8,3.1,4.3,2.1v4c-1.8-.9-2.7-2.4-3.6-3.4-.9,1-1.8,2.1-2.6,3.2-1.3,0-2.9-2.1-3.3-2.5-.9.9-1.8,1.8-2.6,2.6ZM116.1,52.9c-1.6-1.6-2.4-2.9-2.6-4.3q.3-.3.8-.2c0,.1,2.1,3.5,1.8,4.5ZM141.3,53.2c-.2-.1-.4-.2-.5-.3,0-1.4.4-1.3,1.2-1.8,0-1.2,0-1.2,1.3-1,0-.5,0-1,.1-1.5.4,0,.8-.1,1.3-.1q-.3-.4-.3-1.1c.3,0,.7-.1,1-.1-.1-.6-.3-1.2-.4-1.7.4,0,1-.1,1.5-.1,0-.1.1-.3.3-.4q-.7-.9-.8-1.7c.5,0,1-.1,1.6-.1-.4-.6-.9-1.1-1.3-1.6.4-.9.4-.4,1.5-.6-3.5-3.5,3.7-1.5,5.5-1.3-.1.7-.8,1.5-1.4,1.9,0,.5.1,1,.3,1.6-.3.2-.5.4-.7.7v1.5c-.4.2-.9.4-1.3.7,0,.4-.1,1-.2,1.5-1.7.5-1.3.4-1.8,2.2-.5,0-1,.1-1.5.2-.7,1.4-3.9,2.9-5.4,3.2ZM124.9,53.2c0-1.7.1-3,.8-4h.7q0,.6-1,3.9c-.1,0-.3,0-.4.1ZM129.3,53.5c.7-1.6,1.5-3.2,2.3-4.8,2.2,0-1.3,4.4-2.3,4.8ZM120.9,53.5c-.4-1-2.4-4.9-.4-4.3q.3.5.4,4.3ZM106,53.5c-2.4-.9-4-1.4-4.7-2.9-.7,0-1.4-.1-2.1-.2-.1-.4-.3-.9-.4-1.2-.4,0-.7-.1-1-.2,0-.5-.1-1-.1-1.5-.5-.3-1-.5-1.5-.7-.5-2-1.1-2.1-1.2-3.6-1.5-1-1-1.7-.7-2.6-1.4-1-1-.9-1.1-1.7,2.1,0,4.1,0,6.3,0q-.6,1.2-1.3,1.6c.5,0,1,0,1.6.2,0,.7-.9,1.6-1.5,2.3.6,0,1.2.1,1.8.2-.3.6-.5,1.2-.7,1.8.5,0,1.1-.1,1.7-.1,0,.7-.4,1.3-.9,1.7.4.4.8.4,1.7.4q0,.5-.4,1.2c.4.1.8.4,1.2.6q-.3.7-.1,1c.4,0,1,0,1.5.1,0,1.5,1.5,1.8,2.9,3.7-.2,0-.4.1-.7.2ZM141.1,54.7c-.8-1.8-1.5-3.2-1.6-4.3,5.6-4.6,4.4-8,5.4-14,2.4-1.7,7.9-3.8,9.8.8,0,9.1-5.1,14.4-13.5,17.5ZM123.9,57.4c0-4.5-1.3-7.5,2.1-10.5.7.7,1.3,1.3,2,2.1,0,2.4-1.8,6.6-4.1,8.5ZM122.2,57.9c-2.3-3.4-3.8-5.9-4-9.2,2.4-2.4,1.8-2.6,4.1.8q.3,1.7.4,8.4c-.2,0-.4,0-.5,0ZM125.7,58.4q.3-1.3,5.5-11.9h.7c.7.7,1.5,1.5,2.2,2.4,0,3.4-5.7,7.8-8.4,9.5ZM120.2,58.4c-2.9-2-8.5-6.9-8.5-9.9,1.2-1,1.7-1.9,3.1-2.4,1,3.5,3.8,7.9,5.8,11.9-.1.1-.3.3-.4.4ZM122.4,60.6c-7.8-2.6-11.7-9.5-14.5-15.8-5.2-4.4-2.8-10.3,4.1-8.4.6.3,2.8,2.4,4.3,2.4,2.6-3.1,7.3-1.2,12-1.7q1.3,1.7,1.8,2c4-2.4,7.8-5.3,10.8.8q0,1-.5,2.7c-5.6,6.6-8.5,16.6-18,18ZM131.8,60.8c-.2,0-.4-.1-.5-.2,1.1-3.2,2.4-6.7,5.4-7.9.2,1,.5,1.9.8,2.9-.3,1.3-4.6,4.8-5.7,5.2ZM113.4,60.8c-3.2-5.4-11-7.7-15.5-9.9-4.1-4.1-9.1-11.2-5.7-16.3,2.4-1.6,6.8-1.3,9.2,1.6,0,6.3-.2,6.6,3.2,12.4,4.3,3.5,8.9,5.4,9.5,12.1-.3,0-.5,0-.7,0ZM116.3,67.7c-.3-1-.5-2.1-.7-3-.6,0-1.2-.2-1.7-.2.3-.9.6-1.7.9-2.5q2.9,0,3.5.3c0,1.4.1,2.8.2,4.2q-.7.1-2.2,1.2ZM129.8,71.9c0-2.1.3-6.7-1.2-7.8.3-.7.6-1.3.9-1.8.1,0,.4,0,.6,0,1.8,1.3,1.9,5.3,1.3,8q-.9,1-1.1,1.7c-.2,0-.4,0-.5,0ZM124.4,72.4c-.1-7.4,1.3-8.2-4.2-8.4.3-.8.6-1.5,1-2.3,1.4,0,3.2.1,5.1.5,1.3,3.5,1.3,7.4-1.8,10.2ZM133.8,73.1c-.7-3.5-.1-5,.9-7.7-.4-.2-.9-.2-1.3-.3,0-1.3.1-1,.7-2,1.3.3,2.7.7,4.1,1,0,.2.1.4.2.7-.3.4-.6.8-.8,1.2-2.9,0-2.4,3.4-2.4,6.1-.5.3-1,.6-1.5,1ZM143.5,76.8c-1.2-1.8-1.8-4.6-2.6-5.1-2,1.8-1.9,2.8-4.5,2.6.4-2.2,2-3.5,3.8-4.6q0-.7-.7-3.2c.8-.8,1-.9,2.1-1.2q1.8,4.6,2.4,5.6c.1-.1.4-.3.6-.4,0-1-.1-2-.1-2.9.7-.2,1.4-.4,2.1-.6,1.8,2.2.6,3.8-1.9,5.2.2,1.5.7,2.4,1,3.5q-.7.7-2.1,1.3ZM102.3,76.8c-.2-2.8-.3-2.7,1.8-3.8-.4-1.8-.7-3.5-1-5.2-.8,0-1.6-.1-2.4-.1.2-.9.4-1.8.6-2.6,2.9-.7,5.8-1.3,8.8-2,2.1,2.1,5.2,7.1,2.1,10.1-1.8-1.8-2.3-5.2-3.5-6.8q-2.2.2-3.1.7c.3,2.1,2,5.1.8,7.9-1.5.6-2.9,1.3-4.3,1.9ZM93.5,81.7c-1.8-2.4-3.9-4.8-6-4.8q-2.8,2.4-4.5,3.5c-1.3-4.6.7-4.3,4.3-7.1h1.6c2.1,2.1,6,4,4.9,8.3-.1,0-.2,0-.3.1ZM153.6,82.7q-2.1-.8-2.1-1c1-.8,2.1-1.6,3.2-2.4.7.1,1.5.3,2.2.5v.4c-1.1.8-2.2,1.6-3.3,2.4ZM88.9,85.9c-.8-1.6-1.8-2.4-2.6-3.2,0-1.5.4-1.7.8-2.6h.4c1.2,1.4,3.8,3.4,1.4,5.7ZM158.3,86.1c-.8,0-1.6-.1-2.4-.2,0-1.9,4.4-3.2,6-5.1-.7-2.2-3.6-3.2-4.1-4.5,3.4-1,4.8-.1,7.1,3.5-.3,2.9-4,5.7-6.5,6.3ZM83.9,92c-1.2-2.4-.9-3.6-.9-5.7-2.2-1.5-3.8-.9-5.6-1.3-.2-.7-.4-1.4-.7-2.1,3.5,0,6.7-.4,10.2,3,0,.6,0,1.3.1,1.9q-1.3-.4-1.8-.3c0,1.8.2,2.6-1.3,4.4ZM162.7,93.9c-1-2.5-3.7-4.2-4-5.9.8-.1,1.7-.3,2.6-.4.6.7,1.2,1.5,1.8,2.3h.7c.8-2.2,1.6-4.6,1.9-6.6q1.4-.2,2.4,0c0,1.9-1.3,4.1-1.3,6.3q.3.1,1.9-.3c.2-.7.4-1.3.7-2,.7,0,1.5.1,2.2.2.2.9.4,1.8.7,2.8-2.1.4-4.1.7-6.2,1.1-1.2,1.5-1.5,2.1-3.4,2.4ZM81,95.9c-2.1-1.3-1.5-2.4-1.9-4q-1.3-1.5-2.6-2.3c-1.4,1-1.8,3.1-3.7,3.5q-.9-.5-2.6-.7t-.1-2.8c2.8.9,2.7-.2,4.3-2.6,3.9.5,8.4,3.4,7.3,8.8-.2,0-.4.1-.6.2ZM156.6,98.6c-5.3-6.9-12.1-10.3-18.8-14.2-.4-.6-.7-1.1-1.1-1.6h-1.7c-.1.1-.3.3-.4.5-2,0-1-1.6-3.3-1.3-2.9,2-2.2-.2-4.1-.2-.4.4-.9.8-1.3,1.2q-.4-.1-1.1-1.2h-.5c-1.3,1.7-2.3,2.3-7.7,7.9-1.8,2.3-3.5,4.6-5.2,6.8-2.3,0-3.6-.9-5.4-1.3-3.5,0-6.3,1-9.1,1-1.7-1.9-3.1-3.2-4.5-4.3,0-3.3,11.8-9.3,14.7-10.7,2.4-.7,4.8-1.3,7.2-2q3.2-.4,3.9-.7c15-.5,25,2.9,36.5,13.8,1.3,2,2.6,4,4,6-.7,0-1.3.1-1.8.2ZM166.9,101.5q-1.8-3.6-3.2-5.7c1.5-.1,2.3-1.3,3.6,1.1,1.9,0,3.8-2.9,4.2-4.5,1,.1,2,.4,3,.6-.6,3-3.7,4.4-6.3,5.3q0,.7.4,1.3c2.2,0,4,0,5.7-2.1.7,0,1.5,0,2.2,0,0,2.5-.1,2.8-2.6,3.6-2.4,0-4.7.2-7.1.4ZM123.4,105.7c-3.3-3.9-5.6-6.1-9.3-7.9,0-4,6.3-8.8,9.6-10.6,10.2-4.1,20.9,2.4,28.6,10.3,0,.2,0,.4.1.7-7.4-1.4-15.8-2.9-22.5,0-1.2.9-2.4,1.8-3.5,2.7q-2.7,4.7-2.9,4.9ZM77.3,105.7c-.7-.6-1.3-1.2-1.9-1.8.4-1.5.7-2.9,1.1-4.3-4.7-1.8-5.3-2.7-6.6,2.6-4.3,0-.6-5.4,0-6.3,1.8-.9,4.9.7,7.1,1.9h.7c.1-.3.3-.5.4-.7.4,0,.9,0,1.7.6,0,2.3-1.5,5.4-2.6,8ZM170.3,106.2c-.7-.4-1.5-.9-2.1-1.3,1.7-.3,3.4-.6,5.1-.8,1.7-1,2.8-2.9,5.1-.7-2.4,2.9-4.7,2.7-8,2.8ZM83.4,107.4c1-3.5,4.2-12.9,7.3-13.6.4.4,3.5,2.9,3.1,4.4q-3.6,2.6-6.8,5.3c-2.6,2.8-3.2,3.8-3.6,3.9ZM67.7,108.4c-1-1.3-1.6-2.1-1.6-2.9,2.4-.5,8.9-1.2,10.5,2.4-4-.5-5.5-.6-8.8.5ZM162.9,112.6c-.6-.4-1.8-2.4-2.3-2.6-1,.7-1.9,1.3-2.9,2-1.5-.7-1.2-1.7-1.5-2.5-.2,0-.4-.1-.5-.2-1,.6-2.1,2-2.9,2.2-.9-1.1-2.1-2.4-2.6-2.4-.7.7-1.5,1.5-2.1,2.2-1.6-.6-1.9-2-2.8-2-.6.7-1.2,1.5-1.8,2.2-1.7-.5-1.6-1.9-2.4-2.2-1,.7-1.8,1.7-2.7,1.9-.9-1.4-1.4-1.8-2.1-1.9-.6.6-1.1,1.2-1.6,1.9h-1c-.4-.5-.7-1-1.1-1.4-1.5,0-1.9,1.3-2.8,1.7q-.5-.4-1.2-1.7c-1,.3-1.6,1.1-2.4,1.9-.2,0-.4-.1-.6-.2.6-11.6,7-12.3,17.5-12.3,5.7,1,11.5,2,17.2,3,.7,1.9,3.3,7.7,2.7,10.4ZM85.2,112.9c.5-7.2,4.6-9.2,10.3-12.7,10.3-4.2,20.8-.1,26.6,9.9v1.1q-.7.5-1.5.5c-.4-.6-.9-1.2-1.3-1.7-.7.2-1.5.9-1.6,1.5-.4,0-.8-.2-1.2-.2-.7-1.1-.6-1.2-1.3-1.5-.9.5-1.8,1.9-2.7,1.9-.3-.6-.6-1.2-.9-1.7-1.8,0-2.3,1.4-3.5,1.7-.4-.6-.7-1.2-1.1-1.7h-.7c-.7.7-1.4,1.6-2.6,1.8-.4-.8-.9-1.6-1.3-2.4-2.4,2.7-2.7,2.7-4.2.5-1,.7-2.1,1.7-3,1.7-.6-.7-1.2-1.3-1.7-1.9-1.5.8-1.4,1.5-2.9,1.7-.3-.4-.6-.9-.9-1.3-1.8,0-2.9,2.1-4.3,2.6ZM174.7,116.3q-1-.4-5.2-.7c-.1-1.2-.2-2.4-.3-3.5,1,.1,2,.4,3,.6v1.3c1.2,0,4.8.5,4.8-1.7-2.1-2.7-6.1-2.4-8.3-3.7v-.5c2.9.4,5.7,1.1,8.5-1.1.6.1,1.3.3,1.9.5,0,.7-.6,1.8-1,2.8.9.3,1.1.6,2.3,2-.5,3.2-2.9,3.4-5.7,4.1ZM75.8,120.7c-2.7-2.1-2.1-2.6-2.5-5-2.9.4-3.5,1-5.7,2.7-1.5,0-2.2-1-2.2-1.8,2.6-1.3,4.6-1.9,8.1-2.4v-1.5c-3.2-1.6-4.3.1-6.3.1-.5-.4-1-.9-1.5-1.3,0-.2,0-.4,0-.6,3.5-1,7.6-1.7,10.6,2.8,0,2.2-.1,4.4-.1,6.7-.1,0-.2,0-.3.1ZM162.7,121.9c-2-1.3-6.7-4-7.2-5.1,2.3,0,5.3,2,7.7,3.2v1.8h-.5ZM174.7,122.4c-.5-1.9-1-4.4.5-4.8.3,1,1.4,3.8-.5,4.8ZM134.9,123.2c-2-1-3.2-5.4-3.4-6.4,3.4.1,3.4,2.1,5.2,5.6,0,.1-.1.4-.2.6-.6,0-1.1.1-1.6.2ZM130.5,123.2q-1.6-5.7-1.5-6.3c1.2,0,3.4,5.6,3.1,6-.5,0-1,.1-1.5.2ZM126.8,123.2c-.4-1.3-.9-5.2-.8-6.3,1.5,0,1.7,4.3,2.1,6.3h-1.2ZM123.4,123.2q-.1-2.1,0-6c.3,0,.6-.1.9-.1q.4,4.3.2,6.2c-.4,0-.8,0-1.2,0ZM119,123.2q.3-2.9,1.1-6.3c.4,0,.9-.1,1.3-.1-.3,2.1-.5,4.3-.7,6.4-.6,0-1.2,0-1.7,0ZM114.6,123.2c.7-2.1,1.5-4.2,2.4-6.3.4,0,.9-.1,1.3-.1-.6,2.1-1.2,4.3-1.8,6.4-.7,0-1.3,0-1.9,0ZM82.4,123.6c0-.4,0-.7.1-1,2.4-1.4,7.2-5.5,10-5.2q-7.1,4.6-10.2,6.2ZM108.9,125.1c1.5-2.7,3.1-5.4,4.6-8,.4-.1.8-.2,1.2-.3,0,1.6-2.8,6-3.8,7.7-.7.2-1.4.4-2.1.7ZM173,125.4c-1.1-1.8-2-2.7-1-4.3,1,1,1.4,2.4,1.5,4.3h-.5ZM161.9,125.6c-1-.9-10-7.9-10.3-8.8,2,0,8.3,5.7,10.9,7.6,0,.4,0,.8,0,1.3h-.5ZM174.7,125.8c.7-2.4.9-3.1,3.2-3.8,0,1.7-1.5,3.2-3.2,3.8ZM83,126.1c0-2.3,10.3-7.7,13.2-9.1-1.1,2.3-10.1,6.8-13.2,9.1ZM121.2,126.9c0-.1-.1-.3-.2-.4.1-.4.4-.7.6-1h4.3q0,.7-.3,1.2c-1.5,0-2.9,0-4.4.1ZM113.6,127.3c.5-.8,1.1-1.6,1.7-2.4,7,0,14-.1,21.1-.2.2,0,.4.1.7.3-.4.7-.9,1.4-1.3,2.1-7.4,0-14.8,0-22.2.1ZM83.7,128.8c0-.4-.2-.7-.2-1.1,5.2-3.5,10.4-7.1,15.6-10.6,0,1.1-12.7,9.9-15.5,11.7ZM160.7,129.3c-12-10.9-12.7-10.9-13.3-12.5,2.1,0,11.4,8.7,14.1,11,0,.5-.1,1-.1,1.5h-.7ZM172.8,129.8c-2-2-2-2.7-2.2-4.4,1.5.1,2.3,1.9,2.5,4-.1,0-.2.2-.3.4ZM173.9,130c.9-2.7,1.4-3.1,4-3.9-.7,1.8-1.7,3.4-4,3.9ZM105.3,130c1.3-2.6,3.8-2.8,6.4-3.8-.5,2.4-4.5,3.1-6.4,3.8ZM72.4,131.5c-2.2-3.8-2.2-4.3-2.4-7.6,2.4.8,2.6,4.5,2.4,7.6ZM84.9,132c-.1-.6-.3-1.1-.4-1.6,5.7-4.4,11.5-8.8,17.2-13.2.2,0,.5-.1.8-.1-4.6,5-12.4,12-17.7,15ZM137.7,133c0-2.9,0-4.9,1-7.1h.5c0,2.7,0,4.6-1.5,7.1ZM171.5,133.7c-1.9-2.3-1.5-2.9-1.7-4.9.6,0,3,3.3,1.7,4.9ZM173.2,134.2c1.4-2.3,1.8-2.6,4.2-3.5-1,2-2.1,2.9-4.2,3.5ZM159,134.7c-2.8-2.9-5.5-5.7-8.2-8.6-3.2-1.9-7.4-7-8.9-9.3,3.9,0,8.8,7.7,13.3,11.2.7,1.5,3.5,2.5,4.6,5.4-.3.4-.6.9-.8,1.3ZM108.2,135.4c-1.5-.8-3.1-1.6-4.6-2.4v-.4c3.1-1.2,6.3-2.4,9.4-3.5q16.4-.3,22.2,0c0,1.8,0,3.8,0,5.7-.4.4-23.5.5-27.1.7ZM87.1,136.1c-.5-1.4-.6-1.5-.6-2.3,6-5.7,12-11.4,18.2-16.7.2,0,.4,0,.7,0-15.2,15.6-16.3,17.1-18.3,18.9ZM169.8,138.1c-1.2-2.4-1.2-4-1.1-6,1.2,1.2,1.8,3.5,1.6,5.9-.2,0-.4,0-.5.1ZM155.8,138.8c-2.4-9.9-15.5-15.2-17.2-22.1.4,0,.7,0,1.1.1,13.5,14.7,21.1,20.5,16.1,21.9ZM171,139.1c.4-1.9,2.9-4.1,5.1-3.8-1.7,2.3-2.5,2.9-5.1,3.8ZM89.8,140.5q-1.3-1.8-1.4-2.4.5-.9,19.2-21.3c.2,0,.5,0,.8,0-5.3,7.7-12.1,15.5-17.6,23-.4.2-.7.5-1,.8ZM167.6,142.3c-.7-2.1-1.5-3.8-.6-5.6,1,1.4,2,2.7,1.4,5.2-.3.1-.6.3-.8.4ZM120.7,142.8c-.1-2.1-.3-3.6,0-5.3.5.2,1,.5,1.5.8-.2,1-.4,3.5-1.5,4.5ZM169.3,143c0-.1-.1-.3-.2-.4,1.4-2,3-2.6,5.4-3.5-.8,2.5-3.2,3-5.2,4ZM152.2,143.8c-3.5-6-10.5-15.2-11.6-20.8-2.3-.5-4.5-5.2-4.6-6.3.4,0,.7,0,1.1.1,5.7,7.3,11.3,16.5,16.9,24.7-.4.7-.9,1.7-1.8,2.2ZM93.7,145c-1-1-1.7-2.1-1.8-2.8,6.2-8.5,12.5-17,18.9-25.2.3,0,.6,0,.9,0,0,.1,0,.3,0,.5-.5.4-.7,1.2-1.5,1.8-3.1,4.9-6.3,9.5-10.4,13.8,0,.7.4.8.4,2.3-1.9,3.2-3.8,6.3-5.7,9.5-.3,0-.6,0-.8.1ZM160.3,147.2c.2-1.5,1.2-2.7,2.6-3.2-.2,2.1-1,2.4-2.6,3.2ZM146.3,148.6c-2-4.5-6.6-11.9-6.6-15.6q1-1.6,1.3-2.9c2.6,3.6,8.2,12.6,8.2,16.7-1,.6-2.1,1.2-3,1.8ZM158,148.9c.1-1.8-.1-3.3,1.5-3.7-.1,1.5-.4,2.5-1.5,3.7ZM99.4,149.2c-1.2-.9-2.2-1.5-2.4-2.2,2.1-3.8,4.1-7.7,6.2-11.5.6.3,1.7.3,2,1.7q-5.4,11.9-5.7,12ZM159.7,149.4c.4-1.2,1.5-1.6,2.9-1.7,0,.1-.1.4-.1.6-1,.4-1.9.7-2.8,1.1ZM155.3,151.1c0-2.2,0-2.5,1.3-4.1.5,1,.3,3.4-1.3,4.1ZM166.4,151.6c1-2,.6-2.4,2.9-2.9-1,1.5-1,2.4-2.9,2.9ZM157.3,152.1c-.1-.2-.3-.4-.4-.5,1-1,1.4-1,3.1-1.2-.2.9-1.9,1.5-2.6,1.7ZM121.5,152.6c-1.8-2.1-1.5-4.4-1.5-6.4,1.4,0,1.8,5,2,6.4h-.5ZM139.1,152.8q-3.8-12.7-4.4-15.5,2.9-.1,3.5-.4c1.8,4.5,3.6,9,5.4,13.5-.4.8-4,2.1-4.6,2.4ZM163.9,153.6q.3-1.5.8-2.6c.2,0,.4-.1.7-.1-.3,1.3-.4,1.8-1.5,2.7ZM152.4,153.8c0-1.7.1-3,1.2-4.1,0,1.2.3,2.6-1.2,4.1ZM107.3,153.8c-1.2-.7-2.4-1.3-3.6-1.9.6-5.2,3.2-9.7,5.2-14.4,1.2,0,2.4,0,3.5,0-1.5,5.4-2.9,10.9-4.4,16.4-.3,0-.5,0-.7,0ZM165.1,154.3c.3-1.4,1.1-1.3,2.5-1.7-.4,1.2-1.5,1.5-2.5,1.7ZM153.9,154.5c.4-1.4,2.1-1.3,3.7-1.5-.8,1.3-2.8,1.3-3.7,1.5ZM130.8,155.3q-1.9-14.2-2.2-18.1h2.6c1.1,5.7,2.3,11.4,3.5,17.1q-.5.4-3.9,1ZM149.4,155.8c0-1.4.7-2.4,1.4-3.3.2,1.5-.1,2.4-1.4,3.3ZM125.9,155.8c0-1.1-.1-2.1-.2-3.2.4,0,.8,0,1.2,0,.3.7.1,1.5,0,2.7h-.4v.5c-.2,0-.4,0-.5,0ZM114.8,155.8c-.7-.2-1.5-.4-2.2-.5q1.8-10.5,3.4-17.8,2.5-.2,3,0c-.7,6.1-1.5,12.2-2.2,18.4h-2ZM161,156c0-1.8.4-2,1.7-2.6-.3.8-.6,1.6-.9,2.5-.3,0-.6,0-.8.1ZM162.5,157c0-.1-.1-.3-.2-.4q.4-.5,2.9-1.5c0,.2-.1.5-.1.8-.9.4-1.8.7-2.6,1.2ZM152.2,157c-.4-.2-.9-.4-1.2-.5v-.5c1.2,0,2.4,0,3.5,0-.3.7-1.8,1-2.3,1.1ZM146,157.5c.7-2,.7-2.6,2-3.9,0,1.3,0,3.5-2,3.9ZM147.7,158.7c0-.2-.1-.4-.1-.6q.8-.3,3.5-.2c-1,.5-2.4.7-3.3.8ZM158,158.9c0-1.4.1-2.2,1.3-2.6q0,1.2-.3,2.4c-.4,0-.7.1-1,.2ZM159.2,159.5c.4-1.5,1.7-1.4,3.2-1.7-.8,1.3-1.8,1.4-3.2,1.7ZM123.4,159.5c0-2.9,0-6.3-.4-8.6-2.1-6.3-.7-7.3.7-13h.5c0,1.6-1,5.4.4,6.8.4-.7.7-3.3.9-3.2q.4,6.1.7,6.2c0-1.9.1-3.8.2-5.7.1,0,.3,0,.5.1.6,1.8.2,6.1.2,8.7-2.1,0-2.1-3.4-3-3.6,0,1.7.8,11.5-.7,12.2ZM127.9,160.7q-.7-.9-1.2-2.9c.2,0,.4-.1.7-.2.6.6.6,1.8.5,3.2ZM155.1,161.2c.3-1.5.4-2.2,1.7-3.2,0,1.3-.2,2.4-1.7,3.2ZM156.8,161.7c1.4-1,1.2-1,3.5-1-1.3,1-2.2,1-3.5,1ZM120.5,162.6c-1.2-.4-1.5-2.5-2.3-3.1-14.6-2.4-24.8-8-33-19.8-.7-1.2-1.3-2.4-1.9-3.5-6.3-15.5-6.6-26.9,1.5-41.4,1.5-2,3.1-4,4.7-6,17.1-17.1,42.5-18.3,62.1-3.5,1,1,2.1,1.9,3.1,2.9,8.6,10.2,12,17.7,12,31.9-1.8,12.4-6.4,21.1-15.7,29.7-4.9,3.2-16,10.1-22.1,9.1v-1c1.3-.5,3.2-.7,9.4-2.7,4.3-2,8.2-4.5,12.2-7.1,7.9-7.9,12.5-14.8,14.4-26.1v-10c-2.4-9.7-5.1-15.7-11-22.6-12.7-12-26.5-14.4-42.5-11.7-21.8,6.2-34,24.2-30.6,47,2.1,7.4,4.1,12.7,9.9,19.5,7.6,6.4,14,10.7,24.8,13.3q2.9.2,3.6,0c.4-1,.9-2.1,1.3-3h.4c.3,1.5,1.9,6.8-.4,8ZM124.2,163.1c0-2.1.1-2.4.8-4q.5,0,1,.3c0,1-.3,3.3-1.8,3.8ZM152.2,163.7c.2-1.7.7-1.9,1.4-2.9.1,0,.3,0,.4,0-.3,1-.6,2.1-1.8,2.8ZM153.6,164.6c-.2-.1-.4-.3-.5-.4,1.3-.8,1.6-1,3.5-1.3-.4,1.3-1.8,1.5-2.9,1.7ZM129.3,164.6c-.1-.3-.3-.5-.4-.7,4.6-1.3,9.1-2.7,13.8-4,.6-1.9.8-2.5,2.1-3.8-.2.9-.4,1.8-.5,2.7.9.3,2.3-.1,3.3.9-1.4,1.6-4,1-5.4,1.1q-5.8,2-12.9,3.8ZM154.1,166.6v-.3h.3v.3h-.3ZM122.4,167c-.7-1.2-1.3-.5-1.8-1.6.1-.4.3-.7.5-1,.5.1,1.1.3,1.7.5v1.7c-.1,0-.3.2-.4.4ZM155.5,167.3v-.3h.3v.3h-.3ZM129,168.1v-.5c8.7-1.6,15-3.6,23-8.4,4.3-3.5,8.8-7.7,12.5-11.6,0-3,0-4.3,1-6.3.1,0,.3,0,.5,0q.4,1.5.8,4.4,1.8-.8,5.2-1.8c0,.1,0,.3,0,.4-2.1,2.1-4,2.6-6.8,3.2-5.9,7.5-14.3,13.9-23,17.7-4.7,1.3-9.1,2.2-13.3,2.9ZM124.6,168.3c-.1-.6-.3-1.2-.4-1.7.4,0,.9,0,1.4,0,0-1.5.2-2.2.7-2.9.1,0,.3.1.4.2,0,1,.1,1.9.2,2.9-1,.3-1.3,1-2.3,1.4ZM122.4,170.5c0-.2.1-.4.2-.6.8,0,1.6-.1,2.5-.1v.5c-1,0-1.8.1-2.7.2ZM120.5,171c-1.3-.9-1-1.8-1-2.5.7,0,1.3.2,2.1.4,0,.6-.1,1.3-.2,1.9-.3,0-.6.1-.8.2ZM102.5,171c-3-.6-6.3-1.3-7.8-3.5,2.3-.5,5.7-1.6,8.4-.5-1.5.2-2.9.4-4.3.7,1.3,2.6,9.3.2,11.8-.4-3.5-.8-6.3-1.9-8.8-2.9q-3.7-.2-7.2,0c-.2.2-.4.5-.6.8-2.7,0-2.9-.2-2.8-2.1,1.3-1.3,4.6,0,7.2,0v-.5q-2.2-.9-4.9-2.4c-2,0-4,.2-5.9.3-3.9-1.3-7.7-3.2-9.8-5.8,1.3-.7,8.8-.4,9.6,2.5-1.9-.4-3.8-.9-5.2-1,0,.2,0,.4.1.7,3.2,1.5,5.6,1.9,9.9,2.2v-.5c-3.8-2.3-5.8-5.2-9.6-5.5-2.9-1-3.5-.7-5.6-.7-1.9-1.6-1.3-2.1-1.3-3.4,2.1-1,2.7-.3,3.9,2.6q1.1.3,4.1.4c-4.1-6.3-6.3-5.6-12.2-8.6-3.5-3.1-4-4.6-4.7-8.1,2.7.3,7.4,3.6,8.3,7.1-.7-.3-5.1-4-6.2-4.6,0,.8,0,2.6,1.8,3.2v.5c2.2,1.2,4,2.4,7.1,3.3-1-6.3-7.4-10.2-11.4-12.9-.1-.3-.2-.6-.3-.9.9-1.8,1.9-2.1,3.5-.1,0,2.7,1,2.7,3.6,4.9,0-.1,0-.3,0-.4-3-5.2-6.5-8.9-3.9-14.3h.7c1.7,1.7,2.9,3.6,4,6.5q.4,7.1.7,7.4c.4-1.2.7-2.4,1.2-3.5,0-2.1-2.2-5.2,1.9-3.9,0,1.1.2,2-.8,2.6-2.1,7.1-1.5,7.2,2.7,14.6,0-2.5,1.3-9.3-1.2-9.9-.7,2.1.1,3.4,0,5.9-2.9-1.4-1-7.5-.5-9.4,1.5,1.1,2.2,3.4,3.3,5.7,0,4-2.1,10.4,3.1,13-.2-1.8-1.5-2.7-2.1-3.2,0-2.3-.1-2.4,2.1-2.3.7,1,.2,2.3.2,4,1.7,5.2,4,6,9,9.9,0,0,.2-.1.4-.1-1.7-3.9-3.1-6.8-5.3-9.4,0,1.6.2,2.5,1.2,4.9-3,.6-3.6-7.5-3.6-8.6,4.7,1.8,6.6,7.4,8.3,12.6.6.8,4.6,5.1,6.6,4.5-.8-1-1.6-1.9-2.4-2.8-2.5-1.3-3.2-1.9-2.2-3.9.7,0,1.5-.1,2.4-.1.3.4,1.1,1.7.4,3.1,2.9,4.4,7.4,6.8,13.4,7.5-1.7-2.3-3.5-4.6-4.9-6q-.7-.2-1.8-.1c0,.2,0,.5,0,.8q2.9,2.9,3.4,3.7c-2,0-4.7-2.9-4.9-3.7h-.5c-.7-1.3-1.8-2.4-1.5-3.5,6.4,1.9,7.1,2.6,11.8,8.6.5.4,3.7.9,3.5,2.2-2,0-4,.1-5.9.3-3.3,1.7-6.3,2.3-9.3,2.6ZM129.3,171.2c0-.1-.1-.2-.2-.3,6-1.1,11.9-2.2,18.1-4.8,1.8-1.3,1.5-3.2,3.7-4q-.7,2.2-.7,3.1c1,0,1.9.2,2.9.2v.4c-2.2,1.1-3.7.6-5.6.5-6,2.9-12.4,3.7-18.3,4.8ZM112.1,171.8c1.9-1.3,3-1,5.7-1,0,.1-.1.4-.1.6-1.8.1-3.7.3-5.5.4ZM125.9,172.7c-.1-.6-.3-1.1-.4-1.6.3-.1.7-.3,1-.4.2-.9.4-1.7.7-2.5h.4c.7,1.4.7,4.1-1.8,4.6ZM127.9,174.2c0-.4-.1-.7-.1-1.1h.7v1c-.2,0-.4,0-.5.1ZM123.2,174.4c-1.1-1.7-1.5-3.2,1-3,0,.6,0,1.3,0,1.9-.4.4-.7.7-1.1,1.1ZM120,177.3c0-2.5-.4-3.4.7-5,.5.5.7,2.6.8,4-.9.4-.9,1-1.5,1ZM129.3,178.4c-.4-.9,0-.9.1-1.2,20.7-2.4,37.3-13,48-31.2,1.6-3.8,3.2-7.4,4.9-11.1,2.8-10.6,2.9-20,1.5-30.4-.7-2.3-1.3-4.5-2-6.7-5.2-11.5-9.8-18.5-18.6-26.6-8-6.1-14.6-8.8-23-11.7-2.9-7.5-3.4-8.2-2.7-8.8,1.3,1.3,2.8,5.4,3.8,7.9,2,.7,4,1.3,6,2,16.9,7.9,28,18,35.5,36.5,3.2,10.7,4.2,21.1,2,32.8-.7,2.4-1.3,4.7-1.9,7.1-5.2,13.2-12.4,22.1-23.6,30.8-7.4,4.3-13.1,7-21,9.1-3,.5-6,1-9.1,1.6ZM114.8,178.6c-8.4-1.7-15.5-3.7-22.6-7q-5.2-3.2-6.1-3.5v-.5c-3-1.1-5-4.2-6.8-5.2v-.5c-1.8-.7-5.9-5.9-6.2-6.3-1.7-2.4-3.4-4.6-5-6.9-8.7-16.5-11.2-30.7-6.9-48.2,1.3-3.4,2.6-6.8,4-10.1,8.3-15.8,23.6-29.8,41.6-32.8,0,.3-.1.7-.1,1-2.3.7-4.5,1.3-6.7,2-17,6.5-28.6,19.2-36,35.7-2.6,8.3-4,16-3.5,25.2.7,3.5,1.3,7.1,2,10.6,5.9,17.4,14.9,29.7,31.7,38.9,6.1,2.6,16.3,6.9,23.9,6.3v1.3c-1.1,0-2.1,0-3.2,0ZM122.4,179.8c-.8-1.7-.3-2.8,0-4,1.3.3.8,2.4.7,4h-.7ZM125.4,181c-.9-2-1-2.5-.9-3.9.7,1.3,1.1,1.8.9,3.9ZM128.3,182.8q-.1-2.2.1-3.7c.1.3.6,2.6-.1,3.7ZM126.6,184c0-2.9-.9-6.9.4-8.7,1.2,1.2,0,6.3,0,8.5-.2,0-.4.1-.5.2ZM120.9,184c-.3-2.3-.7-2.9,0-4.4,1,.7,1,.8,1.8,2.8-.4.7-.9,1.4-1.8,1.6ZM119.5,188.2c-2-1.5-1.5-5.7-1.5-7.3-19.2-1.9-33.1-9.2-45.4-22.6-4.7-6.2-8.2-12.2-11.2-18.3-3.2-9.9-4.5-18.8-4.3-28.6,1.1-7.8,2.9-14.1,5.8-21.1,4.4-8.9,10.1-14.7,16.9-21.6,6-5,12.4-8.4,19.9-11.5,0-.1,0-.3,0-.4-8.3-4.6-14.4-11.7-14.4-20.8,2.2-8.1,12.1-5.5,18.1-3.5.9.5,1.8,1,2.7,1.5,2.6-8.7,8.2-25.2,20.1-22.7,9.2,5.8,11.4,11.6,13.8,22.7.1,0,.3,0,.4.1,5.7-3.7,20.4-5.6,20.4,5.1-1.8,8.7-7.2,13.5-14.5,18.3,5.7,2.4,11.5,5.3,17.2,9.3.2.5,1.2,1,2.2,1.7,6.8,6.1,11.7,12.4,16.7,21.2,5,10.1,6.1,20,6.1,31.7-.8,6.6-2.6,13.5-4.9,20.2-7,14.1-15.2,23.6-29.1,31.6-8.5,3.9-16,5.7-24.8,7.3-.2,1.7.7,5.5-1,7.1-3.1.1-6.2.3-9.2.4Z"/>
  <path class="st1" d="M34.8,209.1c0,3.3-1,5.8-2.9,7.3-1.5,1.2-3.5,1.8-6.1,1.8s-2.8-.1-3.4-.4c-.7-.3-1.1-.7-1.1-1.1v-3.3h.1c.4.7,1.3,1.1,2.5,1.1s.5-.2.4-.6l-2-8.8c-.3-1.4-.7-2.2-1.2-2.4v-.3h4.2c.9,0,1.4.5,1.7,1.6l1.1,5.1c.1.7.2,1.3.2,1.9,0,1.6-.6,2.7-1.9,3.1v.4c2.4,0,3.6-1.3,3.6-4v-5.4c0-1.2-.3-2-1-2.3v-.3h3.9c.6,0,1.1.1,1.4.4.3.3.5.9.5,1.8v4.6h0Z"/>
  <path class="st1" d="M41.5,215.4c0,1.5-.6,2.2-1.8,2.2h-2.9v-13.1c0-1-.3-1.6-1-2v-.3h3.6c1.4,0,2.2.7,2.2,2.2v10.9h0Z"/>
  <path class="st1" d="M55,215c0,.9,0,1.5-.2,1.9-.3.5-.8.8-1.5.8h-10.4v-2c0-.8.1-1.4.4-1.7.2-.3.7-.5,1.4-.5h2.9c.7,0,1.2-.3,1.4-.8.2-.4.3-1,.3-1.9v-2.1c0-1-.2-1.7-.5-2-.4-.4-1.3-.6-2.6-.6s-2.5.4-2.9,1.3h-.2v-3.5c0-.6.3-1,1-1.4.7-.3,2-.5,4-.5s4,.4,4.9,1.2c.9.8,1.4,2.3,1.4,4.5v1.2c0,2.3-.8,3.7-2.5,4.2v.4h1.6c.7,0,1.2-.2,1.5-.7h.2v2.2Z"/>
  <path class="st1" d="M67.1,210.5c0,2.4-.7,4.3-2,5.6-1.1,1.2-2.6,1.7-4.3,1.7h0c-.8,0-1.5-.1-2-.4-.3-.2-.5-.5-.5-.8v-3.3h.1c.4.3.9.5,1.4.5,1.7,0,2.6-1.1,2.6-3.1v-4.3h-5.8c-.4,0-.6-.3-.6-.8v-5.6c0-.3-.1-.9-.4-1.8v-.2h3.8c.8,0,1.2.6,1.2,1.7v2.5h4.7c.6,0,1,.1,1.3.3.3.3.5.8.5,1.7v6.3Z"/>
  <path class="st1" d="M77.8,215.7c0,1.3-.6,2-1.7,2h-2.5c-.2-1.3-.3-2.6-.3-3.8s-.1-.2-.3-.2-.3,0-.3.2c0,1.1-.1,2-.4,2.6-.2.6-.5,1-.8,1.2-.3.2-.8.3-1.3.3-1,0-1.5-.5-1.5-1.4v-4.6h.2c.4.6.9.9,1.5.9,1.8,0,2.7-1,2.7-3.1v-1.9c0-1-.7-1.5-2-1.5s-1.5.3-2,.9h-.2v-3.4c0-.5.2-.9.6-1.1.6-.4,1.7-.6,3.3-.6,3.4,0,5,1.5,5,4.6v9.1Z"/>
  <path class="st1" d="M84.9,208.9c-.4.4-.6,1-.6,1.7v4.8c0,1.5-.6,2.2-1.9,2.2h-2.9v-6c0-2,.8-3,2.4-3h3v.3h0ZM92,215.4c0,1.5-.6,2.2-1.9,2.2h-3v-9.3c0-.9-.2-1.5-.7-1.8-.5-.3-1.5-.5-3-.5s-2,.1-2.6.5c-.4.2-.8.6-1.1,1.2h-.2v-3.6c0-.7.3-1.1,1-1.4,1-.4,2.4-.6,4.3-.6,2.7,0,4.6.4,5.6,1.2,1.1.8,1.6,2.2,1.6,4.3,0,0,0,8,0,8Z"/>
  <path class="st1" d="M114.7,215.4c0,.8-.1,1.4-.4,1.8-.3.3-.8.5-1.4.5h-3v-10.3c0-.9-.4-1.4-1.2-1.4h-1.1c-.4,0-.5.3-.5,1v6.2c0,3.1-1.3,4.6-4,4.6h0c-1.8,0-2.7-.5-2.7-1.6v-2.8c.2.3.5.5.9.4.7,0,1.1-.5,1.1-1.2v-2.3c0-1.1.1-1.9.4-2.4.3-.6,1.1-1.1,2.1-1.4v-.4c-1.8,0-3,.4-3.7,1.1h-.2v-3.1c0-.7.2-1.1.7-1.3,1.3-.5,3.2-.7,5.9-.7s4.8.4,5.8,1.1c1,.8,1.5,2.2,1.5,4.4v7.9h0Z"/>
  <path class="st1" d="M121.2,210.1c0,1.5-.7,2.2-2,2.2h-2.8v-7.8c0-1-.3-1.7-.9-2v-.3h3.8c.6,0,1.1.1,1.4.4.3.3.5.9.5,1.8v5.6Z"/>
  <path class="st1" d="M133.4,215.6c0,1.4-.6,2.1-1.8,2.1h-3v-9c0-1-.2-1.6-.5-2-.4-.4-1.2-.6-2.4-.6s-2.6.4-3,1.3h-.2v-3.5c0-.7.4-1.2,1.1-1.4.9-.3,2.1-.4,3.7-.4s3.8.4,4.7,1.2c.9.8,1.4,2.2,1.4,4.2v8.1h0Z"/>
  <path class="st1" d="M140.1,215.4c0,1.5-.6,2.2-1.8,2.2h-2.9v-13.1c0-1-.3-1.6-1-2v-.3h3.6c1.4,0,2.2.7,2.2,2.2v10.9Z"/>
  <path class="st1" d="M149.9,206.9h-.3c-.2-.4-.6-.5-1.2-.5h0c-.5,0-.7.4-.7,1.1v7.9c0,1.5-.6,2.2-1.9,2.2h-3v-7.5c0-1.2.2-2.1.7-2.7.3-.3.9-.6,1.6-.7v-.3h-2c-.7,0-1.3.2-1.6.7h-.2v-3.3c0-.6.1-1,.3-1.2.2-.2.6-.3,1.1-.3h4.9c.8,0,1.4,0,1.6.2.3.3.5.8.5,1.7v2.8h0Z"/>
  <path class="st1" d="M163.8,217.6h-3.3c-.8-1.5-2.3-4.1-4.7-7.9-.1.2-.2.5-.2.7v2.9c0,.4.2.6.6.6s.4,0,.7-.3h.1v1.9c0,.7-.1,1.2-.3,1.5-.3.4-1.1.6-2.6.6h0c-1.1,0-1.8-.3-2.3-.9-.4-.6-.7-1.5-.7-2.8v-2.2c0-.9.3-1.8.8-2.4.4-.4,1.1-1.1,2.4-1.9-.7-1.1-1.5-1.6-2.1-1.6s-.6.1-.8.3h-.2v-2.4c0-1.1.8-1.7,2.3-1.7s1.9.2,2.5.5c.6.4,1.2,1,1.8,2.1.4.7,1.1,1.8,2.1,3.4,0-.2.1-.5.1-.9v-1.8c0-1.5-.3-2.4-1-2.8v-.3h3.8c1.3,0,1.9.9,1.9,2.8v1.1c0,1-.3,1.8-.8,2.5-.4.5-1.2,1.2-2.3,2.1l3.1,4.9c.1.3.2.5.2.9,0,.7-.4,1.1-1.1,1.1"/>
  <path class="st1" d="M178.5,208.9c-.4.4-.6,1-.6,1.7v4.8c0,1.5-.6,2.2-1.9,2.2h-2.9v-6c0-2,.8-3,2.4-3h3v.3h0ZM185.6,215.4c0,1.5-.6,2.2-1.9,2.2h-3v-9.3c0-.9-.2-1.5-.7-1.8-.5-.3-1.5-.5-3-.5s-2,.1-2.6.5c-.4.2-.8.6-1.1,1.2h-.2v-3.6c0-.7.3-1.1,1-1.4,1-.4,2.4-.6,4.3-.6,2.7,0,4.6.4,5.6,1.2,1.1.8,1.6,2.2,1.6,4.3v8h0Z"/>
  <path class="st1" d="M199.9,206.1c0,2.5-1.3,4.2-3.8,5.2.9,1,1.8,1.7,2.7,2.3.6.4.9,1.1.9,2v2.1h-12.5v-2.5c0-.5.1-.9.4-1.2.3-.3.7-.5,1.2-.5h5.3v-.3c-.6,0-1.2-.2-1.8-.5-.7-.3-1.1-.6-1.4-.9-1.6-1.9-2.8-4.5-3.6-7.6-.2-.8-.5-1.4-.9-1.5v-.3h4.3c1,0,1.5.5,1.7,1.6.3,1.6,1.1,3.4,2.2,5.4.4-.4.6-1.1.6-2.3v-1.8c0-1.3-.4-2.1-1.1-2.5v-.3h3.9c.7,0,1.2.2,1.5.5.3.4.4,1,.4,1.9v1.4h0Z"/>
  <path class="st1" d="M214.4,209.1c0,3.3-1,5.8-2.9,7.3-1.5,1.2-3.5,1.8-6.1,1.8s-2.8-.1-3.4-.4c-.7-.3-1.1-.7-1.1-1.1v-3.3h.1c.4.7,1.3,1.1,2.5,1.1s.5-.2.4-.6l-2-8.8c-.3-1.4-.7-2.2-1.2-2.4v-.3h4.2c.9,0,1.4.5,1.7,1.6l1.1,5.1c.1.7.2,1.3.2,1.9,0,1.6-.6,2.7-1.9,3.1v.4c2.4,0,3.6-1.3,3.6-4v-5.4c0-1.2-.3-2-1-2.3v-.3h3.9c.6,0,1.1.1,1.4.4.3.3.5.9.5,1.8v4.6h0Z"/>
  <path class="st1" d="M221.1,215.4c0,1.5-.6,2.2-1.8,2.2h-2.9v-13.1c0-1-.3-1.6-1-2v-.3h3.6c1.4,0,2.2.7,2.2,2.2v10.9Z"/>
  <path class="st1" d="M236.7,210.1c0,1.9-.2,3.4-.4,4.3-.3,1-.8,1.8-1.5,2.4-.7.6-1.8.9-3.4.9h0c-.8,0-1.5-.1-1.9-.4-.3-.2-.5-.6-.5-1.1v-2.8h.1c.3.4.7.6,1.3.6.9,0,1.4-.7,1.4-2v-4.3c0-.7-.1-1.3-.4-1.5-.2-.3-.7-.4-1.3-.4h-.3c-.6,0-1,.2-1.2.5-.2.4-.3,1-.4,1.9l-.4,7.2c-.1,1.4-.7,2.1-1.9,2.1h-3.1l.5-7.3c0-1.4.3-2.3.6-2.9.5-.8,1.4-1.2,2.5-1.2v-.4c-1.9,0-3,.4-3.5,1.1h-.2v-3.2c0-.6.2-1,.7-1.2.9-.3,2.8-.5,5.7-.5s2.7,0,3.4.1c1.4.2,2.3.7,3,1.4.6.7,1,1.7,1.2,3,0,.7.1,1.8.1,3.4h0c0,.1,0,.1,0,.1Z"/>
</svg>