<?xml version="1.0" encoding="utf-8"?>
<!-- Generator: Adobe Illustrator 15.1.0, SVG Export Plug-In . SVG Version: 6.00 Build 0)  -->
<!DOCTYPE svg PUBLIC "-//W3C//DTD SVG 1.1//EN" "http://www.w3.org/Graphics/SVG/1.1/DTD/svg11.dtd">
<svg version="1.1" id="Layer_1" xmlns="http://www.w3.org/2000/svg" xmlns:xlink="http://www.w3.org/1999/xlink" x="0px" y="0px"
	 width="647.922px" height="855.418px" viewBox="0 0 647.922 855.418" enable-background="new 0 0 647.922 855.418"
	 xml:space="preserve">
<path d="M648.618,190.206l-61.787-123.46C433.934,66.672,386.156,38.517,323.716-0.325C197.597,73.495,124.223,69.231,58.527,75.199
	c0,0-39.321,87.459-57.83,128.096c37.672,21.66,63.23,68.414,59.652,110.795c-5.255,62.13-7.771,120.029-15.271,185.464
	c-3.183,27.865-10.917,92.146-6.881,123.191c9.636,73.992,41.724,141.836,140.919,176.322c27.496,9.555,86.32,6.18,106.191,16.241
	c17.643,8.938,38.563,24.345,47.081,39.783c5.14-11.182,21.026-27.943,31.263-33.994c41.206-24.289,85.419-15.924,127.102-30.957
	c99.314-35.811,146.215-130.586,133.328-229.102c-5.722-43.73-10.695-87.834-17.984-131.418
	c-6.291-37.562-14.497-73.039-14.497-111.331C591.598,276.216,596.885,228.784,648.618,190.206z"/>
<path fill="#FFFFFF" d="M593.969,231.481c-3.355,7.056-14.201,34.826-14.201,55.456v34.707c-0.938,0.943-0.118,0.366-2.462,0.366
	c-9.771,0-34.988-30.73-37.535-32.344c-5.451-3.45-14.653-8.25-21.3-9.839c-13.173-3.188-18.964-3.786-33.255,3.331
	c-10.302,5.146-26.396,19.851-38.584,15.284c-2.675-0.994-5.612-6.188-8.024-9.237c-4.638-5.891-10.509-9.619-16.276-12.565
	c-3.094-1.59-18.298,1.563-22.151,1.563c-16.446,0-6.995-13.99-28.441-13.99c-15.856,0-34.209,16.885-41.247,21.14
	c-6.384,3.878-16.751,9.021-23.395,14.229h-3.228c0,0-0.184-1.398-1.113-2.336c6.526-3.714,14.819-8.762,21.455-14.125v-2.451
	c-0.934-0.93-0.497-1.543-2.832-1.543c-1.967,0-14.811,8.216-21.338,11.944c9.318-9.323,20.458-20.065,31.642-29.381v-2.471
	c-0.942-0.908-0.499-1.523-2.833-1.523c-2.098,0-21.518,16.975-33.869,27.001c-0.942,0-3.421-1.35-4.349-2.27l30.827-39.343v-4.201
	c-0.879,0-0.523-0.772-2.855-0.772c-3.621,0-25.473,31.433-32.929,38.526h-2.479l22.432-40.047v-3.303
	c-0.895,0-0.555-0.761-2.889-0.761c-4.193,0-18.533,30.753-26.445,40.062c-1.994-0.819-4.55-3.127-5.245-5.109l19.635-50.433v-4.266
	c-0.868,0-0.521-0.778-2.859-0.778c-4.19,0-15.78,35.166-23.591,54.977c-2.805-1.294-6.197-2.098-8.989-3.022
	c2.792-8.399,7.418-23.167,7.47-25.499v-4.227c-0.864,0-0.522-0.793-2.855-0.793c-4.431,0-9.229,24.52-10.619,30.453
	c-0.353,0.82-2.438,2.189-4.757,2.189c-2.332,0-3.236-1.221-4.154-2.162v-47.473c-1.009-0.462-3.605-0.242-5.769,0.92v49.562
	c-1.688-0.473-4.271,0.976-6.105,1.9c-2.699-10.25-5.848-21.675-8.993-32.867c-0.588-0.924-2.07-1.584-3-1.584
	c-0.944-0.234-2.4,1.447-2.28,3.197l8.35,32.875c-1.862,1.048-3.695,2.153-6.016,2.153c-3.854,0-15.953-27.206-24.447-39.193h-2.449
	c-0.933,0.953-1.546,0.968-1.546,3.302c0,2.323,18.649,35.893,18.649,38.222c0,2.099-1.469,4.639-3.107,6.021h-3.184l-24.209-30.751
	h-2.452c-0.93,0.938-1.545,0.499-1.545,2.815c0,2.337,15.848,21.931,25.179,33.125c-0.942,0.93-2.45,3.223-3.396,3.223
	l-37.303-23.356h-3.288c0,0.769-0.828,2.176-0.828,4.162c12.112,8.285,25.22,16.766,38.26,25.155c0,0-1.112,1.435-1.112,2.376
	l-31.116-13.049h-4.261c0,0.771-0.851,2.162-0.851,4.138c10.25,5.488,21.44,10.13,32.637,13.863
	c-0.474,3.623-2.282,5.386-4.589,5.386c-12.951,0-48.023-20.515-50.936-20.579h-4.231c0,0.752-0.853,2.15-0.853,4.139
	c10.249,5.473,20.579,10.424,31.301,15.087c-27.973,5.125-57.738,39.078-88.975,60.177c1.757-15.97,5.14-49.74,5.14-52.3
	c0-30.535-2.961-41.59-18.719-75.639c-3.393-7.354-37.554-40.023-37.554-40.023L64.506,86.3
	c97.663-1.88,174.901-21.346,256.875-72.883c81.83,51.538,123.627,65.201,254.887,65.269c4.783,0,57.174,109.602,57.172,109.6
	C617.781,201.846,603.158,212.244,593.969,231.481z"/>
<polygon points="108.388,121.971 119.398,144.64 112.714,155.433 105.716,144.331 97.09,149.136 90.482,131.42 "/>
<polygon points="132.848,111.433 141.839,134.993 134.223,145.15 128.219,133.474 119.214,137.529 114.192,119.304 "/>
<path d="M243.681,80.324l-1.455,58.386c0,0-1.112,14.136-13.067,16.685l-26.661,6.659l-1.741-14.203l16.579-4.604l-14.626-37.34
	l-7.683,1.717l-0.837-17.917l15.359-3.406l19.755,53.496l1.56-39.844l-9.371,1.702l-0.854-18.781L243.681,80.324z"/>
<polygon points="455.796,86.53 448.388,110.622 436.126,113.935 438.588,101.044 429.005,98.686 436.253,81.234 "/>
<polygon points="481.394,95.384 471.93,118.74 459.427,120.982 462.99,108.365 453.647,105.155 462.387,88.416 "/>
<polygon points="419.896,147.78 404.915,145.165 409.974,94.82 395.53,93.974 390.887,144.483 364.046,144.627 368.356,129.626 
	378.792,130.425 382.737,93.116 373.801,93.371 378.477,76.056 428.807,80.324 "/>
<path fill="#FFFFFF" d="M418.556,417.315c8.287-11.898,10.07-25.912,10.07-40.291c0-2.318-3.829-24.024-5.103-36.143
	c-1.508-0.928-2.604-2.081-4.704-2.081c-6.188,0-12.587,3.833-12.587,10.725c0,2.321,5.583,19.584,5.583,21.9
	c0,5.134-0.965,12.676-3.458,18.953c-2.739,6.916-6.646,18.66-9.83,22.233c-9.598,10.837-19.058,22.786-27.051,33.591
	c-3.255,4.43-6.735,11.547-7.879,15.281c-0.828,2.688,2.359,6.83,1.321,9.03c-2.779,5.797-14.273,21.187-17.436,21.187
	c-2.317,0-15.515-1.605-22.702-3.938c-3.154-1.047-3.933-4.953-4.508-7.151c-14.929,0.914-19.398,0.84-21.729,0.84
	c-1.625,0-8.046,1.518-8.641-1.5c-5.461-28.769-9.004-58.444-12.383-87.461c5.479-3.495,15.883-10.566,15.883-16.874
	c0-2.092-1.1-14.925-2.977-20.88h-52.717c-2.106,3.942-3.026,13.897-3.026,18.101c0,7.224,5.888,14.676,15.912,19.795l-7.394,98.097
	c14.918-0.104,20.959,0.025,23.059,0.025c3.5,0,14.652-2.176,11.394,6.424h26.668c2.791-2.717,7.748-7.344,9.61-7.344
	c5.478,0,41.154,31.26,46.317,40.795c6.397,11.785,10.554,18.633,10.554,29.139c0,15.154-9.383,53.543-17.025,62.629
	c-11.248,13.369-24.787,25.318-37.803,35.111c-19.543,14.732-53.243,32.797-56.727,37.635
	c-22.915,31.927-45.076,95.144-45.076,97.24c0,2.322,0.273,2.293,1.204,3.219c37.265,0.896,29.767-1.174,50.788,2.761
	c8.262-28.148,21.684-71.279,33.048-98.097c3.023-7.131,8.362-12.362,11.99-15.692c9.451-8.658,20.385-14.193,27.369-19.802
	c14.127-11.301,24.796-22.207,36.984-34.286c14.578-14.449,21.339-46.125,21.339-62.806c0-16.998-2.277-29.897-10.642-45.545
	c-3.056-5.688-9.041-10.901-12.504-16.227c-1.312-2.047-2.045-24.771-0.896-27.551C381.46,457.609,404.947,436.902,418.556,417.315z
	 M273.538,487.267h-12.801v-21.323h12.801V487.267z"/>
<path fill="#FFF200" d="M530.704,507.554c-18.282,0-18.282,9.57-20.723,19.902h-92.891v59.535h136.393v-59.535
	C553.483,519.224,544.836,507.554,530.704,507.554z M447.577,577.714h-22.125v-13.662h22.125V577.714z M447.577,554.679h-22.125
	v-13.643h22.125V554.679z M482.547,577.714h-22.108v-13.662h22.108V577.714z M482.547,554.679h-22.108v-13.643h22.108V554.679z
	 M517.547,577.714h-22.128v-13.662h22.128V577.714z M517.547,554.679h-22.128v-13.643h22.128V554.679z"/>
<path fill="#FFFFFF" d="M238.885,580.832l-4.403-2.91c-15.035-10.33-21.132-23.748-35.679-23.748
	c-5.374,0-10.066,0.396-12.504,6.328l14.836-0.732c2.307,0,3.276,1.144,4.785,2.664c10.13,10.13,31.232,33.804,31.232,33.804
	h-10.724v34.614h59.914v-50.02H238.885L238.885,580.832z M268.415,611.951h-17.853v-20.582h17.853V611.951z"/>
<path fill="#FFFFFF" d="M130.198,597.938v47.172h91.295v-47.172H130.198z M169.443,625.604h-31.512v-17.171h31.512V625.604z
	 M212.107,625.604h-31.499v-17.171h31.499V625.604z"/>
<path d="M85.791,136.106l-43.317,24.449v13.534l6.777-3.585l28.913,44.825l37.813-21.9L85.791,136.106z M62.802,164.785
	l17.063-8.531l19.31,31.712l-16.767,8.727L62.802,164.785z"/>
<path d="M197.335,163.39l-13.698,4.74c-5.085-21.353-2.907-11.771-11.627-51.125l-10.039,4.567l10.2,50.103
	c-30.28,12.438-24.064,9.313-24.064,9.313l-2.559-17.062l11.941-4.268l-6.816-34.116l-7.732,2.537l-3.121-19.341l42.418-14.753
	L197.335,163.39z"/>
<polygon points="299.126,129.796 298.272,146.011 249.684,150.4 249.643,134.068 276.79,131.329 276.947,95.677 250.64,97.074 
	254.439,79.424 290.603,77.761 290.29,130.201 "/>
<path d="M350.306,144.306h-13.644l-4.273-6.829l-7.521,7.125c-13.688,1.344-9.896,1.142-20.121,1.142l0.355-15.945l25.689-1.638
	c-0.865-1.312-1.076-2.169-11.981-37.081l-13.972-0.342l0.264-13.833h28.992L350.306,144.306z"/>
<polygon points="494.054,172.815 479.936,167.947 501.316,120.417 478.981,111.892 488.604,98.288 521.804,109.33 "/>
<path d="M601.977,147.956c0,0-33.843,30.9-44.34,39.006c-12.7,9.812-14.513,7.675-24.756,2.565l-22.17-11.093l8.337-11.017
	l14.693,7.596c0,0,10.616-24.964,11.091-27.302c0.916-4.443,4.875-5.97-1.521-8.762c3.131-4.443,10.065-15.97,10.065-15.97
	l13.639,7.674c-7.673,18.762-19.095,45.998-19.095,49.047c0.503,0.492,29.341-23.449,29.341-23.449l-7.865-4.28
	c0,0,6.89-10.808,10.615-15.479L601.977,147.956z"/>
<polygon points="546.929,121.008 535.447,143.448 522.815,144.589 527.455,132.319 518.432,128.321 528.606,112.416 "/>
<path fill="#01A650" d="M132.088,653.277c-0.918,0-2.464-1.177-6.202-1.177l-47.8,51.076c0,1.396,1.648,4.822,3.276,5.767
	C100.368,693.082,115.899,670.642,132.088,653.277"/>
<path fill="#01A650" d="M121.877,644.617c0-4.154-1.493-5.541-5.312-5.541L68.738,688.34c0.932,2.332,2.489,5.9,4.261,6.605
	C81.609,688.753,121.877,647.171,121.877,644.617"/>
<path fill="#01A650" d="M157.277,656.876c0-7.588-12.425-4.506-15.674-1.545c-13.58,12.465-53.281,61.873-53.281,63.856
	c0,3.886,4.86,8.324,8.113,8.324L157.277,656.876z"/>
<path fill="#01A650" d="M176.887,659.96c-2.271-2.277-2.7-7.889-7.459-3.234c-24.706,24.199-66.205,77.148-66.205,79.248
	c0,1.855,7.588,9.304,9.922,10.246L176.887,659.96z"/>
<path fill="#01A650" d="M122.78,624.27c0-4.101-1.453-5.716-5.24-5.716c-13.059,9.759-56.258,50.414-56.258,54.505
	c0,3.643,3.616,4.141,6.211,4.141L122.78,624.27z"/>
<path fill="#01A650" d="M202.944,653.251c-0.942,0-2.229-1.18-2.229-1.18c-3.735,0.928-9.567,1.047-10.669,2.368
	c-23.936,29.07-46.062,61.916-68.788,92.904c-1.702,2.355-2.332,5.66-2.108,7.168c3.735,2.674,9.017,6.64,11.113,6.64
	C134.681,761.152,183.704,681.443,202.944,653.251"/>
<path fill="#01A650" d="M125.557,601.91c0-1.404-1.676-6.084-3.682-4.854c-19.806,12.195-28.403,26.795-67.122,59.668
	c-3.354,2.855,1.021,6.474,5.295,6.474L125.557,601.91z"/>
<path fill="#01A650" d="M225.279,652.267c-5.11,0.931-9.489-0.141-11.795,1.158c-6.635,3.666-10.342,13.871-12.638,17.508
	c-17.695,27.914-62.181,91.843-62.181,93.929c0,1.881,8.966,9.328,12.109,9.328C155.915,774.189,215.737,667.892,225.279,652.267"/>
<path fill="#01A650" d="M68.648,581.107c0-4.203,0.785-3.367-4.169-4.541c-5.597,2.78-11.507,5.67-16.212,8.459
	c0,5.006-0.277,4.551,5.202,4.551C58.135,586.785,64.009,583.791,68.648,581.107"/>
<path fill="#01A650" d="M84.507,581.099c0-4.192,0.789-3.358-4.192-4.532c-12.138,8.254-24.326,17.452-32.952,23.405
	c0,4.189-0.787,3.354,4.207,4.552C62.761,597.039,74.259,588.429,84.507,581.099"/>
<path fill="#01A650" d="M124.223,566.623c0-4.008-12.008,0.631-12.008,0.631c-2.334,0.105-43.438,33.785-64.883,50.459
	c0,2.912,0.104,7.215,1.048,10.047h3.269L124.223,566.623z"/>
<path fill="#01A650" d="M250.536,652.072c0-2.332-3.264-2.801-5.584-2.801c-2.348,0-8.439,0.659-9.962,3.021
	c-28.901,44.525-55.521,90.57-74.868,124.375c5.599,2.791,14.196,7.771,16.293,7.771c3.383,0,9.28-11.219,9.384-11.418
	C207.466,733.001,250.536,654.158,250.536,652.072"/>
<path fill="#01A650" d="M143.279,569.281c0.565-6.062-1.362-4.861-3.694-4.861c-3.616,0-87.621,71.695-87.621,75.529
	c0,2.328,1.453,4.668,3.315,5.582L143.279,569.281z"/>
<path fill="#01A650" d="M298.001,808.476c-1.863-11.194-2.859-19.245-3.804-25.771h-3.514c0,9.721,1.348,17.332,2.935,26.824
	L298.001,808.476z"/>
<path fill="#01A650" d="M98.926,570.244c2.7-5.223-1.151-6.191-1.151-6.191c-1.679,1.222-39.43,1.263-45.089,2.125
	c-0.921,0.578-2.99,3.188-2.99,4.123C61.937,571.316,87.549,573.371,98.926,570.244"/>
<path fill="#01A650" d="M313.87,818.718l-13.023-50.746c-3.081,4.209-2.402,2.416-3.698,9.521
	c3.731,13.985,7.692,28.338,12.358,42.322L313.87,818.718z"/>
<path fill="#01A650" d="M275.636,635.427h-9.963l-78.512,152.646c0,0.469,0.264,1.951,1.204,2.866c4.652,0,10.896,0.97,13.214,0.97
	c2.332,0,4.693-0.207,5.638-1.123C230.18,739.511,253.381,686.781,275.636,635.427"/>
<path fill="#01A650" d="M331.552,833.77v-3.257l-26.503-65.651l-1.36,5.178l22.558,64.684
	C329.052,834.722,330.554,833.77,331.552,833.77"/>
<path fill="#01A650" d="M307.145,713.66c-6.395,0-27.867,63.541-31.17,73.928c-1.427,4.432-0.076,9.693-0.194,13.551
	c2.831,1.246,8.428,3.357,11.102,0.763v-5.898c0.014-15.621-3.513-7.574,19.189-49.067
	C306.702,721.234,307.145,713.66,307.145,713.66"/>
<path fill="#01A650" d="M344.698,824.554l-28.164-68.924c-2.808,0-5.322,1.064-6.242,1.064
	c9.311,24.229,18.732,48.946,27.237,73.202c0.709,0.912,2.229,1.136,3.16,1.136C342.563,829.164,343.768,826.878,344.698,824.554"/>
<polygon fill="#01A650" points="135.757,559.167 134.749,555.013 52.065,555.013 53.077,559.167 "/>
<path fill="#01A650" d="M355.882,813.431l-22.562-56.832h-9.055v3.252l25.398,60C351.525,818.91,354.017,815.767,355.882,813.431"/>
<path fill="#01A650" d="M368.224,808.927c-7.941-17.489-15.349-35.012-23.733-52.289h-5.31
	c8.847,18.479,15.372,40.623,24.696,55.771L368.224,808.927z"/>
<path fill="#01A650" d="M376.382,803.47l-18.825-46.871h-6.267c0,9.074,22.312,52.105,22.312,52.105
	C377.219,808.705,376.382,807.023,376.382,803.47"/>
<path fill="#01A650" d="M192.445,537.429c-12.124-0.928-33.75-0.969-36.059-0.969H133.07l-56.438,0.937
	c-8.393,0.911-17.134,2.174-24.593,2.981l1.037,3.541c13.973,0.824,12.979,0,15.309,0h23.068h98.018
	C192.851,543.919,194.897,539.74,192.445,537.429"/>
<path fill="#ED1C25" d="M229.159,592.218c0,0-26.293-26.85-28.625-26.842h-45.743c-9.321,9.348-17.956,19.283-27.277,28.604
	C161.474,592.917,195.197,592.578,229.159,592.218"/>
<path fill="#01A650" d="M390.341,794.146l-18.822-38.531c-4.657,0-7.146,1.063-8.091,1.063c4.092,12.687,10.919,29.529,16.87,43.279
	C385.946,801.373,390.341,800.156,390.341,794.146"/>
<path fill="#01A650" d="M199.052,518.781h-7.604c-18.623,0-38.074,1.125-56.976,1.822l-80.556,2.973l1.021,3.57h96.195
	c2.317,0,22.529-0.345,33.645,0.336C191.37,527.888,204.292,529.474,199.052,518.781"/>
<rect x="232.015" y="635.857" fill="#01A650" width="22.978" height="8.647"/>
<path fill="#01A650" d="M182.38,558.667l-1.012-4.838h-34.207l0.995,4.91C159.349,558.738,171.186,559.574,182.38,558.667"/>
<path fill="#01A650" d="M404.914,795.281l-19.399-39.568h-6.239c3.973,10.773,16.949,41.797,20.437,41.797
	C403.313,797.509,404.914,795.281,404.914,795.281"/>
<path fill="#01A650" d="M197.202,505.808H55.802c0,5.386,0.186,7.332,7.812,7.332h69.915c2.332,0,55.013-1.856,57.33-1.856
	C195.748,511.283,198.777,510.667,197.202,505.808"/>
<path fill="#01A650" d="M419.427,793.576c-6.53-12.123-13.397-26.754-18.064-37.904h-10.904c0,7.906,14.484,30.568,18.717,38.758
	C409.883,795.361,418.635,794.955,419.427,793.576"/>
<path fill="#01A650" d="M300.866,625.375c-0.94-0.947-9.975-1.23-9.975-1.23c-1.857,2.781-3.118,6.736-3.354,9.523
	c-2.565,2.102-5.319,3.059-5.978,4.709c-4.781,12.1-12.385,35.479-12.385,37.459c0,3.592,0.876,3.219,4.377,3.219
	c6.515-6.494,15.101-14.334,17.604-19.801C296.4,647.892,298.178,636.55,300.866,625.375"/>
<path fill="#01A650" d="M201.935,498.123c0-4.062-1.547-5.385-5.938-5.488l-127.729-2.799c-2.319,0-9.684,1.117-13.462,2.875
	c0,4.078-0.234,3.223,1.182,4.562l69.151-2.312L201.935,498.123z"/>
<path fill="#ED1C25" d="M188.999,488.357c-28.104-13.17-32.39-14.375-51.275-14.375l-80.139,6.834
	c3.724,4.082,11.377,0.637,15.938,0.637c23.202,0,43.45,1.856,64.777,1.856C147.344,483.312,184.646,492.71,188.999,488.357"/>
<path fill="#01A650" d="M438.195,792.726l-23.788-37.108c-6.087,0-4.904-0.349-6.31,1.826l16.99,35.356
	C436.62,792.8,434.155,792.8,438.195,792.726"/>
<path fill="#FFF200" d="M213.235,485.564c-14.224-7.103-25.232-14.089-40.396-19.24c-14.744-5.021-26.674-8.176-43.501-8.176
	c-26.141,0-35.652,6.444-68.056,14.483c5.109,0.455,13.199-0.121,18.231-0.75c16.504-2.059,28.165-4.692,44.721-5.582
	c42.429-2.309,33.386,1.572,71.658,16.697c3.25,1.301,12.452,4.051,14.55,4.051C212.774,487.048,212.302,486.496,213.235,485.564"/>
<path fill="#01A650" d="M352.876,674.982c-0.914-1.875-5.569-8.847-6.516-10.726h-3.273c-1.873,2.763-3.014,6.162-3.935,8.968
	C349.22,678.255,344.398,675.414,352.876,674.982"/>
<path fill="#01A650" d="M458.669,785.048l-39.115-49.041c0.919,4.076-0.259,12.322-0.259,14.422
	c0,2.318,15.096,26.478,22.567,38.363C447.18,790.126,453.974,787.414,458.669,785.048"/>
<path fill="#ED1C25" d="M422.047,700.267c-5.612-6.524-10.462-13.645-15.125-20.194h-79.354
	c-4.312-0.025-18.259,18.492-18.143,19.436L422.047,700.267z"/>
<path fill="#01A650" d="M341.853,628.65c0-4.037,0.235-3.197-1.177-4.484h-34.043c-1.637,11.236-4.494,23.172-6.958,34.338
	L341.853,628.65z"/>
<path fill="#ED1C25" d="M229.029,478.884c-12.872-6.436-25.859-14.233-38.434-20.344c-11.401-5.543-28.86-16.254-48.209-16.254
	c-2.328,0-28.102,2.229-41.614,5.967c-13.514,3.723-29.478,9.947-40.315,13.785v3.477h3.971c2.32,0.076,25.573-7.762,37.515-10.764
	c4.245-1.072,21.169-3.133,26.003-3.133c13.501,0,31.825,1.793,44.566,6.84c18.034,7.16,51.223,24.854,53.317,24.854
	C229.433,483.312,229.029,482.417,229.029,478.884"/>
<path fill="#01A650" d="M365.186,671.98c-2.791-4.652-6.094-12.064-8.9-15.779l-4.262,5.135c1.051,1.395,6.542,14.969,10.396,14.969
	C365.656,676.304,365.186,675.156,365.186,671.98"/>
<polygon fill="#ED1C25" points="298.808,577.056 273.62,550.873 214.377,550.873 239.503,577.056 "/>
<path fill="#FFF200" d="M232.816,473.505c-16.776-13.998-33.777-28.719-52.417-40.117c-10.812-6.606-40.461-12.284-53.529-8.44
	c-20.474,6.008-41.732,14.041-67.408,25.807c0,4.088-0.958,3.223,5.178,4.562c13.447-6.669,23.186-7.99,35.493-12.705
	c10.484-4.019,22.778-7.771,34.801-7.771c17.943,0,52.912,11.603,63.622,17.992c10.499,6.271,29.372,22.098,31.47,22.098
	C232.355,474.925,231.885,474.425,232.816,473.505"/>
<path fill="#01A650" d="M478.952,778.857c0-2.101-41.389-50.631-60.393-72.304c-0.734-0.293,0.732,17.158,1.729,18.755
	c8.072,13.202,45.271,60.075,48.874,60.075C469.164,785.384,478.952,782.832,478.952,778.857"/>
<path fill="#FFFFFF" d="M250.497,546.148c-6.017-4.511-13.894-7.318-17.932-13.658c-5.962-9.385-6.266-15.851-6.266-22.152
	c0-2.332-0.275-6.264,1.1-8.611c3.724-6.368,8.221-6.646,8.221-10.971c0-2.303-0.275-2.75-1.207-3.69h-10.342
	c-2.332-0.017-10.118,4.549-13.475,7.928c-2.123,2.096-4.26,5.49-4.572,7.348c-0.458,2.771-1.377,7.283-0.93,9.492
	c2.305,11.299,1.468,20.186-1.484,26.768c-1.479,3.304-3.931,6.298-3.233,8.414C217.086,547.013,225.753,545.298,250.497,546.148"/>
<path fill="#01A650" d="M350.924,610.193h-60.188l0.998,9.123c13.973-0.92,39.923,0.106,42.242,0.106
	c2.561,0,10.446-0.86,15.125-2.125C351.525,615.46,354.073,613.009,350.924,610.193"/>
<path fill="#01A650" d="M382.736,674.13c-3.711-6.526-11.231-16.397-15.889-22.908c-3.943,0-3.115-0.791-4.428,4.181
	c1.4,2.688,11.072,19.957,13.982,19.957C380.181,675.359,376.486,674.236,382.736,674.13"/>
<path fill="#ED1C25" d="M236.393,465.564v-3.406c-12.924-11.197-25.873-20.974-37.289-30.945
	c-22.359-19.52-12.269-24.347-45.05-24.347c-33.714,0-60.137,16.136-90.664,27.435c-6.435,4.029,1.994,4.814,3.997,5.193
	c28.326-12.123,45.379-23.302,76.404-23.302c11.438,0,43.921,9.53,51.864,17.919C207.677,446.779,222.893,457.621,236.393,465.564"
	/>
<path fill="#01A650" d="M352.813,598.957l-61.079-4.582l-0.959,9.994c11.761-1.445,22.298,1.084,33.986,1.084h28.052
	C355.311,602.869,355.433,601.574,352.813,598.957"/>
<path fill="#01A650" d="M401.507,674.13l-25.336-30.369c-3.938,0-3.12-0.801-4.406,4.261c1.052,1.045,16.646,25.479,20.484,25.479
	C396.652,673.503,401.507,674.13,401.507,674.13"/>
<path fill="#01A650" d="M359.419,582.013h-67.686l-0.998,6.502c22.834,0,42.256,2.908,68.684,2.908
	C360.345,588.564,360.359,585.025,359.419,582.013"/>
<path fill="#01A650" d="M503.178,767.558L386.835,631.613c-1.386,0-3.904,3.26-4.834,5.606l48.481,65.312
	c-0.104,1.522-1.979,3.371-3.721,3.975l62.608,69.988C492.302,776.156,502.025,772.697,503.178,767.558"/>
<path fill="#ED1C25" d="M240.221,436.072c-3.227-4.066-5.676-8.215-7.891-10.437c-16.069-16.077-43.544-43.184-51.934-48.188
	c-3.157-1.87-19.923-3.921-23.775-1.87c-30.776,16.393-64.814,34.32-91.618,49.475l2.019,0.808
	c15.284-6.889,31.956-13.72,44.354-20.213c19.949-10.463,21.571-21.154,48.261-21.154c1.858,0,14.55,0.652,18.481,2.188
	c6.867,2.652,20.104,10.375,25.927,16.308c17.301,17.675,31.797,37.436,33.895,37.436
	C241.087,440.419,240.221,438.689,240.221,436.072"/>
<polygon fill="#01A650" points="271.837,499.513 271.837,495.111 240.38,495.111 241.399,499.513 "/>
<path fill="#01A650" d="M363.219,576.48c0-3.802,0.837-7.312-0.091-9.199h-57.291c-0.934,0.899-2.15,1.807-2.15,4.139
	c0,2.1,3.144,5.131,5.228,5.061H363.219L363.219,576.48z"/>
<path fill="#FFF200" d="M240.273,452.943c-15.846-15.854-29.375-37.436-49.608-51.244c-16.478-11.24-43.139-14.299-59.472-0.958
	c4.956,5.315,10.502-2.307,16.778-2.27c39.545,0.179,62.968,33.658,90.938,56.867C239.827,454.398,240.273,452.943,240.273,452.943"
	/>
<path fill="#FFF200" d="M240.221,414.665c0-2.321-12.113-11.603-17.539-17.896c-7.104-8.257-26.829-32.022-34.865-36.112
	c-8.518-4.365-23.119-6.659-32.139-1.868c-34.275,18.224-64.972,36.885-92.393,53.889v3.436
	c18.729-9.311,37.235-18.374,53.698-28.199c11.902-7.084,27.814-19.274,42.179-19.274c9.793,0,25.643,0.918,31.934,8.687
	c9.108,11.203,25.334,24.601,44.8,43.45C241.021,420.771,240.171,421.91,240.221,414.665"/>
<path fill="#01A650" d="M346.469,526.066v-3.377c-1.836-0.933-4.678-1.158-7.01-1.158c-8.694,0-13.047-0.104-17.358-0.056
	c-9.95,0.138-19.896,1.05-82.651,5.836l1.021,4.396L346.469,526.066z"/>
<path fill="#01A650" d="M354.831,536.332v-4.406h-18.877c-25.479,0-51.312,2.701-76.698,3.961c-0.935,0.588-2.99,2.289-2.99,3.226
	c0.941,0,2.02,1.032,2.937,1.979c9.126,0,13.604,0.104,18.087,0.047C287.081,541.007,296.844,540.212,354.831,536.332"/>
<path fill="#01A650" d="M365.081,561.298l-0.97-6.08h-53.793c-2.336-0.104-12.847-0.207-18.438,0.252
	c-0.936,0.588-2.153,3.054-2.153,4l2.141,1.83h73.215L365.081,561.298L365.081,561.298z"/>
<path fill="#01A650" d="M529.315,755.511l-133.786-143.67c-0.696,1.73-4.482,8.681-4.153,10.121l122.313,144.729
	C519.061,766.693,526.286,760.033,529.315,755.511"/>
<polygon fill="#01A650" points="335.248,514.871 335.248,511.438 327.464,510.339 240.38,517.99 241.399,522.384 "/>
<polygon fill="#01A650" points="324.972,506.488 324.972,502.318 234.794,506.787 235.814,511.193 "/>
<path fill="#01A650" d="M359.493,547.486c0-1.863-0.954-4.365-0.954-5.297c-17.628,0.422-79.757,1.676-69.781,1.729
	c-2.16,0-7.435,1.467-7.435,4.328l2.125,2.146c20.525,0,19.425-0.887,21.759-0.887h35.181
	C342.719,549.507,353.915,548.408,359.493,547.486"/>
<path fill="#ED1C25" d="M239.094,390.486c-6.057-2.682-10.014-8.61-13.842-12.948c-8.413-9.568-18.979-18.856-26.559-28.049
	c-35.229-18.339-42.006-7.224-129.812,48.27v3.458c28.757-17.138,56.101-29.409,86.376-51.892c2.938-2.203,22.387-1.371,25.64,0.05
	c15.374,6.673,31.012,20.863,43.869,37.718c3.382,4.456,9.557,7.529,14.104,11.381C241.373,396.156,242.683,392.717,239.094,390.486
	"/>
<path fill="#FFF200" d="M229.052,362.359c-19.24-12.593-38.062-37.539-62.416-37.539c-26.109,0-73.598,48.112-97.82,62.562
	c0,4.214-0.798,3.358,4.21,4.56c26.567-19.359,62.48-47.486,82.153-57.505c7.145-3.637,14.249-0.294,21.184,0.403
	c14.104,1.405,27.929,12.791,43.201,28.066c2.857,2.857,1.599,6.633,6.446,6.633C229.343,366.198,229.052,368.007,229.052,362.359"
	/>
<path fill="#ED1C25" d="M229.029,348.426c-17.562-20.161-41.42-35.728-61.946-35.728c-30.75,0-57.724,32.521-92.602,58.048v3.434
	c12.214-8.397,27.146-18.891,36.031-25.445c20.578-15.191,39.372-30.44,56.567-30.44c7.157,0,23.636,5.635,27.695,8.644
	c4.549,3.358,12.072,8.095,14.915,10.257c5.521,4.188,14.982,15.6,17.08,15.6C229.892,352.792,229.029,351.042,229.029,348.426"/>
<path fill="#01A650" d="M551.677,737.83c0-2.322-83.156-82.945-125.07-123.156c-4.587-4.418-12.727-11.348-13.657-13.604
	c-3.514-8.572-2.121-16.955-4.089-25.351h-3.393c-2.797,10.263-3.87,20.084-4.787,28.941l136.851,145.271
	C538.579,749.812,551.677,742.039,551.677,737.83"/>
<path fill="#01A650" d="M566.591,720.054L438.1,598.031c-6.252,0-11.835-0.918-18.718-0.918v3.424L557.2,729.443
	C560.483,727.583,564.726,723.311,566.591,720.054"/>
<path fill="#01A650" d="M413.631,568.81v-12.594l-5.979-1.1c-5.815,0.44-7.01,4.432-7.01,7.914c0,2.34,1.021,5.979,2.085,7.891
	h5.711C410.774,570.951,412.722,569.746,413.631,568.81"/>
<path fill="#ED1C25" d="M346.52,483.064c0-3.449,0.104-3.923-3.013-5.886c-7.682-2.646-13.41-6.237-20.529-9.336
	c-4.798-2.069-15.805-2.254-17.901-2.254c-4.771,0-5.872-0.238-10.671,2.908v3.412c15.177,0.18,16.502,0.209,18.585,0.209
	c2.335,0,15.572,5.02,22.729,6.869c2.808,0.721,5.951,5.256,8.049,5.256C346.1,484.244,345.594,483.992,346.52,483.064"/>
<path fill="#01A650" d="M584.288,699.976L465.61,596.285h-18.322l127.033,116.33C580.325,712.613,581.842,704.929,584.288,699.976"
	/>
<path fill="#01A650" d="M413.601,549.32v-18.271c-6.354-1.404-13.262,0.394-18.535,4.65c0.71,5.836,3.464,15.68,9.312,15.68
	C406.699,551.378,410.799,550.255,413.601,549.32"/>
<path fill="#ED1C25" d="M354.911,469.574c-10.266-7.445-21.92-12.373-29.95-19.029c-7.71-6.369-19.415-6.959-26.755-5.682
	c-0.707,0.242-1.819-0.595-4.625-0.595c-0.852,5.539-2.229,13.88,5.439,13.88c16.92,2.817,22.684,1.127,26.45,2.186
	c8.703,2.453,25.397,13.65,26.684,13.65C355.458,473.982,354.911,472.775,354.911,469.574"/>
<path fill="#ED1C25" d="M359.577,459.326c-8.403-5.609-15.099-12.795-23.505-17.566c-8.03-4.535-20.023-8.229-27.209-9.022
	c-9.372-1.035-6.959-2.705-18.179,0.444l1.05,3.537c9.318,0.814,9.619-0.012,11.953-0.012c11.531,0,31.979,10.023,43.043,19.816
	c0.211,0.182,4.381,7.209,10.093,7.209C360.111,463.732,359.577,462.509,359.577,459.326"/>
<path fill="#01A650" d="M597.305,677.484l-100.942-82.127H475.26l110.759,95.834C588.345,691.085,597.551,680.287,597.305,677.484"
	/>
<path fill="#FFF200" d="M361.436,444.447c-2.545-2.566-5.611-7.56-8.857-10.097c-4.799-3.715-13.582-8.471-17.462-10.312
	c-9.146-4.341-21.981-9.708-30.803-13.066c-4.639-1.763-10.586-1.234-15.493-1.234c0,5.033-0.757,10.296,2.046,14.773
	c2.791,0,3.484-1.796,5.816-1.796c2.338,0,13.528,0.749,17.562,2.181c10.465,3.75,20.306,9.045,29.74,14.881
	c4.813,2.973,12.127,9.967,14.227,9.967C362.221,449.744,361.436,448.447,361.436,444.447"/>
<path fill="#01A650" d="M443.857,520.457V505.88l-6.411-1.123l-44.185,14.152v3.317c2.773,1.859,5.737,3.043,7.851,3.043
	C403.431,525.273,443.857,520.457,443.857,520.457"/>
<path fill="#ED1C25" d="M371.686,437.361v-5.101c-7.809-3.893-13.445-12.553-16.055-13.817c-5.284-2.548-18.225-8.67-23.372-10.272
	c-6.845-2.14-26.028-7.751-31.037-7.751h-14.21l0.959,5.381c5.127,0.932,13.488-0.577,17.927,0.473
	c10.449,2.419,20.66,7.453,29.808,10.248c5.912,1.794,11.972,4.197,16.608,8.291c6.672,5.871,12.793,12.121,17.119,14.68
	L371.686,437.361z"/>
<path fill="#01A650" d="M443.857,498.068v-3.275c0,0-5.535-2.16-6.451-2.16l-52.532,14.221c1.209,5.189,0.105,4.3,5.871,4.382
	c8.938,0.129,17.691-2.548,26.318-4.854C425.06,504.23,443.857,498.068,443.857,498.068"/>
<path fill="#01A650" d="M606.265,657.066c-27.966-21.324-58.642-42.265-85.683-62.625h-15.492l94.456,77.186
	c0.917,0,2.38-1.102,2.38-1.102C602.857,665.402,606.391,660.921,606.265,657.066"/>
<path fill="#01A650" d="M443.857,485.958v-4.217c0,0-6.438-2.15-7.84-2.15l-54.869,13.25l1.011,4.394
	c13.019,0,26.161-3.045,38.654-6.709C428.046,488.398,443.857,485.958,443.857,485.958"/>
<path fill="#FFF200" d="M383.848,421.296c-3.722-3.737-8.389-7.492-11.768-9.37c-3.387-1.871-7.854-2.974-9.889-4.281
	c-14.848-9.72-35.886-16.914-54.259-18.726c-2.808-0.265-6.359-2.56-8.443-2.56c-2.345,0-7.891,2.024-11.613,3.998l1.022,2.51
	c9.673,4.083,8.364,0.011,12.452,0.011c6.868,0,57.41,18.095,58.445,18.901c5.345,4.14,14.86,14.667,16.604,14.667
	C378.727,426.445,382.224,423.385,383.848,421.296"/>
<path fill="#01A650" d="M443.857,470.205v-3.457l-11.118-1.129l-53.465,13.234l1.012,4.409h4.849c5.56,0,23.271-2.887,29.1-3.922
	C423.62,477.688,443.857,470.205,443.857,470.205"/>
<path fill="#FFF200" d="M294.351,301.515c0-2.334-2.882-4.315-3.512-6.213c-2.855-8.547-24.574-23.619-38.901-23.619
	c-2.332,0-7.705,0.063-10.538,0.35c-13.829,1.342-30.827,8.839-42.413,25.96c-1.968,2.906-7.185,8.642-7.158,10.63v2.922
	c12.164,6.522,24.693,16.079,36.807,23.529c3.75-2.794,9.029-7.191,11.351-8.073c12.715-4.803,27.686-7.749,40.106-13.643
	C284.526,311.258,294.351,305.354,294.351,301.515"/>
<path fill="#01A650" d="M611.286,637.273c-9.195-6.289-62.183-43.933-67.996-43.933l-12.092,0.367l75.018,56.49
	C609.599,647.863,611.286,640.421,611.286,637.273"/>
<path fill="#ED1C25" d="M390.311,412.246v-4.242c-4.681-1.989-10.393-3.408-14.118-5.958c-5.198-3.56-10.669-9.18-14.051-10.643
	c-5.659-2.457-15.754-6.363-21.546-7.491c-11.926-2.319-35.992-7.812-37.854-7.812c-2.318,0-3.854,2.603-3.642,3.551
	c8.177,4.429,17.691,1.701,21.648,3.302c14.879,5.931,24.446,4.986,43.754,16.731c7.233,4.4,21.562,13.702,23.54,13.702
	C390.39,413.386,390.311,412.246,390.311,412.246"/>
<path fill="#FFF200" d="M317.577,326.574v-3.545l-4.18-1.002c-3.263,1.758-9.476,2.793-11.573,2.793
	c-2.334,0-14.931-2.81-17.251-2.81c-5.488,0-6.422,0.35-15.101,3.526c-4.334,1.613-11.296,0.941-14.928,2.46
	c-1.874,0.792-4.939,1.599-4.939,3.7v3.161c14.288,0.185,22.491-1.652,24.825-1.652h23.068c2.335,0,7.838-0.353,10.511-1.187
	C311.286,331.008,314.802,328.442,317.577,326.574"/>
<path fill="#01A650" d="M443.857,458.906c0,0-4.763-6.367-6.848-6.367c-2.348,0-33.499,6.738-49.344,10.471l1.06,4.365
	L443.857,458.906z"/>
<path fill="#ED1C25" d="M344.634,345.188v-3.514l-4.167-1.009c-5.585,1.865-11.248,2.635-16.777,3.158
	c-5.438,0.507-18.77,4.708-24.525,6.291c-0.929,2.804-1.012,5.384-0.89,8.173c13.984-3.729,29.372-7.518,43.345-10.438
	C342.563,347.153,343.716,346.009,344.634,345.188"/>
<path fill="#01A650" d="M443.857,446.806v-5.153c0,0-4.537-2.158-6.848-2.158c-2.348,0-18.167,3.479-27.548,4.076
	c-2.775,0.188-7.104,3.727-9.7,4.522l1.049,4.404h5.781C408.911,452.539,443.857,446.806,443.857,446.806"/>
<path fill="#01A650" d="M613.046,630.561l1.707-15.568l-52.856-24.463c-1.396,0.951-3.637,2.541-3.637,3.487L613.046,630.561z"/>
<path fill="#ED1C25" d="M401.572,397.539c0-1.974-2.857-5.439-4.979-6.147c-20.082-6.734-39.099-17.579-61.607-21.117
	c-6.447-1.015-3.483-1.565-13.444-1.565c0,1.002-0.973,2.565-0.973,3.499c18.718,3.114,35.021,8.134,52.354,17.589
	c7.679,4.188,13.841,13.341,22.595,13.341C397.835,403.136,401.572,399.521,401.572,397.539"/>
<rect x="449.255" y="426.583" fill="#ED1C25" width="8.598" height="93.873"/>
<path fill="#FFF200" d="M406.173,372.092v-3.266c-12.311-3.502-21.116-4.4-31.051-6.938c-5.34-1.342-23.543-9.097-33.229-9.097
	c-2.319,0-6.369,3.972-8.938,4.43c-10.686,1.95-23.479,4.254-32.916,6.936c0,4.67,1.025,6.247,1.025,7.18
	c3.717-0.933,7.914-0.87,10.721-1.098c1.859-1.641,3.841-4.766,5.479-4.984c4.194-0.577,11.351-2.212,13.448-2.212
	c19.387,0,37.512,10.296,55.284,18.029c2.897,1.26,9.517,7.148,14.644,7.148c2.318,0,2.748-0.259,3.684-1.19v-3.224
	c-4.941-3.288-9.52-7.542-15.205-9.203c-7.089-2.084-15.258-2.523-21.439-4.314c-6.881-1.983-19.561-6.842-25.783-10.401
	l6.958-0.572c12.346,3.608,22.229,9.741,37.332,9.678c4.901-0.014,13.524,5.245,15.388,5.245
	C403.902,374.235,405.266,373.132,406.173,372.092"/>
<path fill="#01A650" d="M443.857,431.869v-3.271c0,0-2.665-2.151-4.983-2.151c-2.334,0-16.479,2.809-24.835,5.02
	c-3.688,0.98-7.673,4.355-3.786,8.006h4.729C417.301,439.494,443.857,431.869,443.857,431.869"/>
<path fill="#01A650" d="M520.848,487.781v-3.238c-1.835-1.871-4.051-3.09-4.982-4.02l-51.771,22.58v12.77L520.848,487.781z"/>
<polygon fill="#01A650" points="615.337,594.455 561.135,576.642 561.135,582.865 615.337,607.152 "/>
<path fill="#01A650" d="M531.15,496.892c-1.862-1.875-3.251-4.258-5.114-5.188l-52.66,28.729h18.977
	c2.334,0.17,16.672-10.864,24.642-16.33C521.202,501.175,526.509,499.8,531.15,496.892"/>
<path fill="#01A650" d="M511.563,474.533c-1.831-1.881-2.775-5.203-5.109-5.203c-2.332,0-42.359,16.973-42.359,16.973v9.982
	C464.094,496.287,497.593,481.974,511.563,474.533"/>
<path fill="#01A650" d="M614.803,587.111v-4.394c-16.729-6.526-37.753-12.606-54.579-18.19v5.307L614.803,587.111z"/>
<path fill="#FFF200" d="M448.154,316.727l-7.969-1.227c-6.173,2.918-12.188,5.825-15.835,6.296
	c-10.066,1.261-27.212,2.081-29.309,2.081c-2.328,0-24.233-1.865-26.111-1.865c-2.332,0-19.107,4.214-28.492,5.367
	c-4.56,0.577-11.636-1.419-14.812,0.042c-30.396,14.009-55.286,10.617-87.11,16.213c0,2.789,0.984,4.378,0.984,5.299
	c5.599-0.471,16.396,1.064,18.494,1.064c2.334,0,16.461-0.085,24.771-1.165c4.797-0.65,9.832-2.11,13.092-2.812
	c4.785-1.031,10.172-4.282,13.056-5.018c13.873-3.544,38.354-4.781,42.01-6.206c17.433-6.751,16.857-8.121,23.148-8.121
	c2.332,0,25.163,5.6,27.5,5.6c6.422,0,11.032,0.041,19.368-5.313c1.979-1.286,6.003-0.966,7.068-1.502
	C433.811,322.53,444.329,321.623,448.154,316.727"/>
<path fill="#01A650" d="M500.347,465.332c-0.928-2.793-4.036-7.184-6.844-9.979c-9.329,3.74-29.411,11.423-29.411,11.423v11.741
	L500.347,465.332z"/>
<path fill="#01A650" d="M605.689,572.578c-11.888-9.445-30.473-21.029-45.465-28.604v11.861L605.689,572.578z"/>
<path fill="#ED1C25" d="M405.161,342.466v-4.426c-8.046-1.343-22.177-4.833-29.7-4.833c-2.319,0-10.824,2.779-16.409,4.09
	c-1.745,0.407-4.979,2.83-6.84,3.65c0.918,2.794-0.908,6.146-0.908,7.896c14.458,6.201,27.693,5.742,35.653,8.921
	c4.062,1.626,10.421,3.414,12.278,3.414c2.336,0,4.274-0.279,5.1-1.21v-4.09c-1.871-1.869-3.049-4.981-4.232-6.38
	c-2.673-1.277-7.26-3.234-9.25-3.234c-1.979,0-2.572,1.865-4.667,1.865c-7.563,0-18.812-1.15-24.771-4.292
	c0-3.018-0.131-2.432,0.706-3.197C376.417,340.64,381.754,342.466,405.161,342.466"/>
<path fill="#01A650" d="M488.223,451.384c-0.47-1.641-15.559-23.069-20.105-23.008h-4.023v30.609
	C464.094,458.986,481.681,453.125,488.223,451.384"/>
<path fill="#01A650" d="M587.067,546.98l-26.872-21.306l0.88,8.781c7.432,5.479,24.094,19.373,26.438,19.373
	C588.065,553.83,587.067,548.089,587.067,546.98"/>
<path fill="#01A650" d="M611.314,552.484C573.54,515.648,492.704,423.64,486.399,423.64c-2.305,0-5.764,1.205-8.335,1.205
	l135.867,144.333C613.931,564.527,611.314,556.791,611.314,552.484"/>
<path fill="#ED1C25" d="M387.521,283.636v-3.207c-3.564-7.337-12.062-8.747-17.185-8.747c-2.319,0-9.451,0.667-12.351,2.268
	c-5.438,3.001-9.737,6.953-12.867,9.367c-4.972,3.801-11.549,10.847-16.084,14.33c-4.075,3.125-12.873,4.713-17.645,7.065
	c-3.957,1.948-7.612,3.623-11.379,5.254c0,4.071-3.966,5.335-2.593,6.673l7.535-2.088c2.349,0.015,13.396-5.881,18.939-8.056
	c3.473-1.384,8.378-2.447,12.112-2.447c1.857-1.63,3.144-3.82,3.745-4.086c5.44-2.38,13.059-6.914,15.759-7.442
	C365.962,290.511,376.644,286.324,387.521,283.636"/>
<path fill="#01A650" d="M612.231,542.74l-2.904-18.129L503.374,421.812c-1.398,0-3.862,1.188-5.727,1.188L612.231,542.74z"/>
<path fill="#FFF200" d="M434.193,295.919c0-7.235-18.165-13.986-21.898-13.986c-2.332,0-9.698,3.406-14.146,5.048
	c-3.144,1.14-7.012,2.511-9.438,3.224c-2.7,0.778-5.701,2.804-7.312,3.288c-10.028,2.977-30.186,1.915-40.212,20.91
	c-5.939,0.353-19.021-2.017-17.87,4.58c3.371,0,10.438,2.116,12.532,2.116c8.038,0,7.811-4.534,19.805-11.503
	c1.614-0.924,2.835-3.728,3.659-4.04c9.291-3.323,26.646-9.636,28.729-9.636c8.388,0,22.531,1.92,31.604,4.068
	c1.744,0.401,3.604,2.46,5.701,2.46C426.634,302.447,434.193,298.708,434.193,295.919"/>
<path fill="#ED1C25" d="M443.012,307.69c0.344-0.695-2.212-2.441-2.212-2.441c-2.336,0.928-7.3,2.794-9.397,2.794
	c-2.335,0-39.151-6.528-41.485-6.528c-10.601,0-26.462,10.654-35.835,14.025c0,4.108-0.224,3.24,1.142,4.595
	c11.169,0,21.603-3.495,32.639-3.495c2.332,0,23.804,0.915,31.954-0.452C427.521,314.896,436.594,309.555,443.012,307.69"/>
<path fill="#FFF200" d="M590.719,412.283v-5.239c-10.246-1.881-22.451-5.481-30.132-6.352c-14.054-1.586-39.455-5.021-41.538-5.021
	c-2.331,0-15.454,2.893-18.376,4.12c-19.146,8.021-19.738,4.458-36.279,8.364c-14.181,3.353-31.729,9.847-43.161,11.954l1.021,4.417
	c5.349,0,9.832-0.9,15.021-1.144c8.51-6.532,26.926-9.376,36.646-11.529c31.592-6.979,37.671-10.59,53.519-10.59
	c6.736,0,9.763-0.104,12.677,0.377c3.957,0.646,7.733,2.364,20.258,6.82c4.332,1.538,10.335-0.041,13.113,0.606
	C578.545,410.244,585.595,413.68,590.719,412.283"/>
<path fill="#01A650" d="M606.539,509.398c0-0.791,0.605-13.869-1.278-15.695c-26.807-25.887-63.891-57.082-84.638-73.75
	c-4.851,0-3.854-0.266-5.309,1.425L606.539,509.398z"/>
<path fill="#ED1C25" d="M544.204,410.222c-5.348-3.266-12.11-3.356-16.766-3.356c-17.707,0-30.068,8.644-51.289,10.721
	C523.101,417.585,544.204,410.222,544.204,410.222"/>
<path fill="#FFF200" d="M588.863,389.039v-5.232c-4.485-3.158-25.467-0.94-32.93-4.886c-17.326-9.132-36.479-9.453-54.341-0.553
	c-5.81,2.885-11.812,10.03-15.796,11.52c-19.938,7.354-42.741,11.433-57.844,18.897l-2.936,4.511
	c12.621-3.036,26.545-9.412,47.004-12.257c8.19-1.155,12.24-5.688,17.956-10.723c8.062-7.091,26.964-10.484,37.46-10.484
	C554.115,379.832,547.428,385.204,588.863,389.039"/>
<path fill="#FFF200" d="M529.286,350.374c-5.582-6.524-9.882-5.973-13.039-5.973c-13.566,0-24.483,9.313-38.233,9.313
	c-14.208,0-26.345,2.992-45.586,8.579c0,9.683,0.642,5.539,0.091,20.25c4.6,0,25.256-12.767,33.064-15.448
	c9.467-3.247,40.818-13.38,50.663-13.38c2.108,0,4.887,0.937,6.982,0.937C525.106,354.651,527.899,354.102,529.286,350.374"/>
<path fill="#01A650" d="M602.8,480.484c0,0-0.03-9.916-3.112-15.304c-20.159-15.27-41.092-31.014-60.436-46.959h-8.993
	L602.8,480.484z"/>
<path fill="#ED1C25" d="M587.51,377.941v-3.288c-22.532-7.019-22.683-3.396-47.267-16.792c-10.025-5.465-25.138,4.483-33.866,5.896
	c-9.15,1.462-23.083,4.077-31.773,7.121c-14.654,5.146-27.193,9.83-38.507,17.062l37.328-9.983c1.399,0,3.854,2.201,3.748,3.946
	c-14.69,7.339-30.464,9.849-43.621,13.23c-0.917,0.579-1.784,3.331-0.838,4.251c20.629-7.442,42.598-7.823,66.583-26.77
	c6.554-5.199,27.119-8.63,35.127-8.63c20.158,0,18.062,13.982,43.822,13.982C580.577,377.969,586.594,378.867,587.51,377.941"/>
<path fill="#01A650" d="M596.226,442.378c-13.069-9.426-41.405-27.127-43.149-27.127c-2.344,0-5.102,1.271-6.961,1.271
	l52.786,39.736C599.88,452.22,596.226,442.378,596.226,442.378"/>
<path fill="#ED1C25" d="M497.068,300.441c-13.995,8.385-24.768,15.327-38.352,21.396c-8.678,3.868-21.602,6.056-31.852,8.734v3.495
	h6.752c2.1,0.077,9.083-1.187,12.358-2.048c7.863-2.038,21.338-7.106,32.728-13.081c6.257-3.288,11.655-8.936,15.612-12.9
	C496.767,303.585,494.961,302.066,497.068,300.441"/>
<path fill="#ED1C25" d="M590.92,401.104l-3.038-5.268c-12.087-1.871-28.003-6.032-37.074-8.377
	c-3.979-1.037-19.843-2.044-23.367-2.044c-6.308,0-23.464,6.221-33.805,8.018c5.142-0.926,27.773-1.706,29.871-1.706
	C547.51,391.726,567.654,395.644,590.92,401.104"/>
<path fill="#01A650" d="M596.294,433.861c-0.746-4.261-0.896-8.336-3.809-11.644c-9.896-3.742-19.827-7.888-21.809-7.73h-5.004
	L596.294,433.861z"/>
<path fill="#ED1C25" d="M584.081,369.541v-5.199c-3.883-5.834-9.419-2.894-14.099-4.304c-16.552-5.021-19.384-12.163-32.505-20.81
	c-2.423-1.611-17.156-11.606-21.23-11.606c-4.496,0-22.811,6.417-27.697,8.776c-21.179,10.27-37.483,8.773-56.122,12.859
	l-0.724,6.186c14.354-2.604,28.741-4.814,43.149-7.559c14.431-2.748,29.62-10.013,45.6-10.013c3.829,0,21.181,14.89,25.874,17.428
	c9.597,5.162,30.98,14.281,32.979,14.207L584.081,369.541z"/>
<path fill="#FFF200" d="M583.238,355.891l-1.781-9.438c-6.57-1.869-13.921-2.575-18.8-5.932
	c-9.854-6.819-17.209-15.716-22.437-18.105c-1.938-0.883-24.143-6.93-25.375-6.93c-9.741,0-18.931,6.047-28.117,9.129
	c-12.938,4.317-25.989,10.564-38.169,13.035c-5.425,1.094-12.594,1.593-16.201,2.871c0.938,1.396-2.479,5.125-0.146,5.125
	c2.338,0,21.575-5.968,23.883-5.968c19.465,0,42.625-18.581,59.678-18.581c2.111,0,10.001,1.24,12.806,3.061
	c13.608,8.861,33.244,30.494,49.67,30.494C580.577,354.651,582.321,356.812,583.238,355.891"/>
<path fill="#ED1C25" d="M508.708,283.071c-7.456,2.791-16.447,3.711-22.044,6.71c-16.619,8.954-13.476,11.706-35.683,20.043
	l0.866,2.562l4.247,4.254c6.539-3.728,18.454-13.247,25.442-17.646C489.099,294.215,502.079,290.19,508.708,283.071"/>
<path fill="#ED1C25" d="M582.373,339.679l-0.945-10.03c-6.55-0.936-13.787-3.11-16.93-5.007
	c-7.712-4.622-15.304-11.044-20.56-13.404c-10.644-4.807-29.79-7.866-31.875-7.866c-5.508,0-8.993,2.185-15.399,8.827
	c2.525,2.765,1.189,2.327,7.181,2.327c18.548-7.197,13.425,0.041,29.652,0.041c20.066,7.985,30.884,24.236,42.431,24.236
	C578.026,338.803,580.65,340.736,582.373,339.679"/>
<path fill="#FFF200" d="M544.153,304.077c-8.392-8.979-14.63-14.68-25.576-14.68c-8.03,0-6.865,2.432-16.306,7.086
	c1.878,0,4.89-0.564,6.986-0.564C511.593,295.919,532.97,301.288,544.153,304.077"/>
<path fill="#FFFFFF" d="M310.344,705.808v44.021h16.042v-32.401h24.276v32.155h62.664v-0.002v-43.772H310.344z M399.577,729.314
	h-32.373v-13.709h32.373V729.314z"/>
</svg>
