<?xml version="1.0" encoding="utf-8"?>
<!-- Generator: Adobe Illustrator 15.1.0, SVG Export Plug-In . SVG Version: 6.00 Build 0)  -->
<!DOCTYPE svg PUBLIC "-//W3C//DTD SVG 1.1//EN" "http://www.w3.org/Graphics/SVG/1.1/DTD/svg11.dtd">
<svg version="1.1" id="Layer_1" xmlns="http://www.w3.org/2000/svg" xmlns:xlink="http://www.w3.org/1999/xlink" x="0px" y="0px"
	 width="391.107px" height="412.943px" viewBox="0 0 391.107 412.943" enable-background="new 0 0 391.107 412.943"
	 xml:space="preserve">
<g>
	<linearGradient id="SVGID_1_" gradientUnits="userSpaceOnUse" x1="198.4639" y1="189.6138" x2="208.9639" y2="256.6138">
		<stop  offset="0" style="stop-color:#7FCAE0"/>
		<stop  offset="1" style="stop-color:#7F635E"/>
	</linearGradient>
	<path fill="url(#SVGID_1_)" d="M65.555,96.432c0,0,0,194.663,0,210.547s7.742,25.738,7.742,25.738l258.241-56.931l4.621-176.756
		L65.555,96.432z"/>
	<path fill="#1E3F36" d="M331.078,274.103L73.297,332.718c0,0,9.531,18.385,40.531,27.135s52.75,11.75,62,20.5
		s19.25,28.919,19.25,28.919s3.5-10.919,20.25-28.919s75.814-17.112,97-38.5C338.578,315.353,331.078,274.103,331.078,274.103z"/>
	<g>
		<g>
			<path fill-rule="evenodd" clip-rule="evenodd" fill="#B0E0E5" d="M21.461,13.748c0,0,11.051-10.246,27.496-9.436
				c16.444,0.811,39.133,1.881,67.709,15.628c28.571,13.748,42.319,32.372,66.336,32.372c24.018,0,56.068-11.879,68.763-17.002
				c12.689-5.123,58.25-19.952,77.408-19.952c19.164,0,22.131,5.664,26.443,8.096c4.312,2.421,5.928,5.117,5.928,5.117l3.779,92.233
				c0,0-7.551-10.775-13.479-13.208c-5.934-2.421-15.926-5.652-25.633-5.652c-9.705,0-43.4,7.004-73.885,16.169
				c-30.486,9.165-48.276,12.397-74.989,12.397c-26.708,0-58.269-8.084-80.647-16.709c-22.373-8.625-42.071-13.207-47.194-13.207
				s-15.903,2.15-15.903,2.15s0.264-8.354-0.271-34.792C32.783,41.515,21.461,13.748,21.461,13.748z"/>
			<path fill-rule="evenodd" clip-rule="evenodd" fill="#231F20" d="M174.169,78.355V67.4c0-3.553-2.989-6.317-6.479-6.317h-11.119
				v2.5h3.321v10.759c0,1.379-0.658,1.739-2.105,1.739c-0.196,0-0.394,0-1.644-0.225v2.302c1.312,0.428,2.004,0.524,2.596,0.524
				c2.105,0,4.312-1.014,4.312-3.784V63.583h3.783c2.533,0,4.177,1.453,4.177,4.076v10.696H174.169z"/>
			<polygon fill-rule="evenodd" clip-rule="evenodd" fill="#231F20" points="181.685,70.497 181.685,61.083 178.533,61.083 
				178.533,71.544 			"/>
			<polygon fill-rule="evenodd" clip-rule="evenodd" fill="#231F20" points="189.184,70.497 189.184,61.083 186.032,61.083 
				186.032,71.544 			"/>
			<path fill-rule="evenodd" clip-rule="evenodd" fill="#231F20" d="M203.827,78.355v-11.35c0-3.817-3.389-6.249-7.008-6.249
				c-1.875,0-2.895,0.067-4.572,0.428v2.5c2.004-0.428,2.961-0.428,4.211-0.428c2.004,0,4.245,1.413,4.245,3.783v11.315
				C202.02,78.355,202.51,78.355,203.827,78.355z"/>
			<polygon fill-rule="evenodd" clip-rule="evenodd" fill="#231F20" points="211.303,70.497 211.303,61.083 208.145,61.083 
				208.145,71.544 			"/>
			<path fill-rule="evenodd" clip-rule="evenodd" fill="#231F20" d="M228.965,66.612v-5.495l-3.152-0.034v6.283
				c0,2.826-0.727,6.153-3.92,7.735c-1.018-3.885-3.027-10.73-3.945-14.018h-3.885c1.256,2.894,2.566,6.677,5.135,15.167
				l-4.115,1.644v2.764c2.01-0.822,3.85-1.48,5.494-2.134c1.645-0.698,3.164-1.385,4.379-2.274
				C227.455,74.403,228.965,71.713,228.965,66.612z"/>
			<path fill-rule="evenodd" clip-rule="evenodd" fill="#57AED5" d="M33.104,99.422c0,0,5.775-2.882,16.766-2.882
				c10.978,0,35.547,7.223,51.028,13.292c15.481,6.074,37.032,15.611,65.069,15.611c28.036,0,78.941-10.696,91.664-14.744
				c12.713-4.048,42.939-13.878,64.039-13.878c21.096,0,30.508,6.075,35.422,10.41c4.916,4.34,8.67,9.824,8.67,9.824l-0.578,9.83
				c0,0-7.674-18.207-25.307-18.207s-48.27,3.468-77.043,11.271c-28.781,7.803-80.552,16.056-106.281,16.056
				c-25.722,0-53.178-16.63-74.154-22.992c-20.972-6.361-27.328-8.67-35.711-8.67s-13.877,7.229-13.877,7.229L33.104,99.422z"/>
			<path fill-rule="evenodd" clip-rule="evenodd" fill="#57AED5" d="M22.813,19.136c0,0-5.146-1.615-5.146-3.777
				c0-2.15,0.806-4.853,0.806-4.853S23.055,0,50.038,0c26.979,0,54.768,10.241,70.941,18.601
				c16.175,8.355,38.277,28.324,67.417,28.324c29.133,0,63.932-17.818,85.495-23.471c21.566-5.664,34.24-11.868,59.061-11.868
				c24.822,0,28.324,7.015,29.676,8.354c1.352,1.351,5.664,5.934,5.664,5.934s-0.541,4.853-2.162,4.853
				c-1.615,0-4.043-1.892-5.658-2.961c-1.615-1.081-13.771-7.826-26.984-7.826c-13.207,0-33.152,1.329-71.453,15.64
				c-38.305,14.311-59.083,19.975-74.988,19.975s-34.235-6.767-64.721-27.254C91.845,7.814,64.321,8.625,48.147,8.625
				c-16.169,0-18.602,4.312-21.292,6.463C24.159,17.25,22.813,19.136,22.813,19.136z"/>
			<path fill-rule="evenodd" clip-rule="evenodd" fill="#263D90" d="M32.153,110.975c1.75-3.49,6.828-6.823,14.445-6.823
				s16.439,2.86,22.469,4.92c6.035,2.061,9.047,2.061,9.047,2.061l8.89,53.1c0,0-10.252-8.253-22.947-8.253
				c-12.7,0-17.621,3.659-20.633,5.089c-3.018,1.419-5.399,3.164-10.162,3.164c-4.757,0-9.041-4.92-9.041-14.592
				c0-9.683-0.794-12.318,2.539-23.273C30.092,115.422,30.407,114.465,32.153,110.975z"/>
			<path fill-rule="evenodd" clip-rule="evenodd" fill="#0B76BC" d="M42.151,161.44c0,0,7.369-6.193,21.748-6.193
				c14.373,0,25.165,8.253,25.165,14.604s-8.501,16.439-23.898,16.439c-11.107,0-16.028-6.598-20.634-6.598
				c-4.6,0-7.774,1.835-7.774,1.835L42.151,161.44z"/>
			<path fill-rule="evenodd" clip-rule="evenodd" fill="#263D90" d="M51.952,181.899c0,0-4.599-2.309-7.295-2.309
				c-2.703,0-9.999,0.405-9.999,5.81c0,5.394-0.479,9.042,7.296,15.392c7.781,6.351,15.713,9.526,15.713,9.526L51.952,181.899z"/>
			<path fill-rule="evenodd" clip-rule="evenodd" fill="#0B76BC" d="M35.328,192.134c0,0-2.449-1.745-8.568-3.963
				c-6.126-2.219-6.762-2.219-10.409-2.219c-3.648,0-11.43,3.333-11.43,3.333s2.225-0.484,8.254,2.061
				c6.029,2.533,8.096,3.648,8.096,3.648s-6.823,1.114-14.125,6.823C-0.158,207.537,0,214.045,0,214.045s1.334-8.096,12.537-7.465
				c11.204,0.642,11.998,4.763,24.377,6.508c12.381,1.745,19.683,0.8,19.683,0.8l1.267-3.502c0,0-11.429-5.709-16.507-10.156
				C36.279,195.793,35.328,192.134,35.328,192.134z"/>
			<path fill-rule="evenodd" clip-rule="evenodd" fill="#263D90" d="M305.738,125.443c0,0,8.078-6.666,19.996-3.029
				c11.918,3.637,19.457,8.219,22.486,10.505c3.033,2.285,8.686,9.154,11.311,9.154c2.629,0,7.678-4.098,7.678-9.154
				c0-5.044-2.623-12.318-8.889-17.171c-6.26-4.842-13.596-9.695-31.172-7.465c-17.57,2.218-18.578,2.421-18.578,2.421
				L305.738,125.443z"/>
			<path fill-rule="evenodd" clip-rule="evenodd" fill="#0B76BC" d="M354.689,158.839l-1.824-22.418c0,0-6.322-7.938-20.059-12.183
				c-13.738-4.245-15.557-4.853-23.027-1.621c-7.477,3.231-5.859,8.084-5.859,9.289c0,1.216,0,9.762,8.484,16.428
				c8.482,6.666,13.736,8.287,19.596,8.287c5.855,0,5.592-3.434,12.521-3.434C351.457,153.187,354.689,158.839,354.689,158.839z"/>
			<path fill-rule="evenodd" clip-rule="evenodd" fill="#263D90" d="M335.436,187.788l0.959-33.366c0,0,6.043-1.641,8.127-1.641
				c2.082,0,12.994,1.554,12.994,17.577c0,16.022-7.41,17.632-12.73,18.038C339.471,188.801,335.436,187.788,335.436,187.788z"/>
			<path fill-rule="evenodd" clip-rule="evenodd" fill="#0B76BC" d="M391.107,212.232c0,0-8.951-11.113-17.84-11.113
				c-8.885,0-14.137,2.026-20.402,2.026c-6.262,0-18.24-5.461-18.24-9.896c0-4.448-0.406-4.245,0.201-5.259
				c0.609-1.002,3.367,0.202,7.477,0.202c4.1,0,9.352-1.812,11.373-4.447c2.021-2.623,3.637-7.735,3.637-7.735
				s4.645,0.474,14.143,4.707c9.49,4.245,15.953,11.315,15.953,11.315s-6.057-4.042-11.512-4.447s-5.861,1.014-5.861,1.014
				s6.666,3.028,12.527,9.289C388.422,204.147,391.107,212.232,391.107,212.232z"/>
		</g>
		<path fill-rule="evenodd" clip-rule="evenodd" fill="#231F20" d="M334.578,79.602c0,0-1.668-1.167-4-1.167
			c-2.334,0-6.334,3.5-6.334,6.667s3.166,6.167,4.834,7c1.666,0.833,4.5,1.833,4.5,1.833s-2.168,3.833-7.5,3.833
			c-5.334,0-11.166-5.166-11.166-11.333s10-11.667,10-11.667s0.666-2,2.5-5.667c1.832-3.667,4.666-6,7-4.667
			c2.332,1.333,2.498,4.333,1.666,6.833c-0.834,2.5-1.334,4-1.334,5S334.578,79.602,334.578,79.602z"/>
		<path fill-rule="evenodd" clip-rule="evenodd" fill="#231F20" d="M309.244,89.103c0,0.667-2.5,2.166-8.332,4.833
			c-5.834,2.667-9.168,4.5-10.5,4.5c-1.334,0-5-0.5-5-2.5s0.834-4.667,6.166-7.5c5.334-2.833,5.166-3.5,5.834-5.167
			c0.666-1.667,1.5-3,0.166-3s-4,1.833-5.5,2.5s-3.832,2.667-5,2.667c-1.166,0-2.5-1.166-2.5-3.833s10.668-7.833,14.5-7.833
			c3.834,0,8.5,3,8.5,6s-6.834,8.167-6.834,8.167s2.002-0.5,4.334-0.5C307.412,87.436,309.244,88.27,309.244,89.103z"/>
		<path fill-rule="evenodd" clip-rule="evenodd" fill="#231F20" d="M270.576,87.603c0,0,1.168-3.833,3-7.333
			c1.834-3.5,5.834-6.167,5.834-6.167s-0.666-2.5-1.5-3.167c-0.832-0.667-2.666-1.833-3.666-1.833s-4.834,4.635-8.168,8.667
			c-1.395,1.687-2.645,7.75-2.645,7.75s-0.688-0.416-3.855,0.084c-3.166,0.5-4.5,5.5-4.5,5.5s3.5-1.833,5-1.833
			s1.918,0.562,1.918,0.562s-2.584,3.104-2.584,10.104c0,9.667,6.834,12.333,9.166,12.333c2.334,0,8.5-3.667,8.5-12.667
			S270.576,87.603,270.576,87.603z M268.369,106.352c-0.541,0-1.832-2.083-1.832-6.833s1.166-7.583,1.166-7.583
			s3.625,3.167,3.625,5.917S269.953,106.352,268.369,106.352z"/>
		<path fill-rule="evenodd" clip-rule="evenodd" fill="#231F20" d="M216.641,118.394c0.201-0.936,6.994-2.871,10.086-7.508
			c3.09-4.637,6.035-10.158,6.035-13.25s0-4.195,0-4.195s-1.324-0.221-2.281-0.589s-2.283-1.693-2.283-1.693
			s2.871-3.092,5.742-3.901s6.625-1.619,6.625-1.619s3.754,4.637,6.771,8.833s5.373,11.482,4.195,12.219s-2.504,1.251-4.344-1.03
			s-8.242-7.287-8.242-7.287s-0.736,8.906-6.109,14.721c-5.375,5.815-8.908,7.582-12.293,7.582
			C217.156,120.675,216.42,119.424,216.641,118.394z"/>
		<path fill-rule="evenodd" clip-rule="evenodd" fill="#231F20" d="M192.745,103.936c4.416-2.083,7.834-4.917,7.834-8.167
			s-4.084-7.333-8.834-7.333s-8.916,3.583-11.334,6c-2.182,2.182-4.209,5.328-4.587,9.901c-0.297,0.033-0.605,0.05-0.829,0.019
			c-0.584-0.083-0.834,1.083-0.834,1.833c0,0.56,0.836,0.942,1.677,1.101c0.564,4.897,4.014,9.396,10.241,9.396
			c6.833,0,11.332-5.083,11.332-6.917s-2-3.417-4.166-3.417s-6.084,4.5-8.084,4.5s-2.582-0.667-2.582-1.917s0.332-2.333,0.332-2.333
			S188.329,106.019,192.745,103.936z M184.661,99.855c0.334-0.833,1.584-3.252,2.668-4.336c1.083-1.083,2.582-2.5,3.5-2.5
			c0.916,0,1.25,0.583,1.25,1.833s-1.334,2.917-3.168,4.667c-1.833,1.75-5.082,2.67-5.082,2.67S184.329,100.688,184.661,99.855z"/>
		<path fill-rule="evenodd" clip-rule="evenodd" fill="#231F20" d="M157.745,102.935c0,0,1.334-4.333,3-6.5s3.5-5.5,6.666-5.5
			c3.167,0,3.667,2.5,3.667,3.667s-3.333,8.833-5.5,11.5s-6.5,7.5-8.167,7.5c-1.666,0-1.833-3-2.5-4.667
			c-0.666-1.667-2.5-5.833-2.5-5.833s-3.583,0.75-5.666,2.833s-4.334,6.833-6.334,6.833s-2.5-1.833-2.5-2.833
			s2.001-5.333,3.834-6.833s5.334-5.833,8.5-5.833s4.834,1.833,5.5,2.833S157.745,102.935,157.745,102.935z"/>
		<path fill-rule="evenodd" clip-rule="evenodd" fill="#231F20" d="M123.745,108.268c0,0-1.166-3.833,1.5-12.5s4.666-11,7.333-11
			s4.667,3.333,4.667,5.333s-3.333,7-6.5,11S123.745,108.268,123.745,108.268z"/>
		<path fill-rule="evenodd" clip-rule="evenodd" fill="#231F20" d="M112.078,103.935c0,0-1.5,0.5-2.5,0.5s-9.167-3.333-9.167-8
			s0.834-6.333,0.834-6.333s-5.5,2.167-7,3.167s-5.334,3.833-6.834,3.833s-2.666-1.167-2.666-2.667s2.166-6,3.833-7
			s6.334-3.667,8.667-6.333s5.833-6.667,9.666-6.667c3.834,0,4.5,2.667,4.5,4.167s-1.166,4-2.5,5.333c-1.333,1.333-2.333,2-2.333,2
			s3-1.167,6.833-1.167c3.834,0,7.334,3.167,6.834,4.833s-2.833,1.5-6,2.667s-7.334,3.167-7.334,4.667s1.834,1.666,3,2.333
			C111.078,99.935,112.911,102.768,112.078,103.935z"/>
		<path fill-rule="evenodd" clip-rule="evenodd" fill="#231F20" d="M108.078,66.935c0,0-1.667-6.167-6.5-6.167
			s-14.333,2.5-23.333,9.667s-13.5,10.833-13.5,13s1,7.167,4,7.167s5.5-3.167,10.166-10.5c4.667-7.333,14.5-15,20.5-15
			S108.078,66.935,108.078,66.935z"/>
		<g>
			<linearGradient id="SVGID_2_" gradientUnits="userSpaceOnUse" x1="83.6362" y1="169.2563" x2="305.5137" y2="169.2563">
				<stop  offset="0" style="stop-color:#358BCB"/>
				<stop  offset="0.046" style="stop-color:#5796D1"/>
				<stop  offset="0.1598" style="stop-color:#90B4DF"/>
				<stop  offset="0.2645" style="stop-color:#BDD0EC"/>
				<stop  offset="0.3569" style="stop-color:#DFE7F5"/>
				<stop  offset="0.4334" style="stop-color:#F4F6FC"/>
				<stop  offset="0.4847" style="stop-color:#FFFFFF"/>
				<stop  offset="0.5398" style="stop-color:#E7E5F1"/>
				<stop  offset="0.6523" style="stop-color:#B6B2D5"/>
				<stop  offset="0.8123" style="stop-color:#7672AF"/>
				<stop  offset="1" style="stop-color:#2D348D"/>
			</linearGradient>
			<polygon fill="url(#SVGID_2_)" stroke="#76A298" stroke-width="3" stroke-miterlimit="10" points="83.636,213.335 
				83.636,192.203 98.165,192.203 98.165,198.477 117.644,198.477 117.644,183.619 125.239,183.619 125.239,177.346 
				131.181,177.346 131.181,170.412 141.417,170.412 141.417,176.686 154.624,176.686 154.624,144.328 175.754,144.328 
				175.754,186.59 184.669,186.59 184.669,151.922 188.631,151.922 188.631,125.178 198.207,125.178 206.461,130.13 
				206.461,142.348 210.753,142.348 210.753,180.647 216.365,180.647 216.365,146.309 226.932,146.309 226.932,150.271 
				236.178,150.271 236.178,182.959 240.469,182.959 240.469,171.402 285.703,171.402 285.703,175.695 290.326,175.695 
				290.326,179.326 305.514,179.326 305.514,213.335 			"/>
			<g>
				<rect x="159.165" y="148.637" fill="#231F20" width="2.98" height="4.173"/>
				<rect x="193.165" y="130.511" fill="#231F20" width="2.98" height="4.173"/>
				<rect x="218.473" y="152.978" fill="#231F20" width="2.98" height="4.173"/>
				<rect x="218.473" y="159.811" fill="#231F20" width="2.98" height="4.174"/>
				<rect x="218.473" y="165.936" fill="#231F20" width="2.98" height="4.174"/>
				<rect x="193.165" y="137.386" fill="#231F20" width="2.98" height="4.173"/>
				<rect x="193.165" y="143.762" fill="#231F20" width="2.98" height="4.173"/>
				<rect x="193.165" y="149.637" fill="#231F20" width="2.98" height="4.173"/>
				<rect x="193.165" y="156.762" fill="#231F20" width="2.98" height="4.173"/>
				<rect x="193.165" y="162.887" fill="#231F20" width="2.98" height="4.173"/>
				<rect x="193.165" y="168.887" fill="#231F20" width="2.98" height="4.173"/>
				<rect x="193.165" y="175.512" fill="#231F20" width="2.98" height="4.173"/>
				<rect x="193.165" y="181.512" fill="#231F20" width="2.98" height="4.173"/>
				<rect x="148.415" y="188.012" fill="#231F20" width="2.98" height="4.173"/>
				<rect x="139.748" y="188.012" fill="#231F20" width="2.981" height="4.173"/>
				<rect x="132.498" y="172.762" fill="#231F20" width="2.981" height="4.174"/>
				<rect x="128.498" y="180.179" fill="#231F20" width="2.981" height="4.173"/>
				<rect x="122.831" y="186.929" fill="#231F20" width="2.981" height="4.174"/>
				<rect x="117.665" y="186.929" fill="#231F20" width="2.98" height="4.174"/>
				<rect x="88.081" y="197.262" fill="#231F20" width="2.98" height="4.174"/>
				<rect x="159.165" y="156.471" fill="#231F20" width="2.98" height="4.174"/>
				<rect x="159.165" y="161.871" fill="#231F20" width="2.98" height="4.174"/>
			</g>
		</g>
	</g>
	<rect x="276.912" y="205.603" fill="#49251F" stroke="#2E1828" stroke-miterlimit="10" width="13.5" height="46.167"/>
	<polygon fill="#49251F" stroke="#2E1828" stroke-miterlimit="10" points="89.923,272.373 112.273,265.172 112.273,258.158 
		109.188,258.158 128.358,250.49 171.561,264.611 171.561,274.056 183.25,279.573 178.388,279.573 178.388,286.773 93.664,286.773 
		93.664,272.373 	"/>
	<path fill="#0C2D25" d="M299.846,212.382c0.431-0.467,2.497-0.331,3.217-0.399c1.869-0.176,3.705-0.304,5.581-0.3
		c1.617,0.003,3.47-0.39,4.629-1.625c0.957-1.02,2.314-2.6,1.541-4.136c-0.621-1.233-2.098-2.206-0.308-3.438
		c0.975-0.672,2.022-0.981,2.631-2.077c0.457-0.822,0.399-1.666,0.4-2.595c0.002-1.406-0.251-2.373-1.102-3.544
		c-0.527-0.726-1.232-1.231-1.783-1.901c-1.095-1.333,0.714-2.375,1.192-3.567c0.815-2.031-0.222-4.553-1.172-6.29
		c-0.454-0.831-1.04-2.189-2.021-2.435c-1.08-0.271-2.366,0.115-3.418,0.319c-1.072,0.209-1.954,0.715-2.984,0.998
		c-0.745,0.205-0.846,0.02-1.104-0.674c-0.556-1.489-0.113-2.704-1.473-3.753c-0.798-0.617-1.97-1.335-3-1.368
		c-1.232-0.039-2.804,0.862-3.908,1.335c-1.554,0.667-2.83,1.646-4.162,2.663c-0.46,0.351-0.976,0.824-1.583,0.904
		c-0.7,0.092-1.508-0.283-2.202-0.054c-0.817,0.269-1.921,1.139-2.523,1.748c-1.306,1.319-1.351,3.103-0.625,4.794
		c0.922,2.148,0.523,3.791-1.47,5.079c-1.555,1.005-3.173,2.034-3.233,4.042c-0.036,1.198,0.22,2.541,1.016,3.478
		c0.508,0.596,1.336,0.846,1.627,1.561c0.209,0.513,0.058,1.165,0.081,1.706c0.016,0.337-0.015,0.888,0.071,1.211
		c0.134,0.498,0.315,0.391,0.621,0.767c0.38,0.466,0.555,1.216,0.885,1.753c0.483,0.783,1.111,1.297,1.973,1.604
		c0.753,0.269,1.573,0.237,2.314,0.51c0.425,0.155,0.759,0.447,1.216,0.538c1.363,0.273,2.795-0.204,4.118-0.388
		c0.732-0.103,1.243-0.103,1.78,0.395c0.675,0.624,0.471,1.632,0.521,2.527c0.13,2.365,0.075,4.847,0,7.223
		c-0.02,0.626-0.365,1.658-0.21,2.189c0.12,0.405,1.522,0.86,2.029,0.783c1.271-0.193,0.698-4.01,0.698-5.087
		c0-1.051,0.07-1.953,0.001-3.017c-0.029-0.438-0.095-1.209,0.209-1.478"/>
	<rect x="302.912" y="221.436" fill="#49251F" stroke="#2E1828" stroke-miterlimit="10" width="12.5" height="27.667"/>
	<path fill="#49251F" stroke="#2E1828" stroke-miterlimit="10" d="M205.828,238.853h-108v-17.75h8.5v-27h10.25v14.25h2.25v9.5h3.25
		v-19.5h12.5v23.5h1.75v-4.5h5v-15h3.5v-3.25h17v22.25h4v11.5h6.5v-6.75h5.5v2.5h3.5v2.75h5v2.25h4v-7.75c0,0,4.375,0.625,5,0
		s0-12,0-12h10.5V238.853z"/>
	<path fill="#9F9F36" d="M119.203,244.853c-1.654,0.401-3.714,0.677-5.372,0.597c-1.699-0.082-3.401-1.342-5.005-1.939
		c-1.525-0.568-2.768-0.151-4.119,0.59c-1.283,0.703-2.482,1.014-3.869,1.141c-2.66,0.244-5.573,0.136-8.246,0.115
		c-1.215-0.01-3.482-1.419-2.666-2.649c0.758-1.143,3.904-1.815,5.086-2.301c0.643-0.264,1.187,0.011,1.444-0.697
		c0.252-0.694-0.417-1.232-0.633-1.725c-0.391-0.893-1.233-3.094-0.721-4.168c0.677-1.422,2.656-1.155,3.958-1.231
		c0.235-1.403-1.129-3.046-1.328-4.509c-0.07-0.517-0.409-1.599-0.004-2.045c0.517-0.57,2.679-0.432,3.479-0.428
		c2.808,0.013,4.565,2.299,7.476,1.881c1.298-0.186,2.775-0.815,4.025,0.044c1.282,0.882,1.63,2.65,2.465,3.801
		c1.766,2.432,5.744,1.267,7.856,3.844c1.128,1.376,1.341,4.428,0.403,5.931c-0.618,0.991-1.708,0.939-2.457,1.493
		c-0.601,0.443-0.756,1.012-1.272,1.507"/>
	<rect x="110.328" y="195.853" fill="#979AC1" width="2.5" height="25.25"/>
	<rect x="127.828" y="200.353" fill="#979AC1" width="1.75" height="15.25"/>
	<rect x="155.828" y="200.853" fill="#979AC1" width="3.25" height="15.25"/>
	<rect x="150.828" y="221.603" fill="#979AC1" width="13.25" height="13.75"/>
	<path fill="#0C2D25" d="M210.328,238.353c-1.349-1.678-5.299-4.64-4.748-7.242c0.501-2.367,3.771-1.367,5.687-2.546
		c3.732-2.295,0.146-3.963-2.251-5.226c-1.344-0.708-2.678-0.332-1.18-1.811c0.599-0.591,2.407-0.668,3.21-0.969
		c-0.175-1.407-3.08-1.54-1.744-3.664c0.916-1.456,4.526-0.749,6.006-0.831c0.017-1.436-0.03-3.14-0.781-4.413
		c-0.789-1.337-2.777-1.638-2.173-3.768c1.772-0.016,4.102-0.955,3.68-2.787c-0.434-1.889-3.115-1.784-4.293-2.482
		c-1.946-1.151-1.494-1.576-0.6-3.249c0.209-0.391,1.213-1.359,1.255-1.694c0.166-1.322-0.492-0.72-0.817-1.618
		c-1.061-2.929-0.217-2.269,2.456-4.212c0.692-0.504,1.667-1.168,2.181-1.862c0.318-0.43,0.215-1.949,0.594-2.086
		c0.476-0.172,2.979,1.717,3.7,2.078c1.342,0.669,2.963,1.351,4.529,1.926c0.014,2.39-4.42,3.831-5.022,6.651
		c-0.806,3.769,5.536,2.238,8.218,2.325c0.436,1.419-2.365,5.655-3.876,5.83c-0.123,0.677-0.126,1.677-0.011,2.356
		c1.597,0.144,4.032,0.839,5.039,1.807c-1.772,1.773-6.328,1.572-4.053,5.306c1.327,2.177,4.374,2.598,6.269,1.02
		c0.214,2.032-6.409,8.496-2.799,9.212c-0.075,1.235-0.918,1.86-1.775,2.698c1.868,1.429,5.622,4.435,6.256,6.552
		c0.69,2.307-0.282,2.504-2.159,2.7c-0.8,0.084-2.741,0.359-3.489-0.001c-1.006-0.484-0.453-0.663-1.246-1.379
		c-1.197-1.081-1.251-1.916-3.012-1.502c-1.468,0.346-1.276,1.803-3.109,1.192c-0.619-0.206-0.941-1.486-1.689-1.647
		c-1.156-0.25-0.966,0.455-1.945,0.648c-1.86,0.367-2.246,1.646-3.35-1.268c-0.383-0.083-0.776-0.061-1.163-0.006
		c-0.135,1.339-0.981,2.35-1.543,3.462"/>
	<rect x="217.328" y="234.853" fill="#0C2D25" width="2" height="7"/>
	<path fill="#0C2D25" d="M120.493,241.509c1.171-0.195,2.032-0.837,3.197-0.925c0.287-2.288-3.62-2.866-4.218-4.748
		c-0.662-2.085,4.596-1.317,5.933-1.374c0.338-0.922-0.333-1.31-1.008-1.734c-1.368-0.86-2.045-1.466-2.547-3.141
		c-0.451-1.504-0.861-3.592,1.203-3.144c1.781,0.388,2.798,2.106,4.629,2.635c1.561,0.45,3.193,0.203,4.794,0.274
		c1.866,0.084,2.82,0.05,3.937,1.376c1.098,1.304,2.22,2.483,3.894,2.981c1.379,0.41,3.136,0.243,4.302,1.143
		c0.925,0.715,1.165,1.58,2.372,1.973c0.997,0.323,2.637,0.462,2.729,2.033c0.099,1.698-1.608,0.92-1.984,1.919
		c-0.515,1.367,2.78,1.456,3.48,1.673c1.264,0.39,2.1,1.032,3.229,1.686c-1.834,0.438-4.158,0.098-5.864-0.631
		c-1.556-0.664-3.365-1.355-4.336,0.441c-0.643,1.189-0.659,2.474-2.544,2.294c-2.143-0.205-4.457-1.012-6.438-1.835
		c-2.483-1.031-3.743-0.706-6.13,0.112c-1.39,0.477-3.003,0.569-4.52,0.585c-2.331,0.024-6.3,1.355-8.265-0.133
		c-0.248-0.188-0.631-0.354-0.729-0.677c-0.041-0.134-0.031-0.458,0.089-0.555c0.162-0.13,0.402-0.032,0.5-0.257
		c0.055-0.124,0.047-0.264,0.117-0.391c0.139-0.252,0.38-0.438,0.623-0.583c0.624-0.377,1.36-0.568,2.065-0.725
		C119.497,241.674,119.995,241.592,120.493,241.509z"/>
	<rect x="179.016" y="257.415" fill="#49251F" stroke="#2E1828" stroke-miterlimit="10" width="12.688" height="15.375"/>
	<rect x="181.453" y="260.165" fill="#979AC1" width="3.75" height="4.188"/>
	<rect x="172.402" y="278.11" fill="#979AC1" width="3.312" height="5.3"/>
	<rect x="164.011" y="274.608" fill="#979AC1" width="2.366" height="5.3"/>
	<rect x="157.986" y="274.608" fill="#979AC1" width="2.366" height="5.3"/>
	<rect x="144.958" y="276.702" fill="#979AC1" width="2.366" height="5.3"/>
	<rect x="108.833" y="269.827" fill="#979AC1" width="2.366" height="5.3"/>
	<rect x="104.458" y="277.265" fill="#979AC1" width="2.366" height="5.3"/>
	<rect x="98.125" y="277.265" fill="#979AC1" width="2.366" height="5.3"/>
	<rect x="149.27" y="261.452" fill="#979AC1" width="3.304" height="7.175"/>
	<rect x="131.958" y="258.265" fill="#979AC1" width="3.304" height="6.3"/>
	<rect x="120.77" y="258.89" fill="#979AC1" width="3.304" height="6.8"/>
	<rect x="115.208" y="258.89" fill="#979AC1" width="3.304" height="6.8"/>
	<rect x="186.078" y="260.165" fill="#979AC1" width="3.75" height="4.188"/>
	<rect x="181.453" y="266.415" fill="#979AC1" width="3.75" height="4.188"/>
	<rect x="186.078" y="266.415" fill="#979AC1" width="3.75" height="4.188"/>
	<rect x="279.453" y="239.498" fill="#979AC1" width="3.75" height="4.188"/>
	<rect x="284.078" y="239.498" fill="#979AC1" width="3.75" height="4.188"/>
	<rect x="279.453" y="245.748" fill="#979AC1" width="3.75" height="4.188"/>
	<rect x="284.078" y="245.748" fill="#979AC1" width="3.75" height="4.188"/>
	<rect x="279.453" y="223.831" fill="#979AC1" width="3.75" height="4.188"/>
	<rect x="284.078" y="223.831" fill="#979AC1" width="3.75" height="4.188"/>
	<rect x="279.453" y="230.081" fill="#979AC1" width="3.75" height="4.188"/>
	<rect x="284.078" y="230.081" fill="#979AC1" width="3.75" height="4.188"/>
	<rect x="279.453" y="208.164" fill="#979AC1" width="3.75" height="4.188"/>
	<rect x="284.078" y="208.164" fill="#979AC1" width="3.75" height="4.188"/>
	<rect x="279.453" y="214.414" fill="#979AC1" width="3.75" height="4.188"/>
	<rect x="284.078" y="214.414" fill="#979AC1" width="3.75" height="4.188"/>
	<rect x="305.453" y="223.33" fill="#979AC1" width="3.75" height="4.188"/>
	<rect x="310.078" y="223.33" fill="#979AC1" width="3.75" height="4.188"/>
	<rect x="305.453" y="229.58" fill="#979AC1" width="3.75" height="4.188"/>
	<rect x="310.078" y="229.58" fill="#979AC1" width="3.75" height="4.188"/>
	<rect x="305.453" y="238.413" fill="#979AC1" width="3.75" height="4.188"/>
	<rect x="310.078" y="238.413" fill="#979AC1" width="3.75" height="4.188"/>
	
		<line fill="none" stroke="#543E8C" stroke-width="2" stroke-miterlimit="10" x1="260.578" y1="142.603" x2="260.745" y2="149.603"/>
	<g>
		
			<line fill="none" stroke="#263A76" stroke-width="5" stroke-miterlimit="10" x1="244.203" y1="237.228" x2="269.953" y2="237.228"/>
		
			<line fill="none" stroke="#263A76" stroke-width="5" stroke-miterlimit="10" x1="244.203" y1="260.978" x2="269.953" y2="260.978"/>
		
			<line fill="none" stroke="#263A76" stroke-width="3" stroke-miterlimit="10" x1="265.703" y1="191.978" x2="264.953" y2="278.978"/>
		
			<line fill="none" stroke="#263A76" stroke-width="3" stroke-miterlimit="10" x1="270.453" y1="190.728" x2="269.703" y2="281.978"/>
		
			<line fill="none" stroke="#262B62" stroke-width="3" stroke-miterlimit="10" x1="247.328" y1="190.853" x2="247.328" y2="268.228"/>
		
			<line fill="none" stroke="#2A2A52" stroke-width="3" stroke-miterlimit="10" x1="243.828" y1="187.978" x2="243.828" y2="265.853"/>
		<g>
			<linearGradient id="SVGID_3_" gradientUnits="userSpaceOnUse" x1="238.4961" y1="174.0195" x2="275.4961" y2="174.0195">
				<stop  offset="0" style="stop-color:#2B368A"/>
				<stop  offset="0.4724" style="stop-color:#304FA2"/>
				<stop  offset="1" style="stop-color:#2A3074"/>
			</linearGradient>
			<path fill="url(#SVGID_3_)" d="M275.496,188.187c0,0-3.999,4.333-18.666,4.333s-18.334-4.333-18.334-4.333v-29.667c0,0,6-3,19-3
				s18,3.167,18,3.167V188.187z"/>
			<linearGradient id="SVGID_4_" gradientUnits="userSpaceOnUse" x1="261.9395" y1="179.646" x2="238.9621" y2="159.8262">
				<stop  offset="0" style="stop-color:#2B368A"/>
				<stop  offset="0.4724" style="stop-color:#304FA2"/>
				<stop  offset="1" style="stop-color:#2A3074"/>
			</linearGradient>
			<path fill="url(#SVGID_4_)" d="M238.67,171.458v-12.839c0,0,4.727-2.078,6.449-2.078c3.814,0,3.814,0,3.814,0s0,5.608,0,9.113
				s-2.581,5.383-3.898,6S238.67,171.458,238.67,171.458z"/>
		</g>
		<polyline fill="none" stroke="#543E8C" stroke-width="2" stroke-miterlimit="10" points="247.578,143.77 247.745,151.77 
			264.745,148.77 264.911,141.27 		"/>
		
			<line fill="none" stroke="#543E8C" stroke-width="2" stroke-miterlimit="10" x1="251.745" y1="143.437" x2="251.745" y2="151.103"/>
		
			<line fill="none" stroke="#543E8C" stroke-width="2" stroke-miterlimit="10" x1="256.411" y1="142.437" x2="256.411" y2="155.603"/>
	</g>
	<path fill="#0C2D25" d="M93.412,238.27c-0.071-2.499-0.22-1.406-1.87-2.838c-0.339-0.295-0.977-1.448-0.796-1.986
		c0.437-1.298,1.484-0.699,2.814-0.905c0.112-2.961-0.062-3.183-2.848-3.438c-1.178-0.107-2.593-0.431-1.129-1.941
		c0.823-0.85,2.63-0.452,3.658-0.556c1.005-0.102,1.941-0.009,2.189-1.167c0.078-0.365-0.71-2.172-1.11-2.396
		c-1.158-0.649-2.476,0.68-3.787,0.569c-1.402-0.118-2.246-0.782-1.888-2.306c0.398-1.698,2.651-1.171,2.765-2.844
		c-1.229-0.217-2.872,0.199-3.627-0.889c-0.637-0.918-0.224-2.939,0.134-3.937c0.299-0.834,0.975-0.923,0.628-1.862
		c-0.285-0.771-1.537-1.072-2.279-1.163c-0.062,3.124-1.612,1.567-3.855,1.659c-2.607,0.106-1.966,1.866-2.166,3.97
		c-0.174,1.833-1.47,2.446-0.5,4.071c0.81,1.355,2.353,2.716,1.842,4.675c-0.609,2.334-3.153,1.104-3.674,3.43
		c-0.178,0.793-0.083,2.723,0.353,3.32c0.688,0.945,1.781,0.58,2.492,1.501c1.038,1.345-0.89,3.269,0.479,4.495
		c0.431,0.386,1.868,0.594,2.396,0.378c1.205-0.492,0.953-1.115,0.946-2.346c-0.004-0.758-0.068-1.457,0.196-2.133
		c0.696-0.041,1.428-0.05,2.128-0.004c0.148,1.583,0.346,3.865,1.677,4.475c1.101,0.504,3.883,0.369,5,0"/>
	<path fill="#A29A3D" d="M120.953,289.353c0.567-0.981,1.719-2.233,0.828-3.341c-0.534-0.664-1.614-0.547-2.119-1.277
		c-0.365-0.529-0.562-1.691-0.312-2.329c0.204-0.522,1.155-1.309,1.704-1.439c0.659-0.157,2.272,0.663,2.728,0.09
		c0.69-0.868-1.538-3.19-1.828-3.982c-1.643-4.486,3.567-5.469,6.6-3.772c2.901,1.622,3.767,6.373,8.02,4.233
		c1.076-0.542,2.667-1.834,3.974-0.778c1.155,0.935,0.499,3.118,1.438,4.196c0.939,1.079,2.203,0.201,3.343,0.272
		c1.387,0.087,1.983,1.324,3.107,1.918c0.682,0.36,0.81,0.02,1.274,0.676c0.424,0.599,0.01,0.988,0.85,1.5
		c0.66,0.402,1.591,0.229,2.184,0.743c0.519,0.451,0.73,1.583,1.176,2.138c0.877,1.093,4.286,2.242,4.297,3.869
		c0.009,1.354-3.517,1.114-4.519,1.159c-0.584,0.025-1.411,0.135-1.984-0.001c-0.96-0.228-0.915-0.89-1.669-1.358
		c-1.684-1.046-3.948,0.991-5.009,2.209c-1.073,1.231-2.094,2.087-3.989,1.777c-0.788-0.129-1.48-0.552-2.149-0.979
		c-0.875-0.557-0.963-1.187-1.591-1.87c-1.369-1.491-3.753-1.5-5.622-1.284c-1.702,0.196-2.884,1.246-4.548,1.408
		c-1.559,0.152-3.395,0.264-4.906-0.274c-1.396-0.496-1.646-1.097-1.653-2.503"/>
	<path fill="#B87030" d="M108.237,295.702c-0.333,0.052-0.649,0.179-0.934,0.358c-0.664,0.418-1.137,1.065-1.705,1.594
		c-0.286,0.266-0.598,0.508-0.955,0.67c-0.191,0.087-0.385,0.122-0.583,0.183c-0.226,0.069-0.403,0.261-0.626,0.358
		c-0.274,0.12-0.604,0.106-0.894,0.168c-0.303,0.064-0.623,0.086-0.934,0.124c-0.693,0.084-1.388,0.161-2.085,0.195
		c-1.423,0.069-2.084-0.564-3.195-1.248c-1.786-1.098-4.217-0.848-6.231-1.002c-0.969-0.074-1.009-0.114-1.427-0.834
		c-0.494-0.852-0.853-1.951-0.435-2.894c1.719-3.885,8.59,1.101,9.183-3.25c0.102-0.749,0.172-1.665,0.079-2.419
		c-0.09-0.725-0.718-1.642-0.417-2.407c0.59-1.501,4.26,0.647,5.728,0.221c1.267-0.368,0.852-2.993,1.007-4.178
		c0.278-2.112,1.938-2.174,3.024-0.39c0.647,1.062,0.735,2.293,2.069,2.735c1.428,0.474,1.98-0.129,2.756-1.292
		c1.281-1.919,2.723-0.592,3.889,1.035c0.961,1.343,0.626,2.658,0.612,4.234c-0.01,1.054-0.159,0.964,0.737,1.246
		c1.613,0.507,3.428,0.727,5.11,0.881c2.101,0.193,4.242-0.329,4.488,2.41c0.238,2.648-0.269,6.773-2.989,8.001
		c-1.391,0.627-2.705,1.127-4.167,0.478c-1.873-0.833-4.15-1.629-5.736-2.941c-0.839-0.695-1.328-1.387-2.361-1.74
		C110.297,295.674,109.24,295.547,108.237,295.702z"/>
	<path fill="#9F9D36" d="M227.425,280.753c-1.264,0.212-1.357,0.757-2.213,1.685c-1.706,1.85-4.721,2.155-7.195,2.003
		c-2.349-0.146-4.816-3.386-7.266-2.479c-0.954,0.354-1.376,1.47-2.699,1.82c-2.568,0.681-5.632,0.026-8.272,0.15
		c-1.27,0.06-2.021,0.465-2.989-0.494c-2.044-2.026-1.032-5.584,0.687-7.271c1.298-1.273,6.722-2.91,6.105-5.402
		c-0.179-0.723-1.352-1.458-1.92-1.959c-1.244-1.096-2.499-2.228-3.592-3.472c-0.793-0.902-1.425-1.384-1.329-2.64
		c0.182-2.392,2.88-2.335,4.62-3.297c2.638-1.459-0.705-2.652-0.994-4.998c-0.353-2.856,1.845-0.634,3.057-2.128
		c1.389-1.712-0.818-5.694,0.143-7.61c0.978-1.95,4.423-2.212,6.308-2.033c0.328,1.239,1.803,2.567,2.538,3.719
		c0.578,0.905,1.115,2.262,2.329,2.259c2.125-0.005,2.594-3.731,5.059-2.811c2.271,0.849,3.292,3.858,3.992,5.766
		c0.468,1.272,0.616,1.535,2.034,1.541c1.729,0.006,2.083-1.193,2.758,0.535c1.157,2.967-1.995,5.784-0.972,8.64
		c0.462,1.288,1.965,2.265,2.743,3.348c0.974,1.354,1.81,2.908,2.187,4.54c0.523,2.272,0.446,4.646,0.347,6.96
		c-0.027,0.637-0.045,1.275-0.069,1.912c-0.012,0.319-0.026,0.638-0.045,0.956c-0.009,0.153-0.019,0.306-0.029,0.458
		c-0.009,0.109,0.021,0.39-0.04,0.479c-0.098,0.142-0.562,0.16-0.726,0.178c-0.265,0.029-0.531,0.029-0.797,0.013
		c-0.54-0.033-1.072-0.137-1.604-0.231C228.872,280.763,228.14,280.633,227.425,280.753z"/>
	<path fill="#0C2D25" d="M236.412,272.812c-1.454,0.892-3.185,0.635-4.748-0.107c-2.431-1.152-4.798-2.267-7.14-3.681
		c-1.117-0.675-1.74-2.051-2.983-2.585c-0.671-0.288-1.437-0.254-2.153-0.253c-0.908,0.001-1.58-0.023-2.369,0.297
		c-0.81,0.328-1.621,0.694-2.496,0.789c-0.979,0.105-4.802,0.128-3.289-1.412c0.441-0.449,1.45-0.763,2.018-1.112
		c0.483-0.297,0.958-0.665,1.486-0.886c0.255-0.107,1.504-0.273,1.613-0.486c0.344-0.669-2.881-1.384-3.374-1.831
		c-1.109-1.005-1.393-3.265,0.698-3.368c0.77-0.038,1.544,0.69,2.243,0.993c1.065,0.461,2.291,1.17,3.477,1.173
		c0.724-1.324-0.499-2.047-1.235-2.896c-1.897-2.189-3.313-4.993-3.242-7.919c0.989-0.132,2.318,0.331,3.24,0.663
		c0.875,0.315,1.101,0.725,1.573,1.547c0.646,1.123,1.332,2.106,2.096,3.118c0.741,0.982,1.263,2.142,2.588,2.165
		c1.57,0.027,3.33-1.546,4.431-2.587c1.234,0.679,1.755,3.152,2.225,4.36c0.233,0.603,0.396,1.248,1.107,1.48
		s0.812-0.23,1.172,0.494c0.516,1.04-0.192,2.596,1.813,1.6c1.68-0.835,3.822-3.871,4.948-0.466c0.945,2.858-1.39,2.379-3.098,3.468
		c-1.635,1.043-0.546,2.695,0.551,3.638c0.653,0.561,1.061,1.828,0.498,2.682C237.708,272.226,236.953,272.479,236.412,272.812z"/>
	<path fill="#B87030" d="M231.888,275.087c0.524-0.685,0.761-1.004,1.012-1.808c0.302-0.964,0.713-2.04,1.141-2.943
		c0.581-1.226,2.057-1.627,3.328-1.677c0.739-0.028,1.118,0.101,1.76,0.462c0.35,0.197,1.088,0.638,1.517,0.424
		c0.484-0.241,0.419-1.285,0.529-1.75c0.178-0.75,0.359-1.475,0.915-2.052c1.252-1.302,2.437-0.918,3.37,0.535
		c0.657,1.021,1.334,3.004,2.685,3.012c2.544,0.016,5.103,0.011,7.636,0.261c0.757,0.075,2.506-0.03,2.312,0.998
		c-0.196,1.038-1.682,1.446-2.22,2.271c-0.247,0.378-0.645,1.36-0.362,1.77c0.345,0.5,1.396,0.312,1.882,0.448
		c0.69,0.192,1.798,0.675,2.293,1.213c0.282,0.307,0.201,0.764,0.498,1.076c0.468,0.492,1.587,0.278,2.177,0.276
		c1.438-0.004,2.548,0.21,3.843,0.831c1.048,0.503,2.111,0.965,3.158,1.47c0.444,0.215,1.11,0.425,1.484,0.758
		c0.733,0.653,0.112,0.992-0.66,1.311c-2.028,0.835-4.477,0.535-6.537,1.307c-2.204,0.825-4.44,0.767-6.752,0.956
		c-1.896,0.155-4.556,0.356-6.047-0.865c-0.672-0.551-1.498-1.041-2.397-1.031c-0.97,0.011-1.818,0.6-2.689,0.958
		c-0.93,0.383-1.839,0.635-2.834,0.746c-1.049,0.116-2.09,0.123-3.139,0.212c-0.628,0.054-1.316,0.182-1.931,0.306
		c-1.478,0.301-3.042,1.038-4.537,1.168c-0.717,0.062-1.493-0.142-2.171-0.33c-1.113-0.309-2.348-0.31-3.41-0.578
		c-0.773-0.196-2.093-0.465-2.352-1.336c-0.345-1.161,0.601-1.688,1.438-2.017c1.339-0.526,1.254-1.33,1.679-2.55
		c0.194-0.56,0.519-0.978,1.049-1.335c0.205-0.138,0.457-0.23,0.665-0.376c0.23-0.162,0.345-0.391,0.497-0.619
		C231.069,276.06,231.502,275.591,231.888,275.087z"/>
	<path fill="#0C2D25" d="M261.377,265.818c-0.953-1.414-3.149-5.177-0.447-5.69c1.645-0.313,3.929,0.487,5.411-0.121
		c0.728-0.298,0.649-0.272,0.701-1.101c0.05-0.812-1.296-3.028-0.656-3.601c0.702-0.629,2.24,0.109,2.833,0.528
		c0.885,0.625,1.176,0.953,2.335,0.834c0.865-2.101-3.117-3.907-2.187-6.391c0.651-0.005,1.093,0.234,1.654,0.514
		c1.553,0.772,3.17,1.757,4.441,2.924c0.771,0.708,1.886,2.292,2.589,1.075c0.38-0.657,0.053-1.82,0.842-2.234
		c0.987-0.518,2.067,0.553,2.39,1.308c0.354,0.829,0.184,1.825,0.494,2.627c0.545,1.403,3.098,2.008,4.474,2.203
		c0.883,0.126,3.98-0.154,4.055,0.881c0.061,0.844-1.306,1.409-1.817,1.832c1.527,1.236,4.837,0.077,6.667,0.385
		c0.851,0.144,2.514,0.86,2.163,1.887c-0.384,1.119-1.95,0.673-2.774,0.938c-0.59,0.189-1.228,0.53-0.803,1.235
		c0.469,0.775,2.921,0.514,3.656,1.115c2.104,1.72-3.158,1.396-4.303,1.182c-1.102-0.206-1.676-0.59-2.691-0.975
		c-1.758-0.664-1.977,0.234-3.104,1.39c-0.649,0.665-1.64,1.13-2.562,1.271c-2.233,0.342-1.826-1.114-3.422-2.317
		c-2.672-2.015-5.182-2.092-7.979-0.979c-1.907,0.759-3.701,1.625-5.858,1.688C264.841,268.302,262.883,268.054,261.377,265.818z"/>
	<path fill="#0C2D25" d="M293.96,257.152c-0.953-1.414-3.149-5.177-0.447-5.69c1.645-0.313,3.929,0.487,5.411-0.121
		c0.728-0.298,0.649-0.272,0.701-1.101c0.05-0.812-1.296-3.028-0.656-3.601c0.702-0.629,2.24,0.109,2.833,0.528
		c0.885,0.625,1.176,0.953,2.335,0.834c0.865-2.101-3.117-3.907-2.187-6.391c0.651-0.005,1.093,0.234,1.654,0.514
		c1.553,0.772,3.17,1.757,4.441,2.924c0.771,0.708,1.886,2.292,2.589,1.075c0.38-0.657,0.053-1.82,0.842-2.234
		c0.987-0.518,2.067,0.553,2.39,1.308c0.354,0.829,0.184,1.825,0.494,2.627c0.545,1.403,3.098,2.008,4.474,2.203
		c0.883,0.126,3.98-0.154,4.055,0.881c0.061,0.844-1.306,1.409-1.817,1.832c1.527,1.236,4.837,0.077,6.667,0.385
		c0.851,0.144,2.514,0.86,2.163,1.887c-0.384,1.119-1.95,0.673-2.774,0.938c-0.59,0.189-1.228,0.53-0.803,1.235
		c0.469,0.775,2.921,0.514,3.656,1.115c2.104,1.72-3.158,1.396-4.303,1.182c-1.102-0.206-1.676-0.59-2.691-0.975
		c-1.758-0.664-1.977,0.234-3.104,1.39c-0.649,0.665-1.64,1.13-2.562,1.271c-2.233,0.342-1.826-1.114-3.422-2.317
		c-2.672-2.015-5.182-2.092-7.979-0.979c-1.907,0.759-3.701,1.625-5.858,1.688C297.424,259.636,295.466,259.388,293.96,257.152z"/>
	<path fill="none" stroke="#0C2D25" stroke-width="3" stroke-miterlimit="10" d="M335.578,154.853c0,0-5,118.167-5,149.5
		s-30.166,50.252-58.166,56.252s-44.305,11.562-53.334,16.666c-12.957,7.326-24,32.001-24,32.001s-11.043-24.675-24-32.001
		c-9.028-5.104-25.333-10.666-53.333-16.666s-52.58-25.334-52.58-56.667s0-117.647,0-117.647"/>
	<path fill="#4875BA" stroke="#264370" stroke-miterlimit="10" d="M140.401,321.276c-18.227,0-30.781-6.166-40.869-11.121
		c-2.312-1.136-4.496-2.208-6.631-3.157c-10.963-4.873-15.249-5.632-15.291-5.639c-1.894-0.32-3.191-2.108-2.889-4.005
		s2.057-3.198,3.96-2.912c0.495,0.074,5.179,0.878,17.062,6.159c2.258,1.004,4.5,2.104,6.874,3.271
		c9.929,4.877,21.182,10.404,37.783,10.404c13.843,0,26.518-4.708,38.775-9.262c6.064-2.252,11.793-4.38,17.541-5.908l2.033-0.541
		c16.58-4.414,29.677-7.9,49.928-9.393c19.003-1.401,32.942-3.188,52.154-8.613c18.431-5.204,26.891-7.168,27.242-7.249
		c1.884-0.437,3.763,0.739,4.197,2.623c0.435,1.883-0.739,3.763-2.623,4.197c-0.084,0.02-8.678,2.016-26.914,7.165
		c-19.784,5.587-34.081,7.423-53.543,8.857c-19.597,1.445-32.414,4.857-48.641,9.177l-2.036,0.542
		c-5.423,1.441-10.999,3.513-16.901,5.705C169.375,316.123,155.502,321.276,140.401,321.276z"/>
	<path fill="#4875BA" stroke="#264370" stroke-miterlimit="10" d="M140.401,333.942c-18.227,0-30.781-6.166-40.869-11.121
		c-2.312-1.136-4.496-2.208-6.631-3.157c-10.963-4.873-15.249-5.632-15.291-5.639c-1.894-0.32-3.191-2.108-2.889-4.005
		s2.057-3.198,3.96-2.912c0.495,0.074,5.179,0.878,17.062,6.159c2.258,1.004,4.5,2.104,6.874,3.271
		c9.929,4.877,21.182,10.404,37.783,10.404c13.843,0,26.518-4.708,38.775-9.262c6.064-2.252,11.793-4.38,17.541-5.908l2.033-0.541
		c16.58-4.414,29.677-7.9,49.928-9.393c19.003-1.401,32.942-3.188,52.154-8.613c18.431-5.204,26.891-7.168,27.242-7.249
		c1.884-0.437,3.763,0.739,4.197,2.623c0.435,1.883-0.739,3.763-2.623,4.197c-0.084,0.02-8.678,2.016-26.914,7.165
		c-19.784,5.587-34.081,7.423-53.543,8.857c-19.597,1.445-32.414,4.857-48.641,9.177l-2.036,0.542
		c-5.423,1.441-10.999,3.513-16.901,5.705C169.375,328.789,155.502,333.942,140.401,333.942z"/>
	<polygon fill="#175A32" points="185.392,350.788 182.745,346.901 182.745,341.937 179.363,341.937 176.411,337.603 
		173.459,341.937 169.411,341.937 169.411,347.88 167.43,350.788 169.411,350.788 169.411,354.937 182.745,354.937 182.745,350.788 
			"/>
	<polygon fill="#175A32" points="205.892,361.621 203.245,357.734 203.245,352.77 199.863,352.77 196.911,348.436 193.959,352.77 
		189.911,352.77 189.911,358.713 187.93,361.621 189.911,361.621 189.911,365.77 203.245,365.77 203.245,361.621 	"/>
	<polygon fill="#175A32" points="227.059,350.788 224.412,346.901 224.412,341.937 221.03,341.937 218.078,337.603 215.126,341.937 
		211.078,341.937 211.078,347.88 209.097,350.788 211.078,350.788 211.078,354.937 224.412,354.937 224.412,350.788 	"/>
</g>
</svg>
