<?xml version="1.0" encoding="utf-8"?>
<!-- Generator: Adobe Illustrator 15.0.0, SVG Export Plug-In . SVG Version: 6.00 Build 0)  -->
<!DOCTYPE svg PUBLIC "-//W3C//DTD SVG 1.1//EN" "http://www.w3.org/Graphics/SVG/1.1/DTD/svg11.dtd">
<svg version="1.1" id="Layer_1" xmlns="http://www.w3.org/2000/svg" xmlns:xlink="http://www.w3.org/1999/xlink" x="0px" y="0px"
	 width="1596.956px" height="661.189px" viewBox="0 0 1596.956 661.189" enable-background="new 0 0 1596.956 661.189"
	 xml:space="preserve">
<g>
	<path fill-rule="evenodd" clip-rule="evenodd" fill="#FF840D" d="M1590.236,575.014c-11.096,34.272-32.8,51.408-65.104,51.408
		c-9.132,0-14.19-0.14-15.174-0.42c-2.95-0.843-3.934-2.67-2.95-5.478l5.691-18.119c0-0.563,0.21-0.914,0.63-1.054l0.844-0.634
		c1.123-0.563,1.896-0.773,2.316-0.634c2.671,1.407,5.552,2.107,8.643,2.107c10.251,0,17.416-6.531,21.49-19.594l7.165-21.07
		c3.79-11.239,0.913-16.856-8.639-16.856c-15.313,0-26.128,5.617-32.449,16.856l-17.066,53.521c0,1.543,0.35,2.807,1.054,3.79
		c1.543,1.687,1.543,3.515,0,5.478l-0.844,0.844l-0.634,0.424c-0.279,0.14-0.56,0.279-0.844,0.419
		c-0.56,0.141-0.909,0.28-1.054,0.42l-33.288,0.214l-1.897-0.214c-1.543-0.42-2.457-1.473-2.741-3.16
		c-0.699-1.823-0.489-4.564,0.634-8.214l9.272-27.392c0.14-0.844,0.279-1.338,0.42-1.478l12.012-36.45
		c1.264-5.622,0.351-8.428-2.74-8.428c-1.403,0-1.688-1.897-0.844-5.691l6.531-20.227c0.563-1.543,1.896-1.687,4.004-0.419
		c2.671,2.107,4.638,3.16,5.901,3.16h24.231c5.757,0.7,8.567,4.145,8.428,10.321c10.396-7.724,24.371-11.589,41.932-11.589
		c11.938,0,20.716,3.584,26.338,10.75c6.74,8.708,7.23,21.63,1.473,38.766L1590.236,575.014z M1458.336,517.7
		c8.148,0.984,10.255,7.655,6.321,20.017l-9.901,29.499c-0.28,1.827-1.054,3.725-2.317,5.691l-11.169,34.343
		c-1.123,3.37-1.688,5.901-1.688,7.584c-0.279,1.548-0.07,2.812,0.634,3.795c1.543,1.543,1.543,3.37,0,5.478l-0.634,0.844
		l-0.63,0.634l-2.106,0.629l-33.503,0.21c-0.704-0.14-1.193-0.21-1.474-0.21c-1.688-0.419-2.671-1.403-2.95-2.95
		c-0.564-2.247-0.354-5.054,0.63-8.429l9.481-27.811c0-0.564,0.069-0.984,0.214-1.264l11.799-36.454
		c1.543-5.478,0.629-8.218-2.741-8.218c-1.264,0-1.474-1.893-0.63-5.688l6.951-20.437c0.424-1.547,1.617-1.618,3.584-0.214
		c2.947,1.827,4.914,2.741,5.897,2.741L1458.336,517.7z M1251.426,516.017c2.666,1.823,5.197,2.597,7.584,2.317
		c6.321-0.563,13.063-0.773,20.227-0.634c5.622,0,9.063,1.618,10.326,4.848c1.263,2.951,0.703,8.148-1.688,15.593l-7.375,22.334
		c-2.526,8.288-9.338,14.186-20.437,17.7l-16.437,4.844l3.16,8.429c2.951,7.024,5.901,12.502,8.853,16.437l5.688,7.165
		c1.967,1.822,1.967,3.72,0,5.687l-3.581,4.425l-0.844,0.424c-0.419,0.14-0.633,0.279-0.633,0.419
		c-0.561,0.141-1.054,0.21-1.474,0.21l-0.42,0.21h-91.87c-2.247,0-3.931-0.629-5.054-1.893c-0.983-1.407-1.198-2.951-0.634-4.638
		l5.688-15.17c1.407-4.074,4.498-6.111,9.271-6.111h34.977c-4.774-7.305-8.145-15.872-10.111-25.704l-5.478-30.132h-5.692
		c-1.827,0-2.037-1.897-0.629-5.688l5.896-20.86c0.425-1.547,1.548-1.617,3.371-0.21c2.811,1.823,5.411,2.597,7.799,2.317
		c6.32-0.563,10.535-0.983,12.642-1.263c2.527,0,4.494,0.419,5.897,1.263c5.762,0.844,9.342,4.704,10.749,11.589
		c1.544,11.379,3.161,20.577,4.844,27.602l2.741,10.115l4.634-13.486c2.811-8.708,2.601-13.066-0.63-13.066
		c-1.407,0-1.688-1.823-0.844-5.478l5.688-19.383C1248.195,514.679,1249.458,514.609,1251.426,516.017z M1314.637,518.963
		c8.004-0.84,13.626-1.124,16.856-0.84c4.214,0,7.095,0.56,8.638,1.684c1.403,1.407,2.178,4.214,2.317,8.428l-1.684,66.796
		c8.145-2.95,14.046-9.836,17.696-20.65l6.535-20.017c2.667-8.708,2.387-13.062-0.844-13.062c-1.264,0-1.407-1.827-0.424-5.481
		l5.691-20.437c0.28-0.983,1.474-0.773,3.58,0.634c2.951,2.387,5.622,3.371,8.009,2.947c8.004-1.403,14.609-1.683,19.807-0.84
		c5.338,0,8.708,1.264,10.111,3.791c1.408,2.671,1.194,7.025-0.629,13.066l-9.063,29.285c-8.148,24.725-24.864,43.054-50.149,54.998
		c-9.691,4.634-22.823,8.638-39.4,12.009c-14.609,2.67-28.025,4.283-40.243,4.848l-2.107-1.478
		c-0.703-2.667,0.21-7.235,2.737-13.696c0.983-2.95,2.177-5.896,3.584-8.848c0.983-2.247,2.667-3.23,5.058-2.95l7.795,0.419
		c5.197,0,9.762-0.489,13.695-1.473l0.634-61.314c-0.563-3.654-2.177-5.478-4.848-5.478c-1.403,0-1.688-1.827-0.844-5.481
		l5.901-20.437c0.42-0.983,1.827-0.773,4.214,0.634C1310.068,518.404,1312.529,519.387,1314.637,518.963z M545.774,518.333
		c2.809,0,5.899-0.07,9.271-0.21h0.21c5.338-0.424,11.167-0.634,17.488-0.634c0.562,0,1.054,0,1.476,0
		c20.648,0,34.836,2.597,42.563,7.794c9.552,6.321,11.589,17.561,6.109,33.713l-15.591,48.252
		c-1.827,5.197-2.037,8.992-0.632,11.379c1.264,1.543,1.123,3.23-0.422,5.058l-1.054,1.474l-1.685,0.843
		c-0.282,0.141-0.634,0.21-1.054,0.21l-0.634,0.21h-33.079c-0.422,0-1.126-0.069-2.107-0.21c-2.528-0.279-3.582-1.827-3.16-4.634
		v-0.634l0.632-3.79l18.119-54.363c3.652-11.379,0.492-17.63-9.481-18.753c-1.123-0.28-2.457-0.42-4.002-0.42l-6.111,0.63
		l-16.225,49.095c-8.007,23.882-24.231,35.82-48.672,35.82c-4.918,0-9.061-0.49-12.433-1.474c-2.387-1.123-3.23-2.95-2.528-5.481
		l6.532-19.383c0.702-2.387,2.457-3.301,5.268-2.741l3.371,0.634c6.041,0,10.186-3.58,12.433-10.745l10.957-34.137
		c1.545-4.773,2.106-7.934,1.685-9.481c-0.703-2.387-3.16-3.581-7.374-3.581c-1.406,0-1.615-1.827-0.632-5.478l6.321-21.28
		c0.419-1.407,2.034-1.407,4.846,0c3.792,2.527,7.374,3.581,10.745,3.161L545.774,518.333z M1116.784,516.017
		c21.07,0,35.4,3.791,42.984,11.375c8.005,8.148,9.058,20.86,3.161,38.141l-13.486,41.717c-1.827,5.621-1.827,9.411,0,11.379
		c1.543,1.967,1.403,3.65-0.42,5.058l-0.634,1.264l-0.844,0.634c-0.279,0-0.489,0.069-0.629,0.21
		c-0.704,0.14-1.198,0.279-1.478,0.419l-33.079,0.21l-3.794-0.629c-1.544-0.141-2.457-1.264-2.737-3.371v-1.478l0.63-3.79
		l15.383-46.569c6.041-18.68-1.054-28.021-21.28-28.021c-10.255,0-20.087,2.951-29.499,8.848c-2.106,1.263-3.934,1.407-5.481,0.424
		c-1.403-1.124-1.823-2.811-1.263-5.058l8.638-27.815c0.563-1.683,1.478-1.893,2.741-0.63c2.106,1.403,3.724,2.037,4.848,1.897
		C1093.043,517.42,1105.125,516.017,1116.784,516.017z M980.458,518.333c6.321-0.563,13.204-0.844,20.648-0.844
		c5.479,0,8.92,1.543,10.325,4.634c0.983,3.23,0.422,8.428-1.686,15.593l-9.903,29.499c-2.247,8.852-8.989,14.819-20.227,17.91
		l-6.321,1.897c7.585,17.136,12.009,27.811,13.274,32.025l0.21,0.844l-0.632,2.95l-1.264,1.688l-0.844,0.63l-2.738,1.263h-32.449
		c-1.968,0-3.371-1.054-4.215-3.16c-2.106-7.021-5.478-16.013-10.113-26.968l-9.691-22.548l-0.212-0.84l-0.632-0.214
		c-1.123,0.144-2.316,0.914-3.582,2.321c-1.968,2.247-3.44,5.547-4.424,9.901l-2.529,14.539c-1.686,8.988-0.771,15.029,2.739,18.12
		c2.246,1.688,2.599,3.58,1.053,5.688l-0.631,1.268l-3.583,1.893h-27.602l-6.533-0.629c-1.965-0.425-3.58-1.264-4.846-2.531
		c-2.247-3.091-2.106-8.639,0.422-16.643l7.165-24.445c3.23-9.127,7.303-15.099,12.221-17.91c2.948-1.543,11.026-3.3,24.23-5.268
		l-8.64-16.433h-9.691c-1.264,0-1.476-1.897-0.632-5.691l5.689-20.646c0.701-1.547,2.035-1.757,4.002-0.634
		c2.811,1.827,5.197,2.741,7.165,2.741c6.601-0.563,10.885-1.053,12.852-1.478c2.669,0,4.846,0.494,6.533,1.478l4.846,2.107
		c2.107,1.403,3.44,2.597,4.002,3.581c1.688,1.967,3.723,5.622,6.111,10.959l12.011,26.968l2.529-8.004
		c2.809-8.572,2.599-12.856-0.634-12.856c-1.264,0-1.403-1.893-0.42-5.688l5.268-19.173c0.842-1.547,2.107-1.757,3.792-0.634
		C975.682,517.42,978.211,518.333,980.458,518.333z M1040.511,621.789v-0.42l12.429-39.194c2.391-7.304,7.519-11.938,15.383-13.905
		l23.178-6.321c1.967-0.42,3.44-0.07,4.424,1.054s1.193,2.741,0.634,4.848l-12.853,39.4c-1.123,3.37-1.688,5.901-1.688,7.584
		c-0.279,1.548-0.14,2.812,0.42,3.795c1.407,1.543,1.407,3.37,0,5.478l-0.42,0.844l-0.634,0.634c-0.56,0-0.983,0.069-1.263,0.21
		l-0.844,0.419l-31.605,0.21l-3.581-0.42c-1.687-0.279-2.811-1.263-3.37-2.95L1040.511,621.789z M812.316,517.7
		c8.146,0.984,10.183,7.655,6.11,20.017l-9.693,29.499c-0.14,1.827-0.913,3.725-2.316,5.691L795.25,607.25
		c-1.266,3.37-1.897,5.901-1.897,7.584c0,1.548,0.282,2.812,0.844,3.795c1.403,1.543,1.403,3.37,0,5.478l-1.266,1.478l-2.107,0.629
		l-33.29,0.21c-0.844-0.14-1.406-0.21-1.686-0.21c-1.546-0.419-2.599-1.403-3.161-2.95c-0.422-2.247-0.14-5.054,0.842-8.429
		l9.272-27.811c0-0.564,0.14-0.984,0.421-1.264l12.011-36.454c1.546-5.478,0.563-8.218-2.95-8.218c-1.264,0-1.546-1.893-0.844-5.688
		l6.955-20.437c0.562-1.547,1.895-1.618,4.002-0.214c2.811,1.827,4.636,2.741,5.479,2.741L812.316,517.7z M889.645,517.7
		c3.793,0,5.198,1.688,4.215,5.058l-1.266,6.531c-0.14,0.424-0.28,0.774-0.42,1.054c-0.142,0.563-0.492,1.053-1.054,1.477
		l-0.844,0.84c-6.321,2.531-11.097,7.305-14.327,14.33l-21.282,60.261c-1.546,4.777-1.756,8.568-0.632,11.379
		c0.844,1.543,0.352,3.23-1.476,5.058l-1.474,1.474l-0.843,0.424c-0.282,0.14-0.492,0.279-0.632,0.419l-1.476,0.42l-34.345,0.214
		c-3.091,0-4.775-1.547-5.058-4.638c0-2.387,0.914-5.617,2.739-9.691l17.277-53.31c2.951-8.144,7.515-14.045,13.696-17.696h-11.799
		c-4.775,0-6.391-2.251-4.846-6.745l5.056-19.173c0.562-1.263,1.758-1.263,3.582,0c2.39,1.543,4.074,2.317,5.059,2.317H889.645z
		 M639.538,514.749c2.95,1.967,5.407,2.881,7.375,2.741c6.461-0.704,13.344-1.053,20.648-1.053c5.619,0,8.989,1.617,10.113,4.848
		c1.266,3.091,0.704,8.284-1.686,15.589l-9.481,29.499c-2.529,8.712-9.342,14.61-20.438,17.7l-19.384,6.321
		c-2.249,0.563-3.934,0.279-5.058-0.844c-1.405-0.983-1.685-2.526-0.844-4.634l10.747-31.606c2.81-8.708,2.6-13.062-0.631-13.062
		c-1.406,0-1.688-1.967-0.844-5.901l5.689-18.963C636.447,513.556,637.713,513.346,639.538,514.749z M689.264,516.856
		c2.107,1.828,4.004,2.531,5.689,2.107c11.801-1.963,21.282-2.947,28.445-2.947c34.978,0,47.408,15.169,37.295,45.511
		l-14.959,45.722c-1.126,4.074-1.688,6.955-1.688,8.638l0.634,2.951c1.403,1.967,1.403,3.724,0,5.268l-1.266,1.054l-0.422,0.424
		c-0.562,0.14-0.911,0.279-1.054,0.419c-0.42,0.141-0.842,0.21-1.263,0.21l-0.422,0.21h-33.501l-1.476-0.21
		c-1.686-0.279-2.738-1.333-3.16-3.16l0.422-4.004l16.435-51.409c5.477-15.453,0.491-23.177-14.962-23.177
		c-6.321,0-12.992,1.613-20.017,4.844c-2.107,1.263-3.792,1.263-5.056,0c-1.124-1.124-1.405-2.737-0.844-4.844l8.218-26.128
		C687.017,516.367,688,515.873,689.264,516.856z"/>
	<path fill-rule="evenodd" clip-rule="evenodd" fill="#AE1619" d="M37.976,518.333l1.685-0.634l5.48,3.584h23.387l6.111,0.84
		l4.002,3.375c1.124,2.247,0.774,7.161-1.053,14.749l-33.501,97.764c-0.983,4.638-3.373,8.429-7.165,11.379
		c-2.529,2.951-6.743,4.848-12.642,5.691l-17.7,6.107l-5.268-0.84c-1.263-1.268-1.615-2.74-1.053-4.428l34.346-99.661l1.686-9.062
		c0-2.387-0.914-3.581-2.739-3.581c-1.688,0-2.037-1.757-1.054-5.268L37.976,518.333z M103.504,486.304l5.058,3.584l3.792,0.629
		l15.381-0.629c3.373-0.984,5.689,0.209,6.955,3.58c1.403,2.247,1.193,6.111-0.634,11.589l-4.634,16.227h16.223
		c12.784,0,21.143,2.597,25.075,7.794c5.058,5.338,5.689,13.766,1.897,25.285c-2.811,8.008-7.375,15.169-13.696,21.49
		l-36.664,29.922l-3.792,7.165l-0.844,2.736l-0.842,6.111l-1.897,2.741l-2.529,1.054H79.907l-1.688-1.054l-1.895-2.741l1.054-9.691
		l5.268-10.115c2.669-3.371,7.163-6.951,13.484-10.745l28.867-21.49c2.669-2.671,4.426-5.268,5.268-7.799
		c1.545-4.214,1.266-7.864-0.841-10.955c-2.669-1.827-6.603-2.741-11.801-2.741H88.124l-3.583-1.897v-3.581l17.91-55.417
		L103.504,486.304z M223.396,521.284c3.932,0,6.321,1.823,7.165,5.478c0.981,2.951,0.42,7.445-1.688,13.486L206.33,607.25
		l-1.688,7.165l1.688,6.53l-0.844,2.531l-0.844,1.054l-1.895,1.054h-33.925l-1.895-1.054l-0.844-1.688
		c-0.983-2.387-0.702-5.197,0.844-8.428l20.649-62.578c0.983-5.481,0.07-8.218-2.739-8.218c-1.545,0-1.827-1.757-0.844-5.268
		l6.533-20.017l1.685-0.634l1.685,0.634l2.739,2.107l2.739,0.844H223.396z M296.09,527.392c4.915,7.165,5.829,17.07,2.738,29.712
		l-13.274,42.98l-1.896,11.169l0.634,8.848l-0.634,1.688l-1.896,2.741l-1.897,1.054h-31.394l-2.741-1.054l-1.685-1.688v-6.321
		l2.319-12.852l-0.634-0.844l-8.006,12.852l-7.375,7.799l-5.478,4.424l-6.743,1.054l-4.636-1.054l-2.529-2.316l-1.054-3.795
		l8.85-26.128h1.054c14.328-6.182,25.075-12.433,32.237-18.753l4.427-7.161l3.582-12.013c1.124-3.371,0.912-6.321-0.634-8.848
		c-0.981-1.687-2.948-2.531-5.899-2.531l-9.481,1.897l-5.478-1.053c-0.704-0.844-0.704-2.317,0-4.424l7.163-21.49l0.634-0.844
		l2.948,1.684h2.738l17.91-2.527C282.184,519.597,290.892,522.194,296.09,527.392z"/>
	<linearGradient id="SVGID_1_" gradientUnits="userSpaceOnUse" x1="312.0928" y1="464.0054" x2="1337.1074" y2="302.0469">
		<stop  offset="0" style="stop-color:#7CB021"/>
		<stop  offset="0.3843" style="stop-color:#487E24"/>
		<stop  offset="0.702" style="stop-color:#FFF100"/>
		<stop  offset="1" style="stop-color:#FFFFFF"/>
	</linearGradient>
	<path fill-rule="evenodd" clip-rule="evenodd" fill="url(#SVGID_1_)" d="M1325.802,218.711l2.321,2.107l-27.392-12.433
		l-48.043-13.906l-77.96-12.432c-47.199-5.056-98.612-6.182-154.236-3.371c-46.636,2.247-91.727,9.06-135.273,20.439
		c-41.999,10.393-85.827,24.933-131.479,43.614l-59.419,24.865l1.264-14.75c2.249-11.801,5.619-24.723,10.115-38.771l6.741-13.064
		c64.194-18.12,129.795-30.622,196.799-37.505l98.399-5.477c25.986-1.967,56.888-1.616,92.708,1.053l85.969,10.113
		c27.112,4.776,51.902,10.605,74.381,17.488c9.831,2.951,24.65,8.99,44.458,18.12L1325.802,218.711z M653.024,288.454
		l-40.034,20.648c-25.566,13.204-48.043,26.902-67.426,41.087c-21.353,16.437-38.561,32.03-51.623,46.779
		c-14.749,14.889-27.321,30.972-37.717,48.248c-10.253,18.264-17.909,34.626-22.967,49.096c-5.76,14.889-9.2,30.202-10.324,45.935
		c-1.405,17.556-0.631,31.606,2.317,42.141c2.247,12.643,7.234,24.861,14.961,36.66c6.883,11.519,15.241,21.07,25.073,28.659
		l-54.783-9.063l-16.225-5.688c-15.873-8.852-28.023-18.403-36.452-28.659c-10.957-12.358-18.611-24.93-22.966-37.712
		c-5.339-13.066-8.008-28.025-8.008-44.882s2.249-33.223,6.743-49.096c7.024-20.227,15.101-37.783,24.23-52.676
		c10.396-17.136,22.968-34.342,37.717-51.623c14.89-15.449,33.222-31.816,54.993-49.092c19.808-15.311,43.406-30.132,70.799-44.46
		c32.167-16.856,68.479-32.939,108.933-48.25C632.516,249.403,640.1,270.052,653.024,288.454z"/>
	<linearGradient id="SVGID_2_" gradientUnits="userSpaceOnUse" x1="1165.4746" y1="104.98" x2="908.572" y2="472.1591">
		<stop  offset="0" style="stop-color:#FFD100"/>
		<stop  offset="0.1176" style="stop-color:#E20A16"/>
		<stop  offset="0.3569" style="stop-color:#FF860C"/>
		<stop  offset="0.5373" style="stop-color:#FFF100"/>
		<stop  offset="0.8275" style="stop-color:#FFFFFF"/>
		<stop  offset="1" style="stop-color:#7CB021"/>
	</linearGradient>
	<path fill-rule="evenodd" clip-rule="evenodd" fill="url(#SVGID_2_)" d="M1325.802,218.711
		c10.959,6.743,18.264,13.134,21.914,19.173c9.132,11.519,10.675,24.935,4.638,40.246c-7.444,14.327-21.215,28.795-41.301,43.404
		c-25.705,16.152-53.94,29.848-84.702,41.087c-14.609,5.901-34.063,12.079-58.363,18.543l-148.549,22.964
		c-18.402,1.547-44.81,2.321-79.225,2.321l-75.432-7.165c-18.262-2.671-40.737-7.585-67.426-14.75l-24.23-10.325h-2.107
		c-22.897-12.643-40.105-25.285-51.623-37.927l-12.642-17.066c43.966,20.227,86.316,34.696,127.055,43.404
		c40.875,8.992,79.014,12.852,114.412,11.589c32.869,0,67.144-4.214,102.825-12.643c30.622-6.885,62.298-16.437,95.027-28.655
		c27.951-10.957,52.815-23.178,74.59-36.664c20.927-14.328,35.396-27.251,43.404-38.771c8.288-14.607,10.955-27.18,8.005-37.715
		c-2.667-10.817-9.128-19.245-19.384-25.285l48.043,13.906l27.392,12.433L1325.802,218.711z"/>
	<linearGradient id="SVGID_3_" gradientUnits="userSpaceOnUse" x1="951.8271" y1="-61.4375" x2="751.5172" y2="367.5279">
		<stop  offset="0" style="stop-color:#0885C2"/>
		<stop  offset="0.1294" style="stop-color:#00377C"/>
		<stop  offset="0.3216" style="stop-color:#0083D7"/>
		<stop  offset="0.4706" style="stop-color:#5CC8F1"/>
		<stop  offset="0.8784" style="stop-color:#7CB021"/>
		<stop  offset="1" style="stop-color:#FFFFFF"/>
	</linearGradient>
	<path fill-rule="evenodd" clip-rule="evenodd" fill="url(#SVGID_3_)" d="M694.321,267.595l2.317,21.912
		c1.125,10.817,4.495,20.721,10.115,29.711l12.642,17.066c11.518,12.643,28.726,25.285,51.623,37.927l-24.231-10.326l-29.71-17.066
		c-23.317-14.609-42.772-31.466-58.366-50.569l-5.687-7.796c-12.925-18.402-20.509-39.05-22.758-61.946v-3.373
		c-2.388-30.482,7.796-61.736,30.552-93.764c24.303-34.274,59.841-62.93,106.618-85.967c40.174-18.12,86.738-30.692,139.696-37.717
		L975.612,0c28.235,0,48.884,0.35,61.948,1.054l50.358,5.687c12.079,1.967,23.178,5.128,33.289,9.482l-82.595-3.371
		c-30.061,0-60.192,4.145-90.393,12.433c-70.938,17.98-135.765,56.818-194.48,116.519c-8.71,8.85-18.262,20.367-28.657,34.555
		l-12.642,24.653l-6.741,13.064c-4.496,14.048-7.866,26.97-10.115,38.771L694.321,267.595z"/>
</g>
</svg>
