<?xml version="1.0" encoding="UTF-8" standalone="no"?>
<!-- Created with Inkscape (http://www.inkscape.org/) -->
<svg
   xmlns:dc="http://purl.org/dc/elements/1.1/"
   xmlns:cc="http://web.resource.org/cc/"
   xmlns:rdf="http://www.w3.org/1999/02/22-rdf-syntax-ns#"
   xmlns:svg="http://www.w3.org/2000/svg"
   xmlns="http://www.w3.org/2000/svg"
   xmlns:sodipodi="http://sodipodi.sourceforge.net/DTD/sodipodi-0.dtd"
   xmlns:inkscape="http://www.inkscape.org/namespaces/inkscape"
   width="333"
   height="507"
   id="svg4012"
   sodipodi:version="0.32"
   inkscape:version="0.44"
   version="1.0"
   sodipodi:docbase="C:\Documents and Settings\Administrateur\Bureau\Nouveau dossier"
   sodipodi:docname="Haifa_coa.svg">
  <defs
     id="defs4014" />
  <sodipodi:namedview
     id="base"
     pagecolor="#ffffff"
     bordercolor="#666666"
     borderopacity="1.0"
     inkscape:pageopacity="0.0"
     inkscape:pageshadow="2"
     inkscape:zoom="0.74614323"
     inkscape:cx="166.347"
     inkscape:cy="253.30257"
     inkscape:document-units="px"
     inkscape:current-layer="layer1"
     width="333px"
     height="507px"
     inkscape:window-width="939"
     inkscape:window-height="573"
     inkscape:window-x="22"
     inkscape:window-y="22" />
  <metadata
     id="metadata4017">
    <rdf:RDF>
      <cc:Work
         rdf:about="">
        <dc:format>image/svg+xml</dc:format>
        <dc:type
           rdf:resource="http://purl.org/dc/dcmitype/StillImage" />
      </cc:Work>
    </rdf:RDF>
  </metadata>
  <g
     inkscape:label="Calque 1"
     inkscape:groupmode="layer"
     id="layer1">
    <g
       id="g3855"
       transform="matrix(0.575,0,0,0.575,56.00101,18.29731)">
      <path
         style="font-size:12px;opacity:1;fill:#9cf"
         id="path698"
         d="M 202.38412,685.38937 C 191.34087,666.85043 174.33509,658.25735 155.42836,651.48178 C 136.89004,644.8228 114.56046,638.76202 93.109593,633.71862 C 20.205313,616.58795 4.8450031,598.22215 4.8450031,555.26951 L 4.8450031,192.66064 L 394.13586,192.66064 L 394.13586,558.39706 C 394.13586,595.04754 368.27763,623.14238 336.06433,632.54215 C 317.61512,637.93612 277.31043,644.85909 257.56121,650.74452 C 232.94411,658.08105 212.06248,666.7596 202.38412,685.38937 L 202.38412,685.38937 z " />
      <path
         style="font-size:12px;opacity:1;fill:#009;fill-opacity:1"
         id="path686"
         d="M 397.43191,575.12385 L 206.32492,269.68727 C 201.24117,261.56412 197.90282,261.56072 192.8432,269.68727 L 1.6048431,576.77045 C 7.7637431,608.14343 30.988633,624.32413 91.950013,638.6563 C 113.28006,643.66342 135.4693,649.69095 153.72519,656.24423 C 172.66669,663.04322 188.37699,671.12557 198.54148,688.85464 C 199.73582,690.93075 200.9573,693.82642 202.96697,693.82642 C 203.42898,693.82642 204.23073,693.40334 205.82819,689.85472 C 213.83207,672.03923 233.47556,663.20137 259.00007,655.59454 C 278.18764,649.88329 318.51051,642.9443 337.48664,637.40935 C 366.47181,628.94119 390.83675,605.87065 397.43191,575.12385 L 397.43191,575.12385 z " />
      <g
         style="opacity:1"
         transform="matrix(0.748751,0,0,-1.05512,-111.3218,629.7016)"
         id="g1104">
        <g
           style="font-size:12px"
           id="g986">
          <path
             style="font-size:12px;fill:#9cf;fill-opacity:1"
             transform="matrix(2.016529,0,0,-1.012706,-18.90965,414.9499)"
             id="path610"
             d="M 143.362,-83.7001 L 123.52,-134.751 C 130.596,-139.927 137.625,-144.46 144.602,-148.372 L 149.811,-130.08 C 153.557,-132.427 157.277,-134.554 160.972,-136.47 L 156.508,-154.468 C 165.866,-158.806 175.129,-162.026 184.288,-164.176 L 186.768,-146.568 C 190.679,-147.598 194.564,-148.394 198.425,-148.96 L 197.681,-166.574 C 207.143,-167.738 216.488,-167.76 225.708,-166.696 L 225.461,-149.246 C 230.123,-148.661 234.752,-147.751 239.351,-146.531 L 242.575,-163.514 C 247.827,-162.136 253.037,-160.404 258.201,-158.329 C 262.281,-156.691 266.332,-154.839 270.354,-152.777 L 266.386,-135.737 C 269.789,-133.927 273.179,-131.955 276.555,-129.829 L 281.764,-146.327 C 287.955,-142.499 294.074,-138.173 300.118,-133.373 L 281.268,-83.3791 C 236.065,-55.8462 189.486,-57.2269 143.362,-83.7001 L 143.362,-83.7001 z " />
          <path
             style="font-size:12px;fill:red;fill-opacity:1"
             transform="matrix(2.016529,0,0,-1.012706,-18.90965,414.9499)"
             id="path556"
             d="M 146.215,-82.1426 C 191.418,-57.6752 236.342,-56.5383 278.849,-81.8795 C 233.117,-119.92 187.14,-115.292 146.215,-82.1426 z " />
          <path
             style="font-size:12px;fill:#009;fill-opacity:1"
             transform="matrix(2.016529,0,0,-1.012706,-18.90965,414.9499)"
             id="path590"
             d="M 150.307,-103.67 L 143.796,-99.1256 L 147.703,-87.4644 L 154.214,-91.9717 L 150.307,-103.67 z " />
          <path
             style="font-size:12px;fill:#009;fill-opacity:1"
             transform="matrix(2.016529,0,0,-1.012706,-18.90965,414.9499)"
             id="path591"
             d="M 171.7,-115.528 C 166.258,-113.115 160.862,-110.259 155.516,-106.992 L 158.864,-94.914 C 164.056,-98.069 169.265,-100.8 174.49,-103.089 L 171.7,-115.528 z " />
          <path
             style="font-size:12px;fill:#009;fill-opacity:1"
             transform="matrix(2.016529,0,0,-1.012706,-18.90965,414.9499)"
             id="path592"
             d="M 195.139,-123.036 C 189.138,-121.859 183.184,-120.113 177.281,-117.84 L 179.699,-105.222 C 185.139,-107.294 190.596,-108.882 196.069,-109.967 L 195.139,-123.036 z " />
          <path
             style="font-size:12px;fill:#009;fill-opacity:1"
             transform="matrix(2.016529,0,0,-1.012706,-18.90965,414.9499)"
             id="path593"
             d="M 221.554,-124.456 C 214.368,-125.106 207.234,-124.896 200.161,-123.888 L 200.533,-110.741 C 207.393,-111.755 214.276,-111.975 221.182,-111.359 L 221.554,-124.456 z " />
          <path
             style="font-size:12px;fill:#009;fill-opacity:1"
             transform="matrix(2.016529,0,0,-1.012706,-18.90965,414.9499)"
             id="path594"
             d="M 245.551,-119.061 C 239.004,-121.424 232.491,-123.035 226.019,-123.941 C 225.336,-124.037 224.84,-110.957 225.461,-110.871 C 231.397,-110.045 237.351,-108.6 243.319,-106.509 L 245.551,-119.061 z " />
          <path
             style="font-size:12px;fill:#009;fill-opacity:1"
             transform="matrix(2.016529,0,0,-1.012706,-18.90965,414.9499)"
             id="path595"
             d="M 265.828,-109.347 C 260.601,-112.476 255.391,-115.105 250.202,-117.257 L 247.411,-104.975 C 252.362,-102.996 257.323,-100.573 262.293,-97.6881 L 265.828,-109.347 z " />
          <path
             style="font-size:12px;fill:#009;fill-opacity:1"
             transform="matrix(2.016529,0,0,-1.012706,-18.90965,414.9499)"
             id="path596"
             d="M 281.454,-98.5216 C 277.85,-101.362 274.253,-103.956 270.664,-106.312 L 266.944,-94.8551 C 270.412,-92.644 273.884,-90.2068 277.361,-87.539 L 281.454,-98.5216 z " />
          <path
             style="font-size:12px;fill:#009;fill-opacity:1"
             transform="matrix(2.016529,0,0,-1.012706,-18.90965,414.9499)"
             id="path597"
             d="M 252.806,-123.33 L 255.41,-135.316 C 249.393,-137.876 243.377,-139.851 237.366,-141.262 L 236.436,-128.703 C 241.9,-127.4 247.357,-125.613 252.806,-123.33 L 252.806,-123.33 z " />
          <path
             style="font-size:12px;fill:#009;fill-opacity:1"
             transform="matrix(2.016529,0,0,-1.012706,-18.90965,414.9499)"
             id="path598"
             d="M 211.509,-131.332 C 217.959,-131.498 224.411,-131.016 230.855,-129.867 L 231.599,-142.445 C 224.707,-143.654 217.822,-144.131 210.951,-143.91 L 211.509,-131.332 z " />
          <path
             style="font-size:12px;fill:#009;fill-opacity:1"
             transform="matrix(2.016529,0,0,-1.012706,-18.90965,414.9499)"
             id="path599"
             d="M 140.82,-118.211 L 137.471,-115.91 L 141.378,-104.614 L 144.54,-106.822 L 140.82,-118.211 z " />
          <path
             style="font-size:12px;fill:#009;fill-opacity:1"
             transform="matrix(2.016529,0,0,-1.012706,-18.90965,414.9499)"
             id="path600"
             d="M 160.352,-129.99 C 155.002,-127.252 149.669,-124.13 144.354,-120.641 L 147.703,-109.03 C 152.9,-112.498 158.109,-115.575 163.329,-118.253 L 160.352,-129.99 z " />
          <path
             style="font-size:12px;fill:#009;fill-opacity:1"
             transform="matrix(2.016529,0,0,-1.012706,-18.90965,414.9499)"
             id="path601"
             d="M 181.559,-138.77 C 176.088,-137.045 170.631,-134.902 165.189,-132.358 L 167.979,-120.533 C 173.056,-122.904 178.142,-124.894 183.233,-126.495 L 181.559,-138.77 z " />
          <path
             style="font-size:12px;fill:#009;fill-opacity:1"
             transform="matrix(2.016529,0,0,-1.012706,-18.90965,414.9499)"
             id="path602"
             d="M 205.742,-143.608 C 199.466,-143.085 193.201,-141.984 186.954,-140.333 L 188.256,-127.949 C 194.142,-129.503 200.034,-130.533 205.928,-131.026 L 205.742,-143.608 z " />
          <path
             style="font-size:12px;fill:#009;fill-opacity:1"
             transform="matrix(2.016529,0,0,-1.012706,-18.90965,414.9499)"
             id="path603"
             d="M 260.433,-133.043 L 257.829,-121.084 C 262.363,-118.928 266.89,-116.425 271.408,-113.57 L 274.757,-125.042 C 269.983,-128.089 265.208,-130.752 260.433,-133.043 L 260.433,-133.043 z " />
          <path
             style="font-size:12px;fill:#009;fill-opacity:1"
             transform="matrix(2.016529,0,0,-1.012706,-18.90965,414.9499)"
             id="path604"
             d="M 279.407,-121.951 L 275.687,-110.758 C 278.481,-108.852 281.272,-106.809 284.058,-104.628 L 288.151,-115.474 C 285.237,-117.78 282.323,-119.938 279.407,-121.951 L 279.407,-121.951 z " />
          <path
             style="font-size:12px;fill:#009;fill-opacity:1"
             transform="matrix(2.016529,0,0,-1.012706,-18.90965,414.9499)"
             id="path605"
             d="M 290.383,-121.098 L 293.731,-130.749 C 290.504,-133.394 287.28,-135.848 284.058,-138.119 L 280.896,-127.893 C 284.06,-125.783 287.223,-123.518 290.383,-121.098 z " />
          <path
             style="font-size:12px;fill:#009;fill-opacity:1"
             transform="matrix(2.016529,0,0,-1.012706,-18.90965,414.9499)"
             id="path606"
             d="M 261.921,-138.689 L 263.968,-149.936 C 257.88,-152.818 251.803,-155.068 245.737,-156.718 L 244.063,-145.525 C 250.019,-143.774 255.972,-141.499 261.921,-138.689 L 261.921,-138.689 z " />
          <path
             style="font-size:12px;fill:#009;fill-opacity:1"
             transform="matrix(2.016529,0,0,-1.012706,-18.90965,414.9499)"
             id="path607"
             d="M 141.75,-138.317 C 138.522,-136.232 135.298,-134.003 132.077,-131.63 L 135.611,-121.269 C 138.893,-123.665 142.179,-125.915 145.47,-128.017 L 141.75,-138.317 z " />
          <path
             style="font-size:12px;fill:#009;fill-opacity:1"
             transform="matrix(2.016529,0,0,-1.012706,-18.90965,414.9499)"
             id="path608"
             d="M 179.513,-156.001 C 174.166,-154.44 168.834,-152.485 163.515,-150.139 L 165.747,-139.069 C 171.01,-141.443 176.281,-143.436 181.559,-145.041 L 179.513,-156.001 z " />
          <path
             style="font-size:12px;fill:#009;fill-opacity:1"
             transform="matrix(2.016529,0,0,-1.012706,-18.90965,414.9499)"
             id="path609"
             d="M 221.182,-160.192 C 215.208,-160.722 209.256,-160.77 203.324,-160.337 L 203.138,-149.418 C 209.025,-150.013 214.917,-150.116 220.81,-149.718 L 221.182,-160.192 z " />
        </g>
        <g
           style="font-size:12px"
           id="g1009">
          <path
             style="font-size:12px;fill:red;fill-opacity:1"
             transform="matrix(2.016529,0,0,-1.012706,-18.90965,414.9499)"
             id="path569"
             d="M 124.264,-35.926 C 128.914,-44.2575 135.797,-45.573 141.874,-52.4134 C 144.925,-55.8482 146.551,-58.1003 148.819,-62.5865 C 156.446,-77.67 163.701,-85.5628 174.366,-90.2984 C 174.676,-83.1949 173.746,-79.5117 172.134,-75.2149 C 174.118,-78.1962 175.42,-79.2486 177.094,-81.8795 C 177.094,-85.8259 177.281,-89.246 178.211,-92.6662 C 179.091,-95.9033 180.629,-98.1911 182.303,-99.4192 C 183.419,-97.6649 184.535,-96.3495 185.032,-93.8059 C 185.838,-98.4542 186.582,-101.611 187.512,-105.031 C 197.371,-107.662 209.277,-109.504 221.492,-107.838 C 220.066,-103.716 218.206,-101.085 213.059,-96.963 C 220.996,-99.5066 227.321,-100.296 234.204,-99.5066 C 236.251,-99.2719 237.024,-98.1532 235.878,-96.3495 C 224.344,-78.1962 211.367,-73.227 190.86,-75.0391 C 187.884,-75.3022 181.559,-71.0928 178.025,-68.4619 C 180.567,-66.796 184.143,-63.762 183.544,-59.078 C 182.988,-54.737 179.513,-52.6764 176.598,-53.4657 C 173.575,-54.2845 171.7,-57.6752 171.142,-61.5342 C 163.887,-55.0443 153.788,-51.0295 143.858,-41.5393 C 139.312,-37.193 135.983,-35.0494 133.193,-28.5594 C 129.472,-28.7352 126.124,-31.3661 124.264,-35.926 L 124.264,-35.926 z " />
          <path
             style="font-size:12px;fill:white;fill-opacity:1"
             transform="matrix(2.016529,0,0,-1.012706,-18.90965,414.9499)"
             id="path568"
             d="M 146.337,-50.3086 C 154.542,-54.8811 166.305,-61.7089 172.134,-67.3222 C 180.725,-75.5958 182.439,-75.6601 191.418,-77.9331 C 207.478,-76.2672 220.376,-76.6177 234.018,-97.1387 C 224.342,-98.0722 208.346,-95.7359 200.037,-86.7909 C 199.045,-86.7909 197.433,-86.7025 196.812,-86.7898 C 199.541,-90.3857 202.357,-93.3923 205.742,-96.6126 C 213.059,-98.0154 216.407,-100.646 217.648,-106.084 C 215.912,-106.084 213.183,-106.434 210.579,-105.821 C 208.346,-101.172 206.238,-98.7173 201.278,-95.5602 C 197.468,-91.336 192.778,-84.3746 187.884,-80.8271 C 186.803,-80.1936 186.644,-79.6011 185.776,-81.7059 C 192.473,-89.247 197.929,-94.8583 203.138,-105.031 C 202.146,-104.681 200.286,-104.505 198.487,-104.242 C 197.061,-100.472 195.325,-97.4892 191.79,-95.034 C 192.348,-98.0154 192.968,-100.12 193.465,-103.716 C 192.72,-103.453 191.48,-103.277 190.116,-102.927 C 189,-100.296 187.14,-92.14 184.349,-86.8782 C 183.605,-89.5091 183.233,-92.14 181.559,-94.5079 C 179.141,-90.2984 178.397,-86.8782 178.769,-78.9855 C 173.56,-71.619 166.677,-65.3048 158.306,-60.5692 C 157.607,-61.1112 158.773,-62.9307 159.05,-63.9894 C 166.677,-68.9881 170.956,-73.9868 172.444,-86.089 C 166.863,-82.6688 159.826,-76.6219 155.516,-66.0941 C 153.469,-61.0954 150.244,-56.6228 146.337,-50.3086 L 146.337,-50.3086 z " />
          <path
             style="font-size:12px;fill:red;fill-opacity:1"
             transform="matrix(2.016529,0,0,-1.012706,-18.90965,414.9499)"
             id="path567"
             d="M 199.417,-81.7016 C 209.476,-81.5333 218.541,-86.511 222.361,-91.3497 C 215.039,-90.1889 205.754,-86.6551 199.417,-81.7016 z " />
          <path
             style="font-size:12px;fill:white;fill-opacity:1"
             transform="matrix(2.016529,0,0,-1.012706,-18.90965,414.9499)"
             id="path566"
             d="M 175.606,-63.2874 C 174.873,-62.0214 175.777,-59.863 176.908,-59.5168 C 177.967,-59.1927 179.281,-60.5218 179.048,-62.0162 C 178.749,-63.9315 176.485,-64.8049 175.606,-63.2874 z " />
          <path
             style="font-size:12px;fill:red;fill-opacity:1"
             transform="matrix(2.016529,0,0,-1.012706,-18.90965,414.9499)"
             id="path571"
             d="M 283.004,-155.019 C 274.546,-155.499 272.339,-159.404 259.688,-159.579 C 258.325,-160.28 256.837,-161.157 256.218,-162.737 C 268.99,-173.085 292.672,-178.495 310.783,-165.016 C 313.14,-163.262 313.494,-159.207 310.535,-158.349 C 300.908,-155.445 292.305,-154.491 283.004,-155.019 L 283.004,-155.019 z " />
          <path
             style="font-size:12px;fill:red;fill-opacity:1"
             transform="matrix(2.016529,0,0,-1.012706,-18.90965,414.9499)"
             id="path574"
             d="M 227.445,-150.985 C 228.437,-154.142 229.553,-157.299 231.413,-160.807 C 231.289,-172.909 234.266,-185.187 242.327,-194.482 C 246.619,-199.432 249.271,-204.128 253.116,-207.811 C 254.8,-209.425 258.325,-209.215 257.704,-204.304 C 255.719,-188.577 245.427,-175.715 236.374,-160.632 C 234.17,-156.959 232.282,-154.317 230.918,-150.985 C 229.921,-150.442 228.561,-150.634 227.445,-150.985 L 227.445,-150.985 z " />
          <path
             style="font-size:12px;fill:red;fill-opacity:1"
             transform="matrix(2.016529,0,0,-1.012706,-18.90965,414.9499)"
             id="path573"
             d="M 248.155,-165.718 C 251.563,-170.104 256.831,-173.077 261.053,-177.995 C 273.703,-192.728 291.152,-204.127 303.094,-204.655 C 308.839,-204.909 312.293,-205.616 317.728,-207.111 C 322.193,-208.339 322.354,-202.634 319.961,-200.796 C 302.599,-187.466 290.445,-181.678 272.091,-176.242 C 263.276,-173.63 258.201,-170.454 251.008,-162.911 C 250.264,-163.087 248.775,-164.49 248.155,-165.718 L 248.155,-165.718 z " />
          <path
             style="font-size:12px;fill:white;fill-opacity:1"
             transform="matrix(2.016529,0,0,-1.012706,-18.90965,414.9499)"
             id="path560"
             d="M 258.859,-163.297 C 276.865,-162.139 284.232,-153.651 309.878,-162.526 C 295.321,-172.627 277.763,-170.665 258.859,-163.297 z " />
          <path
             style="font-size:12px;fill:white;fill-opacity:1"
             transform="matrix(2.016529,0,0,-1.012706,-18.90965,414.9499)"
             id="path561"
             d="M 263.907,-176.592 C 283.673,-182.911 300.746,-191.405 317.356,-203.357 C 302.397,-202.158 284.326,-197.58 263.907,-176.592 z " />
          <path
             style="font-size:12px;fill:white;fill-opacity:1"
             transform="matrix(2.016529,0,0,-1.012706,-18.90965,414.9499)"
             id="path562"
             d="M 234.278,-164.385 C 243.22,-174.295 248.656,-187.424 253.104,-201.427 C 243.009,-192.938 235.097,-182.134 234.278,-164.385 z " />
          <path
             style="font-size:12px;fill:red;fill-opacity:1"
             transform="matrix(2.016529,0,0,-1.012706,-18.90965,414.9499)"
             id="path572"
             d="M 253.488,-173.085 C 251.403,-173.153 249.702,-175.571 249.768,-178.52 C 249.836,-181.569 251.703,-183.805 253.86,-183.784 C 255.913,-183.764 257.702,-181.601 257.704,-178.697 C 257.708,-175.503 255.746,-173.01 253.488,-173.085 L 253.488,-173.085 z " />
          <path
             style="font-size:12px;fill:red;fill-opacity:1"
             transform="matrix(2.016529,0,0,-1.012706,-18.90965,414.9499)"
             id="path557"
             d="M 263.781,-163.964 C 272.492,-162.298 284.605,-160.608 292.677,-163.964 C 285.192,-167.932 273.058,-167.104 263.781,-163.964 z " />
          <path
             style="font-size:12px;fill:red;fill-opacity:1"
             transform="matrix(2.016529,0,0,-1.012706,-18.90965,414.9499)"
             id="path558"
             d="M 270.292,-180.802 C 273.894,-184.651 288.335,-192.805 296.644,-195.183 C 291.631,-189.495 278.443,-181.804 270.292,-180.802 z " />
          <path
             style="font-size:12px;fill:red;fill-opacity:1"
             transform="matrix(2.016529,0,0,-1.012706,-18.90965,414.9499)"
             id="path559"
             d="M 235.878,-168.962 C 236.094,-173.899 242.166,-184.89 246.791,-192.027 C 243.66,-181.317 240.555,-173.288 235.878,-168.962 z " />
          <path
             style="font-size:12px;fill:red;fill-opacity:1"
             transform="matrix(2.016529,0,0,-1.012706,-18.90965,414.9499)"
             id="path570"
             d="M 235.134,-148.836 C 234.483,-152.256 236.901,-154.229 239.598,-153.309 C 239.412,-151.862 238.947,-149.494 238.575,-147.915 C 237.459,-148.178 236.157,-148.573 235.134,-148.836 z " />
        </g>
      </g>
      <g
         style="opacity:1"
         transform="matrix(0.748751,0,0,-1.05512,-111.3218,629.7016)"
         id="g1162">
        <path
           style="font-size:12px;fill:red;fill-opacity:1"
           transform="matrix(2.016529,0,0,-1.012706,-18.90965,414.9499)"
           id="path695"
           d="M 171.142,536.909 L 133.937,563.219 L 133.937,589.528 L 18.6024,589.528 L 18.6024,536.909 L 171.142,536.909 z " />
        <path
           style="font-size:12px;fill:#9cf;fill-opacity:1"
           transform="matrix(2.016529,0,0,-1.012706,-18.90965,414.9499)"
           id="path565"
           d="M 158.538,541.119 L 21.5787,541.119 L 21.5787,585.318 L 130.961,585.318 L 130.961,560.62 L 158.538,541.119 z " />
        <path
           style="font-size:12px;fill:red;fill-opacity:1"
           transform="matrix(2.016529,0,0,-1.012706,-18.90965,414.9499)"
           id="path692"
           d="M 249.272,536.909 L 286.476,563.219 L 286.476,589.528 L 401.811,589.528 L 401.811,536.909 L 249.272,536.909 z " />
        <path
           style="font-size:12px;fill:red;fill-opacity:1"
           transform="matrix(2.016529,0,0,-1.012706,-18.90965,414.9499)"
           id="path690"
           d="M 130.961,563.219 L 289.453,563.219 L 289.453,615.837 L 130.961,615.837 L 130.961,563.219 z " />
        <path
           style="font-size:12px;fill:#9cf;fill-opacity:1"
           transform="matrix(2.016529,0,0,-1.012706,-18.90965,414.9499)"
           id="path563"
           d="M 261.875,541.119 L 398.835,541.119 L 398.835,585.318 L 289.453,585.318 L 289.453,560.62 L 261.875,541.119 z " />
        <path
           style="font-size:12px;fill:#9cf;fill-opacity:1"
           transform="matrix(2.016529,0,0,-1.012706,-18.90965,414.9499)"
           id="path564"
           d="M 133.937,567.428 L 133.937,611.627 L 286.476,611.627 L 286.476,567.428 L 133.937,567.428 z " />
        <path
           style="font-size:12px;fill:red;fill-opacity:1"
           transform="matrix(2.016529,0,0,-1.012706,-18.90965,414.9499)"
           id="path689"
           d="M 249.272,563.219 L 249.272,536.909 L 286.476,563.219 L 249.272,563.219 z " />
        <path
           style="font-size:12px;fill:red;fill-opacity:1"
           transform="matrix(2.016529,0,0,-1.012706,-18.90965,414.9499)"
           id="path691"
           d="M 342.283,510.6 L 401.811,536.909 L 342.283,536.909 L 342.283,510.6 z " />
        <path
           style="font-size:12px;fill:red;fill-opacity:1"
           transform="matrix(2.016529,0,0,-1.012706,-18.90965,414.9499)"
           id="path693"
           d="M 171.142,563.219 L 171.142,536.909 L 133.937,563.219 L 171.142,563.219 z " />
        <path
           style="font-size:12px;fill:red;fill-opacity:1"
           transform="matrix(2.016529,0,0,-1.012706,-18.90965,414.9499)"
           id="path694"
           d="M 78.1299,510.6 L 78.1299,536.909 L 18.6024,536.909 L 78.1299,510.6 z " />
        <g
           id="g1144">
          <path
             style="font-size:12px;fill:#009;fill-opacity:1"
             transform="matrix(2.016529,0,0,-1.012706,-18.90965,414.9499)"
             id="path578"
             d="M 170.584,590.58 L 176.536,590.58 L 176.536,602.156 L 170.584,602.156 L 170.584,590.58 z " />
          <path
             style="font-size:12px;fill:#009;fill-opacity:1"
             transform="matrix(2.016529,0,0,-1.012706,-18.90965,414.9499)"
             id="path579"
             d="M 170.584,585.318 L 170.584,576.899 L 189.186,576.899 L 189.186,602.156 L 183.233,602.156 L 183.233,585.318 L 170.584,585.318 z " />
          <path
             style="font-size:12px;fill:#009;fill-opacity:1"
             transform="matrix(2.016529,0,0,-1.012706,-18.90965,414.9499)"
             id="path580"
             d="M 195.139,576.899 L 211.509,576.899 L 211.509,602.156 L 194.953,602.156 L 194.953,593.737 L 205.556,593.737 L 205.556,585.318 L 201.092,585.318 L 201.092,588.475 L 195.139,588.475 L 195.139,576.899 z " />
          <path
             style="font-size:12px;fill:#009;fill-opacity:1"
             transform="matrix(2.016529,0,0,-1.012706,-18.90965,414.9499)"
             id="path581"
             d="M 215.787,576.899 L 224.717,576.899 L 224.717,591.895 L 218.764,591.895 L 218.764,585.318 L 215.787,585.318 L 215.787,576.899 z " />
          <path
             style="font-size:12px;fill:#009;fill-opacity:1"
             transform="matrix(2.016529,0,0,-1.012706,-18.90965,414.9499)"
             id="path582"
             d="M 229.181,576.899 L 247.783,576.899 L 247.783,602.156 L 241.831,602.156 L 241.831,585.318 L 235.134,585.318 L 235.134,602.156 L 229.181,602.156 L 229.181,576.899 z " />
        </g>
        <g
           id="g1150">
          <path
             style="font-size:12px;fill:#009;fill-opacity:1"
             transform="matrix(2.016529,0,0,-1.012706,-18.90965,414.9499)"
             id="path589"
             d="M 32.7402,551.643 L 38.6929,551.643 L 38.6929,560.061 L 43.9016,560.061 L 43.9016,551.643 L 49.8543,551.643 L 49.8543,574.795 L 43.9016,574.795 L 43.9016,566.376 L 38.6929,566.376 L 38.6929,574.795 L 32.7402,574.795 L 32.7402,551.643 z " />
          <path
             style="font-size:12px;fill:#009;fill-opacity:1"
             transform="matrix(2.016529,0,0,-1.012706,-18.90965,414.9499)"
             id="path588"
             d="M 53.9469,574.795 L 61.3878,551.643 L 65.8524,551.643 L 73.2933,574.795 L 67.3406,574.795 L 65.8524,570.585 L 61.3878,570.585 L 59.8996,574.795 L 53.9469,574.795 z " />
          <path
             style="font-size:12px;fill:#009;fill-opacity:1"
             transform="matrix(2.016529,0,0,-1.012706,-18.90965,414.9499)"
             id="path586"
             d="M 82.5945,551.643 L 82.5945,574.795 L 76.6417,574.795 L 76.6417,551.643 L 82.5945,551.643 z " />
          <path
             style="font-size:12px;fill:#009;fill-opacity:1"
             transform="matrix(2.016529,0,0,-1.012706,-18.90965,414.9499)"
             id="path585"
             d="M 94.872,568.48 L 94.872,574.795 L 88.9193,574.795 L 88.9193,551.643 L 101.197,551.643 L 101.197,557.957 L 94.872,557.957 L 94.872,562.166 L 101.197,562.166 L 101.197,568.48 L 94.872,568.48 z " />
          <path
             style="font-size:12px;fill:#009;fill-opacity:1"
             transform="matrix(2.016529,0,0,-1.012706,-18.90965,414.9499)"
             id="path584"
             d="M 104.545,574.795 L 111.986,551.643 L 116.451,551.643 L 123.892,574.795 L 117.939,574.795 L 116.451,570.585 L 111.986,570.585 L 110.498,574.795 L 104.545,574.795 z " />
          <path
             style="font-size:12px;fill:#9cf;fill-opacity:1"
             transform="matrix(2.016529,0,0,-1.012706,-18.90965,414.9499)"
             id="path583"
             d="M 113.567,564.271 L 114.312,561.114 L 115.056,564.271 L 113.567,564.271 z " />
          <path
             style="font-size:12px;fill:#9cf;fill-opacity:1"
             transform="matrix(2.016529,0,0,-1.012706,-18.90965,414.9499)"
             id="path587"
             d="M 62.969,564.271 L 63.7131,561.114 L 64.4572,564.271 L 62.969,564.271 z " />
        </g>
        <g
           id="g1158">
          <path
             style="font-size:12px;fill:#009;fill-opacity:1"
             transform="matrix(2.016529,0,0,-1.012706,-18.90965,414.9499)"
             id="path575"
             d="M 362.622,579.006 L 366.467,574.796 L 368.079,577.251 L 370.187,575.146 L 373.536,579.356 L 370.436,583.214 L 368.079,580.233 L 365.847,582.864 L 362.622,579.006 z " />
          <path
             style="font-size:12px;fill:#009;fill-opacity:1"
             transform="matrix(2.016529,0,0,-1.012706,-18.90965,414.9499)"
             id="path576"
             d="M 354.561,549.364 L 357.785,544.978 L 360.887,548.836 L 357.91,552.696 L 354.561,549.364 z " />
          <path
             style="font-size:12px;fill:#009;fill-opacity:1"
             transform="matrix(2.016529,0,0,-1.012706,-18.90965,414.9499)"
             id="path577"
             d="M 299.126,545.68 C 300.366,544.101 301.855,543.399 303.219,543.399 C 303.094,548.661 303.219,551.644 303.219,556.555 C 303.219,566.445 307.683,572.165 316.737,573.218 C 329.635,574.718 336.083,572.516 349.6,566.728 C 350.344,562.167 353.693,556.905 358.034,557.256 C 359.27,557.356 360.51,558.309 360.512,560.064 C 360.514,562.519 359.77,564.623 358.529,566.202 C 361.01,569.183 364.234,566.377 366.095,564.623 C 367.343,563.446 369.319,563.22 369.939,564.798 C 373.288,565.15 376.264,564.623 377.628,560.238 C 376.264,558.134 374.155,557.958 372.172,559.186 C 371.558,558.755 371.055,558.309 370.931,557.432 C 376.76,550.065 378.868,551.819 380.729,554.45 C 381.968,554.626 383.209,554.801 384.697,554.801 C 385.813,557.432 383.953,560.94 381.224,561.816 C 379.86,564.974 376.83,569.263 373.163,571.113 C 371.427,571.99 368.947,571.99 366.467,570.411 C 363.862,571.638 361.611,572.577 358.406,572.691 C 355.766,572.785 354.065,572.34 351.709,571.288 C 341.292,577.076 334.269,581.079 322.565,581.461 C 306.443,581.987 298.754,573.43 298.754,557.257 C 298.754,552.696 299.002,552.169 299.126,545.68 L 299.126,545.68 z " />
        </g>
      </g>
      <g
         style="opacity:1"
         transform="matrix(0.748751,0,0,-1.05512,-111.3218,629.7016)"
         id="g1522">
        <g
           id="g1481">
          <path
             style="font-size:12px;fill:none;stroke:white;stroke-width:1.97696996;stroke-linecap:round;stroke-linejoin:round;stroke-dasharray:none;stroke-opacity:1"
             transform="matrix(2.016529,0,0,-1.012706,-18.90965,414.9499)"
             id="path677"
             d="M 202.394,292.379 L 201.514,328.349 L 202.394,292.379 z " />
          <path
             sodipodi:nodetypes="csc"
             style="font-size:12px;fill:none;stroke:white;stroke-width:1.97696996;stroke-linecap:round;stroke-linejoin:round;stroke-dasharray:none;stroke-opacity:1"
             transform="matrix(2.016529,0,0,-1.012706,-18.90965,414.9499)"
             id="path678"
             d="M 201.785,319.931 C 202.98,320.474 204.232,320.665 205.487,320.605 C 206.743,320.545 208.003,320.234 209.215,319.772" />
          <path
             sodipodi:nodetypes="csc"
             style="font-size:12px;stroke:white;stroke-width:1.97696996;stroke-linecap:round;stroke-linejoin:round;stroke-dasharray:none;stroke-opacity:1"
             transform="matrix(2.016529,0,0,-1.012706,-18.90965,414.9499)"
             id="path679"
             d="M 201.92,312.852 C 203.07,313.243 204.271,313.458 205.495,313.456 C 206.72,313.454 207.969,313.235 209.215,312.756" />
          <path
             sodipodi:nodetypes="csc"
             style="font-size:12px;fill:none;stroke:white;stroke-width:1.97696996;stroke-linecap:round;stroke-linejoin:round;stroke-dasharray:none;stroke-opacity:1"
             transform="matrix(2.016529,0,0,-1.012706,-18.90965,414.9499)"
             id="path680"
             d="M 202.057,306.346 C 203.269,306.784 204.503,307.048 205.712,307.06 C 206.921,307.072 208.105,306.833 209.215,306.266" />
          <path
             sodipodi:nodetypes="csc"
             style="font-size:12px;fill:none;stroke:white;stroke-width:1.97696996;stroke-linecap:round;stroke-linejoin:round;stroke-dasharray:none;stroke-opacity:1"
             transform="matrix(2.016529,0,0,-1.012706,-18.90965,414.9499)"
             id="path681"
             d="M 202.269,300.128 C 203.617,300.462 204.747,300.702 205.844,300.716 C 206.94,300.73 208.003,300.519 209.215,299.952" />
        </g>
        <g
           transform="translate(0,-6.847658e-6)"
           id="g1510">
          <path
             style="font-size:12px;fill:white;stroke:#009;stroke-width:2.82516003"
             transform="matrix(2.016529,0,0,-1.012706,-18.90965,414.9499)"
             id="path672"
             d="M 215.91,144.378 C 215.91,147.886 216.096,151.745 216.096,155.954 C 218.887,155.954 221.74,156.481 224.344,158.059 C 226.702,159.487 228.661,161.252 230.855,159.375 C 231.166,157.709 232.654,153.499 232.902,151.219 C 230.794,150.868 229.055,150.747 227.135,148.851 C 223.848,145.606 220.499,144.028 215.91,144.378 z " />
          <path
             style="font-size:12px;fill:white;stroke:#009;stroke-width:2.82516003"
             transform="matrix(2.016529,0,0,-1.012706,-18.90965,414.9499)"
             id="path682"
             d="M 212.067,138.853 L 209.226,328.636 C 212.202,327.967 214.637,327.681 217.343,326.055 L 215.912,138.765 L 212.067,138.853 z " />
          <path
             style="font-size:12px;fill:white;stroke:#009;stroke-width:2.82516003"
             transform="matrix(2.016529,0,0,-1.012706,-18.90965,414.9499)"
             id="path673"
             d="M 188.442,175.949 C 191.604,194.629 191.013,210.51 186.362,228.663 C 187.444,229.477 188.729,230.672 189.744,231.724 C 205.742,226.2 217.276,228.304 227.321,244.353 C 235.506,233.303 237.551,213.08 230.111,198.575 C 223.228,185.157 210.207,182.263 188.442,175.949 z " />
          <path
             style="font-size:12px;fill:white;stroke:#009;stroke-width:2.82516003"
             transform="matrix(2.016529,0,0,-1.012706,-18.90965,414.9499)"
             id="path675"
             d="M 180.443,296.182 L 181.808,205.721 C 185.155,201.513 184.163,195.725 181.311,194.147 C 180.939,190.99 180.2,188.709 178.458,188.709 C 176.722,188.709 175.731,190.99 174.862,193.971 C 171.762,195.199 171.266,202.566 174.986,205.722 L 173.374,293.09 L 180.443,296.182 z " />
          <path
             style="font-size:12px;fill:white;stroke:#009;stroke-width:2.82516003"
             transform="matrix(2.016529,0,0,-1.012706,-18.90965,414.9499)"
             id="path674"
             d="M 158.492,214.36 C 162.832,239.793 160.105,259.962 149.685,283.641 L 153.903,285.221 C 158.492,277.678 164.321,273.468 171.762,271.713 C 176.952,270.489 183.625,271.55 183.977,278.818 C 184.288,285.219 183.544,289.429 180.938,295.041 L 183.419,296.182 C 192.224,285.745 195.191,275.18 197.185,259.086 C 199.293,242.072 193.465,233.303 183.047,226.2 C 175.627,221.14 168.413,217.868 158.492,214.36 L 158.492,214.36 z " />
          <path
             style="font-size:12px;fill:white;stroke:#009;stroke-width:2.82516003"
             transform="matrix(2.016529,0,0,-1.012706,-18.90965,414.9499)"
             id="path676"
             d="M 222.417,294.912 C 220.631,293.831 218.881,292.967 217.14,292.327 C 217.208,303.614 217.411,315.089 217.411,326.092 C 219.15,325.156 220.847,323.985 222.484,322.566 L 222.417,294.912 z " />
          <path
             style="font-size:12px;fill:white;stroke:#009;stroke-width:2.82516003"
             transform="matrix(2.016529,0,0,-1.012706,-18.90965,414.9499)"
             id="path683"
             d="M 198.301,243.827 C 209.091,241.898 218.094,242.621 227.941,251.72 C 241.893,264.612 239.226,286.447 228.251,299.076 C 215.043,288.376 204.998,287.85 188.814,300.128 C 188.132,300.128 183.296,297.584 183.296,297.321 C 198.301,282.238 201.65,268.207 198.301,243.827 L 198.301,243.827 z " />
          <path
             style="font-size:12px;fill:white;stroke:#009;stroke-width:2.82516003"
             transform="matrix(2.016529,0,0,-1.012706,-18.90965,414.9499)"
             id="path684"
             d="M 277.198,267.57 C 279.966,267.373 281.71,267.011 284.128,266.222 C 284.686,263.328 283.281,260.241 281.268,260.138 C 278.678,260.006 277.477,263.756 277.198,267.57 L 277.198,267.57 z " />
          <path
             style="font-size:12px;fill:white;stroke:#009;stroke-width:2.82516003"
             transform="matrix(2.016529,0,0,-1.012706,-18.90965,414.9499)"
             id="path685"
             d="M 343.074,372.873 C 344.226,369.09 345.355,364.48 346.05,360.375 C 342.487,354.659 337.278,351.513 331.436,351.513 C 324.785,351.513 318.519,356.315 311.857,361.971 C 307.497,365.67 302.114,368.351 296.092,368.351 C 290.488,368.351 286.244,367.643 280.245,363.895 C 273.781,359.866 269.002,356.775 261.677,356.775 C 253.504,356.775 248.784,360.343 241.854,364.387 C 235.552,368.055 231.89,369.929 225.403,369.929 C 219.031,369.929 215.589,368.17 209.614,364.191 C 203.359,360.031 198.533,356.775 191.36,356.775 C 184.093,356.775 178.85,359.34 173.293,362.234 C 166.979,365.506 162.48,366.509 156.574,366.509 C 148.668,366.509 144.04,365.786 137.053,362.234 C 130.856,359.077 123.869,356.511 116.951,356.511 C 109.975,356.511 104.336,358.715 97.8715,362.217 C 93.1048,364.799 89.7445,367.388 86.3127,370.795 C 87.4973,375.056 89.0331,378.979 90.9827,382.617 C 92.7871,381.265 94.8765,379.624 97.8715,378.003 C 104.336,374.501 109.975,372.297 116.951,372.297 C 123.869,372.297 130.856,374.863 137.053,378.02 C 144.04,381.571 148.668,382.294 156.574,382.294 C 162.48,382.294 166.979,381.291 173.293,378.02 C 178.85,375.126 184.093,372.56 191.36,372.56 C 198.533,372.56 203.359,375.816 209.614,379.976 C 215.589,383.955 219.031,385.715 225.403,385.715 C 231.89,385.715 235.552,383.84 241.854,380.173 C 248.784,376.129 253.504,372.56 261.677,372.56 C 269.002,372.56 273.781,375.652 280.245,379.68 C 286.244,383.429 290.488,384.136 296.092,384.136 C 302.114,384.136 307.497,381.456 311.857,377.757 C 318.519,372.1 324.785,367.298 331.436,367.298 C 336.06,367.298 339.725,368.532 343.074,372.873 L 343.074,372.873 z " />
          <path
             style="font-size:12px;fill:white;stroke:#009;stroke-width:2.82516003"
             transform="matrix(2.016529,0,0,-1.012706,-18.90965,414.9499)"
             id="path687"
             d="M 339.493,382.41 C 336.349,380.388 333.168,379.927 331.436,379.927 C 324.785,379.927 318.519,384.728 311.857,390.385 C 307.497,394.084 302.114,396.764 296.092,396.764 C 290.488,396.764 286.244,396.057 280.245,392.309 C 273.781,388.28 269.002,385.188 261.677,385.188 C 253.504,385.188 248.784,388.757 241.854,392.801 C 235.552,396.469 231.89,398.343 225.403,398.343 C 219.031,398.343 215.589,396.583 209.614,392.604 C 203.359,388.444 198.533,385.188 191.36,385.188 C 184.093,385.188 178.85,387.754 173.293,390.648 C 166.979,393.92 162.48,394.923 156.574,394.923 C 148.668,394.923 144.04,394.2 137.053,390.648 C 130.856,387.491 123.869,384.925 116.951,384.925 C 109.975,384.925 104.336,387.129 97.8715,390.631 L 96.861,391.27 C 100.137,395.105 104.222,398.768 108.964,402.009 C 111.487,401.352 114.133,400.711 116.951,400.711 C 123.869,400.711 130.856,403.276 137.053,406.433 C 144.04,409.985 148.668,410.708 156.574,410.708 C 162.48,410.708 166.979,409.705 173.293,406.433 C 178.85,403.539 184.093,400.974 191.36,400.974 C 198.533,400.974 203.359,404.23 209.614,408.39 C 215.589,412.369 219.031,414.128 225.403,414.128 C 231.89,414.128 235.552,412.254 241.854,408.587 C 248.784,404.542 253.504,400.974 261.677,400.974 C 269.002,400.974 273.781,404.066 280.245,408.094 C 286.244,411.843 290.488,412.55 296.092,412.55 C 302.114,412.55 307.497,409.869 311.857,406.17 C 318.519,400.514 325.123,396.004 331.773,396.004 C 334.772,391.772 337.249,387.534 339.493,382.41 L 339.493,382.41 z " />
          <path
             style="font-size:12px;fill:white;stroke:#009;stroke-width:2.82516003"
             transform="matrix(2.016529,0,0,-1.012706,-18.90965,414.9499)"
             id="path688"
             d="M 255.1,357.654 C 263.968,342.222 267.688,328.805 260.061,308.021 C 268.99,306.442 284.988,302.496 293.545,299.602 C 294.475,293.814 294.289,289.078 292.429,284.343 C 289.949,283.992 287.22,284.693 284.616,284.869 C 284.12,282.764 284.103,280.696 284.244,278.028 C 285.98,274.696 286.848,270.486 285.856,265.576 C 282.756,266.803 279.035,267.68 275.439,267.68 C 274.695,273.468 277.423,276.626 278.788,279.607 C 279.035,281.536 279.035,283.114 279.035,285.395 C 274.571,286.447 267.378,287.5 262.293,288.552 C 267.378,279.783 274.943,266.277 276.431,250.315 C 277.583,237.965 273.579,226.813 265.642,222.253 C 260.556,219.332 255.844,218.219 252,217.343 L 252.125,206.641 C 255.472,202.434 254.48,196.646 251.628,195.068 C 251.256,191.91 250.517,189.63 248.775,189.63 C 247.039,189.63 246.047,191.91 245.179,194.892 C 242.078,196.12 241.583,203.486 245.303,206.642 L 245.179,217.386 C 241.954,217.738 238.234,218.394 235.134,220.675 C 234.762,221.903 235.01,223.481 234.762,224.884 C 241.583,236.11 239.43,252.069 235.337,262.242 C 236.419,265.209 236.893,267.696 237.231,270.47 C 243.462,265.209 252.052,262.662 256.713,266.452 C 260.433,269.478 260.991,276.713 258.201,282.501 C 256.384,286.269 254.945,288.026 252.248,289.078 C 251.969,282.632 251.876,274.214 251.876,265.926 C 249.272,265.532 247.411,265.795 245.179,266.979 C 244.9,273.293 244.993,283.29 244.9,290.788 C 240.436,292.367 234.39,293.551 230.669,295.392 C 232.548,303.894 232.691,309.755 228.809,315.387 C 218.18,330.808 203.359,332.259 190.24,323.982 C 188.256,317.229 188.442,308.021 188.628,300.128 C 175.048,293.288 157.376,286.447 143.61,281.712 C 142.122,285.658 141.006,290.131 141.75,294.34 C 147.889,297.76 153.656,300.654 159.98,305.39 C 159.236,318.544 158.492,335.645 158.12,348.011 C 162.027,353.535 166.181,358.008 171.142,363.272 C 178.335,359.411 184.093,356.775 191.36,356.775 C 198.533,356.775 203.359,360.031 209.614,364.191 C 215.589,368.17 219.031,369.929 225.403,369.929 C 231.89,369.929 235.552,368.055 241.854,364.387 C 246.705,361.557 250.473,358.958 255.1,357.654 L 255.1,357.654 z " />
        </g>
      </g>
      <path
         style="font-size:12px;opacity:1;fill:red;fill-opacity:1"
         id="path1216"
         d="M -5.2619669,182.54238 L 404.24763,182.54238 L 404.24763,558.38544 C 404.24763,599.91368 374.77419,631.79626 338.89802,642.27082 C 319.41005,647.96066 279.06578,654.90098 260.44182,660.44809 C 235.06005,668.0091 217.33374,676.58104 210.44679,691.93365 C 208.39757,696.5035 205.79108,698.89195 202.97454,698.89195 C 200.131,698.89195 197.07287,696.45627 194.15634,691.37137 C 184.84151,675.13048 170.68336,667.70435 152.02568,661.01028 C 134.06568,654.56706 111.99825,648.56454 90.795883,643.58077 C 16.646003,626.15135 -5.2619669,604.97393 -5.2619669,555.3088 L -5.2619669,182.54238 L -5.2619669,182.54238 z M 202.38696,685.39474 C 212.06578,666.76426 232.94679,658.08554 257.56345,650.74936 C 277.31204,644.86386 317.61695,637.94036 336.06573,632.54734 C 368.2782,623.14669 394.13633,595.05256 394.13633,558.40112 L 394.13633,192.66273 L 4.8494031,192.66273 L 4.8494031,555.27391 C 4.8494031,598.22699 20.209643,616.59315 93.112483,633.72355 C 114.56428,638.76687 136.89351,644.82791 155.43097,651.48707 C 174.3381,658.26201 191.34312,666.85537 202.38696,685.39474 L 202.38696,685.39474 z " />
      <g
         style="opacity:1"
         transform="matrix(0.748751,0,0,-1.05512,-111.3218,629.7016)"
         id="g1353">
        <path
           style="font-size:12px;fill:red;fill-opacity:1"
           transform="matrix(2.016529,0,0,-1.012706,-18.90965,414.9499)"
           id="path642"
           d="M 154.726,106.165 L 154.726,105.441 L 157.236,104.684 L 154.726,106.165 z " />
        <path
           style="font-size:12px;fill:red;fill-opacity:1"
           transform="matrix(2.016529,0,0,-1.012706,-18.90965,414.9499)"
           id="path643"
           d="M 153.2,106.867 L 153.202,106.066 C 150.609,106.724 148.017,107.069 145.436,107.069 C 144.842,107.069 144.238,107.052 143.645,107.02 L 143.494,109.717 C 147.157,109.372 150.119,108.445 153.2,106.867 L 153.2,106.867 z " />
        <path
           style="font-size:12px;fill:red;fill-opacity:1"
           transform="matrix(2.016529,0,0,-1.012706,-18.90965,414.9499)"
           id="path644"
           d="M 142.017,109.963 L 142.145,106.888 C 139.076,106.543 136.029,105.704 133.019,104.339 L 132.414,108.697 C 134.96,109.585 137.471,109.996 140.39,109.996 C 140.948,109.996 141.483,109.979 142.017,109.963 L 142.017,109.963 z " />
        <path
           style="font-size:12px;fill:red;fill-opacity:1"
           transform="matrix(2.016529,0,0,-1.012706,-18.90965,414.9499)"
           id="path645"
           d="M 130.973,108.137 L 131.6,103.665 C 130.449,103.073 127.87,101.564 126.73,100.824 L 125.975,105.527 C 126.196,105.642 127.705,106.543 127.752,106.559 C 128.914,106.987 129.926,107.694 130.973,108.137 L 130.973,108.137 z " />
        <path
           style="font-size:12px;fill:red;fill-opacity:1"
           transform="matrix(2.016529,0,0,-1.012706,-18.90965,414.9499)"
           id="path646"
           d="M 159.329,94.0955 L 159.829,101.495 C 161.213,100.837 162.585,100.097 163.968,99.2584 L 163.992,91.6456 C 162.434,92.599 160.875,93.4041 159.329,94.0955 L 159.329,94.0955 z " />
        <path
           style="font-size:12px;fill:red;fill-opacity:1"
           transform="matrix(2.016529,0,0,-1.012706,-18.90965,414.9499)"
           id="path647"
           d="M 149.784,96.6937 L 150.086,104.586 C 152.83,104.158 155.597,103.336 158.376,102.152 L 157.876,94.7037 C 155.179,95.7561 152.493,96.4138 149.784,96.6937 L 149.784,96.6937 z " />
        <path
           style="font-size:12px;fill:red;fill-opacity:1"
           transform="matrix(2.016529,0,0,-1.012706,-18.90965,414.9499)"
           id="path648"
           d="M 138.879,95.8708 L 137.913,103.945 C 140.402,104.635 142.901,104.964 145.435,104.964 C 146.482,104.964 147.54,104.898 148.598,104.783 L 148.296,96.8084 C 147.773,96.8411 147.25,96.8579 146.715,96.8579 C 144.133,96.8579 141.518,96.5127 138.879,95.8708 L 138.879,95.8708 z " />
        <path
           style="font-size:12px;fill:red;fill-opacity:1"
           transform="matrix(2.016529,0,0,-1.012706,-18.90965,414.9499)"
           id="path649"
           d="M 128.17,91.4972 L 127.008,98.6659 C 130.12,100.82 133.763,102.612 136.46,103.5 L 137.425,95.4762 C 134.867,94.7363 130.864,93.2704 128.17,91.4972 L 128.17,91.4972 z " />
        <path
           style="font-size:12px;fill:red;fill-opacity:1"
           transform="matrix(2.016529,0,0,-1.012706,-18.90965,414.9499)"
           id="path650"
           d="M 153.737,84.2453 L 154.493,93.684 C 157.643,92.7958 160.794,91.3656 163.992,89.343 C 163.992,84.8378 163.98,83.3414 163.98,83.3414 C 163.974,80.3211 163.554,79.9422 161.829,80.9083 C 159.085,82.4374 156.388,83.5392 153.737,84.2453 L 153.737,84.2453 z " />
        <path
           style="font-size:12px;fill:red;fill-opacity:1"
           transform="matrix(2.016529,0,0,-1.012706,-18.90965,414.9499)"
           id="path651"
           d="M 144.063,85.1009 L 143.517,94.5722 C 144.586,94.6869 145.657,94.7532 146.715,94.7532 C 148.831,94.7532 150.923,94.5227 153.016,94.046 L 152.26,84.5916 C 150.33,85.002 148.401,85.1998 146.471,85.1998 C 145.668,85.1998 144.866,85.1662 144.063,85.1009 L 144.063,85.1009 z " />
        <path
           style="font-size:12px;fill:red;fill-opacity:1"
           transform="matrix(2.016529,0,0,-1.012706,-18.90965,414.9499)"
           id="path652"
           d="M 134.588,82.8804 L 133.309,91.8592 C 136.285,93.0925 139.204,93.9471 142.076,94.3912 L 142.575,84.9367 C 139.948,84.5916 137.297,83.8844 134.588,82.8804 L 134.588,82.8804 z " />
        <path
           style="font-size:12px;fill:red;fill-opacity:1"
           transform="matrix(2.016529,0,0,-1.012706,-18.90965,414.9499)"
           id="path653"
           d="M 129.844,80.842 L 128.449,89.6061 L 131.879,91.2667 L 133.147,82.3216 C 132.542,82.0754 130.461,81.1051 129.844,80.842 L 129.844,80.842 z " />
        <path
           style="font-size:12px;fill:red;fill-opacity:1"
           transform="matrix(2.016529,0,0,-1.012706,-18.90965,414.9499)"
           id="path654"
           d="M 189.028,105.633 C 184.006,101.16 179.401,99.4772 172.878,99.4772 C 167.173,99.4772 163.027,101.878 157.748,105.441 C 152.292,109.124 147.332,111.053 140.386,111.053 C 135.673,111.053 131.953,110.001 127.488,107.546 C 122.523,104.815 118.874,102.634 113.102,102.634 C 109.134,102.634 106.158,104.038 102.933,106.143 C 99.1484,108.614 96.1474,110.703 91.5236,110.703 C 88.0509,110.703 86.1907,109.65 84.2069,107.72 L 84.2069,119.296 C 86.1907,121.226 88.0509,122.279 91.5236,122.279 C 96.1474,122.279 99.1476,120.19 102.933,117.719 C 106.158,115.614 109.134,114.21 113.102,114.21 C 118.874,114.21 122.523,116.391 127.488,119.122 C 131.953,121.577 135.673,122.629 140.386,122.629 C 147.332,122.629 152.292,120.7 157.748,117.017 C 163.027,113.453 167.173,111.053 172.878,111.053 C 177.9,111.053 181.486,111.63 185.358,114.242 L 189.028,105.633 z " />
        <path
           style="font-size:12px;fill:red;fill-opacity:1"
           transform="matrix(2.016529,0,0,-1.012706,-18.90965,414.9499)"
           id="path655"
           d="M 135.921,41.7731 L 131.085,79.1319 C 135.425,81.2366 139.078,82.3848 144.107,82.9909 L 144.354,60.9787 C 144.375,59.0897 145.006,57.1449 146.339,57.0323 C 147.774,56.9113 148.782,58.7371 148.819,60.8913 L 149.191,82.9467 C 153.487,82.289 156.936,81.2366 160.91,79.0004 L 156.384,41.9488 L 158.831,40.4492 C 159.896,39.7956 160.319,38.9506 160.448,37.1332 L 161.389,30.1971 C 161.687,27.9945 161.449,26.8127 159.701,26.5832 L 156.508,26.1634 L 148.261,14.64 C 146.872,12.6984 145.502,12.7531 144.261,14.4443 L 135.797,25.9876 L 132.604,26.4075 C 130.856,26.638 130.618,27.8187 130.916,30.0213 L 131.857,36.9575 C 131.987,38.7749 132.409,39.6199 133.475,40.2735 L 135.921,41.7731 z " />
        <path
           style="font-size:12px;fill:red;fill-opacity:1"
           transform="matrix(2.016529,0,0,-1.012706,-18.90965,414.9499)"
           id="path656"
           d="M 102.438,104.044 C 98.7242,106.472 95.9063,108.384 91.5236,108.384 C 91.2446,108.384 90.9775,108.368 90.7096,108.352 L 90.7096,104.041 L 102.438,104.044 z " />
        <path
           style="font-size:12px;fill:red;fill-opacity:1"
           transform="matrix(2.016529,0,0,-1.012706,-18.90965,414.9499)"
           id="path657"
           d="M 89.2214,108.137 L 89.2214,104.041 L 84.0827,104.041 L 84.0827,104.882 C 85.6989,106.51 87.2681,107.645 89.2214,108.137 L 89.2214,108.137 z " />
        <path
           style="font-size:12px;fill:red;fill-opacity:1"
           transform="matrix(2.016529,0,0,-1.012706,-18.90965,414.9499)"
           id="path658"
           d="M 124.543,104.672 L 129.844,69.6607 L 83.3386,69.6607 L 83.3386,72.8177 L 127.077,72.8177 L 122.45,103.611 C 123.142,103.939 123.835,104.295 124.543,104.672 L 124.543,104.672 z " />
        <path
           style="font-size:12px;fill:red;fill-opacity:1"
           transform="matrix(2.016529,0,0,-1.012706,-18.90965,414.9499)"
           id="path659"
           d="M 119.427,101.297 C 120.008,101.478 120.45,101.725 121.031,101.956 L 122.822,101.939 L 123.973,94.046 L 119.427,94.046 L 119.427,101.297 L 119.427,101.297 z " />
        <path
           style="font-size:12px;fill:red;fill-opacity:1"
           transform="matrix(2.016529,0,0,-1.012706,-18.90965,414.9499)"
           id="path660"
           d="M 106.778,94.046 L 106.778,101.577 C 108.964,100.705 110.986,100.343 113.044,100.343 C 114.626,100.343 116.23,100.574 117.939,100.919 L 117.939,94.046 L 106.778,94.046 L 106.778,94.046 z " />
        <path
           style="font-size:12px;fill:red;fill-opacity:1"
           transform="matrix(2.016529,0,0,-1.012706,-18.90965,414.9499)"
           id="path661"
           d="M 94.5,94.046 L 94.5,101.939 L 105.289,101.939 L 105.289,94.046 L 94.5,94.046 z " />
        <path
           style="font-size:12px;fill:red;fill-opacity:1"
           transform="matrix(2.016529,0,0,-1.012706,-18.90965,414.9499)"
           id="path662"
           d="M 84.0827,94.046 L 84.0827,101.939 L 93.0118,101.939 L 93.0118,94.046 L 84.0827,94.046 z " />
        <path
           style="font-size:12px;fill:red;fill-opacity:1"
           transform="matrix(2.016529,0,0,-1.012706,-18.90965,414.9499)"
           id="path663"
           d="M 112.23,84.2127 L 112.23,91.9413 L 124.404,91.9413 L 125.578,84.2127 L 112.23,84.2127 z " />
        <path
           style="font-size:12px;fill:red;fill-opacity:1"
           transform="matrix(2.016529,0,0,-1.012706,-18.90965,414.9499)"
           id="path664"
           d="M 100.953,84.2127 L 100.953,91.9413 L 110.742,91.9413 L 110.742,84.2127 L 100.953,84.2127 z " />
        <path
           style="font-size:12px;fill:red;fill-opacity:1"
           transform="matrix(2.016529,0,0,-1.012706,-18.90965,414.9499)"
           id="path665"
           d="M 84.0827,84.2127 L 84.0827,91.9413 L 99.4646,91.9413 L 99.4646,84.2127 L 84.0827,84.2127 z " />
        <path
           style="font-size:12px;fill:red;fill-opacity:1"
           transform="matrix(2.016529,0,0,-1.012706,-18.90965,414.9499)"
           id="path666"
           d="M 84.0827,72.8177 L 84.0827,82.108 L 92.6398,82.108 L 92.6398,72.8177 L 84.0827,72.8177 z " />
        <path
           style="font-size:12px;fill:red;fill-opacity:1"
           transform="matrix(2.016529,0,0,-1.012706,-18.90965,414.9499)"
           id="path667"
           d="M 94.128,72.8177 L 94.128,82.108 L 104.917,82.108 L 104.917,72.8177 L 94.128,72.8177 z " />
        <path
           style="font-size:12px;fill:red;fill-opacity:1"
           transform="matrix(2.016529,0,0,-1.012706,-18.90965,414.9499)"
           id="path668"
           d="M 106.406,72.8177 L 106.406,82.108 L 116.823,82.108 L 116.823,72.8177 L 106.406,72.8177 z " />
        <path
           style="font-size:12px;fill:red;fill-opacity:1"
           transform="matrix(2.016529,0,0,-1.012706,-18.90965,414.9499)"
           id="path669"
           d="M 118.311,72.8177 L 118.311,82.108 L 126.019,82.108 L 127.438,72.8177 L 118.311,72.8177 L 118.311,72.8177 z " />
        <path
           style="font-size:12px;fill:#9cf;fill-opacity:1"
           transform="matrix(2.016529,0,0,-1.012706,-18.90965,414.9499)"
           id="path670"
           d="M 142.448,28.8816 C 141.146,28.8816 140.402,29.5394 140.402,31.5125 L 140.402,34.5381 C 140.402,36.7743 140.96,37.6952 142.448,37.6952 L 150.167,37.6952 C 151.749,37.6952 152.399,36.5112 152.399,34.6696 L 152.399,31.7756 C 152.399,29.934 151.655,28.8816 150.447,28.8816 L 142.448,28.8816 L 142.448,28.8816 z " />
        <path
           style="font-size:12px;fill:#9cf;fill-opacity:1"
           transform="matrix(2.016529,0,0,-1.012706,-18.90965,414.9499)"
           id="path671"
           d="M 144.075,48.4819 C 144.075,50.4056 145.117,51.9683 146.401,51.9683 C 147.684,51.9683 148.726,50.4056 148.726,48.4819 C 148.726,46.5582 147.684,44.9954 146.401,44.9954 C 145.117,44.9954 144.075,46.5582 144.075,48.4819 z " />
        <path
           style="font-size:12px;fill:red;fill-opacity:1"
           transform="matrix(2.016529,0,0,-1.012706,-18.90965,414.9499)"
           id="path696"
           d="M 178.016,131.464 L 182.421,121.131 C 179.482,119.785 176.673,119.472 172.878,119.472 C 167.173,119.472 163.027,121.872 157.748,125.436 C 152.292,129.119 147.332,131.048 140.386,131.048 C 135.673,131.048 131.953,129.996 127.488,127.541 C 122.523,124.81 118.874,122.629 113.102,122.629 C 109.134,122.629 106.158,124.033 102.933,126.138 C 99.1476,128.609 96.1474,130.698 91.5236,130.698 C 88.0509,130.698 86.1907,129.645 84.2069,127.715 L 84.2069,139.291 C 86.1907,141.221 88.0509,142.274 91.5236,142.274 C 96.1474,142.274 99.1476,140.185 102.933,137.714 C 106.158,135.609 109.134,134.205 113.102,134.205 C 118.874,134.205 122.523,136.386 127.488,139.117 C 131.953,141.572 135.673,142.624 140.386,142.624 C 147.332,142.624 152.292,140.695 157.748,137.012 C 163.027,133.448 167.173,131.048 172.878,131.048 C 174.838,131.048 176.363,131.161 178.016,131.464 L 178.016,131.464 z " />
      </g>
      <g
         style="opacity:1"
         transform="matrix(0.748751,0,0,-1.05512,-111.3218,629.7016)"
         id="g1448">
        <path
           style="font-size:12px;fill:red;fill-opacity:1"
           transform="matrix(2.016529,0,0,-1.012706,-18.90965,414.9499)"
           id="path624"
           d="M 294.539,41.7731 L 296.985,40.2735 C 298.052,39.6199 298.473,38.7749 298.604,36.9575 L 299.544,30.0213 C 299.843,27.8187 299.604,26.638 297.857,26.4075 L 294.663,25.9876 L 286.199,14.4443 C 284.958,12.7531 283.589,12.6984 282.199,14.64 L 273.953,26.1633 L 270.759,26.5832 C 269.011,26.8127 268.773,27.9944 269.071,30.1971 L 270.012,37.1332 C 270.141,38.9506 270.563,39.7956 271.629,40.4492 L 274.076,41.9488 L 269.55,79.0003 C 273.524,81.2366 276.974,82.289 281.269,82.9467 L 281.641,60.8913 C 281.678,58.7371 282.686,56.9113 284.121,57.0323 C 285.454,57.1449 286.085,59.0897 286.106,60.9787 L 286.354,82.9909 C 291.382,82.3848 295.035,81.2366 299.375,79.1319 L 294.539,41.7731 z " />
        <path
           style="font-size:12px;fill:#9cf;fill-opacity:1"
           transform="matrix(2.016529,0,0,-1.012706,-18.90965,414.9499)"
           id="path639"
           d="M 288.012,28.8816 L 280.013,28.8816 C 278.804,28.8816 278.06,29.934 278.06,31.7756 L 278.06,34.6696 C 278.06,36.5112 278.711,37.6952 280.292,37.6952 L 288.012,37.6952 C 289.5,37.6952 290.058,36.7743 290.058,34.5381 L 290.058,31.5125 C 290.058,29.5394 289.314,28.8816 288.012,28.8816 z " />
        <path
           style="font-size:12px;fill:#9cf;fill-opacity:1"
           transform="matrix(2.016529,0,0,-1.012706,-18.90965,414.9499)"
           id="path640"
           d="M 286.385,48.4819 C 286.385,46.5582 285.343,44.9954 284.06,44.9954 C 282.775,44.9954 281.734,46.5582 281.734,48.4819 C 281.734,50.4056 282.775,51.9683 284.06,51.9683 C 285.343,51.9683 286.385,50.4056 286.385,48.4819 z " />
        <path
           style="font-size:12px;fill:red;fill-opacity:1"
           transform="matrix(2.016529,0,0,-1.012706,-18.90965,414.9499)"
           id="path611"
           d="M 275.735,106.165 L 275.735,105.441 L 273.223,104.684 L 275.735,106.165 z " />
        <path
           style="font-size:12px;fill:red;fill-opacity:1"
           transform="matrix(2.016529,0,0,-1.012706,-18.90965,414.9499)"
           id="path612"
           d="M 277.26,106.867 L 277.258,106.066 C 279.851,106.724 282.443,107.069 285.025,107.069 C 285.618,107.069 286.222,107.052 286.815,107.02 L 286.966,109.717 C 283.304,109.372 280.341,108.445 277.26,106.867 L 277.26,106.867 z " />
        <path
           style="font-size:12px;fill:red;fill-opacity:1"
           transform="matrix(2.016529,0,0,-1.012706,-18.90965,414.9499)"
           id="path613"
           d="M 288.443,109.963 L 288.315,106.888 C 291.384,106.543 294.43,105.704 297.441,104.339 L 298.046,108.697 C 295.5,109.585 292.989,109.996 290.07,109.996 C 289.512,109.996 288.977,109.979 288.443,109.963 L 288.443,109.963 z " />
        <path
           style="font-size:12px;fill:red;fill-opacity:1"
           transform="matrix(2.016529,0,0,-1.012706,-18.90965,414.9499)"
           id="path614"
           d="M 299.488,108.137 C 300.535,107.694 301.546,106.987 302.708,106.559 C 302.755,106.543 304.264,105.642 304.485,105.527 L 303.73,100.824 C 302.59,101.564 300.011,103.073 298.86,103.665 L 299.488,108.137 z " />
        <path
           style="font-size:12px;fill:red;fill-opacity:1"
           transform="matrix(2.016529,0,0,-1.012706,-18.90965,414.9499)"
           id="path615"
           d="M 271.131,94.0955 C 269.585,93.4041 268.027,92.599 266.468,91.6456 L 266.492,99.2584 C 267.876,100.097 269.248,100.837 270.631,101.495 L 271.131,94.0955 z " />
        <path
           style="font-size:12px;fill:red;fill-opacity:1"
           transform="matrix(2.016529,0,0,-1.012706,-18.90965,414.9499)"
           id="path616"
           d="M 280.676,96.6937 C 277.967,96.4138 275.281,95.7561 272.584,94.7037 L 272.084,102.152 C 274.863,103.336 277.63,104.158 280.374,104.586 L 280.676,96.6937 z " />
        <path
           style="font-size:12px;fill:red;fill-opacity:1"
           transform="matrix(2.016529,0,0,-1.012706,-18.90965,414.9499)"
           id="path617"
           d="M 291.582,95.8708 C 288.942,96.5127 286.327,96.8579 283.746,96.8579 C 283.211,96.8579 282.687,96.8411 282.164,96.8084 L 281.862,104.783 C 282.92,104.898 283.978,104.964 285.025,104.964 C 287.559,104.964 290.058,104.635 292.547,103.945 L 291.582,95.8708 z " />
        <path
           style="font-size:12px;fill:red;fill-opacity:1"
           transform="matrix(2.016529,0,0,-1.012706,-18.90965,414.9499)"
           id="path618"
           d="M 302.29,91.4972 C 299.596,93.2704 295.593,94.7363 293.035,95.4762 L 294,103.5 C 296.697,102.612 300.34,100.819 303.452,98.6659 L 302.29,91.4972 z " />
        <path
           style="font-size:12px;fill:red;fill-opacity:1"
           transform="matrix(2.016529,0,0,-1.012706,-18.90965,414.9499)"
           id="path619"
           d="M 276.724,84.2453 C 274.072,83.5392 271.375,82.4374 268.632,80.9083 C 266.905,79.9422 266.486,80.3221 266.48,83.3414 C 266.48,83.3414 266.468,84.8378 266.468,89.343 C 269.666,91.3656 272.817,92.7958 275.968,93.684 L 276.724,84.2453 z " />
        <path
           style="font-size:12px;fill:red;fill-opacity:1"
           transform="matrix(2.016529,0,0,-1.012706,-18.90965,414.9499)"
           id="path620"
           d="M 286.397,85.1009 C 285.594,85.1662 284.792,85.1998 283.99,85.1998 C 282.059,85.1998 280.13,85.002 278.2,84.5916 L 277.444,94.046 C 279.537,94.5227 281.629,94.7532 283.746,94.7532 C 284.804,94.7532 285.873,94.6869 286.943,94.5722 L 286.397,85.1009 z " />
        <path
           style="font-size:12px;fill:red;fill-opacity:1"
           transform="matrix(2.016529,0,0,-1.012706,-18.90965,414.9499)"
           id="path621"
           d="M 295.872,82.8804 C 293.163,83.8844 290.512,84.5916 287.885,84.9367 L 288.384,94.3912 C 291.256,93.9471 294.175,93.0925 297.151,91.8592 L 295.872,82.8804 z " />
        <path
           style="font-size:12px;fill:red;fill-opacity:1"
           transform="matrix(2.016529,0,0,-1.012706,-18.90965,414.9499)"
           id="path622"
           d="M 300.616,80.842 C 300,81.1051 297.918,82.0754 297.313,82.3216 L 298.581,91.2667 L 302.011,89.6061 L 300.616,80.842 z " />
        <path
           style="font-size:12px;fill:red;fill-opacity:1"
           transform="matrix(2.016529,0,0,-1.012706,-18.90965,414.9499)"
           id="path623"
           d="M 241.432,105.633 L 245.102,114.242 C 248.974,111.63 252.56,111.053 257.582,111.053 C 263.287,111.053 267.433,113.453 272.712,117.017 C 278.169,120.7 283.128,122.629 290.074,122.629 C 294.787,122.629 298.508,121.577 302.972,119.122 C 307.937,116.391 311.586,114.21 317.358,114.21 C 321.326,114.21 324.302,115.614 327.527,117.719 C 331.313,120.19 334.313,122.279 338.937,122.279 C 342.409,122.279 344.269,121.226 346.253,119.296 L 346.253,107.72 C 344.269,109.65 342.409,110.703 338.937,110.703 C 334.313,110.703 331.312,108.614 327.527,106.143 C 324.302,104.038 321.326,102.634 317.358,102.634 C 311.586,102.634 307.937,104.815 302.972,107.546 C 298.508,110.001 294.787,111.053 290.074,111.053 C 283.128,111.053 278.169,109.124 272.712,105.441 C 267.433,101.878 263.287,99.4772 257.582,99.4772 C 251.058,99.4772 246.455,101.16 241.432,105.633 L 241.432,105.633 z " />
        <path
           style="font-size:12px;fill:red;fill-opacity:1"
           transform="matrix(2.016529,0,0,-1.012706,-18.90965,414.9499)"
           id="path625"
           d="M 328.022,104.044 C 331.736,106.472 334.553,108.384 338.937,108.384 C 339.216,108.384 339.483,108.368 339.751,108.352 L 339.751,104.041 L 328.022,104.044 z " />
        <path
           style="font-size:12px;fill:red;fill-opacity:1"
           transform="matrix(2.016529,0,0,-1.012706,-18.90965,414.9499)"
           id="path626"
           d="M 341.239,108.137 L 341.239,104.041 L 346.377,104.041 L 346.377,104.882 C 344.761,106.51 343.192,107.645 341.239,108.137 L 341.239,108.137 z " />
        <path
           style="font-size:12px;fill:red;fill-opacity:1"
           transform="matrix(2.016529,0,0,-1.012706,-18.90965,414.9499)"
           id="path627"
           d="M 305.917,104.672 C 306.625,104.295 307.318,103.938 308.01,103.611 L 303.383,72.8177 L 347.122,72.8177 L 347.122,69.6606 L 300.616,69.6606 L 305.917,104.672 z " />
        <path
           style="font-size:12px;fill:red;fill-opacity:1"
           transform="matrix(2.016529,0,0,-1.012706,-18.90965,414.9499)"
           id="path628"
           d="M 311.033,101.297 L 311.033,94.046 L 306.487,94.046 L 307.638,101.939 L 309.429,101.956 C 310.01,101.725 310.452,101.478 311.033,101.297 L 311.033,101.297 z " />
        <path
           style="font-size:12px;fill:red;fill-opacity:1"
           transform="matrix(2.016529,0,0,-1.012706,-18.90965,414.9499)"
           id="path629"
           d="M 323.683,94.046 L 312.521,94.046 L 312.521,100.919 C 314.23,100.574 315.835,100.343 317.416,100.343 C 319.474,100.343 321.496,100.705 323.683,101.577 L 323.683,94.046 L 323.683,94.046 z " />
        <path
           style="font-size:12px;fill:red;fill-opacity:1"
           transform="matrix(2.016529,0,0,-1.012706,-18.90965,414.9499)"
           id="path630"
           d="M 335.96,94.046 L 325.171,94.046 L 325.171,101.939 L 335.96,101.939 L 335.96,94.046 z " />
        <path
           style="font-size:12px;fill:red;fill-opacity:1"
           transform="matrix(2.016529,0,0,-1.012706,-18.90965,414.9499)"
           id="path631"
           d="M 346.377,94.046 L 337.448,94.046 L 337.448,101.939 L 346.377,101.939 L 346.377,94.046 z " />
        <path
           style="font-size:12px;fill:red;fill-opacity:1"
           transform="matrix(2.016529,0,0,-1.012706,-18.90965,414.9499)"
           id="path632"
           d="M 318.23,84.2127 L 304.882,84.2127 L 306.056,91.9413 L 318.23,91.9413 L 318.23,84.2127 z " />
        <path
           style="font-size:12px;fill:red;fill-opacity:1"
           transform="matrix(2.016529,0,0,-1.012706,-18.90965,414.9499)"
           id="path633"
           d="M 329.507,84.2127 L 319.718,84.2127 L 319.718,91.9413 L 329.507,91.9413 L 329.507,84.2127 z " />
        <path
           style="font-size:12px;fill:red;fill-opacity:1"
           transform="matrix(2.016529,0,0,-1.012706,-18.90965,414.9499)"
           id="path634"
           d="M 346.377,84.2127 L 330.996,84.2127 L 330.996,91.9413 L 346.377,91.9413 L 346.377,84.2127 z " />
        <path
           style="font-size:12px;fill:red;fill-opacity:1"
           transform="matrix(2.016529,0,0,-1.012706,-18.90965,414.9499)"
           id="path635"
           d="M 346.377,72.8177 L 337.82,72.8177 L 337.82,82.108 L 346.377,82.108 L 346.377,72.8177 z " />
        <path
           style="font-size:12px;fill:red;fill-opacity:1"
           transform="matrix(2.016529,0,0,-1.012706,-18.90965,414.9499)"
           id="path636"
           d="M 336.332,72.8177 L 325.543,72.8177 L 325.543,82.108 L 336.332,82.108 L 336.332,72.8177 z " />
        <path
           style="font-size:12px;fill:red;fill-opacity:1"
           transform="matrix(2.016529,0,0,-1.012706,-18.90965,414.9499)"
           id="path637"
           d="M 324.055,72.8177 L 313.637,72.8177 L 313.637,82.108 L 324.055,82.108 L 324.055,72.8177 z " />
        <path
           style="font-size:12px;fill:red;fill-opacity:1"
           transform="matrix(2.016529,0,0,-1.012706,-18.90965,414.9499)"
           id="path638"
           d="M 312.149,72.8177 L 303.022,72.8177 L 304.441,82.108 L 312.149,82.108 L 312.149,72.8177 L 312.149,72.8177 z " />
        <path
           style="font-size:12px;fill:red;fill-opacity:1"
           transform="matrix(2.016529,0,0,-1.012706,-18.90965,414.9499)"
           id="path641"
           d="M 252.444,131.464 C 254.097,131.161 255.622,131.048 257.582,131.048 C 263.287,131.048 267.433,133.448 272.712,137.012 C 278.169,140.695 283.128,142.624 290.074,142.624 C 294.787,142.624 298.508,141.572 302.972,139.117 C 307.937,136.386 311.586,134.205 317.358,134.205 C 321.326,134.205 324.302,135.609 327.527,137.714 C 331.313,140.185 334.313,142.274 338.937,142.274 C 342.409,142.274 344.269,141.221 346.253,139.291 L 346.253,127.715 C 344.269,129.645 342.409,130.698 338.937,130.698 C 334.313,130.698 331.313,128.609 327.527,126.138 C 324.302,124.033 321.326,122.629 317.358,122.629 C 311.586,122.629 307.937,124.81 302.972,127.541 C 298.508,129.996 294.787,131.048 290.074,131.048 C 283.128,131.048 278.169,129.119 272.712,125.436 C 267.433,121.872 263.287,119.472 257.582,119.472 C 253.788,119.472 250.979,119.785 248.039,121.131 L 252.444,131.464 z " />
      </g>
    </g>
  </g>
</svg>
