<?xml version="1.0" encoding="UTF-8"?>
<!-- Generator: Adobe Illustrator 15.0.0, SVG Export Plug-In . SVG Version: 6.00 Build 0)  -->
<!DOCTYPE svg PUBLIC "-//W3C//DTD SVG 1.1//EN" "http://www.w3.org/Graphics/SVG/1.1/DTD/svg11.dtd">
<svg version="1.1" id="Layer_1" xmlns="http://www.w3.org/2000/svg" xmlns:xlink="http://www.w3.org/1999/xlink" x="0px" y="0px" width="2460.158px" height="599.424px" viewBox="0 0 2460.158 599.424" enable-background="new 0 0 2460.158 599.424" xml:space="preserve">
<g>
	<path fill="#070606" d="M0,0h0.557C0.446,0.167,0.168,0.446,0,0.557V0z"/>
	<path fill="#070606" d="M1310.613,78.444c58.86-9.681,116.438,13.517,167.738,40.056c51.017,25.704,90.793,72.321,147.761,86.231   c70.374,18.971,143.311,3.949,212.573-12.296c84.118-20.471,169.406-34.937,254.473-50.623   c76.21-13.856,158.445-12.409,228.87,23.141c46.013,23.311,93.52,50.071,123.341,93.577c10.18,15.13,19.53,34.16,12.133,52.465   c-52.904-70.655-131.465-125.401-219.808-139.03c-69.042-10.071-138.53,1.444-206.289,14.408   c-63.48,13.796-126.235,30.543-188.709,48.402c-75.163,19.804-159.334,30.876-231.662-4.564   c-50.626-28.093-94.354-67.369-147.209-91.626c-27.253-11.519-53.408-29.042-83.954-29.655   c-74.989-6.62-144.309,27.427-209.509,59.751C915.84,283.508,671.442,419.479,416.306,533.031   c-46.9,19.024-93.521,39.995-143.313,50.511c-51.182,12.793-106.537,24.255-158.163,7.509   c-18.417-5.007-32.494-18.304-44.73-32.268c63.978,12.129,129.513,3.507,191.989-12.573c77.888-19.305,153.05-49.52,223.26-88.289   C693.026,355.22,900.094,251.294,1110,153.215C1174.812,123.672,1238.292,85.563,1310.613,78.444z"/>
	<g>
		<g>
			<path fill="#FBED22" d="M1511.73,111.268c26.536-34.16,68.483-58.082,112.605-57.97c25.303,0.054,52.177-2,75.379,10.125     c49.404,21.919,97.691,62.42,105.426,118.944c-28.373,6.288-57.304,8.901-86.011,13.186c-25.76,3.838-51.407-3.228-76.551-7.9     c-50.072-9.513-89.852-43.447-130.183-72.046L1511.73,111.268z"/>
		</g>
	</g>
	<path fill-rule="evenodd" clip-rule="evenodd" fill="#010101" d="M944.95,407.668h24.247l-17.438,120.965h-24.248L944.95,407.668z    M1055.971,432.053l3.543-24.385h64.027l-14.035,96.717h11.035l-3.404,24.248h-75.061l3.405-24.248h39.642l10.489-72.332H1055.971z    M978.188,432.053l3.542-24.385h64.979l-17.434,120.965h-24.385l13.895-96.58H978.188z M908.169,407.668h24.245l-19.886,138.128   h-24.249L908.169,407.668z M1622.26,407.668h64.976l-17.439,120.965h-24.385l13.902-96.58h-40.596L1622.26,407.668z    M1699.91,407.668h24.242l-17.438,120.965h-24.247L1699.91,407.668z M1601.96,461.335h-24.25l7.768-53.667h24.251L1601.96,461.335z    M1543.925,432.053h-19.611l-13.897,96.58h-36.51l3.407-24.248h12.122l14.032-96.717h68.383l-17.432,120.965h-24.393   L1543.925,432.053z M1293.141,407.668h64.978l-17.438,120.965h-24.383l13.894-96.58h-40.594L1293.141,407.668z M1364.519,450.848   h24.247l-11.17,77.785h-24.245L1364.519,450.848z M1367.247,432.053l3.542-24.385h72.745l-17.432,120.965h-24.392l13.892-96.58   H1367.247z M2112.396,407.668h24.374l-14.024,96.717h9.666l6.95-7.354l12.94-89.362h24.248l-14.025,96.854l-21.797,24.11h-56.81   l3.407-24.248h11.034L2112.396,407.668z M2009.681,407.668h24.386l16.486,58.709l8.572-58.709h24.388l-8.989,62.251h-22.613   l17.57,58.714h-76.963l3.402-24.248h39.639L2009.681,407.668z M1917.865,450.848h24.244l-11.17,77.785h-24.242L1917.865,450.848z    M1920.588,432.053l3.537-24.385h72.748l-17.441,120.965h-24.383l13.899-96.58H1920.588z M1811.336,456.979l-13.078-49.312h24.115   l13.891,53.667l5.729-4.77l7.076-48.897h24.246l-8.308,57.075l-23.566,15.119l14.442,48.771h-24.247l-14.441-53.672l-5.312,4.901   l-6.951,48.771h-24.244l8.035-55.716L1811.336,456.979z M1781.641,432.053h-12.126l-13.89,96.58h-24.393l13.898-96.58h-11.854   l3.541-24.385h48.365L1781.641,432.053z M2280.494,432.053h-2.725l-44.138,96.58h-24.112l33.649-75.059h-23.025l6.678-45.906   h24.251l-6.135,42.361l18.252-42.361h45.232l-17.44,120.965h-40.867l3.407-24.248h16.482L2280.494,432.053z M2190.043,407.668   h24.246l-17.439,120.965h-24.246L2190.043,407.668z M1241.779,407.668h40.192l-6.675,24.385h-40.188L1241.779,407.668z    M1196.283,432.053h-27.517l-13.892,96.58h-24.251l17.438-120.965h76.149l-17.436,120.965h-24.384L1196.283,432.053z"/>
</g>
</svg>