<?xml version="1.0" encoding="utf-8"?>
<!-- Generator: Adobe Illustrator 15.0.0, SVG Export Plug-In . SVG Version: 6.00 Build 0)  -->
<!DOCTYPE svg PUBLIC "-//W3C//DTD SVG 1.1//EN" "http://www.w3.org/Graphics/SVG/1.1/DTD/svg11.dtd">
<svg version="1.1" id="Layer_1" xmlns="http://www.w3.org/2000/svg" xmlns:xlink="http://www.w3.org/1999/xlink" x="0px" y="0px"
	 width="1008.604px" height="703.616px" viewBox="0 0 1008.604 703.616" enable-background="new 0 0 1008.604 703.616"
	 xml:space="preserve">
<path fill="#99CEC8" d="M1005.266,478.27L503.861,0L3.318,466.257c0,0,255.017-47.214,328.659-55.309
	c100.854-11.078,173.174-19.431,266.98-10.03C673.375,408.401,1005.266,478.27,1005.266,478.27"/>
<g>
	<defs>
		<path id="SVGID_1_" d="M1005.266,478.27L503.861,0L3.318,466.257c0,0,255.017-47.214,328.659-55.309
			c100.854-11.078,173.174-19.431,266.98-10.03C673.375,408.401,1005.266,478.27,1005.266,478.27"/>
	</defs>
	<clipPath id="SVGID_2_">
		<use xlink:href="#SVGID_1_"  overflow="visible"/>
	</clipPath>
	<polyline clip-path="url(#SVGID_2_)" fill="#FFFFFF" points="598.958,284.364 598.958,298.779 578.616,298.779 578.616,422.026 
		462.959,422.026 462.959,302.117 445.207,302.117 445.207,284.364 598.958,284.364 	"/>
</g>
<polyline fill="#FFFFFF" points="592.274,272.222 566.789,231.691 477.383,231.691 451.89,272.222 592.274,272.222 "/>
<path fill="#008475" d="M1008.604,481.979c0,0-354.636-63.065-506.783-59.34C321.963,427.041,1.713,465.886,0.037,478.641
	C-1.632,491.38,53.982,605.577,131.02,645.76c77.714,40.522,171.513,56.598,252.557,11.062
	c81.061-45.521,137.667-158.137,357.434-171.505C901.366,475.577,1008.604,481.979,1008.604,481.979"/>
<g>
	<defs>
		<path id="SVGID_3_" d="M1008.604,481.979c0,0-354.636-63.065-506.783-59.34C321.963,427.041,1.713,465.886,0.037,478.641
			C-1.632,491.38,53.982,605.577,131.02,645.76c77.714,40.522,171.513,56.598,252.557,11.062
			c81.061-45.521,137.667-158.137,357.434-171.505C901.366,475.577,1008.604,481.979,1008.604,481.979"/>
	</defs>
	<clipPath id="SVGID_4_">
		<use xlink:href="#SVGID_3_"  overflow="visible"/>
	</clipPath>
	<path clip-path="url(#SVGID_4_)" fill="#ECA323" d="M262.043,558.831c-0.468-1.226-19.213-45.569-21.205-45.214
		c-2.008,0.371-1.33,1.129-1.33,1.129l9.055,24.155c0,0-12.158,10.739-14.94,16.173c-2.781,5.434,13.247,40.103,13.247,40.103
		l18.221-17.012C265.09,578.165,269.089,577.358,262.043,558.831"/>
	<path clip-path="url(#SVGID_4_)" fill="#ECA323" d="M289.931,593.306c1.104,0.709,40.587,28.267,39.82,30.138
		c-0.773,1.887-1.387,1.064-1.387,1.064l-21.736-13.883c0,0-13.029,9.675-18.931,11.255c-5.901,1.597-36.482-21.301-36.482-21.301
		l20.438-14.271C271.654,586.308,273.266,582.55,289.931,593.306"/>
	<path clip-path="url(#SVGID_4_)" fill="#ECA323" d="M231.954,584.001c-0.459-1.226-19.205-45.569-21.204-45.214
		c-1.991,0.371-1.322,1.129-1.322,1.129l9.054,24.155c0,0-12.166,10.739-14.939,16.173c-2.789,5.434,13.247,40.119,13.247,40.119
		l18.213-17.028C235.001,603.335,239.008,602.529,231.954,584.001"/>
	<path clip-path="url(#SVGID_4_)" fill="#ECA323" d="M259.003,617.945c1.104,0.709,40.595,28.267,39.82,30.137
		c-0.773,1.887-1.387,1.064-1.387,1.064l-21.736-13.884c0,0-13.029,9.659-18.931,11.255c-5.894,1.596-36.475-21.301-36.475-21.301
		l20.438-14.271C240.734,610.946,242.338,607.189,259.003,617.945"/>
	<path clip-path="url(#SVGID_4_)" fill="#ECA323" d="M202.413,608.35c-0.468-1.225-19.205-45.585-21.204-45.23
		c-1.999,0.371-1.33,1.145-1.33,1.145l9.054,24.139c0,0-12.158,10.739-14.939,16.173c-2.781,5.45,13.255,40.119,13.255,40.119
		l18.205-17.028C205.453,627.668,209.459,626.878,202.413,608.35"/>
	<path clip-path="url(#SVGID_4_)" fill="#ECA323" d="M229.455,642.277c1.104,0.709,40.595,28.267,39.813,30.138
		c-0.758,1.887-1.387,1.063-1.387,1.063l-21.736-13.883c0,0-13.029,9.659-18.915,11.255c-5.901,1.597-36.475-21.301-36.475-21.301
		l20.431-14.271C211.185,635.279,212.797,631.538,229.455,642.277"/>
	<path clip-path="url(#SVGID_4_)" fill="#ECA323" d="M173.259,633.167c-0.468-1.226-19.205-45.585-21.205-45.214
		c-1.999,0.355-1.33,1.129-1.33,1.129l9.07,24.155c0,0-12.166,10.739-14.948,16.173c-2.781,5.434,13.255,40.103,13.255,40.103
		l18.205-17.028C176.306,652.484,180.314,651.694,173.259,633.167"/>
	<path clip-path="url(#SVGID_4_)" fill="#ECA323" d="M200.308,667.094c1.104,0.726,40.587,28.267,39.821,30.153
		c-0.767,1.87-1.387,1.064-1.387,1.064l-21.745-13.884c0,0-13.021,9.659-18.923,11.255c-5.901,1.581-36.475-21.316-36.475-21.316
		l20.438-14.255C182.039,660.111,183.652,656.354,200.308,667.094"/>
	
		<line clip-path="url(#SVGID_4_)" fill="none" stroke="#ECA323" stroke-width="1.189" stroke-miterlimit="3.864" x1="282.788" y1="568.505" x2="323.737" y2="535.353"/>
</g>
<path fill="#008475" d="M605.585,589.936v-25.333c0-11.062-7.555-14.835-16.351-14.835c-5.37,0-15.352,1.338-21.382,3.854
	c-0.508,0.258-1.178,0.597-1.178,1.258c0,0.161,0.089,0.419,0.259,0.677c2.088,2.935,3.176,4.531,3.176,9.723v14.754
	c0,3.693-2.007,5.789-6.949,7.627c-0.258,0.081-0.5,0.419-0.5,0.935c0,0.242,0.08,0.581,0.242,0.919l2.435,4.112
	c0.25,0.5,0.589,0.661,1.097,0.661c0.241,0,0.5,0,0.75-0.081c7.546-1.596,13.996-5.031,13.996-14.835V565.28
	c0-1.935-0.339-4.354-0.919-6.046c1.766-0.903,4.53-1.661,7.038-1.661c3.862,0,7.136,2.338,7.136,7.627v24.736
	c0,0.758,0.5,1.677,1.677,1.677h7.885C605.166,591.613,605.585,590.774,605.585,589.936"/>
<path fill="#008475" d="M626.241,568.473v-8.224c0-2.677-1.008-6.708-2.111-8.466c-0.42-0.838-1.008-1.419-1.767-1.419
	c-0.08,0-0.169,0-0.258,0l-8.675,1.5c-0.581,0.081-0.919,0.5-0.919,0.935c0,0.242,0,0.403,0.161,0.581
	c1.596,2.418,2.273,5.854,2.273,8.804v11.4c0,1.258,0.661,1.838,1.935,1.838l6.241,0.097c0.766,0,2.192-0.597,2.442-1.854
	C625.903,571.908,626.241,571.23,626.241,568.473"/>
<path fill="#008475" d="M674.261,571.408c0-9.224-2.177-21.043-14.504-21.043c-4.442,0-9.305,1.322-13.336,5.612
	c-0.411-1.935-1.169-3.773-1.677-4.612c-0.5-0.919-0.911-1.097-1.419-1.097c-0.169,0-0.339,0-0.5,0l-8.393,1.677
	c-0.589,0.177-0.911,0.338-0.911,0.758c0,0.338,0.161,0.758,0.411,1.338c1.249,3.193,2.257,8.224,2.257,13.851v7.031
	c0,4.773-0.91,13.158-1.499,14.916c-0.089,0.177-0.089,0.258-0.089,0.436c0,0.661,0.58,1.338,1.677,1.338h7.797
	c0.589,0,1.258-0.677,1.677-1.935c0.927-2.935,1.508-11.32,1.508-15.835v-10.659c2.016-2.515,5.289-4.45,8.305-4.45
	c7.127,0,7.377,8.304,7.377,12.497c0,3.354-0.42,9.143-3.016,11.578c-0.839,0.758-1.927,1.258-3.266,1.258
	c-0.677,0-1.427-0.177-2.354-0.419c-0.162-0.081-0.339-0.081-0.5-0.081c-0.331,0-0.589,0.081-0.758,0.5l-1.508,5.612
	c-0.081,0.258-0.17,0.5-0.17,0.758c0,0.338,0.25,0.5,0.839,0.758c2.258,0.919,4.612,1.338,7.377,1.338
	C670.747,592.532,674.261,579.454,674.261,571.408"/>
<path fill="#008475" d="M693.926,590.177v-30.008c0-2.693-0.92-6.708-2.016-8.482c-0.412-0.822-1-1.419-1.758-1.419
	c-0.081,0-0.162,0-0.242,0l-8.643,1.677c-0.581,0.081-0.92,0.516-0.92,0.935c0,0.242,0,0.403,0.162,0.581
	c1.596,2.435,2.273,5.87,2.273,8.804v27.912c0,1.258,0.241,1.436,1.588,1.436h8.135
	C693.764,591.613,693.926,591.435,693.926,590.177"/>
<path fill="#008475" d="M742.083,567.796c0-9.9-5.28-18.028-20.543-18.028c-6.289,0-15.262,1.258-20.793,3.935
	c-0.5,0.258-0.669,0.597-0.669,0.936c0,0.338,0.169,0.661,0.33,1c2.274,3.273,4.031,8.046,4.031,12.658v35.813
	c0,0.822,0.339,1.419,1.169,1.419c0.259,0,0.508-0.081,0.847-0.177l7.119-2.5c1.258-0.5,1.927-0.758,1.927-2.193v-27.574
	c0-6.385-0.838-10.239-2.685-13.851c1.508-1.081,4.7-1.838,6.716-1.838c5.692,0,11.15,2.854,11.15,11.481
	c0,6.644-4.272,13.416-10.908,16.286c-0.58,0.242-0.911,0.581-0.911,1c0,0.242,0.161,0.581,0.331,0.919l2.773,4.354
	c0.242,0.419,0.669,0.597,1.169,0.597c0.169,0,0.33,0,0.508-0.097C734.456,588.678,742.083,577.938,742.083,567.796"/>
<path fill="#008475" d="M789.249,571.408c0-9.224-2.177-21.043-14.505-21.043c-4.442,0-9.304,1.322-13.327,5.612
	c-0.419-1.935-1.177-3.773-1.685-4.612c-0.5-0.919-0.911-1.097-1.419-1.097c-0.17,0-0.339,0-0.5,0l-8.385,1.677
	c-0.589,0.177-0.928,0.338-0.928,0.758c0,0.338,0.17,0.758,0.42,1.338c1.266,3.193,2.265,8.224,2.265,13.851v7.031
	c0,4.773-0.919,13.158-1.516,14.916c-0.072,0.177-0.072,0.258-0.072,0.436c0,0.661,0.589,1.338,1.677,1.338h7.797
	c0.58,0,1.25-0.677,1.669-1.935c0.927-2.935,1.516-11.32,1.516-15.835v-10.659c2.016-2.515,5.28-4.45,8.304-4.45
	c7.128,0,7.369,8.304,7.369,12.497c0,3.354-0.419,9.143-3.007,11.578c-0.847,0.758-1.935,1.258-3.273,1.258
	c-0.677,0-1.427-0.177-2.354-0.419c-0.161-0.081-0.33-0.081-0.5-0.081c-0.33,0-0.588,0.081-0.749,0.5l-1.517,5.612
	c-0.08,0.258-0.161,0.5-0.161,0.758c0,0.338,0.25,0.5,0.831,0.758c2.273,0.919,4.619,1.338,7.385,1.338
	C785.733,592.532,789.249,579.454,789.249,571.408"/>
<path fill-rule="evenodd" clip-rule="evenodd" fill="#008475" d="M829.779,590.355V577.1c0-3.515-0.25-5.95-1.169-8.546
	c-0.259-0.758-0.508-1.096-1.008-1.096c-0.339,0-0.67,0.097-1.178,0.258l-6.03,2.516c-1.186,0.419-1.186,1.338-1.186,1.757v18.447
	c0,0.838,0.517,1.177,1.686,1.177h7.208C829.029,591.613,829.779,591.113,829.779,590.355 M853.176,590.177v-26.493
	c0-11.481-9.224-13.754-15.263-13.754c-7.627,0-15.343,1.435-20.463,4.208c-0.58,0.242-0.749,0.5-0.749,0.903
	c0,0.178,0.08,0.516,0.25,0.855l2.773,5.772c0.161,0.516,0.41,0.677,0.749,0.677c0.25,0,0.589-0.081,0.839-0.338
	c4.192-2.596,8.805-4.112,13.666-4.112c4.192,0,7.127,2.693,7.127,7.724v24.558c0,1.258,0.17,1.436,1.508,1.436h8.135
	C853.006,591.613,853.176,591.435,853.176,590.177z"/>
<path fill-rule="evenodd" clip-rule="evenodd" fill="#008475" d="M895.721,559.492c0-2.257-0.33-5.45-1.516-8.046
	c-0.411-0.838-0.83-1.258-1.499-1.258c-0.259,0-0.5,0.081-0.759,0.177l-6.877,1.919c-0.669,0.177-1.258,0.597-1.258,1.258
	c0,0.081,0,0.258,0.081,0.419c0.589,1.838,1.097,4.95,1.097,7.046c0,2.677-1.178,6.885-3.943,9.063
	c-4.031-4.031-8.715-14.352-10.908-18.705c-0.242-0.581-0.58-0.838-1.088-0.838c-0.242,0-0.492,0.081-0.75,0.161l-7.797,2.112
	c-0.58,0.161-0.919,0.403-0.919,1c0,0.242,0.081,0.581,0.242,0.919c3.442,8.546,11.239,20.285,21.14,28.589H862.27
	c-0.677,0-1.596,0.5-1.596,1.258v5.789c0,0.5,0.08,1.258,1.169,1.258h30.104c1.347,0,1.678-0.581,1.678-1.677v-4.773
	c0-1.193-0.508-1.935-1.508-2.773c-2.104-1.854-5.12-4.95-6.708-6.966C890.521,572.488,895.721,566.2,895.721,559.492"/>
<path fill="#008475" d="M939.396,569.134c0-4.273-0.75-12.997-2.951-17.77c-0.339-0.838-0.758-1.597-1.773-1.597
	c-0.161,0-0.419,0.081-0.758,0.162l-7.159,2.273c-0.928,0.258-1.347,0.5-1.347,1.081c0,0.258,0,0.516,0.177,0.854
	c1.25,3.757,2.589,9.643,2.589,15.512c0,7.369-2.427,13.658-5.692,15.416l-9.231-34.04c-0.169-0.661-0.581-1-1.258-1
	c-0.25,0-0.5,0.081-0.75,0.161l-7.966,1.838c-0.927,0.258-1.258,0.677-1.258,1.258c0,0.097,0,0.258,0.081,0.419l11.239,33.298
	c-2.354-0.258-4.193-0.839-6.289-2.016c-0.339-0.162-0.669-0.339-0.927-0.339c-0.492,0-0.92,0.339-1.258,1.177l-2.008,4.612
	c-0.169,0.419-0.25,0.758-0.25,1.08c0,0.516,0.25,0.855,0.911,1.097c3.531,1.258,7.643,1.677,12.666,1.677
	C932.059,594.289,939.396,582.55,939.396,569.134"/>
<path fill="#008475" d="M959.463,590.177v-30.008c0-2.693-0.927-6.708-2.016-8.482c-0.419-0.822-1-1.419-1.758-1.419
	c-0.08,0-0.161,0-0.258,0l-8.635,1.677c-0.58,0.081-0.911,0.516-0.911,0.935c0,0.242,0,0.403,0.161,0.581
	c1.597,2.435,2.266,5.87,2.266,8.804v27.912c0,1.258,0.25,1.436,1.588,1.436h8.136C959.302,591.613,959.463,591.435,959.463,590.177
	"/>
<path fill="#008475" d="M1007.621,571.408c0-9.224-2.177-21.043-14.513-21.043c-4.442,0-9.304,1.322-13.327,5.612
	c-0.419-1.935-1.169-3.773-1.677-4.612c-0.5-0.919-0.919-1.097-1.427-1.097c-0.161,0-0.339,0-0.5,0l-8.386,1.677
	c-0.58,0.177-0.919,0.338-0.919,0.758c0,0.338,0.161,0.758,0.42,1.338c1.258,3.193,2.257,8.224,2.257,13.851v7.031
	c0,4.773-0.919,13.158-1.508,14.916c-0.08,0.177-0.08,0.258-0.08,0.436c0,0.661,0.589,1.338,1.677,1.338h7.797
	c0.588,0,1.258-0.677,1.677-1.935c0.919-2.935,1.516-11.32,1.516-15.835v-10.659c2-2.515,5.273-4.45,8.297-4.45
	c7.119,0,7.377,8.304,7.377,12.497c0,3.354-0.42,9.143-3.023,11.578c-0.839,0.758-1.928,1.258-3.266,1.258
	c-0.678,0-1.419-0.177-2.346-0.419c-0.17-0.081-0.339-0.081-0.5-0.081c-0.339,0-0.589,0.081-0.767,0.5l-1.507,5.612
	c-0.081,0.258-0.17,0.5-0.17,0.758c0,0.338,0.25,0.5,0.847,0.758c2.266,0.919,4.604,1.338,7.369,1.338
	C1004.097,592.532,1007.621,579.454,1007.621,571.408"/>
<path fill="#008475" d="M650.63,701.182v-46.859c0-17.818-15.521-22.14-24.438-22.14c-10.489,0-22.276,1.87-29.46,6.176
	c-1.008,0.581-1.443,1.016-1.443,1.596c0,0.419,0.145,0.854,0.436,1.435l4.458,10.046c0.282,0.871,0.854,1.016,1.29,1.016
	s1-0.145,1.58-0.581c6.039-3.87,12.36-5.886,18.117-5.886c6.748,0,10.344,3.016,10.344,11.642v43.554
	c0,2.145,0.29,2.435,2.588,2.435h14.085C650.34,703.616,650.63,703.326,650.63,701.182"/>
<path fill="#008475" d="M723.451,646.711c0-0.29-0.138-0.726-0.282-1.161l-2.879-9.191c-0.427-1.306-1.145-1.726-3.45-1.726h-52.753
	c-1.29,0-2.588,0.564-2.588,2v10.207c0,1.436,0.436,2.306,2.016,2.306h34.499c-8.489,3.741-11.215,13.658-11.215,23.14v29.186
	c0,1.436,0.863,2.145,2.726,2.145h13.375c1.726,0,2.879-0.419,2.879-2.145v-33.347c0-11.368,7.038-18.688,14.947-19.979
	C722.596,647.856,723.451,647.711,723.451,646.711"/>
<path fill="#008475" d="M798.52,702.182c0-0.42-0.29-1.146-0.854-1.871l-17.971-23.993c10.062-5.031,16.81-15.674,16.81-26.445
	c0-5.902-0.854-11.368-2.725-15.093c-0.718-1.436-1.29-2.016-2.588-2.016c-0.428,0-0.863,0-1.29,0.145l-12.368,3.16
	c-1.145,0.291-2.152,1-2.152,2.145c0,0.145,0,0.435,0.137,0.726c1.161,3.16,2.306,8.336,2.306,13.658
	c0,5.176-0.854,10.642-4.596,14.222l-23.43-32.186c-1.008-1.29-1.442-2.016-2.588-2.016c-0.436,0-0.726,0-1.152,0.146l-12.787,3.305
	c-1.589,0.436-2.307,1-2.307,2.016c0,0.564,0.291,1.145,0.863,1.871l16.101,20.398c-9.635,4.032-15.528,16.109-15.528,24.446
	c0,6.176,0.436,12.062,2.016,16.673c0.58,1.854,1.435,2.145,3.306,2.145h13.658c0.999,0,1.725-0.419,1.725-1.563
	c0-0.291-0.145-0.871-0.29-1.451c-1.29-3.741-2.298-10.353-2.298-15.803c0-4.321,1.29-12.078,4.168-15.238l22.567,31.621
	c1.29,1.726,2.161,2.435,4.168,2.435h14.948C797.803,703.616,798.52,703.052,798.52,702.182"/>
<path fill="#008475" d="M899.212,701.182v-46.859c0-17.818-15.521-22.14-24.438-22.14c-10.497,0-22.284,1.87-29.468,6.176
	c-1.008,0.581-1.436,1.016-1.436,1.596c0,0.419,0.146,0.854,0.428,1.435l4.458,10.046c0.282,0.871,0.863,1.016,1.29,1.016
	c0.436,0,1.016-0.145,1.589-0.581c6.03-3.87,12.359-5.886,18.108-5.886c6.756,0,10.344,3.016,10.344,11.642v43.554
	c0,2.145,0.29,2.435,2.596,2.435h14.086C898.922,703.616,899.212,703.326,899.212,701.182"/>
<g>
	<path fill-rule="evenodd" clip-rule="evenodd" fill="#008475" d="M932.648,701.472v-22.72c0-6.031-0.436-10.207-2.016-14.657
		c-0.428-1.29-0.863-1.871-1.726-1.871c-0.572,0-1.145,0.146-2.016,0.436l-10.344,4.306c-2.016,0.726-2.016,2.306-2.016,3.015
		v31.621c0,1.451,0.87,2.016,2.878,2.016h12.359C931.35,703.616,932.648,702.762,932.648,701.472 M972.75,701.182v-45.424
		c0-19.689-15.811-23.575-26.163-23.575c-13.077,0-26.3,2.451-35.071,7.191c-1.008,0.436-1.29,0.855-1.29,1.581
		c0,0.29,0.137,0.854,0.427,1.435l4.749,9.917c0.282,0.854,0.71,1.145,1.29,1.145c0.428,0,1.008-0.129,1.436-0.564
		c7.191-4.45,15.093-7.046,23.43-7.046c7.191,0,12.223,4.596,12.223,13.223v42.118c0,2.145,0.282,2.435,2.58,2.435h13.947
		C972.46,703.616,972.75,703.326,972.75,701.182z"/>
</g>
</svg>
