<?xml version="1.0" encoding="utf-8"?>
<!-- Generator: Adobe Illustrator 15.0.0, SVG Export Plug-In . SVG Version: 6.00 Build 0)  -->
<!DOCTYPE svg PUBLIC "-//W3C//DTD SVG 1.1//EN" "http://www.w3.org/Graphics/SVG/1.1/DTD/svg11.dtd">
<svg version="1.1" id="Layer_1" xmlns="http://www.w3.org/2000/svg" xmlns:xlink="http://www.w3.org/1999/xlink" x="0px" y="0px"
	 width="660.967px" height="1093.42px" viewBox="0 0 660.967 1093.42" enable-background="new 0 0 660.967 1093.42"
	 xml:space="preserve">
<g>
	<path fill="none" stroke="#03723D" stroke-width="10" stroke-miterlimit="3.864" d="M409.068,374.832
		c81.971,0,148.396,66.445,148.396,148.416s-66.425,148.396-148.396,148.396s-148.416-66.425-148.416-148.396
		S327.098,374.832,409.068,374.832z"/>
	<path fill="#03723D" d="M365.512,546.776c-12.204-18.667-70.986-39.475-70.986-39.475c5.762-7.503,36.273,0.88,67.345,14.686
		c31.092,13.805,55.821,43.036,55.821,43.036c8.223,18.787-23.409-2.121-38.374,30.111c-14.966,32.232-9.204,29.931-20.148,41.456
		c-11.424,12.024-4.602,22.989-18.406,32.212c-13.825,9.204-8.644,2.881-28.23,27.05c-19.548,24.169-23.269,28.25-33.473,41.855
		c-13.806,18.427-1.16,42.296-12.925,39.955l1.2-35.273c20.708-31.072,27.95-44.837,31.392-49.979
		c4.622-6.922,1.94-14.585-5.742-14.405c-44.316,1.161-20.268-5.022-35.693,14.986c-15.525,20.127-23.648,6.782-24.188,28.75
		c-0.561,24.189,10.724,33.333,10.724,55.921h-8.223c8.243-16.526-22.629-67.425-22.049-76.628
		c0.561-8.963,12.985-8.163,12.646-11.484c-1.761-18.127-8.604-53.02-16.106-46.638c-18.987,16.106-5.742-25.91,26.49-28.21
		c32.212-2.301-4.622-2.301,32.212-2.301s9.924-2.841,36.834,0c32.832,3.441,39.154-18.407,43.756-25.33
		c4.602-6.922,11.504-18.407,6.902-25.309C351.687,554.839,365.512,546.776,365.512,546.776"/>
	<path fill="none" stroke="#03723D" stroke-width="0.12" stroke-miterlimit="3.864" d="M365.512,546.776
		c-12.204-18.667-70.986-39.475-70.986-39.475c5.762-7.503,36.273,0.88,67.345,14.686c31.092,13.805,55.821,43.036,55.821,43.036
		c8.223,18.787-23.409-2.121-38.374,30.111c-14.966,32.232-9.204,29.931-20.148,41.456c-11.424,12.024-4.602,22.989-18.406,32.212
		c-13.825,9.204-8.644,2.881-28.23,27.05c-19.548,24.169-23.269,28.25-33.473,41.855c-13.806,18.427-1.16,42.296-12.925,39.955
		l1.2-35.273c20.708-31.072,27.95-44.837,31.392-49.979c4.622-6.922,1.94-14.585-5.742-14.405
		c-44.316,1.161-20.268-5.022-35.693,14.986c-15.525,20.127-23.648,6.782-24.188,28.75c-0.561,24.189,10.724,33.333,10.724,55.921
		h-8.223c8.243-16.526-22.629-67.425-22.049-76.628c0.561-8.963,12.985-8.163,12.646-11.484
		c-1.761-18.127-8.604-53.02-16.106-46.638c-18.987,16.106-5.742-25.91,26.49-28.21c32.212-2.301-4.622-2.301,32.212-2.301
		s9.924-2.841,36.834,0c32.832,3.441,39.154-18.407,43.756-25.33c4.602-6.922,11.504-18.407,6.902-25.309
		C351.687,554.839,365.512,546.776,365.512,546.776z"/>
	<path fill="#03723D" d="M135.926,921.316l12.325-13.665l5.222,4.702c1.74,1.58,2.601,3.121,2.521,5.462
		c-0.06,1.881-1.141,3.441-2.66,5.122l-11.585,12.845l4.521,4.062l11.564-12.845c2.281-2.521,3.842-4.622,4.282-7.703
		c0.62-4.582-1.861-7.583-5.282-10.664l-13.806-12.424l-3.361,3.721l4.082,3.661l-11.664,12.945c-1.141,1.28-2.401,1.721-4.021,0.94
		c-1.301-0.62-2.441-2.021-2.661-3.081l-3.281,3.641c0.62,1.641,3.601,5.122,6.862,5.563
		C131.685,923.937,133.705,923.797,135.926,921.316"/>
</g>
<polygon fill="#03723D" points="164.297,939.963 171.02,941.124 180.782,928.179 175.921,924.538 "/>
<g>
	<path fill="#03723D" d="M187.726,968.854l5.142,3.222l9.163-14.666c1.801-2.901,3.002-5.202,2.882-8.343
		c-0.181-4.582-3.142-7.123-7.063-9.584l-8.543-5.342l-2.661,4.262l8.563,5.342c1.98,1.24,3.121,2.621,3.422,4.941
		c0.279,1.861-0.541,3.602-1.741,5.503L187.726,968.854z"/>
</g>
<polygon fill="#03723D" points="204.491,977.937 209.934,980.598 223.198,953.369 217.757,950.748 "/>
<g>
	<path fill="#03723D" d="M244.347,967.494l1.801-4.682l-14.326-5.502l-1.8,4.701l6.843,2.621c0.039,0.021-2.582,1.4-3.882,2.701
		c-2.181,2.121-2.801,3.562-3.481,5.342l-5.402,14.105l5.662,2.161l6.003-15.666c0.92-2.361,1.42-4.021,3.601-5.542
		c1.081-0.74,2.722-1.121,4.322-0.48L244.347,967.494z"/>
	<path fill="#03723D" d="M260.152,967.734l-7.482-2.141c0.12,0.34,1.54,3.021,2.48,4.981c0.96,2.001,2.301,5.102,2.521,5.822
		l0.319,0.94c0,0-4.062,1.82-6.482,4.481c-2.601,2.721-3.881,6.143-4.741,9.144l-1.161,4.081l5.803,1.681l2.081-7.263
		c0.2-0.72,1.14-3.321,2.541-5.021c1.16-1.421,3.601-3.001,3.581-2.921l0.46,0.96c0.44,0.96,1.961,5.062,2.941,8.104
		c1.32,4.021,2.141,6.382,3.201,10.384l6.603,1.881c-0.521-1.981-0.86-3.222-1.44-5.263c-0.9-3.321-2.562-8.583-2.562-8.583
		s4.682-1.54,7.203-4.882c1.08-1.44,2.141-3.401,2.82-5.802l1.381-4.822l-5.842-1.681l-1.821,6.383c-0.64,2.221-1.44,3.441-2,4.102
		c-0.86,1.08-3.281,2.601-3.302,2.48c0,0-2.44-6.342-4.121-10.304C262.073,971.895,261.272,970.275,260.152,967.734"/>
	<path fill="#03723D" d="M294.165,986.401l-6.383,2.2l-2.04,16.667l6.022,0.72L294.165,986.401z M305.489,1007.668l6.002,0.74
		l2.121-17.166c0.4-3.382,0.5-5.982-0.9-8.764c-2.121-4.102-5.882-5.142-10.464-5.702l-12.825-1.58l-0.6,4.981l12.824,1.581
		c2.342,0.279,4.182,0.92,5.463,2.86c1,1.581,0.78,3.602,0.5,5.883L305.489,1007.668z"/>
	<path fill="#03723D" d="M350.386,988.021l-5.602,3.741l2.36,16.627l5.982-0.841L350.386,988.021z M366.832,1005.627l6.003-0.84
		l-2.422-17.146c-0.46-3.361-1.06-5.902-3.141-8.224c-3.081-3.421-7.003-3.44-11.564-2.801l-12.785,1.801l0.701,4.942l12.784-1.781
		c2.341-0.34,4.282-0.2,6.022,1.36c1.381,1.261,1.681,3.262,2.001,5.542L366.832,1005.627z"/>
	<path fill="#03723D" d="M386.42,1002.327l23.549-6.322l-1.121-4.222l-7.663-6.263c2.081-1.801,3.382-4.361,3.882-6.162
		c0.721-2.521,0.82-4.582,0.061-7.383l-1.481-5.602l-5.861,1.561l1.82,6.802c0.4,1.48,0.4,2.861,0.18,4.002
		c-0.359,1.761-1.36,3.521-1.881,4.081l-13.765-11.224l-7.343,1.961l24.35,19.607l-16.047,4.301L386.42,1002.327z"/>
	<path fill="#03723D" d="M438.679,975.357c-0.78,3.941-3.921,6.342-3.921,6.342l-15.326-20.947l-5.962,2.301l16.786,23.028
		l-5.642,5.702l2.021,5.322l12.425-12.425c1.2-1.201,4.041-4.222,5.041-7.623c1.061-3.682,0.541-7.243-0.52-9.983l-5.202-13.586
		l-5.662,2.161l5.222,13.565C438.659,971.095,439.159,973.036,438.679,975.357"/>
</g>
<polygon fill="#03723D" points="447.542,948.327 461.287,975.317 466.71,972.576 452.944,945.585 "/>
<g>
	<path fill="#03723D" d="M467.85,937.222l-5.502,3.701c0.521,0.36,2.861,1.981,4.401,3.142c3.481,2.541,5.883,4.382,6.783,5.742
		c1,1.34,1.94,4.201,2.48,5.422l4.122,10.224l5.502-3.701l-2.801-6.183c-0.2-0.44-2.562-5.582-3.542-8.903
		c-1.54-5.062-2.101-10.944,1.721-13.524c4.262-2.861,9.404,0.74,12.285,5.001c3.001,4.442,4.901,10.265-0.2,13.825
		c-1.48,1.021-2.501,1.681-4.182,2.062l2.781,4.121c1.66-0.561,2.7-1.061,4.182-2.061c8.503-5.942,7.223-14.546,2.44-21.408
		c-5.382-7.783-12.824-10.344-19.647-5.742c-4.542,3.081-5.922,8.043-4.462,13.305c-1.18-1.14-1.96-1.78-3.281-2.78
		C469.671,938.502,469.051,938.083,467.85,937.222"/>
	<path fill="#03723D" d="M507.625,920.496l-2.081,6.423l12.085,11.645l4.201-4.362L507.625,920.496z M531.434,924.238l4.202-4.342
		l-12.445-12.024c-2.461-2.361-4.481-3.981-7.522-4.542c-4.562-0.78-7.643,1.601-10.845,4.922l-9.003,9.283l3.642,3.481l8.963-9.283
		c1.641-1.701,3.262-2.802,5.582-2.621c1.881,0.12,3.321,1.5,4.982,3.121L531.434,924.238z"/>
	<path fill="#03723D" d="M94.911,984.94l16.146-18.547l6.683,5.782c3.201,2.781,4.781,5.522,4.701,9.684
		c-0.039,3.361-1.98,6.202-4.621,9.243l-18.907,21.748l11.345,9.864l20.268-23.329c4.001-4.581,6.662-7.022,7.502-13.805
		c0.961-8.163-3.561-13.466-9.803-18.867l-28.591-24.869l-7.223,8.323l7.303,6.342l-17.627,20.288
		c-2.021,2.341-4.542,2.86-7.482,1.561c-2.341-1.101-4.102-3.441-4.603-5.242l-6.142,7.083c0.86,2.921,6.782,11.344,13.205,12.424
		C82.246,993.583,87.428,993.583,94.911,984.94"/>
</g>
<polygon fill="#03723D" points="177.901,999.725 164.877,992.203 137.847,1039.041 150.852,1046.543 "/>
<polygon fill="#03723D" points="237.483,1024.955 208.733,1013.911 215.016,997.565 200.19,991.882 189.966,1018.512 
	218.537,1029.477 186.665,1063.349 202.531,1069.452 234.163,1033.598 "/>
<polygon fill="#03723D" points="249.408,1062.75 264.814,1062.549 271.297,1032.137 256.591,1029.016 "/>
<g>
	<path fill="#03723D" d="M308.45,1037.299l-18.827-0.98c0.381,0.541,3.882,4.622,6.303,7.663c2.521,3.121,5.982,8.023,6.742,9.104
		l1.641,2.241c0,0-7.442,4.062-10.624,9.644c-3.4,5.822-3.921,12.305-4.241,17.847l-0.38,7.603l15.726,0.82l0.7-13.465
		c0.08-1.341,0.061-6.783,1.881-10.424c1.62-3.001,3.021-4.082,3.021-3.941l1.14,1.48c1.181,1.5,4.342,5.902,7.283,10.804
		c3.882,6.503,6.362,10.224,9.743,16.807l17.687,0.92c-2.101-3.602-3.421-5.742-5.502-9.264c-2.661-4.461-6.462-10.544-7.022-11.504
		l-1.061-1.581c0,0,7.604-3.221,11.045-9.844c2.04-3.921,2.601-6.362,2.94-12.944l0.46-8.963l-15.726-0.82l-0.62,11.824
		c-0.16,3.101-0.04,4.861-0.82,7.923c-1.021,3.642-3.041,4.462-3.121,4.262c0,0-6.423-9.104-10.464-14.686
		C313.353,1043.762,311.531,1041.381,308.45,1037.299"/>
</g>
<polygon fill="#03723D" points="443.28,1016.452 413.99,1025.975 408.588,1009.309 393.502,1014.211 402.325,1041.341 
	431.396,1031.898 427.955,1078.275 444.121,1073.013 446.162,1025.255 "/>
<path fill="#03723D" d="M519.39,1026.036l-5.822,3.081l-9.344-17.547c-2.901-5.462-5.982-9.063-11.004-11.524
	c-7.183-3.421-14.146-1.34-21.708,2.661l-16.446,8.764l5.182,9.724l15.266-8.123c3.461-1.841,6.162-2.441,10.023-0.9
	c2.422,1.061,3.862,3.562,5.423,6.462l9.323,17.547l-24.649,13.104l5.182,9.724l43.757-23.248L519.39,1026.036z"/>
<path fill="#03723D" d="M514.188,978.917l34.032,42.016l11.685-9.463l-27.11-33.453l7.303-5.902
	c4.162-3.36,6.963-5.642,11.404-4.741c3.302,0.66,4.742,2.941,6.883,5.582l19.447,24.009l11.685-9.463l-19.447-24.01
	c-3.821-4.741-6.862-7.822-12.425-9.283c-7.823-2.161-13.766,0.681-20.088,5.802L514.188,978.917z"/>
<path fill="#03723D" d="M175.101,374.552c2.061,5.422,2.321,18.046,8.243,18.046c8.743,0,6.702-12.364,8.743-26.29
	c2.881-19.327,8.343-22.528,18.066-37.094c9.264-13.905,28.971-30.031,46.378-41.216c7.202-4.662,30.651-10.304,38.134-8.783
	c4.102,0.78,23.189-5.142,24.729,4.122c0.74,4.602,1.48,7.823-2.061,10.844c-13.405,11.324,11.164,2.521,13.405-4.142
	c6.162-18.547-0.541-0.24,4.121-11.324c2.821-6.963,11.084-14.686,18.527-15.986l12.384,2.581
	c-1.021,8.503-25.749,18.027-8.243,19.587c0,0,16.166-3.001,20.088-10.824c4.142-8.243,4.502-18.507-2.561-21.648
	c-36.074-15.986-76.289,15.986-68.046,3.602c30.932-10.304,36.354-13.405,68.046-13.405c19.307,0,31.932-3.081,43.796,12.385
	c9.523,12.365,22.148,66.485,29.392,45.337c5.642-28.331-33.533-59.242-10.345-61.823c31.592-3.501,19.088,22.669,26.29,31.952
	c17.007,4.622,3.102-15.986,6.703-20.087c18.046-8.783,35.053,35.033,40.194,57.702c1.421,6.202,4.262,21.988,10.304,24.229
	c13.926,5.142-4.621-24.729,3.102-29.891c25.249,11.844,17.006,43.796,21.648,42.776c18.106-4.042-1.561-29.891-3.082-39.695
	c17.507,10.304,19.567,60.302,26.79,41.735c-1.04-38.134-20.107-48.938-12.885-47.417c14.946,3.221,30.952,74.728,32.473,35.573
	c-3.361-11.344-16.246-37.374-15.986-39.175c14.165,6.963,25.17,26.81,36.594,27.311c11.404,0.54-13.005-23.629-19.587-27.311
	c-9.023-4.882-19.588-6.182-17.007-8.743c13.205-13.205,47.438,28.331,48.438,22.668c3.101-17.526-25.81-29.271-35.554-37.114
	c-10.864-8.743-53.6-26.29-71.126-32.452c-7.203-2.581-71.107-15.466-42.756-24.229c40.194,1.041,53.92,11.724,91.214,26.27
	c32.952,12.905,81.971,62.363,69.546,38.154c-10.304-20.087-45.297-27.83-45.297-36.594c0,0,7.383,0.08,23.669,7.723
	s26.29,20.107,32.111,19.907c22.989-0.82-25.409-35.873-69.726-41.535c54.62,1.541,74.988,22.668,76.789,21.628
	c25.229,2.081-2.081-17.006-20.608-24.729c-15.426-6.423-39.175-5.402-54.641-11.865c19.067,1.561,29.892-2.041,53.08,3.101
	c2.241,0.521,34.013-0.5,12.364-9.283c-15.646-6.322-44.836-8.223-77.288-4.622c-14.565,1.621-25.27,1.541-36.094-5.162
	l34.533-3.602c25.81-2.061,63.384,1.541,73.187-6.182c10.805-10.824-28.09-7.743-41.234-7.743c-13.146,0-57.202,4.142-35.054-2.581
	c19.087-7.723,64.944,1.04,62.363-11.324c2.581-7.723-26.27-5.662-35.033-5.662c-14.686,0-80.649,14.425-88.653,14.425
	c-2.04,0-7.202-2.061-9.263-2.061c14.445-8.503,61.843-25.009,74.728-31.432c7.223-3.601,27.83-2.321,27.83-10.304
	c0-7.743-13.925-4.122-21.647-4.122c-4.642,0-38.654,18.027-21.648-2.061c4.902-8.263,10.824-14.706,17.007-21.668
	c5.161-5.922,25.27-16.466,9.783-18.027c-7.203-2.041-15.346,9.664-23.188,17.527c-5.662,5.662-9.523,9.003-15.466,14.946
	c6.723-9.784,17.006-55.661,2.081-45.877c-5.423,14.706-1.541,25.79-10.324,39.175c-10.304,1.541,0-48.438-7.723-58.742
	c-8.104-10.824-6.703,15.386-7.743,18.547l-3.081,31.952c-1.28,4.882-0.521,15.966-6.683,11.864
	c-9.043-9.023-3.102-18.567-5.162-30.932c0,0-4.962-26.25-12.885-25.77c-7.902,0.5,7.684,62.644-3.101,56.181
	c-2.562-10.844-18.027-37.614-22.148-39.175c-0.5,4.382-4.642,7.483-2.581,11.324c7.723,14.445,11.324,24.249,11.324,40.735
	c0,11.324-4.382,29.351-13.385,36.574c-10.824,3.601-7.723-19.567-17.007-19.567c-5.922,0-5.142,10.544-5.662,16.486
	c-0.78,6.942-18.566,40.695-13.385,1.04c0,0,13.024-36.574,27.811-57.221c17.006-23.689,40.215-73.828,27.31-70.586
	c-8.263,2.041-24.209,40.195-29.891,36.074c-9.584-6.983,13.405-47.438,4.662-53.08c-10.345-14.965-8.784,41.736-22.689,38.134
	c-8.383-4.182-5.682-73.708-17.006-35.553c-1.04,3.481,3.602,17.006,6.702,24.729c5.143,28.871-8.263,1.541-8.263,1.541
	c-5.142-9.263-9.783-28.351-20.088-20.607c-9.684,7.243,25.25,39.675,15.967,41.735c-9.264-3.361-26.271-26.79-27.811-14.945
	c-1.901,14.565,37.094,29.371,20.087,37.614c-14.445-5.922-14.445-15.206-29.371-20.108c-1.3,3.101-3.341,10.064,0,11.865
	c6.423,3.881,11.604,6.442,14.426,13.405h-13.405v7.203c7.223,12.125,25.77,11.604,25.77,25.79c0,3.602-3.341,5.402-5.142,8.223
	c-5.422-2.061-8.523-5.142-14.445-5.142c-5.643,0-7.442,6.702-7.442,12.364c0,5.162,0.239,8.243,0.239,13.385
	c0,7.223-6.702,12.384-13.905,12.384c-4.121,0-6.982-1.3-10.823-2.061v-8.243c8.743-7.983,20.607-11.604,20.607-23.709
	c0-7.723-7.203-23.708-7.203-31.452c0-10.804,40.695-65.424,21.108-67.505c-14.405,20.368-23.689,65.464-31.932,63.904
	c1.02-27.831,32.972-75.749,22.147-80.37c-10.823-17.006-22.688,56.161-36.073,44.817c0,0,16.486-56.681,4.642-56.681
	c-9.283-11.324-10.563,31.952-16.485,49.999l-4.662-5.162c-3.081-14.425-0.761-24.229-3.081-36.073c0,0-2.062-21.128-8.243-17.527
	c-8.903,5.222-2.581,44.737-2.581,59.262c0,2.581-3.341-1.28-4.122,1.021c-14.425-34.513-24.209-46.897-24.209-46.897
	c-23.709-7.203,20.608,64.184,20.608,77.309c0,2.061-2.062,8.503-2.581,10.304c-14.426-19.327-17.526-38.375-26.79-60.803
	c-5.662-13.405-15.446-35.553-22.389-23.869c-3.001,5.082,18.267,44.477,16.727,46.538c-10.063-5.922-12.645-13.385-19.588-22.668
	c-6.182-8.243-17.146-20.167-20.607-13.905c-5.162,9.264,4.902,21.888,15.446,32.472c5.161,5.142,19.066,14.925,10.304,17.506
	c-20.608-6.702-28.431-33.072-49.999-30.912c-10.304,1.021,10.063,18.547,19.087,26.79c16.747,15.446,56.962,52.82,70.087,62.864
	c14.425,10.844,37.094,25.77,38.134,38.654c0.5,6.422-9.283,8.243-14.426,11.864c-5.682,3.862-9.523,6.442-14.425,11.324
	c-9.283,9.284-13.405,21.648-26.811,21.648c-9.523,0-15.966-6.203-24.209-10.824c-11.344-6.442-14.686-9.023-27.33-12.885
	c-4.121-14.425,9.784-11.324,18.567-12.365l54.62,3.101l2.061-4.142c1.541-8.223-11.084-7.723-18.026-8.743l-57.741-4.142
	l1.561-4.622c22.147-8.783,54.78-5.362,55.641-7.223c3.621-7.723-1.021-9.284-6.183-9.284c-11.064,0-25.229-1.28-36.054,0.521
	c-9.283,1.561-20.107,9.283-20.107,7.203c0-12.605,21.128-20.608,16.506-33.993c-15.985-10.304-38.394,38.895-47.938,49.979
	c-5.422,6.462-9.264,19.587-18.047,15.466c-6.063-2.841,10.264-35.273,14.945-45.857c9.784-22.148,23.729-57.202,14.445-57.722
	c-6.182-0.34-9.283,12.365-11.344,18.027c-4.901,12.645-4.642,28.351-12.364,24.749l8.243-37.094
	c-0.521-30.932-11.345,12.345-13.405,24.729c-0.761-2.321-0.761-13.405,0-17.527c0,0,1.04-41.735-10.824-25.77l2.081,42.256
	l-3.102,7.223C128.203,56.093,115.339,73.1,115.339,73.1c1.28,15.986,12.864,9.784,15.445,36.593v8.223l-4.121,3.101
	c-5.662-23.708-36.594-50.499-40.195-40.195c-2.141,6.083,5.401,10.064,10.304,13.905c9.283,7.243,13.405,12.885,20.607,25.27
	c-1.801,0.5-3.101,2.061-5.142,2.061c0,0-10.964-11.264-18.567-17.526C64.319,80.302,23.604,88.565,36.989,93.707
	c7.742,9.784,43.796-1.02,68.545,30.912l-3.601,2.581c-22.169-17.006-35.054-22.668-62.884-22.668
	c-4.121,0-39.154,8.763-17.507,11.864c23.689,1.521,44.577-1.821,70.087,10.804c-3.361,1.021-2.682,1.901-6.183,1.021
	c-14.426-3.602-44.837-5.642-44.837-5.642c-12.364,0.5-34.013,10.824-20.107,12.344c23.188-4.622,37.114-3.061,60.822-0.5
	l4.122,5.162c-9.283-0.521-15.206,0-24.749,0c-13.646,0-23.189,1.541-34.013,8.223c-7.724,8.263,7.982,3.102,13.385,3.102h27.851
	c10.544,0,20.607,5.162,26.79,13.405c-42.256,2.581-56.161,9.784-38.135,13.905l38.654-4.122
	c13.646,5.682,29.352,15.466,29.352,30.411c0,1.541-1.021,2.581-1.021,4.122c-1.541,0-3.222,2.281-4.122,1.041
	c-4.101-5.682-16.485-19.587-16.485-19.587c-23.189-1.04,3.101,15.706,3.101,20.608c0,3.101-2.081,7.483-3.101,10.304
	c-17.507-39.675-52.561-32.212-59.263-31.432c-12.864,0-37.614,8.243-43.276,20.107c-2.04,4.102,3.542,2.381,22.648-7.743
	c19.128-10.124,31.452-1.541,31.452-1.541c-21.648,1.541-45.597,10.544-54.101,30.911c0.9,4.082,14.525-5.902,28.852-13.385
	c14.345-7.503,33.492-4.122,33.492-4.122c-14.945,4.622-45.877,11.844-49.479,32.952c-2.061,12.225,15.986-10.544,27.33-15.446
	c9.523-4.121,18.547-6.702,26.79-3.601c-12.364,19.047-11.345,29.371-2.061,24.729c0,0,13.905-24.729,26.29-5.682
	c5.041,7.783-14.445,15.986-23.709,15.986c-11.084,0-12.645-4.622-23.709-4.622c-21.389,0-36.594,41.215-30.392,40.195
	c16.746-2.821,14.926-23.209,32.452-23.709c5.563-0.16,19.588-3.421,17.507,7.203c-3.081,15.986-18.547,23.449-18.547,43.296
	c0,6.942,3.101,26.27,12.385,19.587c2.32-9.544,2.04-42.256,21.128-42.776c8.743-0.24,15.966,9.003,18.026,17.507
	c0,0,4.642,26.29-19.047,133.49c-10.244,46.297-6.703,69.046-6.703,69.046c-9.283,7.203-12.385,14.165-17.006,25.77l16.466-2.081
	c0,0,0.54,83.231,7.743,114.923c3.861,17.787,5.622,32.572,11.324,49.999c10.824,32.972,14.945,51.519,42.275,90.174
	c41.216,56.701,120.665,105.639,203.536,105.639c86.893,0,160.9-42.356,188.25-101.458l-259.877,0.46l35.033-70.086H146.25
	c-29.392-35.033-37.374-56.441-46.397-88.633c-3.321-12.104-5.142-95.856-5.142-95.856c1.82,0,10.823,4.122,16.506,13.925
	c4.122-43.816-8.263-29.111-8.263-48.458c0-15.446,2.58-24.729,8.263-40.715c12.305-34.673,52.039-105.119,60.782-106.14
	C173.8,369.21,173.28,374.312,175.101,374.552 M277.659,243.683c-2.081-10.844,8.223-19.587,13.385-29.891
	c5.802-11.604,14.426-15.986,27.311-15.986c8.623,0,12.385,9.924,12.385,18.547c0,10.444-7.363,12.125-17.007,15.966
	c-10.704,4.262-20.868,8.783-31.952,12.385h-4.121V243.683z M263.733,256.028c0.521-4.902-3.081-4.902-5.162-6.703
	c-4.101-3.721-4.741-7.603-6.182-12.885c-1.801-6.703-4.902-13.385-11.845-13.385c-2.181,0-2.061,2.961-2.061,5.162
	c0,7.323,2.961,11.204,3.602,18.527c0.78,8.644,1.681,19.587,10.304,19.587c5.282,0,6.963-4.742,10.844-8.223L263.733,256.028z
	 M113.777,418.889c5.042-7.603,8.384-9.944,13.386-17.546c8.783-13.125,16.506-27.311,26.289-39.655
	c7.724-9.664,48.438-57.981,48.438-68.545c0-3.621-3.181-11.724-14.426-21.648c-17.506-15.466-14.825-8.943-24.729-8.243
	c-14.445,1.041-8.264,32.972-10.824,33.993l2.061,24.249l-3.602,3.602h-4.121c-5.802-5.802-3.602-17.507-11.864-17.507
	c-4.643,0-5.143-0.28-8.243,3.081c-8.884,9.524-11.324,50.479-14.926,81.931L113.777,418.889z M220.458,244.704
	c-4.262-12.885-18.567-16.226-18.567-14.425c0,5.022-16.346,2.041-12.364,5.142c4.001,3.101,18.427,40.455,25.77,46.377
	c2.301-2.061,12.364-14.285,12.364-17.506C227.66,255.528,220.458,244.704,220.458,244.704"/>
<path fill="none" stroke="#03723D" stroke-width="0.038" stroke-miterlimit="3.864" d="M175.101,374.552
	c2.061,5.422,2.321,18.046,8.243,18.046c8.743,0,6.702-12.364,8.743-26.29c2.881-19.327,8.343-22.528,18.066-37.094
	c9.264-13.905,28.971-30.031,46.378-41.216c7.202-4.662,30.651-10.304,38.134-8.783c4.102,0.78,23.189-5.142,24.729,4.122
	c0.74,4.602,1.48,7.823-2.061,10.844c-13.405,11.324,11.164,2.521,13.405-4.142c6.162-18.547-0.541-0.24,4.121-11.324
	c2.821-6.963,11.084-14.686,18.527-15.986l12.384,2.581c-1.021,8.503-25.749,18.027-8.243,19.587c0,0,16.166-3.001,20.088-10.824
	c4.142-8.243,4.502-18.507-2.561-21.648c-36.074-15.986-76.289,15.986-68.046,3.602c30.932-10.304,36.354-13.405,68.046-13.405
	c19.307,0,31.932-3.081,43.796,12.385c9.523,12.365,22.148,66.485,29.392,45.337c5.642-28.331-33.533-59.242-10.345-61.823
	c31.592-3.501,19.088,22.669,26.29,31.952c17.007,4.622,3.102-15.986,6.703-20.087c18.046-8.783,35.053,35.033,40.194,57.702
	c1.421,6.202,4.262,21.988,10.304,24.229c13.926,5.142-4.621-24.729,3.102-29.891c25.249,11.844,17.006,43.796,21.648,42.776
	c18.106-4.042-1.561-29.891-3.082-39.695c17.507,10.304,19.567,60.302,26.79,41.735c-1.04-38.134-20.107-48.938-12.885-47.417
	c14.946,3.221,30.952,74.728,32.473,35.573c-3.361-11.344-16.246-37.374-15.986-39.175c14.165,6.963,25.17,26.81,36.594,27.311
	c11.404,0.54-13.005-23.629-19.587-27.311c-9.023-4.882-19.588-6.182-17.007-8.743c13.205-13.205,47.438,28.331,48.438,22.668
	c3.101-17.526-25.81-29.271-35.554-37.114c-10.864-8.743-53.6-26.29-71.126-32.452c-7.203-2.581-71.107-15.466-42.756-24.229
	c40.194,1.041,53.92,11.724,91.214,26.27c32.952,12.905,81.971,62.363,69.546,38.154c-10.304-20.087-45.297-27.83-45.297-36.594
	c0,0,7.383,0.08,23.669,7.723s26.29,20.107,32.111,19.907c22.989-0.82-25.409-35.873-69.726-41.535
	c54.62,1.541,74.988,22.668,76.789,21.628c25.229,2.081-2.081-17.006-20.608-24.729c-15.426-6.423-39.175-5.402-54.641-11.865
	c19.067,1.561,29.892-2.041,53.08,3.101c2.241,0.521,34.013-0.5,12.364-9.283c-15.646-6.322-44.836-8.223-77.288-4.622
	c-14.565,1.621-25.27,1.541-36.094-5.162l34.533-3.602c25.81-2.061,63.384,1.541,73.187-6.182
	c10.805-10.824-28.09-7.743-41.234-7.743c-13.146,0-57.202,4.142-35.054-2.581c19.087-7.723,64.944,1.04,62.363-11.324
	c2.581-7.723-26.27-5.662-35.033-5.662c-14.686,0-80.649,14.425-88.653,14.425c-2.04,0-7.202-2.061-9.263-2.061
	c14.445-8.503,61.843-25.009,74.728-31.432c7.223-3.601,27.83-2.321,27.83-10.304c0-7.743-13.925-4.122-21.647-4.122
	c-4.642,0-38.654,18.027-21.648-2.061c4.902-8.263,10.824-14.706,17.007-21.668c5.161-5.922,25.27-16.466,9.783-18.027
	c-7.203-2.041-15.346,9.664-23.188,17.527c-5.662,5.662-9.523,9.003-15.466,14.946c6.723-9.784,17.006-55.661,2.081-45.877
	c-5.423,14.706-1.541,25.79-10.324,39.175c-10.304,1.541,0-48.438-7.723-58.742c-8.104-10.824-6.703,15.386-7.743,18.547
	l-3.081,31.952c-1.28,4.882-0.521,15.966-6.683,11.864c-9.043-9.023-3.102-18.567-5.162-30.932c0,0-4.962-26.25-12.885-25.77
	c-7.902,0.5,7.684,62.644-3.101,56.181c-2.562-10.844-18.027-37.614-22.148-39.175c-0.5,4.382-4.642,7.483-2.581,11.324
	c7.723,14.445,11.324,24.249,11.324,40.735c0,11.324-4.382,29.351-13.385,36.574c-10.824,3.601-7.723-19.567-17.007-19.567
	c-5.922,0-5.142,10.544-5.662,16.486c-0.78,6.942-18.566,40.695-13.385,1.04c0,0,13.024-36.574,27.811-57.221
	c17.006-23.689,40.215-73.828,27.31-70.586c-8.263,2.041-24.209,40.195-29.891,36.074c-9.584-6.983,13.405-47.438,4.662-53.08
	c-10.345-14.965-8.784,41.736-22.689,38.134c-8.383-4.182-5.682-73.708-17.006-35.553c-1.04,3.481,3.602,17.006,6.702,24.729
	c5.143,28.871-8.263,1.541-8.263,1.541c-5.142-9.263-9.783-28.351-20.088-20.607c-9.684,7.243,25.25,39.675,15.967,41.735
	c-9.264-3.361-26.271-26.79-27.811-14.945c-1.901,14.565,37.094,29.371,20.087,37.614c-14.445-5.922-14.445-15.206-29.371-20.108
	c-1.3,3.101-3.341,10.064,0,11.865c6.423,3.881,11.604,6.442,14.426,13.405h-13.405v7.203c7.223,12.125,25.77,11.604,25.77,25.79
	c0,3.602-3.341,5.402-5.142,8.223c-5.422-2.061-8.523-5.142-14.445-5.142c-5.643,0-7.442,6.702-7.442,12.364
	c0,5.162,0.239,8.243,0.239,13.385c0,7.223-6.702,12.384-13.905,12.384c-4.121,0-6.982-1.3-10.823-2.061v-8.243
	c8.743-7.983,20.607-11.604,20.607-23.709c0-7.723-7.203-23.708-7.203-31.452c0-10.804,40.695-65.424,21.108-67.505
	c-14.405,20.368-23.689,65.464-31.932,63.904c1.02-27.831,32.972-75.749,22.147-80.37c-10.823-17.006-22.688,56.161-36.073,44.817
	c0,0,16.486-56.681,4.642-56.681c-9.283-11.324-10.563,31.952-16.485,49.999l-4.662-5.162c-3.081-14.425-0.761-24.229-3.081-36.073
	c0,0-2.062-21.128-8.243-17.527c-8.903,5.222-2.581,44.737-2.581,59.262c0,2.581-3.341-1.28-4.122,1.021
	c-14.425-34.513-24.209-46.897-24.209-46.897c-23.709-7.203,20.608,64.184,20.608,77.309c0,2.061-2.062,8.503-2.581,10.304
	c-14.426-19.327-17.526-38.375-26.79-60.803c-5.662-13.405-15.446-35.553-22.389-23.869c-3.001,5.082,18.267,44.477,16.727,46.538
	c-10.063-5.922-12.645-13.385-19.588-22.668c-6.182-8.243-17.146-20.167-20.607-13.905c-5.162,9.264,4.902,21.888,15.446,32.472
	c5.161,5.142,19.066,14.925,10.304,17.506c-20.608-6.702-28.431-33.072-49.999-30.912c-10.304,1.021,10.063,18.547,19.087,26.79
	c16.747,15.446,56.962,52.82,70.087,62.864c14.425,10.844,37.094,25.77,38.134,38.654c0.5,6.422-9.283,8.243-14.426,11.864
	c-5.682,3.862-9.523,6.442-14.425,11.324c-9.283,9.284-13.405,21.648-26.811,21.648c-9.523,0-15.966-6.203-24.209-10.824
	c-11.344-6.442-14.686-9.023-27.33-12.885c-4.121-14.425,9.784-11.324,18.567-12.365l54.62,3.101l2.061-4.142
	c1.541-8.223-11.084-7.723-18.026-8.743l-57.741-4.142l1.561-4.622c22.147-8.783,54.78-5.362,55.641-7.223
	c3.621-7.723-1.021-9.284-6.183-9.284c-11.064,0-25.229-1.28-36.054,0.521c-9.283,1.561-20.107,9.283-20.107,7.203
	c0-12.605,21.128-20.608,16.506-33.993c-15.985-10.304-38.394,38.895-47.938,49.979c-5.422,6.462-9.264,19.587-18.047,15.466
	c-6.063-2.841,10.264-35.273,14.945-45.857c9.784-22.148,23.729-57.202,14.445-57.722c-6.182-0.34-9.283,12.365-11.344,18.027
	c-4.901,12.645-4.642,28.351-12.364,24.749l8.243-37.094c-0.521-30.932-11.345,12.345-13.405,24.729
	c-0.761-2.321-0.761-13.405,0-17.527c0,0,1.04-41.735-10.824-25.77l2.081,42.256l-3.102,7.223
	C128.203,56.093,115.339,73.1,115.339,73.1c1.28,15.986,12.864,9.784,15.445,36.593v8.223l-4.121,3.101
	c-5.662-23.708-36.594-50.499-40.195-40.195c-2.141,6.083,5.401,10.064,10.304,13.905c9.283,7.243,13.405,12.885,20.607,25.27
	c-1.801,0.5-3.101,2.061-5.142,2.061c0,0-10.964-11.264-18.567-17.526C64.319,80.302,23.604,88.565,36.989,93.707
	c7.742,9.784,43.796-1.02,68.545,30.912l-3.601,2.581c-22.169-17.006-35.054-22.668-62.884-22.668
	c-4.121,0-39.154,8.763-17.507,11.864c23.689,1.521,44.577-1.821,70.087,10.804c-3.361,1.021-2.682,1.901-6.183,1.021
	c-14.426-3.602-44.837-5.642-44.837-5.642c-12.364,0.5-34.013,10.824-20.107,12.344c23.188-4.622,37.114-3.061,60.822-0.5
	l4.122,5.162c-9.283-0.521-15.206,0-24.749,0c-13.646,0-23.189,1.541-34.013,8.223c-7.724,8.263,7.982,3.102,13.385,3.102h27.851
	c10.544,0,20.607,5.162,26.79,13.405c-42.256,2.581-56.161,9.784-38.135,13.905l38.654-4.122
	c13.646,5.682,29.352,15.466,29.352,30.411c0,1.541-1.021,2.581-1.021,4.122c-1.541,0-3.222,2.281-4.122,1.041
	c-4.101-5.682-16.485-19.587-16.485-19.587c-23.189-1.04,3.101,15.706,3.101,20.608c0,3.101-2.081,7.483-3.101,10.304
	c-17.507-39.675-52.561-32.212-59.263-31.432c-12.864,0-37.614,8.243-43.276,20.107c-2.04,4.102,3.542,2.381,22.648-7.743
	c19.128-10.124,31.452-1.541,31.452-1.541c-21.648,1.541-45.597,10.544-54.101,30.911c0.9,4.082,14.525-5.902,28.852-13.385
	c14.345-7.503,33.492-4.122,33.492-4.122c-14.945,4.622-45.877,11.844-49.479,32.952c-2.061,12.225,15.986-10.544,27.33-15.446
	c9.523-4.121,18.547-6.702,26.79-3.601c-12.364,19.047-11.345,29.371-2.061,24.729c0,0,13.905-24.729,26.29-5.682
	c5.041,7.783-14.445,15.986-23.709,15.986c-11.084,0-12.645-4.622-23.709-4.622c-21.389,0-36.594,41.215-30.392,40.195
	c16.746-2.821,14.926-23.209,32.452-23.709c5.563-0.16,19.588-3.421,17.507,7.203c-3.081,15.986-18.547,23.449-18.547,43.296
	c0,6.942,3.101,26.27,12.385,19.587c2.32-9.544,2.04-42.256,21.128-42.776c8.743-0.24,15.966,9.003,18.026,17.507
	c0,0,4.642,26.29-19.047,133.49c-10.244,46.297-6.703,69.046-6.703,69.046c-9.283,7.203-12.385,14.165-17.006,25.77l16.466-2.081
	c0,0,0.54,83.231,7.743,114.923c3.861,17.787,5.622,32.572,11.324,49.999c10.824,32.972,14.945,51.519,42.275,90.174
	c41.216,56.701,120.665,105.639,203.536,105.639c86.893,0,160.9-42.356,188.25-101.458l-259.877,0.46l35.033-70.086H146.25
	c-29.392-35.033-37.374-56.441-46.397-88.633c-3.321-12.104-5.142-95.856-5.142-95.856c1.82,0,10.823,4.122,16.506,13.925
	c4.122-43.816-8.263-29.111-8.263-48.458c0-15.446,2.58-24.729,8.263-40.715c12.305-34.673,52.039-105.119,60.782-106.14
	C173.8,369.21,173.28,374.312,175.101,374.552z M277.659,243.683c-2.081-10.844,8.223-19.587,13.385-29.891
	c5.802-11.604,14.426-15.986,27.311-15.986c8.623,0,12.385,9.924,12.385,18.547c0,10.444-7.363,12.125-17.007,15.966
	c-10.704,4.262-20.868,8.783-31.952,12.385h-4.121V243.683z M263.733,256.028c0.521-4.902-3.081-4.902-5.162-6.703
	c-4.101-3.721-4.741-7.603-6.182-12.885c-1.801-6.703-4.902-13.385-11.845-13.385c-2.181,0-2.061,2.961-2.061,5.162
	c0,7.323,2.961,11.204,3.602,18.527c0.78,8.644,1.681,19.587,10.304,19.587c5.282,0,6.963-4.742,10.844-8.223L263.733,256.028z
	 M113.777,418.889c5.042-7.603,8.384-9.944,13.386-17.546c8.783-13.125,16.506-27.311,26.289-39.655
	c7.724-9.664,48.438-57.981,48.438-68.545c0-3.621-3.181-11.724-14.426-21.648c-17.506-15.466-14.825-8.943-24.729-8.243
	c-14.445,1.041-8.264,32.972-10.824,33.993l2.061,24.249l-3.602,3.602h-4.121c-5.802-5.802-3.602-17.507-11.864-17.507
	c-4.643,0-5.143-0.28-8.243,3.081c-8.884,9.524-11.324,50.479-14.926,81.931L113.777,418.889z M220.458,244.704
	c-4.262-12.885-18.567-16.226-18.567-14.425c0,5.022-16.346,2.041-12.364,5.142c4.001,3.101,18.427,40.455,25.77,46.377
	c2.301-2.061,12.364-14.285,12.364-17.506C227.66,255.528,220.458,244.704,220.458,244.704z"/>
</svg>
