<?xml version="1.0" encoding="UTF-8"?>
<!-- Generator: Adobe Illustrator 15.0.0, SVG Export Plug-In . SVG Version: 6.00 Build 0)  -->
<!DOCTYPE svg PUBLIC "-//W3C//DTD SVG 1.1//EN" "http://www.w3.org/Graphics/SVG/1.1/DTD/svg11.dtd">
<svg version="1.1" id="Layer_1" xmlns="http://www.w3.org/2000/svg" xmlns:xlink="http://www.w3.org/1999/xlink" x="0px" y="0px" width="346.08px" height="359.87px" viewBox="0 0 346.08 359.87" enable-background="new 0 0 346.08 359.87" xml:space="preserve">
<g>
	<g>
		<g>
			<path fill="#FFFFFF" d="M85.516,37c2.74-5.37,7.07-11.08,13.72-11.19c2.19,5.27,2.16,11.09,4.11,16.43c1,2.53,0.21,5.2-0.16,7.76     c5.32-2.9,11.13-4.81,17.13-5.62c0.27,4.71-0.88,9.7-4.01,13.34c-3.67,4.08-9.61,5.06-14.83,4.31c1.57,4.34,3.61,8.8,3.2,13.51     c-0.26,1.97-2.62,3.28-4.23,1.88c-4.43-2.67-7.88-6.67-11.93-9.85c-1.79,4.03-6.36,4.46-9.44,7c-2.93,2.65-7.17,0.99-10.62,0.55     c-2.31-0.32-2.69-3.31-1.89-5.07c2.27-4.41,6.04-7.77,9.49-11.24c-2.02-0.42-4.03-0.14-5.99,0.38     c-3.79-3.58-8.08-7.75-7.08-13.52c2.65-3.55,7.97-3.27,11.91-2.64c3.8,0.57,5.67,4.15,8,6.74     C84.066,45.57,84.046,41.11,85.516,37z M93.156,35.75c-1.4,6.82-1.97,14.01-5.09,20.31c-6.1,0.54-9.02-7.65-15.26-6.45     c3.68,3.93,8.7,6.11,12.9,9.38c-2.32,2.94-5.74,4.78-7.91,7.86c4.42-1.14,8.65-3.02,13.16-3.79c2.45,0.78,4.69,2.07,7.13,2.87     c-0.56-1.55-1.19-3.07-1.84-4.59c4.65-2.53,9.35-5.01,13.81-7.88c1.51-0.78,1.95-2.5,2.59-3.93c-5.64,2.85-10.64,7.12-16.94,8.53     c-1.53,0.55-3.04-0.2-4.51-0.55c0.4-7.71,4.31-14.61,5.49-22.16C95.806,35.45,94.036,35.65,93.156,35.75z"/>
		</g>
		<g>
			<path fill="#FFFFFF" d="M240.016,44.46c-1.5-5.4,1.24-10.64,3.15-15.55c4.92,5.03,8.8,11.04,12.2,17.16     c0.86,6.26,1.16,12.71,3.56,18.64c3.55,7.64,8.33,14.79,14.53,20.53c2.45,2.23,6.09,3.16,7.48,6.44     c-2.85-0.89-5.38-2.48-7.82-4.14c-3.39-2.27-7.2-3.94-10.24-6.72c-3.15-2.74-4.28-6.95-6.84-10.16     C250.406,62.15,242.726,54.58,240.016,44.46z M241.616,39.63c1.77,6.12,5.54,11.36,8.42,16.97c1.81,2.96,2.9,6.68,6.16,8.43     c-0.43-3-1.42-5.9-3.02-8.47c-4.04-6.35-5.25-14.18-10.15-20.04C242.676,37.3,241.966,38.85,241.616,39.63z"/>
		</g>
		<g>
			<path fill="#FFFFFF" d="M277.176,47.02c6.84,7.47,13.59,15.97,15.25,26.26c0.91,4.72,0.67,9.54,0.07,14.27     c0.32,3.12,0.62,6.24,0.31,9.37c-2.58-1.64-5.58-3.14-7.1-5.91c-0.73-3.23-0.32-6.85-2.44-9.62     C276.576,71.47,273.356,58.65,277.176,47.02z M281.826,59.17c0.79,5.03,2.5,9.88,2.93,14.98c0.34,4.91,2.15,9.5,3.58,14.16     c0.64,0.07,1.9,0.23,2.53,0.3c-1.17-7.49-2.81-14.88-4.65-22.23C285.375,63.59,285.696,59.39,281.826,59.17z"/>
		</g>
		<g>
			<path fill="#FFFFFF" d="M228.276,71.3c5.37-1.23,10.74,0.49,15.76,2.3c14.66,4.99,24.97,18.19,40.27,21.82     c7.97,1.29,12,9.14,14.23,16.09c-6.78-4.22-13.28-9.35-21.27-11.08c-9.45-2.08-19.55-1.34-28.52-5.45     c-7.12-3.17-11.64-9.92-16.07-16.01C230.766,76.69,228.436,74.47,228.276,71.3z M235.406,79.34c9.25,5.57,19.48,9.28,29.73,12.54     c-1.12-5.13-6.5-6.72-10.69-8.62c-5.17-2.06-10.16-4.64-15.49-6.27C237.166,76.13,236.456,78.36,235.406,79.34z"/>
		</g>
		<g>
			<path fill="#FFFFFF" d="M32.046,74.5c1.61-1.22,3.38-3.68,5.65-2.6c3.07,2.18,2.18,6.48,3.49,9.62c1.46,3.43-1.37,6.52-2.04,9.78     c4.01-1.1,4.05-6.64,8-7.76c5.38-1.26,10.73-2.86,16.28-3.13c0.05,8.7-8.05,13.9-14.4,18.32c1.05,2.46,2.88,4.41,4.49,6.5     c0.93,2.14,0.34,4.55,0.18,6.78c-4.95,0.27-9.71-1.32-14.59-1.75c-1.8-0.22-3.41,0.74-4.91,1.59c0.48,2.23,3.25,2.8,4.08,4.82     c0.21,3.3-0.22,6.62,0.04,9.93c6.85-0.66,11.9-5.76,16.45-10.41c5.93-6.41,13.18-11.6,18.08-18.93     c3.73-4.77,6.33-10.32,10.23-14.96c-0.6,4.42-2.09,8.66-3.36,12.92c-1.04,3.84-4.44,6.16-6.93,9.01     c-2.43,2.57-4.32,5.66-7.13,7.86c-5.44,3.51-10.49,7.57-15.89,11.14c-3.26,2.01-4.91,6.09-8.77,7.15     c-4.47,1.41-8.83,3.1-13.14,4.91c-4.51,1.21-8.95,3.42-11.88,7.15c-1.95,4.09-0.1,8.89-2.06,13c-3.45,8.39-2.94,17.72-1.03,26.4     c0.96,4.18-2.29,7.53-3.8,11.11c-1.31-0.02-2.62-0.03-3.92-0.03c0.22-5.09,0.79-10.22-0.13-15.28     c-1.84-10.33,1.19-20.72,0.12-31.09c0.14-6.47-2.97-12.65-1.59-19.13c1.79,1.32,3.54,2.7,5.26,4.12     c-0.87,3.29-2.92,6.49-2.04,10.02c2.86-3.25,4.97-7.37,9.08-9.27c5.66-2.32,12.53-2.62,17.23-6.8     c-0.31-3.66-1.17-7.24-1.73-10.86c-2.75,1.16-5.53,3.5-8.68,2.42c-2.62-0.73-6.02-0.98-7.5-3.59c0.23-2.06,1.59-3.78,2.01-5.79     c-1.45-1.8-3.96-2.4-5.29-4.28c-0.43-2.49-1.09-4.95-1.36-7.46c2.68-2.75,7.03-2.58,10.59-2.84c2.3,0.93,3.15,3.68,4.69,5.46     c2.15-2.89-1.18-5.8-0.58-8.86C26.186,84.2,27.526,78.23,32.046,74.5z M32.476,96.63c0.13,1.62,0.08,4.39-2.26,3.99     c-4.18-1.73-8.76-2.65-13.29-2.43c2.48,4.06,7.83,3.89,11.21,6.69c1.49,2.71-2.1,5.04-2.77,7.57c4.45-0.97,7.79-4.25,11.71-6.33     c2.36,0.78,4.65,1.88,7.13,2.18c1.66,0.03,4.13,0.57,4.37-1.75c-2.01-1.57-4.29-2.74-6.43-4.1c3.55-5.29,7.82-10.07,12.48-14.4     c0.88-0.92,2.31-1.91,1.75-3.41c-8.09,2.61-12.95,10.3-19.57,15.18c-0.3-5.09-0.35-10.19-0.68-15.28c0.15-1.69-1.05-2.91-2-4.15     C31.956,85.52,31.986,91.18,32.476,96.63z"/>
		</g>
		<g>
			<path fill="#FFFFFF" d="M306.186,81.98c6.01,7.04,11.01,15.14,13.24,24.2c2.18,6.64-0.21,13.5-0.62,20.21     c-0.78,5.34,0.77,10.61,2.11,15.72c0.73-1.41,1.36-2.88,1.95-4.36c0.59,0.05,1.76,0.14,2.35,0.19c-0.61,4.27-2.5,8.27-2.78,12.6     c-0.36,5.85,0.46,11.98,3.59,17.05c0.81,1.73,2.49,3.47,1.81,5.52c-1.5,1.55-3.29,2.77-4.94,4.14     c-5.64-6.89-12.37-12.91-20.1-17.36c-8.09-5-18.12-3.9-27-5.99c-2.98-4.75-7.99-7.35-12.16-10.85     c-6-6.47-12.95-12.22-20.97-15.99c-2.17-1.21-4.67-0.92-7.02-0.58c1.29,2.46,3.2,4.61,5.78,5.74c6.1,2.85,12.62,5.63,16.96,11.02     c-6.47-0.46-13.46-1.93-18.07-6.88c-3.89-4.21-7.61-8.65-10.6-13.56c8.4,0.98,17.77,0.89,24.67,6.5c3.54,2.49,5.64,6.36,8.38,9.6     c3.22,3.2,7.23,5.42,10.77,8.24c3.09,2.21,5.86,5.04,9.52,6.31c1-0.83,1.27-2.26,0.6-3.39c-2.57-3.5-7.2-4.75-9.67-8.33     c-3.03-4.3-4.84-9.28-7-14.03c-1.59-5.82-0.98-11.97-1.67-17.92c7.2,4.84,12.45,12.03,15.65,20.03c0.71,3.34,0.2,6.95,1.82,10.09     c2.28,4.77,4.4,9.97,8.74,13.28c4.7,3.69,10.76,4.69,16.2,6.85c3.02,1.15,5.73,2.95,8.44,4.68c1.88-8.8-0.67-17.62-2.13-26.27     c-0.56-2.14,0.99-3.96,1.43-5.96c-0.27-3.08-1.64-5.93-2.05-8.99c0.28-1.74,1.27-3.3,1.39-5.07c0.02-9.06-3.08-17.73-3.45-26.74     c-0.82,0.06-2.46,0.18-3.29,0.24c0.42,4.22,1.33,8.43,0.75,12.69c-0.54,3.24,1.43,6.33,0.57,9.55     c-2.65-3.35-5.11-7.18-5.42-11.55C303.456,95.67,304.516,88.7,306.186,81.98z M267.726,117.94c1.49,3.7,4.46,6.65,5.45,10.58     c0.88,3.42,0.86,7,1.4,10.48c1.14,0.27,2.29,0.54,3.44,0.8c-0.86-7.76-2.81-15.46-7.18-22.04     C270.056,117.8,268.506,117.9,267.726,117.94z"/>
		</g>
		<path fill="#FFFFFF" d="M85.586,87.56c2.91,0.9,6.33,2.05,7.08,5.43c1.96,3.38-0.65,6.58-1.9,9.65c1.73-0.54,3.5-1.02,5.18-1.72    c1.88-1.61,2.98-4.19,5.34-5.19c4.83-0.15,9.69,0.23,14.39,1.4c0.23,1.74,0.95,3.51,0.57,5.27c-1.12,2.47-2.76,4.72-4.67,6.63    c-2.44,1.06-5.33,0.8-7.57,2.34c-1.68,0.83-3.38,2.89-5.39,1.78c-1.43-0.66-2.15-2.2-3.15-3.34c4.73-2.93,10.83-5.15,13.24-10.52    c-6.4,2.94-12.16,7.72-19.41,8.48c-1.04-3.28-1.63-6.81-3.7-9.65c-0.93-1.52-2.39-2.8-2.77-4.59    C83.336,91.37,84.546,89.48,85.586,87.56z"/>
		<path fill="#FFFFFF" d="M80.516,100.23c1.17-0.23,2.34-0.45,3.51-0.65c0.67,1.85,1.53,3.68,1.69,5.68c-0.67,1.76-3.54,1.66-4.28,0    C80.226,103.86,80.646,101.91,80.516,100.23z"/>
		<path fill="#FFFFFF" d="M71.956,107.86c1.27-2.35,2.91-5.24,6.1-4.15C79.816,107,74.596,108.91,71.956,107.86z"/>
		<path fill="#FFFFFF" d="M72.306,111.82c3.84-1.5,7.95-2.16,12.07-2.3c-2.88,1.13-6.29,1.51-8.39,4.02    c0.61,1.34,1.4,2.58,2.11,3.86c-1.57,0.01-3.13,0-4.7-0.03C72.986,115.53,72.616,113.68,72.306,111.82z"/>
		<path fill="#FFFFFF" d="M105.056,114.44c1.78-1.41,4.22-2.55,6.41-1.3c3.88,2.54,7.18,6.15,8.97,10.45c0.17,1.6-0.4,4.17-2.5,3.93    c-3.75,0.09-6.97-2.17-10.39-3.4c-2.52-1.08-5.31-1.1-7.99-1.36c-0.89-2.21-0.49-4.53,1.63-5.87c4.33-0.23,6.07,5.34,10.4,5.24    C110.656,118.66,107.436,116.82,105.056,114.44z"/>
		<path fill="#FFFFFF" d="M90.826,116.6c0.88-2.5,3.72-1.74,5.74-1.79c0.5,3.99,0.97,8.17-0.14,12.09    c-1.32,2.09-4.06,0.98-6.06,0.93C91.866,124.2,91.206,120.37,90.826,116.6z"/>
		<path fill="#FFFFFF" d="M85.396,117.95c3.05-1.11,4.89,4.4,1.77,5.58C84.736,122.89,82.776,119.22,85.396,117.95z"/>
		<path fill="#FFFFFF" d="M56.206,131.73c3.52-2.34,6.51-6.44,11.31-5.28c-5.81,7.1-15.44,10.17-24.4,9.55    c-4.04-0.35-8.08-0.09-12.1,0.36c4.08-1.96,8.4-3.91,13.05-3.67C48.096,132.5,52.636,134.35,56.206,131.73z"/>
		<path fill="#FFFFFF" d="M80.426,132.33c3.3,0.26,6.43,2.78,6.18,6.34c-0.29,2.19,1.19,5.7-1.6,6.6c-3.19-1.71-2.78-6.15-5.52-8.37    c0.08,2.14,0.34,4.26,0.51,6.39c-1.65-0.42-3.29-0.88-4.93-1.34C76.616,138.62,78.506,135.46,80.426,132.33z"/>
		<path fill="#FFFFFF" d="M94.346,133.64c2.97-0.77,6.83,2.25,5.05,5.29C96.436,142.63,89.966,136.52,94.346,133.64z"/>
		<path fill="#FFFFFF" d="M89.206,137.04c1.09,1.47,1.67,3.19,2,4.97c-0.56,0.1-1.69,0.29-2.26,0.38    C88.996,140.6,89.056,138.82,89.206,137.04z"/>
		<path fill="#FFFFFF" d="M72.616,143.47c3.44,0.66,6.84,1.76,9.62,3.97c-2.08,0.99-4.31,1.72-6.25,2.99    c-1.83,1.4-2.59,3.69-3.96,5.47c-1.55-0.22-3.05-0.65-4.56-1.04C66.856,150.33,71.006,147.33,72.616,143.47z"/>
		<path fill="#FFFFFF" d="M99.596,145.03c4.91-1.4,9.56,1.93,13.07,5c1.72,1.68,4.09,4.19,2.72,6.76c-1.84,3.23-6.1,2.85-9.28,3.22    c-5.24,0.62-10.3-1.47-14.55-4.36c-0.82-3.46,3.11-3.63,5.5-3.25c3.74,0.65,6.86,2.96,10.39,4.2c-0.57-1.18-0.61-2.8-1.79-3.58    c-4.07-2.8-9.22-2.77-13.78-4.25C93.656,146.25,96.886,145.95,99.596,145.03z"/>
		<path fill="#FFFFFF" d="M34.766,147.26c4.59-1.58,10.98,0.15,11.85,5.55c-1.76,0.06-3.57,0.39-5.31-0.03    C39.346,150.68,37.286,148.69,34.766,147.26z"/>
		<g>
			<path fill="#FFFFFF" d="M215.096,154.65c9.97-7.65,23.51-5.59,35.13-4.11c6.34,1.87,13.31,0.76,19.36,3.69     c-5.19,1.51-10.73,1.1-15.87,2.94c-8.96,1.82-18.7,5.26-27.59,1.38C222.476,157.15,218.625,156.34,215.096,154.65z      M224.326,152.03c-0.04,0.63-0.1,1.88-0.14,2.51c8.56,1.15,17.17,2.63,25.83,2.35c-0.9-1.23-1.67-2.81-3.36-2.96     C239.375,152.07,231.796,151.72,224.326,152.03z"/>
		</g>
		<path fill="#FFFFFF" d="M75.526,154.76c1.7-4.36,9.05-5.25,10.71-0.43c1.91,4.39,5.56,7.53,8.37,11.29    c-2.8,1.69-7.05,1.29-8.7-1.79c-2.38-3.08-2.85-7.03-4.42-10.5c-0.75,1.48-1.48,2.98-2.17,4.5    C77.776,157.32,75.466,156.81,75.526,154.76z"/>
		<path fill="#FFFFFF" d="M331.446,172.08c2.85,2.37,1.87,6.26,0.23,9.06c-1.22,0.66-2.57,1.03-3.87,1.49    C327.826,178.79,329.906,175.46,331.446,172.08z"/>
		<path fill="#FFFFFF" d="M322.726,185.22c2.62,0.02,5.24-0.04,7.86-0.18c-1.32,1.34-2.6,2.84-4.42,3.49    C324.766,187.71,323.766,186.42,322.726,185.22z"/>
		<path fill="#FFFFFF" d="M12.936,191.61c1.1,0.32,2.2,0.65,3.27,1.07c-1.13,1.44-2.43,2.73-3.72,4.03    C12.606,195,12.756,193.3,12.936,191.61z"/>
		<path fill="#FFFFFF" d="M5.016,199.41c-0.07-2.07,1.11-3.6,2.69-4.77c0.75,0.67,1.5,1.35,2.25,2.03    c-0.14,0.58-0.44,1.74-0.58,2.32C7.926,199.15,6.466,199.29,5.016,199.41z"/>
		<path fill="#FFFFFF" d="M200.356,204.85"/>
	</g>
	<g>
		<g>
			<path fill="#221715" d="M179.006,2.48c0.82-1.07,2.01-1.74,3.1-2.48c0.98,2.06,1.74,4.24,2.04,6.52     c1.38,9.18,2.31,18.82,7.05,27.02c0.56,0.68,1.35,2.83,2.47,1.62c7.86-6.16,15.6-14.04,26.18-14.73     c-2.46,6.8-8.83,11.72-9.67,19.19c-1.52,11.24,3.91,21.77,8.04,31.88c3.21,8,7.62,16.63,5.12,25.45     c-4.91,16.32-22.14,26.01-25.13,43.2c6.48,1.19,12.69-1.76,19.03-2.55c-0.41,2.02-0.57,4.34-2.26,5.78     c-6.02,5.46-14.47,6.5-21.41,10.35c-0.53,3.09,0.95,7.22-1.78,9.48c-3.12,1.58-6.81,0.92-10.18,1.13c0,2.31,0.01,4.62,0.04,6.93     c10.65,0.97,19.69,7.14,29.36,10.99c4.35-2.8,8.67-6.51,14.15-6.48c5.55-0.34,9.85,3.76,14.78,5.52     c7.7-1.73,13.9-7.22,21.56-9.08c4.8-1.12,9.87-0.9,14.62,0.4c12.94,3.4,24.62,10.49,34.75,19.08c0.64,0.97,1.09,2.03,1.36,3.2     c-5.89-0.82-10.67-4.77-15.53-7.9c-8.73-6.01-18.42-12.92-29.61-11.61c-16.18,1.97-29.85,11.53-44.12,18.58     c-10.33-5.87-20.49-12.21-31.62-16.5c-3.15-1.27-6.52-1.91-9.91-2.03c0.65,45.22,0,90.46-2.74,135.61     c-3.49,0.01-6.98,0-10.47,0.04c-5.27-44.67-6.1-89.69-7.69-134.6c-13.46,3.3-25.96,9.69-37.85,16.67     c-1.94,0.97-4.16,1.84-6.34,1.11c-12.46-3.02-20.73-14.22-32.82-18.06c-4.83-1.62-10.14-1.54-15.01-0.14     c-9.83,2.72-18.59,8.19-26.82,14.06c-2.83,1.9-5.37,4.64-9.01,4.78c0.46-1.36,0.96-2.8,2.18-3.67     c8.37-7.36,17.67-14.01,28.32-17.57c8.78-3.02,18.71-2.41,27,1.79c4.79,2.02,8.86,5.7,13.79,7.27c4.51-2.66,8.62-6.64,14.15-6.92     c4.81,0.07,7.85,4.43,12.04,6.12c10.08-3.42,19.66-8.28,29.59-12.17c-0.09-1.75-0.14-3.5-0.19-5.25     c-3.1,0.16-6.21,0.65-9.31,0.25c-3.56-1.87-1.44-7.35-4.84-9.5c-6.27-4.8-14.26-6.67-20.55-11.43c-1.16-0.84-1.89-2.1-2.55-3.34     c4.74-2.17,10.15,0.22,15.13,0.42c-6.63-7.99-13.31-16.5-16.05-26.69c-1.77-7.05-0.65-14.58,2.4-21.11     c4.33-9.58,9.67-18.96,11.11-29.54c1.58-8.69,0.4-18.04-4.03-25.74c-3.06-5.13-9.72-8.2-10.34-14.59     c4.71,0.83,8.37,4.05,11.99,6.92c4.48,3.84,9.02,7.68,12.73,12.29c2.84,3.9,5.03,8.22,7.82,12.17c2.01-2.91,3.02-6.5,2.02-9.98     c-2.2-8.54-8.52-15.1-12.35-22.86c-0.87-1.81-1.68-4.84,0.79-5.78c4.89-1.54,10.09-0.05,14.84,1.33     c3.66,0.91,6.52,3.46,9.73,5.29C170.326,15.22,174.506,8.68,179.006,2.48z M170.826,25.51c1.33,4.32,4.87,7.53,6.55,11.73     c8.37,19.53,8.58,43.07-1.62,61.98c-1.13,0.04-2.26,0.08-3.39,0.11c2.68-11.19,7.92-21.96,7.47-33.73     c0.9-13.22-2.64-27.12-11.74-37.04c-5.1-5.69-12.36-10.37-20.35-9.23c1.99,5.55,6.4,9.86,8.03,15.58     c2.76,6.33,1.65,13.31,2.6,19.97c0.62,5.28-2.68,9.83-4.32,14.62c-3.37,10-3.17,20.69-4.3,31.06c-0.51,6.1,1.68,11.92,3.43,17.65     c-0.73-0.01-2.19-0.01-2.92-0.02c-1.28-4.13-2.49-8.31-2.96-12.62c-0.78-5.52,0.18-11.07,0.43-16.59     c0.9-6.33,1.35-12.74,2.9-18.97c1.19-4.67,1.45-9.78-0.55-14.28c-2.92-7.5-9.55-12.49-14.22-18.82c-0.66,0-1.97,0-2.63,0     c1.85,4.74,4.34,9.43,4.36,14.65c0.08,6.32,0.71,12.72-0.26,19c-2.3,9.26-6.98,17.69-10.81,26.37     c-2.56,5.76-2.28,12.36-1.08,18.42c1.37,6.6,6.19,11.56,9.97,16.88c2.13,2.91,3.56,6.36,6.16,8.91     c3.68,1.33,7.71,0.69,11.54,0.87c13.16-0.21,26.39,0.66,39.5-0.78c4.75-13.02,13.59-24.13,22.89-34.22     c5.17-5.98,5.93-14.48,4.98-22.01c-1.42-5.69-4.69-10.67-6.85-16.08c-3.48-8.68-6.8-17.9-5.8-27.41     c0.34-4.79,2.17-9.26,3.18-13.91c-5.43,2.52-10.07,6.43-14.48,10.42c-2.37,1.72-0.65,4.68,0.1,6.8     c5.27,11.66,8.45,24.76,6.11,37.54c-1.15,5.49-2.97,10.82-4.88,16.08c-0.55,1.9-1.93,3.32-3.39,4.56     c-0.25-5.47,1.69-10.65,3.38-15.76c3.8-11.81,3.41-24.78-0.81-36.43c-3.67-9.23-10.8-16.67-14-26.12     c-2.01-5.63-1.62-11.69-2.56-17.52C176.106,12.5,171.966,18.61,170.826,25.51z M213.056,183.79c3.26,2.55,6.69,5.83,11.01,6.05     c4.55-1.41,8.51-4.24,12.39-6.93c-3.94-3.22-9.08-5.78-14.28-4.58C218.556,178.97,215.686,181.39,213.056,183.79z      M105.916,184.71c3.46,2.37,6.95,5.25,11.21,5.88c3.91-0.5,6.94-3.4,10.13-5.48c-2.31-2.89-5.34-5.47-9.15-5.88     C113.336,178.65,109.306,181.8,105.916,184.71z"/>
		</g>
		<g>
			<path fill="#221715" d="M257.116,197.31c17.98-0.19,35.98,0.4,53.95-0.33c-1.08,5.15-2.3,10.27-3.52,15.39     c-32.89-4.05-65.78-8.18-98.67-12.22c-4.12,0.01-8.24,0.42-12.28-0.73c0.62,0.32,1.86,0.95,2.48,1.27     c32.69,12.87,65.48,25.5,98.1,38.53c-1.75,2.65-3.43,5.33-5.12,8.01c-24.28-11.95-48.62-23.78-72.89-35.74     c-5.9-2.61-11.41-6.06-17.5-8.18c27.68,18.38,55.99,35.87,83.83,54.04c-2.83,3.14-5.52,6.39-8.36,9.51     c-24.37-19.72-48.68-39.51-73-59.29c-0.74-0.48-2.23-1.42-2.98-1.89c8.58,9.97,18.65,18.6,27.54,28.32     c13.56,13.53,27.05,27.14,40.52,40.76c-2.43,1.91-4.84,3.84-7.28,5.72c-19.35-22.91-38.61-45.89-57.92-68.84     c-3.09-3.53-5.83-7.39-9.28-10.59c0.94,1.93,2.18,3.71,3.42,5.47c18.39,26.67,36.68,53.41,55.06,80.09     c-4.37,2.46-8.7,4.99-13.08,7.44c-14.32-28.55-28.58-57.15-43.08-85.62c1.41,5.41,3.55,10.59,5.38,15.86     c8.83,25.07,17.78,50.11,26.57,75.19c-3.26,1.06-6.51,2.11-9.77,3.16c-8.13-32.29-16.37-64.55-24.43-96.85     c-0.44-1.72-0.97-3.42-1.69-5.03c-0.09,4.22,0.86,8.36,1.43,12.51c4.5,30.78,9.07,61.55,13.54,92.34     c-5.34,0.94-10.64,2.08-15.97,3.01c0.05-36.94-0.13-73.89,0.11-110.81C213.846,197.14,235.496,197.95,257.116,197.31z      M200.356,204.85"/>
		</g>
		<path fill="#221715" d="M35.486,197.56c22.21,0.07,44.42,0.42,66.63,0.26c17.55,0.26,35.12,0.43,52.67,0.08    c-0.43,37.06-0.01,74.13-0.21,111.19c-5.35-1.06-10.72-2.02-16.07-3.1c4.59-31.47,9.22-62.93,13.84-94.39    c0.45-3.09,1.15-6.2,0.94-9.34c-1.1,2.06-1.43,4.4-2.18,6.59c-0.45,1.18-1.26-0.52-1.66-0.89c-1.36,4.58-4.04,8.6-6.11,12.87    c-12.24,24.59-24.56,49.13-36.94,73.64c-4.37-2.45-8.73-4.9-13.04-7.46c19.4-28.21,38.9-56.36,58.14-84.68    c-1.94,1.49-4.03,2.73-6.23,3.79c-2.46,1.29-4.43,3.28-6.6,4.99c-23.13,18.68-46.1,37.56-69.27,56.19    c-2.76-3.21-5.55-6.39-8.37-9.55c26.08-16.69,52.12-33.43,78.22-50.08c2.09-1.34,4.24-2.6,6.17-4.18    c-3.94,1.29-7.53,3.37-11.24,5.17c-26.63,12.89-53.09,26.11-79.75,38.94c-1.66-2.69-3.33-5.37-4.99-8.05    c33.75-13.3,67.58-26.38,101.29-39.77c-3.39,0.55-6.8,0.52-10.22,0.42c-33.81,4.23-67.64,8.37-101.45,12.63    C37.846,207.74,36.666,202.65,35.486,197.56z"/>
		<path fill="#221715" d="M140.326,200.8c1.24-0.88,1.95-0.65,2.14,0.68C141.146,202.37,140.436,202.15,140.326,200.8z"/>
		<path fill="#221715" d="M203.896,200.57c2.13-0.11,4.28,0.07,6.37,0.52c31.81,6.49,63.69,12.63,95.5,19.11    c-0.99,2.6-1.98,5.2-2.95,7.81c-30.43-8.16-60.78-16.61-91.2-24.82C208.996,202.46,206.306,201.88,203.896,200.57z"/>
		<path fill="#221715" d="M134.516,201.86c1.41-0.2,2.93-0.79,4.32-0.12c-0.06,0.22-0.17,0.66-0.22,0.88    c-31.59,8.53-63.12,17.28-94.72,25.8c-1.07-2.57-2.12-5.16-3.08-7.78C72.016,214.22,103.316,208.29,134.516,201.86z"/>
		<path fill="#221715" d="M145.266,206.12c0.64-0.14,1.92-0.44,2.55-0.58c-20.72,25.37-42.18,50.16-63.09,75.38    c-2.47-1.87-4.88-3.8-7.31-5.71c14.77-15.01,29.59-29.97,44.5-44.84C129.375,221.98,138.186,214.82,145.266,206.12z"/>
		<path fill="#221715" d="M328.686,207.2c5.7-1.01,12.43-1.05,17.19,2.66c0.6,3.38-0.28,6.8-0.6,10.16c-1.41-0.8-2.81-1.64-4.2-2.47    c0.29-2.73,0.58-5.45,0.7-8.18c-3.91-0.31-7.99-0.34-11.67,1.19c-2.12,0.75-3.08,3.67-1.48,5.38c4.6,5.24,13.45,3.17,17.35,9.31    c-5.86-0.57-11.72-5.1-17.59-2.45c-1.08,0.43-2.12,0.97-3.16,1.49c-1.31-0.96-2.62-1.92-3.91-2.89c2.38-1.28,4.96-2.12,7.63-2.54    c-2.66-1.55-5.72-3.3-6.65-6.44C322.646,209.37,325.896,207.56,328.686,207.2z"/>
		<path fill="#221715" d="M148.996,210.94c0.25-0.06,0.74-0.19,0.99-0.25c0.76,1.74-0.32,3.52-0.61,5.25    c-6.67,26.29-13.31,52.58-19.95,78.88c-0.69,2.7-1.18,5.47-2.26,8.05c-3.27-0.77-6.42-1.96-9.61-2.97    C128.026,270.24,138.586,240.62,148.996,210.94z"/>
		<path fill="#221715" d="M28.176,224.2c1.53,0.46,3.06,0.93,4.59,1.41c-1.77,3.18-2.61,7.89-6.66,8.92    c-6.33,1.33-12.74,2.25-19.09,3.46c-1.98,0.49-3.63-1.07-5.3-1.85c6.36-1.45,12.85-2.24,19.23-3.59    C25.186,232.04,26.256,227.28,28.176,224.2z"/>
		<path fill="#221715" d="M319.026,233.48c2.42-1.8,4.54-5.12,7.95-4.62c4.64,0.77,9.26,1.73,13.81,2.93    c1.4,0.95,2.27,2.47,3.36,3.74c-4.8-0.77-9.48-2.08-14.27-2.85c-3.09-0.89-5.04,2.17-7.27,3.7    C321.396,235.43,320.206,234.45,319.026,233.48z"/>
		<path fill="#221715" d="M31.446,238.14c1.53,0.29,3.06,0.59,4.6,0.9c-1.42,3.1-1.78,8.13-5.98,8.59    c-3.69-0.04-8.03,0.06-10.71-2.94c2.89-0.17,5.78,0.29,8.66-0.01C30.196,243.33,30.386,240.3,31.446,238.14z"/>
		<path fill="#221715" d="M317.006,240.46c4.97-0.04,10.09,1.01,14.1,4.11c5.87,4,8.27,11.35,8.37,18.18    c-1.68-1.19-3.41-2.33-4.92-3.73c-0.69-1.72-0.81-3.59-1.18-5.38c-5.71-0.63-11.46-0.42-17.17,0.07    c-1.21-0.96-1.88-2.41-2.77-3.62c6.63,0.13,13.23,0.92,19.87,0.96c-1.84-5.96-8.88-6.2-14.04-6.63    C318.506,243.1,317.746,241.78,317.006,240.46z"/>
		<path fill="#221715" d="M36.456,251.71c1.65-0.04,3.24,0.52,4.84,0.85c-5.08,4.08-10.59,7.62-15.46,11.95    c5.48,2.85,10.9-1.07,15.22-4.2c1.5,0.58,3,1.17,4.48,1.8c-4.64,3.67-10.45,6.19-16.47,5.6c-6.28-0.34-11.84-3.86-16.3-8.08    c2.09-0.17,4.19-0.44,6.29-0.29c1.82,0.64,3.25,2.02,4.86,3.05C28.566,259.4,32.506,255.53,36.456,251.71z"/>
		<path fill="#221715" d="M310.096,257.52c4.55,0.22,8.57,2.72,10.71,6.76c2.04-0.08,4.11-0.37,6.16-0.04    c1.83,0.76,2.75,2.7,3.97,4.16c-2.02,3.78-4.12,7.51-6.19,11.26c-0.96-1.37-1.91-2.75-2.85-4.12c1.53-2.77,3.06-5.54,4.46-8.38    c-6.22,0.51-11.9,3.87-18.21,3.67c-1.19-1.26-2.01-2.8-2.96-4.23c4.6,0.05,9.42,0.48,13.69-1.64c-1.96-1.44-4.21-2.36-6.59-2.81    C311.536,260.61,310.796,259.07,310.096,257.52z"/>
		<path fill="#221715" d="M44.426,268.29c1.58,0.02,3.15,0.03,4.73,0.06c-0.8,3.19,0.17,8.3-3.78,9.56    c-3.52,0.68-7.94,2.09-10.89-0.69c2.92-0.91,6.26-0.65,8.9-2.34C44.116,272.77,44.106,270.48,44.426,268.29z"/>
		<path fill="#221715" d="M295.636,284.44c3.03-3.29,4.97-9.7,10.38-9.06c4.18,1.6,7.65,4.61,11.49,6.88    c2.25,1.01,2.44,3.6,2.99,5.69c-4.78-2.41-8.83-6.01-13.58-8.42c-1.31-0.92-2.54,0.65-3.26,1.57c-2.46,3.2-4.84,6.46-7.31,9.64    c-1.11-2.17-2.18-4.35-3.28-6.52C293.916,284.29,294.776,284.37,295.636,284.44z"/>
		<path fill="#221715" d="M49.526,280.9c2.03-0.26,4.06-0.48,6.1-0.67c1.17,4.62,6.3,6.51,7.32,11.17    c-2.18,0.25-4.38,0.32-6.57,0.44c-3.99,1.99-7.2,5.3-11.23,7.23c-0.98-0.11-2.93-0.33-3.9-0.45c4.59-3.62,9.57-6.71,14.36-10.07    C53.546,286.03,51.476,283.5,49.526,280.9z"/>
		<path fill="#221715" d="M300.646,287c3.4,1.84,6.64,3.97,9.78,6.24c1.55,1.08,1.64,3.17,2.35,4.78    C308.226,295.05,302.046,292.91,300.646,287z"/>
		<path fill="#221715" d="M64.596,295.08c1.52-0.39,3.04-0.77,4.56-1.17c0.2,2.62,1.31,5.47,0.31,7.97    c-2.85,3.16-6.33,5.68-9.46,8.55c-1.71,1.87-4.39,1.44-6.65,1.69c3.67-3.87,7.97-7.06,11.85-10.7    C65.056,299.3,64.836,297.18,64.596,295.08z"/>
		<path fill="#221715" d="M73.926,303.85c1.54-0.49,3.09-0.98,4.64-1.45c-0.26,2.4-0.83,4.76-1.59,7.05    c3.08-0.81,6.87-2.81,9.8-0.62c2.89,4.13-0.29,9.14-2.77,12.64c-2.49,2.83-5.59,6.35-9.7,6.09c-2.97-1.61-5.41-4.01-8.11-6    c1.63-0.6,3.27-1.17,4.91-1.73c2.23,1.72,4.46,3.46,6.79,5.05c2.43-2.99,5.1-6.22,5.47-10.2c0.09-2.56-2.9-4.27-5.16-3.42    c-6.36,1.56-10.22,8.5-17.24,8.29c3.19-2.92,6.91-5.18,10.17-8.02C73.426,309.7,73.416,306.49,73.926,303.85z"/>
		<path fill="#221715" d="M275.756,301.65c4.98,1.16,6.69,6.48,7.79,10.85c2.7,0.5,5.41,0.98,8.11,1.51    c0.54,1.46,1.07,2.92,1.6,4.39c-6.75-0.91-13.44-2.27-20.22-2.83c0.87,2.66,2.35,5.05,4.27,7.09c1.15-0.27,2.3-0.54,3.46-0.8    c0.38,1.28,0.76,2.57,1.14,3.86c-1.39,1.07-2.78,2.15-4.16,3.24c-2.6-4.44-6.9-8.07-7.25-13.54c-2.05-0.1-4.1-0.14-6.15-0.2    c-0.2-1.38-0.39-2.75-0.57-4.12c5.83,0.34,11.65,1,17.5,1.13c-1.37-2.63-3.63-4.52-5.7-6.56    C275.616,304.67,275.706,302.66,275.756,301.65z"/>
		<path fill="#221715" d="M109.516,319c1.29-0.47,2.6-0.85,3.95-1.12c-0.86,2.45-2.03,4.77-3.19,7.09c2.93,1.6,6.18,2.6,8.97,4.47    c0.54,1.12,0.78,2.44,0.49,3.67c-3.66,7.72-12.73,12.58-21.19,10.58c1.92-1.64,3.71-4,6.56-3.43c4.61,0.27,10.25-2.52,10.51-7.65    c-2.67-1.99-5.95-2.89-8.92-4.32C107.416,325.14,108.146,321.94,109.516,319z"/>
		<path fill="#221715" d="M252.086,318.37c3.47,0.29,6.95,0.6,10.42,0.82c0.09,1.27,0.18,2.54,0.3,3.81    c-1.57,0.06-3.13,0.14-4.68,0.25c1.64,3.53,5.44,4.82,8.43,6.9c1.97,1.08,1.97,3.65,2.77,5.52c-5.17-3.46-12.59-5.98-13.48-13.07    c-1.24-0.12-2.48-0.24-3.72-0.35C252.116,320.95,252.096,319.66,252.086,318.37z"/>
		<path fill="#221715" d="M240.366,324.3c3.21,0.7,7.8-0.04,9.46,3.54c1.97,3.66,4.04,7.28,5.75,11.06    c0.02,1.65-0.53,3.24-0.83,4.85c-2.59-3.84-4.42-8.11-6.75-12.09c-1.34-2.91-5.03-2.32-7.63-2.95    C240.366,327.23,240.366,325.76,240.366,324.3z"/>
		<path fill="#221715" d="M123.396,335.15c1.67-1.4,3.36-2.77,5-4.19c2.28,3.61,9.03,1.72,9.67,6.64    c-0.54,4.28-2.43,8.29-3.85,12.34c0.76,0.56,1.52,1.12,2.29,1.69c-1.18,0.93-2.35,1.85-3.52,2.79c-4.85-1.33-9.67-2.76-14.46-4.26    c1.16-1.11,2.37-2.17,3.58-3.22c2.96,0.77,5.89,1.64,8.83,2.5c1.25-3.61,2.53-7.21,3.46-10.91    C130.756,337.32,127.056,336.3,123.396,335.15z"/>
		<path fill="#221715" d="M223.236,331.15c2.64,0.66,5.26-0.12,7.88-0.47c2.88-0.25,5.05,2.2,6.13,4.6c2,4.48,5.77,8.88,3.69,14.06    c-2.89-4.23-4.41-9.24-7.36-13.43c-3.86-2.39-8.23,1.44-12.21,2.06C221.996,335.69,222.676,333.43,223.236,331.15z"/>
		<path fill="#221715" d="M208.166,334.69c2.97,1.43,7.29,1.76,8.78,5.09c0.28,3.86-0.45,8.16-3.34,10.97    c-0.49-2.95,0.19-5.9,0.25-8.86c-2.23-1.16-4.66-1.91-6.8-3.22C207.366,337.32,207.776,336,208.166,334.69z"/>
		<path fill="#221715" d="M144.886,341.57c-0.45-2.66,2.07-4.12,3.58-5.84c3.1,3.82,9.5,1.01,12.19,5.37    c2.39,4.64,0.26,9.85-0.36,14.66c-0.01,2.03-2.11,2.87-3.38,4.11c0.45-5.41,2.7-11.36,0.35-16.52c-2.65-1.37-5.77-1.27-8.65-1.76    c-0.92,4.73-1.16,9.75-3.31,14.14c-0.66,0.48-1.97,1.43-2.63,1.9C143.676,352.32,144.886,347.01,144.886,341.57z"/>
		<path fill="#221715" d="M186.396,337.81c3.91,2.45,8.48,0.26,12.72,0.59c1.84,0.19,3.1,1.82,3.32,3.57    c0.77,4.2,1.35,8.43,1.96,12.66c0.53,1.78-0.85,3.16-1.71,4.55c-1.3-5.4-2.01-10.93-3.44-16.3c-2.79-0.15-5.58,0.08-8.35,0.29    c0.94,5.01,3.12,10.28,1.1,15.32c-2.16,1.14-4.8,0.76-7.16,1.16c0.66-1.48,1.34-2.93,2.01-4.39c1.31-0.17,2.63-0.34,3.95-0.5    c-0.96-3.71-2.28-7.3-3.38-10.95c-1.52-0.01-3.04,0-4.56-0.01C184.046,341.81,185.276,339.84,186.396,337.81z"/>
	</g>
	<g>
		<path fill="#FC0101" d="M170.826,25.51c1.14-6.9,5.28-13.01,9.66-18.34c0.94,5.83,0.55,11.89,2.56,17.52    c3.2,9.45,10.33,16.89,14,26.12c4.22,11.65,4.61,24.62,0.81,36.43c-1.69,5.11-3.63,10.29-3.38,15.76    c1.46-1.24,2.84-2.66,3.39-4.56c1.91-5.26,3.73-10.59,4.88-16.08c2.34-12.78-0.84-25.88-6.11-37.54c-0.75-2.12-2.47-5.08-0.1-6.8    c4.41-3.99,9.05-7.9,14.48-10.42c-1.01,4.65-2.84,9.12-3.18,13.91c-1,9.51,2.32,18.73,5.8,27.41c2.16,5.41,5.43,10.39,6.85,16.08    c0.95,7.53,0.19,16.03-4.98,22.01c-9.3,10.09-18.14,21.2-22.89,34.22c-13.11,1.44-26.34,0.57-39.5,0.78    c-3.83-0.18-7.86,0.46-11.54-0.87c-2.6-2.55-4.03-6-6.16-8.91c-3.78-5.32-8.6-10.28-9.97-16.88c-1.2-6.06-1.48-12.66,1.08-18.42    c3.83-8.68,8.51-17.11,10.81-26.37c0.97-6.28,0.34-12.68,0.26-19c-0.02-5.22-2.51-9.91-4.36-14.65c0.66,0,1.97,0,2.63,0    c4.67,6.33,11.3,11.32,14.22,18.82c2,4.5,1.74,9.61,0.55,14.28c-1.55,6.23-2,12.64-2.9,18.97c-0.25,5.52-1.21,11.07-0.43,16.59    c0.47,4.31,1.68,8.49,2.96,12.62c0.73,0.01,2.19,0.01,2.92,0.02c-1.75-5.73-3.94-11.55-3.43-17.65    c1.13-10.37,0.93-21.06,4.3-31.06c1.64-4.79,4.94-9.34,4.32-14.62c-0.95-6.66,0.16-13.64-2.6-19.97    c-1.63-5.72-6.04-10.03-8.03-15.58c7.99-1.14,15.25,3.54,20.35,9.23c9.1,9.92,12.64,23.82,11.74,37.04    c0.45,11.77-4.79,22.54-7.47,33.73c1.13-0.03,2.26-0.07,3.39-0.11c10.2-18.91,9.99-42.45,1.62-61.98    C175.696,33.04,172.156,29.83,170.826,25.51z"/>
	</g>
	<g>
		<g>
			<path fill="#32903A" d="M237.386,19.41c1.37,0.43,3.35,0.24,3.72,2.02c1.13,3.01,3.61,5.08,5.63,7.47     c4.48,6.82,11.42,12.93,11.64,21.68c-0.02,10.96,5.49,21.07,12.68,29.02c3.09,3.34,6.61,6.56,11.14,7.72     c-1.29-5.8-5.05-10.63-6.46-16.38c-1.44-5.66-2.5-11.54-1.86-17.39c0.74-4.15,1.6-8.29,2.82-12.34     c2.54,3.72,4.51,7.83,7.63,11.14c8.95,9.63,11.64,23.42,11.03,36.19c0.02,4.39-1.05,9.3,1.57,13.2c2.32,3.53,3.68,7.57,3.93,11.8     c1.46,0.68,2.93,1.34,4.43,1.96c-0.64-4.51-3.34-8.36-4.21-12.8c-2.52-10.04,2.76-19.67,3.73-29.55     c5.49,6.29,10.27,13.31,13.65,20.96c2.66,5.92,3.07,12.46,4.66,18.68c1.78,7.58-2.3,15.2-0.35,22.75c5-0.89,6.58-7.12,11.32-8.13     c0.36,1.16,0.97,2.44,0.31,3.62c-1.62,3.44-4.67,5.94-6.43,9.3c-3.18,9.42-3.59,20.21,1.43,29.1c3.39-0.41,6.53-1.85,9.91-2.33     c-1.19,3.55-3.55,6.65-4.08,10.43c-0.96,4.13-1.59,9.11-5.53,11.58c-2.2,1.66-5.77,1.78-7.55-0.58     c-2.36-2.77,1.35-6.91-1.43-9.51c-4.65-5.4-9.77-10.66-16.3-13.75c-7.01-3.46-14.18-7.61-22.23-7.6c-7.58,0-15.11,0.92-22.66,1.5     c-8.59,0.64-16.69,4.82-25.42,4.02c-5.81-0.61-11.41-2.53-16.76-4.81c-3.48-1.52-7.37-1.67-10.85-3.18     c6.53-3.92,13.54-7.07,20.82-9.3c13.53-1.84,26.49,4.39,39.92,4.44c-6.08-6.18-15.56-4.39-22.87-7.99     c-4.47-2.19-8.81-5.14-11.67-9.29c-2.15-3.79-4-7.83-7.08-10.98c-2.32-2.34-4.41-4.9-5.82-7.89c4.22-1.52,5.15,4,8.37,5.36     c8.69,2.88,18.4,1.97,26.68,6.23c5.28,2.92,8.62,8.2,13.38,11.79c-1.23-3.12-3.09-5.97-4.05-9.2     c-1.45-5.48-1.63-11.18-1.75-16.81c-0.53-2.88-2.46-5.3-3.37-8.08c13.72,5.4,21.75,18.63,27.9,31.27     c2.26,5.07,0.33,11.95,5.13,15.8c6.2,4.94,14.44,5.72,21.32,9.41c0.71-7.94-2.09-15.63-3.06-23.43     c-1.4-6.04-3.54-12.01-7.07-17.15c-2.66-3.76-6.95-5.71-10.44-8.55c-6.54-5.14-14.41-8.62-22.72-9.44     c-9.21-0.93-18.83-2.02-26.83-7.08c-7.64-5.7-11.48-14.91-18.63-21.08c1.44-1.9,2.78-4.5,5.49-4.62     c4.22-0.43,8.46,0.45,12.55,1.44c4.43,1.05,8.03,4.23,12.6,4.84c-5.75-8.75-12.64-16.86-16.92-26.49     c-3.15-7.17,0.39-14.98-0.94-22.39C236.956,23.83,237.016,21.6,237.386,19.41z M240.016,44.46c2.71,10.12,10.39,17.69,16.02,26.2     c2.56,3.21,3.69,7.42,6.84,10.16c3.04,2.78,6.85,4.45,10.24,6.72c2.44,1.66,4.97,3.25,7.82,4.14c-1.39-3.28-5.03-4.21-7.48-6.44     c-6.2-5.74-10.98-12.89-14.53-20.53c-2.4-5.93-2.7-12.38-3.56-18.64c-3.4-6.12-7.28-12.13-12.2-17.16     C241.256,33.82,238.516,39.06,240.016,44.46z M277.176,47.02c-3.82,11.63-0.6,24.45,6.09,34.37c2.12,2.77,1.71,6.39,2.44,9.62     c1.52,2.77,4.52,4.27,7.1,5.91c0.31-3.13,0.01-6.25-0.31-9.37c0.6-4.73,0.84-9.55-0.07-14.27     C290.766,62.99,284.016,54.49,277.176,47.02z M228.276,71.3c0.16,3.17,2.49,5.39,4.4,7.67c4.43,6.09,8.95,12.84,16.07,16.01     c8.97,4.11,19.07,3.37,28.52,5.45c7.99,1.73,14.49,6.86,21.27,11.08c-2.23-6.95-6.26-14.8-14.23-16.09     c-15.3-3.63-25.61-16.83-40.27-21.82C239.016,71.79,233.646,70.07,228.276,71.3z M306.186,81.98     c-1.67,6.72-2.73,13.69-2.22,20.63c0.31,4.37,2.77,8.2,5.42,11.55c0.86-3.22-1.11-6.31-0.57-9.55c0.58-4.26-0.33-8.47-0.75-12.69     c0.83-0.06,2.47-0.18,3.29-0.24c0.37,9.01,3.47,17.68,3.45,26.74c-0.12,1.77-1.11,3.33-1.39,5.07c0.41,3.06,1.78,5.91,2.05,8.99     c-0.44,2-1.99,3.82-1.43,5.96c1.46,8.65,4.01,17.47,2.13,26.27c-2.71-1.73-5.42-3.53-8.44-4.68c-5.44-2.16-11.5-3.16-16.2-6.85     c-4.34-3.31-6.46-8.51-8.74-13.28c-1.62-3.14-1.11-6.75-1.82-10.09c-3.2-8-8.45-15.19-15.65-20.03     c0.69,5.95,0.08,12.1,1.67,17.92c2.16,4.75,3.97,9.73,7,14.03c2.47,3.58,7.1,4.83,9.67,8.33c0.67,1.13,0.4,2.56-0.6,3.39     c-3.66-1.27-6.43-4.1-9.52-6.31c-3.54-2.82-7.55-5.04-10.77-8.24c-2.74-3.24-4.84-7.11-8.38-9.6c-6.9-5.61-16.27-5.52-24.67-6.5     c2.99,4.91,6.71,9.35,10.6,13.56c4.61,4.95,11.6,6.42,18.07,6.88c-4.34-5.39-10.86-8.17-16.96-11.02     c-2.58-1.13-4.49-3.28-5.78-5.74c2.35-0.34,4.85-0.63,7.02,0.58c8.02,3.77,14.97,9.52,20.97,15.99c4.17,3.5,9.18,6.1,12.16,10.85     c8.88,2.09,18.91,0.99,27,5.99c7.73,4.45,14.46,10.47,20.1,17.36c1.65-1.37,3.44-2.59,4.94-4.14c0.68-2.05-1-3.79-1.81-5.52     c-3.13-5.07-3.95-11.2-3.59-17.05c0.28-4.33,2.17-8.33,2.78-12.6c-0.59-0.05-1.76-0.14-2.35-0.19c-0.59,1.48-1.22,2.95-1.95,4.36     c-1.34-5.11-2.89-10.38-2.11-15.72c0.41-6.71,2.8-13.57,0.62-20.21C317.196,97.12,312.196,89.02,306.186,81.98z M215.096,154.65     c3.53,1.69,7.38,2.5,11.03,3.9c8.89,3.88,18.63,0.44,27.59-1.38c5.14-1.84,10.68-1.43,15.87-2.94     c-6.05-2.93-13.02-1.82-19.36-3.69C238.606,149.06,225.066,147,215.096,154.65z M331.446,172.08c-1.54,3.38-3.62,6.71-3.64,10.55     c1.3-0.46,2.65-0.83,3.87-1.49C333.316,178.34,334.296,174.45,331.446,172.08z M322.726,185.22c1.04,1.2,2.04,2.49,3.44,3.31     c1.82-0.65,3.1-2.15,4.42-3.49C327.966,185.18,325.346,185.24,322.726,185.22z"/>
		</g>
		<g>
			<path fill="#32903A" d="M89.816,27.26c3.38-2.09,7.12-4.23,11.21-4.18c1.39,0.67,1.09,2.54,1.58,3.78     c1.01,5.99,3.9,11.53,4.22,17.67c4.81-1.3,9.86-5.01,14.93-2.8c4.34,6.64,1.08,16.14-5.61,19.9c-3.19,2.4-7.65,1.71-10.86,3.8     c0.25,3.11,1.42,6.05,1.82,9.14c0.33,2.68-1.02,5.15-1.96,7.56c-4.67-2.31-9.51-4.63-13.08-8.55c-0.81-1.19-2.22-1.05-3.44-0.71     c-2.36,3.15-3.79,6.96-3.92,10.91c5.5,0.88,9.37,5.74,11.56,10.54c6.89-4.34,15.37-1.45,22.63,0.34     c-0.29,3.35,0.41,7.12-1.63,10.04c-1.29,2.05-2.73,4.01-4.13,5.98c3.09,3.84,9.39,6.08,9.09,11.81c0.12,3.57-0.2,7.13-0.63,10.67     c-3.94-0.89-7.11-3.83-11.18-4.23c-3.41-0.34-6.54-1.8-9.65-3.13c-0.66,1.1-1.31,2.22-1.93,3.35c1.46,1.1,3.05,2.05,4.33,3.38     c0.77,3.07,0.16,6.24,0.16,9.35c8.46,0.93,15.95,7.76,17.8,16c-4.05,2.08-7.62,5.42-12.25,6.14c-3.76,0.35-7.51-0.29-11.26-0.38     c-0.71,2.6-1.44,5.2-2.46,7.7c-2.87-1.05-5.83-1.87-8.89-2.11c-1.63-2.66-2.96-5.52-4.9-7.97c-2.88-1.01-5.8-1.9-8.58-3.16     c-3.15-0.36-6.32,0.42-9.48,0.4c0.45-2.48,0.76-4.99,1.46-7.41c1.43-2.77,3.51-5.14,5.09-7.82c-4.57-2.06-9.36-3.65-13.69-6.2     c-5,2.79-10.85,2.92-16.37,2.06c-6.11-0.96-12,1.36-17.59,3.49c-1.89,0.62-2.54,2.71-3.62,4.17c5.47,1.14,11.77,1.24,16.5-2.17     c3.5-2.19,7.63,0.23,10.5,2.42c4.11,2.6,6.66,6.83,9.25,10.81c-4.97,0.07-10.04,0-14.87-1.23c-4.44-1.22-7-6.26-11.84-6.32     c-3.48-0.05-7.69,0.26-9.86,3.42c-3.55,4.07-5.2,9.49-4.86,14.86c0.22,4.11,0.39,8.5,2.53,12.14c1.4,0.77,3.11,0.37,4.64,0.55     c1.06,1.71,2.32,3.36,2.8,5.34c-0.5,3.8-3.47,6.58-5.96,9.25c-2.35,2.28-4.57,4.79-7.38,6.51c-2.56,1.08-5.52,0.86-8.16,0.13     c-0.55-1.6,0.1-3.29,0.17-4.91c1.57-11.85-0.83-23.74-0.61-35.61c0.22-4.83,1.14-9.59,1.43-14.41c0.54-6.2-3.21-11.83-2.84-18.03     c-0.01-2.98,1.16-5.78,2.68-8.3c3.3,2.67,6.34,5.68,8.81,9.15c0.84-3.12,2.67-5.83,6.15-6.12c0.62,1.41,1.23,2.83,1.87,4.24     c3.55-0.84,6.99-2.1,10.4-3.39c-0.09-2.04-0.22-4.07-0.31-6.1c-6.16,0.67-12.86,0.87-18.54-1.94c0.64-2.94,1.68-5.75,2.65-8.59     c-1.66-1.51-3.37-2.96-5.05-4.45c0.18-2.77-0.76-5.38-1.22-8.07c3.36-5.02,9.98-4.79,15.17-6.43c1.43-5.01,2.04-10.69,5.88-14.57     c2.35-2.4,4.6-5.09,7.65-6.63c2.5,0.49,4.18,2.77,6.26,4.11c0.15,3.04-0.63,6.77,1.92,9.07c7.7-0.72,15.19-5.84,23.11-3.08     c-0.71,4.44-2.53,8.66-5.22,12.26c-2.64,3.75-6.8,5.94-10.16,8.95c1.54,1.51,3.13,2.96,4.74,4.41c0.41,1.92-1.45,5.33,1.13,5.93     c8.94-9.61,18.73-19.37,22.57-32.3c-5.53-0.58-13.05,2.65-17.03-2.58c-2.2-5.3,2.62-9.93,4.66-14.44     c-2.17-2.48-5.43-4.19-6.46-7.51c-0.85-2.99-1.64-6.35-0.65-9.39c2.12-2.72,5.8-3.58,9.08-3.77c3.72-0.25,7.1,1.55,10.59,2.54     C83.036,37.13,84.846,30.91,89.816,27.26z M85.516,37c-1.47,4.11-1.45,8.57-2.62,12.77c-2.33-2.59-4.2-6.17-8-6.74     c-3.94-0.63-9.26-0.91-11.91,2.64c-1,5.77,3.29,9.94,7.08,13.52c1.96-0.52,3.97-0.8,5.99-0.38c-3.45,3.47-7.22,6.83-9.49,11.24     c-0.8,1.76-0.42,4.75,1.89,5.07c3.45,0.44,7.69,2.1,10.62-0.55c3.08-2.54,7.65-2.97,9.44-7c4.05,3.18,7.5,7.18,11.93,9.85     c1.61,1.4,3.97,0.09,4.23-1.88c0.41-4.71-1.63-9.17-3.2-13.51c5.22,0.75,11.16-0.23,14.83-4.31c3.13-3.64,4.28-8.63,4.01-13.34     c-6,0.81-11.81,2.72-17.13,5.62c0.37-2.56,1.16-5.23,0.16-7.76c-1.95-5.34-1.92-11.16-4.11-16.43     C92.586,25.92,88.256,31.63,85.516,37z M32.046,74.5c-4.52,3.73-5.86,9.7-6.8,15.19c-0.6,3.06,2.73,5.97,0.58,8.86     c-1.54-1.78-2.39-4.53-4.69-5.46c-3.56,0.26-7.91,0.09-10.59,2.84c0.27,2.51,0.93,4.97,1.36,7.46c1.33,1.88,3.84,2.48,5.29,4.28     c-0.42,2.01-1.78,3.73-2.01,5.79c1.48,2.61,4.88,2.86,7.5,3.59c3.15,1.08,5.93-1.26,8.68-2.42c0.56,3.62,1.42,7.2,1.73,10.86     c-4.7,4.18-11.57,4.48-17.23,6.8c-4.11,1.9-6.22,6.02-9.08,9.27c-0.88-3.53,1.17-6.73,2.04-10.02c-1.72-1.42-3.47-2.8-5.26-4.12     c-1.38,6.48,1.73,12.66,1.59,19.13c1.07,10.37-1.96,20.76-0.12,31.09c0.92,5.06,0.35,10.19,0.13,15.28c1.3,0,2.61,0.01,3.92,0.03     c1.51-3.58,4.76-6.93,3.8-11.11c-1.91-8.68-2.42-18.01,1.03-26.4c1.96-4.11,0.11-8.91,2.06-13c2.93-3.73,7.37-5.94,11.88-7.15     c4.31-1.81,8.67-3.5,13.14-4.91c3.86-1.06,5.51-5.14,8.77-7.15c5.4-3.57,10.45-7.63,15.89-11.14c2.81-2.2,4.7-5.29,7.13-7.86     c2.49-2.85,5.89-5.17,6.93-9.01c1.27-4.26,2.76-8.5,3.36-12.92c-3.9,4.64-6.5,10.19-10.23,14.96     c-4.9,7.33-12.15,12.52-18.08,18.93c-4.55,4.65-9.6,9.75-16.45,10.41c-0.26-3.31,0.17-6.63-0.04-9.93     c-0.83-2.02-3.6-2.59-4.08-4.82c1.5-0.85,3.11-1.81,4.91-1.59c4.88,0.43,9.64,2.02,14.59,1.75c0.16-2.23,0.75-4.64-0.18-6.78     c-1.61-2.09-3.44-4.04-4.49-6.5c6.35-4.42,14.45-9.62,14.4-18.32c-5.55,0.27-10.9,1.87-16.28,3.13c-3.95,1.12-3.99,6.66-8,7.76     c0.67-3.26,3.5-6.35,2.04-9.78c-1.31-3.14-0.42-7.44-3.49-9.62C35.426,70.82,33.656,73.28,32.046,74.5z M85.586,87.56     c-1.04,1.92-2.25,3.81-2.76,5.97c0.38,1.79,1.84,3.07,2.77,4.59c2.07,2.84,2.66,6.37,3.7,9.65c7.25-0.76,13.01-5.54,19.41-8.48     c-2.41,5.37-8.51,7.59-13.24,10.52c1,1.14,1.72,2.68,3.15,3.34c2.01,1.11,3.71-0.95,5.39-1.78c2.24-1.54,5.13-1.28,7.57-2.34     c1.91-1.91,3.55-4.16,4.67-6.63c0.38-1.76-0.34-3.53-0.57-5.27c-4.7-1.17-9.56-1.55-14.39-1.4c-2.36,1-3.46,3.58-5.34,5.19     c-1.68,0.7-3.45,1.18-5.18,1.72c1.25-3.07,3.86-6.27,1.9-9.65C91.916,89.61,88.496,88.46,85.586,87.56z M80.516,100.23     c0.13,1.68-0.29,3.63,0.92,5.03c0.74,1.66,3.61,1.76,4.28,0c-0.16-2-1.02-3.83-1.69-5.68C82.856,99.78,81.686,100,80.516,100.23z      M71.956,107.86c2.64,1.05,7.86-0.86,6.1-4.15C74.866,102.62,73.226,105.51,71.956,107.86z M72.306,111.82     c0.31,1.86,0.68,3.71,1.09,5.55c1.57,0.03,3.13,0.04,4.7,0.03c-0.71-1.28-1.5-2.52-2.11-3.86c2.1-2.51,5.51-2.89,8.39-4.02     C80.256,109.66,76.146,110.32,72.306,111.82z M105.056,114.44c2.38,2.38,5.6,4.22,6.53,7.69c-4.33,0.1-6.07-5.47-10.4-5.24     c-2.12,1.34-2.52,3.66-1.63,5.87c2.68,0.26,5.47,0.28,7.99,1.36c3.42,1.23,6.64,3.49,10.39,3.4c2.1,0.24,2.67-2.33,2.5-3.93     c-1.79-4.3-5.09-7.91-8.97-10.45C109.276,111.89,106.836,113.03,105.056,114.44z M40.625,114.84c-0.03,2.98-0.16,5.98,0.28,8.94     c3.21-1.38,6.36-3.15,8.66-5.85c0.96-0.92,1.2-2.02,0.71-3.3C47.076,113.99,43.826,114.5,40.625,114.84z M90.826,116.6     c0.38,3.77,1.04,7.6-0.46,11.23c2,0.05,4.74,1.16,6.06-0.93c1.11-3.92,0.64-8.1,0.14-12.09     C94.546,114.86,91.706,114.1,90.826,116.6z M52.566,124.01c-2.38,1.64-4.27,3.86-5.92,6.23c2.45,0.02,5.26,0.84,7.4-0.79     c2.78-1.83,5.5-3.77,8.42-5.4c2.6-0.13,5.68,0.79,7.56-1.62c2.91-2.65-0.91-6.65-3.85-7.25     C61.106,117.21,56.976,120.88,52.566,124.01z M85.396,117.95c-2.62,1.27-0.66,4.94,1.77,5.58     C90.286,122.35,88.446,116.84,85.396,117.95z M75.276,122.71c-4.91,4.44-9.32,9.55-15.29,12.64c3.46,1.69,6.84,4.25,10.86,4.13     c2.03-1.91,2.77-4.71,2.83-7.41c4.95-1,7.11-5.66,9.53-9.51C81.116,119.87,77.486,120.57,75.276,122.71z M56.206,131.73     c-3.57,2.62-8.11,0.77-12.14,0.96c-4.65-0.24-8.97,1.71-13.05,3.67c4.02-0.45,8.06-0.71,12.1-0.36     c8.96,0.62,18.59-2.45,24.4-9.55C62.716,125.29,59.726,129.39,56.206,131.73z M80.426,132.33c-1.92,3.13-3.81,6.29-5.36,9.62     c1.64,0.46,3.28,0.92,4.93,1.34c-0.17-2.13-0.43-4.25-0.51-6.39c2.74,2.22,2.33,6.66,5.52,8.37c2.79-0.9,1.31-4.41,1.6-6.6     C86.856,135.11,83.726,132.59,80.426,132.33z M94.346,133.64c-4.38,2.88,2.09,8.99,5.05,5.29     C101.176,135.89,97.316,132.87,94.346,133.64z M89.206,137.04c-0.15,1.78-0.21,3.56-0.26,5.35c0.57-0.09,1.7-0.28,2.26-0.38     C90.875,140.23,90.296,138.51,89.206,137.04z M72.616,143.47c-1.61,3.86-5.76,6.86-5.15,11.39c1.51,0.39,3.01,0.82,4.56,1.04     c1.37-1.78,2.13-4.07,3.96-5.47c1.94-1.27,4.17-2,6.25-2.99C79.456,145.23,76.056,144.13,72.616,143.47z M99.596,145.03     c-2.71,0.92-5.94,1.22-7.72,3.74c4.56,1.48,9.71,1.45,13.78,4.25c1.18,0.78,1.22,2.4,1.79,3.58c-3.53-1.24-6.65-3.55-10.39-4.2     c-2.39-0.38-6.32-0.21-5.5,3.25c4.25,2.89,9.31,4.98,14.55,4.36c3.18-0.37,7.44,0.01,9.28-3.22c1.37-2.57-1-5.08-2.72-6.76     C109.156,146.96,104.506,143.63,99.596,145.03z M34.766,147.26c2.52,1.43,4.58,3.42,6.54,5.52c1.74,0.42,3.55,0.09,5.31,0.03     C45.746,147.41,39.356,145.68,34.766,147.26z M75.526,154.76c-0.06,2.05,2.25,2.56,3.79,3.07c0.69-1.52,1.42-3.02,2.17-4.5     c1.57,3.47,2.04,7.42,4.42,10.5c1.65,3.08,5.9,3.48,8.7,1.79c-2.81-3.76-6.46-6.9-8.37-11.29     C84.576,149.51,77.226,150.4,75.526,154.76z M12.936,191.61c-0.18,1.69-0.33,3.39-0.45,5.1c1.29-1.3,2.59-2.59,3.72-4.03     C15.136,192.26,14.036,191.93,12.936,191.61z M5.016,199.41c1.45-0.12,2.91-0.26,4.36-0.42c0.14-0.58,0.44-1.74,0.58-2.32     c-0.75-0.68-1.5-1.36-2.25-2.03C6.125,195.81,4.946,197.34,5.016,199.41z"/>
		</g>
		<path fill="#32903A" d="M93.156,35.75c0.88-0.1,2.65-0.3,3.53-0.4c-1.18,7.55-5.09,14.45-5.49,22.16c1.47,0.35,2.98,1.1,4.51,0.55    c6.3-1.41,11.3-5.68,16.94-8.53c-0.64,1.43-1.08,3.15-2.59,3.93c-4.46,2.87-9.16,5.35-13.81,7.88c0.65,1.52,1.28,3.04,1.84,4.59    c-2.44-0.8-4.68-2.09-7.13-2.87c-4.51,0.77-8.74,2.65-13.16,3.79c2.17-3.08,5.59-4.92,7.91-7.86c-4.2-3.27-9.22-5.45-12.9-9.38    c6.24-1.2,9.16,6.99,15.26,6.45C91.186,49.76,91.756,42.57,93.156,35.75z"/>
		<path fill="#32903A" d="M241.616,39.63c0.35-0.78,1.06-2.33,1.41-3.11c4.9,5.86,6.11,13.69,10.15,20.04    c1.6,2.57,2.59,5.47,3.02,8.47c-3.26-1.75-4.35-5.47-6.16-8.43C247.156,50.99,243.386,45.75,241.616,39.63z"/>
		<path fill="#32903A" d="M281.826,59.17c3.87,0.22,3.55,4.42,4.39,7.21c1.84,7.35,3.48,14.74,4.65,22.23    c-0.63-0.07-1.89-0.23-2.53-0.3c-1.43-4.66-3.24-9.25-3.58-14.16C284.326,69.05,282.616,64.2,281.826,59.17z"/>
		<path fill="#32903A" d="M235.406,79.34c1.05-0.98,1.76-3.21,3.55-2.35c5.33,1.63,10.32,4.21,15.49,6.27    c4.19,1.9,9.57,3.49,10.69,8.62C254.886,88.62,244.656,84.91,235.406,79.34z"/>
		<path fill="#32903A" d="M32.476,96.63c-0.49-5.45-0.52-11.11,1.65-16.24c0.95,1.24,2.15,2.46,2,4.15    c0.33,5.09,0.38,10.19,0.68,15.28c6.62-4.88,11.48-12.57,19.57-15.18c0.56,1.5-0.87,2.49-1.75,3.41    c-4.66,4.33-8.93,9.11-12.48,14.4c2.14,1.36,4.42,2.53,6.43,4.1c-0.24,2.32-2.71,1.78-4.37,1.75c-2.48-0.3-4.77-1.4-7.13-2.18    c-3.92,2.08-7.26,5.36-11.71,6.33c0.67-2.53,4.26-4.86,2.77-7.57c-3.38-2.8-8.73-2.63-11.21-6.69c4.53-0.22,9.11,0.7,13.29,2.43    C32.556,101.02,32.606,98.25,32.476,96.63z"/>
		<path fill="#32903A" d="M267.726,117.94c0.78-0.04,2.33-0.14,3.11-0.18c4.37,6.58,6.32,14.28,7.18,22.04    c-1.15-0.26-2.3-0.53-3.44-0.8c-0.54-3.48-0.52-7.06-1.4-10.48C272.186,124.59,269.216,121.64,267.726,117.94z"/>
		<path fill="#32903A" d="M224.326,152.03c7.47-0.31,15.05,0.04,22.33,1.9c1.69,0.15,2.46,1.73,3.36,2.96    c-8.66,0.28-17.27-1.2-25.83-2.35C224.226,153.91,224.286,152.66,224.326,152.03z"/>
	</g>
</g>
</svg>