<?xml version="1.0" encoding="utf-8"?>
<!-- Generator: Adobe Illustrator 15.1.0, SVG Export Plug-In . SVG Version: 6.00 Build 0)  -->
<!DOCTYPE svg PUBLIC "-//W3C//DTD SVG 1.1//EN" "http://www.w3.org/Graphics/SVG/1.1/DTD/svg11.dtd">
<svg version="1.1" id="Layer_1" xmlns="http://www.w3.org/2000/svg" xmlns:xlink="http://www.w3.org/1999/xlink" x="0px" y="0px"
	 width="1832px" height="2693px" viewBox="0 0 1832 2693" enable-background="new 0 0 1832 2693" xml:space="preserve">
<rect x="37.731" y="32.798" fill="#F2F9F4" width="1764.177" height="1893.189"/>
<path fill="#147D3E" d="M0,0v1910.987c0,0,79,170.123,340,411.123S870,2693,904,2693s444-205.891,683-454.891s245-315,245-315V0H0z
	 M473.113,1069.714c0-32.806,3.382-64.821,9.805-95.721l407.667,287.765l-4.938,103.251l-411.022-257.496
	C473.628,1095.044,473.113,1082.44,473.113,1069.714z M796.5,820.11c57.714,0,104.5-44.324,104.5-99
	c0-52.48-43.105-95.415-97.603-98.78c37.767-11.61,77.569-18.571,118.741-20.211l-13.152,274.963L598.073,751.374
	c33.452-36.029,72.512-66.778,115.791-90.862C700.161,677.259,692,698.28,692,721.11C692,775.786,738.786,820.11,796.5,820.11z
	 M988.912,1330.072l417.649-211.685c-22.663,219.302-196.767,393.655-415.955,416.707L988.912,1330.072z M988.345,1261.479
	l-0.332-40.179l372.321-359.75c29.076,58.448,46.282,123.838,48.482,193.015L988.345,1261.479z M987.304,1135.518l-1.141-137.946
	c17.403,12.273,38.974,19.538,62.337,19.538c57.714,0,104.5-44.324,104.5-99c0-47.226-34.907-86.723-81.609-96.611l29.524-30.542
	c15.69,35.897,53.021,61.153,96.585,61.153c51.644,0,94.53-35.492,102.982-82.132c6.218,7.446,12.208,15.088,17.961,22.916
	L987.304,1135.518z M984.564,804.114l-1.658-200.533c61.994,5.49,120.511,23.074,173.185,50.369L984.564,804.114z M895.498,1159.067
	l-141.951-82.805c7.997,1.856,16.353,2.848,24.954,2.848c57.714,0,104.5-44.324,104.5-99c0-10.307-1.664-20.245-4.749-29.588
	l26.597,13.073L895.498,1159.067z M562.104,795.127l184.5,90.687C704.491,898.588,674,935.973,674,980.11
	c0,24.605,9.479,47.11,25.16,64.427L495.655,925.825C510.924,878.521,533.52,834.51,562.104,795.127z M881.562,1450.4l-3.971,83.011
	c-191.522-25.981-346.232-167.821-391.217-352.625L881.562,1450.4z M1775.048,1887.173c0,0-99.048,153.937-293.048,349.937
	c-184.019,185.916-455.301,331.562-482.729,346.057l-8.142-984.831c7.6-0.712,15.158-1.564,22.662-2.592l23.004,57.882
	l130.004-38.905l-14.698-57.623c17.909-7.765,35.307-16.485,52.128-26.102l42.871,45.202l106.244-84.42l-35.196-48.231
	c14.868-14.996,28.849-30.873,41.855-47.548l57.03,25.57l66.127-118.497l-50.933-31.229c7.779-18.882,14.501-38.311,20.093-58.212
	l62.546,2.151l16.5-134.692l-59.314-9.75c0.002-0.542,0.011-1.083,0.011-1.625c0-14.869-0.622-29.593-1.82-44.152l59.653-19.989
	l-31.703-131.943l-59.047,11.648c-5.993-16.179-12.752-31.985-20.232-47.377l48.548-40.222l-77.11-111.662l-51.178,32.324
	c-11.701-13.247-24.053-25.906-37.006-37.925l30.785-55.39l-112.396-76.036l-35.983,48.753
	c-18.985-9.814-38.638-18.516-58.873-26.02l7.235-62.875l-132.938-27.236l-14.625,58.96c-14.603-1.206-29.37-1.831-44.284-1.831
	c-14.974,0-29.799,0.63-44.459,1.846l-14.628-58.975l-132.938,27.236l7.243,62.939c-20.22,7.507-39.859,16.209-58.831,26.023
	l-36.033-48.82l-112.396,76.036l30.845,55.499c-12.934,12.009-25.266,24.656-36.95,37.889l-51.293-32.397l-77.11,111.662
	l48.676,40.328c-7.466,15.368-14.21,31.151-20.193,47.304l-59.214-11.682l-31.703,131.943l59.828,20.047
	c-1.195,14.541-1.815,29.245-1.815,44.094c0,0.533,0.008,1.063,0.01,1.596l-59.493,9.78l16.5,134.692l62.724-2.157
	c5.583,19.874,12.293,39.274,20.058,58.131l-51.075,31.316l66.127,118.497l57.164-25.63c12.99,16.657,26.951,32.52,41.798,47.503
	l-35.272,48.336l106.244,84.42l42.934-45.269c16.807,9.613,34.189,18.334,52.083,26.099l-14.716,57.692l130.004,38.905
	l23.013-57.904c2.112,0.29,4.234,0.552,6.354,0.817l-47.38,990.533c-18.007-12.004-337.802-225.762-499.573-374.416
	c-166.492-152.992-257.987-344.983-257.987-344.983V63.265h1705.416V1887.173z"/>
<g>
	<path fill="#DD1F26" d="M1482,2237.11c194-196,293.048-349.937,293.048-349.937v-0.095
		c-44.81-18.93-306.547-120.533-782.608-130.222l6.831,826.31C1026.699,2568.671,1297.981,2423.026,1482,2237.11z"/>
	<path fill="#DD1F26" d="M327.62,2212.656c161.771,148.654,481.566,362.412,499.573,374.416l39.732-830.642
		c-477.329,5.875-742.668,91.21-797.292,110.723v0.52C69.632,1867.672,161.128,2059.664,327.62,2212.656z"/>
</g>
<circle fill="#DD1F26" cx="781.5" cy="722.61" r="65.5"/>
<circle fill="#DD1F26" cx="766" cy="977.11" r="65.5"/>
<circle fill="#DD1F26" cx="1072" cy="936.11" r="65.5"/>
<circle fill="#DD1F26" cx="1201" cy="775.11" r="65.5"/>
<path fill="#F2F9F4" d="M1335,2101.11c0,0-36-56-83-95s-118-92-118-92s96,25,159,73s91,76,91,76L1335,2101.11z"/>
<path fill="#F2F9F4" d="M1396,2012.11c0,0-3-13-76-60s-173-84-173-84s104-5,174,30s116,67,116,67L1396,2012.11z"/>
<path fill="#F2F9F4" d="M1459,1944.11c0,0-34-32-76-53s-127-51-127-51s82-5,134,21s101,47,101,47L1459,1944.11z"/>
<polygon fill="#F2F9F4" points="1023,2331.11 1143,2217.11 1023,2287.11 "/>
<polygon fill="#F2F9F4" points="1016,2251.11 1016,2215.11 1069,2184.11 "/>
<polygon fill="#F2F9F4" points="1021,2168.11 1021,2142.11 1043,2135.11 "/>
<polygon fill="#F2F9F4" points="1017,2099.11 1017,2078.11 1038,2069.11 "/>
<polygon fill="#F2F9F4" points="1011,2057.11 1011,2026.11 1048,2010.11 "/>
<g>
	<path fill="#147D3E" d="M212.96,527.254l-28.125,39.125c34.531,20.509,66.398,45.221,98.883,68.574
		c17.783,12.785,57.243,39.386,74.346,53.12L385,650.61c-36.286-23.57-92.953-63.259-128.047-88.489
		C241.778,551.209,226.775,540.062,212.96,527.254z"/>
	<path fill="#147D3E" d="M289.51,452.018l-32.343,34.066c17.334,12.728,33.82,26.35,49.652,40.215l25.01,21.903
		c16.288,14.268,38.867,36.257,54.312,51.414L417,567.11c-27.657-21.772-60.333-52.603-86.718-75.712
		C316.056,478.94,302.042,466.257,289.51,452.018z"/>
	<path fill="#147D3E" d="M498.567,384.235c-47.299-20.531-110.274-8.374-158.026,6.068l12.796,38.356
		c15.926-5.745,32.025-11.238,49.008-13.752c26.038-4.085,68.557-5.196,84.294,17.634c11.935,17.31,23.416,34.525,34.503,52.307
		l44.517-24.791c-13.645-18.094-26.55-36.25-39.352-54.814C519.909,395.959,509.284,389.031,498.567,384.235z"/>
	<path fill="#147D3E" d="M634.162,315.47c0.42,9.391-0.237,18.439,0.184,27.83l49.526-4.292c-2.847-28.055-4.318-55.849-5.19-83.808
		c-0.249-8.803,0.796-17.64,1.921-26.184l-50.823,4.328c0.938,8.932,2.178,17.781,2.512,26.878L634.162,315.47z"/>
	<path fill="#147D3E" d="M739.535,229.135l-50.705,13.8c7.317,22.086,14.634,44.17,21.046,66.503
		c10.461,36.434-46.575,65.581-73.849,77.123l-27-94.029c-2.446-8.521-3.684-17.371-5.227-26.139
		c-6.943,1.89-13.667,3.403-20.609,5.292c-10.261,2.793-20.136,5.796-30.397,8.59c6.73,12.107,11.263,24.495,15.058,37.719
		l16.708,58.18c5.99,20.861,11.292,41.595,15.473,62.95c4.915-1.02,9.828-2.041,14.655-3.354
		c59.158-16.102,161.849-70.976,140.754-144.436C749.45,270.472,742.724,250.443,739.535,229.135z"/>
	<path fill="#147D3E" d="M879.896,308.813c-0.243-8.969,1.042-17.984,2.339-26.677l-50.137,1.485
		c0.556,9.28,2.036,18.853,2.288,28.143l0.709,26.265c0.407,15.055-1.023,30.163-0.617,45.218l48.914-1.448
		c-0.854-8.95-2.002-17.571-2.244-26.541L879.896,308.813z"/>
	<path fill="#147D3E" d="M974.433,274.6c-27.151-42.474-83.669-61.959-129.218-71.831l-9.567,42.276
		c15.668,2.421,31.348,5.166,46.193,11.137c22.884,8.94,57.379,28.756,58.166,57.903c0.596,22.104,0.878,43.893,0.556,66.022
		l48.608-1.438c-1.556-23.677-2.49-47.051-3.133-70.754C985.721,296.064,980.814,284.347,974.433,274.6z"/>
	<path fill="#147D3E" d="M1046.48,285.675l-2.301,30.526c29.424,3.056,55.041,6.166,84.24,10.397c9.734,1.413,16,2.926,25.566,5.221
		l3.251-30.087c-11.52-1.065-19.241-2.183-30.651-3.837C1098.728,293.855,1074.227,290.303,1046.48,285.675z"/>
	<path fill="#147D3E" d="M1410.679,315.12c-14.689-3.813-29.278-8.637-43.331-14.637l-79.721-34.033
		c-18.939-8.086-38.05-16.595-55.645-27.617l-19.086,41.711c30.935,8.994,65.624,24.153,95.387,36.509l-15.859,34.663
		c-7.528,16.448-15.359,32.768-23.193,49.086c-6.221,12.795-12.44,25.588-21.104,37.341l53.762,22.951
		c4.654-14.165,10.092-27.645,15.667-41.417c8.262-19.648,16.08-39.133,24.951-58.521l11.294-24.674
		c13.305,6.031,25.459,12.978,37.117,21.816L1410.679,315.12z"/>
	<path fill="#147D3E" d="M1512.089,398.911l-39.571-35.099c-13.373,17.954-27.694,35.063-42.286,51.511l-23.046,25.983
		c-15.014,16.925-30.263,33.639-46.231,49.717l37.905,33.619c22.885-28.681,47.438-55.883,71.755-83.297
		C1483.726,426.566,1497.07,411.999,1512.089,398.911z"/>
	<path fill="#147D3E" d="M1589.817,444.691l-40.763,18.236c9.095,13.981,17.942,28.166,23.604,43.664
		c8.939,23.726,17.31,63.371-5.592,81.832c-17.363,14-34.699,27.558-52.73,40.841l35.422,37.897
		c17.957-15.728,36.103-30.777,54.727-45.791c9.309-7.505,15.277-18.588,18.622-29.644
		C1638.145,544.077,1613.985,487.068,1589.817,444.691z"/>
	<path fill="#147D3E" d="M1552.052,522.786l-36.535-39.089c-7.079,6.121-13.736,13.161-21.035,19.045l-20.635,16.635
		c-11.828,9.537-24.99,17.641-36.819,27.177l35.646,38.137c6.6-6.158,12.729-12.351,19.771-18.032l36.492-29.418
		C1535.981,531.56,1544.143,527.072,1552.052,522.786z"/>
</g>
<g>
	<path fill-rule="evenodd" clip-rule="evenodd" fill="#F2F9F4" d="M1371.698,2137.519c-0.711-0.843-1.338-1.756-1.978-2.515
		l-8.332,7.897c7.568,7.601,15.204,15.284,22.338,23.395c2.385-2.298,4.968-4.19,7.639-6.155l14.604-10.884
		c1.995-1.393,3.99-2.789,5.844-4.353c4.043,5.815,8.312,11.73,11.54,17.947c5.354,10.618,5.584,18.068-3.751,25.801l-1.432,1.207
		l8.461,8.146c11.438-12.247,14.588-25.43,6.972-40.775c-3.214-6.371-7.469-12.441-11.429-18.329
		c-1.039-1.573-2.164-3.077-3.203-4.651c-1.11-1.657-2.222-3.315-3.571-4.916c-10.086,7.357-20.256,14.785-30.198,22.31
		C1380.589,2147.031,1375.891,2142.488,1371.698,2137.519z"/>
	<path fill-rule="evenodd" clip-rule="evenodd" fill="#F2F9F4" d="M1462.206,2085.515c1.94,10.33,3.402,20.774,4.469,31.265
		c-11.253-1.029-22.313-3.377-33.264-6.103l-2.084,12.571c4.872,0.647,9.758,1.138,14.561,1.701
		c5.862,12.931,9.306,26.751,13.48,40.241l11.941-3.444c-0.728-1.547-1.541-3.026-2.427-4.584
		c-5.152-9.352-7.407-20.568-10.051-30.881c15.329,0.907,30.303,4.13,45.279,7.354l1.83-12.356
		c-9.408-1.578-18.997-2.859-28.469-3.661c-1.479-11.153-2.014-22.382-2.703-33.621L1462.206,2085.515z"/>
	<path fill-rule="evenodd" clip-rule="evenodd" fill="#F2F9F4" d="M1490.558,2065.339l-10.272,8.669
		c3.179,3.086,6.261,6.396,9.104,9.765l5.257,6.232c2.347,2.777,4.593,5.785,6.854,8.634l9.77-8.241
		c-2.5-2.794-5.168-5.444-7.656-8.391l-4.761-5.644C1495.868,2072.826,1493.037,2069.303,1490.558,2065.339z"/>
	<path fill-rule="evenodd" clip-rule="evenodd" fill="#F2F9F4" d="M1518.084,2041.248c-4.126,3.482-8.253,6.965-12.535,10.433
		c-2.682,2.12-5.463,4.465-8.499,6.162l7.533,8.926c2.776-3.203,6.3-6.034,9.442-8.975c5.148-4.49,10.385-9.051,15.618-13.611
		l8.172,9.685c5.046,5.979,10.093,11.96,14.898,17.997c2.7,3.2,6.125,7.087,8.163,10.7l10.864-9.166
		c-3.32-3.253-6.39-6.721-9.543-10.115c-5.512-6.019-10.925-12.265-16.185-18.496l-7.106-8.422c3.692-2.973,7.47-6.014,11.788-8.074
		l-7.673-9.095c-2.859,3.277-6.072,6.134-9.356,8.905L1518.084,2041.248z"/>
	<path fill-rule="evenodd" clip-rule="evenodd" fill="#F2F9F4" d="M1556.525,2005.351l2.928,10.648
		c8.146-3.845,14.661-4.152,22.285,0.95c1.437,13.492,1.93,27.063,2.507,40.563l12.535-1.207c-0.647-4.354-0.899-8.755-1.308-13.17
		c-0.459-5.668-1.072-11.35-1.53-17.02c3.405,3.18,6.8,6.519,10.358,9.714c2.327,2.073,4.656,4.147,6.968,6.376l8.745-9.972
		c-5.854-3.857-11.159-8.609-16.562-13.135C1588.786,2006.678,1576.669,1995.563,1556.525,2005.351z"/>
	<path fill-rule="evenodd" clip-rule="evenodd" fill="#F2F9F4" d="M1641.93,1950.3c-8.201-2.884-15.921-3.147-22.996,2.823
		c-6.991,5.896-9.962,16.045-10.556,24.91c-6.248-1.938-12.862-1.402-19.129,0.569l1.201,11.676
		c10.697-4.413,18.354-0.636,25.388,7.701l6.325,7.496c4.191,4.969,8.372,10.093,12.229,15.345l10.106-8.526
		c-4.116-4.024-7.896-8.333-11.593-12.712c-4.334-5.137-8.391-10.798-13.566-15.225c-0.226-6.587,1.37-18.025,6.759-22.572
		c3.455-2.916,7.058-2.063,10.918-0.563c4.017,1.514,17.17,6.851,19.588,9.714c2.487,2.948,0.267,6.983-1.082,9.995
		c-3.706,7.742-7.411,15.481-11.64,22.944l12.948,4.067c1.854-8.052,5.832-15.301,9.271-22.675
		c3.356-7.298,5.872-15.766,0.115-22.589C1661.029,1956.531,1649.366,1952.963,1641.93,1950.3z"/>
</g>
<g>
	<path fill-rule="evenodd" clip-rule="evenodd" fill="#F2F9F4" d="M1102.787,2416.458c-12.628-6.149-26.586-1.04-38.894,3.491
		l-1.534-2.871l-10.562,6.953c9.504,13.482,17.65,27.741,25.887,41.934c2.599,4.421,4.849,9.116,7.448,13.541
		c13.853-12.455,27.547-24.929,42.214-36.336c-5.627-6.693-11.232-13.54-16.665-20.523
		C1108.578,2419.942,1105.843,2417.865,1102.787,2416.458z M1103.97,2433.473l3.328,4.277l4.005,5.147
		c-7.392,6.17-14.868,12.408-22.058,18.838c-6.712-10.61-13.732-21.262-19.833-32.349c8.672-3.802,24.714-8.573,31.708,0.418
		L1103.97,2433.473z"/>
	<path fill-rule="evenodd" clip-rule="evenodd" fill="#F2F9F4" d="M1113.349,2381.625l-10.65,8.283
		c3.065,3.218,6.023,6.662,8.741,10.153l5.021,6.462c2.242,2.881,4.376,5.984,6.529,8.933l10.125-7.875
		c-2.395-2.9-4.965-5.665-7.34-8.722l-4.55-5.847C1118.374,2389.347,1115.677,2385.698,1113.349,2381.625z"/>
	<path fill-rule="evenodd" clip-rule="evenodd" fill="#F2F9F4" d="M1144.368,2398.83l10.128-7.875
		c-2.396-2.902-4.966-5.665-7.344-8.722l-4.549-5.848c-2.852-3.666-5.546-7.314-7.875-11.389l-10.65,8.284
		c3.064,3.218,6.024,6.664,8.738,10.154l5.025,6.462C1140.082,2392.777,1142.217,2395.88,1144.368,2398.83z"/>
	<path fill-rule="evenodd" clip-rule="evenodd" fill="#F2F9F4" d="M1198.456,2347.516c-17.468-8.408-37.926-0.485-54.482,6.508
		l7.053,11.049c1.812-1.271,3.626-2.541,5.51-3.727c5.508,8.885,10.755,17.975,15.935,26.977
		c5.818,10.185,6.566,17.449-0.409,27.216l10.127,4.734c9.05-12.502,8.236-24.899,0.661-38.062
		c-4.86-8.408-9.718-16.818-14.492-25.296c8.924-2.038,22.931-3.122,29.312,5.083l3.26,4.189c3.529,4.541,6.906,9.06,10.263,13.734
		l10.126-7.875c-5.083-5.994-9.903-12.193-14.724-18.39C1204.489,2350.951,1201.513,2348.924,1198.456,2347.516z"/>
	<path fill-rule="evenodd" clip-rule="evenodd" fill="#F2F9F4" d="M1224.747,2291.204c-7.246,5.635-10.632,15.693-11.581,24.561
		c-6.19-2.194-12.844-1.923-19.205-0.197l0.735,11.758c10.902-3.995,18.431,0.098,25.15,8.739l6.043,7.77
		c4.005,5.149,7.991,10.455,11.648,15.876l10.477-8.144c-3.968-4.202-7.585-8.674-11.116-13.212
		c-4.141-5.324-7.981-11.165-12.997-15.812c0.04-6.614,2.095-18.022,7.683-22.366c3.58-2.785,7.158-1.784,10.971-0.125
		c3.967,1.678,16.945,7.557,19.252,10.523c2.376,3.057-0.009,7.013-1.484,9.98c-4.025,7.614-8.049,15.229-12.59,22.543l12.822,4.597
		c2.185-8.001,6.46-15.112,10.206-22.367c3.655-7.188,6.517-15.577,1.018-22.647c-4.955-6.373-16.509-10.419-23.86-13.387
		C1239.809,2286.074,1232.08,2285.501,1224.747,2291.204z"/>
	<path fill-rule="evenodd" clip-rule="evenodd" fill="#F2F9F4" d="M1330.178,2287.38c-5.149-6.08-10.106-12.453-14.994-18.739
		c-2.377-3.054-6.112-5.333-9.719-6.732c-15.617-6.207-35.15-1.241-49.749,5.209l4.605,10.428c4.56-2.426,9.371-4.345,14.328-5.539
		c9.206-2.395,24.958-3.577,31.61,4.979c4.684,6.021,9.367,12.046,13.705,18.34L1330.178,2287.38z"/>
</g>
<g>
	<path fill="#F2F9F4" d="M661.851,2353.873c3.046-16.165-5.374-34.004-14.296-46.823l-9.157,6.374
		c3.181,3.928,5.925,8.191,7.997,12.73c4.021,8.395,8.1,23.307,1.124,31.297c-4.912,5.625-9.823,11.252-15.061,16.593l9.54,8.33
		c4.881-6.087,10.077-12.038,15.203-17.908C659.691,2361.613,661.183,2357.597,661.851,2353.873z"/>
	<path fill="#F2F9F4" d="M708.06,2362.891c-3.996-3.488-7.991-6.977-11.996-10.617c-2.457-2.287-5.147-4.638-7.248-7.334
		l-7.545,8.644c3.525,2.217,6.797,5.216,10.119,7.83c5.126,4.331,10.334,8.734,15.542,13.137l-8.187,9.377
		c-5.054,5.788-10.108,11.577-15.253,17.144c-2.705,3.098-5.97,7.001-9.174,9.521l10.518,9.182
		c2.663-3.709,5.571-7.206,8.398-10.772c5.023-6.246,10.28-12.433,15.547-18.466l7.118-8.155c3.436,3.145,6.951,6.359,9.592,10.244
		l7.688-8.805c-3.606-2.287-6.857-4.983-10.038-7.759L708.06,2362.891z"/>
	<path fill="#F2F9F4" d="M726.213,2413.797l-9.703-8.471c-1.698,2.109-3.162,4.279-4.941,6.318l-6.264,7.176
		c-3.133,3.587-6.683,6.665-9.815,10.252l9.703,8.473c1.475-2.019,2.949-4.036,4.585-5.912l11.105-12.719
		C722.521,2417.041,724.25,2415.389,726.213,2413.797z"/>
	<path fill="#F2F9F4" d="M733.404,2462.174c4.88-6.084,10.078-12.037,15.202-17.906c2.492-2.854,3.984-6.868,4.652-10.594
		c3.128-16.092-5.374-34.003-14.297-46.822l-9.156,6.374c3.181,3.926,5.925,8.189,7.997,12.729c4.021,8.396,8.1,23.308,1.125,31.298
		c-4.911,5.626-9.823,11.253-15.061,16.593L733.404,2462.174z"/>
</g>
<g>
	<path fill-rule="evenodd" clip-rule="evenodd" fill="#F2F9F4" d="M261.86,1996.195c3.075-16.309-5.422-34.312-14.427-47.249
		l-9.24,6.433c3.21,3.962,5.979,8.265,8.07,12.845c4.057,8.473,8.174,23.521,1.134,31.584c-4.957,5.678-9.913,11.354-15.199,16.744
		l9.626,8.405c4.925-6.139,10.169-12.146,15.341-18.069C259.68,2004.006,261.187,1999.957,261.86,1996.195z"/>
	<path fill-rule="evenodd" clip-rule="evenodd" fill="#F2F9F4" d="M308.492,2005.298c-4.032-3.521-8.063-7.039-12.105-10.715
		c-2.479-2.31-5.194-4.679-7.314-7.399l-7.614,8.721c3.558,2.237,6.859,5.264,10.211,7.901c5.173,4.371,10.43,8.814,15.685,13.256
		l-8.261,9.465c-5.1,5.841-10.2,11.683-15.394,17.299c-2.729,3.126-6.023,7.064-9.257,9.607l10.614,9.267
		c2.688-3.744,5.623-7.271,8.474-10.87c5.07-6.306,10.375-12.548,15.69-18.638l7.183-8.227c3.466,3.171,7.015,6.415,9.68,10.336
		l7.758-8.886c-3.64-2.308-6.92-5.028-10.129-7.829L308.492,2005.298z"/>
	<path fill-rule="evenodd" clip-rule="evenodd" fill="#F2F9F4" d="M326.812,2056.668l-9.792-8.547
		c-1.713,2.13-3.19,4.319-4.986,6.377l-6.32,7.24c-3.162,3.619-6.745,6.728-9.905,10.346l9.792,8.551
		c1.488-2.037,2.976-4.073,4.627-5.965l11.206-12.837C323.086,2059.942,324.831,2058.276,326.812,2056.668z"/>
	<path fill-rule="evenodd" clip-rule="evenodd" fill="#F2F9F4" d="M354.104,2076.728c3.157-16.239-5.422-34.313-14.427-47.249
		l-9.24,6.433c3.21,3.962,5.979,8.264,8.07,12.844c4.057,8.473,8.174,23.521,1.134,31.584c-4.956,5.678-9.913,11.355-15.199,16.744
		l9.626,8.405c4.925-6.139,10.17-12.146,15.341-18.071C351.924,2084.539,353.43,2080.489,354.104,2076.728z"/>
	<path fill-rule="evenodd" clip-rule="evenodd" fill="#F2F9F4" d="M383.689,2114.446l3.54-4.884
		c-8.526-7.008-17.114-14.943-25.353-22.278l-3.662,5.355c6.87,5.419,13.535,11.236,20.116,16.982
		C380.141,2111.204,382.023,2112.702,383.689,2114.446z"/>
	<path fill-rule="evenodd" clip-rule="evenodd" fill="#F2F9F4" d="M430.823,2146.171c4.86-18.522-6.679-36.859-16.58-51.592
		l-9.381,8.916c1.573,1.521,3.148,3.04,4.65,4.64c-7.576,7.017-15.397,13.816-23.148,20.537c-8.777,7.56-15.679,9.654-26.462,4.733
		l-2.681,10.71c13.827,6.416,25.691,3.29,37.024-6.536c7.236-6.297,14.474-12.593,21.792-18.816
		c3.657,8.267,7.35,21.643,0.598,29.377l-3.448,3.949c-3.735,4.276-7.481,8.402-11.38,12.536l9.544,8.333
		c4.854-6.058,9.954-11.899,15.054-17.739C428.631,2152.667,430.036,2149.397,430.823,2146.171z"/>
	<path fill-rule="evenodd" clip-rule="evenodd" fill="#F2F9F4" d="M490.374,2161.042c-6.829-5.962-17.219-7.349-25.993-6.598
		c0.958-6.413-0.56-12.813-3.432-18.656l-11.259,2.931c5.93,9.816,3.38,17.885-3.731,26.031l-6.393,7.323
		c-4.239,4.854-8.63,9.72-13.198,14.285l9.874,8.62c3.323-4.637,6.978-8.988,10.712-13.266c4.382-5.021,9.32-9.844,12.878-15.582
		c6.42-1.209,17.867-1.365,23.133,3.233c3.374,2.943,3.079,6.603,2.19,10.61c-0.878,4.162-4.131,17.854-6.573,20.65
		c-2.515,2.879-6.801,1.312-9.957,0.443c-8.141-2.469-16.281-4.936-24.226-7.959l-2.041,13.299
		c8.169,0.608,15.868,3.414,23.608,5.676c7.658,2.19,16.331,3.383,22.149-3.281c5.245-6.005,6.988-17.967,8.479-25.656
		C498.188,2174.679,497.285,2167.077,490.374,2161.042z"/>
	<path fill-rule="evenodd" clip-rule="evenodd" fill="#F2F9F4" d="M513.956,2262.537c4.925-6.14,10.169-12.145,15.341-18.069
		c2.515-2.881,4.02-6.931,4.695-10.691c3.073-16.31-5.423-34.313-14.428-47.249l-9.241,6.433c3.211,3.962,5.979,8.264,8.07,12.845
		c4.058,8.473,8.174,23.52,1.135,31.583c-4.957,5.678-9.913,11.355-15.199,16.744L513.956,2262.537z"/>
</g>
<polygon fill="#F2F9F4" points="770,2330.111 743.333,2302.111 791.333,2235.444 "/>
<polygon fill="#F2F9F4" points="712.667,2284.777 693.333,2260.111 750,2191.444 "/>
<polygon fill="#F2F9F4" points="661.333,2236.777 654.667,2228.111 678.667,2200.777 "/>
<path fill="#F2F9F4" d="M460,2064.777l28.667-18.667c0,0-24.667-38.667-46.667-58s-35.333-29.333-35.333-29.333
	s7.333,27.999,20,52.666S460,2064.777,460,2064.777z"/>
<path fill="#F2F9F4" d="M492.667,2044.11c0,0-12-24.667-18-44s-10-48-10-48s19.333,16.666,34.667,35.333
	s29.333,34.667,29.333,34.667L492.667,2044.11z"/>
<polygon fill="#F2F9F4" points="539.334,2013.443 508.667,1932.11 569.334,1996.11 "/>
<polygon fill="#F2F9F4" points="588.667,1968.11 569.334,1924.777 604.667,1954.777 "/>
<polygon fill="#F2F9F4" points="644.667,1944.777 603.334,1890.11 660.667,1930.11 "/>
<polygon fill="#F2F9F4" points="681.334,1914.777 648.667,1874.777 699.334,1889.443 "/>
</svg>
