<?xml version="1.0" encoding="utf-8"?>
<!-- Generator: Adobe Illustrator 15.1.0, SVG Export Plug-In . SVG Version: 6.00 Build 0)  -->
<!DOCTYPE svg PUBLIC "-//W3C//DTD SVG 1.1//EN" "http://www.w3.org/Graphics/SVG/1.1/DTD/svg11.dtd">
<svg version="1.1" id="Layer_1" xmlns="http://www.w3.org/2000/svg" xmlns:xlink="http://www.w3.org/1999/xlink" x="0px" y="0px"
	 width="322.054px" height="431.53px" viewBox="0 0 322.054 431.53" enable-background="new 0 0 322.054 431.53"
	 xml:space="preserve">
<g>
	<path fill="#FFFFFF" d="M21.059,82.061l282.987-2.228v160.435c0,0-17.824,129.238-144.835,129.238
		c-60.443,0-89.979-24.709-108.168-50.242c-20.033-28.12-25.527-57.56-25.527-63.398c0-2.275-3.844-11.532-4.14-23.768
		C20.223,184.413,21.059,82.061,21.059,82.061"/>
	<path fill="#FCAF17" d="M142.277,256.133v24.171h24.17v13.09l35.859-30.854v-6.406H142.277z M165.98,273.293h-17.296V260.67h17.296
		V273.293z"/>
	<path fill="#FCAF17" d="M79.304,304.008v40.998l8.884,4.677l41-29.313v-16.361H79.304z M102.211,332.057H84.446v-21.504h17.766
		V332.057z"/>
	<path fill="#034EA2" d="M179.48,79.049h-38.875V33.694h38.875V79.049z"/>
	<path fill="none" stroke="#034EA2" stroke-width="5.184" stroke-miterlimit="3.864" d="M179.48,79.049h-38.875V33.694h38.875
		V79.049z"/>
	<polyline fill="#FFFFFF" points="145.786,71.922 145.786,42.116 152.915,40.82 152.915,68.034 145.786,71.922 	"/>
	<polyline fill="#FFFFFF" points="175.646,71.922 175.646,42.116 168.519,40.82 168.519,68.034 175.646,71.922 	"/>
	<polyline fill="#034EA2" points="204.75,34.99 322.054,34.99 309.068,71.923 219.003,71.923 204.75,34.99 	"/>
	<polyline fill="#034EA2" points="117.307,34.99 0,34.99 12.989,71.923 103.052,71.923 117.307,34.99 	"/>
	<polygon fill="#FFFFFF" points="3.888,388.118 20.087,365.439 20.087,388.118 	"/>
	<polygon fill="none" stroke="#153F91" stroke-width="2.204" stroke-miterlimit="3.864" points="3.888,388.118 20.087,365.439 
		20.087,388.118 	"/>
	<rect x="3.24" y="385.525" fill="#21409A" width="96.543" height="29.808"/>
	<polyline fill="#FFFFFF" points="23.894,409.915 20.269,409.915 20.269,401.749 13.292,401.749 13.292,409.915 9.665,409.915 
		9.665,391.469 13.292,391.469 13.292,398.834 20.269,398.834 20.269,391.469 23.894,391.469 23.894,409.915 	"/>
	<path fill="#FFFFFF" d="M39.588,400.834c0-1.738-0.298-3.174-0.893-4.312c-0.805-1.531-2.07-2.299-3.798-2.299
		c-1.735,0-3.007,0.764-3.812,2.287c-0.594,1.129-0.891,2.57-0.891,4.324s0.297,3.194,0.891,4.326
		c0.796,1.512,2.066,2.271,3.812,2.271c1.728,0,2.993-0.767,3.798-2.3C39.29,403.997,39.588,402.562,39.588,400.834 M43.357,400.834
		c0,2.602-0.637,4.781-1.913,6.535c-1.515,2.084-3.696,3.125-6.546,3.127c-2.848,0-5.029-1.039-6.546-3.115
		c-1.285-1.754-1.927-3.937-1.927-6.547c0-2.611,0.642-4.793,1.927-6.549c1.527-2.082,3.708-3.123,6.546-3.123
		c2.85,0,5.031,1.041,6.546,3.123C42.72,396.042,43.357,398.223,43.357,400.834z"/>
	<polyline fill="#FFFFFF" points="58.247,409.915 46.19,409.915 46.19,391.469 49.816,391.469 49.816,406.999 58.247,406.999 
		58.247,409.915 	"/>
	<path fill="#FFFFFF" d="M73.15,400.834c0-1.738-0.299-3.174-0.892-4.312c-0.806-1.531-2.071-2.299-3.798-2.299
		c-1.736,0-3.007,0.764-3.813,2.287c-0.594,1.129-0.89,2.57-0.89,4.324s0.296,3.194,0.89,4.326c0.796,1.512,2.067,2.271,3.813,2.271
		c1.727,0,2.992-0.767,3.798-2.3C72.851,403.997,73.149,402.562,73.15,400.834 M76.919,400.834c0,2.602-0.637,4.781-1.913,6.535
		c-1.516,2.084-3.698,3.125-6.546,3.127c-2.849,0-5.03-1.039-6.546-3.115c-1.285-1.754-1.928-3.937-1.928-6.547
		c0-2.611,0.643-4.793,1.928-6.549c1.524-2.082,3.706-3.123,6.546-3.123c2.848,0,5.03,1.041,6.546,3.123
		C76.282,396.042,76.919,398.223,76.919,400.834z"/>
	<polyline fill="#FFFFFF" points="93.779,409.915 90.212,409.915 83.091,397.064 83.091,409.915 79.465,409.915 79.465,391.469 
		83.018,391.469 90.154,404.145 90.154,391.469 93.779,391.469 93.779,409.915 	"/>
	<polygon fill="#153F91" points="95.895,403.668 99.783,386.111 117.277,386.111 	"/>
	<polygon fill="none" stroke="#153F91" stroke-width="2.204" stroke-miterlimit="3.864" points="95.895,403.668 99.783,386.111 
		117.277,386.111 	"/>
	<polygon fill="#FFFFFF" points="99.135,403.02 116.63,385.525 116.63,403.02 	"/>
	<polygon fill="none" stroke="#153F91" stroke-width="2.204" stroke-miterlimit="3.864" points="99.135,403.02 116.63,385.525 
		116.63,403.02 	"/>
	<polygon fill="#FFFFFF" points="195.677,403.668 195.677,386.174 212.525,403.02 	"/>
	<polygon fill="none" stroke="#153F91" stroke-width="2.204" stroke-miterlimit="3.864" points="195.677,403.668 195.677,386.174 
		212.525,403.02 	"/>
	<polygon fill="#153F91" points="196.328,386.174 305.941,386.174 305.941,417.273 211.23,417.273 211.23,403.668 	"/>
	<polygon fill="none" stroke="#153F91" stroke-width="2.204" stroke-miterlimit="3.864" points="196.328,386.174 305.941,386.174 
		305.941,417.273 211.23,417.273 211.23,403.668 	"/>
	<rect x="99.783" y="401.725" fill="#21409A" width="110.796" height="29.805"/>
	<path fill="#FFFFFF" d="M222.966,396.758c0.521-0.85,1.324-1.609,2.205-2.283c-1.201-0.467-2.283-1.023-3.207-1.697
		c-0.68,0.789-1.402,1.639-2.283,2.312C220.882,395.469,221.964,396.084,222.966,396.758 M230.625,405.186
		c-1.924,1.346-5.373,2.107-7.537,2.107c-3.045,0-5.371-0.586-5.371-2.459c0-0.789,0.441-1.697,1.082-2.719
		c0.359-0.529,0.119-0.765-0.162-0.765c-0.76,0-2.643,2.752-2.643,4.856c0,2.812,3.125,4.479,6.612,4.479
		c5.771,0,9.34-2.812,9.34-6.381c0-2.019-1.082-5.882-3.245-7.435l-1.484,2.898C228.863,401.413,230.103,403.225,230.625,405.186z"
		/>
	<path fill="#FFFFFF" d="M246.88,402.758c-0.48,0.146-1.002,0.205-1.482,0.205c-0.641,0-1.203-0.088-1.524-0.236
		c-0.24-0.73,0.723-1.783,1.285-1.783C245.757,400.943,246.72,401.909,246.88,402.758 M251.289,403.284
		c0-0.291-0.439-0.438-0.84-0.438h-1.765c-0.082-0.968-1.004-3.894-2.524-3.894c-2.045,0-5.173,3.746-5.173,5.033
		c0,1.58,1.443,2.342,5.412,2.049c-0.682,3.043-4.811,4.537-8.619,4.537c-3.647,0-4.489-1.289-4.489-0.205
		c0,0.498,2.807,3.275,5.453,3.275c3.325,0,7.936-2.545,9.539-7.607h1.846c0.479,0,1.16-0.234,1.16-0.438V403.284z"/>
	<path fill="#FFFFFF" d="M248.873,405.594c0,0.207,0.68,0.439,1.164,0.439v-0.058l-0.322,0.058c3.287,0,5.129-0.351,6.254-0.878
		c0.52-0.702,1.723-2.312,1.723-4.272c0-1.814-0.803-5.648-1.401-7.871c-0.402-1.551-0.121-2.254,1.041-3.043
		c-0.562-0.148-2.043-1.729-2.564-2.664c-0.481,0.525-1.324,1.26-2.004,1.873c0.803,1.346,0.842,3.746,1.24,6.057
		c0.401,2.195,1.164,4.947,1.164,5.678c0,1.375-1.363,1.932-3.006,1.932h-2.445c-0.4,0-0.842,0.146-0.842,0.439L248.873,405.594"/>
	<path fill="#FFFFFF" d="M272.544,402.758c-0.482,0.146-1.004,0.205-1.486,0.205c-0.639,0-1.199-0.088-1.521-0.236
		c-0.24-0.73,0.721-1.783,1.282-1.783C271.421,400.943,272.382,401.909,272.544,402.758 M276.953,403.284
		c0-0.291-0.439-0.438-0.841-0.438h-1.766c-0.08-0.968-1.002-3.894-2.525-3.894c-2.043,0-5.17,3.746-5.17,5.033
		c0,1.58,1.443,2.342,5.41,2.049c-0.682,3.043-4.809,4.537-8.619,4.537c-3.646,0-4.487-1.289-4.487-0.205
		c0,0.498,2.807,3.275,5.45,3.275c3.33,0,7.938-2.545,9.541-7.607h1.845c0.479,0,1.162-0.234,1.162-0.438V403.284z"/>
	<path fill="#FFFFFF" d="M274.693,405.594c0,0.207,0.683,0.439,1.162,0.439c2.484,0,3.849-0.293,7.256-1.785
		c2.285-1.023,7.654-2.254,13.269-1.9l1.404-2.781h-2.205c-7.298,0.029-11.066-2.693-13.789-2.693c-2.326,0-3.65,1.611-4.492,2.957
		c-0.199,0.353,0.121,0.496,0.563,0.381c1.041-0.293,2.164-0.438,3.285-0.438c1.883,0,3.89,0.586,5.531,1.142v0.059
		c-2.443,0.352-6.414,1.873-9.059,1.873h-2.084c-0.4,0-0.843,0.146-0.843,0.438L274.693,405.594"/>
	<rect x="109.78" y="409.118" fill="#FFFFFF" width="5.343" height="18.779"/>
	<rect x="123.915" y="409.116" fill="#FFFFFF" width="5.342" height="15.869"/>
	<polyline fill="#FFFFFF" points="138.682,407.139 144.024,407.139 144.024,409.118 157.295,409.118 157.295,419.331 
		151.588,424.987 144.586,424.987 151.953,417.82 151.953,413.538 138.682,413.538 138.682,407.139 	"/>
	<rect x="166.064" y="409.116" fill="#FFFFFF" width="5.342" height="15.869"/>
	<polyline fill="#FFFFFF" points="180.402,409.116 198.814,409.116 198.814,424.985 193.472,424.985 193.472,413.536 
		185.742,413.536 185.742,424.985 180.402,424.985 180.402,409.116 	"/>
	<polygon fill="#FFFFFF" points="116.63,34.341 108.854,2.592 210.582,2.592 204.101,34.341 	"/>
	<polygon fill="none" stroke="#034EA2" stroke-width="5.184" stroke-miterlimit="3.864" points="116.63,34.341 108.854,2.592 
		210.582,2.592 204.101,34.341 	"/>
	<path fill="#845339" d="M177.667,191.757l4.674-1.87c0,0,1.264,5.142,3.602,5.61c2.338,0.468,2.336,0.468,2.806-2.337
		c0.467-2.804,0-4.675,0-4.675l2.805-0.936c0,0-0.467,7.948,2.336,9.35c2.809,1.404,7.014,4.208,7.014,2.338
		c0-1.87-1.868-6.078-2.336-8.881c-0.469-2.807-0.936-6.546-0.936-6.546l1.869-0.935c0,0,0.469,10.285,5.61,12.154
		c5.144,1.87,10.752,7.013,15.896,7.948c5.143,0.935,10.146,3.273,10.613,0.935c0.467-2.337-2.479-4.675-4.675-6.545
		c-2.198-1.87-6.407-4.208-8.276-7.011c-1.871-2.807-5.142-4.676-5.609-6.546c-0.467-1.87-2.34-3.74-2.34-3.74l5.611-5.143
		c0,0,0.936,1.403,1.871,3.273c0.936,1.87,6.873,15.895,9.211,16.829c2.338,0.936,7.012,6.078,8.414,2.805
		c1.401-3.271,1.868-3.739,0.936-8.414c-0.936-4.675-2.805-7.48-3.74-9.818c-0.936-2.336-3.271-5.938-3.271-5.938h5.608
		c0,0,1.402,10.614,5.609,10.614s6.545,0.467,7.947-3.272c1.401-3.74,1.871-6.079,1.871-6.079l8.412,8.883
		c0,0-8.882-2.337-9.816,1.87c-0.934,4.207-4.207,8.883-1.869,11.219c2.338,2.338,9.35,6.078,13.092,8.883
		c3.738,2.805,7.479,4.675,7.479,4.675l-26.181,21.368c0,0-0.936-5.611-4.676-7.949c-3.737-2.338-9.68-0.467-14.354-2.807
		c-4.674-2.334-7.013-7.34-7.947-10.144c-0.934-2.805-0.467-2.338-5.609-3.272c-5.143-0.936-9.35,0-10.752-2.338
		c-1.401-2.338-2.805-5.142-5.143-5.142s-6.406,0-8.744-1.87C182.341,196.432,177.667,191.757,177.667,191.757"/>
	<polygon fill="#FFDA1E" points="107.215,275.631 166.914,275.631 166.914,292.461 129.654,320.372 129.654,302.605 
		107.215,302.605 	"/>
	<polygon fill="none" stroke="#FFDA1E" stroke-width="2.939" stroke-miterlimit="3.864" points="107.215,275.631 166.914,275.631 
		166.914,292.461 129.654,320.372 129.654,302.605 107.215,302.605 	"/>
	<rect x="114.227" y="283.579" fill="#FCAF17" width="16.362" height="11.688"/>
	
		<rect x="114.227" y="283.579" fill="none" stroke="#FCAF17" stroke-width="2.939" stroke-miterlimit="3.864" width="16.362" height="11.688"/>
	
		<rect x="136.061" y="283.579" fill="none" stroke="#FFDA1E" stroke-width="2.939" stroke-miterlimit="3.864" width="16.361" height="11.688"/>
	<rect x="136.061" y="283.579" fill="#FCAF17" width="16.361" height="11.688"/>
	
		<rect x="136.061" y="283.579" fill="none" stroke="#FCAF17" stroke-width="2.939" stroke-miterlimit="3.864" width="16.361" height="11.688"/>
	<polygon fill="none" stroke="#153F91" stroke-width="2.204" stroke-miterlimit="3.864" points="290.279,386.053 290.279,369.327 
		306.476,386.702 	"/>
	<path fill="none" d="M89.589,353.023l2.515-1.969c8.14-3.119,24.554-7.793,30.938-7.312c11.695,0.879,14.515,12.563,32.062,2.592
		c15.854-9.015,18.169,7.213,39.363-0.322c18.123-6.445,20.904,11.004,40.561-0.371c4.877-2.82,8.437-3.248,11.728-2.496
		C142.021,405,89.589,353.023,89.589,353.023 M259.236,334.322c-1.547,1.388-3.137,2.688-4.768,3.894
		c-20.82-9.918-22.574,9.768-39.723,1.896c-19.603-8.991-23.267,5.56-40.052-1.571c-18.576-7.896-21.186,4.164-31.436,4.26
		c-11.828,0.111-10.68-11.191-35.051-4.344l10.669-8.351c2.004-0.271,3.896-0.375,5.567-0.25c11.693,0.879,14.514,12.563,32.06,2.59
		c15.854-9.01,18.169,7.218,39.366-0.319c18.118-6.443,20.903,11.006,40.559-0.369C246.585,325.881,251.025,330.381,259.236,334.322
		z M288.701,290.443c-6.097,13.496-14.019,27.535-23.867,38.313c-3.271-1.313-5.834-2.895-8.453-4.186
		c-21.303-10.482-22.945,9.59-40.234,1.654c-19.6-8.996-23.264,5.557-40.049-1.574c-18.577-7.893-21.185,4.164-31.436,4.26
		c-7.473,0.07-9.768-4.414-16.59-6l40.736-31.873c6.662-2.94,17.541-6.451,24.549-5.924c11.693,0.881,14.515,12.564,32.06,2.592
		c15.854-9.012,18.17,7.213,39.364-0.322C276.134,283.348,281.466,288.688,288.701,290.443z M185.099,278.292l8.017-6.271
		c9.413,2.303,13.163,11.227,29.168,2.129c15.854-9.012,18.168,7.215,39.364-0.32c15.392-5.475,19.718,6.291,32.718,2.988
		c-0.816,2.131-1.685,4.318-2.603,6.539c-1.971-0.145-4.17-0.705-6.705-1.871c-19.602-8.994-23.264,5.559-40.049-1.572
		c-18.578-7.893-21.186,4.164-31.436,4.26C202.925,284.271,202.792,275.127,185.099,278.292z M199.609,266.938l45.545-35.637
		c10.043,1.953,13.535,11.678,30.009,2.316c12.891-7.33,16.83,2.028,29.247,1.731v9.631c0,0-2.188,9.463-6.711,22.64
		c-4.25,2.114-8.704,3.555-15.774,0.311c-19.601-8.996-23.262,5.555-40.047-1.576c-18.58-7.893-21.188,4.166-31.438,4.26
		C205.501,270.661,202.824,268.719,199.609,266.938z M251.851,226.061l5.719-4.477c7.209-2.799,22.119-5.419,28.869-4.914
		c7.574,0.57,11.428,5.672,17.971,6.486v4.699c-2.776,0.074-5.885-0.436-9.655-2.036c-18.58-7.894-21.185,4.165-31.435,4.263
		C258.058,230.129,255.365,227.922,251.851,226.061z M270.019,211.844l27.375-21.422l7.016-0.466V215.6
		C294.648,214.356,294.296,204.572,270.019,211.844z"/>
	<rect x="132.828" y="16.2" fill="#21409A" width="7.127" height="7.126"/>
	<rect x="156.153" y="16.2" fill="#21409A" width="7.131" height="7.126"/>
	<rect x="179.48" y="16.2" fill="#21409A" width="7.127" height="7.126"/>
	<rect x="187.904" y="1.945" fill="#21409A" width="7.127" height="7.127"/>
	<rect x="166.519" y="1.945" fill="#21409A" width="7.129" height="7.127"/>
	<rect x="145.786" y="1.945" fill="#21409A" width="7.129" height="7.127"/>
	<rect x="123.757" y="1.945" fill="#21409A" width="7.128" height="7.127"/>
	<rect x="217.414" y="42.694" fill="#FFFFFF" width="2.774" height="9.758"/>
	<polyline fill="#FFFFFF" points="221.843,42.693 231.515,42.693 231.515,48.642 229.222,50.938 221.843,50.938 221.843,48.642 
		227.878,48.642 228.74,47.772 228.74,44.99 221.843,44.99 221.843,42.693 	"/>
	<rect x="238.962" y="42.693" fill="#FFFFFF" width="2.776" height="3.567"/>
	<polyline fill="#FFFFFF" points="247.769,46.759 244.974,46.759 244.974,44.99 243.648,44.99 243.648,42.693 253.595,42.693 
		253.595,50.938 243.648,50.938 243.648,48.641 250.82,48.641 250.82,44.99 247.769,44.99 247.769,46.759 	"/>
	<polyline fill="#FFFFFF" points="261.24,41.666 264.015,41.666 264.015,42.693 270.912,42.693 270.912,48 267.945,50.938 
		264.308,50.938 268.134,47.216 268.134,44.991 261.24,44.991 261.24,41.666 	"/>
	<polyline fill="#FFFFFF" points="276.865,48.642 278.585,48.642 279.449,47.772 279.449,42.693 282.224,42.693 282.224,48.642 
		279.931,50.938 272.552,50.938 272.552,48.642 274.087,48.642 274.087,42.693 276.865,42.693 276.865,48.642 	"/>
	<polyline fill="#FFFFFF" points="294.033,46.759 291.24,46.759 291.24,44.99 289.912,44.99 289.912,42.693 299.859,42.693 
		299.859,52.764 297.083,52.764 297.083,44.99 294.033,44.99 294.033,46.759 	"/>
	<polyline fill="#FFFFFF" points="304.675,42.693 307.45,46.031 308.693,45.146 308.693,42.693 311.466,42.693 311.466,46.26 
		309.072,48 311.466,50.938 308.125,50.938 305.433,47.687 304.193,48.556 304.193,50.938 301.416,50.938 301.416,47.373 
		303.814,45.703 301.312,42.693 304.675,42.693 	"/>
	<polyline fill="#FFFFFF" points="10.853,41.666 13.628,41.666 13.628,42.693 20.523,42.693 20.523,48 17.559,50.938 13.921,50.938 
		17.748,47.216 17.748,44.991 10.853,44.991 10.853,41.666 	"/>
	<polyline fill="#FFFFFF" points="22.166,42.693 31.837,42.693 31.837,48.642 29.544,50.938 22.166,50.938 22.166,48.642 
		28.201,48.642 29.062,47.772 29.062,44.99 22.166,44.99 22.166,42.693 	"/>
	<path fill="#FFFFFF" d="M33.682,46.973h2.776v3.965h-2.776V46.973z M33.682,42.693h9.584v8.245h-2.792V44.99h-6.792V42.693z"/>
	<polyline fill="#FFFFFF" points="52.512,42.693 62.097,42.693 62.097,50.938 59.322,50.938 59.322,44.99 55.305,44.99 
		55.305,50.938 50.599,50.938 50.599,48.642 52.512,48.642 52.512,42.693 	"/>
	<rect x="63.627" y="42.693" fill="#FFFFFF" width="2.774" height="8.245"/>
	<polyline fill="#FFFFFF" points="68.04,42.693 77.003,42.693 77.003,50.938 74.228,50.938 74.228,44.99 68.04,44.99 68.04,42.693 	
		"/>
	<polyline fill="#FFFFFF" points="78.528,42.693 81.407,42.693 81.407,46.031 83.424,42.693 88.493,42.693 88.493,50.938 
		84.286,50.938 84.286,48.642 85.717,48.642 85.717,44.99 85.148,44.99 81.492,50.938 78.442,50.938 81.303,46.26 78.528,46.26 
		78.528,42.693 	"/>
	<polyline fill="#FFFFFF" points="90.383,41.666 93.159,41.666 93.159,42.693 100.055,42.693 100.055,48 97.089,50.938 
		93.452,50.938 97.279,47.216 97.279,44.991 90.383,44.991 90.383,41.666 	"/>
	<rect x="101.473" y="42.693" fill="#FFFFFF" width="2.775" height="8.245"/>
	<path fill="#009649" d="M279.162,146.081c-3.274-3.271-2.806-5.61-6.545-7.478c-3.74-1.87-11.082-0.469-14.82-3.273
		c-3.74-2.806-1.871-5.004-3.273-7.341c-1.402-2.338,11.688-2.338,16.693-1.871c5.002,0.469,5.607,0,6.076-2.804
		c0.467-2.806,0.467-4.207-3.273-6.546c-3.738-2.337-14.822-2.805-25.572-3.739c-10.754-0.935-44.741-6.545-53.153-8.415
		c-8.416-1.87-41.002-7.013-46.611-8.882c-5.61-1.87-34.925-3.74-40.534-3.74s-6.405,2.805-8.275,2.805s-1.402-0.467-3.273-1.402
		c-1.868-0.935-6.544-3.134-11.22-3.602c-4.674-0.468-7.947,2.199-11.22,3.134c-3.271,0.935-2.338,0-2.338,0l-6.544-2.199
		c-2.337-0.797-5.938,1.732-5.938,1.732s2.666,2.338,9.208,5.61c6.546,3.272,7.947,2.804,10.287,6.077
		c2.337,3.272-6.546,3.272-11.688,5.61c-5.143,2.337-9.679,11.22-12.952,13.557c-3.272,2.337-0.467,4.675,2.338,6.544
		c2.806,1.87,6.875-3.74,10.147-7.013c3.272-3.27,7.479-3.738,10.284-3.738c2.803,0,0.935,2.804-1.87,5.141
		c-2.805,2.339,0,0.468-0.467,3.741c-0.469,3.272,3.271,1.869,5.609,3.739s2.338,3.602,2.338,5.939s-1.402,1.403-4.207,1.403
		c-2.806,0-4.677,2.337-7.48,4.674c-2.806,2.337-6.078,3.273-11.082,4.208c-5.003,0.935-11.687,3.272-14.96,5.143
		c-3.271,1.869-1.401,4.675,0.469,7.948c1.869,3.271,2.805,1.868,6.077-1.404s9.351-4.675,11.549-4.675s0,2.806-1.402,6.079
		c-1.403,3.271-3.603,4.206-6.406,5.61c-2.805,1.401-1.87,4.673-2.338,7.478c-0.467,2.806,5.609-0.467,7.948-0.467
		c2.337,0,1.263,1.263,0.328,4.069c-0.936,2.804,1.87,1.869,3.739,1.869c1.871,0,7.948-3.272,14.492-5.938
		c6.545-2.666,6.545-0.934,7.481,2.199c0.932,3.134-6.546,5.61-8.884,9.349c-2.338,3.74,3.272,2.805,6.077,4.208
		c2.806,1.403,10.284,0.467,14.024,0c3.74-0.468,8.275-6.077,10.612-7.947c2.337-1.871,1.871,3.739-0.936,6.544
		c-2.804,2.806-2.336,3.74-1.401,6.078c0.937,2.337,7.013,0,11.221,0.468c4.208,0.467,1.401-1.403,3.74-5.143
		c2.337-3.74,4.674,0.936,8.882,1.87c4.208,0.936,5.61-1.403,8.883-3.74c3.271-2.338,9.68-6.077,12.951-5.61
		c3.271,0.468,1.871,4.676-2.806,7.947c-4.677,3.273-7.344,1.403-11.081,2.339c-3.739,0.934-2.806,3.74-1.87,7.012
		c0.934,3.272,9.68,0.467,17.158-0.468c7.48-0.936,5.144-0.936,8.882-2.338c3.74-1.402,2.805,0.935,3.74,3.273
		c0.935,2.337,1.869,0.468,7.013-4.208c5.143-4.674,8.417-4.674,11.688-5.141c3.274-0.469,3.602,0.934,5.938,0
		c2.34-0.936,2.34-3.74,2.34-3.74s4.207-0.936,6.076-1.404c1.868-0.467,4.206-3.739,10.754-4.206
		c6.543-0.469,6.543-3.273,8.414-6.079c1.868-2.804,5.141-0.467,9.211,0c4.07,0.469,8.881-0.467,11.688-1.729
		c2.802-1.263,4.675,0.934,9.816,2.666c5.143,1.731,5.608,7.012,8.883,7.012c3.273,0,9.35,1.404,14.354,1.404
		c5.002,0,2.336-5.61,2.336-10.615c0-5.003,4.677-3.273,8.418-3.74c3.738-0.467,4.207-6.077,4.207-13.09
		C287.111,149.823,282.433,149.354,279.162,146.081z M101.275,138.604c-2.338,0.934-6.075,2.804-9.815,1.401
		c-3.742-1.401-7.48-0.934-7.48-3.271c0-2.339,0.935-5.472,0.935-5.472l7.479-4.674c0,0,7.151,3.41,8.883,6.076
		C103.005,135.331,103.613,137.668,101.275,138.604z M117.499,135.331c-3.272,1.403-7.013,1.403-8.883,0.468
		c-1.869-0.935-6.077-4.537-6.077-4.537l-0.796-5.61l2.198-2.806c0,0,3.272,1.403,5.144,3.273
		C110.953,127.99,120.773,133.928,117.499,135.331z M142.277,135.799c-6.076,0.467-11.688,2.198-14.96-0.468
		c-3.271-2.667-7.012-6.875-7.012-6.875l-1.869-2.804c0,0-0.937,2.338-4.209,0.467c-3.272-1.87-5.609-4.674-3.739-5.141
		c1.87-0.469,3.739,3.271,7.013,1.868c3.272-1.401,8.883-3.738,12.154-3.27c3.271,0.466,12.295,8.414,13.559,10.751
		C144.475,132.664,148.355,135.331,142.277,135.799z M182.81,132.198c-3.74,1.729-11.221,2.666-13.09,2.197
		c-1.871-0.467-9.817-2.666-12.624-4.536c-2.803-1.869-6.077-3.74-7.946-6.077c-1.87-2.337-2.338-3.273-1.87-5.142
		c0.468-1.871,4.206-1.871,4.206-1.871s2.341,7.948,7.015,9.35c4.675,1.404,11.22,2.806,15.894,3.273
		C179.07,129.859,186.548,130.466,182.81,132.198z M214.461,137.202c-3.273,2.803-11.221,3.27-14.492,1.869
		c-3.271-1.403-4.674-3.272-6.547-3.272c-1.869,0-4.207-1.264-4.674-3.135c-0.468-1.87,0.467-6.545,0.467-6.545l5.611-2.337h2.338
		c0,0,10.282,2.337,12.623,5.143C212.123,131.729,217.732,134.395,214.461,137.202z M233.021,137.668
		c-0.467,1.87-2.668,4.675-6.406,3.74c-3.739-0.936-8.413-2.337-9.817-4.674c-1.4-2.339-3.271-7.809-3.271-7.809l1.869-2.337
		l1.869,2.804c0,0,5.281,5.939,8.883,6.407C229.75,136.266,233.49,135.799,233.021,137.668z M248.915,131.262
		c-0.467,2.666-2.804,9.21-2.804,9.21s-4.678-0.467-7.014-1.868c-2.338-1.402-7.479-2.944-9.35-5.144
		c-1.871-2.198-3.275-4.068-2.338-6.405c0.935-2.338,4.209-0.936,4.209-0.936s2.805,0,4.674,1.871
		c1.871,1.869,4.209,5.004,4.209,5.004l-0.469-6.406c0,0,0.936-3.742,3.271-1.871C245.644,126.588,249.384,128.596,248.915,131.262z
		"/>
	<g>
		<g>
			<defs>
				<path id="SVGID_1_" d="M90.135,352.479l2.515-1.969c8.14-3.119,24.554-7.793,30.938-7.312
					c11.696,0.879,14.515,12.564,32.062,2.592c15.853-9.014,18.168,7.213,39.364-0.322c18.121-6.444,20.904,11.005,40.562-0.37
					c4.877-2.82,8.436-3.248,11.725-2.496C142.567,404.456,90.135,352.479,90.135,352.479 M259.781,333.777
					c-1.547,1.388-3.135,2.688-4.766,3.894c-20.822-9.918-22.574,9.768-39.725,1.896c-19.601-8.991-23.265,5.56-40.049-1.571
					c-18.577-7.896-21.188,4.164-31.438,4.26c-11.828,0.111-10.68-11.191-35.051-4.344l10.669-8.351
					c2.004-0.271,3.896-0.375,5.568-0.25c11.692,0.879,14.513,12.563,32.058,2.59c15.855-9.01,18.171,7.218,39.366-0.319
					c18.121-6.443,20.903,11.006,40.559-0.369C247.13,325.336,251.57,329.836,259.781,333.777z M289.248,289.898
					c-6.097,13.496-14.019,27.535-23.867,38.313c-3.271-1.313-5.836-2.895-8.453-4.186c-21.303-10.482-22.945,9.59-40.234,1.654
					c-19.602-8.996-23.264,5.557-40.049-1.574c-18.579-7.893-21.186,4.164-31.437,4.26c-7.473,0.07-9.768-4.414-16.589-6
					l40.736-31.873c6.662-2.941,17.541-6.451,24.549-5.924c11.693,0.881,14.513,12.564,32.06,2.592
					c15.854-9.012,18.168,7.213,39.365-0.322C276.679,282.803,282.013,288.143,289.248,289.898z M185.646,277.747l8.017-6.271
					c9.412,2.303,13.162,11.227,29.168,2.129c15.854-9.012,18.168,7.215,39.364-0.32c15.39-5.475,19.716,6.291,32.718,2.988
					c-0.816,2.131-1.687,4.318-2.603,6.539c-1.973-0.145-4.172-0.705-6.705-1.871c-19.604-8.994-23.266,5.559-40.051-1.572
					c-18.576-7.893-21.184,4.164-31.436,4.26C203.47,283.727,203.337,274.583,185.646,277.747z M200.154,266.393l45.548-35.639
					c10.041,1.955,13.534,11.68,30.006,2.318c12.891-7.33,16.83,2.028,29.247,1.731v9.631c0,0-2.188,9.463-6.709,22.64
					c-4.251,2.114-8.706,3.555-15.774,0.311c-19.602-8.996-23.264,5.555-40.049-1.576c-18.578-7.893-21.187,4.166-31.438,4.26
					C206.046,270.116,203.371,268.174,200.154,266.393z M252.398,225.516l5.72-4.477c7.209-2.799,22.116-5.419,28.868-4.914
					c7.574,0.569,11.426,5.671,17.969,6.486v4.699c-2.774,0.074-5.885-0.436-9.655-2.036c-18.578-7.894-21.182,4.165-31.435,4.263
					C258.605,229.584,255.912,227.377,252.398,225.516z M270.566,211.299l27.375-21.422l7.014-0.466v25.644
					C295.195,213.812,294.841,204.027,270.566,211.299z"/>
			</defs>
			<linearGradient id="SVGID_2_" gradientUnits="userSpaceOnUse" x1="183.4602" y1="224.8774" x2="223.9483" y2="357.3079">
				<stop  offset="0" style="stop-color:#BC6729"/>
				<stop  offset="1" style="stop-color:#845335"/>
			</linearGradient>
			<use xlink:href="#SVGID_1_"  overflow="visible" fill="url(#SVGID_2_)"/>
			<clipPath id="SVGID_3_">
				<use xlink:href="#SVGID_1_"  overflow="visible"/>
			</clipPath>
			<linearGradient id="SVGID_4_" gradientUnits="userSpaceOnUse" x1="164.0686" y1="132.271" x2="256.4595" y2="434.468">
				<stop  offset="0" style="stop-color:#BC6729"/>
				<stop  offset="1" style="stop-color:#845335"/>
			</linearGradient>
			<polygon clip-path="url(#SVGID_3_)" fill="url(#SVGID_4_)" points="322.105,414.398 72.751,370.709 87.337,155.73 
				346.751,192.675 			"/>
		</g>
	</g>
	<path fill="#21409A" d="M147.082,373.002c-46.477,0-83.949-24.084-108.366-69.648c-18.251-34.059-22.739-67.565-22.921-68.975
		l-0.03-0.471V76.673h289.2v115.118h-7.348V84.02H23.111v149.637c0.42,2.96,5.262,34.928,22.177,66.406
		c23.388,43.523,57.636,65.592,101.794,65.592V373.002z"/>
</g>
</svg>
