<svg xmlns="http://www.w3.org/2000/svg" viewBox="269.435 57.892 67.952 99.753998" width="67.952003" height="99.753998">
  <path d="M310.562 97.349h12.475m-15.531 10.114h15.53m-39.98 10.504h39.98m-39.98 11.693h39.98m-24.376 10.417h8.898m-4.393-10.369v10.369m17.993-10.618v-11.492m-35.536 11.492v-11.675m6.302.25v-9.766m21.916-.805V97.349m7.318-13.958V80.16m-7.242 7.909v-4.678m-28.473.05V80.23m12.306 3.199v-3.091m12.606 3.053v-3.033m-19.958 3.083v4.549m-4.14 9.359v7.721m-3.201-7.721h10.473m-10.473-9.28h16.238m7.956-4.628h15.786m-39.98 0h20.122m6.845 4.489h13.579" style="fill:#0078be;fill-opacity:1;stroke:#0078be;stroke-width:.6992126;stroke-miterlimit:4;stroke-dasharray:none;stroke-opacity:1"/>
  <path d="M315.441 143.01c1.303-.709 2.552-1.115 3.188-1.267l.641-.058s3.209-.171 4.203-.201c1.024-.026 2.143-.148 2.45-.331l-.484.361c-.482.229-.715.351-1.729.426-1.277.076-2.558.058-4.493.203-.715.048-1.173.078-2.524.46-1.531.478-3.676 1.884-4.951 2.569 0 0 2.045-.843 2.936-.715v.354s-1.861-.308-3.52.813l-4.436 2.54-.11-.076 4.207-2.664c1.842-.99 1.411-2.114 1.411-2.114h.562c.183.53-1.202 1.76-1.202 1.76 1.172-.786 3.467-2.032 4.313-2.95.662-.814.662-1.089.767-1.552.28-1.161.251-1.924.427-2.688.129-.634.336-.769.739-1.066l.458-.202c-.301.144-.709.763-.785 1.373-.053.601-.35 2.584-.35 2.584l-.142.463c-.244.379-.604 1.038-1.81 1.826zm-30.32-9.459c-.026.604 1.295 1.259 1.295 1.259l3.378 2.015c.296.176.802.484.884 1.111.069.602.46 3.017.46 3.017s-.034.959 1.237 1.746c-.415-.379-.506-1.045-.69-1.668-.25-1.158-.326-2.493-.475-3.249-.159-.636-.335-.757-.741-1.032z" style="fill:#0078be;fill-opacity:1"/>
  <path d="M291.358 143.01c-1.325-.709-2.448-.94-3.059-1.068l-.794-.123s-3.181-.176-4.175-.203c-1.021-.053-2.063-.206-2.35-.38l.385.279c.482.229.688.354 1.732.427 1.27.081 2.553.058 4.466.203.736.053 1.196.077 2.552.46 1.5.478 3.638 1.883 4.92 2.568 0 0-2.04-.842-2.932-.714l.026.354s1.862-.308 3.516.817l4.417 2.534.128-.076-4.24-2.664c-1.838-.99-1.405-2.106-1.405-2.106h-.554c-.183.527 1.19 1.752 1.19 1.752-1.143-.786-3.462-2.032-4.274-2.95-.664-.809-.696-1.089-.793-1.552-.289-1.168-.262-1.924-.411-2.688-.152-.634-.328-.762-.736-1.067l-.46-.201c.304.154.587.788.66 1.397.054.611.413 2.539.413 2.539l.203.483c.222.379.605 1.038 1.778 1.826zm-7.737.723c.979 0 2.06.751 2.06.751l3.222 1.962c.276.165.789.462 1.766.48.977.056 4.843.251 4.843.251s.757-.078 2.015.505c-.745-.114-.89-.087-1.916-.193-1.841-.139-3.941-.139-5.163-.235-1.002-.076-1.197-.2-1.668-.416zm9.052-5.65c-.025.607 1.247 1.245 1.247 1.245l3.159 1.929c.29.164.764.482.838 1.066.075.613.433 2.952.433 2.952s-.023.929 1.174 1.687c-.385-.391-.481-1.028-.65-1.633-.235-1.13-.309-2.393-.45-3.157-.146-.577-.319-.706-.703-.995z" style="fill:#0078be;fill-opacity:1"/>
  <path d="M302.115 148.716c-1.193-.556-2.911-1.165-3.727-2.07-.659-.839-.684-1.111-.793-1.542-.273-1.162-.249-1.926-.396-2.714-.154-.605-.336-.727-.733-1.032l-.457-.227c.305.183.603.813.659 1.418.047.609.404 2.525.404 2.525l.207.484c.218.349.597 1.036 1.763 1.82l-.2.153c-1.321-.733-2.432-.938-3.042-1.07l-.779-.129s-3.171-.171-4.154-.226c-1.02-.026-2.052-.2-2.333-.377l.386.281c.467.255.676.355 1.714.432 1.265.098 2.527.051 4.434.229.732.046.635-.105 1.979.279 1.49.47 2.234 1.287 3.492 2.271zm-30.144-66.684c.546.58.422 1.911.422 1.911v3.755c0 .342 0 .896.521 1.509.501.604 2.453 3.071 2.453 3.071s.851.849.892 2.306c-.146-.607-.665-1.26-1.136-1.94-.897-1.24-2.032-2.472-2.633-3.274-.467-.651-.467-.87-.518-1.353v-5.985zm10.016.003c-.571.606-.455 1.992-.455 1.992v3.901c.025.354 0 .936-.494 1.565-.525.63-2.468 3.2-2.468 3.2s-.873.88-.904 2.399c.129-.635.654-1.314 1.142-2.02.886-1.289 2.021-2.571 2.625-3.396.472-.684.495-.91.552-1.417z" style="fill:#0078be;fill-opacity:1"/>
  <path d="m277.042 104.935.1-4.975c-.075-2.016 1.158-2.847 1.158-2.847l-.305-.299c-.581.402-.928 2.365-.928 2.365.075-1.438-.048-3.963.323-5.302.386-1.166.643-1.441.962-1.917.915-1.283 1.621-1.986 2.225-2.815.477-.68.477-.903.538-1.409l-.061-.501c.03.349-.372 1.107-.896 1.733-.507.629-2.06 2.64-2.06 2.64l-.322.581c-.208.501-.611 1.331-.681 2.792 0 0-.053-3.093.378-4.727 1.156-4.496-.406-10.107-.512-10.487v1.994c.232 1.677.885 4.925 0 9.397-.887-4.473-.201-7.72 0-9.397v-1.994s-1.692 5.833-.476 10.487c.434 1.634.354 4.727.354 4.727-.053-1.438-.456-2.291-.683-2.792l-.305-.581s-1.545-2.01-2.072-2.64c-.501-.626-.914-1.384-.914-1.733l-.049.501c.049.506.078.729.56 1.409.605.829 1.315 1.532 2.203 2.815.344.476.577.752.956 1.917.385 1.339.304 3.896.354 5.302 0 0-.354-1.962-.94-2.364l-.3.298s1.24.831 1.161 2.847l.11 4.975zm-5.071-14.091c.546.581.422 1.911.422 1.911v3.761c0 .34 0 .898.521 1.5.501.612 2.453 3.082 2.453 3.082s.851.846.892 2.302c-.146-.605-.665-1.258-1.136-1.945-.897-1.231-2.032-2.466-2.633-3.264-.467-.653-.467-.874-.518-1.358v-5.989zm10.016.003c-.571.61-.455 1.993-.455 1.993v3.913c.025.352 0 .923-.494 1.559-.525.629-2.468 3.192-2.468 3.192s-.873.885-.904 2.395c.129-.623.654-1.306 1.142-2.01.886-1.288 2.021-2.569 2.625-3.401.472-.677.495-.909.552-1.41z" style="fill:#0078be;fill-opacity:1"/>
  <path d="M276.836 103.664c-.054-1.453-.451-2.319-.683-2.828l-.306-.584s-1.54-2.041-2.071-2.675c-.499-.637-.907-1.4-.907-1.755l-.049.507c.049.507.072.746.555 1.43.611.835 1.312 1.552 2.198 2.853.354.482.58.762.96 1.929.383 1.356.304 3.945.36 5.379 0 0-.36-1.988-.94-2.397l-.299.303s1.24.843 1.159 2.877l.104 5.043h.123l.105-5.043c-.075-2.033 1.16-2.877 1.16-2.877l-.295-.303c-.59.408-.939 2.397-.939 2.397.075-1.453-.054-4.022.325-5.379.379-1.167.629-1.446.963-1.929.911-1.301 1.618-2.018 2.218-2.853.486-.685.486-.923.532-1.43l-.046-.507c.034.354-.385 1.118-.914 1.755a282.12 282.12 0 0 0-2.045 2.675l-.329.584c-.203.509-.611 1.349-.68 2.828zm-4.865-4.002c.546.583.422 1.915.422 1.915v3.754c0 .338 0 .893.521 1.504.501.599 2.453 3.08 2.453 3.08s.851.84.892 2.293c-.146-.601-.665-1.258-1.136-1.936-.897-1.234-2.032-2.472-2.633-3.268-.467-.658-.467-.877-.518-1.36v-5.982zm10.016.008c-.571.602-.455 1.987-.455 1.987v3.904c.025.354 0 .926-.494 1.562-.525.63-2.468 3.195-2.468 3.195s-.873.886-.904 2.388c.129-.623.654-1.304 1.142-2.008.886-1.288 2.021-2.566 2.625-3.395.472-.687.495-.912.552-1.412z" style="fill:#0078be;fill-opacity:1"/>
  <path d="M276.836 112.474c-.054-1.448-.451-2.311-.683-2.819l-.306-.588s-1.54-2.044-2.071-2.678c-.499-.632-.907-1.399-.907-1.751l-.049.506c.049.514.072.743.555 1.428.611.836 1.312 1.549 2.198 2.852.354.483.58.769.96 1.929.383 1.363.304 3.95.36 5.388 0 0-.36-1.999-.94-2.398l-.299.298s1.24.85 1.159 2.877l.104 5.051h.123l.105-5.051c-.075-2.027 1.16-2.877 1.16-2.877l-.295-.298c-.59.401-.939 2.398-.939 2.398.075-1.455-.054-4.025.325-5.388.379-1.16.629-1.445.963-1.929.911-1.302 1.618-2.015 2.218-2.852.486-.686.486-.915.532-1.428l-.046-.506c.034.353-.385 1.12-.914 1.751-.501.634-2.045 2.678-2.045 2.678l-.329.588c-.203.508-.611 1.346-.68 2.819zm-4.865-3.999c.546.581.422 1.911.422 1.911v3.757c0 .34 0 .897.521 1.509.501.598 2.453 3.072 2.453 3.072s.851.846.892 2.299c-.146-.602-.665-1.256-1.136-1.934-.897-1.239-2.032-2.474-2.633-3.274-.467-.653-.467-.874-.518-1.355v-5.985zm10.016.005c-.571.606-.455 1.99-.455 1.99v3.906c.025.352 0 .924-.494 1.56-.525.627-2.468 3.194-2.468 3.194s-.873.888-.904 2.392c.129-.629.654-1.312 1.142-2.006.886-1.299 2.021-2.58 2.625-3.403.472-.685.495-.909.552-1.412z" style="fill:#0078be;fill-opacity:1"/>
  <path d="M276.836 121.289c-.054-1.454-.451-2.314-.683-2.821l-.306-.585s-1.54-2.038-2.071-2.674c-.499-.635-.907-1.398-.907-1.762l-.049.507c.049.515.072.745.555 1.431.611.843 1.312 1.548 2.198 2.849.354.483.58.771.96 1.934.383 1.354.304 3.95.36 5.376 0 0-.36-1.988-.94-2.391l-.299.301s1.24.84 1.159 2.872l.104 4.645h.123l.105-4.645c-.075-2.032 1.16-2.872 1.16-2.872l-.295-.301c-.59.402-.939 2.391-.939 2.391.075-1.445-.054-4.022.325-5.376.379-1.161.629-1.45.963-1.934.911-1.301 1.618-2.006 2.218-2.849.486-.686.486-.916.532-1.431l-.046-.507c.034.363-.385 1.127-.914 1.762-.501.636-2.045 2.674-2.045 2.674l-.329.585c-.203.507-.611 1.345-.68 2.821zm-4.865-4.002c.546.579.422 1.911.422 1.911v3.755c0 .345 0 .9.521 1.511.501.605 2.453 3.07 2.453 3.07s.851.851.892 2.304c-.146-.605-.665-1.258-1.136-1.936-.897-1.239-2.032-2.474-2.633-3.273-.467-.654-.467-.874-.518-1.353v-5.989zm10.016.005c-.571.605-.455 1.989-.455 1.989v3.908c.025.35 0 .93-.494 1.556-.525.629-2.468 3.198-2.468 3.198s-.873.884-.904 2.392c.129-.629.654-1.306 1.142-2.014.886-1.285 2.021-2.568 2.625-3.395.472-.688.495-.91.552-1.413z" style="fill:#0078be;fill-opacity:1"/>
  <path d="M276.854 130.072c-.054-1.443-.46-2.309-.683-2.82l-.305-.577s-1.552-2.025-2.082-2.662c-.507-.628-.91-1.399-.91-1.747l-.063.506c.063.507.082.734.572 1.421.599.833 1.309 1.552 2.202 2.839.36.477.587.757.966 1.922.379 1.347-.606 2.228 2.612 5.63 0 0-1.748-1.626-2.664-1.826v.428s1.801.739 3.329 2.132c0 0 .533.508.887.78 1.013.763 3.226 2.255 3.226 2.255v-.122s-1.964-1.338-3.048-2.383l-.46-.449c-1.452-1.426-.715-3.229-.715-3.229l-.423-.021c-.342.737.148 2.282.148 2.282-2.49-2.638-2.413-4.131-2.029-5.478.38-1.165.629-1.445.96-1.922.921-1.287 1.631-2.006 2.235-2.839.489-.687.489-.914.534-1.421l-.045-.506c.017.348-.384 1.119-.923 1.747-.499.637-2.052 2.662-2.052 2.662l-.329.577c-.201.512-.608 1.346-.689 2.82h-.251zm58.013-48.037c-.572.606-.443 1.999-.443 1.999v3.909c.022.346 0 .926-.502 1.555-.525.63-2.468 3.206-2.468 3.206s-.875.88-.905 2.399c.129-.628.653-1.304 1.148-2.021.873-1.288 2.022-2.577 2.621-3.408.477-.684.502-.91.55-1.41v-6.229zm-10.016-.003c.543.58.427 1.911.427 1.911v3.755c0 .342 0 .896.519 1.509.496.604 2.448 3.071 2.448 3.071s.849.849.896 2.306c-.146-.607-.671-1.26-1.141-1.94-.893-1.24-2.028-2.47-2.631-3.274-.465-.651-.465-.87-.519-1.353z" style="fill:#0078be;fill-opacity:1"/>
  <path d="m329.798 104.935-.123-4.975c.099-2.016-1.141-2.847-1.141-2.847l.303-.299c.583.402.937 2.365.937 2.365-.099-1.438.023-3.963-.354-5.302-.378-1.166-.612-1.435-.968-1.917-.88-1.283-1.585-1.986-2.197-2.815-.475-.68-.5-.903-.548-1.409l.046-.501c0 .349.403 1.107.906 1.733.529.629 2.074 2.64 2.074 2.64l.307.581c.228.501.635 1.331.683 2.792 0 0 .075-3.094-.36-4.728-1.154-4.496.377-10.107.487-10.481v1.988c-.206 1.677-.885 4.925 0 9.397.881-4.473.222-7.72 0-9.397v-1.988s1.686 5.828.502 10.481c-.434 1.634-.381 4.728-.381 4.728.077-1.438.486-2.291.689-2.792l.326-.581s1.54-2.01 2.047-2.64c.529-.626.937-1.384.91-1.733l.051.501c-.051.506-.051.729-.531 1.409-.604.831-1.314 1.532-2.224 2.815-.333.483-.577.752-.958 1.917-.384 1.339-.283 3.897-.332 5.302 0 0 .354-1.962.935-2.365l.307.299s-1.271.831-1.166 2.847l-.105 4.975zm5.069-14.088c-.572.61-.443 1.998-.443 1.998v3.908c.022.36 0 .928-.502 1.565-.525.629-2.468 3.203-2.468 3.203s-.875.88-.905 2.396c.129-.631.653-1.313 1.148-2.023.873-1.281 2.022-2.569 2.621-3.403.477-.675.502-.909.55-1.402v-6.242zm-10.016-.003c.543.581.427 1.915.427 1.915v3.759c0 .339 0 .897.519 1.506.496.605 2.448 3.075 2.448 3.075s.849.846.896 2.301c-.146-.605-.671-1.257-1.141-1.946-.893-1.23-2.028-2.464-2.631-3.263-.465-.654-.465-.874-.519-1.358z" style="fill:#0078be;fill-opacity:1"/>
  <path d="M329.971 103.657c.08-1.452.483-2.32.686-2.828l.329-.589s1.545-2.038 2.045-2.672c.54-.641.942-1.411.909-1.761l.058.509c-.058.505-.058.734-.531 1.432-.605.839-1.321 1.55-2.225 2.851-.327.489-.584.762-.963 1.932-.377 1.357-.283 3.945-.33 5.39 0 0 .355-1.998.933-2.405l.306.309s-1.268.838-1.158 2.878l-.11 5.048h-.124l-.122-5.048c.106-2.04-1.141-2.878-1.141-2.878l.304-.309c.579.407.942 2.405.942 2.405-.106-1.454.016-4.032-.363-5.39-.372-1.17-.611-1.443-.964-1.932-.887-1.3-1.593-2.011-2.197-2.851-.478-.698-.5-.926-.549-1.432l.048-.509c0 .35.402 1.12.908 1.761.531.634 2.08 2.672 2.08 2.672l.303.589c.221.508.628 1.352.678 2.828zm4.896-3.987c-.572.602-.443 1.994-.443 1.994v3.905c.022.353 0 .926-.502 1.561-.525.624-2.468 3.194-2.468 3.194s-.875.885-.905 2.399c.129-.621.653-1.31 1.148-2.015.873-1.289 2.022-2.571 2.621-3.401.477-.684.502-.911.55-1.409V99.67Zm-10.016-.008c.543.583.427 1.915.427 1.915v3.754c0 .338 0 .893.519 1.504.496.605 2.448 3.08 2.448 3.08s.849.84.896 2.299c-.146-.608-.671-1.264-1.141-1.941-.893-1.234-2.028-2.472-2.631-3.268-.465-.658-.465-.877-.519-1.36z" style="fill:#0078be;fill-opacity:1"/>
  <path d="M329.971 112.469c.08-1.454.483-2.322.686-2.824l.329-.592s1.545-2.038 2.045-2.673c.54-.643.942-1.405.909-1.762l.058.508c-.058.517-.058.739-.531 1.438-.605.834-1.321 1.543-2.225 2.844-.327.49-.584.763-.963 1.935-.377 1.357-.283 3.953-.33 5.391 0 0 .355-1.994.933-2.409l.306.311s-1.268.843-1.158 2.884l-.11 5.045h-.124l-.122-5.045c.106-2.041-1.141-2.884-1.141-2.884l.304-.311c.579.415.942 2.409.942 2.409-.106-1.464.016-4.031-.363-5.391-.372-1.172-.611-1.445-.964-1.935-.887-1.302-1.593-2.009-2.197-2.844-.478-.699-.5-.921-.549-1.438l.048-.508c0 .354.402 1.119.908 1.762.531.635 2.08 2.673 2.08 2.673l.303.592c.221.502.628 1.347.678 2.824zm4.896-3.989c-.572.606-.443 1.99-.443 1.99v3.906c.022.355 0 .938-.502 1.563-.525.63-2.468 3.202-2.468 3.202s-.875.881-.905 2.393c.129-.621.653-1.305 1.148-2.012.873-1.284 2.022-2.574 2.621-3.403.477-.678.502-.91.55-1.41v-6.229zm-10.016-.005c.543.581.427 1.911.427 1.911v3.757c0 .34 0 .897.519 1.509.496.598 2.448 3.072 2.448 3.072s.849.846.896 2.307c-.146-.609-.671-1.264-1.141-1.939-.893-1.238-2.028-2.476-2.631-3.275-.465-.654-.465-.874-.519-1.354z" style="fill:#0078be;fill-opacity:1"/>
  <path d="M329.971 121.282c.08-1.456.483-2.317.686-2.822l.329-.596s1.545-2.038 2.045-2.673c.54-.64.942-1.404.909-1.759l.058.508c-.058.513-.058.746-.531 1.434-.605.839-1.321 1.545-2.225 2.854-.327.48-.584.766-.963 1.931-.377 1.353-.283 3.953-.33 5.385 0 0 .355-1.988.933-2.4l.306.302s-1.268.847-1.158 2.881l-.11 4.741h-.124l-.122-4.741c.106-2.033-1.141-2.881-1.141-2.881l.304-.302c.579.412.942 2.4.942 2.4-.106-1.453.016-4.032-.363-5.385-.372-1.165-.611-1.45-.964-1.931-.887-1.309-1.593-2.015-2.197-2.854-.478-.688-.5-.921-.549-1.434l.048-.508c0 .354.402 1.119.908 1.759.531.635 2.08 2.673 2.08 2.673l.303.596c.221.505.628 1.343.678 2.822zm-56.721 14.026c-1.251-1.563-1.306-5.618-1.306-5.618.846.604.562 1.138.689 1.894.233 1.404.415 2.355 1.069 3.345.568.856 1.361 1.183 2.355 1.411.973.229 4.89 1.388 4.89 1.388s1.524.249 2.727 1.257c-.618-.35-1.655-.634-2.706-.901-1.869-.531-4.01-.962-5.237-1.282-.996-.26-1.816-.644-2.481-1.494m8.191 7.082s-1.59-.892-2.527-1.462c-1.269-.743-3.017-2.179-3.017-2.179.862.174 1.853.988 1.853.988s.883.6 1.466.96a58.633 58.633 0 0 0 2.304 1.349c.279.166.833.39 1.84.439 1.021.021 5.016.23 5.016.23s1.568-.034 2.91.705c-.667-.239-1.751-.288-2.809-.367-1.898-.146-4.078-.17-5.338-.245-1.037-.093-1.213-.198-1.698-.418" style="fill:#0078be;fill-opacity:1"/>
  <path d="M281.441 142.39s-1.59-.892-2.527-1.462c-1.269-.743-3.017-2.179-3.017-2.179.862.174 1.853.988 1.853.988s.883.6 1.466.96a58.633 58.633 0 0 0 2.304 1.349c.279.166.833.39 1.84.439 1.021.021 5.016.23 5.016.23s1.568-.034 2.91.705c-.667-.239-1.751-.288-2.809-.367-1.898-.146-4.078-.17-5.338-.245-1.037-.093-1.213-.198-1.698-.418zm1.262-6.364c-.274-1.172-.057-1.35-.129-2.116-.05-.636-.146-1.32-.686-1.729l-.396-.685.125.706c.153.361.456.543.456 1.864 0 .609.103 1.935.103 1.935l.203.46c.225.384.378.997 1.555 1.783l-.123-.023c-1.165-.973-2.04-1.175-2.616-1.433l-.735-.28s-2.99-.841-3.968-1.09c-.983-.232-1.847-.692-2.499-1.454l.402.691.228.249c.397.336.604.487 1.556.763 1.241.359 2.447.617 4.259 1.18.707.202 1.153.305 2.36.963 1.362.791 3.5 2.114 4.76 2.831 0 0-2.01-.845-2.897-.717l.03.33s1.834-.276 3.471.818l4.354 2.546.122-.076-4.177-2.68c-1.814-.992-1.382-2.104-1.382-2.104h-.554c-.179.533 1.184 1.777 1.184 1.777-1.129-.815-3.427-2.058-4.225-2.981-.654-.818-.687-1.093-.781-1.528" style="fill:#0078be;fill-opacity:1"/>
  <path d="M283.438 133.046c-.109-.577-.262-.874-.425-1.04-1.024-1.139-.896-2.738-.92-3.373l.024-.925-.396.582c-.084 1.387-.018 2.699.71 3.787.221.217.524.724.583 1.33.047.587.361 2.75.361 2.75s-.028.889 1.071 1.665c-.348-.384-.439-1.013-.586-1.619-.245-1.118-.276-2.404-.422-3.157m39.747 10.687c-1.033 0-2.127.771-2.127.771l-3.363 2.004c-.275.179-.764.324-1.772.348-1.012.022-5.005.245-5.005.245s-1.601.129-2.94.88c.663-.249 1.747-.307 2.785-.402 1.929-.147 4.101-.228 5.361-.323 1.015-.076 1.217-.131 1.7-.352zm-9.042-5.65c0 .622-1.24 1.256-1.24 1.256l-3.23 2.005c-.299.17-.854.412-.946 1.037-.08.583-.448 3.013-.448 3.013s-.163 1.177-1.107 1.677c.432-.449.548-1.064.652-1.66.228-1.105.315-2.42.488-3.183.117-.593.313-.715.677-1.007z" style="fill:#0078be;fill-opacity:1"/>
  <path d="M307.91 147.557c1.301-.736 2.418-1.092 3.053-1.216l.763-.133s3.228-.171 4.225-.226c1.074-.05 2.088-.123 2.372-.306l-.458.36c-.46.25-.684.346-1.703.428-1.271.099-2.548.046-4.484.228-.714.046-1.173.046-2.515.463-1.535.474-4.003 2.003-5.276 2.717 0 0 1.864-.666 3.054 0l-.251.554s-1.47-1.01-3.159-.103l-3.259 2.185-1.297-.737s2.108-.843 3.465-1.472l.765-.505c1.244-1.32.531-4.319.531-4.319l.739-.024c.413 2.436-.71 4.188-.71 4.188 1.161-.813 3.763-2.057 4.604-2.972.668-.839.668-1.117.757-1.555.288-1.159.263-1.923.443-2.709.122-.613.327-.747.712-1.044l.477-.228c-.299.176-.71.683-.757 1.295-.048.634-.386 2.768-.386 2.768l-.127.384c-.257.354-.606 1.038-1.808 1.825zm26.933-30.265c-.57.605-.447 1.989-.447 1.989v3.914c.023.35 0 .931-.501 1.561-.525.626-2.465 3.2-2.465 3.2s-.874.878-.906 2.392c.13-.627.655-1.313 1.15-2.016.872-1.28 2.02-2.571 2.618-3.4.475-.684.499-.908.551-1.41zm-10.018-.005c.543.579.426 1.911.426 1.911v3.755c0 .345 0 .9.519 1.511.494.605 2.45 3.07 2.45 3.07s.846.851.898 2.304c-.153-.605-.671-1.258-1.137-1.936-.896-1.239-2.034-2.474-2.639-3.273-.466-.655-.466-.874-.518-1.354z" style="fill:#0078be;fill-opacity:1"/>
  <path d="M329.932 130.062c.075-1.441.482-2.309.686-2.823l.329-.571s1.553-2.034 2.061-2.675c.523-.629.938-1.387.91-1.747l.054.514c-.054.499-.054.732-.533 1.409-.609.842-1.322 1.561-2.236 2.848-.328.479-.583.764-.969 1.929-.384 1.342.612 2.233-2.584 5.636 0 0 1.754-1.626 2.663-1.831v.433s-1.8.739-3.323 2.13c0 0-.537.508-.889.787-1.016.76-3.226 2.251-3.226 2.251v-.124s1.943-1.338 3.024-2.381l.456-.449c1.449-1.433.71-3.234.71-3.234l.426-.016c.336.733-.122 2.283-.122 2.283 2.468-2.646 2.389-4.143 2.003-5.484-.378-1.166-.611-1.45-.961-1.929-.896-1.287-1.603-2.006-2.202-2.849-.49-.676-.521-.91-.562-1.41l.041-.513c0 .36.411 1.117.917 1.746.536.642 2.083 2.675 2.083 2.675l.304.573c.232.515.635 1.352.688 2.822zm3.149 4.862c-.561.854-1.354 1.185-2.35 1.407-.973.227-4.849 1.389-4.849 1.389s-1.55.252-2.725 1.264c.574-.36 1.649-.634 2.668-.908 1.894-.524 4.037-.958 5.26-1.282.993-.257 1.794-.636 2.448-1.493 1.257-1.563 1.306-5.61 1.306-5.61-.835.599-.56 1.138-.683 1.887-.239 1.411-.414 2.363-1.075 3.346" style="fill:#0078be;fill-opacity:1"/>
  <path d="M324.118 136.026c.25-1.177.122-1.372.171-2.163.049-.644.153-1.299.679-1.735l.438-.66-.127.688c-.176.382-.453.562-.453 1.862 0 .612-.183 1.986-.183 1.986l-.201.458c-.252.384-.403.995-1.557 1.783l.121-.024c1.136-.972 2.016-1.181 2.599-1.433l.73-.279s3.046-.842 4.006-1.099c.976-.226 1.837-.684 2.522-1.447l-.417.691-.224.25c-.423.335-.624.487-1.588.763-1.22.359-2.455.617-4.274 1.18-.703.193-1.13.305-2.37.962-1.339.792-3.507 2.115-4.765 2.832 0 0 2.022-.845 2.895-.717v.33s-1.837-.277-3.472.818l-4.381 2.545-.102-.075 4.156-2.688c1.814-.985 1.386-2.097 1.386-2.097h.559c.17.532-1.187 1.776-1.187 1.776 1.154-.815 3.445-2.063 4.252-2.98.658-.817.658-1.092.787-1.527" style="fill:#0078be;fill-opacity:1"/>
  <path d="M323.79 133.45c-.069.584-.377 2.723-.377 2.723s.046.897-1.083 1.681c.35-.387.467-1.027.595-1.633.245-1.115.292-2.397.447-3.131.107-.587.316-.928.462-1.1 1.072-1.166.936-2.739.936-3.394v-.928l.379.585c.083 1.41.012 2.69-.714 3.816-.206.215-.604.774-.645 1.381" style="fill:#0078be;fill-opacity:1"/>
  <path d="M337.386 129.818c-.126 2.447.928 7.569-9.026 13.387l-24.986 14.441-24.983-14.441c-9.913-5.819-8.81-11.104-8.934-13.538l1.765-.747c.128 2.445-1.338 7.488 8.585 13.345l23.567 13.587 23.583-13.587c9.941-5.855 8.455-10.899 8.578-13.345l.033-50.224h-64.369l.053 52.251-1.817.251.022-53.37h67.93z" style="fill:#0078be;fill-opacity:1"/>
  <path d="M310.429 87.373c-.409-.823-.741-1.617-1.201-2.209h-.098c-.234 1.282.328 2.388.943 3.101l.156-.072c.176-.313.2-.82.2-.82m-5.727 12.837c-.182 2.051-.694 3.414-.24 4.393l.158.076c.101-.495.308-.896.612-1.281h.083c-.188.715-.468 1.637-.515 2.94l-.152.156c-1.486-1.333-.85-4.077 0-6.284zm-2.357-.612c-.184 1.928-.232 2.078.078 3.92l.153.129c.354-.201.436-.717.611-1.095l.129.046c-.129.978-.33 1.748-.537 2.669l-.233.075c-1.637-2.359-.97-3.769-.25-5.744zm5.91-.822c-.255.822-1.229 2.465-1.019 3.926l.176.158c.54-.127.629-.694.932-1.104l.12.026c-.161.607-.464 1.434-1.076 2.948l-.177-.111c-1.058-2.587-.471-3.302.969-5.842zm-7.481-1.02c-.205 1.08-.77 3.311-.251 3.973h.158c.202-.589.436-1.072.843-1.591l.129-.016c-.285 1.195-.701 1.934-.77 3.165l-.202.057c-1.594-1.875-1.154-3.408.026-5.557zm5.454-.177c-.386.993-1.246 2.124-.66 4.072l.153.153c.209-.023.274-.563.507-.891l.128-.03.048.096c-.176.471-.45 1.753-.562 2.155l-.145.03c-1.259-1.36-.77-3.717.385-5.538zm3.309-.849c-.053.972-.72 2.254-.489 2.868l.154.053.434-.432.104.051c-.154.362-.61 1.171-.867 1.644l-.185.012c-.666-1.63 0-2.527.77-4.173zm-5.709.232c-.618 1.713-.794 2.689-.363 3.51l.21.1.586-.74.079.051c-.133.613-.641 1.545-.846 2.203l-.156.054c-.993-1.644-.944-3.339.417-5.176zm-4.563-1.357c-.275 1.412-1.328 3.432-.812 4.481l.203.051c.591-1.18.769-1.302.994-1.461l.134.075c-.537 1.081-.646 1.44-1 3.054l-.178.128c-.639-.953-1.154-2.687-.72-3.84.306-.874.744-1.648 1.284-2.418zm8.423-.111c-.508 1.236-1.07 2.028-.924 3.464l.086.104c.453-.153.453-.386.74-.617l.153.104c-.232.435-.647 1.103-.947 1.996h-.154c-.823-1.66-.13-3.662.972-4.992zm-5.19-.535c-.385 1.362-1.253 2.767-.694 3.741l.156-.102c.256-.507.538-.813.865-1.147l.127-.028c-.127.331-.378.948-.558 1.352-.154.315-.386.744-.492.978l-.202-.021c-1.203-1.825-.376-3.468.618-4.669zm3.019-.665c-.535 1.335-1.056 2.203-.774 3.561l.135.133c.379-.08.54-.408.843-.646h.099c-.154.489-.787 1.458-1.149 1.849l-.209-.098c-.61-2.129-.302-2.797.905-4.668zm5.475-.056c-.282.808-.995 2.289-.563 2.493l.336-.257.105.079c-.161.515-.362.79-.642 1.15l-.156.024c-.437-1.508.258-2.279.817-3.555zm-2.073-.451c-.256.841-.74 1.971-.559 2.79l.103.153c.279-.075.353-.313.56-.538l.13.048c-.106.233-.257.643-.411.922l-.513.745-.189.024c-.861-1.276.038-2.886.832-4.226zm-8.187-.269c-.311.957-1 2.187-.792 3.212l.152.071c.354-.304.591-.768.996-1.043l.159.024c-.386.896-.879 1.532-1.281 2.406l-.135-.023c-.892-1.002-.302-2.792.769-4.563zm3.12-.378c-.256.946-.641 1.906-.48 2.643h.176c.355-.201.385-.513.812-.823l.103.153c-.279.616-.89 1.415-1.146 1.751l-.206-.023c-.435-.697-.844-1.55.646-3.701zm6.127-1.333c-.032.813-.369 1.435-.32 2.406l.158.134c.356-.134.436-.384.668-.693l.12.076c-.176.508-.433.949-.736 1.613l-.158.029c-.741-.949-.255-2.93.184-3.548zm-2.825 0c-.485 1.356-.816 2.43-.816 3.951l.226.024c.354-.263.354-.561.771-.798l.129.061c-.206.536-.746 1.067-1.149 1.581h-.232c-.646-1.581-.056-3.312.973-4.897zm-4.937-.232c-.54 1.484-.616 1.045-.616 2.596l.126.123c.463-.208.568-.641 1.131-.776l.049.061-.793.978-.459.764-.309.023c-.571-1.532-.228-2.563.717-3.693zm1.248-1.9c-.094.77-.687 1.822-.326 2.406l.199.086c.307-.263.417-.722.77-.978l.099.027c-.099.248-.328.897-.531 1.282l-.433.64-.231-.034c-.973-1.433-.185-2.331.327-3.349zm4.742.128c-.051.972-.489 1.899-.256 3.512l.127.086c.457-.214.643-.902.995-1.321l.081.063c-.081.637-.667 1.741-1.155 2.43l-.202-.047c-.702-1.444-.358-2.315.281-4.724zm-2.639-.157c-.231 1.088-1.176 2.468-.866 3.622l.068.103c.438.121.775-.439 1.073-.696l.152-.024c-.122.665-.868 1.563-1.117 1.876l-.158.071c-.562-.713-.665-1.563-.403-2.517.175-.736.561-1.482 1.142-2.454zm5.198-.451c.106 1.02-.458 2.252.458 2.711l.104.081-.104.607-.153.11c-1.301-.561-.739-2.291-.41-3.51h.105zm-4.428-1.083c-.056 1.045-.384 2.028-.11 3.048l.128.081c.409-.152.648-.565.948-.899h.134c-.181.696-.721 1.418-1.125 1.87l-.209.056c-.921-1.106-.336-2.664.1-4.075zm2.479-.739c.026 1.223.103 2.046.411 3.152l.182.209c.433-.112.408-.52.664-.931l.081.081c-.055.595-.206 1.178-.542 1.741l-.179.078c-.945-.513-.969-2.385-.745-4.33zm-4.198-.982c-.461 2.001-.413 2.59-.279 3.236l.12.098c.49-.123.572-.594.875-.946l.122.026a6.783 6.783 0 0 1-.997 1.929l-.199.018c-.463-.411-.924-1.947.199-4.361zm-.612-.179c.128.519-.513 2.797-1.486 4.359-.28.361-.483.716-1.077.821l-.075-.074c.206-.906.926-1.202 1.457-2.125.256-.464.618-1.105 1.054-2.9zm2.372-.536c0 .619.063 1.131-.506 2.564l-.152.081a2.35 2.35 0 0 1-.641-2.18l.152.025c.025.488 0 .919.336 1.177h.153c.176-.153.304-1.101.507-1.645zm.495-.25c.28 1.507-.079 2.872.589 3.273h.182c.179-.226.355-.586.483-1.02l.175.049c0 .844-.2 1.363-.504 1.973l-.287.101c-1.331-1.249-.922-2.667-.771-4.376zm-7.168-.439 1.002-.073.275.176c.183.281-.251.558-.768.813l-.146.568c-.362.03-.643-.687-.6-1.154zm8.637-.177c.168.482.25 1.433.087 2.15l-.153.079c-.92-.538-.943-.953-.943-1.822l.054-.127c.227.437.28.874.634 1.1l.134-.048c.099-.443.051-.849.122-1.281zm-2.348-2.512c.978-.236 1.516 1.309.978 2.126-.207.307-.304.409-.635.593-.465.253-.949.433-1.538.714l-.13-.128.362-.647c.385-.095 1.25-.454 1.434-.713.152-.207.408-1.076-.128-1.409-.519-.301-.85.752-1.387.752-.715 0-.592-.367-.331-.385.484-.089.769-.78 1.375-.903M289.16 105.37c-.442-.386-.634-.722-1.178-1.076-.128-.083-2.585-.239-2.972-.06-.411.182-.734.426-.943.874l-.158.616c-.075.231-.179.648-.105 1.075h.079l.57-.588 1.514-.046.024.537c-.343.074-1.088-.025-1.357.074l-.723.688c-.027.111.053.747.031 1.031-.031.278-.058.613 0 .839h.07l.642-.586 1.49-.047v.541c-.34.068-1.032-.029-1.306.068l-.851.623-.076.147a72.305 72.305 0 0 0-.105 1.562c.105.383.49-.151.647-.403.811.074 1.538.093 2.172.153h.337l.28-.262c.28-.243.328-.586.875-.658.558 0 1.298.028 1.577-.153.277-.185.277-.546.517-.776.61-.533 1.454-.805 2.405-1.301 2.008-1.057 2.766-.694 5.244-2.546l1.181-.765.383.466c-.744.537-1.868 1.329-1.868 1.329.379 1.485 1.38 2.382 2.633 3.716.847 1.008 3.689 3.077 5.042 3.461-1.252.646-3.862 2.412-5.967 4.383-1.555 1.492-3.474 3.048-3.683 4.208-.28 1.437.668 3.939 1.671 6.785l.223.646-.153.306-.459.178c-.816.152-2.044.023-2.564.286-.507.25-1.026.745-1.219.945-.257.251-.745 1.486-.797 2.815l.228.183.336-.36c.049-.031.617-.231 1.075-.126.33-.851.489-1.821 1.258-1.794l.201.132c.025.177-.72.563-.825 1.817l.185.206c.198-.058.329-.443.64-.467.562-.077.713-.03 1.534-.03l.078-.067c.05-.822.203-.982.306-1.253l.585.093c-.202.386-.383.441-.383 1.771.031.079.127.228.41-.159l.431-.383c.699-.069 1.692.085 2.047-.154.208-.099.825-.864 1.184-1.281l.257-.563c.072-.457.281-1.434.409-2.094-.974-1.386-.896-3.716.054-4.743.892-1.002 2.098-1.18 4.47-2.125-.536-.749-1.149-1.906-1.173-3.369l.637.059c.029.719.284 1.562.567 2.075.44.973 1.204 1.922 2.101 2.669.74.613 3.07 1.894 3.07 2.229 0 .401.25 1.563.25 3.15-.098.592-1.426.665-2.423.89-.512.262-1.073.775-1.258.983-.256.259-.737 1.486-.816 2.816l.232.18.328-.355c.065-.025.642-.231 1.107-.136.327-.843.484-1.821 1.253-1.787l.177.121c.057.184-.689.567-.817 1.818l.176.21c.232-.051.336-.438.641-.459.593-.082.744-.025 1.556-.025l.081-.08c.03-.816.207-.969.28-1.258l.587.108c-.203.382-.386.432-.386 1.766.061.077.135.233.421-.149l.448-.387c.677-.08 1.445.072 1.801-.156.506-.616.712-.844 1.178-1.543l.053-.201c0-.176-.182-1.354-.287-2.382-.098-1.329.105-2.667.233-3.56l-.025-.512c-.458-.823-1.153-1.593-1.659-4.69-.186-.897-.112-2.105.327-2.797l.282-1.131c0-.358-.026-.691-.026-1.171l.154-.158c1.563-.026 3.039-.74 3.761-1.33.489-.389 1.102-1.466 1.229-2.084.304-1.434.304-2.87-.152-5.164-.289-1.438-.354-2.696-.466-3.827-.175-2.104-.279-3.923-.099-6.435 0-.329.075-.513.154-.872a2.3 2.3 0 0 0 1.196-1.666l.44-2.211c.179-.814-.69-2.329-1.458-2.434l-.594-.077c-.74-.179-1.888 1.074-1.965 1.875l-.256 2.227c-.129.769.128 1.492.615 1.954 0 .54-.08.635-.129 1.204 0 0-.304 3.365-.206 5.514.048 1.082.104 1.685.231 2.767.112.921.231 1.434.36 2.365.154.707.131 1.375.154 1.965.024 1.734-.514 2.946-2.463 3.286-.736.147-1.41.091-1.587.047-.209-.183-.383-.873-.892-1.153-2.639-1.588-3.536-2.077-4.073-4.313-.866-3.636-.538-5.587 1.387-10.397.098-.924.455-1.62.483-2.205.205-2.362.865-2.902-.74-6.956-.417.392-.383 1.36-.721 1.186-.587-.745-.971-1.34-1.148-2.36-.232-1.176-.053-1.672-.127-2-.082-.129-.491-.564-.876-.851-.413-.274-.096-.715-.15-1.1-.128-.841-.979-1.226-1.691-1.043-.535.121-.686.587-1.31.817-.536.179-3.374.715-3.374.715-.566.047-.948 0-1.43.25a1.967 1.967 0 0 0-.826 1.082c-.046.154-.769.514-1.253.457h-.328c-.44.158-.72.257-1.105.408l-.153.231c0 .204.129.802.206 1.463l.331.518.183.147c.122.678.122.593.33 1.155l.232.059c.459-.134 1.556-.695 2.792-.181l.149.208c.129.353.153.789.1 1.098l-.178.279-.354.128c-1.053 0-1.338.05-2.438-.128 0 .692-.018 1.59.36 1.7.441.092 1.18.067 1.18.067 0 .569-.128.928.146 1.367.292.208.898-1.079 1.929-1.673l.048.104c-.384.719-1.765 2.491-1.916 2.518-.54-.522-.54-1.241-.54-2.028-.797.689-1.104 1.586-.693 3.053.285-.106.537-.568.845-.717l.18.1c-.54.585-.54 1.592-1.025 1.538-.388-.536-.534-1.251-.565-1.875l-.207.082c-.329.641-.714 2.307-.432 3.437l.126.072c.281-.402.364-1.098.69-1.386l.21.061c-.284.562-.818 1.973-.852 3.02l-.071.204c-.77-1.074-.923-3.285-.256-4.946-1.125.379-1.589 0-2.743-.584 0 0-.77-.571-1.245-.903l-3.873-2.823c0-.801.03-1.635-.56-2.077-.33-.232-3.286-.182-3.61-.128l-.816.793c-.081.227-.179 1.082-.105 1.515h.075l.567-.592 1.129-.05.018.539c-.338.08-.69-.032-.972.08l-.743.641c-.051.227-.149 1.071-.105 1.509h.079l.545-.587 1.154-.061v.544c-.342.081-.696-.023-.948.081l-.723.591c-.051.225-.148 1.082-.105 1.513h.079l.545-.583 1.154-.058 1.124.898 1.764.122c.433.775 1.278 1.258 2.048 2.003 1.026.776 3.607 3.258 4.323 3.566l1.464-.952.354.434c-.738.536-1.972 1.416-1.972 1.416-2.96 2.383-3.835 2.337-5.343 3.409zm-4.799-41.936.274.023c.146.354.019.857.374 1.037.244.122 1.351.696 2.063 1.16l.401.447.122.636c-.149 1.515-1.146 3.229-2.312 4.544l-.701-.13-.024-.204.403-.482c.243-.477.798-1.006.798-1.963l-.249-.631c-.549-.377-1.821-1.086-2-1.183l-.444-.306.024-.631c.222-.528.399-1.317 1.271-2.317m4.996-5.485.098-.057.456.458c.384.391 1.187.817 1.444 1.044l.071.151c-.024.315-.129 1.125-.305 1.583l-.179.177c-.128.605-.171 1.167-.07 2.522 0 .176.096.581.576.555.937 0 3 .025 4.363.049.726 0 .83.334.83.334.336.356.483 1.467.081 2.745-.098.377-.25.683-.506 1.293-.331.764-1.993 1.887-.88 3.689.168.28.046.306.046.33-.628.792-1.636 1.989-1.636 1.989l-.078.05-.104-.03c-.165-.435-.605-1.064-.653-1.804l.047-.255c.354-.813.966-1.366 1.467-2.313l.053-.125c.479-.968.556-2.221.325-2.906-.104-.274-.475-.479-.78-.479-3.251-.029-4.143.157-4.539-.46-.33-.507-.429-1.044-.407-1.724.022-.736-.175-1.05.102-1.708.277-.651.563-1.148.685-1.953l-.104-.134c-.555-.148-.984-.434-1.113-.71-.152-.533.532-2.286.71-2.311m11.6 5.154.054.482c.227.731 2.127 1.01 2.663 1.617.083.081.208.179.176.482-.093 1.062-.385 1.32-.886 2.108l-.229.123c-1.034-.58-.563 2.911-.25 4.285l.176.032.152-.378c1.34-3.353 3.146-8.395 3.146-8.395l.127-.13.183.079c.656.582 1.643 1.167 2.101 1.44l.209.232.048.249c0 .437-.208 1.348-.409 2.21l-.25.205c-.764-.256-1.198-.657-2.033-1.067 0 0-1.32 3.246-2.084 5.348l.105.176c1.747.079 3.047-.305 4.142-.507.507-.199.529-.326.781-.53.426-.379 1.52-1.519 1.882-3.018.224-.939-.562-1.059-.663-1.952-.071-.483.101-.812.278-1.217.384-.707.89-1.617 1.27-1.817l.23.072c.083.177-.054 1.191.428 1.651.457.425 1.121.785 1.326 1.441.195.764-.513 1.823-1.021 2.323l-.757.082s-.764 1.63-1.325 2.539c-.653 1.092-1.98 2.657-1.98 2.657-.408.41-4.719.817-7.564.817-.3 0-.203-.158-.3-.181-.433-3.445-.514-4.685-.457-4.935.046-.28.477-1.228 1.211-2.466-.828-.233-1.548-.837-1.945-1.368l-.082-.252c.232-.942.861-2.283 1.292-2.435h.255zm15.704.179.326.118.023.588c-.023.28.221.535.378.587 1.691.629 2.094.781 2.265.988.476.539.374 1.418.374 3.169v4.312c-.196.862-1.296 1.958-1.77 2.334l-.152-.128-.052-.355c.03-1.215.03-4.464.03-6.11-.03-.31-.129-.937-.554-1.039-1.497-.361-2.023-.943-2.063-1.047-.35-.449-.228-.756-.097-1.236.114-.535.693-1.549 1.292-2.181m6.468.073.25.227c-.047.281-.072.816.458 1.172h4.336l.732.074c.58.258.958 1.167.983 1.37.154 1.567-.025.607.128 4.72.026.835.026 2.406.052 2.559l-1.813 2.105-.129-.055c-.203-.53 0-4.382-.203-7.301l-.25-.636-.582-.25c-3.054-.052-3.937-.052-4.244-.052-.348-.023-1.16-.579-1.265-.863-.145-1.066 1.119-2.915 1.547-3.07m10.125.233.298.095c.047.307-.097 1.014.228 1.161.291.155 1.434.831 2.08 1.264l.351.501c.15 1.715-.821 4.091-2.238 5.068l-.095.031c-.74-.334 1.073-1.442.794-3.132-.497-.451-1.289-.886-1.596-1.009-.392-.151-1.067-.781-1.143-1.128-.123-.555-.047-1.263 1.321-2.851m-8.856 75.724-.794.053c-.377.014-.684.332-.669.675v.047a.677.677 0 0 0 .711.625l.845-.027c.385-.022.693-.337.676-.693v-.039c-.006-.345-.373-.646-.764-.636l-.022.279c.267-.008.476.17.489.391l-.467.439-.688.022-.508-.391.475-.426.715-.029h.043zm-12.704 2.003-.07.515c-.059.352.197.717.531.771h.045a.67.67 0 0 0 .751-.571l.117-.539c.042-.366-.215-.726-.57-.785l-.017.006c-.356-.061-.722.218-.776.592l.269.077.472-.39.339.524-.071.425-.484.396-.331-.538.075-.417.004-.041zm7.695-4.726-.068.513c-.054.356.196.717.53.775h.051c.351.048.684-.2.748-.571l.11-.541c.044-.366-.212-.724-.561-.785l-.025.01c-.348-.066-.722.216-.774.587l.269.08.466-.391.344.527-.08.42-.475.402-.332-.536.076-.424.006-.042zm-24.877 4.726.069.515a.676.676 0 0 1-.546.771h-.043a.676.676 0 0 1-.757-.571l-.11-.539a.714.714 0 0 1 .569-.785l.025.006c.354-.061.724.218.782.592l-.27.077-.477-.39-.349.524.075.425.489.396.328-.538-.064-.417-.018-.041zm-7.098-4.422.068.513a.69.69 0 0 1-.546.775h-.042a.682.682 0 0 1-.757-.574l-.111-.537c-.047-.367.208-.729.57-.786l.022.01c.357-.068.728.215.782.587l-.266.079-.479-.392-.348.524.074.421.49.405.327-.54-.064-.419-.018-.042zm-12.277-41.188-.489-.609c-.235-.288-.683-.336-.958-.122l-.035.025a.68.68 0 0 0-.104.944l.5.658c.239.296.675.354.962.122l.027-.019c.286-.216.335-.688.096-.986l-.24.148-.04.622-.634-.11-.426-.547.036-.628.629.116.437.557.021.031zm2.878 0 .489-.609a.694.694 0 0 1 .944-.122l.031.025c.278.224.342.658.11.944l-.499.658c-.247.296-.666.354-.959.122l-.017-.019c-.289-.216-.318-.688-.098-.986l.243.148.042.622.624-.11.415-.547-.036-.628-.622.116-.425.557-.027.031zm-2.878 8.815-.489-.612c-.235-.286-.683-.337-.958-.124l-.035.025a.694.694 0 0 0-.104.955l.5.651c.239.292.675.356.962.122l.027-.019c.286-.214.335-.685.096-.989l-.24.146-.04.629-.634-.116-.426-.542.036-.622.629.109.437.554.021.03zm2.878 0 .489-.612c.227-.286.671-.337.944-.124l.031.025a.696.696 0 0 1 .11.955l-.499.651c-.247.292-.666.356-.959.122l-.017-.019c-.289-.214-.318-.685-.098-.989l.243.146.042.629.624-.116.415-.542-.036-.622-.622.109-.423.554-.027.03zm-2.878 8.816-.489-.618c-.235-.28-.683-.338-.958-.116l-.035.023a.682.682 0 0 0-.104.946l.5.658c.239.289.675.349.962.12l.027-.022c.286-.213.335-.688.096-.98l-.24.14-.04.628-.634-.115-.426-.543.036-.623.629.116.437.557.021.03zm2.878 0 .489-.618c.227-.28.671-.338.944-.116l.031.023a.684.684 0 0 1 .11.946l-.499.659c-.247.288-.666.348-.959.119l-.017-.022c-.289-.213-.318-.688-.098-.98l.243.14.042.628.624-.116.415-.542-.036-.623-.622.115-.423.556-.027.031zm-2.878 8.809-.489-.61c-.235-.287-.683-.337-.958-.121l-.035.022a.687.687 0 0 0-.104.949l.5.659c.239.292.675.353.962.121l.027-.027c.286-.213.335-.682.096-.979l-.24.144-.04.623-.634-.109-.426-.534.036-.638.629.115.437.547.021.038zm2.878 0 .489-.61c.227-.287.671-.337.944-.121l.031.022a.688.688 0 0 1 .11.949l-.499.659c-.247.292-.666.353-.959.121l-.017-.027c-.289-.213-.318-.682-.098-.979l.243.144.042.623.624-.109.415-.534-.036-.638-.622.115-.423.547-.027.038zm-2.091 9.179-.646-.46c-.303-.21-.751-.146-.964.141l-.022.034c-.21.291-.156.724.139.935l.676.503a.711.711 0 0 0 .973-.145l.016-.024c.222-.289.13-.744-.172-.973l-.193.202.116.605-.636.067-.554-.407-.136-.617.642-.051.569.416.035.024zm3.371-.387.177-.765c.088-.36.454-.594.793-.514l.034.013c.34.09.578.455.494.816l-.158.807c-.095.364-.459.612-.807.518l-.031-.011c-.342-.073-.575-.489-.501-.861l.275.036.304.542.506-.353.146-.671-.297-.56-.502.372-.152.689-.006.034zm51.606-35.232.483-.609a.703.703 0 0 1 .952-.122l.029.025c.268.226.331.658.11.944l-.501.658c-.244.296-.671.354-.957.122l-.023-.019c-.29-.216-.325-.688-.092-.986l.238.148.047.622.618-.11.415-.547-.029-.626-.624.115-.427.556-.027.031zm-2.88 0-.495-.609c-.233-.288-.678-.336-.954-.122l-.038.025a.691.691 0 0 0-.109.944l.505.658c.246.296.68.354.974.122l.023-.019c.28-.216.326-.688.093-.986l-.239.148-.046.622-.633-.11-.421-.547.029-.628.638.116.434.557.02.031zm2.88 8.815.483-.612a.706.706 0 0 1 .952-.124l.029.025a.717.717 0 0 1 .11.955l-.501.651c-.244.293-.671.356-.957.122l-.023-.019c-.29-.214-.325-.685-.092-.989l.238.146.047.629.618-.116.415-.542-.029-.622-.624.109-.427.554-.027.03zm-2.88 0-.495-.612c-.233-.286-.678-.337-.954-.124l-.038.025a.704.704 0 0 0-.109.955l.505.651c.246.293.68.356.974.122l.023-.019c.28-.214.326-.685.093-.989l-.239.146-.046.629-.633-.116-.421-.542.029-.622.638.109.433.554.02.03zm2.88 8.816.483-.618c.23-.28.669-.338.952-.116l.029.023a.705.705 0 0 1 .11.946l-.501.659c-.244.288-.671.348-.957.119l-.023-.022c-.29-.213-.325-.688-.092-.98l.238.14.047.628.618-.116.415-.542-.029-.623-.624.115-.427.556-.027.031zm-2.88 0-.495-.618c-.233-.28-.678-.338-.954-.116l-.038.023a.693.693 0 0 0-.109.946l.505.659c.246.288.68.348.974.119l.023-.022c.28-.213.326-.688.093-.98l-.239.14-.046.628-.633-.116-.421-.542.029-.623.638.115.433.556.02.031zm2.88 8.809.483-.61a.702.702 0 0 1 .952-.121l.029.022a.71.71 0 0 1 .11.949l-.501.659c-.244.292-.671.353-.957.123l-.023-.028c-.29-.214-.325-.683-.092-.98l.238.144.047.623.618-.109.415-.535-.029-.637-.624.115-.427.546-.027.039zm-2.88 0-.495-.61c-.233-.287-.678-.337-.954-.121l-.038.022a.697.697 0 0 0-.109.949l.505.659c.246.292.68.353.974.123l.023-.028c.28-.214.326-.683.093-.98l-.239.144-.046.623-.633-.109-.421-.535.029-.637.638.115.433.546.02.039zm-11.24 21.973-.8.047c-.373.017-.679.339-.673.681v.042a.685.685 0 0 0 .721.624l.843-.024c.384-.025.695-.337.677-.698v-.035c-.01-.352-.378-.637-.763-.637l-.023.274c.269-.004.476.174.489.393l-.466.445-.694.025-.502-.391.475-.426.718-.039h.041zm-26.556.028.789.04c.366.019.672.343.655.684v.045a.668.668 0 0 1-.698.62l-.833-.021c-.375-.026-.681-.338-.662-.698v-.033c.006-.352.364-.642.743-.636l.025.273-.475.391.449.444.688.024.492-.388-.462-.436-.706-.03h-.041zm-7.439-4.576.79.046a.696.696 0 0 1 .653.683v.042a.679.679 0 0 1-.711.623l-.829-.022c-.373-.026-.681-.337-.663-.696l.007-.039c0-.345.361-.636.746-.629l.011.271-.469.39.458.446.678.022.5-.391-.464-.431-.709-.03h-.042zm26.136 11.002-.651-.448a.717.717 0 0 0-.961.154l-.024.03a.687.687 0 0 0 .16.935l.68.493c.316.201.747.148.968-.163l.017-.026c.215-.286.118-.736-.188-.962l-.191.206.123.598-.629.081-.561-.397-.146-.617.635-.063.578.402.04.035zm21.323-17.573.629-.452a.697.697 0 0 1 .945.138l.023.032c.208.282.157.722-.133.927l-.652.509c-.312.212-.734.154-.952-.14l-.019-.025c-.225-.291-.141-.747.152-.979l.194.205-.109.611.628.059.545-.402.129-.618-.636-.052-.558.421-.035.021zm-2.344-1.665-.19-.771c-.085-.354-.465-.587-.799-.507l-.041.013a.677.677 0 0 0-.483.812l.182.81c.099.368.467.605.814.517l.023-.015c.356-.071.572-.479.495-.853l-.282.028-.292.551-.52-.361-.151-.671.293-.555.505.367.165.689.006.035zm-23.327 12.971-.181-.767c-.093-.358-.471-.594-.804-.511l-.046.013c-.333.081-.564.447-.482.809l.185.813c.097.367.462.605.812.52l.022-.013c.356-.075.575-.485.494-.858l-.273.03-.297.548-.52-.36-.156-.671.294-.556.509.368.163.689.005.035zm-23.563-79.876-.561-.204c-2.313-.048-5.838-.048-7.516-.048-.576 0-.937-.097-.937-.097-.311-.181-.257-.818-.311-1.173l-.153-.176-.203.151c-1.164 1.546-1.295 2.39-.908 3.274l.146.256.28.177c.663.281 1.508.074 1.725.105l.078.123-.17.456-.741.693c-.206.199-.358.604-.409.969-.098.935-.098 2.002-.098 2.871 0 .891-.107 1.608.379 2.161.452.502 7.037.177 8.402.044l.489-.252c.293-.344.628-.91.911-1.621 0-.052.105-1.554.105-2.115.001-2.669.105-4.271-.508-5.594m-1.183 7.248c.019.232-1.846.338-3.641.332-.915 0-1.854-.028-2.563-.075l-.281-.312c-.104-.708-.233-3.079-.023-4.269l.127-.46.396-.174.432.013.045-.013c.787-.152 3.248-.074 4.547-.055.412 0 .511 0 .792.229.372.337.372 4.608.169 4.784" style="fill:#0078be;fill-opacity:1"/>
  <path d="M321.695 133.56c0 .594-1.27 1.241-1.27 1.241l-3.293 2.058c-.295.169-.802.494-.874.96-.08.595-.447 3.023-.447 3.023s-.165 1.289-1.108 1.715c.383-.369.511-1.014.65-1.641.263-1.135.319-2.445.491-3.191.125-.623.31-.746.677-1.02zm3.624 8.48c-.28.176-.831.274-1.853.324-.981.021-5.022.218-5.022.218s-1.578.107-2.915.846c.66-.246 1.75-.295 2.786-.374 1.917-.146 4.091-.172 5.362-.244 1.008-.103 1.211-.205 1.696-.425 0 0 1.59-.886 2.552-1.456 1.235-.744 3.01-2.179 3.01-2.179-.86.169-1.881.988-1.881.988s-.885.604-1.463.965c-.873.548-2.272 1.337-2.272 1.337" style="fill:#0078be;fill-opacity:1"/>
</svg>
