<?xml version="1.0" encoding="utf-8"?>
<!-- Generator: Adobe Illustrator 15.0.0, SVG Export Plug-In . SVG Version: 6.00 Build 0)  -->
<!DOCTYPE svg PUBLIC "-//W3C//DTD SVG 1.1//EN" "http://www.w3.org/Graphics/SVG/1.1/DTD/svg11.dtd">
<svg version="1.1" id="Layer_1" xmlns="http://www.w3.org/2000/svg" xmlns:xlink="http://www.w3.org/1999/xlink" x="0px" y="0px"
	 width="272.449px" height="310.204px" viewBox="0 0 272.449 310.204" enable-background="new 0 0 272.449 310.204"
	 xml:space="preserve">
<g>
	<polygon fill="#AE6119" points="18.718,149.346 70.157,89.985 75.533,90.145 129.05,149.065 	"/>
	<polygon fill="none" stroke="#000000" stroke-width="0.046" stroke-miterlimit="22.926" points="18.718,149.346 70.157,89.985 
		75.533,90.145 129.05,149.065 	"/>
	<polygon fill="#AE6119" points="254.248,149.346 202.807,89.985 197.432,90.145 143.915,149.065 	"/>
	<polygon fill="none" stroke="#000000" stroke-width="0.046" stroke-miterlimit="22.926" points="254.248,149.346 202.807,89.985 
		197.432,90.145 143.915,149.065 	"/>
	<polygon fill="#FFF200" points="73.521,85.548 131.862,16.604 140.113,16.187 198.227,86.609 138.926,152.437 134.109,152.437 	"/>
	<polygon fill="none" stroke="#000000" stroke-width="0.046" stroke-miterlimit="22.926" points="73.521,85.548 131.862,16.604 
		140.113,16.187 198.227,86.609 138.926,152.437 134.109,152.437 	"/>
	<g>
		<defs>
			<rect id="SVGID_1_" x="6.201" y="8.016" width="260.936" height="296.801"/>
		</defs>
		<clipPath id="SVGID_2_">
			<use xlink:href="#SVGID_1_"  overflow="visible"/>
		</clipPath>
		<path clip-path="url(#SVGID_2_)" fill-rule="evenodd" clip-rule="evenodd" fill="#00AB66" d="M133.324,220.939l-6.598,62.146
			c4.879,7.623,11.476,7.965,17.386,0l-5.568-62.146H133.324 M130.561,220.534l-6.94,59.358l-12.502-14.6l14.22-44.759H130.561z
			 M141.06,220.27l6.822,59.361l12.289-14.6l-13.977-44.762H141.06z M122.415,220.857l-13.879,41.635l-8.313-9.721l16.658-31.914
			H122.415z M148.943,220.596l13.641,41.639l8.173-9.723l-16.377-31.916H148.943z M114.595,220.318v-4.189l-27.071,20.854
			l10.41,12.471L114.595,220.318z M156.693,220.063v-4.193l26.608,20.852l-10.232,12.469L156.693,220.063z M122.447,200.184h3.407
			v8.008h3.341l-0.023-3.002c-0.008-1.777,0.732-3.452,2.014-4.596l-5.263-11.425h-1.378v-2.183h21.403v2.183h-1.38l-5.381,11.688
			c1.098,1.11,1.872,2.686,1.882,4.563l0.027,2.771h3.308v-8.008h3.406v18.507h-3.406v-8.003h-3.285l0.03,2.964
			c0.022,3.18-3.54,4.79-5.862,4.79c-2.81,0-6.039-1.852-6.05-4.623l-0.024-3.131h-3.358v8.003h-3.407V200.184z M136.125,197.885
			v1.272c0.395,0.075,0.79,0.2,1.176,0.374l4.775-10.362h-13.658l4.729,10.265c0.4-0.143,0.822-0.246,1.266-0.302v-1.247
			c-0.842-0.338-1.44-1.166-1.44-2.131c0-1.264,1.031-2.295,2.297-2.295s2.298,1.031,2.298,2.295
			C137.566,196.719,136.968,197.547,136.125,197.885"/>
		<path clip-path="url(#SVGID_2_)" fill-rule="evenodd" clip-rule="evenodd" fill="#00539F" d="M193.257,241.709l-4.052-2.955
			L143.892,292c-5.941,7.01-10.099,7.352-16.351,0L82.85,239.306l-4.191,2.437l48.883,56.201c5.977,6.873,10.201,6.734,16.351,0
			L193.257,241.709 M160.732,185.648c-1.526-0.38-3.039-0.757-4.552-1.134c2.008-3.544,4.031-7.088,6.044-10.638
			c2.011-3.549,4.023-7.098,6.037-10.642c0.641-1.128,0.489-1.716-0.457-1.755c-2.823-0.115-5.645-0.235-8.455-0.348
			c-1.841,3.574-3.68,7.152-5.513,10.725c-1.831,3.568-3.668,7.139-5.506,10.708c-2.188-0.544-4.38-1.087-6.567-1.631
			c0.825-1.774,1.648-3.562,2.472-5.341c0.71,0.127,1.431,0.258,2.146,0.392c0.869-1.813,1.729-3.626,2.593-5.437
			c0.866-1.811,1.738-3.621,2.61-5.434c1.136-1.377,2.298-2.762,3.478-4.162c-0.487-0.018-0.975-0.041-1.454-0.063
			c0.866-1.817,1.729-3.639,2.587-5.458h19.648c1.916,0,2.239,1.105,0.941,3.29c-2.664,4.497-5.352,8.979-8.023,13.467
			C166.089,176.678,163.401,181.168,160.732,185.648 M187.502,182.771c-1.683,2.385-3.5,4.24-5.437,5.559
			c-1.908,1.298-3.511,1.775-4.852,1.437c-4.132-1.034-8.253-2.067-12.387-3.095c1.357-2.184,2.719-4.365,4.067-6.553
			c0.992,0.185,1.987,0.369,2.99,0.551c1.762-2.779,3.528-5.557,5.288-8.336c1.764-2.78,3.533-5.557,5.303-8.334
			c0.79-1.236,0.738-1.878-0.128-1.914c-0.574-0.025-1.151-0.049-1.716-0.071c1.361-2.195,2.711-4.39,4.064-6.582h6.391
			c1.88,0,2.052,1.208,0.482,3.603c-2.467,3.763-4.949,7.51-7.427,11.267c-2.472,3.754-4.944,7.512-7.416,11.263
			c1.03,0.192,2.072,0.385,3.11,0.579c1.536,0.283,3.157-0.817,4.859-3.308c1.613-2.362,3.227-4.731,4.847-7.093
			c1.616-2.365,3.229-4.734,4.85-7.104c0.91-1.328,0.893-2.016-0.085-2.057c-0.518-0.021-1.041-0.041-1.562-0.066
			c1.572-2.359,3.157-4.722,4.731-7.084h6.391c1.913,0,1.959,1.292,0.156,3.866c-2.741,3.916-5.501,7.824-8.26,11.737
			C193.008,174.944,190.264,178.857,187.502,182.771 M216.431,180.752c-3.729,4.734-7.588,8.368-11.509,10.858
			c-3.834,2.438-7.26,3.251-10.342,2.489c2.036-2.702,4.082-5.405,6.129-8.11c1.71,0.315,3.579-0.185,5.608-1.493
			c2.059-1.328,4.074-3.259,6.021-5.787c3.234-4.19,6.476-8.386,9.712-12.581c1.195-1.546,1.323-2.341,0.379-2.38
			c-5.093-0.211-10.19-0.426-15.283-0.633c1.852-2.557,3.697-5.119,5.528-7.682h20.798c1.913,0,1.708,1.499-0.626,4.468
			c-2.733,3.479-5.467,6.96-8.206,10.433C221.906,173.806,219.167,177.283,216.431,180.752 M182.029,205.479
			c-1.344-0.494-2.697-0.99-4.041-1.484c4.069-5.586,8.145-11.176,12.206-16.784c4.067-5.604,8.132-11.214,12.191-16.825
			c1.8,0.154,3.601,0.305,5.4,0.457c-4.285,5.782-8.575,11.564-12.873,17.342C190.62,193.957,186.327,199.727,182.029,205.479
			 M227.258,202.271c-6.352-1.59-12.686-3.18-19.025-4.771c2.359-2.94,4.708-5.877,7.073-8.82c4.49,0.833,8.982,1.661,13.48,2.492
			c3.296-3.934,6.594-7.867,9.891-11.801c3.298-3.939,6.591-7.868,9.892-11.807c1.469-1.754,1.721-2.657,0.754-2.695
			c-4.829-0.203-9.65-0.406-14.466-0.605c2.356-2.941,4.703-5.885,7.055-8.831h20.007c0.859,0,1.152,0.47,0.9,1.389
			c-0.256,0.922-1.033,2.148-2.318,3.664c-4.475,5.268-8.96,10.537-13.432,15.797c-4.473,5.26-8.939,10.534-13.423,15.791
			c0.672,0.129,1.344,0.254,2.019,0.377C232.861,195.731,230.061,199.006,227.258,202.271 M30.263,167.333
			c1.446,2.608,2.893,5.231,4.371,7.868c5.62,7.785,11.21,15.565,16.802,23.33c5.603,7.781,11.223,15.551,16.847,23.306
			c-1.401,0.657-2.794,1.313-4.188,1.97c-5.827-7.98-11.669-15.977-17.484-23.978c-5.8-7.985-11.599-15.999-17.427-24.008
			c-1.385-2.731-2.753-5.438-4.086-8.134c-1.11,0.076-2.213,0.153-3.317,0.23c-2.583-3.539-5.162-7.075-7.741-10.623
			c2.083-0.032,4.165-0.065,6.257-0.1c1.771-0.026,3.826,1.598,6.176,4.867C27.738,163.82,28.996,165.571,30.263,167.333
			 M54.255,165.674c-0.636,0.043-1.263,0.088-1.887,0.131c3.927,5.672,7.858,11.338,11.785,17.012
			c3.921,5.668,7.84,11.33,11.767,16.992c-1.552,0.506-3.104,1.006-4.648,1.506c-4.099-5.85-8.19-11.697-12.278-17.549
			c-4.091-5.859-8.193-11.714-12.295-17.571c-3.934,0.272-7.865,0.541-11.789,0.815c-2.371-3.311-4.731-6.621-7.097-9.934
			c5.819-0.09,11.635-0.183,17.465-0.275c1.875-0.03,3.876,1.508,6.003,4.58C52.271,162.814,53.266,164.243,54.255,165.674
			 M97.093,192.962c-1.536,0.503-3.077,1-4.613,1.5c-2.892-4.356-5.785-8.706-8.674-13.068c-2.89-4.359-5.771-8.719-8.671-13.075
			c-0.824-1.244-1.679-2.176-2.57-2.832c-0.883-0.646-1.733-0.951-2.54-0.896c-3.674,0.25-7.337,0.504-11.014,0.758
			c-1.972-2.893-3.954-5.778-5.938-8.67c5.051-0.082,10.107-0.16,15.169-0.242c1.559-0.023,3.18,0.588,4.871,1.809
			c1.669,1.21,3.219,2.911,4.658,5.111c3.225,4.937,6.438,9.873,9.657,14.81C90.648,183.1,93.881,188.033,97.093,192.962
			 M99.576,174.437c-1.734,0.292-3.474,0.585-5.217,0.872c-2.088-3.287-4.162-6.575-6.255-9.868
			c-0.849-1.336-1.741-1.975-2.676-1.913c-0.785,0.057-1.571,0.107-2.346,0.162c-1.591-2.47-3.188-4.938-4.786-7.412
			c2.236-0.035,4.487-0.07,6.735-0.104c2.08-0.034,3.959,1.283,5.628,3.948c1.491,2.38,2.977,4.767,4.463,7.151
			C96.606,169.656,98.093,172.052,99.576,174.437 M131.112,181.965c-1.552,0.504-3.097,0.996-4.641,1.493
			c-1.906-3.372-3.834-6.744-5.756-10.134c-1.912-3.373-3.801-6.756-5.698-10.135c-0.604-1.072-1.376-1.58-2.308-1.519
			c-4.928,0.333-9.864,0.672-14.78,1.005c-1.354-2.215-2.709-4.428-4.072-6.639c6.715-0.1,13.429-0.2,20.151-0.296
			c1.117-0.017,1.946,0.16,2.503,0.517c0.551,0.357,1.175,1.115,1.816,2.292c2.133,3.896,4.239,7.804,6.364,11.702
			C126.82,174.16,128.982,178.068,131.112,181.965 M117.852,186.248c-1.535,0.498-3.079,0.992-4.614,1.49
			c-1.807-2.957-3.619-5.922-5.438-8.886c-1.819-2.96-3.627-5.929-5.43-8.901c1.774-0.233,3.552-0.469,5.33-0.703
			c1.684,2.837,3.372,5.676,5.078,8.507C114.479,180.586,116.168,183.422,117.852,186.248 M181.258,42.302l-4.557-5.129
			l10.411-9.246c1.508-1.344,2.271-2.636,2.287-3.877c0.021-1.242-0.688-2.668-2.12-4.281l-7.073-7.961l3.757-3.337l7.791,8.768
			c2.718,3.062,4.09,5.835,4.113,8.324c0.021,2.49-1.38,4.987-4.2,7.495L181.258,42.302z M170.397,30.073l-4.534-5.101l9.904-8.793
			l5.631,4.117L170.397,30.073z M215.598,51.227c-1.908,1.694-3.754,2.703-5.531,3.021c-1.78,0.316-3.588-0.077-5.429-1.182
			l-1.563,8.269l-2.743,2.438l-14.994-16.877l3.726-3.314l9.089,10.232l4.833-23.931l5.698,6.413l-3.175,12.526
			c0.642,0.36,1.19,0.478,1.646,0.353c0.462-0.122,0.99-0.45,1.585-0.979l5.878-5.219l4.528,5.098L215.598,51.227z M231.769,77.358
			c-1.867,1.659-3.547,2.812-5.036,3.46c-1.719,0.747-3.544,0.995-5.468,0.749c-1.328-0.135-2.702-0.479-4.121-1.035
			c-0.828-0.331-2.849-1.384-6.06-3.154l-9.67-5.12l3.965-3.525l4.877,2.605l13.076-18.555l4.929,5.545l-11.822,16.425
			c2.011,1.382,3.911,1.721,5.703,1.017c1.352-0.523,3.509-2.102,6.468-4.733l6.119-5.43l4.525,5.097L231.769,77.358z
			 M229.712,96.845l-4.503-5.067l18.313-16.269l4.503,5.071L229.712,96.845z M261.741,114.337c-3.085,2.739-6.162,4.11-9.231,4.117
			c-3.069,0.005-5.78-1.313-8.129-3.957c-0.495-0.557-0.919-1.072-1.265-1.544c-0.349-0.473-0.628-0.969-0.844-1.493l3.667-3.258
			c0.036,0.323,0.18,0.667,0.434,1.029c0.251,0.362,0.521,0.703,0.8,1.021c1.131,1.273,2.59,1.864,4.375,1.771
			c1.787-0.09,3.593-0.951,5.419-2.575c1.754-1.554,2.872-3.216,3.364-4.986c0.492-1.77,0.259-3.19-0.695-4.263
			c-1.254-1.413-3.229-1.766-5.929-1.059c-2.695,0.709-6.142,2.423-10.332,5.154l-4.492,2.871l-4.878-5.489l7.25-4.093
			c0.915-0.528,1.743-1.04,2.479-1.534c0.733-0.494,1.369-0.977,1.908-1.455c1.789-1.589,3.882-4.801,6.277-9.632l5.031,5.666
			c-1.195,2.021-2.38,3.788-3.562,5.299c2.066-0.837,4.095-1.058,6.085-0.657c1.992,0.4,3.634,1.327,4.924,2.776
			c2.013,2.27,2.738,4.984,2.175,8.154C266.034,109.24,264.424,111.952,261.741,114.337 M42.87,99.537l-4.443,5.184l-9.882-8.469
			c-3.275-2.807-6.142-2.774-8.6,0.095l-2.65,3.094l8.456,7.247c2.164,1.852,3.445,3.781,3.844,5.791
			c0.4,2.009-0.136,3.871-1.606,5.588c-0.504,0.588-1.143,1.107-1.919,1.565c-0.145,0.086-0.917,0.475-2.315,1.168l-3.275-2.807
			c0.301-0.022,0.645-0.129,1.037-0.318c0.391-0.192,0.75-0.481,1.081-0.864c0.536-0.625,0.754-1.35,0.651-2.175
			c-0.1-0.822-0.494-1.528-1.181-2.116l-9.215-7.899l-2.83,3.307l-3.821-3.274l11.17-13.035c2.303-2.686,4.585-4.224,6.838-4.602
			c2.255-0.382,4.463,0.353,6.625,2.207L42.87,99.537z M43.143,83.209L39.91,89.43L27.999,79.22l4.44-5.184L43.143,83.209z
			 M66.433,72.043l-4.444,5.184l-9.88-8.469c-1.899-1.628-3.37-2.468-4.412-2.521c-1.25-0.055-2.662,0.837-4.238,2.676l-4.157,4.85
			l-3.821-3.272l4.806-5.608c2.807-3.274,5.38-5.028,7.723-5.265c2.34-0.237,4.954,0.882,7.846,3.358L66.433,72.043z M74.746,62.344
			l-4.417,5.154l-18.61-15.953l4.416-5.152L74.746,62.344z M72.632,34.873l-0.389,0.455c-0.381,0.444-0.538,1.221-0.473,2.329
			c0.079,1.26,0.418,2.358,1.02,3.293c0.709,1.132,1.841,2.367,3.397,3.7l1.093,0.938L84.1,51.43l-4.391,5.124l-7.972-6.83
			c-1.696-1.456-2.837-2.907-3.423-4.354c-0.583-1.444-0.669-3.167-0.255-5.16l-5.092,5.94l-3.819-3.274l9.665-11.276L72.632,34.873
			z M108.235,23.271l-5.247,6.124c-3.573-0.539-6.552-0.927-8.939-1.166c-2.387-0.241-4.296-0.346-5.727-0.313l-0.911-0.042
			c0.06,1.035,0.401,2.036,1.024,3.007c0.621,0.972,1.509,1.951,2.663,2.938l4.666,4.002l-4.443,5.184l-2.605-2.235
			c-2.466-2.115-4.125-4.063-4.981-5.846c-0.947-2.003-1.213-4.373-0.801-7.104l-1.329,0.019c-0.756-0.019-1.516-0.052-2.274-0.107
			c-2.311-0.087-4.731-0.063-7.27,0.076l5.535-6.455c1.075,0.01,2.549,0.029,4.418,0.055c2.422,0.04,3.989,0.07,4.71,0.092
			c1.398,0.042,3.093,0.11,5.08,0.203c0.34-1.253-0.715-2.926-3.158-5.024l-4.063-3.482l4.444-5.181l3.062,2.623
			c2.04,1.749,3.374,3.402,4.005,4.958c0.698,1.719,0.797,3.855,0.293,6.404l0.938,0.013c1.029,0.147,2.593,0.347,4.688,0.601
			C102.395,22.665,104.469,22.883,108.235,23.271 M139.733,19.454l13.842,16.415l-12.924,32.018
			c-0.842-0.237-1.712-0.413-2.602-0.518V18.24C138.704,18.516,139.286,18.916,139.733,19.454 M156.154,38.931l11.24,13.329
			l-20.243,19.104c-0.982-0.837-2.055-1.567-3.206-2.168L156.154,38.931z M169.682,54.97l9.52,11.291l-27.875,10.383
			c-0.495-0.961-1.075-1.872-1.731-2.721L169.682,54.97z M181.804,69.35l10.181,12.073c0.254,0.305,0.478,0.626,0.672,0.967h-39.584
			c-0.087-0.744-0.223-1.476-0.405-2.188L181.804,69.35z M193.511,86.454c-0.131,1.111-0.567,2.177-1.357,3.044l-9.439,10.335
			l-30.047-11.192c0.183-0.711,0.318-1.441,0.405-2.188H193.511z M179.95,102.859l-10.158,11.118l-20.197-19.054
			c0.662-0.848,1.241-1.759,1.733-2.724L179.95,102.859z M167.402,116.595l-11.529,12.621l-11.928-29.56
			c1.151-0.603,2.227-1.332,3.206-2.169L167.402,116.595z M153.227,132.115l-12.941,14.167c-0.602,0.651-1.38,1.148-2.235,1.474
			v-46.277c0.89-0.105,1.76-0.276,2.602-0.516L153.227,132.115z M133.984,147.908c-0.7-0.235-1.336-0.623-1.843-1.18l-13.45-14.958
			l12.46-30.875c0.913,0.271,1.862,0.468,2.833,0.583V147.908z M116.058,128.837l-11.32-12.586l20.013-18.883
			c0.958,0.832,2.005,1.564,3.13,2.17L116.058,128.837z M102.369,113.618l-9.89-11l28.189-10.499c0.476,0.94,1.031,1.83,1.664,2.659
			L102.369,113.618z M89.745,99.579l-9.716-10.803c-0.572-0.644-0.93-1.45-1.103-2.322h40.038c0.083,0.714,0.213,1.416,0.383,2.099
			L89.745,99.579z M79.287,82.39c0.298-0.851,0.727-1.633,1.258-2.272l9.148-10.873l29.654,11.045c-0.17,0.685-0.3,1.386-0.383,2.1
			H79.287z M92.289,66.156l9.585-11.394l20.459,19.306c-0.63,0.83-1.188,1.719-1.662,2.657L92.289,66.156z M104.156,52.046
			l11.326-13.46l12.397,30.722c-1.125,0.609-2.172,1.338-3.128,2.17L104.156,52.046z M118.061,35.519l13.43-15.963
			c0.624-0.737,1.516-1.247,2.494-1.522v49.335c-0.971,0.117-1.92,0.313-2.833,0.583L118.061,35.519z M126.837,148.136
			L76.493,93.345c-2.48-1.906-3.353-1.977-6.271,0.085l-46.713,54.706H126.837z M251.34,148.136l-48.262-54.791
			c-2.677-2.646-3.847-2.646-6.216,0l-51.19,54.791H251.34z M262.326,152.437H141.032c-3.525,2.049-7.367,2.382-10.226,0H12.23
			L127.504,17.736c3.977-4.645,12.303-4.572,16.352,0.035L262.326,152.437z"/>
	</g>
</g>
</svg>
