<?xml version="1.0" encoding="UTF-8" standalone="no"?>
<!-- Created with Inkscape (http://www.inkscape.org/) -->

<svg
   xmlns:dc="http://purl.org/dc/elements/1.1/"
   xmlns:cc="http://creativecommons.org/ns#"
   xmlns:rdf="http://www.w3.org/1999/02/22-rdf-syntax-ns#"
   xmlns:svg="http://www.w3.org/2000/svg"
   xmlns="http://www.w3.org/2000/svg"
   xmlns:sodipodi="http://sodipodi.sourceforge.net/DTD/sodipodi-0.dtd"
   xmlns:inkscape="http://www.inkscape.org/namespaces/inkscape"
   version="1.1"
   id="svg2"
   xml:space="preserve"
   width="230.87343"
   height="358.40051"
   viewBox="0 0 230.87343 358.40051"
   sodipodi:docname="Karmiel_COA.svg"
   inkscape:version="0.92.3 (2405546, 2018-03-11)"><metadata
     id="metadata8"><rdf:RDF><cc:Work
         rdf:about=""><dc:format>image/svg+xml</dc:format><dc:type
           rdf:resource="http://purl.org/dc/dcmitype/StillImage" /><dc:title></dc:title></cc:Work></rdf:RDF></metadata><defs
     id="defs6"><clipPath
       clipPathUnits="userSpaceOnUse"
       id="clipPath18"><path
         d="M 0,0 H 0.043 V 651.968 H 0 Z"
         id="path16"
         inkscape:connector-curvature="0" /></clipPath><clipPath
       clipPathUnits="userSpaceOnUse"
       id="clipPath36"><path
         d="M 0.697,0 H 467.716 V 651.968 H 0.697 Z"
         id="path34"
         inkscape:connector-curvature="0" /></clipPath><clipPath
       clipPathUnits="userSpaceOnUse"
       id="clipPath268"><path
         d="m 349.37,474.803 h 85.039 v 99.212 H 349.37 Z"
         id="path266"
         inkscape:connector-curvature="0" /></clipPath><clipPath
       clipPathUnits="userSpaceOnUse"
       id="clipPath282"><path
         d="m 205.511,474.803 h 85.04 v 99.212 h -85.04 z"
         id="path280"
         inkscape:connector-curvature="0" /></clipPath><clipPath
       clipPathUnits="userSpaceOnUse"
       id="clipPath296"><path
         d="m 58.252,474.803 h 85.04 v 99.212 h -85.04 z"
         id="path294"
         inkscape:connector-curvature="0" /></clipPath><clipPath
       clipPathUnits="userSpaceOnUse"
       id="clipPath316"><path
         d="m 422.521,23.126 h 18.475 v 17.818 h -18.475 z"
         id="path314"
         inkscape:connector-curvature="0" /></clipPath><clipPath
       clipPathUnits="userSpaceOnUse"
       id="clipPath332"><path
         d="M 0,0 H 467.717 V 651.969 H 0 Z"
         id="path330"
         inkscape:connector-curvature="0" /></clipPath><clipPath
       clipPathUnits="userSpaceOnUse"
       id="clipPath378"><path
         d="M 0,0 H 467.717 V 651.969 H 0 Z"
         id="path376"
         inkscape:connector-curvature="0" /></clipPath><clipPath
       clipPathUnits="userSpaceOnUse"
       id="clipPath410"><path
         d="M 0,0 H 467.717 V 651.969 H 0 Z"
         id="path408"
         inkscape:connector-curvature="0" /></clipPath><clipPath
       clipPathUnits="userSpaceOnUse"
       id="clipPath478"><path
         d="m 38.303,620.256 0.041,-1.811 0.019,-0.072 1.104,0.018 c 0,0 -0.037,1.846 -0.071,1.908 -0.035,0.063 -0.266,0.106 -0.494,0.124 -0.01,10e-4 -0.02,10e-4 -0.03,10e-4 -0.23,0 -0.569,-0.168 -0.569,-0.168"
         id="path476"
         inkscape:connector-curvature="0" /></clipPath><linearGradient
       x1="0"
       y1="0"
       x2="1"
       y2="0"
       gradientUnits="userSpaceOnUse"
       gradientTransform="matrix(1.3953705,0,0,-1.3953705,26.219238,632.96381)"
       spreadMethod="pad"
       id="linearGradient500"><stop
         style="stop-opacity:1;stop-color:#662d91"
         offset="0"
         id="stop492" /><stop
         style="stop-opacity:1;stop-color:#662d91"
         offset="0.0122681"
         id="stop494" /><stop
         style="stop-opacity:1;stop-color:#ffffff"
         offset="0.564423"
         id="stop496" /><stop
         style="stop-opacity:1;stop-color:#a186be"
         offset="1"
         id="stop498" /></linearGradient><clipPath
       clipPathUnits="userSpaceOnUse"
       id="clipPath518"><path
         d="m 49.548,619.769 0.044,-1.667 0.018,-0.062 1.103,0.014 c 0,0 -0.033,1.697 -0.071,1.756 -0.034,0.055 -0.264,0.096 -0.493,0.113 -0.011,0 -0.021,10e-4 -0.032,10e-4 -0.231,0 -0.569,-0.155 -0.569,-0.155"
         id="path516"
         inkscape:connector-curvature="0" /></clipPath><linearGradient
       x1="0"
       y1="0"
       x2="1"
       y2="0"
       gradientUnits="userSpaceOnUse"
       gradientTransform="matrix(1.3982697,0,0,-1.3982697,39.872925,632.35547)"
       spreadMethod="pad"
       id="linearGradient540"><stop
         style="stop-opacity:1;stop-color:#662d91"
         offset="0"
         id="stop532" /><stop
         style="stop-opacity:1;stop-color:#662d91"
         offset="0.0122681"
         id="stop534" /><stop
         style="stop-opacity:1;stop-color:#ffffff"
         offset="0.564423"
         id="stop536" /><stop
         style="stop-opacity:1;stop-color:#a186be"
         offset="1"
         id="stop538" /></linearGradient><clipPath
       clipPathUnits="userSpaceOnUse"
       id="clipPath558"><path
         d="m 59.355,619.038 0.043,-1.517 0.019,-0.055 1.103,0.011 c 0,0 -0.036,1.545 -0.071,1.598 -0.036,0.052 -0.265,0.088 -0.495,0.102 -0.01,10e-4 -0.02,10e-4 -0.031,10e-4 -0.23,0 -0.568,-0.14 -0.568,-0.14"
         id="path556"
         inkscape:connector-curvature="0" /></clipPath><linearGradient
       x1="0"
       y1="0"
       x2="1"
       y2="0"
       gradientUnits="userSpaceOnUse"
       gradientTransform="matrix(1.3973083,0,0,-1.3973083,51.78125,631.44806)"
       spreadMethod="pad"
       id="linearGradient580"><stop
         style="stop-opacity:1;stop-color:#662d91"
         offset="0"
         id="stop572" /><stop
         style="stop-opacity:1;stop-color:#662d91"
         offset="0.0122681"
         id="stop574" /><stop
         style="stop-opacity:1;stop-color:#ffffff"
         offset="0.564423"
         id="stop576" /><stop
         style="stop-opacity:1;stop-color:#a186be"
         offset="1"
         id="stop578" /></linearGradient><clipPath
       clipPathUnits="userSpaceOnUse"
       id="clipPath598"><path
         d="m 66.817,618.307 0.038,-1.383 0.017,-0.055 0.953,0.014 c 0,0 -0.03,1.409 -0.059,1.457 -0.033,0.047 -0.231,0.079 -0.429,0.094 -0.009,10e-4 -0.018,10e-4 -0.028,10e-4 -0.199,0 -0.492,-0.128 -0.492,-0.128"
         id="path596"
         inkscape:connector-curvature="0" /></clipPath><linearGradient
       x1="0"
       y1="0"
       x2="1"
       y2="0"
       gradientUnits="userSpaceOnUse"
       gradientTransform="matrix(1.2082977,0,0,-1.2082977,60.8396,630.54529)"
       spreadMethod="pad"
       id="linearGradient620"><stop
         style="stop-opacity:1;stop-color:#662d91"
         offset="0"
         id="stop612" /><stop
         style="stop-opacity:1;stop-color:#662d91"
         offset="0.0122681"
         id="stop614" /><stop
         style="stop-opacity:1;stop-color:#ffffff"
         offset="0.564423"
         id="stop616" /><stop
         style="stop-opacity:1;stop-color:#a186be"
         offset="1"
         id="stop618" /></linearGradient><clipPath
       clipPathUnits="userSpaceOnUse"
       id="clipPath638"><path
         d="m 73.459,617.803 0.04,-1.279 0.013,-0.048 0.957,0.012 c 0,0 -0.033,1.304 -0.061,1.346 -0.031,0.046 -0.228,0.075 -0.427,0.088 -0.009,0 -0.017,10e-4 -0.026,10e-4 -0.2,0 -0.496,-0.12 -0.496,-0.12"
         id="path636"
         inkscape:connector-curvature="0" /></clipPath><linearGradient
       x1="0"
       y1="0"
       x2="1"
       y2="0"
       gradientUnits="userSpaceOnUse"
       gradientTransform="matrix(1.211853,0,0,-1.211853,68.904053,629.9212)"
       spreadMethod="pad"
       id="linearGradient660"><stop
         style="stop-opacity:1;stop-color:#662d91"
         offset="0"
         id="stop652" /><stop
         style="stop-opacity:1;stop-color:#662d91"
         offset="0.0122681"
         id="stop654" /><stop
         style="stop-opacity:1;stop-color:#ffffff"
         offset="0.564423"
         id="stop656" /><stop
         style="stop-opacity:1;stop-color:#a186be"
         offset="1"
         id="stop658" /></linearGradient><clipPath
       clipPathUnits="userSpaceOnUse"
       id="clipPath678"><path
         d="m 78.785,617.185 0.03,-1.175 0.012,-0.044 0.773,0.011 c 0,0 -0.023,1.198 -0.049,1.238 -0.025,0.036 -0.184,0.069 -0.347,0.079 -0.008,0 -0.017,10e-4 -0.025,10e-4 -0.161,0 -0.394,-0.11 -0.394,-0.11"
         id="path676"
         inkscape:connector-curvature="0" /></clipPath><linearGradient
       x1="0"
       y1="0"
       x2="1"
       y2="0"
       gradientUnits="userSpaceOnUse"
       gradientTransform="matrix(0.977951,0,0,-0.977951,75.368408,629.15979)"
       spreadMethod="pad"
       id="linearGradient700"><stop
         style="stop-opacity:1;stop-color:#662d91"
         offset="0"
         id="stop692" /><stop
         style="stop-opacity:1;stop-color:#662d91"
         offset="0.0122681"
         id="stop694" /><stop
         style="stop-opacity:1;stop-color:#ffffff"
         offset="0.564423"
         id="stop696" /><stop
         style="stop-opacity:1;stop-color:#a186be"
         offset="1"
         id="stop698" /></linearGradient><clipPath
       clipPathUnits="userSpaceOnUse"
       id="clipPath718"><path
         d="m 83.834,616.671 0.031,-1.081 0.011,-0.043 0.774,0.011 c 0,0 -0.025,1.102 -0.051,1.138 -0.022,0.038 -0.182,0.063 -0.345,0.077 -0.006,0 -0.012,0 -0.018,0 -0.161,0 -0.402,-0.102 -0.402,-0.102"
         id="path716"
         inkscape:connector-curvature="0" /></clipPath><linearGradient
       x1="0"
       y1="0"
       x2="1"
       y2="0"
       gradientUnits="userSpaceOnUse"
       gradientTransform="matrix(0.977951,0,0,-0.977951,81.49939,628.52124)"
       spreadMethod="pad"
       id="linearGradient740"><stop
         style="stop-opacity:1;stop-color:#662d91"
         offset="0"
         id="stop732" /><stop
         style="stop-opacity:1;stop-color:#662d91"
         offset="0.0122681"
         id="stop734" /><stop
         style="stop-opacity:1;stop-color:#ffffff"
         offset="0.564423"
         id="stop736" /><stop
         style="stop-opacity:1;stop-color:#a186be"
         offset="1"
         id="stop738" /></linearGradient><clipPath
       clipPathUnits="userSpaceOnUse"
       id="clipPath750"><path
         d="M 0,0 H 467.717 V 651.969 H 0 Z"
         id="path748"
         inkscape:connector-curvature="0" /></clipPath><clipPath
       clipPathUnits="userSpaceOnUse"
       id="clipPath824"><path
         d="M 0,0 H 467.717 V 651.969 H 0 Z"
         id="path822"
         inkscape:connector-curvature="0" /></clipPath></defs><sodipodi:namedview
     pagecolor="#ffffff"
     bordercolor="#666666"
     borderopacity="1"
     objecttolerance="10"
     gridtolerance="10"
     guidetolerance="10"
     inkscape:pageopacity="0"
     inkscape:pageshadow="2"
     inkscape:window-width="1920"
     inkscape:window-height="1001"
     id="namedview4"
     showgrid="false"
     fit-margin-top="0"
     fit-margin-left="0"
     fit-margin-right="0"
     fit-margin-bottom="0"
     inkscape:zoom="3.9005899"
     inkscape:cx="133.44687"
     inkscape:cy="35.6073"
     inkscape:window-x="-9"
     inkscape:window-y="-9"
     inkscape:window-maximized="1"
     inkscape:current-layer="g10" /><g
     id="g10"
     inkscape:groupmode="layer"
     inkscape:label="חוברת מנויים כרמיאל 16-17"
     transform="matrix(1.3333333,0,0,-1.3333333,-336.72195,839.05501)"><path
       inkscape:connector-curvature="0"
       id="path904"
       style="fill:#ffffff;fill-opacity:1;fill-rule:nonzero;stroke:none;stroke-width:5.92469645"
       d="M 258.45535,582.96325 H 421.20677 V 401.05729 c 0,0 -7.78505,-19.1901 -17.61412,-20.21507 -9.85869,-1.03089 -51.32565,-3.11047 -55.47294,-6.73638 -4.14728,-3.61999 -8.28866,-7.26368 -8.28866,-7.26368 0,0 -6.215,6.7423 -22.28278,8.29457 -16.07963,1.56412 -50.26513,3.63777 -54.93379,9.33733 -4.66273,5.69364 -5.69956,21.76141 -5.69956,25.38732 0,3.63185 1.54043,173.10187 1.54043,173.10187" /><path
       inkscape:connector-curvature="0"
       id="path917"
       style="font-style:normal;font-variant:normal;font-weight:bold;font-stretch:normal;font-size:medium;line-height:100%;font-family:IsraelRegular;-inkscape-font-specification:'IsraelRegular Bold';letter-spacing:0px;word-spacing:0px;fill:#034ea2;fill-opacity:1;stroke:none;stroke-width:11.18515396px;stroke-linecap:butt;stroke-linejoin:miter;stroke-opacity:1"
       d="m 267.49148,413.7325 q 1.0049,3.31134 0.95843,5.77351 l -0.0726,6.65088 q -0.0156,0.82065 -0.11425,1.55659 -0.0872,0.651 -0.2297,1.2736 3.25089,-0.9903 5.95948,-0.9903 h 2.58269 q 0.0733,-0.28309 0.11498,-0.59375 0.0682,-0.50893 0.0737,-0.9903 l 0.0248,-6.05649 h 13.3859 q 0.22065,0 0.2397,-0.14208 0.0114,-0.0848 -0.077,-0.36791 l -0.44758,-2.06594 q -1.19065,-4.98117 -1.16765,-8.20747 l 0.0884,-5.12261 q 0.0403,-5.94336 -2.58689,-9.36783 -2.73457,-3.56602 -7.80555,-3.56602 h -6.01577 q -0.069,4.27354 1.63811,7.04711 h 1.44887 q 2.11023,0 3.38956,1.49997 1.2792,1.49997 1.24903,4.07548 l 0.002,2.80188 q -0.0447,4.33005 0.69734,6.31117 h -9.66928 q -2.61419,0 -3.65513,0.48136 z" /><path
       inkscape:connector-curvature="0"
       id="path908"
       style="fill:#ffffff;fill-opacity:1;fill-rule:nonzero;stroke:none;stroke-width:5.92469645"
       d="M 299.84647,598.21934 Z" /><path
       inkscape:connector-curvature="0"
       id="path912"
       style="fill:#034ea2;fill-opacity:1;fill-rule:nonzero;stroke:none;stroke-width:5.92469645"
       d="m 328.42779,424.14227 c 0,0 0.0415,0.0115 0.0888,0.0115 0.0415,-0.0115 0.17774,-0.0652 0.20144,-0.0652 z" /><path
       inkscape:connector-curvature="0"
       id="path916"
       style="fill:#034ea2;fill-opacity:1;fill-rule:nonzero;stroke:none;stroke-width:5.92469645"
       d="m 339.66695,424.97113 -0.21329,0.17181 c 0,0 0.35548,-0.17181 0.60432,-0.25475 h -0.13035 z m 0.73467,-0.34363 c 0,0 0.18365,-0.0297 0.33178,-0.0533 0.11259,-0.0533 0.11847,-0.0533 0.22513,-0.0888 h -0.22513 z m 13.72751,-0.42066 c 0,0 0.0533,-0.0297 0.0829,-0.0533 l -0.12448,-0.0115 h -0.2903 z m -4.52054,-1.09606 c -0.0533,-0.0652 -0.0948,-0.14224 -0.0948,-0.14224 l -0.11847,-0.0771 c 0.0711,0.0771 0.16589,0.17183 0.21328,0.21923 m -0.31399,-0.33772 c -0.0652,-0.0829 -0.10672,-0.17181 -0.10672,-0.17181 0,0 -0.0474,-0.0415 -0.15405,-0.0829 0.15405,0.10672 0.15405,0.14813 0.26069,0.25476 m -0.6695,-0.95979 c 0,0 -0.18959,-0.13622 -0.26661,-0.23107 -0.0533,0.0297 -0.0829,0.0652 -0.11846,0.0948 0.0355,0.0297 0.3851,0.13623 0.3851,0.13623 m -2.84978,-2.3995 c 0,0 0.10657,0.0355 0.14224,0.0652 0,-0.0297 -0.27254,-0.4088 -0.27254,-0.4088 l -0.24883,-0.18367 -0.10672,-0.18367 c -0.20736,-0.071 -0.31401,-0.23106 -0.31401,-0.23106 z m 21.94508,-7.23406 v -0.0115 z m -31.61418,-1.81296 h 0.0652 c 0,-0.26661 -0.0236,-0.52137 -0.0236,-0.52137 0,0 -0.0115,0.3851 -0.0415,0.52137 m 15.26794,0.21921 0.006,-0.18366 v -0.0415 c 0,0.006 -0.006,0.22513 -0.006,0.22513 m -0.56284,-0.77614 0.0415,-0.15996 -0.0652,-0.0652 c 0.0236,0.10658 0.0236,0.22513 0.0236,0.22513 m -3.56074,-12.23449 v -0.0711 z" /><path
       inkscape:connector-curvature="0"
       id="path924"
       style="fill:#ffffff;fill-opacity:1;fill-rule:nonzero;stroke:none;stroke-width:5.92469645"
       d="m 300.48219,588.3571 z m 29.54055,-2.5654 c 1.09606,0.49768 4.53831,1.0783 8.20569,1.32713 3.65554,-0.27254 7.10372,-0.82945 8.21164,-1.32713 0,0 0.21921,-0.11846 0.2903,-0.14811 0.73467,-0.34364 1.45749,-0.73467 1.45749,-0.73467 0.40879,-0.22514 0.84723,-0.47397 1.3212,-0.78205 -2.41135,0.10657 -4.86418,-0.42066 -7.06223,-1.68263 h -0.0297 c -1.57004,-0.91239 -6.80748,-0.91239 -8.3716,0 -2.20991,1.26197 -4.6805,1.78926 -7.08593,1.68263 0.46212,0.30808 0.91832,0.55691 1.31528,0.78205 0,0 0.74651,0.39103 1.43378,0.73467 0.071,0.0296 0.31401,0.14811 0.31401,0.14811" /><path
       inkscape:connector-curvature="0"
       id="path928"
       style="fill:#ed1d24;fill-opacity:1;fill-rule:nonzero;stroke:none;stroke-width:5.92469645"
       d="m 315.50604,569.30801 c 0,0 0.22514,7.05038 3.53705,9.85276 0,0 -4.01102,6.81341 -18.3251,5.90101 -13.59717,-0.91834 -14.09485,-12.72625 -14.09485,-16.2159 0,-4.72791 4.94713,-14.1067 17.85112,-19.7411 12.91584,-5.62845 18.21252,-10.23786 20.20321,-9.80536 0,0 -9.17143,6.28609 -9.17143,30.00859 m -13.85787,18.08809 c 11.51762,0 19.2612,-5.64031 19.2612,-5.64031 0.71096,3.54297 5.8773,6.10837 5.8773,6.10837 0,0 -7.0504,9.85869 -9.8587,16.68987 -2.84386,6.80155 -7.05631,13.36019 -14.11856,13.36019 -7.05038,0 -21.36445,-3.05715 -21.36445,-15.9789 0,-12.92177 11.52353,-16.39957 11.52353,-16.39957 0,0 3.50743,1.86035 8.67968,1.86035 m 74.09427,-2.33432 c -14.31999,0.9124 -18.30732,-5.90101 -18.30732,-5.90101 3.2882,-2.80238 3.53112,-9.85276 3.53112,-9.85276 0,-23.7225 -9.17143,-30.00859 -9.17143,-30.00859 1.9907,-0.4325 7.27552,4.17691 20.20322,9.80536 12.89806,5.6344 17.83926,15.01319 17.83926,19.7411 0,3.48965 -0.49768,15.29756 -14.09485,16.2159 m -2.09735,32.85244 c -7.05632,0 -11.29839,-6.55864 -14.1067,-13.36019 -2.80831,-6.83118 -9.84685,-16.68987 -9.84685,-16.68987 0,0 5.16041,-2.5654 5.88914,-6.10837 0,0 7.71396,5.64031 19.22565,5.64031 5.17818,0 8.69154,-1.86035 8.69154,-1.86035 0,0 11.51759,3.4778 11.51759,16.39957 0,12.92175 -14.33184,15.9789 -21.37037,15.9789 m -29.58202,-38.35649 c -2.59501,-1.50487 -9.0707,-1.50487 -11.63609,0 -5.21374,2.98605 -14.57476,1.74779 -14.57476,-12.34706 0,-30.79065 18.97088,-33.07166 20.52315,-33.07166 1.49894,0 20.22099,2.28101 20.22099,33.07166 0,14.09485 -9.33139,15.33311 -14.53329,12.34706 m -15.39828,9.24253 c 2.4943,1.16124 9.24253,1.61151 9.56247,1.62336 0.34363,-0.0115 7.06223,-0.46212 9.58022,-1.62336 0,0 8.70339,9.85278 10.78888,26.05681 2.29878,17.50748 -16.13888,14.13634 -20.3691,14.16003 -4.21247,0.0415 -22.65013,3.34745 -20.37504,-14.16003 2.13289,-16.20403 10.81257,-26.05681 10.81257,-26.05681" /><path
       inkscape:connector-curvature="0"
       id="path932"
       style="fill:#0db14b;fill-opacity:1;fill-rule:nonzero;stroke:none;stroke-width:5.92469645"
       d="m 351.38244,455.97448 c -0.19551,0.15996 -0.59246,0.51544 -0.36732,0.79391 -2.74314,0.11847 -4.6035,1.46932 -7.10372,2.18621 -1.83072,1.32713 -6.49347,1.35675 -7.08594,-0.79391 4.34873,-1.64706 9.71058,-4.68643 14.55698,-2.18621 m 25.89686,-9.43212 c -3.92808,4.42576 -10.69408,2.78461 -16.47066,5.23151 -4.69236,-3.13416 5.77065,-2.93865 1.52857,-5.74696 -9.04702,1.92553 -13.98229,10.48672 -25.86722,8.09313 l -1.20273,-1.8485 c 5.16634,-2.23361 4.81086,-7.28145 8.85151,-10.59928 3.34746,-0.92425 6.81339,-0.29031 9.84091,0.4088 10.29713,1.15532 19.77072,-3.60814 27.83423,1.92553 -1.39231,1.30937 -2.84385,2.15659 -4.51461,2.53577 m 11.13842,6.56456 c 9.37879,-0.22514 13.70382,-6.35127 24.06613,-5.15448 l 0.17181,33.76484 c -6.9082,-0.96572 -10.01274,2.30472 -15.43383,3.60814 -9.57431,-11.63017 -29.24432,-4.71606 -37.81735,-17.33566 -6.6949,1.99663 -6.14391,12.55444 -16.76096,10.12532 l -5.39148,-1.00721 -9.12996,-2.23954 c -7.67248,3.01568 -8.21162,13.19431 -17.83333,13.08766 -6.22094,3.91622 -15.07242,1.34491 -20.27432,5.7825 -5.82397,-3.71478 -16.87353,-5.45071 -24.43937,-6.76599 v -27.18843 c 0,0 10.23787,1.97291 14.1778,3.70292 7.14518,-1.8485 9.45581,3.90439 15.07835,5.09525 7.40588,2.25138 10.13123,-4.79309 16.00262,-5.98395 4.55015,-4.91158 9.69871,-10.95477 16.8913,-13.91711 3.37115,-1.07237 5.50997,-3.69109 5.7825,-6.23278 -1.01312,-2.17436 -3.95769,-1.7241 -6.32757,-2.13289 -6.8608,2.48837 -16.06778,2.03809 -22.07542,-1.32122 -2.518,0.54508 -4.71606,2.37581 -7.55992,1.37453 -12.73217,-2.01439 -23.47956,3.383 -31.95188,10.61706 -0.71097,-3.89844 -0.237,-8.95814 5.35593,-11.565 22.06356,-4.31318 53.03788,1.19679 70.37946,-9.75205 18.86423,10.33267 39.71325,5.14263 62.65959,6.89634 3.92808,1.11385 8.02204,2.53577 8.31236,6.44607 -3.82143,-2.69573 -7.13926,-4.88787 -12.15748,-3.76218 l 1.16124,1.55227 c -5.25521,1.00127 -6.91412,0.40881 -11.51762,1.38046 3.07492,1.29158 4.99452,-0.0236 8.52565,1.74186 l -3.53113,2.61871 c -3.40669,0.47398 -5.81805,-3.56667 -8.46638,-2.02625 0.85315,2.97421 -3.17564,6.4283 2.10326,8.59081 m -5.33815,-10.5815 c -11.86124,-4.59757 -24.12537,-0.17182 -36.6798,-3.14601 -7.75542,2.00254 -5.75287,9.52098 -12.76179,12.63145 -4.4376,3.35931 -6.452,8.45454 -13.14691,9.99497 0.39104,5.50996 14.95986,3.69107 11.45244,11.23914 4.43168,2.35803 8.09314,3.00383 13.54979,1.84259 7.54806,-1.86628 10.82441,-9.72244 19.03012,-11.48799 4.29541,-5.55145 9.56246,-9.68096 18.23621,-10.50449 -3.06899,-4.29541 4.87011,-6.78971 0.31994,-10.56966 m -79.04138,7.83837 -4.01695,0.17182 c -4.69828,5.84768 -13.59124,0.95979 -19.87735,2.32841 l -0.15405,-1.88406 c -2.12103,-2.76091 -6.36312,0.54507 -8.52563,-0.15404 6.9556,-4.38428 15.81893,-11.49984 26.97514,-7.85023 5.48035,-3.66146 11.802,1.14347 17.95777,0.89464 5.14263,0.14224 9.40248,-2.88533 14.21334,-1.01905 0.72281,1.08421 -0.74059,1.62336 -0.69912,2.38765 -3.08084,1.88405 -5.53367,-0.0888 -8.67968,0.65765 -5.15448,5.73509 -10.5815,-1.96109 -16.38771,0.33177 1.35675,1.19679 0.18367,2.99198 -0.80576,4.13544" /><path
       inkscape:connector-curvature="0"
       id="path936"
       style="fill:#fff200;fill-opacity:1;fill-rule:nonzero;stroke:none;stroke-width:5.92469645"
       d="m 398.10816,491.19503 -26.00941,-11.2273 c -0.23107,0.64579 -0.49175,1.29158 -0.75245,1.88998 l 25.25106,12.83881 -3.77403,6.62382 -23.65139,-15.56418 c -0.35548,0.56285 -0.70504,1.16716 -1.10792,1.71224 l 22.64419,17.03942 -4.88787,5.81214 -20.55277,-19.38562 c -0.46213,0.50952 -0.91834,1.0072 -1.42786,1.49895 l 19.35006,20.70089 -5.84174,4.88787 -16.82021,-22.65011 c -0.53915,0.42066 -1.11386,0.81761 -1.68263,1.20864 l 15.45754,23.72249 -6.59419,3.83328 -12.6433,-25.25107 c -0.61024,0.31401 -1.22641,0.58062 -1.87221,0.87094 l 11.10289,26.11014 -7.14519,2.60687 -8.11683,-27.11142 c -0.63394,0.19551 -1.29158,0.36734 -1.93738,0.51545 l 6.41052,27.69796 -7.53029,1.33306 -3.2645,-28.17786 c -0.071,0 -0.15405,0 -0.0297,-0.22514 v -22.60272 l -0.0414,0.24291 c 10.61705,2.43506 10.06606,-8.09314 16.76689,-10.09568 8.5671,12.5959 28.24302,5.66401 37.79955,17.34159 0.90056,-0.2133 1.75372,-0.51545 2.57133,-0.80576 z m -118.66575,4.75753 5.2552,-2.63648 c 2.03217,0.7228 3.85106,1.52856 5.29668,2.47652 2.21584,-1.89591 5.09525,-2.50615 8.14054,-2.90311 l -14.87691,9.66911 z m 51.31379,35.18085 -7.50066,-1.32121 6.63566,-27.75127 c -0.69319,-0.18367 -1.33305,-0.30216 -2.00254,-0.50361 l -8.34791,27.41357 -7.14518,-2.61871 11.3458,-26.27011 c -0.61617,-0.27254 -1.21457,-0.55099 -1.8011,-0.88278 l -13.08174,25.65987 -6.57642,-3.82735 15.83672,-23.97726 c -0.55692,-0.36732 -1.11977,-0.78798 -1.64707,-1.18493 l -17.39491,23.08854 -5.84175,-4.89973 19.84773,-20.97934 c -0.48582,-0.47399 -0.95979,-0.94796 -1.40415,-1.42786 l -21.22226,19.81219 -4.90565,-5.85953 18.08811,-13.42536 c 2.38172,-0.36733 4.65088,-0.90648 6.65342,-2.15658 9.61579,0.0888 10.15494,-10.11346 17.83334,-13.10544 l 6.26834,1.65892 v 24.28533 c 0.23698,-0.0355 0.0533,-0.0355 -0.1659,-0.0355 z" /><path
       inkscape:connector-curvature="0"
       id="path940"
       style="fill:#034ea2;fill-opacity:1;fill-rule:nonzero;stroke:none;stroke-width:5.92469645"
       d="m 425.50099,588.50877 h -32.20666 c -2.13289,-2.3521 -6.22093,-4.34281 -6.22093,-4.34281 1.38638,-1.00128 2.55948,-2.86163 3.46595,-4.77531 h 25.70134 l 0.21329,-172.42052 v -0.19551 c -0.13035,-25.87908 -20.221,-24.39198 -45.89271,-24.39198 -21.09192,0 -29.09618,-7.49474 -31.30016,-10.20825 v -0.0178 l -0.0355,0.0178 c -2.21583,2.71351 -10.20824,10.20825 -31.32387,10.20825 -25.65985,0 -45.74458,-1.4871 -45.86901,24.39198 h -0.0236 v 0.19551 l -0.2133,172.42052 h 24.05428 c 1.13753,2.88534 2.73721,5.00638 2.73721,5.00638 -1.42194,0.90055 -3.31783,2.76683 -4.56795,4.11174 h -31.4779 l 0.2429,-188.66013 v -0.24883 2.12104 c 0.14813,-28.44447 22.99375,-28.94215 51.24271,-28.94215 23.68694,0 32.34884,-8.53748 34.56468,-11.38134 l 0.63394,-0.90647 c 0,0 6.91413,12.28781 35.23417,12.28781 28.22526,0 51.09458,0.49768 51.21307,28.94215 l 0.0236,-2.12104 v 0.24883 z" /><path
       inkscape:connector-curvature="0"
       id="path944"
       style="fill:#000000;fill-opacity:1;fill-rule:nonzero;stroke:none;stroke-width:5.92469645"
       d="m 325.01103,582.99362 c 0,0 4.79309,1.11977 8.73301,-1.47525 3.63776,-2.3995 8.06944,-0.77613 10.13122,0.36733 2.10327,1.10792 5.19597,1.95515 7.2933,0.84723 0,0 -4.7042,4.80493 -12.82103,4.80493 -8.16424,0 -13.3365,-4.54424 -13.3365,-4.54424" /><path
       inkscape:connector-curvature="0"
       id="path948"
       style="fill:#034ea2;fill-opacity:1;fill-rule:nonzero;stroke:none;stroke-width:5.92469645"
       d="m 339.31265,532.00671 c -0.34364,0 -1.60559,0.13035 -3.29413,0.65764 v -56.07133 l 5.44479,0.97165 v 54.80936 c -1.10199,-0.2903 -1.88997,-0.36732 -2.15066,-0.36732" /><path
       inkscape:connector-curvature="0"
       id="path906"
       style="font-style:normal;font-variant:normal;font-weight:bold;font-stretch:normal;font-size:medium;line-height:100%;font-family:IsraelRegular;-inkscape-font-specification:'IsraelRegular Bold';letter-spacing:0px;word-spacing:0px;fill:#034ea2;fill-opacity:1;stroke:none;stroke-width:11.18515396px;stroke-linecap:butt;stroke-linejoin:miter;stroke-opacity:1"
       d="m 390.54076,391.51575 q 0.13455,4.86793 1.70492,7.0188 h 5.85837 q 2.26764,0 3.5557,1.66982 1.17722,1.55659 1.12683,4.04706 l -0.0512,5.32077 q -0.015,2.46217 0.7352,3.67915 h -9.22845 q -1.95271,0 -3.67933,1.13205 0.26503,4.1321 2.2803,7.89618 l 0.54932,-0.33929 q 2.70073,-1.5849 5.97629,-1.5849 h 12.69303 q 0.12626,0 0.13763,-0.0848 0.0114,-0.0848 -0.0564,-0.28309 l -0.29336,-1.10375 q -0.89419,-3.1981 -0.84726,-6.36789 l 0.11975,-8.88668 q 0.14323,-12.11309 -10.75438,-12.11309 z" /><path
       inkscape:connector-curvature="0"
       id="path909"
       style="font-style:normal;font-variant:normal;font-weight:bold;font-stretch:normal;font-size:medium;line-height:100%;font-family:IsraelRegular;-inkscape-font-specification:'IsraelRegular Bold';letter-spacing:0px;word-spacing:0px;fill:#034ea2;fill-opacity:1;stroke:none;stroke-width:11.18515396px;stroke-linecap:butt;stroke-linejoin:miter;stroke-opacity:1"
       d="m 367.34789,414.41171 q 0.0895,4.50001 2.02448,7.92448 2.78522,-1.98112 6.50173,-1.98112 h 13.38591 q 0.12625,0 0.13762,-0.0848 0.0114,-0.0848 -0.0565,-0.28309 l -0.29336,-1.10375 q -0.86648,-3.16979 -0.84115,-5.94336 l 0.20981,-19.1884 q 0.0472,-2.2359 -1.62163,-2.2359 h -7.21256 q 0.56322,1.66982 0.51453,3.67925 l -0.16939,13.95267 q -0.007,2.40565 0.93033,4.10368 h -9.25995 q -2.6142,0 -4.24998,1.16036 z" /><path
       inkscape:connector-curvature="0"
       id="path911"
       style="font-style:normal;font-variant:normal;font-weight:bold;font-stretch:normal;font-size:medium;line-height:100%;font-family:IsraelRegular;-inkscape-font-specification:'IsraelRegular Bold';letter-spacing:0px;word-spacing:0px;fill:#034ea2;fill-opacity:1;stroke:none;stroke-width:11.18515396px;stroke-linecap:butt;stroke-linejoin:miter;stroke-opacity:1"
       d="m 337.65374,391.51575 q 0.3574,1.33022 0.33376,2.91511 l -0.0792,8.57539 q -0.0877,6.76401 3.91206,9.82057 -3.46459,0 -5.42301,1.21698 0.18158,4.75469 2.18051,8.40563 3.17834,-2.09436 5.03666,-2.09436 h 0.15693 q 0.91329,0 1.90531,-0.82065 1.25381,-1.13205 1.51936,-3.11317 3.55917,2.34903 4.86808,5.03767 2.5416,-1.10374 5.28182,-1.10374 h 8.063 q 0.12625,0 0.13762,-0.0848 0.0114,-0.0848 -0.0211,-0.2831 l -0.2615,-1.10374 q -0.87786,-3.08486 -0.90391,-8.99992 l 0.18,-8.632 q 0.0547,-5.57534 -2.01573,-7.75462 -2.0021,-1.98113 -6.91556,-1.98113 h -5.95276 q 0.13455,4.86793 1.70492,7.0188 h 2.17324 q 2.7401,0 2.71066,3.5094 l -0.10901,7.16034 q -0.0211,2.74526 0.74624,4.30185 h -2.55118 q -3.5276,0 -5.84178,-2.94343 -2.31787,-2.915 -2.30707,-6.99048 l 0.15053,-9.82057 q 0.0165,-2.23591 -1.52712,-2.23591 z" /><path
       inkscape:connector-curvature="0"
       id="path913"
       style="font-style:normal;font-variant:normal;font-weight:bold;font-stretch:normal;font-size:medium;line-height:100%;font-family:IsraelRegular;-inkscape-font-specification:'IsraelRegular Bold';letter-spacing:0px;word-spacing:0px;fill:#034ea2;fill-opacity:1;stroke:none;stroke-width:11.18515396px;stroke-linecap:butt;stroke-linejoin:miter;stroke-opacity:1"
       d="m 322.95166,414.32689 q 0.17628,4.55652 2.23352,8.0093 2.93895,-1.95281 7.06491,-1.95281 h 2.80322 q 0.059,0 0.0633,-0.0318 -0.0311,-0.0318 -0.0438,-0.11344 l -0.38809,-1.33012 q -0.76446,-2.51889 -0.74245,-4.33015 l 0.0915,-6.79243 q 0.0751,-5.49041 -4.83891,-5.49041 -2.6457,0 -3.63348,0.0848 0.23342,1.07554 0.21553,2.15097 l -0.0932,4.21692 q -0.0217,1.10375 0.71094,4.33016 -2.37613,0.33929 -3.44248,1.24529 z" /><path
       inkscape:connector-curvature="0"
       id="path915"
       style="font-style:normal;font-variant:normal;font-weight:bold;font-stretch:normal;font-size:medium;line-height:100%;font-family:IsraelRegular;-inkscape-font-specification:'IsraelRegular Bold';letter-spacing:0px;word-spacing:0px;fill:#034ea2;fill-opacity:1;stroke:none;stroke-width:11.18515396px;stroke-linecap:butt;stroke-linejoin:miter;stroke-opacity:1"
       d="m 291.88774,391.51575 q 0.59734,1.41515 0.57674,3.45278 -0.11747,8.632 4.47074,13.64137 -3.89062,2.94342 -5.46152,5.26415 0.87111,4.07537 3.75298,7.95268 2.22924,-3.70745 5.78596,-6.50933 l 9.6542,-7.64139 q 1.96428,2.26411 1.91851,5.66027 H 311.829 q -1.82669,0 -3.8633,1.33022 0.52926,4.27353 2.63306,7.61308 3.24641,-1.8962 7.15184,-1.8962 h 3.65362 q 0.059,0 0.0633,-0.0318 0.007,-0.053 -0.0324,-0.19827 l -1.04682,-5.34907 q -1.34595,-6.87725 -5.64667,-10.27342 l 1.7456,-1.2736 q 3.00827,-2.23579 4.59447,-4.66976 -0.81915,-4.69807 -3.64341,-8.06592 -2.24062,3.79239 -5.90312,6.67919 l -10.32096,8.15085 q -1.5623,-2.20759 -1.51094,-6.82074 h 5.00786 q -0.24501,-3.33954 -2.06769,-7.13192 -0.9285,0.11345 -2.78681,0.11345 z" /></g></svg>