<?xml version="1.0" encoding="utf-8"?>
<!-- Generator: Adobe Illustrator 15.1.0, SVG Export Plug-In . SVG Version: 6.00 Build 0)  -->
<!DOCTYPE svg PUBLIC "-//W3C//DTD SVG 1.1//EN" "http://www.w3.org/Graphics/SVG/1.1/DTD/svg11.dtd">
<svg version="1.1" id="Layer_1" xmlns="http://www.w3.org/2000/svg" xmlns:xlink="http://www.w3.org/1999/xlink" x="0px" y="0px"
	 width="167.146px" height="217.129px" viewBox="0 0 167.146 217.129" enable-background="new 0 0 167.146 217.129"
	 xml:space="preserve">
<path fill="#FFFFFF" d="M142.208,146.25V17.23l2.834-9.167H95.875c0,0-4.984-6.5-12.317-6.5s-12.317,6.5-12.317,6.5H22.073
	l2.833,9.167v129.02H142.208z"/>
<g>
	<path fill="#036534" d="M95.5,52.46c-0.698-0.585-0.748-1.599-1.66-2.191c-0.739-0.48-1.673-0.801-2.551-0.896
		c-0.697-0.076-1.521,0.178-2.198,0.003c-0.709-0.182-1.309-1.567-0.99-2.416c0.459-1.222,1.729-0.372,2.554-0.263
		c-0.036-0.221,0.064-0.504,0.025-0.724c1.041,0.156,1.945,0.589,1.57-1.078c-0.137-0.603-0.508-0.907-1.3-0.604
		c-0.364,0.14-0.558,0.216-0.641,0.64c-0.168-0.607,0.093-1.535-0.206-2.128c-0.312-0.618-0.833-0.298-1.512-0.543
		c0.003-0.727-0.389-1.86-0.031-2.538c0.442-0.838,0.562-0.064,1.144,0.133c1.54,0.523,0.864-2.003,0.796-2.885
		c1.229,0.036,2.211-0.672,2.083,1.153c-0.061,0.865-0.785,0.806-1.087,1.416c-0.123,0.249-0.193,1.708,0.021,1.908
		c0.323,0.301,2.366,0.025,2.879,0.002c-0.182-1.421,2.764-0.885,2.681,0.643c-0.533,0.209-0.764,1.616-1.14,2.142
		c-0.535,0.75-1.118,1.349-1.379,2.241c-0.353,1.208,0.278,1.049,1.092,0.396c0.883-0.708,1.183-1.429,1.706-2.414
		c0.255-0.478,0.897-2.059,1.654-1.606c0.716,0.428-0.22,2.49-0.49,2.852c-0.968,1.295-2.235,2.621-2.091,4.326
		c0.719-0.04,1.292-0.335,1.983-0.423c0.999-0.127,1.128-0.291,1.726-1.061c0.911-1.175,3.319-3.675,4.941-2.968
		c0.195,1.623-1.764,2.942-2.844,3.916c-0.869,0.785-1.823,0.818-2.688,1.366c-1.546,0.981-2.486,2.783-4.632,1.933"/>
	<path fill="#036534" d="M80.382,61.918c-0.461-0.124-1.302-0.217-1.703-0.459c-0.377-0.228-0.311-0.277-0.527-0.594
		c-0.351-0.513-0.654-1.051-1.029-1.552c-0.388-0.517-0.795-1.473-0.374-2.235c0.437-0.79,1.422-0.622,2.253-0.619
		c0.579,0.002,1.402,0.067,1.604-0.64c0.301-1.061-0.98-0.877-1.688-0.925c-1.258-0.084-2.72,0.309-2.917-1.116
		c-0.192-1.381,0.394-1.215,1.245-1.996c0.522,0.241,0.199,0.793,0.565,1.163c0.471,0.477,2.227,0.096,2.523-0.444
		c0.309-0.563-0.15-1.41,0.221-1.978c0.303-0.464,0.638-0.355,0.781-0.969c0.206-0.883-0.107-0.759-0.689-1.029
		c-0.688-0.319-1.825-0.585-2.546-0.113c-0.674,0.441-0.697,2.254-1.727,1.902c-1.142-0.391-0.462-3.396-0.558-4.155
		c-0.14-1.118-0.429-2.251-0.484-3.433c-0.056-1.153,0.178-2.067,0.347-3.179c0.067-0.028,0.135-0.028,0.204-0.001
		c0.191,0.53,0.358,1.224,0.622,1.717c-0.007-0.404-0.209-1.979,0.327-2.15c0.324-0.104,1.062,0.775,1.421,0.907
		c0.328,0.121,0.669,0.01,1.002,0.104c0.555,0.158,0.27,0.189,0.686,0.548c0.637,0.548,0.738,0.127,1.496,0.363
		c1.039,0.324,0.555,2.494,2.047,1.278c0.246-0.2,0.912-1.54,1.438-1.369c0.682,0.221,0.297,2.092,0.091,2.501
		c-0.545,1.085-1.488,1.565-1.748,2.753c0.455-0.031,1.051-0.236,1.388-0.575c0.336-0.337,0.218-0.858,0.534-1.152
		c1.002-0.931,2.151,0.258,1.57,1.394c-0.487,0.952-2.431,1.142-2.974,2.15c-0.459,0.854-0.159,2.669-0.103,3.595
		c1.264,0.071,2.481,0.08,3.389-0.837c0.265-0.267,0.549-0.92,1.081-0.397c0.281,0.275-0.021,0.944-0.312,1.314
		c-0.858,1.084-3.311,1.599-3.506,3.184c-0.166,1.341,0.884,0.657,1.482,1.098c0.804,0.59-0.313,2.528-0.81,3.008
		c-0.215,0.208-0.842,0.416-0.839,0.811c0.003,0.392,0.528,0.664,0.923,0.506c0.646-0.259,0.488-1.37,0.664-1.918
		c0.449-1.398,0.433-2.833,1.216-4.162c0.73-1.242,1.506-0.727,2.774-1.104c0.034-0.311,0.464-0.839,0.846-0.741
		c0.425,0.109,0.411,0.846,0.433,1.229c0.071,1.26-1.057,1.139-1.185,2.341c-0.045,0.422-0.092,1.038,0.565,1.108
		c0.656,0.069,0.538-0.467,0.685-0.924c0.375-1.181,1.175-1.408,2.086-0.584c1.405,1.272,2.202,3.323,4.437,2.356
		c1.686-0.729,0.882-3.502,2.248-4.628c0.56-0.459,1.386-0.528,2.081-0.561c0.769-0.036,1.185-0.118,1.398,0.583
		c0.263,0.86-0.263,2.214,0.179,3.005c0.108,0.194,0.522,0.037,0.633,0.259c0.553,1.104-1.729,0.852-2.332,1.069
		c-1.008,0.362-0.916,0.806-0.979,1.824c-0.045,0.71-0.2,2.388-0.688,2.909c-0.449,0.48-1.6,0.351-2.228,0.35
		c-1.151-0.001-1.943-0.229-2.904-0.854c-0.919-0.598-1.301-1.408-2.434-1.479c-1.108-0.07-2.224,0.293-3.409,0.237
		c0.367-0.802,2.03-0.947,2.077-1.571c0.074-0.991-2.302-1.155-2.901-0.821c-0.511,0.537-0.472,1.542-0.662,2.254
		c-0.269,1.006-0.836,1.334-1.836,1.652C84.122,62.678,82.074,62.371,80.382,61.918z"/>
	<path fill="#036534" d="M55.95,51.207c-0.352-0.143-0.454-0.415-0.835-0.477c-0.316-0.051-0.732-0.027-1.053,0.005
		c-0.294,0.029-0.771,0.142-0.935-0.2c-0.144-0.299-0.049-0.756,0.2-0.958c0.354-0.288,0.55,0.019,0.978-0.034
		c0.68-0.084,0.829-0.784,1-1.367c0.081-0.277,0.083-1.357,0.287-1.472c0.156-0.087,0.684,0.114,0.861,0.145
		c0.032,0.638-0.101,1.206-0.285,1.763C55.9,49.413,56.187,50.361,55.95,51.207z"/>
	<path fill="#214185" d="M77.25,92.25c-8.375,9.625-11.875,14.625-11.875,21.375c0,1,0,1.375,0,1.375h9.316c0,0,0-2,0-3
		s0.934-3.625,5.934-6.25c3.005-1.578,24.517-12.679,41.208-21.289V67.958c0,0-0.75-0.333-0.75-1.167s1.417-1.917,1.417-1.917
		l3.575-9.75l3.574,9.75c0,0,1.417,1.084,1.417,1.917s-0.75,1.167-0.75,1.167v12.126c6.83-3.523,11.559-5.96,11.559-5.96V36.5
		C141.875,36.5,85.625,82.625,77.25,92.25z"/>
	<ellipse fill="#036534" cx="99.667" cy="104.958" rx="12.583" ry="10.833"/>
	<path fill="#F5EB00" d="M75,116.583l4.208-4.375l4.25,4.541L87,112.958l4.084,3.582l3.833-3.75l4.292,3.793l2.917-4.043
		l3.666,4.125l3.667-3.832l3.792,4.25l4.291-6.459l2.959,3.666v13.709c0,0-9.375-2.875-19.375-2.875s-26.167,0-26.167,0L75,116.583z
		"/>
	<g>
		<rect x="162.794" y="188.792" fill="#231F20" width="2.208" height="2.209"/>
		<rect x="131.439" y="188.792" fill="#231F20" width="2.208" height="2.209"/>
		<rect x="127.69" y="188.792" fill="#231F20" width="2.208" height="2.209"/>
		<rect x="118.064" y="172" fill="#231F20" width="2.208" height="2.209"/>
		<rect x="114.315" y="172" fill="#231F20" width="2.208" height="2.209"/>
		<rect x="51.314" y="172" fill="#231F20" width="2.208" height="2.209"/>
		<rect x="47.565" y="172" fill="#231F20" width="2.208" height="2.209"/>
		<rect x="82.149" y="172" fill="#231F20" width="2.208" height="2.209"/>
		<path fill="#231F20" d="M164.042,176.417v7.875h-7.833v-13h-2.75v13h-7.348c-0.136-3.604-4.361-7.385-6.269-8.26l-1.562,1.78
			c1.586,0.688,5.094,3.646,5.235,6.479h-6.267v2.416h29.791v-10.291H164.042L164.042,176.417z"/>
		<path fill="#231F20" d="M131.531,184.282h-9.28v-5.812c0.021-0.07,0.03-0.145,0.03-0.219c0-0.129-0.014-0.246-0.03-0.359v-0.047
			h-0.004c-0.162-0.924-0.868-1.406-1.527-1.406c-0.75,0-3.656,0-5.125,0c-1.875,0-4.062,2.594-4.062,5.25
			c0,2.374,2.717,4.627,4.188,5.062h18.562v-1.812v-0.656V176.5h-2.75v7.781H131.531z M119.5,184.282h-3.781
			c-0.656,0-1.469-0.656-1.469-2.906s2.375-3,3.719-3c0.957,0,1.37,0.256,1.531,0.627V184.282z"/>
		<path fill="#231F20" d="M102.291,171.125l-8.25,5.832l5.542,5.709v1.584H87.772c0.916-0.824,1.479-1.904,1.479-3.094
			c0-2.572-2.604-4.656-5.812-4.656s-5.812,2.084-5.812,4.656c0,1.188,0.562,2.27,1.477,3.094h-7.561c0-3.262,0-7.918,0-7.918
			h-2.583c0,0,0,9.084,0,11.459S68,190.458,67.5,190.458s-3.042,0-3.042,0v1.875c0,0,1.5,0,3.583,0c3.542,0,3.5-4.125,3.5-5.041
			c0-0.098,0-0.303,0-0.584h30.625v-2.082c0-0.959,0.168-2.043-1.166-3.668s-3.584-4.041-3.584-4.041l5.709-4L102.291,171.125z
			 M83.438,184.188c-1.795,0-3.25-1.344-3.25-3s1.455-3,3.25-3s3.25,1.344,3.25,3S85.232,184.188,83.438,184.188z"/>
		<path fill="#231F20" d="M50.667,176.375c-3.708,0-5.5,2.416-5.5,5.041c0,1.724,0.784,2.646,1.327,3.084h-4.535v-13.125h-2.792
			v15.25h16.208c0,0,0-5.5,0-6.959C55.375,178.209,54.375,176.375,50.667,176.375z M53.208,184.5h-3.891
			c-0.648-0.592-1.526-1.627-1.526-2.916c0-2.043,1.042-3.25,2.875-3.25s2.542,1.291,2.542,2.625
			C53.208,182.292,53.208,184.5,53.208,184.5z"/>
		<path fill="#231F20" d="M31.917,175.458v1.75c0,0,0.583,1.168,0.583,2.168s0,4.916,0,4.916s-0.5,0-1.333,0s-2.417-0.416-2.417-1
			s0-6.334,0-6.334h-2.5c0,0,0,5.5,0,6.25s-1,1.834-2,1.834s-1.583-1.084-1.583-1.416c0-0.334,0-5.834,0-5.834h-2.75
			c0,0,0,4.25,0,5.084s0,1.582-0.583,1.582c-0.251,0-1.961,0-3.917,0c0-0.85,0-2.824,0-4.166c0-1.75-1.333-4.416-5.167-4.416
			c-2.938,0-4.548,2.248-5.145,4.5c-0.705,0-2.011,0-2.605,0c-0.833,0-2.5,0.916-2.5,3.5c0,2.582,1.167,5.166,1.167,8.332
			c1.5,0,1.646,0,2.083,0c0-2.832-1.125-5.988-1.125-7.676c0-1.689,0.594-2.125,1.469-2.125c0.492,0,0.94,0,1.242,0
			c0.02,2.649,2.505,4.551,4.332,4.551c1.833,0,8.5,0,9.583,0s2.333-1.5,2.333-1.5s0.917,1.584,2.833,1.584s3.583-1.584,3.583-1.584
			s1,1.168,2.167,1.168s5.583,0,5.583,0v-7.719c0-1.634-0.917-3.449-0.917-3.449H31.917z M12.75,184.458c-1.685,0-3.146,0-3.583,0
			c-1.167,0-2-1.416-2-2.75c0-1.332,1.583-3.332,3.167-3.332s2.417,1.832,2.417,2.832C12.75,181.963,12.75,183.668,12.75,184.458z"
			/>
	</g>
	<g>
		<path fill="#231F20" d="M13.489,209.943H2.131v-11.92c1.475-0.252,2.968-0.378,4.48-0.378c1.934,0,3.368,0.236,4.305,0.711
			c0.936,0.475,1.599,1.102,1.988,1.885c0.391,0.783,0.584,1.828,0.584,3.135V209.943z M10.28,207.17v-3.61
			c0-1.062-0.232-1.868-0.698-2.418c-0.466-0.552-1.322-0.825-2.567-0.825c-0.665,0-1.219,0.042-1.662,0.126v6.728H10.28
			L10.28,207.17z"/>
		<path fill="#231F20" d="M15.839,203.961c0-1.935,0.577-3.492,1.729-4.678c1.154-1.184,2.667-1.775,4.539-1.775
			c1.262,0,2.357,0.27,3.29,0.809c0.933,0.538,1.666,1.277,2.2,2.219c0.535,0.938,0.802,2.031,0.802,3.276
			c0,1.804-0.581,3.323-1.741,4.562c-1.162,1.238-2.671,1.856-4.527,1.856s-3.37-0.578-4.539-1.735
			C16.423,207.336,15.839,205.825,15.839,203.961z M19.151,203.87c0,1.123,0.271,2.023,0.814,2.705
			c0.542,0.68,1.264,1.02,2.166,1.02c0.901,0,1.62-0.34,2.155-1.02c0.534-0.682,0.802-1.591,0.802-2.73
			c0-1.129-0.271-2.031-0.809-2.703c-0.538-0.674-1.255-1.01-2.148-1.01c-0.986,0-1.729,0.363-2.229,1.09
			C19.401,201.948,19.151,202.831,19.151,203.87z"/>
		<path fill="#231F20" d="M39.036,204.774l3.668,5.169h-3.782l-4.252-6.006c-0.673,0.665-1.009,1.86-1.009,3.588l-0.185,2.418H30.36
			l0.229-2.579c0.161-1.742,0.451-2.988,0.871-3.74c0.42-0.754,0.99-1.354,1.708-1.807l-2.831-4.033h3.771l3.52,4.973
			c0.726-0.525,1.089-1.52,1.089-2.979l0.161-1.994h2.979l-0.138,1.479c-0.161,1.673-0.432,2.864-0.814,3.575
			C40.522,203.547,39.899,204.193,39.036,204.774z"/>
		<path fill="#231F20" d="M44.479,200.557v-2.773h10.75v3.129c0,1.146-0.05,1.986-0.148,2.521c-0.1,0.535-0.31,1.031-0.63,1.49
			l-0.517,0.744c-0.367,0.543-0.594,0.961-0.682,1.256c-0.088,0.293-0.131,0.627-0.131,1.002v2.018H49.9v-2.178
			c0-0.626,0.082-1.157,0.246-1.594c0.165-0.436,0.487-0.984,0.97-1.649l0.31-0.424c0.39-0.543,0.584-1.216,0.584-2.019v-1.523
			H44.479z M44.479,214.62v-10.992h3.209v10.992H44.479z"/>
		<path fill="#231F20" d="M73.763,209.943h-3.209v-5.981c0-1.299-0.323-2.229-0.968-2.785c-0.646-0.559-1.672-0.838-3.078-0.838
			c-0.718,0-1.669,0.074-2.854,0.219l-0.24-2.533c1.1-0.252,2.369-0.378,3.805-0.378c2.177,0,3.812,0.455,4.905,1.364
			c1.092,0.908,1.639,2.363,1.639,4.365L73.763,209.943L73.763,209.943z"/>
		<path fill="#231F20" d="M76.651,198.161c1.444-0.39,2.915-0.584,4.413-0.584c2.132,0,3.83,0.561,5.095,1.68
			c1.264,1.119,1.896,2.568,1.896,4.35c0,2.07-0.688,3.676-2.062,4.812c-1.375,1.14-3.176,1.709-5.398,1.709
			c-1.398,0-2.815-0.256-4.252-0.77l0.63-2.166c1.162,0.443,2.266,0.665,3.312,0.665c1.337,0,2.406-0.347,3.209-1.037
			c0.802-0.69,1.203-1.718,1.203-3.077c0-1.244-0.324-2.224-0.975-2.935c-0.649-0.71-1.562-1.065-2.739-1.065
			c-0.428,0-0.863,0.043-1.307,0.127v1.408c0,1.116,0.447,1.674,1.341,1.674c0.122,0,0.26-0.008,0.413-0.022l0.539,1.995
			c-0.542,0.229-1.135,0.344-1.776,0.344c-0.596,0-1.155-0.107-1.679-0.32c-0.522-0.215-0.964-0.593-1.324-1.136
			c-0.358-0.542-0.539-1.479-0.539-2.808V198.161z"/>
		<path fill="#231F20" d="M89.831,209.76l0.446-2.521c0.765,0.268,1.482,0.401,2.154,0.401c1.162,0,2.078-0.341,2.751-1.021
			c0.672-0.681,1.009-1.598,1.009-2.75c0-1.162-0.331-2.082-0.99-2.764c-0.661-0.68-1.584-1.02-2.77-1.02
			c-0.695,0-1.413,0.133-2.154,0.4l-0.446-2.511c0.803-0.252,1.758-0.378,2.864-0.378c1.46,0,2.674,0.236,3.64,0.711
			c0.967,0.475,1.748,1.156,2.345,2.052c0.596,0.894,0.895,2.062,0.895,3.507c0,1.383-0.279,2.521-0.838,3.409
			c-0.558,0.892-1.328,1.589-2.314,2.093c-0.985,0.504-2.228,0.756-3.726,0.756C91.611,210.127,90.656,210.004,89.831,209.76z"/>
		<path fill="#231F20" d="M108.021,207.525c0.466,0.151,0.882,0.229,1.249,0.229c0.458,0,0.76-0.112,0.905-0.338
			c0.145-0.227,0.218-0.651,0.218-1.277v-5.822c-0.535,0-1.349,0.064-2.44,0.193l-0.252-2.486c1.972-0.252,4.02-0.378,6.144-0.378
			c1.795,0,3.217,0.157,4.264,0.47c1.046,0.313,1.835,0.887,2.366,1.721c0.531,0.832,0.797,2.013,0.797,3.541v6.566h-3.221v-5.982
			c0-1.543-0.256-2.555-0.768-3.037c-0.514-0.48-1.735-0.723-3.669-0.723v6.086c0,1.031-0.077,1.771-0.234,2.219
			c-0.156,0.447-0.479,0.812-0.968,1.101c-0.489,0.286-1.186,0.431-2.086,0.431c-0.979,0-1.91-0.143-2.798-0.425L108.021,207.525z"
			/>
		<path fill="#231F20" d="M127.79,197.784v6.784h-3.312v-6.784H127.79z"/>
		<path fill="#231F20" d="M134.197,197.784v6.784h-3.312v-6.784H134.197z"/>
		<path fill="#231F20" d="M146.552,209.943h-3.209v-5.981c0-1.299-0.323-2.229-0.969-2.785c-0.646-0.557-1.671-0.838-3.077-0.838
			c-0.718,0-1.669,0.074-2.854,0.219l-0.24-2.533c1.101-0.252,2.368-0.378,3.806-0.378c2.178,0,3.812,0.455,4.905,1.364
			c1.093,0.908,1.639,2.363,1.639,4.365V209.943L146.552,209.943z"/>
		<path fill="#231F20" d="M152.845,197.784v6.784h-3.312v-6.784H152.845z"/>
		<path fill="#231F20" d="M160.5,207.547c0.879-0.412,1.45-0.896,1.714-1.448c0.264-0.556,0.396-1.408,0.396-2.562l0.139-5.754
			h3.196l-0.172,4.366c-0.046,1.33-0.115,2.337-0.212,3.021c-0.096,0.685-0.312,1.363-0.652,2.035
			c-0.341,0.672-0.867,1.279-1.582,1.821c-0.715,0.543-1.804,1.054-3.267,1.53c-1.464,0.479-3.181,0.877-5.151,1.197l-0.401-2.637
			c1.223-0.184,2.281-0.386,3.175-0.607l-2.107-10.727h3.255L160.5,207.547z"/>
	</g>
	<path fill="#214185" d="M83.487,3.25c10.491,0,11.881,6.625,11.881,6.625h49.165l1.643-3.625H95.62c0,0-3.412-6.25-12.134-6.25
		c-8.721,0-12.133,6.25-12.133,6.25H20.799l1.643,3.625h49.164C71.606,9.875,72.997,3.25,83.487,3.25z"/>
	<path fill="#214185" d="M141.878,16.375l2.021-5.5H94.735c0,0-2.147-6.375-11.248-6.375c-9.1,0-11.249,6.375-11.249,6.375H23.075
		l2.021,5.5H141.878z"/>
	<polygon fill="#214185" points="140.613,20.375 140.613,21.875 142.383,21.875 142.383,17.75 24.591,17.75 24.591,21.875 
		26.36,21.875 26.36,20.375 	"/>
	<g>
		<rect x="25.112" y="21.625" fill="#EEE809" width="116.75" height="12.375"/>
		<path fill="#214185" d="M142.362,34.5H24.612V21.125h117.75V34.5z M25.612,33.5h115.75V22.125H25.612V33.5z"/>
	</g>
	<g>
		<polygon fill="#214185" points="78.169,22.875 89.837,22.875 84.003,29.625 		"/>
		<polygon fill="#214185" points="58.253,22.875 69.92,22.875 64.087,29.625 		"/>
		<polygon fill="#214185" points="38.337,22.875 50.004,22.875 44.171,29.625 		"/>
		<polygon fill="#214185" points="98.086,22.875 109.753,22.875 103.92,29.625 		"/>
		<polygon fill="#214185" points="118.002,22.875 129.669,22.875 123.836,29.625 		"/>
		<polygon fill="#214185" points="79.154,33.208 67.487,33.208 73.32,26.458 		"/>
		<polygon fill="#214185" points="99.069,33.208 87.402,33.208 93.236,26.458 		"/>
		<polygon fill="#214185" points="118.985,33.208 107.318,33.208 113.152,26.458 		"/>
		<polygon fill="#214185" points="139.319,33.208 127.652,33.208 133.486,26.458 		"/>
		<polygon fill="#214185" points="59.238,33.208 47.571,33.208 53.404,26.458 		"/>
		<polygon fill="#214185" points="39.322,33.208 27.655,33.208 33.488,26.458 		"/>
	</g>
	<path fill="#214185" d="M142.316,142.125c0,0,0,2.5,0,4.125s-10.114,10.588-33,11.125c-16,0.375-25.907,8-25.907,8
		s-9.909-7.625-25.909-8c-22.886-0.537-33-9.5-33-11.125s0-4.125,0-4.125H142.316z"/>
	<path fill="#214185" d="M139.062,134.125c-2.188,0-109,0-109,0l12.483-9.86l0.329,5.485c0,0,12.25-4,18.75-4
		c-8.25,0-17.625,0-17.625,0v-2.635l0.938-0.74v-5.625l-21.312,17.875c0,0-1.062,4.219,1,4.219H139.75
		c1.188,0,2.125-1.469,2.125-2.531S141.25,134.125,139.062,134.125z"/>
	<g>
		<path fill="#214185" d="M120.875,113.958v-5.021c0,0-5.938,0-7.438,0s-1.25-2.562-1.938-2.562c-0.688,0-2.062,1.062-2.5,1.062
			c-0.438,0-1.688-0.75-2.062-0.75s-0.562,0.938-1.688,0.938s-4.438-1.188-6.938-1.188s-2.5,0.688-4.5,0.688s-2.562,1.75-3.875,1.75
			c-1.312,0-0.75-1.188-2.625-1.188s-2,1-2,2.312c0,1.176,0,3.547,0,4.031l-1.854,1.984l-4.245-4.535l-4.428,4.604H74.5v0.599
			l-0.041,8.438H74.5v0.672h1v-9.01l3.704-3.85l3.629,3.878v8.979h1v-8.711l3.201-3.429l3.565,3.129v9.011h1v-9.058l3.334-3.262
			l3.767,3.329v8.992h1v-9.037l2.466-3.416l3.001,3.377v9.076h1v-8.795l3.278-3.429l3.305,3.704v9.854h1v-9.892l3.831-5.767
			l2.42,2.998v13.531h1V114.29v-0.177L120.875,113.958z"/>
		<rect x="65.083" y="114.584" fill="#214185" width="1" height="11.207"/>
	</g>
	<path fill="#214185" d="M130.817,87.558V68.24c0.357-0.262,0.75-0.742,0.75-1.448c0-0.921-1.076-1.883-1.496-2.222l-3.995-10.897
		l-3.996,10.897c-0.419,0.339-1.496,1.301-1.496,2.222c0,0.706,0.393,1.187,0.75,1.448v19.318c-0.952,0.273-2.25,1.051-2.25,2.65
		c0,1.494,0.767,2.129,1.418,2.335v35.456h1v-9.869h4.498v-1h-4.498v-11.917h4.331v-1h-4.331V92.629h9.147v2.08h1v-2.165
		c0.651-0.206,1.418-0.841,1.418-2.335C133.067,88.609,131.77,87.831,130.817,87.558z M128.996,64.54h-5.842l2.921-7.963
		L128.996,64.54z M122.487,65.54h7.178c0.444,0.404,0.902,0.944,0.902,1.252c0,0.48-0.411,0.69-0.453,0.709l-0.156,0.07h-7.774
		l-0.142-0.067c-0.047-0.022-0.458-0.232-0.458-0.712C121.583,66.486,122.041,65.945,122.487,65.54z M129.817,87.405h-7.483V68.571
		h7.483V87.405z M131.149,91.625h-0.5v0.004h-9.52l-0.121-0.004c-0.155-0.005-0.926-0.097-0.926-1.417
		c0-1.456,1.75-1.744,1.825-1.756l0.309-0.048h7.702l0.325,0.048c0.073,0.011,1.822,0.287,1.822,1.755
		C132.067,91.528,131.297,91.62,131.149,91.625z"/>
	<path fill="#036534" d="M85.699,109.75c0.016-0.135,0.047-0.265,0.047-0.401c0-2.118-1.995-3.836-4.457-3.836
		s-4.457,1.718-4.457,3.836c0,0.138,0.029,0.269,0.047,0.401H85.699z"/>
	<path fill="#214185" d="M40.63,99.5c-0.836,0.015-1.087,0.458-1.613,1.079c-1.184,1.398-2.33,2.898-3.595,4.226
		c-0.812,0.851-1.423,1.48-2.034,2.505c-0.332,0.557-0.753,1.051-1.153,1.565c-0.784,1.008-1.411,2.105-2.188,3.125
		c-0.453,0.597-0.681,1.258-1.151,1.811c-0.273,0.322-0.67,0.73-0.802,1.08c-0.149,0.393-0.023,0.941-0.345,1.244
		c-0.433-0.596-0.814-0.613-0.872-1.438c-0.059-0.826-0.234-1.617-0.188-2.447c0.043-0.779,0.343-0.772,0.862-1.41
		c0.348-0.426,0.727-0.772,1.06-1.217c0.937-1.246,1.649-2.636,2.42-3.981c0.637-1.111,0.995-2.054,1.034-3.378
		c0.015-0.473-0.141-1.124,0.106-1.542c0.254-0.428,0.492-0.307,0.989-0.346c0.404-0.032,0.579-0.154,0.952-0.267
		c0.258-0.078,0.566-0.028,0.828-0.108c0.577-0.177,0.768-1.07,0.622-1.67c-0.151-0.631-0.72-0.728-0.813-1.468
		c-0.077-0.612,0.186-1.089,0.236-1.669c0.073-0.825,0.01-1.341,0.549-2.116c0.37-0.532,0.386-0.509,1.061-0.273
		c0.903,0.316,2.23,0.774,2.968,1.382c0.422,0.349,0.96,1.006,1.237,1.483c0.281,0.482,0.365,1.212,0.885,1.586
		c0.724,0.521,1.31-0.149,1.44,0.889c0.052,0.41,0.215,1.275-0.214,1.549C42.5,99.955,41.172,99.491,40.63,99.5z"/>
	<path fill="#214185" d="M39.054,89.583c-1.3-0.262-2.623-0.411-3.887-0.952c-2.893-1.238-1.904-5.318-1.727-7.681
		c0.122-1.613,0.652-3.701,1.397-5.138c0.661-1.275,1.328-2.49,2.139-3.689c0.741-1.095,1.626-2.18,2.692-2.975
		c0.723-0.54,1.594-0.885,2.221-1.539c0.662-0.69,1.182-1.533,1.875-2.216c0.727-0.715,1.634-1.293,2.374-2.008
		c-0.157-0.345-0.558-0.888-0.884-1.062c-0.385-0.205-0.565,0.125-0.637-0.439c-0.141-1.09,1.719-1.299,2.306-1.761
		c0.45-0.354,1.074-1.024,0.819-1.73c-0.157-0.435-0.919-1.203-1.305-1.456c-0.327-0.214-1.089-0.328-1.257-0.747
		c-0.349-0.87,0.944-1.218,0.34-2.048c-0.564-0.777-2.012-1.56-2.878-1.907c-1.042-0.417-2.403-0.542-3.288-1.221
		c-0.521-0.401-0.546-1.097-0.657-1.698c0.656,0.383,1.1,0.74,1.866,0.747c0.396,0.003,0.935-0.094,1.313,0.014
		c0.342,0.097,0.516,0.34,0.827,0.47c0.991,0.416,1.469-0.698,2.182-1.233c0.563-0.423,1.112-0.768,1.61-1.252
		c0.627-0.61,1.206-1.233,1.913-1.746c0.151,0.832-0.05,1.206-0.642,1.803c-0.726,0.731-1.375,1.487-2.006,2.271
		c-1.115,1.385,0.822,2.505,2.059,2.731c0.826,0.151,1.636,0.681,2.161,1.266c0.452,0.502,0.851,1.131,1.303,1.664
		c0.233,0.277,0.698,0.622,0.856,0.93c0.81,1.58-1.378,3.991-2.275,5.094c-0.611,0.75-1.122,1.1-1.994,1.568
		c-0.679,0.364-1.189,0.604-1.637,1.158c-0.3,0.372-0.689,0.73-0.786,1.314c-0.104,0.617,0.205,0.705,0.472,1.166
		c1.312,2.274-2.179,4.002-1.786,6.335c0.861,0.058,1.138-0.403,1.66-1.066c0.321-0.409,0.581-0.772,0.906-1.148
		c0.85-0.983,1.109-2.323,1.918-3.308c0.769-0.937,2.192-1.636,3.38-1.839c0.125,1.026,0.302,2.265-0.292,3.292
		c-0.598,1.031-1.027,2.028-1.139,3.195c1.094-0.092,1.136-0.316,1.52-1.212c0.161-0.374,0.535-1.012,0.836-1.271
		c0.208-0.179,0.54-0.277,0.776-0.487c0.604-0.537,0.827-1.356,1.032-2.109c0.459-1.688,0.812-3.437,0.831-5.214
		c0.017-1.491-0.197-3.367,0.373-4.764c0.344-0.842,0.812-1.314,0.813-2.295c0.004-1.895-1.986-4-1.028-5.827
		c0.275-0.524,0.911-0.801,1.171-1.376c0.23-0.51,0.078-2.163,0.667-2.359c0.821-0.273,0.58,1.974,0.567,2.26
		c-0.024,0.542-0.118,1.115-0.342,1.607c-0.175,0.383-0.6,0.837-0.665,1.241c-0.107,0.668,0.512,1.412,0.927,1.867
		c0.736,0.808,0.967,1.264,0.829,2.45c-0.138,1.174-1.162,1.861-1.555,2.951c-0.28,0.78-0.255,1.775-0.133,2.6
		c0.158,1.066,0.516,1.244,1.662,1.006c0.173-1.222,0.767-2.02,1.596-2.887c0.78-0.814,2.048-0.377,3.084-0.62
		c0.729-0.17,1.438-0.479,2.166-0.552c0.698-0.069,1.089,0.11,1.629-0.398c0.508-0.479,0.761-1.29,1.333-1.722
		c0.653-0.493,1.052-0.142,1.773-0.202c-0.036-0.394,0.197-0.792,0.313-1.163c0.196-0.625,0.197-1.226,0.253-1.891
		c0.081-0.979,0.09-1.782,1.311-1.463c0.133,0.826-0.06,1.769,0.283,2.543c0.566,1.276,1.535,0.217,2.247,0.898
		c0.613-0.102,0.724-1.069,0.836-1.558c0.166-0.724,0.422-1.057,0.818-1.624c0.452-0.648,0.51-1.233,0.72-1.966
		c0.194-0.676,0.388-0.876,1.089-0.948c0.105,1.241-0.905,2.255-1.266,3.388c-0.294,0.924,0.011,1.934-0.477,2.736
		c-0.419,0.69-1.035,0.899-1.495,1.479c-0.229,0.289-0.489,0.674-0.567,1.079c-0.053,0.265,0.086,0.602,0.007,0.856
		c-0.374,1.193-4.594,0.337-2.21,2.22c1.287,1.017,2.349,1.944,3.471,3.173c0.653,0.715,1.45,1.299,1.72,2.241
		c-0.481,0.002-1.083,0.29-1.465,0.111c-0.344-0.161-0.824-0.731-1.212-0.964c-0.745-0.447-1.402-1.148-2.049-1.703
		c-0.776-0.666-1.565-1.393-2.512-1.751c-0.81-0.306-1.354,0.133-2.07,0.683c-0.577,0.443-1.213,0.838-1.601,1.44
		c-0.271,0.422-0.391,0.985-0.594,1.447c-0.282,0.644-0.848,2.294-1.721,1.998c-0.317-0.108-0.254-0.4-0.713-0.439
		c-0.646-0.056-1.035,0.253-1.295,0.734c-0.613,1.131-0.828,2.991-0.888,4.258c-0.345-0.022-0.593,0.047-0.916-0.022
		c-0.278-0.06-0.683-0.284-1.024-0.347c-0.822-0.153-1.361,0.075-1.427-0.923c-0.04-0.604,0.171-1.452-0.07-1.997
		c-0.281-0.636-1.101-0.617-1.459-0.033c-0.337,0.551-0.126,1.479-0.735,1.877c-0.562,0.367-1.327,0.021-1.848,0.517
		c-0.541,0.515-0.681,1.802-0.825,2.498c-0.152,0.742-0.233,1.595-0.672,2.311c-0.478,0.781-0.765,1.117-0.884,2.047
		c-0.133,1.039-0.702,1.696-1.136,2.619c-0.381,0.809-0.804,2.681-2.051,2.455c-0.089-0.37-0.256-1.048-0.679-1.184
		c-0.385-0.124-1.438,0.364-1.584,0.638c-0.459,0.861,0.295,1.526,0.877,2.061c0.648,0.595,1.353,1.747,1.162,2.691
		c-0.244,1.213-1.405,2.412-2.08,3.439c-0.386,0.586-1.016,2.523-1.941,2.361c-0.277-0.048-0.563-0.542-0.77-0.722
		c-0.405-0.354-0.88-0.639-1.339-0.916C41.034,90.051,40.05,89.783,39.054,89.583z"/>
	<path fill="#F5EB00" d="M69.917,95.711c-0.058-0.816,0.014-1.479-0.788-1.715c-1.479-0.435-1.201,0.813-2.202,1.128
		c-0.821,0.258-3.896,0.224-4.447-0.294c-0.341-0.32-0.431-1.39-0.479-1.885c-0.085-0.873,0.342-1.814-0.584-2.068
		c-1.278-0.351-1.455,0.386-1.514,1.389c-1.842,0.158-1.218-2.811-1.236-3.91c-0.011-0.543,0.038-0.838-0.277-1.298
		c-0.111-0.162-0.518-0.396-0.562-0.49c-0.298-0.621-0.094-1.955-0.07-2.679c0.983-0.06,2.333,0.506,3.118-0.24
		c0.352-0.335,0.641-0.939,0.254-1.439c-0.436-0.562-1.875-0.29-2.533-0.43c-0.048-0.865,0.095-1.795-0.032-2.652
		c-0.145-0.98-1.004-1.646-1.315-2.403c-0.359-0.871-0.073-1.937-0.165-2.87c-0.142-1.425-1.489-3.938-2.314-1.312
		c-0.335,1.067-0.546,1.906-1.125,2.789c-0.65,0.992-0.879,2.142-1.207,3.315c-0.216,0.773-0.483,1.593-0.787,2.309
		c-0.419,0.992-1.159,1.917-0.326,2.737c-1.152,0.198-1.604,0.673-1.739,1.825c-0.127,1.071-0.339,1.57-0.896,2.469
		c-0.967,1.561-0.958,3.49-2.355,4.892c-1.646,1.65-3.036-0.456-4.585-1.215c-0.999-0.49-2.042-1.121-2.988-1.454
		c-1.005-0.354-2.191-0.656-3.091-1.083l-0.083,0.25c-0.006,0.609-0.104,1.201-0.071,1.821c1.509,0.344,3.217,1.008,4.342,2.082
		c0.758,0.723,1.652,1.303,2.381,2.143c0.554,0.637,0.992,1.048,1.676,1.553c1.766,1.302,3.436,2.251,3.589,4.529
		c0.112,1.675-0.274,3.389-0.055,5.026c1.654-0.093,3.458,0.18,5.165,0.18c0.793,0,1.69-0.276,1.974,0.417
		c0.217,0.531,0.018,1.736-0.014,2.324c-1.159,0.047-2.335-0.004-3.49-0.056c-0.699-0.03-3.43-0.514-3.921-0.024
		c-0.304,0.303-0.053,1.58-0.076,2.016c-0.034,0.63-0.143,1.346-0.329,1.933c-0.273,0.856-0.255,1.535-0.336,2.474
		c-0.281,3.24-0.661,6.543-0.489,9.908c1.69,0.069,12.747,0.277,13.816,0.164c0.024-1.166,0.178-2.365-0.596-3.232
		c-0.633-0.709-0.698-0.994-0.649-1.989c0.045-0.907,0.101-1.827,0.166-2.735c0.142-1.949,0.167-3.888,0.167-5.857
		c0-0.84,0.273-2.163-0.557-2.569c-0.628-0.308-0.652,0.229-0.942-0.437c-0.09-0.206,0-0.671,0-0.896c0-0.729,0.053-1.2,0.281-1.84
		c0.488-0.088,0.702-0.272,1.219-0.345c1.215-0.17,1.073,0.413,1.646,1.181c0.712,0.953,1.431,1.012,1.271,2.49
		c-0.188,1.729-1.091,3.003-1.002,4.891c0.065,1.389,0.083,2.729,0.605,4.021c0.407,1.008,0.815,1.637,0.812,2.767
		c-0.003,1.17,0.005,2.34,0,3.511c-0.003,0.756-0.139,0.832,0.483,1.053c0.462,0.164,1.034,0.016,1.519-0.019
		c0.011-3.749,0.364-7.554-0.562-11.162c-0.198-0.774,0.104-1.114,0.21-1.88c0.164-1.189,0.429-2.367,0.621-3.564
		c0.295-1.838,0.673-3.719,1.457-5.349c0.769-1.596,1.824-3.115,2.853-4.539C69.676,98.071,70.027,97.288,69.917,95.711z
		 M67.5,98.96c0,0-0.25,0.5-1.75,2.916s-2.083,3.917-2.083,3.917s0-1.667,0-3.083s-0.917-5.5-0.917-5.5h4.75V98.96z"/>
	<path fill="#214185" d="M88.99,60.091c-0.793-0.21-3.649-0.271-1.101-1.097c1.01-0.327,2.085-0.197,3.084-0.623
		c0.546,1.758-2.835,3.279-3.825,4.247c-0.653,0.639-1.152,1.547-1.941,2.079c-1.32,0.892-0.88-0.733-0.53-1.521
		C85.446,61.452,87.532,61.028,88.99,60.091z"/>
	<path fill="#214185" d="M99.303,52.525c1.222-0.383,2.415-0.417,3.425-1.09c1.104-0.735,2.21-1.632,3.249-2.517
		c0.979-0.832,1.441-0.983,1.44,0.452c-0.002,2.531-3.295,3.186-5.298,3.583c-0.923,0.183-1.821,0.471-2.694,0.815
		c-0.438,0.173-0.87,0.36-1.297,0.561c-0.368,0.173-0.776,0.475-1.188,0.518c-0.036,0.004,0.212-0.359,0.226-0.379
		c0.062-0.103,0.075-0.219,0.127-0.327c0.124-0.255,0.346-0.5,0.538-0.705C98.235,53.006,98.739,52.702,99.303,52.525z"/>
	<path fill="#214185" d="M95.126,52.343c0.37-0.176,0.675-0.136,1-0.398c0.853-0.686,1.791-1.826,2.033-2.891
		c0.217-0.954,0.634-1.855,1.161-2.681c0.273-0.427,0.598-0.724,1.179-0.58c0.329,0.082,0.331,0.126,0.334,0.521
		c0.003,0.431-0.124,0.801-0.283,1.186c-0.488,1.183-1.521,2.214-2.399,3.082c-0.53,0.524-1.188,1.188-1.592,1.806
		c-0.13,0.198-0.195,0.474-0.31,0.697c-0.139,0.269-0.458,0.599-0.517,0.867c-0.446,0.158-0.691,0.733-1.216,0.585
		C93.492,54.247,94.589,52.599,95.126,52.343z"/>
	<path fill="#036534" d="M29.309,65.148c-0.201-0.196-0.213-0.682-0.225-0.944c-0.03-0.658-0.031-0.683,0.521-0.893
		c1.069-0.406,2.132,0.38,3.062,0.673c0.95,0.299,1.63,0.028,2.482-0.302c0.557-0.215,2.078-0.647,2.665-0.293
		c0.418,0.251,0.505,0.953,0.293,1.387c-0.292,0.601-0.676,0.479-1.232,0.633c-0.654,0.181-1.283,0.579-1.9,0.323
		c-0.27-0.112-0.445-0.555-0.811-0.672C32.789,64.615,30.495,66.301,29.309,65.148z"/>
	<path fill="#036534" d="M29.646,60.639c-0.492-0.748,0.066-1.293,0.759-1.267c0.56,0.021,1.011,0.346,1.638,0.339
		c0.241-0.002,1.36-0.052,1.468-0.415c0.09-0.307-0.58-0.743-0.774-0.921c-0.993-0.906-2.452-1.396-1.638-2.906
		c0.681-0.297,1.521-0.333,2.308-0.353c0.092-0.8-0.064-2.007-0.361-2.692c-0.214-0.494-0.369-0.637-0.355-1.115
		c0.005-0.208,0.319-0.367,0.303-0.669c-0.79-0.155-2.857-1.894-2.906-2.746c-0.1-1.723,2.604-1.303,3.743-1.26
		c0.208,2.032-0.844,4.485,2.246,4.587c0.036,0.798-0.026,1.608,0.011,2.409c0.055,1.177,0.476,0.943,1.589,0.996
		c1.144,0.054,1.382,0.274,1.494,1.415c0.073,0.742,0.102,1.589-0.738,1.656c-0.02-0.12-0.066-0.191-0.095-0.291
		c-0.136,0.333-0.287,0.61-0.347,0.96c-0.967,0.038-1.136,0.096-1.467-0.765c-0.292-0.758-0.567-1.467-1.607-1.146
		c-1.256,0.388-1.23,3.508,0.331,3.174c0.014,0.547-0.012,1.106,0.019,1.65c0.752,0.231,0.631-0.438,0.967-0.823
		c0.523-0.6,0.963-0.395,1.689-0.186c1.105,0.318,2.304,1.479,0.517,1.877c-0.455,0.102-0.89,0.016-1.353-0.025
		c-0.867-0.076-0.856,0.028-1.413,0.509c-0.476,0.41-1.708,1.002-2.104,0.159c-0.249-0.529,0.517-1.102,0.221-1.606
		C33.067,59.96,30.504,61.943,29.646,60.639z"/>
	<path fill="#036534" d="M41.832,62.31c0.192-0.496,0.601-0.639,1.088-0.862c0.332,0.54,0.752,0.781,0.665,1.489
		c-0.079,0.631-0.549,0.772-0.774,1.266c-0.247,0.542-0.094,1.333-0.594,1.749c-0.502,0.417-1.007,0.242-1.244-0.326
		c-0.29-0.692,0.22-0.958,0.479-1.397C41.854,63.545,41.559,63.01,41.832,62.31z"/>
	<path fill="#036534" d="M39.091,58.865c-0.069-0.496,0.452-0.686,0.674-1.073c0.277-0.483,0.216-0.929,0.244-1.569
		c0.069-0.008,0.139-0.015,0.208-0.022c0.212-1.264-0.141-3.062,1.282-3.783c0.78-0.396,1.553,0.095,2.227,0.545
		c0.354,0.235,1.582,1.236,1.297,1.751c-0.255,0.462-1.479,0.264-1.925,0.348c-0.989,0.186-1.188,0.511-1.183,1.481
		C41.925,58.329,40.767,58.94,39.091,58.865z"/>
	<path fill="#036534" d="M38.246,49.669c-0.11-0.336-0.119-0.772-0.154-1.139c-0.022-0.234-0.054-0.667,0.094-0.868
		c0.169-0.23,0.289-0.095,0.482-0.232c0.313-0.222,0.315-0.52-0.052-0.746c-0.642-0.393-2.114-0.311-2.828-0.143
		c-0.646,0.152-1.173,0.388-1,1.08c0.135,0.54,0.741,0.607,0.985,0.995c0.112,0.179,0.057,0.191,0.058,0.438
		c0.001,0.266-0.105,0.559-0.083,0.812c0.028,0.338-0.02,0.212,0.222,0.342C36.282,50.376,38.214,49.57,38.246,49.669z"/>
	<path fill="#036534" d="M41.354,44.344c-0.097-0.467-0.292-0.931,0.278-1.054c0.776-0.167,0.618,0.364,0.618,0.922
		c0,0.401-0.006,0.77,0.098,1.163c0.048,0.184-0.037,0.231-0.225,0.214c-0.199-0.019-0.434-0.131-0.561-0.288
		C41.364,45.055,41.416,44.641,41.354,44.344z"/>
	<path fill="#036534" d="M46.067,37.562c-0.443,0.125-1.708,0.278-1.457-0.487c0.25-0.763,1.238-0.774,1.867-0.681
		C46.569,36.878,46.638,37.402,46.067,37.562z"/>
	<path fill="#036534" d="M44.917,41.79c0.125,0.545,0.091,1.201,0.55,1.524c0.398,0.28,0.974,0.385,1.333,0.743
		c0.428,0.427,0.365,1.89-0.261,2c-0.637,0.111-1.093-0.629-1.342-1.1c-0.365-0.688-0.661-1.216-1.404-1.571
		c-0.476-0.227-0.731-0.256-0.765-0.858c-0.021-0.415,0.072-0.987,0.371-1.303c0.293-0.31,0.651-0.312,1.039-0.194
		C44.908,41.172,44.81,41.315,44.917,41.79z"/>
	<path fill="#036534" d="M38.301,37.045c1.094-0.802,1.854,0.88,2.928,0.954c0.605,0.042,0.69-0.079,0.783,0.628
		c0.088,0.674-0.308,0.903-0.962,0.955c-0.171,0.014-0.685,0.159-0.834,0.087c-0.122-0.059-0.16-0.224-0.25-0.356
		c-0.413-0.603-0.635-0.741-1.247-1.055C38.197,37.991,37.646,37.525,38.301,37.045z"/>
	<path fill="#036534" d="M34.31,43.232c-0.343-0.299-0.909-0.537-1.173-0.891c0.95-1.356,2.787-0.654,4.267-0.721
		c0.113-0.358-0.107-1.061-0.294-1.398c-0.154-0.282-1.1-0.96-1.2-0.31c-0.589,0.142-0.933-0.976-1.278-1.299
		c-0.399,0.374-1.375,1.043-1.385,1.623c-0.394,0.034-1.241-0.049-1.396,0.423c-0.122,0.369,0.185,0.896,0.048,1.32
		c-0.255,0.799-1.228,0.137-1.81,0.448c-0.367,0.196-0.367,1.08,0.044,1.318c0.438,0.254,1.377-0.288,1.884-0.083
		c0.623,0.251,0.521,1.243,1.162,1.488c0.533,0.201,1.182,0.004,1.55-0.422C35.334,44.027,34.852,43.704,34.31,43.232z"/>
	<path fill="#036534" d="M49.625,44.24c0.021-0.32,0.11-0.457,0.229-0.743c0.379-0.913-0.244-0.998-0.82-1.538
		c-0.562-0.524-0.343-0.88-0.325-1.558c0.007-0.266,0-0.544,0.177-0.764c0.277-0.344,0.469-0.106,0.908-0.179
		c0.752-0.123,0.54-1.138,0.54-1.78c0-0.317-0.168-1.452,0.115-1.656c0.12-0.087,0.892,0.087,1.005,0.322
		c0.103,0.212-0.196,0.713-0.247,0.92c-0.153,0.627-0.169,1.172,0.174,1.689c0.228,0.343,0.757,0.645,0.869,0.993
		c0.104,0.326-0.068,0.679-0.125,0.981c-0.158,0.83-0.112,1.899,0.082,2.702c0.256,1.06-0.296,1.841-0.334,2.888
		c-0.015,0.369,0.103,0.646-0.176,0.877c-0.306,0.254-1.068,0.162-1.443,0.142c-0.02-0.448,0.168-1.913-0.45-1.954
		c-0.412-0.027-1.554,1.36-1.508,0.184c0.018-0.441,0.289-0.577,0.646-0.723C49.46,44.833,49.588,44.795,49.625,44.24z"/>
	<path fill="#036534" d="M56.422,41.326c-0.154-0.568,0.25-0.825,0.668-1.09c0.444-0.283,0.376-0.373,1.101-0.305
		c0.423,0.04,0.909,0.098,1.123,0.506c0.265,0.503-0.133,1.416-0.189,1.967c-0.134,1.285,0.858,0.96,1.696,0.56
		c0.208-0.099,0.354-0.053,0.498-0.209c0.06-0.064-0.067-0.312-0.013-0.378c0.209-0.252,0.618-0.205,0.788-0.437
		c0.563-0.767-0.899-1.35-1.379-1.606c-1.086-0.578-1.693-1.293-1.839-2.565c-0.108-0.938-0.261-1.509-1.374-1.333
		c-0.419,0.066-0.712,0.108-0.759,0.645c-0.037,0.424,0.324,0.586,0.374,0.948c0.098,0.732-0.945,1.03-1.54,1.203
		c-0.3,0.087-0.642,0.103-0.922,0.223c-0.45,0.192-0.254,0.145-0.49,0.467c-0.293,0.401-1.012,1.163-0.898,1.625
		c0.161,0.664,0.895,0.882,1.303,1.265c0.458,0.428,0.283,1.087,0.316,1.678c0.812,0.043,2.318,0.426,2.814-0.453
		c0.191-0.34,0.215-1.238,0.01-1.506C57.343,42.051,56.628,42.088,56.422,41.326z"/>
	<path fill="#036534" d="M65.928,40.369c0.045-0.589,0.553-1.117,0.635-1.689c0.108-0.758,0.061-1.757-0.136-2.487
		c-0.694-0.062-1.338,0.01-2.043,0.059c-0.226,0.016,0.188,2.006,0.17,2.239c-0.431,0.012-0.86,0.081-1.286,0.093
		c-0.16,0.004-0.115,2.2,0.495,2.376c0.343,0.099,0.507-0.173,0.784-0.314C65.031,40.398,65.385,40.39,65.928,40.369z"/>
	<path fill="#036534" d="M69.333,45.367c-0.098-0.687-0.127-1.394,0.591-1.733c0.848-0.4,1.904,0.082,2.756-0.334
		c0.065-0.327-0.215-0.638-0.059-0.911c0.147-0.257,0.638-0.108,0.758-0.388c0.091-0.212-0.238-0.621-0.308-0.803
		c-0.198-0.525-0.303-1.555-0.811-1.87c-0.411-0.255-1.329-0.21-1.841-0.27c-0.311-0.036-0.531-0.021-0.834-0.106
		c-0.193-0.054-0.502-0.324-0.717-0.26c-0.744,0.219-0.354,1.654-0.302,2.117c0.067,0.594,0.156,1.159-0.357,1.382
		c-0.484,0.209-1.543-0.023-2.077,0.006c-0.015,0.491-0.27,1.286-0.075,1.746c0.221,0.526,1.078,0.472,1.622,0.63
		c0.133,1.116,0.256,2.352,0.071,3.476c0.547,0.066,0.998,0.203,1.563,0.2c0.27-0.001,0.673-0.077,0.936-0.003
		c0.488,0.137,0.7,0.608,1.361,0.444c0.602-0.149,0.865-0.542,1.181-1.01c0.317-0.473,0.938-0.392,1.273-0.789
		c0.312-0.369,0.381-1.258,0.201-1.676c-0.416-0.968-1.169-0.069-1.791,0.13C71.488,45.661,70.344,45.42,69.333,45.367z"/>
	<path fill="#214185" d="M131.208,130.459v-2.168h-6.916c0,0,3.082,0.459,3.791,1c0.709,0.543,0.875,1.168,0.875,1.168H131.208z"/>
	<path fill="#036534" d="M75.758,80.06c-0.322-0.346-1.659-0.153-1.906,0.125c-0.254,0.286-0.52,1.559-0.428,1.937
		C73.856,83.896,76.546,80.908,75.758,80.06z"/>
	<path fill="#036534" d="M72.744,78.872c0.709-1.051,2.811-0.78,3.914-0.842c0.171-0.91-0.646-1.638,0.362-2.156
		c0.907-0.466,2.306-0.133,3.249-0.577c0.024-1.066-0.743-1.774-1.386-2.463c-0.887-0.951-0.706-2.208-1.195-3.277
		c0.232-0.088,0.559-0.163,0.806-0.174c0.176,1.381,1.815,1.193,2.748,0.581c-0.353-0.578-0.308-0.892,0.009-1.256
		c0.365-0.42,0.756-0.062,0.751-0.943c-0.008-1.456-1.489-2.055-1.515-3.544c-0.543-0.154-1.188-0.201-1.762-0.177
		c-0.809,0.034-1.248,0.512-2.038,0.66c-0.028,0.209-0.052,0.472-0.024,0.691c0.07,0.594,1.043,0.926,1.08,1.403
		c0.023,0.319-0.444,0.925-0.745,1.02c-0.586,0.184-0.748-0.389-1.289-0.366c-0.221,0.01-0.299,0.389-0.448,0.433
		c-0.521,0.153-1.369-0.01-1.891-0.009c-1.893,0.003-2.213,1.116-1.104,2.247c0.245,0.249,0.62,0.317,0.747,0.675
		c0.056,0.157-0.327,0.336-0.185,0.579c0.292,0.495,1.114,0.317,1.641,0.342c0.38,2.542-0.773,0.926-2.133,1.483
		c-1.282,0.526-0.769,2.939-0.91,3.966c-0.014,0.097-0.122,0.818-0.166,0.877c-0.224,0.302-0.747,0.222-0.93,0.405
		c-0.377,0.375-0.441,1.485-0.329,2.027c0.172,0.832,1.165,1.541,2.007,1.127C73.103,81.065,72.175,79.713,72.744,78.872z"/>
	<path fill="#036534" d="M90.125,70.347c-0.789-0.494-0.812-0.006-1.125-0.875c-0.156-0.434-0.006-1.242,0.019-1.7
		c0.833-0.189,1.332-0.075,1.744-0.891c0.421-0.833-0.038-1.821-0.61-2.381c-1.56-1.526-4.04-0.677-5.04,1.25
		c1.215,1.182-0.5,2.52-0.24,3.877c0.295,1.542,2.02,1.671,3.003,2.583c1.025,0.951,0.705,2.805,2.483,2.52
		C90.538,73.299,91.759,71.371,90.125,70.347z"/>
	<path fill="#036534" d="M95.411,64.71c0.408,0.283,0.327,1.13,0.716,1.523C94.627,67.812,93.7,63.527,95.411,64.71z"/>
	<path fill="#036534" d="M111.438,56.696c-0.684,1.156-2.309,0.872-3.423,0.839c-0.465-1.77-1.086-4.428,1.516-4.182
		C111.308,53.521,112.405,55.06,111.438,56.696z"/>
	<path fill="#036534" d="M81.79,37.849c-0.456,0.625-0.719,1.04-0.083,1.353c0.436,0.214,1.555,0.261,1.931-0.091
		c0.239-0.225,0.112-0.821,0.112-1.131c-0.001-0.736,0.093-2.021-1.069-1.756C82.433,36.938,82.213,37.268,81.79,37.849z"/>
</g>
</svg>
