<?xml version="1.0" encoding="UTF-8" standalone="no"?>
<!-- Created with Inkscape (http://www.inkscape.org/) -->

<svg
   xmlns:dc="http://purl.org/dc/elements/1.1/"
   xmlns:cc="http://creativecommons.org/ns#"
   xmlns:rdf="http://www.w3.org/1999/02/22-rdf-syntax-ns#"
   xmlns:svg="http://www.w3.org/2000/svg"
   xmlns="http://www.w3.org/2000/svg"
   xmlns:xlink="http://www.w3.org/1999/xlink"
   xmlns:sodipodi="http://sodipodi.sourceforge.net/DTD/sodipodi-0.dtd"
   xmlns:inkscape="http://www.inkscape.org/namespaces/inkscape"
   version="1.1"
   id="svg2"
   xml:space="preserve"
   width="406.4313"
   height="496.21051"
   viewBox="0 0 406.43132 496.21051"
   sodipodi:docname="COA of Kfar Shmaryahu.svg"
   inkscape:version="0.92.3 (2405546, 2018-03-11)"><metadata
     id="metadata8"><rdf:RDF><cc:Work
         rdf:about=""><dc:format>image/svg+xml</dc:format><dc:type
           rdf:resource="http://purl.org/dc/dcmitype/StillImage" /><dc:title></dc:title></cc:Work></rdf:RDF></metadata><defs
     id="defs6"><linearGradient
       inkscape:collect="always"
       id="linearGradient2189"><stop
         style="stop-color:#0971bb;stop-opacity:1"
         offset="0"
         id="stop2185" /><stop
         id="stop2195"
         offset="0.25"
         style="stop-color:#46c2df;stop-opacity:1" /><stop
         id="stop2193"
         offset="0.5"
         style="stop-color:#fdf0c7;stop-opacity:1" /><stop
         style="stop-color:#00ab68;stop-opacity:1"
         offset="0.75"
         id="stop2197" /><stop
         style="stop-color:#00a65d;stop-opacity:1"
         offset="1"
         id="stop2187" /></linearGradient><linearGradient
       inkscape:collect="always"
       id="linearGradient1659"><stop
         style="stop-color:#9f5b2c;stop-opacity:1;"
         offset="0"
         id="stop1655" /><stop
         style="stop-color:#9f5b2c;stop-opacity:0;"
         offset="1"
         id="stop1657" /></linearGradient><linearGradient
       inkscape:collect="always"
       id="linearGradient1626"><stop
         style="stop-color:#a26339;stop-opacity:1"
         offset="0"
         id="stop1622" /><stop
         style="stop-color:#a54b34;stop-opacity:1"
         offset="1"
         id="stop1624" /></linearGradient><clipPath
       clipPathUnits="userSpaceOnUse"
       id="clipPath18"><path
         d="M 580.025,21.493 H 15.026 V 820.5 h 564.999 z"
         id="path16"
         inkscape:connector-curvature="0" /></clipPath><clipPath
       clipPathUnits="userSpaceOnUse"
       id="clipPath196"><path
         d="m 510.671,462.162 h 20.006 v -77.357 h -20.006 z"
         id="path194"
         inkscape:connector-curvature="0" /></clipPath><clipPath
       clipPathUnits="userSpaceOnUse"
       id="clipPath220"><path
         d="m 523.681,384.805 h 4.9896 v 77.357 h -4.9896 z"
         id="path218"
         inkscape:connector-curvature="0" /></clipPath><linearGradient
       x1="523.68103"
       y1="462.16199"
       x2="528.66998"
       y2="462.16199"
       gradientUnits="userSpaceOnUse"
       id="linearGradient226"
       gradientTransform="matrix(3.6557031,0,0,3.6557031,-1375.293,-1124.5482)"><stop
         style="stop-opacity:1;stop-color:#7fc390"
         offset="0"
         id="stop222" /><stop
         style="stop-opacity:1;stop-color:#f4eecb"
         offset="1"
         id="stop224" /></linearGradient><clipPath
       clipPathUnits="userSpaceOnUse"
       id="clipPath244"><path
         d="m 510.671,462.162 h 20.006 v -77.357 h -20.006 z"
         id="path242"
         inkscape:connector-curvature="0" /></clipPath><clipPath
       clipPathUnits="userSpaceOnUse"
       id="clipPath254"><path
         d="M 546.753,384.811 H 530.06 l 0.009,77.359 h 16.684 v -77.359"
         id="path252"
         inkscape:connector-curvature="0" /></clipPath><clipPath
       clipPathUnits="userSpaceOnUse"
       id="clipPath280"><path
         d="M 546.753,384.811 H 530.06 l 0.009,77.359 h 16.684 v -77.359"
         id="path278"
         inkscape:connector-curvature="0" /></clipPath><linearGradient
       inkscape:collect="always"
       xlink:href="#linearGradient1626"
       id="linearGradient1628"
       x1="5.2468228"
       y1="1.0792849"
       x2="24.800001"
       y2="-48.532001"
       gradientUnits="userSpaceOnUse" /><linearGradient
       inkscape:collect="always"
       xlink:href="#linearGradient1626"
       id="linearGradient1653"
       x1="53.258857"
       y1="386.88561"
       x2="245.78076"
       y2="386.88561"
       gradientUnits="userSpaceOnUse" /><linearGradient
       inkscape:collect="always"
       xlink:href="#linearGradient1659"
       id="linearGradient1661"
       x1="58.500259"
       y1="411.59409"
       x2="242.3582"
       y2="407.4155"
       gradientUnits="userSpaceOnUse" /><clipPath
       clipPathUnits="userSpaceOnUse"
       id="clipPath196-1"><path
         d="m 510.671,462.162 h 20.006 v -77.357 h -20.006 z"
         id="path194-6"
         inkscape:connector-curvature="0" /></clipPath><clipPath
       clipPathUnits="userSpaceOnUse"
       id="clipPath220-5"><path
         d="m 523.681,384.805 h 4.9896 v 77.357 h -4.9896 z"
         id="path218-0"
         inkscape:connector-curvature="0" /></clipPath><linearGradient
       x1="523.68103"
       y1="462.16199"
       x2="528.66998"
       y2="462.16199"
       gradientUnits="userSpaceOnUse"
       id="linearGradient226-8"><stop
         style="stop-opacity:1;stop-color:#7fc390"
         offset="0"
         id="stop222-7" /><stop
         style="stop-opacity:1;stop-color:#f4eecb"
         offset="1"
         id="stop224-3" /></linearGradient><clipPath
       clipPathUnits="userSpaceOnUse"
       id="clipPath244-6"><path
         d="m 510.671,462.162 h 20.006 v -77.357 h -20.006 z"
         id="path242-0"
         inkscape:connector-curvature="0" /></clipPath><clipPath
       clipPathUnits="userSpaceOnUse"
       id="clipPath254-7"><path
         d="M 546.753,384.811 H 530.06 l 0.009,77.359 h 16.684 v -77.359"
         id="path252-0"
         inkscape:connector-curvature="0" /></clipPath><clipPath
       clipPathUnits="userSpaceOnUse"
       id="clipPath280-8"><path
         d="M 546.753,384.811 H 530.06 l 0.009,77.359 h 16.684 v -77.359"
         id="path278-4"
         inkscape:connector-curvature="0" /></clipPath><linearGradient
       inkscape:collect="always"
       xlink:href="#linearGradient2189"
       id="linearGradient2191"
       x1="15.028941"
       y1="85.976761"
       x2="14.505859"
       y2="283.16602"
       gradientUnits="userSpaceOnUse" /></defs><sodipodi:namedview
     pagecolor="#ffffff"
     bordercolor="#666666"
     borderopacity="1"
     objecttolerance="10"
     gridtolerance="10"
     guidetolerance="10"
     inkscape:pageopacity="0"
     inkscape:pageshadow="2"
     inkscape:window-width="1920"
     inkscape:window-height="1005"
     id="namedview4"
     showgrid="false"
     fit-margin-top="0"
     fit-margin-left="0"
     fit-margin-right="0"
     fit-margin-bottom="0"
     inkscape:zoom="0.64691817"
     inkscape:cx="400.24713"
     inkscape:cy="93.406635"
     inkscape:window-x="-9"
     inkscape:window-y="-9"
     inkscape:window-maximized="1"
     inkscape:current-layer="g10"
     showguides="true" /><g
     id="g10"
     inkscape:groupmode="layer"
     inkscape:label="kfar_map"
     transform="matrix(0,-1.3333333,-1.3333333,0,767.81095,938.59061)"><g
       id="g182"
       transform="matrix(3.6557031,0,0,3.6557031,486.20199,271.27967)"><path
         d="m 0,0 c -23.047,0 -42.173,18.483 -42.173,41.579 0,23.087 19.118,41.67 42.125,41.67 L 59.495,83.185 V 0.001 Z"
         style="fill:#00a65d;fill-opacity:1;fill-rule:nonzero;stroke:#00a65d;stroke-width:0.134;stroke-linecap:round;stroke-linejoin:round;stroke-miterlimit:3.86400008;stroke-dasharray:none;stroke-opacity:1"
         id="path184"
         inkscape:connector-curvature="0" /></g><g
       id="g186"
       transform="matrix(3.6557031,0,0,3.6557031,698.17062,569.86288)"><path
         d="m 0,0 v -80.163 h -56.47 l -1.513,-0.001 c -22.236,0 -40.66,17.83 -40.66,40.067 0,22.232 18.42,40.097 40.612,40.097 h 1.511 z"
         style="fill:#ffefcf;fill-opacity:1;fill-rule:nonzero;stroke:#ffefcf;stroke-width:0.134;stroke-linecap:round;stroke-linejoin:round;stroke-miterlimit:3.86400008;stroke-dasharray:none;stroke-opacity:1"
         id="path188"
         inkscape:connector-curvature="0" /></g><path
       style="fill:url(#linearGradient2191);fill-opacity:1;fill-rule:nonzero;stroke:none;stroke-width:4.87427044"
       d="m 14.482422,107.29102 0.02344,175.875 H 391.56445 l -0.0293,-175.875 z"
       transform="matrix(0,-0.75000002,-0.75000002,0,703.94298,575.85823)"
       id="path198"
       inkscape:connector-curvature="0"
       sodipodi:nodetypes="ccccc" /><g
       id="g284"
       transform="matrix(3.6557031,0,0,3.6557031,694.26267,564.97886)"><path
         d="M -18.037,0 H 0 V -77.357 H -18.037 Z M 0,0 Z"
         style="fill:#00a65d;fill-opacity:1;fill-rule:nonzero;stroke:#00a65d;stroke-width:0.134;stroke-linecap:round;stroke-linejoin:round;stroke-miterlimit:3.86400008;stroke-dasharray:none;stroke-opacity:1"
         id="path286"
         inkscape:connector-curvature="0" /></g><g
       id="g288"
       transform="matrix(3.6557031,0,0,3.6557031,695.09617,565.26035)"><path
         d="M -18.272,0 H 0 V -50.805 H -18.272 Z M 0,0 Z"
         style="fill:#0971bb;fill-opacity:1;fill-rule:nonzero;stroke:#00aeef;stroke-width:0.134;stroke-linecap:butt;stroke-linejoin:miter;stroke-miterlimit:3.86400008;stroke-dasharray:none;stroke-opacity:1"
         id="path290"
         inkscape:connector-curvature="0" /></g><g
       id="g292"
       transform="matrix(3.6557031,0,0,3.6557031,486.13618,564.77414)"><path
         d="m 0,0 0.018,-77.321 c -21.425,0 -39.148,17.238 -39.148,38.615 C -39.13,-17.329 -21.377,0 0,0 Z"
         style="fill:#00a65d;fill-opacity:1;fill-rule:nonzero;stroke:#00a65d;stroke-width:0.134;stroke-linecap:round;stroke-linejoin:round;stroke-miterlimit:3.86400008;stroke-dasharray:none;stroke-opacity:1"
         id="path294"
         inkscape:connector-curvature="0" /></g><g
       id="g296"
       transform="matrix(3.6557031,0,0,3.6557031,382.40926,515.40387)"><path
         d="m 0,0 c 6.318,7.237 14.173,10.313 19.897,11.617 0,-26.897 0.005,-43.35 0.01,-49.36 H -7.573 C -11.447,-26.587 -10.555,-12.091 0,0 Z"
         style="fill:url(#linearGradient1628);fill-opacity:1;fill-rule:nonzero;stroke:#9f5b2c;stroke-width:0.134;stroke-linecap:butt;stroke-linejoin:miter;stroke-miterlimit:3.86400008;stroke-dasharray:none;stroke-opacity:1"
         id="path298"
         inkscape:connector-curvature="0" /></g><g
       id="g300"
       transform="matrix(3.6557031,0,0,3.6557031,486.24951,377.42666)"><path
         d="m 0,0 h -8.592 c 0.006,6.011 0.01,22.466 0.01,49.367 C -4.04,50.398 0,50.314 0,50.314 Z"
         style="fill:#00aeef;fill-opacity:1;fill-rule:nonzero;stroke:#00aeef;stroke-width:0.134;stroke-linecap:butt;stroke-linejoin:miter;stroke-miterlimit:3.86400008;stroke-dasharray:none;stroke-opacity:1"
         id="path302"
         inkscape:connector-curvature="0" /></g><g
       id="g304"
       transform="matrix(3.6557031,0,0,3.6557031,416.41461,524.19583)"><path
         d="m 0,0 2.021,-7.883 -4.476,-7.548 -5.511,8.149 c 0,0 -0.334,0.435 -0.902,0.168 -0.568,-0.268 -0.768,-0.802 -0.668,-1.036 0.1,-0.234 0.334,-0.367 0.401,-0.568 0.066,-0.2 0.033,-0.401 -0.268,-0.668 -0.3,-0.267 -0.534,-0.434 -0.768,-1.002 -0.234,-0.568 -0.501,-0.868 -0.868,-1.169 -0.368,-0.3 -1.203,-0.768 -1.203,-1.837 0,-0.702 0.301,-0.835 0.301,-1.069 0,-0.233 -0.267,-0.467 -0.267,-0.467 0,0 -1.303,-1.737 -1.47,-1.937 -0.167,-0.201 -0.133,-0.468 -0.1,-0.702 0.033,-0.234 0.234,-0.768 0.234,-0.768 0,0 0,-0.334 -0.201,-0.568 -0.2,-0.234 -1.135,-1.871 -1.135,-1.871 0,0 -0.301,-0.734 0.601,-1.302 0.902,-0.568 5.444,-3.407 5.444,-3.407 0,0 0.334,-0.234 0.067,-0.735 -0.267,-0.501 -5.377,-9.453 -5.377,-9.453 0,0 -0.301,-1.401 0.534,-1.435 0.835,-0.033 26.621,-0.191 27.756,-0.191 1.136,0 1.704,0.124 1.737,0.591 0.033,0.468 -0.501,1.069 -0.935,1.136 -0.434,0.067 -1.503,0.233 -1.57,0.668 -0.067,0.434 -0.301,1.269 -0.468,1.57 -0.167,0.3 -0.668,0.768 -0.668,1.235 0,0.468 0.435,2.439 0.468,3.073 0.033,0.635 0,1.637 0.167,2.105 0.167,0.467 0.468,1.102 0.501,1.603 0.033,0.501 -0.033,0.801 -0.134,1.102 -0.1,0.301 0.067,0.535 0.435,0.568 0.367,0.033 1.97,0.134 2.872,0.368 0.533,0.138 1.069,0.166 0.969,0.734 -0.1,0.568 -1.002,0.759 -1.537,0.893 -0.534,0.133 -1.469,0.41 -1.503,0.911 -0.033,0.501 0.501,0.568 0.535,0.968 0.033,0.401 0.233,1.771 0.233,2.038 0,0.267 -0.734,1.336 -0.734,1.336 0,0 -0.268,0.434 -0.234,0.835 0.033,0.401 0.134,1.971 -0.1,2.872 -0.234,0.902 -0.702,1.537 -1.503,1.771 -0.599,0.175 -0.735,0.334 -0.702,0.735 0.034,0.4 0.234,1.503 0.869,1.703 0.634,0.2 1.766,-0.203 2.438,1.236 0.935,2.004 0.536,2.988 0.033,3.941 -0.634,1.203 -1.102,1.102 -1.135,1.503 -0.034,0.401 0.167,0.601 0.4,0.935 0.234,0.334 0.535,1.671 -0.066,2.439 -0.602,0.768 -1.47,1.302 -2.305,1.469 -0.604,0.121 -0.501,0.668 -0.501,0.668 v 1.637 c 0,0 -0.267,0.635 -0.869,0.635 C 10.237,5.979 9.97,5.511 9.803,5.244 9.636,4.977 9.169,4.977 8.935,5.01 8.701,5.044 8.5,4.876 8.333,4.743 8.166,4.609 7.803,4.666 7.632,4.609 7.281,4.492 7.181,4.242 6.58,4.242 5.979,4.242 6.179,4.108 5.628,3.841 5.077,3.574 4.86,3.54 4.409,3.49 3.958,3.44 3.641,2.756 3.457,2.622 3.273,2.488 3.106,2.739 2.889,2.639 2.672,2.538 2.371,2.054 1.787,2.104 1.202,2.154 0.902,1.97 0.668,1.737 0.434,1.503 -0.084,0.919 -0.117,0.668 -0.15,0.417 0,0 0,0"
         style="fill:#00a65d;fill-opacity:1;fill-rule:nonzero;stroke:none"
         id="path306"
         inkscape:connector-curvature="0" /></g><g
       id="g308"
       transform="matrix(3.6557031,0,0,3.6557031,584.87672,534.64749)"><path
         d="M 0,0 H -4.2753 V -2.5751 H 0 Z m 0,-11.249 h -4.2753 v -2.5755 H 0 Z m 0,-11.25 h -4.2753 v -2.5753 H 0 Z m 0,-11.249 h -4.2753 v -2.5753 H 0 Z m 0,-11.25 h -4.2753 v -2.5751 H 0 Z m 0,-11.249 h -4.2753 v -2.5756 H 0 Z m -12.698,26.132 h -2.5385 v -1.9371 h 2.5385 z m 0,-3.674 h -2.5385 v -1.9373 h 2.5385 z m 0,-3.674 h -2.5385 v -1.9373 h 2.5385 z m 0,-18.771 h -2.5385 v -1.9373 h 2.5385 z m 0,-3.674 h -2.5385 v -1.9371 h 2.5385 z M 2.8,3.487 v -68.005 h -24.85 v 28.488 c 0.632,-0.279 1.536,0.045 1.536,0.972 v 1.072 c 0.627,-0.229 1.47,0.105 1.47,0.999 v 1.338 c 0.556,-0.031 1.135,0.325 1.135,1.067 v 5.584 h 6.104 c 1.535,0.015 2.776,1.264 2.776,2.803 0,1.54 -1.24,2.789 -2.802,2.802 h -6.078 v 3.948 h 6.104 c 1.535,0.014 2.776,1.264 2.776,2.803 0,1.539 -1.24,2.789 -2.802,2.802 h -6.078 v 4.015 h 6.104 c 1.535,0.014 2.776,1.263 2.776,2.802 0,1.54 -1.24,2.79 -2.802,2.803 h -6.078 v 3.707 z"
         style="fill:#ffefcf;fill-opacity:1;fill-rule:nonzero;stroke:#dbc195;stroke-width:0.088;stroke-linecap:butt;stroke-linejoin:round;stroke-miterlimit:3.86400008;stroke-dasharray:none;stroke-opacity:1"
         id="path310"
         inkscape:connector-curvature="0" /></g><path
       style="fill:url(#linearGradient1653);fill-opacity:1;fill-rule:nonzero;stroke:url(#linearGradient1661);stroke-width:0.65315229;stroke-linecap:butt;stroke-linejoin:miter;stroke-miterlimit:3.86400008;stroke-dasharray:none;stroke-opacity:1"
       d="M 147.59766 330.78711 L 146.86719 330.94922 L 175.84375 339.98438 L 178.36914 336.64648 L 147.59766 330.78711 z M 99.650391 334.44727 L 54.392578 335.75 L 108.60938 367.98242 L 155.16797 354.79883 L 99.650391 334.44727 z M 222.16992 335.42383 L 194.57031 336.23633 L 209.4668 341.20312 L 223.54883 336.64648 L 222.16992 335.42383 z M 125.21484 337.2168 L 123.25977 337.62109 L 151.58984 348.5293 L 158.42773 346.00586 L 125.21484 337.2168 z M 159.56836 339.00977 L 153.30078 340.79883 L 162.09375 343.89453 L 167.95312 341.93945 L 159.56836 339.00977 z M 239.99414 339.90234 L 226.9707 348.28711 L 230.4707 348.77344 L 233.88672 350.32422 L 239.99414 339.90234 z M 54.392578 344.86914 L 55.859375 350.72852 L 65.140625 369.45508 L 59.603516 363.10352 L 58.626953 363.75781 L 65.460938 378.73047 L 69.697266 379.71094 L 73.601562 377.10352 L 54.392578 344.86914 z M 58.789062 345.0293 L 84.835938 374.17383 L 93.302734 371.89258 L 60.904297 345.35742 L 58.789062 345.0293 z M 213.04492 345.0293 L 174.05469 355.61133 L 195.62305 362.69531 L 220.29297 346.33203 L 213.04492 345.0293 z M 160.94922 347.31055 L 155.08984 349.50977 L 162.66016 352.19531 L 169.17188 349.75391 L 160.94922 347.31055 z M 237.95703 351.05469 L 225.01562 372.70703 L 244.95703 378.97461 L 245.44922 352.68359 L 237.95703 351.05469 z M 64.326172 356.75195 L 75.882812 374.33398 L 80.931641 374.33398 L 66.28125 356.91797 L 64.326172 356.75195 z M 196.03906 367.98828 L 154.8457 395.50391 L 192.45508 417.48047 L 218.01562 375.64062 L 196.03906 367.98828 z M 240.64258 383.78125 L 233.9707 419.59766 L 238.36719 422.03906 L 241.62305 384.42969 L 240.64258 383.78125 z M 222.4082 386.38281 L 208.73633 425.29492 L 213.13281 427.73633 L 223.38867 387.03711 L 222.4082 386.38281 z M 216.54883 388.66406 L 201.08398 420.89844 L 205.48047 423.33984 L 217.68945 389.3125 L 216.54883 388.66406 z M 225.01562 390.45312 L 220.29297 405.91992 L 222.4082 407.06055 L 225.99023 391.10742 L 225.01562 390.45312 z M 226.80469 404.61328 L 219.80469 431.64062 L 224.20117 434.08398 L 227.78516 405.26562 L 226.80469 404.61328 z M 145.56445 404.61719 L 140.8418 407.875 L 148.82031 410.1543 L 177.31055 426.5957 L 183.66211 433.76172 L 187.24023 428.71094 L 145.56445 404.61719 z M 155.82617 404.7793 L 154.35938 406.40625 L 181.70703 421.2207 L 183.01367 419.91797 L 155.82617 404.7793 z M 126.02344 416.98828 L 120.97852 420.08398 L 148.81641 432.78125 L 126.02344 416.98828 z M 142.63672 421.55078 L 176.33594 442.87695 L 180.08008 437.66992 L 142.63672 421.55078 z "
       transform="matrix(0,-0.75000002,-0.75000002,0,703.94298,575.85823)"
       id="path314" /><g
       id="g400"
       transform="matrix(3.6557031,0,0,3.6557031,458.84636,354.34821)"><path
         d="m 0,0 c 0.05,-0.167 0.401,-0.768 -0.367,-1.37 -0.769,-0.601 -1.637,-0.534 -2.305,-0.668 -0.668,-0.133 -2.288,-0.551 -3.056,-1.453 -0.723,-0.848 -0.618,-1.336 -0.284,-1.402 0.334,-0.067 0.818,0.334 0.918,0.45 0.101,0.117 1.016,0.972 1.921,1.153 1.086,0.217 2.003,0.093 2.756,-0.401 0.534,-0.351 0.818,-0.958 1.068,-1.052 0.268,-0.1 0.585,-0.15 0.602,-0.267 0.016,-0.117 -0.702,-0.752 -1.553,-1.002 -0.852,-0.251 -2.422,-0.418 -3.391,0.05 -0.968,0.467 -1.486,0.651 -1.687,0.367 -0.2,-0.284 -0.117,-0.781 0.602,-1.119 0.818,-0.384 2.354,-0.851 3.39,-0.851 0.752,0 1.612,-0.626 1.703,-1.019 0.151,-0.652 -0.083,-1.303 -0.083,-1.303 0,0 -0.697,1.063 -1.286,1.386 -0.668,0.368 -1.662,0.623 -2.739,0.752 -1.252,0.15 -3.056,0.818 -3.407,2.238 -0.304,1.231 0.401,2.538 1.219,3.106 0.819,0.568 1.888,0.935 2.689,1.019 0.802,0.083 1.436,0.234 1.82,0.4 0.384,0.168 1.353,1.003 1.353,1.003 0,0 0.067,0.15 0.117,-0.017 z"
         style="fill:#f26322;fill-opacity:1;fill-rule:nonzero;stroke:#f26322;stroke-width:0.30899999;stroke-linecap:butt;stroke-linejoin:miter;stroke-miterlimit:3.86400008;stroke-dasharray:none;stroke-opacity:1"
         id="path402"
         inkscape:connector-curvature="0" /></g><g
       id="g404"
       transform="matrix(3.6557031,0,0,3.6557031,407.19493,331.75962)"><path
         d="m 0,0 c 0.1,0.134 0.601,0.368 1.603,-0.568 1.002,-0.935 2.418,-2.524 3.073,-3.24 0.902,-0.985 2.956,-2.221 4.526,-2.622 1.57,-0.401 2.856,-0.284 3.09,-0.551 0.233,-0.267 0.183,-0.428 -0.017,-0.428 -0.201,0 -2.706,0.044 -3.841,0.244 -1.136,0.201 -3.006,0.702 -4.944,2.389 -1.937,1.686 -3.44,4.091 -3.44,4.091 0,0 -0.25,0.418 -0.05,0.685 z"
         style="fill:#f7931d;fill-opacity:1;fill-rule:nonzero;stroke:#f7931d;stroke-width:0.175;stroke-linecap:butt;stroke-linejoin:miter;stroke-miterlimit:3.86400008;stroke-dasharray:none;stroke-opacity:1"
         id="path406"
         inkscape:connector-curvature="0" /></g><g
       id="g408"
       transform="matrix(3.6557031,0,0,3.6557031,428.68681,354.28606)"><path
         d="m 0,0 c 0,0 -0.234,-0.368 -0.451,-0.768 -0.217,-0.401 -0.969,-1.386 -1.804,-1.603 -0.835,-0.218 -1.436,-0.268 -1.803,-0.268 -0.368,0 -0.568,-0.2 -0.618,-0.467 -0.05,-0.267 -0.184,-0.585 -0.535,-0.451 -0.35,0.133 -0.951,0.518 -1.503,0.584 -0.551,0.067 -1.219,0.134 -1.336,0.217 -0.116,0.084 -0.1,0.285 0.1,0.285 0.201,0 1.704,0.133 2.071,0.116 0.368,-0.016 1.203,-0.15 1.52,0 0.318,0.151 0.764,0.513 1.253,0.885 0.634,0.485 1.387,0.532 1.636,0.668 0.518,0.284 0.835,0.585 1.086,0.869 0.25,0.284 0.601,0.584 0.701,0.518 C 0.418,0.518 0,0 0,0 Z"
         style="fill:#f7931d;fill-opacity:1;fill-rule:nonzero;stroke:#f7931d;stroke-width:0.175;stroke-linecap:butt;stroke-linejoin:miter;stroke-miterlimit:3.86400008;stroke-dasharray:none;stroke-opacity:1"
         id="path410"
         inkscape:connector-curvature="0" /></g><g
       id="g412"
       transform="matrix(3.6557031,0,0,3.6557031,380.33282,368.5104)"><path
         d="m 0,0 c 0,0 0.662,-6.57 5.545,-8.05 2.204,-0.668 4.642,-0.701 4.642,-0.701 l 2.372,-0.167"
         style="fill:none;stroke:#f7931d;stroke-width:1.04999995;stroke-linecap:round;stroke-linejoin:miter;stroke-miterlimit:3.86400008;stroke-dasharray:none;stroke-opacity:1"
         id="path414"
         inkscape:connector-curvature="0" /></g><g
       id="g416"
       transform="matrix(3.6557031,0,0,3.6557031,457.99092,303.24514)"><path
         d="M 0,0 C 0,0 -0.718,0 -0.702,0.434 -0.685,0.869 -0.15,0.718 0.017,0.652 0.184,0.585 0.668,0.084 0.668,0.084 Z"
         style="fill:#f7931d;fill-opacity:1;fill-rule:nonzero;stroke:#f7931d;stroke-width:0.134;stroke-linecap:butt;stroke-linejoin:miter;stroke-miterlimit:3.86400008;stroke-dasharray:none;stroke-opacity:1"
         id="path418"
         inkscape:connector-curvature="0" /></g><g
       id="g420"
       transform="matrix(3.6557031,0,0,3.6557031,462.44723,302.94171)"><path
         d="M 0,0 C 0,0 -0.067,0.284 0.117,0.234 0.301,0.184 0.952,0 0.985,-0.2 1.019,-0.401 0.768,-0.551 0.551,-0.451 0.334,-0.351 0,0 0,0 Z"
         style="fill:#f7931d;fill-opacity:1;fill-rule:nonzero;stroke:#f7931d;stroke-width:0.134;stroke-linecap:butt;stroke-linejoin:miter;stroke-miterlimit:3.86400008;stroke-dasharray:none;stroke-opacity:1"
         id="path422"
         inkscape:connector-curvature="0" /></g><g
       id="g424"
       transform="matrix(3.6557031,0,0,3.6557031,472.58449,345.92181)"><path
         d="M 0,0 C 0,0 0.679,0.384 0.635,-0.434 0.601,-1.052 0.033,-0.802 0.033,-0.802 c 0,0 -0.785,0.184 -0.801,0.351 C -0.785,-0.284 0,0 0,0 Z"
         style="fill:#f26322;fill-opacity:1;fill-rule:nonzero;stroke:#f26322;stroke-width:0.134;stroke-linecap:round;stroke-linejoin:round;stroke-miterlimit:3.86400008;stroke-dasharray:none;stroke-opacity:1"
         id="path426"
         inkscape:connector-curvature="0" /></g><g
       id="g428"
       transform="matrix(3.6557031,0,0,3.6557031,473.0707,337.98528)"><path
         d="m 0,0 c 0,0 0.551,0.351 0.551,-0.267 0,-0.618 -0.251,-0.735 -0.751,-0.585 -0.502,0.15 -0.785,0.318 -0.769,0.451 0.017,0.134 0.351,0.134 0.551,0.184 C -0.217,-0.167 0,0 0,0 Z"
         style="fill:#f26322;fill-opacity:1;fill-rule:nonzero;stroke:#f26322;stroke-width:0.134;stroke-linecap:round;stroke-linejoin:round;stroke-miterlimit:3.86400008;stroke-dasharray:none;stroke-opacity:1"
         id="path430"
         inkscape:connector-curvature="0" /></g><g
       id="g432"
       transform="matrix(3.6557031,0,0,3.6557031,473.8384,331.02482)"><path
         d="M 0,0 C 0,0 0.458,0.067 0.392,-0.317 0.297,-0.859 -0.026,-0.851 -0.32,-0.71 c -0.419,0.202 -0.632,0.41 -0.594,0.524 0.037,0.114 0.329,0.058 0.512,0.067 C -0.218,-0.109 0,0 0,0 Z"
         style="fill:#f26322;fill-opacity:1;fill-rule:nonzero;stroke:#f26322;stroke-width:0.119;stroke-linecap:round;stroke-linejoin:round;stroke-miterlimit:3.86400008;stroke-dasharray:none;stroke-opacity:1"
         id="path434"
         inkscape:connector-curvature="0" /></g><g
       id="g436"
       transform="matrix(3.6557031,0,0,3.6557031,604.49323,555.91271)"
       style="fill:#8f4b6a;fill-opacity:1"><path
         d="m 0,0 h -0.945 v -72.696 h 1.052 l 1.77,2.829 V -2.33 Z"
         style="fill:#8f4b6a;fill-opacity:1;fill-rule:nonzero;stroke:#f04e23;stroke-width:0.134;stroke-linecap:butt;stroke-linejoin:round;stroke-miterlimit:3.86400008;stroke-dasharray:none;stroke-opacity:1"
         id="path438"
         inkscape:connector-curvature="0" /></g><g
       id="g444"
       transform="matrix(3.6557031,0,0,3.6557031,514.77131,433.59289)"><path
         d="M 0,0 V 31.197"
         style="fill:none;stroke:#f2e3c5;stroke-width:0.60600001;stroke-linecap:round;stroke-linejoin:round;stroke-miterlimit:3.86400008;stroke-dasharray:none;stroke-opacity:1"
         id="path446"
         inkscape:connector-curvature="0" /><g
         id="g448"
         transform="translate(-1.203,-2.939)"><path
           d="M 0,0 V 34.136"
           style="fill:none;stroke:#f2e3c5;stroke-width:0.60600001;stroke-linecap:round;stroke-linejoin:round;stroke-miterlimit:3.86400008;stroke-dasharray:none;stroke-opacity:1"
           id="path450"
           inkscape:connector-curvature="0" /><g
           id="g452"
           transform="translate(-1.203,-3.073)"><path
             d="M 0,0 V 37.209"
             style="fill:none;stroke:#f2e3c5;stroke-width:0.60600001;stroke-linecap:round;stroke-linejoin:round;stroke-miterlimit:3.86400008;stroke-dasharray:none;stroke-opacity:1"
             id="path454"
             inkscape:connector-curvature="0" /></g></g></g><g
       id="g456"
       transform="matrix(3.6557031,0,0,3.6557031,695.91505,565.76118)"><path
         d="M 0,0 V -78.001"
         style="fill:none;stroke:#f4eecb;stroke-width:1.22599995;stroke-linecap:butt;stroke-linejoin:round;stroke-miterlimit:3.86400008;stroke-dasharray:none;stroke-opacity:1"
         id="path458"
         inkscape:connector-curvature="0" /></g><g
       id="g460"
       transform="matrix(3.6557031,0,0,3.6557031,625.92296,565.76118)"><path
         d="M 0,0 V -78.001"
         style="fill:none;stroke:#f4eecb;stroke-width:1.40100002;stroke-linecap:butt;stroke-linejoin:round;stroke-miterlimit:3.86400008;stroke-dasharray:none;stroke-opacity:1"
         id="path462"
         inkscape:connector-curvature="0" /><g
         id="g464"
         transform="translate(-37.4)"><path
           d="M 0,0 V -78.001"
           style="fill:none;stroke:#f4eecb;stroke-width:1.40100002;stroke-linecap:butt;stroke-linejoin:round;stroke-miterlimit:3.86400008;stroke-dasharray:none;stroke-opacity:1"
           id="path466"
           inkscape:connector-curvature="0" /></g></g><g
       id="g468"
       transform="matrix(3.6557031,0,0,3.6557031,670.32878,556.18689)"><path
         d="m 0,0 c 0,0 0.619,0.447 1.342,0.137 0.722,-0.309 1.307,-0.791 1.307,-1.032 0,-0.241 -0.929,-1.651 -1.651,-2.236 -0.723,-0.585 -1.136,-0.653 -1.445,-0.447 -0.207,0.138 -0.379,0.757 -0.998,0.825 -0.752,0.084 -1.411,0.035 -1.858,0 -0.447,-0.034 -2.516,-0.066 -2.757,-0.031 -0.241,0.034 -0.688,0.636 -0.843,0.86 -0.155,0.224 -0.12,0.55 0,0.671 0.121,0.12 0.447,0.447 0.757,0.43 0.31,-0.017 2.465,-0.072 3.153,-0.141 0.688,-0.068 1.375,-0.351 1.514,-0.361 0.24,-0.017 0.464,0.31 0.464,0.31 L 0,0"
         style="fill:#ffefcf;fill-opacity:1;fill-rule:nonzero;stroke:none"
         id="path470"
         inkscape:connector-curvature="0" /></g><g
       id="g472"
       transform="matrix(3.6557031,0,0,3.6557031,645.42248,536.58867)"><path
         d="M 0,0 C -0.111,0.16 -0.375,0.977 0.193,1.235 0.761,1.493 2.239,1.042 3.899,1.081 4.648,1.098 5.18,0.29 5.25,-0.309 5.325,-0.949 4.318,-0.919 3.596,-0.884 2.123,-0.81 1.351,-1.158 0.733,-0.733 0.397,-0.502 0.155,-0.223 0,0"
         style="fill:#ffefcf;fill-opacity:1;fill-rule:nonzero;stroke:none"
         id="path474"
         inkscape:connector-curvature="0" /></g><g
       id="g476"
       transform="matrix(3.6557031,0,0,3.6557031,668.06225,535.37132)"><path
         d="M 0,0 C 0,0 0.195,1.767 1.634,1.582 2.838,1.428 2.907,0.55 2.873,0.052 2.838,-0.447 2.357,-0.929 2.357,-2.081 c 0,-1.153 0.069,-2.116 0.395,-2.735 0.327,-0.62 0.551,-1.033 0.413,-1.256 C 3.028,-6.296 2.198,-7.054 1.772,-7.225 1.256,-7.431 0.894,-7.311 0.361,-6.967 c -0.42,0.271 -0.963,0.258 -1.221,0.241 -0.258,-0.017 -2.993,-0.189 -2.993,-0.189 0,0 -1.17,-0.052 -1.617,0.344 -0.447,0.395 -0.981,1.29 -0.465,1.531 0.517,0.24 1.497,0.168 1.875,0.137 0.431,-0.034 3.424,-0.206 3.424,-0.206 0,0 0.688,0.12 0.774,0.963 C 0.224,-3.303 0.103,-2.081 0.052,-1.6 0,-1.118 0,0 0,0"
         style="fill:#ffefcf;fill-opacity:1;fill-rule:nonzero;stroke:none"
         id="path478"
         inkscape:connector-curvature="0" /></g><g
       id="g480"
       transform="matrix(3.6557031,0,0,3.6557031,669.88644,505.81861)"><path
         d="m 0,0 c 0,0 0.533,0.705 1.376,0.293 0.843,-0.413 1.393,-0.947 1.393,-1.188 0,-0.241 -0.567,-1.152 -1.255,-1.771 -0.688,-0.619 -1.462,-1.015 -2.684,-0.482 -1.221,0.533 -2.184,1.307 -2.442,2.167 -0.234,0.78 0.034,1.291 0.43,1.291 0.395,0 0.968,-0.346 1.29,-0.861 0.297,-0.475 0.327,-0.997 0.757,-1.031 0.43,-0.035 0.567,0.429 0.722,0.825 C -0.258,-0.361 0,0 0,0"
         style="fill:#ffefcf;fill-opacity:1;fill-rule:nonzero;stroke:none"
         id="path482"
         inkscape:connector-curvature="0" /></g><g
       id="g484"
       transform="matrix(3.6557031,0,0,3.6557031,668.1902,486.51284)"><path
         d="M 0,0 C 0,0.533 0.327,1.221 0.912,1.359 1.496,1.496 2.728,0.911 2.907,0.31 3.096,-0.327 2.735,-0.723 2.615,-1.221 2.494,-1.72 2.597,-2.598 2.701,-3.01 2.804,-3.423 2.993,-3.888 2.787,-4.352 2.58,-4.816 2.236,-5.659 1.067,-5.642 c -1.17,0.017 -2.34,0.137 -2.839,0.103 -0.499,-0.034 -2.335,-0.389 -3.143,-0.217 -0.809,0.172 -1.215,0.596 -1.192,1.404 0.018,0.602 1.566,0.705 2.202,0.671 0.637,-0.035 2.665,-0.236 2.942,-0.224 0.378,0.017 0.98,0.43 1.015,1.136 C 0.086,-2.064 0,-0.533 0,0"
         style="fill:#ffefcf;fill-opacity:1;fill-rule:nonzero;stroke:none"
         id="path486"
         inkscape:connector-curvature="0" /></g><g
       id="g488"
       transform="matrix(3.6557031,0,0,3.6557031,669.19552,461.98673)"><path
         d="M 0,0 C 0,0 0.568,0.843 1.737,0.43 2.907,0.017 3.01,-0.654 3.01,-0.894 3.01,-1.324 2.684,-1.789 2.305,-2.133 1.927,-2.477 1.462,-3.113 1.858,-3.887 2.254,-4.661 2.785,-6.013 2.236,-7.483 1.6,-9.186 -0.138,-10.114 -2.236,-10.028 c -2.099,0.086 -3.853,0.946 -4.541,2.46 -0.627,1.378 -1.119,3.354 -1.187,3.646 -0.069,0.292 -0.155,0.499 0.051,0.705 0.207,0.207 1.015,0.431 1.652,-0.137 0.636,-0.568 1.135,-1.514 1.273,-2.563 0.137,-1.049 0.017,-1.841 0.464,-2.15 0.447,-0.31 1.686,-0.069 1.858,-0.018 0.172,0.052 2.216,0.505 2.546,1.703 0.378,1.376 0.122,1.755 0.034,2.133 -0.12,0.516 0.069,0.757 -0.069,1.118 -0.137,0.362 -0.309,0.774 -1.015,0.774 -0.705,0 -3.113,0.122 -3.801,0.173 -0.464,0.034 -0.826,0.206 -0.998,0.378 -0.172,0.172 -0.774,0.757 -0.774,0.757 0,0 -0.189,0.413 0.035,0.585 0.223,0.172 1.444,0.378 2.133,0.344 0.688,-0.035 2.281,-0.202 2.631,-0.344 0.551,-0.224 0.551,-0.551 1.136,-0.568 0.309,-0.009 0.412,0.31 0.412,0.31 L 0,0"
         style="fill:#ffefcf;fill-opacity:1;fill-rule:nonzero;stroke:none"
         id="path490"
         inkscape:connector-curvature="0" /></g><g
       id="g492"
       transform="matrix(3.6557031,0,0,3.6557031,672.33942,424.50846)"><path
         d="M 0,0 C 0,0 0.74,0.327 1.256,-0.034 1.772,-0.396 2.168,-0.826 1.823,-1.462 1.479,-2.099 0.946,-2.89 0.946,-2.89 0.757,-3.182 0.261,-3.499 -0.464,-3.079 c -0.327,0.189 -0.551,0.602 -1.273,0.568 -0.723,-0.035 -1.225,-0.528 -1.325,-1.05 0.023,-0.327 -0.016,-0.675 0.516,-0.722 0.825,-0.074 0.964,0.155 1.325,0.31 0.361,0.154 0.997,0.309 1.582,-0.018 0.585,-0.326 1.084,-0.67 1.17,-0.963 C 1.617,-5.246 1.703,-5.676 1.393,-6.055 1.084,-6.433 0.619,-7.018 0.12,-6.863 c -0.498,0.155 -1.548,0.378 -2.287,0.997 -0.74,0.62 -1.067,1.05 -1.703,1.05 -0.637,0 -1.524,-0.809 -0.946,-1.996 0.679,-1.395 1.17,-2.176 2.15,-2.305 0.746,-0.098 1.248,0.519 1.496,1.067 0.151,0.332 0.253,0.688 0.912,0.499 0.886,-0.255 1.47,-1.01 1.582,-1.514 0.138,-0.619 -0.481,-1.789 -1.358,-1.91 -0.878,-0.12 -1.622,0.059 -2.443,0.396 -0.963,0.396 -2.838,1.737 -3.544,2.598 -0.705,0.86 -1.255,2.029 -1.462,2.631 -0.206,0.602 -0.055,1.173 0.19,1.548 0.481,0.74 2.219,2.323 2.924,2.873 0.249,0.195 0.739,0.275 1.152,0.224 0.413,-0.052 1.669,-0.224 1.669,-0.224 0,0 0.299,-0.061 0.499,0.189 C -0.774,-0.396 0,0 0,0"
         style="fill:#ffefcf;fill-opacity:1;fill-rule:nonzero;stroke:none"
         id="path494"
         inkscape:connector-curvature="0" /></g><g
       id="g496"
       transform="matrix(3.6557031,0,0,3.6557031,678.1264,373.06907)"><path
         d="m 0,0 c 0,0 -0.86,-0.895 -0.895,-1.41 -0.034,-0.517 -0.051,-2.409 -0.051,-2.409 0,0 0.103,-1.273 -1.29,-1.307 -1.394,-0.034 -5.298,-0.086 -5.298,-0.086 0,0 -0.327,0.017 -0.551,-0.103 -0.223,-0.121 -0.481,-0.224 -0.481,-0.224 l -1.084,1.238 c 0,0 0.585,0.276 1.307,0.241 0.723,-0.034 4.591,-0.102 4.591,-0.102 0,0 1.138,-0.046 1.17,1.118 0.051,1.879 -0.104,2.651 0.244,3.075 0.154,0.387 0.322,0.777 1.099,0.777 C -0.912,0.808 0,0 0,0 Z"
         style="fill:#ffefcf;fill-opacity:1;fill-rule:nonzero;stroke:#ffefcf;stroke-width:0.138;stroke-linecap:round;stroke-linejoin:round;stroke-miterlimit:3.86400008;stroke-dasharray:none;stroke-opacity:1"
         id="path498"
         inkscape:connector-curvature="0" /></g><g
       id="g500"
       transform="matrix(3.6557031,0,0,3.6557031,670.20083,347.1611)"><path
         d="M 0,0 C 0,0 0,0.767 0.74,0.74 1.204,0.723 1.617,0.585 1.806,0.551 1.995,0.516 2.254,0.447 2.254,0.447 c 0,0 0,-0.137 -0.224,-0.24 C 1.806,0.103 1.032,-0.533 1.015,-1.273 0.998,-2.012 1.135,-3.457 1.17,-4.025 1.204,-4.593 1.094,-6.55 -0.362,-7.001 c -1.445,-0.447 -2.364,-0.657 -3.356,-0.396 -1.152,0.303 -2.249,0.85 -3.025,2.099 -0.816,1.314 -1.101,2.443 -1.497,4.025 -0.242,0.971 -0.447,1.221 -0.602,1.394 -0.154,0.172 -0.395,0.378 -0.378,0.55 0.017,0.172 1.29,0.052 1.841,-0.31 0.55,-0.361 0.734,-1.237 0.871,-1.755 0.167,-0.628 0.396,-1.307 0.499,-1.565 0.103,-0.258 0.543,-1.6 0.811,-2.123 0.136,-0.268 0.472,-0.714 0.733,-0.907 0.465,-0.344 0.852,-0.527 1.471,-0.596 0.619,-0.068 1.368,-0.1 1.962,0.616 0.499,0.602 1.015,1.91 0.98,2.615 -0.034,0.705 -0.653,1.909 -2.029,1.978 -1.377,0.069 -1.583,-0.894 -1.686,-1.221 -0.103,-0.327 -0.086,-0.86 -0.275,-0.877 -0.19,-0.018 -0.602,0.481 -0.792,1.238 -0.189,0.757 0.047,2.463 1.463,2.649 1.307,0.172 1.823,-0.602 2.012,-0.791 0.189,-0.189 0.292,-0.349 0.688,-0.327 C -0.034,-0.671 0,0 0,0 Z"
         style="fill:#ffefcf;fill-opacity:1;fill-rule:nonzero;stroke:#ffefcf;stroke-width:0.138;stroke-linecap:round;stroke-linejoin:round;stroke-miterlimit:3.86400008;stroke-dasharray:none;stroke-opacity:1"
         id="path502"
         inkscape:connector-curvature="0" /></g><g
       id="g504"
       transform="matrix(3.6557031,0,0,3.6557031,677.74621,315.40401)"><path
         d="m 0,0 c 0,0 -1.066,0.575 -1.617,0.241 -0.625,-0.379 -0.62,-0.897 -0.62,-1.362 0,-0.464 -0.05,-2.486 -0.12,-2.992 -0.086,-0.62 -0.676,-1.321 -1.467,-1.545 -0.791,-0.223 -1.891,-0.347 -2.644,-0.036 -0.718,0.298 -0.915,1.239 -1.139,2.082 -0.224,0.843 -0.688,2.305 -0.808,2.77 -0.121,0.464 -0.495,1.221 -1.304,1.53 -0.808,0.31 -1.479,0.275 -1.582,0.241 -0.104,-0.035 0.24,-0.271 0.533,-0.723 0.413,-0.636 1.043,-2.456 1.238,-3.061 0.456,-1.413 1.284,-2.881 2.15,-3.355 0.722,-0.395 1.324,-0.654 2.683,-0.654 1.359,0 2.941,0.346 3.545,1.618 0.481,1.014 0.481,1.978 0.567,2.769 0.086,0.791 0.189,1.514 0.43,1.772 0.241,0.258 0.439,0.031 0.499,0.223 C 0.43,-0.206 0,0 0,0 Z"
         style="fill:#ffefcf;fill-opacity:1;fill-rule:nonzero;stroke:#ffefcf;stroke-width:0.138;stroke-linecap:round;stroke-linejoin:round;stroke-miterlimit:3.86400008;stroke-dasharray:none;stroke-opacity:1"
         id="path506"
         inkscape:connector-curvature="0" /></g></g></svg>