<?xml version="1.0" encoding="UTF-8"?>
<!-- Generator: Adobe Illustrator 15.0.0, SVG Export Plug-In . SVG Version: 6.00 Build 0)  -->
<!DOCTYPE svg PUBLIC "-//W3C//DTD SVG 1.1//EN" "http://www.w3.org/Graphics/SVG/1.1/DTD/svg11.dtd">
<svg version="1.1" id="Layer_1" xmlns="http://www.w3.org/2000/svg" xmlns:xlink="http://www.w3.org/1999/xlink" x="0px" y="0px" width="2122.758px" height="2437.847px" viewBox="0 0 2122.758 2437.847" enable-background="new 0 0 2122.758 2437.847" xml:space="preserve">
<g>
	<path fill="#2F773C" d="M314.593,0.767c0,0,134.572,124.823,180.979,129.997c43.09,4.908,62.011,8.565,62.011,8.565H1570.15   c0,0,35.518-7.373,65.994-14.672c32.793-7.906,149.311-116.584,149.311-116.584l336.589,400.859L1980.24,540.254   c0,0-20.246,16.922-25.162,33.993c-7.306,24.495-5.182,48.591-5.182,48.591v1282.909c0,0-13.073,143.67-89.823,213.78   c-127.799,116.576-284.808,101.971-284.808,101.971h-227.786c0,0-105.095,3.716-144.328,29.145   c-60.08,39.1-130.39,185.953-130.39,185.953s-68.845-159.268-140.546-187.079c-72.161-28.019-116.51-18.195-116.51-18.195H534.813   c0,0-167.04,2.391-274.726-100.912c-75.944-72.894-102.438-195.518-102.438-195.518V613.015c0,0,3.783-24.169,0-43.616   C152.276,541.513,0.708,408.932,0.708,408.932L314.593,0.767"/>
	<path fill="none" stroke="#FFFFFF" stroke-width="1.037" stroke-miterlimit="3.864" d="M314.593,0.767   c0,0,134.572,124.823,180.979,129.997c43.09,4.908,62.011,8.565,62.011,8.565H1570.15c0,0,35.518-7.373,65.994-14.672   c32.793-7.906,149.311-116.584,149.311-116.584l336.589,400.859L1980.24,540.254c0,0-20.246,16.922-25.162,33.993   c-7.306,24.495-5.182,48.591-5.182,48.591v1282.909c0,0-13.073,143.67-89.823,213.78   c-127.799,116.576-284.808,101.971-284.808,101.971h-227.786c0,0-105.095,3.716-144.328,29.145   c-60.08,39.1-130.39,185.953-130.39,185.953s-68.845-159.268-140.546-187.079c-72.161-28.019-116.51-18.195-116.51-18.195H534.813   c0,0-167.04,2.391-274.726-100.912c-75.944-72.894-102.438-195.518-102.438-195.518V613.015c0,0,3.783-24.169,0-43.616   C152.276,541.513,0.708,408.932,0.708,408.932L314.593,0.767z"/>
	<path fill="#F58220" d="M329.798,144.111c0,0,130.723,82.517,172.214,87.499c38.442,4.516,103.637,7.166,103.637,7.166h966.958   c0,0,48.731-3.116,76.151-9.557c40.3-9.823,131.581-75.484,131.581-75.484l210.189,243.117l-116.576,109.344   c0,0-13.014,30.536-17.463,46.474c-6.573,23.037-4.449,45.474-4.449,45.474v1266.18c0,0,2.658,141.471-71.701,199.301   c-93.739,72.9-215.164,65.527-215.164,65.527h-251.948c0,0-110.477,5.241-145.661,29.211   c-53.506,36.584-99.779,139.479-99.779,139.479s-39.309-115.185-122.758-136.963c-67.719-17.722-104.096-17.188-104.096-17.188   H546.694c0,0-128.598,2.916-216.896-82.524c-69.177-66.92-80-214.172-80-214.172V589.052c0,0,2.524-22.578,0-41.033   c-5.974-46.807-125.008-148.844-125.008-148.844L329.798,144.111"/>
	<path fill="none" stroke="#030404" stroke-width="0.115" stroke-miterlimit="3.864" d="M329.798,144.111   c0,0,130.723,82.517,172.214,87.499c38.442,4.516,103.637,7.166,103.637,7.166h966.958c0,0,48.731-3.116,76.151-9.557   c40.3-9.823,131.581-75.484,131.581-75.484l210.189,243.117l-116.576,109.344c0,0-13.014,30.536-17.463,46.474   c-6.573,23.037-4.449,45.474-4.449,45.474v1266.18c0,0,2.658,141.471-71.701,199.301c-93.739,72.9-215.164,65.527-215.164,65.527   h-251.948c0,0-110.477,5.241-145.661,29.211c-53.506,36.584-99.779,139.479-99.779,139.479s-39.309-115.185-122.758-136.963   c-67.719-17.722-104.096-17.188-104.096-17.188H546.694c0,0-128.598,2.916-216.896-82.524c-69.177-66.92-80-214.172-80-214.172   V589.052c0,0,2.524-22.578,0-41.033c-5.974-46.807-125.008-148.844-125.008-148.844L329.798,144.111z"/>
	<path fill="#2F773C" d="M1241.125,739.421H1686.6l8.897-46.14h-51.922l-2.45-41.292h-43.157l-5.048,14.465h-47.999l-10.09-20.579   l-25.361-7.366v-83.716h-27.812v80.126c0,0-28.951,2.191-39.374,12.155l-12.614,10.882l-1.325,20.72h-52.98l2.324-14.672h-139.154   c0,0-22.771,7.432-15.131,16.989c7.499,9.831,15.131,14.746,15.131,26.76C1238.535,720.034,1241.125,739.421,1241.125,739.421"/>
	<path fill="none" stroke="#030404" stroke-width="0.093" stroke-miterlimit="3.864" d="M1241.125,739.421H1686.6l8.897-46.14   h-51.922l-2.45-41.292h-43.157l-5.048,14.465h-47.999l-10.09-20.579l-25.361-7.366v-83.716h-27.812v80.126   c0,0-28.951,2.191-39.374,12.155l-12.614,10.882l-1.325,20.72h-52.98l2.324-14.672h-139.154c0,0-22.771,7.432-15.131,16.989   c7.499,9.831,15.131,14.746,15.131,26.76C1238.535,720.034,1241.125,739.421,1241.125,739.421z"/>
	<rect x="1530.916" y="681.067" fill="#FFFFFF" width="21.513" height="19.454"/>
	
		<rect x="1530.916" y="681.067" fill="none" stroke="#030404" stroke-width="0.093" stroke-miterlimit="3.864" width="21.579" height="19.454"/>
	<path fill="none" stroke="#030404" stroke-width="0.093" stroke-miterlimit="3.864" d="M1530.916,681.067"/>
	<rect x="1566.367" y="681.067" fill="#FFFFFF" width="21.646" height="19.454"/>
	
		<rect x="1566.433" y="681.067" fill="none" stroke="#030404" stroke-width="0.093" stroke-miterlimit="3.864" width="21.579" height="19.454"/>
	<path fill="none" stroke="#030404" stroke-width="0.093" stroke-miterlimit="3.864" d="M1566.433,681.067"/>
	<rect x="1601.818" y="681.067" fill="#FFFFFF" width="21.579" height="19.454"/>
	
		<rect x="1601.751" y="681.067" fill="none" stroke="#030404" stroke-width="0.093" stroke-miterlimit="3.864" width="21.578" height="19.454"/>
	<path fill="none" stroke="#030404" stroke-width="0.093" stroke-miterlimit="3.864" d="M1601.751,681.067"/>
	<path fill="#2F773C" d="M882.825,740.613H437.284l-8.898-46.141h52.048l2.325-41.358h43.224l4.975,14.672h48.073l10.089-20.712   l25.295-7.299v-83.856h27.945v80.2c0,0,28.885,2.258,39.308,12.214l12.614,10.823l1.325,20.712h53.047l-2.392-14.539h139.221   c0,0,22.771,7.166,15.131,16.93c-7.698,9.69-15.131,14.738-15.131,26.76C885.482,721.159,882.825,740.613,882.825,740.613"/>
	<path fill="none" stroke="#030404" stroke-width="0.093" stroke-miterlimit="3.864" d="M882.825,740.613H437.284l-8.898-46.141   h52.048l2.325-41.358h43.224l4.975,14.672h48.073l10.089-20.712l25.295-7.299v-83.856h27.945v80.2c0,0,28.885,2.258,39.308,12.214   l12.614,10.823l1.325,20.712h53.047l-2.392-14.539h139.221c0,0,22.771,7.166,15.131,16.93c-7.698,9.69-15.131,14.738-15.131,26.76   C885.482,721.159,882.825,740.613,882.825,740.613z"/>
	<rect x="571.456" y="682.192" fill="#FFFFFF" width="21.512" height="19.454"/>
	
		<rect x="571.456" y="682.192" fill="none" stroke="#030404" stroke-width="0.061" stroke-miterlimit="3.864" width="21.512" height="19.521"/>
	<path fill="none" stroke="#030404" stroke-width="0.061" stroke-miterlimit="3.864" d="M571.456,682.259"/>
	<rect x="536.138" y="682.192" fill="#FFFFFF" width="21.512" height="19.454"/>
	
		<rect x="536.072" y="682.192" fill="none" stroke="#030404" stroke-width="0.061" stroke-miterlimit="3.864" width="21.579" height="19.521"/>
	<path fill="none" stroke="#030404" stroke-width="0.061" stroke-miterlimit="3.864" d="M536.072,682.259"/>
	<rect x="500.754" y="682.192" fill="#FFFFFF" width="21.379" height="19.454"/>
	
		<rect x="500.754" y="682.192" fill="none" stroke="#030404" stroke-width="0.061" stroke-miterlimit="3.864" width="21.445" height="19.521"/>
	<path fill="none" stroke="#030404" stroke-width="0.061" stroke-miterlimit="3.864" d="M500.754,682.259"/>
	<path fill="#FFFFFF" d="M751.302,1026.087c0,0-1.258-16.996,0-23.037c1.267-6.107-5.041-20.58-5.041-20.58   s-19.121,1.125-21.711-8.564c-2.458-9.823,2.591-20.712-2.458-26.886c-5.108-5.974-17.722-20.513-12.681-27.819   c5.049-7.232,12.681-15.73,14.013-21.845c1.125-6.174,16.33-21.971,26.62-20.713c10.156,1.266,20.18,7.373,27.818,8.499   c7.499,1.266,22.704,1.266,22.704,1.266l11.422,9.69l3.717,13.347c5.041,4.774,12.614,18.188,10.156,26.686   c-2.458,8.499-13.873,9.831-16.464,17.063c-2.523,7.306,7.499,19.446-4.981,20.712c-12.814,1.132-24.162-3.716-24.162,1.132   c0,4.975,0,12.081-6.308,13.406c-6.307,1.192-12.547,4.849-12.547,4.849l9.956,23.037l-7.373,7.299L751.302,1026.087"/>
	<path fill="none" stroke="#FFFFFF" stroke-width="0.061" stroke-miterlimit="3.864" d="M751.302,1026.087   c0,0-1.258-16.996,0-23.037c1.267-6.107-5.041-20.58-5.041-20.58s-19.121,1.125-21.711-8.564   c-2.458-9.823,2.591-20.712-2.458-26.886c-5.108-5.974-17.722-20.513-12.681-27.819c5.049-7.232,12.681-15.73,14.013-21.845   c1.125-6.174,16.33-21.971,26.62-20.713c10.156,1.266,20.18,7.373,27.818,8.499c7.499,1.266,22.704,1.266,22.704,1.266l11.422,9.69   l3.717,13.347c5.041,4.774,12.614,18.188,10.156,26.686c-2.458,8.499-13.873,9.831-16.464,17.063   c-2.523,7.306,7.499,19.446-4.981,20.712c-12.814,1.132-24.162-3.716-24.162,1.132c0,4.975,0,12.081-6.308,13.406   c-6.307,1.192-12.547,4.849-12.547,4.849l9.956,23.037l-7.373,7.299L751.302,1026.087z"/>
	<path fill="#FFFFFF" d="M746.261,902.138c0-7.299,6.174-13.28,13.939-13.28c7.64,0,13.746,5.981,13.746,13.28   c0,7.44-6.106,13.414-13.746,13.414C752.435,915.552,746.261,909.578,746.261,902.138"/>
	<path fill="none" stroke="#FFFFFF" stroke-width="0.061" stroke-miterlimit="3.864" d="M746.261,902.138   c0-7.299,6.174-13.28,13.939-13.28c7.64,0,13.746,5.981,13.746,13.28c0,7.44-6.106,13.414-13.746,13.414   C752.435,915.552,746.261,909.578,746.261,902.138z"/>
	<path fill="#FFFFFF" d="M722.159,931.949c0-7.099,5.974-12.748,13.214-12.748c7.306,0,13.347,5.648,13.347,12.748   c0,7.04-6.041,12.747-13.347,12.747C728.132,944.696,722.159,938.988,722.159,931.949"/>
	<path fill="none" stroke="#FFFFFF" stroke-width="0.061" stroke-miterlimit="3.864" d="M722.159,931.949   c0-7.099,5.974-12.748,13.214-12.748c7.306,0,13.347,5.648,13.347,12.748c0,7.04-6.041,12.747-13.347,12.747   C728.132,944.696,722.159,938.988,722.159,931.949z"/>
	<path fill="#FFFFFF" d="M756.285,962.292c0-6.973,6.107-12.748,13.28-12.748c7.232,0,13.206,5.774,13.206,12.748   c0,7.032-5.974,12.747-13.206,12.747C762.392,975.039,756.285,969.324,756.285,962.292"/>
	<path fill="none" stroke="#FFFFFF" stroke-width="0.061" stroke-miterlimit="3.864" d="M756.285,962.292   c0-6.973,6.107-12.748,13.28-12.748c7.232,0,13.206,5.774,13.206,12.748c0,7.032-5.974,12.747-13.206,12.747   C762.392,975.039,756.285,969.324,756.285,962.292z"/>
	<polyline fill="#FFFFFF" points="724.616,964.75 732.915,956.91 741.212,964.75 732.915,972.641 724.616,964.75  "/>
	<polygon fill="none" stroke="#FFFFFF" stroke-width="0.061" stroke-miterlimit="3.864" points="724.616,964.75 732.915,956.91    741.212,964.75 732.915,972.641  "/>
	<polyline fill="#FFFFFF" points="763.983,932.548 772.881,924.05 781.712,932.548 772.881,941.113 763.983,932.548  "/>
	<polygon fill="none" stroke="#FFFFFF" stroke-width="0.061" stroke-miterlimit="3.864" points="763.983,932.548 772.881,924.05    781.712,932.548 772.881,941.113  "/>
	<path fill="#FFFFFF" d="M894.306,966.6c0,0-1.325-16.996,0-23.096c1.266-6.114-4.975-20.653-4.975-20.653   s-19.121,1.199-21.512-8.557c-2.657-9.698,2.391-20.653-2.657-26.753c-5.175-6.048-17.723-20.653-12.681-27.893   c5.115-7.299,12.681-15.73,14.013-21.771c1.325-6.173,16.33-21.978,26.486-20.712c10.224,1.192,20.246,7.307,27.952,8.499   c7.499,1.191,22.771,1.191,22.771,1.191l11.415,9.698l3.657,13.339c5.174,4.982,12.681,18.255,10.156,26.827   c-2.458,8.424-13.813,9.624-16.33,16.922c-2.591,7.373,7.499,19.454-5.049,20.653c-12.681,1.192-23.97-3.657-23.97,1.192   c0,4.908,0,12.214-6.507,13.48c-6.174,1.192-12.74,4.708-12.74,4.708l10.356,23.17l-7.706,7.306L894.306,966.6"/>
	<path fill="none" stroke="#FFFFFF" stroke-width="0.061" stroke-miterlimit="3.864" d="M894.306,966.6c0,0-1.325-16.996,0-23.096   c1.266-6.114-4.975-20.653-4.975-20.653s-19.121,1.199-21.512-8.557c-2.657-9.698,2.391-20.653-2.657-26.753   c-5.175-6.048-17.723-20.653-12.681-27.893c5.115-7.299,12.681-15.73,14.013-21.771c1.325-6.173,16.33-21.978,26.486-20.712   c10.224,1.192,20.246,7.307,27.952,8.499c7.499,1.191,22.771,1.191,22.771,1.191l11.415,9.698l3.657,13.339   c5.174,4.982,12.681,18.255,10.156,26.827c-2.458,8.424-13.813,9.624-16.33,16.922c-2.591,7.373,7.499,19.454-5.049,20.653   c-12.681,1.192-23.97-3.657-23.97,1.192c0,4.908,0,12.214-6.507,13.48c-6.174,1.192-12.74,4.708-12.74,4.708l10.356,23.17   l-7.706,7.306L894.306,966.6z"/>
	<path fill="#FFFFFF" d="M889.332,842.651c0-7.299,6.107-13.406,13.873-13.406c7.698,0,13.872,6.107,13.872,13.406   c0,7.44-6.174,13.354-13.872,13.354C895.439,856.005,889.332,850.091,889.332,842.651"/>
	<path fill="none" stroke="#FFFFFF" stroke-width="0.061" stroke-miterlimit="3.864" d="M889.332,842.651   c0-7.299,6.107-13.406,13.873-13.406c7.698,0,13.872,6.107,13.872,13.406c0,7.44-6.174,13.354-13.872,13.354   C895.439,856.005,889.332,850.091,889.332,842.651z"/>
	<path fill="#FFFFFF" d="M865.163,872.469c0-7.173,5.974-12.821,13.213-12.821c7.366,0,13.473,5.648,13.473,12.821   c0,6.966-6.106,12.673-13.473,12.673C871.136,885.142,865.163,879.435,865.163,872.469"/>
	<path fill="none" stroke="#FFFFFF" stroke-width="0.061" stroke-miterlimit="3.864" d="M865.163,872.469   c0-7.173,5.974-12.821,13.213-12.821c7.366,0,13.473,5.648,13.473,12.821c0,6.966-6.106,12.673-13.473,12.673   C871.136,885.142,865.163,879.435,865.163,872.469z"/>
	<path fill="#FFFFFF" d="M899.289,902.805c0-7.106,6.106-12.814,13.213-12.814c7.366,0,13.54,5.708,13.54,12.814   c0,6.973-6.174,12.747-13.54,12.747C905.395,915.552,899.289,909.778,899.289,902.805"/>
	<path fill="none" stroke="#FFFFFF" stroke-width="0.061" stroke-miterlimit="3.864" d="M899.289,902.805   c0-7.106,6.106-12.814,13.213-12.814c7.366,0,13.54,5.708,13.54,12.814c0,6.973-6.174,12.747-13.54,12.747   C905.395,915.552,899.289,909.778,899.289,902.805z"/>
	<polyline fill="#FFFFFF" points="867.82,905.195 875.918,897.43 884.15,905.195 875.918,913.094 867.82,905.195  "/>
	<polygon fill="none" stroke="#FFFFFF" stroke-width="0.061" stroke-miterlimit="3.864" points="867.82,905.195 875.918,897.43    884.15,905.195 875.918,913.094  "/>
	<polyline fill="#FFFFFF" points="906.92,872.994 915.685,864.496 924.45,872.994 915.685,881.559 906.92,872.994  "/>
	<polygon fill="none" stroke="#FFFFFF" stroke-width="0.061" stroke-miterlimit="3.864" points="906.92,872.994 915.685,864.496    924.45,872.994 915.685,881.559  "/>
	<path fill="#FFFFFF" d="M1199.301,971.457c0,0-1.259-17.071,0-23.037c1.259-6.248-4.982-20.72-4.982-20.72   s-18.987,1.266-21.638-8.499c-2.457-9.756,2.65-20.646-2.457-26.819c-5.049-6.041-17.663-20.58-12.548-27.886   c4.915-7.307,12.548-15.864,13.806-21.845c1.199-6.174,16.33-21.904,26.561-20.712c10.09,1.266,20.18,7.306,27.679,8.498   c7.706,1.266,22.845,1.266,22.845,1.266l11.548,9.756l3.782,13.347c5.115,4.841,12.681,18.122,10.023,26.686   c-2.517,8.499-13.806,9.69-16.264,17.063c-2.591,7.299,7.439,19.32-5.241,20.646c-12.547,1.192-23.97-3.716-23.97,1.192   c0,4.856,0,12.155-6.373,13.28c-6.24,1.258-12.747,4.849-12.747,4.849l10.223,23.17l-7.565,7.306L1199.301,971.457"/>
	<path fill="none" stroke="#FFFFFF" stroke-width="0.061" stroke-miterlimit="3.864" d="M1199.301,971.457   c0,0-1.259-17.071,0-23.037c1.259-6.248-4.982-20.72-4.982-20.72s-18.987,1.266-21.638-8.499   c-2.457-9.756,2.65-20.646-2.457-26.819c-5.049-6.041-17.663-20.58-12.548-27.886c4.915-7.307,12.548-15.864,13.806-21.845   c1.199-6.174,16.33-21.904,26.561-20.712c10.09,1.266,20.18,7.306,27.679,8.498c7.706,1.266,22.845,1.266,22.845,1.266   l11.548,9.756l3.782,13.347c5.115,4.841,12.681,18.122,10.023,26.686c-2.517,8.499-13.806,9.69-16.264,17.063   c-2.591,7.299,7.439,19.32-5.241,20.646c-12.547,1.192-23.97-3.716-23.97,1.192c0,4.856,0,12.155-6.373,13.28   c-6.24,1.258-12.747,4.849-12.747,4.849l10.223,23.17l-7.565,7.306L1199.301,971.457z"/>
	<path fill="#FFFFFF" d="M1194.319,847.566c0-7.499,6.241-13.414,13.747-13.414c7.766,0,14.006,5.915,14.006,13.414   c0,7.373-6.24,13.347-14.006,13.347C1200.56,860.913,1194.319,854.939,1194.319,847.566"/>
	<path fill="none" stroke="#FFFFFF" stroke-width="0.061" stroke-miterlimit="3.864" d="M1194.319,847.566   c0-7.499,6.241-13.414,13.747-13.414c7.766,0,14.006,5.915,14.006,13.414c0,7.373-6.24,13.347-14.006,13.347   C1200.56,860.913,1194.319,854.939,1194.319,847.566z"/>
	<path fill="#FFFFFF" d="M1170.224,877.31c0-7.106,5.974-12.814,13.347-12.814c7.232,0,13.006,5.708,13.006,12.814   c0,7.04-5.773,12.747-13.006,12.747C1176.198,890.057,1170.224,884.35,1170.224,877.31"/>
	<path fill="none" stroke="#FFFFFF" stroke-width="0.061" stroke-miterlimit="3.864" d="M1170.224,877.31   c0-7.106,5.974-12.814,13.347-12.814c7.232,0,13.006,5.708,13.006,12.814c0,7.04-5.773,12.747-13.006,12.747   C1176.198,890.057,1170.224,884.35,1170.224,877.31z"/>
	<path fill="#FFFFFF" d="M1204.417,907.646c0-6.966,5.974-12.74,13.406-12.74c7.173,0,13.08,5.774,13.08,12.74   c0,7.106-5.907,12.821-13.08,12.821C1210.39,920.467,1204.417,914.752,1204.417,907.646"/>
	<path fill="none" stroke="#FFFFFF" stroke-width="0.061" stroke-miterlimit="3.864" d="M1204.417,907.646   c0-6.966,5.974-12.74,13.406-12.74c7.173,0,13.08,5.774,13.08,12.74c0,7.106-5.907,12.821-13.08,12.821   C1210.39,920.467,1204.417,914.752,1204.417,907.646z"/>
	<polyline fill="#FFFFFF" points="1172.681,910.044 1180.98,902.212 1189.145,910.044 1180.98,917.876 1172.681,910.044  "/>
	<polygon fill="none" stroke="#FFFFFF" stroke-width="0.061" stroke-miterlimit="3.864" points="1172.681,910.044 1180.98,902.212    1189.145,910.044 1180.98,917.876  "/>
	<polyline fill="#FFFFFF" points="1211.982,877.976 1220.879,869.411 1229.644,877.976 1220.879,886.475 1211.982,877.976  "/>
	<polygon fill="none" stroke="#FFFFFF" stroke-width="0.061" stroke-miterlimit="3.864" points="1211.982,877.976 1220.879,869.411    1229.644,877.976 1220.879,886.475  "/>
	<path fill="#FFFFFF" d="M1344.962,1027.287c0,0-1.333-16.93,0-23.037c1.259-6.115-5.182-20.58-5.182-20.58   s-18.922,1.125-21.579-8.631c-2.517-9.697,2.657-20.579-2.517-26.694c-4.915-6.107-17.596-20.646-12.548-27.878   c4.975-7.307,12.548-15.805,13.939-21.912c1.125-6.107,16.53-21.912,26.553-20.646c10.09,1.192,20.446,7.306,27.819,8.498   c7.699,1.192,22.837,1.192,22.837,1.192l11.355,9.831l3.783,13.273c5.049,4.782,12.614,18.188,10.023,26.76   c-2.524,8.558-13.807,9.557-16.464,16.997c-2.458,7.299,7.766,19.447-4.915,20.579c-12.814,1.259-23.963-3.523-23.963,1.259   c0,4.841,0,12.147-6.439,13.413c-6.308,1.192-12.548,4.841-12.548,4.841l10.09,23.037l-7.699,7.307L1344.962,1027.287"/>
	<path fill="none" stroke="#FFFFFF" stroke-width="0.061" stroke-miterlimit="3.864" d="M1344.962,1027.287   c0,0-1.333-16.93,0-23.037c1.259-6.115-5.182-20.58-5.182-20.58s-18.922,1.125-21.579-8.631   c-2.517-9.697,2.657-20.579-2.517-26.694c-4.915-6.107-17.596-20.646-12.548-27.878c4.975-7.307,12.548-15.805,13.939-21.912   c1.125-6.107,16.53-21.912,26.553-20.646c10.09,1.192,20.446,7.306,27.819,8.498c7.699,1.192,22.837,1.192,22.837,1.192   l11.355,9.831l3.783,13.273c5.049,4.782,12.614,18.188,10.023,26.76c-2.524,8.558-13.807,9.557-16.464,16.997   c-2.458,7.299,7.766,19.447-4.915,20.579c-12.814,1.259-23.963-3.523-23.963,1.259c0,4.841,0,12.147-6.439,13.413   c-6.308,1.192-12.548,4.841-12.548,4.841l10.09,23.037l-7.699,7.307L1344.962,1027.287z"/>
	<path fill="#FFFFFF" d="M1339.781,903.471c0-7.373,6.373-13.48,13.938-13.48c7.64,0,13.947,6.107,13.947,13.48   c0,7.299-6.308,13.206-13.947,13.206C1346.154,916.677,1339.781,910.77,1339.781,903.471"/>
	<path fill="none" stroke="#FFFFFF" stroke-width="0.061" stroke-miterlimit="3.864" d="M1339.781,903.471   c0-7.373,6.373-13.48,13.938-13.48c7.64,0,13.947,6.107,13.947,13.48c0,7.299-6.308,13.206-13.947,13.206   C1346.154,916.677,1339.781,910.77,1339.781,903.471z"/>
	<path fill="#FFFFFF" d="M1315.685,933.141c0-7.033,6.107-12.748,13.406-12.748c7.239,0,13.28,5.715,13.28,12.748   c0,7.106-6.041,12.88-13.28,12.88C1321.792,946.021,1315.685,940.247,1315.685,933.141"/>
	<path fill="none" stroke="#FFFFFF" stroke-width="0.061" stroke-miterlimit="3.864" d="M1315.685,933.141   c0-7.033,6.107-12.748,13.406-12.748c7.239,0,13.28,5.715,13.28,12.748c0,7.106-6.041,12.88-13.28,12.88   C1321.792,946.021,1315.685,940.247,1315.685,933.141z"/>
	<path fill="#FFFFFF" d="M1349.937,963.55c0-7.106,6.04-12.814,13.28-12.814c7.232,0,13.347,5.708,13.347,12.814   c0,6.973-6.114,12.814-13.347,12.814C1355.977,976.364,1349.937,970.523,1349.937,963.55"/>
	<path fill="none" stroke="#FFFFFF" stroke-width="0.061" stroke-miterlimit="3.864" d="M1349.937,963.55   c0-7.106,6.04-12.814,13.28-12.814c7.232,0,13.347,5.708,13.347,12.814c0,6.973-6.114,12.814-13.347,12.814   C1355.977,976.364,1349.937,970.523,1349.937,963.55z"/>
	<polyline fill="#FFFFFF" points="1318.202,966.008 1326.367,958.102 1334.798,966.008 1326.367,973.907 1318.202,966.008  "/>
	<polygon fill="none" stroke="#FFFFFF" stroke-width="0.061" stroke-miterlimit="3.864" points="1318.202,966.008 1326.367,958.102    1334.798,966.008 1326.367,973.907  "/>
	<polyline fill="#FFFFFF" points="1357.509,933.673 1366.4,925.249 1375.298,933.673 1366.4,942.238 1357.509,933.673  "/>
	<polygon fill="none" stroke="#FFFFFF" stroke-width="0.061" stroke-miterlimit="3.864" points="1357.509,933.673 1366.4,925.249    1375.298,933.673 1366.4,942.238  "/>
	<path fill-rule="evenodd" clip-rule="evenodd" fill="#FFFFFF" d="M1038.509,928.965l2.65-23.037l7.506-10.956l-3.657-12.214   l-24.295,2.458l-9.957-11.03c-5.248-1.192-19.054-13.273-21.512-19.313c-2.724-6.24,10.023-28.019,10.023-32.801v-15.864   l15.138-7.232l10.224-10.956c0,0-2.524-15.871,4.915-18.255c7.632-2.398,21.646,0,29.344-1.266   c7.699-1.133,11.481-9.557,20.313-5.974c8.765,3.583,20.187,15.797,20.187,15.797s11.281,8.565,18.854,14.479   c7.632,6.174,10.023,23.096,7.632,28.012c-2.324,4.849,3.85,27.819,0,34.059c-3.782,6.041-17.729,14.539-17.729,14.539   s2.524,9.69-3.782,13.347c-6.307,3.716-22.771,1.258-22.771,1.258s-7.565,12.081-8.831,18.122   c-1.392,6.115,1.266,25.562,1.266,25.562s-7.439-1.133-16.404,0C1048.666,928.965,1038.509,928.965,1038.509,928.965"/>
	<path fill="none" stroke="#FFFFFF" stroke-width="0.061" stroke-miterlimit="3.864" d="M1038.509,928.965l2.65-23.037l7.506-10.956   l-3.657-12.214l-24.295,2.458l-9.957-11.03c-5.248-1.192-19.054-13.273-21.512-19.313c-2.724-6.24,10.023-28.019,10.023-32.801   v-15.864l15.138-7.232l10.224-10.956c0,0-2.524-15.871,4.915-18.255c7.632-2.398,21.646,0,29.344-1.266   c7.699-1.133,11.481-9.557,20.313-5.974c8.765,3.583,20.187,15.797,20.187,15.797s11.281,8.565,18.854,14.479   c7.632,6.174,10.023,23.096,7.632,28.012c-2.324,4.849,3.85,27.819,0,34.059c-3.782,6.041-17.729,14.539-17.729,14.539   s2.524,9.69-3.782,13.347c-6.307,3.716-22.771,1.258-22.771,1.258s-7.565,12.081-8.831,18.122   c-1.392,6.115,1.266,25.562,1.266,25.562s-7.439-1.133-16.404,0C1048.666,928.965,1038.509,928.965,1038.509,928.965z"/>
	<path fill="#FFFFFF" d="M1033.46,801.433c0-7.373,6.107-13.487,13.939-13.487c7.706,0,13.946,6.114,13.946,13.487   c0,7.299-6.24,13.273-13.946,13.273C1039.568,814.706,1033.46,808.732,1033.46,801.433"/>
	<path fill="none" stroke="#FFFFFF" stroke-width="0.061" stroke-miterlimit="3.864" d="M1033.46,801.433   c0-7.373,6.107-13.487,13.939-13.487c7.706,0,13.946,6.114,13.946,13.487c0,7.299-6.24,13.273-13.946,13.273   C1039.568,814.706,1033.46,808.732,1033.46,801.433z"/>
	<path fill="#FFFFFF" d="M1009.424,831.103c0-7.033,6.114-12.748,13.347-12.748c7.307,0,13.347,5.715,13.347,12.748   c0,7.04-6.04,12.814-13.347,12.814C1015.539,843.917,1009.424,838.143,1009.424,831.103"/>
	<path fill="none" stroke="#FFFFFF" stroke-width="0.061" stroke-miterlimit="3.864" d="M1009.424,831.103   c0-7.033,6.114-12.748,13.347-12.748c7.307,0,13.347,5.715,13.347,12.748c0,7.04-6.04,12.814-13.347,12.814   C1015.539,843.917,1009.424,838.143,1009.424,831.103z"/>
	<path fill="#FFFFFF" d="M1043.617,861.513c0-7.106,6.107-12.88,13.48-12.88c7.099,0,13.272,5.774,13.272,12.88   c0,7.033-6.174,12.673-13.272,12.673C1049.724,874.186,1043.617,868.545,1043.617,861.513"/>
	<path fill="none" stroke="#FFFFFF" stroke-width="0.061" stroke-miterlimit="3.864" d="M1043.617,861.513   c0-7.106,6.107-12.88,13.48-12.88c7.099,0,13.272,5.774,13.272,12.88c0,7.033-6.174,12.673-13.272,12.673   C1049.724,874.186,1043.617,868.545,1043.617,861.513z"/>
	<polyline fill="#FFFFFF" points="1011.949,863.896 1020.114,856.005 1028.478,863.896 1020.114,871.802 1011.949,863.896  "/>
	<polygon fill="none" stroke="#FFFFFF" stroke-width="0.061" stroke-miterlimit="3.864" points="1011.949,863.896 1020.114,856.005    1028.478,863.896 1020.114,871.802  "/>
	<polyline fill="#FFFFFF" points="1051.19,831.636 1060.013,823.204 1068.912,831.636 1060.013,840.201 1051.19,831.636  "/>
	<polygon fill="none" stroke="#FFFFFF" stroke-width="0.061" stroke-miterlimit="3.864" points="1051.19,831.636 1060.013,823.204    1068.912,831.636 1060.013,840.201  "/>
	<rect x="439.742" y="944.629" fill="#2F773C" width="189.87" height="52.381"/>
	
		<rect x="439.742" y="944.629" fill="none" stroke="#2F773C" stroke-width="0.061" stroke-miterlimit="3.864" width="189.936" height="52.381"/>
	<path fill="none" stroke="#2F773C" stroke-width="0.061" stroke-miterlimit="3.864" d="M439.742,944.629"/>
	<polyline fill="#2F773C" points="647.474,941.046 418.229,941.046 441.067,916.751 624.703,916.751 647.474,941.046  "/>
	<polygon fill="none" stroke="#2F773C" stroke-width="0.061" stroke-miterlimit="3.864" points="647.474,941.046 418.229,941.046    441.067,916.751 624.703,916.751  "/>
	<rect x="589.186" y="958.043" fill="#FFFFFF" width="20.246" height="19.454"/>
	
		<rect x="589.186" y="958.043" fill="none" stroke="#2F773C" stroke-width="0.061" stroke-miterlimit="3.864" width="20.246" height="19.454"/>
	<path fill="none" stroke="#2F773C" stroke-width="0.061" stroke-miterlimit="3.864" d="M589.186,958.043"/>
	<rect x="552.602" y="958.043" fill="#FFFFFF" width="20.313" height="19.454"/>
	
		<rect x="552.535" y="958.043" fill="none" stroke="#2F773C" stroke-width="0.061" stroke-miterlimit="3.864" width="20.379" height="19.454"/>
	<path fill="none" stroke="#2F773C" stroke-width="0.061" stroke-miterlimit="3.864" d="M552.535,958.043"/>
	<rect x="482.892" y="958.043" fill="#FFFFFF" width="20.187" height="19.454"/>
	
		<rect x="482.825" y="958.043" fill="none" stroke="#2F773C" stroke-width="0.061" stroke-miterlimit="3.864" width="20.187" height="19.454"/>
	<path fill="none" stroke="#2F773C" stroke-width="0.061" stroke-miterlimit="3.864" d="M482.825,958.043"/>
	<rect x="451.223" y="958.043" fill="#FFFFFF" width="20.253" height="19.454"/>
	
		<rect x="451.156" y="958.043" fill="none" stroke="#2F773C" stroke-width="0.061" stroke-miterlimit="3.864" width="20.32" height="19.454"/>
	<path fill="none" stroke="#2F773C" stroke-width="0.061" stroke-miterlimit="3.864" d="M451.156,958.043"/>
	<rect x="518.342" y="954.386" fill="#FFFFFF" width="21.646" height="36.517"/>
	
		<rect x="518.342" y="954.386" fill="none" stroke="#2F773C" stroke-width="0.061" stroke-miterlimit="3.864" width="21.579" height="36.517"/>
	<path fill="none" stroke="#2F773C" stroke-width="0.061" stroke-miterlimit="3.864" d="M518.342,954.386"/>
	<rect x="526.382" y="839.068" fill="#2F773C" width="170.882" height="47.007"/>
	
		<rect x="526.382" y="839.009" fill="none" stroke="#2F773C" stroke-width="0.055" stroke-miterlimit="3.864" width="170.882" height="46.999"/>
	<path fill="none" stroke="#2F773C" stroke-width="0.055" stroke-miterlimit="3.864" d="M526.382,839.009"/>
	<polyline fill="#2F773C" points="713.201,835.752 506.928,835.752 527.507,813.914 692.681,813.914 713.201,835.752  "/>
	<polygon fill="none" stroke="#2F773C" stroke-width="0.055" stroke-miterlimit="3.864" points="713.201,835.752 506.928,835.752    527.507,813.914 692.681,813.914  "/>
	<rect x="660.82" y="851.016" fill="#FFFFFF" width="18.188" height="17.47"/>
	
		<rect x="660.754" y="851.016" fill="none" stroke="#2F773C" stroke-width="0.055" stroke-miterlimit="3.864" width="18.188" height="17.47"/>
	<path fill="none" stroke="#2F773C" stroke-width="0.055" stroke-miterlimit="3.864" d="M660.754,851.016"/>
	<rect x="627.82" y="851.016" fill="#FFFFFF" width="18.262" height="17.47"/>
	
		<rect x="627.82" y="851.016" fill="none" stroke="#2F773C" stroke-width="0.055" stroke-miterlimit="3.864" width="18.262" height="17.47"/>
	<path fill="none" stroke="#2F773C" stroke-width="0.055" stroke-miterlimit="3.864" d="M627.82,851.016"/>
	<rect x="565.149" y="851.016" fill="#FFFFFF" width="18.188" height="17.47"/>
	
		<rect x="565.216" y="851.016" fill="none" stroke="#2F773C" stroke-width="0.055" stroke-miterlimit="3.864" width="18.122" height="17.47"/>
	<path fill="none" stroke="#2F773C" stroke-width="0.055" stroke-miterlimit="3.864" d="M565.216,851.016"/>
	<rect x="536.671" y="851.016" fill="#FFFFFF" width="18.188" height="17.47"/>
	
		<rect x="536.605" y="851.016" fill="none" stroke="#2F773C" stroke-width="0.055" stroke-miterlimit="3.864" width="18.254" height="17.47"/>
	<path fill="none" stroke="#2F773C" stroke-width="0.055" stroke-miterlimit="3.864" d="M536.605,851.016"/>
	<rect x="597.018" y="847.766" fill="#FFFFFF" width="19.387" height="32.86"/>
	
		<rect x="597.084" y="847.766" fill="none" stroke="#2F773C" stroke-width="0.055" stroke-miterlimit="3.864" width="19.321" height="32.86"/>
	<path fill="none" stroke="#2F773C" stroke-width="0.055" stroke-miterlimit="3.864" d="M597.084,847.766"/>
	<rect x="1480.327" y="944.629" fill="#2F773C" width="189.943" height="52.381"/>
	
		<rect x="1480.393" y="944.629" fill="none" stroke="#2F773C" stroke-width="0.061" stroke-miterlimit="3.864" width="189.877" height="52.381"/>
	<path fill="none" stroke="#2F773C" stroke-width="0.061" stroke-miterlimit="3.864" d="M1480.393,944.629"/>
	<polyline fill="#2F773C" points="1687.859,941.046 1458.881,941.046 1481.592,916.751 1665.088,916.751 1687.859,941.046  "/>
	<polygon fill="none" stroke="#2F773C" stroke-width="0.061" stroke-miterlimit="3.864" points="1687.859,941.046 1458.881,941.046    1481.592,916.751 1665.088,916.751  "/>
	<rect x="1629.571" y="958.043" fill="#FFFFFF" width="20.246" height="19.454"/>
	
		<rect x="1629.571" y="958.043" fill="none" stroke="#2F773C" stroke-width="0.061" stroke-miterlimit="3.864" width="20.246" height="19.454"/>
	<path fill="none" stroke="#2F773C" stroke-width="0.061" stroke-miterlimit="3.864" d="M1629.571,958.043"/>
	<rect x="1592.92" y="958.043" fill="#FFFFFF" width="20.319" height="19.454"/>
	
		<rect x="1592.861" y="958.043" fill="none" stroke="#2F773C" stroke-width="0.061" stroke-miterlimit="3.864" width="20.313" height="19.454"/>
	<path fill="none" stroke="#2F773C" stroke-width="0.061" stroke-miterlimit="3.864" d="M1592.861,958.043"/>
	<rect x="1523.417" y="958.043" fill="#FFFFFF" width="20.179" height="19.454"/>
	
		<rect x="1523.417" y="958.043" fill="none" stroke="#2F773C" stroke-width="0.061" stroke-miterlimit="3.864" width="20.179" height="19.454"/>
	<path fill="none" stroke="#2F773C" stroke-width="0.061" stroke-miterlimit="3.864" d="M1523.417,958.043"/>
	<rect x="1491.815" y="958.043" fill="#FFFFFF" width="20.246" height="19.454"/>
	
		<rect x="1491.815" y="958.043" fill="none" stroke="#2F773C" stroke-width="0.061" stroke-miterlimit="3.864" width="20.246" height="19.454"/>
	<path fill="none" stroke="#2F773C" stroke-width="0.061" stroke-miterlimit="3.864" d="M1491.815,958.043"/>
	<rect x="1558.935" y="954.386" fill="#FFFFFF" width="21.371" height="36.517"/>
	
		<rect x="1558.935" y="954.386" fill="none" stroke="#2F773C" stroke-width="0.061" stroke-miterlimit="3.864" width="21.371" height="36.517"/>
	<path fill="none" stroke="#2F773C" stroke-width="0.061" stroke-miterlimit="3.864" d="M1558.935,954.386"/>
	<rect x="1450.25" y="839.068" fill="#2F773C" width="170.956" height="47.007"/>
	
		<rect x="1450.316" y="839.009" fill="none" stroke="#2F773C" stroke-width="0.055" stroke-miterlimit="3.864" width="170.956" height="46.999"/>
	<path fill="none" stroke="#2F773C" stroke-width="0.055" stroke-miterlimit="3.864" d="M1450.316,839.009"/>
	<polyline fill="#2F773C" points="1637.269,835.752 1431.07,835.752 1451.515,813.914 1616.756,813.914 1637.269,835.752  "/>
	<polygon fill="none" stroke="#2F773C" stroke-width="0.055" stroke-miterlimit="3.864" points="1637.269,835.752 1431.07,835.752    1451.515,813.914 1616.756,813.914  "/>
	<rect x="1584.688" y="851.016" fill="#FFFFFF" width="18.329" height="17.47"/>
	
		<rect x="1584.688" y="851.016" fill="none" stroke="#2F773C" stroke-width="0.055" stroke-miterlimit="3.864" width="18.329" height="17.47"/>
	<path fill="none" stroke="#2F773C" stroke-width="0.055" stroke-miterlimit="3.864" d="M1584.688,851.016"/>
	<rect x="1551.895" y="851.016" fill="#FFFFFF" width="17.929" height="17.47"/>
	
		<rect x="1551.895" y="851.016" fill="none" stroke="#2F773C" stroke-width="0.055" stroke-miterlimit="3.864" width="17.929" height="17.47"/>
	<path fill="none" stroke="#2F773C" stroke-width="0.055" stroke-miterlimit="3.864" d="M1551.895,851.016"/>
	<rect x="1489.025" y="851.016" fill="#FFFFFF" width="18.321" height="17.47"/>
	
		<rect x="1489.091" y="851.016" fill="none" stroke="#2F773C" stroke-width="0.055" stroke-miterlimit="3.864" width="18.255" height="17.47"/>
	<path fill="none" stroke="#2F773C" stroke-width="0.055" stroke-miterlimit="3.864" d="M1489.091,851.016"/>
	<rect x="1460.613" y="851.016" fill="#FFFFFF" width="18.188" height="17.47"/>
	
		<rect x="1460.613" y="851.016" fill="none" stroke="#2F773C" stroke-width="0.055" stroke-miterlimit="3.864" width="18.188" height="17.47"/>
	<path fill="none" stroke="#2F773C" stroke-width="0.055" stroke-miterlimit="3.864" d="M1460.613,851.016"/>
	<rect x="1520.959" y="847.766" fill="#FFFFFF" width="19.388" height="32.86"/>
	
		<rect x="1521.026" y="847.766" fill="none" stroke="#2F773C" stroke-width="0.055" stroke-miterlimit="3.864" width="19.38" height="32.86"/>
	<path fill="none" stroke="#2F773C" stroke-width="0.055" stroke-miterlimit="3.864" d="M1521.026,847.766"/>
	<path fill="#FFFFFF" d="M557.917,1504.755c0-264.229,223.063-478.334,498.38-478.334c275.251,0,498.321,214.105,498.321,478.334   c0,264.169-223.07,478.341-498.321,478.341C780.98,1983.097,557.917,1768.925,557.917,1504.755"/>
	<path fill="none" stroke="#FFFFFF" stroke-width="0.061" stroke-miterlimit="3.864" d="M557.917,1504.755   c0-264.229,223.063-478.334,498.38-478.334c275.251,0,498.321,214.105,498.321,478.334c0,264.169-223.07,478.341-498.321,478.341   C780.98,1983.097,557.917,1768.925,557.917,1504.755z"/>
	<path fill="none" stroke="#FFFFFF" stroke-width="0.055" stroke-miterlimit="3.864" d="M606.441,1504.755   c0-238.401,201.425-431.661,449.923-431.661c248.365,0,449.79,193.26,449.79,431.661c0,238.408-201.425,431.735-449.79,431.735   C807.866,1936.49,606.441,1743.164,606.441,1504.755z"/>
	<path fill="#2F773C" d="M717.051,1787.771c0,0,126.533,149.511,336.656,149.511c219.021,0,335.472-143.396,335.472-143.396h-77.217   v6.1h-163.316v21.779H956.251v-22.971H804.417v-11.022H717.051"/>
	<path fill="none" stroke="#2F773C" stroke-width="0.061" stroke-miterlimit="3.864" d="M717.051,1787.771   c0,0,126.533,149.511,336.656,149.511c219.021,0,335.472-143.396,335.472-143.396h-77.217v6.1h-163.316v21.779H956.251v-22.971   H804.417v-11.022H717.051z"/>
	<polyline fill="#F58220" points="805.549,1700.339 950.011,1700.339 950.011,1682.21 1147.386,1682.21 1147.386,1695.357    1309.311,1695.357 1309.311,1798.794 1148.645,1798.794 1148.645,1819.381 955.052,1819.381 955.052,1798.794 804.417,1798.794    805.549,1700.339  "/>
	<polygon fill="none" stroke="#F58220" stroke-width="0.061" stroke-miterlimit="3.864" points="805.549,1700.339 950.011,1700.339    950.011,1682.21 1147.386,1682.21 1147.386,1695.357 1309.311,1695.357 1309.311,1798.794 1148.645,1798.794 1148.645,1819.381    955.052,1819.381 955.052,1798.794 804.417,1798.794  "/>
	<rect x="1271.403" y="1711.295" fill="#FFFFFF" width="17.854" height="53.439"/>
	
		<rect x="1271.403" y="1711.295" fill="none" stroke="#FFFFFF" stroke-width="0.061" stroke-miterlimit="3.864" width="17.854" height="53.439"/>
	<path fill="none" stroke="#FFFFFF" stroke-width="0.061" stroke-miterlimit="3.864" d="M1271.403,1711.295"/>
	<rect x="1219.481" y="1710.163" fill="#FFFFFF" width="17.796" height="53.38"/>
	
		<rect x="1219.547" y="1710.163" fill="none" stroke="#FFFFFF" stroke-width="0.061" stroke-miterlimit="3.864" width="17.796" height="53.38"/>
	<path fill="none" stroke="#FFFFFF" stroke-width="0.061" stroke-miterlimit="3.864" d="M1219.547,1710.163"/>
	<rect x="1167.632" y="1710.163" fill="#FFFFFF" width="17.863" height="53.38"/>
	
		<rect x="1167.566" y="1710.163" fill="none" stroke="#FFFFFF" stroke-width="0.061" stroke-miterlimit="3.864" width="17.862" height="53.38"/>
	<path fill="none" stroke="#FFFFFF" stroke-width="0.061" stroke-miterlimit="3.864" d="M1167.566,1710.163"/>
	<rect x="914.626" y="1710.163" fill="#FFFFFF" width="17.655" height="53.38"/>
	
		<rect x="914.626" y="1710.163" fill="none" stroke="#FFFFFF" stroke-width="0.061" stroke-miterlimit="3.864" width="17.655" height="53.38"/>
	<path fill="none" stroke="#FFFFFF" stroke-width="0.061" stroke-miterlimit="3.864" d="M914.626,1710.163"/>
	<rect x="870.278" y="1710.163" fill="#FFFFFF" width="17.788" height="53.38"/>
	
		<rect x="870.21" y="1710.163" fill="none" stroke="#FFFFFF" stroke-width="0.061" stroke-miterlimit="3.864" width="17.789" height="53.38"/>
	<path fill="none" stroke="#FFFFFF" stroke-width="0.061" stroke-miterlimit="3.864" d="M870.21,1710.163"/>
	<rect x="820.747" y="1710.163" fill="#FFFFFF" width="17.929" height="53.38"/>
	
		<rect x="820.747" y="1710.163" fill="none" stroke="#FFFFFF" stroke-width="0.061" stroke-miterlimit="3.864" width="17.929" height="53.38"/>
	<path fill="none" stroke="#FFFFFF" stroke-width="0.061" stroke-miterlimit="3.864" d="M820.747,1710.163"/>
	<rect x="989.245" y="1711.229" fill="#FFFFFF" width="26.554" height="83.916"/>
	
		<rect x="989.245" y="1711.295" fill="none" stroke="#FFFFFF" stroke-width="0.061" stroke-miterlimit="3.864" width="26.554" height="83.916"/>
	<path fill="none" stroke="#FFFFFF" stroke-width="0.061" stroke-miterlimit="3.864" d="M989.245,1711.295"/>
	<rect x="1043.683" y="1711.229" fill="#FFFFFF" width="26.687" height="83.916"/>
	
		<rect x="1043.617" y="1711.295" fill="none" stroke="#FFFFFF" stroke-width="0.061" stroke-miterlimit="3.864" width="26.687" height="83.916"/>
	<path fill="none" stroke="#FFFFFF" stroke-width="0.061" stroke-miterlimit="3.864" d="M1043.617,1711.295"/>
	<rect x="1101.905" y="1711.229" fill="#FFFFFF" width="26.428" height="83.916"/>
	
		<rect x="1101.905" y="1711.295" fill="none" stroke="#FFFFFF" stroke-width="0.061" stroke-miterlimit="3.864" width="26.494" height="83.916"/>
	<path fill="none" stroke="#FFFFFF" stroke-width="0.061" stroke-miterlimit="3.864" d="M1101.905,1711.295"/>
	<polyline fill-rule="evenodd" clip-rule="evenodd" fill="#2F773C" points="782.705,1699.207 948.745,1699.207 948.745,1680.893    1146.054,1680.893 1146.054,1693.107 1329.757,1693.107 1289.191,1654.266 1127.133,1654.266 1127.133,1633.42 1160.134,1633.42    1058.822,1550.896 947.353,1623.863 987.919,1623.863 987.919,1654.266 827.121,1655.398 782.705,1699.207  "/>
	<polygon fill="none" stroke="#2F773C" stroke-width="0.061" stroke-miterlimit="3.864" points="782.705,1699.207 948.745,1699.207    948.745,1680.893 1146.054,1680.893 1146.054,1693.107 1329.757,1693.107 1289.191,1654.266 1127.133,1654.266 1127.133,1633.42    1160.134,1633.42 1058.822,1550.896 947.353,1623.863 987.919,1623.863 987.919,1654.266 827.121,1655.398  "/>
	<rect x="1234.752" y="1643.184" fill="#F58220" width="24.036" height="26.753"/>
	
		<rect x="1234.752" y="1643.184" fill="none" stroke="#F58220" stroke-width="0.061" stroke-miterlimit="3.864" width="24.036" height="26.753"/>
	<path fill="none" stroke="#F58220" stroke-width="0.061" stroke-miterlimit="3.864" d="M1234.752,1643.243"/>
	<rect x="1180.314" y="1643.184" fill="#F58220" width="24.103" height="26.753"/>
	
		<rect x="1180.314" y="1643.184" fill="none" stroke="#F58220" stroke-width="0.061" stroke-miterlimit="3.864" width="24.103" height="26.753"/>
	<path fill="none" stroke="#F58220" stroke-width="0.061" stroke-miterlimit="3.864" d="M1180.314,1643.243"/>
	<rect x="906.92" y="1643.184" fill="#F58220" width="24.103" height="26.753"/>
	
		<rect x="906.92" y="1643.184" fill="none" stroke="#F58220" stroke-width="0.061" stroke-miterlimit="3.864" width="24.103" height="26.753"/>
	<path fill="none" stroke="#F58220" stroke-width="0.061" stroke-miterlimit="3.864" d="M906.92,1643.243"/>
	<rect x="852.482" y="1643.184" fill="#F58220" width="24.103" height="26.753"/>
	
		<rect x="852.482" y="1643.184" fill="none" stroke="#F58220" stroke-width="0.061" stroke-miterlimit="3.864" width="24.103" height="26.753"/>
	<path fill="none" stroke="#F58220" stroke-width="0.061" stroke-miterlimit="3.864" d="M852.482,1643.243"/>
	
		<rect x="1018.389" y="1614.099" fill="none" stroke="#F58220" stroke-width="0.093" stroke-miterlimit="3.864" width="82.258" height="47.34"/>
	<path fill="none" stroke="#F58220" stroke-width="0.093" stroke-miterlimit="3.864" d="M1018.389,1614.099"/>
	
		<line fill="none" stroke="#F58220" stroke-width="0.093" stroke-miterlimit="3.864" x1="1080.333" y1="1615.291" x2="1080.333" y2="1662.764"/>
	
		<line fill="none" stroke="#F58220" stroke-width="0.093" stroke-miterlimit="3.864" x1="1059.947" y1="1612.907" x2="1059.947" y2="1660.306"/>
	
		<line fill="none" stroke="#F58220" stroke-width="0.093" stroke-miterlimit="3.864" x1="1037.11" y1="1612.907" x2="1037.11" y2="1660.306"/>
	
		<line fill="none" stroke="#F58220" stroke-width="0.093" stroke-miterlimit="3.864" x1="1016.93" y1="1634.745" x2="1100.58" y2="1634.745"/>
	<path fill-rule="evenodd" clip-rule="evenodd" fill="#2F773C" d="M1317.077,1153.62c0,0-1.392,38.842-8.965,41.299   c-7.565,2.524-32.86-2.458-36.709,2.524c-3.724,4.782,3.849,38.767-2.458,43.683c-6.374,4.849-34.192-2.458-38.108,4.849   c-3.783,7.232,5.248,49.724-1.259,54.631c-6.174,4.982-23.97-3.583-30.276,2.532c-6.308,6.041-12.548,41.218-11.423,50.982   c1.267,9.69-2.517,52.248,7.707,54.771c10.022,2.258,25.228-14.738,29.011-8.698c3.849,6.174-10.09,82.65-1.192,88.698   c8.824,6.107,22.771,4.908,22.771,10.949c0,6.115-11.422,24.303-2.657,26.76c8.897,2.524,17.788-4.849,21.646,1.259   c3.782,6.048,0,64.395,8.757,64.395c8.831,0,15.271-16.996,24.103-9.823c8.832,7.24,6.241,37.775,19.055,36.451   c12.681-1.133,25.295-32.801,29.145-25.495c3.716,7.365,9.956,29.277,13.938,42.491c3.916,13.406,22.645,40.233,27.753,63.27   c4.648,21.438,6.307,37.576,1.199,52.248c-4.982,14.472-17.663,41.292-17.663,41.292h18.988c0,0,128.73-116.843,113.793-328.024   C1490.483,1266.613,1317.077,1153.62,1317.077,1153.62"/>
	<path fill="none" stroke="#2F773C" stroke-width="0.093" stroke-miterlimit="3.864" d="M1317.077,1153.62   c0,0-1.392,38.842-8.965,41.299c-7.565,2.524-32.86-2.458-36.709,2.524c-3.724,4.782,3.849,38.767-2.458,43.683   c-6.374,4.849-34.192-2.458-38.108,4.849c-3.783,7.232,5.248,49.724-1.259,54.631c-6.174,4.982-23.97-3.583-30.276,2.532   c-6.308,6.041-12.548,41.218-11.423,50.982c1.267,9.69-2.517,52.248,7.707,54.771c10.022,2.258,25.228-14.738,29.011-8.698   c3.849,6.174-10.09,82.65-1.192,88.698c8.824,6.107,22.771,4.908,22.771,10.949c0,6.115-11.422,24.303-2.657,26.76   c8.897,2.524,17.788-4.849,21.646,1.259c3.782,6.048,0,64.395,8.757,64.395c8.831,0,15.271-16.996,24.103-9.823   c8.832,7.24,6.241,37.775,19.055,36.451c12.681-1.133,25.295-32.801,29.145-25.495c3.716,7.365,9.956,29.277,13.938,42.491   c3.916,13.406,22.645,40.233,27.753,63.27c4.648,21.438,6.307,37.576,1.199,52.248c-4.982,14.472-17.663,41.292-17.663,41.292   h18.988c0,0,128.73-116.843,113.793-328.024C1490.483,1266.613,1317.077,1153.62,1317.077,1153.62z"/>
	<path fill-rule="evenodd" clip-rule="evenodd" fill="#FFFFFF" d="M1430.87,1741.639v-114.259c0,0,1.392,8.565,10.29,17.063   c8.765,8.424,26.553,26.687,26.553,26.687l12.681-27.945c0,0-12.681,2.517-13.872-8.439c-1.399-10.956,0-36.376-6.574-37.643   c-6.174-1.192-18.787-3.716-18.787-3.716s-2.592-12.081,1.191-21.771c3.916-9.764,31.535-70.51,31.535-70.51   s2.657-19.454-4.842-17.063c-7.706,2.391-44.415,69.244-45.748,63.204c-1.258-6.107,2.591-29.144,8.965-41.292   c6.307-12.155,16.33-15.805,17.663-26.753c1.324-10.956,1.324-91.089,1.324-91.089s-10.089-8.498-14.005-1.266   c-3.724,7.24-4.982,34.06-8.898,40.167c-3.716,6.115-5.049,24.295-8.897,29.152l-7.499,9.756l1.258-145.861l-15.138-6.107   c-5.108,3.724-17.789,0-17.789,30.344c0,30.469,7.633,46.266,7.633,53.439c0,7.439,7.572,88.698,0,88.698   c-7.633,0-8.832-18.188-8.832-18.188s-3.782-19.388-7.698-29.152c-3.783-9.623-4.982-52.248-12.614-50.981   c-7.433,1.132-26.486-3.59-22.57,7.232c3.583,10.956,7.432,18.255,12.414,31.668c5.107,13.28,12.747,29.152,11.481,35.118   c-1.325,6.115,5.115,23.111-2.584,19.521c-7.506-3.583-22.645-13.406-31.468-29.077c-8.898-15.938-20.454-65.728-29.277-59.613   c-8.831,6.041-1.267,79,15.197,89.882c16.464,10.956,36.65,20.72,41.758,36.392c5.049,15.93,19.121,40.226,17.663,52.381   c-1.125,12.081,1.458,37.501,1.458,37.501l-3.916,12.214l10.156,35.258c0,0,10.031-40.1,18.988-29.21   c8.765,10.948,11.289,17.063,11.289,17.063v125.208L1430.87,1741.639"/>
	<path fill="none" stroke="#FFFFFF" stroke-width="0.061" stroke-miterlimit="3.864" d="M1430.87,1741.639v-114.259   c0,0,1.392,8.565,10.29,17.063c8.765,8.424,26.553,26.687,26.553,26.687l12.681-27.945c0,0-12.681,2.517-13.872-8.439   c-1.399-10.956,0-36.376-6.574-37.643c-6.174-1.192-18.787-3.716-18.787-3.716s-2.592-12.081,1.191-21.771   c3.916-9.764,31.535-70.51,31.535-70.51s2.657-19.454-4.842-17.063c-7.706,2.391-44.415,69.244-45.748,63.204   c-1.258-6.107,2.591-29.144,8.965-41.292c6.307-12.155,16.33-15.805,17.663-26.753c1.324-10.956,1.324-91.089,1.324-91.089   s-10.089-8.498-14.005-1.266c-3.724,7.24-4.982,34.06-8.898,40.167c-3.716,6.115-5.049,24.295-8.897,29.152l-7.499,9.756   l1.258-145.861l-15.138-6.107c-5.108,3.724-17.789,0-17.789,30.344c0,30.469,7.633,46.266,7.633,53.439   c0,7.439,7.572,88.698,0,88.698c-7.633,0-8.832-18.188-8.832-18.188s-3.782-19.388-7.698-29.152   c-3.783-9.623-4.982-52.248-12.614-50.981c-7.433,1.132-26.486-3.59-22.57,7.232c3.583,10.956,7.432,18.255,12.414,31.668   c5.107,13.28,12.747,29.152,11.481,35.118c-1.325,6.115,5.115,23.111-2.584,19.521c-7.506-3.583-22.645-13.406-31.468-29.077   c-8.898-15.938-20.454-65.728-29.277-59.613c-8.831,6.041-1.267,79,15.197,89.882c16.464,10.956,36.65,20.72,41.758,36.392   c5.049,15.93,19.121,40.226,17.663,52.381c-1.125,12.081,1.458,37.501,1.458,37.501l-3.916,12.214l10.156,35.258   c0,0,10.031-40.1,18.988-29.21c8.765,10.948,11.289,17.063,11.289,17.063v125.208L1430.87,1741.639z"/>
	<path fill-rule="evenodd" clip-rule="evenodd" fill="#2F773C" d="M785.362,1153.62c0,0,1.266,38.842,8.965,41.299   c7.565,2.524,32.794-2.458,36.643,2.524c3.924,4.782-3.849,38.767,2.591,43.683c6.308,4.849,34.193-2.458,37.843,4.849   c3.849,7.232-4.908,49.724,1.332,54.631c6.374,4.982,24.096-3.583,30.402,2.532c6.374,6.041,12.548,41.218,11.489,50.982   c-1.466,9.69,2.45,52.248-7.706,54.771c-10.09,2.258-25.361-14.738-29.145-8.698c-3.782,6.174,10.156,82.65,1.333,88.698   c-8.965,6.107-22.845,4.908-22.845,10.949c0,6.115,11.489,24.303,2.524,26.76c-8.898,2.524-17.655-4.849-21.512,1.259   c-3.717,6.048,0,64.395-8.891,64.395c-8.898,0-15.139-16.996-23.97-9.823c-8.965,7.24-6.308,37.775-19.055,36.451   c-12.547-1.133-25.161-32.801-29.144-25.495c-3.649,7.365-9.957,29.277-13.939,42.491c-3.59,13.406-22.637,40.233-27.752,63.27   c-4.582,21.438-6.307,37.576-1.325,52.248c5.042,14.472,17.722,41.292,17.722,41.292h-18.854c0,0-128.798-116.843-114.119-328.024   C611.956,1266.613,785.362,1153.62,785.362,1153.62"/>
	<path fill="none" stroke="#2F773C" stroke-width="0.093" stroke-miterlimit="3.864" d="M785.362,1153.62   c0,0,1.266,38.842,8.965,41.299c7.565,2.524,32.794-2.458,36.643,2.524c3.924,4.782-3.849,38.767,2.591,43.683   c6.308,4.849,34.193-2.458,37.843,4.849c3.849,7.232-4.908,49.724,1.332,54.631c6.374,4.982,24.096-3.583,30.402,2.532   c6.374,6.041,12.548,41.218,11.489,50.982c-1.466,9.69,2.45,52.248-7.706,54.771c-10.09,2.258-25.361-14.738-29.145-8.698   c-3.782,6.174,10.156,82.65,1.333,88.698c-8.965,6.107-22.845,4.908-22.845,10.949c0,6.115,11.489,24.303,2.524,26.76   c-8.898,2.524-17.655-4.849-21.512,1.259c-3.717,6.048,0,64.395-8.891,64.395c-8.898,0-15.139-16.996-23.97-9.823   c-8.965,7.24-6.308,37.775-19.055,36.451c-12.547-1.133-25.161-32.801-29.144-25.495c-3.649,7.365-9.957,29.277-13.939,42.491   c-3.59,13.406-22.637,40.233-27.752,63.27c-4.582,21.438-6.307,37.576-1.325,52.248c5.042,14.472,17.722,41.292,17.722,41.292   h-18.854c0,0-128.798-116.843-114.119-328.024C611.956,1266.613,785.362,1153.62,785.362,1153.62z"/>
	<path fill-rule="evenodd" clip-rule="evenodd" fill="#FFFFFF" d="M671.436,1741.639v-114.259c0,0-1.259,8.565-10.157,17.063   c-8.89,8.424-26.553,26.687-26.553,26.687l-12.681-27.945c0,0,12.681,2.517,14.073-8.439c1.132-10.956,0-36.376,6.24-37.643   c6.24-1.192,18.921-3.716,18.921-3.716s2.658-12.081-1.125-21.771c-3.783-9.764-31.735-70.51-31.735-70.51   s-2.524-19.454,5.115-17.063c7.565,2.391,44.275,69.244,45.674,63.204c1.192-6.107-2.657-29.144-9.031-41.292   c-6.24-12.155-16.463-15.805-17.788-26.753c-1.199-10.956-1.199-91.089-1.199-91.089s10.089-8.498,13.939-1.266   c3.923,7.24,5.048,34.06,8.898,40.167c3.783,6.115,5.182,24.295,8.831,29.152l7.499,9.756l-1.125-145.861l15.138-6.107   c5.174,3.724,17.789,0,17.789,30.344c0,30.469-7.632,46.266-7.632,53.439c0,7.439-7.565,88.698,0,88.698   c7.632,0,8.898-18.188,8.898-18.188s3.783-19.388,7.499-29.152c3.85-9.623,5.049-52.248,12.747-50.981   c7.632,1.132,26.486-3.59,22.771,7.232c-3.916,10.956-7.632,18.255-12.747,31.668c-5.041,13.28-12.614,29.152-11.415,35.118   c1.392,6.115-4.982,23.111,2.584,19.521c7.706-3.583,22.777-13.406,31.668-29.077c8.831-15.938,20.187-65.728,29.019-59.613   c8.891,6.041,1.392,79-15.139,89.882c-16.53,10.956-36.717,20.72-41.758,36.392c-4.982,15.93-18.922,40.226-17.729,52.381   c1.458,12.081-1.192,37.501-1.192,37.501l3.717,12.214l-10.023,35.258c0,0-10.223-40.1-19.054-29.21   c-8.832,10.948-11.355,17.063-11.355,17.063v125.208L671.436,1741.639"/>
	<path fill="none" stroke="#FFFFFF" stroke-width="0.061" stroke-miterlimit="3.864" d="M671.436,1741.639v-114.259   c0,0-1.259,8.565-10.157,17.063c-8.89,8.424-26.553,26.687-26.553,26.687l-12.681-27.945c0,0,12.681,2.517,14.073-8.439   c1.132-10.956,0-36.376,6.24-37.643c6.24-1.192,18.921-3.716,18.921-3.716s2.658-12.081-1.125-21.771   c-3.783-9.764-31.735-70.51-31.735-70.51s-2.524-19.454,5.115-17.063c7.565,2.391,44.275,69.244,45.674,63.204   c1.192-6.107-2.657-29.144-9.031-41.292c-6.24-12.155-16.463-15.805-17.788-26.753c-1.199-10.956-1.199-91.089-1.199-91.089   s10.089-8.498,13.939-1.266c3.923,7.24,5.048,34.06,8.898,40.167c3.783,6.115,5.182,24.295,8.831,29.152l7.499,9.756   l-1.125-145.861l15.138-6.107c5.174,3.724,17.789,0,17.789,30.344c0,30.469-7.632,46.266-7.632,53.439   c0,7.439-7.565,88.698,0,88.698c7.632,0,8.898-18.188,8.898-18.188s3.783-19.388,7.499-29.152   c3.85-9.623,5.049-52.248,12.747-50.981c7.632,1.132,26.486-3.59,22.771,7.232c-3.916,10.956-7.632,18.255-12.747,31.668   c-5.041,13.28-12.614,29.152-11.415,35.118c1.392,6.115-4.982,23.111,2.584,19.521c7.706-3.583,22.777-13.406,31.668-29.077   c8.831-15.938,20.187-65.728,29.019-59.613c8.891,6.041,1.392,79-15.139,89.882c-16.53,10.956-36.717,20.72-41.758,36.392   c-4.982,15.93-18.922,40.226-17.729,52.381c1.458,12.081-1.192,37.501-1.192,37.501l3.717,12.214l-10.023,35.258   c0,0-10.223-40.1-19.054-29.21c-8.832,10.948-11.355,17.063-11.355,17.063v125.208L671.436,1741.639z"/>
	<polygon fill="none" stroke="#030404" stroke-width="0.069" stroke-miterlimit="3.864" points="1448.591,835.418 1448.591,886.408    1623.397,886.408 1623.397,836.551 1638.535,836.551 1614.499,813.573 1451.182,813.573 1428.345,835.418  "/>
	<polygon fill="none" stroke="#030404" stroke-width="0.069" stroke-miterlimit="3.864" points="1476.543,997.01 1671.395,997.01    1671.395,941.046 1689.125,941.046 1663.83,916.677 1482.784,916.677 1458.881,939.921 1477.802,939.921  "/>
	<polygon fill="none" stroke="#030404" stroke-width="0.069" stroke-miterlimit="3.864" points="1448.591,835.418 1448.591,886.408    1623.397,886.408 1623.397,836.551 1638.535,836.551 1614.499,813.573 1451.182,813.573 1428.345,835.418  "/>
	<polygon fill="none" stroke="#030404" stroke-width="0.069" stroke-miterlimit="3.864" points="1476.543,997.01 1671.395,997.01    1671.395,941.046 1689.125,941.046 1663.83,916.677 1482.784,916.677 1458.881,939.921 1477.802,939.921  "/>
	<polygon fill="none" stroke="#030404" stroke-width="0.069" stroke-miterlimit="3.864" points="526.049,835.418 526.049,886.408    700.654,886.408 700.654,836.551 715.852,836.551 691.823,813.573 528.573,813.573 505.729,835.418  "/>
	<polygon fill="none" stroke="#030404" stroke-width="0.069" stroke-miterlimit="3.864" points="435.959,997.01 631.01,997.01    631.01,941.046 648.666,941.046 623.438,916.677 442.466,916.677 418.296,939.921 437.351,939.921  "/>
	<path fill="#2F773C" d="M756.285,1024.896c0,0-1.125-16.997,0-23.104c1.259-6.107-4.982-20.712-4.982-20.712   s-18.987,1.392-21.571-8.439c-2.524-9.683,2.584-20.638-2.524-26.679c-5.048-6.041-17.796-20.713-12.747-28.019   c5.182-7.24,12.747-15.805,13.939-21.845c1.332-6.107,16.53-21.971,26.761-20.646c9.89,1.266,20.246,7.306,27.611,8.564   c7.772,1.125,22.845,1.125,22.845,1.125l11.348,9.764l3.783,13.347c5.115,4.908,12.813,18.255,10.164,26.679   c-2.524,8.499-13.947,9.698-16.404,17.071c-2.458,7.232,7.506,19.454-5.041,20.638c-12.681,1.266-24.037-3.642-24.037,1.266   c0,4.782,0,12.222-6.373,13.28c-6.174,1.258-12.548,4.908-12.548,4.908l10.09,23.037l-7.632,7.306L756.285,1024.896"/>
	<path fill="none" stroke="#2F773C" stroke-width="0.061" stroke-miterlimit="3.864" d="M756.285,1024.896   c0,0-1.125-16.997,0-23.104c1.259-6.107-4.982-20.712-4.982-20.712s-18.987,1.392-21.571-8.439   c-2.524-9.683,2.584-20.638-2.524-26.679c-5.048-6.041-17.796-20.713-12.747-28.019c5.182-7.24,12.747-15.805,13.939-21.845   c1.332-6.107,16.53-21.971,26.761-20.646c9.89,1.266,20.246,7.306,27.611,8.564c7.772,1.125,22.845,1.125,22.845,1.125   l11.348,9.764l3.783,13.347c5.115,4.908,12.813,18.255,10.164,26.679c-2.524,8.499-13.947,9.698-16.404,17.071   c-2.458,7.232,7.506,19.454-5.041,20.638c-12.681,1.266-24.037-3.642-24.037,1.266c0,4.782,0,12.222-6.373,13.28   c-6.174,1.258-12.548,4.908-12.548,4.908l10.09,23.037l-7.632,7.306L756.285,1024.896z"/>
	<path fill="#F58220" d="M751.302,901.013c0-7.432,6.174-13.414,13.747-13.414c7.832,0,14.006,5.981,14.006,13.414   c0,7.299-6.174,13.28-14.006,13.28C757.476,914.293,751.302,908.312,751.302,901.013"/>
	<path fill="none" stroke="#F58220" stroke-width="0.061" stroke-miterlimit="3.864" d="M751.302,901.013   c0-7.432,6.174-13.414,13.747-13.414c7.832,0,14.006,5.981,14.006,13.414c0,7.299-6.174,13.28-14.006,13.28   C757.476,914.293,751.302,908.312,751.302,901.013z"/>
	<path fill="#F58220" d="M727.207,930.683c0-7.032,6.041-12.807,13.213-12.807c7.366,0,13.34,5.774,13.34,12.807   c0,7.106-5.974,12.748-13.34,12.748C733.248,943.43,727.207,937.789,727.207,930.683"/>
	<path fill="none" stroke="#F58220" stroke-width="0.061" stroke-miterlimit="3.864" d="M727.207,930.683   c0-7.032,6.041-12.807,13.213-12.807c7.366,0,13.34,5.774,13.34,12.807c0,7.106-5.974,12.748-13.34,12.748   C733.248,943.43,727.207,937.789,727.207,930.683z"/>
	<path fill="#F58220" d="M761.4,961.159c0-7.04,5.907-12.74,13.206-12.74c7.373,0,13.347,5.7,13.347,12.74   c0,7.04-5.974,12.814-13.347,12.814C767.307,973.973,761.4,968.199,761.4,961.159"/>
	<path fill="none" stroke="#F58220" stroke-width="0.061" stroke-miterlimit="3.864" d="M761.4,961.159   c0-7.04,5.907-12.74,13.206-12.74c7.373,0,13.347,5.7,13.347,12.74c0,7.04-5.974,12.814-13.347,12.814   C767.307,973.973,761.4,968.199,761.4,961.159z"/>
	<polyline fill="#F58220" points="729.731,963.55 738.096,955.652 746.261,963.55 738.096,971.457 729.731,963.55  "/>
	<polygon fill="none" stroke="#F58220" stroke-width="0.061" stroke-miterlimit="3.864" points="729.731,963.55 738.096,955.652    746.261,963.55 738.096,971.457  "/>
	<polyline fill="#F58220" points="768.965,931.349 777.863,922.851 786.695,931.349 777.863,939.921 768.965,931.349  "/>
	<polygon fill="none" stroke="#F58220" stroke-width="0.061" stroke-miterlimit="3.864" points="768.965,931.349 777.863,922.851    786.695,931.349 777.863,939.921  "/>
	<path fill="#2F773C" d="M899.289,967.799c0,0-1.192-16.996,0-23.104c1.392-6.107-4.982-20.579-4.982-20.579   s-18.987,1.258-21.571-8.565c-2.524-9.697,2.584-20.579-2.524-26.694c-5.048-6.1-17.729-20.712-12.613-27.945   c5.041-7.306,12.613-15.805,13.872-21.845c1.266-6.233,16.597-21.971,26.627-20.646c10.156,1.192,20.313,7.24,27.945,8.431   c7.439,1.199,22.771,1.199,22.771,1.199l11.289,9.823l3.849,13.273c4.982,4.856,12.548,18.262,10.09,26.827   c-2.583,8.432-13.938,9.624-16.53,16.997c-2.391,7.166,7.573,19.321-4.907,20.579c-12.681,1.125-24.17-3.583-24.17,1.125   c0,4.982,0,12.215-6.24,13.48c-6.44,1.266-12.614,4.774-12.614,4.774l10.156,23.111l-7.632,7.365L899.289,967.799"/>
	<path fill="none" stroke="#2F773C" stroke-width="0.061" stroke-miterlimit="3.864" d="M899.289,967.799c0,0-1.192-16.996,0-23.104   c1.392-6.107-4.982-20.579-4.982-20.579s-18.987,1.258-21.571-8.565c-2.524-9.697,2.584-20.579-2.524-26.694   c-5.048-6.1-17.729-20.712-12.613-27.945c5.041-7.306,12.613-15.805,13.872-21.845c1.266-6.233,16.597-21.971,26.627-20.646   c10.156,1.192,20.313,7.24,27.945,8.431c7.439,1.199,22.771,1.199,22.771,1.199l11.289,9.823l3.849,13.273   c4.982,4.856,12.548,18.262,10.09,26.827c-2.583,8.432-13.938,9.624-16.53,16.997c-2.391,7.166,7.573,19.321-4.907,20.579   c-12.681,1.125-24.17-3.583-24.17,1.125c0,4.982,0,12.215-6.24,13.48c-6.44,1.266-12.614,4.774-12.614,4.774l10.156,23.111   l-7.632,7.365L899.289,967.799z"/>
	<path fill="#F58220" d="M894.306,843.917c0-7.44,6.307-13.48,13.946-13.48c7.633,0,13.939,6.041,13.939,13.48   c0,7.365-6.307,13.272-13.939,13.272C900.613,857.189,894.306,851.282,894.306,843.917"/>
	<path fill="none" stroke="#F58220" stroke-width="0.061" stroke-miterlimit="3.864" d="M894.306,843.917   c0-7.44,6.307-13.48,13.946-13.48c7.633,0,13.939,6.041,13.939,13.48c0,7.365-6.307,13.272-13.939,13.272   C900.613,857.189,894.306,851.282,894.306,843.917z"/>
	<path fill="#F58220" d="M870.21,873.661c0-7.04,5.975-12.748,13.273-12.748c7.306,0,13.413,5.708,13.413,12.748   c0,7.04-6.107,12.814-13.413,12.814C876.185,886.475,870.21,880.7,870.21,873.661"/>
	<path fill="none" stroke="#F58220" stroke-width="0.061" stroke-miterlimit="3.864" d="M870.21,873.661   c0-7.04,5.975-12.748,13.273-12.748c7.306,0,13.413,5.708,13.413,12.748c0,7.04-6.107,12.814-13.413,12.814   C876.185,886.475,870.21,880.7,870.21,873.661z"/>
	<path fill="#F58220" d="M904.336,904.004c0-7.04,6.041-12.821,13.406-12.821c7.307,0,13.347,5.781,13.347,12.821   c0,7.099-6.04,12.747-13.347,12.747C910.377,916.751,904.336,911.103,904.336,904.004"/>
	<path fill="none" stroke="#F58220" stroke-width="0.061" stroke-miterlimit="3.864" d="M904.336,904.004   c0-7.04,6.041-12.821,13.406-12.821c7.307,0,13.347,5.781,13.347,12.821c0,7.099-6.04,12.747-13.347,12.747   C910.377,916.751,904.336,911.103,904.336,904.004z"/>
	<polyline fill="#F58220" points="872.735,906.387 880.966,898.556 889.332,906.387 880.966,914.219 872.735,906.387  "/>
	<polygon fill="none" stroke="#F58220" stroke-width="0.061" stroke-miterlimit="3.864" points="872.735,906.387 880.966,898.556    889.332,906.387 880.966,914.219  "/>
	<polyline fill="#F58220" points="912.036,874.127 920.867,865.628 929.757,874.127 920.867,882.684 912.036,874.127  "/>
	<polygon fill="none" stroke="#F58220" stroke-width="0.061" stroke-miterlimit="3.864" points="912.036,874.127 920.867,865.628    929.757,874.127 920.867,882.684  "/>
	<path fill-rule="evenodd" clip-rule="evenodd" fill="#2F773C" d="M1045.008,927.7l2.392-23.037l7.572-11.082l-3.782-12.089   l-23.903,2.524l-10.356-11.022c-5.048-1.125-18.787-13.347-21.512-19.387c-2.391-6.1,10.156-28.012,10.156-32.793v-15.797   l15.205-7.307l10.156-10.889c0,0-2.524-15.93,5.115-18.321c7.565-2.391,21.571,0,29.077-1.133   c7.633-1.258,11.415-9.756,20.313-6.041c8.765,3.657,20.12,15.671,20.12,15.671s11.415,8.565,19.121,14.605   c7.499,6.107,9.956,23.104,7.499,28.012c-2.458,4.782,3.982,27.893,0,33.993c-3.85,6.041-17.796,14.539-17.796,14.539   s2.591,9.764-3.717,13.347c-6.307,3.724-22.703,1.266-22.703,1.266s-7.565,12.147-8.698,18.188   c-1.392,6.107,1.133,25.562,1.133,25.562s-7.64-1.133-16.53,0C1054.972,927.7,1045.008,927.7,1045.008,927.7"/>
	<path fill="none" stroke="#2F773C" stroke-width="0.061" stroke-miterlimit="3.864" d="M1045.008,927.7l2.392-23.037l7.572-11.082   l-3.782-12.089l-23.903,2.524l-10.356-11.022c-5.048-1.125-18.787-13.347-21.512-19.387c-2.391-6.1,10.156-28.012,10.156-32.793   v-15.797l15.205-7.307l10.156-10.889c0,0-2.524-15.93,5.115-18.321c7.565-2.391,21.571,0,29.077-1.133   c7.633-1.258,11.415-9.756,20.313-6.041c8.765,3.657,20.12,15.671,20.12,15.671s11.415,8.565,19.121,14.605   c7.499,6.107,9.956,23.104,7.499,28.012c-2.458,4.782,3.982,27.893,0,33.993c-3.85,6.041-17.796,14.539-17.796,14.539   s2.591,9.764-3.717,13.347c-6.307,3.724-22.703,1.266-22.703,1.266s-7.565,12.147-8.698,18.188   c-1.392,6.107,1.133,25.562,1.133,25.562s-7.64-1.133-16.53,0C1054.972,927.7,1045.008,927.7,1045.008,927.7z"/>
	<path fill="#F58220" d="M1039.767,800.167c0-7.366,6.241-13.347,13.939-13.347c7.772,0,14.014,5.981,14.014,13.347   s-6.241,13.347-14.014,13.347C1046.008,813.514,1039.767,807.533,1039.767,800.167"/>
	<path fill="none" stroke="#F58220" stroke-width="0.061" stroke-miterlimit="3.864" d="M1039.767,800.167   c0-7.366,6.241-13.347,13.939-13.347c7.772,0,14.014,5.981,14.014,13.347s-6.241,13.347-14.014,13.347   C1046.008,813.514,1039.767,807.533,1039.767,800.167z"/>
	<path fill="#F58220" d="M1015.798,829.844c0-7.04,5.98-12.747,13.213-12.747c7.373,0,13.348,5.708,13.348,12.747   c0,7.107-5.975,12.807-13.348,12.807C1021.779,842.651,1015.798,836.951,1015.798,829.844"/>
	<path fill="none" stroke="#F58220" stroke-width="0.061" stroke-miterlimit="3.864" d="M1015.798,829.844   c0-7.04,5.98-12.747,13.213-12.747c7.373,0,13.348,5.708,13.348,12.747c0,7.107-5.975,12.807-13.348,12.807   C1021.779,842.651,1015.798,836.951,1015.798,829.844z"/>
	<path fill="#F58220" d="M1049.924,860.313c0-7.106,6.106-12.807,13.347-12.807c7.166,0,13.272,5.7,13.272,12.807   c0,7.04-6.106,12.681-13.272,12.681C1056.031,872.994,1049.924,867.354,1049.924,860.313"/>
	<path fill="none" stroke="#F58220" stroke-width="0.061" stroke-miterlimit="3.864" d="M1049.924,860.313   c0-7.106,6.106-12.807,13.347-12.807c7.166,0,13.272,5.7,13.272,12.807c0,7.04-6.106,12.681-13.272,12.681   C1056.031,872.994,1049.924,867.354,1049.924,860.313z"/>
	<polyline fill="#F58220" points="1018.389,862.638 1026.554,854.806 1034.786,862.638 1026.554,870.47 1018.389,862.638  "/>
	<polygon fill="none" stroke="#F58220" stroke-width="0.061" stroke-miterlimit="3.864" points="1018.389,862.638 1026.554,854.806    1034.786,862.638 1026.554,870.47  "/>
	<polyline fill="#F58220" points="1057.623,830.437 1066.587,822.013 1075.352,830.437 1066.587,839.009 1057.623,830.437  "/>
	<polygon fill="none" stroke="#F58220" stroke-width="0.061" stroke-miterlimit="3.864" points="1057.623,830.437 1066.587,822.013    1075.352,830.437 1066.587,839.009  "/>
	<path fill="#2F773C" d="M1204.417,971.457c0,0-1.266-17.071,0-23.037c1.191-6.248-5.115-20.72-5.115-20.72   s-18.987,1.266-21.579-8.499c-2.391-9.756,2.592-20.646-2.391-26.819c-5.107-6.041-17.655-20.58-12.74-27.886   c4.975-7.307,12.74-15.864,13.873-21.845c1.258-6.174,16.463-21.904,26.687-20.712c10.089,1.266,20.253,7.306,27.752,8.498   c7.699,1.266,22.903,1.266,22.903,1.266l11.289,9.756l3.916,13.347c4.908,4.841,12.614,18.122,10.224,26.686   c-2.658,8.499-14.14,9.69-16.597,17.063c-2.524,7.299,7.632,19.32-4.982,20.646c-12.681,1.192-24.229-3.716-24.229,1.192   c0,4.856,0,12.155-6.374,13.28c-6.174,1.258-12.547,4.849-12.547,4.849l10.156,23.17l-7.632,7.306L1204.417,971.457"/>
	<path fill="none" stroke="#2F773C" stroke-width="0.061" stroke-miterlimit="3.864" d="M1204.417,971.457   c0,0-1.266-17.071,0-23.037c1.191-6.248-5.115-20.72-5.115-20.72s-18.987,1.266-21.579-8.499   c-2.391-9.756,2.592-20.646-2.391-26.819c-5.107-6.041-17.655-20.58-12.74-27.886c4.975-7.307,12.74-15.864,13.873-21.845   c1.258-6.174,16.463-21.904,26.687-20.712c10.089,1.266,20.253,7.306,27.752,8.498c7.699,1.266,22.903,1.266,22.903,1.266   l11.289,9.756l3.916,13.347c4.908,4.841,12.614,18.122,10.224,26.686c-2.658,8.499-14.14,9.69-16.597,17.063   c-2.524,7.299,7.632,19.32-4.982,20.646c-12.681,1.192-24.229-3.716-24.229,1.192c0,4.856,0,12.155-6.374,13.28   c-6.174,1.258-12.547,4.849-12.547,4.849l10.156,23.17l-7.632,7.306L1204.417,971.457z"/>
	<path fill="#F58220" d="M1199.301,847.566c0-7.499,6.307-13.414,13.938-13.414c7.707,0,13.813,5.915,13.813,13.414   c0,7.373-6.106,13.347-13.813,13.347C1205.608,860.913,1199.301,854.939,1199.301,847.566"/>
	<path fill="none" stroke="#F58220" stroke-width="0.061" stroke-miterlimit="3.864" d="M1199.301,847.566   c0-7.499,6.307-13.414,13.938-13.414c7.707,0,13.813,5.915,13.813,13.414c0,7.373-6.106,13.347-13.813,13.347   C1205.608,860.913,1199.301,854.939,1199.301,847.566z"/>
	<path fill="#F58220" d="M1175.332,877.31c0-7.106,5.848-12.814,13.214-12.814c7.306,0,13.28,5.708,13.28,12.814   c0,7.04-5.975,12.747-13.28,12.747C1181.179,890.057,1175.332,884.35,1175.332,877.31"/>
	<path fill="none" stroke="#F58220" stroke-width="0.061" stroke-miterlimit="3.864" d="M1175.332,877.31   c0-7.106,5.848-12.814,13.214-12.814c7.306,0,13.28,5.708,13.28,12.814c0,7.04-5.975,12.747-13.28,12.747   C1181.179,890.057,1175.332,884.35,1175.332,877.31z"/>
	<path fill="#F58220" d="M1209.325,907.646c0-6.966,6.04-12.74,13.479-12.74c7.232,0,13.28,5.774,13.28,12.74   c0,7.106-6.048,12.821-13.28,12.821C1215.365,920.467,1209.325,914.752,1209.325,907.646"/>
	<path fill="none" stroke="#F58220" stroke-width="0.061" stroke-miterlimit="3.864" d="M1209.325,907.646   c0-6.966,6.04-12.74,13.479-12.74c7.232,0,13.28,5.774,13.28,12.74c0,7.106-6.048,12.821-13.28,12.821   C1215.365,920.467,1209.325,914.752,1209.325,907.646z"/>
	<polyline fill="#F58220" points="1177.722,910.044 1186.154,902.212 1194.319,910.044 1186.154,917.876 1177.722,910.044  "/>
	<polygon fill="none" stroke="#F58220" stroke-width="0.061" stroke-miterlimit="3.864" points="1177.722,910.044 1186.154,902.212    1194.319,910.044 1186.154,917.876  "/>
	<polyline fill="#F58220" points="1217.031,877.976 1225.788,869.411 1234.819,877.976 1225.788,886.475 1217.031,877.976  "/>
	<polygon fill="none" stroke="#F58220" stroke-width="0.061" stroke-miterlimit="3.864" points="1217.031,877.976 1225.788,869.411    1234.819,877.976 1225.788,886.475  "/>
	<path fill="#2F773C" d="M1349.937,1023.63c0,0-1.325-16.996,0-23.096c1.332-6.041-4.975-20.586-4.975-20.586   s-18.988,1.132-21.712-8.491c-2.458-9.698,2.724-20.72-2.458-26.827c-5.174-6.107-17.655-20.646-12.681-27.953   c5.183-7.232,12.681-15.73,13.946-21.837c1.192-6.041,16.598-21.912,26.554-20.712c10.156,1.258,20.246,7.365,27.952,8.557   c7.632,1.266,22.771,1.266,22.771,1.266l11.415,9.557l3.782,13.48c4.916,4.908,12.488,18.262,10.031,26.687   c-2.592,8.499-13.813,9.698-16.338,17.063c-2.584,7.232,7.506,19.454-5.175,20.72c-12.613,1.184-23.902-3.724-23.902,1.184   c0,4.856,0,12.088-6.308,13.414c-6.44,1.066-12.681,4.782-12.681,4.782l10.098,23.104l-7.64,7.173L1349.937,1023.63"/>
	<path fill="none" stroke="#2F773C" stroke-width="0.061" stroke-miterlimit="3.864" d="M1349.937,1023.63   c0,0-1.325-16.996,0-23.096c1.332-6.041-4.975-20.586-4.975-20.586s-18.988,1.132-21.712-8.491   c-2.458-9.698,2.724-20.72-2.458-26.827c-5.174-6.107-17.655-20.646-12.681-27.953c5.183-7.232,12.681-15.73,13.946-21.837   c1.192-6.041,16.598-21.912,26.554-20.712c10.156,1.258,20.246,7.365,27.952,8.557c7.632,1.266,22.771,1.266,22.771,1.266   l11.415,9.557l3.782,13.48c4.916,4.908,12.488,18.262,10.031,26.687c-2.592,8.499-13.813,9.698-16.338,17.063   c-2.584,7.232,7.506,19.454-5.175,20.72c-12.613,1.184-23.902-3.724-23.902,1.184c0,4.856,0,12.088-6.308,13.414   c-6.44,1.066-12.681,4.782-12.681,4.782l10.098,23.104l-7.64,7.173L1349.937,1023.63z"/>
	<path fill="#F58220" d="M1344.962,899.755c0-7.373,6.107-13.28,13.806-13.28c7.632,0,14.072,5.907,14.072,13.28   c0,7.432-6.44,13.406-14.072,13.406C1351.07,913.161,1344.962,907.187,1344.962,899.755"/>
	<path fill="none" stroke="#F58220" stroke-width="0.061" stroke-miterlimit="3.864" d="M1344.962,899.755   c0-7.373,6.107-13.28,13.806-13.28c7.632,0,14.072,5.907,14.072,13.28c0,7.432-6.44,13.406-14.072,13.406   C1351.07,913.161,1344.962,907.187,1344.962,899.755z"/>
	<path fill="#F58220" d="M1320.792,929.424c0-6.973,5.907-12.748,13.214-12.748c7.499,0,13.473,5.774,13.473,12.748   c0,7.173-5.974,12.814-13.473,12.814C1326.7,942.238,1320.792,936.598,1320.792,929.424"/>
	<path fill="none" stroke="#F58220" stroke-width="0.061" stroke-miterlimit="3.864" d="M1320.792,929.424   c0-6.973,5.907-12.748,13.214-12.748c7.499,0,13.473,5.774,13.473,12.748c0,7.173-5.974,12.814-13.473,12.814   C1326.7,942.238,1320.792,936.598,1320.792,929.424z"/>
	<path fill="#F58220" d="M1355.052,959.901c0-7.173,5.841-12.88,13.146-12.88c7.433,0,13.34,5.707,13.34,12.88   c0,6.907-5.907,12.74-13.34,12.74C1360.893,972.641,1355.052,966.808,1355.052,959.901"/>
	<path fill="none" stroke="#F58220" stroke-width="0.061" stroke-miterlimit="3.864" d="M1355.052,959.901   c0-7.173,5.841-12.88,13.146-12.88c7.433,0,13.34,5.707,13.34,12.88c0,6.907-5.907,12.74-13.34,12.74   C1360.893,972.641,1355.052,966.808,1355.052,959.901z"/>
	<polyline fill="#F58220" points="1323.25,962.292 1331.482,954.386 1339.781,962.292 1331.482,970.124 1323.25,962.292  "/>
	<polygon fill="none" stroke="#F58220" stroke-width="0.061" stroke-miterlimit="3.864" points="1323.25,962.292 1331.482,954.386    1339.781,962.292 1331.482,970.124  "/>
	<polyline fill="#F58220" points="1362.551,930.157 1371.382,921.592 1380.28,930.157 1371.382,938.655 1362.551,930.157  "/>
	<polygon fill="none" stroke="#F58220" stroke-width="0.061" stroke-miterlimit="3.864" points="1362.551,930.157 1371.382,921.592    1380.28,930.157 1371.382,938.655  "/>
	<polyline fill="#2F773C" points="951.869,1253.54 951.869,1202.751 945.229,1196.377 935.672,1199.102 922.125,1207.792    921.193,1216.957 931.749,1217.956 936.531,1214.706 936.531,1253.54 944.237,1259.98 951.869,1253.54  "/>
	<path fill-rule="evenodd" clip-rule="evenodd" fill="#2F773C" d="M1024.629,1217.756c0,15.264-26.953,15.264-26.953,0   C997.676,1202.751,1024.629,1202.751,1024.629,1217.756 M1040.833,1217.756c-3.257-21.579-26.428-22.445-30.21-22.445   c-3.383,0-27.286,2.266-27.286,22.445c0,13.34,12.081,22.97,27.02,22.771c8.564,0,13.28-3.124,16.53-5.507   c1.991,5.974-3.982,15.93-13.014,16.063c-10.09,0.133-10.09-2.391-10.09-2.391c-0.134,0-2.325-5.174-8.898-5.174   c-9.356,0-8.031,5.174-8.031,5.174s2.324,12.947,26.427,13.081C1028.02,1261.772,1046.008,1252.415,1040.833,1217.756z"/>
	<path fill-rule="evenodd" clip-rule="evenodd" fill="#2F773C" d="M1104.363,1228.246c0,10.756-4.716,22.171-18.921,22.171   c-13.273,0-18.722-11.415-18.722-22.171c0-10.423,4.782-21.712,18.722-21.712   C1099.322,1206.534,1104.363,1217.823,1104.363,1228.246 M1117.509,1228.179c0-16.597-8.765-32.793-31.868-32.793   c-23.569,0-31.868,16.197-31.868,32.793c-0.066,16.664,9.631,33.26,31.868,33.26   C1109.412,1261.439,1117.776,1244.842,1117.509,1228.179z"/>
	<path fill="#2F773C" d="M1185.229,1240.26c0.066-12.147-14.739-10.29-14.739-12.281c0-1.925,13.207-1.592,13.207-12.081   c0-12.015-8.824-18.988-24.962-18.988c-24.896,0-24.828,17.263-24.695,17.263c0,0,0.134,6.107,7.507,6.107   c6.699,0,6.966-6.107,6.966-6.107s1.266-6.507,10.223-6.507c5.974,0,10.623,2.983,10.623,8.232c0,7.632-12.681,6.773-13.014,7.232   l-4.375,4.849l4.375,5.041c0.333,0.533,13.613-0.792,13.613,7.24c0,5.249-4.782,7.773-10.956,7.773   c-9.357,0-10.756-6.115-10.756-6.115s-0.792-6.366-7.433-6.366c-7.64,0-8.031,6.366-7.965,6.366   c-0.134,0.133-0.134,17.663,26.153,17.663C1175.931,1259.581,1185.029,1252.815,1185.229,1240.26"/>
	<path fill="#2F773C" d="M958.576,1153.694l-17.196-54.706l-9.098-5.182h-11.881c-1.459,0-4.316,0-4.316,7.24   c0,7.166,3.85,7.166,4.316,7.166h5.641l2.79,1.925l3.45,11.948l-24.029,24.569l-1.266,3.316l10.223,7.24l3.724-1.591l15.064-20.254   l5.582,18.462l8.432,3.383C957.043,1157.21,959.101,1155.619,958.576,1153.694"/>
	<path fill-rule="evenodd" clip-rule="evenodd" fill="#2F773C" d="M1020.78,1123.417c-1.059,10.823-13.939,20.18-23.17,20.121   l-3.85-35.326h17.722C1021.313,1108.212,1021.646,1116.377,1020.78,1123.417 M1029.611,1096.59   c-4.915-3.775-10.355-2.85-17.263-2.85h-23.703l-10.023-3.117c-0.133,0-3.916-1.399-7.498,5.108   c-3.524,6.64,0.199,8.165,0.199,8.165l9.557,2.724l-2.591,4.908l-0.658,2.924v1.725l3.116,35.059l2.924,4.915l6.507,0.859   c7.166,1.066,23.237-2.991,31.336-7.965C1040.701,1137.364,1039.434,1104.229,1029.611,1096.59z"/>
	<path fill="#2F773C" d="M1104.896,1153.694v-37.117c0-6.041,0.333-11.089-2.658-15.531c-4.249-6.44-11.614-7.24-20.313-7.24   h-26.819c-0.267,0-4.05,0-4.05,7.24c0,7.166,3.783,7.166,4.05,7.166h20.513l11.422,2.991l0.926,9.165v33.327   c0,0.192,0,3.516,8.432,3.516C1104.896,1157.21,1104.896,1153.886,1104.896,1153.694"/>
	<path fill="#2F773C" d="M1186.554,1153.561v-40.3c0-5.641,0.532-10.156-3.517-14.539c-3.716-3.791-7.965-4.916-13.68-4.916h-40.033   c-0.267,0-4.249,0-4.249,7.24c0,7.166,3.982,7.166,4.249,7.166h6.173c2.458,0-7.032,8.04-7.231,13.947   c-0.533,8.424,6.24,19.513,4.849,19.513h-9.098c-0.2,0-4.05,0-4.05,7.106c0,7.373,3.85,7.373,4.05,7.373h17.063l10.156-4.116   l-1.658-10.364c-0.133-1.125-5.314-11.089-4.782-19.513c0.134-5.907,5.708-13.947,7.24-13.947h11.881l3.783,1.732l1.925,3.316v40.3   c0,0.267,0,3.516,8.432,3.516C1186.554,1157.077,1186.554,1153.827,1186.554,1153.561"/>
	<path fill="#030404" d="M433.368,378.529c23.703,12.281,40.433,23.104,40.033,23.903c0.399,0.326-17.796,18.388-22.571,32.394   c-4.315,14.539-5.115,38.775-5.515,39.367L431.51,493.98h59.747l19.254-40.833h-32.594c-1.133,0-1.599-13.406-0.533-21.179   c0.799-7.965,10.889-19.846,12.015-19.646c0.399-0.799,36.384,23.229,54.372,40.826c18.921,18.662,47.006,48.665,47.34,47.873   h4.382l22.17-36.45l-41.958-38.176c-0.533-0.925,36.25-20.712,38.508-40.766c2.058-20.113-27.553-47.599-27.819-46.341   l-31.602,38.183c-0.533,0.193,9.69,10.216,11.881,17.988c2.524,8.166-1.858,23.896-3.183,22.438c0,1-25.828-24.436-44.283-37.842   c-20.379-15.405-54.572-39.034-55.238-37.842L433.368,378.529"/>
	<path fill="none" stroke="#030404" stroke-width="0.204" stroke-miterlimit="3.864" d="M433.368,378.529   c23.703,12.281,40.433,23.104,40.033,23.903c0.399,0.326-17.796,18.388-22.571,32.394c-4.315,14.539-5.115,38.775-5.515,39.367   L431.51,493.98h59.747l19.254-40.833h-32.594c-1.133,0-1.599-13.406-0.533-21.179c0.799-7.965,10.889-19.846,12.015-19.646   c0.399-0.799,36.384,23.229,54.372,40.826c18.921,18.662,47.006,48.665,47.34,47.873h4.382l22.17-36.45l-41.958-38.176   c-0.533-0.925,36.25-20.712,38.508-40.766c2.058-20.113-27.553-47.599-27.819-46.341l-31.602,38.183   c-0.533,0.193,9.69,10.216,11.881,17.988c2.524,8.166-1.858,23.896-3.183,22.438c0,1-25.828-24.436-44.283-37.842   c-20.379-15.405-54.572-39.034-55.238-37.842L433.368,378.529z"/>
	<path fill="#030404" d="M699.588,333.781c-27.353,26.827-43.283,60.287-42.95,60.287h72.027c5.774,0,10.09,2.058,13.946,4.642   l5.308,12.147v42.292h-71.768L651.39,493.98h135.305l21.438-40.833H781.58v-67.519c0-9.291-2.591-16.064-10.689-22.704   c-8.299-7.04-15.798-9.69-28.086-9.69h-40.359L699.588,333.781"/>
	<path fill="none" stroke="#030404" stroke-width="0.204" stroke-miterlimit="3.864" d="M699.588,333.781   c-27.353,26.827-43.283,60.287-42.95,60.287h72.027c5.774,0,10.09,2.058,13.946,4.642l5.308,12.147v42.292h-71.768L651.39,493.98   h135.305l21.438-40.833H781.58v-67.519c0-9.291-2.591-16.064-10.689-22.704c-8.299-7.04-15.798-9.69-28.086-9.69h-40.359   L699.588,333.781z"/>
	<path fill-rule="evenodd" clip-rule="evenodd" fill="#030404" d="M974.906,394.067c10.156,0,9.424,11.082,9.957,18.98   c0.6,10.689-4.583,17.996-12.215,25.961c-21.845,20.579-48.198,17.13-49.064,13.88l-21.245-58.821H974.906 M861.58,394.067   l30.21,84.442c2.916,9.423,10.549,17.263,23.037,18.129c26.086,2.591,69.177-20.979,91.348-50.53   c19.055-25.554,17.529-47.132,17.529-76.01c0-8.964-9.098-16.863-20.453-16.863H887.007l-6.84-19.454   c-24.362,23.303-45.075,60.287-44.815,60.287H861.58z"/>
	<path fill="none" stroke="#030404" stroke-width="0.204" stroke-miterlimit="3.864" d="M861.58,394.067l30.21,84.442   c2.916,9.423,10.549,17.263,23.037,18.129c26.086,2.591,69.177-20.979,91.348-50.53c19.055-25.554,17.529-47.132,17.529-76.01   c0-8.964-9.098-16.863-20.453-16.863H887.007l-6.84-19.454c-24.362,23.303-45.075,60.287-44.815,60.287H861.58z"/>
	<path fill="none" stroke="#030404" stroke-width="0.204" stroke-miterlimit="3.864" d="M974.906,394.067   c10.156,0,9.357,11.082,9.957,18.98c0.6,10.689-4.583,17.996-12.215,25.961c-21.845,20.579-48.198,17.13-49.064,13.88   l-21.245-58.821H974.906z"/>
	<polyline fill="#030404" points="1068.645,434.027 1159.001,434.027 1177.656,406.874 1087.632,406.874 1068.645,434.027  "/>
	<polygon fill="none" stroke="#030404" stroke-width="0.204" stroke-miterlimit="3.864" points="1068.645,434.027 1159.001,434.027    1177.656,406.874 1087.632,406.874  "/>
	<path fill="#030404" d="M1310.17,394.067c5.773,0,9.431,2.058,13.413,4.642l7.699,11.022v91.289l33.526-35.325v-80.126   c0-9.897-5.175-16.004-14.006-22.645c-8.698-6.433-16.197-9.69-28.219-9.69h-46.999l-2.658-19.454   c-24.361,24.695-43.616,60.287-43.35,60.287H1310.17"/>
	<path fill="none" stroke="#030404" stroke-width="0.204" stroke-miterlimit="3.864" d="M1310.17,394.067   c5.773,0,9.431,2.058,13.413,4.642l7.699,11.022v91.289l33.526-35.325v-80.126c0-9.897-5.175-16.004-14.006-22.645   c-8.698-6.433-16.197-9.69-28.219-9.69h-46.999l-2.658-19.454c-24.361,24.695-43.616,60.287-43.35,60.287H1310.17z"/>
	<path fill="#030404" d="M1403.65,395.519c-1.791,12.355,38.234,44.549,38.635,43.49l17.463-32.001   c0-0.667-17.863-7.632-17.463-15.797l6.973-11.089c0.992-1.199,50.457,4.975,61.679,25.361l1.525,47.666h-94.672l-24.629,40.833   h134.965l19.787-40.833c1.392-3.783,2.524-22.371,1.725-36.31c-0.6-13.747-3.982-34.659-5.441-35.325   c0-0.858-23.17-16.53-40.433-24.096c-17.13-7.439-46.94-16.13-47.732-15.205C1453.907,341.554,1406.567,369.032,1403.65,395.519"/>
	<path fill="none" stroke="#030404" stroke-width="0.204" stroke-miterlimit="3.864" d="M1403.65,395.519   c-1.791,12.355,38.234,44.549,38.635,43.49l17.463-32.001c0-0.667-17.863-7.632-17.463-15.797l6.973-11.089   c0.992-1.199,50.457,4.975,61.679,25.361l1.525,47.666h-94.672l-24.629,40.833h134.965l19.787-40.833   c1.392-3.783,2.524-22.371,1.725-36.31c-0.6-13.747-3.982-34.659-5.441-35.325c0-0.858-23.17-16.53-40.433-24.096   c-17.13-7.439-46.94-16.13-47.732-15.205C1453.907,341.554,1406.567,369.032,1403.65,395.519z"/>
	<path fill="#030404" d="M1633.22,333.781c-23.696,25.361-43.684,60.287-43.483,60.287h62.804c18.588,0,36.051,6.1,37.909,23.829   c2.857,31.202-10.29,35.251-22.904,35.251h-58.021l-24.836,40.833h108.952c4.841,0,43.083-46.081,36.909-91.548   c-3.716-28.818-25.428-49.198-61.278-49.198h-33.46L1633.22,333.781"/>
	<path fill="none" stroke="#030404" stroke-width="0.204" stroke-miterlimit="3.864" d="M1633.22,333.781   c-23.696,25.361-43.684,60.287-43.483,60.287h62.804c18.588,0,36.051,6.1,37.909,23.829c2.857,31.202-10.29,35.251-22.904,35.251   h-58.021l-24.836,40.833h108.952c4.841,0,43.083-46.081,36.909-91.548c-3.716-28.818-25.428-49.198-61.278-49.198h-33.46   L1633.22,333.781z"/>
	<path fill="#2F773C" d="M413.055,364.058c23.762,12.414,40.492,22.963,40.159,23.896c0.333,0.399-17.789,18.388-22.571,32.401   c-4.449,14.405-5.174,38.708-5.507,39.233l-13.813,19.847h59.688l19.387-40.759H457.53c-1.059,0-1.325-13.34-0.393-21.305   c0.792-7.906,11.082-19.854,12.015-19.528c0.466-0.792,36.443,23.037,54.372,40.833c18.988,18.721,47.006,48.598,47.332,47.806   h4.449l22.178-36.451l-42.091-38.175c-0.466-0.866,36.117-20.646,38.501-40.766c2.058-20.113-27.353-47.532-27.678-46.399   l-31.802,38.234c-0.333,0.267,9.89,10.223,12.015,17.996c2.657,8.232-1.725,23.962-3.25,22.571   c0,0.733-25.895-24.495-44.083-37.909c-20.387-15.605-54.639-39.101-55.438-37.976L413.055,364.058"/>
	<path fill="none" stroke="#FFFFFF" stroke-width="0.113" stroke-miterlimit="3.864" d="M413.055,364.058   c23.762,12.414,40.492,22.963,40.159,23.896c0.333,0.399-17.789,18.388-22.571,32.401c-4.449,14.405-5.174,38.708-5.507,39.233   l-13.813,19.847h59.688l19.387-40.759H457.53c-1.059,0-1.325-13.34-0.393-21.305c0.792-7.906,11.082-19.854,12.015-19.528   c0.466-0.792,36.443,23.037,54.372,40.833c18.988,18.721,47.006,48.598,47.332,47.806h4.449l22.178-36.451l-42.091-38.175   c-0.466-0.866,36.117-20.646,38.501-40.766c2.058-20.113-27.353-47.532-27.678-46.399l-31.802,38.234   c-0.333,0.267,9.89,10.223,12.015,17.996c2.657,8.232-1.725,23.962-3.25,22.571c0,0.733-25.895-24.495-44.083-37.909   c-20.387-15.605-54.639-39.101-55.438-37.976L413.055,364.058z"/>
	<path fill="#2F773C" d="M679.275,319.242c-27.286,26.819-43.291,60.213-42.891,60.213h72.102c5.641,0,9.757,2.191,13.806,4.715   l5.381,12.281v42.291h-71.568l-24.828,40.766h135.098l21.512-40.766h-26.62v-67.578c0-9.431-2.591-16.205-10.556-22.845   c-8.432-6.973-16.071-9.623-28.019-9.623h-40.366L679.275,319.242"/>
	<path fill="none" stroke="#FFFFFF" stroke-width="0.113" stroke-miterlimit="3.864" d="M679.275,319.242   c-27.286,26.819-43.291,60.213-42.891,60.213h72.102c5.641,0,9.757,2.191,13.806,4.715l5.381,12.281v42.291h-71.568l-24.828,40.766   h135.098l21.512-40.766h-26.62v-67.578c0-9.431-2.591-16.205-10.556-22.845c-8.432-6.973-16.071-9.623-28.019-9.623h-40.366   L679.275,319.242z"/>
	<path fill-rule="evenodd" clip-rule="evenodd" fill="#2F773C" d="M954.66,379.455c10.29,0,9.424,11.089,9.757,19.054   c0.8,10.623-4.315,17.988-12.015,25.828c-21.712,20.712-48.065,17.196-48.998,14.072l-21.312-58.954H954.66 M841.333,379.455   l30.269,84.582c2.857,9.298,10.49,17.196,22.971,17.988c26.161,2.658,69.178-20.905,91.355-50.382   c19.055-25.702,17.589-47.14,17.589-76.084c0-9.098-9.224-16.863-20.446-16.863H866.753l-6.766-19.454   c-24.437,23.303-45.148,60.213-44.749,60.213H841.333z"/>
	<path fill="none" stroke="#FFFFFF" stroke-width="0.113" stroke-miterlimit="3.864" d="M841.333,379.455l30.269,84.582   c2.857,9.298,10.49,17.196,22.971,17.988c26.161,2.658,69.178-20.905,91.355-50.382c19.055-25.702,17.589-47.14,17.589-76.084   c0-9.098-9.224-16.863-20.446-16.863H866.753l-6.766-19.454c-24.437,23.303-45.148,60.213-44.749,60.213H841.333z"/>
	<path fill="none" stroke="#FFFFFF" stroke-width="0.113" stroke-miterlimit="3.864" d="M954.66,379.455   c10.29,0,9.424,11.089,9.757,19.054c0.8,10.623-4.315,17.988-12.015,25.828c-21.712,20.712-48.065,17.196-48.998,14.072   l-21.312-58.954H954.66z"/>
	<polyline fill="#2F773C" points="1048.266,419.429 1138.689,419.429 1157.343,392.269 1067.386,392.269 1048.266,419.429  "/>
	<polygon fill="none" stroke="#FFFFFF" stroke-width="0.113" stroke-miterlimit="3.864" points="1048.266,419.429 1138.689,419.429    1157.343,392.269 1067.386,392.269  "/>
	<path fill="#2F773C" d="M1289.724,379.455c5.907,0,9.557,2.191,13.539,4.715l7.573,11.022v91.215l33.593-35.318v-80.059   c0-9.897-5.049-16.071-13.813-22.711c-8.69-6.307-16.529-9.623-28.345-9.623h-47.072l-2.518-19.454   c-24.369,24.562-43.69,60.213-43.424,60.213H1289.724"/>
	<path fill="none" stroke="#FFFFFF" stroke-width="0.113" stroke-miterlimit="3.864" d="M1289.724,379.455   c5.907,0,9.557,2.191,13.539,4.715l7.573,11.022v91.215l33.593-35.318v-80.059c0-9.897-5.049-16.071-13.813-22.711   c-8.69-6.307-16.529-9.623-28.345-9.623h-47.072l-2.518-19.454c-24.369,24.562-43.69,60.213-43.424,60.213H1289.724z"/>
	<path fill="#2F773C" d="M1383.33,380.92c-1.725,12.348,38.442,44.608,38.709,43.417l17.463-32.068   c0-0.525-17.729-7.432-17.463-15.671l7.039-11.015c0.992-1.333,50.516,4.974,61.805,25.228l1.459,47.865h-94.865l-24.569,40.759   h134.972l19.721-40.759c1.592-3.982,2.584-22.504,1.858-36.451c-0.6-13.739-3.982-34.651-5.515-35.384   c0-0.726-23.237-16.53-40.426-24.029c-16.996-7.373-46.94-16.064-47.606-15.205C1433.653,327.015,1386.321,354.427,1383.33,380.92"/>
	<path fill="none" stroke="#FFFFFF" stroke-width="0.113" stroke-miterlimit="3.864" d="M1383.33,380.92   c-1.725,12.348,38.442,44.608,38.709,43.417l17.463-32.068c0-0.525-17.729-7.432-17.463-15.671l7.039-11.015   c0.992-1.333,50.516,4.974,61.805,25.228l1.459,47.865h-94.865l-24.569,40.759h134.972l19.721-40.759   c1.592-3.982,2.584-22.504,1.858-36.451c-0.6-13.739-3.982-34.651-5.515-35.384c0-0.726-23.237-16.53-40.426-24.029   c-16.996-7.373-46.94-16.064-47.606-15.205C1433.653,327.015,1386.321,354.427,1383.33,380.92z"/>
	<path fill="#2F773C" d="M1612.907,319.242c-23.636,25.294-43.683,60.213-43.35,60.213h62.671c18.654,0,35.984,6.248,38.108,23.969   c2.783,31.069-10.356,35.318-23.037,35.318h-58.028l-24.762,40.766h108.943c4.649,0,42.958-46.148,36.65-91.555   c-3.59-28.744-25.494-49.257-61.078-49.257h-33.527L1612.907,319.242"/>
	<path fill="none" stroke="#FFFFFF" stroke-width="0.113" stroke-miterlimit="3.864" d="M1612.907,319.242   c-23.636,25.294-43.683,60.213-43.35,60.213h62.671c18.654,0,35.984,6.248,38.108,23.969c2.783,31.069-10.356,35.318-23.037,35.318   h-58.028l-24.762,40.766h108.943c4.649,0,42.958-46.148,36.65-91.555c-3.59-28.744-25.494-49.257-61.078-49.257h-33.527   L1612.907,319.242z"/>
</g>
</svg>