<?xml version="1.0" encoding="utf-8"?>
<!-- Generator: Adobe Illustrator 15.1.0, SVG Export Plug-In . SVG Version: 6.00 Build 0)  -->
<!DOCTYPE svg PUBLIC "-//W3C//DTD SVG 1.1//EN" "http://www.w3.org/Graphics/SVG/1.1/DTD/svg11.dtd">
<svg version="1.1" id="Layer_1" xmlns="http://www.w3.org/2000/svg" xmlns:xlink="http://www.w3.org/1999/xlink" x="0px" y="0px"
	 width="1078.126px" height="1273.218px" viewBox="-357.182 -457.849 1078.126 1273.218"
	 enable-background="new -357.182 -457.849 1078.126 1273.218" xml:space="preserve">
<g>
	<rect x="159.821" y="-457.849" fill="#FFFFFF" width="44.438" height="1273.218"/>
	<path fill="#D8001D" d="M204.321-457.849h62.667v103.731h62v-103.731h218.667c0,0,163.667,896.732,166.333,908.732
		s6.957,48.667,6.957,68.667s-5.625,52.665-62.291,81.332S204.321,815.369,204.321,815.369V-457.849z"/>
	<path fill="#51B848" d="M159.726-457.849H97.059v103.731h-62v-103.731h-218.667c0,0-163.667,896.732-166.333,908.732
		s-6.957,48.667-6.957,68.667s5.625,52.665,62.291,81.332s454.333,214.487,454.333,214.487V-457.849z"/>
	<polygon fill="#FFFFFF" points="577.571,119.966 613.321,60.966 498.821,60.966 498.821,79.466 512.821,79.466 512.821,182.716 
		532.571,182.716 532.571,79.466 578.571,79.466 553.571,119.966 	"/>
	<polygon fill="#FFFFFF" points="416.321,60.716 416.321,79.716 461.321,79.716 461.321,119.466 483.071,119.466 483.071,79.716 
		483.071,60.966 483.071,60.716 	"/>
	<polygon fill="#FFFFFF" points="384.071,60.716 367.571,60.716 367.571,79.716 384.071,79.716 384.071,97.966 400.321,97.966 
		400.321,79.716 400.321,60.716 	"/>
	<polygon fill="#FFFFFF" points="257.571,60.716 257.571,79.716 268.321,79.716 268.321,102.466 247.571,102.466 247.571,119.466 
		268.321,119.466 286.821,119.466 286.821,102.466 286.821,79.716 329.571,79.716 329.571,119.466 351.321,119.466 351.321,79.716 
		351.321,60.966 351.321,60.716 	"/>
	<path fill="#FFFFFF" d="M535.988-233.449c0,0-1.999,37.333-17.333,61.667s-42.334,46-42.334,46s20-4.667,42.667-0.333s29,13,29,13
		s-24.333,31.334-61.333,46.667s-73.667,4.667-73.667,4.667s12.333,15,33.333,18s36.667,2.333,36.667,2.333s-9.999,12-24.333,23
		S428.321,2.217,397.321,2.217c-21.333,0-38.332-18.667-41.666-26s-7-21.333-20-30s-38-20.333-38-52c0-35.667,36.333-91,36.333-91
		s1.333,39.333,5,51.333s14,25,14,25s3.334-50.333,24.667-77.333s50.666-35.667,50.666-35.667s-3.666,15-3.666,28.667
		s5,28.333,5,28.333s19.667-26,39-35.667s41.332-14,47.666-15.667S535.988-233.449,535.988-233.449z"/>
	<path fill="#FFFFFF" d="M439.32,262.216l63.334-122c0,0,22,38,61.333,38c3.584,0,17.584,0,25.334,0s13.25,6,14.75,13.5
		s41.75,224.75,41.75,224.75l-52.75,69.75l-17.75-74.25c0,0-92.668,156.917-272.667,156.917c-30,0-46-2.667-46-2.667V438.883
		c0,0,37.334,14.666,92.667,14.666c113.333,0,212-105.333,212-105.333l-14.667-62.667c0,0-6.666,0-44.666,0
		S439.32,262.216,439.32,262.216z"/>
	<path fill="#FFFFFF" d="M241.988,143.548c0,0,22.666,31.333,55.333,31.333s94,0,110,0s35.334,10.667,39.334,31.333
		s23.333,175.333,23.333,175.333l-60,62.667c0,0-12.333-112.333-13.333-120.999s-4.001-35-27.667-35s-65,0-65,0
		s8.833,94-51.167,171.5c-64.5,87.5-151.5,102.5-151.5,102.5v23.5c0,0-14,4-33,5.5s-38.5,1-38.5,1l-2-25.5c0,0-7.834-0.833-17.834-2
		s-17-2.833-17-2.833v26.5c0,0-17.334-2-42.167-8s-34.333-9.5-34.333-9.5l10.333-25.834c0,0-10.167-3.667-17.667-6.834
		s-11.5-5.167-11.5-5.167l-16.167,24.5c0,0-10.833-3.334-32.167-15.667s-31.667-22-31.667-22l15-28.165c0,0-5.5-4.999-12.5-12.166
		s-12-14.167-12-14.167l-28.667,18.667c0,0-9.167-9.666-20.167-27.166s-17-36.667-17-36.667l31.834-14.499
		c0,0-3.333-7.666-5.833-15.333s-4-16.333-4-16.333l-36.167,4.334c0,0-2-16.333-2-35.5s0-40,0-40h33.167
		c0,0,0.751-8.045,2.126-16.17s2.625-14.125,2.625-14.125l-35.75-5.75c0,0,3.75-17.5,9.5-35.875s15.125-37.25,15.125-37.25
		l34.875,9.375c0,0,4-7.75,7.375-14.125s9.375-16.125,9.375-16.125l-30.5-16.875c0,0,11.875-18.125,23.375-33.125
		s26.375-29.875,26.375-29.875l29.75,17.625c0,0,11.75-11.5,19.25-18.375s19.5-16.875,19.5-16.875l146.125,62.875
		c0,0-178.625,30-178.625,149.5c0,125,120,180.5,203,180.5s181.5-95.5,181.5-151c0-57.5-45.5-68-45.5-68L241.988,143.548z"/>
	<path fill="#FFFFFF" d="M225.681,99.396C281.573,19.97,354.003-53.729,354.728-54.464l-12.814-12.641
		c-0.735,0.745-74.181,75.464-130.953,156.141c-41.22,58.577-80.76,144.631-98.247,208.245c-3.515-21.305-7.1-41.392-10.547-59.729
		C84.315,142.599,66.212,72.647,66.031,71.952L48.61,76.48c0.717,2.759,71.71,278.297,71.71,486.736
		c0,206.536-2.822,234.877-2.936,235.928l17.436,6.072c0.125-1.043,3.5-31.878,3.5-242c0-68.002-7.487-142.669-17.095-210.5h0.095
		C121.321,305.148,167.872,181.545,225.681,99.396z"/>
	<path fill="#FFFFFF" d="M-140.875,5.886c16.592-7.553,42.363-17.17,66.029-17.17c21.082,0,31.193,0.052,36.032,0.1
		c-0.205-9.369-0.161-32.52,4.212-54.384c5.705-28.526,20.205-41.226,20.819-41.752l1.31-1.123l1.715,0.182
		c1.387,0.147,34.172,3.739,52.275,15.635c12.599,8.279,25.022,18.2,31.271,23.346c3.839-8.168,12.951-25.094,29.586-43.208
		c16.562-18.034,35.008-30.112,44.231-35.561c-13.271-32.927-36.918-60.554-66.89-78.837c-0.022-4.266-0.409-14.253-3.271-22.646
		c-3.75-11-8.25-16.75-8.25-16.75s-2.75,5.5-9,13.5c-3.893,4.982-7.784,8.994-10.167,11.312c-6.538-2.307-13.264-4.213-20.151-5.686
		c-3.245-3.777-9.513-11.298-12.932-16.876c-4.75-7.75-10.75-19-10.75-19s-10.75,9.25-10.75,23c0,4.046,0.091,7.085,0.195,9.252
		c-0.065,0-0.13-0.002-0.195-0.002c-48.18,0-91.506,20.777-121.51,53.859c-3.295-2.124-7.004-4.123-10.99-5.609
		c-14.75-5.5-28-2.25-28-2.25s12.25,10,15.75,22.5s0.5,17,0.5,17l0.318-0.164c-12.791,23.354-20.068,50.158-20.068,78.664
		C-169.554-52.394-158.965-20.479-140.875,5.886z"/>
	<path fill="#FFFFFF" d="M115.337-114.296c-2.38,2.289-4.749,4.691-7.07,7.218c-21.726,23.657-30.122,45.49-30.205,45.708
		l-2.015,5.334l-4.33-3.71c-0.173-0.148-17.519-14.974-34.594-26.194C24.533-94.215,2.981-98.205-6.67-99.646
		c-1.938-0.137-3.009-0.138-3.009-0.138s-0.511,0.37-1.373,1.155C-15.085-93.931-23.007-82.751-26.757-64
		c-5.334,26.67-3.942,56.387-3.927,56.684l0.221,4.47l-4.466-0.279c-0.101-0.004-3.904-0.159-39.917-0.159
		c-29.089,0-62.896,16.165-74.99,22.479c-20.101,13.53-28.177,27.688-28.177,27.688s13.833-2.417,49.583,4.583s98.25,44,155.5,44
		c5.75,0,20.75-2.5,29.75-7.5s22.5-4.25,51.5-23.5s35.25-72.5,38.5-104.75s25.5-112.75,25.5-112.75S138.662-134.256,115.337-114.296
		z"/>
</g>
</svg>
