<?xml version="1.0" encoding="UTF-8" standalone="no"?>
<!-- Created with Inkscape (http://www.inkscape.org/) -->

<svg
   version="1.1"
   id="svg2"
   xml:space="preserve"
   width="409.84659"
   height="528.56781"
   viewBox="0 0 409.84659 528.5678"
   sodipodi:docname="Coat of arms of Kiryat Malachi.svg"
   inkscape:version="1.1.1 (3bf5ae0d25, 2021-09-20)"
   xmlns:inkscape="http://www.inkscape.org/namespaces/inkscape"
   xmlns:sodipodi="http://sodipodi.sourceforge.net/DTD/sodipodi-0.dtd"
   xmlns="http://www.w3.org/2000/svg"
   xmlns:svg="http://www.w3.org/2000/svg"><defs
     id="defs6"><clipPath
       clipPathUnits="userSpaceOnUse"
       id="clipPath18"><path
         d="M 0,0 H 595.276 V 841.89 H 0 Z"
         id="path16" /></clipPath><clipPath
       clipPathUnits="userSpaceOnUse"
       id="clipPath54"><path
         d="M 0,0 H 595.276 V 841.89 H 0 Z"
         id="path52" /></clipPath><clipPath
       clipPathUnits="userSpaceOnUse"
       id="clipPath102"><path
         d="M 0,0 H 595.276 V 841.89 H 0 Z"
         id="path100" /></clipPath><clipPath
       clipPathUnits="userSpaceOnUse"
       id="clipPath150"><path
         d="M 0,0 H 595.276 V 841.89 H 0 Z"
         id="path148" /></clipPath><clipPath
       clipPathUnits="userSpaceOnUse"
       id="clipPath178"><path
         d="M 0,0 H 595.276 V 841.89 H 0 Z"
         id="path176" /></clipPath><clipPath
       clipPathUnits="userSpaceOnUse"
       id="clipPath210"><path
         d="M 0,0 H 595.276 V 841.89 H 0 Z"
         id="path208" /></clipPath><clipPath
       clipPathUnits="userSpaceOnUse"
       id="clipPath232"><path
         d="M 0,0 H 595.276 V 841.89 H 0 Z"
         id="path230" /></clipPath><clipPath
       clipPathUnits="userSpaceOnUse"
       id="clipPath272"><path
         d="M 0,0 H 595.276 V 841.89 H 0 Z"
         id="path270" /></clipPath><clipPath
       clipPathUnits="userSpaceOnUse"
       id="clipPath286"><path
         d="M 0,0 H 595.276 V 841.89 H 0 Z"
         id="path284" /></clipPath><clipPath
       clipPathUnits="userSpaceOnUse"
       id="clipPath318"><path
         d="M 0,0 H 595.276 V 841.89 H 0 Z"
         id="path316" /></clipPath><clipPath
       clipPathUnits="userSpaceOnUse"
       id="clipPath360"><path
         d="M 0,0 H 595.276 V 841.89 H 0 Z"
         id="path358" /></clipPath><clipPath
       clipPathUnits="userSpaceOnUse"
       id="clipPath408"><path
         d="M 0,0 H 595.276 V 841.89 H 0 Z"
         id="path406" /></clipPath><clipPath
       clipPathUnits="userSpaceOnUse"
       id="clipPath448"><path
         d="M 0,0 H 595.276 V 841.89 H 0 Z"
         id="path446" /></clipPath><clipPath
       clipPathUnits="userSpaceOnUse"
       id="clipPath500"><path
         d="M 0,0 H 595.276 V 841.89 H 0 Z"
         id="path498" /></clipPath><clipPath
       clipPathUnits="userSpaceOnUse"
       id="clipPath528"><path
         d="M 0,0 H 595.276 V 841.89 H 0 Z"
         id="path526" /></clipPath><clipPath
       clipPathUnits="userSpaceOnUse"
       id="clipPath560"><path
         d="M 82.677,193.081 H 512.599 V 429.448 H 82.677 Z"
         id="path558" /></clipPath><clipPath
       clipPathUnits="userSpaceOnUse"
       id="clipPath122"><path
         d="M 0,0 H 708.661 V 481.89 H 0 Z"
         id="path120" /></clipPath><clipPath
       clipPathUnits="userSpaceOnUse"
       id="clipPath214"><path
         d="m 24.827,194.777 h 63.635 v 84.848 H 24.827 Z"
         id="path212" /></clipPath><clipPath
       clipPathUnits="userSpaceOnUse"
       id="clipPath238"><path
         d="M 0,0 H 708.661 V 481.89 H 0 Z"
         id="path236" /></clipPath><clipPath
       clipPathUnits="userSpaceOnUse"
       id="clipPath306"><path
         d="M 0,0 H 708.661 V 481.89 H 0 Z"
         id="path304" /></clipPath><clipPath
       clipPathUnits="userSpaceOnUse"
       id="clipPath326"><path
         d="M 0,0 H 708.661 V 481.89 H 0 Z"
         id="path324" /></clipPath><clipPath
       clipPathUnits="userSpaceOnUse"
       id="clipPath210-7"><path
         d="M 0,0 H 595.276 V 841.89 H 0 Z"
         id="path208-2" /></clipPath><clipPath
       clipPathUnits="userSpaceOnUse"
       id="clipPath232-1"><path
         d="M 0,0 H 595.276 V 841.89 H 0 Z"
         id="path230-8-1" /></clipPath><clipPath
       clipPathUnits="userSpaceOnUse"
       id="clipPath272-2"><path
         d="M 0,0 H 595.276 V 841.89 H 0 Z"
         id="path270-2" /></clipPath><clipPath
       clipPathUnits="userSpaceOnUse"
       id="clipPath286-3"><path
         d="M 0,0 H 595.276 V 841.89 H 0 Z"
         id="path284-0" /></clipPath><clipPath
       clipPathUnits="userSpaceOnUse"
       id="clipPath318-7"><path
         d="M 0,0 H 595.276 V 841.89 H 0 Z"
         id="path316-5" /></clipPath><clipPath
       clipPathUnits="userSpaceOnUse"
       id="clipPath360-2"><path
         d="M 0,0 H 595.276 V 841.89 H 0 Z"
         id="path358-8" /></clipPath><clipPath
       clipPathUnits="userSpaceOnUse"
       id="clipPath408-0"><path
         d="M 0,0 H 595.276 V 841.89 H 0 Z"
         id="path406-7" /></clipPath></defs><sodipodi:namedview
     id="namedview4"
     pagecolor="#ffffff"
     bordercolor="#999999"
     borderopacity="1"
     inkscape:pageshadow="0"
     inkscape:pageopacity="0"
     inkscape:pagecheckerboard="0"
     showgrid="false"
     inkscape:zoom="0.90583645"
     inkscape:cx="214.71867"
     inkscape:cy="299.72298"
     inkscape:window-width="1920"
     inkscape:window-height="1001"
     inkscape:window-x="-9"
     inkscape:window-y="-9"
     inkscape:window-maximized="1"
     inkscape:current-layer="g8"
     fit-margin-top="0"
     fit-margin-left="0"
     fit-margin-right="0"
     fit-margin-bottom="0" /><g
     id="g8"
     inkscape:groupmode="layer"
     inkscape:label="1548249329.3802"
     transform="matrix(1.3333333,0,0,-1.3333333,-162.80537,799.05295)"><path
       d="M 125.78869,593.89075 H 319.23808 V 223.4541 l -33.12715,-11.13416 h -27.66875 l -49.72452,16.59739 -33.19961,22.2007 -22.06544,22.06544 -16.52975,33.12715 -11.13417,27.6639 z"
       style="fill:#100f0d;fill-opacity:1;fill-rule:nonzero;stroke:none;stroke-width:4.83044"
       id="path100-2" /><path
       d="M 125.78869,593.89075 H 319.23808 V 223.4541 l -33.12715,-11.13416 h -27.66875 l -49.72452,16.59739 -33.19961,22.2007 -22.06544,22.06544 -16.52975,33.12715 -11.13417,27.6639 z"
       style="fill:none;stroke:#100f0d;stroke-width:0.425079;stroke-linecap:round;stroke-linejoin:round;stroke-miterlimit:10;stroke-dasharray:none;stroke-opacity:1"
       id="path104" /><path
       d="m 320.46791,597.03246 h 99.59398 V 326.1898 l -11.06654,-33.33486 -16.59739,-27.52868 -27.66392,-27.6639 -44.26613,-22.2007 z"
       style="fill:#74c92c;fill-opacity:1;fill-rule:nonzero;stroke:none;stroke-width:4.83044"
       id="path108" /><path
       d="m 320.46791,597.03246 h 99.59398 V 326.1898 l -11.06654,-33.33486 -16.59739,-27.52868 -27.66392,-27.6639 -44.26613,-22.2007 z"
       style="fill:none;stroke:#100f0d;stroke-width:0.425079;stroke-linecap:round;stroke-linejoin:round;stroke-miterlimit:10;stroke-dasharray:none;stroke-opacity:1"
       id="path112" /><path
       d="M 132.48465,342.721 H 320.47081 V 585.96738 H 132.48465 Z"
       style="fill:#ffffff;fill-opacity:1;fill-rule:nonzero;stroke:#ffffff;stroke-width:0.425079;stroke-linecap:round;stroke-linejoin:miter;stroke-miterlimit:8;stroke-dasharray:none;stroke-opacity:1"
       id="path114" /><g
       id="g118"
       clip-path="url(#clipPath122)"
       transform="matrix(4.8304383,0,0,4.8304383,2.1787392,-751.42157)"><g
         id="g124"
         transform="translate(36.6482,247.1844)"><path
           d="M 0,0 C 0,0 0,-0.014 -0.014,-0.014 L -0.028,0 h -7.34 c 0,-2.786 3.295,-5.048 7.354,-5.048 4.073,0 7.367,2.262 7.367,5.048"
           style="fill:#100f0d;fill-opacity:1;fill-rule:nonzero;stroke:none"
           id="path126" /></g><g
         id="g128"
         transform="translate(36.6482,247.1844)"><path
           d="M 0,0 C 0,0 0,-0.014 -0.014,-0.014 L -0.028,0 h -7.34 c 0,-2.786 3.295,-5.048 7.354,-5.048 4.073,0 7.367,2.262 7.367,5.048 z"
           style="fill:none;stroke:#100f0d;stroke-width:0.014;stroke-linecap:round;stroke-linejoin:round;stroke-miterlimit:10;stroke-dasharray:none;stroke-opacity:1"
           id="path130" /></g></g><path
       d="m 164.9307,541.70125 h 71.51946 v 14.27878 H 164.9307 Z"
       style="fill:#100f0d;fill-opacity:1;fill-rule:nonzero;stroke:none;stroke-width:4.83044"
       id="path132" /><path
       d="m 224.01613,373.5276 18.30736,9.49664 v 134.97694 h 20.42309 v 19.39905 l -55.19259,-0.13518 -15.37045,-19.26378 h 31.83259 z"
       style="fill:#100f0d;fill-opacity:1;fill-rule:nonzero;stroke:none;stroke-width:4.83044"
       id="path136" /><path
       d="m 176.26871,549.14833 35.86116,-107.7236 m -29.91973,107.7236 -36.06406,-107.7236"
       style="fill:none;stroke:#100f0d;stroke-width:5.83517;stroke-linecap:butt;stroke-linejoin:round;stroke-miterlimit:10;stroke-dasharray:none;stroke-opacity:1"
       id="path140" /><path
       d="m 122.10403,342.78862 h 13.66048 v 256.50111 h -13.66048 z"
       style="fill:#100f0d;fill-opacity:1;fill-rule:nonzero;stroke:none;stroke-width:4.83044"
       id="path142" /><path
       d="m 415.14257,340.39756 h 14.34639 v 256.63635 h -14.34639 z"
       style="fill:#100f0d;fill-opacity:1;fill-rule:nonzero;stroke:none;stroke-width:4.83044"
       id="path144" /><path
       d="m 319.37429,216.55479 h 5.53086 v 376.03995 h -5.53086 z"
       style="fill:#100f0d;fill-opacity:1;fill-rule:nonzero;stroke:none;stroke-width:4.83044"
       id="path146" /><path
       d="m 319.30667,216.55479 h 5.60331 v 376.03995 h -5.60331 z"
       style="fill:none;stroke:#100f0d;stroke-width:1.70997;stroke-linecap:round;stroke-linejoin:miter;stroke-miterlimit:8;stroke-dasharray:none;stroke-opacity:1"
       id="path148-3" /><path
       d="m 129.20478,586.99143 h 299.67073 v 12.29348 H 129.20478 Z"
       style="fill:#100f0d;fill-opacity:1;fill-rule:nonzero;stroke:none;stroke-width:4.83044"
       id="path150" /><path
       d="m 262.88232,312.32306 h 55.40029 v 21.10901 h -55.40029 z"
       style="fill:#96371d;fill-opacity:1;fill-rule:nonzero;stroke:none;stroke-width:4.83044"
       id="path152" /><path
       d="m 198.81138,312.32306 h 55.32785 v 21.10901 h -55.32785 z"
       style="fill:#96371d;fill-opacity:1;fill-rule:nonzero;stroke:none;stroke-width:4.83044"
       id="path156" /><path
       d="m 290.6187,282.26807 h 27.66391 v 21.10901 H 290.6187 Z"
       style="fill:#96371d;fill-opacity:1;fill-rule:nonzero;stroke:none;stroke-width:4.83044"
       id="path160" /><path
       d="m 228.66349,282.26807 h 55.40031 v 21.10901 h -55.40031 z"
       style="fill:#96371d;fill-opacity:1;fill-rule:nonzero;stroke:none;stroke-width:4.83044"
       id="path164" /><path
       d="m 164.58773,282.26807 h 55.26021 v 21.10901 h -55.26021 z"
       style="fill:#96371d;fill-opacity:1;fill-rule:nonzero;stroke:none;stroke-width:4.83044"
       id="path168" /><path
       d="m 134.73563,312.32306 h 55.40029 v 21.10901 h -55.40029 z"
       style="fill:#96371d;fill-opacity:1;fill-rule:nonzero;stroke:none;stroke-width:4.83044"
       id="path172" /><path
       d="m 262.74708,252.34833 h 55.40029 v 21.10902 h -55.40029 z"
       style="fill:#96371d;fill-opacity:1;fill-rule:nonzero;stroke:none;stroke-width:4.83044"
       id="path176-2" /><path
       d="m 198.81138,252.34833 h 55.32785 v 21.10902 h -55.32785 z"
       style="fill:#96371d;fill-opacity:1;fill-rule:nonzero;stroke:none;stroke-width:4.83044"
       id="path180" /><path
       d="m 226.61057,222.4286 h 55.32783 v 21.10902 h -55.32783 z"
       style="fill:#96371d;fill-opacity:1;fill-rule:nonzero;stroke:none;stroke-width:4.83044"
       id="path184" /><path
       d="m 137.94787,282.26807 h 17.9644 v 21.10901 h -17.9644 z"
       style="fill:#96371d;fill-opacity:1;fill-rule:nonzero;stroke:none;stroke-width:4.83044"
       id="path188" /><path
       d="m 159.19213,252.34833 h 30.94379 v 21.10902 h -30.94379 z"
       style="fill:#96371d;fill-opacity:1;fill-rule:nonzero;stroke:none;stroke-width:4.83044"
       id="path192" /><path
       d="m 290.88921,222.4286 h 27.59628 v 21.10902 h -27.59628 z"
       style="fill:#96371d;fill-opacity:1;fill-rule:nonzero;stroke:none;stroke-width:4.83044"
       id="path196" /><path
       d="m 201.33771,222.4286 h 16.59738 v 21.10902 h -16.59738 z"
       style="fill:#96371d;fill-opacity:1;fill-rule:nonzero;stroke:none;stroke-width:4.83044"
       id="path200" /><path
       d="m 185.832,231.99286 h 21.17664 v 11.47712 H 185.832 Z"
       style="fill:#96371d;fill-opacity:1;fill-rule:nonzero;stroke:none;stroke-width:4.83044"
       id="path204" /><g
       id="g210"
       clip-path="url(#clipPath214)"
       transform="matrix(4.8304383,0,0,4.8304383,2.1787392,-751.42157)"><g
         id="g216"
         transform="translate(87.0336,226.7502)"><path
           d="m 0,0 c -0.028,-15.258 -13.66,-27.632 -30.475,-27.632 -16.828,0 -30.46,12.402 -30.46,27.688"
           style="fill:none;stroke:#100f0d;stroke-width:3.123;stroke-linecap:butt;stroke-linejoin:round;stroke-miterlimit:10;stroke-dasharray:none;stroke-opacity:1"
           id="path218" /></g></g><path
       d="m 368.35204,500.17107 -0.61347,-4.37154 -0.61829,-5.26036 -0.9516,-4.98501 0.9516,-2.52631 1.84523,2.18336 1.23177,2.18818 1.84039,2.79683 1.43947,2.80165 2.18336,2.18819 2.11572,2.18336 2.80166,1.84521 3.00453,1.36703 3.69045,0.61347 3.00454,0.82118 1.84523,0.34295 1.84522,0.2705 1.43465,-0.61345 0.61347,-2.45871 -0.20288,-4.03342 v -4.70967 l -0.61347,-4.03341 -1.23177,-3.41513 -1.23176,-3.75807 -1.8404,-4.02859 -3.00936,-3.8257 -3.07215,-3.41512 -4.2363,-2.8693 -4.64205,-1.84521 -4.51163,-0.61347 -4.30392,-0.34297 -0.9516,-4.29908 v -10.38544 l -0.27532,-4.57443 -0.34297,-5.40044 1.84523,-1.84039 0.61346,3.41512 0.61347,3.07216 1.57473,4.10104 2.0481,2.86445 2.80165,2.18819 2.72919,2.1882 3.62283,1.84039 2.80166,0.95642 2.11573,1.57473 1.7776,1.22692 2.18336,0.20773 0.8888,-1.43465 -0.61346,-4.78213 -1.23176,-4.37155 -1.84039,-5.6033 -1.77762,-4.64689 -3.89333,-4.70969 -4.03342,-1.84521 -5.53084,-0.95644 h -3.62283 l -1.50227,-1.64234 -0.33813,-3.618 -0.27534,-5.3956 0.61347,-7.51617 2.80165,-45.90365 -2.52631,-0.68109 h -4.02859 l -4.51163,85.11232 0.47821,5.94144 0.34297,9.15368 0.75354,8.062 1.22694,9.01843 0.27532,3.618 0.54585,2.59395 -0.82117,3.75807 -1.56989,2.45869 -1.50227,0.34297 -3.00454,0.8888 -3.07698,1.29456 -2.18336,0.61829 -3.077,1.63753 -2.39106,1.77759 -1.22693,2.80166 -0.88879,5.05263 -0.95644,5.94145 -0.27533,3.07699 0.27533,3.13977 0.95644,1.84524 h 1.50225 l 1.23176,-0.61347 1.15932,-1.23177 1.84522,-0.95641 2.18336,-0.61347 2.73403,-1.56989 2.18818,-2.12057 2.0481,-1.91285 1.84524,-2.79683 1.22694,-3.41511 1.23174,-3.82571 1.56991,-3.75807 0.61345,1.56988 1.23177,9.76715 0.82117,10.86365 0.9516,7.1732 3.077,4.16383 2.0481,1.84524 -0.82118,-9.6319 -0.95642,-8.19724 -0.2705,-7.17322 -0.95644,-6.62252 z"
       style="fill:#100f0d;fill-opacity:1;fill-rule:nonzero;stroke:none;stroke-width:4.83044"
       id="path222" /><path
       d="m 371.49377,478.58577 2.32342,3.96097 2.32345,3.27986 2.52632,3.48275 2.73404,2.86927 2.72919,2.80166 2.52632,1.36702 1.64234,0.27051 1.15932,-1.43465 v -4.64205 l -2.80166,-6.83024 -2.251,-4.71451 -2.80165,-4.16867 -2.2558,-2.59394 -3.48275,-1.64236 -3.89333,-1.43463 -2.73404,-0.40576 v 3.00454 l 0.8888,3.55036 z"
       style="fill:#599d32;fill-opacity:1;fill-rule:nonzero;stroke:none;stroke-width:4.83044"
       id="path226" /><path
       d="m 371.49377,478.58577 2.32342,3.96097 2.32345,3.27986 2.52632,3.48275 2.73404,2.86927 2.72919,2.80166 2.52632,1.36702 1.64234,0.27051 1.15932,-1.43465 v -4.64205 l -2.80166,-6.83024 -2.251,-4.71451 -2.80165,-4.16867 -2.2558,-2.59394 -3.48275,-1.64236 -3.89333,-1.43463 -2.73404,-0.40576 v 3.00454 l 0.8888,3.55036 z"
       style="fill:#74c92c;fill-opacity:1;stroke:#389d3d;stroke-width:0.140083;stroke-linecap:round;stroke-linejoin:round;stroke-miterlimit:10;stroke-dasharray:none;stroke-opacity:1"
       id="path230-8" /><g
       id="g234"
       clip-path="url(#clipPath238)"
       transform="matrix(4.8304383,0,0,4.8304383,2.1787392,-751.42157)"><g
         id="g240"
         transform="translate(73.2034,229.5077)"><path
           d="m 0,0 c -0.269,0 -0.481,-0.212 -0.481,-0.467 v -17.351 c 0,-0.269 0.212,-0.481 0.481,-0.481 h 0.778 c 0.254,0 0.466,0.212 0.466,0.481 V -0.467 C 1.244,-0.212 1.032,0 0.778,0"
           style="fill:#100f0d;fill-opacity:1;fill-rule:nonzero;stroke:none"
           id="path242" /></g><g
         id="g244"
         transform="translate(75.3812,229.4654)"><path
           d="m 0,0 c -0.24,0 -0.424,-0.184 -0.424,-0.424 v -14.325 c 0,-0.227 0.184,-0.425 0.424,-0.425 h 0.679 c 0.24,0 0.424,0.198 0.424,0.425 V -0.424 C 1.103,-0.184 0.919,0 0.679,0"
           style="fill:#100f0d;fill-opacity:1;fill-rule:nonzero;stroke:none"
           id="path246" /></g><g
         id="g248"
         transform="translate(75.3812,229.4654)"><path
           d="m 0,0 c -0.24,0 -0.424,-0.184 -0.424,-0.424 v -14.325 c 0,-0.227 0.184,-0.425 0.424,-0.425 h 0.679 c 0.24,0 0.424,0.198 0.424,0.425 V -0.424 C 1.103,-0.184 0.919,0 0.679,0 Z"
           style="fill:none;stroke:#100f0d;stroke-width:0.088;stroke-linecap:round;stroke-linejoin:round;stroke-miterlimit:10;stroke-dasharray:none;stroke-opacity:1"
           id="path250" /></g><g
         id="g252"
         transform="translate(78.8599,232.9299)"><path
           d="m 0,0 c -0.127,0.622 0.057,3.083 0.311,4.539 0.255,1.457 0.622,2.871 1.287,4.314 0.65,1.442 2.121,3.789 2.644,4.313 C 4.78,13.703 4.978,12.741 4.78,12.034 4.568,11.327 3.535,9.913 3.055,8.923 2.574,7.947 2.277,7.311 1.98,6.208 1.669,5.091 1.414,3.097 1.287,2.192 1.16,1.287 1.343,1.103 1.145,0.75 Z"
           style="fill:#100f0d;fill-opacity:1;fill-rule:nonzero;stroke:none"
           id="path254" /></g><g
         id="g256"
         transform="translate(77.1206,231.9401)"><path
           d="m 0,0 c -0.24,0.382 -0.297,1.923 -0.297,3.026 0,1.117 0.099,2.503 0.297,3.719 0.212,1.202 0.58,2.348 0.919,3.55 0.325,1.216 0.622,2.376 1.131,3.705 0.51,1.343 1.358,3.111 1.895,4.327 0.524,1.202 0.806,1.909 1.287,2.941 0.467,1.047 1.259,2.956 1.655,3.338 0.41,0.382 0.862,-0.41 0.834,-0.99 C 7.693,23.036 7.113,21.933 6.731,21.042 6.364,20.165 5.953,19.458 5.458,18.327 4.949,17.182 4.214,15.499 3.719,14.24 3.21,12.968 2.757,11.766 2.432,10.747 2.093,9.743 1.867,9.065 1.669,8.258 1.471,7.452 1.244,6.788 1.145,5.911 1.046,5.02 1.046,3.733 1.061,2.885 1.089,2.022 1.4,1.244 1.216,0.763 Z"
           style="fill:#100f0d;fill-opacity:1;fill-rule:nonzero;stroke:none"
           id="path258" /></g><g
         id="g260"
         transform="translate(72.0014,231.827)"><path
           d="m 0,0 c 0.184,0.325 -0.014,1.683 -0.099,2.673 -0.071,0.99 -0.141,2.064 -0.368,3.182 -0.24,1.103 -0.438,2.262 -0.919,3.549 -0.481,1.287 -1.159,2.885 -1.965,4.242 -0.807,1.372 -1.994,2.786 -2.871,3.946 -0.891,1.159 -1.542,1.994 -2.432,3.026 -0.877,1.032 -2.221,2.743 -2.8,3.252 -0.58,0.51 -0.75,0.184 -0.75,-0.155 0,-0.325 0.127,-1.004 0.75,-1.895 0.636,-0.877 2.177,-2.39 3.04,-3.394 0.848,-1.018 1.527,-1.824 2.192,-2.729 0.65,-0.905 1.202,-1.824 1.739,-2.729 0.523,-0.906 1.032,-1.796 1.443,-2.8 C -2.644,9.164 -2.319,7.947 -2.065,6.83 -1.81,5.727 -1.655,4.469 -1.527,3.422 -1.4,2.39 -1.485,1.131 -1.23,0.551 Z"
           style="fill:#100f0d;fill-opacity:1;fill-rule:nonzero;stroke:none"
           id="path262" /></g><g
         id="g264"
         transform="translate(73.7973,231.5441)"><path
           d="m 0,0 c 0.127,0.75 -0.226,3.182 -0.424,4.865 -0.212,1.697 -0.439,3.464 -0.863,5.274 -0.424,1.825 -0.961,3.762 -1.669,5.685 -0.707,1.909 -1.569,3.861 -2.503,5.826 -0.933,1.966 -2.064,4.186 -3.096,5.982 -1.033,1.782 -1.966,3.154 -3.027,4.695 -1.06,1.527 -2.757,4.03 -3.408,4.61 -0.65,0.58 -0.99,-0.127 -0.537,-1.061 0.467,-0.933 2.277,-3.181 3.182,-4.539 0.919,-1.358 1.598,-2.517 2.276,-3.634 0.679,-1.103 1.16,-1.839 1.811,-3.097 0.664,-1.273 1.597,-3.111 2.205,-4.469 0.594,-1.372 1.005,-2.376 1.513,-3.719 0.496,-1.329 1.075,-2.899 1.514,-4.384 0.424,-1.485 0.679,-2.602 0.975,-4.539 0.312,-1.952 0.51,-5.954 0.835,-7.198 z"
           style="fill:#100f0d;fill-opacity:1;fill-rule:nonzero;stroke:none"
           id="path266" /></g><g
         id="g268"
         transform="translate(75.0842,231.4734)"><path
           d="m 0,0 c 0.071,1.103 -0.297,4.794 -0.523,7.042 -0.24,2.235 -0.637,4.709 -0.919,6.435 -0.269,1.711 -0.495,2.616 -0.835,3.931 -0.325,1.315 -0.707,2.757 -1.131,4.016 -0.424,1.258 -0.806,2.121 -1.442,3.549 -0.623,1.443 -1.358,3.027 -2.419,5.077 -1.06,2.051 -3.153,6.152 -3.931,7.269 -0.792,1.103 -0.792,-0.071 -0.763,-0.538 0.028,-0.452 0.579,-1.484 0.905,-2.191 0.325,-0.708 0.678,-1.316 1.06,-2.037 0.382,-0.735 0.665,-1.216 1.216,-2.277 0.552,-1.06 1.57,-2.729 2.192,-4.157 0.637,-1.443 1.089,-2.673 1.669,-4.398 0.58,-1.711 1.357,-3.96 1.81,-5.897 0.467,-1.951 0.707,-3.846 0.99,-5.713 0.283,-1.867 0.509,-3.832 0.679,-5.501 0.183,-1.654 0.155,-3.776 0.381,-4.539 z"
           style="fill:#100f0d;fill-opacity:1;fill-rule:nonzero;stroke:none"
           id="path270-8" /></g><g
         id="g272"
         transform="translate(72.1994,229.5643)"><path
           d="m 0,0 c 0.212,-1.527 -0.042,-6.547 -0.071,-8.697 -0.028,-2.149 0.029,-2.955 -0.07,-4.157 -0.114,-1.217 -0.283,-2.15 -0.609,-3.112 -0.325,-0.961 -1.088,-2.389 -1.442,-2.644 -0.354,-0.254 -0.679,0.58 -0.679,1.061 0,0.481 0.396,1.188 0.608,1.81 0.198,0.636 0.495,1.216 0.594,1.965 0.113,0.764 0.057,1.443 0.085,2.659 0.028,1.202 0.028,2.673 0.071,4.61 0.056,1.952 -0.099,5.954 0.155,7.042 z"
           style="fill:#100f0d;fill-opacity:1;fill-rule:nonzero;stroke:none"
           id="path274" /></g><g
         id="g276"
         transform="translate(78.4074,230.328)"><path
           d="m 0,0 c 0.226,-0.99 0.198,-4.37 0.226,-6.519 0.029,-2.15 0.156,-5.36 -0.07,-6.364 -0.227,-1.018 -1.132,-0.452 -1.372,0.227 -0.226,0.678 -0.071,2.799 -0.071,3.86 v 2.574 2.658 c 0,0.934 -0.127,2.447 0.071,3.027 z"
           style="fill:#100f0d;fill-opacity:1;fill-rule:nonzero;stroke:none"
           id="path278" /></g><g
         id="g280"
         transform="translate(80.2316,231.4451)"><path
           d="m 0,0 c 0.226,-0.735 0.255,-3.861 0.297,-5.586 0.057,-1.711 0.156,-3.974 -0.071,-4.709 -0.226,-0.763 -1.145,-0.353 -1.371,0.156 -0.227,0.495 -0.071,2.093 -0.071,2.87 v 1.924 1.937 c 0,0.749 -0.198,2.022 0,2.574 z"
           style="fill:#100f0d;fill-opacity:1;fill-rule:nonzero;stroke:none"
           id="path282" /></g></g><path
       d="m 341.02867,376.60073 1.29938,-2.80165 1.50227,-2.25098 2.04812,-1.84524 2.32342,-1.43463 2.73404,-1.2994 2.93691,-0.82116 3.13978,-0.68109 3.82571,-0.0677 3.34749,0.13517 3.96095,0.82118 3.75809,1.1593 4.09622,1.7776 3.82569,1.70515 4.10106,2.18818 3.75325,2.1882 3.82569,2.11572 1.16415,0.34297 1.02405,0.13518 0.82118,-0.20771 -0.75355,-0.95642 -3.75809,-2.93691 -3.8257,-2.86928 -4.16384,-2.39106 -3.96097,-1.98048 -4.16866,-1.98048 -3.89333,-1.29456 -3.89334,-0.95644 -3.89333,-0.55065 h -4.37154 l -4.16867,0.55065 -3.27988,1.15932 -2.59394,1.91286 -2.45869,1.98047 -1.98048,2.52631 -1.36701,3.21225 -1.2994,3.14462 z"
       style="fill:#100f0d;fill-opacity:1;fill-rule:nonzero;stroke:none;stroke-width:4.83044"
       id="path286" /><path
       d="m 341.02867,376.60073 1.29938,-2.80165 1.50227,-2.25098 2.04812,-1.84524 2.32342,-1.43463 2.73404,-1.2994 2.93691,-0.82116 3.13978,-0.68109 3.82571,-0.0677 3.34749,0.13517 3.96095,0.82118 3.75809,1.1593 4.09622,1.7776 3.82569,1.70515 4.10106,2.18818 3.75325,2.1882 3.82569,2.11572 1.16415,0.34297 1.02405,0.13518 0.82118,-0.20771 -0.75355,-0.95642 -3.75809,-2.93691 -3.8257,-2.86928 -4.16384,-2.39106 -3.96097,-1.98048 -4.16866,-1.98048 -3.89333,-1.29456 -3.89334,-0.95644 -3.89333,-0.55065 h -4.37154 l -4.16867,0.55065 -3.27988,1.15932 -2.59394,1.91286 -2.45869,1.98047 -1.98048,2.52631 -1.36701,3.21225 -1.2994,3.14462 z"
       style="fill:none;stroke:#100f0d;stroke-width:4.5551;stroke-linecap:round;stroke-linejoin:round;stroke-miterlimit:10;stroke-dasharray:none;stroke-opacity:1"
       id="path290" /><path
       d="m 245.60143,472.36948 10.99891,11.4095 7.03311,-3.27986 7.78667,-5.1251 -2.86928,-10.58832 3.00936,-2.45871 2.66157,-3.4151 10.72359,3.21224 5.05745,-6.83025 3.61801,-7.78667 -8.26488,-8.06199 1.43463,-3.55037 0.8888,-4.37156 11.06655,-2.32343 0.74871,-7.78666 -0.61347,-9.42902 -11.20179,-2.52633 -0.61345,-4.16866 -1.50227,-3.89333 8.19725,-8.40014 -3.27988,-6.97032 -5.12508,-7.30845 -10.72358,3.41512 -2.59395,-2.93691 -3.48757,-2.86928 3.00936,-10.99408 -6.69498,-4.37155 -7.65141,-4.16866 -8.06201,8.26488 -4.02858,-1.43465 -3.89333,-0.47821 -2.80166,-11.20179 -8.40013,-0.61345 -8.54023,0.33812 -2.73401,11.20662 -4.23148,0.88397 -3.75807,1.43463 -8.33252,-8.53538 -7.44852,3.27504 -6.89787,4.51163 3.14462,11.88288 -3.62283,3.00936 -2.25582,3.07216 -11.81525,-3.89334 -4.98501,7.1732 -3.41512,6.83025 9.14885,8.87835 -1.56989,4.16866 -0.61347,4.37154 4.78213,1.84524 6.76262,-18.51508 17.9644,-17.9644 21.58722,-7.92191 31.69252,6.35202 18.51023,17.55381 7.79151,27.3258 -6.35687,27.79917 -18.98845,18.51507 z"
       style="fill:#100f0d;fill-opacity:1;fill-rule:nonzero;stroke:none;stroke-width:4.83044"
       id="path294" /><path
       d="m 245.60143,472.36948 10.99891,11.4095 7.03311,-3.27986 7.78667,-5.1251 -2.86928,-10.58832 3.00936,-2.45871 2.66157,-3.4151 10.72359,3.21224 5.05745,-6.83025 3.61801,-7.78667 -8.26488,-8.06199 1.43463,-3.55037 0.8888,-4.37156 11.06655,-2.32343 0.74871,-7.78666 -0.61347,-9.42902 -11.20179,-2.52633 -0.61345,-4.16866 -1.50227,-3.89333 8.19725,-8.40014 -3.27988,-6.97032 -5.12508,-7.30845 -10.72358,3.41512 -2.59395,-2.93691 -3.48757,-2.86928 3.00936,-10.99408 -6.69498,-4.37155 -7.65141,-4.16866 -8.06201,8.26488 -4.02858,-1.43465 -3.89333,-0.47821 -2.80166,-11.20179 -8.40013,-0.61345 -8.54023,0.33812 -2.73401,11.20662 -4.23148,0.88397 -3.75807,1.43463 -8.33252,-8.53538 -7.44852,3.27504 -6.89787,4.51163 3.14462,11.88288 -3.62283,3.00936 -2.25582,3.07216 -11.81525,-3.89334 -4.98501,7.1732 -3.41512,6.83025 9.14885,8.87835 -1.56989,4.16866 -0.61347,4.37154 4.78213,1.84524 6.76262,-18.51508 17.9644,-17.9644 21.58722,-7.92191 31.69252,6.35202 18.51023,17.55381 7.79151,27.3258 -6.35687,27.79917 -18.98845,18.51507 z"
       style="fill:none;stroke:#100f0d;stroke-width:0.425079;stroke-linecap:round;stroke-linejoin:round;stroke-miterlimit:10;stroke-dasharray:none;stroke-opacity:1"
       id="path298" /><g
       id="g302"
       clip-path="url(#clipPath306)"
       transform="matrix(4.8304383,0,0,4.8304383,2.1787392,-751.42157)"><g
         id="g308"
         transform="translate(36.5916,240.9622)"><path
           d="m 0,0 c 0.608,-4.525 3.988,-8.145 8.4,-9.008 5.741,-1.131 11.313,2.659 12.458,8.485 1.075,5.416 -2.078,10.747 -7.282,12.317"
           style="fill:none;stroke:#100f0d;stroke-width:1.149;stroke-linecap:butt;stroke-linejoin:round;stroke-miterlimit:10;stroke-dasharray:none;stroke-opacity:1"
           id="path310" /></g></g><path
       d="m 366.71259,568.27493 1.43465,1.98049 1.91285,2.11572 2.0481,1.70998 2.0481,1.29938 2.32344,0.61347 2.45871,-0.2077 2.2558,-0.81635 1.91286,-1.09168 1.43465,-1.70998 1.02404,-2.18336 0.20288,-2.53115 -0.20288,-3.00452 -0.41059,-2.18336 -0.20287,-1.23176 1.22693,-0.8888 1.84523,-0.20288 1.91284,-0.41059 1.84524,-0.8888 1.63752,-1.29938 1.64234,-2.11574 0.81635,-2.80165 0.47821,-3.61799 -0.47821,-2.1882 -0.81635,-1.91286 -1.43463,-2.11572 -1.64235,-0.8888 -2.25098,-0.41059 -1.70998,-0.68109 0.41059,-1.91285 0.41059,-2.32345 0.20286,-2.80165 -0.41058,-2.11574 -1.02405,-1.7776 -1.63752,-1.50226 -3.07699,-0.82118 -2.31862,0.20771 -2.05292,0.61347 -1.84041,1.50226 -1.70997,2.18819 -1.63751,2.11574 -1.02406,0.41058 -1.84522,-1.02405 -1.29939,-1.50227 -1.43464,-1.70998 -1.43465,-1.50226 -2.0481,-1.50227 -2.93691,-0.8888 -3.07698,0.20771 -2.52633,1.29456 -2.0481,1.29938 -2.04812,2.39107 -0.82115,2.52633 -0.41059,2.80165 0.41059,2.80165 1.02404,2.31861 1.23176,1.70997 2.04812,1.9805 2.11572,1.70997 1.23176,1.29454 -0.61347,1.02406 -1.91285,1.29939 -2.05293,1.91285 -1.63753,2.39107 -1.02404,3.61801 0.20287,3.21224 0.82117,2.59877 1.02406,1.70515 1.23177,2.39107 2.11572,0.82117 2.04811,0.41057 2.45869,-0.2077 2.32345,-0.61346 1.84523,-1.09168 z"
       style="fill:#ee2e21;fill-opacity:1;fill-rule:nonzero;stroke:none;stroke-width:4.83044"
       id="path314" /><path
       d="m 366.71259,568.27493 1.43465,1.98049 1.91285,2.11572 2.0481,1.70998 2.0481,1.29938 2.32344,0.61347 2.45871,-0.2077 2.2558,-0.81635 1.91286,-1.09168 1.43465,-1.70998 1.02404,-2.18336 0.20288,-2.53115 -0.20288,-3.00452 -0.41059,-2.18336 -0.20287,-1.23176 1.22693,-0.8888 1.84523,-0.20288 1.91284,-0.41059 1.84524,-0.8888 1.63752,-1.29938 1.64234,-2.11574 0.81635,-2.80165 0.47821,-3.61799 -0.47821,-2.1882 -0.81635,-1.91286 -1.43463,-2.11572 -1.64235,-0.8888 -2.25098,-0.41059 -1.70998,-0.68109 0.41059,-1.91285 0.41059,-2.32345 0.20286,-2.80165 -0.41058,-2.11574 -1.02405,-1.7776 -1.63752,-1.50226 -3.07699,-0.82118 -2.31862,0.20771 -2.05292,0.61347 -1.84041,1.50226 -1.70997,2.18819 -1.63751,2.11574 -1.02406,0.41058 -1.84522,-1.02405 -1.29939,-1.50227 -1.43464,-1.70998 -1.43465,-1.50226 -2.0481,-1.50227 -2.93691,-0.8888 -3.07698,0.20771 -2.52633,1.29456 -2.0481,1.29938 -2.04812,2.39107 -0.82115,2.52633 -0.41059,2.80165 0.41059,2.80165 1.02404,2.31861 1.23176,1.70997 2.04812,1.9805 2.11572,1.70997 1.23176,1.29454 -0.61347,1.02406 -1.91285,1.29939 -2.05293,1.91285 -1.63753,2.39107 -1.02404,3.61801 0.20287,3.21224 0.82117,2.59877 1.02406,1.70515 1.23177,2.39107 2.11572,0.82117 2.04811,0.41057 2.45869,-0.2077 2.32345,-0.61346 1.84523,-1.09168 z"
       style="fill:none;stroke:#100f0d;stroke-width:1.70997;stroke-linecap:round;stroke-linejoin:round;stroke-miterlimit:10;stroke-dasharray:none;stroke-opacity:1"
       id="path318" /><g
       id="g322"
       clip-path="url(#clipPath326)"
       transform="matrix(4.8304383,0,0,4.8304383,2.1787392,-751.42157)"><g
         id="g328"
         transform="translate(76.7104,270.4467)"><path
           d="m 0,0 c -0.537,0 -0.976,-0.453 -0.976,-1.004 0,-0.566 0.439,-1.018 0.976,-1.018 0.537,0 0.99,0.452 0.99,1.018 C 0.99,-0.453 0.537,0 0,0"
           style="fill:#100f0d;fill-opacity:1;fill-rule:nonzero;stroke:none"
           id="path330" /></g><g
         id="g332"
         transform="translate(76.7104,270.4467)"><path
           d="m 0,0 c -0.537,0 -0.976,-0.453 -0.976,-1.004 0,-0.566 0.439,-1.018 0.976,-1.018 0.537,0 0.99,0.452 0.99,1.018 C 0.99,-0.453 0.537,0 0,0 Z"
           style="fill:none;stroke:#100f0d;stroke-width:0.354;stroke-linecap:round;stroke-linejoin:round;stroke-miterlimit:10;stroke-dasharray:none;stroke-opacity:1"
           id="path334" /></g></g></g></svg>
