<?xml version="1.0" encoding="UTF-8"?>
<svg xmlns="http://www.w3.org/2000/svg" xmlns:svg="http://www.w3.org/2000/svg" xmlns:sodipodi="http://sodipodi.sourceforge.net/DTD/sodipodi-0.dtd" xmlns:rdf="http://www.w3.org/1999/02/22-rdf-syntax-ns#" xmlns:inkscape="http://www.inkscape.org/namespaces/inkscape" xmlns:dc="http://purl.org/dc/elements/1.1/" xmlns:cc="http://creativecommons.org/ns#" version="1.1" viewBox="0 0 59.7 76.5">
  <!-- Generator: Adobe Illustrator 30.3.0, SVG Export Plug-In . SVG Version: 2.1.3 Build 182)  -->
  <defs>
    <style>
      .st0 {
        fill: #452f0d;
      }
    </style>
  </defs>
  <g id="svg2" inkscape:version="0.92.3 (2405546, 2018-03-11)" sodipodi:docname="CohavYairZurYigal.svg">
    <sodipodi:namedview id="namedview4" bordercolor="#666666" borderopacity="1" fit-margin-bottom="0" fit-margin-left="0" fit-margin-right="0" fit-margin-top="0" gridtolerance="10" guidetolerance="10" inkscape:current-layer="g10" inkscape:cx="230.23108" inkscape:cy="153.6226" inkscape:pageopacity="0" inkscape:pageshadow="2" inkscape:window-height="1001" inkscape:window-maximized="1" inkscape:window-width="1920" inkscape:window-x="-9" inkscape:window-y="-9" inkscape:zoom="1.7688479" objecttolerance="10" pagecolor="#ffffff" showgrid="false"/>
    <g>
      <path id="path574" class="st0" d="M31.9,25s-.4.8-1.8.8c-1.4,0-1.7-.5-2.2.1-.5.6-.3.9-.3.9,0,0-.7-1.3.5-2,.6-.2,1.1-.2,1.5-.2.3,0,.6-.1,1-.5.4-.4.7-.7.7-.7l.7,1.6Z" inkscape:connector-curvature="0"/>
      <path id="path578" class="st0" d="M34.1,27.5s-.1.9-1.4,1.3c-1.3.4-1.8,0-2.1.8-.3.7,0,1,0,1,0,0-1.1-1-.1-2.1.6-.4,1-.5,1.3-.6.3-.1.5-.3.8-.8.2-.5.4-.9.4-.9l1.2,1.3Z" inkscape:connector-curvature="0"/>
      <path id="path582" class="st0" d="M36.8,29.1s.3.9-.8,1.8c-1.1.9-1.6.8-1.6,1.6,0,.8.4.9.4.9,0,0-1.4-.5-1-1.9.4-.5.7-.9,1-1.1.2-.2.3-.5.4-1,0-.6,0-1,0-1l1.6.7Z" inkscape:connector-curvature="0"/>
      <path id="path586" class="st0" d="M40.4,29.2s.5.8-.2,1.9c-.7,1.2-1.3,1.3-1,2,.3.7.7.8.7.8,0,0-1.5,0-1.5-1.5.2-.6.4-1.1.6-1.4.2-.3.2-.6,0-1.1-.2-.5-.3-.9-.3-.9l1.7.2Z" inkscape:connector-curvature="0"/>
      <path id="path590" class="st0" d="M43.3,28.3s.8.4.7,1.8c-.1,1.4-.6,1.7,0,2.2.6.5.9.4.9.4,0,0-1.4.6-2-.6-.1-.7-.1-1.1-.1-1.5,0-.3-.1-.6-.5-1-.4-.4-.6-.7-.6-.7l1.6-.6Z" inkscape:connector-curvature="0"/>
      <path id="path594" class="st0" d="M45.7,26.2s.9,0,1.4,1.4c.4,1.3.2,1.8.9,2,.7.3,1,0,1,0,0,0-1,1.1-2.1.2-.4-.5-.6-1-.7-1.3-.2-.3-.3-.5-.8-.7-.5-.2-.9-.4-.9-.4l1.2-1.2Z" inkscape:connector-curvature="0"/>
      <path id="path598" class="st0" d="M47.3,23.2s.9-.2,1.7.9c.8,1.1.7,1.6,1.5,1.7.8,0,1-.3,1-.3,0,0-.6,1.4-1.9.8-.5-.4-.8-.8-1.1-1-.2-.3-.5-.4-1-.4-.5,0-1-.1-1-.1l.8-1.5Z" inkscape:connector-curvature="0"/>
      <path id="path602" class="st0" d="M39.8,11.7c-.2-.5-.2-.7,0-1,.1-.3.3-.8.5-1.4-.1-1.4-1.6-1.4-1.6-1.4,0,0,.4,0,.7.7.3.7-.2.8-.8,2.1-.2.5-.3.8-.3,1.1.4,0,.7-.1,1.1-.1h.5Z" inkscape:connector-curvature="0"/>
      <path id="path606" class="st0" d="M35.7,11.3c0-.4,0-.8-.2-1.5-.7-1.2-2-.6-2-.6,0,0,.4-.2.9.4.6.5.2.8,0,2.2,0,.5,0,.9.2,1.1.5-.3,1-.5,1.5-.7-.4-.4-.5-.6-.5-1" inkscape:connector-curvature="0"/>
      <path id="path610" class="st0" d="M33.1,14.1c-.4-.2-.6-.4-.7-.7-.1-.3-.3-.8-.6-1.3-1.1-.9-2.1.1-2.1.1,0,0,.3-.3,1,0,.7.3.4.7.8,2.1.1.5.3.7.5,1,.3-.4.7-.8,1.1-1.2" inkscape:connector-curvature="0"/>
      <path id="path614" class="st0" d="M30,16.6c-.3-.2-.6-.6-1.1-1-1.4-.4-1.9,1-1.9,1,0,0,.1-.4.9-.4.8,0,.7.5,1.6,1.6.3.4.6.6.9.7.1-.5.3-1,.6-1.5-.5,0-.8-.1-1-.4" inkscape:connector-curvature="0"/>
      <path id="path618" class="st0" d="M30.1,20.5c-.5.2-.8.2-1.1,0-.3-.1-.8-.3-1.4-.4-1.4.2-1.3,1.6-1.3,1.6,0,0,0-.4.7-.7.7-.3.8.2,2.1.8.5.2.8.3,1.1.2,0-.4-.1-.8-.1-1.2v-.4Z" inkscape:connector-curvature="0"/>
      <path id="path622" class="st0" d="M51.6,21c-.7.3-.8-.2-2.1-.9-.5-.2-.8-.3-1.1-.3,0,.4.1.7.1,1.1v.5c.4-.2.7-.2,1,0,.3.1.8.3,1.4.5,1.4-.1,1.4-1.6,1.4-1.6,0,0,0,.4-.7.7" inkscape:connector-curvature="0"/>
      <path id="path626" class="st0" d="M48.9,17.4c.3,0,.8,0,1.5-.1,1.3-.6.7-2,.7-2,0,0,.1.4-.4.9-.5.6-.8.1-2.2,0-.5,0-.8,0-1.1.1.3.5.5.9.7,1.5.3-.3.6-.4.9-.4" inkscape:connector-curvature="0"/>
      <path id="path630" class="st0" d="M46.1,14.8c.2-.4.4-.6.7-.7.3-.1.8-.3,1.3-.7.9-1.1-.2-2.1-.2-2.1,0,0,.3.3,0,1-.3.7-.7.5-2,.9-.4.1-.7.3-.9.5.4.3.8.7,1.2,1.1" inkscape:connector-curvature="0"/>
      <path id="path634" class="st0" d="M43.6,11.7c.3-.2.6-.6,1-1.1.5-1.3-.9-1.9-.9-1.9,0,0,.4.2.4.9,0,.8-.5.7-1.6,1.5-.4.3-.6.6-.7.9.5.1,1,.3,1.5.5,0-.4.2-.7.4-.9" inkscape:connector-curvature="0"/>
      <path id="path638" class="st0" d="M47.8,17.9c.2.6.4,1.2.4,1.9h.2c0-.7-.2-1.4-.5-2.1h0c0,0,0,.2,0,.2Z" inkscape:connector-curvature="0"/>
      <path id="path642" class="st0" d="M30.4,20.4c0-.6.1-1.2.3-1.8h-.2c-.2.6-.3,1.2-.3,1.9h0s.2,0,.2,0Z" inkscape:connector-curvature="0"/>
      <path id="path646" class="st0" d="M48.3,21.5c-.3,4.7-4.2,8.4-8.9,8.4s-8.3-3.4-8.9-7.8h-.2c.6,4.5,4.4,8,9.1,8s8.9-3.9,9.2-8.7h0s-.2,0-.2,0Z" inkscape:connector-curvature="0"/>
      <path id="path650" class="st0" d="M39.9,12c.6,0,1.1.1,1.7.3v-.2c-.5-.2-1.1-.3-1.8-.3h0s0,.2,0,.2Z" inkscape:connector-curvature="0"/>
      <path id="path654" class="st0" d="M36.3,12.5c.6-.2,1.2-.4,1.9-.4v-.2c-.7,0-1.4.2-2,.5h0s.2.2.2.2Z" inkscape:connector-curvature="0"/>
      <path id="path658" class="st0" d="M43.2,12.8c.6.3,1.1.6,1.6,1l.2-.2c-.5-.4-1.1-.8-1.8-1.1h0c0,.1,0,.2,0,.2Z" inkscape:connector-curvature="0"/>
      <path id="path662" class="st0" d="M31.3,17c.3-.5.6-1,.9-1.5l-.2-.2c-.4.5-.7,1.1-1,1.7h0s.2,0,.2,0Z" inkscape:connector-curvature="0"/>
      <path id="path666" class="st0" d="M33.3,14.2c.5-.4.9-.8,1.5-1.1v-.2c-.7.3-1.2.7-1.7,1.1h.1c0,0,0,.1,0,.1Z" inkscape:connector-curvature="0"/>
      <path id="path670" class="st0" d="M46,15c.4.4.7.9,1,1.4h.2c-.3-.6-.7-1.2-1.1-1.6h0c0,0,0,.2,0,.2Z" inkscape:connector-curvature="0"/>
      <path id="path674" class="st0" d="M39.3,11.9c.2,0,.4,0,.6,0v-.2c0,0,0,0,0,0h-.5c-.4,0-.7,0-1.1,0v.2c.4,0,.7-.1,1.1-.1" inkscape:connector-curvature="0"/>
      <path id="path678" class="st0" d="M36.3,12.5l-.2-.2h0c-.5.2-1,.4-1.5.7v.2c.6-.3,1.1-.5,1.6-.7" inkscape:connector-curvature="0"/>
      <path id="path682" class="st0" d="M33.3,14.2h0s-.1-.1-.1-.1c-.4.4-.8.8-1.1,1.2l.2.2c.3-.4.7-.9,1.1-1.2" inkscape:connector-curvature="0"/>
      <path id="path686" class="st0" d="M31.3,17h-.2s0,0,0,0c-.2.5-.4,1-.6,1.5h.2c.1-.5.3-1,.6-1.5" inkscape:connector-curvature="0"/>
      <path id="path690" class="st0" d="M30.3,20.9v-.5s-.2,0-.2,0h0s0,.4,0,.4c0,.4,0,.8.1,1.2h.2c0-.4-.1-.8-.1-1.2" inkscape:connector-curvature="0"/>
      <path id="path694" class="st0" d="M48.4,19.8h-.2c0,.4.1.7.1,1.1s0,.4,0,.6h.2c0,0,0,0,0,0v-.5c0-.4,0-.7,0-1.1" inkscape:connector-curvature="0"/>
      <path id="path698" class="st0" d="M47.8,17.9h0c0,0,0-.2,0-.2-.2-.5-.4-1-.7-1.5h-.2c.3.6.5,1.1.7,1.6" inkscape:connector-curvature="0"/>
      <path id="path702" class="st0" d="M46,15h0c0-.1,0-.2,0-.2-.4-.4-.8-.8-1.2-1.1l-.2.2c.4.3.9.7,1.2,1.2" inkscape:connector-curvature="0"/>
      <path id="path706" class="st0" d="M43.2,12.8h0c0,0,0-.2,0-.2-.5-.2-1-.4-1.5-.5v.2c.4.1,1,.3,1.5.6" inkscape:connector-curvature="0"/>
      <path id="path710" class="st0" d="M46.9,16.5h.2c-.3-.6-.6-1.1-1-1.5v.2c.2.4.5.8.8,1.3" inkscape:connector-curvature="0"/>
      <path id="path714" class="st0" d="M38.2,12.3v-.2c-.7,0-1.3.2-1.9.4l.2.2c.6-.2,1.1-.3,1.7-.4" inkscape:connector-curvature="0"/>
      <path id="path718" class="st0" d="M30.9,18.6h-.2c-.2.5-.3,1.2-.3,1.8h.2c0-.7.1-1.2.3-1.8" inkscape:connector-curvature="0"/>
      <path id="path722" class="st0" d="M39.3,29.7c-4.4,0-8.1-3.3-8.6-7.6h-.2c.6,4.4,4.3,7.8,8.9,7.8s8.6-3.7,8.9-8.4h-.2c-.4,4.6-4.1,8.2-8.7,8.2" inkscape:connector-curvature="0"/>
      <path id="path726" class="st0" d="M32.4,15.6h-.2c-.4.3-.7.8-.9,1.4h.3c.2-.5.5-.9.9-1.4" inkscape:connector-curvature="0"/>
      <path id="path730" class="st0" d="M44.7,14l.2-.2c-.5-.4-1.1-.7-1.6-1v.3c.5.3,1,.6,1.5,1" inkscape:connector-curvature="0"/>
      <path id="path734" class="st0" d="M47.6,18.1c.2.6.3,1.2.4,1.8h.2c0-.7-.2-1.3-.4-2l-.2.2Z" inkscape:connector-curvature="0"/>
      <path id="path738" class="st0" d="M41.5,12.5v-.2c-.5-.1-1.1-.2-1.6-.3v.2c.6,0,1.1.1,1.6.3" inkscape:connector-curvature="0"/>
      <path id="path742" class="st0" d="M34.9,13.4v-.2c-.7.3-1.1.7-1.6,1.1h.2c.4-.3.9-.6,1.4-.9" inkscape:connector-curvature="0"/>
      <path id="path746" class="st0" d="M39.3,12.1c.2,0,.4,0,.7,0v-.2c-.3,0-.5,0-.7,0-.4,0-.7,0-1.1.1v.2c.4,0,.8-.1,1.1-.1" inkscape:connector-curvature="0"/>
      <path id="path750" class="st0" d="M36.5,12.6l-.2-.2c-.5.2-1.1.4-1.5.7v.2c.6-.3,1.2-.5,1.7-.7" inkscape:connector-curvature="0"/>
      <path id="path754" class="st0" d="M32.4,15.6c.4-.5.7-.9,1.2-1.3h-.2c-.4.3-.8.7-1.1,1.1h.2Z" inkscape:connector-curvature="0"/>
      <path id="path758" class="st0" d="M31.5,17h-.3c-.2.5-.4,1-.6,1.6h.2c.2-.5.4-1.1.6-1.6" inkscape:connector-curvature="0"/>
      <path id="path762" class="st0" d="M30.6,20.9c0-.2,0-.4,0-.6h-.2c0,0,0,.6,0,.6,0,.4,0,.8.1,1.2h.2c0-.4-.1-.8-.1-1.2" inkscape:connector-curvature="0"/>
      <path id="path766" class="st0" d="M48.1,20.9c0,.2,0,.5,0,.7h.2c0-.3,0-.5,0-.7,0-.4,0-.7-.1-1.1h-.2c0,.4.1.7.1,1.1" inkscape:connector-curvature="0"/>
      <path id="path770" class="st0" d="M47.6,18.1l.2-.2c-.2-.5-.4-1-.7-1.5h-.2c.3.6.5,1.1.7,1.7" inkscape:connector-curvature="0"/>
      <path id="path774" class="st0" d="M45.9,15.2v-.2c-.3-.4-.7-.8-1.1-1.2l-.2.2c.5.4.9.8,1.3,1.2" inkscape:connector-curvature="0"/>
      <path id="path778" class="st0" d="M43.2,13.1v-.3c-.5-.2-1-.4-1.5-.6v.2c.5.1,1,.3,1.5.6" inkscape:connector-curvature="0"/>
      <path id="path782" class="st0" d="M40.9,16.4h3.6s-1.7-2.5-1.7-2.5l-1.9,2.5ZM44.1,18.5h-.9v-1.2h.9v1.2ZM42.3,18.5h-.9v-1.2h.9v1.2ZM40.2,19.6c-.3.1-.6.3-.9.4v-1h.9v.6ZM48.3,20.9v-.4c-.9-.8-2.2-1.3-3.8-1.5v-2.5h-3.6v2.8h-.3c0,0,0-1.4,0-1.4h-1.9v2.3h-.2c-.3,0-.6-.3-1-.4v-.3h.3c.2,0,0-.4,0-.4,0,0,.2,0,.3-.3,0-.3-.2-.4-.2-.4,0,0,.2-.3.2-.6,0-.3-.5-.2-.5-.2,0,0,0-.2-.3-.2-.3,0-.4.3-.4.3,0,0-.2-.2-.4,0-.3.3.1.6.1.6,0,0-.2,0-.2.3-.2.5.5.5.5.5,0,0,0,.1,0,.3,0,.2.4,0,.4,0h0s0,.2,0,.2c-.6-.2-1.2-.4-1.9-.4v-.9h.6c.4,0,0-.7,0-.7,0,0,.4-.1.5-.6,0-.5-.4-.7-.4-.7,0,0,.4-.5.3-1-.1-.5-.9-.3-.9-.3,0,0,0-.3-.5-.4-.5-.2-.8.6-.8.6,0,0-.3-.3-.7,0-.5.5.3,1.1.3,1.1,0,0-.4,0-.4.5-.3.9.8.9.8.9,0,0-.2.2,0,.6.1.4.7,0,.7,0h.1c0,0,0,.9,0,.9h-.3c-1.8,0-3.3.5-4.3,1.3v.3c0,1.6.4,3,1.1,4.3h.1s0,0,0,0c1.6,2.7,4.5,4.6,7.8,4.6,5,0,9-4,9-9" inkscape:connector-curvature="0"/>
      <path id="path786" class="st0" d="M45.9,56.8c0-.6-.3-.8-.9-.8h-.4c-.3,0-.6.2-.7.5v.3h-.1v-.5c-.1,0-.2-.2-.2-.2l-.4-.3h0s-.3.6-.3.6h0c0,0,.5.3.5.3v.2c.1,0,.2.3.2.3h0c0,.1-.5,1.9-.5,1.9h.6c0-.1.2-.3.2-.3l.4-1.6c0-.2.1-.4.2-.4h.4c0-.1,0-.1,0-.1h.4c0,.2.1.4.1.6l.2,1.2h-1.1s-.2.6-.2.6h0c0,0,1.5,0,1.5,0l.2-.2v-.2c0,0,.1-.4.1-.4v-1.5ZM42.4,56.5v-.3c-.1,0-.9-.5-.9-.5h0s-.4.6-.4.6h0c0,0,.6.4.6.4v.2c0,0,0,2.1,0,2.1h0l.4-.2v-.2c.1,0,.1-2.2.1-2.2ZM40.8,56.4h-.1c0-.1-.7-.6-.7-.6h-.1s-.3.5-.3.5h0c0,0,.5.4.5.4h0c0,.1-.1.8-.1.8,0,.3-.1.5-.2.6l-.3.2h-.2c0,0-.1-1.8-.1-1.8v-.2c-.1,0-.7-.5-.7-.5h0l-.4.5h0c0,0,.5.4.5.4h0c0,.1.3,1.8.3,1.8l-.7.2h0c0,.1,0,.7,0,.7h0c.6-.2,1-.3,1.4-.4.4-.1.6-.3.8-.4.2-.2.3-.4.4-.7l.4-1.3h0ZM37.5,56.4l-.2-.2-.6-.4h0l-.3.5h0c0,0,.4.3.4.3h0c0,.1,0,.3,0,.3,0,.3-.2.4-.3.5-.2-.2-.4-.6-.4-1v-.2c-.1,0-.7-.4-.7-.4h-.1s-.3.6-.3.6h0c0,0,.5.4.5.4v.2c.2.3.4.6.6.8.2.3.4.5.6.6h-1.4s-.2.6-.2.6h0c0,0,2.2,0,2.2,0v-.3c.1,0,.2-.2.2-.2v-.2c-.5-.3-.7-.5-.7-.6.3-.2.6-.5.7-.9l.2-.4h0ZM32.7,57.3h0l-.4.2v.2c-.1,0-.1,1.4-.1,1.4h0l.4-.2v-.2c.1,0,.1-1.4.1-1.4ZM34.4,56.5c0-.2,0-.4-.2-.5,0,0-.3-.1-.5-.1h-1.4s-.1-.1-.1-.1h0s-.3.6-.3.6h0c0,0,0,.1,0,.1h.3c0,.1,1.3.1,1.3.1.2,0,.3,0,.3.3v2.1h0l.4-.2v-.2c.1,0,.1-2.1.1-2.1ZM30.1,56.8c0-.6-.3-.8-.9-.8h-.4c-.3,0-.6.2-.7.5v.3h-.1v-.5c-.1,0-.3-.2-.3-.2l-.4-.3h0s-.3.6-.3.6h0c0,0,.5.3.5.3v.2c.1,0,.2.3.2.3h0c0,.1-.5,1.9-.5,1.9h.6c0-.1.1-.3.1-.3l.4-1.6c0-.2.1-.4.2-.4h.4c0-.1,0-.1,0-.1h.4c0,.2.1.4.1.6l.2,1.2h-1.1s-.2.6-.2.6h0c0,0,1.5,0,1.5,0l.2-.2v-.2c0,0,.1-.4.1-.4v-1.5ZM24.6,57.1h0l-.4.2v.2c-.1,0-.1,2.5-.1,2.5h0l.5-.3v-.2c0,0,0-2.4,0-2.4ZM26.6,56.1l-.2-.2h-2.1c0,0-.2-.1-.2-.1h0s-.3.6-.3.6h0c0,0,.1.1.1.1h.3c0,.1,1.6.1,1.6.1h0c0,0,0,.9,0,.9,0,.3-.1.4-.3.5l-.4.2h-.1c0,.1,0,.8,0,.8h0s.6-.3.6-.3c.3-.1.4-.3.6-.5.1-.2.2-.4.3-.8l.2-1.2h0ZM23.3,56.5v-.3c-.1,0-.9-.5-.9-.5h-.1s-.4.6-.4.6h0c0,0,.6.4.6.4v.2c0,0,0,2.1,0,2.1h0l.4-.2v-.2c.1,0,.1-2.2.1-2.2ZM21.6,56.8c0-.6-.3-.8-.9-.8h-.4c-.4,0-.6.2-.7.5v.3h-.1v-.5c-.1,0-.3-.2-.3-.2l-.4-.3h0s-.3.6-.3.6h0c0,0,.5.3.5.3v.2c.1,0,.2.3.2.3h0c0,.1-.5,1.9-.5,1.9h.6c0-.1.2-.3.2-.3l.4-1.6c0-.2.1-.4.2-.4h.4c0-.1,0-.1,0-.1h.4c0,.2.1.4.1.6l.2,1.2h-1.1s-.2.6-.2.6h0c0,0,1.5,0,1.5,0l.2-.2v-.2c0,0,.2-.4.2-.4v-1.5ZM18.2,56.5v-.2c-.1,0-.9-.6-.9-.6h-.1s-.3.6-.3.6h0c0,0,.6.4.6.4v.2c0,0,0,.2,0,.2-.1.4-.2.6-.3.8h0s.3,0,.3,0h.2c0,0,.2-.3.2-.3l.4-.9h0ZM16.4,56.5c0-.2,0-.4-.2-.5-.1,0-.3-.1-.5-.1h-1.8c0,0-.1-.1-.1-.1h0s-.3.6-.3.6h0c0,0,0,.1,0,.1,0,0,.3.1.5.1h.1,0c0,0,0,.5,0,.5v1.3s-.4,0-.4,0h0c0,0-.2.6-.2.6h0c0,0,1,0,1,0h.2c0-.1.1-.5.1-.5v-.2s-.1-1.5-.1-1.5v-.2h1.2s.1.3.1.3v2.1h0l.4-.2v-.2c.1,0,.1-2.1.1-2.1Z" inkscape:connector-curvature="0"/>
      <path id="path790" class="st0" d="M25.6,21.5l-.2-.4-1.4-1h-.2s-.6,1-.6,1h0c0,.1.9.7.9.7v.4c.1,0,0,.4,0,.4-.2.6-.4,1.1-.5,1.3h.1c0,0,.4-.2.4-.2l.3-.2.3-.4.6-1.5v-.2ZM22.4,21.5l-.2-.3-1.2-.8h-.2s-.7.9-.7.9h0c0,.1,1.2.7,1.2.7v.3c.1,0,.3.8.3.8,0,.2,0,.4-.3.6l-1,.8v.2c-.1,0-.4,1.4-.4,1.4h.2l.9-.8c.3-.2.5-.5.6-.7l.2-.4h0s.3,1.8.3,1.8h0l.7-.5v-.2c0,0-.4-3.7-.4-3.7ZM18.7,23.9c-.2-.2-.4-.4-.5-.5.4-.3.7-.7.9-1.3l.3-.6v-.3c0,0-1.1-.8-1.1-.8h-.1c0,0-.1,0-.1,0l-.5.9h0c0,0,.6.6.6.6h0c0,0,0,.2,0,.2v.3c-.2.2-.3.4-.4.5-.6-.6-1-1-1.3-1.3-.7-.6-1.1-1-1.2-1.3h0l-.7.8h0c.3.5.7.8.9,1l.3.3c-.5.4-.8,1-.9,1.6v.9c-.1,0-.2.4-.2.4v.4c-.1,0,0,.1,0,.1h1.5c0-.1.3-1,.3-1h0c0-.1-.6-.1-.6-.1h0c0,0,0-.7,0-.7,0-.5.2-.9.5-1.1.3.3.6.6.8.8.3.3.7.8,1.2,1.4.2.3.4.6.6.9h0l.6-.8v-.2c-.2-.3-.4-.6-.8-1M13.5,20.5h-2.6v-.2c0,0,0-1.7,0-1.7h0c0,0,0,0,0,0l-1.1.2.2,2.7v.2h2.5c0,.1-.1,1.6-.1,1.6,0,.2,0,.4-.2.6-.1.1-.3.3-.7.4l-.5.2v.2c-.1,0-.4,1.2-.4,1.2h.2l1-.6c.4-.2.7-.4.9-.6.3-.3.5-.7.6-1.3l.4-2.6c0-.2,0-.3-.2-.3" inkscape:connector-curvature="0"/>
      <path id="path794" class="st0" d="M25.5,14.4l-.3-.3-1-.7h-.1l-.6.9h0c0,.1.7.6.7.6v.2c0,0,0,.2,0,.2-.2.4-.4.7-.6.8-.4-.4-.6-.9-.7-1.7l-.2-.3-1-.7h-.2s-.5.9-.5.9h0c0,.1.9.7.9.7l.2.3c.2.5.4,1,.8,1.4.3.4.7.8,1.1,1.1h-2.4c0,0-.3,1-.3,1h0c0,.1,3.7.1,3.7.1l.2-.6v-.3c0,0-.1-.3-.1-.3-.6-.6-1-.9-1.1-1.1.5-.4,1-.8,1.2-1.5l.3-.7h0ZM20.3,14.6c0-.2,0-.4-.2-.5l-1.2-.8h-.2s-.6,1-.6,1h0c0,.1,1.1.7,1.1.7v.3c.1,0,.1,3.7.1,3.7h.2l.7-.3.2-.3v-3.7ZM17.4,14.7c0-.7-.4-1.1-1.1-1.1h-1.7c0,0-.2-.2-.2-.2h-.1s-.5,1-.5,1h0c0,.1.2.3.2.3l.4.2h1.4c.4,0,.5.2.5.5v3.6h.1l.7-.3.2-.3v-3.6Z" inkscape:connector-curvature="0"/>
      <path id="path798" class="st0" d="M49.1,46.8l-.2-.4-1.4-1h-.2s-.6,1-.6,1h0c0,.1.9.7.9.7v.4c.1,0,0,.4,0,.4-.2.6-.4,1.1-.5,1.3h.1c0,0,.4-.2.4-.2l.3-.2.3-.4.6-1.5v-.2ZM45.6,49.2c-.2-.2-.4-.4-.5-.5.4-.3.7-.7.9-1.3l.3-.6v-.3c0,0-1.1-.8-1.1-.8h-.1c0,0-.1,0-.1,0l-.5.9h0c0,.1.6.6.6.6h0c0,0,0,.2,0,.2v.3c-.2.2-.3.4-.4.5-.6-.6-1-1-1.3-1.3-.7-.6-1.1-1-1.3-1.3h0l-.7.8h0c.3.5.7.8.9,1l.3.3c-.5.4-.8,1-.9,1.6v.9c0,0-.2.4-.2.4v.4c-.1,0,0,.1,0,.1h1.3l.2-.2.3-.9h0c0-.1-.6-.1-.6-.1h0c0,0,0-.7,0-.7,0-.5.2-.9.4-1.1.3.3.6.6.8.8.3.3.7.8,1.2,1.4.2.3.4.6.6.9h0l.6-.8v-.2c-.2-.3-.4-.6-.8-1M40.8,46.8l-.2-.4-1.4-1h-.2s-.6,1-.6,1h0c0,.1.9.7.9.7l.2.4v.4c-.3.6-.5,1.1-.6,1.3h.1c0,0,.4-.2.4-.2l.3-.2.3-.4.6-1.5v-.2ZM37.8,46.9c0-.7-.4-1.1-1.1-1.1h-1.6c0,0-.2-.2-.2-.2h-.1s-.5,1-.5,1h0c0,.1.2.3.2.3l.4.2h1.4c.4,0,.5.2.5.5v3.6h.1l.7-.3.2-.3v-3.6Z" inkscape:connector-curvature="0"/>
      <path id="path802" class="st0" d="M49.8,40.5c0-.6-.1-1-.4-1.3-.2-.2-.7-.3-1.2-.3h-1.2c0-.1-.2-.2-.2-.2h-.1s-.5,1-.5,1h0c0,.1.1.2.1.2l.2.2h.3c0,0,.9,0,.9,0,.4,0,.7,0,.8.2.1.2.2.4.3.9v.7c0,0,0,.2,0,.2,0,.6-.3.9-.9.9h-1.5c0,0-.3,1-.3,1h0c0,.1,1.8.1,1.8.1.7,0,1.1-.3,1.5-.8.2-.3.3-.9.3-1.6v-1.3ZM45.4,39.9c0-.2,0-.4-.2-.5l-1.2-.8h-.2s-.6,1-.6,1h0c0,0,1.1.7,1.1.7v.3c.1,0,.1,3.7.1,3.7h.1l.7-.3.2-.3v-3.7ZM42.6,40.5c0-.6-.1-1-.4-1.3-.3-.2-.7-.3-1.2-.3h-1.2c0-.1-.2-.2-.2-.2h-.1s-.5,1-.5,1h0c0,.1.1.2.1.2l.2.2h.3c0,0,.9,0,.9,0,.4,0,.7,0,.8.2.1.2.2.4.3.9v.7c0,0,0,.2,0,.2,0,.6-.3.9-.9.9h-1.5c0,0-.3,1-.3,1h0c0,.1,1.8.1,1.8.1.7,0,1.1-.3,1.5-.8.2-.3.3-.9.3-1.6v-1.3ZM38.5,43h-.5v-3.1c0-.4,0-.7-.2-.8-.2-.1-.4-.2-.8-.2h-1.7c0,0-.2-.2-.2-.2h-.1s-.5,1-.5,1h0c0,.1.2.3.2.3l.4.2h1.8c0,.1,0,.5,0,.5v2.4h-2.4c0,0-.3,1-.3,1h0c0,.1,3.8.1,3.8.1h.2c0-.1.3-1,.3-1h0Z" inkscape:connector-curvature="0"/>
      <path id="path806" class="st0" d="M29.8,76.5h0c-.3-.1-27.7-9.7-27.7-27.6s.1-4.6.3-7c.4-7.4,1-15.8-2.4-32.4,0-2.2,4.7-2.4,6-2.4C7,3.1,29.6,0,29.8,0s22.9,3.1,23.8,7c1.3,0,6,.2,6,2.4-3.3,16.6-2.8,25-2.4,32.4.2,2.4.3,4.6.3,7,0,18-27.4,27.5-27.7,27.6h0ZM6.1,7.5c-2.1,0-5.7.4-5.7,1.9,3.3,16.6,2.8,25,2.4,32.5-.2,2.4-.3,4.6-.3,7,0,17.2,25.6,26.5,27.3,27.1,1.6-.6,27.3-10,27.3-27.1s-.1-4.6-.3-7c-.5-7.4-1-15.9,2.4-32.5,0-1.5-3.6-1.9-5.7-1.9h-.3s0-.2,0-.2c0-2.9-17.3-5.9-23.4-6.7-6.1.8-23.3,3.9-23.4,6.7v.2s-.3,0-.3,0Z" inkscape:connector-curvature="0"/>
      <path id="path810" class="st0" d="M3,10c3.1,16.2,2.6,24.5,2.2,31.9-.1,2.3-.3,4.5-.3,6.8,0,14.3,20.3,23,24.9,24.7,4.6-1.8,24.9-10.4,24.9-24.7s-.1-4.5-.3-6.8c-.5-7.4-1-15.8,2.2-31.9-.7-.2-1.9-.3-3.1-.3h-2.1s-.4-.1-.4-.1l-.2-.3v-1.4c-2-1.4-11.5-3.7-21-5.1-9.5,1.3-19.1,3.7-21,5.1v1.4s-.2.3-.2.3h-.4c0,.1-2.1.1-2.1.1-1.3,0-2.4.2-3.1.3M29.8,74.6h-.2c-4.3-1.7-25.7-10.6-25.7-25.8s.1-4.5.3-6.9c.5-7.4,1-15.8-2.2-32.1,0-.2,0-.5.3-.5.8-.3,2.4-.5,3.9-.5h1.6s0-1.1,0-1.1l.2-.3c1.9-1.7,12.8-4.2,21.8-5.5h.2c9,1.3,19.9,3.7,21.8,5.5l.2.3v1.2s1.6,0,1.6,0c1.5,0,3.1.2,3.9.5.2,0,.4.3.3.5-3.2,16.3-2.7,24.7-2.3,32.1.1,2.4.3,4.6.3,6.9,0,15.2-21.4,24.1-25.7,25.7h-.2Z" inkscape:connector-curvature="0"/>
      <path id="path814" class="st0" d="M17.4,27.5h0c1,2.1,1.9,4.3,2.9,6.4.1.3.2.6.4.8.5.1,1,0,1.5,0,1.3,0,2.8,0,4.2,0h.3c.3,0-.1.3-.3.5l-.5.6-.5.6-.3.3v.2c0,0-.2,0-.2,0-.7.7-1.4,1.5-2,2.2h0c0,.1.1.4.1.4v.2c0,0,.2.1.2.1v.5c.1,0,.3.1.3.1v.2c0,0,.3.4.3.4v.4c.1,0,.3.1.3.1,0,.1.1.4.2.6h0c0,0,0,.2,0,.2v.2c0,0,.2.1.2.1h0c0,.1,0,.2,0,.2v.4c.1,0,.3.1.3.1v.5c.1,0,.3.1.3.1v.4c.3.3.4.5.5.8-3-1.2-5.8-2.4-8.8-3.6-.3.1-.7.3-1,.4l-.5.2-.5.2h0c0,0,0,0,0,0l-.4.2h-.4c0,.1,0,.2,0,.2h-.1c-.2.2-.4.2-.7.3h0c0,0,0,0,0,0l-.4.2h-.4c0,.1,0,.2,0,.2h-.3c0,.1-.5.3-.5.3l-.5.2-.5.2h0c-.3.2-.6.3-.9.5v-.5c.1-.3.3-.7.4-1,.1-.3.2-.6.3-1h0c0-.1,0-.3,0-.3v-.2c0,0,.1-.1.1-.1v-.2c0,0,.1-.2.1-.2v-.2c.2-.1.2-.4.3-.6h0c0-.4.2-.6.3-.8v-.3c.1,0,.3-.3.3-.3h-.1c0-.1,0-.3,0-.3h-.2c0,0,0-.3,0-.3-.3-.4-.7-.6-1.1-1l-.2-.3-.3-.2c-.7-.7-1.4-1.5-2.1-2.2h0c1.9-.2,3.8-.2,5.8-.2h.2c0-.1,0-.4,0-.4h0c0,0,.2-.4.2-.4.3-.6.6-1.2,1-1.8h0c0,0,.1-.3.1-.3h0c0,0,0-.3,0-.3h.1c0,0,.2-.6.2-.6v-.2c.1,0,.2,0,.2,0v-.3c0,0,.1,0,.1,0v-.2c.1,0,.3-.3.3-.3h0c0,0,0-.3,0-.3h.1c0,0,.2-.6.2-.6v-.2c.1,0,.3-.4.3-.4v-.2c.1,0,.3-.3.3-.3l.2-.3Z" inkscape:connector-curvature="0"/>
      <path id="path818" class="st0" d="M32.5,44.1c0,.2-.2.3-.3.5l-.4.4-.4.4-.3.4v5.4h-3.2v-4.1c0-.5.1-1.2,0-1.6h-.1c0-.1,0-.3,0-.3h-.1c0-.1,0-.4,0-.4h-.1c0-.1,0-.3,0-.3h-.1c0-.1,0-.4,0-.4h-.1c0-.1,0-.3,0-.3h-.1c0-.1,0-.3,0-.3h-.1c0-.1-.1-.6-.1-.6h0c0,0,0-.2,0-.2h-.1c0-.1-.1-.6-.1-.6h0c0,0,0-.2,0-.2h-.1c0-.1,0-.3,0-.3h-.1c0-.1,0-.4,0-.4h-.1c0-.1,0-.3,0-.3h-.1c0-.1-.1-.6-.1-.6h-.1c0-.1,0-.3,0-.3.1-.3.4-.5.7-.8.2-.2.5-.5.7-.7.5-.5,1.1-1,1.6-1.5h0c0,0,.1.1.1.1l.3.5v.3c.1,0,.3,0,.3,0h0c0,.1.2.3.2.3h0c0,.1.1.2.1.2l.3.5h0c0,0,.1.2.1.2v.3c0,0,.3.2.3.2.1.2.3.5.4.7h.1c0,0,.1.4.1.4l.2.2h0c0,.1.1.2.1.2l.3.5.2.2h0c0,.1.1.2.1.2v.3c0,0,.3.1.3.1h0c0,.1,0,.1,0,.1h0c0,.1.1.3.1.3l.3.6.2.2h0c0,.1.1.3.1.3l.2.3Z" inkscape:connector-curvature="0"/>
      <path id="path822" class="st0" d="M26,47v2.1c0,.7,0,1.4,0,2H9.5c-.1-.3,0-.7,0-1,0-1,0-2.2,0-3.2,2.5-1.1,4.9-2.2,7.4-3.4.3,0,.7.2,1,.3h.3c0,0,0,.1,0,.1h.3c0,.1.1.1.1.1h.3c0,.1,0,.2,0,.2h0c.4.1,1.1.4,1.5.6h.3c0,0,0,.1,0,.1h.5c0,.1,0,.2,0,.2h.4c0,.1.1.1.1.1h.3c0,.1,0,.2,0,.2h.1c.4.2.8.3,1.2.5.7.3,1.5.6,2.2.9" inkscape:connector-curvature="0"/>
      <path id="path824" class="st0" d="M13.4,61.3h32.3v-.6H13.4v.6Z" inkscape:connector-curvature="0"/>
      <path id="path826" class="st0" d="M9.5,54.1h40.1v-.6H9.5v.6Z" inkscape:connector-curvature="0"/>
      <path id="path828" class="st0" d="M14.9,63.4h29.3v-.6H14.9v.6Z" inkscape:connector-curvature="0"/>
      <path id="path830" class="st0" d="M18.4,65.5h22.3v-.6h-22.3v.6Z" inkscape:connector-curvature="0"/>
      <path id="path832" class="st0" d="M21.9,67.6h15.3v-.6h-15.3v.6Z" inkscape:connector-curvature="0"/>
      <path id="path834" class="st0" d="M25.4,69.6h8.4v-.6h-8.4v.6Z" inkscape:connector-curvature="0"/>
      <path id="path836" class="st0" d="M28.2,71.7h2.8v-.6h-2.8v.6Z" inkscape:connector-curvature="0"/>
    </g>
  </g>
</svg>