<?xml version="1.0" encoding="utf-8"?>
<!-- Generator: Adobe Illustrator 15.1.0, SVG Export Plug-In . SVG Version: 6.00 Build 0)  -->
<!DOCTYPE svg PUBLIC "-//W3C//DTD SVG 1.1//EN" "http://www.w3.org/Graphics/SVG/1.1/DTD/svg11.dtd">
<svg version="1.1" id="Layer_1" xmlns="http://www.w3.org/2000/svg" xmlns:xlink="http://www.w3.org/1999/xlink" x="0px" y="0px"
	 width="292.917px" height="355.362px" viewBox="0 0 292.917 355.362" enable-background="new 0 0 292.917 355.362"
	 xml:space="preserve">
<g>
	<g>
		<linearGradient id="SVGID_1_" gradientUnits="userSpaceOnUse" x1="146.2495" y1="1" x2="146.2495" y2="252.0005">
			<stop  offset="0" style="stop-color:#98C2E0"/>
			<stop  offset="1" style="stop-color:#FBFEFF"/>
		</linearGradient>
		<rect x="1" y="1" fill="url(#SVGID_1_)" width="290.5" height="251"/>
		<path fill="#231F20" d="M292.5,253H0V0h292.5V253z M2,251h288.5V2H2V251z"/>
	</g>
	<path fill="#231F20" d="M146.656,354.848l-0.116-0.027c-0.673-0.16-67.514-16.025-85.945-18.658
		c-17.587-2.513-59.762-20.42-59.762-49.828V1.167h291.645v285.167c0,29.408-42.174,47.315-59.762,49.828
		c-18.432,2.633-85.272,18.498-85.945,18.658L146.656,354.848z M1.833,2.167v284.167c0,28.791,41.569,46.361,58.904,48.838
		c18.113,2.588,82.751,17.896,85.919,18.648c3.168-0.752,67.806-16.061,85.92-18.648c17.334-2.477,58.902-20.047,58.902-48.838
		V2.167H1.833z"/>
	<path fill="#5A6A6E" d="M206.5,203.409c0-7.982,0.312-16.12-0.361-24.059c-0.56-6.587-0.81-13.001-2.2-19.568
		c-1.281-6.045-3.069-12.028-4.3-18.056c-1.581-7.741-0.653-17.19-0.639-25.17c0.003-1.673,0.498-4.722-0.307-6.249
		c-0.467-0.887-1.731-1.069-2.399-1.857c-0.811-0.955-0.756-1.947-1.782-2.756c-0.961-0.758-3.184-0.815-3.841-1.876
		c-1.001-1.617,0.181-5.909-0.465-8.028c-3.629,0.07-8.4-3.424-10.637,0.643c-1.339,2.435-0.531,3.843-4.076,3.574
		c-1.562-0.119-3.618-0.669-3.52-2.47c-5.751-0.479-10.674-1.39-11.717-7.875c-0.646-4.016-0.801-5.497-4.396-7.779
		c-1.842-1.169-2.491-1.762-4.523-1.435c-1.419,0.228-2.828,1.797-4.123,1.827c-1.398,0.032-2.694-1.517-3.926-2.08
		c-1.797-0.821-3.805-1.394-5.726-1.638c-3.155-0.402-6.562-0.031-9.055,1.813c-6.235,4.611-9.447,9.896-17.751,9.881
		c-3.549-0.007-7.497-1.792-9.693-4.348c-1.659-1.929-2.335-6.851-5.275-6.864c-0.077,2.135,2.577,8.298-0.332,9.473
		c-2.55,1.029-4.794-3.59-6.343-4.704c-1.484-1.067-2.156-1.106-4.088-1.02c-0.031,2.743,4.071,12.121-0.896,13.273
		c-3.75,0.87-1.341-3.647-3.605-4.321c-2.18-0.649-3.076,2.78-3.311,4.168c-1.405,0.178-4.786,0.482-5.968-0.432
		c-2.175-1.683-0.585-6.557-3.193-7.941c-0.791,2.092-2.161,4.015-4.557,3.979c-2.087-0.031-4.163-0.973-4.756-2.967
		c0.055,4.208,0.116,8.906-0.933,12.973c-0.784,3.041-3.456,4.259-5.761,6.506c-2.388,2.329-4.518,3.6-3.232,7.225
		c1.036,2.918,0.99,5.586,4.129,6.743c2.799,1.031,6.986,0.657,3.854,3.937c-2.288,2.396-5.879,1.191-8.908,2.21
		c-2.703,0.909-3.779,3.091-3.139,6.123c0.52,2.461,2.66,3.18,5.001,4.049c2.863,1.063,6.317,1.158,8.762,2.987
		c2.06,1.541,3.881,4.159,0.556,5.714c-2.502,1.17-5.854-0.364-8.37-0.525c-2.589-0.167-6.639-0.095-8.654-1.968
		c-0.177,2.758,0.14,5.608-0.288,8.306c-0.525,3.316-3.01,5.308-4.737,8.119c1.312,1.096,4.486,2.156,4.997,3.807
		c0.652,2.109-1.616,4.174-2.578,5.431c-2.616,3.42-4.665,10.634,1.031,12.917c0.228,1.219,0.823,1.583,0.78,2.919
		c-0.03,0.917-0.813,1.425-0.816,1.899c-0.012,1.96,1.111,1.725,2.079,3.638c2.15,4.253-0.621,5.605-3.736,7.001
		c1.401,1.031,0.621,2.36,1.023,3.888c0.466,1.77,1.79,4.339,2.896,5.763c2.061,2.652,5.268,2.287,6.166,6.018
		c1.972-1.426,5.297-4.14,7.845-3.725c2.93,0.478,5,4.729,8.293,5c1.995,0.164,5.122-0.089,7.945-1
		c5.618-1.812,11.167-5.742,16.868-2.681c3.227,1.733,8.497,5.15,12.083,2.449c2.788-2.1,4.36-7.099,7.562-8.485
		c0.217,3.068,3.247,5.385,4.549,8.16c1.439,3.066,1.43,5.125,0.181,8.101c-0.805,1.918-1.191,4.012-1.675,5.95
		c-0.5,2.004-0.952,2.244-2.18,3.568c-1.887,2.035-4.861,4.427-4.289,7.65c1.408,1.043,1.763,3.016,1.169,4.749
		c-2.405,0.126-5.262,0.339-7.657,0.036c-1.202-0.151-5.958-3.075-6.518-2.521c-0.497,0.491,1.062,5.433,1.211,6.23
		c0.407,2.178,1.523,3.867,0.713,6.254c2.225,1.039,2.808,1.789,12.931,1.789c10.196,0,20.413-0.008,30.581-0.494
		c5.416-0.259,10.656-1.005,16.112-1.006c6.711-0.001,13.422,0,20.132,0c9.155,0,18.363,0.637,27.499,0.217
		c0.034-3.894,0.966-7.503,0.745-11.435c-2.815-0.121-5.607,0.725-6.712-2.276c-1.383-3.757-1.5-7.441-5.205-9.992
		c-0.123,2.123,0.411,3.269,1.011,5.236c0.667,2.188,0.198,3.035-0.056,5.238c-0.292,2.529-0.048,3.878-3.263,3.261
		c-1.937-0.372-2.589-1.826-4.23-2.255c-2.066-0.539-4.343,1.193-6.037,1.762c-2.413,0.81-5.024,0.587-7.288-0.2
		c-1.651-0.574-3.731-1.668-5.524-1.999c-2.433-0.449-5.152,0.043-7.619-0.095c-0.845-4.157,0.653-9.074-0.465-13.124
		c-4.068,0.94-4.719-1.304-7.78-2.556c-0.3,5.438-0.27,10.735-0.581,16.185c-2.233,0.103-5.021,0.646-6.28-1.405
		c-1.398-2.279-0.423-6.005-1.495-8.534c-2.205,2.06-2.497,3.051-2.938,5.973c-0.313,2.073-0.628,3.635-2.902,4.217
		c-0.791-1.895-2.875-5.253-4.561-6.197c-0.089,1.783,0.021,3.618-0.076,5.4c-8.668-1.002-6.711-11.984-6.711-18.487
		c0-4.128,1.531-7.35,3.013-11.207c1.088-2.831,3.552-5.001,4.781-7.945c2.174,0.303,3.735,1.952,5.199,3.414
		c1.21,1.208,2.889,4.675,4.234,5.317c4.075,1.948,3.514-2.629,4.019-4.554c0.82-3.125,3.196-2.51,5.815-3.114
		c1.171,1.573-0.61,5.574,1.092,6.387c0.052-0.188,0.036-0.521,0.129-0.688c3.064-0.858,6.701-4.698,9.78-2.424
		c3.343,2.468,2.036,5.594,7.45,4.637c2.045-0.361,4.599-1.06,6.031-2.199c1.594-1.269,2.051-4.187,3.501-5.194
		c4.783-3.326,2.374,7.668,6.169,5.601c0.089-1.799-0.435-3.425,1.22-4.224c1.784-0.862,3.684,0.558,4.636,1.748
		c1.633,2.04,2.396,6.615,5.176,7.524c1.211,0.396,2.858-0.118,4.131,0.164c0.894,0.197,2.08,1.137,2.925,1.08
		C207.688,217.227,206.5,206.739,206.5,203.409z M94.25,102.75c-1.625-1.75,6.125-3.875,6.125-3.875s0.875,3.375,0.75,4
		S95.875,104.5,94.25,102.75z M106.625,201c-4.25,1.375-8.375-4.75-8.375-4.75s2.25-3.375,5.375-3.375s7.875,2.75,7.875,2.75
		S110.875,199.625,106.625,201z M128.667,247.167c1.167-0.334,3,0.999,3,1.666s0.333,1.834,0.333,1.834h-5.5
		C126.5,250.667,127.5,247.501,128.667,247.167z M118.125,104l0.625-4.25c0,0,6.75,2,6.375,4S118.125,104,118.125,104z
		 M142.75,189.25c-3.375,0-4.75-2-4.75-2s-1.75-3-0.75-4.5s7.75-6,9.5-8.875s7.5-5.5,9.25-3.625s3,4,2.125,6.75s0,5.5-4.375,8.5
		S146.125,189.25,142.75,189.25z M182.75,202.625c0,0-3.25,0.625-5.375-0.5s-3.625-1.625-5.875-1s-4.125,2.5-8.125,2.5
		s-5.625-2.875-5.625-5.375s0.125-2.5-2.75-2.5s-8.25-0.25-6.75-2.875c0,0,3-0.875,6.875-5.375s6.625-9.5,10.25-9.875
		s7.375,2,6.75,3.375s-1.75,3-1.75,3s1.5,0.875,0.25,3.125s-5.75,6.125-5.75,6.125s0.75,1,3.875,1s2.75-1.125,7.5-1.125
		s6.5,3.875,6.5,5.625S182.75,202.625,182.75,202.625z"/>
	<path fill="#231F20" d="M292,252.5H0.5V0.5H292V252.5z M1.5,251.5H291V1.5H1.5V251.5z"/>
	<g>
		<linearGradient id="SVGID_2_" gradientUnits="userSpaceOnUse" x1="146.5835" y1="354.334" x2="146.5835" y2="41.5">
			<stop  offset="0" style="stop-color:#E6C4A0"/>
			<stop  offset="0.4785" style="stop-color:#FAFBEC"/>
			<stop  offset="1" style="stop-color:#DFB17E"/>
		</linearGradient>
		<path fill="url(#SVGID_2_)" d="M146.656,354.334c0,0,67.636-16.209,90.136-19.584s55.125-23.75,55.125-49.125s0-244.125,0-244.125
			s-3.751,0-7.083,0c-3.334,0-23.334,6.333-23.334,22.667s0,183.502,0,198.835s-3.5,33.501-24.5,39.167
			s-90.417,19.499-90.417,19.499s-69.417-13.833-90.417-19.499s-24.5-23.834-24.5-39.167s0-182.501,0-198.835
			S11.667,41.5,8.333,41.5s-7.083,0-7.083,0s0,218.75,0,244.125s32.625,45.75,55.125,49.125S146.656,354.334,146.656,354.334z"/>
		<path fill="#231F20" d="M146.657,355.362l-0.233-0.056c-0.678-0.162-67.997-16.237-90.197-19.567
			C32.853,332.232,0.25,311.472,0.25,285.625V40.5h8.083c3.61,0,24.333,6.524,24.333,23.667v198.835
			c0,13.647,2.463,32.455,23.761,38.201c20.181,5.445,86.056,18.626,90.156,19.445c4.1-0.819,69.975-14,90.156-19.445
			c21.298-5.746,23.761-24.554,23.761-38.201V64.166c0-17.142,20.724-23.667,24.334-23.667h8.083v245.125
			c0,25.847-32.603,46.607-55.977,50.114c-22.2,3.33-89.375,19.405-90.051,19.567L146.657,355.362z M2.25,42.5v243.125
			c0,24.415,32.145,44.816,54.273,48.136c21.625,3.244,85.736,18.497,90.133,19.545c4.395-1.05,68.363-16.301,89.987-19.545
			c22.129-3.319,54.273-23.721,54.273-48.136V42.5h-6.083c-3.184,0-22.334,6.244-22.334,21.667v198.835
			c0,22.423-8.256,35.55-25.239,40.133c-20.792,5.609-89.787,19.376-90.482,19.514l-0.195,0.039l-0.195-0.039
			c-0.695-0.138-69.69-13.904-90.481-19.514c-16.984-4.583-25.24-17.71-25.24-40.133V64.166c0-15.422-19.149-21.667-22.333-21.667
			H2.25z"/>
	</g>
	<g>
		<path fill="#231F20" d="M47.231,23.114c0-1.077,0.208-2.101,0.626-3.072c0.417-0.971,0.914-1.457,1.487-1.457
			c0.243,0,0.383,0.049,0.417,0.146c0.035,0.098,0.039,0.274,0.013,0.53c-0.026,0.256-0.021,0.446,0.013,0.569
			c0.035,0.248,0.139,0.45,0.313,0.609c0.174,0.159,0.348,0.238,0.522,0.238h16.311c0.936,0,1.421,0.6,1.457,1.801v3.813
			c0,0.353-0.088,0.574-0.265,0.662c-0.177,0.088-0.393,0.11-0.649,0.066c-0.256-0.044-0.569,0.049-0.938,0.278
			s-0.681,0.618-0.933,1.165c-0.523,1.024-0.829,2.255-0.919,3.694c-0.09,1.439-0.056,2.75,0.103,3.933
			c0.158,1.183,0.33,2.45,0.516,3.8s0.27,2.37,0.252,3.059c-0.092,1.712-0.581,2.993-1.467,3.84
			c-0.498,0.477-1.098,0.817-1.799,1.02s-1.144,0.137-1.329-0.199c-0.055-0.123-0.092-0.212-0.11-0.265
			c-0.019-0.053-0.015-0.119,0.011-0.199c0.026-0.079,0.069-0.247,0.131-0.503c0.061-0.256,0.113-0.578,0.156-0.967
			c0.043-0.388,0.083-1.006,0.118-1.854c0.035-0.848,0.061-1.81,0.079-2.887c0-0.088-0.022-0.662-0.065-1.721
			c-0.044-1.06-0.065-2.017-0.065-2.874c0-0.856,0.075-1.88,0.225-3.072c0.15-1.192,0.385-2.193,0.704-3.006
			c0.225-0.636,0.479-1.156,0.76-1.562c0.281-0.406,0.512-0.692,0.69-0.861c0.178-0.167,0.268-0.295,0.268-0.384
			c0-0.265-0.292-0.388-0.875-0.371c-0.053,0-0.097,0-0.132,0h-11.84c-1.305,0-2.261-0.322-2.87-0.967
			C47.535,25.476,47.231,24.474,47.231,23.114z"/>
		<path fill="#231F20" d="M71.833,23.114c0-1.077,0.201-2.101,0.603-3.072c0.402-0.971,0.884-1.457,1.449-1.457
			c0.241,0,0.384,0.049,0.427,0.146c0.043,0.098,0.047,0.274,0.011,0.53c-0.036,0.256-0.053,0.446-0.053,0.569
			c0.053,0.248,0.173,0.45,0.359,0.609c0.186,0.159,0.368,0.238,0.546,0.238h2.422c1.999,0,3.334,0.503,4.006,1.509
			s1.009,2.489,1.009,4.449c0,1.271,0.017,3.204,0.053,5.799c0.035,2.595,0.044,4.825,0.026,6.687
			c-0.018,1.863-0.053,3.686-0.106,5.468c-0.035,1.077-0.327,1.925-0.874,2.542c-0.547,0.618-1.086,0.927-1.616,0.927
			c-0.159,0-0.291-0.053-0.397-0.159s-0.159-0.229-0.159-0.371c0-2.083,0-5.001,0-8.752s0-6.219,0-7.402
			c0-0.688-0.009-1.196-0.027-1.523c-0.018-0.326-0.093-0.702-0.226-1.125c-0.133-0.423-0.328-0.732-0.586-0.927
			c-0.257-0.194-0.63-0.362-1.118-0.503s-1.087-0.212-1.796-0.212h-0.24c-1.264,0-2.199-0.322-2.805-0.967
			C72.136,25.476,71.833,24.474,71.833,23.114z"/>
		<path fill="#231F20" d="M86.253,9.238c0.176-2.013,0.512-3.019,1.006-3.019c0.247,0,0.477,0.159,0.688,0.477
			c0.212,0.318,0.475,0.539,0.788,0.662c0.208,0.053,0.587,0.124,1.135,0.212c0.548,0.088,0.991,0.229,1.33,0.424
			c0.338,0.194,0.614,0.521,0.828,0.98c0.302,0.388,0.378,0.922,0.227,1.602s-0.356,1.276-0.614,1.788
			c-0.258,0.512-0.548,1.174-0.868,1.986c-0.32,0.812-0.525,1.536-0.614,2.172c-0.036,0.724-0.053,1.395-0.053,2.013
			s0.277,1.13,0.832,1.536c0.555,0.407,1.395,0.609,2.521,0.609h11.159c0.936,0,1.571,0.115,1.907,0.344
			c0.335,0.229,0.635,0.715,0.9,1.457c0.265,0.671,0.445,1.84,0.543,3.509c0.097,1.668,0.083,2.944-0.04,3.827
			c-0.053,0.671-0.119,1.245-0.199,1.721c-0.079,0.477-0.225,1.09-0.437,1.841c-0.212,0.75-0.543,1.435-0.993,2.052
			c-0.45,0.618-1.011,1.157-1.682,1.615c-0.424,0.301-1.117,0.737-2.079,1.311s-1.73,1.046-2.304,1.417
			c-0.574,0.371-1.135,0.865-1.682,1.483c-0.547,0.618-0.9,1.262-1.06,1.933c-0.038,0.159,0,0.521,0.116,1.086
			c0.115,0.565,0.204,1.099,0.266,1.602c0.062,0.503-0.068,0.971-0.39,1.403c-0.321,0.433-0.895,0.667-1.721,0.702
			c-0.654,0.035-1.221-0.199-1.701-0.702c-0.48-0.503-0.749-1.099-0.807-1.787c-0.053-1.147,0.136-2.141,0.569-2.979
			c0.432-0.838,1.143-1.726,2.132-2.662c0.635-0.564,1.474-1.205,2.516-1.92c1.042-0.715,1.884-1.306,2.529-1.774
			c0.644-0.467,1.262-1.161,1.854-2.079c0.591-0.918,0.967-1.977,1.125-3.178c0.159-1.024,0.097-1.916-0.185-2.675
			c-0.283-0.759-0.812-1.139-1.589-1.139H88.603c-0.346,0-0.579-0.075-0.7-0.225c-0.121-0.15-0.199-0.437-0.233-0.861
			c-0.177-1.924-0.177-3.999,0-6.223c0.052-0.671,0.186-1.457,0.402-2.357s0.397-1.646,0.544-2.238
			c0.147-0.591,0.264-1.209,0.35-1.854c0.086-0.644,0.043-1.046-0.129-1.205c-0.173-0.335-0.51-0.583-1.01-0.742
			c-0.501-0.159-0.893-0.384-1.175-0.675C86.368,10.416,86.235,9.926,86.253,9.238z"/>
		<path fill="#231F20" d="M126.858,47.504c-0.097-0.194-0.084-0.477,0.04-0.847l1.218-4.688c0.053-0.247,0.141-0.406,0.265-0.477
			c0.124-0.07,0.353-0.106,0.688-0.106h1.774c0.353,0,0.645-0.04,0.874-0.119c0.229-0.08,0.375-0.208,0.437-0.384
			c0.062-0.176,0.093-0.318,0.093-0.424s-0.042-0.309-0.124-0.609c-0.082-0.3-0.123-0.485-0.123-0.556
			c-0.459-2.383-0.441-4.669,0.055-6.859c0.474-2.101,1.604-3.884,3.39-5.349h-0.79c-1.282,0-2.234-0.313-2.857-0.94
			c-0.624-0.626-0.936-1.619-0.936-2.979c0-1.06,0.193-2.087,0.579-3.085c0.386-0.997,0.864-1.496,1.435-1.496
			c0.218,0,0.351,0.049,0.396,0.146c0.045,0.098,0.055,0.256,0.027,0.477s-0.023,0.41,0.014,0.569
			c0.036,0.248,0.146,0.459,0.328,0.635c0.182,0.177,0.364,0.265,0.547,0.265h12.012c0.935,0,1.742,0.181,2.421,0.543
			c0.679,0.362,1.199,0.852,1.561,1.47c0.361,0.618,0.626,1.249,0.793,1.894c0.168,0.645,0.252,1.329,0.252,2.052
			c0,1.836-0.009,4.731-0.026,8.686c-0.018,3.955-0.026,6.647-0.026,8.077c0,1.413-0.089,2.393-0.265,2.939
			c-0.159,0.477-0.478,0.883-0.954,1.218c-0.477,0.335-0.909,0.503-1.297,0.503c-0.177,0-0.327-0.075-0.45-0.225
			c-0.124-0.149-0.186-0.313-0.186-0.49V30.794c0-1.359-0.296-2.317-0.888-2.874s-1.673-0.834-3.244-0.834h-3.231
			c-0.901,0-1.612,0.146-2.133,0.437c-0.521,0.291-1.082,0.825-1.682,1.602c-1.024,1.324-1.564,2.984-1.619,4.979
			c-0.036,1.183,0.123,2.64,0.479,4.37c0.355,1.73,0.533,3.24,0.533,4.528c0,1.501-0.355,2.825-1.066,3.973
			c-0.347,0.547-0.83,0.821-1.449,0.821h-6.004C127.242,47.796,126.955,47.699,126.858,47.504z"/>
		<path fill="#231F20" d="M155.04,23.114c0-1.077,0.204-2.101,0.615-3.072c0.41-0.971,0.889-1.457,1.436-1.457
			c0.239,0,0.382,0.049,0.426,0.146c0.044,0.098,0.048,0.274,0.013,0.53c-0.036,0.256-0.054,0.446-0.054,0.569
			c0.054,0.248,0.177,0.45,0.371,0.609c0.194,0.159,0.38,0.238,0.557,0.238h2.621c1.412,0,2.463,0.269,3.151,0.808
			s1.174,1.593,1.457,3.165c0.247,1.324,0.216,2.728-0.093,4.211c-0.31,1.483-0.853,2.79-1.629,3.919
			c-0.759,1.148-1.545,2.075-2.356,2.781c-0.812,0.707-1.475,0.794-1.986,0.265c-0.46-0.512-0.327-1.13,0.397-1.854
			c1.801-1.712,2.568-3.372,2.304-4.979c-0.089-0.6-0.357-1.068-0.808-1.404c-0.45-0.335-0.976-0.503-1.576-0.503h-1.139
			c-1.274,0-2.212-0.322-2.81-0.967C155.339,25.476,155.04,24.474,155.04,23.114z"/>
		<path fill="#231F20" d="M169.844,23.114c0-1.077,0.204-2.101,0.615-3.072c0.41-0.971,0.889-1.457,1.436-1.457
			c0.239,0,0.382,0.049,0.426,0.146c0.044,0.098,0.048,0.274,0.013,0.53c-0.036,0.256-0.054,0.446-0.054,0.569
			c0.054,0.248,0.177,0.45,0.371,0.609c0.194,0.159,0.38,0.238,0.557,0.238h2.621c1.412,0,2.463,0.269,3.151,0.808
			s1.174,1.593,1.457,3.165c0.247,1.324,0.216,2.728-0.093,4.211c-0.31,1.483-0.853,2.79-1.629,3.919
			c-0.759,1.148-1.545,2.075-2.356,2.781c-0.812,0.707-1.475,0.794-1.986,0.265c-0.46-0.512-0.327-1.13,0.397-1.854
			c1.801-1.712,2.568-3.372,2.304-4.979c-0.089-0.6-0.357-1.068-0.808-1.404c-0.45-0.335-0.976-0.503-1.576-0.503h-1.139
			c-1.274,0-2.212-0.322-2.81-0.967C170.143,25.476,169.844,24.474,169.844,23.114z"/>
		<path fill="#231F20" d="M184.7,23.167c0-1.06,0.203-2.087,0.609-3.085c0.405-0.997,0.909-1.496,1.509-1.496
			c0.212,0,0.34,0.049,0.385,0.146c0.043,0.098,0.048,0.256,0.013,0.477s-0.035,0.41,0,0.569c0.035,0.248,0.142,0.459,0.317,0.635
			c0.177,0.177,0.362,0.265,0.557,0.265h11.096c0.971,0,1.797,0.181,2.477,0.543s1.2,0.852,1.562,1.47
			c0.361,0.618,0.617,1.249,0.768,1.894s0.226,1.329,0.226,2.052c0,1.836,0,4.731,0,8.686c0,3.955,0,6.647,0,8.077
			c0,1.413-0.089,2.393-0.265,2.939c-0.177,0.477-0.499,0.883-0.967,1.218c-0.468,0.335-0.905,0.503-1.312,0.503
			c-0.177,0-0.326-0.075-0.45-0.225c-0.123-0.149-0.185-0.313-0.185-0.49V30.794c0-1.359-0.292-2.317-0.874-2.874
			c-0.583-0.556-1.678-0.834-3.284-0.834h-8.395c-1.324,0-2.287-0.313-2.887-0.94C185,25.52,184.7,24.527,184.7,23.167z"/>
		<path fill="#231F20" d="M207.688,23.114c0-1.077,0.204-2.101,0.615-3.072c0.41-0.971,0.889-1.457,1.436-1.457
			c0.239,0,0.382,0.049,0.426,0.146c0.044,0.098,0.048,0.274,0.013,0.53c-0.036,0.256-0.054,0.446-0.054,0.569
			c0.054,0.248,0.177,0.45,0.371,0.609c0.194,0.159,0.38,0.238,0.557,0.238h2.621c1.412,0,2.463,0.269,3.151,0.808
			s1.174,1.593,1.457,3.165c0.247,1.324,0.216,2.728-0.093,4.211c-0.31,1.483-0.853,2.79-1.629,3.919
			c-0.759,1.148-1.545,2.075-2.356,2.781c-0.812,0.707-1.475,0.794-1.986,0.265c-0.46-0.512-0.327-1.13,0.397-1.854
			c1.801-1.712,2.568-3.372,2.304-4.979c-0.089-0.6-0.357-1.068-0.808-1.404c-0.45-0.335-0.976-0.503-1.576-0.503h-1.139
			c-1.274,0-2.212-0.322-2.81-0.967C207.986,25.476,207.688,24.474,207.688,23.114z"/>
		<path fill="#231F20" d="M222.067,53.304l0.37-5.27c0.035-0.388,0.12-0.662,0.252-0.821c0.133-0.159,0.366-0.3,0.702-0.424
			l5.243-1.986c0.848-0.335,1.554-0.763,2.118-1.284c0.565-0.521,0.83-1.099,0.795-1.734c-0.053-0.547-0.208-1.055-0.464-1.523
			s-0.468-0.79-0.635-0.967c-0.168-0.176-0.473-0.477-0.914-0.9c-0.601-0.564-1.077-1.028-1.43-1.39
			c-0.354-0.362-0.711-0.838-1.073-1.43c-0.361-0.591-0.587-1.169-0.675-1.734c-0.089-0.565-0.049-1.355,0.119-2.37
			s0.313-1.801,0.437-2.357c0.124-0.556,0.106-1.046-0.053-1.47c-0.212-0.247-0.671-0.446-1.377-0.596
			c-0.706-0.149-1.201-0.295-1.483-0.437c-0.988-0.565-1.482-1.712-1.482-3.443c0-1.06,0.202-2.087,0.609-3.085
			c0.405-0.997,0.908-1.496,1.509-1.496c0.212,0,0.34,0.049,0.384,0.146c0.044,0.098,0.054,0.256,0.027,0.477
			c-0.027,0.221-0.022,0.41,0.013,0.569c0.053,0.459,0.335,0.741,0.848,0.847c0.424,0.089,1.063,0.172,1.92,0.252
			c0.856,0.079,1.549,0.216,2.079,0.41c0.529,0.194,1.006,0.547,1.43,1.06c0.353,0.459,0.561,1.32,0.622,2.582
			s-0.128,2.237-0.569,2.926c-0.088,0.124-0.406,0.079-0.953-0.133c-0.548-0.211-0.944-0.22-1.191-0.026
			c-0.248,0.159-0.397,0.662-0.45,1.51c-0.053,0.847,0.053,1.668,0.317,2.463c0.177,0.477,0.561,1.011,1.152,1.602
			c0.591,0.592,1.183,1.223,1.774,1.894c0.591,0.671,1.002,1.403,1.231,2.198c0.459,1.413,0.459,3.01,0,4.793
			c0.759-0.512,1.311-1.147,1.655-1.907c0.344-0.759,0.661-1.682,0.953-2.768c0.291-1.085,0.631-2,1.02-2.741
			c0.388-0.777,0.9-1.642,1.536-2.595c0.635-0.954,1.112-1.708,1.43-2.264s0.477-1.063,0.477-1.523
			c-0.034-0.3-0.159-0.547-0.374-0.742c-0.216-0.194-0.487-0.309-0.813-0.344c-1.412-0.088-2.437-0.454-3.074-1.099
			c-0.637-0.645-0.955-1.646-0.955-3.006c0-1.06,0.197-2.087,0.594-3.085c0.396-0.997,0.886-1.496,1.471-1.496
			c0.206,0,0.331,0.049,0.374,0.146c0.043,0.098,0.052,0.256,0.026,0.477c-0.026,0.221-0.021,0.41,0.013,0.569
			c0.034,0.335,0.188,0.583,0.465,0.741c0.274,0.159,0.546,0.256,0.812,0.292c0.267,0.036,0.632,0.071,1.097,0.106
			c0.086,0,0.154,0,0.206,0c3.066,0.124,4.7,1.28,4.899,3.469c0.053,0.6,0.003,1.165-0.15,1.695
			c-0.154,0.53-0.322,0.931-0.503,1.205c-0.182,0.274-0.477,0.648-0.886,1.125c-0.409,0.477-0.686,0.838-0.829,1.085
			c-0.559,0.777-1.055,1.748-1.487,2.913s-0.757,2.176-0.973,3.032c-0.217,0.856-0.505,2.141-0.865,3.853
			c-0.036,0.053-0.089,0.265-0.159,0.636s-0.115,0.592-0.132,0.662c-0.019,0.071-0.066,0.265-0.146,0.583
			c-0.079,0.318-0.132,0.53-0.158,0.636s-0.08,0.3-0.159,0.583c-0.079,0.283-0.15,0.495-0.212,0.636s-0.128,0.322-0.198,0.542
			c-0.071,0.221-0.15,0.415-0.238,0.583c-0.089,0.168-0.186,0.349-0.292,0.542c-0.105,0.195-0.221,0.38-0.344,0.556
			c-0.777,1.183-1.62,2.115-2.529,2.794c-0.909,0.68-2.009,1.32-3.297,1.92l-8.554,3.973c-0.389,0.212-0.649,0.282-0.781,0.212
			C222.054,54.081,222.015,53.798,222.067,53.304z"/>
	</g>
	<g>
		<path fill="#231F20" d="M161.319,342.488c-0.121-0.432-0.258-0.973-0.411-1.62c-0.154-0.647-0.251-1.054-0.293-1.217
			c-0.246-0.973-0.398-1.767-0.457-2.385c-0.059-0.617-0.003-1.194,0.168-1.731c0.176-0.559,0.436-1.04,0.781-1.448
			c-1.151,0.163-1.879-0.329-2.182-1.479c-0.133-0.525-0.141-1.059-0.021-1.603s0.354-0.859,0.703-0.948
			c0.124-0.031,0.205-0.026,0.242,0.015c0.038,0.04,0.061,0.118,0.066,0.229c0.008,0.113,0.031,0.207,0.07,0.277
			c0.053,0.116,0.14,0.204,0.265,0.264s0.249,0.074,0.372,0.043l5.801-1.473c0.51-0.13,0.865-0.215,1.062-0.256
			s0.472-0.076,0.821-0.105s0.667-0.007,0.952,0.067c0.693,0.171,1.192,0.592,1.496,1.262c0.303,0.669,0.764,2.222,1.382,4.656
			c0.563,2.22,0.96,4.161,1.188,5.825c0.057,0.343,0.027,0.583-0.09,0.724c-0.117,0.139-0.323,0.247-0.619,0.322l-9.955,2.527
			c-0.174,0.044-0.304,0.065-0.391,0.065c-0.088-0.001-0.176-0.05-0.266-0.146c-0.09-0.096-0.172-0.268-0.245-0.515
			C161.587,343.371,161.439,342.92,161.319,342.488z M162.461,339.87c0.121,0.391,0.255,0.661,0.402,0.811
			c0.148,0.15,0.283,0.227,0.403,0.229c0.121,0.001,0.314-0.033,0.582-0.102c0.052-0.013,0.093-0.023,0.123-0.031l6.742-1.712
			c0.226-0.057,0.378-0.127,0.456-0.211c0.076-0.084,0.107-0.224,0.09-0.421c-0.042-0.768-0.235-1.831-0.581-3.191
			c-0.115-0.455-0.231-0.835-0.347-1.141c-0.116-0.306-0.276-0.636-0.481-0.99c-0.205-0.356-0.464-0.6-0.776-0.731
			c-0.312-0.131-0.67-0.145-1.07-0.043l-4.428,1.124c-0.74,0.188-1.27,0.596-1.586,1.226c-0.316,0.631-0.399,1.348-0.25,2.152
			C161.953,338.066,162.193,339.076,162.461,339.87z"/>
		<path fill="#231F20" d="M173.081,328.985c-0.134-0.524-0.141-1.054-0.021-1.588c0.119-0.533,0.337-0.842,0.656-0.922
			c0.14-0.036,0.228-0.033,0.266,0.008c0.037,0.041,0.062,0.127,0.073,0.256c0.011,0.13,0.023,0.225,0.039,0.286
			c0.062,0.112,0.159,0.192,0.291,0.241c0.133,0.049,0.251,0.061,0.354,0.034l1.527-0.388c0.822-0.209,1.469-0.232,1.937-0.072
			s0.881,0.603,1.239,1.326c0.309,0.609,0.464,1.298,0.468,2.066c0.003,0.769-0.151,1.484-0.464,2.151
			c-0.301,0.671-0.644,1.239-1.029,1.703s-0.76,0.605-1.124,0.422c-0.331-0.181-0.331-0.502,0.002-0.961
			c0.837-1.102,1.079-2.023,0.726-2.769c-0.125-0.278-0.34-0.468-0.644-0.562c-0.304-0.098-0.631-0.101-0.98-0.013l-0.663,0.169
			c-0.743,0.188-1.328,0.17-1.757-0.057C173.547,330.092,173.249,329.647,173.081,328.985z"/>
		<path fill="#231F20" d="M183.42,339.013c-0.075-0.082-0.104-0.22-0.089-0.416l0.146-2.47c0-0.128,0.031-0.219,0.095-0.271
			s0.188-0.104,0.372-0.15l3.271-0.83c0.508-0.129,0.771-0.461,0.788-0.996c0-0.221-0.041-0.484-0.119-0.795
			c-0.078-0.31-0.188-0.685-0.326-1.125c-0.14-0.441-0.243-0.795-0.312-1.062c-0.146-0.576-0.249-1.118-0.308-1.625
			s-0.131-0.841-0.215-1.003c-0.179-0.403-0.588-0.528-1.23-0.373l-0.684,0.173c-0.737,0.188-1.32,0.172-1.751-0.043
			c-0.431-0.217-0.73-0.655-0.899-1.317c-0.131-0.518-0.143-1.047-0.037-1.591c0.105-0.545,0.327-0.86,0.666-0.946
			c0.12-0.03,0.198-0.025,0.235,0.017c0.037,0.04,0.062,0.117,0.073,0.228c0.012,0.112,0.033,0.206,0.062,0.279
			c0.052,0.116,0.14,0.203,0.266,0.264c0.125,0.06,0.25,0.073,0.374,0.042l1.786-0.454c1.419-0.359,2.316,0.132,2.689,1.475
			c0.057,0.224,0.099,0.734,0.125,1.534c0.016,1.351,0.102,2.333,0.257,2.943c0.146,0.576,0.472,1.289,0.978,2.136
			c0.505,0.847,0.818,1.443,0.938,1.788c0.288,0.833,0.384,1.62,0.286,2.358c-0.021,0.134-0.043,0.23-0.065,0.291
			s-0.088,0.127-0.195,0.201c-0.107,0.072-0.264,0.136-0.47,0.188l-6.177,1.568C183.672,339.101,183.495,339.095,183.42,339.013z"/>
		<path fill="#231F20" d="M193.717,336.398c-0.086-0.079-0.115-0.217-0.089-0.416l0.129-2.465c0.001-0.129,0.032-0.22,0.096-0.271
			s0.192-0.104,0.388-0.154l5.873-1.491c0.567-0.144,0.902-0.292,1.006-0.447c0.195-0.269,0.294-0.731,0.298-1.388
			c0.004-0.654-0.089-1.353-0.276-2.093c-0.307-1.205-0.725-2.032-1.256-2.483c-0.592-0.473-1.414-0.58-2.468-0.321l-3.726,0.946
			c-0.735,0.187-1.319,0.172-1.75-0.044c-0.43-0.217-0.729-0.655-0.896-1.317c-0.131-0.518-0.145-1.047-0.039-1.592
			c0.106-0.544,0.328-0.859,0.667-0.945c0.12-0.03,0.199-0.025,0.235,0.016c0.037,0.041,0.062,0.118,0.073,0.229
			c0.013,0.112,0.033,0.205,0.063,0.279c0.051,0.115,0.142,0.203,0.271,0.262c0.131,0.058,0.257,0.071,0.381,0.04l5.797-1.472
			c0.299-0.076,0.658-0.094,1.079-0.055c0.422,0.041,0.784,0.187,1.09,0.438c0.781,0.708,1.404,1.974,1.867,3.798
			c0.433,1.703,0.405,3.47-0.084,5.297c-0.009,0.049,0.004,0.1,0.04,0.154c0.036,0.056,0.084,0.074,0.146,0.059l1.898-0.481
			c0.267-0.067,0.442-0.065,0.526,0.005s0.111,0.205,0.086,0.403l-0.162,2.335c-0.008,0.186-0.048,0.32-0.119,0.402
			c-0.073,0.082-0.242,0.157-0.51,0.226l-10.105,2.565C193.979,336.483,193.803,336.478,193.717,336.398z"/>
		<path fill="#231F20" d="M214.194,318.548c-0.134-0.524-0.143-1.054-0.029-1.587c0.114-0.531,0.335-0.841,0.664-0.924
			c0.14-0.035,0.229-0.033,0.267,0.008s0.062,0.127,0.072,0.257c0.01,0.129,0.023,0.225,0.039,0.286
			c0.062,0.112,0.156,0.191,0.284,0.242c0.128,0.05,0.244,0.062,0.349,0.036l1.41-0.358c1.164-0.296,2.005-0.248,2.521,0.143
			c0.517,0.391,0.896,1.064,1.138,2.02c0.158,0.619,0.408,1.56,0.749,2.818c0.342,1.26,0.623,2.346,0.843,3.255
			c0.221,0.911,0.426,1.804,0.615,2.681c0.113,0.53,0.048,0.986-0.195,1.368c-0.242,0.382-0.518,0.612-0.826,0.69
			c-0.093,0.023-0.176,0.017-0.251-0.018c-0.075-0.037-0.12-0.088-0.138-0.158c-0.259-1.016-0.619-2.438-1.084-4.266
			c-0.464-1.828-0.77-3.031-0.916-3.607c-0.084-0.334-0.152-0.58-0.203-0.737s-0.142-0.328-0.271-0.515
			c-0.129-0.188-0.281-0.309-0.455-0.365s-0.412-0.084-0.714-0.08s-0.659,0.059-1.072,0.163l-0.14,0.035
			c-0.736,0.188-1.321,0.168-1.754-0.057S214.362,319.21,214.194,318.548z"/>
		<path fill="#231F20" d="M225.789,328.256c-0.085-0.079-0.115-0.218-0.089-0.416l0.13-2.466c0-0.128,0.031-0.219,0.095-0.271
			c0.063-0.053,0.192-0.104,0.389-0.154l5.873-1.491c0.566-0.144,0.901-0.293,1.005-0.447c0.195-0.27,0.294-0.732,0.299-1.388
			c0.003-0.655-0.09-1.354-0.277-2.094c-0.306-1.205-0.725-2.032-1.256-2.483c-0.592-0.472-1.414-0.579-2.468-0.32l-3.726,0.946
			c-0.735,0.187-1.318,0.171-1.749-0.044c-0.431-0.217-0.729-0.655-0.897-1.317c-0.131-0.518-0.144-1.047-0.038-1.592
			c0.106-0.544,0.328-0.859,0.667-0.945c0.119-0.03,0.198-0.025,0.235,0.016s0.062,0.117,0.073,0.229s0.033,0.205,0.062,0.279
			c0.051,0.115,0.142,0.203,0.272,0.261c0.13,0.059,0.257,0.072,0.38,0.041l5.798-1.472c0.298-0.076,0.657-0.094,1.079-0.055
			c0.421,0.04,0.784,0.187,1.089,0.438c0.782,0.708,1.405,1.974,1.868,3.798c0.432,1.703,0.404,3.469-0.084,5.296
			c-0.01,0.049,0.004,0.1,0.039,0.155c0.036,0.056,0.085,0.074,0.146,0.059l1.897-0.481c0.268-0.068,0.443-0.066,0.526,0.004
			c0.084,0.07,0.112,0.206,0.086,0.403l-0.162,2.336c-0.008,0.185-0.048,0.319-0.119,0.402c-0.072,0.082-0.242,0.157-0.51,0.225
			l-10.104,2.565C226.052,328.341,225.875,328.335,225.789,328.256z"/>
		<path fill="#231F20" d="M236.633,312.879c-0.132-0.518-0.141-1.048-0.027-1.594c0.112-0.547,0.332-0.861,0.657-0.943
			c0.118-0.03,0.198-0.025,0.241,0.015c0.041,0.039,0.068,0.115,0.081,0.226c0.012,0.112,0.027,0.207,0.047,0.283
			c0.146,0.274,0.361,0.386,0.645,0.331l1.435-0.254c0.455-0.069,0.829-0.036,1.121,0.1c0.293,0.137,0.566,0.378,0.819,0.727
			c0.15,0.2,0.286,0.52,0.407,0.954c0.122,0.437,0.17,0.801,0.146,1.09c-0.015,0.16-0.105,0.246-0.271,0.262
			c-0.167,0.015-0.347,0.012-0.538-0.007c-0.191-0.021-0.385,0.063-0.579,0.249c-0.19,0.205-0.283,0.647-0.281,1.328
			c0.003,0.682,0.158,1.368,0.466,2.061c0.972,2.271,1.928,3.2,2.866,2.787c-0.098-1.393-0.114-2.405-0.05-3.037
			c0.029-0.51,0.184-1.156,0.46-1.936c0.276-0.78,0.425-1.307,0.444-1.575c0.055-0.519,0.044-0.823-0.033-0.913
			c-0.104-0.111-0.291-0.152-0.564-0.125c-0.272,0.027-0.484,0.035-0.635,0.017c-0.591-0.134-0.994-0.626-1.21-1.478
			c-0.131-0.518-0.146-1.046-0.042-1.59s0.323-0.858,0.658-0.943c0.117-0.03,0.2-0.026,0.248,0.013
			c0.047,0.038,0.076,0.113,0.088,0.224c0.012,0.112,0.028,0.207,0.048,0.283c0.051,0.116,0.145,0.202,0.28,0.26
			c0.135,0.057,0.254,0.072,0.357,0.046l1.423-0.237c0.917-0.15,1.569,0.083,1.957,0.698c0.48,0.768,0.63,1.507,0.449,2.222
			c-0.04,0.146-0.125,0.227-0.254,0.235c-0.13,0.011-0.279,0.003-0.45-0.021c-0.172-0.025-0.368,0.044-0.59,0.211
			c-0.139,0.1-0.23,0.301-0.273,0.604c-0.041,0.23-0.065,0.679-0.071,1.345c-0.007,0.666-0.043,1.194-0.108,1.585
			c-0.049,0.325-0.153,0.723-0.312,1.193c-0.16,0.471-0.276,0.904-0.35,1.298s-0.08,0.812-0.02,1.254l2.181-0.554
			c0.45-0.114,0.759-0.263,0.925-0.446c0.166-0.185,0.318-0.473,0.459-0.865c0.773-1.983,1.686-3.94,2.735-5.873
			c0.22-0.387,0.141-0.696-0.236-0.93c-0.223-0.146-0.577-0.161-1.062-0.048c-0.485,0.115-0.808,0.151-0.965,0.109
			c-0.622-0.136-1.046-0.65-1.273-1.545c-0.131-0.518-0.146-1.046-0.042-1.59s0.322-0.858,0.658-0.943
			c0.117-0.03,0.2-0.026,0.248,0.013c0.047,0.038,0.076,0.113,0.088,0.224c0.012,0.112,0.028,0.207,0.048,0.283
			c0.114,0.237,0.326,0.339,0.636,0.307l1.599-0.172c0.468-0.056,0.858,0.028,1.172,0.251s0.528,0.528,0.644,0.915
			c0.115,0.389,0.184,0.758,0.207,1.109c0.023,0.351,0.02,0.681-0.011,0.991c-0.068,0.549-0.299,1.282-0.689,2.201
			s-0.634,1.514-0.729,1.786c-0.188,0.596-0.499,1.638-0.933,3.121c-0.435,1.484-0.771,2.596-1.007,3.332
			c-0.096,0.227-0.188,0.378-0.276,0.455c-0.089,0.079-0.267,0.15-0.533,0.219l-6.289,1.596c-0.193,0.05-0.344,0.061-0.449,0.031
			c-0.104-0.027-0.207-0.13-0.307-0.307c-0.332-0.584-0.699-1.232-1.098-1.945c-0.399-0.714-0.666-1.198-0.801-1.453
			c-0.137-0.254-0.293-0.553-0.473-0.896c-0.181-0.344-0.314-0.613-0.402-0.812c-0.088-0.197-0.188-0.424-0.295-0.681
			c-0.403-0.987-0.402-2.067,0.005-3.244c0.114-0.376-0.017-0.544-0.392-0.504c-0.03,0.008-0.105,0.022-0.226,0.044
			c-0.121,0.022-0.236,0.034-0.346,0.04c-0.11,0.004-0.222-0.011-0.336-0.046C237.201,314.125,236.829,313.653,236.633,312.879z"/>
		<path fill="#231F20" d="M255.323,308.105c-0.134-0.524-0.144-1.053-0.029-1.586c0.114-0.532,0.335-0.841,0.663-0.925
			c0.141-0.035,0.23-0.033,0.268,0.009c0.036,0.04,0.061,0.127,0.072,0.256c0.01,0.129,0.023,0.225,0.039,0.286
			c0.062,0.112,0.156,0.192,0.284,0.243c0.128,0.049,0.244,0.062,0.348,0.035l1.411-0.358c1.164-0.296,2.005-0.248,2.521,0.143
			c0.517,0.392,0.896,1.065,1.138,2.021c0.158,0.619,0.407,1.559,0.749,2.818c0.342,1.259,0.622,2.345,0.843,3.255
			s0.426,1.804,0.615,2.681c0.112,0.529,0.047,0.985-0.195,1.367s-0.518,0.613-0.826,0.691c-0.093,0.023-0.176,0.017-0.251-0.019
			c-0.075-0.036-0.12-0.088-0.138-0.157c-0.259-1.016-0.619-2.438-1.084-4.266c-0.464-1.828-0.77-3.031-0.916-3.607
			c-0.084-0.335-0.152-0.581-0.203-0.738c-0.051-0.156-0.142-0.328-0.271-0.515c-0.129-0.188-0.281-0.309-0.455-0.365
			s-0.412-0.084-0.714-0.08s-0.659,0.059-1.072,0.163l-0.14,0.035c-0.736,0.188-1.321,0.168-1.754-0.057
			C255.791,309.211,255.491,308.768,255.323,308.105z"/>
	</g>
	<g>
		<path fill="#231F20" d="M60.937,324.356c0.1-0.437,0.237-0.978,0.411-1.62c0.174-0.643,0.282-1.046,0.323-1.209
			c0.247-0.973,0.492-1.744,0.735-2.314c0.243-0.57,0.567-1.051,0.974-1.443c0.42-0.405,0.879-0.705,1.378-0.899
			c-1.091-0.405-1.495-1.185-1.213-2.341c0.133-0.525,0.382-0.996,0.746-1.419c0.363-0.42,0.72-0.585,1.07-0.496
			c0.124,0.031,0.192,0.073,0.206,0.127c0.013,0.055-0.003,0.132-0.051,0.234s-0.071,0.195-0.07,0.277
			c-0.01,0.126,0.025,0.245,0.106,0.357s0.184,0.184,0.307,0.215l5.801,1.472c0.511,0.13,0.863,0.224,1.056,0.281
			c0.194,0.059,0.451,0.158,0.772,0.299s0.59,0.312,0.806,0.515c0.527,0.48,0.765,1.088,0.712,1.821s-0.388,2.317-1.005,4.752
			c-0.563,2.22-1.141,4.116-1.733,5.687c-0.113,0.329-0.254,0.526-0.424,0.594c-0.169,0.066-0.402,0.062-0.698-0.013l-9.956-2.525
			c-0.173-0.044-0.299-0.087-0.375-0.129c-0.076-0.043-0.131-0.127-0.164-0.255c-0.032-0.127-0.022-0.316,0.03-0.569
			C60.752,325.26,60.837,324.794,60.937,324.356z M63.189,322.6c-0.08,0.4-0.091,0.702-0.033,0.904
			c0.058,0.203,0.14,0.334,0.245,0.393c0.105,0.06,0.292,0.121,0.559,0.189c0.052,0.013,0.093,0.023,0.124,0.031l6.742,1.71
			c0.226,0.058,0.393,0.068,0.501,0.031s0.201-0.146,0.28-0.327c0.33-0.694,0.667-1.721,1.012-3.082
			c0.115-0.455,0.195-0.845,0.238-1.168c0.044-0.323,0.061-0.689,0.05-1.101c-0.012-0.41-0.123-0.748-0.335-1.012
			c-0.212-0.265-0.519-0.447-0.919-0.549l-4.429-1.124c-0.74-0.188-1.399-0.08-1.978,0.322c-0.578,0.402-0.994,0.993-1.246,1.772
			C63.604,320.771,63.333,321.774,63.189,322.6z"/>
		<path fill="#231F20" d="M78.913,311.202c0.352-0.955,0.672-1.396,0.96-1.323c0.144,0.037,0.258,0.149,0.342,0.336
			c0.083,0.186,0.209,0.331,0.376,0.438c0.115,0.056,0.327,0.146,0.636,0.271c0.309,0.123,0.549,0.258,0.722,0.402
			c0.173,0.145,0.293,0.345,0.362,0.6c0.128,0.234,0.106,0.505-0.066,0.814c-0.173,0.31-0.365,0.569-0.579,0.781
			c-0.214,0.21-0.464,0.49-0.751,0.839c-0.287,0.349-0.496,0.671-0.625,0.967c-0.11,0.349-0.204,0.672-0.28,0.975
			c-0.076,0.301,0.021,0.591,0.295,0.87c0.272,0.281,0.737,0.504,1.394,0.671l6.501,1.648c0.545,0.139,0.901,0.288,1.068,0.449
			c0.167,0.162,0.281,0.442,0.344,0.843c0.071,0.367,0.032,0.964-0.117,1.792c-0.149,0.826-0.316,1.446-0.496,1.857
			c-0.114,0.32-0.224,0.59-0.329,0.81c-0.105,0.221-0.266,0.499-0.482,0.833c-0.216,0.334-0.493,0.618-0.832,0.854
			c-0.338,0.235-0.732,0.414-1.179,0.539c-0.285,0.083-0.742,0.193-1.373,0.331c-0.632,0.138-1.138,0.255-1.518,0.351
			s-0.768,0.254-1.164,0.474c-0.395,0.221-0.68,0.481-0.856,0.786c-0.042,0.071-0.064,0.254-0.066,0.547
			c-0.003,0.292-0.018,0.564-0.043,0.818c-0.027,0.255-0.16,0.464-0.401,0.627c-0.24,0.164-0.603,0.193-1.089,0.088
			c-0.386-0.079-0.687-0.277-0.904-0.594c-0.218-0.315-0.301-0.646-0.249-0.99c0.111-0.566,0.344-1.022,0.7-1.368
			c0.355-0.344,0.879-0.672,1.57-0.98c0.44-0.183,1.008-0.37,1.703-0.564c0.695-0.195,1.26-0.358,1.693-0.491
			c0.433-0.133,0.878-0.379,1.337-0.739c0.457-0.36,0.807-0.821,1.048-1.383c0.219-0.476,0.293-0.919,0.223-1.331
			c-0.071-0.411-0.333-0.675-0.785-0.789l-7.927-2.011c-0.201-0.052-0.328-0.123-0.38-0.213c-0.052-0.091-0.062-0.242-0.029-0.454
			c0.135-0.964,0.391-1.975,0.77-3.033c0.113-0.32,0.289-0.683,0.525-1.09c0.237-0.407,0.435-0.744,0.594-1.01
			c0.158-0.267,0.303-0.55,0.434-0.852c0.129-0.301,0.154-0.504,0.073-0.606c-0.06-0.189-0.226-0.359-0.497-0.511
			c-0.272-0.152-0.473-0.319-0.602-0.504C78.835,311.794,78.818,311.535,78.913,311.202z"/>
		<path fill="#231F20" d="M91.908,321.697c0.133-0.525,0.376-0.994,0.73-1.407c0.354-0.415,0.696-0.579,1.024-0.496
			c0.14,0.036,0.218,0.08,0.23,0.134s-0.007,0.141-0.059,0.259c-0.053,0.12-0.086,0.21-0.102,0.271c0,0.128,0.045,0.244,0.134,0.35
			s0.185,0.171,0.289,0.197l1.41,0.358c1.165,0.295,1.88,0.737,2.148,1.327c0.267,0.59,0.28,1.362,0.038,2.317
			c-0.157,0.619-0.386,1.564-0.687,2.835c-0.3,1.27-0.571,2.356-0.812,3.263c-0.241,0.905-0.486,1.788-0.737,2.649
			c-0.154,0.52-0.429,0.889-0.823,1.109c-0.396,0.221-0.748,0.291-1.056,0.213c-0.092-0.023-0.163-0.068-0.212-0.136
			c-0.048-0.067-0.063-0.135-0.046-0.204c0.258-1.016,0.618-2.438,1.082-4.266s0.769-3.031,0.915-3.607
			c0.085-0.336,0.143-0.584,0.173-0.746c0.029-0.162,0.032-0.355,0.007-0.582c-0.025-0.227-0.101-0.405-0.227-0.538
			c-0.126-0.133-0.322-0.271-0.588-0.41c-0.267-0.142-0.607-0.265-1.02-0.369l-0.14-0.035c-0.737-0.188-1.242-0.482-1.515-0.886
			C91.793,322.893,91.74,322.359,91.908,321.697z"/>
		<path fill="#231F20" d="M97.471,335.761c-0.038-0.11,0.002-0.247,0.12-0.409l1.289-2.105c0.062-0.112,0.132-0.177,0.213-0.192
			c0.081-0.016,0.219,0,0.415,0.05l5.873,1.489c0.567,0.145,0.933,0.174,1.097,0.087c0.3-0.144,0.608-0.503,0.924-1.078
			c0.315-0.573,0.567-1.231,0.755-1.972c0.306-1.205,0.333-2.132,0.081-2.782c-0.295-0.697-0.967-1.184-2.016-1.459l-3.727-0.945
			c-0.735-0.186-1.241-0.478-1.517-0.872c-0.275-0.395-0.328-0.923-0.16-1.586c0.131-0.517,0.373-0.988,0.725-1.417
			c0.352-0.427,0.698-0.598,1.036-0.512c0.12,0.03,0.187,0.072,0.2,0.125c0.013,0.055-0.002,0.133-0.044,0.236
			c-0.043,0.104-0.069,0.195-0.078,0.275c-0.011,0.126,0.028,0.246,0.114,0.359c0.087,0.113,0.191,0.186,0.315,0.217l5.798,1.471
			c0.299,0.076,0.623,0.231,0.974,0.467c0.351,0.236,0.601,0.537,0.749,0.904c0.35,0.996,0.293,2.405-0.17,4.229
			c-0.432,1.703-1.298,3.242-2.599,4.615c-0.032,0.038-0.044,0.089-0.04,0.155c0.006,0.065,0.039,0.105,0.101,0.121l1.898,0.481
			c0.267,0.067,0.42,0.153,0.461,0.255c0.039,0.102,0,0.234-0.117,0.396l-1.256,1.976c-0.095,0.159-0.194,0.258-0.296,0.297
			c-0.104,0.037-0.288,0.022-0.556-0.046l-10.105-2.563C97.661,335.96,97.509,335.871,97.471,335.761z"/>
		<path fill="#231F20" d="M111.332,339.277c-0.032-0.109,0.01-0.245,0.128-0.407l1.289-2.105c0.061-0.112,0.133-0.177,0.213-0.192
			c0.08-0.016,0.219,0,0.414,0.05l1.373,0.348c0.329,0.084,0.647,0.138,0.953,0.161c0.306,0.021,0.57-0.005,0.792-0.082
			c0.222-0.076,0.427-0.15,0.614-0.222c0.188-0.07,0.358-0.192,0.512-0.364c0.153-0.173,0.276-0.312,0.37-0.421
			s0.188-0.278,0.284-0.506c0.096-0.228,0.161-0.378,0.196-0.451c0.035-0.073,0.085-0.217,0.15-0.429
			c0.065-0.213,0.1-0.328,0.104-0.345c0.768-2.307,0.648-3.586-0.354-3.84l-0.854-0.217c-0.755-0.191-1.274-0.486-1.559-0.883
			c-0.285-0.397-0.341-0.936-0.168-1.616c0.133-0.524,0.382-0.992,0.75-1.402c0.367-0.411,0.715-0.574,1.044-0.491
			c0.124,0.031,0.197,0.075,0.221,0.132s0.007,0.144-0.05,0.261c-0.058,0.119-0.084,0.211-0.078,0.276
			c-0.011,0.126,0.026,0.24,0.11,0.344c0.083,0.104,0.187,0.172,0.31,0.203l2.021,0.513c0.174,0.044,0.356,0.113,0.546,0.207
			s0.427,0.248,0.712,0.462c0.285,0.215,0.463,0.514,0.536,0.898c0.072,0.385-0.001,0.814-0.221,1.291
			c-0.724,1.601-1.163,2.708-1.318,3.318c-0.189,0.749-0.118,1.815,0.214,3.2c0.333,1.386,0.379,2.556,0.137,3.511
			c-0.044,0.172-0.087,0.318-0.128,0.441c-0.042,0.122-0.101,0.256-0.176,0.402c-0.075,0.145-0.167,0.248-0.275,0.307
			c-0.108,0.06-0.223,0.073-0.347,0.042c-0.247-0.062-0.426-0.318-0.536-0.768c-0.11-0.449-0.228-1.008-0.35-1.675
			c-0.123-0.667-0.302-1.191-0.537-1.572c-0.194-0.332-0.582-0.151-1.161,0.544c-0.083,0.107-0.294,0.384-0.638,0.827l-0.794,1.062
			c-0.114,0.146-0.222,0.24-0.326,0.282s-0.269,0.035-0.495-0.022l-3.163-0.803C111.521,339.476,111.365,339.387,111.332,339.277z"
			/>
		<path fill="#231F20" d="M125.613,323.05c0.352-0.956,0.672-1.396,0.96-1.323c0.144,0.037,0.258,0.148,0.342,0.335
			c0.083,0.186,0.209,0.332,0.376,0.438c0.115,0.057,0.327,0.146,0.636,0.271c0.309,0.123,0.549,0.258,0.722,0.403
			c0.173,0.145,0.293,0.345,0.362,0.6c0.127,0.234,0.105,0.505-0.066,0.813c-0.173,0.31-0.365,0.569-0.579,0.781
			c-0.214,0.211-0.464,0.49-0.751,0.84c-0.287,0.348-0.496,0.67-0.626,0.967c-0.11,0.349-0.204,0.672-0.28,0.975
			c-0.076,0.301,0.022,0.591,0.295,0.87c0.272,0.281,0.737,0.504,1.394,0.67l6.501,1.649c0.545,0.139,0.901,0.288,1.068,0.449
			c0.167,0.162,0.281,0.442,0.344,0.843c0.071,0.367,0.032,0.963-0.117,1.791c-0.149,0.827-0.316,1.447-0.496,1.858
			c-0.114,0.32-0.224,0.59-0.329,0.81c-0.105,0.221-0.266,0.499-0.482,0.833c-0.216,0.334-0.494,0.618-0.833,0.854
			c-0.339,0.234-0.731,0.414-1.179,0.538c-0.285,0.084-0.742,0.194-1.373,0.331c-0.632,0.139-1.138,0.256-1.518,0.352
			c-0.381,0.096-0.769,0.253-1.164,0.473c-0.395,0.221-0.68,0.482-0.856,0.787c-0.042,0.07-0.064,0.254-0.066,0.547
			c-0.004,0.292-0.018,0.563-0.043,0.818c-0.027,0.255-0.161,0.463-0.401,0.627c-0.24,0.163-0.604,0.192-1.089,0.087
			c-0.386-0.079-0.687-0.276-0.904-0.593c-0.218-0.316-0.301-0.646-0.25-0.99c0.111-0.566,0.344-1.023,0.701-1.368
			c0.355-0.345,0.879-0.672,1.57-0.98c0.44-0.183,1.008-0.37,1.703-0.565c0.695-0.194,1.26-0.357,1.693-0.491
			c0.433-0.132,0.878-0.379,1.337-0.738c0.457-0.36,0.807-0.821,1.048-1.383c0.219-0.476,0.293-0.919,0.223-1.331
			c-0.071-0.412-0.333-0.675-0.785-0.789l-7.927-2.012c-0.201-0.051-0.328-0.122-0.38-0.213s-0.062-0.242-0.029-0.454
			c0.135-0.964,0.391-1.975,0.77-3.033c0.113-0.319,0.288-0.683,0.525-1.089c0.237-0.407,0.435-0.744,0.594-1.011
			c0.158-0.267,0.303-0.55,0.433-0.852c0.13-0.301,0.155-0.503,0.074-0.605c-0.059-0.19-0.225-0.36-0.497-0.511
			c-0.272-0.152-0.473-0.319-0.602-0.504C125.535,323.641,125.519,323.383,125.613,323.05z"/>
	</g>
	<g>
		<path fill="#F6D6AF" d="M144.75,151.25c25,0,55,37.25,55,78.75c0,11.25,0,22.016,0,22.016H228L218,139.5l8.75-3.5L226,113.75h-9
			V123h-9.75v-10.25h-9.75v10.75h-13.75v-11H171.5v10.25h-10.25V112.5h-9.5v10.25h-14V112.5h-9.5v10.25H118V112.5h-12.25v11H92
			v-10.75h-9.75V123H72.5v-9.25h-9L62.75,136l8.75,3.5l-10,112.516h28.25c0,0,0-10.766,0-22.016
			C89.75,188.5,119.75,151.25,144.75,151.25z"/>
		<path fill="#231F20" d="M229.093,253.016H198.75V230c0-18.986-6.536-38.795-17.932-54.347
			c-10.738-14.654-24.222-23.403-36.068-23.403s-25.33,8.749-36.068,23.403C97.286,191.205,90.75,211.014,90.75,230v23.016H60.407
			l10.031-112.863l-8.711-3.484l0.806-23.918H73.5V122h7.75v-10.25H93v10.75h11.75v-11H119v10.25h8.25V111.5h11.5v10.25h12V111.5
			h11.5v10.25h8.25V111.5h14.25v11h11.75v-10.75h11.75V122H216v-9.25h10.967l0.807,23.918l-8.712,3.484L229.093,253.016z
			 M200.75,251.016h26.157l-9.969-112.168l8.788-3.516l-0.693-20.582H218V124h-11.75v-10.25h-7.75v10.75h-15.75v-11H172.5v10.25
			h-12.25V113.5h-7.5v10.25h-16V113.5h-7.5v10.25H117V113.5h-10.25v11H91v-10.75h-7.75V124H71.5v-9.25h-7.033l-0.694,20.582
			l8.789,3.516l-9.969,112.168H88.75V230c0-42.95,30.792-79.75,56-79.75s56,36.8,56,79.75V251.016z"/>
	</g>
	<path fill="#817371" d="M70.591,237.824c0.696,0.319,1.326,0.936,1.951,1.375c0.817,0.575,1.743,0.826,2.719,1.04
		c0.547,0.119,1.586-0.011,1.979,0.447c0.148,0.172,0.204,0.931,0.246,1.173c0.24,1.386-0.122,2.901-1.214,3.905
		c-1.286,1.184-4.143-0.006-5.413-0.843c-0.89-0.587-1.006-1.911-2.057-2.303c-0.392-0.146-1.333,0.098-1.603-0.193
		c-0.136-0.146-0.128-1.004-0.153-1.251c-0.053-0.533-0.196-1.114-0.062-1.657c0.115-0.461,0.483-0.979,0.843-1.29
		C68.552,237.6,69.719,237.423,70.591,237.824z"/>
	<path fill="#817371" d="M72.402,218.089c-0.555-0.47-1.35-0.519-1.987-0.753c-0.596-0.22-1.138-0.691-1.731-0.841
		c-1.262-0.318-2.775,0.896-2.084,2.252c0.678,1.331,3.474,1.228,3.349,3.074c-0.003,0.055,0.959-0.197,1.054-0.241
		c0.45-0.207,0.868-0.654,1.173-1.033C72.72,219.867,73.211,218.774,72.402,218.089z"/>
	<path fill="#817371" d="M82.766,202.352c0.762-0.897,1.341-1.678,1.977-2.677c0.812-1.275,1.835-2.626,2.844-3.711
		c0.417-0.449,1.193-1.506,1.901-1.351c0.166,2.896-0.055,5.567-1.498,8.159c-0.99,1.777-1.926,4.168-3.47,5.565
		c-0.707,0.64-1.791,0.84-2.619,0.313c-1.033-0.657-1.758-1.938-1.101-3.112c0.304-0.543,0.498-1.122,0.834-1.658
		C81.97,203.344,82.355,202.834,82.766,202.352z"/>
	<path fill="#817371" d="M71.684,191.819c0.375-0.279,0.719-0.588,1.078-0.887c0.203-0.168,0.43-0.454,0.674-0.554
		c0.855-0.348,1.684,0.554,2.336,0.927c0.511,0.292,1.115,0.407,1.686,0.523c0.354,0.071,0.842,0.069,1.035,0.405
		c0.216,0.376-0.057,0.946-0.177,1.312c-0.262,0.801-0.666,1.52-1.052,2.261c-0.142,0.271-0.274,0.605-0.465,0.843
		c-0.298,0.369-0.793,0.424-1.236,0.51c-1.236,0.24-1.963-0.475-2.626-1.397c-0.713-0.993-1.615-0.785-2.715-0.894
		c-0.832-0.083-0.815-0.717-0.504-1.333c0.13-0.256,0.3-0.61,0.513-0.809C70.626,192.357,71.242,192.148,71.684,191.819z"/>
	<path fill="#817371" d="M94.806,181.803c0.38-0.293,0.803-0.573,1.135-0.923c0.345-0.361,0.628-0.776,0.977-1.14
		c0.543-0.567,0.982-1.236,1.578-1.755c0.508-0.442,1.13-0.758,1.659-1.183c0.303-0.244,0.801-0.606,0.752-1.052
		c-0.027-0.247-0.289-0.529-0.434-0.749c-0.213-0.323-0.388-0.541-0.772-0.436c-0.306,0.084-0.626,0.398-0.886,0.567
		c-0.479,0.312-0.842,0.688-1.275,1.059c-0.92,0.787-1.831,1.549-2.698,2.394c-0.871,0.848-1.844,1.551-2.658,2.464
		c-0.505,0.566-1.083,1.094-1.56,1.677c-0.392,0.479-0.763,0.992-0.865,1.592c-0.041,0.238-0.106,0.927,0.3,0.87
		c0.136-0.02,0.449-0.426,0.568-0.521c0.267-0.216,0.542-0.419,0.823-0.615C92.554,183.28,93.738,182.627,94.806,181.803z"/>
	<path fill="#817371" d="M74.762,171.42c0.407,0.203,0.739,0.265,1.193,0.268c1.348,0.009,2.172-0.939,3.331-1.481
		c0.365-0.171,0.641-0.273,0.932-0.012c0.307,0.275,0.393,0.773,0.6,1.125c0.306,0.519,0.717,0.9,1.177,1.278
		c0.521,0.429,0.946,0.65,1.091,1.338c0.216,1.023,0.108,2.02-0.763,2.711c-0.299,0.237-0.64,0.43-0.946,0.656
		c-0.285,0.211-0.637,0.563-1.005,0.571c-0.28,0.006-0.571-0.159-0.829-0.261c-0.599-0.238-1.234-0.373-1.823-0.632
		c-0.884-0.389-1.056-0.613-1.322-1.479c-0.134-0.436-0.354-0.827-0.74-1.083c-0.61-0.405-1.173-0.555-1.858-0.777
		c-0.261-0.085-0.504-0.175-0.776-0.222c-0.234-0.041-0.656-0.022-0.86-0.147c-0.23-0.141-0.159-0.071-0.147-0.278
		c0.011-0.194,0.125-0.324,0.17-0.5c0.047-0.188,0.015-0.385,0.09-0.571c0.132-0.323,0.592-0.626,0.915-0.749
		C73.712,170.979,74.293,171.187,74.762,171.42z"/>
	<path fill="#817371" d="M77.3,148.697c0.439,1.029,1.305,1.463,2.372,1.804c0.901,0.288,2.439,0.058,3.188,0.561
		c0.552,0.37,0.696,1.298,0.574,1.947c-0.234,1.237-0.951,1.822-2.096,1.867c-1.483,0.058-3.246,0.241-4.706-0.109
		c-0.669-0.161-0.789-0.262-0.819-0.917c-0.038-0.814-0.074-1.188-0.732-1.694C73.527,150.959,75.804,148.428,77.3,148.697z"/>
	<path fill="#817371" d="M89.533,144.813c1.208-0.735,2.277-2.489,3.653-2.814c0.804-0.19,1.82,0.656,2.515,0.982
		c0.725,0.34,1.458,0.554,2.244,0.758c0.326,0.085,1.099,0.102,1.323,0.381c0.423,0.527,0.006,3.487-0.645,3.504
		c-0.84,0.021-0.879-1.885-2.076-1.436c-0.298,0.112-0.75,0.621-1.066,0.809c-0.327,0.193-0.642,0.402-0.967,0.599
		c-0.38,0.229-0.934,0.363-1.269,0.599c-0.914,0.644-0.32,1.851-0.062,2.674c-0.882,0.072-2.359-0.212-2.812-1.063
		c-0.498-0.936,0.385-2.1-1.059-2.306c-0.399-0.057-0.83,0.011-1.229,0.038c-0.609,0.042-1.219,0.084-1.83,0.077
		c-0.675-0.008-2.333-0.042-2.055-1.128c0.039-0.151,0.062-0.186,0.202-0.25c0.2-0.093,0.43-0.183,0.648-0.221
		c0.767-0.131,1.531-0.147,2.293-0.331C88.108,145.501,88.859,145.224,89.533,144.813z"/>
	<path fill="#817371" d="M83.164,130.201c0.251-0.064,0.444-0.1,0.693-0.049c0.662,0.135,1.285,0.39,1.971,0.497
		c0.841,0.131,1.942,0.342,2.755-0.038c0.486-0.228,0.944-0.597,1.404-0.878c0.767-0.47,1.537-0.836,2.344-1.233
		c0.919-0.451,1.748-1.057,2.682-1.5c0.686-0.326,1.333-0.747,2.013-1.07c0.566-0.269,1.047-0.044,1.599,0.111
		c0.778,0.219,1.528,0.363,2.177,0.864c0.827,0.639,1.588,1.369,2.383,2.052c0.688,0.591,1.45,0.965,2.232,1.399
		c0.729,0.405,1.537,0.769,2.382,0.844c1.646,0.146,3.298-0.25,4.739,0.77c0.642,0.455,0.792,1.08,0.95,1.823
		c0.159,0.75,0.367,1.404,0.005,2.124c-0.301,0.598-0.976,1.441-1.533,1.786c-0.475,0.293-1.064,0.047-1.576-0.045
		c-0.889-0.16-1.809-0.229-2.431-0.96c-0.317-0.373-0.507-0.874-0.705-1.316c-0.318-0.712-0.634-1.156-1.185-1.714
		c-0.386-0.391-0.482-0.534-1.006-0.542c-0.75-0.013-1.473,0.107-2.212,0.125c-0.979,0.024-1.941-0.815-2.662-1.415
		c-0.834-0.692-1.903-0.924-2.975-0.919c-0.841,0.003-1.476,0.4-2.196,0.811c-0.921,0.525-1.941,1.13-2.647,1.936
		c-0.38,0.434-0.717,0.912-1.184,1.242c-0.957,0.676-1.804,0.775-2.968,0.836c-1.795,0.094-3.589,0.118-5.383,0.185
		c-1.447,0.054-3.03,1.032-4.424,0.402c-0.802-0.362-1.217-0.819-0.865-1.693c0.481-1.195,1.789-1.455,2.613-2.307
		c0.418-0.432,0.602-0.861,1.134-1.22C81.86,130.723,82.491,130.374,83.164,130.201z"/>
	<path fill="#817371" d="M131.353,129.666c4.543-0.046,8.99,0.135,13.456-0.588c2.568-0.416,6.036,0.109,7.662,2.505
		c1.28,1.886,0.348,2.809-1.466,3.253c-1.082,0.265-3.879,0.878-4.883,0.054c-1.687-1.385-0.139-3.081-3.236-2.732
		c-4.579,0.516-8.924,2.431-13.563,2.502c-0.396,0.006-0.798,0.044-1.192,0.021c-0.222-0.013-0.099-1.877-0.074-2.098
		c0.06-0.532,0.168-1.075,0.422-1.552C129.047,129.968,130.225,129.678,131.353,129.666z"/>
	<path fill="#817371" d="M121.431,150.25c1.658,0,2.928,0.143,4.312-0.88c0.794-0.586,1.101-1.351,2.189-0.952
		c1.328,0.486,1.296,1.386,0.318,2.334c-1.21,1.171-2.537,1.566-4.03,2.212c-0.888,0.385-1.877,0.784-2.912,0.647
		c-1.098-0.145-1.65-0.711-1.781-1.792C119.357,150.417,120.163,150.25,121.431,150.25z"/>
	<path fill="#817371" d="M142.851,144.583c0.96-0.139,1.616-0.485,2.347-1.065c0.569-0.452,0.904-0.838,1.633-1.001
		c0.798-0.178,1.569,0.097,2.343,0.311c1.157,0.32,2.041,0.52,3.047,1.142c0.32,0.198,0.856,0.335,0.905,0.723
		c0.058,0.453-0.808,1.009-1.123,1.251c-1.379,1.06-3.966,1.83-5.667,1.12c-0.948-0.396-1.797-0.748-2.899-0.612
		c-0.666,0.082-1.203,0.446-1.877,0.224c-0.467-0.155-0.924-0.916-0.558-1.35C141.438,144.805,142.222,144.673,142.851,144.583z"/>
	<path fill="#817371" d="M172,157.003c-0.975-0.65-2.004-1.21-3.003-1.82c-0.866-0.529-1.585-1.37-2.354-2.05
		c-0.914-0.808-3.009-1.802-3.012-3.239c2.048-0.1,4.276,0.391,6.242,0.803c1.967,0.413,3.514,1.469,5.491,2.011
		c1.095,0.299,1.78,0.127,1.891,1.364c0.065,0.727-0.441,1.545-0.513,2.297c-0.201,2.137,0.102,4.754,1.729,6.302
		c1.222,1.161,3.448,1.005,5.055,1.45c0.927,0.256,4.467,0.862,2.856,2.763c-0.538,0.636-3.103,0.737-3.905,0.628
		c-1.727-0.234-3.386-1.143-4.597-2.291C175.38,162.851,174.827,158.888,172,157.003z"/>
	<path fill="#817371" d="M225.75,245.344c-0.669,3.839-6.47-1.396-7.59-2.098c-1.3-0.813-2.236-1.256-2.41-2.956
		c-0.33-3.237,1.437-5.134,3.622-7.183c2.036,0.964,2.17,3.766,2.655,5.543c0.478,1.744,1.482,2.153,2.625,3.356
		C225.62,243.025,226.02,243.798,225.75,245.344z"/>
	<path fill="#817371" d="M220.855,196.979c-2.316,0.729-4.64,0.411-6.669-0.929c-1.165-0.77-2.463-1.603-2.971-2.972
		c-0.824-2.224-0.4-4.42,0.037-6.607c0.216-1.073-0.128-2.659,0.247-3.632c0.415-1.077,1.354-0.742,2.572-0.616
		c1.561,0.161,3.084,0.869,4.656,0.794c0.648,2.937,0.771,5.819,1.396,8.745C220.48,193.426,220.938,195.279,220.855,196.979z"/>
	<path fill="#817371" d="M211.375,172.125c-1.044-0.628-3.204-0.719-4.484-0.894c-0.299-0.575-0.749-1.227-0.519-2.009
		c0.378-1.283,2.015-0.999,3.255-0.669c2.359,0.628,4.567,1.175,6.966,1.544c0.835,0.128,2.271,0.336,2.4,1.284
		c-2.331,0.843-4.271,0.993-6.868,0.993"/>
	<path fill="#817371" d="M180.339,130.5c3.441,0.869,7.069,1.018,10.628,0.833c1.885-0.098,4.439,0.272,3.346,3
		c-0.948,2.365-5.667,2.484-7.783,2.667c-2.163,0.186-3.949-0.022-6.034-0.517c-2.341-0.557-9.387-2.086-9.495-5.248
		C170.828,126.2,178.424,130.016,180.339,130.5z"/>
	<path fill="#817371" d="M221.346,131.387c-0.047,1.904-0.297,3.894-0.205,5.754c-1.542,0.086-3.131-1.58-4.633-1.98
		c-1.648-0.439-3.356-0.207-4.979-0.69c-0.652-0.934,0.242-2.282,1.143-2.711c0.848-0.404,2.168-0.245,3.074-0.213
		C216.202,131.563,221.329,132.053,221.346,131.387z"/>
	<path fill="#817371" d="M211.163,146.769c0.399-0.198,2.489,1.455,3.045,1.71c1.155,0.53,2.29,0.575,3.448,0.952
		c-0.756,2.419,0.072,4.858,0.257,7.405c0.108,1.502,0.729,3.802-1.259,3.918c-1.285,0.075-2.47-0.158-3.629-0.74
		c-1.226-0.616-1.28-1.409-1.692-2.751c-0.344-1.12-0.737-2.216-1.008-3.362c-0.152-0.645-0.09-1.149-0.737-1.403
		c-0.773-0.303-1.795,0.56-2.509,0.001c-0.841-0.658-0.243-1.52,0.393-1.933c0.829-0.539,2.016-0.74,2.646-1.563
		C210.571,148.411,210.441,147.127,211.163,146.769z"/>
	<path fill="#817371" d="M207.997,208.043c1.021-0.985,3.558,0.188,4.624,0.308c2.617,0.294,4.325-0.77,6.666-1.28
		c1.511-0.33,2.829,0.336,2.691,2.066c-1.097,0.268-1.756,1.192-2.82,1.538c-1.147,0.372-2.798,0.52-4.031,0.708
		c-1.068,0.163-2.155,0.28-3.237,0.227c-1.036-0.051-1.821-0.488-2.778-0.856C208.155,210.386,207.052,208.956,207.997,208.043z"/>
	<polygon fill="#231F20" points="81.75,247.769 81.268,234.486 64.485,234 64.515,233 82.232,233.514 82.75,247.731 	"/>
	
		<rect x="77.5" y="194.805" transform="matrix(0.9901 0.1406 -0.1406 0.9901 30.8986 -8.8386)" fill="#231F20" width="1" height="38.891"/>
	<rect x="66.5" y="208.25" fill="#231F20" width="12.75" height="1"/>
	
		<rect x="77.375" y="176.999" transform="matrix(0.0186 0.9998 -0.9998 0.0186 260.2737 102.6022)" fill="#231F20" width="1" height="13.752"/>
	<path fill="#231F20" d="M203.26,182.099c-0.013-0.062-1.329-6.338-8.194-18.351c-8.229-14.4-27.038-22.998-50.315-22.998
		c-17.336,0-33.002,6.903-46.56,20.516l-0.336,0.337c-4.156,4.156-12.339,18.255-12.421,18.397l-0.865-0.502
		c0.338-0.583,8.332-14.355,12.579-18.603l0.335-0.336c13.753-13.809,29.656-20.811,47.269-20.811
		c23.641,0,42.774,8.786,51.185,23.502c6.96,12.18,8.254,18.392,8.306,18.65L203.26,182.099z"/>
	<rect x="71.75" y="164.25" fill="#231F20" width="13.5" height="1"/>
	<rect x="83.5" y="138.25" fill="#231F20" width="1" height="20.75"/>
	<rect x="77.5" y="137.25" fill="#231F20" width="134.75" height="1"/>
	<rect x="71.5" y="126.5" fill="#231F20" width="148.25" height="1"/>
	
		<rect x="93.275" y="170.25" transform="matrix(0.8059 0.5921 -0.5921 0.8059 120.6787 -26.58)" fill="#231F20" width="15.201" height="1"/>
	
		<rect x="109.033" y="155.875" transform="matrix(0.6571 0.7538 -0.7538 0.6571 157.4721 -33.4453)" fill="#231F20" width="12.935" height="1"/>
	
		<rect x="129.595" y="146.875" transform="matrix(0.3677 0.93 -0.93 0.3677 222.6561 -32.7022)" fill="#231F20" width="11.56" height="1"/>
	
		<rect x="159.375" y="141.44" transform="matrix(0.9128 0.4085 -0.4085 0.9128 74.3535 -52.4076)" fill="#231F20" width="0.999" height="12.87"/>
	
		<rect x="161.698" y="141.125" transform="matrix(0.7071 0.7071 -0.7071 0.7071 147.5561 -72.9819)" fill="#231F20" width="0.354" height="1"/>
	
		<rect x="175.75" y="147.76" transform="matrix(0.6721 0.7405 -0.7405 0.6721 173.9556 -79.0669)" fill="#231F20" width="1" height="18.229"/>
	
		<rect x="189.25" y="163.463" transform="matrix(0.4728 0.8812 -0.8812 0.4728 250.8214 -76.9861)" fill="#231F20" width="1" height="15.324"/>
	
		<rect x="198.625" y="182.02" transform="matrix(0.1679 0.9858 -0.9858 0.1679 352.5064 -38.6122)" fill="#231F20" width="1.001" height="14.96"/>
	
		<rect x="193.634" y="205.5" transform="matrix(0.1667 0.986 -0.986 0.1667 378.8275 -36.2731)" fill="#231F20" width="34.483" height="1"/>
	<rect x="212.25" y="231.5" fill="#231F20" width="1" height="20"/>
	<rect x="213" y="229.25" fill="#231F20" width="12.25" height="1"/>
	<rect x="202" y="176.5" fill="#231F20" width="19" height="1"/>
	<rect x="185.5" y="137.75" fill="#231F20" width="1" height="8.5"/>
	<rect x="191.5" y="155.75" fill="#231F20" width="15.25" height="1"/>
	<rect x="206" y="137.75" fill="#231F20" width="1" height="24"/>
	<path fill="#2D4D3D" d="M23.656,123.229c3.167-2.334,2.917-7.667,2.917-7.667s-4.417,1-6.583,3.5
		c-0.94,1.084-1.658,2.354-2.172,3.446v-16.713c1.304-0.015,3.686-0.291,5.839-1.878c3.167-2.334,2.917-7.667,2.917-7.667
		s-4.417,1-6.583,3.5c-0.94,1.084-1.658,2.354-2.172,3.446V83.671c0.734-1.324,1.604-3.314,1.604-5.338
		c0-3.5-2.604-6.333-2.604-6.333s-2.604,2.833-2.604,6.333c0,2.024,0.87,4.016,1.604,5.339v19.477
		c-0.512-1.081-1.224-2.331-2.15-3.399c-2.167-2.5-6.583-3.5-6.583-3.5s-0.25,5.333,2.917,7.667c2.142,1.579,4.509,1.86,5.817,1.877
		v16.667c-0.512-1.081-1.224-2.331-2.15-3.399c-2.167-2.5-6.583-3.5-6.583-3.5s-0.25,5.333,2.917,7.667
		c2.142,1.579,4.509,1.86,5.817,1.877v16.667c-0.512-1.081-1.224-2.331-2.15-3.399c-2.167-2.5-6.583-3.5-6.583-3.5
		s-0.25,5.333,2.917,7.667c2.142,1.579,4.509,1.86,5.817,1.877v16.667c-0.512-1.081-1.224-2.331-2.15-3.399
		c-2.166-2.5-6.583-3.5-6.583-3.5s-0.25,5.333,2.917,7.667c2.142,1.579,4.509,1.86,5.817,1.877v16.667
		c-0.512-1.081-1.224-2.331-2.15-3.399c-2.167-2.5-6.583-3.5-6.583-3.5s-0.25,5.333,2.917,7.667c2.142,1.579,4.509,1.86,5.817,1.878
		v16.667c-0.512-1.081-1.224-2.33-2.15-3.399c-2.166-2.5-6.583-3.5-6.583-3.5s-0.25,5.333,2.917,7.667
		c2.142,1.579,4.509,1.86,5.817,1.878v16.667c-0.512-1.081-1.224-2.33-2.15-3.399c-2.167-2.5-6.583-3.5-6.583-3.5
		s-0.25,5.333,2.917,7.667c2.142,1.579,4.509,1.86,5.817,1.878v16.667c-0.512-1.081-1.224-2.33-2.15-3.399
		c-2.167-2.5-6.583-3.5-6.583-3.5s-0.25,5.333,2.917,7.667c2.142,1.579,4.509,1.86,5.817,1.878v16.667
		c-0.512-1.081-1.224-2.33-2.15-3.399c-2.167-2.5-6.583-3.5-6.583-3.5s-0.25,5.333,2.917,7.667c2.142,1.579,4.509,1.86,5.817,1.878
		v18.455h2v-18.455c1.304-0.015,3.686-0.291,5.839-1.878c3.167-2.334,2.917-7.667,2.917-7.667s-4.417,1-6.583,3.5
		c-0.94,1.085-1.658,2.354-2.172,3.445v-16.713c1.304-0.015,3.686-0.291,5.839-1.878c3.167-2.334,2.917-7.667,2.917-7.667
		s-4.417,1-6.583,3.5c-0.94,1.085-1.658,2.354-2.172,3.445V221.67c1.304-0.015,3.686-0.291,5.839-1.878
		c3.167-2.334,2.917-7.667,2.917-7.667s-4.417,1-6.583,3.5c-0.94,1.085-1.658,2.354-2.172,3.445v-16.713
		c1.304-0.015,3.686-0.291,5.839-1.878c3.167-2.334,2.917-7.667,2.917-7.667s-4.417,1-6.583,3.5
		c-0.94,1.085-1.658,2.354-2.172,3.445v-16.713c1.304-0.015,3.686-0.291,5.839-1.878c3.167-2.334,2.917-7.667,2.917-7.667
		s-4.417,1-6.583,3.5c-0.94,1.084-1.658,2.354-2.172,3.445v-16.713c1.304-0.015,3.686-0.291,5.839-1.878
		c3.167-2.334,2.917-7.667,2.917-7.667s-4.417,1-6.583,3.5c-0.94,1.084-1.658,2.354-2.172,3.446V144.42
		c1.304-0.015,3.686-0.291,5.839-1.878c3.167-2.334,2.917-7.667,2.917-7.667s-4.417,1-6.583,3.5
		c-0.94,1.084-1.658,2.354-2.172,3.446v-16.713C19.122,125.093,21.503,124.816,23.656,123.229z"/>
	<path fill="#2D4D3D" d="M269.656,123.229c-3.166-2.334-2.916-7.667-2.916-7.667s4.416,1,6.583,3.5
		c0.94,1.084,1.658,2.354,2.172,3.446v-16.713c-1.304-0.015-3.686-0.291-5.839-1.878c-3.166-2.334-2.916-7.667-2.916-7.667
		s4.416,1,6.583,3.5c0.94,1.084,1.658,2.354,2.172,3.446V83.671c-0.734-1.324-1.604-3.314-1.604-5.338
		c0-3.5,2.604-6.333,2.604-6.333s2.604,2.833,2.604,6.333c0,2.024-0.87,4.016-1.604,5.339v19.477
		c0.513-1.081,1.224-2.331,2.15-3.399c2.167-2.5,6.583-3.5,6.583-3.5s0.25,5.333-2.916,7.667c-2.143,1.579-4.509,1.86-5.817,1.877
		v16.667c0.513-1.081,1.224-2.331,2.15-3.399c2.167-2.5,6.583-3.5,6.583-3.5s0.25,5.333-2.916,7.667
		c-2.143,1.579-4.509,1.86-5.817,1.877v16.667c0.513-1.081,1.224-2.331,2.15-3.399c2.167-2.5,6.583-3.5,6.583-3.5
		s0.25,5.333-2.916,7.667c-2.143,1.579-4.509,1.86-5.817,1.877v16.667c0.513-1.081,1.224-2.331,2.15-3.399
		c2.166-2.5,6.583-3.5,6.583-3.5s0.25,5.333-2.916,7.667c-2.143,1.579-4.509,1.86-5.817,1.877v16.667
		c0.513-1.081,1.224-2.331,2.15-3.399c2.167-2.5,6.583-3.5,6.583-3.5s0.25,5.333-2.916,7.667c-2.143,1.579-4.509,1.86-5.817,1.878
		v16.667c0.513-1.081,1.224-2.33,2.15-3.399c2.166-2.5,6.583-3.5,6.583-3.5s0.25,5.333-2.916,7.667
		c-2.143,1.579-4.509,1.86-5.817,1.878v16.667c0.513-1.081,1.224-2.33,2.15-3.399c2.167-2.5,6.583-3.5,6.583-3.5
		s0.25,5.333-2.916,7.667c-2.143,1.579-4.509,1.86-5.817,1.878v16.667c0.513-1.081,1.224-2.33,2.15-3.399
		c2.167-2.5,6.583-3.5,6.583-3.5s0.25,5.333-2.916,7.667c-2.143,1.579-4.509,1.86-5.817,1.878v16.667
		c0.513-1.081,1.224-2.33,2.15-3.399c2.167-2.5,6.583-3.5,6.583-3.5s0.25,5.333-2.916,7.667c-2.143,1.579-4.509,1.86-5.817,1.878
		v18.455h-2v-18.455c-1.304-0.015-3.686-0.291-5.839-1.878c-3.166-2.334-2.916-7.667-2.916-7.667s4.416,1,6.583,3.5
		c0.94,1.085,1.658,2.354,2.172,3.445v-16.713c-1.304-0.015-3.686-0.291-5.839-1.878c-3.166-2.334-2.916-7.667-2.916-7.667
		s4.416,1,6.583,3.5c0.94,1.085,1.658,2.354,2.172,3.445V221.67c-1.304-0.015-3.686-0.291-5.839-1.878
		c-3.166-2.334-2.916-7.667-2.916-7.667s4.416,1,6.583,3.5c0.94,1.085,1.658,2.354,2.172,3.445v-16.713
		c-1.304-0.015-3.686-0.291-5.839-1.878c-3.166-2.334-2.916-7.667-2.916-7.667s4.417,1,6.583,3.5
		c0.94,1.085,1.658,2.354,2.172,3.445v-16.713c-1.304-0.015-3.686-0.291-5.839-1.878c-3.166-2.334-2.916-7.667-2.916-7.667
		s4.416,1,6.583,3.5c0.94,1.084,1.658,2.354,2.172,3.445v-16.713c-1.304-0.015-3.686-0.291-5.839-1.878
		c-3.166-2.334-2.916-7.667-2.916-7.667s4.417,1,6.583,3.5c0.94,1.084,1.658,2.354,2.172,3.446V144.42
		c-1.304-0.015-3.686-0.291-5.839-1.878c-3.166-2.334-2.916-7.667-2.916-7.667s4.416,1,6.583,3.5
		c0.94,1.084,1.658,2.354,2.172,3.446v-16.713C274.191,125.093,271.81,124.816,269.656,123.229z"/>
	<g>
		<linearGradient id="SVGID_3_" gradientUnits="userSpaceOnUse" x1="146.5835" y1="321.667" x2="146.5835" y2="252">
			<stop  offset="0" style="stop-color:#946358"/>
			<stop  offset="1" style="stop-color:#EDD9CC"/>
		</linearGradient>
		<path fill="url(#SVGID_3_)" d="M31.667,263.001c0,15.333,3.5,33.501,24.5,39.167s90.417,19.499,90.417,19.499
			S216,307.834,237,302.168s24.5-23.834,24.5-39.167c0-1.777,0-5.615,0-11.001H31.667C31.667,257.386,31.667,261.224,31.667,263.001
			z"/>
		<path fill="#231F20" d="M146.583,322.687l-0.195-0.039c-0.695-0.138-69.69-13.904-90.481-19.514
			c-16.984-4.583-25.24-17.71-25.24-40.133V251H262.5v12.001c0,22.423-8.256,35.55-25.239,40.133
			c-20.792,5.609-89.787,19.376-90.482,19.514L146.583,322.687z M32.667,253v10.001c0,13.647,2.463,32.455,23.761,38.201
			c20.181,5.445,86.056,18.626,90.156,19.445c4.1-0.819,69.975-14,90.156-19.445c21.298-5.746,23.761-24.554,23.761-38.201V253
			H32.667z"/>
	</g>
	<g>
		<defs>
			<path id="SVGID_4_" d="M32.499,263.774c0,14.87,3.475,32.488,24.323,37.983c20.848,5.494,89.761,18.909,89.761,18.909
				s68.914-13.415,89.761-18.909c20.848-5.495,24.322-23.113,24.322-37.983c0-1.724,0-5.445,0-10.668H32.499
				C32.499,258.329,32.499,262.051,32.499,263.774z"/>
		</defs>
		<clipPath id="SVGID_5_">
			<use xlink:href="#SVGID_4_"  overflow="visible"/>
		</clipPath>
		<g clip-path="url(#SVGID_5_)">
			<polygon fill="#FFFFFF" points="-22.432,289.88 -23.427,288.187 40.44,251.742 41.435,253.435 			"/>
			<polygon fill="#FFFFFF" points="-12.434,291.707 -13.512,290.063 46.598,251.761 47.676,253.404 			"/>
			<polygon fill="#FFFFFF" points="-2.434,293.528 -3.597,291.942 52.756,251.785 53.919,253.372 			"/>
			<polygon fill="#FFFFFF" points="7.566,295.348 6.316,293.826 58.912,251.814 60.162,253.335 			"/>
			<polygon fill="#FFFFFF" points="17.567,297.161 16.229,295.715 65.068,251.847 66.406,253.293 			"/>
			<polygon fill="#FFFFFF" points="27.566,298.974 26.142,297.608 71.225,251.882 72.649,253.247 			"/>
			<polygon fill="#FFFFFF" points="37.565,300.777 36.057,299.505 77.382,251.925 78.891,253.198 			"/>
			<polygon fill="#FFFFFF" points="47.562,302.578 45.973,301.405 83.542,251.969 85.131,253.143 			"/>
			<polygon fill="#FFFFFF" points="57.558,304.377 55.893,303.311 89.705,252.019 91.369,253.083 			"/>
			<polygon fill="#FFFFFF" points="67.548,306.172 65.814,305.22 95.869,252.07 97.604,253.021 			"/>
			<polygon fill="#FFFFFF" points="77.536,307.964 75.74,307.131 102.038,252.125 103.834,252.957 			"/>
			<polygon fill="#FFFFFF" points="87.52,309.753 85.67,309.041 108.21,252.18 110.061,252.893 			"/>
			<polygon fill="#FFFFFF" points="97.498,311.544 95.604,310.954 114.389,252.237 116.282,252.826 			"/>
			<polygon fill="#FFFFFF" points="107.472,313.331 105.543,312.869 120.571,252.294 122.499,252.759 			"/>
			<polygon fill="#FFFFFF" points="117.441,315.123 115.487,314.781 126.758,252.352 128.712,252.693 			"/>
			<polygon fill="#FFFFFF" points="127.408,316.915 125.434,316.691 132.948,252.406 134.921,252.628 			"/>
			<polygon fill="#FFFFFF" points="137.369,318.709 135.387,318.6 139.143,252.459 141.126,252.567 			"/>
			<rect x="145.342" y="252.508" fill="#FFFFFF" width="1.986" height="67.998"/>
		</g>
		<g clip-path="url(#SVGID_5_)">
			<polygon fill="#FFFFFF" points="315.183,289.88 316.179,288.187 252.312,251.742 251.316,253.435 			"/>
			<polygon fill="#FFFFFF" points="305.186,291.707 306.263,290.063 246.152,251.761 245.074,253.404 			"/>
			<polygon fill="#FFFFFF" points="295.186,293.528 296.349,291.942 239.996,251.785 238.834,253.372 			"/>
			<polygon fill="#FFFFFF" points="285.185,295.348 286.437,293.826 233.841,251.814 232.59,253.335 			"/>
			<polygon fill="#FFFFFF" points="275.186,297.161 276.523,295.715 227.684,251.847 226.346,253.293 			"/>
			<polygon fill="#FFFFFF" points="265.186,298.974 266.609,297.608 221.526,251.882 220.104,253.247 			"/>
			<polygon fill="#FFFFFF" points="255.186,300.777 256.695,299.505 215.37,251.925 213.861,253.198 			"/>
			<polygon fill="#FFFFFF" points="245.189,302.578 246.778,301.405 209.209,251.969 207.62,253.143 			"/>
			<polygon fill="#FFFFFF" points="235.194,304.377 236.859,303.311 203.048,252.019 201.382,253.083 			"/>
			<polygon fill="#FFFFFF" points="225.203,306.172 226.938,305.22 196.882,252.07 195.148,253.021 			"/>
			<polygon fill="#FFFFFF" points="215.215,307.964 217.012,307.131 190.713,252.125 188.917,252.957 			"/>
			<polygon fill="#FFFFFF" points="205.231,309.753 207.082,309.041 184.54,252.18 182.689,252.893 			"/>
			<polygon fill="#FFFFFF" points="195.253,311.544 197.147,310.954 178.363,252.237 176.469,252.826 			"/>
			<polygon fill="#FFFFFF" points="185.279,313.331 187.208,312.869 172.181,252.294 170.253,252.759 			"/>
			<polygon fill="#FFFFFF" points="175.31,315.123 177.265,314.781 165.995,252.352 164.04,252.693 			"/>
			<polygon fill="#FFFFFF" points="165.345,316.915 167.316,316.691 159.804,252.406 157.83,252.628 			"/>
			<polygon fill="#FFFFFF" points="155.382,318.709 157.365,318.6 153.608,252.459 151.625,252.567 			"/>
			<rect x="145.424" y="252.508" fill="#FFFFFF" width="1.985" height="67.998"/>
		</g>
	</g>
</g>
</svg>
