<?xml version="1.0" encoding="utf-8"?>
<!-- Generator: Adobe Illustrator 15.1.0, SVG Export Plug-In . SVG Version: 6.00 Build 0)  -->
<!DOCTYPE svg PUBLIC "-//W3C//DTD SVG 1.1//EN" "http://www.w3.org/Graphics/SVG/1.1/DTD/svg11.dtd">
<svg version="1.1" id="Layer_1" xmlns="http://www.w3.org/2000/svg" xmlns:xlink="http://www.w3.org/1999/xlink" x="0px" y="0px"
	 width="546px" height="828px" viewBox="0 0 546 828" enable-background="new 0 0 546 828" xml:space="preserve">
<g>
	<polygon fill="#FFFFFF" points="546,828 546,20.334 503.333,20.334 503.333,51.001 472.667,51.001 472.667,22.334 436.333,22.334 
		436.333,48.667 394.333,48.667 394.333,20.334 365,20.334 365,8.001 328,8.001 328,33.667 290.667,33.667 290.667,7.667 
		255.333,7.667 255.333,33.667 218,33.667 218,8.001 181,8.001 181,20.334 151.667,20.334 151.667,48.667 109.667,48.667 
		109.667,22.334 73.333,22.334 73.333,51.001 42.667,51.001 42.667,20.334 0,20.334 0,828 	"/>
	<g>
		<path fill="#ED1C24" d="M388.666,362.167c33.486,0,43.954-2.762,53.189-5.199C448.908,355.107,455,353.5,472,353.5
			c22.191,0,35.018,1.578,46.333,2.969c8.859,1.09,16.511,2.031,26.667,2.031v-13c-9.359,0-16.645-0.896-25.08-1.934
			c-11.687-1.438-24.932-3.066-47.92-3.066c-18.687,0-25.863,1.894-33.462,3.898c-8.471,2.235-18.071,4.769-49.872,4.769
			c-27.825,0-50.908-4.414-67.292-8.944c21.445-4.211,43.994-13.707,73.42-34.551c7.207,5.554,30.439,18.829,87.872,18.829
			c37.559,0,54.273-3.323,54.967-3.464l-2.589-12.74c-0.16,0.032-16.381,3.204-52.378,3.204c-46.322,0-68.266-9.156-76.687-14.052
			c3.277-2.492,6.634-5.11,10.085-7.876c6.017-4.821,11.729-9.43,17.111-13.785C443.02,280.274,468.962,290.5,501,290.5
			c18.156,0,40.286-4.187,41.22-4.365l-2.438-12.77c-0.217,0.042-21.873,4.135-38.781,4.135c-24.141,0-44.873-6.497-56.356-11.007
			c6.301-5.11,12.125-9.834,17.553-14.195c8.083,8.085,24.746,20.202,52.054,20.202c17.543,0,31.868-3.279,32.47-3.418
			l-2.936-12.664c-0.134,0.031-13.547,3.083-29.534,3.083c-21.778,0-35.148-9.044-41.826-15.349
			c3.986-3.144,7.746-6.056,11.311-8.747C501.211,245.732,515.054,252,524,252c6.231,0,21.819-0.849,22.479-0.885l-0.709-12.98
			C545.612,238.144,529.88,239,524,239c-5.771,0-16.277-4.81-28.787-11.944C514.62,213.609,528.477,208,545.5,208v-13
			c-2.142,0-4.236,0.077-6.298,0.228l-1.599-9.641c-0.347,0.058-34.955,5.746-60.271,5.746c-21.221,0-36.953-2.186-41.492-2.895
			c-1.758-1.214-3.485-2.408-5.158-3.564c-9.01-6.229-17.519-12.112-24.596-16.795c-8.419-5.571-17.005-12.749-26.096-20.348
			c-1.051-0.878-2.109-1.763-3.172-2.648c2.204-0.413,4.477-0.904,6.816-1.477c8.403,8.196,41.72,33.894,129.029,33.894
			c20.324,0,29.399-1.53,29.775-1.595l-2.202-12.812c-0.084,0.014-8.579,1.407-27.573,1.407c-68.095,0-100.85-16.205-113.896-25.332
			c4.982-1.667,10.092-3.556,15.234-5.603c7.878,7.34,33.737,26.601,88.162,26.601h40v-13h-40
			c-41.545,0-64.514-12.068-74.578-19.327c3.617-1.605,7.204-3.259,10.728-4.939c9.075,6.412,37.744,23.599,84.351,23.599h23v-13
			h-23c-34.912,0-58.942-10.611-70.723-17.382c1.043-0.542,2.078-1.083,3.098-1.623c3.707-1.962,7.357-3.754,10.991-5.394
			c6.802,3.542,29.129,14.232,50.8,14.232h23.994l-0.041-13h-23.953c-12.041,0-24.773-4.068-33.863-7.765
			C500.928,96.837,520.018,94.5,545,94.5v-13c-39.882,0-66.81,6.029-96.041,21.505C420.288,118.184,382.744,133.5,363.5,133.5v0.73
			c-23.772-18.7-51.402-35.73-89-35.73c-49.8,0-89.409,28.422-121.235,51.259c-20.745,14.886-38.661,27.741-52.598,27.741v13
			c2.941,0,5.919-0.374,8.939-1.061c2.176,1.231,29.725,16.061,93.144,16.061c103.3,0,152.353-36.964,166.366-49.914
			c0.85,0.709,1.695,1.416,2.537,2.12c8.144,6.807,15.894,13.283,23.702,18.781c-12.166,8.748-51.314,34.366-110.657,48.952
			c-72.328,17.777-152.15,11.893-152.948,11.832l-1.002,12.961c1.331,0.103,14.717,1.096,35.058,1.096
			c30.703,0,77.239-2.263,121.996-13.264c70.09-17.227,112.423-48.745,118.968-53.859c5.119,3.483,10.711,7.348,16.52,11.364
			c17.772,12.288,34.14,23.457,48.569,32.563c-0.873,0.67-1.764,1.36-2.657,2.052C464.595,227.72,453.747,223,438.25,223
			c-25.173,0-46.609,9.908-71.43,21.381c-10.62,4.909-21.603,9.985-33.94,14.816C288.308,276.65,248.058,285.5,213.25,285.5
			c-14.534,0-28.172-3.057-28.308-3.088l-2.887,12.675c0.611,0.139,15.148,3.413,31.195,3.413c36.437,0,78.281-9.15,124.37-27.197
			c12.699-4.973,23.861-10.132,34.654-15.121C396.668,244.906,415.936,236,438.25,236c8.319,0,14.928,1.653,19.415,3.276
			c-6.591,5.264-13.695,11.024-21.479,17.337c-8.384,6.801-17.886,14.509-28.251,22.814
			c-65.003,52.089-94.362,51.602-142.986,50.792c-6.5-0.108-13.22-0.22-20.45-0.22v13c7.122,0,13.787,0.111,20.233,0.218
			c5.843,0.097,11.453,0.19,16.916,0.19c3.113,0,6.177-0.031,9.21-0.108C300.37,347.62,336.286,362.167,388.666,362.167z
			 M327.609,125.689c-13.576,4.985-42.581,14.561-65.109,14.561c-19.669,0-41.276-6.268-54.081-10.693
			c5.505-2.89,11.181-5.558,17.02-7.916c7.141,5.193,24.629,15.609,50.062,15.609c29.873,0,44.013-11.328,47.089-14.168
			C324.285,123.917,325.957,124.79,327.609,125.689z M262.5,153.25c32.92,0,75.933-17.744,77.747-18.499l-0.799-1.92
			c4.169,2.753,8.207,5.651,12.13,8.63C332.431,149.88,291.631,165.5,252.5,165.5c-37.482,0-66.231-8.407-80.07-13.431
			c6.761-4.746,13.856-9.547,21.283-14.108C201.523,141.137,233.234,153.25,262.5,153.25z M308.409,117.178
			c-5.73,3.117-16.273,7.072-32.909,7.072c-14.702,0-26.328-4.146-34.061-8.087c10.522-2.932,21.539-4.663,33.061-4.663
			C286.81,111.5,298.031,113.633,308.409,117.178z M127.075,182.573c10.246-5.432,21.075-13.145,32.722-21.501
			c8.756,3.838,43.257,17.428,92.703,17.428c33.279,0,66.886-10.248,89.361-18.917c-23.537,14.433-67.63,32.917-139.111,32.917
			C164.325,192.5,139.903,186.798,127.075,182.573z M458.321,203.781c5.64,0.33,12.025,0.553,19.012,0.553
			c11.297,0,24.078-1.041,35.126-2.25c-9.099,4.036-18.546,9.875-29.425,17.711C475.017,214.837,466.592,209.328,458.321,203.781z"
			/>
		<path fill="#ED1C24" d="M523.25,435H541v-13h-17.75c-14.568,0-43.401-7.271-71.285-14.303C421.992,400.139,393.682,393,377.5,393
			c-25.826,0-45.133,10.284-53.377,14.675c-1.067,0.569-2.277,1.213-2.657,1.368c0.029-0.012,0.733-0.293,1.784-0.293v13
			c2.103,0,3.633-0.815,6.985-2.601C337.622,415.214,354.92,406,377.5,406c14.568,0,43.401,7.271,71.285,14.303
			C478.758,427.861,507.068,435,523.25,435z"/>
		<path fill="#ED1C24" d="M540.25,492.25v-13c-27.782,0-43.088-4.233-63.269-10.69c-18.969-6.07-45.793-10.31-65.231-10.31
			c-19.303,0-28.159,3.631-29.105,4.045l5.144,11.938c0.073-0.029,7.451-2.983,23.962-2.983c18.244,0,43.438,3.985,61.269,9.69
			C493.713,487.562,510.647,492.25,540.25,492.25z"/>
		<path fill="#ED1C24" d="M540.691,536.702l3.893-12.404c-1.958-0.614-43.142-15.048-69.584-15.048
			c-27.106,0-38.859,8.097-40.11,9.021l7.644,10.515c0.094-0.065,9.69-6.535,32.467-6.535
			C499.449,522.25,540.231,536.558,540.691,536.702z"/>
		<path fill="#ED1C24" d="M538.327,556.484C537.313,555.853,518.297,541,491,541c-18.497,0-26.466,4.405-27.313,4.908l6.627,11.184
			l-0.123,0.071c0.059-0.032,6.085-3.163,20.81-3.163c23.496,0,40.237,13.385,40.448,13.516L538.327,556.484z"/>
		<path fill="#ED1C24" d="M528.638,582.916c-10.925,0-18.708,9.843-20.143,10.965l8.004,10.243
			c4.377-3.408,7.511-8.208,12.139-8.208c7.319,0,10.688,1.159,10.721,1.171l-0.114-0.044l4.787-12.086
			C543.17,584.616,538.384,582.916,528.638,582.916z"/>
	</g>
	<g>
		<path fill="#ED1C24" d="M59.919,219.073c-0.522-1.563-1.364-3.58-2.575-6.166l-0.065-0.129c-1.46-2.692-3.224-5.073-5.243-7.077
			L10,164l-0.262,23.242l2.797,2.775l-2.924,8.396l-0.563,49.762l52.249,51.835l0.79-69.743c0.026-2.219-0.216-4.324-0.718-6.258
			C60.91,222.252,60.423,220.593,59.919,219.073z M26.364,241.851l0.426-37.692l18.145,18l-0.426,37.692L26.364,241.851z"/>
		<path fill="#ED1C24" d="M89.293,244.943c-0.371-1.069-0.882-2.095-1.519-3.052c-0.548-0.82-1.079-1.576-1.594-2.273
			l-21.204-21.077l-0.262,23.242l8.358,8.292l-0.227,20.093l17.053,16.917l0.404-35.73c0.007-0.641-0.064-1.547-0.224-2.857
			C89.914,247.175,89.65,245.981,89.293,244.943z"/>
		<path fill="#ED1C24" d="M129.403,281.658c-3.033-3.008-5.715-5.007-8.201-6.111c-1.708-0.757-3.446-1.146-5.166-1.152
			c-0.022-0.145-0.046-0.286-0.073-0.424c-0.181-0.93-0.596-2.187-1.273-3.846c-0.685-1.669-1.232-2.802-1.729-3.569
			c-0.503-0.776-1.204-1.605-2.141-2.536L94.974,248.3l-0.263,23.242l6.156,6.106c-0.458,0.468-0.802,1.003-1.027,1.603
			c-0.226,0.606-0.449,1.346-0.666,2.202c-0.242,0.964-0.371,1.901-0.381,2.786l-0.592,52.383l17.145,17.009l0.621-54.903
			c0.01-0.883,0.132-3.782,1.281-4.005c0.115-0.022,0.231-0.033,0.355-0.033c0.714,0,2.311,0.396,4.983,3.047l1.114,1.106
			c2.941,2.917,5.528,6.668,7.691,11.148c2.118,4.391,3.171,8.457,3.13,12.083l-0.303,26.778l-16.252-16.123l-0.264,23.241
			l33.305,33.04l0.63-55.692c0.094-8.276-2.086-17.545-6.479-27.552C140.78,295.797,135.479,287.687,129.403,281.658z"/>
		<path fill="#ED1C24" d="M179.899,332.973c-0.475-0.754-1.254-1.666-2.382-2.785l-20.415-20.252l-0.263,23.24l7.336,7.279
			l-0.69,60.933l17.61,17.47l0.866-76.572c0.027-2.368-0.186-4.282-0.65-5.85C180.849,334.872,180.4,333.772,179.899,332.973z"/>
		<path fill="#ED1C24" d="M232.391,387.225c-0.552-1.55-1.198-2.886-1.925-3.976c-0.717-1.07-1.365-1.888-1.981-2.5l-41.572-41.241
			l-0.262,23.242l25.261,25.061l-0.689,60.934l17.052,16.916l0.689-60.933l4.737,4.7l0.174-15.508
			c0.009-0.802-0.107-1.751-0.357-2.907C233.285,389.951,232.906,388.678,232.391,387.225z"/>
		<path fill="#ED1C24" d="M285.995,486.628c2.856-0.553,4.92-2.37,5.966-5.255c0.844-2.338,1.277-5.541,1.325-9.79l0.22-19.304
			c0.021-1.921-0.254-3.776-0.817-5.522c-0.585-1.811-1.254-3.16-2.048-4.128c-0.645-0.782-1.311-1.517-1.979-2.179l-17.332-17.193
			l-0.262,23.241l5.2,5.161l-0.08,7.104c-0.011,0.992-0.194,2.125-0.674,2.324l-0.237,0.105c-0.044-0.006-0.106-0.015-0.19-0.037
			l-15.428-49.477l-22.416-22.24l10.843,33.865c-0.012,0-0.024,0-0.036,0c-2.121,0-3.929,0.949-5.229,2.749
			c-1.822,2.526-2.763,5.481-2.801,8.783c-0.007,0.606,0.044,1.756,0.155,3.516l2.151,17.746l-3.725-3.696l-0.264,23.242
			l24.606,24.411l-4.361-42.215l16.74,54.495l22.302,22.126l-14.562-47.734C284.055,486.85,285.043,486.813,285.995,486.628z"/>
		<path fill="#ED1C24" d="M375.849,529.789c-0.326-1.012-0.856-2.163-1.619-3.521c-0.784-1.393-1.857-2.771-3.192-4.097
			l-44.636-44.283l-0.262,23.243l33.618,33.353l-0.689,60.932l17.609,17.471l0.849-74.997c0.021-1.73-0.206-3.376-0.672-4.892
			C376.456,531.712,376.124,530.645,375.849,529.789z"/>
		<polygon fill="#ED1C24" points="325.45,562.064 342.502,578.982 343.076,528.164 326.024,511.246 		"/>
		<path fill="#ED1C24" d="M423.524,574.312c-0.611-0.653-1.144-1.204-1.595-1.651l-23.405-23.219l0.168-14.842l-17.052-16.915
			l-0.431,38.081l27.86,27.64l-0.357,31.663c-0.021,1.817-0.238,2.79-0.416,3.28c-0.154,0.426-0.328,0.602-0.439,0.681
			c-0.111-0.015-0.381-0.074-0.848-0.312c-1.035-0.522-1.902-1.128-2.58-1.802l-12.038-11.939l-0.263,23.241l12.444,12.344
			c2.663,2.643,5.24,4.575,7.658,5.746c1.629,0.789,3.173,1.189,4.589,1.189c1.116,0,2.163-0.243,3.114-0.724
			c2.019-1.021,3.53-2.831,4.497-5.386c0.851-2.257,1.283-4.996,1.321-8.377l0.57-50.427c0.019-1.683-0.235-3.27-0.761-4.726
			C425.016,576.352,424.349,575.192,423.524,574.312z"/>
		<path fill="#ED1C24" d="M483.507,636.037c-0.399-1.354-0.832-2.394-1.328-3.186c-0.477-0.756-1.26-1.67-2.393-2.794l-20.49-20.328
			l-0.262,23.241l7.802,7.741l-0.419,36.916c-0.002,0.225-0.013,0.408-0.026,0.559c-0.068,0.004-0.128,0.006-0.178,0.007
			c-0.055-0.044-0.124-0.107-0.211-0.192l-9.194-9.122l0.604-53.332c0.01-0.907-0.014-1.837-0.071-2.765
			c-0.065-1.052-0.302-2.239-0.721-3.627c-0.451-1.498-0.973-2.622-1.601-3.439c-0.508-0.657-1.185-1.404-2.072-2.284l-20.49-20.328
			l-0.263,23.242l7.337,7.278l-0.427,37.691l-8.916-8.845l-0.263,23.243l37.519,37.222c2.068,2.048,3.778,3.167,5.379,3.521
			c0.516,0.116,1.053,0.173,1.596,0.173c1.139,0,2.337-0.257,3.563-0.766c1.788-0.745,3.174-1.851,4.115-3.286
			c0.941-1.432,1.414-3.437,1.444-6.13l0.616-54.367c0.009-0.817,0.002-1.651-0.021-2.509
			C484.108,638.533,483.901,637.377,483.507,636.037z"/>
		<path fill="#ED1C24" d="M538.827,696.309c-4.379-9.968-9.679-18.078-15.755-24.106c-3.035-3.01-5.719-5.008-8.202-6.109
			c-1.707-0.759-3.445-1.146-5.165-1.153c-0.022-0.145-0.047-0.285-0.072-0.424c-0.18-0.926-0.597-2.182-1.273-3.847
			c-0.675-1.646-1.239-2.811-1.728-3.568c-0.505-0.777-1.207-1.606-2.143-2.536l-15.847-15.721l-0.263,23.243l6.159,6.107
			c-0.548,0.562-0.854,1.137-1.029,1.597c-0.229,0.613-0.446,1.333-0.668,2.203c-0.241,0.96-0.369,1.898-0.379,2.786l-0.593,52.384
			l17.146,17.009l0.621-54.903c0.01-0.882,0.133-3.78,1.282-4.005c0.114-0.021,0.231-0.033,0.355-0.033
			c0.713,0,2.31,0.396,4.983,3.048l1.113,1.105c2.939,2.918,5.527,6.668,7.69,11.15c2.119,4.39,3.172,8.454,3.129,12.081
			l-0.303,26.778l-16.252-16.124l-0.263,23.242l33.305,33.04l0.631-55.692C545.401,715.586,543.221,706.314,538.827,696.309z"/>
	</g>
	<g>
		<path fill="#0058A9" d="M102.857,673c0,0,31.188,20,78.967,20c47.778,0,89.667-23,89.667-23s23.806,13,58.312,13
			c24.263,0,42.278-6.917,50.845-11.027l-22.244-20.989c-8.72,2.21-22.362,4.517-41.375,4.517c-23.392,0-42.552-12.25-42.552-12.25
			s-34.839,26.417-78.055,26.417c-59.06,0-94.23-23.333-94.23-23.333s-57.117,26-77.689,26c-9.874,0-18.212,0-24.221,0v23.333
			c3.846,0,9.091,0,16.258,0C40.431,695.667,102.857,673,102.857,673z"/>
		<path fill="#0058A9" d="M273.399,607.667c0,0-27.207,22.667-82.948,22.667c-55.742,0-80.958-16.667-80.958-16.667
			S51.496,638.042,0.284,638.97v21.962c49.208-1.467,113.854-27.265,113.854-27.265s23.889,16.667,91.576,16.667
			c32.433,0,69.013-20,69.013-20s13.272,9.333,46.452,9.333c10.229,0,17.297-1.206,22.19-2.871l-19.723-18.61
			c-3.368,0.511-7.247,0.814-11.759,0.814C278.708,619,273.399,607.667,273.399,607.667z"/>
		<path fill="#0058A9" d="M486.301,771.667c-1.903,0-4.065,0-6.524,0c-31.853,0-63.705-16-63.705-16S381.15,773,350.625,773
			s-72.58-15.333-72.58-15.333s-36.663,26.583-82.451,26.583c-52.755,0-87.428-29.25-87.428-29.25S49.721,778.334,3.27,778.334
			c-1.013,0-1.998,0-2.986,0V828H546L486.301,771.667z"/>
		<path fill="#0058A9" d="M107.502,721c0,0,35.17,34.667,94.894,34.667c39.483,0,74.072-33.667,74.072-33.667
			s28.618,21.667,62.627,21.667c39.815,0,62.376-18.667,62.376-18.667s43.155,29.557,67.154,29.99l-66.264-62.528
			C391.393,697.904,371.997,705,345.398,705c-43.132,0-66.69-18-66.69-18s-49.106,29.334-86.93,29.334
			c-37.825,0-87.594-24-87.594-24S50.385,723,0.615,723c-0.112,0-0.22,0-0.332,0v30c1.625,0,3.275,0,4.977,0
			C51.048,753,107.502,721,107.502,721z"/>
		<path fill="#0058A9" d="M106.175,600.334c0,0,29.862,20,86.267,20c56.404,0,80.294-21.334,80.294-21.334s19.906,14,41.142,14
			c1.43,0,2.805-0.049,4.133-0.133L0.284,325v301.904C70.003,625.192,106.175,600.334,106.175,600.334z"/>
	</g>
	<path fill="#0058A9" d="M498,14.082V44.5h-19V14.082h-49V44.5h-25.5V14.082H371V0h-49v30.053h-25V0h-48v30.053h-25V0h-49v14.082
		h-33.5V44.5H116V14.082H67V44.5H48V14.082H0v110.586l0.803,1.461c0.361,0.659,9.047,16.31,25.54,32.07
		c22.113,21.131,47.814,32.301,74.324,32.301v-13c-51.118,0-82.369-47.546-87.667-56.268V27.082h22V57.5h45V27.082h23V57.5h51.5
		V27.082H175V137.5h13V13h23v30.053h51V13h22v30.053h51V13h23v125.875h13V27.082h20.5V57.5H443V27.082h23V57.5h45V27.082h22V85h13
		V14.082H498z"/>
</g>
</svg>
