<?xml version="1.0" encoding="utf-8"?>
<!-- Generator: Adobe Illustrator 15.0.0, SVG Export Plug-In . SVG Version: 6.00 Build 0)  -->
<!DOCTYPE svg PUBLIC "-//W3C//DTD SVG 1.1//EN" "http://www.w3.org/Graphics/SVG/1.1/DTD/svg11.dtd">
<svg version="1.1" id="Layer_1" xmlns="http://www.w3.org/2000/svg" xmlns:xlink="http://www.w3.org/1999/xlink" x="0px" y="0px"
	 width="70.266px" height="70.265px" viewBox="0 0 70.266 70.265" enable-background="new 0 0 70.266 70.265" xml:space="preserve">
<path fill="#007E3D" d="M10.618,1.669c0,0-8.948,0-8.948,8.949v49.028c0,0,0,8.949,8.948,8.949h49.027c0,0,8.95,0,8.95-8.949V10.619
	c0,0,0-8.949-8.95-8.949H10.618z"/>
<path fill="none" stroke="#D0DD28" stroke-width="3.339" d="M10.618,1.669c0,0-8.948,0-8.948,8.949v49.028c0,0,0,8.949,8.948,8.949
	h49.027c0,0,8.95,0,8.95-8.949V10.619c0,0,0-8.949-8.95-8.949H10.618z"/>
<path fill="none" stroke="#FFFFFF" stroke-width="1.579" d="M41.78,12.13c0,0-1.342,1.055-2.621-0.17
	c-1.277-1.226-1.854-3.197-1.854-3.197s1.406-0.319,3.195,0.746C42.291,10.576,41.78,12.13,41.78,12.13z"/>
<polyline fill="none" stroke="#FFFFFF" stroke-width="1.353" points="39.554,27.248 48.929,33.694 45.2,36.357 43.123,36.357 
	42.058,38.221 45.84,38.221 56.014,33.108 51.305,29.911 57.696,22.933 42.058,12.258 "/>
<g>
	<path fill="none" stroke="#FFFFFF" stroke-width="1.353" d="M21.772,16.328l-3.58-2.45l0.384-1.108c0,0,1.79,0.607,2.173-0.448
		c0.385-1.055-1.65-2.493-1.65-2.493l1.459-2.045l35.222,17.014"/>
	<path fill="none" stroke="#FFFFFF" stroke-width="1.353" d="M30.657,8.487l-2.076,0.117l-3.942,1.098l-8.31,22.181l3.216,0.043
		c0.352-0.597,0.994-1.002,1.737-1.002c0.763,0,1.418,0.427,1.764,1.049l2.315,0.032c0.34-0.64,1.005-1.081,1.78-1.081
		c0.795,0,1.476,0.462,1.807,1.129l1.603,0.022L30.657,8.487z"/>
</g>
<line fill="none" stroke="#FFFFFF" stroke-width="1.353" x1="18.064" y1="27.195" x2="53.733" y2="27.195"/>
<polygon fill="none" stroke="#FFFFFF" stroke-width="1.353" points="17.937,34.173 21.836,34.226 18.299,38.915 13.526,38.979 
	14.357,36.73 17.127,36.485 "/>
<g>
	<path fill="#FFFFFF" d="M35.735,46.515c0.812,0,1.47-0.658,1.47-1.47s-0.658-1.47-1.47-1.47c-0.813,0-1.471,0.658-1.471,1.47
		S34.923,46.515,35.735,46.515"/>
</g>
<rect x="47.229" y="44.281" transform="matrix(-0.707 -0.7072 0.7072 -0.707 50.1687 111.0891)" fill="#FFFFFF" width="1.739" height="1.74"/>
<line fill="none" stroke="#FFFFFF" stroke-width="0.677" x1="48.812" y1="45.115" x2="63.046" y2="45.115"/>
<line fill="none" stroke="#FFFFFF" stroke-width="0.677" x1="46.615" y1="43.088" x2="63.046" y2="43.088"/>
<line fill="none" stroke="#FFFFFF" stroke-width="0.677" x1="47.004" y1="47.072" x2="63.046" y2="47.072"/>
<polygon fill="#FFFFFF" points="39.97,42.747 42.601,42.747 40.544,44.804 37.913,44.804 "/>
<polygon fill="#FFFFFF" points="39.969,47.41 42.601,47.41 40.544,45.353 37.912,45.353 "/>
<polygon fill="#FFFFFF" points="42.989,42.747 45.621,42.747 43.563,44.804 40.932,44.804 "/>
<polygon fill="#FFFFFF" points="42.989,47.41 45.62,47.41 43.563,45.353 40.932,45.353 "/>
<polygon fill="#FFFFFF" points="46.003,42.747 48.634,42.747 46.577,44.804 43.945,44.804 "/>
<polygon fill="#FFFFFF" points="46.002,47.41 48.634,47.41 46.577,45.353 43.944,45.353 "/>
<rect x="22.185" y="44.281" transform="matrix(0.707 -0.7072 0.7072 0.707 -25.1775 29.5359)" fill="#FFFFFF" width="1.739" height="1.74"/>
<line fill="none" stroke="#FFFFFF" stroke-width="0.677" x1="22.341" y1="45.115" x2="8.106" y2="45.115"/>
<line fill="none" stroke="#FFFFFF" stroke-width="0.677" x1="24.537" y1="43.088" x2="8.106" y2="43.088"/>
<line fill="none" stroke="#FFFFFF" stroke-width="0.677" x1="24.148" y1="47.072" x2="8.106" y2="47.072"/>
<polygon fill="#FFFFFF" points="31.183,42.747 28.552,42.747 30.608,44.804 33.239,44.804 "/>
<polygon fill="#FFFFFF" points="31.184,47.41 28.552,47.41 30.608,45.353 33.241,45.353 "/>
<polygon fill="#FFFFFF" points="28.164,42.747 25.531,42.747 27.589,44.804 30.221,44.804 "/>
<polygon fill="#FFFFFF" points="28.164,47.41 25.532,47.41 27.59,45.353 30.221,45.353 "/>
<polygon fill="#FFFFFF" points="25.149,42.747 22.519,42.747 24.575,44.804 27.207,44.804 "/>
<polygon fill="#FFFFFF" points="25.15,47.41 22.519,47.41 24.576,45.353 27.208,45.353 "/>
<g>
	<path fill="#FFFFFF" d="M25.662,51.898c0.316-0.275,0.635-0.547,0.947-0.826c0.544,0.606,1.1,1.201,1.645,1.806
		c0.161-0.508,0.332-1.014,0.481-1.525c0.552-0.015,1.104-0.002,1.656-0.006c-0.066,0.359-0.146,0.717-0.211,1.077
		c-0.139,0.001-0.275-0.001-0.412,0.008c-0.131,0.297-0.203,0.631-0.423,0.88c-0.095,0.127-0.196,0.25-0.284,0.382
		c0.405,0.416,0.797,0.844,1.203,1.257c-0.279,0.307-0.577,0.597-0.867,0.894c-0.504-0.54-1.021-1.067-1.521-1.61
		c-0.157-0.227-0.284-0.474-0.439-0.702c-0.174,0.682-0.354,1.362-0.524,2.044c-0.46,0.002-0.921-0.001-1.382,0.002
		c0.178-0.695,0.375-1.384,0.557-2.078c0.059-0.273,0.286-0.467,0.391-0.718C26.218,52.478,25.926,52.201,25.662,51.898z"/>
	<path fill="#FFFFFF" d="M42.822,51.085c0.358,0.562,0.71,1.128,1.067,1.69c0.218-0.474,0.428-0.952,0.641-1.428
		c0.485-0.001,0.97,0,1.455,0c-0.064,0.361-0.147,0.718-0.215,1.078c-0.115,0.001-0.229,0.001-0.344,0
		c-0.133,0.242-0.197,0.523-0.388,0.729c-0.127,0.165-0.265,0.321-0.382,0.493c0.393,0.339,0.772,0.694,1.161,1.039
		c-0.054,0.303-0.126,0.603-0.174,0.906c-1.236,0-2.474,0-3.711,0c0.073-0.364,0.143-0.729,0.222-1.091
		c0.625-0.001,1.252,0.002,1.878-0.001c-0.244-0.165-0.494-0.322-0.742-0.48c-0.084-0.05-0.128-0.141-0.181-0.219
		c-0.443-0.662-0.89-1.322-1.332-1.983C42.126,51.574,42.473,51.328,42.822,51.085z"/>
	<path fill="#FFFFFF" d="M8.55,52.426c0.073-0.36,0.146-0.719,0.217-1.079c1.213,0,2.426,0,3.639,0
		c0.168-0.003,0.339,0.106,0.386,0.271c0.021,0.102,0.01,0.206,0.012,0.309c-0.001,1.222,0,2.443-0.001,3.666
		c-0.446,0-0.894,0-1.34,0c0-1.056,0-2.111-0.001-3.167c-0.372,0-0.744,0-1.116,0c-0.001,0.625,0,1.249,0,1.873
		c-0.013,0.338-0.104,0.696-0.35,0.943c-0.23,0.244-0.576,0.337-0.902,0.351c-0.329,0.001-0.658,0-0.986,0
		c0.076-0.363,0.143-0.729,0.222-1.091c0.163-0.002,0.327,0.003,0.491,0c0.103,0.001,0.187-0.1,0.181-0.201
		c0.015-0.388-0.01-0.777,0.012-1.165c0.07-0.238,0.16-0.47,0.227-0.709C9.009,52.425,8.78,52.426,8.55,52.426z"/>
	<path fill="#FFFFFF" d="M13.421,52.426c0.068-0.361,0.147-0.719,0.217-1.079c0.468,0.001,0.936,0,1.403,0
		c0.178-0.001,0.387,0.116,0.397,0.31c0.002,0.67,0,1.341,0.001,2.011c-0.447,0.066-0.894,0.129-1.341,0.192
		c-0.001-0.478,0-0.956-0.001-1.434C13.872,52.426,13.646,52.426,13.421,52.426z"/>
	<path fill="#FFFFFF" d="M16.338,51.347c0.982,0,1.966,0,2.947,0c0.193-0.004,0.398,0.15,0.399,0.353c0,1.293,0,2.586,0,3.879
		c-0.447,0-0.894,0-1.34,0c-0.002-1.051,0-2.102,0-3.153c-0.741-0.001-1.482,0.003-2.223-0.001
		C16.195,52.065,16.265,51.706,16.338,51.347z"/>
	<path fill="#FFFFFF" d="M20.214,52.426c0.069-0.361,0.146-0.719,0.218-1.08c0.468,0.002,0.935,0,1.401,0
		c0.193-0.004,0.399,0.153,0.398,0.356c0.001,1.292,0.001,2.584,0,3.876c-0.446,0-0.894,0-1.34,0c-0.001-1.051,0-2.102-0.001-3.153
		C20.665,52.426,20.439,52.426,20.214,52.426z"/>
	<path fill="#FFFFFF" d="M22.967,51.348c0.784-0.003,1.568,0,2.352-0.001c-0.078,0.359-0.144,0.721-0.22,1.079
		c-0.204,0-0.409,0-0.613,0c0.152,1.049,0.319,2.098,0.487,3.146c-0.464,0.018-0.93,0-1.394,0.009
		c-0.107-0.755-0.212-1.512-0.322-2.268c-0.08-0.308,0.114-0.592,0.179-0.885c-0.228-0.003-0.455,0-0.683-0.002
		C22.822,52.066,22.9,51.708,22.967,51.348z"/>
	<path fill="#FFFFFF" d="M31.271,51.348c0.771-0.002,1.542,0,2.313-0.001c0.385-0.013,0.798,0.067,1.097,0.327
		c0.291,0.249,0.414,0.64,0.423,1.013c-0.002,0.964,0,1.929-0.001,2.893c-0.446,0-0.894,0-1.34,0c-0.001-0.935,0-1.87,0-2.806
		c0.001-0.094-0.013-0.199-0.09-0.263c-0.096-0.087-0.235-0.078-0.356-0.084c-0.75,0-1.5,0.001-2.251,0
		C31.132,52.066,31.206,51.708,31.271,51.348z"/>
	<path fill="#FFFFFF" d="M37.394,51.348c0.771-0.002,1.542,0,2.313-0.001c0.388-0.013,0.801,0.068,1.1,0.328
		c0.29,0.25,0.412,0.642,0.421,1.014c-0.002,0.964,0,1.927-0.001,2.89c-0.447,0-0.894,0-1.34,0c-0.001-0.934-0.001-1.869,0-2.803
		c-0.001-0.083-0.008-0.176-0.066-0.241c-0.08-0.1-0.219-0.102-0.335-0.107c-0.766-0.002-1.53,0.001-2.296-0.001
		C37.254,52.066,37.33,51.708,37.394,51.348z"/>
	<path fill="#FFFFFF" d="M46.46,51.347c0.326,0,0.653,0,0.981,0c0.208-0.008,0.405,0.144,0.454,0.345
		c0.258,0.883,0.506,1.77,0.769,2.651c0.22-0.066,0.422-0.246,0.423-0.49c0.01-0.476,0.002-0.952,0.004-1.428
		c-0.166,0-0.332,0-0.498,0c0.07-0.36,0.142-0.72,0.216-1.079c0.407,0.001,0.815,0,1.225,0c0.193-0.004,0.399,0.153,0.398,0.356
		c0.001,0.715-0.001,1.431,0.001,2.146c-0.002,0.353-0.147,0.698-0.388,0.956c-0.239,0.254-0.549,0.437-0.88,0.543
		c-0.888,0.277-1.775,0.551-2.662,0.829c0.086-0.422,0.163-0.845,0.244-1.268c0.308-0.099,0.62-0.188,0.93-0.284
		c-0.146-0.294-0.308-0.582-0.448-0.878c-0.163-0.438-0.314-0.881-0.476-1.32c-0.167-0.001-0.334-0.001-0.501,0
		C46.315,52.066,46.389,51.707,46.46,51.347z"/>
	<path fill="#FFFFFF" d="M51.218,51.351c0.469-0.01,0.938-0.001,1.406-0.004c0.193-0.004,0.4,0.152,0.399,0.355
		c0.001,1.293,0.001,2.584,0,3.877c-0.447,0-0.894,0-1.34,0c-0.001-1.051,0-2.102,0-3.153c-0.227,0-0.452,0-0.678,0
		C51.071,52.066,51.157,51.711,51.218,51.351z"/>
	<path fill="#FFFFFF" d="M53.89,51.35c0.769-0.006,1.536,0,2.305-0.003c0.469,0.01,0.955,0.161,1.294,0.496
		c0.3,0.285,0.466,0.701,0.452,1.114c-0.004,0.656,0.005,1.313-0.004,1.97c-0.074,0.228-0.188,0.442-0.273,0.667
		c-0.634,0-1.269,0-1.902,0c0.069-0.364,0.137-0.728,0.211-1.091c0.209,0,0.418,0,0.627,0c0-0.516,0.002-1.031,0-1.547
		c0.007-0.217-0.124-0.448-0.344-0.501c-0.221-0.049-0.448-0.02-0.672-0.026c-0.126,1.055-0.258,2.109-0.375,3.165
		c-0.461,0.001-0.921,0-1.382,0c0.103-0.716,0.192-1.433,0.291-2.149c0.024-0.357,0.199-0.677,0.298-1.016
		c-0.245-0.003-0.491,0-0.735-0.002C53.745,52.066,53.825,51.709,53.89,51.35z"/>
	<path fill="#FFFFFF" d="M59.069,51.348c0.756-0.002,1.511,0,2.267-0.001c0.39-0.017,0.807,0.051,1.116,0.304
		c0.309,0.247,0.439,0.652,0.449,1.037c-0.002,0.963,0,1.927-0.001,2.891c-0.447,0-0.894,0-1.34,0
		c-0.003-0.951,0.001-1.902-0.002-2.853c0.013-0.176-0.151-0.303-0.317-0.295c-0.793-0.012-1.585-0.001-2.378-0.006
		C58.93,52.066,59.004,51.708,59.069,51.348z"/>
	<path fill="#FFFFFF" d="M31.17,53.453c0.448-0.063,0.894-0.138,1.341-0.204c0,0.776,0,1.553,0,2.33c-0.447,0-0.894,0-1.34,0
		C31.17,54.87,31.17,54.162,31.17,53.453z"/>
	<path fill="#FFFFFF" d="M37.293,53.453c0.448-0.063,0.894-0.138,1.341-0.204c0,0.776,0,1.553,0,2.33c-0.447,0-0.895,0-1.34,0
		C37.292,54.87,37.293,54.162,37.293,53.453z"/>
	<path fill="#FFFFFF" d="M58.968,53.453c0.447-0.063,0.894-0.139,1.341-0.204c-0.001,0.776,0.001,1.554-0.001,2.33
		c-0.446,0-0.893,0-1.339,0C58.967,54.87,58.969,54.162,58.968,53.453z"/>
	<path fill="#FFFFFF" d="M18.444,57.873c0.785-0.003,1.57,0,2.355-0.002c0.383-0.008,0.791,0.083,1.08,0.35
		c0.275,0.25,0.389,0.631,0.397,0.994c-0.002,0.962,0,1.925-0.001,2.888c-0.446,0-0.894,0-1.34,0c-0.001-0.934-0.001-1.867,0-2.802
		c-0.001-0.084-0.007-0.178-0.067-0.244c-0.079-0.099-0.217-0.101-0.333-0.106c-0.766-0.002-1.531,0-2.297-0.001
		C18.306,58.59,18.381,58.233,18.444,57.873z"/>
	<path fill="#FFFFFF" d="M23.175,57.872c1.25,0,2.5,0,3.75,0c-0.078,0.358-0.143,0.72-0.221,1.079c-0.179,0-0.359,0-0.539,0
		c-0.001,1.051,0,2.102-0.001,3.153c-0.446,0-0.894,0-1.339,0c-0.002-0.769,0-1.539-0.002-2.309
		c-0.024-0.302,0.161-0.563,0.241-0.843c-0.703-0.002-1.405,0-2.107-0.001C23.03,58.591,23.099,58.23,23.175,57.872z"/>
	<path fill="#FFFFFF" d="M27.186,58.951c0.068-0.361,0.148-0.718,0.217-1.079c0.468,0,0.936,0,1.402,0
		c0.193-0.004,0.399,0.152,0.399,0.355c0,1.292,0,2.584,0,3.876c-0.447,0-0.894,0-1.341,0c-0.001-1.051,0-2.102,0-3.153
		C27.637,58.951,27.411,58.951,27.186,58.951z"/>
	<path fill="#FFFFFF" d="M30.287,57.873c0.771-0.002,1.542,0,2.313-0.001c0.385-0.013,0.797,0.067,1.096,0.326
		c0.292,0.249,0.415,0.643,0.424,1.017c-0.001,0.963,0.001,1.926-0.001,2.89c-0.446,0-0.894,0-1.34,0
		c-0.004-0.965,0.007-1.93-0.005-2.895c-0.007-0.179-0.193-0.263-0.352-0.255c-0.779-0.007-1.561,0-2.341-0.003
		C30.148,58.59,30.224,58.233,30.287,57.873z"/>
	<path fill="#FFFFFF" d="M34.604,58.951c0.068-0.361,0.147-0.718,0.217-1.079c0.467,0,0.934,0,1.4,0
		c0.178-0.002,0.388,0.114,0.4,0.308c0.002,0.671,0,1.342,0,2.013c-0.446,0.066-0.893,0.129-1.34,0.192
		c-0.001-0.478,0-0.956,0-1.434C35.056,58.951,34.83,58.951,34.604,58.951z"/>
	<path fill="#FFFFFF" d="M38.913,57.873c0.771-0.002,1.541,0,2.313-0.001c0.385-0.013,0.797,0.067,1.096,0.326
		c0.293,0.249,0.416,0.643,0.425,1.017c-0.002,0.963,0,1.927-0.002,2.89c-0.446,0-0.893,0-1.339,0c-0.002-0.934-0.001-1.867,0-2.8
		c-0.002-0.085-0.008-0.179-0.067-0.245c-0.079-0.098-0.217-0.101-0.333-0.106c-0.766-0.002-1.531,0.001-2.297-0.001
		C38.773,58.59,38.849,58.233,38.913,57.873z"/>
	<path fill="#FFFFFF" d="M43.499,57.872c0.436,0,0.871,0,1.306,0c0.196-0.006,0.398,0.15,0.397,0.356
		c0.002,0.892,0.001,1.784,0.001,2.676c0.341,0.182,0.744,0.224,1.122,0.162c0.211-0.036,0.434-0.186,0.438-0.419
		c0.009-0.559,0-1.117,0.004-1.675c-0.221,0.232-0.438,0.47-0.661,0.7c-0.216-0.286-0.441-0.565-0.649-0.855
		c0.312-0.262,0.612-0.534,0.92-0.799c0.094-0.083,0.213-0.149,0.342-0.146c0.33,0,0.659,0,0.99,0
		c0.195-0.006,0.397,0.148,0.398,0.353c0.003,0.806-0.001,1.612,0.002,2.419c-0.005,0.372-0.155,0.746-0.43,1.001
		c-0.403,0.399-0.987,0.538-1.537,0.563c-0.807,0.023-1.59-0.268-2.279-0.665c0-0.864,0-1.728-0.001-2.592c-0.195,0-0.39,0-0.585,0
		C43.358,58.593,43.423,58.231,43.499,57.872z"/>
	<path fill="#FFFFFF" d="M48.973,57.875c0.77-0.007,1.539,0,2.309-0.003c0.469,0.011,0.953,0.162,1.292,0.497
		c0.3,0.284,0.465,0.7,0.451,1.112c-0.004,0.657,0.006,1.315-0.004,1.973c-0.076,0.227-0.188,0.44-0.273,0.664
		c-0.634,0-1.269,0-1.902,0c0.069-0.364,0.137-0.728,0.212-1.091c0.208,0,0.417,0,0.626,0c0.001-0.516,0.002-1.032,0-1.548
		c0.007-0.217-0.125-0.448-0.345-0.5c-0.22-0.048-0.447-0.02-0.67-0.025c-0.127,1.055-0.26,2.109-0.376,3.165
		c-0.461,0.001-0.921,0-1.381,0c0.112-0.79,0.211-1.581,0.321-2.371c0.071-0.27,0.183-0.528,0.267-0.794
		c-0.246-0.003-0.491,0-0.735-0.002C48.829,58.591,48.91,58.235,48.973,57.875z"/>
	<path fill="#FFFFFF" d="M18.345,59.978c0.447-0.063,0.893-0.138,1.34-0.204c0,0.776,0,1.553,0,2.33c-0.447,0-0.894,0-1.34,0
		C18.344,61.395,18.345,60.686,18.345,59.978z"/>
	<path fill="#FFFFFF" d="M30.188,59.978c0.447-0.063,0.894-0.138,1.34-0.204c0,0.776,0.001,1.553,0,2.33c-0.446,0-0.894,0-1.34,0
		C30.187,61.395,30.188,60.686,30.188,59.978z"/>
	<path fill="#FFFFFF" d="M38.813,59.978c0.448-0.063,0.894-0.138,1.341-0.204c0,0.776,0,1.553,0,2.33c-0.447,0-0.895,0-1.341,0
		C38.812,61.395,38.813,60.686,38.813,59.978z"/>
</g>
</svg>
