<?xml version="1.0" encoding="UTF-8"?>
<!-- Generator: Adobe Illustrator 15.0.0, SVG Export Plug-In . SVG Version: 6.00 Build 0)  -->
<!DOCTYPE svg PUBLIC "-//W3C//DTD SVG 1.1//EN" "http://www.w3.org/Graphics/SVG/1.1/DTD/svg11.dtd">
<svg version="1.1" id="Layer_1" xmlns="http://www.w3.org/2000/svg" xmlns:xlink="http://www.w3.org/1999/xlink" x="0px" y="0px" width="324px" height="160.667px" viewBox="0 0 324 160.667" enable-background="new 0 0 324 160.667" xml:space="preserve">
<g>
	<defs>
		<filter id="Adobe_OpacityMaskFilter" filterUnits="userSpaceOnUse" x="182.598" y="38.412" width="39.807" height="39.807">
			<feColorMatrix type="matrix" values="1 0 0 0 0  0 1 0 0 0  0 0 1 0 0  0 0 0 1 0"/>
		</filter>
	</defs>
	<mask maskUnits="userSpaceOnUse" x="182.598" y="38.412" width="39.807" height="39.807" id="SVGID_1_">
		<g filter="url(#Adobe_OpacityMaskFilter)">
			<g>
				<defs>
					<rect id="SVGID_2_" x="182.156" y="37.969" width="40.691" height="40.692"/>
				</defs>
				<clipPath id="SVGID_3_">
					<use xlink:href="#SVGID_2_" overflow="visible"/>
				</clipPath>
				<g transform="matrix(1 0 0 1 9.238531e-006 3.773806e-006)" clip-path="url(#SVGID_3_)">
					
						<image overflow="visible" width="92" height="92" xlink:href="Megilot_Regional_Council_New_Logo_2014_files/D10AB925.jpg" transform="matrix(0.4423 0 0 0.4423 182.1558 37.9692)">
					</image>
				</g>
			</g>
		</g>
	</mask>
	<g mask="url(#SVGID_1_)">
		<g>
			<defs>
				<rect id="SVGID_4_" x="182.598" y="38.412" width="39.807" height="39.807"/>
			</defs>
			<clipPath id="SVGID_5_">
				<use xlink:href="#SVGID_4_" overflow="visible"/>
			</clipPath>
			<rect x="182.598" y="38.412" opacity="0.39" clip-path="url(#SVGID_5_)" fill="#FFFFFF" width="39.807" height="39.807"/>
		</g>
	</g>
	<path fill="#FCB813" d="M202.438,100.971c23.593,0,42.719-19.126,42.719-42.719c0-23.594-19.126-42.72-42.719-42.72   s-42.718,19.126-42.718,42.72C159.72,81.845,178.845,100.971,202.438,100.971"/>
	<circle fill="none" stroke="#FFC10E" stroke-width="2.935" cx="202.438" cy="58.251" r="42.719"/>
	<path fill="#783B19" d="M10.842,26.757c0,0,16.658-4.361,20.1,3.623c1.774,4.129,22.623,0,28.83,0   c6.207,0,12.607-2.239,19.997,1.586c7.394,3.824,24.09,6.459,33.421,3.229c9.336-3.229,33.605-4.661,38.867-1.604   c5.267,3.056,21.252,38.749,31.845,44.691c10.59,5.943,30.027,2.021,41.614,6.656c19.609,7.844,86.239,5.987,86.239,5.987v12.312   H10.842V26.757"/>
</g>
<rect x="10.842" y="107.223" fill="#00AFCB" width="300.913" height="44.371"/>
<g>
	<path fill="#783B19" d="M221.976,54.751c1.052-1.055,2.043-2.172,2.852-3.412c0.268-0.412,0.516-0.84,0.741-1.283   c2.295-3.749,0.692-8.846-3.215-10.885c-3.348-1.748-7.595-0.414-8.925,3.083c-0.444,1.26,0.376,2.683,1.782,2.847   c-1.535-0.873-0.657-2.828,0.347-3.796c2.146-1.935,5.525-2.016,7.457,0.412c2.065,2.71,1.717,6.506-0.333,9.206   c-0.303,0.378-0.646,0.728-1.024,1.03c-0.38,0.304-0.794,0.562-1.243,0.767c0.273,0.425,0.406,0.992,0.504,1.384L221.976,54.751z"/>
	<path fill="#783B19" d="M223.75,43.068c0.142,0.297,0.28,0.846,0.426,1.193c0.217-1.393,1.228-0.56,2.18-0.243   c-0.182-0.405-0.141-0.765-0.331-0.959c-0.75-0.74-1.636-0.354-2.09-0.095C223.884,43.005,223.75,43.068,223.75,43.068"/>
	<path fill="#783B19" d="M224.324,44.641c0.039,0.479-0.114,1.181,0.169,1.186c1.267,0.023,1.245,1.289,1.941,1.724   c0.438-0.979-0.25-1.976-0.84-2.806C225.392,44.54,224.324,44.641,224.324,44.641"/>
	<path fill="#783B19" d="M224.892,46.829c-0.133-0.153-0.271-0.295-0.414-0.299c-1.095,2.55,1.478,2.349,0.889,3.888   c0.717-0.691,1.055-2.164,0.23-2.907C225.574,47.479,225.178,46.883,224.892,46.829"/>
	<path fill="#783B19" d="M223.684,49.17c-0.011,0.74-0.449,1.188-1.031,1.632c0.85-0.266,1.073,0.844,1.178,1.615   c0.572-0.351,0.91-0.943,0.95-1.534c0.039-0.588-0.22-1.182-0.843-1.53C223.787,49.245,223.684,49.17,223.684,49.17"/>
	<path fill="#783B19" d="M222.347,51.4c-0.508,0.216-0.797,0.774-1.364,1.047c0.694,0.434,1.533,0.871,1.234,1.852   c0.857-0.689,1.443-2.087,0.331-2.761C222.43,51.453,222.347,51.4,222.347,51.4"/>
	<path fill="#783B19" d="M222.891,41.734c0.229,0.247,0.502,0.454,0.637,0.778c-0.135-1.168,0.952-0.9,1.764-0.686   c-0.41-0.921-1.638-1.484-2.174-0.745C223.083,41.127,222.891,41.734,222.891,41.734"/>
	<path fill="#783B19" d="M221.674,40.638c0.212,0.117,0.579,0.059,0.714,0.373c-0.402-0.927,0.456-1.26,1.154-1.017   c-0.548-0.777-2.178-0.772-2.376,0.225C221.156,40.271,221.674,40.638,221.674,40.638"/>
	<path fill="#783B19" d="M220.806,40.181c-0.894-0.156-1.9-0.676-1.07-1.362c0.414-0.344,1.121-0.171,1.688,0.13   c-0.553,0.171-0.683,0.52-0.76,0.968L220.806,40.181z"/>
	<path fill="#783B19" d="M218.622,39.789c-0.705,0.427-1.868,0.169-1.595-0.747c0.275-0.626,1.145-0.334,1.567-0.583   c-0.131,0.354-0.692,0.868-0.163,1.215C218.523,39.731,218.622,39.789,218.622,39.789"/>
	<path fill="#783B19" d="M216.651,40.442c-1.089,0.065-1.027-0.725-0.887-1.065c-0.436,0.333-1.018,0.709-1.016,1.112   c-0.149,1.011,1.174,0.738,1.688,0.111C216.542,40.536,216.651,40.442,216.651,40.442"/>
	<path fill="#783B19" d="M214.799,42.252c-0.386-0.083-0.974,0.05-1.264-0.32c-0.295,0.358-0.154,0.918-0.162,1.22   c0.282,0.706,1.029-0.079,1.305-0.661L214.799,42.252z"/>
	<path fill="#783B19" d="M220.121,53.181l-0.592-0.842l-0.655-0.267c0,0-0.531-0.507-0.779-0.635   c-0.25-0.131-0.657-0.421-0.657-0.421l-0.436-0.379l0.029,1.159l0.154,1.224c0,0,0.094-0.027,0.313,0.315   c0.218,0.344,0.562,0.598,0.562,0.598l0.344,0.257"/>
	<path fill="#783B19" d="M197.559,72.403l-0.812,1.285l-1.553,1.443c0,0-1.035,0.941-1.15,1.109c-0.115,0.169-0.7,1.344-0.7,1.344   s-0.918,0.775-0.921,0.945c-0.002,0.169,0.09,1.359,0.09,1.359l0.199,1.472l0.927,1.936l0.614,0.463l0.496,0.63l0.436,0.968   l-2.089,0.021l-0.38-0.967l-1.26-2.339l-0.418-1.873l-0.644-1.988l0.997-2.129l2.21-3.634l2.221-4.085l3.376,0.736L197.559,72.403z   "/>
</g>
<polygon fill="#783B19" points="208.001,73.039 205.512,73.221 202.91,73.402 199.916,73.462 198.106,73.374 196.593,72.728   195.477,71.972 196.811,69.905 199.303,69.497 204.159,69.864 206.283,71.086 207.686,71.676 "/>
<g>
	<path fill="#783B19" d="M210.275,71.044c0,0,0.144,0.961,0.18,1.319c0.036,0.354,0.324,1.868,0.349,2.122   c0.027,0.255,0.204,1.575,0.22,1.728c0.015,0.153,0.41,1.346,0.41,1.346l0.277,1.186l0.882,1.557l0.216,1.335   c0,0-0.045,0.931-0.018,1.185c0.025,0.254,0.007,1.025-0.021,1.184c-0.029,0.157-0.101,0.832-0.101,0.832l0.579,0.25l0.724,0.34   l0.831-0.442l-0.041-0.869l-0.715-0.7l-0.37-1.404l-0.215-1.21l-0.014-1.078l0.009-0.823l-0.263-1.722l-0.261-1.67l-0.258-1.67   l-0.259-1.209l-1.172-1.116L210.275,71.044z"/>
	<path fill="#783B19" d="M215.128,60.833l2.536-7.03l-1.537,0.838l-0.331,1.128l-0.132,0.24l-0.895,1.118l-0.737,1.811l-0.843,1.51   l-0.954,0.99l-0.869,0.196c0,0-2.989-0.07-3.169-0.077c-0.18-0.007-1.516,0.216-1.875,0.203c-0.364-0.013-1.516,0.171-2.06,0.241   c-0.543,0.072-2.885-0.243-2.885-0.243l-2.784,0.286l-2.016,0.058c0,0-1.24-0.023-1.418-0.03c-1.498-0.056-0.961-0.004-1.77,0.185   l-0.959,1.224l0.884-0.477l1.087-0.05l1.702-0.393l1.447-0.036l2.287,0.086c0,0,1.75-0.025,1.934-0.109   c0.184-0.086,2.057-0.196,2.057-0.196l0.901,0.032l0.843,0.033l0.777,0.212l1.563,0.056l0.539,0.113l1.215-0.229l1.444-0.038   l0.986-0.509l1.029-0.144l0.49-0.162L215.128,60.833z"/>
	<path fill="#783B19" d="M220.844,60.394c-0.412,0.148-0.556,0.427-0.419,0.711c0.827,0.859,0.237,2.397-0.753,2.662   c0.979,0.299,1.278-0.54,1.853-1.235c0.434-0.696,0.167-1.546-0.128-2.291L220.844,60.394z"/>
	<path fill="#783B19" d="M223.323,54.1c-0.283-0.005-0.547-0.621-0.547-0.621l-0.341-0.495l-1.774-0.414l-1.053-0.086l-1.062,0.115   l-0.907-0.488l-0.706,0.056c0,0-0.698-0.216-0.982-0.219c-0.28-0.005-0.771-0.081-0.771-0.081l-0.562-0.146l0.544,1.022   l0.688,1.024c0,0,0.072-0.065,0.421,0.144c0.35,0.209,0.771,0.283,0.771,0.283l0.421,0.075l-1.137,0.589   c0,0-0.23,1.143-0.378,1.342c-1.66,1.418-1.707,4.233-3.561,5.468c-0.997,0.686-2.541,0.378-3.808,0.356   c1.803,1.578,2.881,4.274,5.27,4.739c3.649,0.626,2.616-4.743,4.766-6.817c0.282-0.135,0.842,0.014,1.123,0.162   c1.526,1.294,3.895,2.743,5.046,1.215c1.007-1.11-0.23-2.822-0.82-4.305l-0.126-0.813l-0.054-1.177L223.323,54.1z"/>
</g>
<polygon fill="#783B19" points="224.393,60.737 224.805,61.287 225.157,60.642 224.748,60.475 224.403,60.264 224.053,60.124 "/>
<polygon fill="#783B19" points="220.583,56.152 221.239,56.231 221.631,56.372 221.719,56.425 222.016,56.312 221.85,55.931   221.668,55.696 221.314,55.556 220.716,55.414 220.295,55.403 219.757,55.394 "/>
<polygon fill="#783B19" points="220.601,56.063 221.26,56.141 221.651,56.283 221.739,56.337 222.038,56.222 221.872,55.84   221.688,55.608 221.333,55.47 220.735,55.324 220.317,55.317 219.777,55.306 "/>
<g>
	<path fill="#783B19" d="M220.684,55.795c-0.004,0.186,0.216,0.34,0.486,0.346c0.273,0.003,0.496-0.144,0.5-0.33   c0.004-0.187-0.216-0.342-0.487-0.345C220.911,55.461,220.688,55.608,220.684,55.795"/>
</g>
<polygon fill="#783B19" points="222.038,61.603 222.477,61.789 222.093,61.479 221.448,60.079 221.175,59.467 "/>
<g>
	<path fill="#783B19" d="M210.611,61.972c-1.08,0.027-2.165-0.373-3.308-0.164c-0.344,0.012-0.574,0.02-0.574,0.02   s-2.212,0.414-2.437,0.41c-0.228-0.005-4.18-0.129-4.351-0.077c-0.171,0.054-3.225,0.227-3.225,0.227l-3.051,0.06l-2.116,1.435   l-1.146,0.939l-0.524,0.781l0.07,2.487l-0.139,1.58c0,0,0.32,0.967,0.427,1.364c0.106,0.398,0.929,1.768,0.929,1.768   s-0.077,1.242-0.192,1.409c-0.117,0.167-1.326,1.503-1.326,1.503l-0.42,1.405l-0.464,0.556l1.247-0.147l0.149,1.132l0.27,0.684   l1.674-2.005l1.669-1.667l0.369-1.632l1.256-0.826l0.692-0.835l0.695-0.949l0.472-1.123l1.798,0.598l0.104,0.511l1.461,0.421   l0.679-0.045l1.476-0.369l0.66,0.859c0,0,0.508,0.137,1.016,0.271c0.504,0.135,1.012,0.272,1.012,0.272   c1.788,0.722,2.789-0.104,3.103-1.929c0.399,1.274-0.2,3.376,0.921,3.677c1.682,0.452,3.272-1.915,3.868-3.734   c0.588-1.539,1.177-2.938,2.095-4.168c0.196-0.252,0.401-0.506,0.6-0.759"/>
	<path fill="#783B19" d="M191.685,85.241l-0.162-0.456l-0.671-0.406l-0.493-0.801l0.03-1.805l-0.143-1.585l0.418-1.179l1.1-1.564   l0.773-2.19l-1.563-1.044l-0.929,1.452l-1.433,1.107l-0.349,0.558l0.502,0.347c0,0,0.048,0.34-0.013,0.679   c-0.062,0.338-0.137,1.411-0.141,1.58c-0.002,0.169-0.126,0.788-0.13,0.958c-0.003,0.169-0.071,0.846-0.073,1.015   c-0.004,0.171-0.074,0.903-0.074,0.903l0.042,0.961l0.891,0.638l0.165,0.397l-0.011,0.62l1.514,0.593l0.567-0.047l0.288-0.333   L191.685,85.241z"/>
	<path fill="#783B19" d="M189.776,83.431l-0.132-0.854l0.468-1.747l0.088-1.021l0.565-1.077l1.024-1.429l1.582-1.861l-1.257-5.216   l-0.058,3.371l-1.886,2.1l-0.369,0.486l-0.574,1.008c0,0,0.771-0.253,0.646,0.063c-0.124,0.32-0.441,1.346-0.484,1.51"/>
	<path fill="#783B19" d="M207.946,69.76c0,0,0.036,1.074,0.032,1.468c-0.009,0.398,0.132,2.095,0.126,2.376   c-0.004,0.284,0.025,1.753,0.025,1.922c-0.006,0.171,0.31,1.532,0.31,1.532l0.491,1.082l0.754,2.104l-0.139,1.467   c0,0-0.188,1.013-0.192,1.298c-0.006,0.282-0.133,1.128-0.192,1.295c-0.06,0.168-0.243,0.898-0.243,0.898l0.673,0.354l0.839,0.466   l1.08-0.378l0.075-0.957l-0.777-0.861l-0.254-1.587l-0.092-1.359l0.137-1.183l0.128-0.903l-0.079-1.922l-0.081-1.867l-0.081-1.866   l-0.146-1.357l-1.274-1.378L207.946,69.76z"/>
	<path fill="#783B19" d="M209.895,75.596l0.566-2.28l-0.083-1.865l-0.144-1.36l-1.276-1.377l-1.119-0.641c0,0,0.04,1.075,0.03,1.469   c-0.007,0.396-0.694,2.221-0.745,2.498c-0.149,0.806,1.595,1.208,1.595,1.376c-0.003,0.171,1.443,6.096,1.443,6.096"/>
	<path fill="#783B19" d="M192.576,63.333l-1.025,0.547l-0.681-0.013c0,0-0.18-0.016-0.371-0.021   c-0.275-0.011-0.551-0.02-0.827-0.042c-0.139-0.009-0.273-0.02-0.414-0.036c-0.562-0.12-1.257-0.554-1.528-1.123   c0.41,0.57-0.171,1.686,0.929,1.958c0.155,0.016,0.322,0.021,0.482,0.045c0.318,0.047,0.604,0.173,0.683,0.621l-0.004,0.613   l1.264-1.164l0.69-0.664L192.576,63.333z"/>
	<path fill="#783B19" d="M222.261,54.37c0.099-0.49,0.208-0.984,0.318-1.479c0.107-0.499,0.218-0.997,0.313-1.501   c0.711-3.043,0.49-6.567-2.287-8.729c-2.223-1.728-5.036-1.919-7.449-0.833c-2.272,1.087-4.141,3.306-4.188,5.982   c0.116,1.409,1.504,2.559,3.06,2.165c-0.561-0.151-1.545-0.31-1.671-1.015c-0.233-2.82,1.642-5.324,4.325-5.838   c2.402-0.522,4.635,0.785,5.865,2.777c1.228,2.416,1.17,5.511-0.555,7.595c0.418,0.288,0.693,0.574,1.044,0.871L222.261,54.37z"/>
	<path fill="#783B19" d="M218.79,44.092c0.378,0.194,0.646,0.306,0.921,0.621c-0.545-1.057,0.738-1.174,1.445-1.392   c-0.342-0.592-0.833-0.707-1.278-0.547c-0.442,0.158-0.838,0.598-0.993,1.108C218.863,43.953,218.79,44.092,218.79,44.092"/>
	<path fill="#783B19" d="M219.952,45.13c0.178,0.48,0.455,0.767,0.732,1.051c0.441-1.118,1.552-0.254,2.25,0.182   c-0.124-0.988-0.954-1.846-1.953-1.927C220.733,44.383,219.952,45.13,219.952,45.13"/>
	<path fill="#783B19" d="M221.333,46.603c-0.092,0.012-0.512-0.137-0.519,0.146c0.135,0.427,0.374,0.943,0.507,1.368   c0.854-0.409,1.718,0.36,1.844,1.209c0.016-0.986,0.18-2.251-0.973-2.577C222.157,46.735,221.584,46.482,221.333,46.603"/>
	<path fill="#783B19" d="M221.436,49.154c0.162,0.643-0.122,1.213-0.271,1.791c0.567-0.269,1.409-0.094,1.68,0.625   c0.147-0.421,0.299-0.986,0.306-1.417c-0.126-0.873-0.828-1.057-1.559-0.999C221.418,49.147,221.436,49.154,221.436,49.154"/>
	<path fill="#783B19" d="M221.098,51.579c-0.237,0.513-0.666,0.932-0.675,1.499c0.703,0.011,1.55-0.113,1.815,0.736   c0.292-0.417,0.371-1.013,0.228-1.487c-0.147-0.473-0.519-0.824-1.134-0.745C221.192,51.577,221.098,51.579,221.098,51.579"/>
	<path fill="#783B19" d="M217.462,43.357c0.315-0.032,0.553,0.065,0.832,0.229c-0.832-0.905,0.346-1.319,0.914-1.688   c-0.832-0.605-1.821-0.394-1.915,0.693C217.293,42.654,217.462,43.357,217.462,43.357"/>
	<path fill="#783B19" d="M215.908,42.981c0.324,0.126,0.606,0.137,0.886,0.147c-0.979-0.315-0.396-1.396,0.173-1.78   c-0.49-0.153-0.986,0.032-1.298,0.371c-0.312,0.336-0.439,0.826-0.192,1.267C215.498,43.044,215.908,42.981,215.908,42.981"/>
	<path fill="#783B19" d="M214.932,43.006c-0.532,0.22-1.242,0.517-1.655-0.038c-0.689-0.81,0.594-1.663,1.436-1.535   c-0.289,0.407-0.299,0.956-0.05,1.384L214.932,43.006z"/>
	<path fill="#783B19" d="M212.846,43.834c-0.44,0.74-1.998,1.105-1.834-0.2c0.147-0.434,0.576-0.736,1.005-1.037   c-0.151,0.568,0.122,0.979,0.59,1.213C212.726,43.824,212.846,43.834,212.846,43.834"/>
	<path fill="#783B19" d="M211.362,45.486c-0.525,0.188-1.228,0.074-1.498-0.639c-0.291,0.598-0.874,1.794,0.249,1.894   c0.705-0.031,0.856-0.632,1.115-1.048C211.3,45.591,211.362,45.486,211.362,45.486"/>
	<path fill="#783B19" d="M210.378,47.659c-0.421-0.021-0.853,0.439-1.41,0.162c0.133,0.438,0.259,1.317,0.682,1.31   c0.562-0.012,0.852-0.468,0.726-1.215L210.378,47.659z"/>
</g>
<polygon fill="#783B19" points="210.875,85.124 209.792,85.306 208.917,85.203 209.065,85.938 209.902,86.358 211.055,86.348   211.001,85.814 211.462,86.348 211.871,86.017 211.583,84.684 "/>
<polygon fill="#783B19" points="214.306,84.642 213.418,84.83 212.706,84.73 212.726,85.378 213.532,85.828 214.464,85.938   214.349,85.184 214.652,85.88 215.116,85.533 214.81,84.102 "/>
<polygon fill="#783B19" points="190.643,84.989 189.761,85.301 189.75,85.923 189.941,86.596 190.682,86.609 191.266,86.516   191.435,86.082 191.831,86.469 192.306,86.367 192.012,85.738 191.586,85.006 191.181,84.875 "/>
<polygon fill="#783B19" points="193.953,84.955 193.069,85.266 193.058,85.887 193.242,86.348 193.991,86.572 194.574,86.479   194.741,86.047 195.139,86.433 195.52,86.264 195.323,85.699 194.896,84.971 194.489,84.838 "/>
<g>
	<path fill="#783B19" d="M217.11,54.71c0,0-0.594,1.679-0.604,2.336c-0.013,0.657-0.615,2.899-0.914,4.021   c-0.303,1.121-1.28,3.356-1.663,3.819c-0.386,0.463-1.404,5.139-1.404,5.139l-0.842-5.646c0,0-2.135-1.352-2.425-0.887   c-0.289,0.464-3.799,2.561-3.799,2.561s-2.368,1.274-2.84,1.359c-0.472,0.086-3.758,0.122-3.758,0.122l1.994-1.373l3.218-1.445   l3.218-1.354l1.987-0.997l2.253,0.04l1.217,0.113l2.012-2.405l-0.158-1.598L217.11,54.71z"/>
	<path fill="#783B19" d="M217.988,53.979c0,0-0.233,0.147-0.287,0.146c-0.055,0-0.296,0.018-0.341,0.018s-0.543-0.162-0.588-0.164   c-0.042,0-0.857-0.389-0.857-0.389l-0.045,0.11l-0.178-0.482l-0.416-0.61l-0.361-0.52l-0.106-0.232c0,0,0.619,0.306,0.684,0.351   c0.065,0.045,0.999,0.434,0.999,0.434l0.662,0.284l0.506,0.457l0.303,0.236l0.083,0.241L217.988,53.979z"/>
</g>
<polygon fill="#783B19" points="218.06,53.933 216.924,52.878 216.017,52.626 214.669,51.789 216.678,52.543 217.797,52.939   218.258,53.51 "/>
<polygon fill="#783B19" points="223.652,55.243 223.463,55.562 222.491,54.638 222.873,57.125 224.199,58.54 224.982,59.863   224.132,57.771 223.47,56.451 "/>
<polygon fill="#783B19" points="222.518,55.106 222.247,55.05 221.982,54.59 219.057,53.832 222.469,56.173 221.536,56.708   222.542,57.063 224.885,59.762 223.75,57.71 223.152,57.093 223.171,55.977 222.838,54.808 "/>
<g>
	<path fill="#783B19" d="M223.658,54.901c-0.002,0.062-0.155,0.824-0.155,0.824l-0.175,0.722l0.469,0.936l0.525,1.098l0.622,1.301   l-0.848-2.333l-0.23-0.61l-0.101-1.211L223.658,54.901z"/>
	<path fill="#FFFFFF" d="M273.359,121.473h-19.184v5.019h2.724l-1.802,15.89h5.642l1.53-15.969h5.547v9.916   c0,0.771-0.374,1.155-1.118,1.155h-2.784v4.897h4.02c3.617,0,5.426-2.005,5.426-6.015V121.473z M251.47,121.473h-11.09v5.019h5.506   v5.21c0,1.125-0.175,1.979-0.529,2.568c-0.261,0.43-0.927,0.993-1.998,1.687c-0.862,0.534-1.96,1.108-3.293,1.723l-0.45,0.216   v5.037l0.293-0.079c1.764-0.497,3.104-1.136,4.018-1.92c0.795-0.691,1.386-1.55,1.764-2.568l0.313-0.881   c0.104-0.184,0.159-0.184,0.159,0l0.331,4.897h4.978V121.473z M237.165,121.473h-7.936v4.624h2.351v7.977h5.585V121.473z    M226.583,121.473h-10.563v-5.82h-5.566v10.839h10.543v2.919c0,1.555-0.184,2.814-0.547,3.781c-0.354,0.862-1.08,2-2.177,3.41   l-3.899,5.019v0.761h5.859l3.019-3.819c1.279-1.619,2.154-3.073,2.624-4.36c0.474-1.287,0.707-2.936,0.707-4.947V121.473z    M207.732,121.473h-7.741v5.019h2.156v15.89h5.585V121.473z M197.266,121.473h-16.773v14.971c0,0.693-0.308,1.04-0.922,1.04h-1.879   v4.897h3.643c3.164,0,4.742-1.735,4.742-5.21v-10.68h5.664v15.89h5.525V121.473z M168.675,121.473h-7.937v4.624h2.351v7.977h5.586   V121.473z M145.495,126.491h6.994v10.992h-6.994V126.491z M158.013,121.473h-18.047v20.908h18.047V121.473z M117.666,130.39h-5.566   v11.991h5.566V130.39z M129.15,121.473h-17.695v5.019h12.11v15.89h5.585V121.473z M108.496,121.473H89.311v5.019h2.723   l-1.801,15.89h5.644l1.526-15.969h5.547v9.916c0,0.771-0.374,1.155-1.117,1.155H99.05v4.897h4.016c3.619,0,5.43-2.005,5.43-6.015   V121.473z M86.665,121.473H76.102v-5.82h-5.566v10.839h10.543v2.919c0,1.555-0.184,2.814-0.547,3.781   c-0.353,0.862-1.08,2-2.176,3.41l-3.9,5.019v0.761h5.86l3.018-3.819c1.28-1.619,2.154-3.073,2.624-4.36   c0.473-1.287,0.707-2.936,0.707-4.947V121.473z M67.813,121.473h-18.01v20.908h5.567v-15.89h6.877v15.89h5.566V121.473z"/>
	<path fill="#FFFFFF" d="M167.422,83.128h-10.104v1.926h1.648l-1.283,9.882h1.971l1.193-9.925h4.563v6.209   c0,1.238-0.615,1.859-1.84,1.859h-1.604v1.856h1.817c2.426,0,3.639-1.289,3.639-3.871V83.128z M154.84,83.128h-3.698v1.926h1.674   v9.882h2.024V83.128z M148.776,83.128h-2.06v7.593c0,0.848-0.161,1.453-0.487,1.814c-0.324,0.361-0.889,0.544-1.691,0.544h-0.819   l-1.838-9.951h-2.014l1.971,9.951h-2.725v1.856h5.425c1.512,0,2.629-0.481,3.351-1.448c0.592-0.79,0.888-1.834,0.888-3.134V83.128z    M137.065,83.128h-2.049v2.679c0,1.173-0.419,2.161-1.26,2.967l-3.63-5.646h-2.201v0.222l4.759,7.371   c0.73,1.121,1.396,1.899,2.001,2.336v0.022h-6.353v1.856h8.257v-0.883c0-0.679-0.28-1.443-0.84-2.291l-1.14-1.693l0.576-0.542   c0.707-0.687,1.198-1.349,1.47-1.981c0.272-0.634,0.409-1.408,0.409-2.313V83.128z M118.793,87.932h-2.024v7.004h2.024V87.932z    M125.723,83.128h-9.309v1.926h7.292v9.882h2.017V83.128z M109.798,94.848l-2.77-4.015l0.434-0.412   c1.134-1.069,1.703-2.405,1.703-4.005v-3.288h-2.023v4.217c0,0.878-0.327,1.612-0.976,2.203l-4.526-6.42h-2.225v0.134l2.579,3.541   l-0.266,0.243c-0.738,0.679-1.259,1.313-1.561,1.904c-0.303,0.591-0.454,1.28-0.454,2.069v3.916h2.015v-4.438   c0-0.922,0.41-1.748,1.229-2.479l4.66,6.916h2.181V94.848z M97.103,83.128h-3.696v1.926h1.67v4.737h2.026V83.128z M91.823,83.128   h-5.863v1.926h2.788l-0.409,0.587c-0.716,1.033-1.074,2.257-1.074,3.675c0,0.419,0.034,0.873,0.099,1.362l0.565,4.258h2.081   l-0.63-5.012c-0.045-0.376-0.068-0.76-0.068-1.15c0-1.33,0.219-2.402,0.655-3.221c0.184-0.334,0.328-0.499,0.432-0.499h1.425   V83.128z M83.591,83.128h-3.697v1.926h1.67v9.882h2.026V83.128z M77.648,86.693c0-2.375-1.083-3.565-3.243-3.565h-5.125v1.926   h5.257c0.733,0,1.096,0.417,1.096,1.251v8.631h2.016V86.693z M66.945,83.128h-3.696v1.926h1.672v4.737h2.024V83.128z    M60.893,83.128h-9.098v8.976c0,0.651-0.326,0.976-0.976,0.976h-0.974v1.856h1.296c0.864,0,1.526-0.287,1.99-0.861   c0.445-0.51,0.666-1.202,0.666-2.08v-6.94h5.09v9.882h2.005V83.128z"/>
</g>
</svg>