<?xml version="1.0" encoding="UTF-8" standalone="no"?>
<!-- Generator: Adobe Illustrator 15.0.0, SVG Export Plug-In . SVG Version: 6.00 Build 0)  -->

<svg
   xmlns:dc="http://purl.org/dc/elements/1.1/"
   xmlns:cc="http://creativecommons.org/ns#"
   xmlns:rdf="http://www.w3.org/1999/02/22-rdf-syntax-ns#"
   xmlns:svg="http://www.w3.org/2000/svg"
   xmlns="http://www.w3.org/2000/svg"
   xmlns:sodipodi="http://sodipodi.sourceforge.net/DTD/sodipodi-0.dtd"
   xmlns:inkscape="http://www.inkscape.org/namespaces/inkscape"
   version="1.1"
   id="Layer_1"
   x="0px"
   y="0px"
   width="433.16559"
   height="527.55499"
   viewBox="0 0 433.16559 527.55499"
   enable-background="new 0 0 474 550"
   xml:space="preserve"
   sodipodi:docname="Merhavim_Regional_Council_COA.svg"
   inkscape:version="0.92.3 (2405546, 2018-03-11)"><metadata
   id="metadata67"><rdf:RDF><cc:Work
       rdf:about=""><dc:format>image/svg+xml</dc:format><dc:type
         rdf:resource="http://purl.org/dc/dcmitype/StillImage" /><dc:title></dc:title></cc:Work></rdf:RDF></metadata><defs
   id="defs65"><clipPath
     clipPathUnits="userSpaceOnUse"
     id="clipPath1502"><path
       d="m 430.071,723.878 h 90.818 v 38.092 h -90.818 z"
       id="path1500"
       inkscape:connector-curvature="0" /></clipPath></defs><sodipodi:namedview
   pagecolor="#ffffff"
   bordercolor="#666666"
   borderopacity="1"
   objecttolerance="10"
   gridtolerance="10"
   guidetolerance="10"
   inkscape:pageopacity="0"
   inkscape:pageshadow="2"
   inkscape:window-width="1920"
   inkscape:window-height="1001"
   id="namedview63"
   showgrid="false"
   fit-margin-top="0"
   fit-margin-left="0"
   fit-margin-right="0"
   fit-margin-bottom="0"
   inkscape:zoom="1.4178617"
   inkscape:cx="216.58279"
   inkscape:cy="263.77748"
   inkscape:window-x="-9"
   inkscape:window-y="-9"
   inkscape:window-maximized="1"
   inkscape:current-layer="Layer_1" />


<g
   id="g1528"
   transform="matrix(14.494417,0,0,-14.494417,127.90165,467.82224)"
   style="stroke-width:0.09198944"><path
     d="m 0,0 c -0.04,0.093 -0.123,0.147 -0.192,0.214 -1.617,1.548 -2.945,3.321 -4.071,5.252 -0.476,0.818 -0.898,1.664 -1.317,2.512 -0.265,0.626 -0.539,1.249 -0.771,1.889 -0.566,1.558 -0.981,3.156 -1.302,4.781 -0.24,1.206 -0.425,2.42 -0.568,3.639 -0.101,0.857 -0.176,1.717 -0.249,2.578 -0.249,2.863 -0.299,5.733 -0.351,8.603 -10e-4,0.061 -0.004,0.121 -0.003,0.183 0.003,0.128 0.025,0.155 0.141,0.159 0.097,0.006 0.193,0.003 0.292,0.003 0.839,0.001 1.679,0 2.518,0.001 0.098,0 0.195,0.002 0.292,0.004 0.07,0.002 0.115,0.039 0.12,0.108 0.006,0.097 0.005,0.195 0.005,0.292 -10e-4,0.559 -0.004,1.12 -10e-4,1.679 10e-4,0.341 0.034,0.371 0.377,0.375 0.074,0.002 0.146,0 0.22,0 7.142,0 14.284,0.002 21.427,0 0.548,-10e-4 0.468,0.085 0.473,-0.489 0.007,-0.512 0,-1.022 0,-1.534 0,-0.072 -0.002,-0.146 0,-0.219 0.007,-0.163 0.017,-0.173 0.196,-0.19 0.096,-0.009 0.193,-0.013 0.29,-0.017 0.779,-0.031 1.558,-0.013 2.337,-0.006 0.328,0.003 0.656,0 0.984,-0.005 0.214,-0.003 0.217,-0.009 0.213,-0.236 C 21.048,28.943 21.04,28.31 21.018,27.678 20.991,26.924 20.943,26.171 20.914,25.418 20.857,23.946 20.736,22.48 20.588,21.016 20.475,19.879 20.311,18.747 20.137,17.617 19.98,16.608 19.824,15.599 19.654,14.592 19.305,12.528 18.876,10.482 18.2,8.498 17.075,5.198 15.319,2.286 12.841,-0.176 11.309,-1.698 9.57,-2.931 7.644,-3.904 7.39,-4.032 7.135,-4.141 6.845,-4.118 6.381,-4.016 5.946,-3.837 5.523,-3.631 4.752,-3.256 3.983,-2.875 3.252,-2.428 3.149,-2.365 3.04,-2.313 2.933,-2.257 2.889,-2.222 2.822,-2.233 2.783,-2.188 L 2.789,-2.193 C 2.788,-2.135 2.742,-2.113 2.703,-2.087 1.788,-1.488 0.926,-0.821 0.121,-0.081 0.086,-0.048 0.041,-0.027 0,0"
     style="fill:#274688;fill-opacity:1;fill-rule:evenodd;stroke:none;stroke-width:0.09198944"
     id="path1530"
     inkscape:connector-curvature="0" /></g><g
   id="g1564"
   transform="matrix(14.494417,0,0,-14.494417,168.22512,499.54327)"
   style="stroke-width:0.09198944"><path
     d="M 0,0 C 0.064,0.007 0.113,-0.019 0.151,-0.07 0.095,-0.057 0.035,-0.055 0,0"
     style="fill:#ffffff;fill-opacity:1;fill-rule:evenodd;stroke:none;stroke-width:0.09198944"
     id="path1566"
     inkscape:connector-curvature="0" /></g><g
   id="g1568"
   transform="matrix(14.494417,0,0,-14.494417,211.85765,4.232792)"
   style="stroke-width:0.09198944"><path
     d="m 0,0 c 3.516,0 7.033,0.001 10.549,0 0.461,0 0.412,0.053 0.413,-0.402 0.003,-0.547 0.002,-1.096 0.002,-1.644 0,-0.072 -0.003,-0.145 10e-4,-0.218 0.007,-0.113 0.034,-0.145 0.16,-0.15 0.327,-0.017 0.656,-0.037 0.985,-0.038 0.754,-0.002 1.508,0.006 2.262,0.01 0.159,0 0.317,-0.002 0.475,-0.005 0.09,-10e-4 0.128,-0.055 0.128,-0.141 0,-0.073 -10e-4,-0.145 -0.002,-0.219 -0.019,-1.57 -0.092,-3.137 -0.182,-4.705 -0.079,-1.396 -0.196,-2.79 -0.361,-4.179 -0.15,-1.256 -0.348,-2.506 -0.54,-3.755 -0.164,-1.057 -0.335,-2.113 -0.536,-3.164 -0.369,-1.925 -0.826,-3.826 -1.532,-5.66 -1.179,-3.052 -2.918,-5.735 -5.293,-7.995 -1.439,-1.368 -3.058,-2.48 -4.824,-3.382 -0.326,-0.166 -0.641,-0.207 -0.979,-0.072 -0.225,0.09 -0.457,0.169 -0.677,0.27 -1.484,0.685 -2.902,1.479 -4.201,2.48 -1.75,1.349 -3.234,2.947 -4.486,4.761 -2.007,2.903 -3.433,6.066 -4.223,9.51 -0.312,1.364 -0.562,2.739 -0.75,4.125 -0.152,1.133 -0.272,2.27 -0.365,3.409 -0.162,1.977 -0.256,3.958 -0.294,5.94 -0.015,0.791 -0.033,1.582 -0.048,2.373 -0.003,0.097 -0.001,0.194 0.003,0.292 0.003,0.052 0.035,0.092 0.09,0.096 0.097,0.008 0.194,0.012 0.29,0.012 h 2.555 c 0.098,0 0.195,10e-4 0.292,0.004 0.091,0.003 0.126,0.057 0.126,0.142 0,0.438 10e-4,0.876 10e-4,1.313 10e-4,0.281 -10e-4,0.561 0.003,0.841 10e-4,0.12 0.03,0.144 0.154,0.15 C -10.695,0.001 -10.586,0 -10.477,0 H 0"
     style="fill:#ffffff;fill-opacity:1;fill-rule:evenodd;stroke:none;stroke-width:0.09198944"
     id="path1570"
     inkscape:connector-curvature="0" /></g><g
   id="g1572"
   transform="matrix(14.494417,0,0,-14.494417,85.077888,270.40972)"
   style="stroke-width:0.09198944"><path
     d="M 0,0 C 0.1,0.081 0.105,0.176 0.113,0.271 0.135,0.483 0.079,0.682 0.03,0.883 c -0.2,0.826 -0.409,1.651 -0.603,2.479 -0.188,0.794 -0.297,1.599 -0.349,2.415 -0.089,1.398 -0.029,2.797 -0.045,4.195 -0.003,0.158 -0.004,0.317 0.001,0.475 0.003,0.117 0.036,0.151 0.153,0.154 0.146,0.004 0.292,10e-4 0.438,-0.001 0.089,0 0.129,-0.054 0.134,-0.138 0.004,-0.096 0.005,-0.194 0.005,-0.291 0,-0.828 0.006,-1.654 -0.001,-2.482 C -0.244,6.947 -0.214,6.205 -0.164,5.466 -0.102,4.565 0.071,3.683 0.303,2.813 0.475,2.166 0.647,1.519 0.805,0.872 0.926,0.374 1.001,-0.131 0.985,-0.645 0.978,-0.878 0.933,-1.103 0.874,-1.327 0.829,-1.494 0.756,-1.646 0.668,-1.792 0.439,-2.174 0.3,-2.232 -0.142,-2.132 c -0.896,0.201 -1.563,0.694 -1.982,1.522 -0.346,0.691 -0.57,1.42 -0.749,2.166 -0.214,0.888 -0.362,1.787 -0.515,2.685 -0.198,1.154 -0.274,2.317 -0.296,3.486 -0.015,0.851 -0.036,1.702 -0.052,2.553 -0.005,0.321 -0.003,0.322 0.321,0.324 0.488,0 0.452,0.037 0.436,-0.459 -0.031,-0.937 -10e-4,-1.874 0.051,-2.808 0.11,-2.056 0.399,-4.087 0.932,-6.079 0.081,-0.306 0.168,-0.61 0.294,-0.901 0.097,-0.225 0.213,-0.437 0.376,-0.62 0.023,-0.025 0.062,-0.049 0.092,-0.049 0.056,0.001 0.077,0.054 0.091,0.098 0.041,0.143 0.033,0.29 -0.003,0.432 -0.032,0.13 -0.075,0.258 -0.118,0.384 -0.386,1.143 -0.642,2.318 -0.817,3.51 -0.172,1.168 -0.268,2.342 -0.309,3.522 -0.031,0.888 -0.05,1.775 0,2.663 0.003,0.061 0.003,0.121 0.01,0.183 0.008,0.065 0.041,0.113 0.113,0.118 0.06,0.004 0.121,0.006 0.183,0.007 0.473,0.003 0.438,0.037 0.443,-0.427 0.01,-0.997 0.016,-1.994 0.012,-2.992 C -1.637,5.632 -1.431,4.107 -1.026,2.608 -0.913,2.185 -0.802,1.762 -0.685,1.341 -0.603,1.048 -0.503,0.76 -0.36,0.49 -0.265,0.31 -0.166,0.13 0,0"
     style="fill:#f9b112;fill-opacity:1;fill-rule:evenodd;stroke:none;stroke-width:0.09198944"
     id="path1574"
     inkscape:connector-curvature="0" /></g><g
   id="g1576"
   transform="matrix(14.494417,0,0,-14.494417,24.562252,144.48656)"
   style="stroke-width:0.09198944"><path
     d="M 0,0 C 0.041,-1.143 0.097,-2.285 0.221,-3.421 0.37,-4.8 0.606,-6.165 0.955,-7.509 c 0.117,-0.447 0.221,-0.896 0.341,-1.342 0.106,-0.401 0.251,-0.787 0.449,-1.153 0.278,-0.512 0.673,-0.881 1.238,-1.068 0.392,-0.129 0.775,-0.286 1.162,-0.428 0.092,-0.034 0.186,-0.057 0.277,-0.09 0.345,-0.121 0.498,-0.027 0.674,0.255 0.344,0.553 0.573,1.153 0.657,1.802 0.026,0.205 0.045,0.412 0.045,0.616 C 5.8,-8.622 5.732,-8.338 5.631,-8.061 5.234,-6.962 4.919,-5.839 4.699,-4.692 4.627,-4.31 4.572,-3.924 4.528,-3.538 4.344,-1.856 4.235,-0.171 4.283,1.524 4.295,1.951 4.262,1.918 4.684,1.916 5.204,1.914 5.17,1.976 5.138,1.414 5.096,0.683 5.093,-0.045 5.141,-0.773 5.17,-1.199 5.185,-1.623 5.223,-2.047 5.347,-3.469 5.609,-4.864 5.98,-6.24 6.164,-6.921 6.358,-7.598 6.628,-8.251 6.87,-8.835 6.842,-9.44 6.738,-10.047 6.664,-10.48 6.512,-10.89 6.36,-11.302 6.169,-11.815 5.966,-12.324 5.865,-12.864 5.834,-13.032 5.819,-13.201 5.789,-13.369 5.775,-13.437 5.726,-13.47 5.654,-13.441 c -0.363,0.142 -0.725,0.284 -1.086,0.426 -0.555,0.218 -1.109,0.435 -1.663,0.656 -0.338,0.135 -0.672,0.281 -0.983,0.474 -0.488,0.302 -0.81,0.715 -0.94,1.287 -0.386,1.694 -0.837,3.373 -1.123,5.089 -0.152,0.923 -0.291,1.848 -0.402,2.778 -0.114,0.966 -0.192,1.936 -0.254,2.906 -0.032,0.51 -0.031,1.021 -0.041,1.531 -0.002,0.18 0.028,0.205 0.215,0.209 0.146,0.004 0.293,0.004 0.439,0 0.157,-0.005 0.18,-0.031 0.185,-0.2 C 0.003,1.642 0,1.569 0,1.496 Z"
     style="fill:#f9b112;fill-opacity:1;fill-rule:evenodd;stroke:none;stroke-width:0.09198944"
     id="path1578"
     inkscape:connector-curvature="0" /></g><g
   id="g1580"
   transform="matrix(14.494417,0,0,-14.494417,100.05061,401.28126)"
   style="stroke-width:0.09198944"><path
     d="M 0,0 C 0.059,-0.008 0.119,-0.011 0.177,-0.023 0.618,-0.121 1.064,-0.169 1.513,-0.205 2.312,-0.27 3.114,-0.3 3.906,-0.432 3.967,-0.443 4.028,-0.447 4.084,-0.454 4.152,-0.374 4.133,-0.285 4.13,-0.203 4.119,0.344 4.096,0.891 4.091,1.439 4.085,1.851 4.089,2.266 4.196,2.671 4.234,2.819 4.257,2.978 4.381,3.115 4.674,2.828 4.958,2.545 5.175,2.206 5.388,1.871 5.506,1.504 5.511,1.103 5.513,0.678 5.515,0.252 5.526,-0.175 5.53,-0.344 5.557,-0.513 5.569,-0.682 5.583,-0.888 5.678,-1.05 5.824,-1.191 7.449,-2.747 9.017,-4.362 10.672,-5.888 10.761,-5.969 10.867,-6.036 10.911,-6.156 10.897,-6.178 10.886,-6.202 10.87,-6.219 10.6,-6.463 10.328,-6.705 10.058,-6.951 9.994,-7.008 9.934,-7.019 9.866,-6.961 9.821,-6.921 9.773,-6.883 9.727,-6.845 8.536,-5.823 7.351,-4.793 6.221,-3.702 5.669,-3.17 5.134,-2.622 4.623,-2.05 4.508,-1.922 4.384,-1.87 4.212,-1.869 3.726,-1.863 3.24,-1.844 2.754,-1.828 1.936,-1.802 1.244,-1.502 0.681,-0.902 0.464,-0.67 0.267,-0.423 0.075,-0.172 0.038,-0.124 -0.005,-0.081 0,0"
     style="fill:#f9b112;fill-opacity:1;fill-rule:evenodd;stroke:none;stroke-width:0.09198944"
     id="path1582"
     inkscape:connector-curvature="0" /></g><g
   id="g1584"
   transform="matrix(14.494417,0,0,-14.494417,285.80382,221.26206)"
   style="stroke-width:0.09198944"><path
     d="m 0,0 c -0.07,-0.098 -0.135,-0.201 -0.209,-0.296 -2.282,-2.881 -4.564,-5.761 -6.846,-8.642 -0.051,-0.067 -0.106,-0.134 -0.159,-0.199 -0.047,-0.056 -0.107,-0.074 -0.152,-0.014 -0.466,0.611 -0.879,1.253 -1.207,1.952 -0.047,0.101 0.006,0.158 0.064,0.222 0.363,0.394 0.719,0.794 1.092,1.18 0.718,0.743 1.444,1.48 2.171,2.217 0.761,0.769 1.528,1.534 2.293,2.302 0.068,0.068 0.143,0.131 0.214,0.196 0.778,0.403 1.586,0.741 2.367,1.141 C -0.258,0.117 -0.085,0.263 0,0"
     style="fill:#fab90a;fill-opacity:1;fill-rule:evenodd;stroke:none;stroke-width:0.09198944"
     id="path1586"
     inkscape:connector-curvature="0" /></g><g
   id="g1588"
   transform="matrix(14.494417,0,0,-14.494417,336.16612,123.98421)"
   style="stroke-width:0.09198944"><path
     d="m 0,0 c -0.344,0.027 -0.642,-0.086 -0.925,-0.276 -0.189,-0.128 -0.364,-0.283 -0.582,-0.369 -0.655,-0.254 -1.282,-0.565 -1.91,-0.877 -0.454,-0.228 -0.9,-0.475 -1.383,-0.643 -0.142,-0.05 -0.289,-0.146 -0.44,-0.012 0.354,0.21 0.707,0.423 1.065,0.63 0.809,0.471 1.62,0.939 2.432,1.407 0.039,0.024 0.087,0.04 0.094,0.099 -10e-4,0.025 -0.018,0.038 -0.049,0.036 -0.096,-0.006 -0.194,-0.007 -0.289,-0.022 -0.38,-0.056 -0.725,-0.209 -1.047,-0.408 -0.653,-0.404 -1.333,-0.756 -2.015,-1.104 -2.243,-1.143 -4.491,-2.276 -6.735,-3.419 -0.856,-0.437 -1.705,-0.887 -2.556,-1.33 -0.075,-0.04 -0.15,-0.082 -0.226,-0.12 -0.183,-0.09 -0.199,-0.083 -0.235,0.108 -0.049,0.274 -0.099,0.548 -0.15,0.822 -0.075,0.244 0.138,0.296 0.272,0.36 1.064,0.508 2.099,1.068 3.17,1.561 0.121,0.056 0.245,0.105 0.365,0.165 2.589,1.309 5.224,2.526 7.813,3.837 0.108,0.054 0.214,0.116 0.343,0.112 1.198,-0.002 2.395,0 3.591,-0.002 C 0.753,0.531 0.75,0.419 0.671,0.355 0.473,0.194 0.289,-0.008 0,0"
     style="fill:#4ba8ca;fill-opacity:1;fill-rule:evenodd;stroke:none;stroke-width:0.09198944"
     id="path1590"
     inkscape:connector-curvature="0" /></g><g
   id="g1592"
   transform="matrix(14.494417,0,0,-14.494417,332.34251,201.03943)"
   style="stroke-width:0.09198944"><path
     d="m 0,0 c -0.162,-0.367 -0.39,-0.698 -0.593,-1.042 -1.411,-2.398 -2.825,-4.793 -4.24,-7.188 -0.036,-0.062 -0.084,-0.118 -0.126,-0.175 -0.835,-0.336 -1.617,-0.784 -2.445,-1.136 -0.131,-0.056 -0.262,-0.15 -0.406,-0.032 0.034,0.063 0.064,0.13 0.105,0.189 2.103,3 4.206,6.001 6.311,8.999 0.041,0.06 0.091,0.111 0.138,0.167 0.333,0.133 0.639,0.328 0.98,0.442 0.123,0.041 0.294,0.15 0.355,-0.093 C 0.068,0.108 0.057,0.085 0.046,0.06 0.037,0.035 0.023,0.015 0,0"
     style="fill:#fab90a;fill-opacity:1;fill-rule:evenodd;stroke:none;stroke-width:0.09198944"
     id="path1594"
     inkscape:connector-curvature="0" /></g><g
   id="g1596"
   transform="matrix(14.494417,0,0,-14.494417,360.58053,52.470211)"
   style="stroke-width:0.09198944"><path
     d="m 0,0 h 2.116 c 0.098,0 0.195,-0.004 0.291,-0.007 0.056,-0.003 0.09,-0.037 0.096,-0.089 0.008,-0.06 0.008,-0.121 0.008,-0.181 V -3.305 C 2.511,-3.365 2.512,-3.428 2.5,-3.486 2.495,-3.516 2.472,-3.552 2.425,-3.553 2.377,-3.555 2.33,-3.561 2.281,-3.561 1.648,-3.563 1.016,-3.563 0.383,-3.563 c -0.047,0 -0.098,0 -0.146,0.006 -0.05,0.005 -0.098,0.038 -0.099,0.09 -0.004,0.266 -0.003,0.534 0.002,0.8 0,0.054 0.052,0.081 0.104,0.082 0.086,0.003 0.171,0.003 0.255,0.003 0.183,10e-4 0.366,-0.001 0.549,0.003 0.124,0.002 0.152,0.027 0.154,0.147 0.002,0.438 0.001,0.876 0.001,1.314 0,0.01 -0.001,0.023 -0.001,0.036 0,0.089 -0.048,0.129 -0.135,0.129 -0.584,0 -1.168,0.002 -1.752,0 -0.127,-0.002 -0.157,-0.039 -0.157,-0.187 -0.002,-0.584 -0.001,-1.168 -0.001,-1.752 0,-0.17 0.001,-0.341 -0.003,-0.51 -0.002,-0.128 -0.026,-0.157 -0.143,-0.158 -0.266,-0.003 -0.535,-10e-4 -0.802,0 -0.085,10e-4 -0.135,0.045 -0.138,0.134 -10e-4,0.086 -0.002,0.17 -0.002,0.255 v 1.825 c 0,0.084 -0.002,0.169 -0.002,0.255 0,0.086 -0.037,0.136 -0.128,0.138 -0.121,0.001 -0.243,0.002 -0.364,0.006 -0.086,0.003 -0.132,0.049 -0.137,0.135 -0.001,0.025 -0.004,0.049 -0.002,0.074 0.013,0.228 -0.032,0.46 0.027,0.686 0.218,0.111 0.451,0.044 0.676,0.048 C -1.24,0.007 -0.621,0 0,0"
     style="fill:#254587;fill-opacity:1;fill-rule:evenodd;stroke:none;stroke-width:0.09198944"
     id="path1598"
     inkscape:connector-curvature="0" /></g><g
   id="g1600"
   transform="matrix(14.494417,0,0,-14.494417,58.512511,52.470211)"
   style="stroke-width:0.09198944"><path
     d="M 0,0 H 2.006 C 2.091,0 2.177,0.001 2.262,-0.001 2.44,-0.007 2.452,-0.02 2.459,-0.183 2.462,-0.22 2.461,-0.256 2.461,-0.292 v -2.993 c 0,-0.061 0,-0.122 -0.007,-0.182 C 2.447,-3.519 2.413,-3.552 2.358,-3.555 2.298,-3.56 2.237,-3.563 2.176,-3.563 h -3.612 c -0.06,0 -0.122,0.003 -0.182,0.007 -0.056,0.004 -0.09,0.035 -0.094,0.089 -0.007,0.086 -0.008,0.17 -0.008,0.256 v 1.824 c 0,0.084 0.003,0.17 -0.001,0.255 -0.006,0.143 -0.033,0.174 -0.168,0.18 -0.157,0.005 -0.317,0.001 -0.473,0.005 -0.085,0.003 -0.133,0.051 -0.133,0.14 0,0.218 -0.002,0.437 0.002,0.656 10e-4,0.111 0.038,0.143 0.158,0.148 C -2.251,0.001 -2.165,0 -2.08,0 Z"
     style="fill:#254587;fill-opacity:1;fill-rule:evenodd;stroke:none;stroke-width:0.09198944"
     id="path1602"
     inkscape:connector-curvature="0" /></g><g
   id="g1604"
   transform="matrix(14.494417,0,0,-14.494417,291.13343,116.57901)"
   style="stroke-width:0.09198944"><path
     d="m 0,0 c -0.05,-0.091 -0.14,-0.131 -0.226,-0.175 -0.696,-0.346 -1.379,-0.718 -2.089,-1.036 -0.93,-0.418 -1.819,-0.918 -2.747,-1.34 -1.041,-0.47 -2.039,-1.024 -3.076,-1.499 -0.994,-0.454 -1.957,-0.967 -2.942,-1.44 -0.217,-0.105 -0.444,-0.188 -0.648,-0.325 -0.066,-0.045 -0.101,-0.099 -0.116,-0.173 -0.091,0.083 -0.075,0.203 -0.096,0.306 -0.069,0.32 -0.13,0.642 -0.122,0.972 0.002,0.112 0.038,0.186 0.142,0.226 0.248,0.099 0.497,0.197 0.746,0.294 1.754,0.675 3.51,1.349 5.264,2.027 1.326,0.513 2.647,1.028 3.97,1.545 0.111,0.044 0.217,0.096 0.344,0.152 -0.239,0.05 -0.428,0.05 -0.644,0.01 -0.466,-0.084 -0.916,-0.223 -1.365,-0.376 -0.505,-0.172 -1.012,-0.337 -1.52,-0.503 -0.068,-0.024 -0.141,-0.029 -0.212,-0.044 -0.032,0.166 0.088,0.243 0.197,0.314 0.663,0.433 1.427,0.669 2.104,1.076 0.062,0.038 0.139,0.034 0.213,0.034 h 2.692 C -0.082,0.045 -0.035,0.038 0,0"
     style="fill:#78c2c5;fill-opacity:1;fill-rule:evenodd;stroke:none;stroke-width:0.09198944"
     id="path1606"
     inkscape:connector-curvature="0" /></g><g
   id="g1608"
   transform="matrix(14.494417,0,0,-14.494417,293.24671,309.07068)"
   style="stroke-width:0.09198944"><path
     d="M 0,0 C 0.035,0.089 0.065,0.181 0.109,0.267 1.464,3.004 2.821,5.737 4.178,8.472 4.216,8.548 4.264,8.618 4.308,8.691 4.509,8.949 4.819,8.997 5.104,9.086 5.224,9.121 5.326,9.071 5.255,8.907 5.163,8.541 5,8.202 4.865,7.851 4.005,5.621 3.137,3.394 2.271,1.165 2.232,1.064 2.181,0.967 2.136,0.869 1.555,0.611 0.994,0.311 0.416,0.044 0.288,-0.016 0.147,-0.065 0,0"
     style="fill:#fab90a;fill-opacity:1;fill-rule:evenodd;stroke:none;stroke-width:0.09198944"
     id="path1610"
     inkscape:connector-curvature="0" /></g><g
   id="g1612"
   transform="matrix(14.494417,0,0,-14.494417,128.57707,297.38964)"
   style="stroke-width:0.09198944"><path
     d="M 0,0 C 0.312,-0.405 0.547,-0.812 0.647,-1.286 0.696,-1.517 0.704,-1.746 0.659,-1.975 0.608,-2.237 0.55,-2.499 0.48,-2.757 0.352,-3.226 0.271,-3.705 0.184,-4.183 0.146,-4.387 0.098,-4.587 0.042,-4.786 0,-4.939 -0.035,-4.965 -0.196,-4.949 c -0.423,0.04 -0.849,0.071 -1.268,0.14 -0.709,0.113 -1.399,0.302 -2.076,0.551 -0.436,0.161 -0.751,0.437 -0.983,0.825 -0.244,0.409 -0.422,0.848 -0.606,1.286 -0.008,0.018 -0.005,0.048 0.004,0.066 0.022,0.042 0.067,0.031 0.096,0.016 0.177,-0.081 0.359,-0.154 0.526,-0.251 0.502,-0.285 1.03,-0.498 1.603,-0.58 0.49,-0.069 0.937,-0.249 1.355,-0.51 0.165,-0.102 0.336,-0.195 0.508,-0.285 0.043,-0.023 0.097,-0.014 0.103,0.055 0.005,0.06 0.006,0.121 0.006,0.182 0.003,1 0.238,1.951 0.631,2.865 C -0.217,-0.4 -0.156,-0.199 0,0"
     style="fill:#f9b112;fill-opacity:1;fill-rule:evenodd;stroke:none;stroke-width:0.09198944"
     id="path1614"
     inkscape:connector-curvature="0" /></g><g
   id="g1616"
   transform="matrix(14.494417,0,0,-14.494417,144.76736,327.94243)"
   style="stroke-width:0.09198944"><path
     d="M 0,0 C 0.521,-0.577 0.918,-1.184 0.843,-1.991 0.821,-2.234 0.791,-2.476 0.754,-2.716 0.685,-3.16 0.66,-3.609 0.664,-4.061 0.666,-4.317 0.633,-4.569 0.591,-4.822 0.57,-4.938 0.532,-4.969 0.421,-4.972 c -0.072,-10e-4 -0.145,0 -0.218,0.007 -0.676,0.07 -1.358,0.1 -2.031,0.209 -0.311,0.05 -0.619,0.117 -0.925,0.203 -0.526,0.151 -0.978,0.421 -1.358,0.816 -0.312,0.324 -0.58,0.683 -0.834,1.073 0.055,0.008 0.092,0.026 0.121,0.016 0.673,-0.212 1.368,-0.332 2.061,-0.463 0.725,-0.139 1.454,-0.274 2.152,-0.55 0.087,0.093 0.064,0.194 0.063,0.282 -0.015,0.586 0.008,1.168 0.052,1.752 0.031,0.438 0.114,0.866 0.283,1.275 C -0.164,-0.232 -0.116,-0.109 0,0"
     style="fill:#f9b112;fill-opacity:1;fill-rule:evenodd;stroke:none;stroke-width:0.09198944"
     id="path1618"
     inkscape:connector-curvature="0" /></g><g
   id="g1620"
   transform="matrix(14.494417,0,0,-14.494417,218.2207,52.470211)"
   style="stroke-width:0.09198944"><path
     d="m 0,0 h 2.042 c 0.097,0 0.195,0.001 0.29,-0.005 0.066,-0.006 0.112,-0.045 0.116,-0.116 0.003,-0.062 0.004,-0.122 0.004,-0.183 0.002,-0.984 0.002,-1.968 0.002,-2.952 0,-0.061 -0.003,-0.123 -0.004,-0.183 -0.003,-0.072 -0.045,-0.117 -0.112,-0.118 -0.267,-0.003 -0.535,0 -0.802,10e-4 -0.056,10e-4 -0.089,0.037 -0.093,0.09 -0.005,0.085 -0.005,0.169 -0.007,0.255 v 1.859 c 0,0.085 -10e-4,0.169 -10e-4,0.255 0,0.086 -0.041,0.134 -0.128,0.142 -0.023,0.003 -0.048,0.003 -0.073,0.003 -0.571,0 -1.141,0.001 -1.713,-0.001 -0.176,0 -0.191,-0.017 -0.192,-0.185 -0.003,-0.461 -0.001,-0.923 -0.001,-1.384 0,-0.28 0.001,-0.559 -0.002,-0.839 -0.003,-0.177 -0.019,-0.199 -0.178,-0.199 -0.266,10e-4 -0.534,-0.023 -0.798,0.016 -0.101,0.258 -0.039,0.527 -0.045,0.789 -0.013,0.436 -0.005,0.875 -0.005,1.312 v 0.146 c 0,0.357 0.024,0.346 -0.327,0.346 -0.098,0 -0.195,-0.002 -0.292,0.003 -0.118,0.007 -0.151,0.038 -0.153,0.156 -0.004,0.219 -10e-4,0.437 0,0.656 0.002,0.087 0.055,0.131 0.14,0.133 C -2.248,0 -2.162,0 -2.077,0 Z"
     style="fill:#264587;fill-opacity:1;fill-rule:evenodd;stroke:none;stroke-width:0.09198944"
     id="path1622"
     inkscape:connector-curvature="0" /></g><g
   id="g1624"
   transform="matrix(14.494417,0,0,-14.494417,291.13343,116.57901)"
   style="stroke-width:0.09198944"><path
     d="M 0,0 C -0.738,0.003 -1.476,0.005 -2.212,0.007 -2.406,0.008 -2.6,0.005 -2.793,0.005 c -0.086,0 -0.164,-0.013 -0.238,-0.068 -0.39,-0.292 -0.835,-0.481 -1.281,-0.664 -0.315,-0.128 -0.596,-0.319 -0.888,-0.488 -0.057,-0.034 -0.091,-0.108 -0.137,-0.164 -0.064,-0.093 -0.175,-0.072 -0.264,-0.101 -0.691,-0.225 -1.381,-0.447 -2.074,-0.663 -1.247,-0.387 -2.496,-0.769 -3.743,-1.154 -0.184,-0.057 -0.367,-0.124 -0.551,-0.181 -0.086,-0.026 -0.147,0.011 -0.154,0.101 -0.014,0.204 -0.111,0.399 -0.066,0.609 0.175,-0.064 0.334,-0.066 0.513,0.029 1.22,0.656 2.498,1.199 3.71,1.869 0.068,0.023 0.135,0.06 0.206,0.068 0.467,0.057 0.936,0.105 1.401,0.164 0.166,0.02 0.326,0.083 0.497,0.094 -0.31,0.073 -0.625,0.013 -0.933,0.052 0.076,0.241 0.384,0.173 0.515,0.402 -0.375,0.007 -0.735,-0.006 -1.092,0.007 -0.131,0.005 -0.3,-0.047 -0.362,0.146 0.134,0.005 0.266,0.015 0.4,0.016 C -2.578,0.082 2.18,0.085 6.936,0.087 7.057,0.087 7.179,0.076 7.3,0.071 7.244,-0.117 7.079,-0.09 6.944,-0.097 6.645,-0.109 6.344,-0.112 6.044,-0.096 5.457,-0.112 4.869,-0.106 4.283,-0.104 4.118,-0.104 3.943,-0.124 3.803,0 H 0"
     style="fill:#a3ddba;fill-opacity:1;fill-rule:evenodd;stroke:none;stroke-width:0.09198944"
     id="path1626"
     inkscape:connector-curvature="0" /></g><g
   id="g1628"
   transform="matrix(14.494417,0,0,-14.494417,260.21249,155.54145)"
   style="stroke-width:0.09198944"><path
     d="M 0,0 C 0.127,-0.025 0.24,0.031 0.351,0.074 0.586,0.165 0.822,0.26 1.05,0.371 1.465,0.57 1.871,0.786 2.285,0.986 2.643,1.159 3.006,1.326 3.369,1.49 3.456,1.529 3.55,1.558 3.645,1.578 3.669,1.585 3.703,1.548 3.733,1.532 L 3.731,1.53 C 3.713,1.507 3.691,1.49 3.665,1.476 3.613,1.444 3.563,1.414 3.512,1.383 3.495,1.361 3.471,1.342 3.445,1.33 3.395,1.299 3.344,1.267 3.294,1.237 3.275,1.214 3.253,1.196 3.229,1.184 3.177,1.153 3.126,1.121 3.074,1.09 3.057,1.068 3.035,1.052 3.01,1.037 2.957,1.007 2.905,0.975 2.855,0.944 2.837,0.922 2.815,0.906 2.791,0.892 2.739,0.859 2.687,0.828 2.635,0.797 2.617,0.776 2.597,0.76 2.574,0.746 2.521,0.713 2.469,0.682 2.417,0.651 2.399,0.63 2.377,0.612 2.354,0.599 2.302,0.567 2.249,0.536 2.196,0.503 2.18,0.483 2.159,0.466 2.136,0.454 2.083,0.421 2.03,0.389 1.976,0.357 1.96,0.338 1.94,0.321 1.918,0.308 1.496,0.022 1.075,-0.267 0.651,-0.551 -0.188,-1.113 -1.028,-1.671 -1.87,-2.229 -1.971,-2.297 -2.062,-2.38 -2.184,-2.413 -2.551,-2.5 -2.879,-2.686 -3.212,-2.852 c -1.825,-0.907 -3.657,-1.799 -5.496,-2.676 -0.136,-0.066 -0.226,-0.179 -0.348,-0.257 -0.098,0.138 -0.061,0.304 -0.091,0.457 -0.016,0.083 0.056,0.127 0.119,0.165 0.333,0.199 0.667,0.399 1.001,0.595 1.826,1.079 3.67,2.129 5.52,3.169 0.794,0.444 1.582,0.896 2.373,1.343 C -0.091,-0.031 -0.045,-0.019 0,0"
     style="fill:#4eb3ac;fill-opacity:1;fill-rule:evenodd;stroke:none;stroke-width:0.09198944"
     id="path1630"
     inkscape:connector-curvature="0" /></g><g
   id="g1632"
   transform="matrix(14.494417,0,0,-14.494417,151.29129,104.10802)"
   style="stroke-width:0.09198944"><path
     d="m 0,0 h -1.75 c -0.085,0 -0.169,0.001 -0.254,0.007 -0.053,0.003 -0.099,0.034 -0.099,0.086 -0.004,0.266 -0.003,0.533 0,0.8 0.001,0.054 0.049,0.081 0.102,0.082 0.097,0.004 0.194,0.006 0.291,0.006 h 2.151 c 0.084,0 0.17,0.002 0.255,0.002 0.091,0.002 0.127,0.055 0.128,0.138 0.003,0.072 0.003,0.146 0.003,0.218 0,0.378 -0.002,0.755 -0.002,1.131 0,0.086 -0.035,0.138 -0.128,0.139 -0.097,0 -0.194,0.003 -0.292,0.003 h -2.04 c -0.099,0 -0.195,0.003 -0.292,0.01 -0.051,0.004 -0.096,0.032 -0.097,0.088 -0.007,0.254 -0.012,0.509 -0.012,0.764 0,0.051 0.047,0.081 0.102,0.082 0.072,0.003 0.144,0.005 0.218,0.005 1.045,0.002 2.09,0.002 3.135,0.002 0.049,0 0.096,10e-4 0.146,-0.002 C 1.708,3.553 1.738,3.527 1.743,3.395 1.747,3.309 1.746,3.224 1.746,3.139 c 0,-0.583 -10e-4,-1.167 0,-1.749 0,-0.098 0,-0.195 0.004,-0.292 C 1.753,1.028 1.788,0.987 1.862,0.985 1.922,0.982 1.983,0.981 2.043,0.977 2.096,0.973 2.14,0.947 2.14,0.891 2.143,0.625 2.144,0.357 2.14,0.09 2.139,0.037 2.095,0.008 2.042,0.005 1.944,0.001 1.847,0 1.75,0 H 0"
     style="fill:#254587;fill-opacity:1;fill-rule:evenodd;stroke:none;stroke-width:0.09198944"
     id="path1634"
     inkscape:connector-curvature="0" /></g><g
   id="g1636"
   transform="matrix(14.494417,0,0,-14.494417,355.49154,346.15899)"
   style="stroke-width:0.09198944"><path
     d="m 0,0 c -0.046,-0.25 -0.093,-0.498 -0.141,-0.747 -0.095,-0.5 -0.148,-1.006 -0.285,-1.498 -0.084,-0.308 -0.222,-0.588 -0.425,-0.835 -0.314,-0.386 -0.625,-0.773 -0.937,-1.159 -0.022,-0.028 -0.053,-0.049 -0.079,-0.074 -0.394,-0.171 -0.775,-0.372 -1.164,-0.555 -0.148,-0.071 -0.304,-0.158 -0.465,-0.023 0.041,0.266 0.145,0.513 0.227,0.766 0.29,0.913 0.583,1.824 0.882,2.735 0.033,0.101 0.035,0.218 0.12,0.299 C -1.524,-0.701 -0.792,-0.285 0,0"
     style="fill:#bf935b;fill-opacity:1;fill-rule:evenodd;stroke:none;stroke-width:0.09198944"
     id="path1638"
     inkscape:connector-curvature="0" /></g><g
   id="g1640"
   transform="matrix(14.494417,0,0,-14.494417,248.71551,211.35946)"
   style="stroke-width:0.09198944"><path
     d="m 0,0 c -0.041,-0.035 -0.083,-0.071 -0.123,-0.105 -0.045,-0.01 -0.073,-0.038 -0.09,-0.079 -0.178,-0.164 -0.353,-0.332 -0.534,-0.493 -0.491,-0.433 -0.985,-0.866 -1.479,-1.297 -0.1,-0.087 -0.209,-0.165 -0.312,-0.247 -1.495,-0.701 -2.948,-1.484 -4.453,-2.164 -0.148,-0.067 -0.287,-0.201 -0.474,-0.104 -0.124,0.212 -0.168,0.454 -0.247,0.682 -0.022,0.066 0,0.117 0.048,0.164 0.009,0.007 0.019,0.015 0.028,0.022 0.468,0.327 0.936,0.654 1.404,0.982 0.655,0.292 1.309,0.583 1.946,0.908 1.311,0.667 2.646,1.282 3.964,1.933 0.162,0.08 0.366,0.296 0.54,-0.006 C 0.195,0.172 0.171,0.149 0.142,0.13 L 0.138,0.125 C 0.121,0.098 0.098,0.078 0.068,0.063 L 0.059,0.055 C 0.049,0.026 0.029,0.008 0,0"
     style="fill:#7dcb32;fill-opacity:1;fill-rule:evenodd;stroke:none;stroke-width:0.09198944"
     id="path1642"
     inkscape:connector-curvature="0" /></g><g
   id="g1644"
   transform="matrix(14.494417,0,0,-14.494417,392.75524,170.53302)"
   style="stroke-width:0.09198944"><path
     d="M 0,0 C -0.034,-0.389 -0.145,-0.761 -0.224,-1.14 -0.61,-2.991 -1.001,-4.842 -1.393,-6.693 -1.404,-6.75 -1.431,-6.805 -1.45,-6.861 c -0.394,-0.191 -0.788,-0.375 -1.18,-0.567 -0.118,-0.059 -0.245,-0.123 -0.372,-0.013 0.018,0.082 0.031,0.167 0.056,0.247 0.723,2.275 1.446,4.549 2.17,6.824 0.033,0.104 0.078,0.202 0.117,0.305 0.116,0.105 0.248,0.186 0.404,0.204 C -0.147,0.15 -0.004,0.194 0,0"
     style="fill:#fab90a;fill-opacity:1;fill-rule:evenodd;stroke:none;stroke-width:0.09198944"
     id="path1646"
     inkscape:connector-curvature="0" /></g><g
   id="g1648"
   transform="matrix(14.494417,0,0,-14.494417,292.91913,377.83364)"
   style="stroke-width:0.09198944"><path
     d="m 0,0 c -0.188,-0.501 -0.374,-1.001 -0.565,-1.5 -0.311,-0.819 -0.626,-1.634 -0.938,-2.453 -0.026,-0.067 -0.038,-0.142 -0.109,-0.181 -0.42,0.174 -1.626,0.976 -2.054,1.366 -0.025,0.093 0.039,0.159 0.075,0.232 0.177,0.374 0.356,0.746 0.537,1.117 0.042,0.086 0.065,0.186 0.147,0.25 0.179,-0.037 0.329,0.038 0.482,0.115 0.584,0.292 1.162,0.596 1.753,0.871 C -0.464,-0.085 -0.262,0.083 0,0"
     style="fill:#bf935b;fill-opacity:1;fill-rule:evenodd;stroke:none;stroke-width:0.09198944"
     id="path1650"
     inkscape:connector-curvature="0" /></g><g
   id="g1652"
   transform="matrix(14.494417,0,0,-14.494417,251.87097,208.50986)"
   style="stroke-width:0.09198944"><path
     d="M 0,0 C -0.06,0.085 -0.147,0.083 -0.229,0.056 -0.31,0.03 -0.385,-0.012 -0.461,-0.05 c -0.381,-0.19 -0.754,-0.393 -1.142,-0.568 -1.13,-0.507 -2.22,-1.097 -3.337,-1.63 -0.328,-0.155 -0.659,-0.305 -0.989,-0.458 -0.163,-0.078 -0.329,-0.163 -0.521,-0.13 0.042,0.081 0.124,0.115 0.192,0.164 1.333,0.933 2.664,1.866 3.998,2.799 0.049,0.034 0.105,0.058 0.157,0.087 1.309,0.619 2.616,1.245 3.916,1.888 0.15,0.075 0.297,0.166 0.47,0.177 C 2.388,2.286 2.491,2.268 2.41,2.118 H 2.409 C 2.387,2.092 2.362,2.071 2.335,2.051 L 2.33,2.046 C 2.312,2.019 2.29,1.998 2.262,1.985 L 2.249,1.975 C 2.241,1.948 2.222,1.93 2.193,1.922 1.953,1.705 1.713,1.485 1.472,1.27 1.049,0.895 0.625,0.52 0.201,0.147 0.138,0.093 0.067,0.049 0,0"
     style="fill:#6dc75a;fill-opacity:1;fill-rule:evenodd;stroke:none;stroke-width:0.09198944"
     id="path1654"
     inkscape:connector-curvature="0" /></g><g
   id="g1656"
   transform="matrix(14.494417,0,0,-14.494417,288.26643,52.470211)"
   style="stroke-width:0.09198944"><path
     d="M 0,0 H 1.533 C 1.618,0 1.702,-0.003 1.788,-0.007 1.843,-0.01 1.877,-0.042 1.884,-0.094 1.893,-0.154 1.893,-0.216 1.893,-0.276 V -3.304 C 1.893,-3.353 1.892,-3.402 1.889,-3.45 1.885,-3.503 1.861,-3.552 1.807,-3.552 1.541,-3.556 1.274,-3.555 1.007,-3.55 c -0.059,0 -0.078,0.05 -0.081,0.102 -0.003,0.097 -0.004,0.193 -0.004,0.292 v 1.823 c 0,0.085 -0.001,0.171 -0.004,0.255 -0.001,0.07 -0.034,0.116 -0.106,0.12 -0.097,0.006 -0.194,0.007 -0.292,0.007 h -2.079 c -0.097,0 -0.195,0 -0.292,0.007 -0.07,0.004 -0.113,0.049 -0.115,0.117 -0.002,0.231 -0.001,0.461 0,0.693 0.002,0.089 0.058,0.129 0.142,0.131 C -1.739,0 -1.655,0 -1.569,0 Z"
     style="fill:#254587;fill-opacity:1;fill-rule:evenodd;stroke:none;stroke-width:0.09198944"
     id="path1658"
     inkscape:connector-curvature="0" /></g><g
   id="g1660"
   transform="matrix(14.494417,0,0,-14.494417,308.12234,337.95517)"
   style="stroke-width:0.09198944"><path
     d="m 0,0 c -0.01,-0.048 -0.012,-0.097 -0.03,-0.142 -0.217,-0.566 -0.434,-1.132 -0.653,-1.697 -0.036,-0.088 -0.084,-0.173 -0.124,-0.26 -0.073,-0.104 -0.181,-0.157 -0.29,-0.213 -0.714,-0.363 -1.448,-0.686 -2.17,-1.035 -0.116,-0.056 -0.277,-0.253 -0.398,0.012 0.008,0.023 0.016,0.046 0.024,0.07 0.014,0.027 0.03,0.054 0.047,0.08 0.059,0.132 0.113,0.266 0.177,0.396 0.283,0.574 0.568,1.148 0.854,1.721 0.048,0.097 0.105,0.19 0.158,0.284 0.663,0.398 1.355,0.74 2.071,1.031 C -0.201,0.301 -0.018,0.42 0.065,0.164 0.059,0.141 0.052,0.115 0.045,0.09 0.027,0.061 0.012,0.031 0,0"
     style="fill:#f47117;fill-opacity:1;fill-rule:evenodd;stroke:none;stroke-width:0.09198944"
     id="path1662"
     inkscape:connector-curvature="0" /></g><g
   id="g1664"
   transform="matrix(14.494417,0,0,-14.494417,405.49004,151.37141)"
   style="stroke-width:0.09198944"><path
     d="m 0,0 c 0.014,-1.716 0.045,-3.432 -0.026,-5.146 -0.02,-0.486 -0.075,-0.97 -0.191,-1.445 -0.102,-0.413 -0.191,-0.829 -0.297,-1.241 -0.13,-0.495 -0.315,-0.969 -0.587,-1.4 -0.091,0.005 -0.071,0.063 -0.068,0.104 0.019,0.266 0.041,0.533 0.064,0.801 0.089,1.004 0.177,2.01 0.267,3.014 0.055,0.619 0.108,1.237 0.164,1.854 0.101,1.127 0.203,2.253 0.306,3.379 C -0.262,0.023 -0.142,0.063 0,0"
     style="fill:#f9b70b;fill-opacity:1;fill-rule:evenodd;stroke:none;stroke-width:0.09198944"
     id="path1666"
     inkscape:connector-curvature="0" /></g><g
   id="g1668"
   transform="matrix(14.494417,0,0,-14.494417,219.1382,339.7887)"
   style="stroke-width:0.09198944"><path
     d="M 0,0 C 0.113,-0.011 0.211,0.035 0.31,0.083 0.973,0.402 1.638,0.717 2.297,1.045 2.476,1.133 2.652,1.188 2.851,1.168 2.84,1.142 2.828,1.116 2.815,1.091 2.81,1.064 2.793,1.045 2.77,1.031 2.557,0.584 2.285,0.17 2.035,-0.255 1.871,-0.536 1.734,-0.832 1.526,-1.086 0.633,-1.401 -0.175,-1.895 -1.031,-2.287 c -0.198,-0.092 -0.392,-0.262 -0.64,-0.123 0.027,0.053 0.051,0.11 0.083,0.159 0.49,0.706 0.98,1.412 1.471,2.116 C -0.085,-0.086 -0.04,-0.045 0,0"
     style="fill:#f89d10;fill-opacity:1;fill-rule:evenodd;stroke:none;stroke-width:0.09198944"
     id="path1670"
     inkscape:connector-curvature="0" /></g><g
   id="g1672"
   transform="matrix(14.494417,0,0,-14.494417,128.96263,239.39165)"
   style="stroke-width:0.09198944"><path
     d="m 0,0 c -0.018,0.184 0.108,0.258 0.25,0.312 0.547,0.208 1.051,0.502 1.576,0.755 0.351,0.169 0.691,0.36 1.045,0.519 1.078,0.48 2.117,1.036 3.177,1.553 0.206,0.1 0.42,0.186 0.632,0.278 C 6.755,3.45 6.821,3.444 6.872,3.373 6.853,3.349 6.828,3.331 6.802,3.317 6.789,3.299 6.771,3.291 6.749,3.291 6.711,3.28 6.682,3.253 6.654,3.227 L 6.652,3.226 C 6.633,3.203 6.611,3.184 6.584,3.171 6.569,3.155 6.551,3.145 6.528,3.145 6.491,3.133 6.464,3.107 6.435,3.083 L 6.431,3.08 C 6.415,3.057 6.393,3.038 6.366,3.027 6.351,3.009 6.332,2.999 6.309,2.998 6.272,2.987 6.244,2.961 6.217,2.937 L 6.213,2.933 C 6.195,2.911 6.173,2.893 6.148,2.881 6.133,2.863 6.112,2.852 6.089,2.851 6.052,2.841 6.025,2.815 5.999,2.791 L 5.993,2.787 C 5.976,2.763 5.955,2.746 5.929,2.735 5.913,2.716 5.892,2.706 5.869,2.703 5.831,2.697 5.807,2.671 5.781,2.645 L 5.772,2.641 C 5.757,2.617 5.736,2.601 5.711,2.589 5.026,2.129 4.343,1.667 3.657,1.208 2.649,0.533 1.64,-0.139 0.63,-0.813 0.54,-0.873 0.447,-0.928 0.333,-1 0.168,-0.672 0.04,-0.352 0,0"
     style="fill:#5fc27d;fill-opacity:1;fill-rule:evenodd;stroke:none;stroke-width:0.09198944"
     id="path1674"
     inkscape:connector-curvature="0" /></g><g
   id="g1676"
   transform="matrix(14.494417,0,0,-14.494417,309.07896,335.57951)"
   style="stroke-width:0.09198944"><path
     d="m 0,0 c -0.072,0.095 -0.169,0.087 -0.262,0.05 -0.202,-0.083 -0.404,-0.165 -0.599,-0.26 -0.424,-0.207 -0.845,-0.422 -1.268,-0.633 -0.108,-0.053 -0.213,-0.117 -0.343,-0.105 0.028,0.067 0.048,0.136 0.08,0.201 0.395,0.797 0.792,1.594 1.189,2.391 0.033,0.064 0.074,0.122 0.11,0.185 0.543,0.147 1.015,0.452 1.517,0.688 C 0.622,2.609 0.817,2.709 1.043,2.698 1.035,2.675 1.026,2.652 1.018,2.63 0.971,2.588 0.988,2.521 0.955,2.473 0.934,2.403 0.921,2.332 0.895,2.266 0.629,1.574 0.363,0.883 0.095,0.194 0.07,0.127 0.031,0.064 0,0"
     style="fill:#f78e12;fill-opacity:1;fill-rule:evenodd;stroke:none;stroke-width:0.09198944"
     id="path1678"
     inkscape:connector-curvature="0" /></g><g
   id="g1680"
   transform="matrix(14.494417,0,0,-14.494417,362.07635,315.54824)"
   style="stroke-width:0.09198944"><path
     d="m 0,0 c -0.052,-0.452 -0.175,-0.888 -0.27,-1.33 -0.026,-0.116 -0.03,-0.239 -0.097,-0.342 -0.607,-0.359 -1.245,-0.652 -1.892,-0.926 -0.176,-0.074 -0.181,-0.06 -0.233,0.124 0.094,0.309 0.184,0.62 0.281,0.93 0.169,0.539 0.342,1.076 0.516,1.614 0.019,0.055 0.047,0.107 0.072,0.16 0.454,0.217 0.9,0.455 1.361,0.658 C -0.104,0.959 0.153,1.098 0.15,0.713 0.143,0.672 0.138,0.63 0.132,0.589 0.076,0.521 0.12,0.427 0.075,0.356 0.068,0.312 0.061,0.267 0.055,0.222 0.005,0.155 0.05,0.065 0,0"
     style="fill:#f37217;fill-opacity:1;fill-rule:evenodd;stroke:none;stroke-width:0.09198944"
     id="path1682"
     inkscape:connector-curvature="0" /></g><g
   id="g1684"
   transform="matrix(14.494417,0,0,-14.494417,286.79816,177.80345)"
   style="stroke-width:0.09198944"><path
     d="M 0,0 C -0.005,0.049 -0.016,0.109 -0.078,0.094 -0.183,0.068 -0.286,0.033 -0.385,-0.014 -0.604,-0.117 -0.82,-0.232 -1.038,-0.34 c -0.917,-0.447 -1.832,-0.9 -2.754,-1.334 -0.226,-0.106 -0.451,-0.245 -0.72,-0.23 0.279,0.252 0.606,0.443 0.914,0.657 1.066,0.746 2.137,1.486 3.207,2.225 0.069,0.048 0.145,0.086 0.219,0.13 0.698,0.296 1.367,0.654 2.064,0.956 0.135,0.058 0.305,0.249 0.44,-0.017 L 2.33,2.046 C 2.313,2.019 2.29,1.998 2.261,1.982 L 2.251,1.974 C 2.241,1.948 2.222,1.929 2.195,1.919 1.612,1.402 1.033,0.881 0.447,0.37 0.303,0.241 0.176,0.089 0,0"
     style="fill:#5fc37d;fill-opacity:1;fill-rule:evenodd;stroke:none;stroke-width:0.09198944"
     id="path1686"
     inkscape:connector-curvature="0" /></g><g
   id="g1688"
   transform="matrix(14.494417,0,0,-14.494417,320.61508,148.11743)"
   style="stroke-width:0.09198944"><path
     d="M 0,0 C -0.03,0.042 -0.072,0.071 -0.123,0.057 -0.18,0.044 -0.236,0.018 -0.291,-0.007 c -0.587,-0.281 -1.177,-0.562 -1.763,-0.847 -0.145,-0.071 -0.288,-0.123 -0.452,-0.087 0.317,0.286 0.686,0.499 1.029,0.746 0.75,0.537 1.507,1.064 2.259,1.599 C 0.887,1.479 1.02,1.529 1.073,1.665 1.27,1.792 1.45,1.945 1.669,2.036 1.731,2.061 1.75,2.118 1.769,2.176 2.521,2.177 3.271,2.178 4.021,2.181 4.092,2.09 4.043,2.017 3.971,1.974 3.77,1.856 3.594,1.691 3.351,1.656 3.132,1.694 2.952,1.615 2.804,1.461 2.698,1.35 2.604,1.228 2.507,1.108 2.427,1.007 2.379,0.88 2.263,0.807 2.012,0.807 1.79,0.517 1.518,0.737 1.702,0.994 1.94,1.203 2.15,1.438 2.204,1.498 2.278,1.547 2.294,1.642 2.152,1.706 2.03,1.668 1.905,1.615 1.747,1.545 1.629,1.424 1.503,1.311 1.026,0.881 0.544,0.457 0.064,0.031 0.048,0.016 0.022,0.011 0,0"
     style="fill:#53b9a0;fill-opacity:1;fill-rule:evenodd;stroke:none;stroke-width:0.09198944"
     id="path1690"
     inkscape:connector-curvature="0" /></g><g
   id="g1692"
   transform="matrix(14.494417,0,0,-14.494417,194.92674,374.7159)"
   style="stroke-width:0.09198944"><path
     d="M 0,0 C 0.211,0.011 0.398,0.096 0.582,0.188 1.146,0.471 1.708,0.754 2.274,1.031 2.512,1.148 2.758,1.251 3.001,1.36 3.073,1.393 3.141,1.391 3.196,1.323 3.166,1.259 3.14,1.191 3.104,1.129 2.605,0.273 2.103,-0.582 1.603,-1.438 1.578,-1.477 1.547,-1.514 1.526,-1.544 1.427,-1.563 1.38,-1.499 1.329,-1.455 0.85,-1.064 0.432,-0.608 0.01,-0.16 -0.038,-0.109 -0.044,-0.056 0,0"
     style="fill:#f57e15;fill-opacity:1;fill-rule:evenodd;stroke:none;stroke-width:0.09198944"
     id="path1694"
     inkscape:connector-curvature="0" /></g><g
   id="g1696"
   transform="matrix(14.494417,0,0,-14.494417,175.67671,129.1877)"
   style="stroke-width:0.09198944"><path
     d="m 0,0 c -0.093,-0.188 -0.284,-0.259 -0.446,-0.361 -0.153,-0.096 -0.318,-0.182 -0.488,-0.243 -0.31,-0.112 -0.596,-0.27 -0.89,-0.416 -0.62,-0.307 -1.238,-0.618 -1.857,-0.928 -0.088,-0.043 -0.174,-0.088 -0.264,-0.128 -0.122,-0.055 -0.143,-0.044 -0.219,0.089 -0.017,0.031 -0.04,0.06 -0.06,0.09 -0.041,0.397 -0.085,0.794 -0.126,1.19 -0.011,0.103 0.03,0.167 0.131,0.181 0.191,0.028 0.383,0.05 0.576,0.073 0.443,0.055 0.886,0.108 1.331,0.165 0.467,0.06 0.933,0.128 1.401,0.188 0.155,0.021 0.314,0.026 0.47,0.039 0.066,0.047 0.153,0.005 0.22,0.05 C -0.146,-0.008 -0.074,-0.004 0,0"
     style="fill:#a1da85;fill-opacity:1;fill-rule:evenodd;stroke:none;stroke-width:0.09198944"
     id="path1698"
     inkscape:connector-curvature="0" /></g><g
   id="g1700"
   transform="matrix(14.494417,0,0,-14.494417,364.25777,305.19922)"
   style="stroke-width:0.09198944"><path
     d="m 0,0 c -0.019,0.044 -0.029,0.094 -0.057,0.128 -0.044,0.049 -0.112,0.048 -0.169,0.03 -0.08,-0.026 -0.155,-0.064 -0.23,-0.101 -0.302,-0.15 -0.604,-0.297 -0.903,-0.454 -0.133,-0.069 -0.267,-0.102 -0.416,-0.086 0.01,0.059 0.011,0.12 0.029,0.177 0.214,0.676 0.431,1.352 0.648,2.027 0.014,0.045 0.041,0.086 0.061,0.129 0.127,-0.014 0.234,0.041 0.34,0.095 0.266,0.134 0.535,0.263 0.799,0.402 C 0.233,2.417 0.37,2.446 0.516,2.429 0.507,2.162 0.424,1.908 0.371,1.649 0.27,1.155 0.166,0.66 0.06,0.166 0.049,0.109 0.02,0.056 0,0"
     style="fill:#f79710;fill-opacity:1;fill-rule:evenodd;stroke:none;stroke-width:0.09198944"
     id="path1702"
     inkscape:connector-curvature="0" /></g><g
   id="g1704"
   transform="matrix(14.494417,0,0,-14.494417,267.34518,214.72797)"
   style="stroke-width:0.09198944"><path
     d="m 0,0 c 0.052,0.089 0.124,0.158 0.205,0.22 0.002,0.026 0.016,0.038 0.041,0.039 0,0.018 0.008,0.026 0.024,0.026 0.004,0.026 0.019,0.042 0.045,0.048 0.03,0.038 0.056,0.079 0.089,0.113 0.74,0.756 1.481,1.51 2.222,2.263 C 2.65,2.735 2.683,2.754 2.712,2.776 3.07,2.939 3.422,3.12 3.784,3.278 3.916,3.335 4.092,3.452 4.186,3.208 L 4.185,3.207 C 4.166,3.178 4.14,3.155 4.121,3.126 L 4.122,3.128 C 4.091,3.104 4.065,3.077 4.054,3.038 3.578,2.431 3.1,1.822 2.623,1.217 2.586,1.169 2.541,1.129 2.5,1.086 2.482,1.058 2.462,1.034 2.439,1.012 V 1.013 C 1.813,0.708 1.193,0.387 0.566,0.086 0.393,0.004 0.214,-0.149 0,0"
     style="fill:#7bcb38;fill-opacity:1;fill-rule:evenodd;stroke:none;stroke-width:0.09198944"
     id="path1706"
     inkscape:connector-curvature="0" /></g><g
   id="g1708"
   transform="matrix(14.494417,0,0,-14.494417,369.18152,124.12047)"
   style="stroke-width:0.09198944"><path
     d="M 0,0 C 0.143,0.162 0.336,0.252 0.524,0.346 0.599,0.385 0.67,0.426 0.671,0.525 0.994,0.529 1.316,0.532 1.64,0.539 1.734,0.54 1.833,0.524 1.915,0.591 2.253,0.595 2.593,0.597 2.931,0.6 2.991,0.6 3.053,0.602 3.081,0.531 2.783,0.214 2.433,-0.007 1.991,-0.056 1.904,0.037 1.79,0.004 1.686,0.003 1.608,0.003 1.551,-0.053 1.515,-0.116 1.451,-0.232 1.398,-0.353 1.339,-0.472 1.285,-0.577 1.279,-0.707 1.191,-0.795 1.022,-0.794 0.851,-0.907 0.683,-0.787 0.795,-0.535 0.908,-0.281 1.023,-0.023 0.857,0.057 0.722,0.029 0.612,-0.087 0.539,-0.166 0.477,-0.258 0.421,-0.351 0.24,-0.652 0.064,-0.958 -0.115,-1.26 -0.157,-1.333 -0.188,-1.413 -0.262,-1.464 -0.537,-1.449 -0.764,-1.742 -1.06,-1.59 c 0.265,0.387 0.528,0.774 0.791,1.164 0.094,0.14 0.21,0.265 0.269,0.426"
     style="fill:#63c478;fill-opacity:1;fill-rule:evenodd;stroke:none;stroke-width:0.09198944"
     id="path1710"
     inkscape:connector-curvature="0" /></g><g
   id="g1712"
   transform="matrix(14.494417,0,0,-14.494417,267.34518,214.72797)"
   style="stroke-width:0.09198944"><path
     d="M 0,0 C 0.196,0.01 0.37,0.087 0.543,0.173 1.026,0.416 1.511,0.655 1.993,0.9 2.135,0.973 2.276,1.029 2.439,1.013 2.076,0.505 1.689,0.015 1.274,-0.451 1.234,-0.397 1.181,-0.368 1.117,-0.39 1.049,-0.415 0.983,-0.447 0.918,-0.479 0.7,-0.586 0.484,-0.7 0.266,-0.805 -0.205,-1.03 -0.678,-1.251 -1.148,-1.477 c -0.103,-0.049 -0.205,-0.075 -0.317,-0.056 0.151,0.218 0.355,0.39 0.536,0.581 C -0.625,-0.63 -0.311,-0.316 0,0"
     style="fill:#cdc415;fill-opacity:1;fill-rule:evenodd;stroke:none;stroke-width:0.09198944"
     id="path1714"
     inkscape:connector-curvature="0" /></g><g
   id="g1716"
   transform="matrix(14.494417,0,0,-14.494417,140.51905,276.42347)"
   style="stroke-width:0.09198944"><path
     d="M 0,0 C 0.09,0.033 0.184,0.06 0.27,0.102 1.607,0.756 2.942,1.41 4.276,2.066 4.483,2.169 4.687,2.275 4.925,2.268 4.724,2.028 4.47,1.844 4.235,1.638 3.976,1.408 3.726,1.162 3.439,0.964 2.466,0.563 1.563,0.014 0.591,-0.386 0.46,-0.441 0.341,-0.542 0.183,-0.497 0.106,-0.337 0.022,-0.18 0,0"
     style="fill:#bcc719;fill-opacity:1;fill-rule:evenodd;stroke:none;stroke-width:0.09198944"
     id="path1718"
     inkscape:connector-curvature="0" /></g><g
   id="g1720"
   transform="matrix(14.494417,0,0,-14.494417,312.36051,39.091859)"
   style="stroke-width:0.09198944"><path
     d="m 0,0 c 0.121,0.366 0.306,0.682 0.406,1.026 -0.137,0.087 -0.283,0 -0.413,0.086 -0.035,0.17 -0.015,0.352 -0.015,0.533 0,0.254 0.007,0.256 0.269,0.252 C 0.439,1.895 0.446,1.888 0.453,1.689 0.456,1.562 0.45,1.432 0.456,1.309 0.525,1.304 0.547,1.327 0.562,1.364 0.608,1.476 0.666,1.585 0.701,1.701 0.749,1.854 0.838,1.915 0.998,1.9 1.202,1.88 1.41,1.922 1.614,1.873 1.705,1.676 1.65,1.468 1.656,1.264 1.665,0.888 1.66,0.511 1.657,0.134 1.656,-0.007 1.626,-0.034 1.488,-0.044 1.44,-0.046 1.391,-0.045 1.342,-0.045 0.878,-0.042 0.94,-0.085 0.943,0.408 c 0,0.075 0.04,0.109 0.111,0.113 0.073,0.005 0.104,0.05 0.112,0.117 C 1.203,0.948 1.151,1.326 1.105,1.288 0.938,1.154 0.911,0.937 0.824,0.757 0.719,0.539 0.629,0.312 0.539,0.086 0.501,-0.004 0.441,-0.049 0.344,-0.044 0.237,-0.038 0.127,-0.065 0,0"
     style="fill:#274588;fill-opacity:1;fill-rule:evenodd;stroke:none;stroke-width:0.09198944"
     id="path1722"
     inkscape:connector-curvature="0" /></g><g
   id="g1724"
   transform="matrix(14.494417,0,0,-14.494417,398.0457,124.92056)"
   style="stroke-width:0.09198944"><path
     d="M 0,0 C 0.17,0.086 0.338,0.172 0.509,0.258 0.656,0.333 0.807,0.401 0.929,0.522 0.966,0.559 1.035,0.566 1.09,0.587 1.105,0.569 1.108,0.55 1.098,0.529 1.166,0.263 1.088,-0.011 1.142,-0.278 1.162,-0.578 1.166,-0.878 1.138,-1.177 1.11,-1.375 0.994,-1.431 0.813,-1.382 0.806,-1.067 0.799,-0.752 0.791,-0.436 0.79,-0.401 0.767,-0.367 0.722,-0.371 0.7,-0.374 0.671,-0.381 0.659,-0.397 0.629,-0.434 0.593,-0.475 0.585,-0.518 0.569,-0.625 0.559,-0.735 0.561,-0.843 0.563,-1.172 0.546,-1.499 0.513,-1.825 0.398,-1.888 0.274,-1.906 0.145,-1.904 c -0.032,0.323 0.071,0.641 0.046,0.99 -0.147,-0.354 -0.166,-0.717 -0.285,-1.054 -0.171,-0.135 -0.337,-0.288 -0.58,-0.146 0.038,0.139 0.071,0.281 0.116,0.419 C -0.374,-1.129 -0.187,-0.565 0,0"
     style="fill:#75c949;fill-opacity:1;fill-rule:evenodd;stroke:none;stroke-width:0.09198944"
     id="path1726"
     inkscape:connector-curvature="0" /></g><g
   id="g1728"
   transform="matrix(14.494417,0,0,-14.494417,115.18859,69.209805)"
   style="stroke-width:0.09198944"><path
     d="m 0,0 c 0,-0.303 0.001,-0.606 -0.001,-0.91 -0.002,-0.121 -0.032,-0.147 -0.148,-0.157 -0.012,0 -0.024,-0.001 -0.037,0 -0.285,0.028 -0.576,-0.061 -0.856,0.048 -0.06,0.263 -0.022,0.529 -0.027,0.793 -0.007,0.401 -0.003,0.8 10e-4,1.2 0,0.14 0.034,0.176 0.166,0.179 0.243,0.005 0.485,0.005 0.727,10e-4 C -0.034,1.151 -0.003,1.12 -0.001,0.982 0.001,0.655 0,0.327 0,0"
     style="fill:#284688;fill-opacity:1;fill-rule:evenodd;stroke:none;stroke-width:0.09198944"
     id="path1730"
     inkscape:connector-curvature="0" /></g><g
   id="g1732"
   transform="matrix(14.494417,0,0,-14.494417,143.16427,283.61414)"
   style="stroke-width:0.09198944"><path
     d="M 0,0 C 0.63,0.306 1.262,0.61 1.892,0.917 2.176,1.054 2.459,1.191 2.735,1.339 2.901,1.429 3.07,1.47 3.257,1.459 3.133,1.292 2.961,1.176 2.808,1.042 2.298,0.595 1.791,0.146 1.304,-0.325 1.095,-0.526 0.874,-0.715 0.637,-0.883 0.578,-0.925 0.525,-0.975 0.424,-0.983 0.265,-0.67 0.115,-0.342 0,0"
     style="fill:#e8bf0f;fill-opacity:1;fill-rule:evenodd;stroke:none;stroke-width:0.09198944"
     id="path1734"
     inkscape:connector-curvature="0" /></g><g
   id="g1736"
   transform="matrix(14.494417,0,0,-14.494417,87.98547,25.952677)"
   style="stroke-width:0.09198944"><path
     d="m 0,0 c 0,-0.267 0.001,-0.535 -0.001,-0.802 -0.002,-0.115 -0.034,-0.142 -0.156,-0.147 -0.037,-0.003 -0.074,-0.003 -0.109,-0.002 -0.184,0.003 -0.207,0.023 -0.209,0.212 -0.004,0.339 -0.002,0.68 -0.004,1.02 -0.001,0.087 -0.046,0.132 -0.133,0.135 -0.013,0.001 -0.025,0.003 -0.037,0.001 -0.596,-0.008 -0.506,0.086 -0.514,-0.485 -0.003,-0.255 0,-0.51 -0.005,-0.765 0,-0.069 -0.043,-0.111 -0.114,-0.114 -0.062,-0.002 -0.122,-0.004 -0.183,-0.004 -0.398,-0.004 -0.453,0.062 -0.382,0.467 0.007,0.03 0.033,0.078 0.056,0.082 0.173,0.03 0.153,0.159 0.153,0.279 10e-4,0.317 0,0.633 0.003,0.948 0.002,0.146 0.02,0.164 0.174,0.165 0.437,0.002 0.873,0.002 1.311,-0.001 0.121,0 0.147,-0.026 0.149,-0.152 C 0.001,0.559 0,0.28 0,0"
     style="fill:#274587;fill-opacity:1;fill-rule:evenodd;stroke:none;stroke-width:0.09198944"
     id="path1738"
     inkscape:connector-curvature="0" /></g><g
   id="g1740"
   transform="matrix(14.494417,0,0,-14.494417,263.38966,27.66157)"
   style="stroke-width:0.09198944"><path
     d="M 0,0 C 0.145,-0.244 0.262,-0.441 0.378,-0.637 0.397,-0.668 0.42,-0.698 0.428,-0.732 0.446,-0.79 0.42,-0.828 0.36,-0.829 c -0.485,-0.002 -0.972,-0.002 -1.458,-0.003 -0.085,0 -0.138,0.037 -0.142,0.127 -0.001,0.012 -0.001,0.024 -0.001,0.037 0.004,0.446 -0.055,0.397 0.375,0.401 0.129,0.001 0.26,0 0.379,0 0.045,0.092 -0.003,0.142 -0.031,0.189 -0.19,0.313 -0.384,0.622 -0.57,0.933 -0.044,0.071 -0.112,0.134 -0.09,0.233 0.034,0.007 0.068,0.02 0.102,0.02 0.484,-0.006 0.363,0.057 0.599,-0.324 0.116,-0.185 0.231,-0.371 0.349,-0.555 0.004,-0.005 0.019,-0.005 0.034,-0.008 0.067,0.035 0.034,0.104 0.039,0.157 0.006,0.06 0.002,0.121 0.002,0.183 0,0.109 -0.002,0.218 0.001,0.327 0.004,0.214 0.011,0.22 0.231,0.221 C 0.435,1.11 0.436,1.11 0.439,0.844 0.441,0.614 0.439,0.382 0.438,0.151 0.438,0.067 0.404,0.015 0.311,0.014 0.226,0.012 0.142,0.005 0,0"
     style="fill:#284688;fill-opacity:1;fill-rule:evenodd;stroke:none;stroke-width:0.09198944"
     id="path1742"
     inkscape:connector-curvature="0" /></g><g
   id="g1744"
   transform="matrix(14.494417,0,0,-14.494417,162.98248,21.540573)"
   style="stroke-width:0.09198944"><path
     d="m 0,0 c -0.117,0.207 -0.236,0.416 -0.356,0.627 0.184,0.055 0.36,0.071 0.46,0.055 C 0.172,0.67 0.205,0.623 0.237,0.57 0.344,0.394 0.45,0.217 0.559,0.044 0.622,-0.056 0.734,-0.045 0.779,0.064 0.801,0.119 0.81,0.18 0.814,0.239 0.82,0.348 0.817,0.458 0.82,0.567 0.821,0.638 0.859,0.679 0.93,0.683 1.015,0.686 1.099,0.685 1.184,0.683 1.252,0.682 1.3,0.649 1.301,0.576 1.304,0.37 1.301,0.162 1.305,-0.044 1.308,-0.154 1.237,-0.218 1.17,-0.289 0.869,-0.608 0.891,-0.501 1.11,-0.887 1.169,-0.99 1.226,-1.094 1.297,-1.219 1.123,-1.278 0.967,-1.256 0.814,-1.247 0.746,-1.241 0.715,-1.184 0.683,-1.132 0.576,-0.956 0.471,-0.779 0.361,-0.604 0.308,-0.52 0.256,-0.518 0.191,-0.584 0.128,-0.645 0.079,-0.709 0.085,-0.803 c 0.004,-0.074 10e-4,-0.146 0,-0.22 -0.006,-0.226 -0.017,-0.236 -0.256,-0.232 -0.205,0.003 -0.22,0.016 -0.226,0.232 -0.001,0.146 0.004,0.291 0,0.436 -0.004,0.118 0.034,0.211 0.121,0.291 C -0.179,-0.207 -0.067,-0.13 0,0"
     style="fill:#274588;fill-opacity:1;fill-rule:evenodd;stroke:none;stroke-width:0.09198944"
     id="path1746"
     inkscape:connector-curvature="0" /></g><g
   id="g1748"
   transform="matrix(14.494417,0,0,-14.494417,353.82322,147.17237)"
   style="stroke-width:0.09198944"><path
     d="M 0,0 C 0.21,0.014 0.394,0.105 0.58,0.191 0.671,0.233 0.743,0.213 0.797,0.127 0.502,-0.387 0.209,-0.902 -0.091,-1.413 -0.232,-1.652 -0.385,-1.884 -0.532,-2.12 -0.559,-2.143 -0.593,-2.163 -0.593,-2.207 l 0.007,0.003 c -0.275,-0.154 -0.557,-0.295 -0.845,-0.42 -0.117,-0.052 -0.27,-0.153 -0.346,0.067 0.008,0.021 0.013,0.046 0.027,0.065 C -1.168,-1.661 -0.584,-0.831 0,0"
     style="fill:#79ca3d;fill-opacity:1;fill-rule:evenodd;stroke:none;stroke-width:0.09198944"
     id="path1750"
     inkscape:connector-curvature="0" /></g><g
   id="g1752"
   transform="matrix(14.494417,0,0,-14.494417,328.02897,168.22553)"
   style="stroke-width:0.09198944"><path
     d="m 0,0 c -0.089,0.102 -0.192,0.074 -0.292,0.026 -0.205,-0.098 -0.404,-0.202 -0.608,-0.302 -0.182,-0.087 -0.363,-0.177 -0.576,-0.156 0.258,0.274 0.512,0.549 0.772,0.819 0.532,0.55 1.067,1.096 1.602,1.643 C 0.93,2.065 0.97,2.092 1.007,2.124 1.169,2.088 1.312,2.14 1.455,2.214 1.554,2.264 1.659,2.294 1.751,2.195 L 1.747,2.189 C 1.73,2.161 1.709,2.136 1.685,2.113 V 2.111 C 1.657,2.087 1.633,2.062 1.619,2.027 1.428,1.779 1.241,1.53 1.048,1.284 0.765,0.925 0.482,0.566 0.195,0.209 0.135,0.135 0.09,0.046 0,0"
     style="fill:#6ac665;fill-opacity:1;fill-rule:evenodd;stroke:none;stroke-width:0.09198944"
     id="path1754"
     inkscape:connector-curvature="0" /></g><g
   id="g1756"
   transform="matrix(14.494417,0,0,-14.494417,297.56315,21.763775)"
   style="stroke-width:0.09198944"><path
     d="m 0,0 c 0,-0.17 -0.004,-0.341 0.001,-0.511 0.004,-0.127 -0.03,-0.235 -0.11,-0.335 -0.379,-0.468 -0.201,-0.386 -0.771,-0.394 -0.206,-0.003 -0.413,0.002 -0.62,0.007 -0.07,0.001 -0.111,0.042 -0.114,0.113 -0.002,0.109 -10e-4,0.22 0,0.329 0,0.071 0.036,0.112 0.108,0.116 0.096,0.005 0.122,0.068 0.122,0.147 0.002,0.28 10e-4,0.559 0.002,0.84 0.002,0.097 0.002,0.194 0.007,0.291 0.004,0.053 0.04,0.086 0.094,0.093 0.036,0.005 0.073,0.005 0.109,0.005 0.28,0.006 0.28,0.006 0.283,-0.277 0.002,-0.328 0.001,-0.656 0.005,-0.985 0.001,-0.087 0.056,-0.124 0.146,-0.11 0.141,0.019 0.24,0.113 0.257,0.262 0.012,0.108 0.005,0.218 0.005,0.327 0.001,0.207 0,0.415 0.004,0.621 0.003,0.143 0.022,0.159 0.177,0.162 0.06,0.001 0.122,0 0.182,-0.003 0.075,-0.001 0.108,-0.046 0.109,-0.114 0.001,-0.195 0,-0.389 0,-0.584 z"
     style="fill:#274588;fill-opacity:1;fill-rule:evenodd;stroke:none;stroke-width:0.09198944"
     id="path1758"
     inkscape:connector-curvature="0" /></g><g
   id="g1760"
   transform="matrix(14.494417,0,0,-14.494417,304.81181,417.057)"
   style="stroke-width:0.09198944"><path
     d="M 0,0 C 0.147,-0.012 0.281,0.026 0.413,0.094 0.667,0.229 0.927,0.351 1.183,0.484 1.324,0.559 1.469,0.603 1.63,0.578 1.432,0.273 1.189,0.003 0.96,-0.278 0.524,-0.812 0.067,-1.327 -0.412,-1.822 c -0.049,-0.052 -0.091,-0.115 -0.169,-0.13 -0.03,-0.007 -0.049,0.003 -0.053,0.033 -0.004,0.023 -0.008,0.049 0,0.071 C -0.424,-1.232 -0.213,-0.617 0,0"
     style="fill:#c6bb40;fill-opacity:1;fill-rule:evenodd;stroke:none;stroke-width:0.09198944"
     id="path1762"
     inkscape:connector-curvature="0" /></g><g
   id="g1764"
   transform="matrix(14.494417,0,0,-14.494417,255.00899,386.28969)"
   style="stroke-width:0.09198944"><path
     d="m 0,0 c 0.029,-0.019 0.057,-0.049 0.089,-0.053 0.032,-0.003 0.068,0.019 0.101,0.034 0.645,0.31 1.291,0.618 1.935,0.93 0.24,0.117 0.477,0.24 0.731,0.325 C 2.819,1.003 2.701,0.798 2.615,0.584 2.32,0.479 2.034,0.356 1.755,0.216 1.206,-0.063 0.655,-0.336 0.105,-0.61 0.03,-0.647 -0.044,-0.69 -0.124,-0.716 -0.232,-0.75 -0.277,-0.682 -0.292,-0.586 -0.218,-0.379 -0.138,-0.175 0,0"
     style="fill:#db8339;fill-opacity:1;fill-rule:evenodd;stroke:none;stroke-width:0.09198944"
     id="path1766"
     inkscape:connector-curvature="0" /></g><g
   id="g1768"
   transform="matrix(14.494417,0,0,-14.494417,124.81288,25.672943)"
   style="stroke-width:0.09198944"><path
     d="m 0,0 c 0,-0.267 0.003,-0.533 0,-0.799 -0.003,-0.139 -0.031,-0.165 -0.175,-0.171 -0.024,-0.001 -0.047,-0.001 -0.072,-0.001 -0.254,-0.006 -0.247,0.049 -0.245,0.248 0.001,0.315 0.001,0.63 -0.002,0.945 C -0.495,0.381 -0.509,0.394 -0.656,0.397 -0.899,0.4 -1.14,0.398 -1.383,0.4 c -0.087,0 -0.138,0.043 -0.139,0.131 -0.002,0.493 -0.064,0.437 0.408,0.44 0.326,0.003 0.653,0 0.98,-0.001 C -0.046,0.97 0,0.926 0,0.836 Z"
     style="fill:#294688;fill-opacity:1;fill-rule:evenodd;stroke:none;stroke-width:0.09198944"
     id="path1770"
     inkscape:connector-curvature="0" /></g><g
   id="g1772"
   transform="matrix(14.494417,0,0,-14.494417,241.59151,26.001953)"
   style="stroke-width:0.09198944"><path
     d="m 0,0 c 0,-0.255 0.003,-0.51 0,-0.764 -0.003,-0.159 -0.029,-0.18 -0.199,-0.184 -0.036,0 -0.072,0 -0.108,0.001 -0.138,0.006 -0.164,0.03 -0.165,0.178 -0.004,0.339 0,0.679 -0.004,1.019 -0.001,0.141 -0.029,0.167 -0.172,0.17 -0.278,0.004 -0.558,0 -0.836,0.004 -0.116,0.002 -0.145,0.033 -0.15,0.154 -0.003,0.097 10e-4,0.194 10e-4,0.291 0,0.094 0.055,0.125 0.139,0.125 0.449,-0.001 0.898,0 1.347,-0.001 0.12,-0.001 0.143,-0.027 0.146,-0.155 0.002,-0.28 0,-0.558 0,-0.838 z"
     style="fill:#274588;fill-opacity:1;fill-rule:evenodd;stroke:none;stroke-width:0.09198944"
     id="path1774"
     inkscape:connector-curvature="0" /></g><g
   id="g1776"
   transform="matrix(14.494417,0,0,-14.494417,179.0278,115.66154)"
   style="stroke-width:0.09198944"><path
     d="m 0,0 c 0.071,-0.064 0.158,-0.049 0.241,-0.05 0.365,-0.003 0.727,-0.003 1.092,-0.006 0.095,0 0.193,-0.001 0.289,-0.007 C 1.659,-0.064 1.694,-0.085 1.7,-0.124 1.702,-0.143 1.687,-0.175 1.671,-0.184 1.451,-0.306 1.264,-0.492 0.994,-0.513 0.975,-0.514 0.958,-0.54 0.938,-0.557 0.181,-0.584 -0.576,-0.612 -1.333,-0.638 c -0.118,-0.004 -0.24,0.005 -0.36,0.009 0.038,0.184 0.198,0.156 0.317,0.157 0.268,0.004 0.485,0.112 0.712,0.307 -0.607,0.023 -1.18,0.005 -1.753,0.008 -0.311,-0.014 -0.621,-0.015 -0.93,-0.007 -0.141,0.004 -0.291,-0.007 -0.393,0.124 0.057,0.014 0.116,0.041 0.173,0.041 C -2.377,0.003 -1.189,0 0,0"
     style="fill:#a2db8c;fill-opacity:1;fill-rule:evenodd;stroke:none;stroke-width:0.09198944"
     id="path1778"
     inkscape:connector-curvature="0" /></g><g
   id="g1780"
   transform="matrix(14.494417,0,0,-14.494417,361.29511,25.41203)"
   style="stroke-width:0.09198944"><path
     d="m 0,0 v -0.835 c 0,-0.087 -0.042,-0.135 -0.132,-0.135 -0.073,0.002 -0.145,0.002 -0.217,0.002 -0.094,-0.002 -0.126,0.054 -0.126,0.137 -0.001,0.291 -0.001,0.581 -0.001,0.872 -0.001,0.072 -0.001,0.146 -0.003,0.218 -0.003,0.09 -0.056,0.128 -0.138,0.13 -0.158,0.004 -0.315,0.002 -0.472,0.004 -0.084,0 -0.17,-0.003 -0.255,0.001 -0.132,0.006 -0.158,0.037 -0.163,0.18 -0.003,0.049 -0.002,0.097 -0.002,0.146 0.003,0.236 0.003,0.239 0.243,0.242 0.351,0.001 0.703,-0.003 1.053,0.001 C 0,0.964 0,0.919 0.001,0.762 V 0 Z"
     style="fill:#264587;fill-opacity:1;fill-rule:evenodd;stroke:none;stroke-width:0.09198944"
     id="path1782"
     inkscape:connector-curvature="0" /></g><g
   id="g1784"
   transform="matrix(14.494417,0,0,-14.494417,328.0565,184.252)"
   style="stroke-width:0.09198944"><path
     d="M 0,0 C 0.067,-0.083 0.145,-0.07 0.228,-0.029 0.434,0.075 0.64,0.176 0.846,0.28 0.955,0.334 1.063,0.39 1.192,0.353 0.948,-0.124 0.677,-0.585 0.374,-1.027 c -0.036,0.054 -0.086,0.09 -0.149,0.068 -0.147,-0.05 -0.293,-0.102 -0.434,-0.166 -0.174,-0.079 -0.345,-0.165 -0.514,-0.257 -0.084,-0.045 -0.158,-0.034 -0.237,0.006 0.147,0.288 0.357,0.534 0.536,0.802 C -0.291,-0.378 -0.142,-0.191 0,0"
     style="fill:#d2c415;fill-opacity:1;fill-rule:evenodd;stroke:none;stroke-width:0.09198944"
     id="path1786"
     inkscape:connector-curvature="0" /></g><g
   id="g1788"
   transform="matrix(14.494417,0,0,-14.494417,206.60634,25.587412)"
   style="stroke-width:0.09198944"><path
     d="m 0,0 v -0.839 c 0,-0.069 -0.037,-0.112 -0.11,-0.116 -0.011,-0.001 -0.024,-0.003 -0.036,-0.003 -0.318,-0.017 -0.322,-0.015 -0.325,0.307 -0.001,0.306 -0.001,0.61 -0.002,0.914 0,0.088 -0.047,0.135 -0.133,0.137 -0.242,0.005 -0.487,0.001 -0.729,0.006 -0.134,0.003 -0.165,0.04 -0.171,0.179 -0.003,0.048 -10e-4,0.097 -10e-4,0.146 0.003,0.237 0.003,0.24 0.245,0.242 0.377,0.002 0.755,0 1.131,0 0.09,0 0.132,-0.044 0.132,-0.134 L 0.001,0 Z"
     style="fill:#264487;fill-opacity:1;fill-rule:evenodd;stroke:none;stroke-width:0.09198944"
     id="path1790"
     inkscape:connector-curvature="0" /></g><g
   id="g1792"
   transform="matrix(14.494417,0,0,-14.494417,379.08554,135.52033)"
   style="stroke-width:0.09198944"><path
     d="M 0,0 C 0.086,-0.004 0.166,0.023 0.247,0.052 0.342,0.087 0.438,0.089 0.507,-0.008 0.509,-0.031 0.503,-0.053 0.488,-0.072 0.454,-0.116 0.466,-0.179 0.432,-0.224 0.426,-0.247 0.42,-0.27 0.413,-0.295 0.381,-0.336 0.396,-0.397 0.359,-0.438 0.205,-0.911 0.025,-1.375 -0.176,-1.83 -0.195,-1.855 -0.21,-1.881 -0.221,-1.91 l 0.005,0.006 c -0.145,-0.176 -0.356,-0.242 -0.556,-0.312 -0.1,-0.036 -0.247,-0.101 -0.27,0.103 0.054,0.201 0.166,0.377 0.258,0.561 0.21,0.423 0.425,0.844 0.639,1.266 0.021,0.026 0.036,0.053 0.048,0.083 0,0.024 0.008,0.045 0.025,0.061 0.02,0.027 0.037,0.056 0.049,0.086 0,0.023 0.007,0.041 0.023,0.056"
     style="fill:#7bcb39;fill-opacity:1;fill-rule:evenodd;stroke:none;stroke-width:0.09198944"
     id="path1794"
     inkscape:connector-curvature="0" /></g><g
   id="g1796"
   transform="matrix(14.494417,0,0,-14.494417,153.29006,15.661634)"
   style="stroke-width:0.09198944"><path
     d="m 0,0 c 0,-0.06 0.003,-0.121 0,-0.181 -0.004,-0.052 -0.031,-0.099 -0.085,-0.103 -0.136,-0.011 -0.144,-0.101 -0.144,-0.204 0.001,-0.329 0.001,-0.658 -0.001,-0.985 -0.002,-0.157 -0.033,-0.186 -0.196,-0.188 -0.073,-0.002 -0.147,0.001 -0.218,0.015 -0.026,0.005 -0.06,0.045 -0.065,0.073 -0.011,0.071 -0.011,0.145 -0.011,0.217 -0.002,0.304 -0.002,0.609 -0.002,0.911 0,0.079 -0.015,0.146 -0.111,0.152 -0.095,0.007 -0.119,0.071 -0.12,0.15 -0.003,0.06 -0.003,0.121 -0.003,0.183 0.004,0.237 0.004,0.238 0.244,0.241 0.195,0.003 0.389,0 0.584,-0.001 0.087,0 0.132,-0.045 0.131,-0.134 L 0.003,0 Z"
     style="fill:#2a4789;fill-opacity:1;fill-rule:evenodd;stroke:none;stroke-width:0.09198944"
     id="path1798"
     inkscape:connector-curvature="0" /></g><g
   id="g1800"
   transform="matrix(14.494417,0,0,-14.494417,144.84419,116.6573)"
   style="stroke-width:0.09198944"><path
     d="m 0,0 c 0.619,0.003 1.237,0.005 1.855,0.005 0.019,0 0.046,-0.013 0.056,-0.03 C 1.934,-0.063 1.907,-0.095 1.88,-0.116 1.72,-0.247 1.525,-0.32 1.368,-0.458 1.296,-0.522 1.18,-0.483 1.084,-0.494 0.944,-0.51 0.792,-0.451 0.666,-0.561 c -0.913,-0.032 -1.825,-0.094 -2.741,-0.085 -0.086,0.001 -0.195,-0.044 -0.247,0.079 0.155,0.132 0.347,0.118 0.519,0.092 C -1.131,-0.573 -0.557,-0.323 0,0"
     style="fill:#95d454;fill-opacity:1;fill-rule:evenodd;stroke:none;stroke-width:0.09198944"
     id="path1802"
     inkscape:connector-curvature="0" /></g><g
   id="g1804"
   transform="matrix(14.494417,0,0,-14.494417,325.96351,351.41033)"
   style="stroke-width:0.09198944"><path
     d="M 0,0 C 0.016,-0.057 0.029,-0.123 0.115,-0.086 0.259,-0.026 0.406,0.03 0.547,0.098 0.949,0.292 1.349,0.492 1.749,0.69 1.867,0.75 1.983,0.82 2.125,0.802 2.143,0.647 2.08,0.506 2.038,0.363 1.964,0.301 1.916,0.214 1.818,0.179 1.237,-0.035 0.708,-0.359 0.149,-0.622 c -0.12,-0.056 -0.236,-0.125 -0.378,-0.106 0.011,0.047 0.02,0.098 0.03,0.146 0.018,0.028 0.03,0.057 0.041,0.087 C -0.136,-0.321 -0.09,-0.153 0,0"
     style="fill:#d9843b;fill-opacity:1;fill-rule:evenodd;stroke:none;stroke-width:0.09198944"
     id="path1806"
     inkscape:connector-curvature="0" /></g><g
   id="g1808"
   transform="matrix(14.494417,0,0,-14.494417,144.84419,116.6573)"
   style="stroke-width:0.09198944"><path
     d="m 0,0 c 0.004,-0.086 -0.055,-0.123 -0.121,-0.16 -0.2,-0.109 -0.419,-0.182 -0.587,-0.347 -0.074,-0.073 -0.181,-0.055 -0.277,-0.055 -0.444,-0.003 -0.89,-0.004 -1.337,-0.005 -0.013,0.177 -0.03,0.356 -0.043,0.529 0.05,0.079 0.128,0.06 0.195,0.061 0.263,0.004 0.525,0.004 0.788,0.006 0.277,-0.045 0.558,-0.011 0.836,-0.021 C -0.364,0.003 -0.181,0.003 0,0"
     style="fill:#84cb2b;fill-opacity:1;fill-rule:evenodd;stroke:none;stroke-width:0.09198944"
     id="path1810"
     inkscape:connector-curvature="0" /></g><g
   id="g1812"
   transform="matrix(14.494417,0,0,-14.494417,135.58513,25.587412)"
   style="stroke-width:0.09198944"><path
     d="m 0,0 v -0.836 c 0,-0.083 -0.035,-0.138 -0.127,-0.141 -0.024,-0.001 -0.048,-0.001 -0.072,-0.002 -0.27,-0.006 -0.285,0.008 -0.287,0.279 -0.002,0.449 -0.001,0.898 0,1.347 0,0.06 0.003,0.12 0.005,0.18 0.004,0.083 0.036,0.139 0.129,0.139 0.037,0 0.072,0.001 0.109,0.001 0.239,0 0.24,0 0.243,-0.24 C 0.003,0.484 0.001,0.243 0.001,0 Z"
     style="fill:#2d488b;fill-opacity:1;fill-rule:evenodd;stroke:none;stroke-width:0.09198944"
     id="path1814"
     inkscape:connector-curvature="0" /></g><g
   id="g1816"
   transform="matrix(14.494417,0,0,-14.494417,363.98672,166.14992)"
   style="stroke-width:0.09198944"><path
     d="M 0,0 C 0.063,-0.085 0.142,-0.082 0.225,-0.038 0.417,0.064 0.617,0.149 0.825,0.209 0.711,-0.192 0.554,-0.577 0.374,-0.953 0.361,-0.881 0.342,-0.801 0.244,-0.84 -0.03,-0.945 -0.301,-1.058 -0.573,-1.169 -0.413,-0.764 -0.221,-0.375 0,0"
     style="fill:#c7c61a;fill-opacity:1;fill-rule:evenodd;stroke:none;stroke-width:0.09198944"
     id="path1818"
     inkscape:connector-curvature="0" /></g><g
   id="g1820"
   transform="matrix(14.494417,0,0,-14.494417,308.15132,25.712063)"
   style="stroke-width:0.09198944"><path
     d="m 0,0 c 0,-0.266 0.003,-0.533 0,-0.801 -0.003,-0.14 -0.029,-0.162 -0.176,-0.165 -0.06,-0.001 -0.121,0 -0.181,0.003 -0.074,0.004 -0.104,0.053 -0.111,0.119 -0.004,0.037 -0.004,0.072 -0.004,0.109 0,0.498 -0.001,0.994 0.001,1.492 0.002,0.211 0.01,0.216 0.232,0.217 0.037,0 0.073,-0.003 0.109,-0.001 0.095,0.002 0.129,-0.051 0.129,-0.135 C 0,0.558 0,0.28 0,0"
     style="fill:#264587;fill-opacity:1;fill-rule:evenodd;stroke:none;stroke-width:0.09198944"
     id="path1822"
     inkscape:connector-curvature="0" /></g><g
   id="g1824"
   transform="matrix(14.494417,0,0,-14.494417,388.28516,155.5719)"
   style="stroke-width:0.09198944"><path
     d="M 0,0 C 0.112,-0.012 0.213,0.021 0.307,0.074 0.393,0.121 0.481,0.15 0.58,0.146 0.507,-0.251 0.436,-0.648 0.308,-1.033 0.228,-0.923 0.123,-0.943 0.02,-0.986 -0.1,-1.038 -0.211,-1.112 -0.351,-1.098 -0.265,-0.723 -0.146,-0.357 0,0"
     style="fill:#d4c418;fill-opacity:1;fill-rule:evenodd;stroke:none;stroke-width:0.09198944"
     id="path1826"
     inkscape:connector-curvature="0" /></g><g
   id="g1828"
   transform="matrix(14.494417,0,0,-14.494417,224.7635,32.981018)"
   style="stroke-width:0.09198944"><path
     d="m 0,0 v -0.145 c 0.005,-0.335 0,-0.331 -0.353,-0.317 -0.094,0.004 -0.12,0.064 -0.12,0.146 0,0.158 -0.006,0.315 0,0.473 0.004,0.093 -0.044,0.214 0.049,0.27 0.103,0.061 0.236,0.03 0.354,0.015 C -0.046,0.439 -0.012,0.391 -0.011,0.363 -0.004,0.243 -0.008,0.121 -0.008,0 Z"
     style="fill:#274588;fill-opacity:1;fill-rule:evenodd;stroke:none;stroke-width:0.09198944"
     id="path1830"
     inkscape:connector-curvature="0" /></g><g
   id="g1832"
   transform="matrix(14.494417,0,0,-14.494417,91.96999,17.1589)"
   style="stroke-width:0.09198944"><path
     d="M 0,0 V 0.108 C 0.003,0.39 0.003,0.39 0.274,0.386 0.464,0.383 0.48,0.37 0.486,0.185 0.49,0.09 0.488,-0.005 0.487,-0.102 0.484,-0.449 0.484,-0.449 0.153,-0.432 0.025,-0.427 0.005,-0.412 0.001,-0.288 -0.001,-0.192 0,-0.095 0,0"
     style="fill:#2f498b;fill-opacity:1;fill-rule:evenodd;stroke:none;stroke-width:0.09198944"
     id="path1834"
     inkscape:connector-curvature="0" /></g><g
   id="g1836"
   transform="matrix(14.494417,0,0,-14.494417,191.78869,33.944893)"
   style="stroke-width:0.09198944"><path
     d="m 0,0 v -0.072 c 0.001,-0.343 0.015,-0.319 -0.346,-0.314 -0.093,0.001 -0.125,0.057 -0.125,0.139 0,0.18 -0.001,0.36 0.002,0.542 10e-4,0.08 0.037,0.135 0.128,0.135 h 0.217 C -0.056,0.428 -0.01,0.394 -0.007,0.325 -0.001,0.217 -0.005,0.109 -0.005,0 Z"
     style="fill:#294588;fill-opacity:1;fill-rule:evenodd;stroke:none;stroke-width:0.09198944"
     id="path1838"
     inkscape:connector-curvature="0" /></g><g
   id="g1840"
   transform="matrix(14.494417,0,0,-14.494417,346.41949,33.868074)"
   style="stroke-width:0.09198944"><path
     d="m 0,0 v -0.108 c 0.003,-0.303 -0.007,-0.289 -0.307,-0.285 -0.143,0.003 -0.161,0.023 -0.165,0.171 -0.004,0.121 -0.003,0.241 -0.001,0.361 0.002,0.296 0.007,0.299 0.304,0.287 C -0.03,0.42 -0.008,0.398 -0.001,0.254 0.001,0.169 0,0.085 0,0"
     style="fill:#294588;fill-opacity:1;fill-rule:evenodd;stroke:none;stroke-width:0.09198944"
     id="path1842"
     inkscape:connector-curvature="0" /></g><g
   id="g1844"
   transform="matrix(14.494417,0,0,-14.494417,409.82241,144.95185)"
   style="stroke-width:0.09198944"><path
     d="M 0,0 C 0.11,0.065 0.261,0.068 0.326,0.205 0.331,0.001 0.342,-0.201 0.341,-0.404 0.341,-0.576 0.27,-0.666 0.158,-0.66 0.052,-0.656 -0.015,-0.566 -0.019,-0.393 -0.023,-0.262 -0.007,-0.131 0,0"
     style="fill:#c5c925;fill-opacity:1;fill-rule:evenodd;stroke:none;stroke-width:0.09198944"
     id="path1846"
     inkscape:connector-curvature="0" /></g><g
   id="g1848"
   transform="matrix(14.494417,0,0,-14.494417,414.60124,128.95581)"
   style="stroke-width:0.09198944"><path
     d="m 0,0 c -0.056,0.057 -0.05,0.131 -0.05,0.201 0.001,0.203 0.004,0.405 0.006,0.606 C 0.046,0.543 0.015,0.27 0,0"
     style="fill:#63c478;fill-opacity:1;fill-rule:evenodd;stroke:none;stroke-width:0.09198944"
     id="path1850"
     inkscape:connector-curvature="0" /></g><g
   id="g1852"
   transform="matrix(14.494417,0,0,-14.494417,363.16634,310.38532)"
   style="stroke-width:0.09198944"><path
     d="M 0,0 C -0.011,0.085 -0.026,0.17 0.057,0.233 0.064,0.149 0.06,0.068 0,0"
     style="fill:#f79710;fill-opacity:1;fill-rule:evenodd;stroke:none;stroke-width:0.09198944"
     id="path1854"
     inkscape:connector-curvature="0" /></g><g
   id="g1856"
   transform="matrix(14.494417,0,0,-14.494417,362.07635,315.54824)"
   style="stroke-width:0.09198944"><path
     d="M 0,0 C -0.008,0.08 -0.023,0.162 0.055,0.222 0.064,0.142 0.057,0.064 0,0"
     style="fill:#f79710;fill-opacity:1;fill-rule:evenodd;stroke:none;stroke-width:0.09198944"
     id="path1858"
     inkscape:connector-curvature="0" /></g><g
   id="g1860"
   transform="matrix(14.494417,0,0,-14.494417,172.48067,129.3515)"
   style="stroke-width:0.09198944"><path
     d="M 0,0 C -0.06,-0.072 -0.141,-0.063 -0.221,-0.05 -0.16,0.02 -0.08,0.015 0,0"
     style="fill:#a3ddba;fill-opacity:1;fill-rule:evenodd;stroke:none;stroke-width:0.09198944"
     id="path1862"
     inkscape:connector-curvature="0" /></g><g
   id="g1864"
   transform="matrix(14.494417,0,0,-14.494417,385.36163,138.76417)"
   style="stroke-width:0.09198944"><path
     d="M 0,0 C -0.012,0.061 0,0.115 0.056,0.151 0.064,0.091 0.05,0.038 0,0"
     style="fill:#63c478;fill-opacity:1;fill-rule:evenodd;stroke:none;stroke-width:0.09198944"
     id="path1866"
     inkscape:connector-curvature="0" /></g><g
   id="g1868"
   transform="matrix(14.494417,0,0,-14.494417,384.28904,141.86309)"
   style="stroke-width:0.09198944"><path
     d="M 0,0 C -0.011,0.059 0.001,0.109 0.055,0.143 0.063,0.085 0.048,0.037 0,0"
     style="fill:#63c478;fill-opacity:1;fill-rule:evenodd;stroke:none;stroke-width:0.09198944"
     id="path1870"
     inkscape:connector-curvature="0" /></g><g
   id="g1872"
   transform="matrix(14.494417,0,0,-14.494417,322.91244,299.72612)"
   style="stroke-width:0.09198944"><path
     d="M 0,0 C -0.008,0.063 0.003,0.12 0.063,0.155 0.068,0.093 0.052,0.04 0,0"
     style="fill:#fab90a;fill-opacity:1;fill-rule:evenodd;stroke:none;stroke-width:0.09198944"
     id="path1874"
     inkscape:connector-curvature="0" /></g><g
   id="g1876"
   transform="matrix(14.494417,0,0,-14.494417,215.91321,198.94354)"
   style="stroke-width:0.09198944"><path
     d="M 0,0 C 0.019,0.035 0.049,0.057 0.09,0.06 0.071,0.023 0.041,0.003 0,0"
     style="fill:#4eb3ac;fill-opacity:1;fill-rule:evenodd;stroke:none;stroke-width:0.09198944"
     id="path1878"
     inkscape:connector-curvature="0" /></g><g
   id="g1880"
   transform="matrix(14.494417,0,0,-14.494417,271.91237,209.91003)"
   style="stroke-width:0.09198944"><path
     d="M 0,0 C -0.01,-0.02 -0.026,-0.037 -0.045,-0.048 -0.03,-0.031 -0.015,-0.016 0,0"
     style="fill:#cdc415;fill-opacity:1;fill-rule:evenodd;stroke:none;stroke-width:0.09198944"
     id="path1882"
     inkscape:connector-curvature="0" /></g><g
   id="g1884"
   transform="matrix(14.494417,0,0,-14.494417,248.71551,211.35946)"
   style="stroke-width:0.09198944"><path
     d="M 0,0 C 0.019,0.018 0.038,0.037 0.059,0.055 0.053,0.021 0.034,0.001 0,0"
     style="fill:#6dc75a;fill-opacity:1;fill-rule:evenodd;stroke:none;stroke-width:0.09198944"
     id="path1886"
     inkscape:connector-curvature="0" /></g><g
   id="g1888"
   transform="matrix(14.494417,0,0,-14.494417,270.90791,210.96088)"
   style="stroke-width:0.09198944"><path
     d="M 0,0 C -0.008,-0.019 -0.022,-0.031 -0.041,-0.04 -0.038,-0.015 -0.025,-0.001 0,0"
     style="fill:#cdc415;fill-opacity:1;fill-rule:evenodd;stroke:none;stroke-width:0.09198944"
     id="path1890"
     inkscape:connector-curvature="0" /></g><g
   id="g1892"
   transform="matrix(14.494417,0,0,-14.494417,245.62529,214.03223)"
   style="stroke-width:0.09198944"><path
     d="M 0,0 C 0.012,0.046 0.042,0.072 0.09,0.079 0.074,0.037 0.045,0.01 0,0"
     style="fill:#6dc75a;fill-opacity:1;fill-rule:evenodd;stroke:none;stroke-width:0.09198944"
     id="path1894"
     inkscape:connector-curvature="0" /></g><g
   id="g1896"
   transform="matrix(14.494417,0,0,-14.494417,218.06561,197.64049)"
   style="stroke-width:0.09198944"><path
     d="M 0,0 C 0.022,0.018 0.044,0.035 0.065,0.053 0.056,0.02 0.035,0 0,0"
     style="fill:#4eb3ac;fill-opacity:1;fill-rule:evenodd;stroke:none;stroke-width:0.09198944"
     id="path1898"
     inkscape:connector-curvature="0" /></g><g
   id="g1900"
   transform="matrix(14.494417,0,0,-14.494417,219.07877,196.8288)"
   style="stroke-width:0.09198944"><path
     d="M 0,0 C 0.019,0.037 0.049,0.057 0.091,0.061 0.072,0.025 0.042,0.003 0,0"
     style="fill:#4eb3ac;fill-opacity:1;fill-rule:evenodd;stroke:none;stroke-width:0.09198944"
     id="path1902"
     inkscape:connector-curvature="0" /></g><g
   id="g1904"
   transform="matrix(14.494417,0,0,-14.494417,221.22106,195.52721)"
   style="stroke-width:0.09198944"><path
     d="M 0,0 C 0.023,0.018 0.045,0.036 0.067,0.055 0.057,0.022 0.037,0 0,0"
     style="fill:#4eb3ac;fill-opacity:1;fill-rule:evenodd;stroke:none;stroke-width:0.09198944"
     id="path1906"
     inkscape:connector-curvature="0" /></g><g
   id="g1908"
   transform="matrix(14.494417,0,0,-14.494417,222.24581,194.71552)"
   style="stroke-width:0.09198944"><path
     d="M 0,0 C 0.02,0.037 0.05,0.059 0.093,0.063 0.072,0.025 0.042,0.004 0,0"
     style="fill:#4eb3ac;fill-opacity:1;fill-rule:evenodd;stroke:none;stroke-width:0.09198944"
     id="path1910"
     inkscape:connector-curvature="0" /></g><g
   id="g1912"
   transform="matrix(14.494417,0,0,-14.494417,224.38808,193.42117)"
   style="stroke-width:0.09198944"><path
     d="M 0,0 C 0.023,0.018 0.046,0.037 0.068,0.055 0.057,0.022 0.037,0 0,0"
     style="fill:#4eb3ac;fill-opacity:1;fill-rule:evenodd;stroke:none;stroke-width:0.09198944"
     id="path1914"
     inkscape:connector-curvature="0" /></g><g
   id="g1916"
   transform="matrix(14.494417,0,0,-14.494417,225.41283,192.61094)"
   style="stroke-width:0.09198944"><path
     d="M 0,0 C 0.02,0.038 0.052,0.06 0.094,0.063 0.075,0.026 0.044,0.004 0,0"
     style="fill:#4eb3ac;fill-opacity:1;fill-rule:evenodd;stroke:none;stroke-width:0.09198944"
     id="path1918"
     inkscape:connector-curvature="0" /></g><g
   id="g1920"
   transform="matrix(14.494417,0,0,-14.494417,227.55513,191.31803)"
   style="stroke-width:0.09198944"><path
     d="M 0,0 0.07,0.056 C 0.059,0.023 0.037,0 0,0"
     style="fill:#4eb3ac;fill-opacity:1;fill-rule:evenodd;stroke:none;stroke-width:0.09198944"
     id="path1922"
     inkscape:connector-curvature="0" /></g><g
   id="g1924"
   transform="matrix(14.494417,0,0,-14.494417,285.71686,178.76733)"
   style="stroke-width:0.09198944"><path
     d="M 0,0 0.074,0.065 C 0.065,0.027 0.04,0.004 0,0"
     style="fill:#5fc37d;fill-opacity:1;fill-rule:evenodd;stroke:none;stroke-width:0.09198944"
     id="path1926"
     inkscape:connector-curvature="0" /></g><g
   id="g1928"
   transform="matrix(14.494417,0,0,-14.494417,345.23095,179.15432)"
   style="stroke-width:0.09198944"><path
     d="M 0,0 C 0,0.042 0.022,0.071 0.06,0.087 0.057,0.046 0.041,0.015 0,0"
     style="fill:#d2c415;fill-opacity:1;fill-rule:evenodd;stroke:none;stroke-width:0.09198944"
     id="path1930"
     inkscape:connector-curvature="0" /></g><g
   id="g1932"
   transform="matrix(14.494417,0,0,-14.494417,327.07088,169.42421)"
   style="stroke-width:0.09198944"><path
     d="M 0,0 C 0.005,0.04 0.027,0.065 0.064,0.081 0.061,0.038 0.041,0.011 0,0"
     style="fill:#6ac665;fill-opacity:1;fill-rule:evenodd;stroke:none;stroke-width:0.09198944"
     id="path1934"
     inkscape:connector-curvature="0" /></g><g
   id="g1936"
   transform="matrix(14.494417,0,0,-14.494417,297.51242,144.72862)"
   style="stroke-width:0.09198944"><path
     d="M 0,0 C 0.02,0.018 0.041,0.034 0.061,0.05 0.041,0.034 0.02,0.018 0,0"
     style="fill:#4ba8ca;fill-opacity:1;fill-rule:evenodd;stroke:none;stroke-width:0.09198944"
     id="path1938"
     inkscape:connector-curvature="0" /></g><g
   id="g1940"
   transform="matrix(14.494417,0,0,-14.494417,303.83778,140.5122)"
   style="stroke-width:0.09198944"><path
     d="M 0,0 C 0.022,0.018 0.044,0.035 0.065,0.053 0.044,0.035 0.022,0.018 0,0"
     style="fill:#4ba8ca;fill-opacity:1;fill-rule:evenodd;stroke:none;stroke-width:0.09198944"
     id="path1942"
     inkscape:connector-curvature="0" /></g><g
   id="g1944"
   transform="matrix(14.494417,0,0,-14.494417,377.67671,138.46558)"
   style="stroke-width:0.09198944"><path
     d="M 0,0 C 0.005,-0.04 -0.011,-0.067 -0.048,-0.083 -0.052,-0.044 -0.037,-0.015 0,0"
     style="fill:#63c478;fill-opacity:1;fill-rule:evenodd;stroke:none;stroke-width:0.09198944"
     id="path1946"
     inkscape:connector-curvature="0" /></g><g
   id="g1948"
   transform="matrix(14.494417,0,0,-14.494417,249.70984,210.45212)"
   style="stroke-width:0.09198944"><path
     d="M 0,0 C 0.023,0.02 0.046,0.042 0.07,0.063 0.063,0.025 0.041,0.001 0,0"
     style="fill:#6dc75a;fill-opacity:1;fill-rule:evenodd;stroke:none;stroke-width:0.09198944"
     id="path1950"
     inkscape:connector-curvature="0" /></g><g
   id="g1952"
   transform="matrix(14.494417,0,0,-14.494417,302.68691,200.05383)"
   style="stroke-width:0.09198944"><path
     d="M 0,0 C 0.02,0.025 0.041,0.049 0.061,0.074 0.057,0.034 0.035,0.011 0,0"
     style="fill:#cdc415;fill-opacity:1;fill-rule:evenodd;stroke:none;stroke-width:0.09198944"
     id="path1954"
     inkscape:connector-curvature="0" /></g><g
   id="g1956"
   transform="matrix(14.494417,0,0,-14.494417,351.49687,138.85114)"
   style="stroke-width:0.09198944"><path
     d="M 0,0 C 0.004,0.042 0.027,0.07 0.065,0.085 0.06,0.045 0.037,0.016 0,0"
     style="fill:#53b9a0;fill-opacity:1;fill-rule:evenodd;stroke:none;stroke-width:0.09198944"
     id="path1958"
     inkscape:connector-curvature="0" /></g><g
   id="g1960"
   transform="matrix(14.494417,0,0,-14.494417,212.74616,201.05829)"
   style="stroke-width:0.09198944"><path
     d="M 0,0 C 0.029,0.02 0.059,0.04 0.089,0.06 0.07,0.023 0.041,0.003 0,0"
     style="fill:#4eb3ac;fill-opacity:1;fill-rule:evenodd;stroke:none;stroke-width:0.09198944"
     id="path1962"
     inkscape:connector-curvature="0" /></g><g
   id="g1964"
   transform="matrix(14.494417,0,0,-14.494417,307.00337,138.38586)"
   style="stroke-width:0.09198944"><path
     d="M 0,0 C 0.022,0.018 0.044,0.035 0.065,0.053 0.044,0.035 0.022,0.018 0,0"
     style="fill:#4ba8ca;fill-opacity:1;fill-rule:evenodd;stroke:none;stroke-width:0.09198944"
     id="path1966"
     inkscape:connector-curvature="0" /></g><g
   id="g1968"
   transform="matrix(14.494417,0,0,-14.494417,259.28485,324.83482)"
   style="stroke-width:0.09198944"><path
     d="M 0,0 C 0.015,0.019 0.03,0.04 0.046,0.059 0.048,0.027 0.03,0.008 0,0"
     style="fill:#fab90a;fill-opacity:1;fill-rule:evenodd;stroke:none;stroke-width:0.09198944"
     id="path1970"
     inkscape:connector-curvature="0" /></g><g
   id="g1972"
   transform="matrix(14.494417,0,0,-14.494417,300.67076,142.61534)"
   style="stroke-width:0.09198944"><path
     d="M 0,0 C 0.022,0.018 0.042,0.034 0.063,0.052 0.042,0.034 0.022,0.018 0,0"
     style="fill:#4ba8ca;fill-opacity:1;fill-rule:evenodd;stroke:none;stroke-width:0.09198944"
     id="path1974"
     inkscape:connector-curvature="0" /></g><g
   id="g1976"
   transform="matrix(14.494417,0,0,-14.494417,378.75797,136.32332)"
   style="stroke-width:0.09198944"><path
     d="M 0,0 C 0.005,-0.041 -0.012,-0.07 -0.049,-0.086 -0.053,-0.046 -0.038,-0.016 0,0"
     style="fill:#63c478;fill-opacity:1;fill-rule:evenodd;stroke:none;stroke-width:0.09198944"
     id="path1978"
     inkscape:connector-curvature="0" /></g><g
   id="g1980"
   transform="matrix(14.494417,0,0,-14.494417,308.12234,337.95517)"
   style="stroke-width:0.09198944"><path
     d="M 0,0 C -0.003,0.04 0.011,0.07 0.045,0.09 0.049,0.05 0.035,0.02 0,0"
     style="fill:#f78e12;fill-opacity:1;fill-rule:evenodd;stroke:none;stroke-width:0.09198944"
     id="path1982"
     inkscape:connector-curvature="0" /></g><g
   id="g1984"
   transform="matrix(14.494417,0,0,-14.494417,352.45063,137.60606)"
   style="stroke-width:0.09198944"><path
     d="M 0,0 C 0.02,0.026 0.042,0.052 0.063,0.076 0.06,0.035 0.038,0.011 0,0"
     style="fill:#53b9a0;fill-opacity:1;fill-rule:evenodd;stroke:none;stroke-width:0.09198944"
     id="path1986"
     inkscape:connector-curvature="0" /></g><g
   id="g1988"
   transform="matrix(14.494417,0,0,-14.494417,284.64427,179.7515)"
   style="stroke-width:0.09198944"><path
     d="M 0,0 C 0.023,0.022 0.045,0.042 0.068,0.063 0.061,0.025 0.04,0.003 0,0"
     style="fill:#5fc37d;fill-opacity:1;fill-rule:evenodd;stroke:none;stroke-width:0.09198944"
     id="path1990"
     inkscape:connector-curvature="0" /></g><g
   id="g1992"
   transform="matrix(14.494417,0,0,-14.494417,294.33813,146.85495)"
   style="stroke-width:0.09198944"><path
     d="M 0,0 C 0.022,0.016 0.042,0.033 0.063,0.05 0.042,0.033 0.02,0.016 0,0"
     style="fill:#4ba8ca;fill-opacity:1;fill-rule:evenodd;stroke:none;stroke-width:0.09198944"
     id="path1994"
     inkscape:connector-curvature="0" /></g><g
   id="g1996"
   transform="matrix(14.494417,0,0,-14.494417,310.16025,136.27258)"
   style="stroke-width:0.09198944"><path
     d="M 0,0 0.065,0.055 Z"
     style="fill:#4ba8ca;fill-opacity:1;fill-rule:evenodd;stroke:none;stroke-width:0.09198944"
     id="path1998"
     inkscape:connector-curvature="0" /></g><g
   id="g2000"
   transform="matrix(14.494417,0,0,-14.494417,375.88084,163.20612)"
   style="stroke-width:0.09198944"><path
     d="M 0,0 C -0.001,0.035 0.012,0.063 0.045,0.08 0.049,0.042 0.035,0.015 0,0"
     style="fill:#c7c61a;fill-opacity:1;fill-rule:evenodd;stroke:none;stroke-width:0.09198944"
     id="path2002"
     inkscape:connector-curvature="0" /></g><g
   id="g2004"
   transform="matrix(14.494417,0,0,-14.494417,313.32583,134.1593)"
   style="stroke-width:0.09198944"><path
     d="M 0,0 C 0.023,0.019 0.045,0.037 0.067,0.056 0.045,0.037 0.023,0.019 0,0"
     style="fill:#4ba8ca;fill-opacity:1;fill-rule:evenodd;stroke:none;stroke-width:0.09198944"
     id="path2006"
     inkscape:connector-curvature="0" /></g><g
   id="g2008"
   transform="matrix(14.494417,0,0,-14.494417,214.89859,199.75669)"
   style="stroke-width:0.09198944"><path
     d="M 0,0 C 0.022,0.018 0.042,0.034 0.064,0.052 0.055,0.021 0.035,0 0,0"
     style="fill:#4eb3ac;fill-opacity:1;fill-rule:evenodd;stroke:none;stroke-width:0.09198944"
     id="path2010"
     inkscape:connector-curvature="0" /></g><g
   id="g2012"
   transform="matrix(14.494417,0,0,-14.494417,323.66615,358.59376)"
   style="stroke-width:0.09198944"><path
     d="M 0,0 C 0.007,-0.038 -0.007,-0.067 -0.04,-0.086 -0.046,-0.048 -0.034,-0.019 0,0"
     style="fill:#bf935b;fill-opacity:1;fill-rule:evenodd;stroke:none;stroke-width:0.09198944"
     id="path2014"
     inkscape:connector-curvature="0" /></g><g
   id="g2016"
   transform="matrix(14.494417,0,0,-14.494417,332.34251,201.03943)"
   style="stroke-width:0.09198944"><path
     d="M 0,0 C 0.015,0.02 0.03,0.041 0.046,0.06 0.048,0.029 0.03,0.01 0,0"
     style="fill:#d2c415;fill-opacity:1;fill-rule:evenodd;stroke:none;stroke-width:0.09198944"
     id="path2018"
     inkscape:connector-curvature="0" /></g><g
   id="g2020"
   transform="matrix(14.494417,0,0,-14.494417,250.78242,209.47518)"
   style="stroke-width:0.09198944"><path
     d="M 0,0 C 0.026,0.022 0.05,0.045 0.075,0.067 0.065,0.027 0.041,0.004 0,0"
     style="fill:#6dc75a;fill-opacity:1;fill-rule:evenodd;stroke:none;stroke-width:0.09198944"
     id="path2022"
     inkscape:connector-curvature="0" /></g><g
   id="g2024"
   transform="matrix(14.494417,0,0,-14.494417,256.03374,384.11697)"
   style="stroke-width:0.09198944"><path
     d="M 0,0 C 0.005,-0.04 -0.011,-0.065 -0.046,-0.08 -0.053,-0.041 -0.035,-0.016 0,0"
     style="fill:#db8339;fill-opacity:1;fill-rule:evenodd;stroke:none;stroke-width:0.09198944"
     id="path2026"
     inkscape:connector-curvature="0" /></g><g
   id="g2028"
   transform="matrix(14.494417,0,0,-14.494417,326.10701,170.69682)"
   style="stroke-width:0.09198944"><path
     d="M 0,0 C 0.003,0.045 0.027,0.074 0.068,0.09 0.064,0.046 0.041,0.016 0,0"
     style="fill:#6ac665;fill-opacity:1;fill-rule:evenodd;stroke:none;stroke-width:0.09198944"
     id="path2030"
     inkscape:connector-curvature="0" /></g><g
   id="g2032"
   transform="matrix(14.494417,0,0,-14.494417,283.67026,180.65015)"
   style="stroke-width:0.09198944"><path
     d="M 0,0 C 0.019,0.018 0.037,0.035 0.056,0.053 0.052,0.02 0.033,0.001 0,0"
     style="fill:#5fc37d;fill-opacity:1;fill-rule:evenodd;stroke:none;stroke-width:0.09198944"
     id="path2034"
     inkscape:connector-curvature="0" /></g><g
   id="g2036"
   transform="matrix(14.494417,0,0,-14.494417,288.01569,151.07137)"
   style="stroke-width:0.09198944"><path
     d="M 0,0 C 0.019,0.016 0.04,0.033 0.059,0.049 0.04,0.031 0.019,0.016 0,0"
     style="fill:#4ba8ca;fill-opacity:1;fill-rule:evenodd;stroke:none;stroke-width:0.09198944"
     id="path2038"
     inkscape:connector-curvature="0" /></g><g
   id="g2040"
   transform="matrix(14.494417,0,0,-14.494417,318.60615,149.99155)"
   style="stroke-width:0.09198944"><path
     d="M 0,0 C 0.019,0.019 0.038,0.037 0.057,0.056 0.052,0.023 0.034,0.003 0,0"
     style="fill:#53b9a0;fill-opacity:1;fill-rule:evenodd;stroke:none;stroke-width:0.09198944"
     id="path2042"
     inkscape:connector-curvature="0" /></g><g
   id="g2044"
   transform="matrix(14.494417,0,0,-14.494417,319.58163,149.07405)"
   style="stroke-width:0.09198944"><path
     d="M 0,0 C 0.023,0.022 0.046,0.042 0.068,0.064 0.06,0.027 0.038,0.004 0,0"
     style="fill:#53b9a0;fill-opacity:1;fill-rule:evenodd;stroke:none;stroke-width:0.09198944"
     id="path2046"
     inkscape:connector-curvature="0" /></g><g
   id="g2048"
   transform="matrix(14.494417,0,0,-14.494417,211.7417,201.86997)"
   style="stroke-width:0.09198944"><path
     d="M 0,0 C 0.02,0.018 0.041,0.034 0.061,0.052 0.053,0.021 0.034,0 0,0"
     style="fill:#4eb3ac;fill-opacity:1;fill-rule:evenodd;stroke:none;stroke-width:0.09198944"
     id="path2050"
     inkscape:connector-curvature="0" /></g><g
   id="g2052"
   transform="matrix(14.494417,0,0,-14.494417,291.1798,148.9668)"
   style="stroke-width:0.09198944"><path
     d="M 0,0 0.06,0.05 Z"
     style="fill:#4ba8ca;fill-opacity:1;fill-rule:evenodd;stroke:none;stroke-width:0.09198944"
     id="path2054"
     inkscape:connector-curvature="0" /></g><g
   id="g2056"
   transform="matrix(14.494417,0,0,-14.494417,62.421679,89.897683)"
   style="stroke-width:0.09198944"><path
     d="m 0,0 c -0.315,0 -0.632,-0.001 -0.947,0 -0.086,0 -0.133,0.048 -0.133,0.135 0,0.461 0,0.922 0.001,1.383 0,0.072 0.045,0.108 0.113,0.116 0.037,0.004 0.073,0.007 0.109,0.007 H 0.854 C 0.891,1.641 0.928,1.637 0.963,1.633 1.018,1.625 1.046,1.59 1.056,1.537 1.06,1.513 1.063,1.49 1.063,1.465 1.063,1.028 1.065,0.592 1.061,0.154 1.06,0.034 1.026,0.001 0.91,0 0.607,-0.003 0.303,0 0,0"
     style="fill:#fdfdfe;fill-opacity:1;fill-rule:evenodd;stroke:none;stroke-width:0.09198944"
     id="path2058"
     inkscape:connector-curvature="0" /></g></svg>