<?xml version="1.0" encoding="utf-8"?>
<!-- Generator: Adobe Illustrator 15.1.0, SVG Export Plug-In . SVG Version: 6.00 Build 0)  -->
<!DOCTYPE svg PUBLIC "-//W3C//DTD SVG 1.1//EN" "http://www.w3.org/Graphics/SVG/1.1/DTD/svg11.dtd">
<svg version="1.1" id="Layer_1" xmlns="http://www.w3.org/2000/svg" xmlns:xlink="http://www.w3.org/1999/xlink" x="0px" y="0px"
	 width="598px" height="856px" viewBox="0 0 598 856" enable-background="new 0 0 598 856" xml:space="preserve">
<linearGradient id="SVGID_1_" gradientUnits="userSpaceOnUse" x1="258.9995" y1="0" x2="258.9995" y2="659.3345">
	<stop  offset="0" style="stop-color:#BAD982"/>
	<stop  offset="1" style="stop-color:#8ED8F8"/>
</linearGradient>
<polygon fill="url(#SVGID_1_)" points="0,468.089 0,0 518,0 518,234.417 512.5,541.125 505.333,659.334 473,655.334 
	454.333,607.167 398.75,585.5 "/>
<rect x="483.167" y="473.62" transform="matrix(0.7567 0.6538 -0.6538 0.7567 440.249 -196.9117)" fill="#231F20" width="2.999" height="38.759"/>
<g>
	<path fill="#009D54" d="M518,234.417l-5.5,306.708L492,551.5V290.333L487,293c0,0-4.334,35-25.667,55.667s-53,31.333-61.333,36
		s-14.667,9.667-14.667,9.667S399.333,375,404,357s10.999-40.667,30.333-51.667s41.666-17.333,48-25s8-12,8-12l-1-26.333l-16-7.583
		H518z"/>
	<path fill="#231F20" d="M490.5,553.94V292.833l-2.117,1.129c-0.786,5.435-6.051,36.45-26.006,55.782
		c-16.654,16.134-39.289,26.136-52.812,32.112c-3.905,1.726-6.99,3.089-8.831,4.12c-8.136,4.556-14.408,9.486-14.471,9.535
		l-8.477,6.691l6.332-8.748c0.139-0.191,13.89-19.32,18.43-36.831c4.23-16.317,10.624-40.977,31.043-52.594
		c8.129-4.625,16.83-8.452,24.508-11.83c10.523-4.629,19.611-8.626,23.078-12.822c5.202-6.296,7.181-10.299,7.645-11.325
		l-0.953-25.087l-21.202-10.049h52.861l-5.544,309.139L490.5,553.94z M493.5,287.833V549.06l17.517-8.865l5.456-304.277H480
		l10.798,5.117l1.046,27.55l-0.11,0.287c-0.072,0.187-1.828,4.651-8.244,12.417c-3.92,4.744-13.31,8.875-24.183,13.657
		c-7.611,3.348-16.238,7.143-24.231,11.691c-19.317,10.99-25.52,34.911-29.623,50.739c-3.024,11.663-9.781,23.704-14.347,30.988
		c2.31-1.538,5.095-3.289,8.162-5.006c1.964-1.101,5.106-2.489,9.084-4.247c13.341-5.895,35.669-15.761,51.938-31.522
		c20.714-20.066,25.18-54.429,25.223-54.774l0.096-0.773L493.5,287.833z"/>
</g>
<rect x="504.465" y="486.334" transform="matrix(0.521 0.8536 -0.8536 0.521 665.2305 -209.7516)" fill="#231F20" width="30.071" height="3"/>
<rect x="473.5" y="363.325" transform="matrix(0.664 0.7477 -0.7477 0.664 447.5686 -225.7559)" fill="#231F20" width="3" height="43.682"/>
<polygon fill="#DAE79F" points="432.333,597.501 454.333,607.167 437.5,622.834 "/>
<polygon fill="#C6DE8F" points="411.668,589.334 432.333,597.501 437.667,622.167 425.5,647.167 "/>
<polygon fill="#AFD57E" points="424.668,709.334 391.001,584.334 400.668,584.668 411.668,589.334 435.668,693.668 "/>
<polyline fill="#9ECE6F" points="412.668,720.001 373.75,584 391.001,584.334 424.335,708.001 "/>
<polygon fill="#88C761" points="260.25,582 108.334,654.667 76.334,651.334 51.001,667.334 77.668,729.334 105.001,726.667 
	141.001,762 143.001,794.667 217.001,815.334 236.334,798.667 297.668,800.667 316.334,817.334 391.668,799.334 388.334,770 
	413.5,723 373.75,584 359.5,579.75 "/>
<polygon fill="#905B42" points="37.75,492 96.125,463.5 38.25,463.5 "/>
<polygon fill="#936042" points="36.75,509.5 135.75,464 97,462.75 37.75,492 "/>
<polygon fill="#956741" points="135.25,464 36.75,509.5 36.75,528.75 175,467 173.25,463.5 "/>
<polygon fill="#996C41" points="175,467 36.75,528.75 37,544.75 187.25,483.75 "/>
<polygon fill="#9D7242" points="79.75,550.75 38.25,550.75 38.25,543 186,483.75 195.75,495.25 "/>
<polygon fill="#A37E41" points="75.75,585.75 72.5,573.25 76.5,569 204.25,510.25 214,525 "/>
<polygon fill="#A07842" points="70,573.25 66.5,558.921 70.444,554.474 196.25,494.5 206.75,509.5 "/>
<path fill="#A78240" d="M104,654.5L88.75,653c0,0-14.5-26-15.25-44.75s2.25-22.5,2.25-22.5L214,525l40.5,55.5l-1,5L104,654.5z"/>
<polygon fill="#F04E28" points="231.5,533.5 320.5,512.25 398.75,540 398.75,585.5 361.25,585.5 358.25,582 260.25,582 "/>
<polygon fill="#FDF8C1" points="147.125,457 105,457 105,427.125 125.75,418.875 146,431.125 "/>
<rect x="67.75" y="365.5" fill="#FCEE29" width="36" height="90.25"/>
<g>
	<polygon fill="#231F20" points="493,0 493,39 461.5,39 461.5,0 443.75,0 443.75,39 431.75,39 431.75,57 513.75,57 513.75,0 	"/>
	<polygon fill="#231F20" points="258.688,0 258.688,10.5 298.125,10.5 298.125,57 316.375,57 316.375,0 	"/>
	<polygon fill="#231F20" points="409.021,149.135 409.021,169 477.333,169 477.333,224.135 517.667,224.135 517.667,149.135 	"/>
	<rect x="190.125" fill="#231F20" width="22.25" height="28.5"/>
	<rect x="365.375" fill="#231F20" width="22.25" height="28.5"/>
	<rect x="409.042" y="179.815" fill="#231F20" width="34.625" height="44.167"/>
	<polygon fill="#231F20" points="69.5,0 69.5,39 54.625,39 54.625,57 89.75,57 89.75,10.5 121.125,10.5 121.125,57 139.375,57 
		139.375,0 	"/>
	<polygon fill="#231F20" points="402,88.5 402,68 514,68 514,136.25 454.75,136.25 454.75,114.75 474.5,114.75 474.5,90.5 
		445.75,90.5 445.75,137 410,137 410,94.25 	"/>
	<polygon fill="#231F20" points="130,171.283 130,149 242,149 242,223.185 182.75,223.185 182.75,199.815 202.5,199.815 
		202.5,173.457 173.75,173.457 173.75,224 138,224 138,177.533 	"/>
	<polygon fill="#231F20" points="273.5,137.25 308.207,137.25 318.25,121.5 327.5,121.5 338.813,137.25 382.25,137.25 349.5,68.5 
		274.25,68.5 274.25,93.5 316.25,93.5 323.5,106 288.25,106 	"/>
	<polygon fill="#231F20" points="243.5,68.25 130.75,68.25 130.75,90.25 188.75,90.25 188.75,137.25 230.5,137.25 230.5,90.25 
		243.5,90.25 	"/>
	<polygon fill="#231F20" points="43.5,93.25 0,93.25 0,23 42.5,23 42.5,69.25 105.75,69.25 66.5,137.5 20,137.5 	"/>
	<polygon fill="#231F20" points="334.111,149.333 329.333,163.667 337.667,172.667 328.667,199.333 320,199.333 320,149.333 
		270.333,149.333 270.333,170.333 282.333,170.333 282.333,199.667 272.333,199.667 272.333,224.333 361.667,224.333 
		382.333,149.333 	"/>
	<polygon fill="#231F20" points="60.667,171.667 0,171.667 0,150 109,150 86.333,222 49.333,222 	"/>
	<path fill="#231F20" d="M464.25,648.5c0,0-14,23.25-37,54s-66.749,54.499-66.749,54.499l11.5,29.334l-40.834,16l-13.333-31.334
		c0,0-20.167,7.834-43,7.834c-37.5,0-59.5-9.834-59.5-9.834l-11.5,28.834l-34.667-13.167L181,755.667c0,0-25.333-13-44.833-32.666
		s-26.833-32.833-26.833-32.833l-27.667,11.833l-17.333-34L91.5,653.335c0,0-15.167-28-15.167-59s4.167-45.668,4.167-45.668h-41
		V180.5H0V589h36.884c1.066,17.339,8.366,39.25,8.366,39.25L6.75,638c0,0,1.5,25,22.75,67.25s39.25,57.5,39.25,57.5l34-22.25
		l26.75,26.25l-23,33.25c0,0,22.5,20.25,69.75,38s67,15.25,67,15.25L245,820.5l44-3l6.5,33.5c0,0,28.75,1.5,71.5-12.75
		s63.25-33,63.25-33L411.75,770l27-23.25L465,772c0,0,11.5-7.75,25.75-28.25c21.75-28,24.25-80.25,24.25-80.25L464.25,648.5z"/>
</g>
<rect x="77.25" y="375.25" fill="#231F20" width="18.75" height="16"/>
<path fill="#231F20" d="M319.667,499.333l-93.384,25.266l-45.616-70.265h-25.292V434l9,3.875V423l-36.625-18.75L112,413.109v-56.774
	H61.667v97.999H36.333L37,464.668h135.333l78.333,117h12.667l-30.043-46.277l87.044-20.724L397,541.333v-16L319.667,499.333z
	 M103,414.509L83.875,427.5l4,8.375l7.875-5.125v23.584H69v-87.333h34V414.509z M144.5,454.334h-38.125v-25.959l19.375-8.25
	l18.75,11.625V454.334z"/>
<polygon fill="#B1482D" points="251.25,581.625 262.25,581.625 262.25,587.375 108.667,666.998 101.667,654.332 251.375,584.125 "/>
<polygon fill="#B1482D" points="150,710.999 273.333,583.999 278.667,587.999 166.333,721.665 "/>
<polygon fill="#B1482D" points="284.333,585.999 289,587.332 223.667,754.332 204,746.665 "/>
<polygon fill="#B1482D" points="292,585.332 299.333,587.332 301.667,756.999 281.333,759.665 "/>
<polygon fill="#B1482D" points="318.667,587.332 327.333,587.332 361.667,738.665 345,743.999 "/>
<polygon fill="#B1482D" points="356.666,581.999 392.333,719.665 408.333,711.332 360.333,581.332 "/>
<g>
	<path fill="#009D54" d="M406.25,691c0,0,5.75-2.25,12-19.5s10.25-42,20.75-52.75s32-18,45-30.25s16.75-30,16.75-30
		s0.5,8,0.25,18.25s-8.75,43-12.75,52.5S478,664.25,459,677.5S406.25,691,406.25,691z"/>
	<path fill="#231F20" d="M398.146,692.561l7.529-2.946c0.234-0.115,5.448-2.851,11.164-18.625
		c1.826-5.042,3.435-10.646,5.138-16.579c4.072-14.188,8.283-28.859,15.949-36.708c5.376-5.504,13.346-9.998,21.783-14.756
		c8.291-4.676,16.864-9.51,23.262-15.538c12.488-11.769,16.274-29.046,16.311-29.219l2.28-10.733l0.685,10.95
		c0.005,0.081,0.501,8.184,0.253,18.38c-0.257,10.497-8.91,43.647-12.867,53.046c-0.661,1.57-1.396,3.615-2.245,5.984
		c-4.246,11.831-11.353,31.632-27.529,42.914c-19.162,13.362-52.2,13.759-53.598,13.77L398.146,692.561z M499.543,567.315
		c-2.488,6.372-6.974,15.17-14.515,22.276c-6.662,6.278-15.397,11.204-23.845,15.968c-8.246,4.649-16.034,9.042-21.11,14.238
		c-7.138,7.308-11.242,21.609-15.212,35.439c-1.718,5.984-3.34,11.636-5.201,16.773c-3.419,9.438-6.724,14.561-9.136,17.313
		c9.613-0.572,33.175-2.982,47.617-13.055c15.394-10.734,22.297-29.973,26.422-41.467c0.865-2.409,1.611-4.49,2.304-6.135
		c3.887-9.23,12.384-41.708,12.633-51.954C499.585,573.257,499.582,570.045,499.543,567.315z"/>
</g>
<path fill="#231F20" d="M420.265,691.104l-2.029-2.209c1.737-1.597,2.983-4.552,4.188-7.408c0.725-1.721,1.409-3.345,2.213-4.724
	c1.74-2.989,3.359-6.191,4.926-9.288c2.069-4.093,4.21-8.325,6.692-12.207c0.367-0.574,0.729-1.112,1.079-1.633
	c1.059-1.574,1.973-2.934,2.629-4.712c1.111-3.015,2.197-5.625,3.227-7.758c2.483-5.147,6.086-10.596,9.264-15.403l0.959-1.45
	c0.565-0.859,1.118-1.726,1.671-2.59c2.431-3.808,4.945-7.744,8.515-10.955c4.124-3.71,9.435-6.622,14.086-8.982
	c7.436-3.773,12.808-9.535,16.908-18.131c0.373-0.783,0.611-1.573,0.863-2.409c0.254-0.843,0.517-1.714,0.933-2.62l2.727,1.25
	c-0.329,0.72-0.552,1.456-0.787,2.236c-0.273,0.907-0.556,1.845-1.028,2.834c-4.399,9.226-10.201,15.427-18.258,19.516
	c-4.476,2.271-9.572,5.062-13.438,8.537c-3.267,2.938-5.562,6.533-7.992,10.339c-0.56,0.877-1.12,1.755-1.694,2.626l-0.961,1.454
	c-3.126,4.729-6.669,10.088-9.065,15.053c-0.987,2.047-2.035,4.567-3.113,7.491c-0.78,2.116-1.836,3.687-2.953,5.349
	c-0.339,0.503-0.688,1.021-1.042,1.576c-2.401,3.754-4.507,7.917-6.543,11.943c-1.586,3.136-3.226,6.378-5.011,9.444
	c-0.705,1.212-1.354,2.75-2.04,4.379C423.858,685.806,422.483,689.066,420.265,691.104z"/>
<path fill="#231F20" d="M438.977,654.765l-2.953-0.529c0.391-2.181,0.905-4.389,1.403-6.525c1.085-4.648,2.206-9.455,2.074-14.168
	l2.998-0.084c0.144,5.101-1.022,10.1-2.15,14.934C439.859,650.49,439.353,652.66,438.977,654.765z"/>
<path fill="#231F20" d="M437.165,660.248l-2.83-0.996c1.285-3.649,6.668-6.08,10.994-8.033c1.073-0.484,2.001-0.903,2.703-1.272
	c3.571-1.877,7.276-3.416,10.104-4.547c1.698-0.679,3.562-1.27,5.364-1.841c3.601-1.142,7.323-2.321,10.141-4.288l1.717,2.459
	c-3.191,2.229-7.137,3.479-10.951,4.688c-1.831,0.581-3.562,1.129-5.157,1.767c-2.761,1.104-6.372,2.604-9.822,4.418
	c-0.782,0.41-1.747,0.846-2.864,1.351C443.163,655.488,438.023,657.81,437.165,660.248z"/>
<path fill="#231F20" d="M427.053,678.518l-1.605-2.535c1.055-0.667,1.979-1.466,2.959-2.312c1.349-1.165,2.742-2.369,4.544-3.267
	c2.335-1.163,5.099-2.528,7.891-3.831c4.287-2.002,7.976-3.399,11.275-4.273l0.768,2.9c-3.125,0.827-6.649,2.166-10.774,4.092
	c-2.762,1.288-5.503,2.643-7.821,3.798c-1.464,0.729-2.657,1.76-3.921,2.852C429.348,676.821,428.294,677.731,427.053,678.518z"/>
<g>
	<path fill="#009D54" d="M508.25,606c0,0,3.25,7.75-3.25,19.75s-35.25,36.25-38,57.5s0.25,47.75,0.25,47.75s20-1.5,33-17
		s17.5-28,17.5-39.5s-3.75-25.75-4.5-34.25s-1.25-13-2-20.5S508.25,606,508.25,606z"/>
	<path fill="#231F20" d="M465.922,732.604l-0.162-1.435c-0.03-0.267-2.989-26.926-0.247-48.111
		c1.894-14.633,15.406-30.261,26.264-42.817c5.271-6.095,9.821-11.358,11.904-15.205c5.201-9.601,3.868-16.216,3.322-18.045
		c-0.101-0.305-0.161-0.473-0.164-0.482l2.794-1.088c0,0,0.099,0.228,0.231,0.668c0.522,1.582,2.24,7.137,2.878,13.513
		c0.196,1.96,0.375,3.714,0.546,5.389c0.483,4.744,0.901,8.841,1.456,15.129c0.278,3.149,0.996,7.215,1.756,11.52
		c1.289,7.303,2.75,15.579,2.75,22.862c0,13.086-5.672,25.943-17.851,40.464c-13.254,15.803-33.195,17.469-34.037,17.532
		L465.922,732.604z M509.586,618.402c-0.646,2.422-1.678,5.127-3.267,8.062c-2.239,4.133-6.889,9.511-12.273,15.737
		c-10.595,12.253-23.78,27.503-25.559,41.24c-2.323,17.955-0.473,39.991,0.099,45.884c4.742-0.696,20.075-3.843,30.515-16.29
		c11.7-13.95,17.149-26.195,17.149-38.536c0-7.021-1.437-15.159-2.704-22.341c-0.772-4.37-1.501-8.498-1.79-11.777
		c-0.553-6.268-0.97-10.355-1.452-15.089c-0.171-1.676-0.351-3.433-0.546-5.394C509.707,619.395,509.649,618.895,509.586,618.402z"
		/>
</g>
<path fill="#231F20" d="M469.918,730.99l-2.836-0.98c3.579-10.35,10.414-18.992,17.023-27.35
	c7.284-9.212,14.165-17.913,17.22-28.804c1.424-5.078,2.147-10.519,2.848-15.78c0.371-2.79,0.754-5.674,1.237-8.457
	c1.059-6.103,1.075-12.621,1.09-18.373l3,0.008c-0.015,5.871-0.031,12.525-1.135,18.879c-0.472,2.724-0.852,5.578-1.219,8.339
	c-0.714,5.364-1.451,10.912-2.933,16.195c-3.217,11.469-10.607,20.815-17.756,29.854C480.004,712.683,473.33,721.122,469.918,730.99
	z"/>
<path fill="#231F20" d="M491,719.25h-3l0.002-3.398c0.001-2.264,0.003-4.527-0.002-6.792c-0.002-1.17,0.183-2.479,0.361-3.744
	c0.29-2.054,0.619-4.381,0.022-5.695l2.732-1.24c0.957,2.109,0.58,4.776,0.216,7.355c-0.172,1.215-0.334,2.362-0.332,3.318
	c0.005,2.267,0.003,4.533,0.002,6.8L491,719.25z"/>
<path fill="#231F20" d="M468.75,689.25v-3c1.762,0,3.365-0.268,5.063-0.551c1.033-0.172,2.103-0.351,3.221-0.467
	c2.501-0.261,5.05-0.42,7.516-0.573c0.849-0.053,1.696-0.105,2.545-0.163c1.741-0.116,3.397-0.596,5.152-1.104
	c1.64-0.475,3.336-0.966,5.111-1.135l0.283,2.986c-1.494,0.143-2.983,0.573-4.561,1.03c-1.83,0.53-3.722,1.078-5.785,1.217
	c-0.854,0.057-1.706,0.11-2.56,0.163c-2.435,0.151-4.952,0.309-7.392,0.563c-1.026,0.106-2.004,0.27-3.038,0.441
	C472.562,688.949,470.76,689.25,468.75,689.25z"/>
<path fill="#231F20" d="M505.471,702.296l-2.941-0.592c0.56-2.783,0.438-5.955,0.32-9.023c-0.049-1.271-0.1-2.587-0.1-3.85
	c0-2.634-0.074-5.336-0.146-7.948c-0.104-3.75-0.211-7.628-0.103-11.426l2.998,0.086c-0.105,3.713,0,7.548,0.103,11.257
	c0.073,2.633,0.148,5.355,0.148,8.031c0,1.205,0.047,2.434,0.097,3.734C505.972,695.809,506.101,699.162,505.471,702.296z"/>
<path fill="#231F20" d="M530.787,583.549c-0.227-0.311-5.558-7.75-7.927-20.27c-0.806-4.254-1.734-8.729-2.84-13.682
	c-0.401-1.799-0.812-3.595-1.231-5.388c-0.057-0.242-0.104-0.486-0.15-0.731c-0.09-0.468-0.174-0.91-0.33-1.245
	c-0.185-0.398-0.48-0.803-0.795-1.229c-0.252-0.344-0.502-0.688-0.723-1.047c-0.644-1.049-1.194-2.132-1.728-3.179
	c-0.473-0.926-0.918-1.8-1.422-2.653c-1.18-1.996-2.797-5.016-3.212-8.18l2.975-0.391c0.344,2.619,1.774,5.274,2.82,7.044
	c0.552,0.935,1.04,1.893,1.512,2.818c0.53,1.041,1.031,2.024,1.612,2.973c0.178,0.289,0.381,0.562,0.583,0.838
	c0.369,0.503,0.789,1.073,1.1,1.745c0.311,0.67,0.439,1.347,0.554,1.943c0.039,0.204,0.077,0.408,0.125,0.609
	c0.423,1.804,0.835,3.609,1.238,5.419c1.113,4.983,2.049,9.49,2.859,13.776c2.236,11.816,7.355,18.994,7.406,19.065L530.787,583.549
	z"/>
<g>
	<path fill="#009D54" d="M531.667,581.333c0,0,22.333,18.334,31.333,33.334S576.334,658,573.334,678s-10,56.333-10,56.333
		S557.667,717,550.667,700s-30-34.999-27-58.333s7.667-45.334,7.667-50.334S531.667,581.333,531.667,581.333z"/>
	<path fill="#231F20" d="M563.71,740.31l-1.802-5.511c-0.057-0.173-5.731-17.478-12.628-34.228
		c-2.306-5.6-6.444-11.376-10.826-17.492c-8.593-11.995-18.334-25.591-16.274-41.604c1.556-12.104,3.535-23.711,5.127-33.038
		c1.412-8.279,2.527-14.818,2.527-17.104c0-4.992,0.333-10.049,0.336-10.1l0.194-2.91l2.255,1.851
		c0.92,0.755,22.638,18.672,31.667,33.722c9.053,15.088,13.679,43.344,10.531,64.327c-2.971,19.802-9.94,56.03-10.011,56.395
		L563.71,740.31z M533.004,584.432c-0.084,1.873-0.17,4.396-0.17,6.901c0,2.54-1.078,8.861-2.57,17.609
		c-1.587,9.3-3.561,20.874-5.109,32.916c-1.908,14.842,7.063,27.364,15.739,39.474c4.485,6.262,8.723,12.176,11.16,18.097
		c4.59,11.146,8.64,22.532,10.874,29.019c2.079-10.99,6.664-35.61,8.923-50.67c3.007-20.046-1.54-48.012-10.137-62.339
		C554.635,603.64,538.9,589.516,533.004,584.432z"/>
</g>
<path fill="#231F20" d="M561.508,727.482c-0.04-0.399-4.087-40.316-12.302-75.475c-8.221-35.188-15.884-57.968-15.96-58.194
	l2.842-0.961c0.077,0.228,7.786,23.146,16.04,58.474c8.26,35.352,12.324,75.457,12.364,75.857L561.508,727.482z"/>
<path fill="#231F20" d="M533.5,661.352l-3-0.019c0-0.172,0.053-4.264,4.67-9.946c4.496-5.533,11.554-8.932,11.853-9.074l1.29,2.708
	c-0.067,0.032-6.754,3.261-10.814,8.259C533.626,658.045,533.501,661.319,533.5,661.352z"/>
<path fill="#231F20" d="M572.962,671.939c-0.063-0.144-6.392-14.454-11.984-26.299c-5.464-11.573-18.833-23.396-18.968-23.514
	l1.979-2.254c0.568,0.498,13.968,12.345,19.701,24.486c5.609,11.88,11.952,26.224,12.016,26.367L572.962,671.939z"/>
<path fill="#231F20" d="M569.374,689.761c-0.032-0.056-3.316-5.612-7.179-10.117c-3.9-4.551-8.836-9.168-8.885-9.214l2.047-2.193
	c0.207,0.193,5.107,4.779,9.115,9.454c4.04,4.713,7.349,10.313,7.487,10.549L569.374,689.761z"/>
<g>
	
		<ellipse transform="matrix(0.737 0.6758 -0.6758 0.737 495.741 -233.1561)" fill="#006B44" cx="547.5" cy="520.5" rx="33.25" ry="25.375"/>
	<path fill="#231F20" d="M555.381,551.237c-8.977,0-18.47-3.983-26.044-10.929c-14.123-12.95-17.465-32.372-7.449-43.294
		c4.288-4.677,10.585-7.252,17.731-7.252c8.977,0,18.47,3.983,26.044,10.929c14.123,12.95,17.465,32.372,7.449,43.294
		C568.824,548.662,562.527,551.237,555.381,551.237z M539.619,492.763c-6.296,0-11.808,2.23-15.521,6.279
		c-8.897,9.703-5.638,27.223,7.266,39.056c7.027,6.443,15.781,10.14,24.017,10.14c6.296,0,11.808-2.23,15.521-6.279
		c8.897-9.703,5.638-27.223-7.266-39.056C556.608,496.459,547.854,492.763,539.619,492.763z"/>
</g>
<g>
	
		<ellipse transform="matrix(-0.3232 0.9463 -0.9463 -0.3232 1107.9716 271.4641)" fill="#006B44" cx="456.917" cy="531.917" rx="33.25" ry="25.375"/>
	<path fill="#231F20" d="M452.591,565.941c-2.368,0-4.692-0.384-6.907-1.14c-6.866-2.346-12.111-8.014-14.769-15.959
		c-2.609-7.803-2.407-16.898,0.568-25.612c5.096-14.918,17.333-25.338,29.759-25.338c2.368,0,4.692,0.384,6.907,1.14
		c6.866,2.346,12.111,8.014,14.769,15.959c2.609,7.803,2.407,16.898-0.568,25.612C477.254,555.521,465.017,565.941,452.591,565.941z
		 M461.242,500.893c-11.162,0-22.232,9.585-26.919,23.308c-2.766,8.096-2.966,16.509-0.563,23.69
		c2.354,7.038,6.933,12.036,12.894,14.071c1.902,0.65,3.899,0.979,5.938,0.979c11.162,0,22.232-9.585,26.919-23.308
		c2.766-8.096,2.966-16.509,0.563-23.69c-2.354-7.038-6.933-12.036-12.894-14.071C465.277,501.222,463.28,500.893,461.242,500.893z"
		/>
</g>
<path fill="#231F20" d="M527.75,486c0,0,6,9.25,15.75,13.25s24.5-1.5,24.5-1.5s-5-5.5-12.5-8.5S527.75,486,527.75,486z"/>
<path fill="#231F20" d="M475.265,501.694c0,0-10.963-1.17-20.213,3.881c-9.249,5.051-14.272,19.97-14.272,19.97
	s7.422-0.417,14.477-4.351C462.312,517.261,475.265,501.694,475.265,501.694z"/>
<path fill="#231F20" d="M484.784,508.818c0,0-5.289,9.674-4.178,20.154c1.113,10.479,12.96,20.846,12.96,20.846
	s2.465-7.014,1.541-15.037C494.185,526.756,484.784,508.818,484.784,508.818z"/>
<g>
	<path fill="#009D54" d="M509.5,610.5c0,0-7-13-6.5-29.5s12.5-42.5,12.5-42.5s-2,14.5-3.5,29.5S509.5,610.5,509.5,610.5z"/>
	<path fill="#231F20" d="M510.798,616.075l-2.618-4.864c-0.294-0.545-7.186-13.546-6.679-30.257
		c0.503-16.614,12.142-42.01,12.637-43.083l4.226-9.155l-1.377,9.989c-0.021,0.145-2.014,14.646-3.494,29.444
		c-1.478,14.781-2.483,42.131-2.493,42.405L510.798,616.075z M512.576,549.443c-3.455,8.979-7.786,22.022-8.077,31.603
		c-0.28,9.269,1.898,17.47,3.774,22.715c0.396-9.136,1.199-25.563,2.234-35.91C511.168,561.241,511.932,554.691,512.576,549.443z"/>
</g>
<g>
	<path fill="#009D54" d="M395.001,546.333c0,0-12.001-25,0.333-53.333s25.001-49,40.334-57s25-13,25-13s-4.666,11.333-5,21
		s3.666,26.333,3.666,26.333s-9.333,13.668-11.333,21.334S444.668,507,444.668,507s-6,7.667-22.667,18.667
		S395.001,546.333,395.001,546.333z"/>
	<path fill="#231F20" d="M394.533,548.824l-0.885-1.842c-0.502-1.046-12.154-25.948,0.311-54.581
		c14.152-32.511,26.802-50.315,41.015-57.731c15.336-8.001,25.005-13.002,25.005-13.002l3.632-1.878l-1.556,3.781
		c-0.045,0.111-4.567,11.205-4.888,20.481c-0.323,9.355,3.586,25.767,3.626,25.932l0.155,0.646l-0.375,0.549
		c-0.093,0.135-9.21,13.542-11.121,20.867c-1.96,7.514-3.293,15.135-3.307,15.211l-0.064,0.371l-0.231,0.297
		c-0.252,0.32-6.343,7.986-23.022,18.994c-16.372,10.805-26.699,20.414-26.802,20.51L394.533,548.824z M457.917,426.115
		c-4.093,2.123-11.639,6.042-21.555,11.215c-13.563,7.076-25.793,24.431-39.653,56.269c-10.019,23.016-3.532,43.96-1.137,50.204
		c3.536-3.114,12.745-10.901,25.603-19.388c14.482-9.559,20.853-16.62,22.086-18.068c0.303-1.677,1.554-8.406,3.289-15.059
		c1.835-7.033,9.381-18.57,11.174-21.251c-0.742-3.215-3.858-17.3-3.555-26.089C454.394,437.44,456.479,430.318,457.917,426.115z"/>
</g>
<path fill="#231F20" d="M399.834,534.031c-0.09-4.321,1.419-8.638,2.878-12.812c0.754-2.157,1.466-4.195,1.919-6.127
	c1.425-6.078,3.728-11.771,7.468-18.459c1.424-2.545,2.988-5.449,4.645-8.524c6.034-11.202,13.543-25.143,20.459-33.093l2.264,1.969
	c-6.697,7.698-14.118,21.476-20.081,32.547c-1.662,3.085-3.232,6-4.667,8.566c-3.598,6.433-5.809,11.885-7.167,17.68
	c-0.489,2.086-1.227,4.196-2.007,6.431c-1.371,3.924-2.789,7.98-2.71,11.761L399.834,534.031z"/>
<path fill="#231F20" d="M423.09,481.5c-0.034,0-0.067,0-0.102,0l0.024-3c0.026,0,0.054,0,0.08,0c2.818,0,6.868-1.195,10.444-2.251
	c1.417-0.418,2.755-0.812,3.938-1.11c1.516-0.38,2.865-1.012,4.295-1.68c1.3-0.607,2.644-1.236,4.138-1.673
	c1.267-0.371,2.729-0.633,4.142-0.886c2.417-0.432,4.916-0.879,6.504-1.848l1.562,2.561c-2.068,1.262-4.849,1.76-7.538,2.24
	c-1.396,0.25-2.716,0.486-3.828,0.812c-1.273,0.373-2.456,0.926-3.709,1.512c-1.494,0.698-3.04,1.421-4.835,1.872
	c-1.122,0.282-2.432,0.668-3.818,1.077C430.615,480.24,426.345,481.5,423.09,481.5z"/>
<rect x="421.501" y="461.333" fill="#231F20" width="3" height="18.334"/>
<path fill="#231F20" d="M412.715,502.221c-0.604,0-1.208-0.018-1.812-0.057l0.195-2.994c3.29,0.215,6.621-0.273,10.147-0.788
	c2.964-0.434,6.028-0.882,9.098-0.882c0.781,0,1.678-0.046,2.627-0.095c3.132-0.159,6.681-0.341,9.071,0.939l-1.416,2.645
	c-1.654-0.886-4.896-0.721-7.502-0.588c-0.989,0.051-1.923,0.099-2.78,0.099c-2.851,0-5.806,0.433-8.664,0.851
	C418.744,501.779,415.726,502.221,412.715,502.221z"/>
<path fill="#231F20" d="M415.501,495h-3c0-3.258,0.261-6.228,0.512-9.099c0.252-2.872,0.489-5.585,0.488-8.566l3-0.002
	c0.002,3.113-0.253,6.02-0.499,8.83C415.756,488.971,415.501,491.874,415.501,495z"/>
<g>
	
		<ellipse transform="matrix(-0.3232 0.9463 -0.9463 -0.3232 996.2699 136.0139)" fill="#006B44" cx="449.5" cy="424.25" rx="33.25" ry="25.375"/>
	<path fill="#231F20" d="M445.174,458.274c-2.368,0-4.692-0.384-6.907-1.14c-6.866-2.346-12.111-8.014-14.769-15.959
		c-2.609-7.803-2.407-16.898,0.568-25.612c5.096-14.919,17.333-25.338,29.759-25.338c2.368,0,4.692,0.384,6.907,1.14
		c6.866,2.345,12.111,8.013,14.769,15.959c2.609,7.802,2.407,16.897-0.568,25.612C469.837,447.854,457.6,458.274,445.174,458.274z
		 M453.825,393.226c-11.162,0-22.232,9.584-26.919,23.308c-2.766,8.095-2.966,16.508-0.563,23.69
		c2.354,7.038,6.933,12.036,12.894,14.071c1.902,0.65,3.899,0.979,5.938,0.979c11.162,0,22.232-9.585,26.919-23.308
		c2.766-8.095,2.966-16.509,0.563-23.691c-2.354-7.038-6.933-12.035-12.894-14.071C457.86,393.555,455.863,393.226,453.825,393.226z
		"/>
</g>
<path fill="#231F20" d="M460.035,392.996c0,0-9.74-5.166-20.206-3.92c-10.464,1.246-20.679,13.224-20.679,13.224
	s7.044,2.375,15.056,1.349C442.219,402.624,460.035,392.996,460.035,392.996z"/>
<g>
	<path fill="#009D54" d="M528.334,350.333c0,0-9.334,48.333,1.666,72.667s39.666,48.667,48,56.667S594.667,501,594.667,501
		s-2.001-16.999-3.667-41.666S586,421,577,405s-28.666-31.333-37.666-40S528.334,350.333,528.334,350.333z"/>
	<path fill="#231F20" d="M596.938,507.462l-3.543-5.667c-0.083-0.132-8.334-13.271-16.435-21.046
		c-1.072-1.029-2.482-2.33-4.149-3.867c-11.19-10.321-34.476-31.799-44.179-53.264c-11.068-24.486-2.156-71.576-1.771-73.569
		l1.085-5.621l1.811,5.431c0.018,0.051,2.062,5.821,10.617,14.06c1.952,1.88,4.379,4.047,7.188,6.557
		c9.957,8.895,23.595,21.078,30.745,33.789c8.901,15.826,12.482,29.696,14.189,54.968c1.644,24.349,3.64,41.423,3.659,41.592
		L596.938,507.462z M529.062,355.013c-1.948,12.397-6.457,47.985,2.306,67.37c9.451,20.909,32.434,42.107,43.479,52.294
		c1.685,1.554,3.109,2.868,4.193,3.908c5.161,4.954,10.25,11.807,13.476,16.463c-0.731-7.088-1.945-19.832-3.012-35.612
		c-1.693-25.076-5.049-38.125-13.811-53.7c-6.905-12.276-20.328-24.267-30.129-33.022c-2.832-2.53-5.277-4.714-7.27-6.633
		C533.586,361.548,530.733,357.708,529.062,355.013z"/>
</g>
<path fill="#231F20" d="M587.169,486.751c-0.146-2.584-2.052-5.572-3.734-8.208c-0.601-0.941-1.168-1.831-1.664-2.703
	c-2.779-4.884-5.037-9.643-7.427-14.681c-0.639-1.345-1.28-2.698-1.938-4.063c-2.778-5.772-6.894-10.604-11.25-15.717
	c-4.437-5.209-9.024-10.595-12.018-17.032c-1.643-3.535-2.836-7.182-3.99-10.708c-0.67-2.046-1.302-3.978-2.018-5.898
	c-1.009-2.705-2.152-5.492-3.258-8.188c-1.906-4.646-3.877-9.45-5.301-14.155c-2.837-9.371-4.754-16.583-6.215-23.384
	c-0.236-1.101-0.463-2.232-0.692-3.378c-0.878-4.384-1.785-8.917-3.448-12.709c-1.234-2.816-2.7-5.713-4.117-8.515
	c-2.384-4.713-4.849-9.587-6.522-14.604l2.846-0.949c1.604,4.809,4.02,9.583,6.354,14.2c1.435,2.837,2.919,5.771,4.188,8.664
	c1.793,4.09,2.732,8.785,3.642,13.325c0.227,1.132,0.45,2.25,0.685,3.337c1.443,6.717,3.341,13.855,6.152,23.145
	c1.383,4.568,3.326,9.305,5.205,13.886c1.114,2.717,2.268,5.527,3.293,8.277c0.737,1.977,1.408,4.029,2.058,6.013
	c1.127,3.443,2.293,7.004,3.86,10.377c2.82,6.067,7.273,11.295,11.581,16.35c4.288,5.034,8.723,10.24,11.669,16.362
	c0.659,1.37,1.304,2.729,1.944,4.079c2.366,4.985,4.601,9.695,7.324,14.481c0.459,0.808,1.007,1.665,1.586,2.573
	c1.88,2.946,4.011,6.286,4.201,9.654L587.169,486.751z"/>
<path fill="#231F20" d="M539.327,438.464l-0.654-2.928c4.574-1.023,7.295-4.269,10.176-7.704l0.673-0.801l2.291,1.937l-0.665,0.792
	C548.072,433.427,544.893,437.219,539.327,438.464z"/>
<path fill="#231F20" d="M582.667,425.796c-8.306-1.891-16.392-5.027-22.769-8.832c-0.726-0.433-1.59-0.92-2.545-1.458
	c-6.909-3.896-17.351-9.784-17.52-17.473l3-0.065c0.131,5.98,10.061,11.58,15.993,14.925c0.979,0.552,1.864,1.052,2.608,1.496
	c6.113,3.647,13.891,6.66,21.897,8.483L582.667,425.796z"/>
<path fill="#231F20" d="M590.125,452.152l-0.79-0.11c-4.104-0.573-8.758-1.223-12.817-2.604c-2.266-0.771-4.368-2.049-6.401-3.285
	c-2.414-1.467-4.694-2.854-7.087-3.35l0.609-2.938c2.899,0.602,5.511,2.188,8.036,3.724c1.982,1.205,3.854,2.343,5.81,3.009
	c3.79,1.289,8.099,1.892,12.266,2.473l0.793,0.111L590.125,452.152z"/>
<rect x="441.25" y="257.029" transform="matrix(0.7071 0.7071 -0.7071 0.7071 365.6754 -215.3184)" fill="#231F20" width="3" height="153.442"/>
<rect x="442" y="327.615" transform="matrix(0.3801 0.9249 -0.9249 0.3801 591.9344 -197.747)" fill="#231F20" width="3.001" height="30.27"/>
<rect x="421.476" y="324.25" transform="matrix(0.0637 0.998 -0.998 0.0637 730.7404 -127.3705)" fill="#231F20" width="23.548" height="3"/>
<polygon fill="#5F6D43" points="502.501,544.584 503.75,235.917 510.25,236.083 508.959,541.376 "/>
<path fill="#231F20" d="M511.756,352.556c0.232,1.725,0.291,3.522,0.1,5.253c-0.082,0.739-0.095,1.351-0.925,1.488
	c-0.593,0.098-1.191-0.031-1.785-0.026c-1.036,0.009-2.072,0.006-3.106-0.065c-0.842-2.031-0.434-5.91-0.106-8.062
	c0.259-1.696,1.078-3.221,1.067-4.964c-0.01-1.454-0.593-2.319-0.476-3.678c1.527,1.014,1.643,3.284,2.557,4.833
	C510.206,349.243,511.453,350.313,511.756,352.556z"/>
<path fill="#231F20" d="M506.972,329.964c-0.704-3.007-2.984-4.408-4.475-6.889c-0.755-1.256-1.411-2.94-1.864-4.39
	c0.196,0.628-0.862,2.699-1.054,3.38c-0.357,1.267-0.676,2.546-0.935,3.838c-0.512,2.56-0.82,5.184-0.692,7.798
	c0.121,2.495,0.637,4.991,1.77,7.232c1.312,2.596,3.347,5.663,5.311,2.021C507.22,338.897,508.029,334.483,506.972,329.964z"/>
<path fill="#231F20" d="M497.108,309.624c0.333-2.163,0.58-4.233,0.645-6.427c0.051-1.709,0.03-3.338,0.215-5.038
	c0.145-1.324-0.034-2.83,0.873-3.814c1.346-1.46,0.915-4.04,0.909-5.924c-0.003-1.141-0.085-2.395,0.795-3.218
	c0.598-0.559,1.982-1.203,2.819-1.057c0.151,1.224,0.323,2.351,0.323,3.599c0.001,4.626-0.867,9.146-1.318,13.753
	c-0.239,2.436-0.658,4.838-0.899,7.259c-0.198,1.992-0.723,3.942-0.907,5.932c-0.111,1.207-0.382,2.348-0.581,3.53
	c-0.106,0.633-0.063,1.315-0.807,1.284c-0.71-0.03-0.86-0.468-1.008-1.063c-0.173-0.694-0.479-1.287-0.673-1.985
	C496.883,314.243,496.759,311.891,497.108,309.624z"/>
<path fill="#231F20" d="M504.182,286.02c-0.666-1.372-1.573-2.533-1.969-4.038c-0.239-0.907-0.507-2.886,0.172-3.675
	c0.791-0.919,1.573-0.51,1.793,0.504c0.344,1.594,0.557,3.183,1.48,4.566c0.782,1.172,1.591,2.374,1.764,3.794
	c0.098,0.802,0.223,1.643,0.084,2.447c-0.13,0.75-0.756,1.639-1.321,0.885C505.265,289.28,504.854,287.404,504.182,286.02z"/>
<path fill="#231F20" d="M502.639,265.957c0.963,1.397,1.619,2.5,2.142,4.074c0.482,1.451,0.935,2.901,1.471,4.313
	c0.389,1.023,0.918,3.31,1.975,3.783c0.523-3.518,1.283-6.938,1.966-10.396c0.704-3.565,0.711-7.146,1.559-10.663
	c0.785-3.25,1.702-6.508,2.65-9.665c0.71-2.364,0.673-4.767,0.733-7.227c-0.726,1.763-2.075,3.221-3.005,4.861
	c-0.479,0.845-0.852,1.964-1.535,2.701c-0.469-0.544-1.04-0.153-1.596-0.516c-0.857-0.56-0.32-1.739-0.005-2.703
	c0.428-1.305,1.114-2.438-0.108-3.47c-0.514-0.434-2.338-1.25-3.021-1.057c-0.718,0.203-1.035,1.157-1.245,1.899
	c-0.167,0.591-0.635,1.953-0.351,2.584c0.184,0.407,0.977,0.683,1.219,1.097c-1.519,0.233-3.295,0.083-4.84,0.15
	c-0.877,0.038-2.076-0.256-2.751,0.391c-0.491,0.471-0.597,2.038-0.646,2.67c-0.05,0.626-0.062,1.353,0.12,1.936
	c0.51,1.643,0.864,0.977,1.948,0.702c1.757-0.445,2.219,0.533,2.2,2.182c2.935,0.606,0.836,3.368,2.479,4.525
	c0.443,0.312,0.874-0.055,1.412,0.52c0.81,0.866,0.466,2.474,0.466,3.576c0,1.523-0.154,3.086,0.366,4.52
	c-0.759-0.25-1.735-2.308-2.19-3.074c-0.435-0.729-0.79-2.111-1.432-2.647c-0.408-0.341-0.942-0.328-1.443-0.345
	c-0.568-0.02-1.059-0.141-1.571-0.396c0.206,0.459,0.567,0.662,0.819,1.051c0.303,0.469,0.501,1.039,0.717,1.552
	C501.58,263.933,501.988,265.014,502.639,265.957z"/>
<path fill="none" stroke="#5F6D43" stroke-miterlimit="10" d="M509.917,236.167"/>
<polygon fill="#786541" points="510.094,236.156 516.469,236.156 511.084,540.247 509.001,541.331 "/>
</svg>
