<?xml version="1.0" encoding="UTF-8"?>
<!-- Generator: Adobe Illustrator 15.1.0, SVG Export Plug-In . SVG Version: 6.00 Build 0)  -->
<!DOCTYPE svg PUBLIC "-//W3C//DTD SVG 1.1//EN" "http://www.w3.org/Graphics/SVG/1.1/DTD/svg11.dtd">
<svg version="1.1" id="Layer_1" xmlns="http://www.w3.org/2000/svg" xmlns:xlink="http://www.w3.org/1999/xlink" x="0px" y="0px" width="261px" height="341px" viewBox="0 0 261 341" enable-background="new 0 0 261 341" xml:space="preserve">
<g>
	<path fill="#006F5A" d="M211.5,268.5c-18.75,0-15,4.75-31.25,4.75c-4.823,0-8.319-2.453-11.146-5.891l-10.937,28.891H258.75   C258.75,296.25,231,268.5,211.5,268.5z"/>
	<path fill="#006F5A" d="M133.333,247.662C128.364,248.38,122.532,249,114.75,249c-46,0-40.25-32-66.5-32c-1.75,0-5,0.75-5,0.75   L1.5,296.25h131.833V247.662z"/>
</g>
<g>
	<path fill="#30AE8C" d="M133.333,165.333h20V189h16.333v-36.667h13.667v-14.612L133,42.001l-77.667,150c0,0,10,0.333,26.667,19.333   c15.667,16,31,13,43.333,11.334c2.622-0.354,5.317-0.406,8-0.221V165.333z"/>
	<path fill="#30AE8C" d="M203.593,176.249l-26.015,68.722c4.767,1.685,9.235,2.697,12.088,2.697c7.333,0,9-4.667,27.667-4.667   s31,18.333,31,18.333L203.593,176.249z"/>
</g>
<g>
	<path fill="#231F20" d="M147.751,315.62v-1.021c0-0.52,0.113-0.894,0.34-1.12s0.601-0.34,1.121-0.34h3.361   c1.134,0,1.938,0.236,2.412,0.71s0.71,1.277,0.71,2.411v20.192c0,0.227,0.037,0.377,0.11,0.45s0.224,0.109,0.45,0.109h1.32   c0.521,0,0.895,0.113,1.121,0.341c0.227,0.227,0.34,0.601,0.34,1.12v1.021c0,0.521-0.113,0.895-0.34,1.121s-0.601,0.34-1.121,0.34   h-2.721c-1.135,0-1.938-0.236-2.412-0.71s-0.71-1.277-0.71-2.411v-20.192c0-0.227-0.037-0.377-0.11-0.45s-0.224-0.11-0.45-0.11   h-1.961c-0.521,0-0.895-0.112-1.121-0.34C147.864,316.514,147.751,316.14,147.751,315.62z"/>
	<path fill="#231F20" d="M159.778,315.62v-1.021c0-0.52,0.113-0.894,0.34-1.12s0.601-0.34,1.121-0.34h4.902   c1.134,0,1.938,0.236,2.412,0.71c0.473,0.474,0.71,1.277,0.71,2.411v6.685c0,0.52-0.113,0.894-0.34,1.12   c-0.228,0.228-0.607,0.341-1.141,0.341h-1.001c-0.521,0-0.897-0.11-1.131-0.331c-0.233-0.22-0.35-0.597-0.35-1.13v-5.304   c0-0.227-0.037-0.377-0.11-0.45s-0.224-0.11-0.45-0.11h-3.502c-0.521,0-0.895-0.112-1.121-0.34   C159.892,316.514,159.778,316.14,159.778,315.62z"/>
	<path fill="#231F20" d="M172.245,315.62v-1.021c0-0.52,0.113-0.894,0.34-1.12s0.601-0.34,1.121-0.34h3.462   c1.134,0,1.938,0.236,2.411,0.71s0.711,1.277,0.711,2.411v14.929c0,0.374,0.187,0.561,0.56,0.561c2.282,0,3.949-0.566,5.003-1.701   c0.507-0.547,0.854-1.24,1.041-2.081s0.28-2.048,0.28-3.622v-6.704c0-0.227-0.037-0.377-0.11-0.45s-0.224-0.11-0.45-0.11h-1.661   c-0.52,0-0.894-0.112-1.12-0.34c-0.228-0.227-0.341-0.601-0.341-1.12v-1.021c0-0.52,0.113-0.894,0.341-1.12   c0.227-0.227,0.601-0.34,1.12-0.34h3.042c1.134,0,1.938,0.236,2.411,0.71s0.711,1.277,0.711,2.411v8.305   c0,2.229-0.12,3.829-0.36,4.804c-0.374,1.48-1.054,2.708-2.041,3.682c-1.055,1.054-2.321,1.781-3.803,2.182   c-1.147,0.307-2.661,0.46-4.542,0.46h-6.424c-0.521,0-0.897-0.113-1.131-0.34c-0.233-0.228-0.351-0.601-0.351-1.121v-1.021   c0-0.521,0.113-0.894,0.341-1.121c0.227-0.227,0.606-0.34,1.141-0.34h1.841c0.227,0,0.377-0.04,0.45-0.12s0.11-0.227,0.11-0.44   v-13.548c0-0.227-0.037-0.377-0.11-0.45s-0.224-0.11-0.45-0.11h-2.081c-0.521,0-0.895-0.112-1.121-0.34   C172.358,316.514,172.245,316.14,172.245,315.62z"/>
	<path fill="#231F20" d="M194.498,315.62v-1.021c0-0.52,0.113-0.894,0.34-1.12s0.601-0.34,1.121-0.34h4.902   c1.134,0,1.938,0.236,2.412,0.71c0.473,0.474,0.71,1.277,0.71,2.411v6.685c0,0.52-0.113,0.894-0.34,1.12   c-0.228,0.228-0.607,0.341-1.141,0.341h-1.001c-0.521,0-0.897-0.11-1.131-0.331c-0.233-0.22-0.35-0.597-0.35-1.13v-5.304   c0-0.227-0.037-0.377-0.11-0.45s-0.224-0.11-0.45-0.11h-3.502c-0.521,0-0.895-0.112-1.121-0.34   C194.611,316.514,194.498,316.14,194.498,315.62z"/>
	<path fill="#231F20" d="M206.966,315.62v-1.021c0-0.52,0.113-0.894,0.34-1.12s0.601-0.34,1.121-0.34h15.209   c0.521,0,0.894,0.109,1.12,0.33c0.227,0.22,0.341,0.597,0.341,1.13v1.021c0,0.52-0.114,0.894-0.341,1.12   c-0.227,0.228-0.6,0.34-1.12,0.34h-1.921c-0.228,0-0.378,0.037-0.451,0.11s-0.109,0.224-0.109,0.45v16.59   c0,0.521-0.113,0.894-0.341,1.121c-0.227,0.227-0.606,0.34-1.141,0.34h-1.021c-0.521,0-0.894-0.113-1.12-0.34   c-0.228-0.228-0.341-0.601-0.341-1.121v-16.59c0-0.227-0.036-0.377-0.109-0.45c-0.074-0.073-0.224-0.11-0.45-0.11h-8.205   c-0.521,0-0.895-0.112-1.121-0.34C207.079,316.514,206.966,316.14,206.966,315.62z"/>
	<path fill="#231F20" d="M227.718,315.62v-1.021c0-0.52,0.113-0.894,0.34-1.12s0.601-0.34,1.121-0.34h3.762   c1.534,0,2.615,0.313,3.242,0.94s0.94,1.7,0.94,3.222v16.93c0,0.521-0.113,0.894-0.34,1.121c-0.228,0.227-0.601,0.34-1.121,0.34   h-1.021c-0.521,0-0.894-0.113-1.12-0.34c-0.228-0.228-0.341-0.601-0.341-1.121v-16.59c0-0.227-0.04-0.377-0.12-0.45   s-0.233-0.11-0.46-0.11h-3.422c-0.521,0-0.895-0.112-1.121-0.34C227.831,316.514,227.718,316.14,227.718,315.62z"/>
	<path fill="#231F20" d="M240.485,315.62v-1.021c0-0.52,0.113-0.894,0.34-1.12s0.601-0.34,1.121-0.34h3.722   c0.747,0,1.281,0.156,1.602,0.47s0.48,0.857,0.48,1.631v0.74c0,0.28,0.066,0.447,0.199,0.501c0.134,0.053,0.294-0.061,0.48-0.341   c0.521-0.907,1.264-1.674,2.231-2.301c0.967-0.627,2.038-0.94,3.212-0.94c2.175,0,3.829,0.693,4.963,2.081   c0.601,0.747,1.021,1.678,1.261,2.791c0.24,1.114,0.36,2.539,0.36,4.272v10.526c0,1.135-0.24,1.938-0.721,2.412   s-1.28,0.71-2.401,0.71h-4.322c-0.521,0-0.895-0.113-1.121-0.34c-0.227-0.228-0.34-0.601-0.34-1.121v-1.021   c0-0.521,0.11-0.894,0.33-1.121c0.221-0.227,0.597-0.34,1.131-0.34h2.922c0.227,0,0.38-0.04,0.46-0.12s0.12-0.227,0.12-0.44v-9.926   c0-1.733-0.28-2.941-0.841-3.622c-0.573-0.693-1.414-1.04-2.521-1.04c-1.254,0-2.345,0.523-3.271,1.57   c-0.928,1.048-1.524,2.238-1.791,3.572c-0.228,0.947-0.34,2.075-0.34,3.382v9.105c0,0.521-0.114,0.894-0.341,1.121   c-0.227,0.227-0.601,0.34-1.12,0.34h-1.021c-0.52,0-0.896-0.113-1.13-0.34c-0.233-0.228-0.351-0.601-0.351-1.121v-16.59   c0-0.227-0.037-0.377-0.11-0.45s-0.224-0.11-0.45-0.11h-1.28c-0.521,0-0.895-0.112-1.121-0.34   C240.599,316.514,240.485,316.14,240.485,315.62z"/>
</g>
<g>
	<path fill="#231F20" d="M23.973,312.051v22.382h-5.087l-0.007-15.11l-2.025,15.11h-3.608l-2.136-14.765l-0.007,14.765H6.015   v-22.382h7.531c0.224,1.346,0.454,2.932,0.691,4.759l0.827,5.692l1.337-10.451H23.973z"/>
	<path fill="#231F20" d="M43.855,325.156c0,2.249-0.053,3.841-0.159,4.776s-0.438,1.79-0.995,2.564   c-0.558,0.774-1.312,1.369-2.261,1.783c-0.949,0.415-2.055,0.622-3.317,0.622c-1.198,0-2.274-0.195-3.228-0.587   c-0.954-0.392-1.721-0.979-2.302-1.763s-0.926-1.636-1.037-2.558c-0.11-0.922-0.166-2.534-0.166-4.839v-3.829   c0-2.249,0.053-3.841,0.159-4.776s0.438-1.79,0.996-2.564c0.557-0.774,1.311-1.368,2.26-1.783c0.949-0.415,2.055-0.622,3.318-0.622   c1.198,0,2.274,0.196,3.228,0.588c0.954,0.392,1.721,0.979,2.302,1.762c0.581,0.784,0.926,1.637,1.037,2.558   c0.11,0.922,0.166,2.535,0.166,4.839V325.156z M38.035,317.802c0-1.041-0.058-1.707-0.173-1.997   c-0.115-0.291-0.353-0.436-0.712-0.436c-0.304,0-0.537,0.117-0.698,0.353c-0.161,0.234-0.242,0.929-0.242,2.08v10.451   c0,1.3,0.053,2.102,0.159,2.405c0.105,0.305,0.352,0.457,0.739,0.457c0.396,0,0.65-0.176,0.76-0.525   c0.111-0.351,0.166-1.185,0.166-2.503V317.802z"/>
	<path fill="#231F20" d="M50.272,312.051h4.355c2.811,0,4.711,0.13,5.702,0.388s1.744,0.682,2.26,1.271s0.839,1.246,0.968,1.97   s0.194,2.146,0.194,4.265v7.839c0,2.009-0.095,3.353-0.284,4.029c-0.189,0.678-0.518,1.208-0.988,1.59   c-0.47,0.383-1.051,0.65-1.742,0.802c-0.691,0.152-1.733,0.229-3.125,0.229h-7.341V312.051z M56.093,315.88v14.724   c0.838,0,1.354-0.168,1.548-0.505c0.193-0.336,0.29-1.251,0.29-2.744v-8.695c0-1.014-0.032-1.664-0.097-1.949   c-0.064-0.286-0.212-0.495-0.442-0.629S56.729,315.88,56.093,315.88z"/>
	<path fill="#231F20" d="M75.989,312.051v22.382h-5.82v-22.382H75.989z"/>
	<path fill="#231F20" d="M85.654,312.051v2.005c0,1.041-0.125,1.9-0.374,2.578c-0.249,0.678-0.68,1.249-1.292,1.714   c-0.613,0.466-1.306,0.781-2.081,0.947v-1.617c0.553-0.305,0.866-0.719,0.94-1.244h-0.94v-4.383H85.654z"/>
	<path fill="#231F20" d="M97.394,312.051v22.382h-5.82v-22.382H97.394z"/>
	<path fill="#231F20" d="M116.972,312.051v22.382h-5.101l-3.028-10.175v10.175h-4.866v-22.382h4.866l3.263,10.078v-10.078H116.972z"/>
</g>
<path fill="#DB2726" d="M124.667,0c0,0,7,10.668,13,16.334s13.667,11.333,13.667,18.333c0,18.333-11.333,22.333-11.333,40.667  s22,23.667,22,43.667c0,31-25.334,45.667-25.334,45.667s6.667-16,6.667-26.667s-5.667-27.666-16.333-35.333s-21-14.667-21-22.667  s13-18.666,18.667-26.333s8-9.667,8-16.667S124.667,21.333,124.667,0z"/>
<polygon fill="#231F20" points="134.333,314.334 132.333,314.334 132.333,164.333 154.333,164.333 154.333,188 168.666,188   168.666,151.333 182.333,151.333 182.333,133.667 219.333,133.667 219.333,135.667 184.333,135.667 184.333,153.333   170.666,153.333 170.666,190 152.333,190 152.333,166.333 134.333,166.333 "/>
</svg>