<svg height="267.69214" viewBox="0 0 210.69914 267.69214" width="210.69914" xmlns="http://www.w3.org/2000/svg" xmlns:xlink="http://www.w3.org/1999/xlink"><linearGradient id="a" gradientTransform="matrix(78.412471 91.088233 91.088233 -78.412428 136.99313 425.40293)" gradientUnits="userSpaceOnUse" spreadMethod="pad" x1="0" x2="1" y1="0" y2="0"><stop offset="0" stop-color="#3871c1"/><stop offset=".00508118" stop-color="#3871c1"/><stop offset=".14748524" stop-color="#3871c1"/><stop offset="1" stop-color="#f9a72b"/></linearGradient><linearGradient id="b" gradientTransform="matrix(0 17.454102 17.454102 0 124.20557 524.97119)" gradientUnits="userSpaceOnUse" spreadMethod="pad" x1="0" x2="1" y1="0" y2="0"><stop offset="0" stop-color="#fff" stop-opacity="0"/><stop offset=".00508118" stop-color="#fff" stop-opacity="0"/><stop offset=".05616301" stop-color="#fff" stop-opacity="0"/><stop offset=".361969" stop-color="#fff"/><stop offset="1" stop-color="#fff"/></linearGradient><mask id="c" height="1" maskUnits="userSpaceOnUse" width="1" x="0" y="0"><path d="m-32768 32767h65535v-65534h-65535z" fill="url(#b)"/></mask><linearGradient id="d" gradientTransform="matrix(0 17.454102 17.454102 0 124.20557 524.97119)" gradientUnits="userSpaceOnUse" spreadMethod="pad" x1="0" x2="1" y1="0" y2="0"><stop offset="0" stop-color="#fff"/><stop offset=".00508118" stop-color="#fff"/><stop offset=".05616301" stop-color="#fff"/><stop offset=".361969" stop-color="#fff"/><stop offset="1" stop-color="#fff"/></linearGradient><g transform="matrix(1.3333333 0 0 -1.3333333 -147.11742 755.81531)"><path d="m113.04811 529.13135.53402-43.53134 5.31725-30.36169 7.99022-21.81734 21.82596-32.47481 22.90261-20.7694 17.56815-10.13492 17.56528 11.21157 26.08952 23.95057 15.98331 22.89113 10.11195 29.29364 5.32298 18.61897v53.12362z" fill="url(#a)"/><path d="m151.0374 400.40727 81.16547 99.83325 3.93051-4.51909-80.57403-99.63801z" fill="#fff"/><path d="m187.19781 444.62422-36.35651-45.19944-6.48577 7.66579-11.00485 14.74013-9.60377 21.78003c-.47947-.0517-.97043-.0718-1.46712-.0718-.37324 0-.74074.0115-1.10537.0402l2.57249.0316c2.34567.24404 4.39562 1.05943 5.44931 2.21073l.36176.39621.36463-.39621c1.27188-1.3896 3.98506-2.28251 6.91643-2.28251 2.93425 0 5.65316.89291 6.92792 2.28251l.36176.39334.36175-.39334c1.27189-1.3896 3.98793-2.28251 6.91644-2.28251 2.93711 0 5.65316.89291 6.92792 2.28251l.36175.39334.36176-.39334c1.27476-1.3896 3.9908-2.28251 6.92792-2.28251 2.9285 0 5.64455.89291 6.91644 2.28251l.36175.39334.36463-.39334c1.26902-1.3896 3.98506-2.28251 6.91356-2.28251 2.20212 0 4.28079.49957 5.72207 1.33793" fill="#80d6f7"/><path d="m163.8117 493.75675h-28.30025v18.47254h28.30025z" fill="#fff"/><path d="m153.78876 513.2112h-7.86102v5.89433h7.86102z" fill="#fff"/><g mask="url(#c)" transform="matrix(2.8710815 0 0 2.8710815 -206.45158 -1060.6439)"><path d="m120.818 524.971h6.776v17.455h-6.776z" fill="url(#d)"/></g><path d="m232.32633 417.97427-4.27791-.27275v7.84092c-6.37093 1.01349-8.54147 5.8771-10.06314 12.15329-.81826 3.46539-4.80045 4.16594-4.80045 7.70311 0 8.2802 6.95376 14.8033 15.23683 14.8033h6.71259c2.07292 0 2.26528-2.472 3.84438-3.79557 1.83749-1.58771 4.80906-1.7083 4.80906-4.18891 0-2.82802 1.27476-4.34969 1.27476-7.20354 0-2.96296-2.78782-4.10565-2.78782-7.07722 0-5.57277-4.38989-12.24516-9.9483-12.24516-.45937 0-.66322-4.77461 0-7.71747z" fill="none" stroke="#254094" stroke-width="2.357158"/><path d="m232.32633 417.97427-4.27791-.27275v7.84092c-6.37093 1.01349-8.54147 5.8771-10.06314 12.15329-.81826 3.46539-4.80045 4.16594-4.80045 7.70311 0 8.2802 6.95376 14.8033 15.23683 14.8033h6.71259c2.07292 0 2.26528-2.472 3.84438-3.79557 1.83749-1.58771 4.80906-1.7083 4.80906-4.18891 0-2.82802 1.27476-4.34969 1.27476-7.20354 0-2.96296-2.78782-4.10565-2.78782-7.07722 0-5.57277-4.38989-12.24516-9.9483-12.24516-.45937 0-.66322-4.77461 0-7.71747" fill="#4db238"/><path d="m155.94953 394.70703 17.88397 22.99449h68.78537l-16.50872-22.00971-10.22105-10.22105-24.36687-14.74013-2.33706-.68619z" fill="#80d6f7"/><path d="m113.48164 562.11433h150.53368v-34.56782h-150.53368z" fill="#fff200"/><g fill="#254094"><path d="m145.51143 473.56444h-2.11312v5.61583h2.11312z"/><path d="m150.83154 473.56444h-2.10163v5.61583h2.10163z"/><path d="m156.16601 473.56444h-2.11885v5.61583h2.11885z"/><path d="m145.51143 463.46684h-2.11312v5.61297h2.11312z"/><path d="m150.83154 463.46684h-2.10163v5.61297h2.10163z"/><path d="m156.16601 463.46684h-2.11885v5.61297h2.11885z"/><path d="m145.51143 451.11545h-2.11312v5.61584h2.11312z"/><path d="m150.83154 451.11545h-2.10163v5.61584h2.10163z"/><path d="m156.16601 451.11545h-2.11885v5.61584h2.11885z"/><path d="m145.51143 483.67064h-2.11312v5.62158h2.11312z"/><path d="m150.83154 483.67064h-2.10163v5.62158h2.10163z"/><path d="m156.16601 483.67064h-2.11885v5.62158h2.11885z"/><path d="m174.98021 418.77186h66.55454v-2.11599h-67.89534z"/><path d="m169.92223 412.59932h67.08282v-2.11599h-69.22465z"/><path d="m163.80567 406.42965h68.67914v-2.11312h-70.03142z"/><path d="m158.72386 400.264h67.35844v-2.11024h-69.21603z"/><path d="m155.01758 394.09864h65.75925v-2.11024h-65.75925z"/><path d="m162.19528 387.93156h51.11387v-2.11886h-51.11387z"/><path d="m170.44964 381.77309h34.33527v-2.1246h-34.33527z"/><path d="m147.11062 513.9663h5.34883v3.38787h-5.34883zm-2.10163 0v3.39074h-1.35515v2.21648h12.25091v-2.21648h-1.33793v-3.39074h10.64597v-21.31778h-4.25207v-48.26288l-2.11599 1.43554v46.82734h-17.59111v-48.81126l-2.11025-.98191v49.79317h-4.78322v21.31778zm18.09069-2.22509h-26.62929v-16.85899h26.62929z"/><path d="m246.29472 546.51977 5.23398-.29572c-.57134 1.85472-1.56187 4.05971-2.28825 5.53831zm1.18863-8.85729c-.20672 0-.41057.1091-.5168.30147-.16078.28423-.0603.64312.22682.8039 1.18576.66609 4.35256 2.7993 4.7459 4.65115.089.41057.0373.98765-.1091 1.65949-.0747-.0287-.15504-.0517-.24692-.0402l-6.30202.35889c-.20385.0115-.38473.12632-.48234.30433-.0976.17801-.0976.39621.003.57422l3.95348 7.02841c.10623.18374.30146.30146.51679.30146h.009c.21534-.006.41057-.12633.50819-.31582.39908-.75797 3.86447-7.45907 3.30748-10.11769-.59144-2.75337-5.13349-5.32586-5.32873-5.43496-.0919-.0517-.18949-.0747-.28423-.0747"/><path d="m236.64559 546.89674 3.83576-.1292c.0144-.003.0258-.003.0402-.003l-1.04507 4.7057zm6.16134-8.32614c-.26988 0-.51679.18662-.57422.46225l-1.46999 6.63507c-.0947-.0545-.22969-.0718-.31869-.0833l-4.85787.16652c-.20959.009-.40195.1292-.49957.31295-.10049.18375-.0919.41056.0201.58857l4.13149 6.67239c.12632.20385.35601.31582.60005.26988.2383-.0402.42779-.2182.4766-.45363l3.06919-13.85297c.0689-.31869-.1292-.6345-.44789-.70341-.0459-.009-.0861-.0144-.1292-.0144"/><path d="m228.22987 538.20655c-.0373 0-.0775.003-.11484.0115-.31869.0632-.52828.37324-.46512.69481.65461 3.25867 2.98306 13.92474 5.52683 14.32669.30721.0517.62016-.16652.67471-.49095.0517-.32156-.1694-.62303-.49096-.67184-1.04794-.16652-3.13235-6.29915-4.55353-13.39646-.0574-.28137-.30147-.47373-.57709-.47373"/><path d="m232.36538 544.66907c-.18949 0-.37611.0919-.48808.26127l-4.85787 7.20641c-.18662.26988-.11198.63451.15791.81826.26701.18088.63738.11197.81538-.16078l4.86074-7.20641c.18375-.26701.11198-.63451-.15791-.81826-.10048-.0689-.21246-.10049-.33017-.10049"/><path d="m217.47882 536.48218c-.19523 0-.39047.10049-.50244.28137-.16652.27562-.0833.64025.19523.81251.0431.0258 4.6167 2.88544 5.25695 6.18718.44215 2.22509.47373 5.19953.43928 7.07722l-4.73728-7.03128c-.18662-.27275-.54838-.34166-.82113-.16078-.26989.18375-.34166.55125-.16366.81826l5.75939 8.53859c.14069.20959.39908.30434.64313.2383.24691-.066.4163-.28136.4364-.53402.0144-.22394.32156-5.53544-.39621-9.1731-.74361-3.80993-5.59287-6.83892-5.80245-6.96525-.0948-.0603-.20098-.089-.30721-.089"/><path d="m223.06537 546.17351c-.16365 0-.3273.0689-.43928.1981l-4.93251 5.59287c-.21533.24404-.19237.61441.0517.83262.24978.21533.61728.18949.83548-.0517l4.92678-5.59287c.21533-.24404.19523-.61728-.0517-.83261-.11198-.0976-.25266-.14643-.39047-.14643"/><path d="m215.6465 544.14624c-.0144 0-.0287 0-.0459 0l-2.3428.17514c-.30433.023-.53402.26701-.54551.55986-.29572.0947-.47085.40482-.39333.70915.0833.31582.40769.50244.71777.42492l2.75624-.70915c.29572-.0747.48521-.36463.43353-.66609-.0459-.28711-.29572-.49383-.57996-.49383"/><path d="m206.28189 537.1187c-.12633 0-.25266.0402-.35889.12346-.15216.11484-.23255.28998-.23255.46224-.0488.0287-.0976.066-.14069.11197-.22394.23543-.21533.60867.0172.82975.0373.0373 3.79557 3.67785 4.27791 6.88485.0488.37611.1091.74361.16365 1.09962.003 2.96583.21246 5.3115 1.58484 5.51822.19523.0316.39621-.0431.52828-.19523.13494-.1493.18088-.35889.12346-.55125-.006-.023-.59145-2.07292-1.05369-4.85787-.003-.26127-.003-.53689 0-.824l.003-.63164c0-1.89778-3.70369-6.78149-4.4473-7.74043-.11485-.15217-.28998-.22969-.46512-.22969"/><path d="m189.17742 548.77816c.61154-.35889 1.34654-.71203 2.19925-.99339.0115.74073-.0201 1.3494-.0632 1.82026-.29285-.25552-.66896-.49382-1.1312-.64886-.32156-.1091-.65748-.16653-1.00488-.17801m-2.42032-11.80589c-.20385 0-.39908.10336-.51105.29285-.16366.28137-.066.64313.21533.80678.0373.023 4.02525 2.39161 4.63679 6.46567.1091.735.17514 1.40683.22108 2.01263-3.43956 1.03359-5.2426 3.15532-5.34309 3.27878-.18375.22107-.18087.53976.003.75796.18662.21533.50243.26988.74648.1292 1.20298-.70054 2.23944-.91875 3.06631-.64599.94746.3072 1.34367 1.18575 1.34941 1.19437.10049.22681.34453.37037.57422.35314.24691-.0144.45937-.17801.53115-.41631.0201-.066.37898-1.28911.30146-3.73815.99626-.22107 2.13321-.33591 3.37639-.26701 4.69135.23543 8.46682 2.62991 9.88226 3.66063-.15216.20385-.15503.49096.006.70342.19523.2584.5656.31007.82687.11197l.30146-.22682c.0746-.0201.14643-.0574.2182-.10623l3.26442-2.54377c.25266-.19811.30147-.56848.10336-.824-.1981-.26127-.56847-.31008-.824-.1091l-2.93711 2.2337c-1.28912-.98478-5.42348-3.80993-10.78379-4.07407-1.27763-.0718-2.45477.0287-3.50272.24117-.0459-.57996-.11484-1.21159-.21246-1.89778-.69767-4.64828-5.03013-7.20642-5.21388-7.31265-.0919-.0545-.19523-.0804-.29572-.0804"/><path d="m197.59572 536.97141c-.20385 0-.40195.10623-.50818.29285-.16365.28137-.0689.64312.20959.80677.0488.0287 4.73154 2.81654 3.99654 6.93941-.59144 3.32758-2.48061 5.60722-3.32471 6.48864l-4.3583-4.96697c-.21533-.24691-.58857-.26988-.82974-.0574-.24692.21533-.26989.58857-.0574.83261l4.766 5.43496c.21246.24404.57996.26414.824.0632.13207-.11484 3.296-2.8395 4.1401-7.58826.88429-4.93826-4.3382-8.03616-4.56215-8.16536-.0947-.0545-.19523-.0804-.29572-.0804"/><path d="m176.56993 537.30216c-.15217 0-.30146.0574-.41918.17514-.22681.22968-.22681.60292.006.83261.67758.67757 2.15332 1.5389 3.13523 2.07579-1.26615.86707-2.44042 2.13609-2.50359 2.20212-.11197.12059-.16652.28137-.15504.44502.0115.16078.0919.31295.22108.41343l3.58024 2.95722c.0287.47947.0603 1.6681-.17227 3.21561-.10623.68045-.066 1.26328.0488 1.75136l-4.12574-2.18202c-.28711-.15504-.64313-.0431-.79529.24404-.15504.28711-.0431.64312.24404.79529l5.91155 3.13235c.26989.1493.60867.0545.77233-.20385.16652-.2584.10335-.60293-.14069-.78667-.0373-.0316-1.0221-.82688-.75222-2.56962.33304-2.1849.16939-3.69221.16365-3.75538-.0172-.14929-.0919-.28998-.20672-.38472l-3.28451-2.72753c.60579-.59718 1.72264-1.61929 2.65287-2.02698.20672-.0919.34453-.2986.35028-.52541.006-.22682-.12059-.43928-.32444-.53976-.79529-.40196-3.03186-1.61355-3.78982-2.36578-.11485-.11484-.26414-.17226-.41631-.17226"/><path d="m167.05114 539.28722c-.18662 0-.37324.089-.48808.2584-.18088.26988-.11485.63451.15503.81826.0287.0201 2.84238 1.98104 2.69021 4.89519-.0488 1.07091.0775 2.07292.27849 2.94286-.17513-.0632-.35888-.11197-.5455-.13494-1.39822-.20098-2.63853.82974-3.27304 1.46712-.61154-.50531-1.22882-.72351-1.8461-.62877-1.13695.15791-1.72265 1.26615-1.78581 1.38961-.14643.28998-.0287.64599.26126.78954.29286.14643.646.0316.79242-.25839.0976-.18949.45076-.69481.89865-.7551.46799-.0718.95033.35315 1.2805.70916.11772.12633.29573.18088.45938.18949.17226-.009.33591-.089.43927-.22681.3675-.46799 1.56474-1.65375 2.61556-1.50732.51105.0689.98191.43927 1.40396 1.09962.3072.70629.57134 1.13982.60005 1.18289.16078.25839.49383.35314.76945.20959.26988-.13782.39047-.46512.27563-.74649-.17801-.43353-.37037-.81825-.57709-1.15704-.43066-1.01636-.95607-2.65862-.86994-4.5076.18662-3.58024-3.06344-5.83404-3.20413-5.92591-.10048-.0689-.21533-.10336-.33017-.10336"/><path d="m158.67074 544.36789h-2.95147c-.32731 0-.59144.26414-.59144.59144 0 .32443.26413.58857.59144.58857h2.95147c.3273 0 .59144-.26414.59144-.58857 0-.3273-.26414-.59144-.59144-.59144"/><path d="m152.76034 537.14798c-.10336 0-.20672.0258-.29859.0804l-8.87452 5.25121c-.16078.0976-.26988.26701-.2871.45363-.0172.18949.0574.37611.20097.49957l7.39878 6.40825c.24404.21246.61728.18662.82974-.0603.21246-.24691.18662-.61728-.0603-.83262l-6.77575-5.87136 8.16535-4.83203c.28137-.16365.37611-.5254.20959-.80677-.11197-.18662-.3072-.28998-.50818-.28998"/><path d="m148.82523 536.15976h-.0115c-.32731.006-.5857.27849-.57709.60293l.31582 13.95632c.006.32731.28136.55987.60292.57709.32444-.009.58283-.27849.57709-.60293l-.31582-13.95919c-.009-.31869-.26988-.57422-.59144-.57422"/><path d="m141.48617 550.46176c-.67183 0-1.32357.33592-1.94946.99914-.2383-.2986-.57996-.5857-1.05369-.70055-.824-.20959-1.74562.18949-2.7304 1.17715-.22969.22968-.22969.60292 0 .83261s.60293.22969.83261 0c.65461-.65461 1.23457-.96755 1.61355-.86707.39908.10049.646.646.68906.78381.066.21533.24979.37324.47373.40769.22107.0344.44215-.0603.57134-.24404.39909-.57422 1.00201-1.23457 1.61068-1.20585.62877.0402 1.1714.83261 1.32357 1.13407.1493.28711.49957.39908.78955.25553.29285-.14356.40769-.4967.26127-.78668-.0861-.17226-.8843-1.67958-2.28826-1.78007-.0459-.006-.0947-.006-.14355-.006"/><path d="m130.87523 554.11923-2.30261-6.38241c.99627.47372 2.42607.96755 4.03961.92736zm4.94974-14.18601c-.24978 0-.48234.16078-.56273.41056l-2.27389 7.13751c-.0459-.006-.0948-.0115-.14356-.009-2.7103.15503-4.99855-1.50158-5.02152-1.51881-.21246-.15503-.49383-.15503-.70341 0-.20959.15504-.29285.43067-.20385.67471l3.43955 9.52338c.0861.2383.25266.37611.56561.39046.25265-.006.47373-.16939.55124-.41056l4.91243-15.42919c.10048-.31008-.0689-.64313-.38186-.74074-.0603-.0201-.12058-.0287-.17801-.0287"/><path d="m264.01532 527.54651h-151.29738v3.54866h151.29738z"/><path d="m180.54293 435.74339c-2.93137 0-5.64455.89865-6.91356 2.28538l-.36463.39334-.36176-.39334c-1.27189-1.38673-3.98793-2.28538-6.91643-2.28538-2.93712 0-5.65316.89865-6.92792 2.28538l-.36176.39334-.36176-.39334c-1.27476-1.38673-3.9908-2.28538-6.92792-2.28538-2.9285 0-5.64454.89865-6.91643 2.28538l-.36176.39334-.36462-.39334c-1.27189-1.38673-3.99081-2.28538-6.92505-2.28538-2.93138 0-5.64455.89865-6.91644 2.28538l-.36463.39621-.36175-.39621c-.64599-.70629-1.6681-1.28624-2.90266-1.68245.0632-.32731.11197-.65748.15216-.99053 1.25466.3876 2.33132.95033 3.11225 1.648 1.56187-1.39247 4.28653-2.24518 7.28107-2.24518 2.99741 0 5.7278.85271 7.28967 2.24518 1.55613-1.39247 4.28366-2.24518 7.27819-2.24518 2.99741 0 5.73068.85271 7.28968 2.24518 1.559-1.39247 4.2894-2.24518 7.28968-2.24518 2.99166 0 5.71919.85271 7.27819 2.24518 1.47573-1.32069 4.01377-2.12747 6.82169-2.2136.18662.33305.39334.65174.61441.95894-.0517 0-.10336-.006-.15791-.006"/><path d="m187.91415 446.12982-.0804.089-.36463-.39908c-1.27189-1.3896-3.98793-2.28251-6.92505-2.28251-2.93137 0-5.64454.89291-6.91643 2.28251l-.36463.39334-.36176-.39334c-1.27188-1.3896-3.98506-2.28251-6.91356-2.28251-2.93999 0-5.65316.89291-6.92792 2.28251l-.36176.39334-.36462-.39334c-1.27189-1.3896-3.99081-2.28251-6.92792-2.28251-2.92563 0-5.64455.89291-6.91644 2.28251l-.35888.39334-.36463-.39334c-1.27476-1.3896-3.9908-2.28251-6.92505-2.28251-2.93424 0-5.64742.89291-6.91931 2.28251l-.36175.39908-.36176-.39908c-1.26902-1.3896-3.98506-2.28251-6.91643-2.28251-.19524 0-.38186.0144-.57135.0201.0431-.32443.0718-.64599.089-.97042.16365-.006.31581-.0345.48234-.0345 2.99453 0 5.72206.85271 7.27819 2.24232 1.56187-1.38961 4.28652-2.24232 7.28106-2.24232 2.99741 0 5.72781.85271 7.28968 2.24232 1.55612-1.38961 4.28365-2.24232 7.27532-2.24232 3.00028 0 5.73068.85271 7.29254 2.24232 1.559-1.38961 4.28653-2.24232 7.28968-2.24232 2.99167 0 5.71632.85271 7.27532 2.24232 1.559-1.38961 4.28653-2.24232 7.28106-2.24232 2.58972 0 4.93252.66322 6.54033 1.73126.22681.64026.49957 1.25754.82974 1.84611"/><path d="m173.72698 428.37074c.14643.28137.33592.53402.50531.8039-.22682.16653-.43066.3474-.60293.5369l-.36462.39333-.36176-.39333c-1.27189-1.38674-3.98793-2.28539-6.91644-2.28539-2.93711 0-5.65316.89865-6.92792 2.28539l-.36175.39333-.36176-.39333c-1.27476-1.38674-3.9908-2.28539-6.92792-2.28539-2.9285 0-5.64454.89865-6.91643 2.28539l-.36176.39333-.36463-.39333c-1.27189-1.38674-3.9908-2.28539-6.92505-2.28539-2.93137 0-5.64454.89865-6.91643 2.28539l-.36463.39333-.36175-.39333c-.0402-.0459-.0947-.0833-.13782-.13207.13782-.31582.30147-.62303.41057-.9532.0258.023.0632.0402.089.0603 1.56187-1.39248 4.28653-2.24519 7.28106-2.24519 2.99741 0 5.72781.85271 7.28968 2.24519 1.55613-1.39248 4.28365-2.24519 7.27819-2.24519 2.99741 0 5.73068.85271 7.28968 2.24519 1.559-1.39248 4.28939-2.24519 7.28967-2.24519 2.99167 0 5.7192.85271 7.2782 2.24519.13207-.11772.31581-.20672.46224-.31582"/><path d="m159.05892 421.39201-.36176.39621-.36175-.39621c-1.27476-1.38673-3.99368-2.28251-6.93079-2.28251-2.92564 0-5.64168.89578-6.91357 2.28251l-.36175.39621-.36463-.39621c-1.27476-1.38673-3.9908-2.28251-6.92505-2.28251-.33592 0-.66896.0144-.99627.0402.19237-.32444.37037-.65174.5369-.99053.15504-.006.30146-.0344.45937-.0344 2.99741 0 5.72781.85271 7.28968 2.24518 1.55612-1.39247 4.28365-2.24518 7.27532-2.24518 3.00028 0 5.73355.85271 7.29254 2.24518 1.42406-1.27188 3.84151-2.05856 6.53459-2.19063.14929.32443.33878.63164.51679.93884-2.84524.0488-5.44931.92449-6.68962 2.2739"/><path d="m160.75113 411.88729c-.68619.33592-1.27189.73213-1.69107 1.18863l-.36175.39334-.36463-.39334c-1.27189-1.38961-3.9908-2.28251-6.92792-2.28251-2.92563 0-5.64455.8929-6.91644 2.28251l-.36175.39334-.36176-.39334c-.72925-.79529-1.93511-1.41832-3.37926-1.81165.14642-.2986.27275-.60293.39334-.91014 1.35228.39047 2.52081.95894 3.34768 1.69681 1.559-1.3896 4.28652-2.24231 7.27819-2.24231 3.00028 0 5.73068.85271 7.29255 2.24231.44214-.39621 1.002-.73212 1.61354-1.03646.13207.29859.28137.58857.43928.87281"/><path d="m222.58159 517.73459c-.20959.76945-.42492 1.5389-.59718 2.32558l-16.89058-2.86534.31295-2.36577z"/><path d="m225.39525 510.35792c-.35027.71203-.72064 1.4097-1.03359 2.1447l-43.87587-17.55667.69193-2.26815z"/><path d="m208.7226 490.64996 20.02866 14.00801c-.44214.62876-.85271 1.27763-1.26327 1.92936l-19.85066-13.88168z"/><path d="m231.51439 501.1472-81.45545-100.84961 1.56761-1.63077 81.39803 100.81515c-.51967.53977-1.01924 1.09963-1.51019 1.66523"/><path d="m252.9229 486.96291-3.89606-18.685 2.04708-.57421 3.89032 18.72232c-.68045.178-1.37525.3273-2.04134.53689"/><path d="m235.7567 496.91207-81.70524-101.17404 1.54464-1.64226 81.88325 101.40373c-.5857.4565-1.15992.92736-1.72265 1.41257"/><path d="m245.66394 491.21498-7.80647-19.82769 2.17341-1.11111 7.82657 19.88798c-.735.34453-1.47861.67184-2.19351 1.05082"/><path d="m240.68864 493.31776-10.42203-18.92043 1.76285-1.30347 10.48519 19.0324c-.61441.3876-1.2317.77519-1.82601 1.1915"/></g><path d="m263.37679 528.74634h-42.35994c.20672-23.28447 19.06111-42.10728 42.35994-42.25084z" fill="#f9a72b"/><path d="m222.22414 527.56747c.81252-21.57331 18.40076-39.11561 39.97407-39.86784v39.86784zm42.3341-42.25945-1.18576.009c-23.79552.14643-43.32175 19.62672-43.53421 43.41937l-.0115 1.1915h44.73145z" fill="#254094"/><path d="m234.16555 456.22081c0-1.19724-2.02411-2.16192-4.52195-2.16192-2.49497 0-4.51909.96468-4.51909 2.16192 0 1.1915 2.02412 2.16192 4.51909 2.16192 2.49784 0 4.52195-.97042 4.52195-2.16192" fill="#f68712"/><path d="m225.91119 452.28857c0-1.1915-1.6279-2.15905-3.63766-2.15905-2.00402 0-3.63192.96755-3.63192 2.15905 0 1.19437 1.6279 2.16192 3.63192 2.16192 2.00976 0 3.63766-.96755 3.63766-2.16192" fill="#f68712"/><path d="m218.83856 446.00234c0-1.30347-.92449-2.36003-2.06431-2.36003s-2.06431 1.05656-2.06431 2.36003c0 1.3006.92449 2.35716 2.06431 2.35716s2.06431-1.05656 2.06431-2.35716" fill="#f68712"/><path d="m225.12336 440.89096c0-1.19437-1.09675-2.16192-2.4519-2.16192-1.35803 0-2.45478.96755-2.45478 2.16192s1.09675 2.16192 2.45478 2.16192c1.35515 0 2.4519-.96755 2.4519-2.16192" fill="#f68712"/><path d="m230.82476 445.31271c0-1.13982-1.45277-2.06431-3.24145-2.06431s-3.24432.92449-3.24432 2.06431 1.45564 2.06431 3.24432 2.06431 3.24145-.92449 3.24145-2.06431" fill="#f68712"/><path d="m232.98639 451.30867c0-.65461-.92449-1.18001-2.06144-1.18001-1.13982 0-2.0643.5254-2.0643 1.18001 0 .64886.92448 1.18001 2.0643 1.18001 1.13695 0 2.06144-.53115 2.06144-1.18001" fill="#f68712"/><path d="m242.22352 450.22484c0-1.13982-1.71691-2.06144-3.83289-2.06144-2.11599 0-3.8329.92162-3.8329 2.06144s1.71691 2.06431 3.8329 2.06431c2.11598 0 3.83289-.92449 3.83289-2.06431" fill="#f68712"/><path d="m240.06189 444.62422c0-.97617-1.36376-1.76859-3.04622-1.76859-1.68245 0-3.04909.79242-3.04909 1.76859s1.36664 1.76859 3.04909 1.76859c1.68246 0 3.04622-.79242 3.04622-1.76859" fill="#f68712"/><path d="m231.90715 439.31818c0-1.0824-.74935-1.96382-1.67097-1.96382-.92449 0-1.67097.88142-1.67097 1.96382 0 1.08527.74648 1.96669 1.67097 1.96669.92162 0 1.67097-.88142 1.67097-1.96669" fill="#f68712"/><path d="m227.48253 432.04802c0-.86707-.65748-1.57335-1.47574-1.57335-.80964 0-1.46999.70628-1.46999 1.57335 0 .86994.66035 1.57335 1.46999 1.57335.81826 0 1.47574-.70341 1.47574-1.57335" fill="#f68712"/><path d="m231.41649 429.98429c0-.59718-.57135-1.07953-1.27763-1.07953-.70916 0-1.27763.48235-1.27763 1.07953s.56847 1.07953 1.27763 1.07953c.70628 0 1.27763-.48235 1.27763-1.07953" fill="#f68712"/><path d="m237.50634 433.32365c0-1.02785-.92162-1.8662-2.06431-1.8662-1.13695 0-2.06431.83835-2.06431 1.8662 0 1.03072.92736 1.8662 2.06431 1.8662 1.14269 0 2.06431-.83548 2.06431-1.8662" fill="#f68712"/><path d="m239.86407 438.13902c0-.76084-.52541-1.37812-1.18001-1.37812-.64887 0-1.17715.61728-1.17715 1.37812s.52828 1.37812 1.17715 1.37812c.6546 0 1.18001-.61728 1.18001-1.37812" fill="#f68712"/><path d="m118.51207 491.84576c.14068-.54838.18662-1.2116.30433-2.85673 2.19925-30.956 14.28938-86.78705 70.33289-114.9782 68.25422 35.99475 72.11008 113.20675 72.13879 113.98768l-.003 71.79139h-143.83244c.16078-25.85121.5656-64.24332 1.05943-67.94414m70.71187-125.75337-1.58484.77232c-60.59418 29.48314-73.55137 88.85423-75.88268 121.62476-.0603.88716-.0976 1.4987-.14069 1.80303l.0172.003c-.59719 3.83002-1.02498 28.36628-1.27476 73.0116l-.0201 3.5544h158.02436v-79.0008c-.0345-.96468-4.031-83.41353-77.56801-120.96728z" fill="#254094"/></g></svg>