<?xml version="1.0" encoding="utf-8"?>
<!-- Generator: Adobe Illustrator 15.1.0, SVG Export Plug-In . SVG Version: 6.00 Build 0)  -->
<!DOCTYPE svg PUBLIC "-//W3C//DTD SVG 1.1//EN" "http://www.w3.org/Graphics/SVG/1.1/DTD/svg11.dtd">
<svg version="1.1" id="Layer_1" xmlns="http://www.w3.org/2000/svg" xmlns:xlink="http://www.w3.org/1999/xlink" x="0px" y="0px"
	 width="231.604px" height="279.657px" viewBox="0 0 231.604 279.657" enable-background="new 0 0 231.604 279.657"
	 xml:space="preserve">
<g>
	<g>
		<path fill="#99544C" d="M145.51,12c0,2.375,0,12,0,12h-16.625c-5,0-7.5-3.375-7.5-6.75s4-4.75,4-8.25s-2.875-8-8.875-8
			s-6.25,3.625-6.25,3.625s-1.375,0-6.75,0s-5.125,6.75-5.125,6.75s4.75,0,8,0s5,1.75,5,6c0,3.702-3.224,6.074-6.286,6.625H86.01
			c0,0,0-9.625,0-12c-43.25,0-53.5,37.625-53.5,48.375h166.5C199.01,49.625,188.76,12,145.51,12z"/>
		<path fill="#231F20" d="M200.01,61.375H31.51v-1C31.51,50.579,41.208,11,86.01,11h1v12h17.997
			c2.687-0.517,5.378-2.599,5.378-5.625c0-4.394-1.922-5-4-5h-8.964l-0.036-0.963c-0.006-0.159-0.119-3.905,2.046-6.152
			c1.046-1.085,2.418-1.635,4.078-1.635h5.976C109.979,2.29,111.548,0,116.51,0c6.812,0,9.875,5.263,9.875,9
			c0,2.127-1.2,3.57-2.258,4.844c-0.935,1.125-1.742,2.095-1.742,3.406c0,2.77,2.034,5.75,6.5,5.75h15.625V11h1
			c44.802,0,54.5,39.579,54.5,49.375V61.375z M33.541,59.375H197.98c-0.604-10.73-10.544-45.807-51.47-46.368V25h-17.625
			c-5.58,0-8.5-3.899-8.5-7.75c0-2.034,1.171-3.442,2.204-4.685c0.964-1.16,1.796-2.161,1.796-3.565c0-2.907-2.443-7-7.875-7
			c-5.009,0-5.25,2.667-5.252,2.694l-0.064,0.931h-7.684c-1.112,0-1.975,0.334-2.638,1.023c-1.007,1.045-1.334,2.689-1.44,3.727
			h6.953c3.981,0,6,2.355,6,7c0,4.349-3.685,6.993-7.108,7.609L105.1,25H85.01V13.007C44.085,13.568,34.145,48.645,33.541,59.375z"
			/>
	</g>
	<g>
		<path fill="#231F20" d="M38.76,59.625h-2c0-17.345,15.164-29.032,19.812-32.201l1.127,1.652
			C53.256,32.105,38.76,43.261,38.76,59.625z"/>
		<path fill="#231F20" d="M44.585,58.825h-2c0-15.811,12.527-26.304,17.913-30.082l1.148,1.638
			C56.517,33.979,44.585,43.954,44.585,58.825z"/>
		<path fill="#231F20" d="M50.411,58.025h-2c0-14.749,11.198-24.466,16.012-27.96l1.175,1.619
			C61.031,34.998,50.411,44.197,50.411,58.025z"/>
		<path fill="#231F20" d="M56.235,57.225h-2c0-13.193,8.84-21.849,14.11-25.834l1.206,1.595
			C64.578,36.746,56.235,44.897,56.235,57.225z"/>
		<path fill="#231F20" d="M62.061,56.425h-2c0-11.555,6.635-19.27,12.201-23.707l1.247,1.563
			C68.286,38.445,62.061,45.666,62.061,56.425z"/>
		<path fill="#231F20" d="M67.885,55.625h-2c0-8.373,3.558-15.833,10.289-21.573l1.298,1.521
			C71.111,40.999,67.885,47.745,67.885,55.625z"/>
		<path fill="#231F20" d="M73.71,54.825h-2c0-7.705,2.815-14.242,8.367-19.431l1.365,1.461C76.24,41.719,73.71,47.597,73.71,54.825z
			"/>
		<path fill="#231F20" d="M79.535,54.025h-2c0-9.334,3.671-14.328,6.433-17.272l1.459,1.368
			C82.898,40.818,79.535,45.401,79.535,54.025z"/>
		<path fill="#231F20" d="M85.36,53.225h-2c0-8.163,2.394-12.348,4.48-15.081l1.59,1.213C87.535,41.84,85.36,45.661,85.36,53.225z"
			/>
		<path fill="#231F20" d="M91.186,52.425h-2c0-7.031,1.201-10.318,2.5-12.822l1.775,0.92C92.666,42.057,91.186,44.912,91.186,52.425
			z"/>
		<path fill="#231F20" d="M97.01,51.625h-2c0-6.53,0.253-8.719,0.512-10.402l1.977,0.304C97.251,43.133,97.01,45.236,97.01,51.625z"
			/>
	</g>
	<g>
		<path fill="#231F20" d="M194.51,59.625h-2c0-16.364-14.496-27.52-18.938-30.549l1.127-1.652
			C179.346,30.593,194.51,42.28,194.51,59.625z"/>
		<path fill="#231F20" d="M188.685,58.825h-2c0-14.871-11.932-24.846-17.062-28.444l1.148-1.638
			C176.158,32.521,188.685,43.016,188.685,58.825z"/>
		<path fill="#231F20" d="M182.86,58.025h-2c0-13.829-10.621-23.028-15.187-26.341l1.174-1.619
			C171.662,33.559,182.86,43.276,182.86,58.025z"/>
		<path fill="#231F20" d="M177.036,57.225h-2c0-12.328-8.343-20.479-13.316-24.24l1.207-1.595
			C168.196,35.375,177.036,44.031,177.036,57.225z"/>
		<path fill="#231F20" d="M171.209,56.425h-2c0-10.759-6.226-17.98-11.447-22.143l1.246-1.563
			C164.575,37.155,171.209,44.87,171.209,56.425z"/>
		<path fill="#231F20" d="M165.385,55.625h-2c0-7.88-3.226-14.626-9.587-20.052l1.299-1.521
			C161.828,39.792,165.385,47.252,165.385,55.625z"/>
		<path fill="#231F20" d="M159.56,54.825h-2c0-7.229-2.529-13.106-7.732-17.97l1.365-1.461
			C156.745,40.583,159.56,47.121,159.56,54.825z"/>
		<path fill="#231F20" d="M153.735,54.025h-2c0-8.626-3.362-13.208-5.892-15.904l1.459-1.368
			C150.064,39.697,153.735,44.69,153.735,54.025z"/>
		<path fill="#231F20" d="M147.911,53.225h-2c0-7.518-2.058-11.229-4.07-13.868l1.59-1.213
			C145.516,40.878,147.911,45.063,147.911,53.225z"/>
		<path fill="#231F20" d="M142.084,52.425h-2c0-7.514-1.479-10.369-2.274-11.902l1.775-0.92
			C140.883,42.106,142.084,45.393,142.084,52.425z"/>
		<path fill="#231F20" d="M136.26,51.625h-2c0-6.389-0.241-8.492-0.488-10.098l1.977-0.304
			C136.007,42.906,136.26,45.095,136.26,51.625z"/>
	</g>
	<path fill="#FFFFFF" d="M217.385,156.25c0,0-4.75-36-4.75-46.75s12.5-16.75,12.5-16.75l-19-29.75c0,0-14,1-44.25-4.75
		s-46-13.25-46-13.25s-15.75,7.5-46,13.25S25.635,63,25.635,63l-19,29.75c0,0,12.5,6,12.5,16.75s-4.75,46.75-4.75,46.75H217.385z"/>
	<g>
		<path fill="#018F78" d="M94.002,153.251c10.118,3.439,18.997,9.091,25.895,16.292c6.457-7.78,14.904-13.933,24.595-17.738
			c-6.838-8.911-15.938-16.337-26.559-21.65C108.148,136.056,99.941,143.967,94.002,153.251z"/>
		<path fill="#231F20" d="M119.95,171.045l-0.775-0.811c-6.848-7.149-15.664-12.695-25.494-16.036l-1.208-0.411l0.688-1.075
			c5.986-9.357,14.374-17.454,24.257-23.414l0.472-0.284l0.492,0.246c10.695,5.351,19.998,12.936,26.904,21.937l0.81,1.054
			l-1.237,0.485c-9.426,3.702-17.791,9.734-24.191,17.446L119.95,171.045z M95.537,152.729c9.281,3.35,17.643,8.621,24.307,15.327
			c6.229-7.231,14.154-12.967,23.042-16.681c-6.523-8.17-15.103-15.088-24.908-20.079
			C108.936,136.842,101.208,144.226,95.537,152.729z"/>
	</g>
	<g>
		<path fill="#DC3C40" d="M119.896,169.543c-6.897-7.201-15.777-12.853-25.895-16.292c-6.622,10.351-10.434,22.395-10.434,35.263
			c0,23.95,13.156,45.077,33.198,57.657c1.033-0.933,2.025-1.901,2.984-2.896c-8.304-10.087-13.281-22.864-13.281-36.775
			C106.469,192.506,111.502,179.657,119.896,169.543z"/>
		<path fill="#231F20" d="M116.875,247.42l-0.641-0.402c-21.081-13.232-33.666-35.103-33.666-58.504
			c0-12.59,3.663-24.97,10.592-35.802l0.422-0.66l0.742,0.252c10.133,3.445,19.226,9.167,26.295,16.548l0.617,0.644l-0.57,0.687
			c-8.633,10.403-13.197,22.962-13.197,36.318c0,13.271,4.514,25.768,13.053,36.14l0.566,0.688l-0.619,0.642
			c-1.031,1.068-2.023,2.031-3.034,2.943L116.875,247.42z M94.424,154.455c-6.45,10.35-9.856,22.108-9.856,34.059
			c0,22.47,11.98,43.5,32.087,56.402c0.583-0.541,1.165-1.105,1.756-1.702c-8.471-10.596-12.943-23.271-12.943-36.714
			c0-13.335,4.642-26.402,13.089-36.899C111.977,162.935,103.665,157.719,94.424,154.455z"/>
	</g>
	<g>
		<path fill="#DC3C40" d="M119.896,169.543c9.497,9.915,15.239,22.754,15.239,36.791c0,14.108-5.802,27.006-15.386,36.941
			c1.499,1.821,3.1,3.558,4.807,5.193c20.3-12.664,33.579-33.6,33.579-57.302c0-14.597-5.037-28.146-13.644-39.362
			C134.8,155.61,126.353,161.763,119.896,169.543z"/>
		<path fill="#231F20" d="M124.425,249.729l-0.561-0.538c-1.7-1.628-3.344-3.404-4.887-5.279l-0.566-0.688l0.619-0.642
			c9.741-10.099,15.105-22.971,15.105-36.247c0-13.206-5.313-26.026-14.961-36.1l-0.617-0.644l0.569-0.687
			c6.615-7.971,15.259-14.206,25-18.03l0.7-0.275l0.458,0.598c9.062,11.809,13.851,25.631,13.851,39.971
			c0,23.11-12.729,44.849-34.05,58.15L124.425,249.729z M121.088,243.318c1.153,1.361,2.36,2.663,3.6,3.885
			c20.333-12.967,32.447-33.859,32.447-56.036c0-13.653-4.485-26.828-12.979-38.151c-8.864,3.61-16.759,9.291-22.92,16.49
			c9.615,10.345,14.899,23.389,14.899,36.828C136.135,219.846,130.798,232.945,121.088,243.318z"/>
	</g>
	<g>
		<path fill="#018F78" d="M119.896,169.543c-8.394,10.114-13.428,22.963-13.428,36.957c0,13.911,4.977,26.688,13.281,36.775
			c9.584-9.936,15.386-22.833,15.386-36.941C135.135,192.297,129.393,179.458,119.896,169.543z"/>
		<path fill="#231F20" d="M119.69,244.777l-0.713-0.866c-8.837-10.734-13.509-23.671-13.509-37.411
			c0-13.631,4.851-26.983,13.658-37.596l0.716-0.863l0.775,0.811c10.006,10.446,15.517,23.758,15.517,37.482
			c0,13.797-5.563,27.163-15.666,37.636L119.69,244.777z M119.95,171.061c-8.17,10.229-12.481,22.457-12.481,35.439
			c0,12.896,4.263,25.062,12.34,35.258c9.247-9.97,14.326-22.506,14.326-35.424C134.135,193.486,129.106,181.004,119.95,171.061z"/>
	</g>
	<g>
		<path fill="#DC3C40" d="M79.302,121.167c-24.512,0-46.41,9.934-60.869,25.515c-0.828,6.325-2.644,20.393-4.192,33.635
			c10.632-18.297,32.11-30.815,56.894-30.815c8.06,0,15.764,1.336,22.867,3.75c5.939-9.284,14.146-17.195,23.931-23.097
			C106.515,124.441,93.343,121.167,79.302,121.167z"/>
		<path fill="#231F20" d="M12.69,184.977l0.559-4.776c1.581-13.527,3.459-28.037,4.193-33.648l0.042-0.316l0.217-0.234
			c15.236-16.417,37.688-25.834,61.602-25.834c13.675,0,27.188,3.145,39.078,9.093l1.625,0.813l-1.555,0.938
			c-9.621,5.802-17.784,13.68-23.605,22.779l-0.422,0.66l-0.742-0.252c-7.218-2.453-14.803-3.697-22.545-3.697
			c-23.693,0-45.162,11.617-56.029,30.317L12.69,184.977z M19.384,147.129c-0.678,5.187-2.21,17.036-3.633,28.941
			c11.795-17.109,32.6-27.569,55.385-27.569c7.698,0,15.246,1.196,22.449,3.557c5.633-8.59,13.298-16.085,22.28-21.798
			c-11.213-5.299-23.813-8.093-36.562-8.093C56.058,122.167,34.238,131.262,19.384,147.129z"/>
	</g>
	<g>
		<path fill="#018F78" d="M11.302,208.833c0,8,14.333,31.834,41.5,42.334c15,5.666,27.333,6.333,39.333,6.333
			c2.043,0,3.868,0.214,5.515,0.551c7.18-2.906,13.653-6.946,19.116-11.88c-20.042-12.58-33.198-33.707-33.198-57.657
			c0-12.868,3.812-24.912,10.434-35.263c-7.103-2.414-14.807-3.75-22.867-3.75c-25.181,0-46.955,12.92-57.402,31.697
			C12.668,190.746,11.302,203.948,11.302,208.833z"/>
		<path fill="#231F20" d="M97.745,259.091l-0.295-0.061c-1.745-0.356-3.483-0.53-5.314-0.53c-11.007,0-24.059-0.494-39.687-6.397
			c-27.81-10.748-42.146-35.201-42.146-43.27c0-4.871,1.325-17.776,2.438-27.746l0.022-0.199l0.098-0.176
			c11.055-19.868,33.385-32.211,58.276-32.211c7.961,0,15.763,1.279,23.188,3.803l1.208,0.411l-0.688,1.075
			c-6.723,10.509-10.276,22.516-10.276,34.724c0,22.709,12.235,43.946,32.729,56.811l1.12,0.702l-0.981,0.887
			c-5.602,5.06-12.132,9.118-19.411,12.064L97.745,259.091z M14.705,181.51c-1.102,9.89-2.403,22.576-2.403,27.323
			c0,7.658,13.902,30.981,40.86,41.401c15.307,5.781,27.646,6.266,38.973,6.266c1.863,0,3.637,0.167,5.416,0.512
			c6.528-2.676,12.428-6.275,17.56-10.713c-20.404-13.297-32.542-34.803-32.542-57.785c0-12.17,3.423-24.145,9.909-34.713
			c-6.855-2.19-14.029-3.3-21.342-3.3C47.042,150.501,25.44,162.378,14.705,181.51z"/>
	</g>
	<g>
		<path fill="#018F78" d="M163.469,255.334c8.333-1.834,28.999-9.834,37.833-17.334s18.833-21.331,18.833-30.832
			c0-5.708-1.864-22.484-3.354-34.971c-11.036-14.947-29.078-24.697-49.479-24.697c-8.069,0-15.765,1.537-22.811,4.305
			c8.606,11.217,13.644,24.766,13.644,39.362c0,23.702-13.279,44.638-33.579,57.302c1.485,1.423,3.05,2.768,4.679,4.038
			c5.348,2.146,11.021,3.727,16.923,4.705C151.833,256.859,158.548,256.417,163.469,255.334z"/>
		<path fill="#231F20" d="M146.106,258.217l-0.111-0.019c-5.947-0.985-11.711-2.588-17.132-4.764l-0.243-0.14
			c-1.681-1.311-3.281-2.691-4.755-4.104l-0.929-0.89l1.091-0.681c20.731-12.934,33.108-34.037,33.108-56.453
			c0-13.896-4.646-27.297-13.437-38.754l-0.809-1.054l1.236-0.485c7.389-2.902,15.187-4.374,23.176-4.374
			c19.881,0,38.678,9.385,50.284,25.104l0.157,0.213l0.031,0.263c1.533,12.854,3.36,29.375,3.36,35.089
			c0,9.581-9.755,23.588-19.186,31.595c-9.003,7.643-29.892,15.705-38.266,17.548c-5.156,1.135-12.271,1.577-17.465,1.899
			L146.106,258.217z M129.739,251.631c5.215,2.081,10.755,3.62,16.471,4.576c5.118-0.318,12.076-0.756,17.045-1.85
			c8.203-1.806,28.634-9.677,37.4-17.12c8.888-7.545,18.48-21.188,18.48-30.069c0-5.577-1.795-21.827-3.315-34.589
			c-11.242-15.083-29.358-24.079-48.518-24.079c-7.295,0-14.424,1.267-21.212,3.767c8.54,11.57,13.045,24.991,13.045,38.9
			c0,22.712-12.294,44.099-32.953,57.454C127.308,249.651,128.5,250.66,129.739,251.631z"/>
	</g>
	<g>
		<path fill="#DC3C40" d="M211.841,137.609c-13.625-11.725-31.943-18.917-52.106-18.917c-15.441,0-29.8,4.224-41.802,11.462
			c10.621,5.313,19.721,12.739,26.559,21.65c7.046-2.768,14.741-4.305,22.811-4.305c20.103,0,37.921,9.462,48.997,24.04
			C214.502,157.592,212.621,143.44,211.841,137.609z"/>
		<path fill="#231F20" d="M217.77,175.129l-2.267-2.984c-11.249-14.806-29.269-23.645-48.201-23.645
			c-7.738,0-15.29,1.425-22.445,4.235l-0.7,0.275l-0.458-0.598c-6.724-8.761-15.787-16.149-26.213-21.364l-1.625-0.813l1.555-0.938
			c12.589-7.593,27.223-11.606,42.318-11.606c19.664,0,38.401,6.804,52.759,19.16l0.288,0.248l0.051,0.377
			c0.565,4.229,2.558,19.178,4.459,33.935L217.77,175.129z M167.302,146.5c18.342,0,35.857,8.038,47.553,21.661
			c-1.701-13.138-3.38-25.739-3.954-30.041c-13.957-11.887-32.111-18.429-51.166-18.429c-14.113,0-27.809,3.592-39.728,10.404
			c9.779,5.169,18.32,12.223,24.819,20.507C152.006,147.88,159.564,146.5,167.302,146.5z"/>
	</g>
	<g>
		<path fill="#993243" d="M21.26,229.625V183l32.75-19.625l40.625,19.25v75.75c0,0-21.375-2-30.25-3.25s-24.75-9.5-30.75-14.625
			S21.26,229.625,21.26,229.625z"/>
		<path fill="#231F20" d="M95.635,259.473l-1.093-0.102c-0.214-0.021-21.5-2.017-30.296-3.256
			c-8.788-1.237-24.801-9.338-31.26-14.854c-5.941-5.075-12.332-10.836-12.396-10.894l-0.33-0.298v-47.636l33.695-20.191
			l41.68,19.75V259.473z M22.26,229.18c1.384,1.243,6.875,6.161,12.024,10.56c5.611,4.793,21.391,13.149,30.24,14.396
			c7.603,1.071,24.634,2.715,29.11,3.142v-74.019l-39.57-18.75L22.26,183.566V229.18z"/>
	</g>
	<path fill="#FFFFFF" d="M115.798,278.118l-2.28-2.672c-0.2-0.231-10.458-11.978-22.808-11.978c-17.134,0-35.912-4.72-45.605-9.381
		c-10.283-4.946-39.636-24.181-39.636-46.92c0-12.316,3.711-38.656,6.986-61.896c2.236-15.864,4.347-30.849,4.347-35.438
		c0-9.083-11.52-13.121-11.636-13.161l-3.632-1.24L24.581,59.71l1.779,0.132c0.021,0.001,2.095,0.153,5.681,0.153
		c6.316,0,19.193-0.489,34.466-3.762c22.883-4.903,48.072-13.485,48.324-13.571l0.971-0.332l0.971,0.332
		c0.251,0.086,25.441,8.668,48.324,13.571c15.274,3.273,28.15,3.762,34.466,3.762c3.585,0,5.661-0.151,5.682-0.153l1.776-0.132
		l23.049,35.723l-3.632,1.24c-0.109,0.038-11.637,4.143-11.637,13.161c0,4.589,2.111,19.574,4.348,35.438
		c3.274,23.239,6.986,49.579,6.986,61.896c0,22.738-29.354,41.974-39.637,46.919c-9.693,4.662-28.472,9.382-45.605,9.382
		c-12.41,0-22.707,11.86-22.81,11.979L115.798,278.118z M10.551,92.523c4.629,2.415,12.251,7.83,12.251,17.311
		c0,5.01-2.042,19.499-4.406,36.276c-3.086,21.902-6.928,49.161-6.928,61.058c0,18.197,24.414,35.826,36.236,41.513
		c9.081,4.367,26.769,8.788,43.005,8.788c11.463,0,20.918,7.674,25.092,11.702c4.173-4.028,13.628-11.702,25.091-11.702
		c16.236,0,33.924-4.421,43.006-8.788c11.822-5.687,36.236-23.315,36.236-41.513c0-11.896-3.842-39.155-6.928-61.058
		c-2.364-16.777-4.406-31.266-4.406-36.276c0-9.481,7.622-14.896,12.251-17.311l-17.164-26.604c-1.035,0.04-2.494,0.077-4.325,0.077
		c-8.005,0-20.7-0.675-35.724-3.895c-20.672-4.43-43.147-11.8-48.038-13.435c-4.891,1.635-27.365,9.004-48.038,13.435
		c-15.022,3.219-27.718,3.895-35.723,3.895c-1.832,0-3.291-0.037-4.325-0.077L10.551,92.523z"/>
	<path fill="#231F20" d="M115.796,279.657l-3.039-3.562c-0.096-0.111-10.194-11.627-22.047-11.627
		c-17.282,0-36.242-4.769-46.039-9.479c-10.43-5.018-40.203-24.571-40.203-47.821c0-12.39,3.717-38.765,6.996-62.035
		c2.23-15.827,4.337-30.775,4.337-35.298c0-8.31-10.854-12.178-10.963-12.216L0,95.966l24.062-37.297l2.371,0.177
		c0.083,0.006,2.12,0.15,5.607,0.15c6.276,0,19.073-0.486,34.257-3.74c22.768-4.878,47.958-13.454,48.21-13.54l1.294-0.442
		l1.295,0.442c0.251,0.086,25.441,8.661,48.21,13.54c15.182,3.254,27.979,3.74,34.256,3.74c3.486,0,5.524-0.144,5.609-0.15
		l2.367-0.176l0.321,0.5l23.743,36.797l-4.843,1.654c-0.103,0.036-10.96,3.962-10.96,12.215c0,4.526,2.107,19.473,4.338,35.298
		c3.281,23.286,6.996,49.653,6.996,62.035c0,23.253-29.773,42.805-40.203,47.82c-9.796,4.711-28.755,9.48-46.039,9.48
		c-11.879,0-21.952,11.516-22.052,11.632L115.796,279.657z M3.067,94.9l2.422,0.827c0.126,0.043,12.313,4.357,12.313,14.107
		c0,4.663-2.116,19.679-4.357,35.578c-3.27,23.205-6.977,49.507-6.977,61.756c0,22.224,28.934,41.144,39.069,46.019
		c9.593,4.612,28.189,9.282,45.172,9.282c12.758,0,23.129,11.82,23.564,12.323l1.525,1.787l1.524-1.781
		c0.108-0.125,10.76-12.329,23.569-12.329c16.984,0,35.581-4.67,45.172-9.283c10.136-4.874,39.07-23.791,39.07-46.018
		c0-12.242-3.705-38.534-6.974-61.732c-2.244-15.92-4.36-30.935-4.36-35.601c0-9.707,12.185-14.062,12.308-14.105l2.427-0.829
		l-22.033-34.148l-1.184,0.088c-0.091,0.007-2.198,0.156-5.756,0.156c-6.356,0-19.312-0.492-34.676-3.784
		c-22.883-4.904-48.185-13.517-48.438-13.603l-0.648-0.222l-0.647,0.222c-0.253,0.086-25.556,8.7-48.438,13.603
		c-15.364,3.292-28.32,3.784-34.676,3.784c-3.558,0-5.665-0.149-5.752-0.155l-1.189-0.088L3.067,94.9z M115.802,270.561l-0.694-0.67
		c-4.419-4.266-13.465-11.422-24.397-11.422c-16.386,0-34.255-4.471-43.438-8.887c-12.008-5.775-36.803-23.742-36.803-42.414
		c0-11.966,3.846-39.262,6.937-61.193c2.359-16.742,4.396-31.198,4.396-36.14c0-8.975-7.339-14.143-11.713-16.424l-0.973-0.507
		l18.068-28.005l0.569,0.021c1.319,0.051,2.761,0.076,4.287,0.076c7.957,0,20.577-0.672,35.514-3.873
		c20.757-4.448,43.568-11.947,47.931-13.405l0.317-0.106l0.317,0.106c4.36,1.458,27.166,8.955,47.931,13.405
		c14.936,3.201,27.557,3.873,35.514,3.873c1.525,0,2.968-0.025,4.287-0.076l0.569-0.021l18.067,28.005l-0.972,0.507
		c-4.375,2.282-11.714,7.45-11.714,16.424c0,4.939,2.037,19.392,4.396,36.127c3.096,21.972,6.938,49.248,6.938,61.206
		c0,18.671-24.795,36.638-36.803,42.414c-9.185,4.416-27.055,8.887-43.439,8.887c-10.933,0-19.979,7.156-24.397,11.422
		L115.802,270.561z M11.976,92.16c4.815,2.72,11.826,8.293,11.826,17.675c0,5.083-2.046,19.603-4.416,36.416
		c-3.083,21.874-6.918,49.092-6.918,60.918c0,17.722,24.032,35.014,35.67,40.611c8.979,4.318,26.485,8.689,42.571,8.689
		c11.082,0,20.24,6.811,25.092,11.324c4.851-4.514,14.009-11.324,25.091-11.324c16.086,0,33.593-4.371,42.572-8.689
		c11.639-5.598,35.67-22.89,35.67-40.611c0-11.818-3.832-39.018-6.911-60.872c-2.377-16.865-4.423-31.382-4.423-36.461
		c0-9.382,7.012-14.955,11.826-17.675l-16.271-25.221c-1.186,0.038-2.459,0.057-3.793,0.057c-8.054,0-20.826-0.68-35.934-3.917
		c-20.407-4.374-42.756-11.669-47.828-13.358c-5.074,1.689-27.429,8.986-47.829,13.358c-15.108,3.237-27.879,3.917-35.933,3.917
		c-1.334,0-2.607-0.019-3.793-0.057L11.976,92.16z"/>
	<polygon fill="#231F20" points="29.385,177.084 35.135,81.5 44.135,82.5 38.802,166.916 35.302,169.25 35.135,174.917 	"/>
	<polyline fill="#231F20" points="50.052,157.666 53.052,94.667 63.969,94.667 59.885,159.166 53.635,156.166 49.719,157.499 	"/>
	<path fill="none" stroke="#231F20" stroke-width="2" stroke-miterlimit="10" d="M54.51,232.25"/>
	<rect x="29.635" y="188.75" fill="#231F20" width="54.125" height="13.5"/>
	
		<rect x="34.635" y="152.915" transform="matrix(0.5067 0.8621 -0.8621 0.5067 167.9085 55.294)" fill="#231F20" width="2" height="42.919"/>
	
		<rect x="51.912" y="172.5" transform="matrix(0.9058 0.4238 -0.4238 0.9058 80.6364 -15.6501)" fill="#231F20" width="47.197" height="2.001"/>
	<g>
		<polygon fill="#993243" points="35.26,168.075 53.885,155.625 75.01,166.625 75.01,173.25 54.26,163.833 35.219,174.583 		"/>
		<path fill="#231F20" d="M34.208,176.302l0.056-8.764l19.558-13.073l22.188,11.554v8.783l-21.701-9.849L34.208,176.302z
			 M36.257,168.612l-0.027,4.252l17.981-10.151l19.799,8.985v-4.467l-20.062-10.446L36.257,168.612z"/>
	</g>
	<g>
		<polygon fill="#993243" points="211.219,136.333 215.302,133.083 204.135,124.167 194.052,132.667 197.885,135.417 
			203.802,130.167 		"/>
		<path fill="#231F20" d="M211.206,137.623l-7.382-6.138l-5.872,5.21l-5.526-3.965l11.692-9.857l12.789,10.211L211.206,137.623z
			 M203.781,128.849l7.452,6.195l2.465-1.962l-9.545-7.622l-8.474,7.143l2.14,1.535L203.781,128.849z"/>
	</g>
	<g>
		<path fill="#2F447B" d="M198.198,134.875l5.812-5.062l7.125,6v29.375c0,0-2.438-2.5-5.125-4.5s-4.625-3.5-4.625-3.5
			L198.198,134.875z"/>
		<path fill="#231F20" d="M212.135,167.645l-1.716-1.759c-0.024-0.024-2.417-2.469-5.006-4.396
			c-2.696-2.006-4.641-3.511-4.641-3.511l-0.32-0.248l-3.321-23.252l6.868-5.982l8.136,6.851V167.645z M202.318,156.644
			c0.654,0.503,2.257,1.729,4.289,3.242c1.325,0.985,2.578,2.078,3.528,2.951v-26.559l-6.114-5.149l-4.757,4.143L202.318,156.644z"
			/>
	</g>
	<g>
		<path fill="#EBC521" d="M179.302,143.334L190.635,136l10.334,6.167v14.683c0,0-2.085-1.433-8.251-3.766S180.469,149,180.469,149
			L179.302,143.334z"/>
		<path fill="#231F20" d="M201.969,158.75l-1.564-1.075c-0.041-0.027-2.146-1.425-8.04-3.655
			c-6.055-2.291-12.111-4.041-12.172-4.059l-0.581-0.167l-1.427-6.928l12.429-8.043l11.355,6.776V158.75z M181.328,148.21
			c1.675,0.498,6.709,2.033,11.744,3.938c3.41,1.29,5.601,2.314,6.897,2.985v-12.399l-9.312-5.557l-10.237,6.625L181.328,148.21z"/>
	</g>
	<g>
		<polygon fill="#993243" points="175.053,140.251 189.803,130.834 204.053,138.334 204.053,142.084 200.969,142.084 190.635,136 
			180.553,142.668 		"/>
		<path fill="#231F20" d="M180.65,143.803l-7.711-3.389l16.815-10.735l15.299,8.052v5.354h-4.356l-10.031-5.906L180.65,143.803z
			 M177.167,140.088l3.289,1.445l10.147-6.712l10.638,6.263h1.812v-2.146l-13.201-6.948L177.167,140.088z"/>
	</g>
	<g>
		<polygon fill="#993243" points="155.76,150.625 148.51,150.625 148.51,148.75 168.76,135.875 189.51,146.875 189.51,151.75 
			186.135,151.75 168.76,144 		"/>
		<path fill="#231F20" d="M190.51,152.75h-4.588l-17.134-7.643L156,151.625h-8.49v-3.424l21.204-13.482l21.796,11.555V152.75z
			 M186.348,150.75h2.162v-3.273l-19.704-10.445l-19.296,12.268v0.326h6.01l13.212-6.732L186.348,150.75z"/>
	</g>
	<g>
		<path fill="#FFFFFF" d="M110.76,95.125c0,0,2.837-3.375,2.837-7.875s-3.356-9-3.356-9s-3.356,4.5-3.356,9
			S110.76,95.125,110.76,95.125z"/>
		<path fill="#FFFFFF" d="M112.078,108.929c0,0-0.191-4.405-3.234-7.721c-3.042-3.315-8.558-4.363-8.558-4.363s0.57,5.585,3.612,8.9
			C106.941,109.062,112.078,108.929,112.078,108.929z"/>
		<path fill="#FFFFFF" d="M109.654,143.294c0,0,0.993-3.721-0.675-7.281c-1.667-3.559-5.991-5.875-5.991-5.875
			s-0.986,4.804,0.682,8.364S109.654,143.294,109.654,143.294z"/>
		<path fill="#FFFFFF" d="M122.76,86.625c0,0,2.837-3.375,2.837-7.875s-3.356-9-3.356-9s-3.355,4.5-3.355,9
			S122.76,86.625,122.76,86.625z"/>
		<path fill="#FFFFFF" d="M128.023,101.562c0,0,3.662-2.455,4.911-6.778c1.249-4.323-0.726-9.578-0.726-9.578
			s-4.474,3.392-5.723,7.715S128.023,101.562,128.023,101.562z"/>
		<g>
			<path fill="#FFFFFF" d="M132.074,128.317c0,0,4.279-1.062,6.926-4.701s2.579-9.252,2.579-9.252s-5.361,1.666-8.008,5.305
				C130.924,123.308,132.074,128.317,132.074,128.317z"/>
			<path fill="#231F20" d="M139.891,204.706l-0.137-0.142c-0.145-0.149-3.598-3.695-8.649-6.713c-2.721-1.625-3.61-2.39-3.89-2.679
				c-0.009-0.566-0.021-1.086-0.034-1.552l0.04-0.095l-0.063-0.573c-0.008-0.182-0.016-0.354-0.024-0.509
				c-0.098-1.769-0.419-3.896-0.759-6.146c-0.534-3.54-1.141-7.552-0.99-11.005c0.012-0.271,0.021-0.545,0.028-0.819l0.094-0.149
				c-0.002-0.002-0.033-0.023-0.086-0.065c0.158-5.666-0.35-12.161-1.309-16.476c-0.27-1.212-0.646-2.312-1.011-3.377
				c-1.031-3.015-2.095-6.138-1.251-12.803c0.432-0.643,2.031-2.936,4.492-5.397c2.984-2.985,4.22-4.22,5.602-6.119
				c0.223-0.306,0.403-0.586,0.565-0.854c0.897-0.258,4.758-1.536,7.299-5.029c2.81-3.863,2.773-9.61,2.771-9.853l-0.017-1.34
				l-1.28,0.397c-0.231,0.072-5.71,1.809-8.52,5.672c-2.323,3.196-2.014,7.242-1.78,8.806c-0.161,0.294-0.371,0.634-0.655,1.024
				c-1.289,1.772-2.408,2.891-5.398,5.881c-0.919,0.919-1.72,1.811-2.396,2.614c0.534-2.79,1.181-5.415,1.82-7.967
				c1.099-4.38,2.234-8.91,2.777-14.339c0.432-4.317,0.77-6.523,0.993-7.983c0.272-1.781,0.385-2.555,0.288-4.61l0.168-0.113
				c0.162-0.108,3.98-2.711,5.315-7.331c1.325-4.589-0.665-9.98-0.75-10.207l-0.472-1.255l-1.069,0.81
				c-0.184,0.139-4.316,3.317-5.859,7.58c-0.77-2.209-1.506-4.137-1.896-5.14c0.79-1.087,2.749-4.177,2.749-8.1
				c0-4.777-3.41-9.403-3.555-9.598l-0.802-1.075l-0.802,1.075c-0.145,0.194-3.554,4.821-3.554,9.598
				c0,4.175,2.932,7.384,3.906,8.336c0.419,1.062,2.329,5.977,3.556,10.161c0.146,0.832,0.365,1.597,0.606,2.264
				c0.234,0.989,0.394,1.868,0.434,2.547c0.135,2.299,0.048,2.868-0.241,4.755c-0.227,1.48-0.569,3.718-1.006,8.087
				c-0.318,3.182-0.852,6.061-1.46,8.791c-2.606-2.038-8.352-7.276-10.647-15.321c-0.067-0.596-0.237-1.656-0.643-2.905
				c-0.033-0.201-0.069-0.398-0.097-0.602c-0.626-4.562-0.713-7.508-0.667-9.219c0.522-0.664,2.972-4.004,2.972-8.395
				c0-4.777-3.409-9.403-3.554-9.598l-0.802-1.075l-0.802,1.075c-0.145,0.194-3.554,4.821-3.554,9.598
				c0,3.958,2.64,7.054,3.745,8.176c-0.04,1.202-0.017,2.958,0.192,5.39c-0.081-0.094-0.156-0.191-0.242-0.284
				c-3.229-3.519-8.869-4.624-9.108-4.669l-1.317-0.25l0.136,1.334c0.024,0.242,0.641,5.956,3.87,9.475
				c2.644,2.883,6.604,3.401,8.241,3.49c2.88,8.916,9.529,14.299,11.781,15.919c-0.254,1.055-0.514,2.094-0.771,3.123
				c-0.949,3.785-1.931,7.699-2.519,12.167c-0.959,7.289,0.249,10.819,1.314,13.934c0.363,1.06,0.705,2.06,0.95,3.163
				c0.774,3.481,1.25,8.642,1.285,13.457c-0.493-0.882-1.023-2.024-1.53-3.499c-0.917-2.669-2.399-4.571-3.706-6.25
				c-1.442-1.852-2.688-3.451-3.087-5.762c-0.185-1.072-1.866-10.521-3.904-11.977c-0.22-0.157-0.423-0.368-0.607-0.594l0.011-0.041
				c0.044-0.166,1.066-4.118-0.736-7.963c-1.788-3.815-6.236-6.231-6.424-6.333l-1.182-0.634l-0.27,1.314
				c-0.043,0.209-1.032,5.173,0.756,8.989c1.341,2.862,4.133,4.351,5.626,4.971c0.365,0.62,0.916,1.383,1.659,1.913
				c0.692,0.569,2.136,5.101,3.101,10.693c0.483,2.805,2.007,4.76,3.479,6.651c1.271,1.631,2.584,3.317,3.393,5.671
				c1.167,3.393,2.474,5.271,3.369,6.254c-0.002,0.042-0.003,0.086-0.005,0.128c-0.158,3.646,0.463,7.76,1.011,11.389
				c0.223,1.479,0.432,2.889,0.577,4.171c-0.649,0.874-3.5,4.413-8.331,6.372c-5.585,2.266-9.966,2.303-10.01,2.303l0.001,2
				c0.193,0,4.79-0.028,10.76-2.449c3.409-1.383,5.906-3.454,7.463-5.041c-0.8,1.836-2.534,5.772-3.39,7.328
				c-1.137,2.067-5.509,3.59-7.097,4.003l0.501,1.936c0.669-0.173,6.593-1.784,8.348-4.975c0.511-0.928,1.291-2.6,2.021-4.216
				c0.027,6.445-0.105,16.469-0.107,16.59l2,0.031c0.007-0.501,0.14-10.512,0.106-16.896c0.691,0.49,1.606,1.081,2.838,1.816
				c4.271,2.551,7.42,5.574,8.101,6.249c0.156,0.408,0.347,0.954,0.387,1.187l1.971-0.34c-0.099-0.572-0.495-1.579-0.573-1.775
				L139.891,204.706z M134.379,120.257c1.628-2.239,4.446-3.696,6.124-4.413c-0.163,1.815-0.68,4.939-2.312,7.184
				c-1.41,1.94-3.357,3.089-4.725,3.709c0.001-0.025,0.003-0.056,0.003-0.071l-0.604-0.011
				C132.75,125.036,132.849,122.362,134.379,120.257z M127.447,93.199c0.768-2.659,2.921-4.989,4.255-6.235
				c0.465,1.762,1.042,4.876,0.271,7.543c-0.766,2.652-2.558,4.564-3.638,5.524c-0.155-0.328-0.327-0.733-0.49-1.185
				c-0.152-0.626-0.331-1.286-0.525-1.961C127.117,95.737,127.082,94.462,127.447,93.199z M119.885,78.75
				c0-2.767,1.42-5.602,2.355-7.169c0.936,1.567,2.356,4.402,2.356,7.169c0,2.76-1.19,5.095-1.961,6.317
				C121.595,83.889,119.885,81.53,119.885,78.75z M110.241,80.081c0.936,1.567,2.356,4.402,2.356,7.169
				c0,2.698-1.135,4.981-1.906,6.225l-0.164-0.036c-1.046-1.214-2.642-3.499-2.642-6.188
				C107.885,84.483,109.306,81.648,110.241,80.081z M104.636,105.069c-1.871-2.038-2.741-5.087-3.111-6.875
				c1.749,0.522,4.712,1.651,6.583,3.69c1.196,1.303,1.91,2.806,2.339,4.093c0.108,0.64,0.234,1.266,0.381,1.876
				C109.251,107.676,106.482,107.082,104.636,105.069z M104.576,138.077c-0.969-2.068-0.945-4.667-0.803-6.266
				c1.319,0.914,3.332,2.558,4.301,4.626c0.967,2.063,0.938,4.224,0.799,5.489C107.612,141.362,105.554,140.165,104.576,138.077z"/>
		</g>
	</g>
	<g>
		<polygon fill="#FFFFFF" points="154.385,198.75 154.385,150.5 168.885,142.65 185.885,151 185.885,187.5 181.885,197 		"/>
		<path fill="#231F20" d="M153.385,199.815v-49.911l15.478-8.379l18.022,8.852v37.325l-4.318,10.257L153.385,199.815z
			 M155.385,151.096v46.589l25.818-1.644l3.682-8.743v-35.675l-15.978-7.848L155.385,151.096z"/>
	</g>
	<rect x="156.635" y="153.125" fill="#231F20" width="14.5" height="10"/>
	<g>
		<path fill="#D7C926" d="M89.135,257.875c16.25,0,26.625,11.625,26.625,11.625s11.25-12.125,27.625-12.125s49-6.875,63.75-25.375
			s13.25-22,12.5-31.25c-0.462-5.696-1.018-11.1-1.377-14.417h-54.956V197h-16.833v8.666h-33v9.5h-9.333v8.667h-8.667v9h-7.333
			v8.833h-7.833v9.667h-8v3.333l0.893,1.634C76.902,256.989,82.873,257.875,89.135,257.875z"/>
		<path fill="#231F20" d="M115.747,270.984l-0.732-0.818c-0.101-0.112-10.291-11.291-25.879-11.291
			c-6.25,0-12.218-0.866-16.123-1.592l-0.467-0.087l-1.243-2.274v-4.589h8v-9.667h7.833v-8.833h7.333v-9h8.667v-8.667h9.333v-9.5h33
			V196h16.833v-10.667h56.854l0.097,0.893c0.378,3.487,0.924,8.824,1.38,14.443c0.05,0.619,0.104,1.212,0.155,1.785
			c0.733,8.125,1.138,12.6-12.87,30.169c-14.958,18.761-47.521,25.752-64.532,25.752c-15.757,0-26.782,11.688-26.892,11.805
			L115.747,270.984z M73.844,255.402c3.821,0.691,9.436,1.473,15.291,1.473c14.24,0,23.956,8.536,26.636,11.194
			c2.809-2.713,13.197-11.694,27.614-11.694c17.87,0,49.221-7.756,62.968-24.998c13.508-16.942,13.152-20.886,12.442-28.742
			c-0.052-0.58-0.106-1.179-0.157-1.804c-0.416-5.138-0.909-10.04-1.278-13.498h-53.058V198h-16.833v8.666h-33v9.5h-9.333v8.667
			h-8.667v9h-7.333v8.833h-7.833v9.667h-8v2.077L73.844,255.402z"/>
	</g>
	<rect x="156.635" y="167.5" fill="#231F20" width="14.5" height="10"/>
	<rect x="173.385" y="200.875" fill="#231F20" width="28.25" height="18.25"/>
	<rect x="162.885" y="196" fill="#231F20" width="56.125" height="2"/>
	<rect x="146.385" y="204.5" fill="#231F20" width="73.5" height="2"/>
	<rect x="113.385" y="214.125" fill="#231F20" width="104.25" height="2"/>
	<rect x="104.26" y="223" fill="#231F20" width="108.375" height="2"/>
	<rect x="95.135" y="231.75" fill="#231F20" width="111.375" height="2"/>
	<rect x="88.26" y="240.75" fill="#231F20" width="108.375" height="2"/>
	<rect x="80.635" y="250.375" fill="#231F20" width="95.75" height="2"/>
	<rect x="99.885" y="258.375" fill="#231F20" width="32" height="2"/>
	<rect x="181.01" y="186.375" fill="#231F20" width="2" height="10.625"/>
	<rect x="206.135" y="206" fill="#231F20" width="2" height="10.125"/>
	<rect x="163.51" y="215.125" fill="#231F20" width="2" height="8.75"/>
	<rect x="147.385" y="224.75" fill="#231F20" width="2" height="7.625"/>
	<rect x="174.01" y="224.75" fill="#231F20" width="2" height="7.625"/>
	<rect x="200.635" y="224.75" fill="#231F20" width="2" height="7.625"/>
	<rect x="113.51" y="224.75" fill="#231F20" width="2" height="7.625"/>
	<rect x="132.135" y="233.375" fill="#231F20" width="2" height="7.875"/>
	<rect x="158.26" y="233.375" fill="#231F20" width="2" height="7.875"/>
	<rect x="184.385" y="233.375" fill="#231F20" width="2" height="7.875"/>
	<rect x="103.885" y="233.375" fill="#231F20" width="2" height="7.875"/>
	<rect x="143.135" y="242.125" fill="#231F20" width="2" height="9.375"/>
	<rect x="98.885" y="251.125" fill="#231F20" width="2" height="8.25"/>
	<rect x="127.385" y="251.125" fill="#231F20" width="2" height="8.25"/>
	<rect x="153.635" y="251.125" fill="#231F20" width="2" height="5.375"/>
	<g>
		
			<rect x="194.162" y="190.218" transform="matrix(0.7357 0.6773 -0.6773 0.7357 186.0458 -88.3062)" fill="#FAA31B" width="24.005" height="8"/>
		<path fill="#231F20" d="M212.344,206.703l-19.132-17.614l6.773-7.356l19.132,17.614L212.344,206.703z M196.039,188.972
			l16.188,14.905l4.064-4.413l-16.188-14.905L196.039,188.972z"/>
	</g>
	<g>
		
			<rect x="149.162" y="195.466" transform="matrix(0.6773 -0.7357 0.7357 0.6773 -94.7401 182.9249)" fill="#FAA31B" width="24.005" height="8"/>
		<path fill="#231F20" d="M156.036,212.419l-7.356-6.773l17.614-19.132l7.356,6.773L156.036,212.419z M151.505,205.528l4.413,4.064
			l14.905-16.188l-4.413-4.064L151.505,205.528z"/>
	</g>
	<g>
		
			<rect x="122.162" y="214.841" transform="matrix(0.6773 -0.7357 0.7357 0.6773 -117.7057 169.3133)" fill="#FAA31B" width="24.005" height="8"/>
		<path fill="#231F20" d="M129.036,231.794l-7.356-6.773l17.614-19.132l7.356,6.773L129.036,231.794z M124.505,224.903l4.413,4.064
			l14.905-16.188l-4.413-4.064L124.505,224.903z"/>
	</g>
	<g>
		
			<rect x="105.912" y="241.091" transform="matrix(0.6773 -0.7357 0.7357 0.6773 -142.2604 165.8285)" fill="#FAA31B" width="24.005" height="8"/>
		<path fill="#231F20" d="M112.785,258.044l-7.356-6.773l17.614-19.132l7.356,6.773L112.785,258.044z M108.255,251.153l4.414,4.064
			l14.905-16.188l-4.413-4.064L108.255,251.153z"/>
	</g>
	<g>
		<path fill="#FAA31B" d="M180.121,252.135l6.366-6.914l-5.885-5.419l-15.07,16.368
			C169.832,255.274,174.739,253.986,180.121,252.135z"/>
		<path fill="#231F20" d="M162.686,257.784l17.857-19.396l7.356,6.773l-7.215,7.836l-0.239,0.082
			c-4.911,1.689-9.86,3.059-14.71,4.068L162.686,257.784z M180.661,241.215l-12.23,13.283c3.688-0.878,7.417-1.959,11.126-3.227
			l5.518-5.992L180.661,241.215z"/>
	</g>
	<path fill="#231F20" d="M115.51,9.125c-1.378,0-2.5-1.122-2.5-2.5s1.122-2.5,2.5-2.5s2.5,1.122,2.5,2.5S116.889,9.125,115.51,9.125
		z M115.51,5.125c-0.827,0-1.5,0.673-1.5,1.5s0.673,1.5,1.5,1.5s1.5-0.673,1.5-1.5S116.337,5.125,115.51,5.125z"/>
</g>
</svg>
