<?xml version="1.0" encoding="UTF-8" standalone="no"?>
<!-- Generator: Adobe Illustrator 15.0.0, SVG Export Plug-In . SVG Version: 6.00 Build 0)  -->

<svg
   xmlns:dc="http://purl.org/dc/elements/1.1/"
   xmlns:cc="http://creativecommons.org/ns#"
   xmlns:rdf="http://www.w3.org/1999/02/22-rdf-syntax-ns#"
   xmlns:svg="http://www.w3.org/2000/svg"
   xmlns="http://www.w3.org/2000/svg"
   xmlns:xlink="http://www.w3.org/1999/xlink"
   xmlns:sodipodi="http://sodipodi.sourceforge.net/DTD/sodipodi-0.dtd"
   xmlns:inkscape="http://www.inkscape.org/namespaces/inkscape"
   version="1.1"
   id="Layer_1"
   x="0px"
   y="0px"
   width="652.55811"
   height="863.42712"
   viewBox="0 0 652.55811 863.42713"
   enable-background="new 0 0 1140.943 1340.631"
   xml:space="preserve"
   sodipodi:docname="20141118173946!Ness_Ziona_Official_COA.svg"
   inkscape:version="0.92.3 (2405546, 2018-03-11)"><sodipodi:namedview
   pagecolor="#ffffff"
   bordercolor="#666666"
   borderopacity="1"
   objecttolerance="10"
   gridtolerance="10"
   guidetolerance="10"
   inkscape:pageopacity="0"
   inkscape:pageshadow="2"
   inkscape:window-width="1920"
   inkscape:window-height="1001"
   id="namedview253"
   showgrid="false"
   fit-margin-top="0"
   fit-margin-left="0"
   fit-margin-right="0"
   fit-margin-bottom="0"
   inkscape:zoom="0.49790644"
   inkscape:cx="368.18797"
   inkscape:cy="657.27276"
   inkscape:window-x="-9"
   inkscape:window-y="-9"
   inkscape:window-maximized="1"
   inkscape:current-layer="Layer_1"
   inkscape:snap-bbox="true"
   inkscape:bbox-paths="true"
   inkscape:bbox-nodes="true"
   inkscape:snap-bbox-edge-midpoints="true"
   inkscape:snap-bbox-midpoints="true"
   inkscape:snap-intersection-paths="true"
   inkscape:object-paths="true"
   inkscape:snap-smooth-nodes="true"
   inkscape:snap-object-midpoints="true"
   inkscape:snap-center="true" /><metadata
   id="metadata257"><rdf:RDF><cc:Work
       rdf:about=""><dc:format>image/svg+xml</dc:format><dc:type
         rdf:resource="http://purl.org/dc/dcmitype/StillImage" /><dc:title></dc:title></cc:Work></rdf:RDF></metadata><defs
   id="defs255">
	
	
	
	
	
	
	
	
	
	
	
	
	
	
	
	
	
	
	
	
	
	
	
	
	
	
	
	
	
	
	
	
	
	
	
	
	
	
	
	
	
	
	
	
	
	
	
	
	
	
	
	
	
	
	
	
	
	
	
	
	
	
	
	
		
	
	
	
	
	
	
	
	
	
	
	
	
	
	
	
	
	
	
	
	
	
	
	
	
	
	
	
	
	
	
	
	
	
	
	
	
	
	
	
	
	
	
	
	
	

		<defs
   id="defs127">
			<path
   inkscape:connector-curvature="0"
   d="m 608.992,732.037 c 0.84,-8.403 7.89,-10.705 13.724,-16.84 12.329,-12.998 22.593,-16.539 36.463,-27.855 14.475,-11.766 26.24,-15.539 36.097,-31.369 1.477,-2.386 1.99,-3.917 3.517,-6.262 3.5,-5.34 5.663,-8.624 10.99,-12.173 6.356,-4.214 13.12,-0.383 18.815,-5.475 3.288,-2.945 2.75,-6.756 6.283,-9.419 4.258,-3.207 8.109,-4.333 13.332,-3.129 4.308,1.559 7.375,4.716 8.6,9.575 1.338,5.197 -0.229,9.085 -3.59,13.23 -2.774,3.418 -6.594,2.733 -9.62,5.948 -5.067,5.34 -1.134,12.288 -5.817,17.946 -3.705,4.476 -7.49,5.148 -12.451,8.196 -2.595,1.591 -4.104,2.415 -6.723,3.974 -16.76,10.048 -27.596,14.107 -42.086,27.223 -13.275,11.99 -15.698,23.584 -29.112,35.456 -6.331,5.63 -8.86,12.565 -17.322,13.145 -5.401,0.359 -13.552,-0.229 -17.371,-3.721 -4.627,-4.204 -4.374,-11.938 -3.729,-18.45"
   id="SVGID_3_" />
		</defs>
		<clipPath
   id="SVGID_4_">
			<use
   height="100%"
   width="100%"
   y="0"
   x="0"
   style="overflow:visible"
   id="use129"
   overflow="visible"
   xlink:href="#SVGID_3_" />
		</clipPath>
		
	</defs>
<path
   style="fill:none;stroke:#000000;stroke-width:16"
   inkscape:connector-curvature="0"
   id="path1242"
   d="m 644.55,631.581 c 0,77.121 -62.491,136.92 -139.604,136.92 H 392.152 c -41.905,0 -56.461,31.543 -65.73,64.979 -9.269,-33.437 -24.103,-64.979 -66.028,-64.979 H 147.608 C 70.504,768.501 8,706.009 8,628.904 V 8 h 636.558 z"
   sodipodi:nodetypes="csscsssccc" /><path
   d="m 644.558,8 -0.008,623.581 c 0,77.121 -62.491,136.92 -139.604,136.92 H 392.152 c -41.905,0 -56.461,31.543 -65.73,64.979 -9.269,-33.437 -24.103,-64.979 -66.028,-64.979 H 147.608 C 70.504,768.501 8,706.009 8,628.904 V 8 h 636.558"
   id="path2"
   inkscape:connector-curvature="0"
   style="opacity:1;fill:#009549" /><path
   inkscape:transform-center-y="-9.0602702"
   d="m 177.87799,284.86734 7.96902,25.27268 26.49831,-0.2307 -21.57319,15.38867 8.40784,25.1301 -21.30198,-15.76196 -21.30198,15.76196 8.40784,-25.1301 -21.57319,-15.38868 26.49832,0.23071 z"
   inkscape:randomized="0"
   inkscape:rounded="3.46945e-018"
   inkscape:flatsided="false"
   sodipodi:arg2="-0.94247777"
   sodipodi:arg1="-1.5707963"
   sodipodi:r2="13.557697"
   sodipodi:r1="36.241093"
   sodipodi:cy="321.10842"
   sodipodi:cx="177.87799"
   sodipodi:sides="5"
   id="path1228"
   style="opacity:1;vector-effect:none;fill:#faab18;fill-opacity:1;stroke:none;stroke-width:1.49591136;stroke-linecap:round;stroke-linejoin:bevel;stroke-miterlimit:4;stroke-dasharray:none;stroke-dashoffset:130.96063232;stroke-opacity:1;paint-order:normal"
   sodipodi:type="star" /><path
   sodipodi:type="star"
   style="opacity:1;vector-effect:none;fill:#faab18;fill-opacity:1;stroke:none;stroke-width:1.49591136;stroke-linecap:round;stroke-linejoin:bevel;stroke-miterlimit:4;stroke-dasharray:none;stroke-dashoffset:130.96063232;stroke-opacity:1;paint-order:normal"
   id="path1240"
   sodipodi:sides="5"
   sodipodi:cx="459.21513"
   sodipodi:cy="322.22344"
   sodipodi:r1="36.241093"
   sodipodi:r2="13.557697"
   sodipodi:arg1="-1.5707963"
   sodipodi:arg2="-0.94247777"
   inkscape:flatsided="false"
   inkscape:rounded="3.46945e-018"
   inkscape:randomized="0"
   d="m 459.21512,285.98236 7.96901,25.27268 26.49832,-0.2307 -21.5732,15.38867 8.40785,25.1301 -21.30198,-15.76196 -21.30198,15.76196 8.40784,-25.1301 -21.57319,-15.38867 26.49831,0.2307 z"
   inkscape:transform-center-y="-9.0602702" /><path
   sodipodi:type="star"
   style="opacity:1;vector-effect:none;fill:#faab18;fill-opacity:1;stroke:none;stroke-width:1.49591136;stroke-linecap:round;stroke-linejoin:bevel;stroke-miterlimit:4;stroke-dasharray:none;stroke-dashoffset:130.96063232;stroke-opacity:1;paint-order:normal"
   id="path1238"
   sodipodi:sides="5"
   sodipodi:cx="587.15199"
   sodipodi:cy="496.23742"
   sodipodi:r1="36.241093"
   sodipodi:r2="13.557697"
   sodipodi:arg1="-1.5707963"
   sodipodi:arg2="-0.94247777"
   inkscape:flatsided="false"
   inkscape:rounded="3.46945e-018"
   inkscape:randomized="0"
   d="m 587.15198,459.99633 7.96901,25.27269 26.49832,-0.23071 -21.5732,15.38868 8.40785,25.1301 -21.30198,-15.76197 -21.30198,15.76197 8.40784,-25.1301 -21.57319,-15.38868 26.49831,0.23071 z"
   inkscape:transform-center-y="-9.0602702" /><path
   sodipodi:type="star"
   style="opacity:1;vector-effect:none;fill:#faab18;fill-opacity:1;stroke:none;stroke-width:1.49591136;stroke-linecap:round;stroke-linejoin:bevel;stroke-miterlimit:4;stroke-dasharray:none;stroke-dashoffset:130.96063232;stroke-opacity:1;paint-order:normal"
   id="path1236"
   sodipodi:sides="5"
   sodipodi:cx="561.84199"
   sodipodi:cy="663.92642"
   sodipodi:r1="36.241093"
   sodipodi:r2="13.557697"
   sodipodi:arg1="-1.5707963"
   sodipodi:arg2="-0.94247777"
   inkscape:flatsided="false"
   inkscape:rounded="3.46945e-018"
   inkscape:randomized="0"
   d="m 561.84198,627.6853 7.96901,25.27268 26.49832,-0.2307 -21.57319,15.38867 8.40784,25.1301 -21.30198,-15.76196 -21.30198,15.76196 8.40784,-25.1301 -21.57319,-15.38867 26.49832,0.2307 z"
   inkscape:transform-center-y="-9.0602702" /><path
   sodipodi:type="star"
   style="opacity:1;vector-effect:none;fill:#faab18;fill-opacity:1;stroke:none;stroke-width:1.49591136;stroke-linecap:round;stroke-linejoin:bevel;stroke-miterlimit:4;stroke-dasharray:none;stroke-dashoffset:130.96063232;stroke-opacity:1;paint-order:normal"
   id="path1234"
   sodipodi:sides="5"
   sodipodi:cx="327.68897"
   sodipodi:cy="743.3074"
   sodipodi:r1="36.241093"
   sodipodi:r2="13.557697"
   sodipodi:arg1="-1.5707963"
   sodipodi:arg2="-0.94247777"
   inkscape:flatsided="false"
   inkscape:rounded="3.46945e-018"
   inkscape:randomized="0"
   d="m 327.68897,707.06628 7.96901,25.27269 26.49831,-0.23071 -21.57319,15.38867 8.40784,25.1301 -21.30198,-15.76196 -21.30198,15.76196 8.40785,-25.1301 -21.57319,-15.38867 26.49831,0.23071 z"
   inkscape:transform-center-y="-9.0602702" /><path
   stroke-miterlimit="3.864"
   d="m 644.558,8 -0.008,623.581 c 0,77.121 -62.491,136.92 -139.604,136.92 H 392.152 c -41.905,0 -56.461,31.543 -65.73,64.979 -9.269,-33.437 -24.103,-64.979 -66.028,-64.979 H 147.608 C 70.504,768.501 8,706.009 8,628.904 V 8 Z"
   id="path4"
   inkscape:connector-curvature="0"
   style="fill:none;stroke:#231f20;stroke-width:1.50170004;stroke-miterlimit:3.86400008" /><path
   sodipodi:nodetypes="cccccccccccccc"
   d="M 58.82,62.328 C 164.84807,35.599233 280.31109,27.550311 369.421,51.819 c 43.8336,7.908179 60.17417,37.326503 81.56,66.983 46.07378,12.44047 91.60558,-48.935972 125.497,-65.885 22.789,-11.19 36.83,-15.821 61.807,-20.382 v 169.401 c -28.035,5.055 -43.799,10.028 -69.656,21.961 -26.957,12.451 -36.822,29.54 -64.303,40.779 -25.546,10.448 -41.473,14.046 -69.026,15.682 l -48.629,-108.24 c -19.843,-4.439 -31.437,-5.851 -51.762,-6.275 C 224.62652,167.7419 127.91418,231.7357 52.547,283.495 34.483,295.889 24.455,303.126 7.064,316.434 L 58.82,62.328"
   id="path6"
   inkscape:connector-curvature="0"
   style="fill:#ffffff;stroke:#000000;stroke-width:3;stroke-opacity:1" /><g
   transform="translate(-242.712,-236.716)"
   id="g30">
		<defs
   id="defs9">
			<path
   id="SVGID_1_"
   d="m 301.532,299.044 c 57.89,-15.976 92.126,-22.487 152.169,-23.519 63.528,-1.098 95.035,-4.732 158.432,13.01 19.606,5.503 37.043,13.002 53.329,30.887 12.549,13.83 18.832,27.945 28.231,36.096 23.629,20.463 47.617,-14.213 73.735,-31.372 21.956,-14.442 29.984,-23.825 51.762,-34.513 22.789,-11.19 36.83,-15.821 61.807,-20.382 v 169.401 c -28.035,5.055 -43.799,10.028 -69.656,21.961 -26.957,12.451 -36.822,29.54 -64.303,40.779 -25.546,10.448 -41.473,14.046 -69.026,15.682 l -48.629,-108.24 c -19.843,-4.439 -31.437,-5.851 -51.762,-6.275 -42.342,-0.856 -66.208,7.898 -106.669,20.411 -74.82,23.111 -111.067,53.006 -175.693,97.241 -18.064,12.394 -28.092,19.631 -45.483,32.939 l 51.756,-254.106"
   inkscape:connector-curvature="0" />
		</defs>
		<clipPath
   id="SVGID_2_">
			<use
   xlink:href="#SVGID_1_"
   overflow="visible"
   id="use11"
   style="overflow:visible"
   x="0"
   y="0"
   width="100%"
   height="100%" />
		</clipPath>
		<path
   style="fill:#0752ad;fill-opacity:1"
   clip-path="url(#SVGID_2_)"
   d="m 695.47798,466.182 c 0.98545,-8.35069 5.32568,-22.07174 2.53902,-24.384 l -51.80226,0.783 11.79726,25.563 z"
   id="polygon14"
   inkscape:connector-curvature="0"
   sodipodi:nodetypes="ccccc" />
		
		
		<path
   clip-path="url(#SVGID_2_)"
   stroke-miterlimit="3.864"
   d="m 295.257,335.128 c 57.829,-17.677 91.942,-24.368 152.169,-29.802 112.33073,-8.6929 180.61349,-10.0051 236.867,56.462 5.605,6.633 8.714,10.432 14.115,17.257 37.32123,0 53.61894,-20.45047 73.22695,-34.46592 C 807.95759,315.401 838.10205,295.906 879.577,295.906 v 28.239 c -55.00335,0 -82.0319,36.83734 -121.557,59.602 -20.676,11.411 -34.488,15.519 -58.045,17.273 -15.592,-25.473 -29.006,-38.512 -54.911,-53.357 -63.4453,-33.33052 -143.90128,-20.10322 -202.352,-12.537 -62.108,8.131 -97.07,15.816 -156.857,34.505 z"
   id="path20"
   inkscape:connector-curvature="0"
   style="fill:#0752ad;fill-opacity:1;stroke:#00adee;stroke-width:0.1881;stroke-miterlimit:3.86400008"
   sodipodi:nodetypes="ccccccccccccc" />
		
		<path
   clip-path="url(#SVGID_2_)"
   stroke-miterlimit="3.864"
   d="m 696.043,466.961 c 8.877,0.608 14.46095,1.57987 22.747,-1.644 41.02822,-15.96294 72.78838,-54.57608 108.241,-69.022 19.876,-7.841 32.042,-10.697 53.329,-12.545 v 28.231 c -24.674,3.761 -38.643,8.065 -61.17,18.823 -24.22487,9.97044 -41.65497,29.4222 -61.17,40.788 -24.429,14.124 -42.31055,19.83883 -70.41155,22.18883 z"
   id="path24"
   inkscape:connector-curvature="0"
   style="fill:#0752ad;fill-opacity:1;stroke:none;stroke-width:0.1881;stroke-miterlimit:3.86400008"
   sodipodi:nodetypes="csccccccc" />
		
		<path
   clip-path="url(#SVGID_2_)"
   stroke-miterlimit="3.864"
   d="m 700.081,426.336 c -20.097,-28.002 -37.328,-41.771 -69.133,-55.124 -78.58913,-26.96165 -169.27653,5.61205 -233.721,28.231 -52.97,18.668 -82.253,31.56 -131.764,58.033 l -7.841,42.346 c 104.47205,-61.17976 236.03633,-132.80071 351.369,-116.074 38.659,6.63 61.236,17.168 91.09,42.588 z"
   id="path28"
   inkscape:connector-curvature="0"
   style="fill:#0752ad;fill-opacity:1;stroke:#00adee;stroke-width:0.1881;stroke-miterlimit:3.86400008"
   sodipodi:nodetypes="ccccccc" />
	</g><path
   stroke-miterlimit="3.864"
   d="m 386.669,172.119 c 13.447,2.664 20.969,4.858 33.73,9.901 14.768,5.822 22.854,10.036 36.08,18.819 m -5.498,-82.037 c 6.25336,2.819 6.53941,54.565 5.498,88.303 -3.981,29.646 -8.934,46.475 -21.572,73.563"
   id="path34"
   inkscape:connector-curvature="0"
   style="fill:none;stroke:#231f20;stroke-width:2;stroke-miterlimit:3.86400008"
   sodipodi:nodetypes="cccccc" /><path
   sodipodi:type="star"
   style="opacity:1;vector-effect:none;fill:#faab18;fill-opacity:1;stroke:none;stroke-width:1.49591136;stroke-linecap:round;stroke-linejoin:bevel;stroke-miterlimit:4;stroke-dasharray:none;stroke-dashoffset:130.96063232;stroke-opacity:1;paint-order:normal"
   id="path1232"
   sodipodi:sides="5"
   sodipodi:cx="94.824015"
   sodipodi:cy="663.92642"
   sodipodi:r1="36.241093"
   sodipodi:r2="13.557697"
   sodipodi:arg1="-1.5707963"
   sodipodi:arg2="-0.94247777"
   inkscape:flatsided="false"
   inkscape:rounded="3.46945e-018"
   inkscape:randomized="0"
   d="m 94.824014,627.6853 7.969016,25.27268 26.49831,-0.2307 -21.57319,15.38867 8.40784,25.1301 -21.301978,-15.76196 -21.30198,15.76196 8.407844,-25.1301 -21.57319,-15.38867 26.498313,0.2307 z"
   inkscape:transform-center-y="-9.0602702" /><path
   sodipodi:type="star"
   style="opacity:1;vector-effect:none;fill:#faab18;fill-opacity:1;stroke:none;stroke-width:1.49591136;stroke-linecap:round;stroke-linejoin:bevel;stroke-miterlimit:4;stroke-dasharray:none;stroke-dashoffset:130.96063232;stroke-opacity:1;paint-order:normal"
   id="path1230"
   sodipodi:sides="5"
   sodipodi:cx="70.099997"
   sodipodi:cy="494.40209"
   sodipodi:r1="36.241093"
   sodipodi:r2="13.557697"
   sodipodi:arg1="-1.5707963"
   sodipodi:arg2="-0.94247777"
   inkscape:flatsided="false"
   inkscape:rounded="3.46945e-018"
   inkscape:randomized="0"
   d="m 70.099999,458.16101 7.969014,25.27268 26.498317,-0.2307 -21.573195,15.38867 8.407842,25.1301 -21.301979,-15.76196 -21.30198,15.76196 8.407844,-25.1301 -21.573191,-15.38867 26.498313,0.2307 z"
   inkscape:transform-center-y="-9.0602702" /><rect
   x="308.62698"
   y="550.63397"
   width="35.287998"
   height="64.303001"
   id="rect50"
   style="fill:#ffffff" /><path
   stroke-miterlimit="3.864"
   d="m 308.627,550.625 m 35.305,0 h -35.301 v 64.312 h 35.301 z"
   id="path52"
   inkscape:connector-curvature="0"
   style="fill:none;stroke:#231f20;stroke-width:0.53219998;stroke-miterlimit:3.86400008" /><path
   d="m 325.092,550.625 m 18.84,0 h -18.824 v 64.312 h 18.823 v -64.312 z"
   id="path54"
   inkscape:connector-curvature="0"
   style="fill:#231f20" /><path
   stroke-miterlimit="3.864"
   d="m 325.092,550.625 m 18.84,0 h -18.824 v 64.312 h 18.823 v -64.312 z"
   id="path56"
   inkscape:connector-curvature="0"
   style="fill:none;stroke:#231f20;stroke-width:0.53219998;stroke-miterlimit:3.86400008" /><path
   d="m 326.275,534.159 c 8.306,-52.414 24.021,-83.676 61.178,-121.568 17.265,-17.612 28.704,-26.366 50.203,-38.421 -7.531,-33.641 -14.898,-52.509 -32.163,-82.351 -23.213,-40.123 -41.922,-61.092 -79.218,-88.622 -32.963,22.683 -49.763,40.029 -71.373,73.707 -22.104,34.489 -30.997,57.641 -37.639,98.053 25.033,13.25 38.316,23.621 57.253,44.696 32.752,36.459 46.031,65.828 51.759,114.506"
   id="path58"
   inkscape:connector-curvature="0"
   style="fill:#ffffff;stroke:#000000;stroke-width:3" /><path
   d="m 252.553,338.865 c 0,-19.921 16.147,-36.076 36.08,-36.076 19.925,0 36.084,16.155 36.084,36.076 0,19.937 -16.159,36.092 -36.084,36.092 -19.933,0 -36.08,-16.155 -36.08,-36.092 z"
   id="path62"
   inkscape:connector-curvature="0"
   style="fill:#f27021" /><path
   stroke-miterlimit="3.864"
   d="m 252.553,338.865 c 0,-19.921 16.147,-36.076 36.08,-36.076 19.925,0 36.084,16.155 36.084,36.076 0,19.937 -16.159,36.092 -36.084,36.092 -19.933,0 -36.08,-16.155 -36.08,-36.092 z"
   id="path64"
   inkscape:connector-curvature="0"
   style="fill:none;stroke:#f27021;stroke-width:0.1881;stroke-miterlimit:3.86400008" /><path
   d="m 351.373,335.756 c 0,-17.351 13.006,-31.388 29.022,-31.388 16.033,0 29.022,14.038 29.022,31.388 0,17.29 -12.99,31.36 -29.022,31.36 -16.016,0 -29.022,-14.071 -29.022,-31.36 z"
   id="path66"
   inkscape:connector-curvature="0"
   style="fill:#f27021" /><path
   stroke-miterlimit="3.864"
   d="m 351.373,335.756 c 0,-17.351 13.006,-31.388 29.022,-31.388 16.033,0 29.022,14.038 29.022,31.388 0,17.29 -12.99,31.36 -29.022,31.36 -16.016,0 -29.022,-14.071 -29.022,-31.36 z"
   id="path68"
   inkscape:connector-curvature="0"
   style="fill:none;stroke:#f27021;stroke-width:0.1881;stroke-miterlimit:3.86400008" /><path
   d="m 305.881,403.967 c 0,-17.763 14.748,-32.156 32.959,-32.156 18.179,0 32.931,14.393 32.931,32.156 0,17.754 -14.752,32.159 -32.931,32.159 -18.211,0 -32.959,-14.404 -32.959,-32.159 z"
   id="path70"
   inkscape:connector-curvature="0"
   style="fill:#f27021" /><path
   stroke-miterlimit="3.864"
   d="m 305.881,403.967 c 0,-17.763 14.748,-32.156 32.959,-32.156 18.179,0 32.931,14.393 32.931,32.156 0,17.754 -14.752,32.159 -32.931,32.159 -18.211,0 -32.959,-14.404 -32.959,-32.159 z"
   id="path72"
   inkscape:connector-curvature="0"
   style="fill:none;stroke:#f27021;stroke-width:0.1881;stroke-miterlimit:3.86400008" /><path
   d="m 298.828,266.725 c -3.958,-9.008 -3.219,-17.004 2.346,-25.106 6.646,-9.632 16.959,-13.336 28.243,-10.191 3.068,7.343 2.562,13.561 -1.575,20.39 -2.733,4.503 -5.744,7.257 -10.052,8.971 -1.24,0.481 -2.579,0.885 -4.063,1.212 z"
   id="path74"
   inkscape:connector-curvature="0"
   style="fill:#00a551;stroke:#231f20;stroke-width:1;stroke-opacity:1" /><path
   sodipodi:nodetypes="ccccc"
   d="m 348.231,308.284 c 5.54,-6.65 6.584,-14.022 3.142,-21.961 -3.199,-7.417 -8.47,-11.431 -16.466,-12.544 l -17.118,-12.99 c 0.16859,23.46576 7.298,39.92756 30.442,47.495 z"
   id="path78"
   inkscape:connector-curvature="0"
   style="fill:#00a551;stroke:#231f20;stroke-width:1;stroke-opacity:1" /><path
   sodipodi:nodetypes="cccc"
   d="m 381.84963,263.22834 c -4.73098,0.66251 -9.44642,14.63762 -11.64563,22.30766 -4.112,14.34 -4.716,36.872 10.191,36.872 19.32895,-6.582 9.99851,-58.97758 1.45463,-59.17966 z"
   id="path82"
   inkscape:connector-curvature="0"
   style="fill:#00a551;stroke:#231f20;stroke-opacity:1" /><path
   sodipodi:nodetypes="ccc"
   stroke-miterlimit="3.864"
   d="m 329.416,231.428 c -7.335,5.014 -11.227,8.372 -17.257,14.899 -5.94,6.425 -8.94798,12.80215 -13.34498,20.36615"
   id="path86"
   inkscape:connector-curvature="0"
   style="fill:none;stroke:#231f20;stroke-width:1;stroke-miterlimit:3.86400008" /><path
   d="m 337.257,382.798 c -10.999,-11.178 -15.054,-21.997 -14.115,-37.663 0.702,-11.786 3.525,-19.06 10.974,-28.219 10.999,6.409 16.473,14.152 18.839,26.652 3.052,16.204 -2.316,29.61 -15.698,39.23 z"
   id="path88"
   inkscape:connector-curvature="0"
   style="fill:#00a551;stroke:#231f20;stroke-width:1;stroke-opacity:1" /><path
   d="m 290.199,326.336 c -7.837,-17.281 -13.153,-24.56 -7.837,-39.23 5.34,-14.715 15.825,-23.115 31.364,-25.105 5.614,11.643 6.438,20.476 3.141,32.947 -4.112,15.531 -12.006,24.836 -26.668,31.388 z"
   id="path92"
   inkscape:connector-curvature="0"
   style="fill:#00a551;stroke:#231f20;stroke-width:1;stroke-opacity:1" /><path
   sodipodi:nodetypes="ccccccc"
   d="m 328.821,234.174 c -2.72257,12.791 -0.73695,31.1817 6.086,39.605 6.136,7.351 12.411,10.354 21.965,10.978 3.672,0.232 6.217,1.048 9.408,-0.787 13.7151,-12.3626 -2.60144,-27.82695 -10.199,-35.285 -8.755,-8.759 -26.264,-22.161 -26.664,-17.257 -0.123,1.514 -0.27,1.379 -0.596,2.746 z"
   id="path96"
   inkscape:connector-curvature="0"
   style="fill:#00a551" /><path
   sodipodi:nodetypes="ccccccc"
   stroke-miterlimit="3.864"
   d="m 328.821,234.174 c -2.72257,12.791 -0.73695,31.1817 6.086,39.605 6.136,7.351 12.411,10.354 21.965,10.978 3.672,0.232 7.01584,0.64858 9.408,-0.787 13.7151,-12.3626 -2.60144,-27.82695 -10.199,-35.285 -8.755,-8.759 -26.264,-22.161 -26.664,-17.257 -0.123,1.514 -0.27,1.379 -0.596,2.746 z"
   id="path98"
   inkscape:connector-curvature="0"
   style="fill:none;stroke:#231f20;stroke-width:1;stroke-miterlimit:3.86400008" /><path
   sodipodi:nodetypes="ccccccccccccccc"
   stroke-miterlimit="3.864"
   d="m 317.79,260.789 c 5.107,11.811 9.268,17.913 16.326,28.683 5.05,7.658 8.175,11.827 14.115,18.812 M 330.395,230.64 c 1.64,14.405 5.1,22.98 13.911,34.518 6.87,8.947 12.076,13.414 21.973,18.812 m 16.27,-20.574 c -1.159,12.594 -1.812,19.725 -2.929,32.339 -0.946,10.403 -1.452,16.273 -2.358,26.672 m -43.921,-5.491 c 4.031,12.112 5.467,19.407 6.267,32.155 0.849,13.157 0.31,20.814 -2.35,33.726 M 313.726,262.001 c -6.543,9.987 -9.709,17.146 -14.12,28.238 -5.364,13.512 -7.502,21.671 -9.407,36.097"
   id="path100"
   inkscape:connector-curvature="0"
   style="fill:none;stroke:#231f20;stroke-width:1;stroke-miterlimit:3.86400008" /><path
   d="m 326.275,554.557 c 3.117,-67.289 -18.309,-115.159 -70.581,-157.652 -46.989,-38.181 -89.943,-49.881 -149.815,-40.78 -0.971,58.897 14.621,98.176 55.69,140.387 47.503,48.793 93.333,55.688 164.706,58.045"
   id="path102"
   inkscape:connector-curvature="0"
   style="fill:#ffffff;stroke:#000000;stroke-width:3" /><polygon
   transform="translate(-242.712,-236.716)"
   points="401.14,684.607 420.75,661.844 536.835,768.525 554.872,749.711 432.52,650.882 447.427,635.188 420.75,615.589 387.812,655.578 "
   id="polygon106"
   style="fill:#7d231b;fill-opacity:1" /><path
   d="m 192.554,516.111 17.252,-21.948 c 6.715,2.774 10.819,3.835 18.036,4.708 8.792,1.036 14.03,0.8 22.667,-1.102 l 8.122,8.551 -7.253,2.741 1.571,14.107 h -22.74 l -0.792,-11.749 -8.628,-0.8 -9.416,14.915 z"
   id="path110"
   inkscape:connector-curvature="0"
   style="fill:#231f20" /><path
   stroke-miterlimit="3.864"
   d="m 192.554,516.111 17.252,-21.948 c 6.715,2.774 10.819,3.835 18.036,4.708 8.792,1.036 14.03,0.8 22.667,-1.102 l 8.122,8.551 -7.253,2.741 1.571,14.107 h -22.74 l -0.792,-11.749 -8.628,-0.8 -9.416,14.915 z"
   id="path112"
   inkscape:connector-curvature="0"
   style="fill:none;stroke:#231f20;stroke-width:0.1881;stroke-miterlimit:3.86400008" /><path
   d="m 265.48,416.381 -12.605,24.922 c 5.413,4.851 8.135,8.131 11.892,14.364 4.333,7.188 6.136,11.835 7.78,20.071 l 9.815,5.883 1.583,-8.934 13.45,-4.557 -9.607,-20.603 -10.986,4.251 -4.361,-7.475 9.538,-14.828 z"
   id="path114"
   inkscape:connector-curvature="0"
   style="fill:#231f20" /><path
   stroke-miterlimit="3.864"
   d="m 265.48,416.381 -12.605,24.922 c 5.413,4.851 8.135,8.131 11.892,14.364 4.333,7.188 6.136,11.835 7.78,20.071 l 9.815,5.883 1.583,-8.934 13.45,-4.557 -9.607,-20.603 -10.986,4.251 -4.361,-7.475 9.538,-14.828 z"
   id="path116"
   inkscape:connector-curvature="0"
   style="fill:none;stroke:#231f20;stroke-width:0.1881;stroke-miterlimit:3.86400008" /><path
   d="m 326.275,554.557 c -3.108,-67.289 18.31,-115.159 70.594,-157.652 46.981,-38.181 89.939,-49.881 149.803,-40.78 0.979,58.897 -14.604,98.176 -55.694,140.387 -47.496,48.793 -93.326,55.688 -164.703,58.045"
   id="path118"
   inkscape:connector-curvature="0"
   style="fill:#ffffff;stroke:#000000;stroke-width:3" /><path
   stroke-miterlimit="3.864"
   d="m 483.536,434.952 9.016,12.152 20.789,-14.895 4.709,3.521 m -22.741,-14.51 18.807,-0.392 9.424,-14.115 9.408,0.775 m -19.99,-15.172 c 4.586,1.925 8.6,1.521 12.704,-1.318 2.651,-1.819 3.957,-3.504 5.001,-6.552 l 5.68,1.607 m -30.059,-0.917 c -0.938,-4.875 0.301,-8.727 3.916,-12.153 2.334,-2.211 4.275,-3.104 7.457,-3.521 l -0.407,-5.871 m -41.172,36.443 0.792,-18.427 15.682,-9.795 0.783,-8.22 m -30.981,44.695 -12.949,-12.162 13.341,-10.595 0.783,-8.225"
   id="path122"
   inkscape:connector-curvature="0"
   style="fill:none;stroke:#231f20;stroke-width:2;stroke-miterlimit:3.86400008" /><path
   d="m 366.28,495.321 c 0.84,-8.403 7.89,-10.705 13.724,-16.84 12.329,-12.998 22.593,-16.539 36.463,-27.855 14.475,-11.766 26.24,-15.539 36.097,-31.369 1.477,-2.386 1.99,-3.917 3.517,-6.262 3.5,-5.34 5.663,-8.624 10.99,-12.173 6.356,-4.214 13.12,-0.383 18.815,-5.475 3.288,-2.945 2.75,-6.756 6.283,-9.419 4.258,-3.207 8.109,-4.333 13.332,-3.129 4.308,1.559 7.375,4.716 8.6,9.575 1.338,5.197 -0.229,9.085 -3.59,13.23 -2.774,3.418 -6.594,2.733 -9.62,5.948 -5.067,5.34 -1.134,12.288 -5.817,17.946 -3.705,4.476 -7.49,5.148 -12.451,8.196 -2.595,1.591 -4.104,2.415 -6.723,3.974 -16.76,10.048 -27.596,14.107 -42.086,27.223 -13.275,11.99 -15.698,23.584 -29.112,35.456 -6.331,5.63 -8.86,12.565 -17.322,13.145 -5.401,0.359 -13.552,-0.229 -17.371,-3.721 -4.627,-4.204 -4.374,-11.938 -3.729,-18.45"
   id="path124"
   inkscape:connector-curvature="0"
   style="fill:#231f20" /><path
   transform="translate(-242.712,-236.716)"
   style="fill:none;stroke:#ffffff;stroke-width:0.5;stroke-miterlimit:3.86400008"
   inkscape:connector-curvature="0"
   id="path132"
   d="m 720.357,630.496 c 5.891,3.203 9.057,5.405 14.115,9.795 5.482,4.753 8.322,7.85 12.564,13.74 m -50.194,-5.89 c 7.327,3.129 11.301,5.65 17.248,10.962 6.643,5.944 9.89,10.13 13.985,18.04 m -57.897,-5.475 c 5.875,3.215 9.04,5.409 14.115,9.795 5.482,4.752 8.307,7.845 12.549,13.724 m -45.104,-9.029 c 5.875,3.223 9.041,5.418 14.116,9.824 5.482,4.744 8.306,7.832 12.549,13.724 m -45.105,-5.1 c 5.891,3.215 9.057,5.417 14.115,9.791 5.483,4.757 8.323,7.857 12.565,13.74 m -41.579,-8.632 c 5.883,3.215 9.057,5.418 14.115,9.8 5.483,4.74 8.306,7.841 12.549,13.731"
   stroke-miterlimit="3.864"
   clip-path="url(#SVGID_4_)" /><path
   stroke-miterlimit="3.864"
   d="m 366.28,495.321 c 0.84,-8.403 7.89,-10.705 13.724,-16.84 12.329,-12.998 22.593,-16.539 36.463,-27.855 14.475,-11.766 26.24,-15.539 36.097,-31.369 1.477,-2.386 1.99,-3.917 3.517,-6.262 3.5,-5.34 5.663,-8.624 10.99,-12.173 6.356,-4.214 13.12,-0.383 18.815,-5.475 3.288,-2.945 2.75,-6.756 6.283,-9.419 4.258,-3.207 8.109,-4.333 13.332,-3.129 4.308,1.559 7.375,4.716 8.6,9.575 1.338,5.197 -0.229,9.085 -3.59,13.23 -2.774,3.418 -6.594,2.733 -9.62,5.948 -5.067,5.34 -1.134,12.288 -5.817,17.946 -3.705,4.476 -7.49,5.148 -12.451,8.196 -2.595,1.591 -4.104,2.415 -6.723,3.974 -16.76,10.048 -27.596,14.107 -42.086,27.223 -13.275,11.99 -15.698,23.584 -29.112,35.456 -6.331,5.63 -8.86,12.565 -17.322,13.145 -5.401,0.359 -13.552,-0.229 -17.371,-3.721 -4.627,-4.204 -4.374,-11.938 -3.729,-18.45 z"
   id="path136"
   inkscape:connector-curvature="0"
   style="fill:none;stroke:#231f20;stroke-width:0.0474;stroke-miterlimit:3.86400008" /><path
   d="m 425.76,453.09 c 20.471,-13.3 26.003,-26.481 35.011,-47.748 -27.121,-7.253 -41.106,4.928 -61.667,15.515 -27.529,14.193 -38.316,33.303 -45.79,62.618 30.533,-2.677 43.962,-11.864 72.446,-30.385 z"
   id="path138"
   inkscape:connector-curvature="0"
   style="fill:#ecc21b;stroke:#231f20;stroke-width:1.5;stroke-opacity:1" /><path
   sodipodi:nodetypes="ccccccccccccccccccccccccccccccccccc"
   stroke-miterlimit="3.864"
   d="m 405.289,453.38 c -2.464,11.324 -12.157,14.045 -16.531,21.951 m 37.386,-41.391 c -2.791,1.321 -6.968,1.725 -8.779,4.553 -2.725,4.021 -1.722,8.86 -5.605,11.365 -4.316,2.904 -24.013,11.248 -27.66,9.399 m 54.21395,-42.03319 c -1.83725,3.21357 -3.01495,12.83219 -3.14595,15.53319 -0.204,3.736 2.97,6.69 4.521,9.073 m -0.197,-28.182 c -2.464,11.326 -14.05,13.797 -14.646,25.241 -0.131,2.493 -0.221,4.145 -0.343,6.649 -0.4,7.486 -7.327,8.371 -10.844,16.099 m -31.2,6.706 c -1.395,2.632 -4.6156,5.3524 -6.9976,6.9024 M 404.913,444.363 c -2.497,-0.339 -5.353,-0.143 -7.849,-0.269 -12.271,-0.645 -28.247,11.843 -36.235,17.061 m 47.658,-28.329 c 1.265,3.818 1.566,1.954 1.346,6.091 -0.302,5.83 -11.66,7.734 -14.646,9.244 -4.292,2.285 -4.471,5.594 -7.956,8.747 -4.61,4.141 -9.391,3.88 -14.531,6.739 -10.085,5.52 -11.488,7.793 -18.383,16.188 m 32.336,-43.785 c -5.336,2.215 -6.021,7.379 -10.542,10.275 0,0 -2.505,1.396 -4.251,1.453 -1.354,0.028 -2.08,-0.412 -3.427,-0.674 m 61.70853,-29.86976 c -8.143,0.221 -10.45953,4.91076 -15.54253,10.27976 -4.854,5.169 -12.198,10.191 -23.85,9.583 -2.268,-0.126 -9.179,-3.606 -9.791,-3.839 m 74.429,-28.618 c -13.038,2.448 -15.503,13.357 -28.574,12.684 -5.206,-0.29 -7.5902,-2.96436 -14.15202,-3.8645"
   id="path142"
   inkscape:connector-curvature="0"
   style="fill:none;stroke:#231f20;stroke-width:2;stroke-miterlimit:3.86400008" /><path
   stroke-miterlimit="3.864"
   d="m 425.76,453.09 c 20.471,-13.3 26.003,-26.481 35.011,-47.748 -27.121,-7.253 -41.106,4.928 -61.667,15.515 -27.529,14.193 -38.316,33.303 -45.79,62.618 30.533,-2.677 43.962,-11.864 72.446,-30.385 z"
   id="path140"
   inkscape:connector-curvature="0"
   style="fill:none;stroke:#231f20;stroke-width:0.0489;stroke-miterlimit:3.86400008" /><path
   d="m 465.944,488.86 c 17.543,-16.955 20.749,-32.209 24.967,-55.609 -28.018,-1.955 -39.115,14.73 -57.277,29.047 -24.322,19.178 -30.695,40.049 -33.004,70.205 29.504,-8.257 40.886,-20.031 65.314,-43.643 z"
   id="path144"
   inkscape:connector-curvature="0"
   style="fill:#ecc21b;stroke:#231f20;stroke-width:1.5;stroke-opacity:1" /><path
   stroke-miterlimit="3.864"
   d="m 465.944,488.86 c 17.543,-16.955 20.749,-32.209 24.967,-55.609 -28.018,-1.955 -39.115,14.73 -57.277,29.047 -24.322,19.178 -30.695,40.049 -33.004,70.205 29.504,-8.257 40.886,-20.031 65.314,-43.643 z"
   id="path146"
   inkscape:connector-curvature="0"
   style="fill:none;stroke:#231f20;stroke-width:0.0489;stroke-miterlimit:3.86400008" /><path
   sodipodi:nodetypes="ccccccccccccccccccccccccccccccccccc"
   stroke-miterlimit="3.864"
   d="m 445.384,493.624 c -0.254,11.611 -8.73,15.218 -11.521,23.801 m 28.802,-47.438 c -2.48,1.82 -6.52,3.02 -7.76,6.128 -1.885,4.472 0.008,9.04 -3.32,12.23 -3.688,3.68 -21.427,15.642 -25.359,14.491 m 45.20581,-51.71271 c -0.719,2.423 -0.51881,13.29071 -0.15181,15.97471 0.522,3.705 4.227,6.014 6.169,8.021 m -5.548,-27.603 c -0.262,11.578 -11.17,16.237 -9.571,27.563 0.351,2.472 0.571,4.12 0.922,6.601 1.044,7.417 -5.589,8.657 -7.588,16.914 m -29.324,13.487 c -0.865,2.855 -5.91446,6.39939 -5.05937,12.75079 M 443.719,484.544 c -2.488,0.139 -5.197,0.611 -7.669,0.945 -12.158,1.723 -25.466,17.045 -32.311,23.67 m 41.383,-36.92 c 1.959,3.517 1.901,1.624 2.48,5.752 0.808,5.777 -9.971,9.791 -12.614,11.855 -3.786,3.061 -3.313,6.356 -6.152,10.109 -3.712,4.92 -8.453,5.605 -12.965,9.399 -8.853,7.319 -9.522,9.954 -14.695,19.509 m 23.124,-49.28 c -4.814,3.206 -4.487,8.412 -8.388,12.116 0,0 -2.219,1.746 -3.9,2.22 -1.803,0.506 -2.938,0.016 -4.814,0.049 m 56.38049,-41.24652 c -7.963,1.754 -9.51449,6.91152 -13.47949,13.15852 -3.778,5.977 -10.028,12.332 -21.565,13.955 -2.276,0.303 -9.718,-1.795 -10.362,-1.908 m 71.794,-45.399 c -12.338,4.888 -16.842,19.187 -29.814,21.014 -5.173,0.715 -9.896,-1.558 -16.963,-0.99"
   id="path148"
   inkscape:connector-curvature="0"
   style="fill:none;stroke:#231f20;stroke-width:2;stroke-miterlimit:3.86400008" /><path
   d="m 326.356,693.795 c 36.456,1.771 98.939,-10.909 140.42,-36.757 l -10.509,-27.448 51.681,-39.801 -32,-49.918 -58.877,45.438 28.598,19.068 c -28.198,18.555 -60.615,33.828 -119.459,33.828 -58.849,0 -91.265,-15.273 -119.459,-33.828 l 28.602,-19.068 -58.885,-45.438 -32,49.918 51.681,39.801 -10.509,27.448 c 41.488,25.848 104.257,38.527 140.716,36.757"
   id="path150"
   inkscape:connector-curvature="0"
   style="fill:#0752ad;fill-opacity:1" /><path
   stroke-miterlimit="3.864"
   d="m 446.852,604.688 9.415,24.901 m -129.911,64.206 c 36.456,1.771 98.939,-10.909 140.42,-36.757 l -10.509,-27.448 51.681,-39.801 -32,-49.918 -58.877,45.438 28.598,19.068 c -28.198,18.555 -60.615,33.828 -119.459,33.828 -58.849,0 -91.265,-15.273 -119.459,-33.828 l 28.602,-19.068 -58.885,-45.438 -32,49.918 51.681,39.801 -10.509,27.448 c 41.488,25.848 104.257,38.527 140.716,36.757 z"
   id="path152"
   inkscape:connector-curvature="0"
   style="fill:none;stroke:#231f20;stroke-width:2;stroke-miterlimit:3.86400008" /><polyline
   transform="translate(-242.712,-236.716)"
   points="659.171,822.025 689.278,841.404 663.487,855.535 659.171,822.025  "
   id="polyline154"
   style="fill:#00adee" /><polygon
   transform="translate(-242.712,-236.716)"
   stroke-miterlimit="3.864"
   points="659.171,822.025 689.278,841.404 663.487,855.535 "
   id="polygon156"
   style="fill:#0752ad;fill-opacity:1;stroke:#231f20;stroke-width:2;stroke-linejoin:bevel;stroke-miterlimit:3.86400008" /><line
   stroke-miterlimit="3.864"
   x1="205.563"
   y1="604.68799"
   x2="196.14799"
   y2="629.59003"
   id="line158"
   style="fill:none;stroke:#231f20;stroke-width:2;stroke-miterlimit:3.86400008" /><polyline
   transform="translate(-242.712,-236.716)"
   points="478.665,822.025 448.569,841.404 474.353,855.535 478.665,822.025  "
   id="polyline160"
   style="fill:#00adee" /><polygon
   transform="translate(-242.712,-236.716)"
   stroke-miterlimit="3.864"
   points="478.665,822.025 448.569,841.404 474.353,855.535 "
   id="polygon162"
   style="fill:#0752ad;fill-opacity:1;stroke:#231f20;stroke-width:2;stroke-linejoin:bevel;stroke-miterlimit:3.86400008" /><path
   inkscape:connector-curvature="0"
   id="path164"
   d="m 215.15559,621.23886 -4.47656,10.54101 23.23242,9.84961 -11.57812,27.27539 9.49414,4.01368 16.04101,-37.79297 z m 216.27539,2.03906 -15.15234,6.11914 4.29297,10.63281 5.60546,-2.27734 6.80469,16.85742 -5.61328,2.25977 4.29883,10.62304 15.16797,-6.12695 z m -21.16406,8.71484 -34.67774,9.30079 10.63086,39.65429 26.42969,-7.08203 5.27734,-13.25 z m -156.60547,4.45508 -2.96094,11.04688 5.8418,1.58398 -4.70898,17.52539 -5.83399,-1.55078 -2.96875,11.06445 15.79688,4.22657 10.63086,-39.66211 z m -46.83398,4.42969 -7.71875,18.16992 9.49414,4.03125 7.71484,-18.19531 z m 70.59765,1.24023 -6.42578,40.56836 10.17969,1.61524 6.42578,-40.5586 z m 18.1543,2.74219 -1.23047,17.7461 10.2793,0.70898 1.24023,-17.73047 z m 52.7832,0.64453 -10.30469,0.3418 0.76563,21.71094 -13.69141,-21.26172 -12.50781,0.4414 18.73438,28.98047 -17.69727,0.61329 0.39062,11.45507 36.9629,-1.28125 -11.66993,-18.25976 9.8086,-0.33594 z m 54.91992,0.21875 3.57422,13.34961 -1.97656,5.01758 -11.67578,3.13281 -4.70703,-17.54101 z m -32.45898,11.375 -12.98828,2.06446 1.17383,7.39257 12.99023,-2.04882 z"
   style="clip-rule:evenodd;fill:#ffffff;fill-rule:evenodd" />
<path
   style="fill:none;stroke:#000000;stroke-width:3;stroke-linecap:butt;stroke-linejoin:miter;stroke-opacity:1"
   d="M 7.064,316.434 70.678189,4.2342323"
   id="path1492"
   inkscape:connector-curvature="0"
   sodipodi:nodetypes="cc" /></svg>