<?xml version="1.0" encoding="UTF-8" standalone="no"?>
<!-- Created with Inkscape (http://www.inkscape.org/) -->

<svg
   xmlns:dc="http://purl.org/dc/elements/1.1/"
   xmlns:cc="http://creativecommons.org/ns#"
   xmlns:rdf="http://www.w3.org/1999/02/22-rdf-syntax-ns#"
   xmlns:svg="http://www.w3.org/2000/svg"
   xmlns="http://www.w3.org/2000/svg"
   xmlns:sodipodi="http://sodipodi.sourceforge.net/DTD/sodipodi-0.dtd"
   xmlns:inkscape="http://www.inkscape.org/namespaces/inkscape"
   width="102.17123mm"
   height="137.7514mm"
   viewBox="0 0 102.17123 137.7514"
   version="1.1"
   id="svg8"
   inkscape:version="0.92.3 (2405546, 2018-03-11)"
   sodipodi:docname="Coat of arms of Netivot V2.svg">
  <defs
     id="defs2" />
  <sodipodi:namedview
     id="base"
     pagecolor="#ffffff"
     bordercolor="#666666"
     borderopacity="1.0"
     inkscape:pageopacity="0.0"
     inkscape:pageshadow="2"
     inkscape:zoom="0.35"
     inkscape:cx="88.793806"
     inkscape:cy="108.88902"
     inkscape:document-units="mm"
     inkscape:current-layer="layer1"
     showgrid="false"
     inkscape:window-width="1920"
     inkscape:window-height="1001"
     inkscape:window-x="-9"
     inkscape:window-y="-9"
     inkscape:window-maximized="1"
     fit-margin-top="0"
     fit-margin-left="0"
     fit-margin-right="0"
     fit-margin-bottom="0" />
  <metadata
     id="metadata5">
    <rdf:RDF>
      <cc:Work
         rdf:about="">
        <dc:format>image/svg+xml</dc:format>
        <dc:type
           rdf:resource="http://purl.org/dc/dcmitype/StillImage" />
        <dc:title></dc:title>
      </cc:Work>
    </rdf:RDF>
  </metadata>
  <g
     inkscape:label="Layer 1"
     inkscape:groupmode="layer"
     id="layer1"
     transform="translate(137.26419,-39.892157)">
    <g
       transform="matrix(0.36870516,0,0,0.36870516,-44.206382,55.088116)"
       id="g1138"
       style="stroke-width:2.7121942">
      <path
         inkscape:connector-curvature="0"
         id="path892"
         transform="scale(0.26458333)"
         d="m -501.41797,498.18164 -64.87891,28.5332 c 6.8566,51.99999 1.13053,68.9291 -15.78906,84.25391 -18.71006,16.94661 -34.69943,14.67643 -78.82031,11.65625 l -26.31836,65.94922 c 23.077,20.93412 49.83105,37.25876 47.55664,67.25781 2.27441,29.99906 -24.47964,46.32174 -47.55664,67.25586 l 26.31836,65.94922 c 44.12088,-3.02018 60.11025,-5.28841 78.82031,11.6582 16.91959,15.32482 22.64566,32.25197 15.78906,84.25196 l 64.87891,28.53323 c 24.66792,-29.66764 39.67543,-46.9801 69.14844,-47.94925 29.47428,0.96846 44.47998,18.28096 69.14844,47.94925 l 64.8789,-28.53323 c -6.8566,-51.99999 -1.1305,-68.92714 15.78907,-84.25196 18.71005,-16.94661 34.70138,-14.67838 78.82226,-11.6582 l 26.31641,-65.94922 c -23.07702,-20.93412 -49.83103,-37.2568 -47.55664,-67.25586 -2.27439,-29.99905 24.47962,-46.32369 47.55664,-67.25781 L -203.63086,622.625 c -44.12088,3.02018 -60.11221,5.29036 -78.82226,-11.65625 -16.91957,-15.32481 -22.64567,-32.25392 -15.78907,-84.25391 l -64.8789,-28.5332 c -24.66846,29.6682 -39.67416,46.98076 -69.14844,47.94922 -29.47301,-0.96915 -44.48052,-18.28167 -69.14844,-47.94922 z m 187.0293,138.78711 a 30.05025,30.05025 0 0 1 30.9082,30.03516 v 129.25 a 30.05025,30.05025 0 0 1 -19.37695,28.08789 l -117.36133,44.58398 a 30.05025,30.05025 0 0 1 -20.14648,0.42578 l -121.1211,-40.2539 a 30.05025,30.05025 0 0 1 -20.57031,-28.51368 V 667.00391 a 30.05025,30.05025 0 0 1 30.90625,-30.03321 30.05025,30.05025 0 0 1 8.83984,1.59375 l 109.54102,37.35938 109.54297,-37.35938 a 30.05025,30.05025 0 0 1 8.83789,-1.5957 z m -237.6211,30.03516 v 133.58007 l 121.1211,40.25391 117.36133,-44.58398 v -129.25 l -119.24219,40.66601 z"
         style="fill:#03318c;fill-opacity:1;stroke:none;stroke-width:2.71219397px;stroke-linecap:butt;stroke-linejoin:miter;stroke-opacity:1" />
      <path
         sodipodi:nodetypes="cccc"
         inkscape:connector-curvature="0"
         id="path865"
         d="M -108.94193,17.783761 -78.851014,-9.5194069 -78.978116,43.595828 Z"
         style="fill:#03318c;fill-opacity:1;stroke-width:2.7121942" />
      <path
         inkscape:connector-curvature="0"
         id="path814"
         d="m -122.09708,120.44135 c 0.4926,-21.455066 0.23019,-45.327898 -0.53261,-48.45472 -0.57008,-2.336805 -2.27165,-5.488361 -3.98619,-7.382992 -4.04965,-4.475003 -11.7792,-8.244374 -20.2362,-9.86832 -1.6689,-0.320469 -3.1832,-0.621202 -3.3651,-0.668295 -0.26216,-0.06787 -0.33073,-6.37218 -0.33073,-30.40812 0,-24.7259257 0.0634,-30.3067051 0.34348,-30.2369477 0.42369,0.1055212 70.829434,60.3059987 70.829434,60.5627507 0,0.10152 -0.56554,0.264877 -1.25677,0.363011 -0.69122,0.09814 -2.67029,0.532257 -4.39794,0.964713 -11.64469,2.914851 -19.420824,8.843364 -21.484074,16.379443 -0.66379,2.424528 -0.96505,16.183242 -0.77919,35.586457 0.092,9.60438 0.22795,17.67086 0.30212,17.92552 0.12623,0.43344 -0.35591,0.46302 -7.54568,0.46302 h -7.68053 z"
         style="fill:#03318c;fill-opacity:1;stroke-width:2.7121942" />
      <path
         sodipodi:nodetypes="csssscccccccsssssccccccccccccssccc"
         inkscape:connector-curvature="0"
         style="fill:#03318c;fill-opacity:1;stroke-width:2.7121942"
         d="m -252.39086,267.73861 c 0,-0.534 19.64745,-159.80177 20.51072,-166.26569 0.60797,-4.552293 1.56979,-9.383643 2.90261,-14.580205 7.97079,-31.077426 24.43371,-51.822836 46.99564,-59.22058 4.40187,-1.443313 8.99905,-2.423382 13.39659,-2.856008 l 3.23993,-0.318741 0.1348,-55.19107 24.84684,15.353063 25.28608,-25.87377 26.045417,26.049384 25.00135,-17.638114 0.28802,57.300277 3.24115,0.318857 c 11.00972,1.083112 21.26309,5.036222 30.18896,11.639127 3.55646,2.630892 10.31108,9.443444 13.21213,13.325456 10.5368399,14.099778 17.84161988,33.978912 20.3008699,55.246584 0.29335,2.53692 4.93694,40.16338 10.3190901,83.61434 5.38215,43.45097 9.78572,79.32646 9.78572,79.32646 l -33.99341,-0.006 c 0,0 -20.22057,-162.63065 -20.3703,-165.29836 -1.767365,-24.234831 -14.47222,-39.417165 -37.44671,-39.422913 V 20.245836 l -0.15421,-42.99479 -20.57557,13.9118811 -25.836087,-25.4945731 -24.58626,24.7337902 -20.79058,-12.8703782 -0.13229,42.788286 -0.1323,42.788283 c -23.38003,-0.782694 -36.05731,18.257257 -37.31934,39.036765 -0.15311,2.52097 -19.97013,163.71823 -20.37181,165.55229 l -0.13038,0.59531 h -33.85659 z"
         id="path857" />
      <path
         sodipodi:nodetypes="ccccc"
         inkscape:connector-curvature="0"
         id="rect871"
         d="m 65.806993,71.553725 25.104945,0.269624 1.078495,24.296074 -26.453064,1.078495 z"
         style="opacity:1;fill:#03318c;fill-opacity:1;stroke:none;stroke-width:5.42438793;stroke-linecap:round;stroke-linejoin:miter;stroke-miterlimit:4;stroke-dasharray:none;stroke-opacity:1"
         transform="rotate(135)" />
      <path
         sodipodi:nodetypes="cccscccccsscccscc"
         inkscape:connector-curvature="0"
         id="path876"
         d="m -102.2773,116.71155 c -0.97458,-12.43804 -3.25633,-24.54928 5.549762,-39.432485 -0.901567,6.69594 -0.566583,12.780243 -0.178624,17.579793 0.492723,-5.677379 0.920369,-11.415322 1.42725,-17.34919 0.191036,-2.236388 0.592656,-2.642083 2.818198,-4.477176 -0.76342,4.864903 -0.262961,8.971479 0.763934,12.762193 0,0 1.164831,-8.026406 2.251883,-12.596832 0.693675,-3.433534 2.867976,-4.377256 7.095073,-4.704029 -2.545668,3.751543 -3.5194,6.841218 -4.493728,9.931144 l 9.97608,-10.515328 c 0.301452,-0.317747 0.776312,-0.525635 1.348118,-0.224687 l 0.853811,0.449371 c -2.681673,2.394027 -3.444847,4.646624 -3.999421,6.650723 l 4.740837,-5.29383 c 1.838595,-1.859853 3.586729,-1.616201 6.959323,-0.603292 5.084755,1.527132 13.021064,4.109283 17.3534,5.973837 C -69.6068,73.839855 -89.10975,83.200268 -102.2773,116.71155 Z"
         style="fill:#03318c;fill-opacity:1;stroke:none;stroke-width:0.71760136px;stroke-linecap:butt;stroke-linejoin:miter;stroke-opacity:1" />
      <path
         sodipodi:nodetypes="cccsssscccccccccccccc"
         inkscape:connector-curvature="0"
         id="path874"
         d="m -127.48319,112.95648 -2.66913,0.44485 -1.58878,-15.061572 c -4.54859,-6.053844 -10.33576,-12.625405 -17.93008,-17.014571 -11.14596,-6.441849 -19.33199,-5.525978 -19.85412,-7.225997 -0.31901,-1.03867 4.7205,-3.612123 15.16678,-4.786789 2.26178,-0.254333 2.39649,-0.455865 4.45103,1.82837 0.7095,0.78882 1.64712,1.640752 2.65996,2.731876 -0.63638,-1.687341 -1.55876,-3.279347 -3.08222,-4.670993 0.86465,-0.360512 1.23174,-0.452206 1.74045,0.04625 l 7.37911,7.230332 c -0.81971,-2.227319 -1.80878,-4.787412 -3.38296,-7.072767 2.12392,0.06181 4.46745,0.692747 5.28597,3.283711 0.61195,2.038132 1.22579,5.46451 1.52874,8.396499 l 0.38131,0.476634 c 0.80587,-2.857497 0.69111,-5.908289 0.5665,-8.825871 2.00006,1.380481 1.86847,1.850864 2.16176,3.928511 0.40817,3.868646 0.63481,7.286153 0.95769,10.934699 0.2569,-3.368273 0.83614,-6.59372 -0.31775,-12.138231 6.60667,9.620769 4.77207,16.873869 4.82987,24.657759 z"
         style="fill:#03318c;fill-opacity:1;stroke:none;stroke-width:0.71760136px;stroke-linecap:butt;stroke-linejoin:miter;stroke-opacity:1" />
      <path
         inkscape:connector-curvature="0"
         id="path1119"
         d="m -250.16199,280.40197 a 1.4112521,1.4112521 0 0 0 -1.41025,1.40972 v 12.17602 a 1.4112521,1.4112521 0 0 0 1.41025,1.41232 h 7.58558 v 19.28667 c 0,1.16668 -0.25727,1.8197 -0.55448,2.15646 -0.29721,0.33676 -0.72342,0.55293 -1.66812,0.55293 h -6.18153 a 1.4112521,1.4112521 0 0 0 -1.41025,1.41181 v 12.176 a 1.4112521,1.4112521 0 0 0 1.41025,1.41025 h 11.08821 c 4.99862,0 9.03193,-1.89582 11.52901,-5.5821 a 1.4112521,1.4112521 0 0 0 0.002,-0.003 c 2.14812,-3.18212 3.14864,-7.37979 3.14864,-12.49794 v -18.91202 h 12.71861 v 35.58386 a 1.4112521,1.4112521 0 0 0 1.4118,1.41026 h 14.54123 a 1.4112521,1.4112521 0 0 0 1.41025,-1.41026 v -49.1722 a 1.4112521,1.4112521 0 0 0 -1.41025,-1.40973 z"
         style="fill:#03318c;fill-opacity:1;fill-rule:nonzero;stroke:none;stroke-width:0.95680171" />
      <path
         inkscape:connector-curvature="0"
         id="path1117"
         d="m -186.2465,280.40196 a 1.4112521,1.4112521 0 0 0 -1.41025,1.40973 v 12.17602 a 1.4112521,1.4112521 0 0 0 1.41025,1.41232 h 6.31434 v 35.58386 a 1.4112521,1.4112521 0 0 0 1.41025,1.41026 h 14.54072 a 1.4112521,1.4112521 0 0 0 1.41231,-1.41026 v -49.1722 a 1.4112521,1.4112521 0 0 0 -1.41231,-1.40973 z"
         style="fill:#03318c;fill-opacity:1;fill-rule:nonzero;stroke:none;stroke-width:0.95680171" />
      <path
         inkscape:connector-curvature="0"
         id="path1115"
         d="m -150.13033,280.40196 a 1.4112521,1.4112521 0 0 0 -1.41232,1.40973 v 12.17602 a 1.4112521,1.4112521 0 0 0 1.41232,1.41232 h 19.85305 v 21.99605 h -19.85305 a 1.4112521,1.4112521 0 0 0 -1.41232,1.41182 v 12.17599 a 1.4112521,1.4112521 0 0 0 1.41232,1.41026 h 43.16791 a 1.4112521,1.4112521 0 0 0 1.40973,-1.41026 V 318.8079 a 1.4112521,1.4112521 0 0 0 -1.40973,-1.41182 h -5.94951 v -35.58439 a 1.4112521,1.4112521 0 0 0 -1.4118,-1.40973 z"
         style="fill:#03318c;fill-opacity:1;fill-rule:nonzero;stroke:none;stroke-width:0.95680171" />
      <path
         inkscape:connector-curvature="0"
         id="path1113"
         d="m -103.08047,280.40196 a 1.4112521,1.4112521 0 0 0 -1.41231,1.40973 v 12.17602 a 1.4112521,1.4112521 0 0 0 1.41231,1.41232 h 6.312259 v 13.6679 a 1.4112521,1.4112521 0 0 0 1.412304,1.41023 h 14.540692 a 1.4112521,1.4112521 0 0 0 1.41025,-1.41023 v -27.25624 a 1.4112521,1.4112521 0 0 0 -1.41025,-1.40973 z"
         style="fill:#03318c;fill-opacity:1;fill-rule:nonzero;stroke:none;stroke-width:0.95680171" />
      <path
         inkscape:connector-curvature="0"
         id="path1111"
         d="m -68.78649,280.40196 a 1.4112521,1.4112521 0 0 0 -1.41025,1.40973 v 12.17602 a 1.4112521,1.4112521 0 0 0 1.41025,1.41232 h 7.585583 v 19.28667 c 0,1.16668 -0.259344,1.8197 -0.556553,2.15646 -0.29721,0.33676 -0.723422,0.55292 -1.668116,0.55292 h -6.179468 a 1.4112521,1.4112521 0 0 0 -1.412317,1.41182 v 12.17599 a 1.4112521,1.4112521 0 0 0 1.412317,1.41026 h 11.087695 c 4.99808,0 9.032391,-1.89574 11.529528,-5.5821 a 1.4112521,1.4112521 0 0 0 0,-0.003 c 2.148126,-3.18211 3.150195,-7.37978 3.150195,-12.49793 V 295.3991 h 12.719122 v 35.58386 a 1.4112521,1.4112521 0 0 0 1.409731,1.41026 h 14.541233 a 1.4112521,1.4112521 0 0 0 1.412317,-1.41026 v -49.1722 a 1.4112521,1.4112521 0 0 0 -1.412317,-1.40973 z"
         style="fill:#03318c;fill-opacity:1;fill-rule:nonzero;stroke:none;stroke-width:0.95680171" />
      <path
         inkscape:connector-curvature="0"
         id="path904"
         d="m -1.6866999,280.40103 a 1.4112521,1.4112521 0 0 0 -1.4102498,1.40973 v 12.17602 a 1.4112521,1.4112521 0 0 0 1.4102498,1.41232 h 9.0407918 v 21.99605 H -3.0504409 a 1.4112521,1.4112521 0 0 0 -1.4097331,1.41182 v 12.17599 a 1.4112521,1.4112521 0 0 0 1.4097331,1.41026 H 23.305056 a 1.4112521,1.4112521 0 0 0 1.412317,-1.41026 v -49.1722 a 1.4112521,1.4112521 0 0 0 -1.412317,-1.40973 z"
         style="fill:#03318c;fill-opacity:1;fill-rule:nonzero;stroke:none;stroke-width:0.95680171" />
    </g>
  </g>
</svg>
