<?xml version="1.0" encoding="UTF-8"?>
<!-- Generator: Adobe Illustrator 15.1.0, SVG Export Plug-In . SVG Version: 6.00 Build 0)  -->
<!DOCTYPE svg PUBLIC "-//W3C//DTD SVG 1.1//EN" "http://www.w3.org/Graphics/SVG/1.1/DTD/svg11.dtd">
<svg version="1.1" id="Layer_1" xmlns="http://www.w3.org/2000/svg" xmlns:xlink="http://www.w3.org/1999/xlink" x="0px" y="0px" width="298px" height="434.65px" viewBox="0 0 298 434.65" enable-background="new 0 0 298 434.65" xml:space="preserve">
<g>
	<g>
		<path fill="#FFFFFF" d="M294.5,3.5c0,0,0,216.5,0,286S241,431.15,149,431.15S3.5,359,3.5,289.5s0-286,0-286H294.5z"/>
		<path fill="#231F20" d="M149,434.65c-55.467,0-90.332-24.948-109.812-45.878C14.284,362.016,0,325.832,0,289.5V0h298v289.5    c0,36.332-14.283,72.516-39.188,99.272C239.331,409.702,204.467,434.65,149,434.65z M7,7v282.5c0,67.908,53.115,138.15,142,138.15    c88.885,0,142-70.242,142-138.15V7H7z"/>
	</g>
	<g>
		<polygon fill="#231F20" points="122.563,56.875 107.883,35.875 95.041,35.875 113.916,56.875   "/>
		<polygon fill="#231F20" points="138.157,56.875 131.865,35.875 119.023,35.875 129.509,56.875   "/>
		<polygon fill="#231F20" points="153.748,56.875 155.845,35.875 142.154,35.875 144.25,56.875   "/>
		<polygon fill="#231F20" points="168.491,56.875 178.977,35.875 166.137,35.875 159.846,56.875   "/>
		<polygon fill="#231F20" points="184.084,56.875 202.959,35.875 190.118,35.875 175.438,56.875   "/>
	</g>
	<path fill="#231F20" d="M165.625,61c-3.625,0-7,1.75-7,1.75S153.125,58,149,58s-9.625,4.75-9.625,4.75S136,61,132.375,61   s-11.125,6.875-11.125,13.625s4.25,8.75,5.875,9.75s4.125,0.625,5.5,1.875s1.375,3.5,1.375,3.5s3.375-4.625,15-4.625   s15,4.625,15,4.625s0-2.25,1.375-3.5s3.875-0.875,5.5-1.875s5.875-3,5.875-9.75S169.25,61,165.625,61z M136.296,79.868   c-0.904,0.432-1.857,0.986-1.857,0.986s-1.803-1.707-2.443-3.048c-0.64-1.34-0.698-4.407,0.857-5.15   c1.554-0.742,3.903,1.23,4.543,2.57c0.64,1.34,0.835,3.816,0.835,3.816S137.202,79.435,136.296,79.868z M151.947,77.75   c0,0-1.541-0.125-2.947-0.125s-2.947,0.125-2.947,0.125s-1.25-3.25-1.25-5.333s1.781-6,4.197-6s4.197,3.917,4.197,6   S151.947,77.75,151.947,77.75z M166.004,77.806c-0.641,1.341-2.443,3.048-2.443,3.048s-0.953-0.555-1.857-0.986   c-0.904-0.433-1.935-0.825-1.935-0.825s0.195-2.476,0.835-3.816c0.641-1.34,2.99-3.312,4.544-2.57   C166.702,73.399,166.645,76.466,166.004,77.806z"/>
	<path fill="#231F20" d="M156.834,232.167v6L171.5,244l4.166-4L188,249.834L185.334,256l9.5,10.834l4.332-0.167l4.668,13.833   h-17.485c-3.28-17.649-18.749-31.018-37.349-31.018c-18.601,0-34.069,13.368-37.349,31.018H94.166l4.667-13.833l4.333,0.167   l9.5-10.834L110,249.834L122.333,240l4.167,4l14.666-5.833v-6H156.834z"/>
	<g>
		<path fill="#231F20" d="M114.383,311.334H84.129c2.688,6.746,6.384,12.98,10.924,18.5h19.33V311.334z"/>
		<path fill="#231F20" d="M145.667,335.834h-45.043c11.803,11.35,27.578,18.595,45.043,19.416V335.834z"/>
		<path fill="#231F20" d="M151.667,305.334h64.283c1.836-6.208,2.851-12.769,2.876-19.566h-67.159V305.334z"/>
		<path fill="#231F20" d="M145.667,305.334v-19.566H79.174c0.025,6.798,1.04,13.358,2.876,19.566H145.667z"/>
		<path fill="#231F20" d="M185.216,311.334v18.5h17.73c4.54-5.52,8.236-11.754,10.925-18.5H185.216z"/>
		<rect x="120.383" y="311.334" fill="#231F20" width="58.833" height="18.5"/>
		<path fill="#231F20" d="M151.667,335.834v19.433c17.729-0.667,33.756-7.939,45.709-19.433H151.667z"/>
	</g>
	<g>
		<path fill="#231F20" d="M82.186,335.883c-0.127-0.161-0.688-0.197-1.683-0.106c-0.996,0.091-1.76,0.262-2.293,0.512    c-0.533,0.251-1.008,0.54-1.425,0.866c-0.625,0.491-1.312,1.272-2.061,2.345c-0.749,1.072-1.229,1.748-1.441,2.026    s-0.457,0.526-0.734,0.744c-0.718,0.563-1.542,1.004-2.47,1.322c-0.929,0.318-1.447,0.408-1.556,0.27l-3.642-4.642l4.504-2.247    l1.658,2.113c0.109,0.139,0.337,0.071,0.685-0.202c0.116-0.091,0.65-0.613,1.606-1.568c0.955-0.955,1.607-1.568,1.955-1.842    c0.348-0.272,0.817-0.558,1.41-0.854c0.591-0.296,1.262-0.468,2.012-0.516c0.75-0.048,1.436-0.055,2.062-0.022l-0.707-0.9    c-0.472-0.601-0.618-1.176-0.438-1.728c0.179-0.551,0.601-1.087,1.267-1.609c0.574-0.45,1.222-0.828,1.945-1.135    s1.215-0.459,1.476-0.458c0.259,0.001,0.462,0.094,0.607,0.279c0.145,0.184,0.137,0.377-0.022,0.577    c-0.161,0.2-0.336,0.439-0.526,0.721c-0.191,0.279-0.196,0.535-0.014,0.767l4.783,6.096c1.069,1.362,1.437,2.725,1.104,4.087    c-0.334,1.361-1.333,2.697-3,4.004l-9.511,7.463c-0.647,0.509-1.2,0.662-1.657,0.461c-0.457-0.201-0.874-0.471-1.251-0.809    l10.247-8.04c0.695-0.546,1.048-1.168,1.06-1.867c0.012-0.7-0.199-1.327-0.634-1.881L82.186,335.883z"/>
		<path fill="#231F20" d="M93.301,347.839c-0.537-0.456-0.735-1.028-0.593-1.717c0.142-0.689,0.508-1.382,1.098-2.077    c0.932-1.099,1.838-1.736,2.72-1.914c0.24-0.057,0.428,0.108,0.564,0.492c0.032,0.144-0.072,0.401-0.312,0.775    s-0.282,0.627-0.125,0.76l1.981,1.681c0.515,0.437,0.826,0.999,0.935,1.688c0.108,0.689,0.04,1.304-0.208,1.845    c-0.248,0.541-0.541,1.034-0.878,1.478c-0.338,0.444-0.555,0.723-0.649,0.835c-0.836,0.985-2.08,1.748-3.732,2.29    c-1.653,0.542-2.867,0.657-3.642,0.346c-0.151-0.05-0.234-0.178-0.25-0.385c-0.018-0.207,0.041-0.389,0.174-0.546    c0.133-0.156,0.484-0.253,1.054-0.289c0.57-0.037,1.054-0.097,1.453-0.183c0.399-0.085,0.824-0.233,1.275-0.448    c0.45-0.214,0.791-0.455,1.018-0.724c0.342-0.403,0.516-0.812,0.524-1.23c0.007-0.417-0.168-0.777-0.526-1.081L93.301,347.839z"/>
		<path fill="#231F20" d="M102.727,355.224c-0.561-0.319-0.811-0.859-0.749-1.619c0.061-0.76,0.376-1.636,0.944-2.632    c1.033-1.811,2.062-3.126,3.087-3.945c1.024-0.818,1.566-1.278,1.624-1.381c0.102-0.179-0.13-0.514-0.694-1.005    c-0.565-0.491-0.665-1.056-0.301-1.693c0.48-0.842,0.946-1.362,1.398-1.562c0.451-0.199,0.763-0.182,0.934,0.051    c0.036,0.056,0,0.206-0.106,0.453c-0.108,0.247-0.046,0.436,0.184,0.566c0.765,0.437,1.297,0.851,1.598,1.241    c0.3,0.392,0.174,1.071-0.378,2.04c-0.262,0.459-0.916,1.041-1.959,1.746c-1.045,0.705-1.666,1.188-1.864,1.446    c-0.199,0.259-0.371,0.516-0.516,0.771c-0.233,0.407-0.356,0.742-0.371,1.005c-0.015,0.262,0.118,0.473,0.399,0.633l8.528,4.865    c0.408,0.232,0.679,0.69,0.813,1.374c0.134,0.683,0.02,1.343-0.343,1.979l-2.437,4.271c-0.958,1.678-2.51,2.637-4.658,2.878    c-2.148,0.241-3.681,0.411-4.6,0.511s-1.486,0.34-1.704,0.721c-0.072,0.128-0.14,0.393-0.2,0.796    c-0.062,0.403-0.116,0.691-0.165,0.866c-0.049,0.175-0.103,0.312-0.161,0.414c-0.261,0.458-0.637,0.775-1.125,0.951    s-0.95,0.14-1.383-0.107c-0.076-0.044-0.252-0.211-0.525-0.501c-0.273-0.291-0.43-0.684-0.469-1.178    c-0.04-0.493,0.079-0.981,0.354-1.465c0.333-0.584,0.839-1.087,1.519-1.507c0.679-0.421,1.727-0.716,3.141-0.886    c1.415-0.169,3.225-0.382,5.433-0.638c0.839-0.229,1.477-0.723,1.912-1.485c0.102-0.178,0.252-0.547,0.453-1.105    c0.2-0.559,0.295-1.094,0.283-1.606c-0.012-0.512-0.26-0.906-0.744-1.183L102.727,355.224z"/>
		<path fill="#231F20" d="M119.727,363.629c-0.666-0.229-1.059-0.69-1.176-1.384c-0.119-0.694-0.029-1.472,0.268-2.334    c0.469-1.361,1.082-2.286,1.839-2.771c0.203-0.14,0.438-0.055,0.704,0.254c0.082,0.121,0.079,0.399-0.008,0.835    c-0.088,0.436-0.035,0.687,0.16,0.754l2.457,0.846c0.638,0.22,1.133,0.631,1.484,1.232c0.352,0.603,0.51,1.2,0.477,1.794    c-0.034,0.594-0.128,1.159-0.281,1.696c-0.154,0.536-0.254,0.874-0.302,1.013c-0.42,1.222-1.303,2.385-2.645,3.49    c-1.343,1.105-2.432,1.654-3.267,1.646c-0.158,0.008-0.283-0.081-0.373-0.268c-0.092-0.187-0.103-0.377-0.036-0.571    c0.066-0.194,0.358-0.412,0.876-0.653c0.517-0.241,0.946-0.473,1.288-0.697c0.341-0.224,0.683-0.518,1.025-0.881    s0.571-0.712,0.686-1.045c0.172-0.499,0.186-0.944,0.041-1.336s-0.439-0.664-0.883-0.816L119.727,363.629z"/>
		<path fill="#231F20" d="M131.381,361.189c-0.127,0.494,0.008,0.798,0.404,0.911l2.15,0.7c0.757,0.254,1.239,0.598,1.443,1.031    s0.267,0.945,0.187,1.535c-0.061,0.443-0.103,0.753-0.127,0.93c-0.14,0.582-0.303,1.131-0.492,1.646    c-0.016,0.119-0.082,0.275-0.198,0.469c-0.292-0.247-0.583-0.391-0.874-0.431c-0.611-0.083-0.948,0.108-1.012,0.573    c-0.135,0.988,0.243,2.337,1.136,4.043c0.892,1.707,1.363,2.757,1.414,3.148c0.05,0.393,0.043,0.873-0.019,1.441    c-0.063,0.569-0.132,1.131-0.208,1.683c0.32,0.044,0.75-0.557,1.291-1.803c0.54-1.245,1.053-2.288,1.538-3.126    c0.485-0.838,1.164-1.738,2.036-2.702c0.872-0.962,1.322-1.546,1.35-1.75c0.016-0.116-0.042-0.287-0.174-0.513    c-0.132-0.226-0.431-0.371-0.896-0.435l-0.611-0.083c-0.698-0.096-1.242-0.451-1.631-1.067c-0.39-0.616-0.527-1.346-0.412-2.189    c0.071-0.523,0.219-1.007,0.443-1.45c0.223-0.443,0.493-0.844,0.808-1.2c0.315-0.357,0.589-0.52,0.822-0.487    c0.203,0.027,0.29,0.158,0.258,0.391c-0.04,0.291,0.012,0.506,0.156,0.644c0.144,0.138,0.374,0.244,0.69,0.316l3,0.81    c0.714,0.187,1.203,0.514,1.466,0.979c0.262,0.466,0.352,1.003,0.268,1.614c-0.076,0.553-0.261,1.098-0.557,1.635    c-0.296,0.537-0.866,1.186-1.71,1.943c-0.844,0.759-1.45,1.395-1.816,1.907c-0.367,0.513-0.781,1.434-1.244,2.763    c-0.464,1.329-0.834,2.411-1.111,3.247c-0.277,0.836-0.625,1.699-1.043,2.591c-0.418,0.891-0.854,1.534-1.308,1.932    c-0.455,0.397-1.062,0.662-1.82,0.795l-8.553,1.452l0.668-4.885l5.064,0.335c1.099-0.236,1.718-0.866,1.858-1.889    c0.052-0.379-0.008-0.752-0.18-1.118c-0.172-0.365-0.678-1.163-1.517-2.395c-0.839-1.23-1.329-2.146-1.469-2.745    c-0.141-0.6-0.185-1.089-0.133-1.469c0.072-0.525,0.204-0.998,0.394-1.419c0.191-0.42,0.37-0.812,0.539-1.177    c0.147-0.426-0.081-0.762-0.684-1.008c-0.604-0.247-1.053-0.427-1.348-0.541c-0.295-0.115-0.513-0.421-0.652-0.916    c-0.14-0.495-0.167-1.05-0.083-1.663c0.1-0.729,0.284-1.374,0.553-1.933c0.269-0.558,0.55-0.937,0.844-1.134    c0.293-0.198,0.557-0.282,0.79-0.25C131.301,360.908,131.406,361.013,131.381,361.189z"/>
		<path fill="#231F20" d="M169.279,366.104c-0.198,0.054-0.45,0.557-0.755,1.508c-0.305,0.952-0.446,1.722-0.424,2.311    c0.022,0.588,0.104,1.139,0.241,1.649c0.208,0.768,0.659,1.705,1.354,2.812c0.694,1.108,1.129,1.813,1.303,2.117    c0.173,0.304,0.306,0.627,0.398,0.967c0.238,0.882,0.322,1.812,0.253,2.791s-0.189,1.491-0.359,1.537l-5.694,1.541l-0.311-5.024    l2.593-0.701c0.17-0.046,0.197-0.282,0.081-0.709c-0.038-0.143-0.311-0.839-0.816-2.092c-0.507-1.252-0.817-2.092-0.933-2.519    c-0.115-0.426-0.194-0.97-0.236-1.631c-0.041-0.66,0.062-1.344,0.312-2.053c0.248-0.709,0.51-1.344,0.783-1.907l-1.104,0.299    c-0.737,0.199-1.324,0.109-1.761-0.271c-0.438-0.38-0.767-0.979-0.987-1.795c-0.19-0.704-0.286-1.448-0.285-2.234    c0-0.785,0.051-1.297,0.154-1.536c0.102-0.239,0.267-0.39,0.493-0.451s0.4,0.021,0.523,0.246c0.121,0.226,0.273,0.481,0.457,0.766    c0.184,0.285,0.417,0.389,0.701,0.312l7.479-2.024c1.671-0.452,3.069-0.259,4.193,0.579c1.123,0.839,1.963,2.28,2.516,4.324    l3.158,11.67c0.215,0.795,0.141,1.364-0.223,1.706c-0.364,0.342-0.775,0.621-1.233,0.836l-3.402-12.572    c-0.23-0.853-0.666-1.42-1.305-1.705c-0.641-0.284-1.3-0.334-1.979-0.15L169.279,366.104z"/>
		<path fill="#231F20" d="M190.198,351.853c0.666-0.373,1.445-0.497,2.339-0.375c0.894,0.123,1.577,0.608,2.052,1.455l7.572,13.509    c0.389,0.692,0.448,1.249,0.179,1.67c-0.269,0.42-0.593,0.805-0.97,1.15l-6.779-12.093c-0.287-0.514-0.673-0.812-1.157-0.895    s-0.931-0.01-1.341,0.22l-7.182,4.025c-0.666,0.373-1.236,0.449-1.714,0.229c-0.477-0.22-1.017-0.868-1.619-1.943    c-0.315-0.563-0.532-1.098-0.647-1.605c-0.116-0.507-0.187-0.964-0.213-1.37c-0.025-0.406,0.076-0.674,0.307-0.803    s0.433-0.099,0.605,0.09c0.174,0.188,0.384,0.399,0.632,0.63c0.247,0.232,0.499,0.275,0.755,0.132L190.198,351.853z"/>
		<path fill="#231F20" d="M209.797,363.449l-1.646-5.162l4.894-4.435c0.131-0.118,0.261-0.247,0.393-0.387    c0.131-0.139,0.133-0.256,0.008-0.352c-0.104-0.114-0.325-0.184-0.665-0.21l-6.406-0.315l-2.896-3.197    c-0.178-0.195-0.363-0.345-0.555-0.448c-0.192-0.103-0.441-0.016-0.745,0.26l-1.371,1.241c-0.631,0.572-1.211,0.762-1.742,0.569    c-0.53-0.192-1.042-0.561-1.535-1.104l-0.354-0.392c-0.513-0.565-0.921-1.136-1.225-1.712c-0.305-0.575-0.435-1.003-0.39-1.281    s0.176-0.517,0.394-0.714c0.131-0.118,0.255-0.111,0.373,0.019c0.355,0.392,0.639,0.64,0.853,0.743    c0.213,0.104,0.461,0.028,0.743-0.229l1.664-1.507c0.369-0.335,0.774-0.435,1.215-0.299c0.439,0.136,0.808,0.367,1.104,0.693    l4.021,4.437l2.053,0.102l-0.334-4.63c0.007-0.124-0.071-0.232-0.233-0.323s-0.373-0.019-0.634,0.218    c-0.436,0.395-0.886,0.477-1.353,0.245c-0.467-0.23-1.074-0.759-1.823-1.586c-0.433-0.478-0.808-1.011-1.121-1.598    c-0.314-0.586-0.475-1.025-0.48-1.317c-0.007-0.291,0.088-0.525,0.284-0.703c0.151-0.138,0.287-0.142,0.405-0.011    c0.354,0.392,0.639,0.64,0.852,0.743c0.213,0.104,0.483,0.008,0.81-0.287l1.272-1.153c0.456-0.414,0.976-0.617,1.557-0.609    c0.581,0.009,1.09,0.252,1.522,0.729c0.158,0.175,0.266,0.315,0.322,0.422c0.058,0.106,0.284,0.476,0.679,1.107    c0.396,0.632,0.708,1.161,0.937,1.588c-0.433,0.045-0.769,0.174-1.006,0.39c-0.217,0.196-0.323,0.471-0.318,0.823l0.373,4.564    c0.019,0.412,0.096,0.692,0.232,0.843c0.116,0.128,0.295,0.2,0.536,0.216l4.677-0.035c0.938-0.013,1.756,0.363,2.45,1.129    c0.198,0.22,0.599,0.902,1.203,2.049c0.604,1.147,0.913,1.773,0.93,1.879L209.797,363.449z"/>
		<path fill="#231F20" d="M215.275,335.271c-0.173,0.237-0.369,0.395-0.588,0.471c-0.22,0.076-0.586,0.145-1.103,0.204    c-0.516,0.06-1.248-0.257-2.196-0.948c-1.139-0.83-1.777-1.523-1.917-2.079s-0.141-0.929-0.002-1.119    c0.156-0.213,0.317-0.259,0.482-0.138c0.498,0.362,0.849,0.555,1.052,0.575c0.202,0.021,0.408-0.11,0.615-0.396l1.765-2.419    c0.363-0.498,0.872-0.771,1.527-0.82c0.654-0.049,1.163,0.04,1.524,0.268c0.362,0.228,0.659,0.408,0.89,0.54    c0.231,0.133,0.454,0.276,0.667,0.432c0.618,0.451,1.536,1.266,2.752,2.443s2.073,1.948,2.572,2.312    c0.618,0.451,1.624,0.895,3.019,1.33c1.394,0.436,2.352,0.843,2.874,1.225l0.499,0.363c0.315,0.268,0.656,0.624,1.021,1.072    c0.364,0.448,0.628,0.785,0.79,1.012l-6.305,8.645l-3.258-3.902l3.27-4.481c0.501-0.688,0.348-1.327-0.462-1.918    c-0.262-0.19-0.689-0.43-1.282-0.717s-1.01-0.491-1.25-0.612c-0.24-0.12-0.468-0.259-0.683-0.416    c-0.285-0.208-0.727-0.603-1.324-1.184s-1.051-0.984-1.361-1.211c-0.476-0.347-0.883-0.553-1.219-0.616    c-0.337-0.063-0.573-0.064-0.711-0.001c-0.137,0.063-0.301,0.226-0.491,0.486L215.275,335.271z"/>
	</g>
	<rect x="146.5" y="227.5" fill="#007640" width="5" height="54.5"/>
	<path fill="#951E3C" d="M149,228.625c0,0,30.25-14,30.25-26.25c0-6.375-10-14.875-10-14.875s18.25,1.875,18.25,15.875   c0,8.375-8.25,22.25-8.25,22.25s31.625-3.875,31.625-25.375c0-13.625-35.125-24.5-35.125-24.5s17.5-14.5,17.5-29.125   c0-18.125-15.25-24.375-25.375-33.75s-13.25-14.75-13.25-14.75h-3v17c0,0,2.875,3.375,2.875,6s-1.625,5.5-1.625,5.5s2,1.375,2,5.25   s-2.25,5.5-2.25,8.5s5.5,7,5.5,18.5S149,176.001,149,176.001s-9.125-5.626-9.125-17.126s5.5-15.5,5.5-18.5s-2.25-4.625-2.25-8.5   s2-5.25,2-5.25s-1.625-2.875-1.625-5.5s2.875-6,2.875-6v-17h-3c0,0-3.125,5.375-13.25,14.75s-25.375,15.625-25.375,33.75   c0,14.625,17.5,29.125,17.5,29.125s-35.125,10.875-35.125,24.5c0,21.5,31.625,25.375,31.625,25.375s-8.25-13.875-8.25-22.25   c0-14,18.25-15.875,18.25-15.875s-10,8.5-10,14.875C118.75,214.625,149,228.625,149,228.625z"/>
	<path fill="#007640" d="M149,390.667c-67.739,0-109.333-55.138-109.333-94.667V100h4v196c0,37.859,40.072,90.667,105.333,90.667   S254.333,333.859,254.333,296V100h4v196C258.333,335.529,216.739,390.667,149,390.667z"/>
	<g>
		<g>
			<path fill="#007640" d="M40.562,57.333c0,0-7.167,20.833-7.167,29.667s8.667,16.333,8.667,16.333s8-5.167,8-21     S40.562,57.333,40.562,57.333z M41.229,95.5c0,0-1.667-4.333-1.667-7s1-7.5,1-7.5s2.5,4,2.5,7S41.229,95.5,41.229,95.5z"/>
			<g>
				<path fill="#007640" d="M40.311,144.553c-0.905-1.177-3.478-4.454-4.495-5.472c-0.877-0.877-2.41-1.693-2.927-1.933l1.679-3.63      c0.255,0.118,2.535,1.194,4.076,2.735c1.385,1.385,4.488,5.407,4.838,5.861L40.311,144.553z"/>
				<g>
					<circle fill="#231F20" cx="33.646" cy="135.084" r="3.833"/>
					<path fill="#007640" d="M33.646,139.417c-2.39,0-4.333-1.944-4.333-4.333s1.944-4.333,4.333-4.333s4.333,1.944,4.333,4.333       S36.036,139.417,33.646,139.417z M33.646,131.75c-1.838,0-3.333,1.496-3.333,3.333s1.496,3.333,3.333,3.333       s3.333-1.496,3.333-3.333S35.484,131.75,33.646,131.75z"/>
				</g>
			</g>
			<g>
				<path fill="#007640" d="M42.647,144.553l-3.171-2.438c0.35-0.454,3.453-4.477,4.838-5.861c1.541-1.541,3.821-2.618,4.076-2.735      l1.677,3.632l-0.838-1.816l0.841,1.814c-0.517,0.24-2.049,1.056-2.927,1.933C46.125,140.1,43.552,143.377,42.647,144.553z"/>
				<g>
					<circle fill="#231F20" cx="49.312" cy="135.084" r="3.833"/>
					<path fill="#007640" d="M49.312,139.417c-2.39,0-4.333-1.944-4.333-4.333s1.944-4.333,4.333-4.333s4.333,1.944,4.333,4.333       S51.701,139.417,49.312,139.417z M49.312,131.75c-1.838,0-3.333,1.496-3.333,3.333s1.496,3.333,3.333,3.333       s3.333-1.496,3.333-3.333S51.149,131.75,49.312,131.75z"/>
				</g>
			</g>
			<g>
				<path fill="#007640" d="M40.311,184.387c-0.905-1.177-3.478-4.454-4.495-5.472c-0.877-0.877-2.41-1.693-2.927-1.933l1.679-3.63      c0.255,0.118,2.535,1.194,4.076,2.735c1.385,1.385,4.488,5.407,4.838,5.861L40.311,184.387z"/>
				<g>
					<circle fill="#231F20" cx="33.646" cy="174.917" r="3.833"/>
					<path fill="#007640" d="M33.646,179.251c-2.39,0-4.333-1.944-4.333-4.333s1.944-4.333,4.333-4.333s4.333,1.944,4.333,4.333       S36.036,179.251,33.646,179.251z M33.646,171.584c-1.838,0-3.333,1.496-3.333,3.333s1.496,3.333,3.333,3.333       s3.333-1.496,3.333-3.333S35.484,171.584,33.646,171.584z"/>
				</g>
			</g>
			<g>
				<path fill="#007640" d="M42.647,184.387l-3.171-2.438c0.35-0.454,3.453-4.477,4.838-5.861c1.541-1.541,3.821-2.618,4.076-2.735      l1.677,3.632l-0.838-1.816l0.841,1.814c-0.517,0.24-2.049,1.056-2.927,1.933C46.125,179.934,43.552,183.21,42.647,184.387z"/>
				<g>
					<circle fill="#231F20" cx="49.312" cy="174.917" r="3.833"/>
					<path fill="#007640" d="M49.312,179.251c-2.39,0-4.333-1.944-4.333-4.333s1.944-4.333,4.333-4.333s4.333,1.944,4.333,4.333       S51.701,179.251,49.312,179.251z M49.312,171.584c-1.838,0-3.333,1.496-3.333,3.333s1.496,3.333,3.333,3.333       s3.333-1.496,3.333-3.333S51.149,171.584,49.312,171.584z"/>
				</g>
			</g>
			<g>
				<path fill="#007640" d="M40.311,224.221c-0.906-1.177-3.479-4.454-4.496-5.473c-0.877-0.876-2.41-1.692-2.926-1.933l1.679-3.63      c0.255,0.118,2.535,1.194,4.076,2.735c1.385,1.385,4.488,5.407,4.837,5.861L40.311,224.221z"/>
				<g>
					<circle fill="#231F20" cx="33.646" cy="214.751" r="3.833"/>
					<path fill="#007640" d="M33.646,219.084c-2.39,0-4.333-1.944-4.333-4.333c0-2.39,1.944-4.333,4.333-4.333       s4.333,1.944,4.333,4.333C37.98,217.14,36.036,219.084,33.646,219.084z M33.646,211.417c-1.838,0-3.333,1.496-3.333,3.333       s1.496,3.333,3.333,3.333s3.333-1.495,3.333-3.333S35.484,211.417,33.646,211.417z"/>
				</g>
			</g>
			<g>
				<path fill="#007640" d="M42.647,224.221l-3.17-2.439c0.349-0.454,3.452-4.476,4.837-5.861c1.541-1.541,3.821-2.618,4.076-2.735      l1.677,3.632l-0.838-1.816l0.841,1.814c-0.517,0.24-2.049,1.056-2.927,1.934C46.125,219.767,43.553,223.044,42.647,224.221z"/>
				<g>
					<circle fill="#231F20" cx="49.312" cy="214.751" r="3.833"/>
					<path fill="#007640" d="M49.312,219.084c-2.39,0-4.333-1.944-4.333-4.333c0-2.39,1.944-4.333,4.333-4.333       s4.333,1.944,4.333,4.333C53.645,217.14,51.701,219.084,49.312,219.084z M49.312,211.417c-1.838,0-3.333,1.496-3.333,3.333       s1.496,3.333,3.333,3.333s3.333-1.495,3.333-3.333S51.149,211.417,49.312,211.417z"/>
				</g>
			</g>
			<g>
				<path fill="#007640" d="M40.311,264.054c-0.906-1.177-3.479-4.453-4.496-5.472c-0.877-0.877-2.41-1.693-2.927-1.934l1.68-3.63      c0.255,0.117,2.535,1.194,4.075,2.735c1.385,1.386,4.488,5.406,4.837,5.86L40.311,264.054z"/>
				<g>
					<circle fill="#231F20" cx="33.646" cy="254.584" r="3.833"/>
					<path fill="#007640" d="M33.646,258.918c-2.39,0-4.333-1.944-4.333-4.334s1.944-4.333,4.333-4.333s4.333,1.943,4.333,4.333       S36.036,258.918,33.646,258.918z M33.646,251.251c-1.838,0-3.333,1.495-3.333,3.333s1.496,3.334,3.333,3.334       s3.333-1.496,3.333-3.334S35.484,251.251,33.646,251.251z"/>
				</g>
			</g>
			<g>
				<path fill="#007640" d="M42.647,264.054l-3.17-2.439c0.349-0.454,3.452-4.475,4.837-5.86c1.541-1.541,3.821-2.618,4.076-2.735      l1.678,3.631l-0.839-1.815l0.841,1.814c-0.517,0.24-2.05,1.057-2.927,1.934C46.125,259.601,43.553,262.877,42.647,264.054z"/>
				<g>
					<circle fill="#231F20" cx="49.312" cy="254.584" r="3.833"/>
					<path fill="#007640" d="M49.312,258.918c-2.39,0-4.333-1.944-4.333-4.334s1.944-4.333,4.333-4.333s4.333,1.943,4.333,4.333       S51.701,258.918,49.312,258.918z M49.312,251.251c-1.838,0-3.333,1.495-3.333,3.333s1.496,3.334,3.333,3.334       s3.333-1.496,3.333-3.334S51.149,251.251,49.312,251.251z"/>
				</g>
			</g>
			<path fill="#007640" d="M66.813,86.833c0,0-6.166,4.167-12.833,12.5S41.562,119.75,41.562,119.75s-2.5-10.75-7.5-14.5     s-9.5-8-11.5-12.75s-2.75-6.5-3.75-6.5s-1.5,10.25,3,24s12.75,19.5,17,19.5c2.167,0,2.667-1.25,2.667-1.25     s3.333,1.583,5.583,1.583s10.75-3.584,16.084-16.584S66.813,86.833,66.813,86.833z M29.563,117c-4.083-5.083-6-12.417-6-12.417     s4.5,3.75,8,8.75S35.48,123,35.48,123S33.646,122.083,29.563,117z M55.98,116.666c-4.917,6.75-7.5,7-7.5,7     s2.667-7.167,4.917-10.917s7.417-8.583,7.417-8.583S60.896,109.916,55.98,116.666z"/>
			<path fill="#007640" d="M66.813,126.583c0,0-6.166,4.167-12.833,12.5S41.562,159.5,41.562,159.5s-2.5-10.75-7.5-14.5     s-9.5-8-11.5-12.75s-2.75-6.5-3.75-6.5s-1.5,10.25,3,24s12.75,19.5,17,19.5c2.167,0,2.667-1.25,2.667-1.25     s3.333,1.583,5.583,1.583S57.813,166,63.146,153S66.813,126.583,66.813,126.583z M29.563,156.75c-4.083-5.083-6-12.417-6-12.417     s4.5,3.75,8,8.75s3.917,9.667,3.917,9.667S33.646,161.833,29.563,156.75z M55.98,156.416c-4.917,6.75-7.5,7-7.5,7     s2.667-7.167,4.917-10.917s7.417-8.583,7.417-8.583S60.896,149.666,55.98,156.416z"/>
			<path fill="#007640" d="M66.813,166.333c0,0-6.166,4.167-12.833,12.5S41.562,199.25,41.562,199.25s-2.5-10.75-7.5-14.5     s-9.5-8-11.5-12.75s-2.75-6.5-3.75-6.5s-1.5,10.25,3,24s12.75,19.5,17,19.5c2.167,0,2.667-1.25,2.667-1.25     s3.333,1.583,5.583,1.583s10.75-3.584,16.084-16.584S66.813,166.333,66.813,166.333z M29.563,196.5     c-4.083-5.083-6-12.417-6-12.417s4.5,3.75,8,8.75s3.917,9.667,3.917,9.667S33.646,201.583,29.563,196.5z M55.98,196.166     c-4.917,6.75-7.5,7-7.5,7s2.667-7.167,4.917-10.917s7.417-8.583,7.417-8.583S60.896,189.416,55.98,196.166z"/>
			<path fill="#007640" d="M66.813,206.083c0,0-6.166,4.167-12.833,12.5S41.562,239,41.562,239s-2.5-10.75-7.5-14.5     s-9.5-8-11.5-12.75s-2.75-6.5-3.75-6.5s-1.5,10.25,3,24s12.75,19.5,17,19.5c2.167,0,2.667-1.25,2.667-1.25     s3.333,1.584,5.583,1.584s10.75-3.584,16.084-16.584S66.813,206.083,66.813,206.083z M29.563,236.25     c-4.083-5.084-6-12.417-6-12.417s4.5,3.75,8,8.75s3.917,9.667,3.917,9.667S33.646,241.333,29.563,236.25z M55.98,235.916     c-4.917,6.75-7.5,7-7.5,7s2.667-7.166,4.917-10.916s7.417-8.584,7.417-8.584S60.896,229.166,55.98,235.916z"/>
			<path fill="#007640" d="M66.813,245.833c0,0-6.166,4.167-12.833,12.5S41.562,278.75,41.562,278.75s-2.5-10.75-7.5-14.5     s-9.5-8-11.5-12.75s-2.75-6.5-3.75-6.5s-1.5,10.25,3,24s12.75,19.5,17,19.5c2.167,0,2.667-1.25,2.667-1.25     s3.333,1.584,5.583,1.584s10.75-3.584,16.084-16.584S66.813,245.833,66.813,245.833z M29.563,276c-4.083-5.084-6-12.417-6-12.417     s4.5,3.75,8,8.75S35.48,282,35.48,282S33.646,281.083,29.563,276z M55.98,275.666c-4.917,6.75-7.5,7-7.5,7     s2.667-7.166,4.917-10.916s7.417-8.584,7.417-8.584S60.896,268.916,55.98,275.666z"/>
		</g>
		<g>
			<path fill="#007640" d="M247.938,82.333c0,15.833,8,21,8,21s8.666-7.5,8.666-16.333s-7.166-29.667-7.166-29.667     S247.938,66.5,247.938,82.333z M254.938,88c0-3,2.5-7,2.5-7s1,4.833,1,7.5s-1.667,7-1.667,7S254.938,91,254.938,88z"/>
			<g>
				<path fill="#007640" d="M257.688,144.554l-3.17-2.439c0.35-0.454,3.453-4.476,4.838-5.861c1.54-1.541,3.82-2.618,4.076-2.735      l1.676,3.632l-0.838-1.816l0.841,1.814c-0.517,0.24-2.049,1.056-2.927,1.933C261.167,140.099,258.594,143.376,257.688,144.554z"/>
				<g>
					<circle fill="#231F20" cx="264.354" cy="135.084" r="3.834"/>
					<path fill="#007640" d="M264.354,139.417c-2.39,0-4.334-1.944-4.334-4.333s1.944-4.333,4.334-4.333s4.334,1.944,4.334,4.333       S266.743,139.417,264.354,139.417z M264.354,131.75c-1.838,0-3.334,1.496-3.334,3.333s1.496,3.333,3.334,3.333       s3.334-1.496,3.334-3.333S266.191,131.75,264.354,131.75z"/>
				</g>
			</g>
			<g>
				<path fill="#007640" d="M255.353,144.553c-0.905-1.177-3.478-4.454-4.495-5.472c-0.878-0.877-2.41-1.693-2.927-1.933l1.679-3.63      c0.256,0.118,2.536,1.194,4.076,2.735c1.385,1.385,4.488,5.407,4.837,5.861L255.353,144.553z"/>
				<g>
					<circle fill="#231F20" cx="248.688" cy="135.084" r="3.833"/>
					<path fill="#007640" d="M248.688,139.417c-2.39,0-4.333-1.944-4.333-4.333s1.943-4.333,4.333-4.333s4.333,1.944,4.333,4.333       S251.078,139.417,248.688,139.417z M248.688,131.75c-1.838,0-3.333,1.496-3.333,3.333s1.495,3.333,3.333,3.333       s3.333-1.496,3.333-3.333S250.526,131.75,248.688,131.75z"/>
				</g>
			</g>
			<g>
				<path fill="#007640" d="M257.688,184.387l-3.17-2.439c0.35-0.454,3.453-4.476,4.838-5.861c1.54-1.541,3.82-2.618,4.076-2.735      l1.676,3.632l-0.838-1.816l0.841,1.814c-0.517,0.24-2.049,1.056-2.927,1.933C261.167,179.933,258.594,183.21,257.688,184.387z"/>
				<g>
					<circle fill="#231F20" cx="264.354" cy="174.917" r="3.834"/>
					<path fill="#007640" d="M264.354,179.251c-2.39,0-4.334-1.944-4.334-4.333s1.944-4.333,4.334-4.333s4.334,1.944,4.334,4.333       S266.743,179.251,264.354,179.251z M264.354,171.584c-1.838,0-3.334,1.496-3.334,3.333s1.496,3.333,3.334,3.333       s3.334-1.496,3.334-3.333S266.191,171.584,264.354,171.584z"/>
				</g>
			</g>
			<g>
				<path fill="#007640" d="M255.353,184.387c-0.905-1.177-3.478-4.454-4.495-5.472c-0.878-0.877-2.41-1.693-2.927-1.933l1.679-3.63      c0.256,0.118,2.536,1.194,4.076,2.735c1.385,1.385,4.488,5.407,4.837,5.861L255.353,184.387z"/>
				<g>
					<circle fill="#231F20" cx="248.688" cy="174.917" r="3.833"/>
					<path fill="#007640" d="M248.688,179.251c-2.39,0-4.333-1.944-4.333-4.333s1.943-4.333,4.333-4.333s4.333,1.944,4.333,4.333       S251.078,179.251,248.688,179.251z M248.688,171.584c-1.838,0-3.333,1.496-3.333,3.333s1.495,3.333,3.333,3.333       s3.333-1.496,3.333-3.333S250.526,171.584,248.688,171.584z"/>
				</g>
			</g>
			<g>
				<path fill="#007640" d="M257.688,224.221l-3.17-2.439c0.35-0.454,3.453-4.476,4.838-5.861c1.54-1.541,3.82-2.618,4.076-2.735      l1.676,3.632l-0.838-1.816l0.841,1.814c-0.517,0.24-2.049,1.056-2.927,1.934C261.167,219.767,258.594,223.044,257.688,224.221z"/>
				<g>
					<circle fill="#231F20" cx="264.354" cy="214.751" r="3.834"/>
					<path fill="#007640" d="M264.354,219.084c-2.39,0-4.334-1.944-4.334-4.333c0-2.39,1.944-4.333,4.334-4.333       s4.334,1.944,4.334,4.333C268.688,217.14,266.743,219.084,264.354,219.084z M264.354,211.417c-1.838,0-3.334,1.496-3.334,3.333       s1.496,3.333,3.334,3.333s3.334-1.495,3.334-3.333S266.191,211.417,264.354,211.417z"/>
				</g>
			</g>
			<g>
				<path fill="#007640" d="M255.353,224.221c-0.905-1.177-3.478-4.454-4.495-5.473c-0.878-0.876-2.41-1.692-2.927-1.933l1.679-3.63      c0.256,0.118,2.536,1.194,4.076,2.735c1.385,1.385,4.488,5.407,4.837,5.861L255.353,224.221z"/>
				<g>
					<circle fill="#231F20" cx="248.688" cy="214.751" r="3.833"/>
					<path fill="#007640" d="M248.688,219.084c-2.39,0-4.333-1.944-4.333-4.333c0-2.39,1.943-4.333,4.333-4.333       s4.333,1.944,4.333,4.333C253.021,217.14,251.078,219.084,248.688,219.084z M248.688,211.417c-1.838,0-3.333,1.496-3.333,3.333       s1.495,3.333,3.333,3.333s3.333-1.495,3.333-3.333S250.526,211.417,248.688,211.417z"/>
				</g>
			</g>
			<g>
				<path fill="#007640" d="M257.688,264.054l-3.17-2.439c0.35-0.454,3.453-4.475,4.837-5.86c1.541-1.541,3.821-2.618,4.076-2.735      l1.678,3.631l-0.839-1.815l0.841,1.814c-0.517,0.24-2.049,1.057-2.927,1.934C261.167,259.601,258.594,262.877,257.688,264.054z"/>
				<g>
					<circle fill="#231F20" cx="264.354" cy="254.584" r="3.834"/>
					<path fill="#007640" d="M264.354,258.918c-2.39,0-4.334-1.944-4.334-4.334s1.944-4.333,4.334-4.333s4.334,1.943,4.334,4.333       S266.743,258.918,264.354,258.918z M264.354,251.251c-1.838,0-3.334,1.495-3.334,3.333s1.496,3.334,3.334,3.334       s3.334-1.496,3.334-3.334S266.191,251.251,264.354,251.251z"/>
				</g>
			</g>
			<g>
				<path fill="#007640" d="M255.353,264.054c-0.905-1.177-3.478-4.453-4.496-5.472c-0.877-0.877-2.409-1.693-2.926-1.934l1.68-3.63      c0.255,0.117,2.535,1.194,4.075,2.735c1.385,1.386,4.488,5.406,4.837,5.86L255.353,264.054z"/>
				<g>
					<circle fill="#231F20" cx="248.688" cy="254.584" r="3.833"/>
					<path fill="#007640" d="M248.688,258.918c-2.39,0-4.333-1.944-4.333-4.334s1.943-4.333,4.333-4.333s4.333,1.943,4.333,4.333       S251.078,258.918,248.688,258.918z M248.688,251.251c-1.838,0-3.333,1.495-3.333,3.333s1.495,3.334,3.333,3.334       s3.333-1.496,3.333-3.334S250.526,251.251,248.688,251.251z"/>
				</g>
			</g>
			<path fill="#007640" d="M234.854,113.25c5.334,13,13.834,16.584,16.084,16.584s5.584-1.583,5.584-1.583s0.5,1.25,2.666,1.25     c4.25,0,12.5-5.75,17-19.5s4-24,3-24s-1.75,1.75-3.75,6.5s-6.5,9-11.5,12.75s-7.5,14.5-7.5,14.5s-5.75-12.084-12.418-20.417     c-6.666-8.333-12.832-12.5-12.832-12.5S229.52,100.25,234.854,113.25z M262.52,123c0,0,0.418-4.667,3.918-9.667s8-8.75,8-8.75     s-1.917,7.333-6,12.417C264.354,122.083,262.52,123,262.52,123z M237.188,104.166c0,0,5.166,4.833,7.416,8.583     s4.916,10.917,4.916,10.917s-2.583-0.25-7.5-7C237.104,109.916,237.188,104.166,237.188,104.166z"/>
			<path fill="#007640" d="M234.854,153c5.334,13,13.834,16.584,16.084,16.584s5.584-1.583,5.584-1.583s0.5,1.25,2.666,1.25     c4.25,0,12.5-5.75,17-19.5s4-24,3-24s-1.75,1.75-3.75,6.5s-6.5,9-11.5,12.75s-7.5,14.5-7.5,14.5s-5.75-12.084-12.418-20.417     c-6.666-8.333-12.832-12.5-12.832-12.5S229.52,140,234.854,153z M262.52,162.75c0,0,0.418-4.667,3.918-9.667s8-8.75,8-8.75     s-1.917,7.333-6,12.417C264.354,161.833,262.52,162.75,262.52,162.75z M237.188,143.916c0,0,5.166,4.833,7.416,8.583     s4.916,10.917,4.916,10.917s-2.583-0.25-7.5-7C237.104,149.666,237.188,143.916,237.188,143.916z"/>
			<path fill="#007640" d="M234.854,192.75c5.334,13,13.834,16.584,16.084,16.584s5.584-1.583,5.584-1.583s0.5,1.25,2.666,1.25     c4.25,0,12.5-5.75,17-19.5s4-24,3-24s-1.75,1.75-3.75,6.5s-6.5,9-11.5,12.75s-7.5,14.5-7.5,14.5s-5.75-12.084-12.418-20.417     c-6.666-8.333-12.832-12.5-12.832-12.5S229.52,179.75,234.854,192.75z M262.52,202.5c0,0,0.418-4.667,3.918-9.667s8-8.75,8-8.75     s-1.917,7.333-6,12.417C264.354,201.583,262.52,202.5,262.52,202.5z M237.188,183.666c0,0,5.166,4.833,7.416,8.583     s4.916,10.917,4.916,10.917s-2.583-0.25-7.5-7C237.104,189.416,237.188,183.666,237.188,183.666z"/>
			<path fill="#007640" d="M234.854,232.5c5.334,13,13.834,16.584,16.084,16.584s5.584-1.584,5.584-1.584s0.5,1.25,2.666,1.25     c4.25,0,12.5-5.75,17-19.5s4-24,3-24s-1.75,1.75-3.75,6.5s-6.5,9-11.5,12.75s-7.5,14.5-7.5,14.5s-5.75-12.084-12.418-20.417     c-6.666-8.333-12.832-12.5-12.832-12.5S229.52,219.5,234.854,232.5z M262.52,242.25c0,0,0.418-4.667,3.918-9.667s8-8.75,8-8.75     s-1.917,7.333-6,12.417C264.354,241.333,262.52,242.25,262.52,242.25z M237.188,223.416c0,0,5.166,4.834,7.416,8.584     s4.916,10.916,4.916,10.916s-2.583-0.25-7.5-7C237.104,229.166,237.188,223.416,237.188,223.416z"/>
			<path fill="#007640" d="M234.854,272.25c5.334,13,13.834,16.584,16.084,16.584s5.584-1.584,5.584-1.584s0.5,1.25,2.666,1.25     c4.25,0,12.5-5.75,17-19.5s4-24,3-24s-1.75,1.75-3.75,6.5s-6.5,9-11.5,12.75s-7.5,14.5-7.5,14.5s-5.75-12.084-12.418-20.417     c-6.666-8.333-12.832-12.5-12.832-12.5S229.52,259.25,234.854,272.25z M262.52,282c0,0,0.418-4.667,3.918-9.667s8-8.75,8-8.75     s-1.917,7.333-6,12.417C264.354,281.083,262.52,282,262.52,282z M237.188,263.166c0,0,5.166,4.834,7.416,8.584     s4.916,10.916,4.916,10.916s-2.583-0.25-7.5-7C237.104,268.916,237.188,263.166,237.188,263.166z"/>
		</g>
	</g>
	<path fill="#231F20" d="M239,78.216v-3h-51.334V58.725l26.5-21V13.75h-28.5v9.5h-20.75V13.167h-31.832V23.25h-20.75v-9.5h-28.5   v23.975l26.5,21v16.491H59v3h16.25v9.75H73v3h16v12.5H72.433v3h54.317v-3h-8.25v-12.5h5.75v-3h-19.5v-9.75h10.75v-3h-2.166V57.275   l-26.5-21V16.75h22.5v9.5h26.75V16.167h25.832V26.25h26.75v-9.5h22.5v19.525l-26.5,21v17.941H182.5v3h10.75v9.75h-19.5v3h5.75v12.5   h-8.25v3h54.317v-3H209v-12.5h16v-3h-2.25v-9.75H239z M78.25,87.966v-9.75h23.5v9.75H78.25z M115.5,90.966v12.5H92v-12.5H115.5z    M206,103.466h-23.5v-12.5H206V103.466z M219.75,87.966h-23.5v-9.75h23.5V87.966z"/>
	<g>
		<path fill="#951E3C" d="M149,399.334c78,0,110.662-72,110.662-72l2.333,14l6,4.333l0.667,4.333c0,0-32.329,70-119.662,70    S29.338,350,29.338,350l0.667-4.333l6-4.333l2.333-14C38.338,327.334,71,399.334,149,399.334z"/>
		<path fill="#231F20" d="M149,421.5c-45.598,0-76.066-19.249-93.597-35.396c-19-17.502-27.092-34.749-27.427-35.475l-0.189-0.41    l0.831-5.4l6.009-4.339l3.041-18.247l2.036,4.481c0.081,0.179,8.305,18.034,25.854,35.638    c16.136,16.188,43.71,35.482,83.442,35.482c39.731,0,67.307-19.295,83.442-35.482c17.549-17.604,25.772-35.459,25.854-35.638    l2.036-4.48l3.041,18.246l6.009,4.339l0.832,5.4l-0.19,0.41c-0.335,0.726-8.426,17.973-27.427,35.475    C225.066,402.251,194.598,421.5,149,421.5z M30.892,349.767c1.33,2.686,9.599,18.553,26.638,34.217    C74.658,399.729,104.43,418.5,149,418.5c44.63,0,74.427-18.817,91.564-34.604c17.002-15.66,25.22-31.45,26.544-34.129l-0.5-3.252    l-5.991-4.327l-1.685-10.109c-3.468,6.394-11.317,19.281-24.288,32.313c-16.547,16.624-44.837,36.441-85.645,36.441    s-69.098-19.817-85.644-36.441c-12.971-13.032-20.82-25.92-24.288-32.313l-1.685,10.109l-5.991,4.327L30.892,349.767z"/>
	</g>
	<g>
		<path fill="#231F20" d="M39.684,345.799l-4.995,2.853l0.242,0.423c0.161,0.282,0.2,0.527,0.115,0.735    c-0.084,0.207-0.25,0.382-0.497,0.522c-0.242,0.138-0.474,0.19-0.695,0.158c-0.222-0.033-0.413-0.19-0.574-0.473l-0.879-1.539    c-0.161-0.282-0.2-0.527-0.115-0.734c0.084-0.208,0.25-0.382,0.497-0.523c0.236-0.135,0.466-0.188,0.689-0.158    s0.406,0.168,0.547,0.416l6.461-3.69l-0.104-0.184c-0.161-0.282-0.2-0.526-0.115-0.734c0.084-0.207,0.25-0.382,0.498-0.522    c0.247-0.142,0.481-0.195,0.703-0.163c0.222,0.033,0.414,0.19,0.575,0.473l0.766,1.36l-4.91,6.78l4.971-2.839l-0.242-0.424    c-0.162-0.282-0.2-0.526-0.115-0.734c0.084-0.207,0.25-0.382,0.497-0.522c0.247-0.142,0.481-0.195,0.703-0.163    c0.222,0.033,0.413,0.19,0.574,0.473l0.871,1.544c0.161,0.282,0.201,0.526,0.119,0.732s-0.246,0.379-0.493,0.521    c-0.242,0.138-0.474,0.192-0.697,0.163c-0.224-0.029-0.405-0.166-0.544-0.41l-8.112,4.633l-0.663-1.161L39.684,345.799z"/>
		<path fill="#231F20" d="M39.152,359.431l0.369-0.25c-0.399-0.138-0.766-0.341-1.1-0.608c-0.334-0.268-0.594-0.539-0.781-0.816    c-0.406-0.601-0.511-1.239-0.316-1.917c0.195-0.678,0.564-1.2,1.107-1.567c0.661-0.447,1.437-0.622,2.326-0.526    s1.62,0.566,2.19,1.41c0.229,0.339,0.441,0.765,0.639,1.278l0.377-0.255c0.235-0.159,0.379-0.361,0.431-0.605    c0.051-0.244-0.06-0.568-0.333-0.972c-0.224-0.331-0.606-0.698-1.147-1.102c-0.2-0.151-0.336-0.282-0.41-0.392    c-0.101-0.148-0.11-0.326-0.029-0.532s0.239-0.389,0.475-0.548c0.133-0.09,0.261-0.149,0.383-0.179    c0.122-0.029,0.234-0.031,0.338-0.006c0.103,0.025,0.266,0.114,0.488,0.267c0.294,0.204,0.571,0.428,0.83,0.672    c0.258,0.244,0.466,0.483,0.624,0.716c0.47,0.695,0.623,1.378,0.459,2.048c-0.163,0.669-0.611,1.252-1.344,1.747l-3.244,2.191    l0.129,0.191c0.182,0.27,0.239,0.511,0.17,0.724c-0.068,0.214-0.221,0.4-0.456,0.56c-0.231,0.155-0.458,0.226-0.682,0.21    c-0.223-0.017-0.426-0.159-0.608-0.429L39.152,359.431z M41.973,357.524c-0.179-0.531-0.397-0.985-0.653-1.364    c-0.308-0.455-0.728-0.74-1.262-0.856c-0.337-0.069-0.609-0.034-0.813,0.104c-0.149,0.101-0.236,0.23-0.262,0.392    c-0.046,0.296,0.038,0.603,0.251,0.919c0.182,0.27,0.462,0.524,0.841,0.764c0.378,0.24,0.786,0.406,1.222,0.499L41.973,357.524z"/>
		<path fill="#231F20" d="M44.569,363.638l1.453,1.874c0.287-0.205,0.538-0.312,0.754-0.321c0.216-0.01,0.38,0.059,0.493,0.205    c0.124,0.159,0.147,0.349,0.07,0.566c-0.078,0.219-0.297,0.468-0.659,0.748l-1.334,1.035l-3.601-4.645l1.246-0.967l6.088-0.218    l-1.268-1.636l-0.147,0.114c-0.356,0.276-0.65,0.425-0.881,0.445c-0.231,0.021-0.408-0.049-0.532-0.209    c-0.124-0.159-0.147-0.349-0.07-0.566c0.077-0.219,0.294-0.466,0.651-0.743l1.654-1.273l3.424,4.415l-1.232,0.955L44.569,363.638z    "/>
		<path fill="#231F20" d="M49.789,372.904l0.334-0.295c-0.414-0.085-0.804-0.239-1.169-0.462s-0.659-0.459-0.879-0.71    c-0.479-0.543-0.666-1.164-0.559-1.861s0.406-1.263,0.897-1.696c0.599-0.527,1.345-0.801,2.24-0.819    c0.895-0.02,1.679,0.354,2.353,1.118c0.27,0.307,0.536,0.701,0.798,1.185l0.341-0.301c0.213-0.188,0.33-0.406,0.35-0.655    c0.02-0.248-0.131-0.556-0.454-0.921c-0.264-0.3-0.691-0.615-1.279-0.945c-0.217-0.125-0.37-0.237-0.457-0.336    c-0.119-0.135-0.152-0.31-0.098-0.524c0.054-0.215,0.188-0.416,0.401-0.604c0.121-0.105,0.24-0.182,0.357-0.227    c0.117-0.045,0.229-0.061,0.334-0.049c0.105,0.013,0.278,0.08,0.519,0.202c0.318,0.164,0.621,0.352,0.908,0.561    s0.524,0.419,0.71,0.63c0.555,0.629,0.794,1.286,0.718,1.972c-0.076,0.685-0.446,1.32-1.109,1.905l-2.936,2.589l0.152,0.173    c0.215,0.244,0.302,0.477,0.261,0.696c-0.041,0.221-0.167,0.425-0.381,0.613c-0.209,0.184-0.425,0.282-0.649,0.295    c-0.224,0.013-0.443-0.103-0.658-0.346L49.789,372.904z M52.342,370.652c-0.246-0.503-0.52-0.927-0.822-1.269    c-0.363-0.412-0.817-0.642-1.361-0.688c-0.344-0.025-0.608,0.044-0.794,0.208c-0.134,0.118-0.204,0.259-0.209,0.422    c-0.008,0.3,0.114,0.593,0.367,0.879c0.215,0.244,0.525,0.461,0.932,0.65s0.832,0.302,1.275,0.338L52.342,370.652z"/>
		<path fill="#231F20" d="M60.6,372.072l-0.839,0.84c0.807-0.007,1.395,0.038,1.761,0.134c0.367,0.096,0.652,0.244,0.854,0.446    c0.311,0.311,0.45,0.773,0.419,1.39c-0.02,0.417-0.144,0.739-0.371,0.967c-0.192,0.192-0.403,0.309-0.631,0.347    c-0.228,0.039-0.409-0.009-0.542-0.142c-0.118-0.118-0.159-0.325-0.124-0.622s0.002-0.496-0.101-0.599    c-0.133-0.134-0.451-0.215-0.953-0.244c-0.502-0.029-1.188-0.007-2.058,0.068l-2.026,2.028l1.361,1.359    c0.23,0.229,0.332,0.456,0.305,0.679s-0.141,0.435-0.342,0.636c-0.197,0.196-0.406,0.309-0.629,0.335    c-0.222,0.027-0.448-0.074-0.678-0.304l-2.885-2.884c-0.229-0.229-0.331-0.455-0.305-0.678c0.027-0.223,0.141-0.435,0.342-0.636    c0.197-0.197,0.406-0.309,0.629-0.336c0.223-0.026,0.449,0.075,0.679,0.305l0.568,0.568l3.266-3.269l-0.345-0.345    c-0.23-0.229-0.332-0.455-0.305-0.678s0.141-0.435,0.342-0.636c0.197-0.197,0.406-0.309,0.629-0.336    c0.223-0.026,0.449,0.075,0.679,0.305L60.6,372.072z"/>
		<path fill="#231F20" d="M65.803,383.903l-4.163-3.657c-0.221,0.464-0.297,0.929-0.228,1.393c0.069,0.464,0.333,0.897,0.791,1.3    c0.376,0.331,0.976,0.656,1.8,0.977c0.339,0.134,0.558,0.243,0.657,0.33c0.135,0.119,0.19,0.287,0.164,0.503    c-0.026,0.216-0.129,0.426-0.309,0.63c-0.163,0.187-0.352,0.301-0.565,0.344c-0.283,0.056-0.749-0.062-1.397-0.356    c-0.648-0.294-1.208-0.648-1.68-1.062c-0.812-0.714-1.177-1.606-1.096-2.681c0.081-1.073,0.535-2.081,1.364-3.024    c0.882-1.004,1.862-1.589,2.942-1.756c1.08-0.168,1.962,0.051,2.649,0.653c0.413,0.362,0.701,0.798,0.867,1.305    c0.165,0.508,0.228,0.954,0.188,1.339c-0.065,0.553-0.242,1.149-0.532,1.793c-0.205,0.445-0.511,0.9-0.919,1.365L65.803,383.903z     M65.935,381.487c0.204-0.545,0.27-1.029,0.196-1.451c-0.073-0.423-0.283-0.786-0.629-1.091c-0.343-0.301-0.729-0.461-1.157-0.479    c-0.429-0.018-0.902,0.107-1.419,0.377L65.935,381.487z"/>
		<path fill="#231F20" d="M71.458,384.188l-2.324,3.022c-0.249,0.324-0.366,0.573-0.351,0.749c0.022,0.273,0.221,0.556,0.597,0.845    c0.546,0.42,1.178,0.645,1.894,0.672c0.275,0.009,0.464,0.053,0.565,0.13c0.139,0.107,0.204,0.273,0.193,0.5    c-0.01,0.226-0.097,0.444-0.259,0.655c-0.151,0.196-0.336,0.322-0.557,0.379c-0.348,0.1-0.848,0.053-1.5-0.141    c-0.652-0.193-1.15-0.423-1.495-0.688c-0.666-0.512-1.009-1.098-1.03-1.758s0.194-1.284,0.646-1.872l2.55-3.317l-0.387-0.297    c-0.258-0.198-0.388-0.409-0.39-0.634c-0.002-0.224,0.083-0.449,0.257-0.675c0.169-0.22,0.363-0.358,0.58-0.414    c0.217-0.055,0.455,0.017,0.712,0.215l0.387,0.297l1.046-1.36c0.279-0.363,0.527-0.584,0.745-0.662    c0.218-0.078,0.407-0.056,0.567,0.068c0.157,0.12,0.225,0.296,0.206,0.526c-0.02,0.23-0.169,0.527-0.448,0.891l-1.046,1.36    l1.979,1.522c0.258,0.198,0.388,0.409,0.39,0.633c0.002,0.225-0.083,0.449-0.257,0.675c-0.169,0.221-0.363,0.358-0.58,0.414    s-0.455-0.016-0.712-0.214L71.458,384.188z"/>
		<path fill="#231F20" d="M80.268,383.8l-2.251,3.372c0.364-0.04,0.698-0.027,1.001,0.037c0.303,0.064,0.576,0.179,0.821,0.343    c0.387,0.258,0.67,0.581,0.85,0.969s0.236,0.848,0.169,1.379s-0.303,1.101-0.708,1.708l-1.983,2.971    c0.285,0.189,0.445,0.353,0.481,0.488c0.069,0.276,0.006,0.562-0.19,0.854c-0.155,0.231-0.337,0.383-0.548,0.454    c-0.211,0.071-0.452,0.017-0.723-0.164l-1.282-0.856c-0.267-0.178-0.409-0.379-0.426-0.602c-0.017-0.224,0.053-0.454,0.211-0.69    c0.192-0.288,0.43-0.453,0.711-0.496c0.146-0.021,0.358,0.064,0.636,0.258l1.911-2.862c0.271-0.406,0.396-0.736,0.375-0.988    c-0.024-0.336-0.204-0.616-0.541-0.841c-0.249-0.166-0.514-0.244-0.797-0.236c-0.283,0.009-0.738,0.131-1.365,0.366l-1.978,2.963    c0.289,0.192,0.449,0.355,0.482,0.489c0.072,0.278,0.011,0.564-0.185,0.857c-0.155,0.231-0.338,0.383-0.551,0.452    c-0.213,0.07-0.455,0.015-0.725-0.166l-1.277-0.853c-0.271-0.181-0.414-0.382-0.431-0.605c-0.018-0.224,0.053-0.453,0.211-0.69    c0.192-0.288,0.431-0.452,0.717-0.492c0.143-0.023,0.354,0.062,0.636,0.258l4.569-6.844l-0.192-0.128    c-0.271-0.181-0.414-0.383-0.431-0.606c-0.018-0.224,0.053-0.453,0.211-0.69c0.154-0.231,0.338-0.382,0.551-0.451    c0.213-0.07,0.455-0.015,0.725,0.166L80.268,383.8z"/>
		<path fill="#231F20" d="M94.373,395.037l-3.251,6.692l1.227,0.597c0.292,0.142,0.462,0.322,0.51,0.541    c0.047,0.22,0.009,0.457-0.115,0.713c-0.122,0.25-0.283,0.425-0.485,0.522s-0.448,0.076-0.741-0.066l-3.668-1.782    c-0.292-0.142-0.462-0.322-0.51-0.541c-0.047-0.22-0.009-0.457,0.115-0.713c0.122-0.25,0.283-0.425,0.485-0.522    s0.448-0.076,0.741,0.066l1.227,0.596l3.252-6.692l-1.227-0.596c-0.292-0.143-0.462-0.323-0.51-0.542s-0.009-0.456,0.116-0.712    c0.124-0.256,0.287-0.434,0.488-0.531c0.202-0.099,0.449-0.076,0.741,0.065l3.664,1.791c0.292,0.142,0.463,0.321,0.512,0.537    c0.049,0.217,0.011,0.453-0.113,0.709c-0.124,0.256-0.287,0.433-0.489,0.53c-0.201,0.099-0.448,0.076-0.741-0.065L94.373,395.037z    "/>
		<path fill="#231F20" d="M102.674,395.733l-3.794,9.394l1.503,0.607c0.301,0.121,0.483,0.29,0.545,0.505    c0.062,0.216,0.04,0.455-0.066,0.719c-0.104,0.258-0.253,0.443-0.448,0.555s-0.442,0.106-0.744-0.016l-4.258-1.72    c-0.301-0.122-0.483-0.29-0.545-0.505c-0.062-0.216-0.04-0.455,0.066-0.719c0.104-0.259,0.253-0.443,0.448-0.555    s0.442-0.106,0.744,0.015l1.503,0.607l3.082-7.63l-1.008-0.407c-0.297-0.12-0.478-0.288-0.542-0.504    c-0.064-0.217-0.043-0.456,0.063-0.721c0.104-0.258,0.253-0.442,0.448-0.554c0.194-0.112,0.442-0.106,0.744,0.015L102.674,395.733    z"/>
		<path fill="#231F20" d="M110.027,398.366l-3.147,9.63l1.541,0.503c0.309,0.102,0.502,0.257,0.579,0.468    c0.077,0.21,0.071,0.451-0.018,0.722c-0.086,0.264-0.223,0.459-0.409,0.583c-0.186,0.125-0.434,0.137-0.743,0.035l-4.365-1.426    c-0.309-0.102-0.502-0.257-0.579-0.468s-0.071-0.451,0.018-0.722c0.086-0.265,0.223-0.459,0.409-0.583    c0.187-0.125,0.434-0.137,0.743-0.036l1.541,0.504l2.557-7.822l-1.034-0.337c-0.305-0.1-0.497-0.256-0.575-0.467    c-0.079-0.211-0.074-0.452,0.014-0.723c0.086-0.265,0.223-0.459,0.409-0.583c0.186-0.125,0.434-0.137,0.743-0.036L110.027,398.366    z"/>
		<path fill="#231F20" d="M116.629,403.991l-1.61,6.32l1.571,0.4c0.315,0.08,0.518,0.223,0.608,0.428    c0.09,0.205,0.101,0.445,0.03,0.721c-0.068,0.27-0.191,0.473-0.369,0.609s-0.424,0.165-0.739,0.085l-4.451-1.134    c-0.315-0.08-0.518-0.223-0.608-0.428c-0.09-0.205-0.101-0.445-0.03-0.721c0.069-0.27,0.192-0.473,0.369-0.609    c0.178-0.137,0.424-0.165,0.739-0.085l1.571,0.4l1.14-4.478l-1.054-0.269c-0.311-0.079-0.512-0.221-0.605-0.427    c-0.093-0.205-0.104-0.446-0.034-0.722c0.069-0.27,0.192-0.473,0.37-0.609c0.177-0.137,0.424-0.165,0.739-0.085L116.629,403.991z     M117.341,400.449l-0.497,1.95l-1.558-0.396l0.497-1.951L117.341,400.449z"/>
		<path fill="#231F20" d="M123.145,407.363l-0.701,3.748c-0.075,0.401-0.066,0.677,0.026,0.826c0.144,0.234,0.449,0.396,0.916,0.482    c0.678,0.127,1.342,0.041,1.992-0.259c0.25-0.117,0.438-0.164,0.562-0.141c0.173,0.032,0.306,0.151,0.399,0.358    c0.093,0.206,0.116,0.439,0.066,0.701c-0.045,0.243-0.154,0.439-0.325,0.59c-0.265,0.247-0.732,0.432-1.401,0.555    s-1.217,0.146-1.645,0.065c-0.825-0.154-1.396-0.521-1.715-1.1c-0.318-0.579-0.409-1.233-0.273-1.963l0.77-4.112l-0.479-0.09    c-0.32-0.06-0.531-0.188-0.635-0.388c-0.104-0.198-0.129-0.438-0.077-0.718c0.051-0.273,0.161-0.484,0.329-0.632    s0.413-0.191,0.732-0.132l0.479,0.09l0.315-1.688c0.084-0.449,0.206-0.759,0.365-0.928c0.159-0.168,0.337-0.233,0.536-0.196    c0.194,0.036,0.335,0.161,0.422,0.376s0.089,0.547,0.004,0.997l-0.315,1.687l2.455,0.459c0.319,0.061,0.531,0.189,0.635,0.388    c0.104,0.199,0.129,0.438,0.077,0.718c-0.051,0.273-0.161,0.484-0.33,0.632c-0.168,0.148-0.412,0.192-0.732,0.133L123.145,407.363    z"/>
	</g>
	<g>
		<path fill="#231F20" d="M254.441,346.6c0,0,0.375-1.875,3.75,2.25s5,5.5,4.75,6.375s-0.75,2-4.5-2.25    S254.066,347.35,254.441,346.6z"/>
		<path fill="#FFFFFF" d="M262.206,356.296c-0.501,0-1.456-0.327-3.952-3.156c-3.908-4.43-4.455-5.764-4.05-6.624    c0.06-0.224,0.282-0.591,0.775-0.591c0.769,0,1.882,0.904,3.405,2.767c1.02,1.246,1.883,2.245,2.576,3.047    c1.721,1.991,2.433,2.815,2.221,3.555C263.089,355.618,262.896,356.296,262.206,356.296z M254.979,346.425    c-0.241,0-0.288,0.201-0.293,0.224l-0.021,0.062c-0.364,0.729,0.784,2.495,3.964,6.099c2.178,2.468,3.147,2.986,3.577,2.986    c0.23,0,0.36-0.168,0.495-0.64c0.137-0.48-0.664-1.407-2.118-3.091c-0.695-0.805-1.562-1.807-2.585-3.058    C256.159,346.76,255.317,346.425,254.979,346.425z"/>
	</g>
	<g>
		<path fill="#231F20" d="M250.5,350.5c0.297-0.743,1.75-0.25,3.625,3.125s4.75,7.25,1.875,10s-4.125,6.375-7.5,2.875    s-7.125-7-6.25-8s0.75-0.625,1.5,0.375s2.875,2.25,4,1.75s1.25,0.125,1.125,1.375s-0.75,3.5,1.75,2.75s1.75-1.875,1.75-2.625    s1.625-1.125,2.125-2.5s0.125-2.5-1.875-5S250.25,351.125,250.5,350.5z"/>
		<path fill="#FFFFFF" d="M251.022,368.192c-0.833,0-1.717-0.496-2.702-1.519c-0.496-0.515-1-1.028-1.496-1.535    c-3.51-3.581-5.618-5.826-4.763-6.804c0.416-0.475,0.631-0.673,0.889-0.673c0.281,0,0.438,0.237,0.655,0.566    c0.092,0.139,0.201,0.306,0.345,0.496c0.611,0.816,2.146,1.765,3.205,1.765c0.189,0,0.355-0.031,0.493-0.093    c0.615-0.272,1.016-0.253,1.269,0.025c0.274,0.304,0.281,0.86,0.207,1.603c-0.016,0.151-0.037,0.315-0.061,0.488    c-0.094,0.692-0.209,1.555,0.116,1.928c0.223,0.255,0.687,0.275,1.373,0.07c1.846-0.554,1.733-1.245,1.624-1.914    c-0.027-0.167-0.052-0.326-0.052-0.472c0-0.473,0.406-0.781,0.876-1.14c0.479-0.365,1.021-0.779,1.264-1.445    c0.427-1.172,0.263-2.137-1.835-4.759c-2.171-2.715-2.437-3.687-2.162-4.374c0.116-0.291,0.363-0.457,0.677-0.457    c0.893,0,2.163,1.328,3.399,3.554c0.229,0.411,0.472,0.829,0.717,1.252c1.771,3.047,3.778,6.5,1.112,9.05    c-0.636,0.608-1.185,1.252-1.715,1.874C253.31,367.028,252.317,368.192,251.022,368.192z M242.927,358.157    c-0.07,0.029-0.385,0.389-0.488,0.508c-0.594,0.679,2.365,3.697,4.742,6.124c0.497,0.507,1.003,1.022,1.499,1.537    c0.887,0.92,1.653,1.366,2.343,1.366c1.063,0,1.986-1.083,3.056-2.337c0.538-0.632,1.095-1.285,1.749-1.911    c2.382-2.278,0.562-5.409-1.198-8.438c-0.248-0.426-0.492-0.847-0.723-1.261c-1.445-2.602-2.542-3.296-2.962-3.296    c-0.108,0-0.172,0.042-0.212,0.143c-0.237,0.592,0.388,1.751,2.088,3.876c2.013,2.517,2.46,3.741,1.915,5.241    c-0.293,0.806-0.925,1.286-1.432,1.673c-0.364,0.277-0.679,0.518-0.679,0.742c0,0.121,0.022,0.252,0.045,0.391    c0.117,0.715,0.293,1.794-1.973,2.474c-0.907,0.271-1.531,0.193-1.894-0.22c-0.476-0.544-0.349-1.489-0.236-2.323    c0.022-0.167,0.044-0.326,0.059-0.471c0.025-0.252,0.102-1.017-0.08-1.218c-0.055-0.061-0.298-0.081-0.694,0.096    c-0.202,0.09-0.437,0.136-0.696,0.136c-1.221,0-2.91-1.037-3.605-1.964c-0.149-0.2-0.266-0.376-0.361-0.521    C243.089,358.354,242.977,358.184,242.927,358.157z"/>
	</g>
	<g>
		<path fill="#231F20" d="M240.75,373.168c-1.417-1.166-3.667-0.417-6.417,2.083s-2.5,6.083-2.5,6.083    c-0.049,0.339,0.243,0.617,0.592,0.762c-1.982,0.792-3.817-0.345-4.508-0.345c-0.833,0-2.75,1.5-3,3.417s-2.667,5.083-6.75,8.166    S214,396.168,214,397.168s0.333,2,3.833,0.333s8.667-9.5,10.834-11.833s3.916-1.667,4.833-1.667s2.083-2,5.167-5    S242.167,374.334,240.75,373.168z M233.677,381.325c0.403-0.943,1.09-2.593,2.906-4.574c2.75-3,1.667-1.5,1.917-1.333    S236.091,379.24,233.677,381.325z"/>
		<path fill="#FFFFFF" d="M215.025,398.643c-1.275,0-1.275-1.11-1.275-1.475c0-0.89,0.112-0.972,1.989-2.345    c0.569-0.417,1.312-0.959,2.277-1.688c4.298-3.246,6.438-6.356,6.652-7.999c0.27-2.063,2.323-3.635,3.248-3.635    c0.233,0,0.531,0.095,0.909,0.214c0.58,0.184,1.302,0.411,2.108,0.411c0.32,0,0.623-0.035,0.916-0.107    c-0.205-0.205-0.303-0.458-0.265-0.721c-0.013-0.098-0.229-3.68,2.579-6.231c2.876-2.615,5.239-3.328,6.744-2.092    c0.559,0.46,0.843,0.979,0.868,1.587c0.048,1.156-0.885,2.624-2.936,4.619c-1.232,1.197-2.147,2.226-2.883,3.052    c-1.159,1.302-1.798,2.019-2.459,2.019c-0.154,0-0.332-0.018-0.529-0.037c-0.23-0.024-0.492-0.051-0.78-0.051    c-0.766,0-1.945,0.174-3.34,1.675c-0.617,0.664-1.486,1.788-2.493,3.089c-2.478,3.202-5.871,7.588-8.417,8.8    C216.646,398.343,215.692,398.643,215.025,398.643z M227.917,382.001c-0.677,0-2.516,1.385-2.752,3.199    c-0.278,2.132-2.966,5.402-6.848,8.333c-0.969,0.731-1.712,1.275-2.283,1.693c-1.784,1.306-1.784,1.306-1.784,1.941    c0,0.72,0.203,0.975,0.775,0.975c0.583,0,1.492-0.292,2.7-0.867c2.438-1.161,5.789-5.492,8.236-8.654    c1.014-1.311,1.89-2.443,2.521-3.123c1.528-1.645,2.848-1.835,3.707-1.835c0.311,0,0.587,0.028,0.831,0.053    c0.179,0.019,0.339,0.035,0.479,0.035c0.437,0,1.093-0.736,2.086-1.852c0.74-0.832,1.662-1.867,2.906-3.077    c1.915-1.863,2.826-3.25,2.785-4.24c-0.019-0.457-0.243-0.856-0.687-1.221c-1.293-1.066-3.467-0.309-6.09,2.074    c-2.623,2.386-2.421,5.847-2.419,5.881c-0.033,0.271,0.216,0.456,0.438,0.549l0.556,0.229l0.371-0.868    c0.439-1.03,1.14-2.668,2.951-4.645c1.775-1.936,1.894-1.936,2.072-1.936h0.118l0.102,0.103c0.1,0.122,0.069,0.269,0.041,0.411    c-0.006,0.027-0.014,0.066-0.019,0.1l0.029,0.02l0.023,0.158c0.039,0.627-2.803,4.243-4.926,6.077l-0.818,0.707l0.049-0.115    l-0.553,0.222c-0.495,0.197-1.028,0.298-1.583,0.298c-0.884,0-1.679-0.251-2.259-0.435    C228.353,382.089,228.073,382.001,227.917,382.001z M238.217,375.398c-0.297,0.284-0.781,0.793-1.449,1.521    c-1.205,1.314-1.902,2.475-2.353,3.38c1.918-1.891,3.639-4.273,3.835-4.797C238.233,375.47,238.223,375.435,238.217,375.398z"/>
	</g>
	<g>
		<path fill="#231F20" d="M216.167,386.25c-2.75-0.25-5.334-0.917-5.334-0.917s0.584,3,0,6.084s4.584,2.833,7.834,0    S218.917,386.5,216.167,386.25z M215.667,391c-1.334,0.667-1.833-0.501-1.75-1.417s0.25-1.833,0.25-1.833s2.082,0.167,2.166,0.75    S217.001,390.333,215.667,391z"/>
		<path fill="#FFFFFF" d="M213.21,393.887L213.21,393.887c-1.036,0-1.821-0.287-2.271-0.829c-0.357-0.432-0.479-1.015-0.353-1.688    c0.569-3.002,0.007-5.96,0.001-5.989l-0.076-0.389l0.384,0.099c0.025,0.007,2.598,0.665,5.294,0.91    c1.62,0.147,3.576,0.962,4.042,2.401c0.229,0.705,0.171,1.833-1.4,3.203C217.241,392.991,215.035,393.887,213.21,393.887z     M211.142,385.665c0.138,0.91,0.408,3.311-0.062,5.799c-0.101,0.528-0.018,0.957,0.245,1.274c0.347,0.418,1.016,0.648,1.886,0.648    c1.711,0,3.788-0.847,5.293-2.158c1.081-0.942,1.515-1.866,1.253-2.672c-0.378-1.17-2.104-1.921-3.611-2.058    C214.013,386.306,211.96,385.857,211.142,385.665z M214.947,391.447c-0.335,0-0.631-0.13-0.854-0.375    c-0.377-0.412-0.467-1.052-0.425-1.512c0.083-0.917,0.246-1.817,0.253-1.855l0.041-0.223l0.225,0.019    c0.687,0.055,2.292,0.259,2.394,0.964c0.013,0.087,0.038,0.19,0.065,0.306c0.15,0.631,0.43,1.805-0.867,2.453    C215.482,391.372,215.203,391.447,214.947,391.447z M214.374,388.021c-0.054,0.326-0.151,0.959-0.208,1.585    c-0.04,0.445,0.076,0.889,0.296,1.13c0.247,0.271,0.616,0.28,1.094,0.041c0.871-0.436,0.788-1.114,0.604-1.891    c-0.031-0.131-0.06-0.25-0.073-0.351C216.062,388.374,215.313,388.123,214.374,388.021z"/>
	</g>
	<g>
		<path fill="#231F20" d="M202.749,397c0.055,0.671,0.495,0.763,0.938,0.31c0.263-0.27,0.483-0.724,0.516-1.121    C204.295,395.062,202.678,396.136,202.749,397z"/>
		<path fill="#FFFFFF" d="M203.17,397.84L203.17,397.84c-0.292,0-0.621-0.216-0.67-0.819c-0.027-0.33,0.13-0.708,0.432-1.035    c0.236-0.257,0.615-0.532,0.97-0.532c0.16,0,0.297,0.058,0.396,0.165c0.123,0.135,0.176,0.333,0.154,0.591    c-0.035,0.439-0.271,0.952-0.586,1.275C203.639,397.717,203.397,397.84,203.17,397.84z M203.924,395.957    c-0.156,0-0.406,0.13-0.624,0.366c-0.204,0.223-0.317,0.468-0.302,0.656c0.014,0.166,0.066,0.36,0.172,0.36    c0.032,0,0.152-0.015,0.339-0.205c0.231-0.237,0.419-0.645,0.445-0.967c0.014-0.167-0.023-0.211-0.024-0.211    C203.928,395.957,203.926,395.957,203.924,395.957z"/>
	</g>
	<g>
		<path fill="#231F20" d="M190.239,401.261c-1.541-0.686-3.198,2.013-3.57,3.164c-0.2,0.618-0.07,1.468-0.419,2.01    c-0.38,0.59-1.744,0.86-2.438,0.956c-0.807,0.111-1.617,0.109-2.447,0.109c-1.101,0-1.841,0.283-2.305-0.769    c-0.3-0.682-0.812-0.84-0.998-1.606c-0.155-0.637-0.105-1.502-0.987-1.375c-1.62,0.233,0.472,3.841-1.2,4.189    c-0.701,0.146-1.479-0.461-2.05-0.125c-0.385,0.227-0.547,1.022-1.135,1.188c-0.389,0.11-1.628,0.078-1.895-0.172    c-0.449-0.422-0.173-1.44-0.498-1.94c-0.586-0.9-1.568-0.148-1.935,0.516c-0.359,0.649-0.199,1.518-0.976,1.782    c-0.539,0.184-0.955,0.242-1.501,0.575c-0.512,0.312-1.107,0.943-1.7,1.104c-0.7,0.189-1.695,0.008-2.389-0.1    c-0.448-0.07-0.901-0.036-1.126-0.415c-0.197-0.333-0.177-1.021-0.233-1.408c-0.105-0.733,0.112-1.402-0.759-1.509    c-0.803-0.098-2.238,0.139-2.835,0.691c-0.275,0.254-0.234,0.473-0.593,0.687c-0.387,0.231-0.752,0.11-1.099,0.559    c-0.528,0.683-0.168,1.503-0.716,2.188c-0.536,0.671-1.518,0.502-2.375,0.502c-1.185,0-1.368-0.377-1.623-1.56    c-0.174-0.807-0.266-1.859-1.168-2.067c-2.39-0.549-2.202,2.267-3.089,3.709c-0.357,0.58-0.637,1.365-0.353,2.077    c0.347,0.868,1.398,0.993,2.237,1.075c1.91,0.187,3.978,0.203,5.892,0.078c1.047-0.068,0.657-0.396,1.163-1.005    c0.46-0.554,1.781-0.587,2.427-0.62c0.967-0.049,1.893,0.041,2.836,0.132c0.85,0.081,1.818,0.045,2.68-0.007    c0.854-0.052,1.42-0.663,2.124-1.13c0.885-0.586,1.284-0.69,2.367-0.743c0.809-0.04,1.649-0.064,2.479-0.064    c0.759,0,1.348-0.061,1.719,0.686c0.408,0.819,0.627,1.394,1.735,1.509c1.881,0.195,2.792-0.573,4.093-1.793    c0.837-0.786,0.929-2.177,2.372-2.022c0.504,0.054,0.822,0.067,1.109,0.373c0.248,0.266,0.274,0.693,0.625,0.918    c0.496,0.317,1.866,0.383,2.424,0.144c0.459-0.197,0.634-0.646,0.949-0.99c0.384-0.419,0.911-0.67,1.313-1.032    c0.475-0.429,0.788-0.9,1.354-1.226c0.496-0.284,1.148-0.507,1.662-0.664c1.277-0.393,3.657-0.352,4.454-1.687    c0.508-0.852,0.111-1.755-0.785-2.104c-0.941-0.367-2.416,0.6-3.149-0.105C189.383,403.436,190.053,401.178,190.239,401.261z"/>
		<path fill="#FFFFFF" d="M151.468,415.705c-1.188,0-2.34-0.054-3.425-0.159c-0.809-0.079-2.032-0.199-2.444-1.231    c-0.358-0.895,0.079-1.826,0.372-2.301c0.243-0.396,0.409-0.93,0.569-1.445c0.356-1.149,0.76-2.453,2.167-2.453    c0.192,0,0.402,0.026,0.622,0.076c0.954,0.221,1.146,1.19,1.298,1.97l0.059,0.289c0.246,1.139,0.381,1.362,1.379,1.362    c0.146,0,0.294,0.005,0.444,0.01c0.646,0.021,1.348,0.066,1.735-0.418c0.232-0.29,0.27-0.61,0.313-0.98    c0.045-0.381,0.096-0.812,0.4-1.205c0.268-0.347,0.553-0.421,0.805-0.486c0.133-0.035,0.248-0.064,0.363-0.134    c0.151-0.091,0.199-0.171,0.271-0.293c0.061-0.103,0.136-0.23,0.279-0.362c0.681-0.63,2.192-0.86,3.035-0.756    c0.887,0.108,0.916,0.752,0.94,1.27c0.007,0.144,0.014,0.296,0.035,0.452c0.018,0.116,0.028,0.26,0.039,0.412    c0.023,0.319,0.052,0.718,0.162,0.904c0.112,0.188,0.321,0.221,0.68,0.261c0.09,0.01,0.18,0.021,0.271,0.034l0.162,0.025    c0.667,0.105,1.606,0.22,2.122,0.08c0.336-0.091,0.697-0.374,1.047-0.647c0.204-0.16,0.396-0.312,0.589-0.428    c0.425-0.26,0.772-0.362,1.141-0.472c0.131-0.038,0.266-0.078,0.409-0.127c0.361-0.123,0.447-0.403,0.567-0.889    c0.064-0.258,0.13-0.525,0.271-0.778c0.29-0.526,0.892-1.059,1.48-1.059c0.246,0,0.599,0.092,0.883,0.527    c0.183,0.281,0.209,0.655,0.234,1.017c0.025,0.352,0.051,0.715,0.225,0.878c0.075,0.069,0.49,0.165,1.072,0.165    c0.298,0,0.497-0.026,0.583-0.051c0.253-0.071,0.413-0.324,0.582-0.593c0.139-0.22,0.283-0.446,0.494-0.571    c0.346-0.201,0.827-0.124,1.27-0.008c0.298,0.078,0.616,0.157,0.856,0.104c0.579-0.12,0.544-0.795,0.419-1.893    c-0.115-1.008-0.246-2.149,0.796-2.299c0.991-0.148,1.102,0.656,1.198,1.218c0.021,0.117,0.041,0.234,0.068,0.345    c0.09,0.372,0.267,0.576,0.472,0.812c0.172,0.196,0.365,0.419,0.512,0.753c0.244,0.553,0.545,0.654,1.049,0.654    c0.138,0,0.283-0.008,0.438-0.016c0.185-0.01,0.381-0.02,0.59-0.02l0.084,0.25v-0.25c0.764,0,1.554,0,2.329-0.107    c0.911-0.125,1.984-0.413,2.262-0.844c0.173-0.269,0.207-0.651,0.244-1.058c0.028-0.302,0.057-0.614,0.146-0.894    c0.328-1.015,1.742-3.447,3.297-3.447c0.211,0,0.417,0.045,0.613,0.132l-0.102,0.229l-0.011,0.248    c0.078,0,0.128-0.039,0.141-0.055c-0.209,0.251-0.621,1.985-0.286,2.308c0.273,0.265,0.835,0.2,1.464,0.079    c0.567-0.108,1.177-0.191,1.604-0.026c0.526,0.206,0.922,0.596,1.085,1.07c0.154,0.45,0.092,0.946-0.176,1.396    c-0.637,1.067-2.095,1.319-3.381,1.542c-0.452,0.078-0.879,0.152-1.215,0.256c-0.709,0.217-1.235,0.427-1.611,0.642    c-0.342,0.196-0.59,0.458-0.853,0.736c-0.145,0.152-0.292,0.308-0.458,0.458c-0.184,0.165-0.389,0.307-0.586,0.443    c-0.263,0.181-0.51,0.353-0.711,0.572c-0.093,0.102-0.173,0.213-0.252,0.324c-0.19,0.265-0.405,0.564-0.783,0.727    c-0.334,0.144-0.813,0.165-1.069,0.165c-0.521,0-1.211-0.086-1.588-0.327c-0.266-0.171-0.382-0.417-0.483-0.635    c-0.059-0.124-0.113-0.242-0.189-0.323c-0.196-0.209-0.404-0.238-0.855-0.285l-0.098-0.01c-0.801-0.092-1.101,0.39-1.477,1.013    c-0.196,0.325-0.399,0.662-0.698,0.943c-1.402,1.313-2.335,2.051-4.289,1.859c-1.182-0.123-1.499-0.765-1.865-1.508l-0.068-0.139    c-0.246-0.494-0.565-0.548-1.188-0.548l-0.308,0.001c-0.777,0-1.606,0.021-2.466,0.064c-1.02,0.049-1.39,0.137-2.242,0.701    c-0.166,0.11-0.325,0.229-0.481,0.347c-0.513,0.384-1.044,0.781-1.766,0.825c-0.392,0.023-0.981,0.055-1.567,0.055    c-0.431,0-0.807-0.017-1.15-0.049c-0.969-0.094-1.854-0.182-2.8-0.131l-0.113,0.005c-0.574,0.028-1.77,0.087-2.134,0.525    c-0.146,0.175-0.201,0.316-0.256,0.453c-0.145,0.364-0.289,0.589-1.083,0.641C153.152,415.678,152.309,415.705,151.468,415.705z     M148.705,408.615c-0.968,0-1.284,0.794-1.689,2.102c-0.169,0.545-0.344,1.109-0.621,1.559c-0.243,0.396-0.61,1.162-0.333,1.854    c0.277,0.692,1.118,0.83,2.029,0.919c1.828,0.18,3.896,0.205,5.851,0.078c0.536-0.035,0.562-0.103,0.651-0.327    c0.059-0.148,0.14-0.353,0.336-0.589c0.505-0.607,1.75-0.668,2.494-0.704l0.112-0.006c0.977-0.049,1.934,0.043,2.858,0.132    c0.342,0.032,0.703,0.048,1.117,0.048c0.572,0,1.151-0.031,1.538-0.055c0.571-0.034,1-0.354,1.495-0.726    c0.164-0.123,0.331-0.247,0.506-0.362c0.938-0.622,1.398-0.731,2.493-0.785c0.867-0.043,1.705-0.064,2.49-0.064l0.308-0.001    c0.67,0,1.255,0.062,1.635,0.825l0.069,0.141c0.362,0.732,0.562,1.137,1.468,1.23c1.774,0.187,2.598-0.509,3.896-1.727    c0.248-0.233,0.434-0.54,0.612-0.837c0.386-0.64,0.827-1.369,1.957-1.252l0.097,0.011c0.467,0.049,0.837,0.087,1.169,0.44    c0.13,0.14,0.205,0.299,0.277,0.453c0.083,0.179,0.155,0.333,0.3,0.425c0.229,0.146,0.771,0.249,1.318,0.249    c0.365,0,0.691-0.047,0.872-0.124c0.25-0.107,0.4-0.317,0.574-0.56c0.091-0.126,0.183-0.254,0.289-0.37    c0.24-0.262,0.522-0.457,0.795-0.646c0.194-0.134,0.377-0.26,0.536-0.403c0.156-0.142,0.294-0.287,0.43-0.432    c0.276-0.291,0.562-0.593,0.968-0.825c0.544-0.312,1.238-0.541,1.713-0.687c0.365-0.112,0.808-0.188,1.276-0.27    c1.18-0.204,2.517-0.436,3.036-1.306c0.194-0.326,0.24-0.664,0.132-0.978c-0.114-0.335-0.403-0.614-0.793-0.766    c-0.313-0.123-0.833-0.046-1.327,0.05c-0.32,0.062-0.651,0.126-0.961,0.126c-0.4,0-0.709-0.109-0.943-0.334    c-0.55-0.528-0.135-2.145,0.078-2.674c0.006-0.014,0.012-0.028,0.018-0.043c-1.205-0.138-2.576,2.012-2.926,3.096    c-0.074,0.227-0.099,0.497-0.125,0.784c-0.041,0.448-0.083,0.912-0.322,1.283c-0.435,0.677-1.824,0.96-2.613,1.069    c-0.81,0.111-1.616,0.111-2.397,0.111h-0.084c-0.2,0-0.388,0.01-0.564,0.019c-0.163,0.009-0.317,0.017-0.463,0.017    c-0.563,0-1.137-0.116-1.506-0.953c-0.116-0.264-0.27-0.44-0.432-0.626c-0.228-0.262-0.462-0.532-0.581-1.022    c-0.029-0.12-0.052-0.249-0.074-0.378c-0.122-0.704-0.223-0.86-0.635-0.809c-0.523,0.076-0.489,0.711-0.371,1.748    c0.113,0.987,0.254,2.217-0.813,2.439c-0.338,0.071-0.734-0.017-1.086-0.11c-0.359-0.094-0.685-0.165-0.888-0.044    c-0.107,0.062-0.213,0.23-0.325,0.407c-0.192,0.304-0.432,0.683-0.868,0.806c-0.214,0.061-0.543,0.07-0.72,0.07    c-0.329,0-1.126-0.029-1.414-0.3c-0.316-0.298-0.35-0.761-0.382-1.208c-0.021-0.298-0.043-0.605-0.155-0.778    c-0.131-0.202-0.282-0.301-0.463-0.301c-0.376,0-0.826,0.407-1.043,0.801c-0.108,0.195-0.166,0.43-0.223,0.657    c-0.119,0.479-0.254,1.023-0.891,1.24c-0.151,0.052-0.292,0.094-0.43,0.134c-0.351,0.104-0.653,0.193-1.022,0.419    c-0.171,0.104-0.353,0.247-0.541,0.395c-0.388,0.305-0.79,0.619-1.224,0.736c-0.61,0.167-1.613,0.046-2.33-0.068l-0.162-0.025    c-0.084-0.013-0.167-0.022-0.248-0.031c-0.38-0.043-0.811-0.091-1.055-0.503c-0.171-0.288-0.203-0.731-0.231-1.123    c-0.01-0.14-0.019-0.271-0.034-0.377c-0.025-0.173-0.033-0.341-0.041-0.5c-0.025-0.562-0.056-0.742-0.501-0.797    c-0.748-0.087-2.104,0.136-2.635,0.627c-0.09,0.083-0.136,0.16-0.188,0.25c-0.087,0.146-0.185,0.312-0.446,0.468    c-0.176,0.105-0.345,0.149-0.493,0.188c-0.216,0.057-0.372,0.098-0.536,0.31c-0.219,0.282-0.256,0.596-0.298,0.957    c-0.046,0.391-0.099,0.832-0.42,1.234c-0.433,0.542-1.097,0.614-1.688,0.614c-0.15,0-0.303-0.005-0.454-0.01    c-0.144-0.004-0.287-0.009-0.428-0.009c-1.354,0-1.599-0.509-1.867-1.757l-0.061-0.298c-0.139-0.704-0.281-1.432-0.92-1.579    C149.031,408.637,148.859,408.615,148.705,408.615z"/>
	</g>
</g>
</svg>