<?xml version="1.0" encoding="utf-8"?>
<!-- Generator: Adobe Illustrator 15.1.0, SVG Export Plug-In . SVG Version: 6.00 Build 0)  -->
<!DOCTYPE svg PUBLIC "-//W3C//DTD SVG 1.1//EN" "http://www.w3.org/Graphics/SVG/1.1/DTD/svg11.dtd">
<svg version="1.1" id="Layer_1" xmlns="http://www.w3.org/2000/svg" xmlns:xlink="http://www.w3.org/1999/xlink" x="0px" y="0px"
	 width="573.142px" height="476.257px" viewBox="0 0 573.142 476.257" enable-background="new 0 0 573.142 476.257"
	 xml:space="preserve">
<g>
	<g>
		<rect x="3" y="3" fill="#B0E1EB" width="567.142" height="470.257"/>
		<path fill="#231F20" d="M573.142,476.257H0V0h573.142V476.257z M6,470.257h561.142V6H6V470.257z"/>
	</g>
	<path fill="#231F20" d="M286.571,170.271l-72.227-91.977h144.455L286.571,170.271z M230.798,86.295l55.773,71.023l55.774-71.023
		H230.798z"/>
	<g>
		<g>
			<defs>
				<ellipse id="SVGID_1_" cx="286.571" cy="309.294" rx="119.75" ry="82.833"/>
			</defs>
			<clipPath id="SVGID_2_">
				<use xlink:href="#SVGID_1_"  overflow="visible"/>
			</clipPath>
			<rect x="160.821" y="221.295" clip-path="url(#SVGID_2_)" fill="#324A9F" width="260.5" height="99"/>
			<g clip-path="url(#SVGID_2_)">
				<polygon fill="#FECC07" points="162.821,317.045 194.071,317.045 194.071,307.045 223.321,307.045 223.321,299.045 
					247.071,299.045 247.071,273.045 238.571,264.545 285.071,264.545 276.446,273.17 276.446,289.295 313.071,289.295 
					313.071,302.795 334.821,302.795 334.821,278.545 355.321,278.545 355.321,294.795 411.321,294.795 411.321,388.545 
					161.321,388.545 				"/>
				<path fill="#231F20" d="M412.821,390.045H159.789l1.563-74.5h31.219v-10h29.25v-8h23.75v-23.879l-10.621-10.621h53.743
					l-10.747,10.746v14.004h36.625v13.5h18.75v-24.25h23.5v16.25h56V390.045z M162.853,387.045h246.969v-90.75h-56v-16.25h-17.5
					v24.25h-24.75v-13.5h-36.625v-18.246l6.504-6.504h-39.258l6.379,6.379v28.121h-23.75v8h-29.25v10H164.29L162.853,387.045z"/>
			</g>
		</g>
		<path fill="#231F20" d="M286.571,393.627c-66.857,0-121.25-37.832-121.25-84.333c0-46.502,54.393-84.333,121.25-84.333
			c66.858,0,121.25,37.832,121.25,84.333C407.821,355.795,353.429,393.627,286.571,393.627z M286.571,227.96
			c-65.203,0-118.25,36.486-118.25,81.333c0,44.847,53.047,81.333,118.25,81.333c65.204,0,118.25-36.486,118.25-81.333
			C404.821,264.446,351.774,227.96,286.571,227.96z"/>
	</g>
	<g>
		<polygon fill="#DE5426" points="305.087,397.545 303.837,391.295 315.837,390.045 318.837,397.545 360.712,397.545 
			302.837,339.295 376.087,397.545 425.087,397.545 286.571,319.795 148.055,397.545 197.055,397.545 270.305,339.295 
			212.43,397.545 254.305,397.545 257.305,390.045 269.305,391.295 268.055,397.545 		"/>
		<path fill="#231F20" d="M430.824,399.045h-55.261l-53.581-42.608l42.334,42.608h-46.495l-2.956-7.391l-9.234,0.962l1.286,6.429
			h-40.691l1.286-6.429l-9.234-0.962l-2.956,7.391h-46.496l42.334-42.608l-53.581,42.608h-55.261l144.252-80.97L430.824,399.045z
			 M376.61,396.045h42.739l-132.779-74.53l-132.779,74.53h42.739l72.84-57.924l1.998,2.231l-55.334,55.692h37.254l3.044-7.609
			l14.766,1.538l-1.214,6.071h33.372l-1.214-6.071l14.766-1.538l3.044,7.609h37.255l-55.335-55.692l1.998-2.231L376.61,396.045z"/>
	</g>
	<g>
		<path fill="#231F20" d="M104.449,410.541h65.712v51.295h-65.712V410.541z M122.785,424.829v22.719h29.041v-22.719H122.785z"/>
		<path fill="#231F20" d="M181.777,410.541h18.335v22.187h-18.335V410.541z"/>
		<path fill="#231F20" d="M211.956,410.541h65.826v36.475l-16.513,14.82h-24.03l22.208-19.701v-17.306h-47.49V410.541z
			 M211.956,436.721h18.335v36.475h-18.335V436.721z"/>
		<path fill="#231F20" d="M316.274,435.834h-18.336v-11.005h-8.77v-14.288h65.711v51.295h-65.711v-14.288h47.377v-22.719h-20.271
			V435.834z"/>
		<path fill="#231F20" d="M366.383,410.541h18.336v51.295h-18.336V410.541z"/>
		<path fill="#231F20" d="M415.809,410.541l18.336,20.767l8.199-5.502v-15.265h18.336v22.187l-15.83,10.827l15.83,18.281h-22.094
			l-17.767-20.233l-8.199,5.413v14.82h-18.336v-22.187l15.83-10.383l-16.514-18.726H415.809z"/>
	</g>
	<polygon fill="#231F20" points="322.196,211.545 250.945,211.545 250.945,124.795 258.945,124.795 258.945,203.545 
		314.196,203.545 314.196,124.795 322.196,124.795 	"/>
	<rect x="269.446" y="32.545" fill="#FECC07" width="34.25" height="126"/>
	<polygon fill="#231F20" points="308.487,21.42 286.571,43.295 264.654,21.42 	"/>
	<polygon fill="#231F20" points="308.487,55.92 286.571,77.795 264.654,55.92 	"/>
	<polygon fill="#231F20" points="308.487,89.853 286.571,111.728 264.654,89.853 	"/>
	<polygon fill="#231F20" points="308.487,124.069 286.571,145.944 264.654,124.069 	"/>
	<polygon fill="#231F20" points="308.487,158.569 286.571,180.444 264.654,158.569 	"/>
	<rect x="282.571" y="32.545" fill="#231F20" width="8" height="174"/>
	<g>
		<g>
			<polygon fill="#FECC07" points="236.862,150.795 236.862,202.795 146.862,172.128 83.862,214.795 83.862,461.462 30.195,461.462 
				30.195,187.127 141.861,113.461 			"/>
			<polygon fill="#324A9F" points="236.903,163.857 236.903,190.045 146.528,157.961 71.028,208.295 71.028,461.461 42.862,461.461 
				42.862,193.459 143.195,127.793 			"/>
		</g>
		<g>
			<polygon fill="#FECC07" points="336.278,150.795 336.278,202.795 426.278,172.128 489.278,214.795 489.278,461.462 
				542.946,461.462 542.946,187.127 431.279,113.461 			"/>
			<polygon fill="#324A9F" points="336.237,163.857 336.237,190.045 426.612,157.961 502.112,208.295 502.112,461.461 
				530.278,461.461 530.278,193.459 429.946,127.793 			"/>
		</g>
	</g>
</g>
</svg>
