<?xml version="1.0" encoding="UTF-8"?>
<svg id="svg2" xmlns="http://www.w3.org/2000/svg" viewBox="0 0 89.71 80.86">
  <defs>
    <style>
      .cls-1 {
        fill: #193474;
      }
    </style>
  </defs>
  <path id="path1468" class="cls-1" d="M89.71,52.64c-1.88,1.45-4.66,1.24-6.81,2.42-2.25,1.24-8.19,6.18-10.05,1.71-1.08-2.6-.9-2.43-4.16-1.94-1.26.18-2.47.39-3.69.76-3.66,1.1-6.47,2.86-9.83,4.54-10.41,5.23-1.83-9.61-8.58-6.84-2.57,1.06-5.24,1.65-7.83,2.68-3.6,1.42-6.61,4.07-10.48,4.82-2.87.56-5.21.3-6.64-2.48-1.13-2.19-1.42-8.27-5.4-5.87-3.96,2.38-8.55,3.11-12.58,5.75-.92.6-3.9,2.16-3.65.11.65-5.35,14.09-10.71,18.62-10.71,4.82,0,4.2,4.47,6.33,8.12,2,3.42,8.16-.64,10.36-1.74,3.53-1.76,8.53-4.64,12.37-4.88,2.36-.15,5.72-.29,6.64,2.47.2.6-.39,5.12-.39,5.12,1.07.72,13.74-6.13,16.39-6.7,4.71-1.02,6.71-1.11,6.36,3.99.13-1.95,13.01-3.2,13.01-1.29-.11.08,0-.02,0,0"/>
  <path id="path1472" class="cls-1" d="M46.44,19.69c.05-.04.07-.08.08-.13.13-.29.25-.59.38-.89.02-.05.04-.09.06-.14.02-.03.05-.05.09-.03.13.04.26.08.39.13.22.08.44.15.65.22.03.01.06.02.08.04.02.01.03.03.03.05,0,.04,0,.07-.02.11-.08.36-.17.73-.26,1.09,0,.02-.01.04-.02.06,0,.03,0,.06.03.08.03.02.07.05.11.07.44.26.89.53,1.34.79.03.02.06.04.09.05.05.03.08.03.12,0,.04-.04.09-.08.13-.11.21-.19.42-.38.62-.56.03-.03.07-.05.1-.08.02-.01.05,0,.06,0,.02.02.05.03.07.06.24.24.48.47.72.72.03.03.07.05.08.11-.05.05-.1.1-.15.15-.25.26-.51.53-.77.79-.03.03-.07.07-.1.11,0,.02-.01.04,0,.06.01.03.03.05.05.08.38.52.76,1.04,1.14,1.57.02.03.05.07.1.09.37-.15.73-.3,1.1-.45.03.02.05.04.06.07.04.14.08.29.13.43.04.13.07.26.11.39,0,.04.02.07.03.11.01.05-.01.09-.05.1-.05.02-.11.03-.16.05-.31.09-.62.18-.93.26-.06.02-.11.03-.17.05,0,.03-.02.06-.02.08,0,.09,0,.18,0,.26,0,1.28.02,2.56.03,3.84,0,.07,0,.14,0,.21,0,.03-.03.07-.07.07-.07,0-.13,0-.2,0h-6.68c-.08,0-.16,0-.23,0-.03,0-.06.03-.06.05,0,.06,0,.11,0,.17v5.45c0,.07,0,.14,0,.21,0,0-.01.01-.02.02-.01,0-.03,0-.04,0-.05-.04-.1-.08-.15-.13-.54-.52-1.08-1.03-1.62-1.55-.04-.04-.08-.08-.12-.12-.06-.05-.07-.05-.15,0,0,0-.02.01-.02.01-.02,0-.03-.02-.03-.02,0-.04-.01-.08-.01-.13v-11.4c0-.07,0-.14,0-.21,0-.06-.03-.09-.1-.09-.07,0-.13,0-.2,0h-10.43c-.11,0-.23,0-.34,0-.03,0-.07.04-.07.07,0,.07,0,.13,0,.2v18.53c0,.08,0,.16,0,.24,0,.02,0,.03-.02.03,0,0-.02,0-.02,0-.04-.04-.08-.08-.12-.11-.79-.8-1.58-1.59-2.37-2.38-.69-.69-1.37-1.39-2.07-2.08-.18-.18-.16-.14-.16-.39,0-2.42,0-4.83,0-7.24s0-5.03,0-7.54v-1.3s0-.1,0-.15c0-.02.02-.04.04-.05.02,0,.04,0,.07,0h16.01c1.23,0,2.46,0,3.69,0,.07,0,.13,0,.18,0M46.88,26.19h0v-2.02c0-.2,0-.2-.21-.2h-1.85c-.28,0-.26-.02-.26.27v4.05s0,.04,0,.07c0,.02.03.06.05.06.03,0,.06,0,.08,0h2.02s.06,0,.09,0c.02,0,.05-.04.05-.06,0-.06.01-.13.01-.19v-1.96"/>
  <path id="path1476" class="cls-1" d="M27.46,40.98c-.07,0-.09.05-.13.08-.18.17-.35.34-.52.52-.69.69-1.38,1.39-2.07,2.07-.97.98-1.94,1.95-2.91,2.92-.08.09-.17.17-.26.26-.03.03-.06.04-.1.04-.05,0-.1,0-.15,0h-4.27s-.1,0-.15,0c-.03,0-.05-.02-.05-.03,0-.01,0-.03.02-.04.12-.12.24-.25.36-.37.33-.33.67-.65,1-.99,1.78-1.78,3.55-3.56,5.32-5.34.56-.57,1.13-1.13,1.7-1.69.38-.38.77-.76,1.14-1.14,0,0,.01-.01.02-.02.04-.04.07-.05.11,0,.05.05.09.09.14.14l2.89,2.9c.49.49.98.98,1.46,1.47.51.52,1.03,1.04,1.55,1.56.2.2.41.4.62.6.03.02.07.02.1,0,.04-.04.08-.08.12-.12.95-.95,1.9-1.9,2.85-2.85.95-.96,1.91-1.91,2.86-2.87.87-.87,1.75-1.75,2.62-2.62l.53-.53s.1-.1.12-.17c.02-.05.06-.08.1-.11.02-.02.04-.02.06,0,.03.03.07.06.1.09.58.56,1.16,1.11,1.74,1.67.06.05.11.11.16.18.03.04.07.08.1.11l3.15,3.15c1.07,1.07,2.14,2.14,3.22,3.22.27.27.54.54.81.81.02.02.04.04.06.06.03.02.07.02.1-.01.04-.03.07-.07.11-.1.54-.54,1.08-1.09,1.63-1.63,1.08-1.08,2.15-2.15,3.23-3.23.34-.34.69-.69,1.03-1.03.03-.03.05-.05.08-.08.03-.03.07-.03.11,0,.03.03.06.05.08.07l.54.53c.62.62,1.24,1.24,1.86,1.86.56.57,1.13,1.13,1.69,1.7.5.49,1,.99,1.49,1.49.66.66,1.32,1.32,1.98,1.98.62.62,1.24,1.24,1.86,1.86.05.04.09.1.13.14,0,0,0,.03-.02.04-.02,0-.04.02-.06.02-.15,0-.29.02-.43.02-.53.01-1.06.02-1.6.03-.13,0-.27,0-.41.01-.09,0-.15-.02-.21-.08-.24-.25-.49-.49-.73-.73-.93-.93-1.86-1.86-2.79-2.79-.6-.61-1.21-1.21-1.81-1.81-.18-.18-.37-.37-.55-.55-.02-.02-.04-.04-.07-.06-.02-.01-.04-.02-.06,0-.04.04-.08.08-.13.12-.45.45-.9.9-1.35,1.36-.86.86-1.72,1.71-2.58,2.57-.6.6-1.2,1.2-1.8,1.8-.08.09-.17.17-.26.26-.03.02-.07.03-.1,0-.05-.05-.1-.09-.14-.13-.93-.93-1.87-1.87-2.8-2.81-.65-.65-1.31-1.31-1.96-1.96l-2.15-2.15c-.7-.7-1.4-1.4-2.1-2.11-.13-.13-.14-.15-.29,0-.8.81-1.61,1.62-2.42,2.43-.92.92-1.84,1.84-2.76,2.76-1.08,1.09-2.16,2.17-3.24,3.25-.21.21-.41.42-.62.63-.04.03-.07.07-.11.1-.03.03-.07.03-.1,0-.13-.13-.26-.25-.38-.38-.79-.78-1.57-1.57-2.36-2.36-.79-.79-1.58-1.58-2.38-2.37-.49-.49-.98-.99-1.48-1.48-.03-.03-.08-.07-.11-.1"/>
  <path id="path1480" class="cls-1" d="M21.2,23.41s.04.04.05.06c.08.13.15.26.23.39.16.3.33.59.47.9.05.09.09.18.13.27.13.31.25.61.37.92.12.31.23.63.35.95.02.05.03.11.05.16.02.05.02.1.04.15.09.21.14.44.2.66.07.25.15.51.22.77.03.1.05.2.08.29,0,.02,0,.03,0,.04.13.49.22.98.33,1.47.1.42.18.85.24,1.27.06.38.11.75.17,1.13.02.14.03.27.05.41.04.39.08.77.13,1.16,0,.03,0,.07,0,.11,0,.38.06.75.08,1.12.03.51.07,1.02.06,1.53,0,.21,0,.43,0,.65,0,.1,0,.2,0,.3,0,.11-.03.19-.11.26-.83.83-1.66,1.67-2.5,2.5-1.14,1.14-2.28,2.29-3.43,3.43-.05.05-.1.1-.15.15-.03.03-.06.03-.07.03-.03-.02-.03-.05-.03-.08-.03-.28-.07-.57-.1-.85-.05-.39-.05-.79-.08-1.18-.01-.13,0-.26-.01-.39,0-.08,0-.16,0-.24-.03-.6-.03-1.21-.03-1.81,0-.34,0-.69,0-1.03,0-.24,0-.47,0-.71,0-.12,0-.25,0-.37,0-.39.01-.79.02-1.18,0-.19,0-.38.03-.56,0-.07,0-.13.01-.19,0-.13.02-.26.03-.39,0-.05,0-.09,0-.13,0-.39.05-.77.08-1.16.03-.39.08-.78.13-1.18.03-.26.05-.51.1-.77.04-.31.09-.61.16-.91.02-.11.04-.23.06-.34,0-.03.01-.07.02-.1.05-.2.08-.4.11-.6,0-.04.02-.08.03-.12.08-.3.15-.6.2-.91,0-.02.01-.04.02-.06.15-.54.28-1.09.45-1.62.06-.19.13-.38.2-.57.05-.16.11-.31.16-.47.09-.26.18-.52.28-.77.13-.31.26-.62.41-.93.08-.18.17-.36.26-.54.15-.27.3-.54.45-.82.02-.03.03-.08.08-.1"/>
  <path id="path1484" class="cls-1" d="M36.72,19.02h-5.28c-.07,0-.15,0-.22,0-.03,0-.05-.03-.05-.06v-.07c.03-.43.1-.85.22-1.27.05-.18.11-.36.16-.54.11-.39.26-.76.44-1.13.2-.41.42-.82.68-1.19.07-.1.15-.2.22-.3.08-.1.16-.2.24-.31.24-.32.51-.6.79-.88.17-.17.36-.33.55-.48.1-.07.19-.15.29-.23.3-.24.62-.44.95-.63.3-.16.6-.31.91-.45.38-.16.76-.29,1.16-.4.29-.08.59-.15.88-.19.25-.04.5-.06.75-.09.41-.04.83-.03,1.25-.02.13,0,.26.02.38.03.4.05.8.09,1.19.2.08.02.16.04.25.06.15.03.29.07.44.12.16.06.31.11.47.16.11.04.21.09.32.14.18.08.36.16.52.25.23.11.44.25.66.37.26.15.49.33.72.51.38.28.72.61,1.07.94.14.14.27.29.39.46.17.21.33.43.5.65.11.15.2.3.29.45.02.03,0,.07-.03.07-.02,0-.04,0-.07,0h-5.17c-.08,0-.16,0-.24,0-.03,0-.05.03-.06.05,0,.02,0,.04,0,.06,0,.07,0,.13,0,.2v3.23c0,.07,0,.14,0,.21,0,.03-.03.05-.05.06-.02,0-.05,0-.07,0h-5.43Z"/>
  <path id="path1488" class="cls-1" d="M53.08,25.84s.1-.04.14-.05c.36-.1.72-.2,1.08-.3.05-.01.1-.03.15-.05.03-.11.01-.22,0-.33-.04-.26-.1-.52-.18-.78-.19-.65-.41-1.3-.65-1.94-.03-.08-.06-.16-.09-.25,0-.01-.02-.02-.03-.03-.03-.02-.07,0-.1.01-.15.08-.31.16-.46.23-.22.11-.45.22-.67.34-.04.02-.07.01-.09-.03-.08-.11-.16-.22-.24-.33-.03-.06-.03-.08.02-.13.24-.26.48-.51.72-.77.04-.04.08-.08.11-.13.07-.07.07-.08,0-.17-.07-.1-.14-.2-.21-.29-.18-.23-.39-.44-.59-.66-.47-.47-.97-.92-1.48-1.35-.03-.03-.06-.06-.11-.07-.05.02-.07.07-.1.1-.23.27-.46.54-.69.81-.03.03-.06.07-.09.09-.02.01-.05.02-.06.02-.1-.05-.19-.1-.28-.15-.02,0-.02-.04-.02-.06,0-.03.02-.07.02-.1.11-.34.22-.68.33-1.02,0-.03.02-.06.02-.08,0-.02,0-.05-.02-.05-.04-.03-.08-.06-.12-.08-.52-.31-1.06-.54-1.63-.73-.38-.12-.76-.21-1.15-.29-.1-.02-.2-.03-.3-.05-.02,0-.06.02-.07.04-.02.05-.04.1-.06.16-.11.3-.23.6-.34.91-.02.05-.04.11-.07.16-.02,0-.04.02-.07.02-.05,0-.1,0-.15,0h-2.37c-.07,0-.13,0-.2-.01-.01,0-.02-.02-.03-.03,0-.01,0-.03,0-.04,0-.04,0-.07,0-.11v-2.2c0-.21,0-.2.2-.2h12.22s.08.03.08.08c0,.07,0,.13,0,.2v9.57c0,.19-.02.37-.06.56-.16.68-.31,1.36-.47,2.04-.08.32,0,.27-.34.28-.41,0-.82.02-1.23.03-.07,0-.14,0-.21,0-.03,0-.06-.03-.06-.06,0-.04,0-.08,0-.13,0-.82,0-1.63,0-2.43,0-.05,0-.1,0-.16"/>
  <path id="path1492" class="cls-1" d="M40.07,6.46c.2.01.4.02.6.03.27.02.53.04.8.07.14.02.28.03.42.06.39.06.78.14,1.16.25.18.05.36.1.54.15.33.08.65.2.96.33.25.1.5.21.75.32.28.11.54.26.81.41.08.04.17.08.25.13.57.31,1.1.67,1.61,1.07.38.29.73.6,1.07.93.35.34.68.7,1,1.07.28.33.53.69.78,1.03.14.2.26.41.39.62.22.36.42.72.59,1.1.11.24.22.47.32.71.06.13.11.26.16.4.01.03,0,.07-.03.07-.05,0-.09,0-.13,0h-.9s-.07,0-.11,0c-.05,0-.08-.02-.1-.07-.08-.18-.16-.37-.24-.55-.07-.14-.13-.27-.2-.41-.1-.18-.2-.36-.29-.55-.02-.03-.03-.06-.05-.09-.12-.19-.24-.38-.36-.56-.36-.53-.76-1.03-1.19-1.5-.46-.49-.96-.95-1.5-1.36-.26-.2-.52-.38-.8-.56-.29-.17-.57-.36-.87-.51-.34-.17-.68-.34-1.04-.47-.17-.07-.34-.14-.52-.21-.18-.07-.36-.13-.55-.19-.18-.06-.37-.11-.56-.16-.02,0-.04-.01-.06-.02-.29-.06-.59-.12-.89-.17-.16-.03-.33-.05-.49-.08-.04,0-.09-.01-.13-.02-.36-.03-.72-.05-1.08-.07-.3-.02-.6,0-.9,0-.24.02-.49.04-.73.06-.25.02-.5.06-.75.1l-.28.05c-.26.04-.52.11-.77.18-.18.05-.36.09-.54.15-.42.14-.84.28-1.25.47-.33.15-.66.31-.98.49-.3.16-.59.36-.88.55-.12.08-.24.16-.36.24-.35.25-.69.52-1,.82-.03.02-.05.05-.08.07-.29.26-.56.53-.82.82-.27.32-.55.63-.79.97-.39.55-.76,1.12-1.07,1.72-.13.25-.23.51-.35.76-.15.32-.26.65-.37.99-.11.36-.2.72-.3,1.08,0,.02,0,.04-.01.06-.03.19-.07.37-.09.55-.05.3-.08.6-.09.9,0,.07,0,.14-.02.21,0,.1-.03.11-.11.11-.32,0-.64,0-.97,0h-.04s-.05-.03-.05-.06c0-.07,0-.14,0-.21.02-.31.05-.62.1-.92.01-.08.02-.17.03-.26.04-.31.12-.6.18-.91.08-.38.2-.73.32-1.09.06-.18.12-.37.19-.55.1-.25.2-.49.32-.73.13-.26.25-.52.38-.77.08-.17.18-.33.28-.49.18-.31.37-.62.57-.91.26-.36.53-.7.82-1.03,0,0,0,0,.02-.01.35-.43.75-.81,1.16-1.18.34-.31.69-.61,1.07-.87.43-.3.86-.6,1.32-.85.28-.15.56-.29.84-.44.27-.14.55-.25.83-.36.58-.23,1.18-.42,1.78-.57.3-.07.6-.13.91-.17.32-.05.64-.08.96-.11.42-.05.85-.05,1.27-.05h.15"/>
  <path id="path1496" class="cls-1" d="M58.54,34.67c0-.08-.02-.16-.03-.23-.02-.21-.04-.41-.06-.62-.02-.21-.05-.42-.07-.64-.02-.16-.03-.31-.05-.47-.03-.36-.07-.72-.11-1.07-.02-.21-.04-.41-.07-.62-.02-.16-.03-.32-.05-.47-.03-.36-.07-.71-.1-1.07-.02-.21-.04-.41-.07-.62-.02-.16-.03-.31-.05-.47-.03-.36-.07-.72-.1-1.07-.04-.36-.07-.72-.11-1.07-.02-.21-.04-.41-.06-.62-.02-.21-.05-.42-.07-.64l-.05-.49c-.03-.36-.07-.72-.1-1.07-.03-.31-.06-.61-.09-.92,0-.05-.02-.11-.03-.17,0-.01-.02-.02-.03-.03-.05.15-.07.31-.1.46-.13.64-.26,1.28-.38,1.92-.12.62-.24,1.24-.36,1.86-.11.58-.23,1.17-.35,1.75-.08.38-.17.76-.26,1.14-.01.04-.03.08-.04.13-.04,0-.09.01-.13.02-1.11.02-2.22.03-3.32.05h-.11c-.06,0-.09-.03-.09-.1,0-.05,0-.1,0-.15,0-1.24-.02-2.47-.02-3.71,0-.26-.01-.21.21-.28.36-.11.72-.2,1.08-.31.04-.01.08-.03.12-.04,0,0,.02-.02.02-.04,0-.01,0-.03,0-.04-.16-.55-.32-1.09-.48-1.63,0,0,0-.01,0-.02-.02-.07-.05-.08-.11-.06-.04.02-.08.03-.12.05-.28.11-.56.23-.84.34-.04.02-.09.04-.14.06-.08.03-.1.03-.16-.05l-.82-1.12s-.03-.06-.06-.1c.04-.04.08-.09.11-.13.28-.28.55-.57.83-.85.05-.05.09-.09.13-.15-.02-.03-.03-.05-.05-.07-.08-.09-.17-.18-.26-.26-.3-.3-.6-.6-.9-.9-.05-.05-.1-.1-.15-.15-.05,0-.07.02-.1.04-.21.2-.42.39-.64.58-.34.29-.2.28-.59.06-.23-.13-.46-.27-.69-.4-.05-.03-.1-.06-.15-.09-.03-.02-.03-.05-.03-.08,0-.04.02-.08.02-.13.09-.37.18-.74.27-1.11,0-.03.01-.06.01-.08,0-.02-.01-.05-.03-.05-.03-.02-.07-.03-.1-.04-.54-.18-1.07-.36-1.61-.55-.02,0-.04-.01-.07-.02-.02,0-.04,0-.05.03-.03.06-.06.11-.08.18-.12.29-.24.58-.37.87-.03.07-.06.13-.09.2-.03,0-.07.01-.1.02-.05,0-.1,0-.15,0h-2.76c-.07,0-.15,0-.22,0-.03,0-.05-.03-.06-.05v-.36s.03-.08.08-.08c.07,0,.14,0,.21,0h2.5c.07,0,.15,0,.21,0,.03,0,.06-.02.07-.05.02-.05.04-.1.06-.14l.34-.91s.03-.07.04-.1c.01-.02.04-.04.07-.03.05,0,.1,0,.15.02.8.16,1.57.42,2.28.81.03.02.07.04.09.06.03.01.04.05.03.07-.02.05-.03.11-.05.16-.1.31-.21.63-.31.94,0,.03-.02.07-.03.1,0,.02.02.06.03.08,0,0,.01,0,.02,0,.25.14.51.28.76.41.01,0,.03,0,.04,0,.05-.02.08-.08.12-.12.2-.23.39-.46.59-.69.04-.04.07-.09.11-.13.03-.04.06-.04.11,0,0,.01.02.02.03.03.42.36.83.73,1.21,1.13.15.16.29.31.44.47.07.08.13.16.18.23.01.05,0,.07-.03.09-.05.05-.1.1-.15.16-.22.24-.45.48-.67.72-.03.02-.05.05-.07.08,0,.01,0,.03,0,.04,0,.02,0,.03.02.04l.59.82s.06.05.1.03c.05-.02.09-.04.13-.07.27-.13.53-.26.79-.39.06-.03.11-.06.17-.08.04-.02.07,0,.08.04l.02.06c.21.57.41,1.13.57,1.71.05.18.09.36.14.54,0,.04.02.09.02.13,0,.05-.01.08-.05.08-.04.02-.08.03-.12.04-.35.1-.7.2-1.06.29-.03,0-.06.02-.08.03-.02.01-.03.03-.03.05,0,.02,0,.05,0,.07v.17c0,.96,0,1.91.01,2.87v.21s.03.06.05.06c.03,0,.07,0,.11,0,.71-.01,1.42-.03,2.13-.04.03,0,.07,0,.11-.01.02-.04.03-.08.04-.12.09-.38.18-.77.26-1.16.21-.91.42-1.83.62-2.75.16-.73.33-1.46.5-2.19.13-.59.27-1.18.4-1.76.08-.35.17-.7.25-1.04.09-.38.18-.75.28-1.13,0-.03.02-.07.03-.1,0,0,.01,0,.02,0,0,0,.02,0,.02.01,0,.03.02.05.03.08.02.16.03.31.05.47.02.2.03.39.06.58.05.46.1.91.15,1.37.04.33.07.65.1.98.03.33.07.66.11.99.03.33.07.65.1.98.02.19.05.39.07.58.02.16.03.31.05.47.03.33.07.66.1.99.03.33.07.65.11.98.04.33.07.66.1.99.02.19.04.38.07.58.02.2.04.4.06.6,0,.07.02.13.02.2,0,.06.02.11.02.17.01.1.02.2.03.3,0,.04.01.08.02.13,0,.1.01.21.03.32,0,.05,0,.1.01.15,0,.05,0,.1.01.15.02.16.03.31.05.47.02.31.05.61.08.92,0,.02,0,.04.02.06,0,.01.02.02.03.02,0,0,.02,0,.02,0,.05-.05.08-.12.11-.18.2-.38.39-.77.59-1.15.34-.67.69-1.32,1.03-1.99.09-.18.09-.17.28-.17h4.85c.83,0,1.65,0,2.48,0,.08,0,.16,0,.24,0,.02,0,.05.03.05.05,0,.01,0,.02,0,.02,0,.24,0,.47-.01.71,0,.03-.03.06-.06.06-.07,0-.14,0-.21,0h-6.79c-.07,0-.15,0-.21,0-.03,0-.06.02-.07.05-.03.05-.06.1-.08.15-.31.64-.64,1.26-.98,1.87-.52.94-1.04,1.88-1.57,2.83-.03.06-.08.12-.11.18,0,0-.02,0-.04,0"/>
  <path id="path1500" class="cls-1" d="M35.21,26.18v1.98c0,.06,0,.13,0,.19,0,.03-.03.05-.05.06-.02,0-.03,0-.04,0h-2.01s-.1,0-.15,0c-.03,0-.07-.03-.07-.07,0-.05,0-.1,0-.15v-3.98c0-.06,0-.11,0-.17,0-.03.03-.06.05-.06.03,0,.07,0,.11,0h1.98s.06,0,.09,0c.06,0,.09.03.09.1v2.11"/>
  <path id="path1504" class="cls-1" d="M39.14,26.2v1.94c0,.07,0,.13,0,.2,0,.05-.03.08-.08.08h-2.07s-.09,0-.13-.01c-.01,0-.03-.02-.03-.03,0-.02-.02-.04-.02-.06,0-.06,0-.11,0-.17v-3.88c0-.07,0-.15,0-.21,0-.05.04-.08.09-.08.05,0,.11,0,.17,0h1.83c.06,0,.11,0,.17,0,.03,0,.06.03.06.05,0,.06,0,.11,0,.17v2.01Z"/>
  <path id="path1508" class="cls-1" d="M42.49,43.89v1.44c0,.07,0,.13,0,.19,0,.02-.04.05-.06.06-.03,0-.07,0-.11,0h-1.42s-.08,0-.13-.02c-.01,0-.02-.02-.03-.03s0-.03-.01-.04v-.17c0-.97,0-1.94,0-2.9,0-.03,0-.06,0-.09,0-.17,0-.18.18-.18.47,0,.93,0,1.4,0,.03,0,.07,0,.11,0,.04,0,.07.03.07.07,0,.06,0,.11,0,.17v1.49"/>
  <path id="path1512" class="cls-1" d="M45.47,43.89v1.6c0,.07-.03.09-.09.1-.05,0-.1,0-.15,0h-1.38s-.07,0-.11-.01c-.02,0-.04-.03-.04-.04,0-.07-.01-.13-.01-.2v-2.89c0-.07,0-.15,0-.21,0-.05.04-.08.09-.08.04,0,.08,0,.13,0h1.34s.1,0,.15,0c.03,0,.07.03.07.07,0,.07,0,.13,0,.19v1.47Z"/>
  <path id="path1524" class="cls-1" d="M72.37,53.11V0H8.46v53.11c0,8.6,3.78,15.25,14.49,17.19,10.64,1.93,16.06,8.59,17.46,10.56,1.4-1.97,6.82-8.63,17.46-10.56,10.72-1.94,14.49-8.6,14.49-17.19M70.2,52.24c0,8.01-3.52,14.21-13.51,16.03-9.91,1.8-14.97,8-16.27,9.85-1.31-1.84-6.36-8.05-16.28-9.85-9.99-1.81-13.51-8.01-13.51-16.03V2.75h59.57v49.5Z"/>
</svg>