<?xml version="1.0" encoding="UTF-8" standalone="no"?>
<!-- Created with Inkscape (http://www.inkscape.org/) -->
<svg xmlns:dc="http://purl.org/dc/elements/1.1/" xmlns:cc="http://creativecommons.org/ns#" xmlns:rdf="http://www.w3.org/1999/02/22-rdf-syntax-ns#" xmlns:svg="http://www.w3.org/2000/svg" xmlns="http://www.w3.org/2000/svg" xmlns:sodipodi="http://sodipodi.sourceforge.net/DTD/sodipodi-0.dtd" xmlns:inkscape="http://www.inkscape.org/namespaces/inkscape" version="1.1" id="svg2" xml:space="preserve" width="528.78339" height="209.53204" viewBox="0 0 528.78339 209.53204" sodipodi:docname="OrYehuda.svg" inkscape:version="0.92.3 (2405546, 2018-03-11)"><metadata id="metadata8"><rdf:RDF><cc:Work rdf:about=""><dc:format>image/svg+xml</dc:format><dc:type rdf:resource="http://purl.org/dc/dcmitype/StillImage"/><dc:title/></cc:Work></rdf:RDF></metadata><defs id="defs6"><clipPath clipPathUnits="userSpaceOnUse" id="clipPath18"><path d="M 0,595.28 H 419.53 V 0 H 0 Z" id="path16" inkscape:connector-curvature="0"/></clipPath><clipPath clipPathUnits="userSpaceOnUse" id="clipPath26"><path d="M 876.068,0 H 456.54 v 595.276 h 419.528 z" id="path24" inkscape:connector-curvature="0"/></clipPath><clipPath clipPathUnits="userSpaceOnUse" id="clipPath34"><path d="M 885.867,-8.504 H 26.815 v 614.288 h 859.052 z" id="path32" inkscape:connector-curvature="0"/></clipPath><clipPath clipPathUnits="userSpaceOnUse" id="clipPath42"><path d="M -175.83,657.981 H 1092.06 V -138.233 H -175.83 Z" id="path40" inkscape:connector-curvature="0"/></clipPath><clipPath clipPathUnits="userSpaceOnUse" id="clipPath126"><path d="m 12.2888,229.068 h 71.8783 v -37.87 H 12.2888 Z" id="path124" inkscape:connector-curvature="0"/></clipPath><clipPath clipPathUnits="userSpaceOnUse" id="clipPath150"><path d="m 144.174,502.045 h 47.637 v 33.822 h -47.637 z" id="path148" inkscape:connector-curvature="0"/></clipPath><clipPath clipPathUnits="userSpaceOnUse" id="clipPath174"><path d="m 200.233,504.418 135.945,10e-4 v 54.744 H 200.233 Z" id="path172" inkscape:connector-curvature="0"/></clipPath><clipPath clipPathUnits="userSpaceOnUse" id="clipPath182"><path d="m 200.233,504.418 135.945,10e-4 v 54.744 H 200.233 Z" id="path180" inkscape:connector-curvature="0"/></clipPath><clipPath clipPathUnits="userSpaceOnUse" id="clipPath190"><path d="m 303.952,561.245 h 14.384 V 521.84 h -14.384 z" id="path188" inkscape:connector-curvature="0"/></clipPath><linearGradient x1="0" y1="0" x2="1" y2="0" gradientUnits="userSpaceOnUse" gradientTransform="matrix(0,37.024799,-37.024799,0,311.14407,522.13794)" spreadMethod="pad" id="linearGradient202"><stop style="stop-opacity:1;stop-color:#193474" offset="0" id="stop196"/><stop style="stop-opacity:1;stop-color:#68bceb" offset="0.67832481" id="stop198"/><stop style="stop-opacity:1;stop-color:#68bceb" offset="1" id="stop200"/></linearGradient><clipPath clipPathUnits="userSpaceOnUse" id="clipPath244"><path d="m 208.583,524.858 h -7.59 v -12.613 c 0,-2.041 0.896,-3.621 3.442,-4.083 2.527,-0.458 3.815,-2.04 4.148,-2.509 0.332,0.469 1.62,2.051 4.147,2.509 2.545,0.462 3.442,2.042 3.442,4.083 v 12.613 z" id="path242" inkscape:connector-curvature="0"/></clipPath><clipPath clipPathUnits="userSpaceOnUse" id="clipPath300"><path d="m 200.233,504.418 135.945,10e-4 v 54.744 H 200.233 Z" id="path298" inkscape:connector-curvature="0"/></clipPath><clipPath clipPathUnits="userSpaceOnUse" id="clipPath312"><path d="m 306.629,523.201 c 0,-9.516 7.715,-17.232 17.232,-17.232 4.827,0.001 9.189,1.988 12.317,5.186 l -3.18,3.181 -0.75,-0.786 -3.181,3.18 c -0.75,-0.786 -2.861,-1.77 -5.206,-1.77 -4.552,0 -8.242,3.689 -8.242,8.241 0,4.552 3.69,8.242 8.242,8.242 2.345,0 4.456,-0.984 5.206,-1.77 l 3.181,3.18 0.75,-0.786 3.18,3.179 c -3.128,3.199 -7.49,5.186 -12.317,5.186 -9.517,0 -17.232,-7.714 -17.232,-17.231" id="path310" inkscape:connector-curvature="0"/></clipPath><clipPath clipPathUnits="userSpaceOnUse" id="clipPath320"><path d="m 303.928,561.245 h 14.409 V 521.84 h -14.409 z" id="path318" inkscape:connector-curvature="0"/></clipPath><linearGradient x1="0" y1="0" x2="1" y2="0" gradientUnits="userSpaceOnUse" gradientTransform="matrix(0,37.024799,-37.024799,0,311.13217,522.13794)" spreadMethod="pad" id="linearGradient332"><stop style="stop-opacity:1;stop-color:#193474" offset="0" id="stop326"/><stop style="stop-opacity:1;stop-color:#68bceb" offset="0.67832481" id="stop328"/><stop style="stop-opacity:1;stop-color:#68bceb" offset="1" id="stop330"/></linearGradient><clipPath clipPathUnits="userSpaceOnUse" id="clipPath354"><path d="M 0,595.28 H 419.53 V 0 H 0 Z" id="path352" inkscape:connector-curvature="0"/></clipPath><clipPath clipPathUnits="userSpaceOnUse" id="clipPath362"><path d="M 876.068,0 H 456.54 v 595.276 h 419.528 z" id="path360" inkscape:connector-curvature="0"/></clipPath><clipPath clipPathUnits="userSpaceOnUse" id="clipPath370"><path d="m 200.233,504.418 135.945,10e-4 v 54.744 H 200.233 Z" id="path368" inkscape:connector-curvature="0"/></clipPath><clipPath clipPathUnits="userSpaceOnUse" id="clipPath378"><path d="m 286.079,535.246 3.18,-3.179 0.75,0.785 3.18,-3.179 c 0.751,0.786 2.862,1.77 5.207,1.77 4.508,0 8.165,-3.62 8.235,-8.111 h 3.431 v -1.02 h 1.037 l -0.002,-0.174 h 4.587 c -0.025,0.354 -0.057,0.706 -0.057,1.063 0,9.517 -7.714,17.231 -17.231,17.231 -4.827,0 -9.188,-1.987 -12.317,-5.186" id="path376" inkscape:connector-curvature="0"/></clipPath><linearGradient x1="0" y1="0" x2="1" y2="0" gradientUnits="userSpaceOnUse" gradientTransform="matrix(-29.548428,0,0,29.548428,315.62759,531.28516)" spreadMethod="pad" id="linearGradient400"><stop style="stop-opacity:1;stop-color:#2e7e39" offset="0" id="stop392"/><stop style="stop-opacity:1;stop-color:#2e7e39" offset="0.00307692" id="stop394"/><stop style="stop-opacity:1;stop-color:#66c430" offset="0.98148845" id="stop396"/><stop style="stop-opacity:1;stop-color:#66c430" offset="1" id="stop398"/></linearGradient><clipPath clipPathUnits="userSpaceOnUse" id="clipPath410"><path d="M 0,595.28 H 419.53 V 0 H 0 Z" id="path408" inkscape:connector-curvature="0"/></clipPath><clipPath clipPathUnits="userSpaceOnUse" id="clipPath418"><path d="M 876.068,0 H 456.54 v 595.276 h 419.528 z" id="path416" inkscape:connector-curvature="0"/></clipPath><clipPath clipPathUnits="userSpaceOnUse" id="clipPath426"><path d="m 200.233,504.418 135.945,10e-4 v 54.744 H 200.233 Z" id="path424" inkscape:connector-curvature="0"/></clipPath><clipPath clipPathUnits="userSpaceOnUse" id="clipPath434"><path d="m 306.629,523.201 c 0,-9.516 7.715,-17.232 17.232,-17.232 4.827,0.001 9.189,1.988 12.317,5.186 l -3.18,3.181 -0.75,-0.786 -3.181,3.18 c -0.75,-0.786 -2.861,-1.77 -5.206,-1.77 -4.552,0 -8.242,3.689 -8.242,8.241 0,4.552 3.69,8.242 8.242,8.242 2.345,0 4.456,-0.984 5.206,-1.77 l 3.181,3.18 0.75,-0.786 3.18,3.179 c -3.128,3.199 -7.49,5.186 -12.317,5.186 -9.517,0 -17.232,-7.714 -17.232,-17.231" id="path432" inkscape:connector-curvature="0"/></clipPath><linearGradient x1="0" y1="0" x2="1" y2="0" gradientUnits="userSpaceOnUse" gradientTransform="matrix(29.548515,0,0,29.548515,306.62955,523.20105)" spreadMethod="pad" id="linearGradient454"><stop style="stop-opacity:1;stop-color:#ed1c24" offset="0" id="stop448"/><stop style="stop-opacity:1;stop-color:#fbc707" offset="0.67832481" id="stop450"/><stop style="stop-opacity:1;stop-color:#fbc707" offset="1" id="stop452"/></linearGradient><clipPath clipPathUnits="userSpaceOnUse" id="clipPath464"><path d="M 0,595.28 H 419.53 V 0 H 0 Z" id="path462" inkscape:connector-curvature="0"/></clipPath><clipPath clipPathUnits="userSpaceOnUse" id="clipPath472"><path d="M 876.068,0 H 456.54 v 595.276 h 419.528 z" id="path470" inkscape:connector-curvature="0"/></clipPath><clipPath clipPathUnits="userSpaceOnUse" id="clipPath480"><path d="M 82.9354,388.198 H 401.417 V 248.19 H 82.9354 Z" id="path478" inkscape:connector-curvature="0"/></clipPath><clipPath clipPathUnits="userSpaceOnUse" id="clipPath496"><path d="M 236.178,291.445 H 398.361 V 230.697 H 236.178 Z" id="path494" inkscape:connector-curvature="0"/></clipPath><clipPath clipPathUnits="userSpaceOnUse" id="clipPath512"><path d="M 126.779,252.144 H 355.432 V 176.993 H 126.779 Z" id="path510" inkscape:connector-curvature="0"/></clipPath><clipPath clipPathUnits="userSpaceOnUse" id="clipPath534"><path d="M 94.4864,166.763 H 391.37 V 130.047 H 94.4864 Z" id="path532" inkscape:connector-curvature="0"/></clipPath><clipPath clipPathUnits="userSpaceOnUse" id="clipPath552"><path d="M 43.1556,141.555 H 153.534 V 21.3826 H 43.1556 Z" id="path550" inkscape:connector-curvature="0"/></clipPath><clipPath clipPathUnits="userSpaceOnUse" id="clipPath600"><path d="M 0,595.28 H 419.53 V 0 H 0 Z" id="path598" inkscape:connector-curvature="0"/></clipPath><clipPath clipPathUnits="userSpaceOnUse" id="clipPath608"><path d="M 876.068,0 H 456.54 v 595.276 h 419.528 z" id="path606" inkscape:connector-curvature="0"/></clipPath><radialGradient fx="0" fy="0" cx="0" cy="0" r="1" gradientUnits="userSpaceOnUse" gradientTransform="matrix(27.901489,3.0708477,3.0708477,-27.901489,103.04508,78.285164)" spreadMethod="pad" id="radialGradient628"><stop style="stop-opacity:1;stop-color:#df2fa0" offset="0" id="stop622"/><stop style="stop-opacity:1;stop-color:#df2fa0" offset="0.57346437" id="stop624"/><stop style="stop-opacity:1;stop-color:#9f2598" offset="1" id="stop626"/></radialGradient><clipPath clipPathUnits="userSpaceOnUse" id="clipPath638"><path d="M 0,595.28 H 419.53 V 0 H 0 Z" id="path636" inkscape:connector-curvature="0"/></clipPath><clipPath clipPathUnits="userSpaceOnUse" id="clipPath646"><path d="M 876.068,0 H 456.54 v 595.276 h 419.528 z" id="path644" inkscape:connector-curvature="0"/></clipPath><clipPath clipPathUnits="userSpaceOnUse" id="clipPath682"><path d="M 362.85,534.115 H 470.113 V 404.077 H 362.85 Z" id="path680" inkscape:connector-curvature="0"/></clipPath><clipPath clipPathUnits="userSpaceOnUse" id="clipPath766"><path d="M 48.228,561.772 H 170.875 V 468.967 H 48.228 Z" id="path764" inkscape:connector-curvature="0"/></clipPath><clipPath clipPathUnits="userSpaceOnUse" id="clipPath782"><path d="M 0,595.28 H 419.53 V 0 H 0 Z" id="path780" inkscape:connector-curvature="0"/></clipPath><clipPath clipPathUnits="userSpaceOnUse" id="clipPath790"><path d="M 876.068,0 H 456.54 v 595.276 h 419.528 z" id="path788" inkscape:connector-curvature="0"/></clipPath><linearGradient x1="0" y1="0" x2="1" y2="0" gradientUnits="userSpaceOnUse" gradientTransform="matrix(8.6082783,-9.8380423,-9.8380423,-8.6082783,74.502426,564.2511)" spreadMethod="pad" id="linearGradient810"><stop style="stop-opacity:1;stop-color:#432e93" offset="0" id="stop804"/><stop style="stop-opacity:1;stop-color:#432e93" offset="0.39846729" id="stop806"/><stop style="stop-opacity:1;stop-color:#df2fa0" offset="1" id="stop808"/></linearGradient><clipPath clipPathUnits="userSpaceOnUse" id="clipPath820"><path d="M 0,595.28 H 419.53 V 0 H 0 Z" id="path818" inkscape:connector-curvature="0"/></clipPath><clipPath clipPathUnits="userSpaceOnUse" id="clipPath828"><path d="M 876.068,0 H 456.54 v 595.276 h 419.528 z" id="path826" inkscape:connector-curvature="0"/></clipPath><clipPath clipPathUnits="userSpaceOnUse" id="clipPath844"><path d="m 404.422,177.033 h 58.161 v -61.404 h -58.161 z" id="path842" inkscape:connector-curvature="0"/></clipPath><clipPath clipPathUnits="userSpaceOnUse" id="clipPath876"><path d="M 0,595.28 H 419.53 V 0 H 0 Z" id="path874" inkscape:connector-curvature="0"/></clipPath><clipPath clipPathUnits="userSpaceOnUse" id="clipPath884"><path d="M 876.068,0 H 456.54 v 595.276 h 419.528 z" id="path882" inkscape:connector-curvature="0"/></clipPath><linearGradient x1="0" y1="0" x2="1" y2="0" gradientUnits="userSpaceOnUse" gradientTransform="matrix(-10.788875,-17.825079,-17.825079,10.788875,396.11374,204.77777)" spreadMethod="pad" id="linearGradient904"><stop style="stop-opacity:1;stop-color:#df2fa0" offset="0" id="stop898"/><stop style="stop-opacity:1;stop-color:#df2fa0" offset="0.57346437" id="stop900"/><stop style="stop-opacity:1;stop-color:#9f2598" offset="1" id="stop902"/></linearGradient><clipPath clipPathUnits="userSpaceOnUse" id="clipPath914"><path d="M 0,595.28 H 419.53 V 0 H 0 Z" id="path912" inkscape:connector-curvature="0"/></clipPath><clipPath clipPathUnits="userSpaceOnUse" id="clipPath922"><path d="M 876.068,0 H 456.54 v 595.276 h 419.528 z" id="path920" inkscape:connector-curvature="0"/></clipPath><clipPath clipPathUnits="userSpaceOnUse" id="clipPath934"><path d="m 302.114,75.844 h 85.698 V 22.255 h -85.698 z" id="path932" inkscape:connector-curvature="0"/></clipPath><clipPath clipPathUnits="userSpaceOnUse" id="clipPath962"><path d="M 0,595.28 H 419.53 V 0 H 0 Z" id="path960" inkscape:connector-curvature="0"/></clipPath><clipPath clipPathUnits="userSpaceOnUse" id="clipPath970"><path d="M 876.068,0 H 456.54 v 595.276 h 419.528 z" id="path968" inkscape:connector-curvature="0"/></clipPath><radialGradient fx="0" fy="0" cx="0" cy="0" r="1" gradientUnits="userSpaceOnUse" gradientTransform="matrix(20.957222,-4.7354646,-4.7354646,-20.957222,346.33258,73.963562)" spreadMethod="pad" id="radialGradient990"><stop style="stop-opacity:1;stop-color:#df2fa0" offset="0" id="stop984"/><stop style="stop-opacity:1;stop-color:#df2fa0" offset="0.57346437" id="stop986"/><stop style="stop-opacity:1;stop-color:#9f2598" offset="1" id="stop988"/></radialGradient><clipPath clipPathUnits="userSpaceOnUse" id="clipPath1000"><path d="M 0,595.28 H 419.53 V 0 H 0 Z" id="path998" inkscape:connector-curvature="0"/></clipPath><clipPath clipPathUnits="userSpaceOnUse" id="clipPath1008"><path d="M 876.068,0 H 456.54 v 595.276 h 419.528 z" id="path1006" inkscape:connector-curvature="0"/></clipPath><clipPath clipPathUnits="userSpaceOnUse" id="clipPath1024"><path d="M 76.1511,300.074 H 233.932 V 242.076 H 76.1511 Z" id="path1022" inkscape:connector-curvature="0"/></clipPath><clipPath clipPathUnits="userSpaceOnUse" id="clipPath1044"><path d="M 0,0 H 419.527 V 595.275 H 0 Z" id="path1042" inkscape:connector-curvature="0"/></clipPath><clipPath clipPathUnits="userSpaceOnUse" id="clipPath1216"><path d="M 0,0 H 419.527 V 595.275 H 0 Z" id="path1214" inkscape:connector-curvature="0"/></clipPath><clipPath clipPathUnits="userSpaceOnUse" id="clipPath1224"><path d="M -210.008,657.981 H 1057.88 V -138.233 H -210.008 Z" id="path1222" inkscape:connector-curvature="0"/></clipPath><clipPath clipPathUnits="userSpaceOnUse" id="clipPath1308"><path d="M 0,0 H 419.527 V 595.275 H 0 Z" id="path1306" inkscape:connector-curvature="0"/></clipPath><clipPath clipPathUnits="userSpaceOnUse" id="clipPath1316"><path d="M -21.8893,229.068 H 49.989 v -37.87 h -71.8783 z" id="path1314" inkscape:connector-curvature="0"/></clipPath><clipPath clipPathUnits="userSpaceOnUse" id="clipPath1340"><path d="m 109.995,502.044 h 47.638 v 33.823 h -47.638 z" id="path1338" inkscape:connector-curvature="0"/></clipPath><clipPath clipPathUnits="userSpaceOnUse" id="clipPath1364"><path d="M 166.054,504.418 H 302 v 54.744 H 166.054 Z" id="path1362" inkscape:connector-curvature="0"/></clipPath><clipPath clipPathUnits="userSpaceOnUse" id="clipPath1372"><path d="m 269.774,561.245 h 14.384 V 521.84 h -14.384 z" id="path1370" inkscape:connector-curvature="0"/></clipPath><linearGradient x1="0" y1="0" x2="1" y2="0" gradientUnits="userSpaceOnUse" gradientTransform="matrix(0,37.024799,-37.024799,0,276.96594,522.13794)" spreadMethod="pad" id="linearGradient1384"><stop style="stop-opacity:1;stop-color:#193474" offset="0" id="stop1378"/><stop style="stop-opacity:1;stop-color:#68bceb" offset="0.67832481" id="stop1380"/><stop style="stop-opacity:1;stop-color:#68bceb" offset="1" id="stop1382"/></linearGradient><clipPath clipPathUnits="userSpaceOnUse" id="clipPath1418"><path d="M 166.054,504.418 H 302 v 54.744 H 166.054 Z" id="path1416" inkscape:connector-curvature="0"/></clipPath><clipPath clipPathUnits="userSpaceOnUse" id="clipPath1434"><path d="M 166.054,504.418 H 302 v 54.744 H 166.054 Z" id="path1432" inkscape:connector-curvature="0"/></clipPath><clipPath clipPathUnits="userSpaceOnUse" id="clipPath1448"><path d="M 166.054,504.418 H 302 v 54.744 H 166.054 Z" id="path1446" inkscape:connector-curvature="0"/></clipPath><clipPath clipPathUnits="userSpaceOnUse" id="clipPath1464"><path d="m 174.405,524.857 h -7.591 v -12.612 c 0,-2.041 0.896,-3.622 3.443,-4.082 v 0 c 2.527,-0.46 3.815,-2.041 4.148,-2.51 v 0 c 0.332,0.469 1.62,2.05 4.147,2.51 v 0 c 2.545,0.46 3.441,2.041 3.441,4.082 v 0 12.612 z" id="path1462" inkscape:connector-curvature="0"/></clipPath><clipPath clipPathUnits="userSpaceOnUse" id="clipPath1520"><path d="M 166.054,504.418 H 302 v 54.744 H 166.054 Z" id="path1518" inkscape:connector-curvature="0"/></clipPath><clipPath clipPathUnits="userSpaceOnUse" id="clipPath1532"><path d="m 272.452,523.201 c 0,-9.516 7.714,-17.232 17.231,-17.232 v 0 c 4.828,0.001 9.189,1.988 12.317,5.187 v 0 l -3.18,3.18 -0.751,-0.786 -3.18,3.18 c -0.75,-0.786 -2.862,-1.771 -5.206,-1.771 v 0 c -4.552,0 -8.242,3.69 -8.242,8.242 v 0 c 0,4.552 3.69,8.242 8.242,8.242 v 0 c 2.344,0 4.456,-0.984 5.206,-1.771 v 0 l 3.181,3.181 0.75,-0.787 3.18,3.18 c -3.128,3.199 -7.489,5.186 -12.317,5.186 v 0 c -9.517,0 -17.231,-7.715 -17.231,-17.231" id="path1530" inkscape:connector-curvature="0"/></clipPath><clipPath clipPathUnits="userSpaceOnUse" id="clipPath1540"><path d="m 269.75,561.245 h 14.408 V 521.84 H 269.75 Z" id="path1538" inkscape:connector-curvature="0"/></clipPath><linearGradient x1="0" y1="0" x2="1" y2="0" gradientUnits="userSpaceOnUse" gradientTransform="matrix(0,37.024799,-37.024799,0,276.95404,522.13794)" spreadMethod="pad" id="linearGradient1552"><stop style="stop-opacity:1;stop-color:#193474" offset="0" id="stop1546"/><stop style="stop-opacity:1;stop-color:#68bceb" offset="0.67832481" id="stop1548"/><stop style="stop-opacity:1;stop-color:#68bceb" offset="1" id="stop1550"/></linearGradient><linearGradient x1="0" y1="0" x2="1" y2="0" gradientUnits="userSpaceOnUse" gradientTransform="matrix(0,37.024799,-37.024799,0,276.96594,522.13794)" spreadMethod="pad" id="linearGradient1586"><stop style="stop-opacity:1;stop-color:#193474" offset="0" id="stop1580"/><stop style="stop-opacity:1;stop-color:#68bceb" offset="0.67832481" id="stop1582"/><stop style="stop-opacity:1;stop-color:#68bceb" offset="1" id="stop1584"/></linearGradient><linearGradient x1="0" y1="0" x2="1" y2="0" gradientUnits="userSpaceOnUse" gradientTransform="matrix(-29.548428,0,0,29.548428,281.44946,531.28516)" spreadMethod="pad" id="linearGradient1610"><stop style="stop-opacity:1;stop-color:#2e7e39" offset="0" id="stop1602"/><stop style="stop-opacity:1;stop-color:#2e7e39" offset="0.00307692" id="stop1604"/><stop style="stop-opacity:1;stop-color:#66c430" offset="0.98148845" id="stop1606"/><stop style="stop-opacity:1;stop-color:#66c430" offset="1" id="stop1608"/></linearGradient><linearGradient x1="0" y1="0" x2="1" y2="0" gradientUnits="userSpaceOnUse" gradientTransform="matrix(29.548515,0,0,29.548515,272.45145,523.20105)" spreadMethod="pad" id="linearGradient1632"><stop style="stop-opacity:1;stop-color:#ed1c24" offset="0" id="stop1626"/><stop style="stop-opacity:1;stop-color:#fbc707" offset="0.67832481" id="stop1628"/><stop style="stop-opacity:1;stop-color:#fbc707" offset="1" id="stop1630"/></linearGradient><clipPath clipPathUnits="userSpaceOnUse" id="clipPath1642"><path d="M 0,0 H 419.527 V 595.275 H 0 Z" id="path1640" inkscape:connector-curvature="0"/></clipPath><clipPath clipPathUnits="userSpaceOnUse" id="clipPath1650"><path d="M 48.7573,388.198 H 367.239 V 248.19 H 48.7573 Z" id="path1648" inkscape:connector-curvature="0"/></clipPath><clipPath clipPathUnits="userSpaceOnUse" id="clipPath1666"><path d="M 202,291.445 H 364.183 V 230.697 H 202 Z" id="path1664" inkscape:connector-curvature="0"/></clipPath><clipPath clipPathUnits="userSpaceOnUse" id="clipPath1682"><path d="M 92.6006,252.144 H 321.254 V 176.993 H 92.6006 Z" id="path1680" inkscape:connector-curvature="0"/></clipPath><clipPath clipPathUnits="userSpaceOnUse" id="clipPath1706"><path d="M 0,0 H 419.527 V 595.275 H 0 Z" id="path1704" inkscape:connector-curvature="0"/></clipPath><clipPath clipPathUnits="userSpaceOnUse" id="clipPath1714"><path d="M 60.3083,166.763 H 357.192 V 130.047 H 60.3083 Z" id="path1712" inkscape:connector-curvature="0"/></clipPath><clipPath clipPathUnits="userSpaceOnUse" id="clipPath1732"><path d="M 0,0 H 419.527 V 595.275 H 0 Z" id="path1730" inkscape:connector-curvature="0"/></clipPath><clipPath clipPathUnits="userSpaceOnUse" id="clipPath1740"><path d="M 8.97749,141.555 H 119.356 V 21.3826 H 8.97749 Z" id="path1738" inkscape:connector-curvature="0"/></clipPath><radialGradient fx="0" fy="0" cx="0" cy="0" r="1" gradientUnits="userSpaceOnUse" gradientTransform="matrix(27.901489,3.0708477,3.0708477,-27.901489,68.866966,78.285164)" spreadMethod="pad" id="radialGradient1800"><stop style="stop-opacity:1;stop-color:#df2fa0" offset="0" id="stop1794"/><stop style="stop-opacity:1;stop-color:#df2fa0" offset="0.57346437" id="stop1796"/><stop style="stop-opacity:1;stop-color:#9f2598" offset="1" id="stop1798"/></radialGradient><clipPath clipPathUnits="userSpaceOnUse" id="clipPath1810"><path d="M 0,0 H 419.527 V 595.275 H 0 Z" id="path1808" inkscape:connector-curvature="0"/></clipPath><clipPath clipPathUnits="userSpaceOnUse" id="clipPath1846"><path d="M 328.672,534.115 H 435.935 V 404.077 H 328.672 Z" id="path1844" inkscape:connector-curvature="0"/></clipPath><clipPath clipPathUnits="userSpaceOnUse" id="clipPath1974"><path d="M 14.0498,561.772 H 136.697 V 468.967 H 14.0498 Z" id="path1972" inkscape:connector-curvature="0"/></clipPath><linearGradient x1="0" y1="0" x2="1" y2="0" gradientUnits="userSpaceOnUse" gradientTransform="matrix(8.6082783,-9.8380423,-9.8380423,-8.6082783,40.324318,564.2511)" spreadMethod="pad" id="linearGradient2002"><stop style="stop-opacity:1;stop-color:#432e93" offset="0" id="stop1996"/><stop style="stop-opacity:1;stop-color:#432e93" offset="0.39846729" id="stop1998"/><stop style="stop-opacity:1;stop-color:#df2fa0" offset="1" id="stop2000"/></linearGradient><clipPath clipPathUnits="userSpaceOnUse" id="clipPath2012"><path d="M 0,0 H 419.527 V 595.275 H 0 Z" id="path2010" inkscape:connector-curvature="0"/></clipPath><clipPath clipPathUnits="userSpaceOnUse" id="clipPath2028"><path d="m 370.244,177.033 h 58.161 v -61.404 h -58.161 z" id="path2026" inkscape:connector-curvature="0"/></clipPath><linearGradient x1="0" y1="0" x2="1" y2="0" gradientUnits="userSpaceOnUse" gradientTransform="matrix(-10.788875,-17.825079,-17.825079,10.788875,361.93564,204.77777)" spreadMethod="pad" id="linearGradient2072"><stop style="stop-opacity:1;stop-color:#df2fa0" offset="0" id="stop2066"/><stop style="stop-opacity:1;stop-color:#df2fa0" offset="0.57346437" id="stop2068"/><stop style="stop-opacity:1;stop-color:#9f2598" offset="1" id="stop2070"/></linearGradient><clipPath clipPathUnits="userSpaceOnUse" id="clipPath2082"><path d="M 0,0 H 419.527 V 595.275 H 0 Z" id="path2080" inkscape:connector-curvature="0"/></clipPath><clipPath clipPathUnits="userSpaceOnUse" id="clipPath2094"><path d="m 267.936,75.844 h 85.698 V 22.255 h -85.698 z" id="path2092" inkscape:connector-curvature="0"/></clipPath><radialGradient fx="0" fy="0" cx="0" cy="0" r="1" gradientUnits="userSpaceOnUse" gradientTransform="matrix(20.957222,-4.7354646,-4.7354646,-20.957222,312.15448,73.963562)" spreadMethod="pad" id="radialGradient2134"><stop style="stop-opacity:1;stop-color:#df2fa0" offset="0" id="stop2128"/><stop style="stop-opacity:1;stop-color:#df2fa0" offset="0.57346437" id="stop2130"/><stop style="stop-opacity:1;stop-color:#9f2598" offset="1" id="stop2132"/></radialGradient><clipPath clipPathUnits="userSpaceOnUse" id="clipPath2144"><path d="M 0,0 H 419.527 V 595.275 H 0 Z" id="path2142" inkscape:connector-curvature="0"/></clipPath><clipPath clipPathUnits="userSpaceOnUse" id="clipPath2160"><path d="M 41.973,300.074 H 199.754 V 242.076 H 41.973 Z" id="path2158" inkscape:connector-curvature="0"/></clipPath><clipPath clipPathUnits="userSpaceOnUse" id="clipPath2180"><path d="M 0,595.28 H 419.53 V 0 H 0 Z" id="path2178" inkscape:connector-curvature="0"/></clipPath><clipPath clipPathUnits="userSpaceOnUse" id="clipPath2188"><path d="M 851.199,-647.573 H 9.309 v 595.275 h 841.89 z" id="path2186" inkscape:connector-curvature="0"/></clipPath><clipPath clipPathUnits="userSpaceOnUse" id="clipPath2196"><path d="M 861.409,-655.633 H 1.535 v 614.875 h 859.874 z" id="path2194" inkscape:connector-curvature="0"/></clipPath><clipPath clipPathUnits="userSpaceOnUse" id="clipPath2204"><path d="M -201.304,11.4898 H 1067.8 V -785.486 H -201.304 Z" id="path2202" inkscape:connector-curvature="0"/></clipPath><clipPath clipPathUnits="userSpaceOnUse" id="clipPath2224"><path d="M -93.9826,50.0719 H 391.221 V -756.037 H -93.9826 Z" id="path2222" inkscape:connector-curvature="0"/></clipPath></defs><sodipodi:namedview pagecolor="#ffffff" bordercolor="#666666" borderopacity="1" objecttolerance="10" gridtolerance="10" guidetolerance="10" inkscape:pageopacity="0" inkscape:pageshadow="2" inkscape:window-width="1920" inkscape:window-height="1005" id="namedview4" showgrid="false" inkscape:zoom="0.94318673" inkscape:cx="89.371471" inkscape:cy="133.0624" inkscape:window-x="-9" inkscape:window-y="-9" inkscape:window-maximized="1" inkscape:current-layer="g10" fit-margin-top="0" fit-margin-left="0" fit-margin-right="0" fit-margin-bottom="0"/><g id="g10" inkscape:groupmode="layer" inkscape:label="pool_brushur" transform="matrix(1.3333333,0,0,-1.3333333,-218.45981,745.55071)"><g id="g4087" transform="matrix(2.8705956,0,0,2.8705956,-306.48747,-1045.9678)"><path d="m 272.452,559.163 v -35.828 h 3.43 v -1.029 h 1.037 v -0.168 h 4.561 v 35.834 h -4.313 v 1.191 z" style="fill:url(#linearGradient1384);stroke:none" id="path1386" inkscape:connector-curvature="0"/><path d="m 187.1733,525.5457 -0.493,-3.488 h 6.011 c 0.052,0 0.092,-0.01 0.118,-0.03 0.026,-0.02 0.04,-0.069 0.04,-0.148 v -7.449 h 3.665 v 8.573 c -0.184,1.694 -1.182,2.542 -2.995,2.542 z" style="fill:#193474;fill-opacity:1;fill-rule:nonzero;stroke:none" id="path1402" inkscape:connector-curvature="0"/><path inkscape:connector-curvature="0" id="path1404" style="fill:#193474;fill-opacity:1;fill-rule:nonzero;stroke:none" d="m 190.504,520.303 h -3.666 v -5.873 h 3.666 z"/><path d="m 205.6216,514.4304 v 7.587 l 1.321,0.237 -0.178,3.291 h -9.065 l -0.375,-3.488 h 4.612 v -7.627 z" style="fill:#193474;fill-opacity:1;fill-rule:nonzero;stroke:none" id="path1408" inkscape:connector-curvature="0"/><path inkscape:connector-curvature="0" id="path1410" style="fill:#193474;fill-opacity:1;fill-rule:nonzero;stroke:none" d="m 211.551,525.546 h -3.666 v -11.115 h 3.666 z"/><path d="m 212.7925,525.5457 -0.493,-3.488 h 6.011 c 0.053,0 0.092,-0.01 0.118,-0.03 0.027,-0.02 0.04,-0.069 0.04,-0.148 v -7.449 h 3.665 v 8.573 c -0.184,1.694 -1.182,2.542 -2.995,2.542 z" style="fill:#193474;fill-opacity:1;fill-rule:nonzero;stroke:none" id="path1422" inkscape:connector-curvature="0"/><path inkscape:connector-curvature="0" id="path1424" style="fill:#193474;fill-opacity:1;fill-rule:nonzero;stroke:none" d="m 216.123,520.303 h -3.666 v -5.873 h 3.666 z"/><path inkscape:connector-curvature="0" id="path1426" style="fill:#193474;fill-opacity:1;fill-rule:nonzero;stroke:none" d="m 226.981,525.526 h -3.666 v -7.272 h 3.666 z"/><path d="m 232.1646,525.5457 -0.158,-3.488 h 5.006 c 0.066,0 0.115,-0.01 0.148,-0.03 0.032,-0.02 0.049,-0.069 0.049,-0.148 v -7.449 h 3.666 v 8.474 c -0.145,1.761 -1.137,2.641 -2.976,2.641 z" style="fill:#193474;fill-opacity:1;fill-rule:nonzero;stroke:none" id="path1438" inkscape:connector-curvature="0"/><path inkscape:connector-curvature="0" id="path1440" style="fill:#193474;fill-opacity:1;fill-rule:nonzero;stroke:none" d="m 245.664,525.546 h -3.666 v -11.115 h 3.666 z"/><path d="m 251.1543,524.8162 -0.571,0.729 h -4.238 l 2.405,-3.744 -0.907,-0.808 c -0.223,-0.355 -0.404,-0.733 -0.542,-1.133 -0.138,-0.401 -0.22,-0.851 -0.246,-1.35 l -0.256,-4.08 h 3.666 l 0.275,4.691 v 0.039 l 3.331,-4.73 h 4.572 l -3.429,4.632 c 0.236,0.131 0.476,0.295 0.719,0.492 0.243,0.198 0.463,0.414 0.66,0.651 0.198,0.236 0.365,0.492 0.503,0.768 0.138,0.276 0.213,0.565 0.227,0.867 l 0.236,3.705 h -3.764 l -0.019,-4.513 -0.73,1.045 z" style="fill:#193474;fill-opacity:1;fill-rule:nonzero;stroke:none" id="path1452" inkscape:connector-curvature="0"/><path d="m 189.584,504.4548 -0.427,4.077 c -0.031,0.268 -0.041,0.499 -0.03,0.693 0.012,0.193 0.06,0.354 0.143,0.48 0.083,0.126 0.205,0.223 0.367,0.291 0.162,0.066 0.381,0.112 0.658,0.136 l 0.13,1.007 h -3.354 l -0.083,-1.067 h 1.553 c -0.032,-0.095 -0.071,-0.199 -0.119,-0.314 -0.047,-0.114 -0.092,-0.239 -0.136,-0.373 -0.043,-0.135 -0.079,-0.279 -0.106,-0.432 -0.028,-0.155 -0.034,-0.319 -0.018,-0.493 l 0.343,-4.005 z m 4.348,6.684 h -2.786 l -0.142,-1.067 h 2.477 c 0.301,0 0.5,-0.061 0.599,-0.183 0.098,-0.123 0.148,-0.334 0.148,-0.634 v -2.927 c 0,-0.19 -0.01,-0.34 -0.03,-0.451 -0.02,-0.11 -0.057,-0.192 -0.113,-0.243 -0.055,-0.051 -0.13,-0.083 -0.225,-0.095 -0.094,-0.012 -0.217,-0.018 -0.367,-0.018 h -2.5 l -0.285,-1.066 h 0.012 3.093 c 0.237,0 0.444,0.04 0.623,0.119 0.177,0.079 0.325,0.185 0.443,0.319 0.119,0.135 0.208,0.289 0.267,0.463 0.06,0.174 0.089,0.355 0.089,0.545 v 3.827 c 0,0.198 -0.029,0.384 -0.089,0.558 -0.059,0.173 -0.146,0.323 -0.261,0.45 -0.114,0.126 -0.252,0.225 -0.414,0.296 -0.162,0.071 -0.342,0.107 -0.539,0.107 m 2.007,0 -0.047,-1.067 h 2.654 c 0.126,0 0.245,-0.01 0.355,-0.029 0.111,-0.02 0.206,-0.06 0.285,-0.119 0.079,-0.059 0.14,-0.146 0.184,-0.261 0.043,-0.114 0.065,-0.271 0.065,-0.467 v -4.741 h 1.007 v 5.487 c -0.055,0.798 -0.485,1.197 -1.292,1.197 z m 5.834,0 -0.32,-6.684 h 0.972 l 0.296,5.617 h 2.216 c 0.245,0 0.439,-0.037 0.581,-0.112 0.142,-0.076 0.221,-0.247 0.237,-0.516 l 0.165,-3.899 -2.156,-0.024 -0.131,-1.066 3.283,0.024 -0.154,5.332 c -0.039,0.395 -0.178,0.716 -0.415,0.96 -0.237,0.245 -0.592,0.368 -1.066,0.368 z m 6.166,0 -0.153,-1.067 h 3.271 c 0.118,0 0.231,-0.01 0.337,-0.029 0.107,-0.02 0.2,-0.06 0.279,-0.119 0.078,-0.059 0.14,-0.146 0.183,-0.261 0.044,-0.114 0.065,-0.271 0.065,-0.467 v -4.741 h 1.008 v 5.487 c -0.079,0.798 -0.514,1.197 -1.304,1.197 z m 1.067,-2.951 h -1.007 v -3.733 h 1.007 z m 8.28,2.951 v 2.109 c 0.04,0 0.04,0 0,0 h -0.285 -0.722 v -3.176 h 3.425 c 0.268,0 0.428,-0.069 0.48,-0.207 0.051,-0.139 0.037,-0.29 -0.042,-0.456 l -2.133,-4.954 h 1.137 l 2.086,4.764 c 0.095,0.229 0.137,0.458 0.125,0.688 -0.012,0.229 -0.073,0.434 -0.184,0.615 -0.111,0.182 -0.261,0.33 -0.45,0.445 -0.19,0.114 -0.415,0.172 -0.676,0.172 z m 7.6,0 0.047,-4.586 h 0.865 l 0.107,4.586 z m 2.109,-6.684 c 0.245,0 0.444,0.016 0.599,0.047 0.154,0.032 0.274,0.083 0.361,0.155 0.087,0.07 0.152,0.161 0.195,0.272 0.044,0.11 0.078,0.245 0.101,0.403 l 0.593,5.807 h -1.067 l -0.296,-4.492 c -0.032,-0.26 -0.056,-0.465 -0.071,-0.616 -0.016,-0.15 -0.048,-0.263 -0.095,-0.338 -0.047,-0.075 -0.119,-0.122 -0.213,-0.142 -0.095,-0.02 -0.233,-0.03 -0.415,-0.03 h -3.2 l -0.403,5.618 h -1.042 l 0.616,-6.672 z m 7.652,0 -0.427,4.077 c -0.032,0.268 -0.041,0.499 -0.03,0.693 0.012,0.193 0.06,0.354 0.143,0.48 0.083,0.126 0.205,0.223 0.367,0.291 0.162,0.066 0.381,0.112 0.657,0.136 l 0.131,1.007 h -3.354 l -0.083,-1.067 h 1.553 c -0.032,-0.095 -0.071,-0.199 -0.119,-0.314 -0.047,-0.114 -0.093,-0.239 -0.136,-0.373 -0.043,-0.135 -0.079,-0.279 -0.107,-0.432 -0.027,-0.155 -0.033,-0.319 -0.017,-0.493 l 0.343,-4.005 z m 4.348,6.684 h -2.786 l -0.142,-1.067 h 2.477 c 0.301,0 0.5,-0.061 0.599,-0.183 0.098,-0.123 0.148,-0.334 0.148,-0.634 v -2.927 c 0,-0.19 -0.01,-0.34 -0.03,-0.451 -0.02,-0.11 -0.057,-0.192 -0.113,-0.243 -0.055,-0.051 -0.13,-0.083 -0.225,-0.095 -0.094,-0.012 -0.217,-0.018 -0.367,-0.018 h -2.5 l -0.285,-1.066 h 0.012 3.093 c 0.237,0 0.444,0.04 0.623,0.119 0.177,0.079 0.325,0.185 0.444,0.319 0.118,0.135 0.207,0.289 0.266,0.463 0.06,0.174 0.089,0.355 0.089,0.545 v 3.827 c 0,0.198 -0.029,0.384 -0.089,0.558 -0.059,0.173 -0.146,0.323 -0.261,0.45 -0.114,0.126 -0.252,0.225 -0.414,0.296 -0.162,0.071 -0.342,0.107 -0.539,0.107 m 2.007,0 -0.047,-1.067 h 2.654 c 0.126,0 0.245,-0.01 0.355,-0.029 0.111,-0.02 0.206,-0.06 0.285,-0.119 0.079,-0.059 0.14,-0.146 0.184,-0.261 0.043,-0.114 0.065,-0.271 0.065,-0.467 v -4.741 h 1.007 v 5.487 c -0.055,0.798 -0.486,1.197 -1.292,1.197 z m 5.834,0 -0.32,-6.684 h 0.972 l 0.296,5.618 H 250 c 0.245,0 0.438,-0.038 0.581,-0.113 0.142,-0.076 0.221,-0.247 0.237,-0.516 l 0.165,-3.899 -2.156,-0.024 -0.131,-1.066 3.283,0.024 -0.154,5.332 c -0.04,0.395 -0.178,0.716 -0.415,0.96 -0.237,0.246 -0.592,0.368 -1.066,0.368 z m 6.166,0 -0.153,-1.066 h 3.27 c 0.119,0 0.232,-0.011 0.338,-0.03 0.107,-0.02 0.2,-0.06 0.279,-0.119 0.078,-0.059 0.14,-0.146 0.183,-0.261 0.044,-0.114 0.065,-0.271 0.065,-0.467 v -4.741 h 1.008 v 5.487 c -0.079,0.798 -0.514,1.197 -1.304,1.197 z m 1.067,-2.951 h -1.007 v -3.733 h 1.007 z" style="fill:#193474;fill-opacity:1;fill-rule:nonzero;stroke:none" id="path1456" inkscape:connector-curvature="0"/><path d="m 187.2837,511.7917 c -0.492,-0.378 -1.218,-0.324 -1.779,-0.631 -0.589,-0.323 -2.141,-1.615 -2.626,-0.446 -0.282,0.68 -0.236,0.634 -1.088,0.508 -0.328,-0.048 -0.645,-0.103 -0.963,-0.198 -0.957,-0.287 -1.691,-0.746 -2.567,-1.186 -2.721,-1.366 -0.479,2.512 -2.241,1.788 -0.672,-0.276 -1.369,-0.43 -2.047,-0.699 -0.94,-0.371 -1.728,-1.063 -2.738,-1.259 -0.751,-0.146 -1.361,-0.078 -1.736,0.649 -0.296,0.572 -0.372,2.161 -1.41,1.534 -1.034,-0.623 -2.235,-0.812 -3.286,-1.501 -0.241,-0.158 -1.019,-0.564 -0.954,-0.029 0.169,1.398 3.68,2.799 4.866,2.799 1.26,0 1.097,-1.167 1.654,-2.121 0.522,-0.893 2.132,0.168 2.707,0.455 0.921,0.459 2.228,1.213 3.232,1.276 0.616,0.039 1.495,0.075 1.734,-0.646 0.052,-0.157 -0.103,-1.338 -0.103,-1.338 0.28,-0.187 3.591,1.601 4.283,1.751 1.231,0.267 1.754,0.29 1.662,-1.042 0.035,0.509 3.4,0.837 3.4,0.336 -0.028,-0.022 0,0.004 0,0" style="fill:#193474;fill-opacity:1;fill-rule:nonzero;stroke:none" id="path1468" inkscape:connector-curvature="0"/><path d="m 175.978,520.4011 c 0.014,0.01 0.018,0.022 0.022,0.035 0.033,0.077 0.066,0.155 0.099,0.233 0.005,0.012 0.01,0.024 0.016,0.036 0.004,0.009 0.013,0.013 0.023,0.009 0.034,-0.01 0.068,-0.022 0.101,-0.033 0.057,-0.02 0.114,-0.039 0.17,-0.058 0.007,-0.003 0.015,-0.005 0.021,-0.01 0.004,-0.003 0.007,-0.009 0.007,-0.013 0,-0.01 -0.002,-0.019 -0.004,-0.028 -0.022,-0.095 -0.045,-0.19 -0.068,-0.285 -0.001,-0.005 -0.003,-0.011 -0.004,-0.016 -10e-4,-0.008 0.001,-0.015 0.008,-0.02 0.009,-0.006 0.019,-0.012 0.029,-0.017 0.116,-0.069 0.232,-0.138 0.349,-0.206 0.008,-0.005 0.016,-0.01 0.024,-0.014 0.013,-0.007 0.021,-0.007 0.031,0.002 0.011,0.01 0.023,0.02 0.034,0.03 0.055,0.049 0.109,0.098 0.163,0.147 0.009,0.007 0.018,0.014 0.026,0.021 0.006,0.003 0.012,0.002 0.016,-10e-4 0.006,-0.004 0.012,-0.009 0.017,-0.015 0.062,-0.062 0.125,-0.124 0.187,-0.187 0.008,-0.007 0.017,-0.014 0.02,-0.029 -0.012,-0.013 -0.025,-0.026 -0.038,-0.039 -0.066,-0.069 -0.133,-0.138 -0.2,-0.207 -0.009,-0.009 -0.018,-0.019 -0.026,-0.029 -0.002,-0.004 -0.003,-0.011 -0.002,-0.015 0.003,-0.007 0.008,-0.014 0.012,-0.02 0.099,-0.136 0.199,-0.272 0.299,-0.409 0.006,-0.009 0.012,-0.019 0.026,-0.024 0.096,0.039 0.192,0.079 0.288,0.118 0.009,-0.004 0.014,-0.01 0.016,-0.018 0.011,-0.037 0.022,-0.075 0.034,-0.113 0.01,-0.034 0.019,-0.068 0.03,-0.102 0.002,-0.01 0.004,-0.018 0.007,-0.028 0.003,-0.012 -0.003,-0.023 -0.014,-0.026 -0.014,-0.004 -0.029,-0.009 -0.043,-0.013 -0.081,-0.023 -0.162,-0.046 -0.243,-0.069 -0.015,-0.004 -0.029,-0.009 -0.044,-0.014 -0.002,-0.008 -0.004,-0.015 -0.004,-0.022 -0.001,-0.023 -0.001,-0.046 0,-0.068 0.002,-0.334 0.005,-0.669 0.008,-1.003 0,-0.018 0,-0.037 -0.001,-0.056 0,-0.009 -0.008,-0.017 -0.017,-0.018 -0.018,-10e-4 -0.035,-0.002 -0.051,-0.002 h -0.665 -1.081 c -0.02,0 -0.041,0 -0.061,-0.001 -0.007,-10e-4 -0.016,-0.007 -0.016,-0.014 -0.001,-0.015 -0.002,-0.03 -0.002,-0.045 0,-0.088 0,-0.177 0,-0.265 0,-0.386 0,-0.773 0,-1.16 0,-0.019 -0.001,-0.037 -0.002,-0.056 0,-10e-4 -0.003,-0.003 -0.004,-0.004 -0.003,0 -0.008,-0.002 -0.01,0 -0.013,0.011 -0.026,0.022 -0.038,0.034 -0.141,0.135 -0.282,0.27 -0.423,0.405 -0.01,0.01 -0.021,0.021 -0.032,0.031 -0.015,0.014 -0.017,0.014 -0.038,10e-4 -0.002,-10e-4 -0.004,-0.003 -0.005,-0.003 -0.004,0.002 -0.009,0.004 -0.009,0.006 -0.001,0.01 -0.003,0.021 -0.003,0.033 v 0.214 2.765 c 0,0.018 0,0.037 -0.001,0.056 0,0.015 -0.009,0.023 -0.025,0.023 -0.017,10e-4 -0.034,10e-4 -0.051,10e-4 h -0.856 -1.869 c -0.03,0 -0.06,-10e-4 -0.09,-10e-4 -0.008,0 -0.017,-0.01 -0.017,-0.019 -0.001,-0.017 -0.002,-0.034 -0.002,-0.051 v -2.134 -2.708 c 0,-0.021 -0.001,-0.041 -0.002,-0.062 0,-0.005 -0.002,-0.007 -0.006,-0.007 -0.002,0 -0.005,0 -0.006,10e-4 -0.01,0.01 -0.022,0.02 -0.032,0.03 -0.207,0.208 -0.414,0.416 -0.62,0.623 -0.179,0.181 -0.359,0.362 -0.54,0.543 -0.047,0.048 -0.042,0.037 -0.042,0.103 -0.001,0.631 -0.001,1.261 -0.001,1.892 0,0.657 0,1.314 0.001,1.97 v 0.339 c 0,0.013 0.001,0.026 0.002,0.039 0.001,0.005 0.004,0.01 0.011,0.012 0.005,0 0.011,0.002 0.017,0.002 h 0.061 4.122 c 0.321,0 0.642,10e-4 0.963,0.002 0.017,0 0.034,0.001 0.048,0.001 m 0.116,-1.699 v 0 0.529 c 0,0.052 -0.001,0.053 -0.054,0.053 h -0.017 -0.467 c -0.074,0 -0.069,0.006 -0.069,-0.07 v -1.013 c 0,-0.015 0,-0.03 0,-0.045 0,-0.005 0.001,-0.011 0.002,-0.017 0.001,-0.006 0.009,-0.015 0.014,-0.015 0.007,-10e-4 0.015,-0.002 0.022,-0.002 0.177,0 0.353,0 0.529,0 0.007,0 0.015,10e-4 0.023,0.002 0.005,10e-4 0.014,0.01 0.014,0.016 0.001,0.016 0.003,0.033 0.003,0.05 v 0.512" style="fill:#193474;fill-opacity:1;fill-rule:nonzero;stroke:none" id="path1472" inkscape:connector-curvature="0"/><path d="m 171.0181,514.8391 c -0.017,-0.002 -0.024,-0.014 -0.034,-0.022 -0.046,-0.045 -0.091,-0.09 -0.135,-0.136 -0.181,-0.18 -0.36,-0.362 -0.54,-0.542 -0.253,-0.255 -0.506,-0.509 -0.759,-0.763 -0.022,-0.023 -0.045,-0.045 -0.068,-0.067 -0.007,-0.007 -0.015,-0.011 -0.026,-0.011 -0.012,-10e-4 -0.025,-10e-4 -0.039,-10e-4 h -1.115 c -0.013,0 -0.026,0 -0.039,10e-4 -0.008,0 -0.014,0.005 -0.013,0.009 0.001,0.003 0.002,0.008 0.004,0.01 0.032,0.032 0.063,0.064 0.095,0.096 0.086,0.086 0.174,0.171 0.26,0.258 0.464,0.465 0.928,0.93 1.391,1.395 0.147,0.148 0.296,0.294 0.443,0.441 0.1,0.1 0.2,0.199 0.299,0.299 0.001,10e-4 0.003,0.003 0.004,0.004 0.011,0.011 0.018,0.012 0.028,0.002 0.013,-0.012 0.024,-0.024 0.036,-0.036 l 0.754,-0.758 c 0.127,-0.128 0.255,-0.256 0.382,-0.384 0.134,-0.135 0.269,-0.272 0.404,-0.407 0.053,-0.053 0.108,-0.105 0.162,-0.157 0.007,-0.006 0.018,-0.006 0.025,0 0.011,0.011 0.022,0.021 0.032,0.032 0.248,0.248 0.497,0.496 0.745,0.744 0.249,0.25 0.498,0.5 0.747,0.75 0.228,0.228 0.457,0.456 0.685,0.685 l 0.139,0.139 c 0.013,0.013 0.026,0.026 0.031,0.045 0.004,0.014 0.016,0.021 0.026,0.029 0.005,0.004 0.011,0.004 0.016,0 0.009,-0.008 0.017,-0.015 0.025,-0.023 0.152,-0.145 0.304,-0.291 0.455,-0.436 0.015,-0.014 0.03,-0.028 0.041,-0.046 0.007,-0.011 0.018,-0.02 0.027,-0.029 l 0.824,-0.824 c 0.279,-0.28 0.56,-0.56 0.84,-0.84 0.07,-0.07 0.14,-0.141 0.211,-0.211 0.005,-0.005 0.011,-0.011 0.016,-0.016 0.007,-0.005 0.018,-0.005 0.025,0.003 0.01,0.009 0.019,0.017 0.029,0.027 0.142,0.142 0.283,0.284 0.426,0.427 0.281,0.281 0.562,0.562 0.844,0.844 0.09,0.09 0.18,0.18 0.27,0.27 0.007,0.007 0.014,0.013 0.021,0.02 0.009,0.009 0.019,0.008 0.029,-0.001 0.008,-0.007 0.015,-0.013 0.021,-0.019 l 0.14,-0.139 c 0.162,-0.162 0.324,-0.324 0.485,-0.486 0.147,-0.148 0.294,-0.296 0.442,-0.443 0.13,-0.129 0.26,-0.259 0.39,-0.389 0.173,-0.173 0.345,-0.345 0.518,-0.518 0.162,-0.162 0.324,-0.324 0.485,-0.486 0.012,-0.011 0.023,-0.025 0.034,-0.037 0.001,-0.002 -10e-4,-0.009 -0.004,-0.01 -0.004,-0.002 -0.01,-0.004 -0.015,-0.004 -0.038,-0.002 -0.075,-0.004 -0.113,-0.004 -0.139,-0.003 -0.278,-0.004 -0.417,-0.007 -0.035,0 -0.071,-0.001 -0.106,-0.003 -0.023,-10e-4 -0.04,0.006 -0.056,0.022 -0.063,0.064 -0.127,0.128 -0.19,0.191 -0.243,0.243 -0.487,0.486 -0.729,0.728 -0.158,0.159 -0.316,0.317 -0.473,0.474 -0.048,0.048 -0.096,0.096 -0.144,0.143 -0.005,0.006 -0.011,0.011 -0.017,0.015 -0.005,0.003 -0.011,0.005 -0.016,10e-4 -0.011,-0.01 -0.022,-0.02 -0.033,-0.031 -0.118,-0.118 -0.236,-0.236 -0.354,-0.355 -0.225,-0.224 -0.449,-0.448 -0.673,-0.672 -0.156,-0.157 -0.313,-0.314 -0.469,-0.471 -0.022,-0.023 -0.045,-0.045 -0.069,-0.067 -0.007,-0.006 -0.018,-0.007 -0.025,-10e-4 -0.012,0.012 -0.025,0.023 -0.037,0.035 -0.244,0.244 -0.488,0.489 -0.732,0.734 -0.171,0.171 -0.342,0.342 -0.513,0.513 l -0.561,0.561 c -0.183,0.184 -0.366,0.366 -0.549,0.55 -0.035,0.035 -0.037,0.039 -0.075,10e-4 -0.21,-0.212 -0.421,-0.423 -0.632,-0.634 -0.24,-0.241 -0.48,-0.481 -0.721,-0.72 -0.282,-0.284 -0.565,-0.566 -0.847,-0.849 -0.054,-0.054 -0.108,-0.11 -0.162,-0.164 -0.01,-0.009 -0.019,-0.018 -0.029,-0.027 -0.008,-0.007 -0.017,-0.007 -0.025,10e-4 -0.033,0.033 -0.067,0.065 -0.1,0.099 -0.206,0.205 -0.411,0.411 -0.617,0.617 -0.207,0.207 -0.414,0.414 -0.621,0.62 -0.129,0.129 -0.257,0.258 -0.386,0.386 -0.009,0.009 -0.02,0.018 -0.028,0.025" style="fill:#193474;fill-opacity:1;fill-rule:nonzero;stroke:none" id="path1476" inkscape:connector-curvature="0"/><path d="m 169.3828,519.4304 c 0.004,-0.005 0.01,-0.01 0.014,-0.016 0.02,-0.034 0.04,-0.067 0.059,-0.102 0.042,-0.078 0.085,-0.155 0.122,-0.235 0.012,-0.023 0.023,-0.047 0.033,-0.071 0.033,-0.08 0.065,-0.16 0.097,-0.241 0.031,-0.082 0.061,-0.165 0.091,-0.248 0.004,-0.014 0.008,-0.028 0.012,-0.043 0.004,-0.013 0.006,-0.025 0.011,-0.038 0.023,-0.055 0.037,-0.114 0.053,-0.172 0.019,-0.066 0.039,-0.133 0.057,-0.2 0.008,-0.025 0.013,-0.051 0.02,-0.076 0.001,-0.004 0.002,-0.007 0.002,-0.011 0.034,-0.127 0.057,-0.256 0.087,-0.384 0.025,-0.11 0.046,-0.221 0.062,-0.332 0.015,-0.098 0.03,-0.196 0.045,-0.295 0.006,-0.036 0.009,-0.071 0.013,-0.106 0.011,-0.101 0.022,-0.201 0.033,-0.302 10e-4,-0.009 0.002,-0.019 0.002,-0.028 0,-0.098 0.015,-0.195 0.02,-0.292 0.007,-0.133 0.019,-0.266 0.016,-0.4 -0.001,-0.056 0.002,-0.112 0.002,-0.169 0.001,-0.026 -0.001,-0.052 0.001,-0.078 0.002,-0.029 -0.009,-0.05 -0.029,-0.069 -0.218,-0.218 -0.435,-0.436 -0.653,-0.654 -0.298,-0.298 -0.596,-0.598 -0.895,-0.896 -0.013,-0.014 -0.026,-0.027 -0.04,-0.04 -0.007,-0.007 -0.015,-0.009 -0.019,-0.007 -0.008,0.005 -0.009,0.012 -0.009,0.02 -0.009,0.074 -0.017,0.149 -0.025,0.223 -0.014,0.103 -0.012,0.206 -0.021,0.309 -0.003,0.034 -0.002,0.067 -0.003,0.101 -10e-4,0.021 0,0.042 -0.002,0.062 -0.009,0.158 -0.007,0.315 -0.008,0.473 -0.001,0.09 0,0.18 -0.001,0.27 0,0.062 -0.001,0.124 -0.002,0.186 -0.001,0.032 -0.001,0.064 0,0.096 10e-4,0.103 0.003,0.206 0.004,0.309 0.001,0.049 0.001,0.098 0.007,0.147 0.002,0.017 0.001,0.033 0.003,0.05 0.002,0.034 0.004,0.068 0.007,0.101 0,0.012 0.001,0.023 0.002,0.034 0.002,0.101 0.014,0.202 0.021,0.303 0.007,0.103 0.02,0.205 0.034,0.308 0.008,0.067 0.014,0.134 0.025,0.201 0.011,0.08 0.024,0.16 0.041,0.238 0.006,0.03 0.01,0.059 0.015,0.089 0.002,0.009 0.003,0.019 0.005,0.027 0.013,0.052 0.021,0.104 0.029,0.156 0.002,0.01 0.004,0.022 0.007,0.032 0.02,0.079 0.038,0.157 0.053,0.237 0.001,0.005 0.003,0.01 0.004,0.015 0.04,0.142 0.073,0.284 0.117,0.424 0.016,0.05 0.034,0.099 0.051,0.149 0.014,0.041 0.029,0.081 0.042,0.122 0.023,0.068 0.048,0.135 0.074,0.201 0.033,0.081 0.069,0.162 0.106,0.242 0.021,0.047 0.044,0.095 0.069,0.141 0.039,0.071 0.078,0.142 0.117,0.213 0.005,0.009 0.009,0.02 0.022,0.026" style="fill:#193474;fill-opacity:1;fill-rule:nonzero;stroke:none" id="path1480" inkscape:connector-curvature="0"/><path d="m 173.4385,520.5759 h -1.379 c -0.019,0 -0.038,10e-4 -0.057,10e-4 -0.007,10e-4 -0.013,0.008 -0.013,0.016 v 0.017 c 0.009,0.112 0.027,0.223 0.057,0.332 0.014,0.047 0.028,0.093 0.041,0.14 0.029,0.101 0.068,0.199 0.114,0.294 0.052,0.108 0.109,0.214 0.177,0.312 0.019,0.027 0.038,0.052 0.057,0.078 0.02,0.027 0.042,0.053 0.062,0.08 0.062,0.083 0.133,0.157 0.207,0.23 0.045,0.045 0.093,0.087 0.144,0.125 0.026,0.019 0.05,0.039 0.075,0.059 0.078,0.062 0.161,0.116 0.249,0.164 0.078,0.041 0.156,0.082 0.237,0.117 0.098,0.042 0.199,0.077 0.302,0.105 0.076,0.021 0.153,0.038 0.231,0.05 0.065,0.01 0.13,0.016 0.196,0.024 0.108,0.011 0.217,0.008 0.326,0.005 0.033,-0.001 0.067,-0.004 0.1,-0.008 0.105,-0.013 0.209,-0.023 0.311,-0.053 0.021,-0.006 0.043,-0.01 0.065,-0.015 0.039,-0.008 0.077,-0.018 0.114,-0.031 0.041,-0.015 0.082,-0.028 0.122,-0.043 0.028,-0.011 0.055,-0.023 0.083,-0.036 0.046,-0.021 0.093,-0.041 0.137,-0.064 0.059,-0.03 0.115,-0.064 0.172,-0.096 0.067,-0.039 0.127,-0.086 0.189,-0.132 0.1,-0.074 0.189,-0.16 0.279,-0.246 0.037,-0.037 0.07,-0.077 0.103,-0.119 0.044,-0.056 0.087,-0.113 0.13,-0.169 0.029,-0.038 0.053,-0.078 0.076,-0.118 0.004,-0.007 -10e-4,-0.017 -0.008,-0.018 -0.005,-10e-4 -0.011,-10e-4 -0.017,-10e-4 -0.017,0 -0.033,0 -0.05,0 h -1.301 c -0.02,0 -0.041,-0.001 -0.062,-0.002 -0.007,0 -0.014,-0.008 -0.015,-0.014 -0.001,-0.005 -0.002,-0.011 -0.002,-0.016 -0.001,-0.017 -0.001,-0.034 -0.001,-0.051 v -0.845 c 0,-0.019 -0.001,-0.037 -0.001,-0.056 0,-0.007 -0.007,-0.014 -0.014,-0.015 -0.006,0 -0.012,-10e-4 -0.017,-10e-4 h -0.051 z" style="fill:#193474;fill-opacity:1;fill-rule:nonzero;stroke:none" id="path1484" inkscape:connector-curvature="0"/><path d="m 177.7119,518.7942 c 0.013,0.005 0.025,0.01 0.037,0.014 0.094,0.026 0.188,0.052 0.281,0.079 0.013,0.003 0.025,0.008 0.038,0.012 0.007,0.03 0.003,0.058 -0.002,0.085 -0.011,0.069 -0.027,0.136 -0.046,0.203 -0.049,0.171 -0.107,0.34 -0.17,0.506 -0.008,0.022 -0.016,0.043 -0.024,0.064 -0.002,0.003 -0.005,0.006 -0.007,0.009 -0.009,0.006 -0.018,10e-4 -0.026,-0.003 -0.04,-0.02 -0.08,-0.041 -0.121,-0.061 -0.058,-0.029 -0.117,-0.058 -0.176,-0.088 -0.011,-0.005 -0.017,-0.003 -0.024,0.007 -0.021,0.028 -0.042,0.057 -0.063,0.086 -0.009,0.015 -0.009,0.021 0.004,0.035 0.063,0.067 0.126,0.134 0.189,0.201 0.01,0.011 0.02,0.022 0.03,0.033 0.017,0.018 0.017,0.022 0.002,0.044 -0.018,0.026 -0.037,0.052 -0.056,0.077 -0.048,0.06 -0.101,0.116 -0.155,0.172 -0.123,0.124 -0.253,0.24 -0.386,0.353 -0.009,0.007 -0.016,0.015 -0.029,0.017 -0.013,-0.005 -0.019,-0.017 -0.027,-0.026 -0.06,-0.07 -0.12,-0.141 -0.179,-0.211 -0.007,-0.008 -0.015,-0.017 -0.023,-0.024 -0.004,-0.003 -0.012,-0.006 -0.015,-0.004 -0.025,0.012 -0.05,0.025 -0.074,0.04 -0.004,0.002 -0.006,0.01 -0.005,0.015 0.001,0.009 0.004,0.018 0.006,0.027 0.029,0.089 0.058,0.178 0.087,0.267 0.002,0.008 0.006,0.015 0.006,0.022 0.001,0.005 -0.002,0.012 -0.006,0.014 -0.01,0.009 -0.021,0.015 -0.032,0.022 -0.135,0.08 -0.277,0.142 -0.426,0.19 -0.098,0.031 -0.198,0.056 -0.3,0.075 -0.026,0.005 -0.052,0.008 -0.078,0.012 -0.006,10e-4 -0.016,-0.005 -0.019,-0.011 -0.005,-0.013 -0.011,-0.027 -0.016,-0.041 -0.03,-0.079 -0.059,-0.158 -0.089,-0.237 -0.005,-0.014 -0.011,-0.028 -0.017,-0.041 -0.006,-0.002 -0.011,-0.005 -0.017,-0.005 -0.012,-10e-4 -0.026,-10e-4 -0.039,-10e-4 -0.206,0 -0.413,0 -0.619,0 -0.017,0 -0.034,0.002 -0.051,0.003 -0.003,10e-4 -0.006,0.005 -0.008,0.007 -0.001,0.003 -0.001,0.008 -0.001,0.011 -0.001,0.01 -0.001,0.019 -0.001,0.029 v 0.574 c 0,0.054 -0.001,0.052 0.052,0.052 h 0.028 3.103 c 0.021,0 0.041,0 0.062,0 0.012,0 0.02,-0.009 0.02,-0.022 0.001,-0.017 0.001,-0.034 0.001,-0.051 0,-0.833 0,-1.667 0,-2.5 0,-0.049 -0.005,-0.097 -0.016,-0.145 -0.041,-0.177 -0.081,-0.355 -0.122,-0.532 -0.02,-0.083 0,-0.071 -0.088,-0.073 -0.107,-0.002 -0.214,-0.005 -0.322,-0.007 -0.018,-0.001 -0.037,0 -0.055,10e-4 -0.007,0 -0.015,0.008 -0.015,0.015 -10e-4,0.011 -10e-4,0.022 -10e-4,0.033 -0.001,0.213 -0.002,0.425 -0.002,0.636 0,0.014 0.001,0.027 0.002,0.041" style="fill:#193474;fill-opacity:1;fill-rule:nonzero;stroke:none" id="path1488" inkscape:connector-curvature="0"/><path d="m 174.3145,523.8567 c 0.052,-0.003 0.105,-0.005 0.157,-0.008 0.07,-0.006 0.139,-0.011 0.208,-0.017 0.037,-0.004 0.074,-0.009 0.111,-0.016 0.102,-0.016 0.203,-0.037 0.303,-0.064 0.047,-0.013 0.094,-0.025 0.141,-0.038 0.085,-0.022 0.169,-0.051 0.25,-0.085 0.066,-0.026 0.131,-0.055 0.197,-0.083 0.073,-0.03 0.141,-0.069 0.211,-0.106 0.022,-0.011 0.044,-0.022 0.065,-0.034 0.148,-0.082 0.288,-0.176 0.421,-0.28 0.098,-0.076 0.19,-0.158 0.28,-0.244 0.092,-0.088 0.178,-0.182 0.261,-0.279 0.073,-0.086 0.138,-0.179 0.204,-0.27 0.036,-0.052 0.067,-0.108 0.101,-0.162 0.057,-0.093 0.109,-0.189 0.154,-0.287 0.029,-0.062 0.057,-0.123 0.084,-0.185 0.015,-0.034 0.028,-0.069 0.041,-0.104 0.003,-0.008 -0.002,-0.017 -0.009,-0.017 -0.012,-0.001 -0.023,-0.002 -0.034,-0.002 h -0.236 c -0.01,0 -0.019,0 -0.029,10e-4 -0.012,0 -0.021,0.006 -0.026,0.017 -0.022,0.048 -0.042,0.096 -0.064,0.144 -0.017,0.036 -0.034,0.071 -0.053,0.106 -0.026,0.047 -0.053,0.094 -0.076,0.144 -0.004,0.008 -0.009,0.016 -0.014,0.024 -0.032,0.049 -0.063,0.098 -0.095,0.146 -0.094,0.139 -0.198,0.27 -0.312,0.391 -0.121,0.129 -0.251,0.248 -0.391,0.355 -0.068,0.052 -0.136,0.1 -0.208,0.145 -0.076,0.045 -0.149,0.094 -0.228,0.134 -0.089,0.045 -0.178,0.088 -0.271,0.124 -0.045,0.018 -0.09,0.037 -0.136,0.054 -0.048,0.017 -0.095,0.034 -0.144,0.049 -0.048,0.015 -0.097,0.029 -0.146,0.043 -0.005,10e-4 -0.01,0.003 -0.016,0.004 -0.077,0.015 -0.154,0.031 -0.232,0.045 -0.042,0.008 -0.085,0.014 -0.127,0.021 -0.011,10e-4 -0.023,0.003 -0.034,0.004 -0.094,0.007 -0.187,0.014 -0.281,0.019 -0.078,0.005 -0.157,0.002 -0.236,-0.002 -0.063,-0.004 -0.127,-0.01 -0.191,-0.016 -0.065,-0.006 -0.13,-0.016 -0.195,-0.027 l -0.072,-0.012 c -0.068,-0.011 -0.135,-0.029 -0.202,-0.047 -0.048,-0.012 -0.095,-0.024 -0.141,-0.039 -0.111,-0.037 -0.22,-0.074 -0.327,-0.122 -0.087,-0.039 -0.173,-0.081 -0.257,-0.127 -0.079,-0.043 -0.154,-0.093 -0.229,-0.143 -0.031,-0.022 -0.063,-0.041 -0.093,-0.063 -0.091,-0.066 -0.179,-0.136 -0.261,-0.214 -0.007,-0.006 -0.014,-0.013 -0.021,-0.019 -0.075,-0.067 -0.147,-0.138 -0.213,-0.215 -0.071,-0.083 -0.143,-0.164 -0.206,-0.253 -0.103,-0.144 -0.199,-0.292 -0.28,-0.449 -0.034,-0.065 -0.061,-0.132 -0.091,-0.199 -0.038,-0.084 -0.069,-0.171 -0.097,-0.258 -0.029,-0.093 -0.053,-0.188 -0.079,-0.282 -0.001,-0.005 -0.002,-0.011 -0.003,-0.016 -0.008,-0.049 -0.017,-0.097 -0.024,-0.144 -0.013,-0.079 -0.021,-0.157 -0.024,-0.236 -0.001,-0.018 -0.002,-0.037 -0.004,-0.056 -0.002,-0.025 -0.007,-0.03 -0.03,-0.03 -0.084,-10e-4 -0.168,-10e-4 -0.253,0 -0.003,0 -0.007,0 -0.011,0 -0.008,0.001 -0.014,0.008 -0.014,0.015 0,0.018 0,0.037 0.001,0.056 0.005,0.081 0.014,0.161 0.026,0.241 0.003,0.022 0.006,0.044 0.008,0.067 0.01,0.08 0.031,0.158 0.047,0.237 0.02,0.098 0.051,0.192 0.083,0.286 0.016,0.048 0.031,0.096 0.049,0.143 0.026,0.065 0.053,0.129 0.083,0.192 0.033,0.067 0.065,0.135 0.1,0.201 0.022,0.044 0.047,0.085 0.073,0.127 0.048,0.081 0.096,0.161 0.15,0.237 0.067,0.094 0.138,0.183 0.214,0.27 0.001,0.001 0.002,0.002 0.004,0.003 0.092,0.112 0.196,0.212 0.303,0.309 0.089,0.081 0.18,0.159 0.279,0.228 0.112,0.078 0.225,0.156 0.345,0.222 0.072,0.04 0.146,0.076 0.22,0.114 0.07,0.036 0.143,0.065 0.216,0.094 0.152,0.061 0.307,0.109 0.466,0.148 0.079,0.019 0.158,0.033 0.238,0.045 0.083,0.013 0.167,0.021 0.251,0.03 0.11,0.013 0.221,0.014 0.331,0.013 h 0.04 v 0.002" style="fill:#193474;fill-opacity:1;fill-rule:nonzero;stroke:none" id="path1492" inkscape:connector-curvature="0"/><path d="m 179.1406,516.4885 c -0.002,0.02 -0.006,0.041 -0.008,0.061 -0.006,0.054 -0.01,0.108 -0.015,0.163 -0.006,0.056 -0.012,0.111 -0.018,0.168 -0.004,0.041 -0.008,0.082 -0.012,0.123 -0.009,0.093 -0.018,0.187 -0.028,0.28 -0.005,0.054 -0.011,0.108 -0.017,0.162 -0.004,0.042 -0.008,0.083 -0.012,0.124 -0.009,0.093 -0.017,0.186 -0.027,0.28 -0.005,0.054 -0.011,0.108 -0.017,0.162 -0.004,0.041 -0.008,0.082 -0.012,0.123 -0.009,0.094 -0.018,0.187 -0.027,0.28 -0.01,0.094 -0.019,0.187 -0.029,0.28 -0.006,0.054 -0.01,0.108 -0.015,0.163 -0.006,0.056 -0.012,0.111 -0.017,0.168 l -0.014,0.129 c -0.009,0.093 -0.018,0.187 -0.026,0.28 -0.008,0.08 -0.016,0.16 -0.024,0.241 -0.002,0.014 -0.005,0.029 -0.008,0.044 -0.001,0.003 -0.004,0.005 -0.007,0.009 -0.013,-0.04 -0.019,-0.081 -0.026,-0.121 -0.034,-0.167 -0.067,-0.335 -0.099,-0.502 -0.032,-0.162 -0.063,-0.325 -0.095,-0.487 -0.03,-0.152 -0.06,-0.305 -0.092,-0.457 -0.021,-0.1 -0.045,-0.198 -0.068,-0.297 -0.003,-0.01 -0.007,-0.021 -0.011,-0.033 -0.011,-10e-4 -0.023,-0.003 -0.033,-0.004 -0.289,-0.004 -0.579,-0.008 -0.868,-0.012 h -0.028 c -0.016,10e-4 -0.023,0.007 -0.023,0.025 -10e-4,0.013 -10e-4,0.026 -10e-4,0.039 -0.002,0.323 -0.004,0.646 -0.005,0.968 -10e-4,0.068 -0.003,0.055 0.054,0.072 0.093,0.028 0.187,0.053 0.281,0.081 0.011,0.003 0.021,0.007 0.032,0.011 0.002,0.001 0.004,0.006 0.004,0.01 0.001,0.003 0,0.007 -0.001,0.01 -0.042,0.143 -0.084,0.285 -0.126,0.427 -10e-4,0.001 -10e-4,0.003 -0.002,0.005 -0.006,0.019 -0.012,0.022 -0.028,0.016 -0.011,-0.004 -0.021,-0.009 -0.031,-0.013 -0.073,-0.03 -0.146,-0.06 -0.219,-0.09 -0.011,-0.005 -0.024,-0.011 -0.036,-0.015 -0.022,-0.008 -0.027,-0.007 -0.042,0.013 l -0.213,0.292 c -0.005,0.007 -0.009,0.015 -0.015,0.025 0.011,0.011 0.02,0.023 0.03,0.034 0.072,0.074 0.144,0.148 0.216,0.222 0.012,0.012 0.023,0.024 0.035,0.038 -0.005,0.007 -0.008,0.014 -0.013,0.019 -0.022,0.023 -0.045,0.046 -0.068,0.068 -0.078,0.079 -0.156,0.157 -0.235,0.235 -0.013,0.013 -0.026,0.026 -0.039,0.038 -0.012,10e-4 -0.019,-0.005 -0.026,-0.011 -0.056,-0.051 -0.111,-0.101 -0.168,-0.151 -0.089,-0.077 -0.052,-0.073 -0.153,-0.016 -0.06,0.034 -0.119,0.07 -0.18,0.105 -0.012,0.008 -0.025,0.016 -0.038,0.024 -0.007,0.005 -0.009,0.012 -0.008,0.02 0.002,0.011 0.004,0.022 0.006,0.033 0.024,0.097 0.047,0.193 0.07,0.29 0.002,0.007 0.003,0.015 0.003,0.022 0,0.005 -0.003,0.012 -0.007,0.014 -0.008,0.004 -0.017,0.007 -0.026,0.011 -0.14,0.048 -0.28,0.095 -0.42,0.143 -0.006,0.002 -0.011,0.003 -0.017,0.004 -0.006,0.002 -0.011,-0.002 -0.013,-0.007 -0.008,-0.015 -0.015,-0.03 -0.021,-0.046 -0.032,-0.076 -0.064,-0.152 -0.096,-0.228 -0.008,-0.017 -0.016,-0.034 -0.024,-0.053 -0.009,-10e-4 -0.018,-0.003 -0.027,-0.004 -0.013,-10e-4 -0.027,0 -0.04,0 -0.239,0 -0.48,0 -0.72,0 -0.019,0 -0.038,10e-4 -0.057,0.002 -0.007,0 -0.014,0.007 -0.015,0.014 0,0.002 0,0.003 0,0.005 v 0.09 c 0,0.012 0.008,0.02 0.022,0.021 0.019,0 0.037,10e-4 0.056,10e-4 h 0.653 c 0.019,0 0.038,0 0.056,0.002 0.008,0 0.015,0.005 0.017,0.012 0.005,0.013 0.011,0.025 0.015,0.037 l 0.089,0.237 c 0.003,0.009 0.007,0.017 0.011,0.026 0.003,0.006 0.011,0.01 0.019,0.009 0.012,-0.002 0.026,-0.002 0.039,-0.005 0.208,-0.043 0.409,-0.111 0.596,-0.212 0.008,-0.005 0.017,-0.01 0.024,-0.015 0.007,-0.003 0.011,-0.013 0.009,-0.019 -0.005,-0.014 -0.009,-0.028 -0.013,-0.043 -0.027,-0.082 -0.054,-0.164 -0.081,-0.246 -0.002,-0.009 -0.004,-0.018 -0.007,-0.027 -0.001,-0.006 0.004,-0.016 0.009,-0.02 0.002,-10e-4 0.003,-10e-4 0.005,-0.002 0.066,-0.036 0.132,-0.072 0.198,-0.108 0.003,-10e-4 0.007,-10e-4 0.011,-10e-4 0.014,0.006 0.022,0.02 0.031,0.031 0.051,0.06 0.102,0.12 0.153,0.18 0.01,0.011 0.019,0.023 0.03,0.034 0.009,0.011 0.016,0.011 0.029,10e-4 0.002,-0.003 0.005,-0.005 0.008,-0.008 0.109,-0.094 0.217,-0.191 0.317,-0.295 0.04,-0.041 0.077,-0.082 0.114,-0.124 0.018,-0.02 0.034,-0.041 0.048,-0.059 0.003,-0.012 -0.002,-0.018 -0.007,-0.023 -0.013,-0.014 -0.025,-0.027 -0.039,-0.042 -0.058,-0.063 -0.117,-0.126 -0.176,-0.189 -0.007,-0.006 -0.013,-0.014 -0.018,-0.021 -0.002,-0.003 -0.002,-0.007 -0.001,-0.011 0,-0.004 0.002,-0.007 0.004,-0.01 l 0.154,-0.215 c 0.006,-0.009 0.016,-0.012 0.025,-0.008 0.012,0.006 0.024,0.011 0.035,0.017 0.07,0.034 0.138,0.069 0.207,0.103 0.015,0.008 0.03,0.016 0.045,0.022 0.01,0.005 0.018,0 0.022,-0.01 l 0.006,-0.016 c 0.055,-0.148 0.106,-0.296 0.148,-0.448 0.013,-0.048 0.024,-0.095 0.036,-0.142 0.002,-0.011 0.004,-0.023 0.005,-0.033 10e-4,-0.012 -0.003,-0.02 -0.013,-0.022 -0.01,-0.004 -0.021,-0.008 -0.032,-0.011 -0.092,-0.026 -0.184,-0.051 -0.276,-0.077 -0.007,-0.002 -0.015,-0.004 -0.021,-0.007 -0.004,-0.003 -0.008,-0.008 -0.009,-0.013 -0.002,-0.006 -0.002,-0.012 -0.002,-0.017 v -0.045 c 0,-0.25 0.001,-0.499 0.003,-0.749 0,-0.018 0,-0.037 0,-0.056 0.001,-0.008 0.007,-0.015 0.014,-0.016 0.009,0 0.019,-0.001 0.028,-0.001 0.186,0.003 0.372,0.007 0.557,0.011 0.009,0 0.019,0.002 0.03,0.003 0.004,0.01 0.009,0.02 0.011,0.031 0.024,0.1 0.046,0.201 0.069,0.302 0.054,0.239 0.109,0.479 0.163,0.718 0.043,0.191 0.087,0.381 0.13,0.571 0.035,0.153 0.07,0.307 0.105,0.46 0.021,0.091 0.044,0.182 0.066,0.273 0.024,0.099 0.048,0.197 0.073,0.295 0.002,0.009 0.005,0.018 0.008,0.027 0,0 0.003,0.002 0.004,0.002 0.002,0 0.004,-0.001 0.005,-0.003 0.002,-0.007 0.006,-0.013 0.007,-0.02 0.004,-0.041 0.009,-0.082 0.013,-0.123 0.005,-0.051 0.009,-0.101 0.015,-0.152 0.014,-0.119 0.027,-0.238 0.04,-0.358 0.01,-0.085 0.017,-0.171 0.027,-0.257 0.009,-0.086 0.019,-0.172 0.029,-0.258 0.009,-0.085 0.017,-0.171 0.026,-0.257 0.006,-0.05 0.012,-0.101 0.018,-0.151 0.004,-0.041 0.008,-0.082 0.013,-0.123 0.008,-0.086 0.017,-0.172 0.027,-0.258 0.009,-0.086 0.019,-0.171 0.028,-0.257 0.01,-0.086 0.018,-0.172 0.027,-0.258 0.006,-0.05 0.011,-0.1 0.017,-0.151 0.005,-0.052 0.01,-0.104 0.015,-0.156 0.002,-0.017 0.005,-0.034 0.006,-0.051 0.002,-0.015 0.004,-0.03 0.006,-0.045 0.003,-0.026 0.005,-0.051 0.007,-0.078 0.002,-0.011 0.003,-0.022 0.004,-0.034 0,-0.027 0.003,-0.056 0.008,-0.083 0.002,-0.013 0.002,-0.026 0.003,-0.04 0.001,-0.013 0.001,-0.026 0.003,-0.039 0.006,-0.041 0.009,-0.082 0.012,-0.123 0.006,-0.08 0.014,-0.16 0.021,-0.241 10e-4,-0.005 0.002,-0.011 0.004,-0.016 0.001,-0.003 0.005,-0.005 0.008,-0.006 10e-4,-10e-4 0.004,10e-4 0.005,0.002 0.014,0.013 0.02,0.031 0.028,0.048 0.052,0.1 0.103,0.2 0.155,0.3 0.089,0.174 0.179,0.346 0.269,0.52 0.023,0.046 0.023,0.044 0.073,0.044 h 1.267 c 0.216,0 0.432,0 0.648,-10e-4 0.021,0 0.041,-0.001 0.062,-0.002 0.006,0 0.013,-0.008 0.014,-0.014 0,-0.003 0.001,-0.004 0.001,-0.006 -0.001,-0.062 -0.002,-0.124 -0.003,-0.186 0,-0.007 -0.008,-0.015 -0.015,-0.015 -0.018,-10e-4 -0.037,-0.002 -0.056,-0.002 h -0.664 -1.109 c -0.019,0 -0.038,0 -0.056,-10e-4 -0.009,0 -0.015,-0.004 -0.019,-0.012 -0.007,-0.013 -0.015,-0.025 -0.021,-0.039 -0.08,-0.166 -0.166,-0.328 -0.255,-0.489 -0.137,-0.246 -0.273,-0.492 -0.409,-0.739 -0.009,-0.016 -0.02,-0.031 -0.03,-0.047 -0.001,-0.002 -0.006,-10e-4 -0.011,-10e-4" style="fill:#193474;fill-opacity:1;fill-rule:nonzero;stroke:none" id="path1496" inkscape:connector-curvature="0"/><path d="m 173.0454,518.7068 v -0.518 c 0,-0.016 -0.001,-0.033 -0.002,-0.05 0,-0.007 -0.008,-0.014 -0.014,-0.015 -0.004,0 -0.007,-0.002 -0.011,-0.002 -0.012,0 -0.023,0 -0.034,0 h -0.49 c -0.013,0 -0.026,0 -0.039,10e-4 -0.009,10e-4 -0.017,0.009 -0.017,0.019 -0.001,0.013 -0.001,0.026 -0.001,0.039 v 1.041 c 0,0.015 0.001,0.03 0.002,0.045 0,0.007 0.007,0.015 0.014,0.016 0.009,0 0.018,0.002 0.028,0.002 h 0.517 c 0.008,0 0.015,-10e-4 0.023,-10e-4 0.015,-0.001 0.023,-0.009 0.024,-0.025 0,-0.019 0,-0.038 0,-0.056 v -0.496" style="fill:#193474;fill-opacity:1;fill-rule:nonzero;stroke:none" id="path1500" inkscape:connector-curvature="0"/><path d="m 174.0703,518.6995 v -0.506 c 0,-0.017 0,-0.035 -0.001,-0.051 0,-0.012 -0.009,-0.02 -0.022,-0.021 -0.008,0 -0.015,0 -0.022,0 h -0.518 c -0.012,0 -0.023,10e-4 -0.034,0.003 -0.003,10e-4 -0.007,0.005 -0.007,0.008 -0.002,0.005 -0.004,0.011 -0.004,0.016 -0.001,0.015 -0.001,0.03 -0.001,0.045 v 1.013 c 0,0.019 0.001,0.038 0.001,0.056 0.001,0.013 0.01,0.02 0.023,0.021 0.014,0 0.029,10e-4 0.044,10e-4 h 0.479 c 0.015,0 0.03,-10e-4 0.044,-0.002 0.007,0 0.016,-0.008 0.016,-0.014 0.001,-0.015 0.002,-0.03 0.002,-0.045 v -0.501 z" style="fill:#193474;fill-opacity:1;fill-rule:nonzero;stroke:none" id="path1504" inkscape:connector-curvature="0"/><path d="m 174.9468,514.0789 v -0.377 c 0,-0.017 -0.001,-0.034 -0.002,-0.05 0,-0.006 -0.01,-0.014 -0.015,-0.015 -0.009,-10e-4 -0.019,-0.002 -0.028,-0.002 -0.124,0 -0.247,0 -0.372,0 -0.011,0 -0.022,0.002 -0.033,0.004 -0.003,0 -0.006,0.004 -0.008,0.007 -0.002,0.003 -0.002,0.007 -0.003,0.011 0,0.015 0,0.029 0,0.045 -0.001,0.253 -0.001,0.506 -0.001,0.759 0,0.008 0,0.015 0.001,0.023 0,0.045 0.002,0.047 0.047,0.047 0.122,10e-4 0.244,10e-4 0.366,0 0.009,0 0.019,0 0.028,-10e-4 0.01,0 0.018,-0.009 0.019,-0.018 0,-0.015 0.001,-0.029 0.001,-0.045 v -0.197 -0.191" style="fill:#193474;fill-opacity:1;fill-rule:nonzero;stroke:none" id="path1508" inkscape:connector-curvature="0"/><path d="m 175.7251,514.0779 v -0.383 c 0,-0.012 0,-0.022 0,-0.034 -0.001,-0.018 -0.008,-0.024 -0.023,-0.025 -0.014,-10e-4 -0.027,-10e-4 -0.04,-10e-4 h -0.214 -0.146 c -0.009,0 -0.019,10e-4 -0.028,0.003 -0.004,0.002 -0.01,0.007 -0.01,0.011 -0.002,0.017 -0.003,0.034 -0.003,0.051 v 0.349 0.405 c 0,0.019 0,0.038 0.001,0.056 0.001,0.012 0.01,0.02 0.023,0.021 0.011,0 0.022,10e-4 0.033,10e-4 h 0.349 c 0.013,0 0.026,-10e-4 0.039,-0.002 0.009,0 0.018,-0.009 0.018,-0.019 0.001,-0.017 0.001,-0.034 0.001,-0.05 z" style="fill:#193474;fill-opacity:1;fill-rule:nonzero;stroke:none" id="path1512" inkscape:connector-curvature="0"/><path d="m 182.7534,511.6706 v 13.875 h -8.349 -8.35 v -13.875 c 0,-2.246 0.987,-3.984 3.787,-4.492 2.78,-0.504 4.197,-2.244 4.563,-2.76 0.366,0.516 1.783,2.256 4.562,2.76 2.801,0.508 3.787,2.246 3.787,4.492 m -0.567,0.225 c 0,-2.094 -0.919,-3.713 -3.53,-4.187 -2.59,-0.47 -3.911,-2.091 -4.252,-2.573 -0.341,0.482 -1.662,2.103 -4.253,2.573 -2.61,0.474 -3.529,2.093 -3.529,4.187 v 12.932 h 7.782 7.782 z" style="fill:#193474;fill-opacity:1;fill-rule:nonzero;stroke:none" id="path1524" inkscape:connector-curvature="0"/><path d="m 272.426,559.163 v -35.828 h 3.465 l 0.019,-0.869 5.571,-0.328 -0.026,35.834 h -4.313 v 1.191 z" style="fill:url(#linearGradient1552);stroke:none" id="path1554" inkscape:connector-curvature="0"/><path inkscape:connector-curvature="0" id="path1588" style="fill:url(#linearGradient1586);stroke:none" d="m 272.452,559.163 v -35.828 h 3.43 v -1.029 h 1.037 v -0.168 h 4.561 v 35.834 h -4.313 v 1.191 z"/><path inkscape:connector-curvature="0" id="path1612" style="fill:url(#linearGradient1610);stroke:none" d="m 251.901,535.246 3.18,-3.18 0.75,0.786 3.18,-3.18 c 0.751,0.787 2.862,1.771 5.207,1.771 v 0 c 4.508,0 8.164,-3.621 8.235,-8.111 v 0 h 3.431 v -1.02 h 1.037 l -0.002,-0.174 h 4.587 c -0.026,0.354 -0.057,0.706 -0.057,1.063 v 0 c 0,9.516 -7.714,17.231 -17.231,17.231 v 0 c -4.827,0 -9.189,-1.987 -12.317,-5.186"/><path inkscape:connector-curvature="0" id="path1634" style="fill:url(#linearGradient1632);stroke:none" d="m 272.452,523.201 c 0,-9.473 7.644,-17.162 17.101,-17.231 v 0 h 0.258 c 4.777,0.035 9.089,2.016 12.189,5.186 v 0 l -3.18,3.18 -0.751,-0.786 -3.18,3.18 c -0.75,-0.786 -2.862,-1.771 -5.206,-1.771 v 0 c -4.552,0 -8.242,3.69 -8.242,8.242 v 0 c 0,4.552 3.69,8.242 8.242,8.242 v 0 c 2.344,0 4.456,-0.984 5.206,-1.771 v 0 l 3.181,3.181 0.75,-0.787 3.18,3.18 c -3.128,3.199 -7.489,5.186 -12.317,5.186 v 0 c -9.517,0 -17.231,-7.715 -17.231,-17.231"/></g></g></svg>