<?xml version="1.0" encoding="utf-8"?>
<!-- Generator: Adobe Illustrator 15.0.0, SVG Export Plug-In . SVG Version: 6.00 Build 0)  -->
<!DOCTYPE svg PUBLIC "-//W3C//DTD SVG 1.1//EN" "http://www.w3.org/Graphics/SVG/1.1/DTD/svg11.dtd">
<svg version="1.1" id="Layer_1" xmlns="http://www.w3.org/2000/svg" xmlns:xlink="http://www.w3.org/1999/xlink" x="0px" y="0px"
	 width="1735.033px" height="1302.262px" viewBox="0 0 1735.033 1302.262" enable-background="new 0 0 1735.033 1302.262"
	 xml:space="preserve">
<g>
	<g>
		<path fill-rule="evenodd" clip-rule="evenodd" fill="#E57925" d="M819.69,169.44h252.825v277.88H861.359v134.427l-37.663-37.814
			l-4.006,4.234V297.931H604.657v388.262l-92.076-92.237l-0.361,0.12V252.104H819.69 M862.145,337.949h44.892v86.013h-44.892
			V337.949z"/>
		<path fill-rule="evenodd" clip-rule="evenodd" fill="#E57925" d="M712.394,337.949h45.021v86.013h-45.021 M636.598,337.949h45.021
			v86.013h-45.021V337.949z M788.105,689.336h34.062v66.469h-34.062V689.336z M845.442,689.336h34.379v66.469h-34.379V689.336z"/>
		<polyline fill-rule="evenodd" clip-rule="evenodd" fill="#D92827" points="1260.055,794.173 1142.967,677.128 1023.255,796.882 
			842.709,616.253 662.265,796.882 531.467,666.147 405.837,792.307 314.292,792.307 512.539,593.956 643.128,724.561 
			823.609,543.932 1004.282,724.561 1123.915,604.889 1312.241,793.199 		"/>
		<polyline fill-rule="evenodd" clip-rule="evenodd" fill="#079247" points="437.441,839.19 439.922,844.782 442.338,850.296 
			444.521,855.938 446.725,861.659 449.035,867.255 451.071,872.722 453.296,878.611 455.457,884.253 457.832,889.974 
			459.847,895.441 462.049,901.166 464.189,906.676 466.353,912.446 468.726,918.252 470.995,923.592 473.39,929.23 
			474.556,932.282 476.038,934.744 477.205,937.621 478.37,940.083 479.854,942.838 481.105,945.547 482.505,948.174 
			483.923,951.061 485.979,954.323 488.185,957.674 489.181,959.329 490.579,961.192 491.576,962.977 493.187,964.418 
			494.479,966.024 495.773,967.506 497.298,969.04 498.782,970.179 500.394,971.281 501.94,972.384 503.893,973.276 505.629,973.99 
			508.405,974.379 511.203,974.379 514.063,974.507 516.715,974.507 519.448,974.507 522.14,974.379 525.002,974.379 
			527.523,974.247 531.022,973.908 534.243,973.908 537.507,973.487 540.792,973.148 543.974,972.888 547.363,972.384 
			550.521,972.045 553.679,971.492 556.731,971.153 559.553,970.518 562.456,970.014 565.634,969.369 568.369,968.783 
			571.358,968.02 574.007,967.256 577.081,966.706 580.6,965.521 584.117,964.418 587.636,963.27 591.367,962.039 594.547,960.807 
			598.106,959.54 601.394,958.181 604.953,956.831 609.805,954.708 614.555,952.713 619.45,950.379 624.326,948.174 
			633.524,943.434 642.935,938.473 652.37,933.338 661.566,928.47 670.979,923.463 680.454,918.631 684.354,916.765 
			688.256,914.642 692.431,912.657 696.371,910.793 700.377,909.01 704.319,907.064 708.453,905.28 712.651,903.417 
			730.456,896.333 736.579,894.385 742.514,892.225 748.813,890.353 754.683,888.368 760.488,886.373 766.571,884.592 
			772.821,882.387 778.633,880.263 797.007,871.62 803.242,868.394 809.241,865.424 815.363,862.038 821.491,858.775 
			827.51,855.549 833.468,852.159 839.677,849.065 845.653,845.931 849.746,844.068 853.517,842.202 857.289,840.335 
			861.383,838.683 865.153,836.945 869.054,835.2 873.146,833.594 877.128,831.988 888.155,828.597 899.32,825.536 910.914,823.377 
			918.38,822.992 925.839,822.356 933.219,822.017 940.635,821.807 948.202,821.807 955.661,821.807 963.12,821.807 
			970.457,821.935 973.765,822.274 976.919,822.356 979.927,822.745 983.235,823.12 986.185,823.377 989.259,823.884 
			992.436,824.223 995.382,824.736 1003.584,826.603 1011.576,828.973 1018.91,831.988 1026.244,835.964 1032.92,840.925 
			1038.878,847.034 1043.729,853.897 1048.242,862.765 1051.722,872.004 1053.822,881.119 1055.069,890.353 1055.323,899.427 
			1053.943,917.489 1053.374,920.623 1052.887,924.095 1052.377,927.239 1051.722,930.547 1051.024,933.852 1050.343,937.196 
			1049.688,940.34 1049.029,943.813 1048.114,946.824 1047.334,950.379 1046.419,953.44 1045.721,956.831 1044.918,960.304 
			1044.131,963.655 1043.305,966.788 1042.521,970.179 1045.129,969.04 1047.65,967.763 1050.171,966.403 1052.505,965.182 
			1055.112,963.905 1057.552,962.674 1060.096,961.192 1062.36,959.915 1067.134,957.17 1072.005,954.708 1076.692,951.953 
			1081.419,949.537 1086.462,946.824 1091.313,944.573 1096.209,942.453 1101.301,940.34 1109.375,936.857 1117.575,933.338 
			1125.778,929.819 1133.813,926.347 1141.93,922.993 1149.922,919.474 1158.293,915.919 1166.285,912.271 1174.277,908.707 
			1182.352,905.069 1190.278,901.422 1198.31,897.857 1206.556,894.385 1214.462,890.655 1222.708,887.008 1230.953,883.535 
			1237.293,880.862 1243.82,878.058 1250.453,875.221 1257.004,872.676 1263.297,870.013 1270.121,867.505 1276.589,865.003 
			1283.136,862.422 1289.92,860.171 1296.642,857.801 1303.509,855.549 1310.102,853.39 1316.987,851.139 1323.854,849.147 
			1330.638,847.034 1337.399,845.167 1341.787,844.193 1346.05,843.048 1350.2,842.202 1354.589,841.181 1358.977,840.21 
			1363.005,839.19 1367.351,838.344 1371.695,837.452 1376.083,836.688 1380.471,835.964 1384.983,835.2 1389.349,834.693 
			1393.927,833.979 1398.299,833.337 1402.96,832.748 1407.242,831.988 1412.031,831.728 1416.884,831.224 1421.485,830.882 
			1426.126,830.579 1431.044,830.24 1435.771,829.993 1440.116,829.861 1445.139,829.604 1459.764,829.358 1470.936,831.988 
			1479.563,840.585 1483.25,850.039 1484.688,859.032 1484.688,862.294 1484.859,865.767 1484.688,869.25 1484.688,872.676 
			1484.688,876.287 1484.688,879.631 1484.688,882.854 1484.859,886.373 1484.988,888.871 1485.116,891.455 1485.116,893.963 
			1484.988,896.59 1484.859,899.042 1484.688,901.422 1484.606,903.92 1484.267,906.676 1483.78,909.517 1483.25,912.657 
			1482.911,915.919 1482.486,918.759 1489.122,913.035 1497.661,907.907 1514.515,900.191 1517.862,898.832 1521.4,897.564 
			1524.748,896.333 1528.267,895.066 1531.832,894.21 1535.222,893.071 1538.698,891.969 1542.26,890.82 1545.903,889.974 
			1549.719,889.085 1553.537,888.239 1557.01,887.219 1560.867,886.373 1564.429,885.612 1568.205,884.849 1572.211,884.253 
			1579.541,882.726 1586.836,881.669 1594.255,880.606 1601.757,879.631 1609.067,878.739 1616.487,877.939 1624.035,877.13 
			1631.576,876.369 1640.479,875.898 1649.47,875.221 1658.624,874.753 1667.567,874.421 1676.768,874.421 1685.711,874.421 
			1694.914,874.635 1703.857,874.97 1711.234,875.898 1716.847,877.386 1735.033,891.712 1716.659,905.409 1713.545,906.044 
			1710.896,906.676 1708.074,907.064 1705.339,907.778 1702.561,908.035 1699.657,908.285 1696.82,908.707 1693.917,909.138 
			1689.572,909.773 1685.161,910.665 1680.816,911.508 1676.257,912.446 1671.912,913.375 1667.356,914.395 1663.18,915.241 
			1658.752,916.636 1653.07,918.252 1647.222,919.991 1641.478,921.982 1636.092,923.848 1630.411,925.84 1624.943,928.341 
			1619.473,930.758 1614.005,932.999 1609.449,935.333 1604.933,937.621 1600.335,939.955 1595.95,942.453 1587.046,947.414 
			1578.333,952.338 1569.812,957.591 1561.167,962.977 1552.454,968.313 1544.123,973.615 1539.86,975.985 1536.22,978.365 
			1532.361,980.607 1528.267,983.105 1524.327,985.485 1520.36,987.479 1516.12,989.59 1512.329,991.713 1509.616,993.072 
			1506.967,994.432 1504.274,995.617 1501.624,996.802 1498.932,997.94 1496.328,999.089 1493.55,1000.064 1490.686,1001.167 
			1475.663,1005.577 1467.986,1006.809 1459.955,1007.184 1452.005,1006.552 1443.971,1004.942 1436.324,1002.012 1428.815,997.483 
			1422.226,991.713 1415.273,983.233 1413.068,979.715 1411.054,976.37 1409.382,973.016 1407.812,969.497 1406.518,965.896 
			1405.076,962.295 1403.957,958.565 1402.96,955.047 1402.173,951.564 1401.518,948.306 1400.941,945.208 1400.35,942.074 
			1399.951,938.852 1399.569,935.59 1399.27,932.282 1398.954,928.974 1389.056,929.23 1379.392,929.573 1369.743,930.25 
			1359.803,930.886 1350.2,931.472 1340.474,932.364 1330.81,933.595 1321.333,934.744 1315.776,935.59 1310.522,936.35 
			1305.138,937.325 1299.95,938.345 1294.607,939.484 1289.433,940.586 1284.18,941.442 1279.005,942.838 1271.589,944.573 
			1264.041,946.614 1256.75,948.819 1249.584,951.061 1242.036,953.184 1234.749,955.304 1227.629,957.934 1220.334,960.432 
			1211.348,963.655 1202.572,966.788 1193.454,970.179 1184.722,973.615 1176.016,977.134 1167.282,980.607 1158.293,984.336 
			1149.751,987.819 1131.607,997.565 1123.915,1002.269 1116.538,1006.809 1109.118,1011.43 1101.723,1016.005 1094.218,1020.801 
			1086.801,1025.163 1079.339,1029.867 1071.771,1034.103 1050.171,1044.962 1038.878,1049.327 1027.366,1053.056 
			1015.642,1055.683 1003.456,1056.786 990.994,1056.657 983.788,1055.683 976.751,1053.56 970.329,1050.301 964.328,1046.229 
			959.562,1040.894 955.661,1034.488 953.584,1027.747 952.353,1020.801 952.014,1011.042 952.353,1001.68 954.706,983.701 
			955.872,977.848 957.231,972.045 958.393,966.285 959.963,960.047 961.003,954.323 962.122,948.306 963.12,942.453 
			964.117,936.35 964.65,923.295 964.117,917.15 962.909,911.508 961.003,905.916 958.903,901.797 956.615,900.955 954.266,900.319 
			952.014,899.935 949.617,899.427 946.971,899.171 944.641,899.042 942.33,899.042 939.953,898.832 934.739,898.832 
			929.95,899.042 924.97,899.171 920.117,899.806 917.675,900.191 915.071,900.448 912.632,900.955 910.216,901.422 
			908.034,901.926 905.528,902.689 903.35,903.545 900.996,904.428 891.796,910.277 877.128,918.631 874.479,919.73 
			871.745,920.751 869.224,921.982 866.725,922.993 863.986,924.095 861.383,925.116 858.648,926.09 855.869,927.11 
			848.874,929.102 842.006,930.886 835.161,932.621 828.166,934.23 821.005,935.59 814.179,936.985 806.889,938.473 800.08,939.955 
			783.976,944.198 779.033,945.547 774.117,947.203 769.221,948.938 764.348,950.471 759.322,952.338 754.683,954.073 
			749.762,955.939 744.912,957.934 741.688,959.329 738.169,960.807 734.843,962.295 731.618,963.905 728.333,965.521 
			724.944,966.917 721.724,968.655 718.394,970.179 628.607,1019.992 624.326,1022.022 619.938,1024.274 615.679,1026.137 
			611.459,1028.003 607.138,1030.124 602.792,1031.99 598.615,1033.856 594.015,1035.755 590.667,1037.161 587.063,1038.346 
			583.694,1039.366 580.09,1040.719 576.656,1041.608 573.223,1042.71 569.704,1043.731 566.016,1044.962 546.176,1049.327 
			524.875,1052.292 502.133,1053.349 490.008,1053.185 479.854,1052.292 470.209,1050.169 461.308,1047.204 453.296,1043.096 
			445.942,1038.089 439.307,1032.236 433.923,1026.009 428.878,1019.182 424.725,1011.934 417.476,996.802 415.481,991.081 
			413.426,985.1 411.561,979.165 409.526,973.276 407.831,967.173 406.327,961.321 404.504,955.175 402.936,949.194 
			402.192,946.311 401.324,943.434 400.539,940.715 399.627,937.832 398.801,935.119 397.977,932.282 396.935,929.444 
			396.236,926.768 394.944,923.295 393.777,919.991 392.548,917.15 391.13,913.759 389.73,910.793 388.268,907.778 386.572,904.428 
			384.875,901.587 378.007,891.969 373.77,887.982 369.594,884.72 364.783,881.879 359.483,879.375 353.314,877.508 
			346.597,876.287 341.254,876.063 336.823,876.745 332.352,878.4 329.258,879.924 326.226,881.495 323.004,883.104 320.017,884.72 
			317.113,886.373 313.975,888.239 310.942,889.845 307.765,891.455 302.613,893.446 297.695,895.066 292.462,896.801 
			287.63,898.585 282.244,900.191 277.222,901.797 272.091,903.325 266.982,904.813 257.848,907.275 248.862,910.03 
			240.065,912.657 230.993,915.498 222.26,918.252 213.146,921.129 204.456,924.095 195.553,927.239 177.898,934.23 172.47,936.857 
			166.75,939.484 161.047,942.074 155.578,944.833 149.981,947.798 144.598,950.471 139.086,953.44 133.535,956.703 
			127.663,960.689 121.558,964.665 115.602,968.783 109.667,972.769 103.796,976.877 97.756,981.156 91.905,985.485 85.951,989.471 
			71.811,998.796 68.717,1000.663 65.56,1002.269 62.654,1003.921 59.602,1005.577 56.572,1007.184 53.519,1008.8 50.404,1010.281 
			47.013,1011.934 27.344,1019.909 15.451,1022.233 0,1013.036 2.266,997.062 6.572,988.711 12.421,981.028 27.787,963.526 
			31.52,959.54 35.375,955.682 39.465,951.953 43.154,948.174 47.013,944.316 51.019,940.586 54.749,936.857 58.819,933.22 
			82.05,913.502 104.793,896.205 115.688,888.871 122.64,884.849 129.636,881.238 136.438,877.386 143.687,873.871 150.851,870.26 
			157.972,866.531 165.181,863.008 172.028,859.539 177.898,856.656 183.938,853.897 189.747,851.139 195.787,848.558 
			201.552,846.06 207.592,843.598 213.654,841.053 219.823,838.683 225.863,836.396 232.158,834.101 238.241,831.856 
			244.537,829.861 250.6,827.87 257.063,825.536 263.188,823.505 269.484,821.382 278.958,817.149 283.433,814.265 287.799,811.425 
			292.144,808.156 296.616,805.187 300.877,802.099 305.263,798.919 309.65,795.569 313.721,792.554 314.165,792.178 
			314.802,791.836 314.292,792.307 405.837,792.307 407.787,790.184 409.782,792.307 415.121,798.919 424.85,813.923 
			426.504,817.021 428.198,820.197 429.768,823.377 431.23,826.346 432.926,829.604 434.453,832.748 435.916,835.964 		"/>
		<polyline fill-rule="evenodd" clip-rule="evenodd" fill="#079247" points="347.529,607.01 348.079,576.105 348.523,570.593 
			348.652,565.255 349.266,559.908 349.479,554.396 349.86,549.013 350.262,543.675 350.708,538.42 351.09,532.824 351.641,528.078 
			352.171,522.99 352.742,518.242 353.335,513.408 353.907,508.449 354.651,503.658 355.117,498.783 355.773,494.037 
			356.643,489.67 357.344,485.22 358.168,480.809 359.037,476.443 359.674,472.248 360.668,467.963 361.325,463.597 362.067,459.4 
			363.319,454.272 364.548,449.397 365.545,444.564 366.542,439.562 367.92,434.857 369.36,429.856 370.482,424.853 
			371.798,420.103 373.45,414.508 375.04,408.998 376.822,403.359 378.645,398.062 380.742,392.423 382.523,386.913 
			384.388,381.443 386.381,376.101 388.246,371.99 389.771,367.624 391.637,363.639 393.501,359.526 395.325,355.67 
			397.189,351.387 399.14,347.529 401.301,343.67 410.734,326.333 412.153,328.792 413.595,331.293 414.93,333.668 416.329,336.084 
			417.687,338.542 419.021,341.298 420.399,343.67 421.671,346.045 424.364,351.387 427.014,356.897 429.216,362.408 
			431.612,368.005 433.732,373.344 435.916,378.942 437.78,384.452 439.9,390.176 441.682,395.135 443.164,400.392 445.03,405.479 
			446.492,410.779 447.891,415.991 449.271,420.995 450.921,426.337 452.404,431.339 453.571,436.594 454.97,441.81 
			455.967,447.193 457.131,452.323 458.339,457.621 459.441,462.623 460.524,467.963 461.691,473.22 462.348,477.715 
			463.257,482.419 463.999,486.955 464.659,491.451 465.421,496.028 466.033,500.52 466.691,505.057 467.371,509.636 
			470.423,536.168 470.931,541.811 471.165,547.276 471.502,552.495 472.118,558.007 472.414,563.262 472.669,568.856 
			473.115,574.24 473.367,579.752 473.581,586.238 473.581,592.937 473.622,599.423 473.898,606.156 473.898,612.771 
			473.898,619.349 473.898,626.084 473.898,632.616 356.557,750.164 355.646,747.583 353.124,737.579 352.127,732.23 
			351.47,727.023 350.835,721.467 350.262,715.871 349.86,710.66 349.479,705.146 349.266,699.636 348.927,694.169 348.566,688.695 
			348.523,683.31 348.312,677.845 348.079,672.506 348.079,667.253 347.91,661.525 347.91,656.18 347.781,650.549 347.781,645.284 
			347.781,639.69 347.781,634.223 347.781,628.839 347.781,623.327 347.781,618.118 347.529,612.394 		"/>
		<path fill-rule="evenodd" clip-rule="evenodd" fill="#F5EB27" d="M514.426,245.152l0.53-11.615l1.418-11.7l1.527-11.447
			l2.394-11.233l2.651-11.275l3.603-11.063l3.476-10.556l4.536-10.682l4.877-10.346l4.979-9.96l5.788-9.878l5.85-9.581l6.381-9.241
			l6.909-9.074l7.207-8.392l7.545-8.562l8.076-7.885l8.245-7.717l8.69-7.375l8.773-6.952l9.286-6.361l9.559-6.356l9.622-5.639
			l10.028-5.214l10.233-5.087l10.768-4.411l10.771-3.984l10.893-3.348l11.254-3.18l11.236-2.458l11.552-1.868l11.595-1.355
			l11.149-1.017L767.251,0h10.978l11.066,0.596l10.896,0.973l10.893,1.399l10.385,1.995l10.644,2.5l10.235,2.755l10.11,2.967
			l10.069,3.731l9.73,4.027l9.578,4.365l9.435,5.003l9.196,4.832l8.776,5.469l8.9,5.894l8.288,6.187l8.203,6.486l7.821,6.996
			l7.587,6.952l7.166,7.419l7.12,7.714l6.85,8.14l6.251,8.307l6.083,8.351l5.553,8.988l5.471,8.988l4.958,9.325l4.556,9.497
			l4.328,9.706l3.878,9.878h-24.757l-2.334-5.508l-2.393-5.469l-2.479-5.342l-2.864-5.383l-2.903-5.129l-2.692-5.469l-3.348-4.877
			l-3.16-5.087l-3.391-5.128l-3.558-4.747l-3.69-4.834l-3.519-4.495l-3.9-4.62l-4.135-4.62l-4.029-4.325l-4.384-4.409l-4.178-4.111
			l-4.599-4.111l-4.473-3.985l-4.728-3.984l-5.108-3.901l-4.789-3.478l-5.023-3.601l-5.171-3.306l-5.382-3.309l-5.425-3.264
			l-5.432-2.967l-5.635-2.757l-5.701-2.837l-5.853-2.501l-6.041-2.502l-5.935-2.375l-5.954-2.12l-5.981-1.865l-5.869-1.609
			l-6.001-1.865l-6.099-1.147l-6.21-1.354l-5.876-0.976l-6.504-1.144l-5.958-0.762l-6.229-0.341l-5.876-0.551l-6.333-0.339
			l-6.088-0.127l-6.205,0.127l-6.234,0.128l-5.87,0.507l-6.339,0.382l-6.081,0.849l-6.147,0.762l-6.127,1.103l-6.04,1.017
			l-6.042,1.356l-5.848,1.568l-6.087,1.654l-5.892,1.653l-5.783,2.121l-5.936,1.99l-5.724,2.247l-5.871,2.46l-5.512,2.626
			l-5.788,2.757l-5.319,2.841l-6.61,3.646l-6.211,3.984l-6.147,4.111l-6.254,4.111l-5.871,4.45l-5.935,4.666l-5.66,4.959
			l-5.553,5.13L605.76,91.1l-5.153,5.428l-5.128,5.723l-4.769,5.721l-4.834,5.81l-4.557,6.146l-4.238,6.104l-4.219,6.231
			l-4.006,6.361l-3.773,6.484l-3.561,6.572l-3.327,6.782l-3.013,6.993l-2.902,6.741l-2.648,7.249l-2.48,6.995l-1.993,7.207
			l-2.118,7.249l-1.738,7.248l-1.167,7.334l-1.229,7.378l-0.783,7.332l-0.55,7.505l-0.255,7.459v1.74v1.61v1.738v1.865h-23.273
			l0.211-1.228v-1.357l0.044-1.865 M602.771,252.104l0.507-8.817l0.893-8.606l1.122-8.478l1.865-8.225l2.162-8.223l2.521-8.14
			l2.691-7.714l3.349-7.589l3.733-7.63l3.687-7.122l4.345-7.25l4.558-6.742l5.065-6.442l5.045-6.57l5.425-6.19l5.723-5.725
			l5.87-5.721l6.469-5.132l6.55-5.087l6.633-4.79l7.166-4.324l7.204-3.984l7.248-3.731l7.694-3.348l7.676-3.012l7.735-2.501
			l8.205-2.372l8.456-1.995l8.434-1.397l8.415-0.975l8.732-0.762l8.885-0.13l5.87,0.13l5.953,0.125l5.894,0.637l5.682,0.721
			l6.001,0.762l5.507,1.019l5.829,1.483l5.278,1.229l5.7,1.524l5.429,1.995l5.338,1.738l5.155,2.247l5.085,2.247l5.256,2.375
			l4.854,2.753l4.855,2.714l4.873,2.883l4.517,3.009l4.688,3.348l4.384,3.222l4.556,3.519l4.072,3.604l4.006,3.729l4.197,3.984
			l3.877,3.731l3.69,4.113l3.558,4.367l3.328,4.536l3.477,4.281l3.391,4.536l3.077,4.749l2.774,4.746H819.69v82.664H602.771z"/>
		<polyline fill-rule="evenodd" clip-rule="evenodd" fill="#079247" points="955.638,260.626 976.264,240.15 990.718,252.996 
			994.236,256.345 997.268,259.609 1000.747,263.253 1003.772,266.476 1011.853,275.929 1020.458,286.571 998.18,305.393 
			1004.477,314.125 1030.526,302.043 1038.067,321.247 1038.812,323.323 1039.763,325.951 1040.257,328.071 1041.294,330.446 
			1041.758,332.776 1042.502,335.194 1043.282,337.439 1043.943,339.814 1046.972,352.151 1049.493,365.249 1023.278,372.243 
			1023.446,429.219 1065.497,429.09 1116.219,220.354 1141.209,499.292 1175.992,429.856 1333.564,429.856 1333.564,446.558 
			1186.4,446.558 1129.826,560.505 1108.526,323.959 1078.832,446.176 1006.465,446.429 1006.254,359.144 1029.611,352.999 
			1028.831,349.394 1028.005,346.045 1027.09,342.401 1026.011,338.923 1024.974,335.319 1023.871,331.8 1022.62,328.326 
			1021.665,324.893 999.045,335.574 975.036,302.509 996.741,284.196 994.407,281.609 992.015,278.686 989.724,276.056 
			986.987,273.472 984.677,270.715 982.07,268.34 979.677,265.968 976.919,263.636 957.59,282.84 927.639,261.261 936.629,237.989 
			933.021,236.294 929.374,234.681 925.417,232.945 921.728,231.672 917.951,230.188 914.097,228.832 910.196,227.347 
			906.147,226.077 897.941,251.638 819.69,251.638 819.69,234.681 885.522,234.681 895.209,205.39 908.544,209.077 910.914,209.756 
			913.396,210.774 915.581,211.24 918.123,212.13 920.602,213.106 922.869,213.995 925.16,214.885 927.639,215.732 929.95,216.625 
			932.283,217.597 934.634,218.489 937.011,219.378 939.275,220.481 941.48,221.457 943.791,222.474 946.036,223.577 
			957.929,229.553 948.176,254.861 		"/>
	</g>
	<path fill-rule="evenodd" clip-rule="evenodd" fill="#079247" d="M1558.218,1248.812l-0.148,1.268l-0.372,1.336l-0.444,1.191
		l-0.675,1.192l-0.592,1.043l-0.82,1.04l-0.743,0.816l-0.82,0.675l-1.563,1.191l-1.636,1.044l-0.819,0.368l-0.816,0.448
		l-0.896,0.224l-0.968,0.296l-21.284-87.317l-0.075-0.369l-0.148-0.447l-0.224-0.372l-0.297-0.448l-0.296-0.375l-0.521-0.368
		l-0.522-0.372l-0.597-0.3l-0.74-0.296l-0.898-0.228l-1.112-0.296l-1.195-0.148l-1.409-0.148l-1.563-0.151l-1.715-0.072h-1.932
		h-2.012l-1.712,0.224l-1.636,0.148l-1.563,0.296l-1.34,0.228l-1.188,0.372l-1.044,0.444l-0.968,0.447l-0.668,0.596l-0.747,0.523
		l-0.444,0.521l-0.448,0.668l-0.296,0.521l-0.076,0.671l-0.075,0.596l0.075,0.669l28.654,91.933l-27.762,10.125l-0.372,0.076
		l-0.372,0.296l-0.444,0.224l-0.448,0.444l-0.52,0.596l-0.447,0.523l-0.448,0.744l-0.368,0.816l-0.451,0.971l-0.372,1.041
		l-0.296,1.119l-0.148,1.339l-0.151,1.34v1.412l0.151,1.64l0.224,1.712l0.444,2.231l0.447,1.863l0.597,1.563l0.596,1.191
		l0.668,0.965l0.744,0.743l0.596,0.523l0.744,0.372l0.596,0.224l0.671,0.076h0.668l0.593-0.076l0.972-0.371l0.743-0.297
		l54.698-19.95l2.234-0.896l2.156-1.044l2.384-1.336l2.455-1.563l1.265-0.968l1.267-1.192l1.112-1.188l0.972-1.268l1.04-1.34
		l0.819-1.415l0.82-1.34l0.668-1.415l0.675-1.488l0.52-1.34l0.445-1.34l0.443-1.343l0.672-2.308l0.447-2.005l15.179-81.291v-0.224
		l0.079-0.823l-0.079-0.444l-0.221-0.596l-0.221-0.52l-0.447-0.523l-0.672-0.668l-0.819-0.521l-1.191-0.596l-1.34-0.444
		l-1.709-0.375l-2.011-0.225l-2.459-0.224l-2.824-0.072l-2.456,0.072l-2.083,0.224l-1.788,0.225l-1.636,0.375l-1.267,0.444
		l-1.188,0.596l-0.896,0.521l-0.744,0.668l-0.668,0.523l-0.372,0.52l-0.303,0.596l-0.221,0.444l-0.3,0.823v0.224L1558.218,1248.812z
		 M1456.334,1251.715l0.521-0.372l0.895-0.892l1.188-1.563l1.491-2.087l1.859-2.456l2.009-2.979l1.932-3.272l2.235-3.65l2.084-3.795
		l2.011-4.092l0.892-2.087l0.896-2.084l0.816-2.234l0.816-2.084l0.747-2.159l0.596-2.159l0.596-2.156l0.445-2.235l0.371-2.084
		l0.228-2.155l0.221-2.087v-2.008l-0.221-2.456l-0.075-2.162l-0.304-2.156l-0.22-1.936l-0.372-1.936l-0.448-1.643l-0.441-1.633
		l-0.602-1.419l-0.521-1.336l-0.665-1.268l-0.671-1.188l-0.747-1.043l-0.816-0.968l-0.816-0.82l-0.82-0.819l-0.968-0.668
		l-0.968-0.599l-0.971-0.521l-1.112-0.521l-1.044-0.444l-1.115-0.372l-1.192-0.224l-1.188-0.3l-1.192-0.151l-2.531-0.296
		l-2.604-0.148l-2.827-0.147h-2.828h-28.578h-0.372l-0.822,0.224l-0.441,0.148l-0.523,0.299l-0.596,0.444l-0.523,0.448l-0.593,0.744
		l-0.596,0.816l-0.444,1.046l-0.451,1.188l-0.368,1.563l-0.375,1.64l-0.146,2.008v2.235v2.307l0.146,2.009l0.375,1.715l0.368,1.412
		l0.451,1.264l0.444,1.044l0.596,0.819l0.593,0.744l0.523,0.523l0.596,0.371l0.523,0.225l0.441,0.224l0.822,0.145h0.372h23.368
		l0.743,0.151l1.116,0.148l1.116,0.372l1.191,0.451l1.116,0.52l1.191,0.816l0.444,0.444l0.523,0.447l0.444,0.6l0.375,0.521
		l0.224,0.743l0.296,0.893l0.073,0.892l-0.073,0.893l-0.075,1.043l-0.221,1.04l-0.151,1.123l-0.372,1.04l-0.816,2.156l-0.896,2.011
		l-0.967,1.787l-0.896,1.561l-12.13,17.867l-0.221,0.296l-0.224,0.823l-0.151,0.444l-0.072,0.596v0.744l0.072,0.819l0.299,0.82
		l0.372,0.968l0.523,1.043l0.744,1.112l1.04,1.119l1.116,1.188l1.56,1.268l1.863,1.419l1.863,1.112l1.636,1.04l1.488,0.747
		l1.268,0.448l1.04,0.368l0.968,0.151h0.819l0.593-0.075l0.52-0.221l0.451-0.151l0.296-0.297l0.297-0.224l0.224-0.596V1251.715z
		 M1397.39,1279.925v-65.656v-4.016v-3.723l-0.147-3.571l-0.148-3.503l-0.224-1.712l-0.224-1.636l-0.297-1.636l-0.444-1.64
		l-0.444-1.487l-0.675-1.563l-0.592-1.567l-0.82-1.56l-0.672-0.972l-0.592-0.964l-0.744-0.968l-0.747-0.893l-0.672-0.819
		l-0.743-0.747l-0.741-0.668l-0.819-0.744l-0.82-0.672l-0.889-0.52l-0.822-0.521l-0.893-0.596l-1.859-0.819l-1.863-0.669
		l-2.084-0.671l-2.008-0.448l-2.234-0.444l-2.153-0.299l-2.234-0.148l-2.38-0.076l-2.384-0.147h-2.455h-40.561h-0.375l-0.816,0.224
		l-0.447,0.148l-0.521,0.299l-0.596,0.444l-0.52,0.448l-0.521,0.744l-0.596,0.816l-0.523,1.046l-0.444,1.188l-0.375,1.563
		l-0.221,1.64l-0.3,2.008v2.235v2.307l0.3,2.009l0.221,1.715l0.375,1.412l0.444,1.264l0.523,1.044l0.596,0.819l0.521,0.744
		l0.52,0.523l0.596,0.371l0.521,0.225l0.447,0.224l0.816,0.145h0.375h30.962l2.604,0.151l2.604,0.072l1.264,0.076l1.268,0.075
		l1.188,0.221l1.119,0.224l1.185,0.304l1.119,0.368l0.969,0.372l0.967,0.521l0.896,0.52l0.816,0.747l0.593,0.82l0.675,0.815
		l0.368,0.82l0.372,0.744l0.225,0.815l0.224,0.899l0.221,1.936l0.227,1.932v2.235l-0.072,2.156l-0.154,2.383v2.308v58.954v0.378
		l0.227,0.741l0.151,0.523l0.369,0.52l0.372,0.596l0.52,0.521l0.668,0.52l0.896,0.596l0.968,0.523l1.265,0.444l1.487,0.376
		l1.715,0.221l2.008,0.224l2.16,0.075l2.307-0.075l2.012-0.224l1.705-0.221l1.419-0.376l1.267-0.444l1.041-0.523l0.889-0.596
		l0.674-0.52l0.521-0.521l0.369-0.596l0.224-0.52l0.296-0.523l0.076-0.741L1397.39,1279.925z M1275.786,1251.715l0.375-0.372
		l0.892-0.892l1.265-1.563l1.563-2.087l1.715-2.456l2.005-2.979l2.008-3.272l2.162-3.65l2.084-3.795l2.011-4.092l0.89-2.087
		l0.895-2.084l0.965-2.234l0.672-2.084l0.747-2.159l0.665-2.159l0.52-2.156l0.521-2.235l0.299-2.084l0.304-2.155l0.145-2.087v-2.008
		l-0.072-2.456l-0.228-2.162l-0.224-2.156l-0.297-1.936l-0.368-1.936l-0.447-1.643l-0.448-1.633l-0.52-1.419l-0.596-1.336
		l-0.596-1.268l-0.741-1.188l-0.747-1.043l-0.819-0.968l-0.816-0.82l-0.823-0.819l-0.889-0.668l-0.968-0.599l-1.044-0.521
		l-1.04-0.521l-1.119-0.444l-1.115-0.372l-1.116-0.224l-1.191-0.3l-1.188-0.151l-2.531-0.296l-2.68-0.148l-2.679-0.147h-2.9h-28.654
		h-0.296l-0.823,0.224l-0.52,0.148l-0.521,0.299l-0.521,0.444l-0.522,0.448l-0.669,0.744l-0.52,0.816l-0.444,1.046l-0.521,1.188
		l-0.3,1.563l-0.299,1.64l-0.297,2.008v2.235v2.307l0.297,2.009l0.299,1.715l0.3,1.412l0.521,1.264l0.444,1.044l0.52,0.819
		l0.669,0.744l0.522,0.523l0.521,0.371l0.521,0.225l0.52,0.224l0.823,0.145h0.296h23.364l0.899,0.151l1.04,0.148l1.043,0.372
		l1.188,0.451l1.268,0.52l1.115,0.816l0.444,0.444l0.448,0.447l0.447,0.6l0.369,0.521l0.299,0.743l0.221,0.893l0.151,0.892v0.893
		l-0.224,1.043l-0.148,1.04l-0.224,1.123l-0.372,1.04l-0.668,2.156l-0.968,2.011l-0.968,1.787l-0.892,1.561l-12.209,17.867
		l-0.146,0.296l-0.299,0.823l-0.076,0.444l-0.072,0.596v0.744l0.072,0.819l0.297,0.82l0.299,0.968l0.6,1.043l0.744,1.112
		l0.964,1.119l1.268,1.188l1.484,1.268l1.787,1.419l1.936,1.112l1.64,1.04l1.412,0.747l1.268,0.448l1.115,0.368l0.893,0.151h0.816
		l0.671-0.075l0.523-0.221l0.448-0.151l0.296-0.297l0.224-0.224l0.297-0.596L1275.786,1251.715z M1198.165,1251.715l0.372-0.372
		l0.896-0.892l1.267-1.563l1.561-2.087l1.708-2.456l2.012-2.979l2.011-3.272l2.156-3.65l2.084-3.795l2.008-4.092l0.898-2.087
		l0.889-2.084l0.968-2.234l0.672-2.084l0.744-2.159l0.668-2.159l0.52-2.156l0.523-2.235l0.372-2.084l0.224-2.155l0.148-2.087v-2.008
		l-0.072-2.456l-0.224-2.162l-0.224-2.156l-0.297-1.936l-0.372-1.936l-0.447-1.643l-0.448-1.633l-0.52-1.419l-0.596-1.336
		l-0.6-1.268l-0.744-1.188l-0.74-1.043l-0.668-0.968l-0.971-0.82l-0.816-0.819l-0.896-0.668l-0.965-0.599l-1.047-0.521l-1.036-0.521
		l-1.044-0.444l-1.191-0.372l-1.04-0.224l-1.268-0.3l-1.191-0.151l-2.528-0.296l-2.683-0.148l-2.676-0.147h-2.903h-28.654h-0.296
		l-0.816,0.224l-0.523,0.148l-0.521,0.299l-0.52,0.444l-0.521,0.448l-0.599,0.744l-0.521,0.816l-0.52,1.046l-0.521,1.188l-0.3,1.563
		l-0.296,1.64l-0.3,2.008v2.235v2.307l0.3,2.009l0.296,1.715l0.3,1.412l0.521,1.264l0.52,1.044l0.521,0.819l0.599,0.744l0.521,0.523
		l0.52,0.371l0.521,0.225l0.523,0.224l0.816,0.145h0.296h23.446l0.816,0.151l1.044,0.148l1.04,0.372l1.268,0.451l1.188,0.52
		l1.119,0.816l0.445,0.444l0.447,0.447l0.447,0.6l0.369,0.521l0.296,0.743l0.228,0.893l0.151,0.892v0.893l-0.151,1.043l-0.148,1.04
		l-0.3,1.123l-0.372,1.04l-0.671,2.156l-0.965,2.011l-0.968,1.787l-0.895,1.561l-12.203,17.867l-0.147,0.296l-0.303,0.823
		l-0.073,0.444l-0.072,0.596v0.744l0.146,0.819l0.227,0.82l0.296,0.968l0.597,1.043l0.74,1.112l0.971,1.119l1.265,1.188l1.491,1.268
		l1.787,1.419l1.929,1.112l1.643,1.04l1.412,0.747l1.264,0.448l1.119,0.368l0.893,0.151h0.816l0.675-0.075l0.52-0.221l0.444-0.151
		l0.297-0.297l0.224-0.224l0.296-0.596L1198.165,1251.715z M1041.511,1284.319h25.82h2.531l2.459-0.224l1.261-0.072l1.194-0.224
		l1.188-0.224l1.119-0.372l1.04-0.369l0.968-0.526l0.893-0.596l0.743-0.668l0.593-0.816l0.526-0.972l0.221-0.52l0.151-0.521
		l0.225-0.671l0.072-0.593l0.072-1.563l0.075-1.563l-0.075-1.491l-0.072-1.561l-0.372-2.834l-0.444-2.604l-0.523-2.38l-0.596-1.939
		l-0.3-1.408l-0.296-0.898l-0.369-1.485l-0.898-2.758l-1.264-3.72l-1.412-4.543l-0.672-2.527l-0.668-2.607l-0.596-2.827
		l-0.523-2.831l-0.444-2.755l-0.225-2.828l-0.147-2.899v-2.755l0.224-2.084l0.372-2.012l0.444-2.083l0.596-2.159l0.672-2.087
		l0.816-2.009l0.819-2.011l0.896-1.784l0.889-1.863l0.968-1.491l0.896-1.484l0.819-1.191l0.819-0.968l0.668-0.819l0.3-0.297
		l0.296-0.151l0.225-0.072l0.296-0.151h18.085l0.892,0.151l0.747,0.148l0.819,0.148l0.741,0.371l0.672,0.376l0.671,0.447
		l0.521,0.593l0.668,0.596l1.04,1.264l0.968,1.488l0.296,0.675l0.3,0.816l0.3,0.971v0.889v71.238l0.075,0.448l0.072,0.747
		l0.297,0.444l0.224,0.596l0.375,0.523l0.593,0.593l0.593,0.596l0.898,0.52l1.04,0.521l1.268,0.451l1.408,0.371l1.788,0.297
		l1.936,0.148l2.311,0.147l2.156-0.147l2.011-0.148l1.709-0.297l1.487-0.371l1.268-0.451l0.968-0.521l0.889-0.52l0.675-0.596
		l0.52-0.593l0.372-0.523l0.372-0.596l0.224-0.444l0.146-0.747v-0.448v-71.238v-3.72l0.075-3.427l-0.075-1.787v-1.636l-0.073-1.636
		l-0.224-1.488l-0.224-1.566l-0.368-1.561l-0.448-1.566l-0.592-1.412l-0.6-1.563l-0.819-1.416l-1.044-1.491l-1.04-1.412
		l-1.112-1.191l-1.119-1.112l-1.04-0.968l-1.119-0.896l-1.188-0.819l-1.191-0.747l-1.116-0.665l-1.264-0.521l-1.34-0.523
		l-1.343-0.372l-1.409-0.372l-1.419-0.224l-1.488-0.224l-1.487-0.076l-1.64-0.147h-1.636h-60.504h-0.369l-0.822,0.224l-0.444,0.148
		l-0.596,0.299l-0.521,0.444l-0.672,0.448l-0.52,0.744l-0.521,0.816l-0.447,1.046l-0.448,1.188l-0.522,1.563l-0.221,1.64
		l-0.221,2.008l-0.079,2.235l0.079,2.307l0.221,2.009l0.221,1.715l0.522,1.412l0.448,1.264l0.447,1.044l0.521,0.819l0.52,0.744
		l0.672,0.523l0.521,0.371l0.596,0.225l0.444,0.224l0.822,0.145h0.369h9.378l0.372,0.151l0.224,0.072l0.072,0.151v0.297
		l-0.224,0.819l-0.444,0.968l-1.64,2.676l-2.231,3.354l-1.188,1.784l-1.194,2.011l-1.186,2.009l-1.043,2.087l-0.896,2.159
		l-0.747,2.083l-0.297,1.041l-0.296,0.971l-0.072,1.112l-0.076,0.972l-0.075,1.336v1.491l0.075,1.336l0.076,1.491l0.44,2.979
		l0.451,2.903l0.744,2.979l0.744,2.828l0.747,2.755l0.816,2.604l1.491,4.688l1.336,3.726l0.297,1.409l0.224,1.047l0.072,0.372
		l-0.072,0.296l-0.072,0.151l-0.151,0.146h-13.467h-0.378l-0.816,0.151l-0.444,0.147l-0.596,0.3l-0.523,0.372l-0.521,0.521
		l-0.668,0.743l-0.521,0.82l-0.444,0.968l-0.45,1.339l-0.372,1.416l-0.297,1.712l-0.3,2.008v2.311v2.231l0.3,2.012l0.297,1.636
		l0.372,1.563l0.45,1.116l0.444,1.115l0.521,0.82l0.668,0.747l0.521,0.444l0.523,0.447l0.596,0.297l0.444,0.147l0.816,0.224
		H1041.511z M948.778,1267.499l-23.292-29.852l2.083-2.235l1.784-2.156l1.784-2.159l1.64-2.084l1.563-2.083l1.34-2.235l1.34-2.159
		l1.115-2.231l1.044-2.308l0.892-2.384l0.816-2.307l0.747-2.531l0.518-2.68l0.522-2.68l0.372-2.831l0.3-3.127l0.148-2.156v-2.162
		v-2.084v-2.083l-0.148-3.72l-0.3-3.352l-0.372-2.755l-0.22-2.084l-0.303-1.339l-0.073-0.444v-0.303l-0.224-0.744l-0.145-0.441
		l-0.3-0.523l-0.372-0.599l-0.447-0.593l-0.593-0.521l-0.819-0.671l-1.044-0.523l-1.04-0.444l-1.487-0.372l-1.488-0.372
		l-1.936-0.224l-2.087-0.072l-2.156,0.072l-1.859,0.3l-1.64,0.368l-1.34,0.447l-1.115,0.523l-0.893,0.672l-0.747,0.74l-0.44,0.596
		l-0.451,0.748l-0.297,0.592l-0.147,0.672l-0.076,0.672v0.892v0.372l0.148,0.444l0.372,1.343l0.451,2.084l0.44,2.752l0.448,3.127
		l0.375,3.574l0.145,1.863v1.933l-0.145,1.936l-0.076,1.859l-0.147,1.787l-0.303,1.716l-0.297,1.487l-0.224,1.636l-0.369,1.491
		l-0.375,1.561l-0.444,1.419l-0.444,1.336l-1.119,2.759l-1.191,2.752l-1.264,2.531l-1.416,2.527l-37.729-47.564l-0.225-0.3
		l-0.371-0.296l-0.445-0.151l-0.671-0.148l-0.596-0.22l-0.747-0.076h-0.816l-0.893,0.076l-0.968,0.22l-0.968,0.225l-0.968,0.371
		l-1.042,0.451l-1.041,0.593l-1.191,0.672l-1.114,0.819l-1.193,0.892l-1.488,1.563l-1.414,1.412l-0.968,1.268l-0.894,1.116
		l-0.668,1.119l-0.446,0.964l-0.299,1.044l-0.148,0.744l-0.074,0.668v0.672l0.074,0.523l0.074,0.444l0.299,0.668l0.148,0.296
		l18.457,23.45l-2.16,2.68l-2.008,2.534l-1.936,2.531l-1.711,2.456l-1.638,2.531l-1.488,2.531l-1.266,2.604l-1.189,2.604
		l-1.042,2.607l-0.896,2.752l-0.742,2.827l-0.746,2.906l-0.519,3.055l-0.373,3.124l-0.372,3.275l-0.148,3.423l-0.149,3.427
		l0.149,3.571l0.223,3.65l0.298,3.421l0.373,2.981l0.445,2.456l0.149,0.892l0.222,0.744l0.15,0.521l0.224,0.227l0.074,0.521
		l0.372,0.816l0.222,0.447l0.522,0.596l0.445,0.521l0.596,0.52l0.744,0.596l0.819,0.523l0.968,0.444l1.19,0.448l1.266,0.372
		l1.487,0.299l1.638,0.146l1.788,0.075l2.306-0.075l1.859-0.297l1.563-0.371l1.34-0.445l1.191-0.52l0.82-0.523l0.74-0.672
		l0.523-0.743l0.372-0.593l0.296-0.747l0.151-0.596l0.072-0.596v-0.82l-0.072-0.372l-0.151-0.668l-0.372-2.011l-0.523-2.9
		l-0.665-3.727l-0.522-4.095l-0.444-4.46l-0.152-2.162l-0.072-2.156l0.072-2.087l0.152-2.008l0.296-3.348l0.375-2.91l0.221-1.336
		l0.221-1.268l0.3-1.265l0.371-1.267l0.448-1.268l0.447-1.264l0.521-1.34l0.668-1.488l1.64-3.275l2.083-3.795l42.496,53.819
		l0.145,0.299l0.3,0.372l0.372,0.297l0.447,0.224l0.444,0.224l0.672,0.148l0.596,0.072h0.743l0.816-0.072l0.972-0.148l1.04-0.3
		l1.043-0.444l1.34-0.671l1.265-0.82l1.412-0.892l1.639-1.191l1.636-1.412l1.491-1.268l1.113-1.264l0.968-1.119l0.671-1.116
		l0.444-0.896l0.376-0.889l0.22-0.819l0.076-0.6v-0.744l-0.148-0.592l-0.224-0.521l-0.368-0.819L948.778,1267.499z
		 M838.785,1279.628v-79.5v-2.008v-1.936v-1.788l-0.151-1.787l-0.148-1.639l-0.372-1.712l-0.298-0.819l-0.296-0.816l-0.374-0.968
		l-0.594-0.82l-0.894-1.415l-1.042-1.264l-1.116-1.116l-1.189-0.971l-1.268-0.889l-1.338-0.744l-1.563-0.675l-1.638-0.521
		l-27.759-8.338l-0.372-0.147h-0.817l-0.598,0.147l-0.594,0.076l-0.67,0.151l-0.67,0.372l-0.818,0.592l-0.819,0.597l-0.818,0.822
		l-0.817,1.113l-0.82,1.267l-0.817,1.561l-0.746,1.787l-0.744,2.163l-0.52,2.156l-0.372,1.938l-0.148,1.708l-0.151,1.563
		l0.226,1.268l0.148,1.188l0.298,0.971l0.372,0.816l0.445,0.672l0.446,0.52l0.372,0.448l0.447,0.299l0.669,0.444l0.298,0.076
		l10.941,3.196l2.082,0.52l1.713,0.6l1.488,0.447l1.115,0.521l0.598,0.372l0.446,0.375l0.444,0.372l0.447,0.368l0.818,0.968
		l0.746,1.268l0.445,1.112l0.372,1.047l0.149,1.116l0.074,1.116v2.234v2.456v67.067v0.448l0.223,0.747l0.149,0.444l0.3,0.596
		l0.444,0.523l0.521,0.593l0.671,0.596l0.818,0.52l1.115,0.521l1.116,0.451l1.565,0.371l1.71,0.297l1.936,0.148l2.233,0.147
		l2.306-0.147l2.01-0.148l1.712-0.297l1.413-0.371l1.34-0.451l0.968-0.521l0.819-0.52l0.742-0.596l0.522-0.593l0.372-0.523
		l0.298-0.596l0.147-0.444l0.148-0.747L838.785,1279.628z M769.125,1279.925v-65.656v-4.016v-3.723l-0.074-3.571l-0.224-3.503
		l-0.148-1.712l-0.297-1.636l-0.225-1.636l-0.52-1.64l-0.448-1.487l-0.594-1.563l-0.672-1.567l-0.816-1.56l-0.597-0.972
		l-0.669-0.964l-0.743-0.968l-0.597-0.893l-0.743-0.819l-0.82-0.747l-0.743-0.668l-0.818-0.744l-0.819-0.672l-0.746-0.52
		l-0.966-0.521l-0.894-0.596l-1.786-0.819l-1.934-0.669l-2.01-0.671l-2.085-0.448l-2.156-0.444l-2.159-0.299l-2.306-0.148
		l-2.233-0.076l-2.457-0.147h-2.38h-40.561h-0.447l-0.742,0.224l-0.522,0.148l-0.596,0.299l-0.521,0.444l-0.521,0.448l-0.596,0.744
		l-0.521,0.816l-0.519,1.046l-0.447,1.188l-0.372,1.563l-0.3,1.64l-0.147,2.008l-0.15,2.235l0.15,2.307l0.147,2.009l0.3,1.715
		l0.372,1.412l0.447,1.264l0.519,1.044l0.521,0.819l0.596,0.744l0.521,0.523l0.521,0.371l0.596,0.225l0.522,0.224l0.742,0.145h0.447
		h30.811l2.679,0.151l2.531,0.072l1.339,0.076l1.189,0.075l1.266,0.221l1.19,0.224l1.117,0.304l1.042,0.368l1.042,0.372l0.894,0.521
		l0.892,0.52l0.819,0.747l0.67,0.82l0.595,0.815l0.372,0.82l0.373,0.744l0.298,0.815l0.148,0.899l0.296,1.936l0.15,1.932v2.235
		l-0.074,2.156v2.383l-0.076,2.308v58.954l0.076,0.378l0.149,0.741l0.224,0.523l0.297,0.52l0.298,0.596l0.596,0.521l0.594,0.52
		l0.894,0.596l1.042,0.523l1.266,0.444l1.414,0.376l1.787,0.221l1.935,0.224l2.306,0.075l2.233-0.075l1.936-0.224l1.711-0.221
		l1.488-0.376l1.266-0.444l0.966-0.523l0.894-0.596l0.672-0.52l0.521-0.521l0.444-0.596l0.301-0.52l0.223-0.523l0.147-0.741
		V1279.925z M579.724,1251.715l0.371-0.372l0.894-0.892l1.264-1.563l1.563-2.087l1.71-2.456l2.012-2.979l2.083-3.272l2.086-3.65
		l2.082-3.795l2.01-4.092l0.894-2.087l0.968-2.084l0.892-2.234l0.746-2.084l0.669-2.159l0.669-2.159l0.596-2.156l0.521-2.235
		l0.296-2.084l0.226-2.155l0.148-2.087v-2.008l-0.076-2.456l-0.147-2.162l-0.298-2.156l-0.298-1.936l-0.372-1.936l-0.446-1.643
		l-0.447-1.633l-0.519-1.419l-0.521-1.336l-0.67-1.268l-0.746-1.188l-0.67-1.043l-0.744-0.968l-0.894-0.82l-0.817-0.819
		l-0.968-0.668l-0.967-0.599l-0.968-0.521l-1.115-0.521l-0.968-0.444l-1.191-0.372l-1.116-0.224l-1.266-0.3l-1.19-0.151
		l-2.531-0.296l-2.604-0.148l-2.755-0.147h-2.901h-28.578h-0.371l-0.745,0.224l-0.521,0.148l-0.597,0.299l-0.521,0.444l-0.521,0.448
		l-0.595,0.744l-0.521,0.816l-0.521,1.046l-0.447,1.188l-0.372,1.563l-0.298,1.64l-0.148,2.008l-0.147,2.235l0.147,2.307
		l0.148,2.009l0.298,1.715l0.372,1.412l0.447,1.264l0.521,1.044l0.521,0.819l0.595,0.744l0.521,0.523l0.521,0.371l0.597,0.225
		l0.521,0.224l0.745,0.145h0.371h23.369l0.817,0.151l1.042,0.148l1.042,0.372l1.34,0.451l1.115,0.52l1.116,0.816l0.447,0.444
		l0.522,0.447l0.37,0.6l0.372,0.521l0.373,0.743l0.148,0.893l0.149,0.892v0.893l-0.149,1.043l-0.148,1.04l-0.296,1.123l-0.3,1.04
		l-0.743,2.156l-0.895,2.011l-1.041,1.787l-0.895,1.561l-12.203,17.867l-0.15,0.296l-0.296,0.823l-0.076,0.444l-0.072,0.596v0.744
		l0.148,0.819l0.222,0.82l0.372,0.968l0.522,1.043l0.743,1.112l0.968,1.119l1.265,1.188l1.487,1.268l1.787,1.419l1.935,1.112
		l1.638,1.04l1.415,0.747l1.264,0.448l1.116,0.368l0.896,0.151h0.816l0.671-0.075l0.522-0.221l0.445-0.151l0.297-0.297l0.224-0.224
		l0.298-0.596L579.724,1251.715z M523.31,1279.925v-71.535l0.076-3.72v-3.427v-1.787l-0.076-1.636l-0.147-1.636l-0.148-1.488
		l-0.298-1.566l-0.223-1.561l-0.523-1.566l-0.518-1.412l-0.746-1.563l-0.819-1.416l-0.891-1.491l-1.191-1.412l-0.968-1.191
		l-1.116-1.112l-1.042-0.968l-1.191-0.896l-1.115-0.819l-1.192-0.747l-1.264-0.665l-1.266-0.521l-1.266-0.523l-1.338-0.372
		l-1.34-0.372l-1.491-0.224l-1.488-0.224l-1.487-0.076l-1.563-0.147h-1.636h-60.654h-0.372l-0.67,0.224l-0.594,0.148l-0.523,0.299
		l-0.519,0.444l-0.598,0.448l-0.52,0.744l-0.522,0.816l-0.594,1.046l-0.446,1.188l-0.373,1.563l-0.225,1.64l-0.222,2.008
		l-0.074,2.235l0.074,2.307l0.222,2.009l0.225,1.715l0.373,1.412l0.446,1.264l0.594,1.044l0.522,0.819l0.52,0.744l0.598,0.523
		l0.519,0.371l0.523,0.225l0.594,0.224l0.67,0.145h0.372h52.689l0.82,0.151l0.817,0.148l0.67,0.148l0.746,0.371l0.743,0.376
		l0.595,0.447l0.67,0.593l0.521,0.596l1.116,1.264l0.894,1.488l0.445,0.675l0.299,0.816l0.149,0.971l0.148,0.889v71.535v0.378
		l0.149,0.741l0.148,0.523l0.296,0.52l0.372,0.596l0.521,0.521l0.746,0.52l0.816,0.596l1.115,0.523l1.191,0.444l1.414,0.376
		l1.713,0.221l2.009,0.224l2.307,0.075l2.232-0.075l2.011-0.224l1.636-0.221l1.565-0.376l1.116-0.444l1.116-0.523l0.817-0.596
		l0.744-0.52l0.446-0.521l0.447-0.596l0.298-0.52l0.148-0.523l0.222-0.741V1279.925z M454.247,1281.568l5.509-56.578v-0.296
		l-0.226-0.593l-0.148-0.45l-0.222-0.448l-0.372-0.593l-0.446-0.52l-0.521-0.675l-0.742-0.521l-0.819-0.52l-0.97-0.521l-1.264-0.593
		l-1.34-0.45l-1.563-0.448l-1.86-0.368l-2.231-0.297l-2.011-0.078h-1.712l-1.488,0.224l-1.264,0.151l-1.044,0.368l-0.817,0.376
		l-0.746,0.447l-0.52,0.372l-0.521,0.447l-0.225,0.444l-0.222,0.444l-0.223,0.675v0.221l-7.368,56.574v0.372l0.074,0.819
		l0.075,0.444l0.223,0.672l0.372,0.596l0.447,0.668l0.595,0.6l0.745,0.668l0.968,0.596l1.19,0.596l1.413,0.523l1.71,0.444
		l1.861,0.372l2.308,0.296l2.233,0.076h2.008l1.714-0.076l1.562-0.296l1.266-0.297l1.116-0.371l0.894-0.303l0.742-0.445l0.596-0.52
		l0.448-0.444l0.298-0.448l0.298-0.447l0.222-0.596V1281.568z M411.231,1279.628v-79.5l0.076-2.008v-1.936v-1.788l-0.076-1.787
		l-0.147-1.639l-0.374-1.712l-0.296-0.819l-0.372-0.816l-0.298-0.968l-0.596-0.82l-0.894-1.415l-1.116-1.264l-1.04-1.116
		l-1.191-0.971l-1.265-0.889l-1.415-0.744l-1.488-0.675l-1.638-0.521l-27.76-8.338l-0.372-0.147h-0.819l-0.595,0.147l-0.596,0.076
		l-0.668,0.151l-0.746,0.372l-0.742,0.592l-0.819,0.597l-0.819,0.822l-0.816,1.113l-0.819,1.267l-0.82,1.561l-0.745,1.787
		l-0.742,2.163l-0.522,2.156l-0.371,1.938l-0.223,1.708l-0.075,1.563l0.224,1.268l0.147,1.188l0.298,0.971l0.374,0.816l0.446,0.672
		l0.444,0.52l0.373,0.448l0.446,0.299l0.598,0.444l0.37,0.076l10.939,3.196l2.084,0.52l1.712,0.6l1.415,0.447l1.188,0.521
		l0.596,0.372l0.448,0.375l0.447,0.372l0.444,0.368l0.819,0.968l0.744,1.268l0.447,1.112l0.372,1.047l0.148,1.116l0.074,1.116v2.234
		v2.456v67.067v0.448l0.222,0.747l0.151,0.444l0.297,0.596l0.446,0.523l0.447,0.593l0.742,0.596l0.821,0.52l1.04,0.521l1.191,0.451
		l1.563,0.371l1.639,0.297l2.008,0.148l2.233,0.147l2.308-0.147l2.01-0.148l1.71-0.297l1.416-0.371l1.264-0.451l1.042-0.521
		l0.819-0.52l0.744-0.596l0.52-0.593l0.372-0.523l0.224-0.596l0.225-0.444l0.147-0.747V1279.628z M340.159,1173.851h-80.151h-0.372
		l-0.818,0.224l-0.448,0.148l-0.52,0.299l-0.596,0.444l-0.521,0.448l-0.67,0.744l-0.52,0.816l-0.446,1.046l-0.448,1.188
		l-0.372,1.563l-0.371,1.64l-0.151,2.008v2.235v2.307l0.151,2.009l0.371,1.715l0.372,1.412l0.448,1.264l0.446,1.044l0.52,0.819
		l0.67,0.744l0.521,0.523l0.596,0.371l0.52,0.225l0.448,0.224l0.818,0.145h0.372h44.354v80.469v0.378l0.225,0.741l0.147,0.523
		l0.3,0.52l0.444,0.596l0.521,0.521l0.671,0.52l0.894,0.596l1.042,0.523l1.266,0.444l1.414,0.376l1.71,0.221l1.936,0.224
		l2.233,0.075l2.306-0.075l2.01-0.224l1.713-0.221l1.412-0.376l1.34-0.444l0.968-0.523l0.894-0.596l0.67-0.52l0.521-0.521
		l0.372-0.596l0.298-0.52l0.147-0.523l0.152-0.741l0.147-0.378v-80.469h10.046h0.371l0.819-0.145l0.449-0.224l0.521-0.225
		l0.594-0.371l0.521-0.523l0.669-0.744l0.522-0.819l0.445-1.044l0.447-1.264l0.372-1.412l0.372-1.715l0.147-2.009v-2.307v-2.235
		l-0.147-2.008l-0.372-1.64l-0.372-1.563l-0.447-1.188l-0.445-1.046l-0.522-0.816l-0.669-0.744l-0.521-0.448l-0.594-0.444
		l-0.521-0.299l-0.449-0.148l-0.819-0.224H340.159z M236.042,1279.925v-71.535v-3.72v-3.427v-1.787l-0.074-1.636l-0.148-1.636
		l-0.15-1.488l-0.148-1.566l-0.372-1.561l-0.446-1.566l-0.594-1.412l-0.672-1.563l-0.818-1.416l-0.968-1.491l-1.19-1.412
		l-0.968-1.191l-1.116-1.112l-1.043-0.968l-1.116-0.896l-1.192-0.819l-1.19-0.747l-1.266-0.665l-1.266-0.521l-1.264-0.523
		l-1.34-0.372l-1.34-0.372l-1.488-0.224l-1.416-0.224l-1.562-0.076l-1.562-0.147h-1.639h-60.579h-0.446l-0.67,0.224l-0.596,0.148
		l-0.446,0.299l-0.596,0.444l-0.594,0.448l-0.523,0.744l-0.518,0.816l-0.598,1.046l-0.446,1.188l-0.371,1.563l-0.225,1.64
		l-0.223,2.008l-0.076,2.235l0.076,2.307l0.223,2.009l0.225,1.715l0.371,1.412l0.446,1.264l0.598,1.044l0.518,0.819l0.523,0.744
		l0.594,0.523l0.596,0.371l0.446,0.225l0.596,0.224l0.67,0.145h0.446h52.618l0.816,0.151l0.82,0.148l0.82,0.148l0.668,0.371
		l0.67,0.376l0.67,0.447l0.596,0.593l0.52,0.596l1.118,1.264l0.968,1.488l0.372,0.675l0.298,0.816l0.149,0.971l0.148,0.889v71.535
		v0.378l0.148,0.741l0.224,0.523l0.222,0.52l0.447,0.596l0.594,0.521l0.596,0.52l0.818,0.596l1.117,0.523l1.19,0.444l1.49,0.376
		l1.786,0.221l1.861,0.224l2.306,0.075l2.233-0.075l2.008-0.224l1.713-0.221l1.488-0.376l1.266-0.444l0.968-0.523l0.816-0.596
		l0.745-0.52l0.522-0.521l0.372-0.596l0.298-0.52l0.148-0.523l0.222-0.741L236.042,1279.925z M167.054,1281.568l5.435-56.578
		l-0.076-0.296l-0.074-0.593l-0.222-0.45l-0.3-0.448l-0.296-0.593l-0.52-0.52l-0.523-0.675l-0.742-0.521l-0.819-0.52l-0.968-0.521
		l-1.19-0.593l-1.416-0.45l-1.562-0.448l-1.86-0.368l-2.233-0.297l-2.008-0.078h-1.713l-1.488,0.224l-1.266,0.151l-1.042,0.368
		l-0.82,0.376l-0.742,0.447l-0.522,0.372l-0.446,0.447l-0.296,0.444l-0.226,0.444l-0.148,0.675l-0.076,0.221l-7.367,56.574v0.372
		l0.074,0.819l0.074,0.444l0.298,0.672l0.3,0.596l0.446,0.668l0.596,0.6l0.742,0.668l1.042,0.596l1.118,0.596l1.488,0.523
		l1.639,0.444l1.934,0.372l2.231,0.296l2.308,0.076h1.936l1.786-0.076l1.488-0.296l1.264-0.297l1.117-0.371l0.894-0.303l0.744-0.445
		l0.594-0.52l0.522-0.444l0.298-0.448l0.222-0.447l0.298-0.596L167.054,1281.568z"/>
</g>
</svg>
