<?xml version="1.0" encoding="UTF-8" standalone="no"?>
<!-- Created with Inkscape (http://www.inkscape.org/) -->

<svg
   xmlns:dc="http://purl.org/dc/elements/1.1/"
   xmlns:cc="http://creativecommons.org/ns#"
   xmlns:rdf="http://www.w3.org/1999/02/22-rdf-syntax-ns#"
   xmlns:svg="http://www.w3.org/2000/svg"
   xmlns="http://www.w3.org/2000/svg"
   xmlns:sodipodi="http://sodipodi.sourceforge.net/DTD/sodipodi-0.dtd"
   xmlns:inkscape="http://www.inkscape.org/namespaces/inkscape"
   width="95.855614mm"
   height="43.404354mm"
   viewBox="0 0 95.855614 43.404354"
   version="1.1"
   id="svg8"
   inkscape:version="0.92.3 (2405546, 2018-03-11)"
   sodipodi:docname="PardesHannaKarkur.svg">
  <defs
     id="defs2" />
  <sodipodi:namedview
     id="base"
     pagecolor="#ffffff"
     bordercolor="#666666"
     borderopacity="1.0"
     inkscape:pageopacity="0.0"
     inkscape:pageshadow="2"
     inkscape:zoom="3.959798"
     inkscape:cx="129.67928"
     inkscape:cy="90.711043"
     inkscape:document-units="mm"
     inkscape:current-layer="layer1"
     showgrid="false"
     fit-margin-top="0"
     fit-margin-left="0"
     fit-margin-right="0"
     fit-margin-bottom="0"
     inkscape:window-width="1920"
     inkscape:window-height="1005"
     inkscape:window-x="-9"
     inkscape:window-y="-9"
     inkscape:window-maximized="1" />
  <metadata
     id="metadata5">
    <rdf:RDF>
      <cc:Work
         rdf:about="">
        <dc:format>image/svg+xml</dc:format>
        <dc:type
           rdf:resource="http://purl.org/dc/dcmitype/StillImage" />
        <dc:title></dc:title>
      </cc:Work>
    </rdf:RDF>
  </metadata>
  <g
     inkscape:label="Layer 1"
     inkscape:groupmode="layer"
     id="layer1"
     transform="translate(216.88318,0.72541951)">
    <path
       inkscape:connector-curvature="0"
       id="path330"
       style="fill:#754c29;fill-opacity:1;fill-rule:nonzero;stroke:none;stroke-width:1.73374689"
       d="m -210.13004,41.368049 c 0,0.769784 -0.37989,1.154676 -1.13732,1.154676 h -1.84817 v -5.034802 c 0,-0.542662 -0.10763,-0.915418 -0.32092,-1.118266 -0.24966,-0.227122 -0.73512,-0.339812 -1.45805,-0.339812 -1.00734,0 -1.62977,0.24446 -1.86729,0.729907 h -0.12139 v -1.952201 c 0,-0.388358 0.22558,-0.655356 0.67791,-0.799258 0.53225,-0.168171 1.29509,-0.251394 2.29029,-0.251394 1.39563,0 2.37348,0.228856 2.93866,0.684829 0.5635,0.457707 0.84609,1.250032 0.84609,2.378701 z m 3.81424,-0.104026 c 0,0.839133 -0.37989,1.2587 -1.13733,1.2587 h -1.81352 v -7.342419 c 0,-0.556532 -0.19756,-0.924086 -0.59117,-1.102663 v -0.173375 h 2.20531 c 0.89116,0 1.33671,0.412631 1.33671,1.241363 z m 7.69261,-3.115542 c 0,2.950837 -1.42684,4.426256 -4.28058,4.426256 h -0.0501 c -0.99519,0 -1.7511,-0.13003 -2.266,-0.390093 -0.29487,-0.156037 -0.44231,-0.388358 -0.44231,-0.695233 v -1.830837 h 0.13023 c 0.35189,0.403962 0.93623,0.606812 1.75278,0.606812 0.85651,0 1.41996,-0.140434 1.69218,-0.42477 0.27227,-0.282602 0.40742,-0.859938 0.40742,-1.726812 0,-0.873809 -0.15235,-1.454613 -0.45951,-1.744149 -0.27227,-0.227122 -0.80619,-0.339812 -1.60544,-0.339812 -0.88595,0 -1.49275,0.24446 -1.82217,0.729907 h -0.13024 v -1.934862 c 0,-0.202848 0.0295,-0.348481 0.0899,-0.435169 0.0605,-0.08669 0.20985,-0.19071 0.44722,-0.312075 0.46296,-0.225386 1.17203,-0.338082 2.1256,-0.338082 1.62623,0 2.76881,0.319009 3.42417,0.958763 0.65708,0.639753 0.9865,1.789227 0.9865,3.450156 m 7.03204,3.219568 c 0,0.769784 -0.37989,1.154676 -1.13732,1.154676 h -1.84817 v -5.034802 c 0,-0.542662 -0.10763,-0.915418 -0.32092,-1.118266 -0.24966,-0.227122 -0.73507,-0.339812 -1.45805,-0.339812 -1.00734,0 -1.62972,0.24446 -1.86724,0.729907 h -0.12139 v -1.952201 c 0,-0.388358 0.22558,-0.655356 0.67791,-0.799258 0.53225,-0.168171 1.29509,-0.251394 2.29028,-0.251394 1.39392,0 2.37349,0.228856 2.93871,0.684829 0.56346,0.457707 0.84605,1.250032 0.84605,2.378701 z m 7.70303,-3.219568 c 0,2.950837 -1.42684,4.426256 -4.27886,4.426256 h -0.0521 c -0.99515,0 -1.75106,-0.13003 -2.26601,-0.390093 -0.29487,-0.156037 -0.44182,-0.388358 -0.44182,-0.695233 v -1.830837 h 0.12975 c 0.35188,0.403962 0.93622,0.606812 1.75283,0.606812 0.85646,0 1.41996,-0.140434 1.69213,-0.42477 0.27226,-0.282602 0.40741,-0.859938 0.40741,-1.726812 0,-0.873809 -0.15235,-1.454613 -0.45951,-1.744149 -0.27226,-0.227122 -0.80618,-0.339812 -1.60544,-0.339812 -0.88594,0 -1.49274,0.24446 -1.82217,0.729907 h -0.13023 v -1.934862 c 0,-0.202848 0.0295,-0.348481 0.0899,-0.435169 0.0604,-0.08669 0.20986,-0.19071 0.44723,-0.312075 0.46295,-0.225386 1.17202,-0.338082 2.12559,-0.338082 1.62623,0 2.76877,0.319009 3.42412,0.958763 0.65713,0.639753 0.9865,1.789227 0.9865,3.450156" />
    <path
       d="m -183.43642,38.625262 h 2.63357 v -1.15641 h -2.63357 z"
       style="fill:#754c29;fill-opacity:1;fill-rule:nonzero;stroke:none;stroke-width:1.73374689"
       id="path332"
       inkscape:connector-curvature="0" />
    <path
       inkscape:connector-curvature="0"
       id="path344"
       style="fill:#754c29;fill-opacity:1;fill-rule:nonzero;stroke:none;stroke-width:1.73374689"
       d="m -171.49522,41.264197 c 0,0.839135 -0.38481,1.258701 -1.15467,1.258701 h -1.83082 v -5.225513 c 0,-0.520124 -0.144,-0.86514 -0.43347,-1.033314 -0.28947,-0.166441 -0.91543,-0.251394 -1.87589,-0.251394 -0.72298,0 -1.26741,0.08495 -1.63148,0.251394 -0.27227,0.133499 -0.50276,0.353682 -0.6935,0.660556 h -0.13023 v -2.03195 c 0,-0.374489 0.20297,-0.641486 0.6068,-0.797523 0.61899,-0.237526 1.50145,-0.355416 2.64747,-0.355416 1.6713,0 2.83988,0.218452 3.50217,0.658823 0.66228,0.440374 0.99342,1.241363 0.99342,2.404708 z m -4.40895,-3.628731 c -0.23246,0.249659 -0.34647,0.561734 -0.34647,0.937956 v 2.708114 c 0,0.826997 -0.39366,1.241362 -1.18068,1.241362 h -1.81352 v -3.375606 c 0,-1.118267 0.49047,-1.676533 1.47545,-1.676533 h 1.86547 z m 9.73673,3.784768 c 0,0.73511 -0.36761,1.102664 -1.10263,1.102664 h -3.69634 v -1.388732 c 0,-0.636285 0.33271,-0.955294 0.99687,-0.955294 h 0.83395 V 36.85528 c 0,-0.497586 -0.25507,-0.747246 -0.76461,-0.747246 -0.38137,0 -0.67265,0.12483 -0.87553,0.37449 h -0.12139 V 34.87534 c 0,-0.341547 0.0953,-0.584272 0.28603,-0.728174 0.29487,-0.208048 0.83911,-0.312074 1.63144,-0.312074 h 0.0521 c 0.84437,0 1.47545,0.140433 1.89152,0.42477 0.57908,0.388358 0.86864,1.090526 0.86864,2.108236 z m 8.91668,-0.156037 c 0,0.839135 -0.38678,1.258701 -1.16333,1.258701 h -1.82217 v -5.684957 c 0,-0.336347 -0.10419,-0.5652 -0.31208,-0.69003 -0.20788,-0.12483 -0.56173,-0.187245 -1.05933,-0.187245 h -0.13023 c -0.15088,0 -0.33813,0.03814 -0.56346,0.112696 -0.059,0.02428 -0.0865,0.08149 -0.0865,0.173376 v 5.017463 c 0,0.839134 -0.38481,1.2587 -1.15468,1.2587 h -1.83082 V 38.21801 c 0,-0.521859 0.12286,-0.929289 0.37301,-1.224026 0.2133,-0.260064 0.56174,-0.475047 1.04199,-0.641486 v -0.227122 c -0.66057,0.0347 -1.11482,0.18898 -1.36276,0.461177 h -0.13023 V 34.84067 c 0,-0.398763 0.15579,-0.653622 0.46786,-0.762848 0.72298,-0.225386 1.84301,-0.338082 3.35827,-0.338082 1.62106,0 2.73411,0.18551 3.34268,0.554798 0.68829,0.428235 1.03157,1.255234 1.03157,2.482727 z m 12.13969,-2.968173 c 0,1.428606 -0.38481,2.531269 -1.15467,3.306254 -0.73335,0.717771 -1.77883,1.076657 -3.13289,1.076657 -0.75763,0 -1.30201,-0.0347 -1.63143,-0.104027 -1.74241,-0.41783 -2.61278,-1.595046 -2.61278,-3.533375 0,-1.510093 0.59122,-2.446317 1.77189,-2.810404 v -0.235791 c -0.8738,0.05201 -1.4581,0.242726 -1.75454,0.573871 h -0.13024 v -1.693871 c 0,-0.386623 0.16808,-0.636284 0.50453,-0.74551 0.82697,-0.260064 2.00421,-0.390093 3.53165,-0.390093 1.6713,0 2.85895,0.332877 3.55937,0.996903 0.6987,0.665759 1.04892,1.832571 1.04892,3.498702 z m -3.06354,-1.354058 c 0,-0.393558 -0.0919,-0.665759 -0.27718,-0.816595 -0.15628,-0.12136 -0.42462,-0.182045 -0.8079,-0.182045 h -0.79754 c -0.34156,0 -0.51318,0.18551 -0.51318,0.556533 v 2.916163 c 0,0.48545 0.0782,0.804459 0.2305,0.958761 0.15431,0.152573 0.46098,0.228857 0.92408,0.228857 0.47524,0 0.80098,-0.09535 0.97608,-0.286067 0.17693,-0.190709 0.26539,-0.528792 0.26539,-1.015975 z m 11.05437,-0.390093 h -0.11255 c -0.17839,-0.214983 -0.42805,-0.320744 -0.74548,-0.320744 h -0.0197 c -0.46295,0 -0.69522,0.265263 -0.69522,0.797523 v 4.235544 c 0,0.839134 -0.38481,1.2587 -1.15295,1.2587 h -1.85004 v -4.036162 c 0,-1.244829 0.55304,-1.92966 1.65744,-2.056223 v -0.199378 h -3.627 c -0.46295,0 -0.7906,0.128304 -0.98129,0.390093 h -0.10419 v -1.867248 c 0,-0.329413 0.0659,-0.553066 0.1961,-0.672694 0.13023,-0.117901 0.36564,-0.176841 0.70735,-0.176841 h 5.58092 c 0.43838,0 0.74033,0.06761 0.90158,0.202848 0.16316,0.136969 0.24278,0.42997 0.24278,0.882478 z m 7.42565,4.816349 c 0,0.769784 -0.37793,1.154676 -1.13561,1.154676 h -1.84989 v -5.034802 c 0,-0.542662 -0.10566,-0.917151 -0.32092,-1.12 -0.24818,-0.225386 -0.73512,-0.338082 -1.4581,-0.338082 -1.00729,0 -1.62799,0.242725 -1.86551,0.729907 h -0.12139 v -1.95393 c 0,-0.386629 0.22557,-0.653623 0.67619,-0.797525 0.53225,-0.168171 1.2968,-0.251394 2.292,-0.251394 1.39392,0 2.37349,0.228856 2.93694,0.684831 0.56523,0.457707 0.84609,1.25003 0.84609,2.3787 z m 7.68568,-6.787619 c 0.65364,0.625883 0.98134,1.790961 0.98134,3.498701 0,1.574243 -0.345,2.725451 -1.03334,3.453625 -0.68828,0.729906 -1.81868,1.093994 -3.39291,1.093994 h -0.26882 c -1.36104,0 -2.2955,-0.136964 -2.80351,-0.407432 -0.26195,-0.140434 -0.39169,-0.345017 -0.39169,-0.617215 v -1.943527 h 0.12139 c 0.50973,0.507986 1.25699,0.762847 2.24,0.762847 1.11133,0 1.8118,-0.12656 2.10476,-0.381424 0.29143,-0.254859 0.43887,-0.891145 0.43887,-1.908855 0,-1.163345 -0.11942,-1.849909 -0.35729,-2.057958 -0.15628,-0.143898 -0.41626,-0.216717 -0.78018,-0.216717 h -0.0344 c -0.38137,0 -0.64321,0.07282 -0.7819,0.216717 -0.10911,0.09362 -0.16464,0.286067 -0.16464,0.582539 v 0.164706 c 0,0.386624 0.24425,0.580806 0.72991,0.580806 h 0.0197 c 0.22558,0 0.42806,-0.06242 0.6068,-0.190715 h 0.0693 v 1.34539 c 0,0.272198 -0.0953,0.475046 -0.28602,0.606811 -0.27227,0.192444 -0.83391,0.287802 -1.68344,0.287802 h -0.0344 c -0.76461,0 -1.3402,-0.168177 -1.72683,-0.504521 -0.34844,-0.282602 -0.52187,-0.672695 -0.52187,-1.170279 v -0.05201 c 0,-0.261799 0.0781,-0.521859 0.23393,-0.781921 0.21526,-0.37102 0.66057,-0.631083 1.33676,-0.78192 V 35.94333 c -0.25998,0.01209 -0.55657,0.07109 -0.88944,0.178576 -0.33271,0.107496 -0.54438,0.221916 -0.63801,0.343281 h -0.13023 V 34.73664 c 0,-0.351951 0.16808,-0.584272 0.50453,-0.693498 0.75763,-0.237526 1.79961,-0.355416 3.12418,-0.355416 1.64879,0 2.78616,0.298205 3.41031,0.892879" />
    <path
       inkscape:connector-curvature="0"
       id="path348"
       style="fill:#754c29;fill-opacity:1;fill-rule:nonzero;stroke:none;stroke-width:1.73374689"
       d="m -183.09746,31.433159 c 0,0.268733 -0.12827,0.403962 -0.38677,0.403962 h -0.60509 v -2.302415 c 0,-0.206318 -0.0521,-0.345017 -0.15775,-0.417831 -0.0865,-0.05895 -0.23394,-0.08842 -0.43887,-0.08842 h -0.0246 c -0.201,0 -0.32927,0.02949 -0.38481,0.08669 -0.0536,0.05722 -0.0816,0.175111 -0.0816,0.353686 v 1.345388 c 0,0.700434 -0.33468,1.05065 -1.00212,1.05065 h -0.0197 c -0.40398,0 -0.60508,-0.123099 -0.60508,-0.371019 v -0.535732 c 0.0604,0.09189 0.15972,0.136963 0.29487,0.136963 0.22558,0 0.33812,-0.114425 0.33812,-0.343281 v -0.748979 c 0,-0.270463 0.0246,-0.450773 0.0713,-0.540929 0.0713,-0.143904 0.2359,-0.24966 0.49048,-0.317274 v -0.07629 c -0.36909,0.0087 -0.64671,0.09015 -0.82875,0.24099 h -0.0501 v -0.561734 c 0,-0.156037 0.0624,-0.258329 0.18724,-0.30167 0.31551,-0.105757 0.79925,-0.159507 1.44768,-0.159507 0.69693,0 1.16333,0.08669 1.39913,0.260064 0.23737,0.17511 0.35532,0.506253 0.35532,0.99517 z m 1.47024,-1.307245 c 0,0.293001 -0.13859,0.438639 -0.41774,0.438639 h -0.56173 v -1.700807 c 0,-0.228857 -0.0727,-0.377959 -0.21477,-0.447309 v -0.06934 h 0.72819 c 0.1612,0 0.27571,0.02949 0.34353,0.09189 0.0831,0.07629 0.12286,0.213253 0.12286,0.410897 z m 3.8021,0.853003 c -0.0727,0.261794 -0.21133,0.469847 -0.41774,0.625883 -0.22017,0.169906 -0.50109,0.253129 -0.84437,0.253129 -0.24769,0 -0.42658,-0.02949 -0.53745,-0.09015 -0.0816,-0.05549 -0.12287,-0.135234 -0.12287,-0.239255 v -0.563468 h 0.0344 c 0.0831,0.08669 0.21329,0.130029 0.39169,0.130029 0.35729,0 0.53746,-0.199379 0.53746,-0.596409 v -0.820061 c 0,-0.249659 -0.057,-0.4213 -0.17348,-0.513189 -0.0899,-0.07282 -0.23246,-0.109226 -0.42462,-0.109226 h -0.10911 c -0.21476,0 -0.35876,0.05721 -0.42805,0.169906 -0.0536,0.07455 -0.0899,0.228856 -0.10911,0.459442 l -0.14399,1.754552 c -0.0246,0.265263 -0.17005,0.397027 -0.43838,0.397027 h -0.61206 l 0.13023,-1.655729 c 0.0246,-0.320744 0.0865,-0.551332 0.19266,-0.691765 0.16463,-0.220187 0.39021,-0.331143 0.67963,-0.331143 v -0.08322 c -0.31551,0 -0.54439,0.02428 -0.69177,0.07454 -0.14547,0.05029 -0.2359,0.102296 -0.26883,0.152567 h -0.0344 v -0.646682 c 0,-0.13003 0.0624,-0.213253 0.18528,-0.24619 0.25506,-0.06761 0.65707,-0.102297 1.20318,-0.102297 0.4369,0 0.7594,0.01558 0.96571,0.04684 0.33124,0.04684 0.57038,0.142168 0.71949,0.286067 0.14744,0.143903 0.24966,0.322478 0.3052,0.53226 0.0555,0.211517 0.0831,0.520123 0.0831,0.929288 0,0.397027 -0.0246,0.690032 -0.0713,0.877277 m 1.49275,0.419565 c 0,0.293006 -0.13024,0.438639 -0.39022,0.438639 h -0.59122 v -2.973376 c 0,-0.228856 -0.0713,-0.377959 -0.21477,-0.447309 v -0.06934 h 0.72819 c 0.1612,0 0.27719,0.02949 0.34501,0.09189 0.0816,0.07629 0.12286,0.213253 0.12286,0.410897 z m 3.72587,-1.015999 c 0,0.455978 -0.11795,0.813127 -0.35041,1.069723 -0.23245,0.256594 -0.55308,0.384893 -0.9605,0.384893 -0.23049,0 -0.38825,-0.04507 -0.47523,-0.136968 -0.0492,-0.04684 -0.0713,-0.110956 -0.0713,-0.19418 v -0.582538 c 0.085,0.100551 0.19069,0.150837 0.31748,0.150837 0.36761,0 0.55132,-0.213252 0.55132,-0.639752 v -1.282975 h -1.9123 c -0.1784,0 -0.3106,0.04507 -0.3971,0.136968 h -0.0393 v -0.554799 c 0,-0.258329 0.12139,-0.386624 0.36565,-0.386624 h 2.62835 c 0.23049,0 0.345,0.119631 0.345,0.358886 z m -2.04583,-0.717771 c -0.144,0.100552 -0.21526,0.277397 -0.21526,0.530527 v 2.6509 c 0,0.287801 -0.13515,0.431704 -0.40397,0.431704 h -0.57737 v -3.169292 c 0,-0.339812 0.15235,-0.509721 0.45411,-0.509721 h 0.74205 z m 5.89821,1.314181 c -0.0727,0.261794 -0.21133,0.469847 -0.41774,0.625882 -0.22017,0.169906 -0.50281,0.25313 -0.84432,0.25313 -0.24819,0 -0.42806,-0.02949 -0.53746,-0.09015 -0.0816,-0.05549 -0.12286,-0.135234 -0.12286,-0.239256 V 30.96505 h 0.0344 c 0.0831,0.08669 0.21329,0.130029 0.39022,0.130029 0.35876,0 0.53745,-0.199379 0.53745,-0.59641 V 29.67861 c 0,-0.24966 -0.057,-0.421301 -0.17152,-0.51319 -0.0919,-0.07282 -0.23245,-0.109226 -0.42461,-0.109226 h -0.10911 c -0.21476,0 -0.35876,0.05722 -0.42805,0.169906 -0.0536,0.07455 -0.0899,0.228857 -0.10911,0.459443 l -0.14399,1.754552 c -0.0246,0.265263 -0.17005,0.397027 -0.44035,0.397027 h -0.61201 l 0.13024,-1.655729 c 0.0246,-0.320744 0.0885,-0.551332 0.19412,-0.691765 0.16464,-0.220187 0.39022,-0.331143 0.67792,-0.331143 v -0.08322 c -0.31404,0 -0.54444,0.02428 -0.69006,0.07455 -0.14743,0.05028 -0.2359,0.102296 -0.26882,0.152567 h -0.0344 v -0.646688 c 0,-0.13003 0.0624,-0.213253 0.18724,-0.24619 0.25507,-0.06761 0.65536,-0.102297 1.20146,-0.102297 0.43887,0 0.76112,0.01563 0.96743,0.04684 0.32928,0.04684 0.57044,0.142168 0.71777,0.286067 0.14891,0.143903 0.25163,0.322478 0.30716,0.532259 0.0555,0.211518 0.0831,0.520124 0.0831,0.929289 0,0.397028 -0.0246,0.690032 -0.0713,0.877277 m 5.15272,0.419565 c 0,0.293006 -0.13171,0.438639 -0.3971,0.438639 h -0.59638 v -2.189745 c 0,-0.214988 -0.0713,-0.367555 -0.21329,-0.457708 -0.14203,-0.08842 -0.40545,-0.133499 -0.79233,-0.133499 -0.59122,0 -0.95357,0.147368 -1.09054,0.440374 h -0.0491 v -0.748979 c 0,-0.152572 0.0816,-0.260064 0.24621,-0.324213 0.24819,-0.09535 0.60509,-0.143899 1.07148,-0.143899 0.67098,0 1.14081,0.09189 1.41303,0.275668 0.27227,0.182045 0.40742,0.504521 0.40742,0.965696 z m -1.999,-1.470239 c -0.0973,0.100551 -0.144,0.228856 -0.144,0.383158 v 1.093996 c 0,0.287801 -0.13515,0.431704 -0.40545,0.431704 h -0.58945 v -1.296846 c 0,-0.450774 0.19953,-0.674427 0.59638,-0.674427 h 0.54267 z m 5.35554,-0.702168 c 0,0.242725 -0.0919,0.466377 -0.27571,0.67096 -0.1838,0.204583 -0.43346,0.357151 -0.75069,0.457708 0.16119,0.223651 0.37449,0.42997 0.63972,0.617213 0.16661,0.11963 0.24966,0.273932 0.24966,0.461177 v 0.403967 h -2.86415 v -0.417836 c 0,-0.110956 0.0344,-0.202848 0.11254,-0.275667 0.0747,-0.07455 0.17349,-0.110956 0.29832,-0.110956 h 1.54651 v -0.06761 c -0.22558,0 -0.43543,-0.04335 -0.6328,-0.130029 -0.25851,-0.11963 -0.51667,-0.423036 -0.77675,-0.913685 -0.18183,-0.339813 -0.34156,-0.724706 -0.47523,-1.156409 -0.0624,-0.187245 -0.14891,-0.303405 -0.25998,-0.348482 v -0.06934 h 0.88594 c 0.21674,0 0.36073,0.1179 0.4315,0.351951 0.18381,0.586007 0.38481,1.015977 0.60508,1.289908 0.19757,-0.07802 0.29635,-0.251394 0.29635,-0.520125 v -0.488915 c 0,-0.287801 -0.0953,-0.47678 -0.28259,-0.563467 v -0.06934 h 0.76284 c 0.32584,0 0.489,0.208048 0.489,0.625882 z m 3.59579,0.452508 c 0,0.632817 -0.18921,1.158142 -0.56518,1.575976 -0.24622,0.268728 -0.59643,0.473311 -1.0524,0.610279 -0.37793,0.116155 -0.78191,0.173375 -1.20844,0.173375 -0.0953,0 -0.18577,-0.01042 -0.26686,-0.02772 -0.18184,-0.03814 -0.27374,-0.130029 -0.27374,-0.275667 v -0.589491 l 0.0295,-0.01386 c 0.0781,0.135234 0.25851,0.199379 0.54095,0.188979 0.11107,0 0.24425,-0.01563 0.40054,-0.04507 0.0442,-0.01907 0.0678,-0.05721 0.0678,-0.116156 0,-0.03293 -0.005,-0.07109 -0.0197,-0.1127 l -0.68656,-2.182788 c -0.0393,-0.142169 -0.0781,-0.237526 -0.10911,-0.280867 -0.0442,-0.07454 -0.11107,-0.13003 -0.20641,-0.166442 v -0.06934 h 0.89981 c 0.20641,0 0.345,0.12136 0.41773,0.36582 l 0.41774,1.461548 c 0.0492,0.173376 0.0713,0.31381 0.0713,0.417831 0,0.239256 -0.14399,0.416101 -0.43149,0.532261 l 0.0196,0.08669 c 0.64843,-0.135234 0.97264,-0.513188 0.97264,-1.132136 v -1.142568 c 0,-0.282602 -0.0865,-0.455978 -0.25998,-0.520124 v -0.06934 h 0.76982 c 0.16464,0 0.28259,0.02949 0.35532,0.09189 0.0796,0.07629 0.11943,0.213252 0.11943,0.410896 z m 1.49623,1.719876 c 0,0.293006 -0.13023,0.438639 -0.39021,0.438639 h -0.59117 v -2.973376 c 0,-0.228857 -0.0713,-0.377959 -0.21477,-0.447309 v -0.06934 h 0.72814 c 0.1612,0 0.27571,0.02949 0.345,0.09189 0.0816,0.07629 0.12336,0.213253 0.12336,0.410897 z m 3.81945,-0.419565 c -0.0727,0.261793 -0.21132,0.469846 -0.41774,0.625882 -0.22017,0.169906 -0.50103,0.253129 -0.84432,0.253129 -0.24769,0 -0.42658,-0.02949 -0.5375,-0.09015 -0.0816,-0.05549 -0.12287,-0.135233 -0.12287,-0.239255 v -0.563469 h 0.0344 c 0.0816,0.08669 0.21132,0.13003 0.39021,0.13003 0.35729,0 0.53751,-0.199379 0.53751,-0.59641 v -0.82006 c 0,-0.249659 -0.057,-0.4213 -0.17349,-0.513189 -0.0899,-0.07282 -0.23246,-0.109226 -0.42461,-0.109226 h -0.10911 c -0.21476,0 -0.35876,0.05721 -0.42806,0.169906 -0.0536,0.07455 -0.0899,0.228856 -0.1091,0.459442 l -0.144,1.754552 c -0.0246,0.265263 -0.17004,0.397027 -0.44034,0.397027 h -0.61029 l 0.13024,-1.655729 c 0.0246,-0.320743 0.0865,-0.551332 0.19265,-0.691765 0.16463,-0.220187 0.39021,-0.331143 0.67963,-0.331143 v -0.08322 c -0.31551,0 -0.54443,0.02428 -0.69177,0.07455 -0.14547,0.05028 -0.2359,0.102296 -0.26883,0.152567 h -0.0344 v -0.646687 c 0,-0.130029 0.0624,-0.213252 0.18577,-0.24619 0.25654,-0.06761 0.65708,-0.102296 1.20323,-0.102296 0.43691,0 0.75935,0.01558 0.96566,0.04684 0.33124,0.04683 0.57044,0.142168 0.71954,0.286066 0.14891,0.143903 0.24966,0.322479 0.3052,0.53226 0.0555,0.211518 0.083,0.520124 0.083,0.929289 0,0.397028 -0.0246,0.690032 -0.0713,0.877276" />
    <path
       inkscape:connector-curvature="0"
       id="path356"
       style="fill:#ffd03d;fill-opacity:1;fill-rule:nonzero;stroke:none;stroke-width:1.73374689"
       d="m -175.98634,8.2311169 c 2.47232,0 4.47829,-2.0042115 4.47829,-4.4782681 0,-2.4723231 -2.00597,-4.47826831 -4.47829,-4.47826831 -2.47232,0 -4.47824,2.00594521 -4.47824,4.47826831 0,2.4740566 2.00592,4.4782681 4.47824,4.4782681" />
    <path
       inkscape:connector-curvature="0"
       id="path360"
       style="fill:#7cc7e7;fill-opacity:1;fill-rule:nonzero;stroke:none;stroke-width:1.73374689"
       d="m -171.78513,21.297848 c 0,0 -4.08817,-9.169788 1.93486,-16.2902868 6.02132,-7.1187647 15.23794,-5.28619413 18.09167,-3.7223544 2.85551,1.5655735 0.65015,6.5344923 0.38825,7.8261336 -0.26342,1.2933756 -0.1838,1.6609296 -0.1838,1.6609296 0,0 0.16463,0.908484 0.97608,0.950093 0.81316,0.03986 1.58814,-0.01735 1.58814,-0.01735 0,0 -0.97608,5.369413 -5.30355,8.448548 -4.32913,3.079135 -6.39752,0.710837 -10.11465,2.824274 -3.71718,2.115183 -7.09279,5.01054 -5.10072,0.06242 6.36981,-15.8256429 16.30763,-20.2137562 13.03606,-18.7591423 -9.69515,4.3100948 -15.31249,17.0167263 -15.31249,17.0167263" />
    <path
       inkscape:connector-curvature="0"
       id="path364"
       style="fill:#b2d235;fill-opacity:1;fill-rule:nonzero;stroke:none;stroke-width:1.73374689"
       d="m -176.57387,15.838105 c -2.08746,-3.38254 -5.27062,-5.040002 -5.26192,-4.977587 -0.0344,-0.05375 3.46402,0.901548 6.34376,4.134986 0.24081,0.24966 0.46983,0.518391 0.69177,0.788856 -0.25162,-1.520497 -0.23246,-3.332263 0.31404,-5.437031 -5.46302,-2.9733765 -10.33487,-0.7611155 -10.33487,-0.7611155 0,0 1.05933,0.8027255 1.07668,2.1394435 0.0197,1.333252 -2.39433,6.024772 1.84124,9.240872 2.91094,2.208794 6.50501,3.92867 8.47107,4.788608 -0.26342,-2.552075 -1.03333,-6.787618 -3.14153,-9.917032" />
  </g>
</svg>
