<?xml version="1.0" encoding="UTF-8" standalone="no"?>
<svg
   xmlns:dc="http://purl.org/dc/elements/1.1/"
   xmlns:cc="http://creativecommons.org/ns#"
   xmlns:rdf="http://www.w3.org/1999/02/22-rdf-syntax-ns#"
   xmlns:svg="http://www.w3.org/2000/svg"
   xmlns="http://www.w3.org/2000/svg"
   xmlns:sodipodi="http://sodipodi.sourceforge.net/DTD/sodipodi-0.dtd"
   xmlns:inkscape="http://www.inkscape.org/namespaces/inkscape"
   version="1.1"
   width="400"
   height="400"
   id="svg3043"
   inkscape:version="0.48.5 r10040"
   sodipodi:docname="Seal of Idhna.svg">
  <title
     id="title3066">Seal of Idhna</title>
  <metadata
     id="metadata3064">
    <rdf:RDF>
      <cc:Work
         rdf:about="">
        <dc:format>image/svg+xml</dc:format>
        <dc:type
           rdf:resource="http://purl.org/dc/dcmitype/StillImage" />
        <dc:title>Seal of Idhna</dc:title>
        <dc:date>10-May-2018</dc:date>
        <dc:creator>
          <cc:Agent>
            <dc:title>Okta Dwi Rachman</dc:title>
          </cc:Agent>
        </dc:creator>
        <cc:license
           rdf:resource="http://creativecommons.org/licenses/publicdomain/" />
        <dc:language>en-gb</dc:language>
      </cc:Work>
      <cc:License
         rdf:about="http://creativecommons.org/licenses/publicdomain/">
        <cc:permits
           rdf:resource="http://creativecommons.org/ns#Reproduction" />
        <cc:permits
           rdf:resource="http://creativecommons.org/ns#Distribution" />
        <cc:permits
           rdf:resource="http://creativecommons.org/ns#DerivativeWorks" />
      </cc:License>
    </rdf:RDF>
  </metadata>
  <sodipodi:namedview
     pagecolor="#ffffff"
     bordercolor="#666666"
     borderopacity="1"
     objecttolerance="10"
     gridtolerance="10"
     guidetolerance="10"
     inkscape:pageopacity="0"
     inkscape:pageshadow="2"
     inkscape:window-width="1239"
     inkscape:window-height="699"
     id="namedview3062"
     showgrid="false"
     inkscape:zoom="1.2"
     inkscape:cx="200"
     inkscape:cy="200"
     inkscape:window-x="41"
     inkscape:window-y="0"
     inkscape:window-maximized="1"
     inkscape:current-layer="svg3043" />
  <rect
     id="backgroundrect"
     width="100%"
     height="100%"
     x="0"
     y="0"
     fill="none"
     stroke="none" />
  <g
     class="currentLayer"
     style=""
     id="g3046">
    <title
       id="title3048">Layer 1</title>
    <g
       id="svgg"
       class="selected"
       filter="url(#f157)"
       opacity="1">
      <path
         id="path0"
         d="M0.000 200.000 L 0.000 400.000 93.100 399.959 C 145.227 399.936,185.584 399.768,184.800 399.578 C 184.030 399.390,182.050 399.129,180.400 398.996 C 172.130 398.332,161.181 396.352,150.000 393.498 C 142.693 391.633,138.651 390.420,133.600 388.575 C 131.574 387.835,124.917 385.256,122.705 384.355 C 118.390 382.595,109.330 378.186,105.200 375.835 C 104.210 375.271,103.130 374.690,102.800 374.542 C 99.474 373.056,87.249 365.067,80.200 359.773 C 58.256 343.291,39.197 321.418,25.854 297.404 C 22.588 291.526,16.400 278.924,16.400 278.152 C 16.400 278.025,16.145 277.354,15.833 276.660 C 14.468 273.627,13.600 271.470,13.600 271.110 C 13.600 270.896,13.348 270.154,13.039 269.460 C 10.806 264.438,6.617 249.717,4.657 240.000 C 3.300 233.270,2.784 229.870,1.591 219.800 C 0.452 210.188,0.782 185.999,2.195 175.600 C 3.732 164.285,6.224 152.180,8.577 144.600 C 8.850 143.720,9.487 141.650,9.991 140.000 C 11.195 136.065,12.259 133.070,14.538 127.200 C 30.273 86.673,61.623 49.932,98.800 28.448 C 101.550 26.859,104.070 25.394,104.400 25.194 C 107.546 23.280,122.825 16.160,128.000 14.197 C 133.456 12.126,136.437 11.082,140.000 9.991 C 141.650 9.487,143.720 8.850,144.600 8.577 C 147.723 7.607,155.445 5.738,160.800 4.656 C 166.608 3.482,168.641 3.138,173.000 2.589 C 175.420 2.284,178.775 1.854,180.455 1.633 C 185.592 0.957,203.997 0.678,212.600 1.144 C 229.665 2.070,246.370 5.274,263.400 10.887 C 272.343 13.834,279.130 16.628,288.800 21.344 C 293.688 23.728,301.916 28.245,302.831 29.047 C 303.179 29.351,303.585 29.600,303.734 29.600 C 304.248 29.600,314.611 36.511,319.200 39.914 C 347.077 60.585,372.748 93.247,384.504 123.000 C 386.471 127.979,388.558 133.492,389.577 136.400 C 390.965 140.363,393.704 150.094,394.586 154.200 C 394.869 155.520,395.288 157.410,395.517 158.400 C 396.928 164.503,398.597 175.197,398.981 180.600 C 399.785 191.909,399.934 178.685,399.966 93.100 L 400.000 0.000 200.000 0.000 L 0.000 0.000 0.000 200.000 M186.600 6.205 C 178.915 6.725,170.967 7.705,166.918 8.632 C 165.553 8.944,163.920 9.200,163.290 9.200 C 162.661 9.200,161.258 9.447,160.173 9.750 C 159.088 10.052,156.490 10.696,154.400 11.181 C 152.310 11.665,149.790 12.301,148.800 12.594 C 147.810 12.886,145.920 13.437,144.600 13.817 C 141.655 14.667,137.516 16.043,133.800 17.410 C 132.260 17.977,130.550 18.592,130.000 18.779 C 129.013 19.113,124.324 21.066,121.600 22.277 C 118.590 23.616,108.080 28.855,105.920 30.093 C 81.851 43.891,62.810 60.220,46.789 80.800 C 35.670 95.085,25.668 112.466,19.516 128.200 C 19.172 129.080,18.604 130.520,18.254 131.400 C 16.841 134.958,13.967 143.691,12.924 147.600 C 5.796 174.316,3.665 204.447,7.393 225.824 C 7.727 227.738,7.998 229.776,7.995 230.352 C 7.992 230.929,8.273 232.750,8.618 234.400 C 10.950 245.527,11.303 247.074,12.592 251.800 C 13.415 254.818,16.003 263.212,16.600 264.800 C 16.890 265.570,17.522 267.280,18.005 268.600 C 18.488 269.920,19.119 271.540,19.408 272.200 C 19.697 272.860,20.422 274.570,21.020 276.000 C 34.641 308.585,58.621 338.504,87.400 358.820 C 95.715 364.690,98.799 366.620,107.800 371.589 C 113.667 374.828,123.110 379.245,128.800 381.412 C 129.570 381.705,131.190 382.333,132.400 382.807 C 133.610 383.281,135.140 383.820,135.800 384.004 C 136.460 384.189,138.530 384.860,140.400 385.496 C 145.192 387.127,147.667 387.834,155.600 389.841 C 157.030 390.203,159.252 390.656,160.537 390.849 C 161.823 391.041,163.044 391.303,163.250 391.431 C 163.624 391.662,168.114 392.387,174.200 393.200 C 175.960 393.435,178.840 393.828,180.600 394.073 C 185.340 394.733,210.675 394.978,215.683 394.412 C 217.947 394.156,221.510 393.790,223.600 393.599 C 229.791 393.032,242.497 390.615,250.000 388.577 C 255.955 386.959,261.492 385.266,263.114 384.567 C 263.836 384.255,264.708 384.000,265.052 384.000 C 265.395 384.000,266.154 383.752,266.738 383.449 C 267.322 383.146,268.880 382.502,270.200 382.018 C 275.520 380.067,291.489 372.669,294.400 370.807 C 294.730 370.596,297.051 369.226,299.559 367.762 C 326.912 351.794,352.399 326.166,368.337 298.600 C 369.482 296.620,370.588 294.730,370.795 294.400 C 371.741 292.893,378.445 279.026,379.786 275.800 C 380.609 273.820,381.555 271.570,381.887 270.800 C 382.219 270.030,382.904 268.139,383.410 266.598 C 383.915 265.056,384.508 263.346,384.727 262.798 C 385.125 261.805,386.306 258.009,387.403 254.200 C 390.627 243.009,392.615 232.633,394.072 219.400 C 394.784 212.932,394.786 187.497,394.075 181.000 C 393.393 174.774,392.071 165.836,391.531 163.800 C 391.297 162.920,390.969 161.300,390.803 160.200 C 390.213 156.313,386.874 144.080,384.579 137.400 C 380.947 126.826,374.798 113.156,369.827 104.600 C 369.060 103.280,368.131 101.660,367.763 101.000 C 349.372 68.065,310.830 34.601,275.200 20.632 C 274.210 20.244,272.860 19.692,272.200 19.405 C 271.540 19.118,269.920 18.490,268.600 18.010 C 267.280 17.529,265.609 16.881,264.886 16.568 C 264.164 16.256,263.315 16.000,263.000 16.000 C 262.685 16.000,261.836 15.743,261.114 15.428 C 259.862 14.884,256.134 13.748,251.800 12.591 C 250.700 12.297,248.810 11.789,247.600 11.461 C 246.390 11.134,244.770 10.750,244.000 10.609 C 243.230 10.468,241.430 10.099,240.000 9.790 C 223.261 6.164,205.149 4.948,186.600 6.205 M210.291 57.700 C 210.734 58.102,211.694 58.400,212.544 58.400 C 213.492 58.400,214.108 58.616,214.255 59.000 C 214.382 59.330,214.874 59.600,215.349 59.600 C 215.823 59.600,216.913 59.976,217.769 60.435 C 218.695 60.931,219.743 61.190,220.354 61.073 C 220.938 60.961,222.026 61.205,222.875 61.638 C 223.696 62.057,224.742 62.400,225.200 62.400 C 226.194 62.400,229.011 63.781,229.473 64.494 C 229.790 64.985,230.083 65.991,231.354 70.965 C 232.062 73.735,232.644 74.438,234.272 74.484 C 235.552 74.520,238.616 73.543,242.514 71.855 C 243.346 71.495,244.246 71.199,244.514 71.198 C 244.781 71.196,245.476 70.947,246.057 70.643 C 246.639 70.340,248.233 69.705,249.600 69.232 C 250.967 68.759,252.349 68.108,252.671 67.786 C 255.142 65.315,260.800 69.700,260.800 74.085 C 260.800 75.367,261.039 76.563,261.387 77.024 C 261.847 77.631,261.977 79.222,261.987 84.325 C 262.003 92.532,262.458 94.242,265.096 96.023 C 267.311 97.518,273.902 97.892,276.290 96.657 C 276.989 96.296,277.768 96.000,278.022 96.000 C 278.276 96.000,279.284 95.460,280.262 94.800 C 281.240 94.140,282.454 93.600,282.959 93.600 C 283.464 93.600,284.274 93.256,284.758 92.836 C 285.888 91.856,288.947 91.836,290.600 92.798 C 291.260 93.183,292.250 93.616,292.800 93.761 C 294.058 94.093,298.000 98.798,298.000 99.968 C 298.000 100.447,298.287 101.394,298.637 102.072 C 299.567 103.869,298.610 109.223,297.000 111.229 C 295.877 112.629,292.413 115.199,291.642 115.204 C 290.330 115.211,286.820 117.582,286.554 118.641 C 286.211 120.009,287.455 123.671,289.100 126.134 C 289.815 127.205,290.400 128.292,290.400 128.551 C 290.400 130.036,294.376 132.800,296.512 132.800 C 298.171 132.800,300.800 128.965,300.800 126.544 C 300.800 125.296,301.864 120.925,302.454 119.751 C 303.652 117.366,310.815 116.244,314.006 117.941 C 316.019 119.012,318.800 122.543,318.800 124.028 C 318.800 124.687,319.070 125.872,319.400 126.662 C 319.730 127.451,320.001 128.751,320.002 129.549 C 320.004 130.347,320.274 131.516,320.602 132.146 C 321.356 133.591,321.355 137.480,320.600 138.800 C 320.264 139.387,320.017 140.956,320.000 142.600 C 319.983 144.244,319.736 145.813,319.400 146.400 C 317.064 150.486,320.958 157.842,324.463 155.966 C 325.524 155.399,327.196 151.582,327.214 149.689 C 327.222 148.870,327.486 147.750,327.800 147.200 C 328.114 146.650,328.378 145.544,328.386 144.742 C 328.416 141.632,334.514 131.637,336.400 131.605 C 336.730 131.600,337.516 131.326,338.146 130.998 C 339.597 130.240,343.287 130.228,345.387 130.972 C 346.274 131.287,347.450 131.661,348.000 131.803 C 352.002 132.837,354.916 140.845,353.404 146.651 C 352.345 150.717,353.775 153.330,358.274 155.550 C 363.643 158.199,363.789 158.303,364.877 160.261 C 366.528 163.233,366.440 166.040,364.640 167.840 L 363.280 169.200 357.489 169.200 C 352.829 169.200,351.601 169.083,351.200 168.600 C 350.509 167.768,344.541 167.766,342.946 168.598 C 342.316 168.926,341.530 169.202,341.200 169.210 C 339.593 169.250,334.817 173.603,334.804 175.038 C 334.802 175.279,334.456 175.787,334.037 176.167 C 333.617 176.547,333.043 177.430,332.761 178.129 C 332.480 178.828,331.539 180.418,330.672 181.663 C 327.438 186.303,329.433 187.561,340.743 188.014 C 351.894 188.460,353.511 188.892,356.170 192.138 C 361.482 198.620,359.372 210.000,352.858 210.000 C 352.642 210.000,351.056 211.513,349.333 213.362 C 342.867 220.301,337.297 219.853,329.563 211.772 C 328.706 210.877,327.214 209.749,326.246 209.266 C 325.279 208.783,324.266 208.120,323.995 207.794 C 323.724 207.467,323.050 207.200,322.498 207.200 C 321.946 207.200,320.870 206.814,320.108 206.343 L 318.721 205.486 316.653 206.343 C 315.515 206.814,314.379 207.200,314.128 207.200 C 313.426 207.200,311.600 209.561,311.600 210.469 C 311.600 211.875,312.809 213.340,315.672 215.400 C 317.200 216.500,318.946 217.793,319.552 218.274 C 320.158 218.755,321.168 219.277,321.797 219.435 C 322.426 219.593,324.294 220.522,325.949 221.501 C 327.604 222.479,329.328 223.439,329.779 223.633 C 330.231 223.827,331.320 224.440,332.200 224.995 C 333.080 225.550,334.250 226.230,334.800 226.507 C 335.350 226.783,336.548 227.494,337.463 228.086 C 339.063 229.122,339.400 229.173,346.463 229.437 C 357.839 229.863,359.205 230.804,359.179 238.200 C 359.163 242.937,358.283 244.854,355.329 246.586 C 353.401 247.716,350.000 251.087,350.000 251.867 C 350.000 252.057,349.667 252.839,349.260 253.606 C 348.853 254.373,347.948 256.726,347.248 258.836 C 346.405 261.380,345.610 263.018,344.888 263.697 C 343.803 264.719,337.807 268.400,337.229 268.400 C 337.061 268.400,336.598 268.760,336.200 269.200 C 335.802 269.640,335.166 270.000,334.787 270.000 C 334.408 270.000,333.874 270.270,333.600 270.600 C 332.957 271.375,330.249 271.382,329.609 270.611 C 329.340 270.286,328.504 269.906,327.751 269.764 C 326.753 269.577,325.880 268.919,324.520 267.327 C 323.496 266.128,322.150 264.885,321.531 264.564 C 320.911 264.244,319.667 263.041,318.766 261.891 C 315.228 257.374,314.299 256.423,312.654 255.626 C 309.080 253.896,307.491 254.666,305.695 259.000 C 304.295 262.376,302.645 263.583,299.413 263.593 C 295.552 263.606,293.523 262.313,289.695 257.400 C 287.559 254.658,285.563 253.536,283.078 253.680 L 281.000 253.800 279.400 257.035 C 278.520 258.814,277.485 260.743,277.100 261.321 C 276.715 261.899,276.400 262.577,276.400 262.828 C 276.400 263.695,271.394 269.240,269.729 270.218 C 267.132 271.744,264.753 271.188,261.781 268.360 C 261.110 267.722,260.408 267.200,260.221 267.200 C 260.033 267.200,258.868 266.120,257.631 264.800 C 254.507 261.466,252.806 261.388,249.990 264.451 C 245.523 269.310,238.583 269.742,237.833 265.208 C 237.007 260.219,237.153 258.325,238.685 254.114 C 240.458 249.238,236.510 242.180,233.284 244.461 C 231.861 245.468,229.205 248.839,228.982 249.922 C 228.693 251.326,227.863 254.220,226.609 258.201 C 226.054 259.962,225.600 261.712,225.600 262.090 C 225.600 262.468,225.150 263.795,224.600 265.038 C 224.050 266.282,223.600 267.649,223.600 268.076 C 223.600 268.503,223.382 269.246,223.116 269.726 C 221.293 273.015,220.448 285.280,221.788 289.000 C 222.556 291.130,222.562 296.037,221.800 297.862 C 219.294 303.860,222.179 309.286,230.453 314.135 C 231.447 314.717,232.830 315.987,233.526 316.957 C 234.222 317.926,235.582 319.182,236.549 319.749 C 237.515 320.315,238.404 321.033,238.523 321.344 C 238.920 322.378,245.684 326.535,249.200 327.906 C 254.825 330.098,256.182 331.209,256.182 333.623 C 256.182 336.376,255.005 337.106,250.026 337.442 C 247.730 337.598,245.390 337.965,244.826 338.260 C 244.015 338.683,240.148 338.796,226.389 338.798 C 212.237 338.800,208.830 338.903,208.189 339.352 C 207.561 339.792,204.170 339.937,191.525 340.067 C 177.246 340.214,175.574 340.300,174.893 340.915 C 173.834 341.874,153.431 341.961,152.176 341.013 C 151.749 340.690,150.927 340.420,150.350 340.413 C 143.144 340.325,143.032 329.953,150.200 326.610 C 151.080 326.200,152.396 325.580,153.125 325.232 C 153.854 324.884,155.081 323.919,155.852 323.088 C 156.624 322.256,157.955 321.133,158.810 320.593 C 159.666 320.053,160.559 319.251,160.795 318.810 C 161.031 318.369,161.739 317.742,162.369 317.416 C 163.000 317.090,164.042 316.323,164.685 315.712 C 165.329 315.100,166.868 313.843,168.106 312.919 C 169.833 311.629,170.603 310.698,171.413 308.919 C 171.994 307.643,172.724 306.090,173.035 305.468 C 173.416 304.704,173.600 302.943,173.600 300.065 C 173.600 297.716,173.807 295.166,174.059 294.397 C 174.518 292.999,175.046 283.733,175.437 270.200 C 175.609 264.254,175.529 262.582,174.980 260.600 C 174.615 259.280,174.100 257.318,173.837 256.240 C 173.193 253.606,168.781 248.400,167.192 248.400 C 164.766 248.400,163.432 251.648,163.833 256.580 C 164.183 260.904,163.608 263.159,161.733 264.806 C 159.825 266.480,158.406 266.005,152.830 261.826 C 149.370 259.233,147.776 258.937,146.235 260.600 C 145.103 261.821,143.567 265.962,142.971 269.400 C 141.955 275.254,133.801 276.319,130.852 270.983 C 130.250 269.892,129.556 268.640,129.311 268.200 C 129.066 267.760,128.283 266.014,127.570 264.321 C 125.391 259.143,122.091 256.000,118.835 256.000 C 117.011 256.000,116.847 256.141,112.937 261.051 C 111.038 263.436,109.903 264.486,108.674 264.994 C 107.753 265.375,106.260 266.028,105.356 266.444 C 104.452 266.860,103.271 267.200,102.733 267.200 C 102.194 267.200,101.404 267.464,100.976 267.787 C 100.549 268.110,99.649 268.380,98.976 268.387 C 98.304 268.394,97.404 268.664,96.976 268.987 C 95.858 269.833,88.700 269.843,88.000 269.000 C 87.726 268.670,86.939 268.397,86.251 268.392 C 77.617 268.340,75.480 251.167,83.819 248.850 C 84.909 248.547,86.160 248.081,86.600 247.813 C 87.040 247.545,87.910 247.201,88.532 247.048 C 89.155 246.894,91.105 245.876,92.864 244.784 C 94.624 243.693,96.133 242.800,96.218 242.800 C 96.302 242.800,98.086 241.810,100.182 240.600 C 102.278 239.390,104.360 238.400,104.809 238.400 C 105.258 238.400,106.243 238.142,106.998 237.827 C 107.752 237.512,109.231 237.125,110.285 236.967 C 118.207 235.783,118.632 227.332,111.000 222.767 C 109.900 222.109,107.920 220.685,106.600 219.603 C 99.950 214.152,94.349 214.183,89.501 219.700 C 88.390 220.965,87.260 222.000,86.991 222.000 C 86.722 222.000,85.720 222.855,84.764 223.900 C 82.842 226.002,81.143 227.201,80.090 227.198 C 79.711 227.197,78.590 227.450,77.600 227.761 C 76.610 228.072,73.910 228.900,71.600 229.601 C 69.290 230.302,66.809 231.129,66.086 231.438 C 65.364 231.747,64.464 232.006,64.086 232.013 C 63.709 232.020,63.051 232.290,62.624 232.613 C 60.273 234.390,55.828 232.590,51.604 228.149 C 48.377 224.757,46.380 223.200,45.259 223.200 C 44.871 223.200,44.204 222.936,43.776 222.613 C 43.174 222.157,41.628 222.023,36.887 222.013 C 32.382 222.003,30.397 221.842,29.338 221.400 C 28.549 221.070,27.530 220.800,27.076 220.800 C 25.176 220.800,21.600 217.151,21.600 215.212 C 21.600 214.630,21.336 213.804,21.013 213.376 C 20.187 212.285,20.178 207.082,21.000 206.400 C 21.330 206.126,21.600 205.408,21.600 204.805 C 21.600 202.147,31.122 195.628,35.038 195.605 C 35.499 195.602,36.202 195.240,36.600 194.800 C 36.998 194.360,37.479 194.000,37.668 194.000 C 39.828 194.000,46.533 187.422,47.217 184.633 C 48.219 180.542,50.457 174.183,51.133 173.507 C 51.390 173.250,51.600 172.729,51.600 172.349 C 51.600 170.774,59.709 164.000,61.594 164.000 C 62.011 164.000,62.460 163.827,62.591 163.615 C 62.722 163.403,63.407 163.057,64.114 162.846 C 64.822 162.635,66.641 161.998,68.159 161.431 C 71.268 160.269,72.794 160.150,74.338 160.950 C 74.922 161.252,76.390 161.817,77.600 162.205 C 81.179 163.354,81.912 164.314,83.757 170.275 C 84.111 171.416,84.400 173.187,84.400 174.209 C 84.400 180.818,88.737 185.606,94.712 185.593 C 102.070 185.578,103.244 182.419,98.120 176.426 C 91.826 169.064,91.136 168.094,90.907 166.299 C 90.787 165.364,90.445 164.114,90.145 163.520 C 89.380 162.004,89.429 155.660,90.213 154.624 C 90.536 154.196,90.800 153.448,90.800 152.960 C 90.800 151.688,94.768 146.814,96.000 146.573 C 96.550 146.465,97.540 146.172,98.200 145.922 C 98.860 145.671,101.470 145.361,104.000 145.233 C 110.780 144.890,113.889 142.546,113.977 137.714 C 114.024 135.083,108.001 130.800,104.252 130.800 C 100.413 130.800,94.800 124.471,94.800 120.142 C 94.800 116.471,97.850 112.400,100.600 112.400 C 100.961 112.40
0,101.527 112.130,101.857 111.800 C 102.187 111.470,102.962 111.200,103.580 111.200 C 104.197 111.200,104.925 110.931,105.198 110.603 C 105.470 110.274,106.373 109.823,107.204 109.599 C 110.058 108.830,110.844 105.899,109.565 100.800 C 108.888 98.101,108.670 94.400,109.133 93.445 C 109.358 92.980,109.654 91.922,109.791 91.093 C 109.984 89.920,110.369 89.377,111.525 88.647 C 112.343 88.131,113.256 87.414,113.555 87.054 C 113.854 86.694,114.412 86.400,114.795 86.400 C 115.178 86.400,115.950 86.040,116.509 85.600 C 117.069 85.160,118.092 84.800,118.784 84.800 C 119.476 84.800,120.752 84.395,121.621 83.900 L 123.200 83.000 124.779 83.900 C 125.648 84.395,126.648 84.800,127.003 84.800 C 127.357 84.800,128.345 85.565,129.198 86.500 C 131.776 89.327,133.217 89.898,134.849 88.741 C 136.543 87.542,136.740 87.348,138.333 85.308 C 139.249 84.135,140.131 83.488,141.210 83.197 C 142.066 82.967,142.874 82.603,143.007 82.389 C 143.554 81.504,146.574 82.034,148.343 83.327 C 150.686 85.038,151.599 87.447,151.600 91.916 C 151.600 96.909,154.276 101.251,158.700 103.438 C 160.083 104.122,162.800 100.775,162.800 98.386 C 162.800 97.564,163.069 96.376,163.398 95.746 C 163.726 95.116,163.996 93.965,163.998 93.188 C 163.999 92.411,164.643 90.251,165.430 88.388 C 166.892 84.924,167.441 82.952,167.943 79.366 C 168.431 75.879,170.683 73.545,176.600 70.397 C 178.800 69.226,181.590 67.738,182.800 67.090 C 184.010 66.442,185.372 65.572,185.826 65.156 C 186.280 64.740,186.882 64.400,187.163 64.400 C 187.444 64.400,188.131 64.041,188.689 63.601 C 189.248 63.162,190.421 62.610,191.297 62.374 C 192.172 62.138,193.274 61.542,193.744 61.050 C 194.863 59.879,197.320 58.400,198.147 58.400 C 198.506 58.400,199.175 58.025,199.634 57.566 C 200.765 56.435,209.009 56.538,210.291 57.700 M219.446 80.884 C 215.109 83.442,216.301 88.800,221.207 88.800 C 223.843 88.800,227.053 82.875,225.344 81.166 C 224.109 79.932,221.290 79.797,219.446 80.884 M201.721 104.600 C 200.547 105.422,200.191 107.299,200.944 108.689 C 201.275 109.300,202.035 111.150,202.633 112.800 C 204.894 119.036,206.834 119.851,208.850 115.413 C 209.738 113.457,209.787 112.053,209.024 110.314 C 208.708 109.591,208.337 108.476,208.201 107.836 C 207.578 104.916,203.896 103.077,201.721 104.600 M188.429 127.854 C 187.213 129.399,187.441 130.637,189.320 132.700 C 191.852 135.481,194.386 131.555,192.146 128.322 C 190.876 126.490,189.626 126.332,188.429 127.854 M256.621 129.166 C 256.295 129.693,256.979 131.284,257.880 132.095 C 259.018 133.120,261.126 133.460,261.430 132.667 C 262.064 131.013,257.523 127.707,256.621 129.166 M133.600 139.800 C 133.050 140.114,132.212 140.378,131.737 140.386 C 129.072 140.430,126.537 145.915,126.000 152.800 C 125.837 154.890,125.463 157.180,125.169 157.888 C 124.706 159.002,124.726 159.435,125.319 161.088 C 125.696 162.140,126.003 163.374,126.002 163.830 C 125.993 167.754,131.058 166.449,131.872 162.318 C 132.015 161.593,132.642 159.858,133.266 158.463 C 133.890 157.067,134.400 155.588,134.400 155.175 C 134.400 153.969,135.988 151.198,138.275 148.413 C 141.423 144.581,141.199 141.836,137.590 139.995 C 135.761 139.062,134.960 139.023,133.600 139.800 M206.522 141.300 C 204.754 143.247,205.238 146.542,207.438 147.545 C 210.825 149.088,212.840 144.974,210.153 142.001 C 208.505 140.176,207.686 140.018,206.522 141.300 M286.829 153.054 C 285.828 154.327,285.805 154.729,286.659 156.011 C 288.592 158.915,292.400 158.674,292.400 155.648 C 292.400 152.816,288.459 150.981,286.829 153.054 M221.234 153.087 C 218.283 153.654,216.400 155.796,216.400 158.587 C 216.400 164.819,219.899 164.905,225.001 158.799 C 227.749 155.510,225.598 152.249,221.234 153.087 M150.000 155.200 C 150.000 155.420,150.270 155.600,150.600 155.600 C 150.930 155.600,151.200 155.420,151.200 155.200 C 151.200 154.980,150.930 154.800,150.600 154.800 C 150.270 154.800,150.000 154.980,150.000 155.200 M294.400 173.611 C 294.070 173.830,293.032 174.209,292.094 174.454 C 287.424 175.670,287.641 181.191,292.359 181.203 C 292.932 181.204,293.940 181.563,294.600 182.000 C 295.260 182.437,296.250 182.799,296.800 182.803 C 297.350 182.808,298.250 183.072,298.800 183.389 C 299.350 183.707,300.564 184.369,301.499 184.862 L 303.197 185.758 304.274 184.954 C 306.661 183.172,307.001 182.305,306.153 180.160 C 305.280 177.950,302.977 175.512,301.103 174.814 C 300.386 174.547,299.322 174.075,298.738 173.764 C 297.510 173.112,295.271 173.032,294.400 173.611 M156.586 180.781 C 156.138 180.962,155.531 181.401,155.237 181.755 C 154.943 182.110,154.475 182.400,154.197 182.400 C 153.213 182.400,151.200 187.473,151.200 189.953 C 151.200 190.853,148.676 193.194,147.686 193.213 C 147.309 193.220,146.651 193.490,146.224 193.813 C 145.796 194.136,145.094 194.400,144.662 194.400 C 143.657 194.400,140.800 197.382,140.800 198.430 C 140.800 199.741,142.664 203.010,143.666 203.457 C 145.387 204.225,146.244 203.762,153.601 198.100 C 155.388 196.725,157.002 195.600,157.190 195.600 C 157.917 195.600,161.883 192.793,163.493 191.139 C 168.081 186.426,162.672 178.314,156.586 180.781 M258.080 187.280 C 256.997 188.363,257.518 190.898,259.235 192.902 C 260.132 193.948,261.316 195.651,261.867 196.687 C 262.417 197.723,263.609 199.477,264.515 200.585 C 265.420 201.693,266.177 202.637,266.196 202.682 C 266.251 202.813,268.950 201.826,269.500 201.473 C 271.412 200.248,269.722 194.064,267.134 192.814 C 265.575 192.060,264.233 191.066,261.041 188.300 C 259.164 186.673,258.809 186.551,258.080 187.280 M99.200 197.206 C 98.870 197.423,97.930 197.786,97.111 198.013 C 95.225 198.535,93.489 200.687,93.671 202.276 C 94.144 206.399,106.230 206.655,108.406 202.588 C 110.297 199.055,102.937 194.753,99.200 197.206 M173.684 202.222 C 172.736 202.620,172.342 203.128,172.003 204.391 C 171.325 206.906,171.671 207.402,175.270 209.084 C 175.418 209.153,176.080 208.713,176.741 208.105 C 179.826 205.268,177.425 200.648,173.684 202.222 M188.243 204.633 C 187.643 206.196,188.563 207.600,190.186 207.600 C 191.613 207.600,192.100 205.757,190.971 204.629 C 190.160 203.817,188.555 203.819,188.243 204.633 M144.535 215.026 C 144.403 215.370,144.500 216.102,144.752 216.654 C 145.314 217.887,146.545 217.775,146.731 216.474 C 146.965 214.827,145.087 213.588,144.535 215.026 M399.439 216.100 C 399.295 216.815,399.002 219.543,398.788 222.161 C 398.573 224.780,398.234 227.570,398.035 228.361 C 397.835 229.153,397.556 230.880,397.416 232.200 C 397.275 233.520,396.893 235.860,396.566 237.400 C 395.236 243.668,394.234 247.987,393.319 251.400 C 392.788 253.380,392.207 255.630,392.028 256.400 C 391.549 258.463,388.159 268.453,386.531 272.600 C 384.569 277.598,383.371 280.370,381.172 285.000 C 380.545 286.320,379.840 287.850,379.606 288.400 C 378.735 290.439,373.068 300.796,371.398 303.400 C 362.657 317.027,358.210 323.063,350.175 332.200 C 338.352 345.644,323.003 358.959,309.400 367.568 C 308.080 368.403,305.740 369.895,304.200 370.882 C 299.424 373.946,287.095 380.362,280.400 383.269 C 279.410 383.699,278.287 384.219,277.905 384.425 C 277.189 384.812,276.957 384.900,270.200 387.370 C 264.749 389.362,257.543 391.731,254.400 392.564 C 252.970 392.943,250.900 393.490,249.800 393.781 C 247.664 394.345,241.592 395.685,237.000 396.605 C 232.674 397.471,223.750 398.735,220.200 398.984 C 208.805 399.783,222.174 399.934,307.300 399.966 L 400.000 400.000 400.000 307.400 C 400.000 256.470,399.933 214.800,399.850 214.800 C 399.768 214.800,399.583 215.385,399.439 216.100 M282.985 216.700 C 280.749 219.049,280.863 220.164,283.577 222.487 C 287.640 225.965,288.539 225.531,287.249 220.714 C 285.847 215.475,284.953 214.633,282.985 216.700 M203.902 217.900 C 200.845 221.340,200.490 247.584,203.456 250.862 C 205.299 252.898,208.789 251.535,209.974 248.316 C 211.800 243.359,213.507 240.258,216.338 236.760 C 217.472 235.358,218.400 234.002,218.400 233.746 C 218.400 233.489,218.848 232.317,219.396 231.140 C 221.413 226.808,220.386 225.145,215.459 224.762 C 210.922 224.409,209.294 223.332,207.272 219.349 C 206.156 217.152,205.006 216.657,203.902 217.900 M236.029 218.254 C 233.856 221.016,237.045 224.585,239.899 222.586 C 241.095 221.748,241.844 219.204,241.232 218.059 C 240.504 216.700,237.153 216.825,236.029 218.254 M258.098 228.707 C 254.453 231.192,254.729 236.106,258.723 239.809 C 261.888 242.743,267.024 238.148,265.646 233.616 C 264.583 230.122,260.202 227.273,258.098 228.707 "
         stroke="none"
         fill="#ffffff"
         fill-rule="evenodd"
         filter="url(#f157)"
         opacity="1" />
      <path
         id="path1"
         d="M186.000 1.208 C 182.810 1.364,179.660 1.610,179.000 1.755 C 178.340 1.900,175.730 2.271,173.200 2.581 C 168.663 3.135,166.697 3.464,160.800 4.656 C 155.445 5.738,147.723 7.607,144.600 8.577 C 143.720 8.850,141.650 9.487,140.000 9.991 C 136.437 11.082,133.456 12.126,128.000 14.197 C 122.825 16.160,107.546 23.280,104.400 25.194 C 104.070 25.394,101.550 26.859,98.800 28.448 C 61.623 49.932,30.273 86.673,14.538 127.200 C 12.259 133.070,11.195 136.065,9.991 140.000 C 9.487 141.650,8.850 143.720,8.577 144.600 C 6.224 152.180,3.732 164.285,2.195 175.600 C 0.782 185.999,0.452 210.188,1.591 219.800 C 2.784 229.870,3.300 233.270,4.657 240.000 C 6.617 249.717,10.806 264.438,13.039 269.460 C 13.348 270.154,13.600 270.896,13.600 271.110 C 13.600 271.470,14.468 273.627,15.833 276.660 C 16.145 277.354,16.400 278.025,16.400 278.152 C 16.400 278.924,22.588 291.526,25.854 297.404 C 39.197 321.418,58.256 343.291,80.200 359.773 C 87.249 365.067,99.474 373.056,102.800 374.542 C 103.130 374.690,104.210 375.271,105.200 375.835 C 109.330 378.186,118.390 382.595,122.705 384.355 C 124.917 385.256,131.574 387.835,133.600 388.575 C 141.455 391.444,151.018 394.008,163.400 396.566 C 165.951 397.093,171.339 397.888,181.600 399.252 C 186.568 399.913,213.161 400.196,215.496 399.614 C 216.429 399.381,218.589 399.093,220.296 398.974 C 223.761 398.733,232.714 397.463,237.000 396.605 C 241.592 395.685,247.664 394.345,249.800 393.781 C 250.900 393.490,252.970 392.943,254.400 392.564 C 257.543 391.731,264.749 389.362,270.200 387.370 C 276.957 384.900,277.189 384.812,277.905 384.425 C 278.287 384.219,279.410 383.699,280.400 383.269 C 287.095 380.362,299.424 373.946,304.200 370.882 C 305.740 369.895,308.080 368.403,309.400 367.568 C 323.003 358.959,338.352 345.644,350.175 332.200 C 358.210 323.063,362.657 317.027,371.398 303.400 C 373.068 300.796,378.735 290.439,379.606 288.400 C 379.840 287.850,380.545 286.320,381.172 285.000 C 383.371 280.370,384.569 277.598,386.531 272.600 C 388.159 268.453,391.549 258.463,392.028 256.400 C 392.207 255.630,392.788 253.380,393.319 251.400 C 395.827 242.042,397.090 235.545,398.372 225.400 C 398.622 223.420,399.040 220.270,399.302 218.400 C 399.929 213.906,400.176 187.579,399.611 185.304 C 399.380 184.371,399.092 182.211,398.971 180.504 C 398.597 175.198,396.920 164.467,395.517 158.400 C 395.288 157.410,394.869 155.520,394.586 154.200 C 393.704 150.094,390.965 140.363,389.577 136.400 C 388.558 133.492,386.471 127.979,384.504 123.000 C 372.748 93.247,347.077 60.585,319.200 39.914 C 314.611 36.511,304.248 29.600,303.734 29.600 C 303.585 29.600,303.179 29.351,302.831 29.047 C 301.334 27.735,289.227 21.379,282.200 18.216 C 252.119 4.675,222.433 -0.573,186.000 1.208 M210.800 6.013 C 222.505 6.717,230.720 7.780,240.000 9.790 C 241.430 10.099,243.230 10.468,244.000 10.609 C 244.770 10.750,246.390 11.134,247.600 11.461 C 248.810 11.789,250.700 12.297,251.800 12.591 C 256.134 13.748,259.862 14.884,261.114 15.428 C 261.836 15.743,262.685 16.000,263.000 16.000 C 263.315 16.000,264.164 16.256,264.886 16.568 C 265.609 16.881,267.280 17.529,268.600 18.010 C 269.920 18.490,271.540 19.118,272.200 19.405 C 272.860 19.692,274.210 20.244,275.200 20.632 C 310.830 34.601,349.372 68.065,367.763 101.000 C 368.131 101.660,369.060 103.280,369.827 104.600 C 374.798 113.156,380.947 126.826,384.579 137.400 C 386.874 144.080,390.213 156.313,390.803 160.200 C 390.969 161.300,391.297 162.920,391.531 163.800 C 392.071 165.836,393.393 174.774,394.075 181.000 C 394.786 187.497,394.784 212.932,394.072 219.400 C 392.615 232.633,390.627 243.009,387.403 254.200 C 386.306 258.009,385.125 261.805,384.727 262.798 C 384.508 263.346,383.915 265.056,383.410 266.598 C 382.904 268.139,382.219 270.030,381.887 270.800 C 381.555 271.570,380.609 273.820,379.786 275.800 C 378.445 279.026,371.741 292.893,370.795 294.400 C 370.588 294.730,369.482 296.620,368.337 298.600 C 352.399 326.166,326.912 351.794,299.559 367.762 C 297.051 369.226,294.730 370.596,294.400 370.807 C 291.489 372.669,275.520 380.067,270.200 382.018 C 268.880 382.502,267.322 383.146,266.738 383.449 C 266.154 383.752,265.395 384.000,265.052 384.000 C 264.708 384.000,263.836 384.255,263.114 384.567 C 261.492 385.266,255.955 386.959,250.000 388.577 C 242.497 390.615,229.791 393.032,223.600 393.599 C 221.510 393.790,217.947 394.156,215.683 394.412 C 210.675 394.978,185.340 394.733,180.600 394.073 C 178.840 393.828,175.960 393.435,174.200 393.200 C 168.114 392.387,163.624 391.662,163.250 391.431 C 163.044 391.303,161.823 391.041,160.537 390.849 C 156.313 390.216,146.978 387.735,140.400 385.496 C 138.530 384.860,136.460 384.189,135.800 384.004 C 135.140 383.820,133.610 383.281,132.400 382.807 C 131.190 382.333,129.570 381.705,128.800 381.412 C 118.846 377.621,104.105 370.050,95.000 364.053 C 61.395 341.918,35.880 311.548,21.020 276.000 C 20.422 274.570,19.697 272.860,19.408 272.200 C 19.119 271.540,18.488 269.920,18.005 268.600 C 17.522 267.280,16.890 265.570,16.600 264.800 C 16.003 263.212,13.415 254.818,12.592 251.800 C 11.303 247.074,10.950 245.527,8.618 234.400 C 8.273 232.750,7.992 230.929,7.995 230.352 C 7.998 229.776,7.727 227.738,7.393 225.824 C 3.665 204.447,5.796 174.316,12.924 147.600 C 13.967 143.691,16.841 134.958,18.254 131.400 C 18.604 130.520,19.172 129.080,19.516 128.200 C 23.304 118.512,30.173 105.136,36.051 96.000 C 44.273 83.223,52.335 73.201,62.772 62.785 C 75.998 49.587,88.689 39.971,105.920 30.093 C 108.080 28.855,118.590 23.616,121.600 22.277 C 124.324 21.066,129.013 19.113,130.000 18.779 C 130.550 18.592,132.260 17.977,133.800 17.410 C 137.516 16.043,141.655 14.667,144.600 13.817 C 145.920 13.437,147.810 12.886,148.800 12.594 C 149.790 12.301,152.310 11.665,154.400 11.181 C 156.490 10.696,159.088 10.052,160.173 9.750 C 161.258 9.447,162.661 9.200,163.290 9.200 C 163.920 9.200,165.553 8.944,166.918 8.632 C 176.961 6.334,196.625 5.160,210.800 6.013 M199.634 57.566 C 199.175 58.025,198.506 58.400,198.147 58.400 C 197.320 58.400,194.863 59.879,193.744 61.050 C 193.274 61.542,192.172 62.138,191.297 62.374 C 190.421 62.610,189.248 63.162,188.689 63.601 C 188.131 64.041,187.444 64.400,187.163 64.400 C 186.882 64.400,186.280 64.740,185.826 65.156 C 185.372 65.572,184.010 66.442,182.800 67.090 C 181.590 67.738,178.800 69.226,176.600 70.397 C 170.683 73.545,168.431 75.879,167.943 79.366 C 167.441 82.952,166.892 84.924,165.430 88.388 C 164.643 90.251,163.999 92.411,163.998 93.188 C 163.996 93.965,163.726 95.116,163.398 95.746 C 163.069 96.376,162.800 97.564,162.800 98.386 C 162.800 100.775,160.083 104.122,158.700 103.438 C 154.276 101.251,151.600 96.909,151.600 91.916 C 151.599 87.447,150.686 85.038,148.343 83.327 C 146.574 82.034,143.554 81.504,143.007 82.389 C 142.874 82.603,142.066 82.967,141.210 83.197 C 140.131 83.488,139.249 84.135,138.333 85.308 C 134.477 90.245,132.812 90.462,129.198 86.500 C 128.345 85.565,127.357 84.800,127.003 84.800 C 126.648 84.800,125.648 84.395,124.779 83.900 L 123.200 83.000 121.621 83.900 C 120.752 84.395,119.476 84.800,118.784 84.800 C 118.092 84.800,117.069 85.160,116.509 85.600 C 115.950 86.040,115.178 86.400,114.795 86.400 C 114.412 86.400,113.854 86.694,113.555 87.054 C 113.256 87.414,112.343 88.131,111.525 88.647 C 110.369 89.377,109.984 89.920,109.791 91.093 C 109.654 91.922,109.358 92.980,109.133 93.445 C 108.670 94.400,108.888 98.101,109.565 100.800 C 110.844 105.899,110.058 108.830,107.204 109.599 C 106.373 109.823,105.470 110.274,105.198 110.603 C 104.925 110.931,104.197 111.200,103.580 111.200 C 102.962 111.200,102.187 111.470,101.857 111.800 C 101.527 112.130,100.961 112.400,100.600 112.400 C 97.850 112.400,94.800 116.471,94.800 120.142 C 94.800 124.471,100.413 130.800,104.252 130.800 C 108.001 130.800,114.024 135.083,113.977 137.714 C 113.889 142.546,110.780 144.890,104.000 145.233 C 101.470 145.361,98.860 145.671,98.200 145.922 C 97.540 146.172,96.550 146.465,96.000 146.573 C 94.768 146.814,90.800 151.688,90.800 152.960 C 90.800 153.448,90.536 154.196,90.213 154.624 C 89.429 155.660,89.380 162.004,90.145 163.520 C 90.445 164.114,90.787 165.364,90.907 166.299 C 91.136 168.094,91.826 169.064,98.120 176.426 C 103.244 182.419,102.070 185.578,94.712 185.593 C 88.737 185.606,84.400 180.818,84.400 174.209 C 84.400 173.187,84.111 171.416,83.757 170.275 C 81.912 164.314,81.179 163.354,77.600 162.205 C 76.390 161.817,74.922 161.252,74.338 160.950 C 72.794 160.150,71.268 160.269,68.159 161.431 C 66.641 161.998,64.822 162.635,64.114 162.846 C 63.407 163.057,62.722 163.403,62.591 163.615 C 62.460 163.827,62.011 164.000,61.594 164.000 C 59.709 164.000,51.600 170.774,51.600 172.349 C 51.600 172.729,51.390 173.250,51.133 173.507 C 50.457 174.183,48.219 180.542,47.217 184.633 C 46.533 187.422,39.828 194.000,37.668 194.000 C 37.479 194.000,36.998 194.360,36.600 194.800 C 36.202 195.240,35.499 195.602,35.038 195.605 C 31.122 195.628,21.600 202.147,21.600 204.805 C 21.600 205.408,21.330 206.126,21.000 206.400 C 20.178 207.082,20.187 212.285,21.013 213.376 C 21.336 213.804,21.600 214.630,21.600 215.212 C 21.600 217.151,25.176 220.800,27.076 220.800 C 27.530 220.800,28.549 221.070,29.338 221.400 C 30.397 221.842,32.382 222.003,36.887 222.013 C 41.628 222.023,43.174 222.157,43.776 222.613 C 44.204 222.936,44.871 223.200,45.259 223.200 C 46.380 223.200,48.377 224.757,51.604 228.149 C 55.828 232.590,60.273 234.390,62.624 232.613 C 63.051 232.290,63.709 232.020,64.086 232.013 C 64.464 232.006,65.364 231.747,66.086 231.438 C 66.809 231.129,69.290 230.302,71.600 229.601 C 73.910 228.900,76.610 228.072,77.600 227.761 C 78.590 227.450,79.711 227.197,80.090 227.198 C 81.143 227.201,82.842 226.002,84.764 223.900 C 85.720 222.855,86.722 222.000,86.991 222.000 C 87.260 222.000,88.390 220.965,89.501 219.700 C 94.349 214.183,99.950 214.152,106.600 219.603 C 107.920 220.685,109.900 222.109,111.000 222.767 C 118.632 227.332,118.207 235.783,110.285 236.967 C 109.231 237.125,107.752 237.512,106.998 237.827 C 106.243 238.142,105.258 238.400,104.809 238.400 C 104.360 238.400,102.278 239.390,100.182 240.600 C 98.086 241.810,96.302 242.800,96.218 242.800 C 96.133 242.800,94.624 243.693,92.864 244.784 C 91.105 245.876,89.155 246.894,88.532 247.048 C 87.910 247.201,87.040 247.545,86.600 247.813 C 86.160 248.081,84.909 248.547,83.819 248.850 C 75.480 251.167,77.617 268.340,86.251 268.392 C 86.939 268.397,87.726 268.670,88.000 269.000 C 88.700 269.843,95.858 269.833,96.976 268.987 C 97.404 268.664,98.304 268.394,98.976 268.387 C 99.649 268.380,100.549 268.110,100.976 267.787 C 101.404 267.464,102.194 267.200,102.733 267.200 C 103.271 267.200,104.452 266.860,105.356 266.444 C 106.260 266.028,107.753 265.375,108.674 264.994 C 109.903 264.486,111.038 263.436,112.937 261.051 C 116.847 256.141,117.011 256.000,118.835 256.000 C 122.091 256.000,125.391 259.143,127.570 264.321 C 128.283 266.014,129.066 267.760,129.311 268.200 C 129.556 268.640,130.250 269.892,130.852 270.983 C 133.801 276.319,141.955 275.254,142.971 269.400 C 143.567 265.962,145.103 261.821,146.235 260.600 C 147.776 258.937,149.370 259.233,152.830 261.826 C 158.406 266.005,159.825 266.480,161.733 264.806 C 163.608 263.159,164.183 260.904,163.833 256.580 C 163.432 251.648,164.766 248.400,167.192 248.400 C 168.781 248.400,173.193 253.606,173.837 256.240 C 174.100 257.318,174.615 259.280,174.980 260.600 C 175.529 262.582,175.609 264.254,175.437 270.200 C 175.046 283.733,174.518 292.999,174.059 294.397 C 173.807 295.166,173.600 297.716,173.600 300.065 C 173.600 302.943,173.416 304.704,173.035 305.468 C 172.724 306.090,171.994 307.643,171.413 308.919 C 170.603 310.698,169.833 311.629,168.106 312.919 C 166.868 313.843,165.329 315.100,164.685 315.712 C 164.042 316.323,163.000 317.090,162.369 317.416 C 161.739 317.742,161.031 318.369,160.795 318.810 C 160.559 319.251,159.666 320.053,158.810 320.593 C 157.955 321.133,156.624 322.256,155.852 323.088 C 155.081 323.919,153.854 324.884,153.125 325.232 C 152.396 325.580,151.080 326.200,150.200 326.610 C 143.032 329.953,143.144 340.325,150.350 340.413 C 150.927 340.420,151.749 340.690,152.176 341.013 C 153.431 341.961,173.834 341.874,174.893 340.915 C 175.574 340.300,177.246 340.214,191.525 340.067 C 204.170 339.937,207.561 339.792,208.189 339.352 C 208.830 338.903,212.237 338.800,226.389 338.798 C 240.148 338.796,244.015 338.683,244.826 338.260 C 245.390 337.965,247.730 337.598,250.026 337.442 C 255.005 337.106,256.182 336.376,256.182 333.623 C 256.182 331.209,254.825 330.098,249.200 327.906 C 245.684 326.535,238.920 322.378,238.523 321.344 C 238.404 321.033,237.515 320.315,236.549 319.749 C 235.582 319.182,234.222 317.926,233.526 316.957 C 232.830 315.987,231.447 314.717,230.453 314.135 C 222.179 309.286,219.294 303.860,221.800 297.862 C 222.562 296.037,222.556 291.130,221.788 289.000 C 220.448 285.280,221.293 273.015,223.116 269.726 C 223.382 269.246,223.600 268.503,223.600 268.076 C 223.600 267.649,224.050 266.282,224.600 265.038 C 225.150 263.795,225.600 262.468,225.600 262.090 C 225.600 261.712,226.054 259.962,226.609 258.201 C 227.863 254.220,228.693 251.326,228.982 249.922 C 229.205 248.839,231.861 245.468,233.284 244.461 C 236.510 242.180,240.458 249.238,238.685 254.114 C 237.153 258.325,237.007 260.219,237.833 265.208 C 238.583 269.742,245.523 269.310,249.990 264.451 C 252.806 261.388,254.507 261.466,257.631 264.800 C 258.868 266.120,260.033 267.200,260.221 267.200 C 260.408 267.200,261.110 267.722,261.781 268.360 C 264.753 271.188,267.132 271.744,269.729 270.218 C 271.394 269.240,276.400 263.695,276.400 262.828 C 276.400 262.577,276.715 261.899,277.100 261.321 C 277.485 260.743,278.520 258.814,279.400 257.035 L 281.000 253.800 283.078 253.680 C 285.563 253.536,287.559 254.658,289.695 257.400 C 293.523 262.313,295.552 263.606,299.413 263.593 C 302.645 263.583,304.295 262.376,305.695 259.000 C 307.491 254.666,309.080 253.896,312.654 255.626 C 314.299 256.423,315.228 257.374,318.766 261.891 C 319.667 263.041,320.911 264.244,321.531 264.564 C 322.150 264.885,323.496 266.128,324.520 267.327 C 325.880 268.919,326.753 269.577,327.751 269.764 C 328.504 269.906,329.340 270.286,329.609 270.611 C 330.249 271.382,332.957 271.375,333.600 270.600 C 333.874 270.270,334.408 270.000,334.787 270.000 C 335.166 270.000,335.802 269.640,336.200 269.200 C 336.598 268.760,337.061 268.400,337.229 268.400 C 337.807 268.400,343.803 264.719,344.888 263.697 C 345.610 263.018,346.405 261.380,347.248 258.836 C 347.948 256.726,348.853 254.373,349.260 253.606 C 349.667 252.839,350.000 252.057,350.000 251.867 C 350.000 251.087,353.401 247.716,355.329 246.586 C 358.283 244.854,359.163 242.937,359.179 238.200 C 359.205 230.804,357.839 229.863,346.463 229.437 C 339.400 229.173,339.063 229.122,337.463 228.086 C 336.548 227.494,335.350 226.783,334.800 226.507 C 334.250 226.230,333.080 225.550,332.200 224.995 C 331.320 224.440,330.231 223.827,329.779 223.633 C 329.328 223.439,327.604 222.479,325.949 221.501 C 324.294 220.522,322.426 219.593,321.797 219.435 C 321.168 219.277,320.158 218.755,319.552 218.274 C 318.946 217.793,317.200 216.500,315.672 215.400 C 312.809 213.340,311.600 211.875,311.600 210.469 C 311.600 209.561,313.426 207.200,314.128 207.200 C 314.379 207.200,315.515 206.814,316.653 206.343 L 318.721 205.486 320.108 206.343 C 320.870 206.814,321.946 207.200,322.498 207.200 C 323.050 207.200,323.724 207.467,323.995 207.794 C 324.266 208.120,325.279 208.783,326.246 209.266 C 327.214 209.749,328.706 210.877,329.563 211.772 C 337.297 219.853,342.867 220.301,349.333 213.362 C 351.056 211.513,352.642 210.000,352.858 210.000 C 359.372 210.000,361.482 198.620,356.170 192.138 C 353.511 188.892,351.894 188.460,340.743 188.014 C 329.433 187.561,327.438 186.303,330.672 181.663 C 331.539 180.418,332.480 178.828,332.761 178.129 C 333.043 177.430,333.617 176.547,334.037 176.167 C 334.456 175.787,334.802 175.279,334.804 175.038 C 334.817 173.603,339.593 169.250,341.200 169.210 C 341.530 169.202,342.316 168.926,342.946 168.598 C 344.541 167.766,350.509 167.768,351.200 168.600 C 351.601 169.083,352.829 169.200,357.489 169.200 L 363.280 169.200 364.640 167.840 C 366.440 166.040,366.528 163.233,364.877 160.261 C 363.789 158.303,363.643 158.199,358.274 155.550 C 353.775 153.330,352.345 150.717,353.404 146.651 C 354.916 140.845,352.002 132.837,348.000 131.803 C 347.450 131.661,346.274 131.287,345.387 130.972 C 343.287 130.228,339.597 130.240,338.146 130.998 C 337.516 131.326,336.730
 131.600,336.400 131.605 C 334.514 131.637,328.416 141.632,328.386 144.742 C 328.378 145.544,328.114 146.650,327.800 147.200 C 327.486 147.750,327.222 148.870,327.214 149.689 C 327.196 151.582,325.524 155.399,324.463 155.966 C 320.958 157.842,317.064 150.486,319.400 146.400 C 319.736 145.813,319.983 144.244,320.000 142.600 C 320.017 140.956,320.264 139.387,320.600 138.800 C 321.355 137.480,321.356 133.591,320.602 132.146 C 320.274 131.516,320.004 130.347,320.002 129.549 C 320.001 128.751,319.730 127.451,319.400 126.662 C 319.070 125.872,318.800 124.687,318.800 124.028 C 318.800 122.543,316.019 119.012,314.006 117.941 C 310.815 116.244,303.652 117.366,302.454 119.751 C 301.864 120.925,300.800 125.296,300.800 126.544 C 300.800 128.965,298.171 132.800,296.512 132.800 C 294.376 132.800,290.400 130.036,290.400 128.551 C 290.400 128.292,289.815 127.205,289.100 126.134 C 287.455 123.671,286.211 120.009,286.554 118.641 C 286.820 117.582,290.330 115.211,291.642 115.204 C 292.413 115.199,295.877 112.629,297.000 111.229 C 298.610 109.223,299.567 103.869,298.637 102.072 C 298.287 101.394,298.000 100.447,298.000 99.968 C 298.000 98.798,294.058 94.093,292.800 93.761 C 292.250 93.616,291.260 93.183,290.600 92.798 C 288.947 91.836,285.888 91.856,284.758 92.836 C 284.274 93.256,283.464 93.600,282.959 93.600 C 282.454 93.600,281.240 94.140,280.262 94.800 C 279.284 95.460,278.276 96.000,278.022 96.000 C 277.768 96.000,276.989 96.296,276.290 96.657 C 273.902 97.892,267.311 97.518,265.096 96.023 C 262.458 94.242,262.003 92.532,261.987 84.325 C 261.977 79.222,261.847 77.631,261.387 77.024 C 261.039 76.563,260.800 75.367,260.800 74.085 C 260.800 69.700,255.142 65.315,252.671 67.786 C 252.349 68.108,250.967 68.759,249.600 69.232 C 248.233 69.705,246.639 70.340,246.057 70.643 C 245.476 70.947,244.781 71.196,244.514 71.198 C 244.246 71.199,243.346 71.495,242.514 71.855 C 238.616 73.543,235.552 74.520,234.272 74.484 C 232.644 74.438,232.062 73.735,231.354 70.965 C 230.083 65.991,229.790 64.985,229.473 64.494 C 229.011 63.781,226.194 62.400,225.200 62.400 C 224.742 62.400,223.696 62.057,222.875 61.638 C 222.026 61.205,220.938 60.961,220.354 61.073 C 219.743 61.190,218.695 60.931,217.769 60.435 C 216.913 59.976,215.823 59.600,215.349 59.600 C 214.874 59.600,214.382 59.330,214.255 59.000 C 214.108 58.616,213.492 58.400,212.544 58.400 C 211.694 58.400,210.734 58.102,210.291 57.700 C 209.009 56.538,200.765 56.435,199.634 57.566 M225.344 81.166 C 227.053 82.875,223.843 88.800,221.207 88.800 C 219.683 88.800,217.144 87.505,216.777 86.540 C 215.232 82.476,222.251 78.073,225.344 81.166 M206.616 105.336 C 207.351 106.071,208.064 107.196,208.201 107.836 C 208.337 108.476,208.708 109.591,209.024 110.314 C 209.787 112.053,209.738 113.457,208.850 115.413 C 206.834 119.851,204.894 119.036,202.633 112.800 C 202.035 111.150,201.275 109.300,200.944 108.689 C 198.969 105.045,203.593 102.313,206.616 105.336 M192.146 128.322 C 194.386 131.555,191.852 135.481,189.320 132.700 C 187.441 130.637,187.213 129.399,188.429 127.854 C 189.626 126.332,190.876 126.490,192.146 128.322 M259.322 129.545 C 261.909 131.251,262.297 133.519,259.920 133.044 C 258.441 132.748,257.255 131.783,256.751 130.466 C 256.077 128.703,257.352 128.246,259.322 129.545 M137.590 139.995 C 141.199 141.836,141.423 144.581,138.275 148.413 C 135.988 151.198,134.400 153.969,134.400 155.175 C 134.400 155.588,133.890 157.067,133.266 158.463 C 132.642 159.858,132.015 161.593,131.872 162.318 C 131.058 166.449,125.993 167.754,126.002 163.830 C 126.003 163.374,125.696 162.140,125.319 161.088 C 124.726 159.435,124.706 159.002,125.169 157.888 C 125.463 157.180,125.837 154.890,126.000 152.800 C 126.537 145.915,129.072 140.430,131.737 140.386 C 132.212 140.378,133.050 140.114,133.600 139.800 C 134.960 139.023,135.761 139.062,137.590 139.995 M210.153 142.001 C 212.840 144.974,210.825 149.088,207.438 147.545 C 205.238 146.542,204.754 143.247,206.522 141.300 C 207.686 140.018,208.505 140.176,210.153 142.001 M290.314 152.672 C 293.381 154.570,293.080 158.000,289.848 158.000 C 288.431 158.000,287.664 157.522,286.659 156.011 C 284.975 153.483,287.661 151.030,290.314 152.672 M225.500 154.113 C 227.416 155.872,226.023 158.594,221.349 162.223 C 218.193 164.673,216.400 163.356,216.400 158.587 C 216.400 154.065,222.293 151.168,225.500 154.113 M151.200 155.200 C 151.200 155.420,150.930 155.600,150.600 155.600 C 150.270 155.600,150.000 155.420,150.000 155.200 C 150.000 154.980,150.270 154.800,150.600 154.800 C 150.930 154.800,151.200 154.980,151.200 155.200 M298.738 173.764 C 299.322 174.075,300.386 174.547,301.103 174.814 C 302.977 175.512,305.280 177.950,306.153 180.160 C 307.001 182.305,306.661 183.172,304.274 184.954 L 303.197 185.758 301.499 184.862 C 300.564 184.369,299.350 183.707,298.800 183.389 C 298.250 183.072,297.350 182.808,296.800 182.803 C 296.250 182.799,295.260 182.437,294.600 182.000 C 293.940 181.563,292.932 181.204,292.359 181.203 C 287.641 181.191,287.424 175.670,292.094 174.454 C 293.032 174.209,294.070 173.830,294.400 173.611 C 295.271 173.032,297.510 173.112,298.738 173.764 M161.989 180.912 C 163.393 181.623,165.187 185.375,165.186 187.600 C 165.185 189.937,159.525 195.600,157.190 195.600 C 157.002 195.600,155.388 196.725,153.601 198.100 C 146.244 203.762,145.387 204.225,143.666 203.457 C 142.664 203.010,140.800 199.741,140.800 198.430 C 140.800 197.382,143.657 194.400,144.662 194.400 C 145.094 194.400,145.796 194.136,146.224 193.813 C 146.651 193.490,147.309 193.220,147.686 193.213 C 148.676 193.194,151.200 190.853,151.200 189.953 C 151.200 187.473,153.213 182.400,154.197 182.400 C 154.475 182.400,154.943 182.110,155.237 181.755 C 156.361 180.401,160.065 179.938,161.989 180.912 M261.041 188.300 C 264.233 191.066,265.575 192.060,267.134 192.814 C 269.722 194.064,271.412 200.248,269.500 201.473 C 268.950 201.826,266.251 202.813,266.196 202.682 C 266.177 202.637,265.420 201.693,264.515 200.585 C 263.609 199.477,262.417 197.723,261.867 196.687 C 261.316 195.651,260.132 193.948,259.235 192.902 C 255.897 189.007,257.409 185.152,261.041 188.300 M107.052 198.228 C 110.586 201.974,107.592 205.600,100.966 205.600 C 93.756 205.600,90.790 199.763,97.111 198.013 C 97.930 197.786,98.870 197.423,99.200 197.206 C 100.869 196.110,105.640 196.731,107.052 198.228 M177.709 203.620 C 178.703 205.553,176.806 209.802,175.270 209.084 C 171.671 207.402,171.325 206.906,172.003 204.391 C 172.810 201.390,176.320 200.917,177.709 203.620 M190.971 204.629 C 192.100 205.757,191.613 207.600,190.186 207.600 C 189.162 207.600,188.000 206.645,188.000 205.804 C 188.000 204.027,189.698 203.355,190.971 204.629 M146.382 214.978 C 147.045 215.777,146.747 217.364,145.904 217.524 C 145.095 217.679,144.167 215.985,144.535 215.026 C 144.836 214.242,145.751 214.218,146.382 214.978 M285.773 216.502 C 286.799 218.069,288.203 223.957,287.676 224.484 C 286.931 225.229,282.638 222.339,281.595 220.391 C 280.404 218.165,284.415 214.431,285.773 216.502 M205.784 217.449 C 206.142 217.586,206.811 218.441,207.272 219.349 C 209.294 223.332,210.922 224.409,215.459 224.762 C 220.386 225.145,221.413 226.808,219.396 231.140 C 218.848 232.317,218.400 233.489,218.400 233.746 C 218.400 234.002,217.472 235.358,216.338 236.760 C 213.507 240.258,211.800 243.359,209.974 248.316 C 209.042 250.848,208.139 251.600,206.033 251.600 C 202.167 251.600,201.600 249.466,201.600 234.924 C 201.600 221.053,202.742 216.282,205.784 217.449 M241.232 218.059 C 241.844 219.204,241.095 221.748,239.899 222.586 C 237.045 224.585,233.856 221.016,236.029 218.254 C 237.153 216.825,240.504 216.700,241.232 218.059 M263.707 230.462 C 266.547 233.736,266.575 237.110,263.781 239.563 C 259.285 243.511,252.918 235.390,256.598 230.402 C 258.634 227.643,261.281 227.665,263.707 230.462 "
         stroke="none"
         fill="#3c6833"
         fill-rule="evenodd"
         filter="url(#f157)"
         opacity="1" />
    </g>
  </g>
  <defs
     id="defs3053">
    <filter
       id="f157"
       inkscape:menu-tooltip="Make the lightest parts of the object progressively transparent"
       inkscape:menu="Transparency utilities"
       inkscape:label="Light eraser"
       height="1"
       width="1"
       y="0"
       x="0"
       color-interpolation-filters="sRGB">
      <feColorMatrix
         result="result14"
         type="luminanceToAlpha"
         in="SourceGraphic"
         id="feColorMatrix3056" />
      <feComposite
         in="SourceGraphic"
         in2="result14"
         result="fbSourceGraphic"
         operator="out"
         id="feComposite3058" />
      <feBlend
         mode="normal"
         in2="fbSourceGraphic"
         result="result15"
         id="feBlend3060" />
    </filter>
  </defs>
</svg>
