<?xml version="1.0" encoding="UTF-8"?>
<svg width="52.917mm" height="68.917mm" version="1.1" viewBox="0 0 52.917 68.917" xmlns="http://www.w3.org/2000/svg">
 <g transform="matrix(.30137 0 0 .30137 -87.969 -37.773)">
  <path d="m378.61 182.65-24.002 50.734-0.0103 0.0202c0 2e-3 0 4e-3 -3e-3 6e-3l-7e-3 0.015v2e-3c-0.0708 0.16707-0.0212 0.35027 0.11885 0.41961 0.14015 0.0693 0.31625-3e-3 0.40616-0.1602l3e-3 -2e-3 8e-3 -0.0145c0-2e-3 3e-3 -4e-3 3e-3 -5e-3l0.0103-0.0201 23.471-46.435-7.243 48.635-4e-3 0.0222c0 2e-3 -2.1e-4 4e-3 0 6e-3l-3e-3 0.0165v2e-3c-0.0196 0.18037 0.081 0.34141 0.23514 0.36742 0.15417 0.026 0.30194-0.0935 0.34261-0.27027v-2e-3l3e-3 -0.016v-6e-3l4e-3 -0.0222 8.154-43.214 0.59841 30.962v0.0467c8e-3 0.13583 0.0806 0.25015 0.18243 0.29869 0.0338 0.0161 0.0712 0.0247 0.11007 0.0248 0.0389-8e-5 0.0768-9e-3 0.11059-0.0248 0.0338-0.0162 0.0643-0.0397 0.0904-0.0687 0.0523-0.0582 0.0866-0.13941 0.092-0.22996v-0.018c6e-5 -2e-3 0-4e-3 0-6e-3v-0.0227l0.59841-30.962 8.1546 43.214 4e-3 0.0222v6e-3l3e-3 0.016v2e-3c0.0407 0.17679 0.18843 0.29626 0.34261 0.27027 0.15417-0.026 0.25471-0.18705 0.23513-0.36743v-2e-3l-3e-3 -0.0165c0-2e-3 -2.1e-4 -4e-3 0-6e-3l-4e-3 -0.0222-7.243-48.634 23.471 46.434 0.0103 0.0202c0 1e-3 3e-3 3e-3 3e-3 5e-3l8e-3 0.0145 3e-3 2e-3c0.0899 0.15713 0.26604 0.2295 0.40619 0.1602 0.14013-0.0693 0.18966-0.25255 0.11885-0.41962v-2e-3l-7e-3 -0.015c0-2e-3 0-4e-3 -3e-3 -6e-3l-0.0106-0.0202-24.002-50.734c-0.53607 0.21224-0.89482 0.36294-1.3317 0.54416h-2.1032c-0.43688-0.18122-0.79563-0.33192-1.3317-0.54416z" fill="#c59854" style="paint-order:markers fill stroke"/>
  <path transform="scale(.26458)" d="m1438.1 848.89s-11.869 13.71-11.869 30.621c0 16.546 11.291 29.937 11.781 30.512l-5.9206 282.06h12.017l-5.9206-282.06c0.4907-0.5744 11.781-13.966 11.781-30.512 0-16.911-11.869-30.621-11.869-30.621zm-31.795 47.021c-1.3716 5.5736-1.1257 10.496 0.207 14.789 1.8894 6.085 5.9603 10.907 10.695 14.529 5.152 3.9409 11.3 4.3033 15.723 7.5058 0.964-14.531-2.6156-22.363-8.6602-27.58-5.0787-4.3833-12.213-6.1028-17.965-9.2441zm63.59 0c-5.7513 3.1408-12.885 4.8612-17.963 9.2441-6.0446 5.2169-9.6261 13.049-8.6622 27.58 4.4229-3.2026 10.571-3.565 15.723-7.5058 4.7351-3.6221 8.806-8.4443 10.695-14.529 1.3328-4.2933 1.5786-9.2155 0.207-14.789zm-68.492 27.795c-1.5623 6.3485-1.2799 11.955 0.2382 16.846 2.1521 6.9311 6.7883 12.423 12.182 16.549 5.8682 4.4889 12.87 4.901 17.908 8.5488 1.098-16.551-2.9803-25.474-9.8652-31.416-5.7849-4.9928-13.912-6.9492-20.463-10.527zm73.394 0c-6.5513 3.5782-14.678 5.5346-20.463 10.527-6.885 5.9422-10.963 14.865-9.8652 31.416 5.0378-3.6478 12.04-4.06 17.908-8.5488 5.3934-4.1257 10.03-9.6177 12.182-16.549 1.5182-4.8902 1.8006-10.497 0.2383-16.846zm-79.059 30.855c-4.4071 17.909 3.7594 30.759 14.494 38.971 6.8481 5.2384 15.02 5.7196 20.898 9.9766 1.2813-19.315-3.4791-29.726-11.514-36.66-6.7508-5.8264-16.234-8.1115-23.879-12.287zm84.723 0c-7.6452 4.1756-17.128 6.4607-23.879 12.287-8.0345 6.9344-12.793 17.345-11.512 36.66 5.879-4.257 14.048-4.7382 20.896-9.9766 10.735-8.2114 18.901-21.062 14.494-38.971zm-91.877 36.863c-5.1803 21.05 4.4173 36.155 17.035 45.807 8.0493 6.1573 17.654 6.7229 24.564 11.727 1.5062-22.703-4.0891-34.941-13.533-43.092-7.935-6.8485-19.08-9.5333-28.066-14.441zm99.033 0c-8.9862 4.9081-20.133 7.5929-28.068 14.441-9.444 8.1508-15.039 20.388-13.533 43.092 6.9103-5.0037 16.515-5.5693 24.564-11.727 12.618-9.6519 22.217-24.756 17.037-45.807zm-107.01 43.676c-6.0116 24.428 5.1268 41.955 19.77 53.156 9.3411 7.1454 20.487 7.8008 28.506 13.607 1.7478-26.347-4.7436-40.547-15.703-50.006-9.2082-7.9475-22.144-11.062-32.572-16.758zm114.99 0c-10.428 5.6957-23.364 8.8103-32.572 16.758-10.96 9.4589-17.451 23.659-15.703 50.006 8.0191-5.8066 19.165-6.462 28.506-13.607 14.643-11.201 25.781-28.728 19.77-53.156z" fill="#c59854" style="paint-order:markers fill stroke"/>
  <path transform="scale(.26458)" d="m1605.3 623.99c-4.4796 30.858 13.462 50.242 31.346 57.902 1.3309 4.8064 2.9987 9.7662 5.3789 15.02-10.339-11.373-21.946-22.126-34.856-32.113-11.043-21.025-31.119-32.45-54.93-26.676 15.189 32.1 35.16 33.357 53.768 31.73 11.096 8.0152 21.572 17.361 31.268 27.799-16.351-14.316-43.186-20.296-63.887-11.254 24.339 28.676 55.02 25.63 71.664 20.064 6.7779 8.0812 13.11 16.716 18.91 25.84-12.84-6.9657-23.538-11.015-37.232-13.006a4.3239 4.3239 0 0 0-4.5918-3.8477 4.3239 4.3239 0 0 0-4.0175 4.6094 4.3239 4.3239 0 0 0 4.6093 4.0176 4.3239 4.3239 0 0 0 3.7207-2.7226c14.568 2.1174 25.566 6.5836 39.783 14.6 6.2659 10.238 11.88 21.046 16.738 32.32-2.4291-2.3988-4.8518-4.5356-7.2695-6.4922-10.518-22.45-35.53-34.745-61.256-28.254 18.124 31.914 42.208 31.975 59.465 29.486 3.758 3.0048 7.5138 6.408 11.285 10.592 2.6425 6.5298 5.0252 13.209 7.1465 20.008-11.274-10.796-20.869-17.842-34.189-23.502a4.3239 4.3239 0 0 0-3.4629-4.8848 4.3239 4.3239 0 0 0-5.0586 3.4356 4.3239 4.3239 0 0 0 3.4336 5.0586 4.3239 4.3239 0 0 0 4.2929-1.6894c14.122 5.9994 23.819 13.426 36.234 25.664 2.7943 9.5065 5.0608 19.244 6.752 29.156-1.8026-3.001-3.6477-5.7233-5.5274-8.2207-5.8489-23.563-27.672-41.947-53.656-41.34 10.76 35.709 35.324 42.302 52.805 43.686 2.5081 3.4385 4.9522 7.2861 7.3066 11.752 1.0811 7.3771 1.8311 14.844 2.252 22.377-9.8244-11.31-18.54-18.994-30.9-25.734a4.3239 4.3239 45 0 0-2.9688-5.1992 4.3239 4.3239 45 0 0-5.3691 2.9258 4.3239 4.3239 45 0 0 2.9258 5.3691 4.3239 4.3239 45 0 0 4.4355-1.2637c12.854 7.0092 21.592 14.971 32.062 27.312 0.671 15.946-0.2072 32.175-2.7812 48.469-1.8341-4.5014-3.8375-8.4715-5.9473-12.088 1.6543-24.56-16.248-53.319-41.225-60.793-0.802 37.428 23.542 55.722 39.889 62.609 2.3907 4.185 4.6232 8.8622 6.6191 14.311-0.8755 4.9927-1.9252 9.9887-3.1309 14.984-7.2331-14.263-14.023-24.216-24.92-34.094a4.3239 4.3239 0 0 0-1.6641-5.7539 4.3239 4.3239 0 0 0-5.9062 1.582 4.3239 4.3239 0 0 0 1.584 5.9062 4.3239 4.3239 0 0 0 4.6055-0.1836c11.239 10.188 17.949 20.335 25.545 35.67-3.8033 14.889-9.1139 29.752-16.061 44.428-0.6552-3.5753-1.4594-6.8772-2.3769-9.9688 8.3791-23.639 0.2866-56.811-20.598-71.035-11.87 34.873 5.0642 59.428 18.477 71.164 1.1937 3.9514 2.1937 8.2577 2.9297 13.061-4.624 9.4218-9.9134 18.762-15.943 27.975 2.0703-16.287 0.3203-30.722-1.8008-42.418a4.3239 4.3239 0 0 0 2.0645-5.6777 4.3239 4.3239 0 0 0-5.7227-2.1543 4.3239 4.3239 0 0 0-2.1543 5.7246 4.3239 4.3239 0 0 0 3.7735 2.5293c2.2861 12.623 4.1132 28.319 1.1465 46.041-3.5463 5.2117-7.3269 10.38-11.35 15.498-0.013 0.016-0.026 0.033-0.039 0.049 10.002-21.102 10.233-51.829-6.5235-73.539-23.126 32.297-9.4254 65.771 0.9297 80.346-4.5331 5.3016-9.4958 10.609-14.772 15.742 1.5819-9.9365 0.6946-19.6-0.5918-28.037a4.3239 4.3239 0 0 0 2.4766-5.4043 4.3239 4.3239 0 0 0-5.4883-2.6953 4.3239 4.3239 0 0 0-2.6953 5.4883 4.3239 4.3239 0 0 0 3.6485 2.8984c1.3954 9.153 2.2874 19.634 0.086 30.207-5.4426 5.1392-11.177 10.071-17.086 14.602-0.3822 0.2931-0.7745 0.5793-1.1583 0.8711 12.636-17.66 17.166-47.408 3.754-70.836-24.514 26.291-15.611 59.071-7.8047 73.881-5.9137 4.3612-12.042 8.5708-18.475 12.584 2.6397-7.1756 3.5104-14.134 4.1621-21.105a4.3239 4.3239 0 0 0 3.7558-4.5762 4.3239 4.3239 0 0 0-4.6054-4.0234 4.3239 4.3239 0 0 0-4.0235 4.6035 4.3239 4.3239 0 0 0 2.8047 3.7578c-0.7262 7.7851-1.7061 15.336-5.0605 23.168-16.203 9.8073-34.387 18.34-56.002 24.828 8.4701-13.656 11.284-25.128 14.025-36.428a4.3239 4.3239 0 0 0 4.207-4.3203 4.3239 4.3239 0 0 0-4.3242-4.3222 4.3239 4.3239 0 0 0-4.3242 4.3222 4.3239 4.3239 0 0 0 2.4082 3.8711c-2.8691 11.831-5.7311 23.507-15.027 37.772-7.9508 2.2819-16.369 4.2858-25.309 5.9844 18.491-11.186 34.531-37.626 31.139-64.758-31.713 15.372-35.864 48.837-34.354 65.236-31.402 3.4497-70.848 5.1153-129.12 41.625h21.07c20.31-12.001 49.382-27.585 87.471-32.33 8.989 0.7442 16.309 2.448 22.822 4.6387 14.394 16.21 43.616 27.139 69.785 18.596-21.341-28.514-55.489-25.88-71.084-21.186-3.7541-1.1766-7.7799-2.1959-12.23-2.9667 1.1329-0.084 2.2683-0.1649 3.416-0.2286 4.3085-0.2358 9.0283-0.1492 13.566-1.2793 6.9767-1.4417 13.818-3.1149 20.514-4.9843 7.9378 1.3368 14.746 3.5374 21.602 5.7636a4.3239 4.3239 0 0 0 2.0332 4.0782 4.3239 4.3239 0 0 0 5.9492-1.4141 4.3239 4.3239 0 0 0-1.4141-5.9492 4.3239 4.3239 0 0 0-5.8867 1.3203c-5.6919-1.8494-11.426-3.709-17.846-5.0723 5.5221-1.6325 10.935-3.4038 16.227-5.3027 15.764 15.354 47.027 23.908 72.133 12.305-19.518-20.175-44.054-20.527-60.645-16.697 7.4554-3.0386 14.626-6.3348 21.48-9.8476 14.489 0.8521 24.714 4.6148 35.061 8.4355a4.3239 4.3239 0 0 0 1.8671 4.1563 4.3239 4.3239 0 0 0 6.002-1.1778 4.3239 4.3239 0 0 0-1.1777-6 4.3239 4.3239 0 0 0-5.9297 1.0781c-9.5688-3.5317-19.27-7.0899-32.348-8.3066 4.8653-2.5872 9.5588-5.2854 14.068-8.082 19.372 13.161 53.224 15.989 77.607-1.3887-22.765-17.348-47.455-14.196-64.438-7.4355 4.8545-3.5172 9.4299-7.1512 13.701-10.883 9.3948-0.8622 17.454-0.1369 25.582 0.6036a4.3239 4.3239 0 0 0 2.8848 3.5253 4.3239 4.3239 0 0 0 5.4883-2.6972 4.3239 4.3239 0 0 0-2.6954-5.4883 4.3239 4.3239 0 0 0-5.4472 2.5898c-4.2629-0.3873-8.544-0.7771-13.039-0.9336-3.2684-0.1137-6.6684-0.08-10.23 0.1407 3.4082-3.0852 6.6538-6.157 9.752-9.2129 23.723 9.0542 59.986 3.2608 79.705-21.338-29.943-12.241-55.002-0.8638-69.912 11.197 4.6584-5.0691 8.9205-10.077 12.793-15 11.39-4.0725 21.009-5.0309 30.734-5.9903a4.3239 4.3239 0 0 0 3.4961 2.9199 4.3239 4.3239 0 0 0 4.8848-3.6816 4.3239 4.3239 0 0 0-3.6797-4.8828 4.3239 4.3239 0 0 0-4.8653 3.5742c-8.9017 0.8783-17.904 1.7771-28.279 5.0996 1.4469-1.9004 2.8295-3.7857 4.1661-5.6582 3.3607-2.6302 6.5958-4.8576 9.7343-6.7578 26.77 5.4794 47.934-5.7985 59.461-32.305-29.656-7.4278-48.622 10.202-59.398 29.859-2.0082 1.1765-4.0528 2.4747-6.1406 3.9199 1.2623-1.8836 2.4801-3.7542 3.6348-5.6035 6.2268-9.9731 11.766-20.329 16.6-30.98 10.581-3.3458 19.653-4.1184 28.82-4.8887a4.3239 4.3239 0 0 0 3.4531 2.9727 4.3239 4.3239 0 0 0 4.9375-3.6094 4.3239 4.3239 0 0 0-3.6093-4.9356 4.3239 4.3239 0 0 0-4.9141 3.4941c-8.6941 0.73052-17.481 1.4812-27.58 4.4609 1.3583-3.0763 2.6657-6.1728 3.9063-9.2949 28.371 5.0535 50.608-7.4046 62.551-35.727-27.451-6.5517-46.22 6.6268-58.188 23.936 1.8574-5.397 3.5435-10.849 5.0528-16.348 11.892-7.7128 22.183-10.779 32.602-13.855a4.3239 4.3239 0 0 0 3.9844 2.2148 4.3239 4.3239 0 0 0 4.1055-4.5312 4.3239 4.3239 0 0 0-4.5313-4.1074 4.3239 4.3239 0 0 0-4.1074 4.418c-9.8853 2.9187-19.904 5.8976-31.262 12.896 1.3377-5.1006 2.5233-10.238 3.5586-15.406 29.064 2.1441 47.375-12.938 56.016-40.947-28.294-2.2527-45.311 13.636-54.682 33.793 0.8386-4.868 1.5491-9.7568 2.1172-14.664 10.793-13.07 21.046-19.285 31.447-25.549a4.3239 4.3239 0 0 0 4.416 1.1387 4.3239 4.3239 0 0 0 2.8301-5.4199 4.3239 4.3239 0 0 0-5.4199-2.8301 4.3239 4.3239 0 0 0-2.8633 5.3066c-9.7882 5.8961-19.715 11.915-30.014 23.672 0.311-3.0568 0.5646-6.119 0.7696-9.1855l0.1601-0.25196c1.4414-2.2866 2.8886-4.3846 4.3399-6.3516 25.375-9.0387 38.263-29.128 35.978-56.924-29.768 7.9491-37.699 32.887-37.461 55.443-0.9216 1.2397-1.8415 2.5195-2.7579 3.8789 0.4902-9.628 0.458-19.29-0.1132-28.936 7.9054-15.794 16.817-24.246 25.863-32.789a4.3239 4.3239 0 0 0 4.5547 0.17187 4.3239 4.3239 0 0 0 1.6114-5.9004 4.3239 4.3239 0 0 0-5.9004-1.6094 4.3239 4.3239 0 0 0-1.6641 5.793c-8.4781 8.0084-17.067 16.167-24.742 30.373-0.2744-3.6819-0.6305-7.3585-1.0625-11.031 1.9746-3.0128 3.6757-5.9154 5.1504-8.7285 23.116-16.206 30.402-39.46 21.629-65.471-27.372 15.105-30.3 44.098-24.383 66.189-0.8563 1.5552-1.7801 3.1373-2.7891 4.7559-1.4696-11.26-3.6883-22.458-6.6718-33.514 4.5894-16.13 11.415-25.892 18.352-35.762a4.3239 4.3239 0 0 0 4.4981-0.74219 4.3239 4.3239 0 0 0 0.3984-6.1016 4.3239 4.3239 0 0 0-6.1035-0.39844 4.3239 4.3239 0 0 0-0.4707 6.0098c-6.4937 9.2407-13.064 18.644-17.723 33.264-0.7767-2.7121-1.585-5.4186-2.455-8.1113l0.125-0.61133c1.1899-5.8204 1.7433-11.091 1.9121-16.021 17.29-19.416 19.124-42.003 6.1914-63.703-19.896 18.645-17.212 44.268-8.2403 62.641-0.1008 4.2583-0.4882 8.7647-1.3379 13.678-3.5976-10.525-7.9156-20.882-12.976-31.002h0.014l-0.016-1.041c-0.2919-18.121 3.8588-29.861 8.084-41.766a4.3239 4.3239 0 0 0 4.1348-1.9219 4.3239 4.3239 0 0 0-1.252-5.9863 4.3239 4.3239 0 0 0-5.9863 1.2539 4.3239 4.3239 0 0 0 1.1562 5.916c-3.9923 11.253-8.0167 22.691-8.2109 39.463-2.1131-4.0386-4.3552-8.034-6.709-11.988 1.1666-4.3786 1.9457-8.4649 2.4512-12.34 11.401-26.244 6.0175-46.829-13.398-63.311-13.662 27.885-3.1669 50.023 11.383 62.709-0.42 3.3094-1.0406 6.7708-1.9414 10.449-5.9774-9.7817-12.702-19.281-20.193-28.432-3.4719-14.699-2.6739-25.848-1.8379-37.129a4.3239 4.3239 0 0 0 3.4844-2.9453 4.3239 4.3239 0 0 0-2.7891-5.4414 4.3239 4.3239 0 0 0-5.4414 2.7871 4.3239 4.3239 0 0 0 2.6758 5.4024c-0.7629 10.294-1.5114 20.739 1.0371 33.865-0.1609-0.18975-0.3227-0.37893-0.4844-0.56836-4.4058-7.9014-6.9726-15.031-8.8652-21.91 2.5518-28.173-9.9223-47.48-33.285-57.15zm-23.658 396.37c-36.051 20.784-36.272 59.145-32.355 76.283 21.86-13.055 39.747-45.455 32.355-76.283z" fill="#1b6f2b" style="paint-order:markers fill stroke"/>
  <path d="m337.45 165.1c1.1852 8.1645-3.5617 13.293-8.2936 15.32-0.35213 1.2717-0.7934 2.584-1.4232 3.9739 2.7356-3.0092 5.8065-5.8541 9.2222-8.4966 2.9219-5.5628 8.2336-8.5857 14.533-7.058-4.0189 8.493-9.3029 8.8258-14.226 8.3954-2.9358 2.1207-5.7076 4.5935-8.2729 7.3551 4.3262-3.7879 11.426-5.37 16.903-2.9776-6.4397 7.5871-14.557 6.7813-18.961 5.3087-1.7933 2.1382-3.4686 4.4228-5.0033 6.8368 3.3973-1.843 6.2279-2.9144 9.8511-3.4411a1.144 1.144 0 0 1 1.2149-1.018 1.144 1.144 0 0 1 1.063 1.2196 1.144 1.144 0 0 1-1.2196 1.063 1.144 1.144 0 0 1-0.98443-0.72037c-3.8544 0.56024-6.7643 1.7419-10.526 3.8628-1.6578 2.7089-3.1433 5.5685-4.4287 8.5514 0.6427-0.63468 1.2837-1.2 1.9234-1.7177 2.7828-5.9398 9.4006-9.1929 16.207-7.4755-4.7953 8.444-11.168 8.46-15.733 7.8016-0.99431 0.79501-1.988 1.6955-2.9858 2.8024-0.69916 1.7277-1.3296 3.4948-1.8908 5.2937 2.983-2.8563 5.5217-4.7206 9.046-6.2182a1.144 1.144 0 0 1 0.91622-1.2924 1.144 1.144 0 0 1 1.3384 0.90899 1.144 1.144 0 0 1-0.90847 1.3384 1.144 1.144 0 0 1-1.1358-0.447c-3.7365 1.5874-6.3021 3.5523-9.587 6.7903-0.73932 2.5153-1.339 5.0916-1.7865 7.7143 0.47693-0.79402 0.96512-1.5143 1.4624-2.1751 1.5475-6.2344 7.3214-11.098 14.197-10.938-2.847 9.4481-9.3462 11.192-13.971 11.558-0.6636 0.90977-1.3103 1.9278-1.9332 3.1094-0.28604 1.9518-0.48448 3.9275-0.59584 5.9206 2.5994-2.9926 4.9054-5.0254 8.1757-6.8089a1.144 1.144 0 0 1 0.7855-1.3756 1.144 1.144 0 0 1 1.4206 0.77411 1.144 1.144 0 0 1-0.77412 1.4206 1.144 1.144 0 0 1-1.1736-0.33435c-3.4009 1.8545-5.713 3.9612-8.4832 7.2264-0.17753 4.219 0.0548 8.513 0.73586 12.824 0.48527-1.191 1.0153-2.2414 1.5736-3.1983-0.4377-6.498 4.2989-14.107 10.907-16.085 0.21219 9.9028-6.2288 14.743-10.554 16.565-0.63254 1.1073-1.2232 2.3448-1.7513 3.7863 0.23164 1.321 0.50938 2.6428 0.82838 3.9646 1.9138-3.7738 3.7103-6.407 6.5934-9.0206a1.144 1.144 0 0 1 0.4403-1.5224 1.144 1.144 0 0 1 1.5627 0.41858 1.144 1.144 0 0 1-0.4191 1.5627 1.144 1.144 0 0 1-1.2185-0.0486c-2.9736 2.6955-4.7491 5.3802-6.7588 9.4377 1.0063 3.9395 2.4114 7.872 4.2494 11.755 0.17336-0.94597 0.38614-1.8196 0.62889-2.6376-2.217-6.2544-0.0758-15.031 5.4498-18.795 3.1405 9.2267-1.3399 15.724-4.8886 18.829-0.31583 1.0455-0.58042 2.1848-0.77515 3.4556 1.2234 2.4928 2.6229 4.9642 4.2184 7.4016-0.54777-4.3092-0.0848-8.1285 0.47646-11.223a1.144 1.144 0 0 1-0.54623-1.5022 1.144 1.144 0 0 1 1.5141-0.57 1.144 1.144 0 0 1 0.56999 1.5146 1.144 1.144 0 0 1-0.99841 0.66921c-0.60486 3.3398-1.0883 7.4929-0.30334 12.182 0.93829 1.3789 1.9386 2.7464 3.0029 4.1005 3e-3 4e-3 7e-3 9e-3 0.0103 0.013-2.6463-5.5833-2.7076-13.713 1.726-19.457 6.1188 8.5452 2.4938 17.402-0.24598 21.258 1.1994 1.4027 2.5124 2.8069 3.9083 4.1651-0.41854-2.629-0.18378-5.186 0.15658-7.4182a1.144 1.144 0 0 1-0.65527-1.4299 1.144 1.144 0 0 1 1.4521-0.71313 1.144 1.144 0 0 1 0.71313 1.4521 1.144 1.144 0 0 1-0.96533 0.76687c-0.3692 2.4217-0.60521 5.1949-0.0228 7.9923 1.44 1.3598 2.9573 2.6645 4.5206 3.8633 0.10112 0.0776 0.20492 0.15327 0.30647 0.23048-3.3432-4.6724-4.5417-12.543-0.99325-18.742 6.486 6.9561 4.1303 15.629 2.065 19.548 1.5647 1.1539 3.1862 2.2677 4.8881 3.3295-0.69842-1.8985-0.9288-3.7395-1.1012-5.5841a1.144 1.144 0 0 1-0.99372-1.2108 1.144 1.144 0 0 1 1.2185-1.0645 1.144 1.144 0 0 1 1.0646 1.218 1.144 1.144 0 0 1-0.74207 0.99426c0.19214 2.0598 0.4514 4.0577 1.3389 6.1298 4.287 2.5948 9.0981 4.8524 14.817 6.5691-2.241-3.6132-2.9855-6.6484-3.7109-9.6382a1.144 1.144 0 0 1-1.1131-1.1431 1.144 1.144 0 0 1 1.1441-1.1436 1.144 1.144 0 0 1 1.1441 1.1436 1.144 1.144 0 0 1-0.63717 1.0242c0.75912 3.1304 1.5164 6.2196 3.976 9.9937 2.1036 0.60376 4.331 1.134 6.6962 1.5834-4.8925-2.9595-9.1364-9.9553-8.2388-17.134 8.3908 4.0671 9.489 12.921 9.0894 17.26 8.3084 0.9127 18.745 1.3534 34.163 11.013h-5.5748c-5.3736-3.1752-13.066-7.2986-23.143-8.554-2.3783 0.19691-4.3151 0.6477-6.0384 1.2273-3.8084 4.289-11.54 7.1806-18.464 4.9201 5.6466-7.5442 14.681-6.8474 18.808-5.6054 0.99327-0.31131 2.0584-0.581 3.236-0.78494-0.29975-0.0222-0.60016-0.0436-0.90382-0.0605-1.14-0.0624-2.3887-0.0395-3.5894-0.33848-1.8459-0.38145-3.6561-0.82415-5.4276-1.3188-2.1002 0.35369-3.9016 0.93593-5.7154 1.525a1.144 1.144 0 0 1-0.53795 1.079 1.144 1.144 0 0 1-1.5741-0.37415 1.144 1.144 0 0 1 0.37415-1.574 1.144 1.144 0 0 1 1.5575 0.34932c1.506-0.48932 3.023-0.98134 4.7217-1.342-1.4611-0.43193-2.8932-0.90059-4.2933-1.403-4.1708 4.0624-12.442 6.3257-19.085 3.2556 5.1642-5.338 11.656-5.4312 16.046-4.4178-1.9726-0.80396-3.8697-1.6761-5.6834-2.6055-3.8336 0.22545-6.5388 1.221-9.2764 2.2319a1.144 1.144 0 0 1-0.494 1.0997 1.144 1.144 0 0 1-1.588-0.31162 1.144 1.144 0 0 1 0.3116-1.5875 1.144 1.144 0 0 1 1.5689 0.28524c2.5317-0.93442 5.0984-1.8759 8.5587-2.1978-1.2873-0.68453-2.5291-1.3984-3.7223-2.1384-5.1255 3.4823-14.082 4.2304-20.534-0.36742 6.0232-4.5901 12.556-3.756 17.049-1.9673-1.2844-0.93059-2.495-1.8921-3.6251-2.8794-2.4857-0.22812-4.6181-0.0362-6.7686 0.15971a1.144 1.144 0 0 1-0.76327 0.93273 1.144 1.144 0 0 1-1.4521-0.71363 1.144 1.144 0 0 1 0.71315-1.4521 1.144 1.144 0 0 1 1.4412 0.68522c1.1279-0.10247 2.2606-0.2056 3.4499-0.24701 0.86477-0.0301 1.7644-0.0212 2.7068 0.0372-0.90175-0.81629-1.7605-1.629-2.5802-2.4376-6.2767 2.3956-15.871 0.86276-21.089-5.6456 7.9224-3.2387 14.553-0.22854 18.498 2.9626-1.2325-1.3412-2.3602-2.6662-3.3848-3.9688-3.0136-1.0775-5.5586-1.3311-8.1318-1.5849a1.144 1.144 0 0 1-0.92501 0.77255 1.144 1.144 0 0 1-1.2924-0.97409 1.144 1.144 0 0 1 0.97358-1.2919 1.144 1.144 0 0 1 1.2873 0.94567c2.3552 0.23238 4.7372 0.47019 7.4822 1.3493-0.38282-0.50281-0.74864-1.0016-1.1023-1.4971-0.88918-0.6959-1.7451-1.2852-2.5755-1.788-7.0828 1.4498-12.683-1.5342-15.732-8.5473 7.8466-1.9653 12.865 2.6993 15.716 7.9003 0.53134 0.31128 1.0723 0.65476 1.6247 1.0371-0.33398-0.49837-0.65619-0.9933-0.96171-1.4826-1.6475-2.6387-3.1131-5.3788-4.392-8.1969-2.7995-0.88523-5.1999-1.0897-7.6254-1.2935a1.144 1.144 0 0 1-0.91364 0.78652 1.144 1.144 0 0 1-1.3064-0.95498 1.144 1.144 0 0 1 0.95496-1.3059 1.144 1.144 0 0 1 1.3002 0.92449c2.3003 0.19329 4.6252 0.3919 7.2972 1.1803-0.35939-0.81394-0.7053-1.6332-1.0336-2.4593-7.5066 1.3371-13.39-1.9591-16.55-9.4526 7.263-1.7335 12.229 1.7534 15.395 6.333-0.49143-1.428-0.93755-2.8704-1.3369-4.3253-3.1464-2.0407-5.8692-2.8519-8.6258-3.6659a1.144 1.144 0 0 1-1.0542 0.58601 1.144 1.144 0 0 1-1.0862-1.1989 1.144 1.144 0 0 1 1.1989-1.0868 1.144 1.144 0 0 1 1.0868 1.1689c2.6155 0.77224 5.2663 1.5604 8.2713 3.4122-0.35393-1.3495-0.66762-2.7089-0.94154-4.0762-7.6898 0.56729-12.535-3.4232-14.821-10.834 7.4862-0.59603 11.988 3.608 14.468 8.9411-0.22188-1.288-0.40986-2.5815-0.56017-3.8799-2.8558-3.4581-5.5685-5.1024-8.3204-6.7598a1.144 1.144 0 0 1-1.1684 0.30127 1.144 1.144 0 0 1-0.7488-1.434 1.144 1.144 0 0 1 1.434-0.74879 1.144 1.144 0 0 1 0.75758 1.404c2.5898 1.56 5.2163 3.1526 7.9411 6.2632-0.0823-0.80878-0.14939-1.619-0.20363-2.4303l-0.0424-0.0667c-0.38137-0.60499-0.76427-1.1601-1.1483-1.6805-6.7137-2.3915-10.124-7.7068-9.5193-15.061 7.876 2.1032 9.9744 8.7014 9.9115 14.669 0.24384 0.32802 0.48723 0.66663 0.72969 1.0263-0.1297-2.5474-0.12118-5.1037 0.0299-7.6559-2.0916-4.1789-4.4494-6.4151-6.843-8.6754a1.144 1.144 0 0 1-1.2051 0.0455 1.144 1.144 0 0 1-0.42635-1.5612 1.144 1.144 0 0 1 1.5612-0.42581 1.144 1.144 0 0 1 0.44029 1.5327c2.2432 2.1189 4.5155 4.2775 6.5464 8.0362 0.0726-0.97417 0.16682-1.9469 0.28112-2.9187-0.52245-0.79714-0.97253-1.5651-1.3627-2.3094-6.1162-4.2877-8.0438-10.441-5.7226-17.322 7.2423 3.9965 8.0169 11.668 6.4513 17.513 0.22656 0.41148 0.47099 0.83007 0.73795 1.2583 0.38883-2.9793 0.97586-5.9421 1.7652-8.8672-1.2143-4.2676-3.0201-6.8506-4.8555-9.462a1.144 1.144 0 0 1-1.1901-0.19638 1.144 1.144 0 0 1-0.10541-1.6144 1.144 1.144 0 0 1 1.6149-0.10542 1.144 1.144 0 0 1 0.12454 1.5901c1.7181 2.4449 3.4564 4.933 4.6891 8.801 0.2055-0.71758 0.41936-1.4337 0.64955-2.1461l-0.0331-0.16175c-0.31483-1.54-0.46125-2.9346-0.50591-4.239-4.5748-5.1372-5.06-11.113-1.6381-16.855 5.2641 4.9332 4.5539 11.713 2.1802 16.574 0.0267 1.1267 0.12917 2.319 0.35398 3.6189 0.95187-2.7847 2.0943-5.525 3.4334-8.2026h-4e-3l4e-3 -0.27543c0.0772-4.7946-1.021-7.9007-2.1389-11.05a1.144 1.144 0 0 1-1.094-0.5085 1.144 1.144 0 0 1 0.33126-1.5839 1.144 1.144 0 0 1 1.5839 0.33176 1.144 1.144 0 0 1-0.30591 1.5653c1.0563 2.9773 2.1211 6.0035 2.1725 10.441 0.55909-1.0685 1.1523-2.1257 1.7751-3.1719-0.30867-1.1585-0.5148-2.2397-0.64855-3.2649-3.0165-6.9437-1.5921-12.39 3.545-16.751 3.6148 7.3778 0.83791 13.235-3.0117 16.592 0.11113 0.87561 0.27533 1.7914 0.51367 2.7647 1.5815-2.5881 3.3608-5.1015 5.3428-7.5225 0.91861-3.8891 0.70747-6.8391 0.48628-9.8237a1.144 1.144 0 0 1-0.92191-0.77928 1.144 1.144 0 0 1 0.73795-1.4397 1.144 1.144 0 0 1 1.4397 0.73742 1.144 1.144 0 0 1-0.70797 1.4294c0.20185 2.7237 0.39989 5.4873-0.2744 8.9602 0.0426-0.0502 0.0854-0.10026 0.12816-0.15038 1.1657-2.0905 1.8449-3.9769 2.3456-5.797-0.67516-7.4541 2.6253-12.563 8.8067-15.121zm6.2596 104.87c9.5386 5.4992 9.5971 15.649 8.5607 20.183-5.7838-3.4541-10.516-12.027-8.5607-20.183z" fill="#1b6f2b" style="paint-order:markers fill stroke"/>
  <path transform="matrix(1.4566 .2315 -.23071 1.4616 19.462 -75.054)" d="m286.93 142.07-17.429-8.1928-14.044 13.178 2.406-19.108-16.873-9.2848 18.916-3.6164 3.6164-18.916 9.2848 16.873 19.108-2.406-13.178 14.044z" fill="#c59854" stroke="#c59854" stroke-linecap="square" stroke-width=".51147" style="paint-order:markers fill stroke"/>
  <g fill="#fff">
   <path d="m381.13 166.57 1e-3 -38.996 9.3625 26.063z" style="paint-order:markers fill stroke"/>
   <path d="m381.13 166.57-36.962-12.051 27.597-0.88157z" style="paint-order:markers fill stroke"/>
   <path d="m418.1 154.52-36.962 12.051 15.149 4.9398z" style="paint-order:markers fill stroke"/>
   <path d="m381.13 166.57-15.152 4.9401-7.694 26.61z" style="paint-order:markers fill stroke"/>
   <path d="m403.97 198.12-22.842-31.547v15.988z" style="paint-order:markers fill stroke"/>
  </g>
  <path d="m319.78 292-16.732 16.081c6.3764 8.6485 13.711 14.697 21.903 18.615 21.422 10.244 47.685 9.0484 54.743 17.487 7.0578-8.4386 33.321-7.2428 54.743-17.487 8.1927-3.9178 15.527-9.9661 21.903-18.615l-16.732-16.081c-7.9951 7.0931-17.389 11.171-27.801 13.427-10.89 2.3605-25.737 0.63038-32.114 9.8881-6.3769-9.2578-21.223-7.5276-32.114-9.8881-10.412-2.2567-19.806-6.3343-27.801-13.427z" fill="#c59854" style="paint-order:markers fill stroke"/>
  <path d="m303 310.1c0.41061 7.7239-1.522 12.104-6.6185 11.86 8.1783 2.9715 12.443 1.144 18.322-0.25703-4.0072-3.0661-7.9458-6.6508-11.703-11.603z" fill="#886932" style="paint-order:markers fill stroke"/>
  <path d="m456.38 310.1c-3.7576 4.9523-7.6962 8.5369-11.703 11.603 5.879 1.4011 10.144 3.2285 18.322 0.25703-5.0965 0.24436-7.0291-4.1362-6.6185-11.86z" fill="#886932" style="paint-order:markers fill stroke"/>
  <path d="m296.58 311.43a4.6798 4.7156 0 0 0-4.6797 4.7156 4.6798 4.7156 0 0 0 4.6797 4.7155 4.6798 4.7156 0 0 0 4.6797-4.7155 4.6798 4.7156 0 0 0-4.6797-4.7156z" fill="#c59854" style="paint-order:markers fill stroke"/>
  <path d="m462.81 311.43a4.6798 4.7156 0 0 0-4.6797 4.7156 4.6798 4.7156 0 0 0 4.6797 4.7155 4.6798 4.7156 0 0 0 4.6797-4.7155 4.6798 4.7156 0 0 0-4.6797-4.7156z" fill="#c59854" style="paint-order:markers fill stroke"/>
  <path transform="scale(.26458)" d="m1198.8 1162.7c-0.048 0.011-0.089 0.038-0.1269 0.082-0.1508 0.178-0.041 0.3587 0.2383 0.5957 0.356 0.3016 0.7654 0.6927 0.9257 0.916 0.6883 0.8892 0.5471 1.4693-0.1347 2.3769-0.6388 0.8569-1.2417 1.5685-4.5176 5.4336l-3.793 4.4766c-1.9828 2.3394-3.6844 4.3484-4.7168 5.3086-0.7267 0.6512-1.329 1.1028-1.9238 0.7734-0.2721-0.1432-0.6186-0.3523-1-0.6757-0.305-0.2586-0.4723-0.268-0.5801-0.1407-0.1508 0.178-0.038 0.4054 0.293 0.6856 0.5086 0.431 1.212 0.9398 1.7969 1.4355 0.6318 0.4918 1.1929 0.9661 1.4726 1.2031 0.3814 0.3232 1.122 0.996 1.8418 1.6934 0.7159 0.6504 1.4097 1.3254 1.7149 1.584 4.6788 3.9656 9.1822 2.9319 11.488 0.2109 2.5217-2.9751 1.508-6.9347 0.025-9.414 2.3469 0.067 4.6-0.167 6.3672-2.252 1.1423-1.3477 2.419-4.5033-2.1836-8.4043-0.8645-0.7328-1.9219-1.4966-3.1679-2.5527-0.5086-0.431-2.0449-1.8656-3.3926-3.0078-0.2861-0.2424-0.4833-0.3599-0.627-0.3282zm470.98 5.3985c-0.1328-0.035-0.3284 0.053-0.5703 0.2304-0.5483 0.4023-2.3716 1.8395-2.9844 2.2891-0.8385 0.6152-1.885 1.2825-2.8203 1.9688-0.3224 0.2366-0.4369 0.4197-0.2949 0.6132 0.1655 0.2257 0.4466 0.07 0.7519-0.055 0.5547-0.2582 0.8732-0.096 1.0625 0.1621 0.2604 0.3549 0.4872 0.934 0.6465 1.7597 0.1958 1.1461 1.0514 9.5478 1.1699 10.453-1.0516-0.4192-9.4703-4.1163-10.602-4.5762-0.5097-0.2215-0.8754-0.45-1.041-0.6758-0.1656-0.2256-0.098-0.473 0.08-0.7031 0.3568-0.4603 0.5504-0.6024 0.3848-0.8281-0.1421-0.1936-0.3496-0.1386-0.6074 0.051-0.8701 0.6384-1.4867 1.1267-2.1446 1.6387-0.075-0.039-0.1466-0.046-0.2285 0.01-0.1013 0.064-0.2955 0.2801-0.7265 0.6464-0.3972 0.3451-0.9981 0.8185-1.9454 1.4161l-12.076 7.6191c-0.9811 0.6189-2.1189 1.2888-3.0625 1.7422-0.8083 0.3681-1.2632 0.3231-1.5 0.4726-0.1051 0.066-0.1201 0.2041-0.094 0.3809-1.1876 0.6684-2.782 1.6069-3.4629 1.9805-0.8767 0.481-3.0204 1.5662-4.1777 2.2011-0.4909 0.2695-0.6978 0.4731-0.6016 0.6485 0.1539 0.2804 0.368 0.2551 0.6836 0.082 0.3858-0.2116 0.7908-0.3893 1.1993-0.4765 0.7817-0.1554 1.2898 0.024 1.9179 1.0019 0.5546 0.9276 1.0158 1.7693 3.4981 6.293l2.8867 5.2597c1.5779 2.8756 2.8867 5.2601 3.4199 6.5645 0.3757 0.9344 0.4312 1.4508-0.123 1.9375-0.2419 0.2241-0.5734 0.451-1.0293 0.7012-0.3858 0.2116-0.3953 0.4456-0.3184 0.5859 0.1153 0.2105 0.3838 0.1999 0.7695-0.012 1.2274-0.6735 3.2753-1.9335 3.9766-2.3184 0.8416-0.4618 3.0032-1.5109 5.0371-2.6269 0.3507-0.1924 0.5373-0.4322 0.4219-0.6426-0.077-0.1402-0.3133-0.2393-0.6641-0.047-0.4558 0.2502-1.1755 0.601-1.6347 0.7617-0.9888 0.3602-1.4503 0.02-1.9981-0.7285-0.833-1.1854-2.1409-3.5717-3.7187-6.4472l-2.8868-5.2598c-2.4822-4.5238-2.9432-5.3643-3.3925-6.3496-0.5072-1.0905-0.4933-1.646 0.2714-2.2481 0.058-0.049 0.1051-0.082 0.1582-0.125 0.2479 0.7045 1.15 3.1014 1.42 3.5293 0.192 0.3047 0.3675 0.431 0.5703 0.3028 0.2029-0.1282 0.1851-0.3066 0.1035-0.586-0.061-0.2456-0.1617-0.7027-0.1133-1.3008 0.034-0.9202 0.6182-1.573 2.3223-2.6953l4.3672-2.8965 7.3398 11.637c1.6646 2.6388 3.0936 4.9057 3.7266 6.209 0.432 0.9098 0.6055 1.5567 0.082 2.0761-0.1943 0.217-0.5445 0.4862-0.9844 0.7637-0.3722 0.2347-0.3686 0.4682-0.2832 0.6035 0.1282 0.203 0.3955 0.1761 0.7676-0.059 1.1841-0.7469 3.1495-2.1298 3.8262-2.5566 0.8458-0.5335 2.9069-1.69 4.8691-2.9278 0.3383-0.2135 0.5108-0.4649 0.3828-0.6679-0.085-0.1353-0.3276-0.2194-0.666 0-0.4398 0.2774-1.1373 0.6709-1.5859 0.8593-0.965 0.4196-1.4762-0.016-2.0899-0.7636-0.9249-1.1664-2.3881-3.412-4.0527-6.0508l-7.3418-11.637 3.7988-2.3008c0.7316-0.4487 1.3543-0.7377 1.8965-0.9199 0.4246 0.1019 0.8786 0.229 1.4004 0.4023 2.0646 0.7178 10.36 3.9083 10.861 4.1856 0.9786 0.5223 1.6616 0.9149 2.75 2.3984l1.6563 2.2578c0.3315 0.4515 1.1609 1.5805 1.916 2.8125 0.5271 0.8536 0.6794 1.5349 0.1934 2.0899-0.2106 0.2539-0.5427 0.5461-0.9297 0.83-0.3224 0.2366-0.3332 0.4941-0.2383 0.6231 0.1655 0.2256 0.4391 0.124 0.8262-0.1602 1.0642-0.7808 2.8959-2.2743 3.6054-2.7949 0.7741-0.5679 2.7477-1.8666 4.5215-3.168 0.387-0.2838 0.5424-0.5467 0.4004-0.7402-0.094-0.1289-0.3747-0.1721-0.6973 0.065-0.387 0.2838-1.0236 0.7021-1.4902 0.9453-0.9332 0.4862-1.5685 0.1593-2.2246-0.5996-0.9163-1.1138-1.7449-2.2419-2.0762-2.6934l-1.6093-2.1934c-0.6626-0.903-1.342-1.6945-1.6563-3.0019-0.336-1.5396-1.0526-11.036-0.9219-12.818 0.068-1.1913 0.1373-1.6391 0.5371-2.3789 0.2775-0.5011 0.7-1.0077 0.9903-1.2207 0.3224-0.2366 0.4527-0.5311 0.3105-0.7246-0.03-0.04-0.067-0.066-0.1113-0.078zm-466.14 0.4609c0.048 0 0.099 0.02 0.1543 0.045 0.2974 0.1648 0.5248 0.3585 0.8808 0.6602 2.1869 1.8535 1.282 4.931-0.1621 6.6348-1.0561 1.246-2.2124 1.8388-3.3262 1.8125-0.7555 0.015-1.4011-0.3574-2.2402-1.0684-0.5848-0.4957-0.9451-0.845-1.1309-1.0898-0.08-0.1115-0.1137-0.2263 0.059-0.4297l5.3243-6.2813c0.1777-0.2097 0.2984-0.2957 0.4414-0.2832zm-6.9473 8.0352c0.05-0.01 0.098 0.014 0.1484 0.057 0.3815 0.3232 0.6361 0.5378 1.0723 0.9512 0.9486 0.8914 1.383 1.5663 1.5938 2.4004 0.7903 2.9857-0.4861 5.5738-1.8223 7.1504-2.2414 2.6445-4.6917 1.6163-5.8359 0.6464-0.5849-0.4956-1.1482-1.0152-1.5977-1.8769-0.5335-1.0202-0.2427-1.519 1.1797-3.1973l5.1074-6.0254c0.054-0.063 0.1046-0.098 0.1543-0.1054zm19.365 0.1152c-0.1265-0.026-0.2165 0.01-0.2793 0.1035-0.1254 0.1966 0.01 0.3613 0.3164 0.5586 0.3933 0.2514 0.8522 0.5835 1.0411 0.7832 0.8013 0.7888 0.7396 1.3821 0.1855 2.3731-0.5181 0.9348-1.0203 1.7204-3.748 5.9902l-3.1582 4.9434c-1.6511 2.5843-3.0688 4.8044-3.9629 5.8945-0.6328 0.7428-1.1692 1.27-1.8028 1.0234-0.2887-0.1054-0.6607-0.264-1.082-0.5332-0.3371-0.2154-0.504-0.2031-0.5937-0.062-0.1255 0.1966 0.019 0.4073 0.3828 0.6406 0.5618 0.3591 1.3285 0.769 1.9746 1.1817 0.6921 0.4026 1.3101 0.7967 1.6191 0.9941 0.8427 0.5384 1.6952 1.1234 2.8672 1.9512 1.1899 0.7998 2.6979 1.8436 4.8047 3.1895 1.0674 0.6819 1.3212 0.8428 1.9844 0.2382 0.4994-0.472 1.9447-2.2387 2.3574-2.8847 0.1795-0.2808 0.3225-0.5049 0.098-0.6485-0.1965-0.1254-0.3246-0.049-0.5781 0.2246-0.9324 1.0261-1.6461 1.3991-2.5918 1.2696-0.9457-0.1297-2.1251-0.8831-2.8555-1.3496-2.8652-1.8305-3.0453-2.5376-1.8632-4.5118 0.4923-0.8325 2.1711-3.4003 2.7812-4.3554l1.418-2.2188c0.1077-0.1685 0.207-0.2638 0.3476-0.1738 0.6742 0.4307 3.4378 2.2357 3.9356 2.6328 0.9675 0.7764 1.0915 1.4501 0.873 2.1016-0.1489 0.419-0.3838 0.7832-0.5351 1.082-0.09 0.1406-0.1051 0.2885 0.092 0.4141 0.2528 0.1614 0.4501-0.1462 0.5937-0.3711 0.1255-0.1966 0.9275-1.2667 1.3145-1.8106 1.0276-1.3608 1.4275-1.7377 1.5351-1.9062 0.1078-0.1686 0.06-0.2798-0.053-0.3516-0.1406-0.09-0.3413-0.023-0.6816 0.078-0.4323 0.1195-0.9091-0.065-1.6192-0.4394-0.682-0.3564-3.9113-2.4197-4.5293-2.8145-0.1685-0.1077-0.1255-0.239 0-0.4355l4.541-7.1074c0.1255-0.1966 0.2348-0.2439 0.375-0.1543 0.5618 0.359 3.4764 2.2989 3.918 2.6601 1.2969 1.0659 1.3627 1.5817 1.2363 2.2129-0.075 0.4268-0.3528 0.9225-0.4785 1.1192-0.1614 0.2528-0.1946 0.4291 0 0.5546 0.1965 0.1255 0.3608-0.01 0.4785-0.1289 0.2714-0.3012 1.1166-1.5007 1.3242-1.7636 0.9098-1.2384 1.267-1.487 1.3926-1.6836 0.09-0.1406 0.1332-0.2695-0.01-0.3594-0.1406-0.09-0.3631-0.1142-0.5215-0.1758-0.2604-0.087-0.7468-0.3167-1.3164-0.6015-0.5517-0.313-6.1402-3.8848-7.0391-4.459-0.3932-0.2514-1.0219-0.6928-1.7344-1.1875-0.7022-0.4487-1.4993-0.996-2.2578-1.4805-0.2106-0.1346-0.3735-0.2196-0.5-0.2461zm17.152 10.199c-0.139 0.017-0.2913 0.1576-0.502 0.416-0.1776 0.2098-2.0849 2.6542-2.3203 3.1329-0.1618 0.3288-0.1762 0.5064 0.033 0.6093 0.1795 0.088 0.3284 0.011 0.5059-0.1972 0.1776-0.2098 0.5037-0.4953 1.0234-0.7969 0.7723-0.4375 1.5638-0.2327 3.3281 0.5605l4.5157 2.0703-6.0293 12.264c-1.3532 2.752-2.5159 5.116-3.2832 6.2988-0.5163 0.8234-1.0187 1.3933-1.6758 1.2188-0.2986-0.073-0.6861-0.1897-1.1348-0.4102-0.359-0.1765-0.5241-0.1453-0.5976 0-0.1028 0.2094 0.062 0.4026 0.4511 0.5938 1.1965 0.5884 3.1265 1.4254 3.8145 1.7637 0.8375 0.4118 2.6781 1.4276 4.6523 2.3984 0.3288 0.1618 0.6119 0.1891 0.7149-0.019 0.074-0.1497-0.031-0.3129-0.3614-0.4746-0.4487-0.2208-1.0774-0.6034-1.4668-0.8692-0.8385-0.5609-0.6952-1.3077-0.373-2.1894 0.4829-1.3598 1.6449-3.7227 2.998-6.4746l6.0313-12.264 3.7246 1.9434c2.6328 1.3688 3.0296 2.603 2.707 3.4101l-0.1328 0.3438c-0.1908 0.4634-0.2033 0.642 0.035 0.7597 0.1795 0.088 0.327-0.062 0.5039-0.3457 0.3824-0.7777 1.486-2.7976 1.7949-3.4258 0.2207-0.4486 0.2797-0.6431 0.07-0.7461-0.1198-0.059-0.388-0.1172-0.8808-0.248-0.4781-0.1606-1.1815-0.3946-2.1387-0.8652l-11.844-5.8243c-0.9871-0.4853-2.0946-1.1048-2.9179-1.6211-0.7184-0.4275-0.8701-0.8725-1.1094-0.9902-0.045-0.022-0.09-0.031-0.1367-0.025zm21.904 11.148c-0.1254 0-0.2073 0.052-0.2481 0.1621-0.082 0.2188 0.082 0.3502 0.4258 0.4785 0.4373 0.1629 0.957 0.3913 1.1836 0.5469 0.9493 0.6028 1.013 1.1959 0.6797 2.2812-0.3099 1.0228-0.635 1.8988-2.4043 6.6465l-2.0488 5.4961c-1.0709 2.8736-1.9917 5.342-2.6368 6.5957-0.4625 0.8593-0.8736 1.4868-1.5449 1.3789-0.3042-0.042-0.7033-0.1184-1.1718-0.293-0.375-0.1398-0.5336-0.094-0.5918 0.062-0.082 0.2189 0.1015 0.3956 0.5078 0.5469 1.2494 0.4656 3.2523 1.1034 3.9707 1.3711 0.8746 0.3258 2.8076 1.1535 4.8379 1.9102 0.3749 0.1398 0.6587 0.1387 0.7402-0.08 0.058-0.1561-0.063-0.3075-0.4063-0.4356-0.4685-0.1746-1.1328-0.4933-1.5468-0.7187-0.8905-0.4742-0.8221-1.2312-0.5899-2.1406 0.3443-1.4013 1.2651-3.8686 2.336-6.7422l1.0234-2.7481c0.058-0.1561 0.1641-0.1539 0.2578-0.1191l11.932 4.4472c0.094 0.034 0.1636 0.1328 0.1171 0.2579l-1.0234 2.748c-1.0709 2.8736-1.9916 5.342-2.6367 6.5957-0.4625 0.8592-0.8737 1.4887-1.5449 1.3809-0.3043-0.042-0.7034-0.1203-1.1719-0.295-0.3749-0.1398-0.5336-0.093-0.5918 0.062-0.082 0.2189 0.102 0.3957 0.5391 0.5586 1.2181 0.454 3.221 1.0936 3.9394 1.3614 0.8746 0.3258 2.8076 1.1516 4.8379 1.9082 0.3749 0.1398 0.6587 0.1403 0.7402-0.078 0.058-0.156-0.063-0.3094-0.4062-0.4375-0.4685-0.1746-1.1329-0.4933-1.5469-0.7187-0.8905-0.4741-0.8221-1.2311-0.5898-2.1406 0.3443-1.4013 1.265-3.8686 2.3359-6.7422l2.0488-5.4961c1.7693-4.7477 2.0944-5.6234 2.5293-6.5996 0.4699-1.07 0.9188-1.5077 1.8203-1.3496 0.3981 0.077 0.6896 0.1511 0.9395 0.2441 0.3749 0.1399 0.5865 0.1462 0.668-0.072 0.082-0.2188-0.1134-0.3623-0.5508-0.5253-1.2182-0.454-3.2211-1.0937-3.9707-1.3731-0.8434-0.3144-2.7762-1.1409-4.4629-1.7695-0.4373-0.1629-0.6802-0.1825-0.7617 0.037-0.082 0.2184 0.082 0.3526 0.4257 0.4805 0.4373 0.1629 0.9571 0.3912 1.1836 0.5468 0.9493 0.6028 1.013 1.196 0.6797 2.2813-0.3099 1.0228-0.635 1.8968-2.4043 6.6445l-0.2441 0.6563c-0.058 0.1561-0.1762 0.1832-0.2695 0.1484l-11.932-4.4492c-0.094-0.034-0.1656-0.131-0.1074-0.2871l0.2461-0.6563c1.7693-4.7477 2.0943-5.6234 2.5293-6.5996 0.4699-1.0699 0.9187-1.5077 1.8203-1.3496 0.3981 0.077 0.6896 0.1512 0.9395 0.2441 0.3749 0.1399 0.5864 0.1482 0.6679-0.07 0.082-0.2184-0.1134-0.3622-0.5508-0.5254-1.2181-0.4539-3.221-1.0936-3.9707-1.373-0.8433-0.3141-2.7762-1.1429-4.4629-1.7715-0.2186-0.081-0.3883-0.1254-0.5136-0.123zm363.69 2.2812c-0.1344 0.01-0.3138 0.071-0.5488 0.1817-1.2296 0.5812-3.7992 1.8851-4.5586 2.2441-0.8679 0.4103-2.9275 1.2952-4.4102 1.9961-0.4701 0.2222-0.6534 0.3963-0.5508 0.6133 0.1024 0.2169 0.3355 0.2411 0.6973 0.07 0.3978-0.1882 0.8122-0.3416 1.0996-0.3887 1.1493-0.1893 1.5921 0 2.1602 1.0156 0.4977 0.9593 0.9079 1.8272 3.1132 6.4922l2.5645 5.4239c1.3334 2.8206 2.4784 5.243 2.9492 6.6132 0.319 0.9554 0.4125 1.62-0.1699 2.0723-0.2551 0.209-0.6002 0.4164-1.0703 0.6387-0.1338 0.063-0.2137 0.131-0.2735 0.1992-0.011 0-0.018 0.01-0.029 0.01-0.6407 0.116-1.7329 0.061-4.1015-2.332-3.9323-4.0225-14.33-14.783-15.785-16.24-0.6072-0.5817-0.8716-0.8221-1.3574-0.6367-0.3364 0.1285-0.4548 0.6011-0.4863 1.6406l-1.0235 23.125c-0.06 1.8637-0.2509 3.0492-1.6601 3.8438-0.299 0.1141-0.6581 0.2941-0.9571 0.4082-0.2615 0.1-0.3175 0.2917-0.2461 0.4785 0.1 0.2616 0.3156 0.2643 0.7266 0.1074 1.7191-0.6559 3.4332-1.4381 3.7695-1.5664 1.0465-0.3992 2.6213-0.8716 3.7051-1.2851 0.3364-0.1282 0.4944-0.2736 0.3946-0.5352-0.072-0.1867-0.2021-0.3092-0.6133-0.1523l-0.4864 0.1855c-1.009 0.385-1.4365 0.1643-1.6503-0.3965-0.1425-0.3738-0.2929-1.2157-0.2559-2.1289l0.1172-4.9687c0-0.2155 0.028-0.2669 0.2148-0.3379l7.7324-2.9512c0.1493-0.057 0.2759-0.063 0.4219 0.096l4.9942 5.459c0.2921 0.3167 0.1828 0.6993-0.025 0.8223-0.322 0.1655-0.3547 0.3074-0.2832 0.4941 0.085 0.2241 0.46 0.082 1.0722-0.1094 2.7941-0.9804 5.1852-1.8919 6.3438-2.334 1.2299-0.4693 1.3892-0.6166 1.291-0.8769 0.3537-0.1836 0.684-0.3442 1.0391-0.5332 0.7594-0.3591 1.4294-0.7197 1.791-0.8906 1.3018-0.6155 2.6574-1.2117 4.2656-1.9278 1.6254-0.6798 3.4874-1.5148 5.7656-2.5918 1.6635-0.7864 1.7387-0.9994 1.6309-1.789-0.1742-1.0238-1.0341-3.406-1.2051-3.7676-0.1708-0.3617-0.3963-0.6514-0.6133-0.5488-0.2532 0.1198-0.2411 0.334-0.1406 0.6406 0.2011 0.6128 0.2859 1.6349 0.076 2.2207-0.4024 1.2079-1.6148 1.8254-3.3145 2.6289-2.4591 1.1625-3.7744 1.5633-4.539 1.3496-0.9607-0.254-1.8827-2.2067-3.7461-6.1484l-2.5645-5.4239c-2.2053-4.665-2.6166-5.5323-3.0058-6.5429-0.4406-1.1191-0.3914-1.6716 0.4082-2.2266 0.3273-0.2434 0.8161-0.5204 1.1777-0.6914 0.3978-0.1882 0.5283-0.3807 0.4258-0.5976-0.051-0.1085-0.141-0.1565-0.2754-0.1485zm-332.05 8.9922c-0.129 0.01-0.2064 0.064-0.2403 0.1758-0.068 0.2234 0.1041 0.3447 0.4551 0.4512 0.4147 0.1258 0.7876 0.2748 1.0234 0.416 0.985 0.5424 1.0853 1.1284 0.8203 2.2324-0.2456 1.0401-0.5164 1.9344-1.9863 6.7832l-1.7012 5.6133c-0.8896 2.9347-1.6531 5.4566-2.2187 6.748-0.408 0.8864-0.7803 1.5385-1.457 1.4727-0.3066-0.023-0.709-0.076-1.1875-0.2207-0.3828-0.1161-0.5396-0.058-0.5879 0.1015-0.068 0.2234 0.1263 0.386 0.541 0.5118 0.638 0.1935 1.487 0.381 2.2207 0.6035 0.7753 0.2003 1.4772 0.4131 1.8281 0.5195 1.3079 0.3965 2.4471 0.7765 3.8633 1.2754 1.4258 0.4671 3.0645 1.0342 5.3613 1.7305 1.6588 0.5028 1.8674 0.3918 2.2715-0.252 0.5356-0.8477 1.4835-3.1725 1.5899-3.5234 0.116-0.3828 0.1335-0.5534-0.09-0.6211-0.2551-0.077-0.3773 0.096-0.4961 0.373-0.2475 0.5868-0.9016 1.3635-1.4101 1.6621-1.0586 0.6196-2.3132 0.2743-4.0039-0.2382-2.4882-0.7543-3.2493-1.2282-3.6465-1.8711-0.4959-0.7773 0.1725-2.9794 1.4101-7.0625l1.7012-5.6133c1.4699-4.8488 1.74-5.7427 2.1133-6.7442 0.4022-1.0971 0.8227-1.5625 1.7324-1.4609 0.4021 0.052 0.9225 0.1747 1.2734 0.2812 0.3829 0.1161 0.5925 0.1121 0.6602-0.1113 0.068-0.2233-0.1356-0.3549-0.582-0.4902-1.2441-0.3772-3.6016-0.9887-4.3672-1.2207-0.8613-0.2612-2.8425-0.9654-4.3418-1.4199-0.2393-0.073-0.4199-0.1104-0.5488-0.1016zm301.13 4.0215c-0.995 0.01-2.2573 0.173-3.8379 0.6465-1.5327 0.4591-4.1908 1.3387-5.5703 1.7519-0.9579 0.2869-3.126 0.8529-4.8887 1.3809-0.4981 0.1493-0.7446 0.3071-0.6757 0.5371 0.069 0.2298 0.333 0.275 0.6777 0.1719 0.4981-0.1493 1.0858-0.2814 1.377-0.2852 1.1647-0.015 1.5729 0.2378 1.9824 1.3262 0.3481 1.0231 0.6248 1.9417 2.1054 6.8847l1.7207 5.7481c0.8953 2.9888 1.664 5.557 1.9239 6.9824 0.1719 0.9924 0.1653 1.6616-0.4785 2.0215-0.2835 0.1686-0.6562 0.3216-1.1543 0.4707-0.4215 0.1262-0.4776 0.3526-0.4317 0.5059 0.069 0.2298 0.3326 0.2766 0.7539 0.1504 1.3412-0.4018 3.4524-1.1611 4.2188-1.3907 0.8813-0.2638 3.2919-0.8599 5.5527-1.5371 0.3451-0.1032 0.5786-0.2974 0.5098-0.5273-0.046-0.1535-0.2576-0.3005-0.6407-0.1856-0.4981 0.1493-1.2367 0.3297-1.7578 0.4024-1.0421 0.1451-1.4181-0.4117-1.8086-1.2969-0.5779-1.3719-1.3469-3.9389-2.2421-6.9277l-3.8672-12.912c-0.1032-0.3447-0.085-0.5594 0.084-0.6934 0.2721-0.2067 0.912-0.4406 1.4101-0.5898 0.7663-0.2295 2.1927-0.4889 3.7402 0.2167 2.3597 1.047 3.1162 3.1576 3.4375 4.2305 0.9986 3.3337-1.0599 6.0802-2.9375 6.6426-0.728 0.2181-1.0647 0.4857-0.9843 0.7539 0.069 0.2298 0.332 0.2762 0.5234 0.2187 0.1648-0.01 0.8545-0.214 1.0078-0.2597 4.7897-1.4347 7.4828-5.8316 6.1055-10.43-0.528-1.7626-1.9228-2.9327-2.8574-3.4043-0.4214-0.1871-1.3397-0.6159-2.9981-0.6035zm12.221 1.6758c0.075-0.03 0.1836 0.1423 0.2637 0.2402l6.1387 6.7773c0.08 0.098 0.072 0.1871-0.078 0.2442l-6.3535 2.4238c-0.1122 0.043-0.215 0-0.1972-0.1816l0.1523-9.1348c0-0.1262-0.038-0.3264 0.074-0.3691zm-292.41 0.5136c-0.1286 0.012-0.2035 0.069-0.2344 0.1817-0.062 0.2249 0.1133 0.3424 0.4668 0.4394 0.4501 0.1232 0.9871 0.3049 1.2266 0.4395 0.9992 0.5157 1.1161 1.1003 0.8809 2.2109-0.2177 1.0464-0.4637 1.9475-1.8028 6.834l-1.5508 5.6563c-0.8105 2.9576-1.5063 5.4985-2.0371 6.8046-0.384 0.8971-0.7397 1.5593-1.4179 1.5118-0.3069-0.015-0.7092-0.057-1.1914-0.1895-0.3858-0.1058-0.5419-0.044-0.586 0.1172-0.062 0.2249 0.1367 0.3835 0.5547 0.498 0.643 0.1762 1.4969 0.3404 2.2363 0.543 0.7804 0.1792 1.4882 0.3737 1.8418 0.4707 0.9645 0.2642 1.9517 0.5686 3.3164 1.0117 1.3736 0.411 3.1241 0.9604 5.5352 1.6211 1.2216 0.3349 1.5108 0.4149 1.9648-0.3593 0.3372-0.599 1.1939-2.7157 1.3965-3.4551 0.088-0.3217 0.1598-0.578-0.098-0.6485-0.2249-0.062-0.3252 0.049-0.4864 0.3848-0.5862 1.2564-1.158 1.8257-2.0996 1.9824-0.9415 0.1569-2.2911-0.2122-3.1269-0.4414-3.2791-0.8986-3.6608-1.522-3.1172-3.7578 0.2234-0.9411 1.0657-3.8894 1.3652-4.9824l0.6953-2.541c0.053-0.1928 0.1207-0.3115 0.2813-0.2676 0.7715 0.2113 3.9459 1.116 4.539 1.3476 1.1543 0.4546 1.4725 1.0591 1.4571 1.7461-0.019 0.4444-0.1335 0.8631-0.1895 1.1934-0.044 0.1606-0.014 0.3056 0.211 0.3672 0.2895 0.079 0.3846-0.2741 0.455-0.5313 0.062-0.2248 0.5105-1.4849 0.7188-2.1191 0.5779-1.6043 0.8475-2.0825 0.9004-2.2754 0.053-0.1927-0.026-0.2828-0.1543-0.3184-0.1606-0.044-0.3334 0.08-0.6289 0.2754-0.3776 0.2423-0.8847 0.2076-1.6738 0.061-0.7571-0.1383-4.4549-1.1519-5.1622-1.3457-0.1927-0.053-0.1905-0.1909-0.1289-0.416l2.2305-8.1328c0.062-0.2249 0.1515-0.304 0.3125-0.2598 0.643 0.1761 4.0004 1.1668 4.5293 1.3808 1.5545 0.6334 1.7714 1.1058 1.8379 1.7461 0.055 0.4298-0.063 0.9859-0.125 1.211-0.079 0.2891-0.059 0.4676 0.166 0.5293 0.2249 0.062 0.3417-0.1137 0.418-0.2657 0.1701-0.3681 0.6219-1.7654 0.7422-2.0781 0.5017-1.4524 0.7684-1.7945 0.83-2.0195 0.044-0.1606 0.047-0.298-0.1132-0.3418-0.1607-0.044-0.3793-8e-4 -0.5489-0.012-0.2747-0.01-0.8071-0.082-1.4355-0.1856-0.6196-0.1353-7.0181-1.888-8.0469-2.1699-0.4501-0.1232-1.1808-0.3577-2.0078-0.6191-0.8037-0.2204-1.7257-0.5083-2.5938-0.7461-0.2411-0.066-0.424-0.098-0.5527-0.086zm264.15 2.043c-0.1321-0.014-0.3136 0.01-0.5273 0.061-1.3215 0.3212-3.518 0.9385-4.3731 1.1464-0.9717 0.2363-3.3209 0.7253-4.6035 1.0371-0.5441 0.1323-0.7973 0.2764-0.75 0.4707 0.076 0.3111 0.2888 0.3409 0.6387 0.2559 0.4275-0.1039 0.8642-0.1684 1.2812-0.1465 0.7952 0.054 1.238 0.3566 1.5899 1.4649 0.294 1.0399 0.5209 1.9724 1.7402 6.9863l1.418 5.8301c0.775 3.1871 1.4184 5.8303 1.5937 7.2285 0.1198 1 0.039 1.5142-0.623 1.8398-0.2922 0.1535-0.6705 0.2875-1.1758 0.4102-0.4276 0.1039-0.4968 0.3268-0.459 0.4824 0.057 0.2332 0.3166 0.2918 0.7441 0.1875 1.3604-0.3307 3.6641-1.0141 4.4414-1.2031 0.9329-0.2268 3.2946-0.6764 5.5489-1.2246 0.3886-0.094 0.6329-0.2787 0.5761-0.5117-0.038-0.1554-0.242-0.3117-0.6308-0.2168-0.5053 0.1228-1.2921 0.2727-1.7774 0.3086-1.0483 0.09-1.4042-0.3591-1.7382-1.2247-0.4958-1.3614-1.1371-4.0042-1.9121-7.1914l-1.418-5.83c-1.2193-5.0139-1.4476-5.9454-1.625-7.0137-0.206-1.1849-0.047-1.7173 0.8476-2.0996 0.3697-0.1724 0.6327-0.2783 0.9825-0.3633 0.3499-0.085 0.5267-0.2106 0.4511-0.5215-0.024-0.097-0.1081-0.1479-0.2402-0.1621zm-11.08 3.1856c-1.0442 0.075-2.2283 0.055-3.5625 0.1035-1.6093 0.1005-2.9359 0.1875-5.0976 0.5957-5.149 0.9723-8.199 2.9313-10.299 5.6074-2.7449 3.5714-2.7488 7.6441-2.3183 9.9238 0.6086 3.2231 2.2241 6.8254 6.1855 9.0488 3.6413 2.0394 7.8369 2.2653 12.553 1.375 2.24-0.4231 4.836-1.1178 6.1074-1.9277 0.5451-0.3469 0.6729-0.5331 0.7188-1.1523 0.1383-1.2067-0.019-4.1909-0.092-4.584-0.052-0.2752-0.2682-0.5582-0.5039-0.5137-0.2752 0.052-0.3244 0.2223-0.3067 0.7481 9e-4 0.6511-0.2923 1.6852-0.7558 2.4648-1.0862 1.7927-2.733 2.3468-5.7988 2.9258-4.6381 0.8759-11.481-1.74-12.98-9.6797-0.6161-3.2623-0.5962-6.6036 1.543-9.2871 1.3198-1.6333 3.1414-2.5476 6.1679-3.1192 3.1837-0.6012 5.6583-0.2142 7.0528 0.7032 1.028 0.7014 1.6841 1.7997 1.9238 2.8535 0.082 0.4324 0.2114 0.6926 0.4863 0.6406 0.3145-0.059 0.3659-0.435 0.3164-0.914-0.087-0.6756-0.4352-2.5233-0.5644-3.6387-0.144-1.194-0.1397-1.6018-0.1914-1.877-0.038-0.1965-0.1856-0.3316-0.586-0.2968zm-230.33 0.871c-0.1246 0.014-0.2 0.071-0.2305 0.1836-0.061 0.2253 0.1149 0.3417 0.4688 0.4375 0.4505 0.1217 0.9885 0.3018 1.2285 0.4356 1.001 0.5123 1.1181 1.0975 0.8867 2.209-0.2139 1.0471-0.4571 1.9468-1.7793 6.8379l-1.5312 5.664c-0.8004 2.9605-1.4874 5.5026-2.0137 6.8106-0.381 0.8984-0.7338 1.5628-1.4121 1.5176-0.3069-0.015-0.7107-0.055-1.1934-0.1856-0.3861-0.1043-0.5405-0.042-0.584 0.1191-0.061 0.2253 0.1384 0.3831 0.5567 0.4961 1.2871 0.3481 3.3399 0.7999 4.0801 1 0.901 0.2434 2.9025 0.8877 4.9941 1.4532 0.3862 0.1043 0.6696 0.077 0.7305-0.1485 0.043-0.161-0.091-0.3007-0.4453-0.3965-0.4827-0.1304-1.1724-0.3861-1.6055-0.5722-0.9306-0.3897-0.9322-1.1491-0.7852-2.0762 0.2132-1.4271 0.9009-3.9693 1.7012-6.9297l0.7656-2.832c0.043-0.161 0.1478-0.1667 0.2442-0.1406l12.293 3.3222c0.096 0.026 0.1754 0.1172 0.1407 0.2461l-0.7657 2.832c-0.8003 2.9604-1.4874 5.5006-2.0136 6.8086-0.381 0.8984-0.7338 1.5629-1.4121 1.5176-0.3069-0.015-0.7108-0.053-1.1934-0.1836-0.3862-0.1043-0.5405-0.042-0.584 0.1192-0.061 0.2252 0.1375 0.3821 0.5879 0.5039 1.255 0.3394 3.3087 0.7902 4.0488 0.9902 0.901 0.2434 2.9026 0.8877 4.9942 1.4531 0.3861 0.1043 0.6695 0.079 0.7304-0.1464 0.043-0.1611-0.091-0.3008-0.4453-0.3965-0.4827-0.1304-1.1723-0.3862-1.6054-0.5723-0.9306-0.3897-0.9322-1.151-0.7852-2.0781 0.2132-1.4272 0.8989-3.9693 1.6992-6.9297l1.5313-5.6621c1.3222-4.8911 1.5654-5.7924 1.9082-6.8047 0.3689-1.1088 0.7752-1.5876 1.6875-1.5137 0.4035 0.04 0.7015 0.087 0.959 0.1563 0.3861 0.1043 0.5973 0.092 0.6582-0.1328 0.061-0.2253-0.1473-0.3508-0.5977-0.4727-1.255-0.3394-3.3098-0.7893-4.082-0.998-0.8689-0.2348-2.8698-0.8799-4.6075-1.3497-0.4505-0.1217-0.693-0.1178-0.7539 0.1075-0.061 0.2252 0.115 0.3417 0.4688 0.4375 0.4505 0.1217 0.9885 0.3017 1.2285 0.4355 1.001 0.5123 1.1201 1.0956 0.8887 2.207-0.2139 1.0472-0.457 1.9488-1.7793 6.8399l-0.1836 0.6758c-0.043 0.161-0.1575 0.1999-0.2539 0.1738l-12.291-3.3242c-0.096-0.026-0.1763-0.1164-0.1328-0.2774l0.1816-0.6757c1.3222-4.8911 1.5674-5.7924 1.9102-6.8047 0.3688-1.1089 0.7732-1.5857 1.6855-1.5118 0.4035 0.04 0.7016 0.087 0.959 0.1563 0.3861 0.1043 0.5973 0.091 0.6582-0.1348 0.061-0.2252-0.1472-0.3487-0.5977-0.4707-1.2549-0.3394-3.3078-0.7912-4.08-1-0.8689-0.2347-2.8698-0.8798-4.6075-1.3496-0.2252-0.061-0.3988-0.09-0.5234-0.076zm206.29 5.0176c-0.1302-0.026-0.3118-0.019-0.5293 0.014-1.3449 0.2018-3.5868 0.6175-4.457 0.748-0.9889 0.1486-3.3743 0.4253-4.6797 0.6211-0.5538 0.083-0.8188 0.2046-0.7891 0.4024 0.048 0.3163 0.2572 0.3658 0.6133 0.3125 0.4351-0.065 0.8757-0.09 1.2891-0.029 0.7872 0.1247 1.2018 0.4663 1.4531 1.6015 0.1999 1.0622 0.342 2.0104 1.1074 7.1133l0.8906 5.9317c0.4867 3.2437 0.89 5.9335 0.9395 7.3418 0.03 1.0067-0.097 1.5123-0.7852 1.7773-0.3046 0.1266-0.6928 0.2256-1.207 0.3027-0.4351 0.065-0.5257 0.2812-0.5019 0.4395 0.034 0.2374 0.2913 0.3193 0.7265 0.2539 1.3845-0.2079 3.7401-0.6821 4.5313-0.8008 0.9493-0.1425 3.3404-0.3803 5.6347-0.7246 0.3956-0.059 0.6548-0.2197 0.6192-0.457-0.023-0.1584-0.2119-0.3308-0.6074-0.2715-0.5143 0.077-1.3104 0.1564-1.7969 0.1484-1.0522 0-1.3679-0.483-1.6231-1.375-0.3719-1.4003-0.775-4.0902-1.2617-7.334l-0.8906-5.9335c-0.7656-5.1029-0.9072-6.0529-0.9883-7.1329-0.099-1.1985 0.1058-1.7149 1.0313-2.0156 0.3837-0.1383 0.6557-0.2182 1.0117-0.2715 0.356-0.053 0.5416-0.1619 0.4941-0.4785-0.015-0.099-0.094-0.1576-0.2246-0.1836zm-12.285 1.3946c-0.1448-0.025-0.3442-0.01-0.582 0.025-1.7035 0.237-3.0003 0.4996-3.3965 0.5547-0.7527 0.1047-2.6248 0.2837-4.4472 0.5371-0.5151 0.072-0.8667 0.1622-0.8282 0.4395 0.027 0.198 0.1678 0.3401 0.6036 0.2793 0.4754-0.066 1.3089-0.1833 1.8515-0.057 0.8761 0.201 1.2752 0.752 1.6016 2.8066l2.4414 14.926-0.1582 0.022c-0.5812-0.4038-5.8796-4.5111-8.582-6.5176-5.7606-4.2463-11.734-8.8671-12.23-9.2422-0.677-0.5116-1.2244-0.9611-1.6602-0.9004-0.3564 0.049-0.5273 0.5589-0.4336 1.2324l2.4629 20.012c0.3685 2.9373 0.3761 3.864-0.5019 4.2286-0.4589 0.1852-1.0871 0.3127-1.5625 0.3789-0.3171 0.044-0.5335 0.2376-0.5059 0.4355 0.044 0.3171 0.3664 0.3122 0.8418 0.2461 1.7828-0.2483 3.4311-0.5984 3.7481-0.6426 0.6338-0.088 2.2749-0.1972 4.5332-0.5117 0.4754-0.066 0.7807-0.1893 0.7421-0.4668-0.026-0.198-0.2485-0.3282-0.6445-0.2734-0.5546 0.077-1.2336 0.132-1.8555 0.016-0.7065-0.144-1.252-0.8767-1.6953-3.4805l-2.3105-13.693 0.1191-0.014c0.7563 0.5005 5.0096 4.0682 9.3203 7.1836 4.1358 3.0186 9.073 6.5719 11.533 8.2891 0.4062 0.3069 0.9311 0.5964 1.5254 0.5136 0.2775-0.039 0.5111-0.3937 0.4063-1.1465l-2.5606-21.291c-0.2252-1.9072-0.031-2.5395 0.8809-2.9492 0.4193-0.1795 0.6962-0.2181 1.0527-0.2676 0.3962-0.055 0.5725-0.2413 0.545-0.4394-0.019-0.1387-0.1091-0.2072-0.254-0.2324zm-159.46 2.998c-0.129 0.01-0.2079 0.064-0.2422 0.1758-0.068 0.223 0.1027 0.3454 0.4531 0.4531 0.4461 0.1372 0.9796 0.3345 1.2149 0.4766 0.983 0.546 1.0816 1.1353 0.8125 2.2383-0.2495 1.0392-0.5238 1.9302-2.0117 6.7734l-1.7246 5.6094c-0.9006 2.9314-1.6737 5.4489-2.2442 6.7382-0.4113 0.8849-0.7845 1.5371-1.4609 1.4688-0.3065-0.023-0.7096-0.078-1.1875-0.2246-0.3824-0.1176-0.539-0.062-0.5879 0.098-0.068 0.223 0.1248 0.3865 0.5391 0.5137 0.6372 0.1958 1.4859 0.3882 2.2187 0.6133 0.7745 0.203 1.4757 0.4177 1.8262 0.5254 0.9559 0.2937 1.9346 0.6286 3.2851 1.1133 1.3604 0.4528 3.0927 1.0549 5.4825 1.789 1.2108 0.3719 1.497 0.461 1.9746-0.2988 0.3549-0.5883 1.2768-2.6773 1.5019-3.4102 0.098-0.3186 0.1747-0.574-0.08-0.6523-0.223-0.068-0.3245 0.04-0.4961 0.3711-0.6244 1.2379-1.2122 1.7901-2.1582 1.918-0.9459 0.1277-2.2848-0.2844-3.1132-0.5391-3.2501-0.9985-3.6137-1.6334-3.002-3.8516 0.2521-0.9338 1.1848-3.8541 1.5176-4.9375l0.7734-2.5175c0.059-0.1913 0.1296-0.3086 0.2891-0.2598 0.7647 0.2351 3.9103 1.2347 4.4961 1.4844 1.1398 0.4896 1.4388 1.1048 1.4023 1.791-0.03 0.4436-0.1588 0.8591-0.2246 1.1875-0.049 0.1595-0.024 0.3066 0.1973 0.375 0.2868 0.088 0.3943-0.2626 0.4726-0.5176 0.068-0.223 0.5576-1.4682 0.7852-2.0957 0.6267-1.5859 0.91-2.0569 0.9687-2.248 0.059-0.1913-0.019-0.285-0.1445-0.3243-0.1595-0.049-0.3353 0.071-0.6367 0.2579-0.3847 0.2305-0.8935 0.1794-1.6777 0.01-0.7525-0.1614-4.4162-1.2866-5.1172-1.502-0.1913-0.059-0.184-0.1971-0.1153-0.4199l2.4766-8.0606c0.068-0.2229 0.1612-0.2987 0.3203-0.25 0.6373 0.1958 3.9642 1.2874 4.4863 1.5176 1.5345 0.6806 1.7364 1.1607 1.7832 1.8028 0.042 0.4312-0.093 0.982-0.1621 1.205-0.088 0.2869-0.073 0.4667 0.1504 0.5352 0.223 0.068 0.3449-0.1046 0.4258-0.2539 0.181-0.3629 0.6749-1.7439 0.8047-2.0528 0.5459-1.4363 0.8221-1.771 0.8906-1.9941 0.049-0.1591 0.058-0.295-0.1015-0.3437-0.1592-0.049-0.3797-0.012-0.5489-0.031-0.2744-0.015-0.8047-0.108-1.4297-0.2305-0.6152-0.1542-6.9569-2.1008-7.9765-2.414-0.4461-0.1372-1.1677-0.3953-1.9863-0.6817-0.7967-0.2449-1.712-0.5599-2.5723-0.8242-0.239-0.073-0.4179-0.1119-0.5469-0.1035zm128.82 1.3926c-0.091 0-0.1942 0.016-0.3125 0.037-1.3397 0.2339-3.6508 0.7203-4.0449 0.7891-0.039 0.01-2.3772 0.3326-4.1504 0.6425-0.4728 0.083-0.6956 0.2033-0.6543 0.4395 0.041 0.2362 0.2586 0.3207 0.6524 0.2519 0.394-0.069 0.9916-0.1321 1.2812-0.1015 1.1584 0.1224 1.497 0.4277 1.7754 1.5566 0.2253 1.057 0.4303 1.9971 1.3184 7.0801l0.7363 4.2148c0.5989 3.4281 1.0281 6.358-0.586 8.5079-1.145 1.5806-2.8425 2.3243-4.3398 2.5859-1.1821 0.2063-2.8573 0.377-4.6074-0.5762-1.9284-1.0437-3.203-2.7683-4.0567-7.6543l-0.8203-4.6894c-0.888-5.083-1.0531-6.0298-1.1601-7.1075-0.1278-1.1958 0.063-1.7153 0.9433-2.0312 0.4197-0.1546 0.6099-0.23 1.0039-0.2988 0.3549-0.062 0.5316-0.2125 0.4903-0.4493-0.041-0.2362-0.2904-0.2751-0.8028-0.1855-1.2609 0.2203-3.5726 0.706-4.4394 0.8574-1.0245 0.1792-3.3629 0.5065-5.2149 0.8301-0.5122 0.089-0.7346 0.2091-0.6933 0.4453 0.041 0.2366 0.2586 0.3208 0.6523 0.252 0.4728-0.083 1.0718-0.1482 1.3614-0.1172 1.1583 0.1224 1.5271 0.3842 1.8125 1.5527 0.2645 1.0501 0.3912 2.0009 1.2793 7.084l0.8613 4.9258c0.8467 4.8465 2.6595 7.0875 4.7011 8.3144 2.9074 1.766 6.5059 1.2191 8.3184 0.9024 2.246-0.3924 4.8232-1.2078 6.9082-3.6836 2.4959-2.9131 2.2028-6.9228 1.5488-10.666l-0.6269-3.586c-0.8881-5.083-1.0137-6.0347-1.1602-7.1054-0.1277-1.1959 0.026-1.7104 0.9434-2.0332 0.4197-0.1546 0.6098-0.2281 1.0039-0.2969 0.394-0.069 0.5706-0.2226 0.5293-0.459-0.031-0.1772-0.1794-0.2417-0.4512-0.2285zm-37.26 6.5293c-0.089-0.016-0.1704-0.012-0.2364 0.012-0.302 0.1066-0.5103 0.4783-0.5879 1.0996l-2.5625 21.096-15.16-14.586c-0.7589-0.7077-1.0375-0.7781-1.377-0.6582-0.2638 0.093-0.4603 0.5019-0.3496 1.0566l4.0567 21.941c0.2222 1.1093 0.373 2.4989-0.4922 2.9317-0.5015 0.2619-0.7282 0.3422-0.9922 0.4355-0.3394 0.1198-0.4752 0.3376-0.4219 0.4883 0.1062 0.302 0.3988 0.2839 0.7383 0.164 1.0561-0.373 2.599-1.045 3.2402-1.2714 0.6035-0.2132 2.1533-0.6323 3.5489-1.125 0.4903-0.1731 0.7647-0.3567 0.6582-0.6582-0.053-0.1508-0.3329-0.2219-0.6348-0.1153-0.302 0.1066-0.6169 0.1748-1.2227 0.2617-0.6057 0.087-1.1385 0.02-1.3515-0.582-0.1867-0.5281-0.2937-0.9564-0.418-1.5488l-2.7852-12.932 0.1133-0.039c1.8795 1.8393 5.2124 5.0307 5.6895 5.541 0.6968 0.7721 5.0695 4.7442 6.3808 5.9355 0.8744 0.7943 1.4777 1.3008 1.8926 1.1543 0.3772-0.1334 0.458-0.5003 0.6797-2.2754l2.1231-16.699 0.1132-0.041 6.7344 13.191c0.4328 0.8653 0.4901 1.2682 0.3281 1.4102-0.1999 0.1553-0.3091 0.3216-0.2558 0.4726 0.066 0.1886 0.3078 0.2739 1.1133 0.031 1.3467-0.3907 6.1018-1.9434 6.9316-2.2363 0.4903-0.1731 0.8276-0.4176 0.7344-0.6817-0.066-0.1886-0.3328-0.2218-0.6348-0.1152-0.4149 0.1462-0.956 0.2945-1.9922 0.3633-1.1249 0.058-1.7347-0.7032-2.7422-2.5957l-9.9804-18.662c-0.2648-0.4793-0.6113-0.7151-0.8789-0.7637zm-61.812 1.0722c-0.203 0.034-0.4309 0.2359-0.6661 0.5977l-11.432 18.467c-0.5965 0.9779-1.3499 2.0695-2.2871 1.8887-0.4993-0.1036-0.7155-0.1945-0.9609-0.2989-0.3069-0.1304-0.5169-0.1467-0.5821 0.01-0.1171 0.2762 0.1034 0.4419 0.4102 0.5722 0.9817 0.4171 2.4932 0.9516 3.0761 1.1992 0.5523 0.2347 1.8932 0.9116 3.1817 1.459 0.4602 0.1954 0.7636 0.2524 0.8809-0.025 0.065-0.1534-0.1239-0.306-0.3692-0.4101-0.3069-0.1304-0.7245-0.344-1.2246-0.7012-0.4695-0.3443-0.7496-0.7901-0.502-1.373 0.2087-0.4909 0.4072-0.8762 0.7032-1.4024l6.6797-11.287 0.123 0.053c0.096 2.7572 0.398 7.1584 0.4004 7.92 0 1.0154 0.4335 6.7388 0.5703 8.4628 0.1 1.129 0.1457 1.873 0.4219 1.9903 0.2763 0.1171 0.547-0.094 1.8652-1.2363l12.5-10.842 0.1231 0.053-3.8282 14.127c-0.2422 0.9112-0.5047 1.2728-0.7148 1.2559-0.254 8e-4 -0.4153 0.04-0.4805 0.1934-0.078 0.184 0.067 0.3535 0.7461 0.7148 1.1881 0.6134 5.3971 2.473 6.1641 2.7988 0.4295 0.1826 0.8372 0.2474 0.9414 0 0.078-0.1841-0.1244-0.3067-0.4004-0.4238-0.3989-0.1694-0.9991-0.4592-1.7715-1.1133-0.8031-0.6671-0.7323-1.6882-0.1875-3.7383l5.1856-19.961c0.1818-0.6834 0.1278-1.0683-0.1485-1.1856-0.2763-0.1171-0.5343 0.063-0.9883 0.4492l-15.684 13.727-1.129-20.615c-0.06-0.9671-0.1782-1.1985-0.4238-1.3028-0.061-0.026-0.1257-0.033-0.1933-0.022z" fill="#fff" style="font-feature-settings:normal;font-variant-caps:normal;font-variant-ligatures:normal;font-variant-numeric:normal"/>
  <path d="m426.92 307.39-0.36021 1.4971c0.87091 0.4155 1.068 0.66402 1.2532 1.0511l-0.0734 0.0372c-0.76152 0.56404-3.5932 1.6454-6.8476 2.7719-0.55161-1.456-1.9885-5.3444-1.9885-5.3444l-0.99269 1.1912s1.4844 3.3072 2.0159 4.4829c-5.2544 1.7892-11.162 3.5776-11.216 3.5006l-4.4943 0.88987c-0.35827-0.97859-0.51948-2.0574-1.8717-2.9011l-0.34933 1.542c1.1704 0.71417 0.98084 1.2016 1.202 1.7751l-1.5069 0.69866c-0.75652 0.19727-0.91347-0.70355-1.1906-1.34-0.56166 1.5991-0.17259 3.4693 1.8366 2.6355 0.73959-0.30691 2.0082-0.83923 2.0082-0.83923s4.343-0.79748 5.2462-1.1183c3.1687-0.78819 17.433-5.1724 19.538-6.7918 0.36023-0.16727 0.15878-0.80841 0.0429-1.0454-0.21011-0.43-0.3836-0.86452-0.6413-1.2785-0.32425-0.52076-0.78166-1.009-1.6102-1.4144zm-93.891 0.60566c-0.82409 0.0515-1.9474 0.8645-2.4634 1.2449 0.9466-0.11755 1.3219-0.24688 1.6764-0.11472 0.48734 0.19127 0.7039 0.90196 0.79891 1.5668-0.22981-0.0929-0.46492-0.18907-0.69297-0.28059-0.8745-0.4568-2.5514-1.3401-3.145 0.5979l-0.5829 4.1196c0.92789 0.34337 1.5168-1.0912 1.7601-3.8778 7.0849 3.3602 14.992 5.9361 23.448 7.7375 0.46302-1.6032 0.76224-1.8943 1.2253-7.4063l-1.4759 1.0128-0.43457 4.4473c-0.8028-0.15251-1.5727-0.31361-2.328-0.47853-0.32446-0.46098-1.2861-1.8269-2.0763-2.9497-1.1967-1.7002-2.7189-0.26963-3.5445 0.33899 1.9085-0.23641 2.0651 0.0483 2.682 0.79737 0.15505 0.18828 0.55867 0.80918 0.90022 1.342-5.9637-1.4591-10.461-3.2621-14.552-4.9216-0.0312-0.29726-0.086-0.82031-0.23201-2.1885-0.0828-0.77528-0.46932-1.0184-0.96378-0.98753zm95.008 5.0307-0.10748 1.4459 1.7492 0.12969 0.10748-1.4459zm-38.73 0.21498-0.61754 0.9462-1.2656-0.82526-0.79219 1.2144 1.4692 0.95809 0.61754-0.94621 1.2656 0.82529 0.79219-1.2144zm-28.616 0.98962-1.0253 1.0253 1.2402 1.2402 0.7989-0.79891 1.0687 1.0687 1.0253-1.0253-1.2402-1.2402-0.79891 0.79891zm28.885 1.126s-1.9189 1.6741-2.8784 2.511c-0.92072 0.80309-1.0792 2.5214 0.21754 2.9533 0.91612 0.30515 1.8176-0.0742 2.295-0.66095 0 0 0.29557 1.1159 1.3255 1.0025 2.9822-0.32829 5.9159-0.60653 8.7349-1.0687 0.39195-0.0643 0.37031-0.73636 0.32245-0.99578-0.0867-0.47067-0.13743-0.9361-0.2744-1.4041-0.17235-0.58875-0.4813-1.1816-1.1705-1.7947l-0.7493 1.3451c0.72718 0.63429 0.85015 0.92665 0.92448 1.3493l-0.0806 0.0164c-2.5556 0.38473-5.0159 0.68321-7.5685 0.78497-1.0027 0.04-0.83243-2.1993-1.0981-4.0385zm-30.675 0.37881c-3.2388 3.628-0.1479 4.9389 2.1797 4.9387h4.1382c5.7809 0.62799 11.522 0.98012 16.937 0.8759 0.39711-8e-3 0.47178-0.67585 0.46146-0.93945-0.0422-1.08 0.0936-2.1066-0.97356-3.3724l-0.9338 1.2242c0.62921 0.7316 0.70918 1.0387 0.72242 1.4676l-0.0821 4e-3c-2.5332 0.0156-4.9276-0.0109-7.4316-0.12454 0.0357-0.81301 0.0289-1.6358-0.73742-2.6376l-1.0289 1.1105c0.50818 0.65095 0.626 1.0866 0.64594 1.4681-2.2586-0.12559-4.6362-0.32647-7.3086-0.64079 0.0333-0.79846 0.0132-1.6099-0.73898-2.5931l-1.0294 1.111c0.52038 0.66656 0.63187 1.1074 0.64748 1.4955-0.89429 0.0495-2.339 0.10152-3.3042-0.03-2.9948-0.40788-2.3636-1.922-2.1642-3.3579zm29.734 2.2092c0.014 0.46829 0.0586 0.6785 0.1695 1.0816-0.57962 0.12145-1.6784 0.25046-1.3555-0.29197 0.22773-0.38256 0.75407-0.55787 1.186-0.78962zm9.9684 3.2468-0.51988 1.0035-1.342-0.69503-0.66714 1.2872 1.5575 0.80669 0.51985-1.0031 1.342 0.69506 0.66714-1.2878zm-27.869 1.2077-0.8785 1.154 1.3953 1.0625 0.68469-0.89918 1.2025 0.91622 0.87849-1.1534-1.3953-1.063-0.68469 0.89916zm10.03 0.33539-0.87849 1.1534 1.3953 1.063 0.87849-1.1534z" fill="#fff" style="paint-order:markers fill stroke"/>
  <g fill="#1b6f2b">
   <path d="m334.44 341.39-0.6403 2.4092 1.3395 0.35599q0.5214 0.13858 0.73851 0.0279 0.28868-0.14465 0.45423-0.65888l0.16631 0.0442-0.56386 2.1216-0.16631-0.0442q0.0553-0.46171 0.0259-0.60429-0.0391-0.17882-0.19949-0.3177-0.1604-0.13887-0.54246-0.24042l-1.3395-0.35599-0.53399 2.0092q-0.10751 0.40453-0.0954 0.50399 0.0133 0.095 0.0888 0.17279 0.0768 0.0733 0.32847 0.14023l1.0338 0.27476q0.51691 0.13738 0.76975 0.12758 0.25285-0.01 0.52475-0.16372 0.35274-0.20461 0.79423-0.68882l0.1798 0.0478-0.93207 1.3885-4.6971-1.2484 0.0442-0.16631 0.21575 0.0573q0.21575 0.0573 0.4365 5e-3 0.16295-0.0337 0.25062-0.16439 0.0922-0.1295 0.21043-0.57449l1.0524-3.96q0.1541-0.57984 0.0731-0.74574-0.11403-0.2228-0.49159-0.32315l-0.21576-0.0573 0.0442-0.16631 4.6971 1.2484-0.28737 1.3529-0.1753-0.0466q0.0334-0.50604-0.0357-0.71689-0.0646-0.20966-0.26424-0.36378-0.16188-0.11521-0.61586-0.23586z" style="font-feature-settings:normal;font-variant-caps:normal;font-variant-ligatures:normal;font-variant-numeric:normal"/>
   <path d="m340.64 344.59-0.34422 1.4096-0.1491-0.0364q-0.01-0.70608-0.22212-1.0117-0.20809-0.30456-0.62376-0.40606-0.31627-0.0772-0.55137 0.0425-0.2351 0.11973-0.28475 0.32304-0.0618 0.25302 0.0387 0.46905 0.0948 0.21944 0.4733 0.53209l0.58131 0.48187q0.80796 0.67126 0.62922 1.4032-0.13791 0.56477-0.65208 0.80785-0.50856 0.23967-1.0372 0.11059-0.37952-0.0927-0.83438-0.34738-0.13806-0.0816-0.23294-0.10476-0.10392-0.0254-0.19134 0.0777l-0.1491-0.0364 0.36078-1.4774 0.14909 0.0364q-0.0279 0.66343 0.25065 1.0714 0.2786 0.40795 0.72137 0.51607 0.31175 0.0761 0.55016-0.0571 0.24404-0.1367 0.30692-0.39423 0.0761-0.31176-0.0934-0.57817-0.16502-0.26531-0.74071-0.75059t-0.71501-0.79698q-0.14043-0.30718-0.0444-0.70026 0.12467-0.51055 0.55641-0.76897 0.43627-0.25732 0.992-0.12162 0.24397 0.0596 0.56649 0.24845 0.21388 0.12404 0.29069 0.1428 0.0723 0.0177 0.12067-4e-3 0.0484-0.0217 0.12908-0.11689z" style="font-feature-settings:normal;font-variant-caps:normal;font-variant-ligatures:normal;font-variant-numeric:normal"/>
   <path d="m343.01 343.84-0.31296 1.3645 0.97009 0.22251-0.0728 0.31732-0.9701-0.22251-0.6176 2.6927q-0.0925 0.40345-0.0114 0.56997 0.0856 0.16756 0.26696 0.20915 0.14959 0.0343 0.31092-0.0241 0.16236-0.063 0.28101-0.22662l0.1768 0.0405q-0.26056 0.40786-0.60267 0.56798-0.34107 0.15558-0.64933 0.0849-0.20852-0.0478-0.38199-0.20691-0.17242-0.16361-0.21875-0.3985-0.0453-0.23943 0.0576-0.68821l0.64048-2.7924-0.65731-0.15077 0.0343-0.14959q0.2722-0.0425 0.58466-0.219 0.31803-0.17996 0.59688-0.45956 0.14378-0.14834 0.43465-0.56356z" style="font-feature-settings:normal;font-variant-caps:normal;font-variant-ligatures:normal;font-variant-numeric:normal"/>
   <path d="m345.62 349.58q-0.74695 0.35931-0.92717 0.40179-0.26985 0.0614-0.54734 2e-3 -0.43215-0.092-0.65125-0.4477-0.21455-0.35474-0.11192-0.83693 0.0649-0.30479 0.24879-0.49864 0.25235-0.26963 0.76989-0.44477 0.52209-0.17418 1.6789-0.33689l0.0349-0.16376q0.13265-0.62321-0.0181-0.89781-0.14623-0.27363-0.52379-0.354-0.28659-0.061-0.48782 0.0578-0.20578 0.11787-0.24838 0.31803l-0.0471 0.26578q-0.0445 0.20925-0.17792 0.29974-0.12884 0.0915-0.3017 0.0547-0.16831-0.0358-0.25231-0.17734-0.0795-0.14054-0.0359-0.34525 0.0833-0.39121 0.55329-0.63353 0.47002-0.24232 1.1933-0.0884 0.55498 0.11813 0.8701 0.38016 0.23837 0.19815 0.30184 0.52549 0.0403 0.21303-0.0885 0.81805l-0.30113 1.4147q-0.12684 0.59591-0.13314 0.73722-5e-3 0.13677 0.035 0.19291 0.0449 0.0571 0.11314 0.0716 0.0728 0.0155 0.13415-5e-3 0.10812-0.0388 0.43915-0.25365l-0.0542 0.25474q-0.65473 0.5739-1.1187 0.47514-0.2229-0.0474-0.3219-0.23019-0.099-0.18274-0.0242-0.55672zm0.0629-0.29569 0.33792-1.5876q-0.74499 0.12673-0.96935 0.19785-0.40197 0.12367-0.60311 0.3091t-0.25633 0.44472q-0.0697 0.32753 0.0794 0.58751 0.1501 0.25544 0.40484 0.30966 0.34573 0.0736 1.0066-0.26125z" style="font-feature-settings:normal;font-variant-caps:normal;font-variant-ligatures:normal;font-variant-numeric:normal"/>
   <path d="m349.09 347.31q0.76865-0.72946 1.4722-0.59543 0.64419 0.12272 1.0186 0.76692 0.37527 0.63963 0.19338 1.5945-0.21236 1.1148-1.0822 1.6545-0.74646 0.46383-1.5277 0.315-0.36549-0.0696-0.71946-0.27436-0.34939-0.20385-0.69183-0.54369l0.82594-4.3357q0.13577-0.71273 0.13055-0.88416-6.5e-4 -0.17057-0.0624-0.24389-0.0618-0.0733-0.17144-0.0942-0.12792-0.0244-0.33373 0.0122l-0.0335-0.17209 1.3539-0.27235 0.20559 0.0392zm-0.0557 0.2924-0.47694 2.5037q0.18949 0.27282 0.41357 0.43861 0.22952 0.16208 0.48994 0.21169 0.41575 0.0792 0.85915-0.30979 0.44796-0.38811 0.61419-1.2607 0.15318-0.80409-0.12594-1.3023-0.27368-0.50191-0.73055-0.58895-0.24215-0.0461-0.50779 0.0311-0.20015 0.0566-0.53563 0.27672z" style="font-feature-settings:normal;font-variant-caps:normal;font-variant-ligatures:normal;font-variant-numeric:normal"/>
   <path d="m354.55 345.16-0.95428 5.5697q-0.0675 0.39423-0.0345 0.53201 0.0376 0.13856 0.14501 0.22775 0.10819 0.0846 0.43366 0.14036l-0.0283 0.16502-2.0583-0.35265 0.0283-0.16502q0.28879 0.0495 0.40444 8e-3 0.11564-0.0415 0.1988-0.16884 0.0832-0.12731 0.14991-0.51696l0.65347-3.814q0.12174-0.71053 0.11714-0.87647-4e-3 -0.17052-0.0669-0.24268-0.0586-0.0714-0.16857-0.0902-0.11919-0.0204-0.31512 0.0215l-0.0504-0.17379 1.3394-0.299z" style="font-feature-settings:normal;font-variant-caps:normal;font-variant-ligatures:normal;font-variant-numeric:normal"/>
   <path d="m356.71 345.52q0.19297 0.0303 0.30455 0.18909 0.1169 0.15489 0.0866 0.34786t-0.18981 0.30915q-0.1549 0.1169-0.34787 0.0866t-0.30915-0.1898-0.0859-0.35247q0.0303-0.19297 0.18449-0.30527 0.15949-0.11618 0.35706-0.0851zm0.0356 2.2607-0.53128 3.3816q-0.0621 0.39513-0.0279 0.53703 0.0395 0.13803 0.13968 0.21968 0.10475 0.0824 0.4034 0.12929l-0.026 0.1654-2.0446-0.32122 0.026-0.1654q0.30783 0.0484 0.42289 5e-3 0.11505-0.0431 0.19644-0.17157 0.086-0.12773 0.14734-0.51827l0.25481-1.6219q0.10756-0.68459 0.098-0.89324-9e-3 -0.15208-0.0693-0.21804-0.0595-0.0706-0.17899-0.0893-0.12865-0.0202-0.32325 0.0198l-0.0383-0.17551 1.3489-0.31536z" style="font-feature-settings:normal;font-variant-caps:normal;font-variant-ligatures:normal;font-variant-numeric:normal"/>
   <path d="m360.58 348.33-0.20039 1.4372-0.152-0.0212q-0.0806-0.70154-0.32297-0.98421-0.23773-0.28203-0.66151-0.34112-0.32244-0.045-0.54428 0.0979-0.22184 0.14282-0.25074 0.3501-0.036 0.25795 0.0857 0.46276 0.11646 0.20877 0.52451 0.48168l0.62693 0.42082q0.87149 0.5864 0.76745 1.3326-0.0803 0.57578-0.56734 0.86946-0.48181 0.2897-1.0208 0.21456-0.38693-0.0539-0.86514-0.26151-0.14559-0.0673-0.24232-0.0807-0.10595-0.0148-0.18253 0.0966l-0.15201-0.0212 0.21003-1.5063 0.152 0.0212q0.0391 0.66287 0.35736 1.0407 0.3183 0.37779 0.76972 0.44073 0.31783 0.0443 0.5416-0.11232 0.22901-0.1606 0.26562-0.42316 0.0443-0.31783-0.15121-0.5658-0.19092-0.24733-0.81259-0.67211-0.62167-0.42479-0.7917-0.72086-0.17068-0.29146-0.1148-0.69221 0.0726-0.52051 0.47607-0.82114 0.40811-0.29998 0.97469-0.22098 0.24874 0.0347 0.58865 0.19008 0.22529 0.10185 0.3036 0.11277 0.0737 0.0103 0.11965-0.0162 0.046-0.0265 0.11664-0.1293z" style="font-feature-settings:normal;font-variant-caps:normal;font-variant-ligatures:normal;font-variant-numeric:normal"/>
   <path d="m362.93 346.38-0.35514 3.0958q0.57755-0.50488 0.89591-0.62752 0.31889-0.12727 0.61923-0.0928 0.3604 0.0413 0.59636 0.26972 0.23596 0.22836 0.31195 0.66777 0.0539 0.30579-0.0362 1.0913l-0.17174 1.4971q-0.0461 0.40199 2e-3 0.55727 0.0335 0.11619 0.13696 0.1936 0.10347 0.0774 0.39919 0.11134l-0.0191 0.16634-2.0793-0.23853 0.0191-0.16634 0.097 0.0111q0.29572 0.0339 0.4213-0.0406 0.12612-0.0792 0.19247-0.24945 0.0223-0.0723 0.0637-0.43274l0.17174-1.4971q0.0795-0.69308 0.0305-0.91873-0.0444-0.22512-0.1893-0.34941-0.14438-0.12892-0.36617-0.15436-0.2264-0.026-0.48508 0.0661-0.25867 0.092-0.64246 0.41784l-0.25655 2.2364q-0.0498 0.43433-0.0158 0.54591 0.0386 0.1121 0.15953 0.20087 0.12604 0.0847 0.44948 0.12179l-0.0191 0.16634-2.0977-0.24065 0.0191-0.16634q0.28186 0.0323 0.45365-0.0369 0.0977-0.0356 0.168-0.15862 0.0703-0.12301 0.11587-0.52038l0.43942-3.8305q0.0832-0.72543 0.0653-0.89601-0.0133-0.17005-0.0803-0.2386-0.0624-0.068-0.18256-0.0818-0.097-0.0111-0.32268 0.0379l-0.0461-0.16914 1.3254-0.37227z" style="font-feature-settings:normal;font-variant-caps:normal;font-variant-ligatures:normal;font-variant-numeric:normal"/>
   <path d="m366.63 350.76q-0.0867 0.94482 0.32992 1.5225 0.41665 0.57773 1.0422 0.63206 0.41701 0.0362 0.74254-0.16425 0.33057-0.2047 0.58737-0.7426l0.13558 0.10514q-0.15244 0.62633-0.66589 1.1093-0.51306 0.47829-1.2173 0.41711-0.76452-0.0664-1.2597-0.70698-0.49019-0.6448-0.40286-1.6502 0.0946-1.0889 0.70332-1.6475 0.61378-0.56291 1.4571-0.48966 0.71355 0.062 1.1312 0.57443 0.41806 0.50783 0.34963 1.2955zm0.0234-0.26874 1.9646 0.17065q0.0122-0.40975-0.0474-0.58299-0.0933-0.26954-0.31209-0.43793-0.21416-0.16799-0.46437-0.18973-0.38457-0.0334-0.71654 0.2412-0.32693 0.27038-0.42418 0.7988z" style="font-feature-settings:normal;font-variant-caps:normal;font-variant-ligatures:normal;font-variant-numeric:normal"/>
   <path d="m372.95 353.4q-0.32961 0.30732-0.63498 0.43435-0.3051 0.12238-0.64871 0.10282-0.6965-0.0396-1.1835-0.64967-0.48675-0.61467-0.43467-1.5294 0.0521-0.91474 0.67093-1.6388 0.61913-0.72873 1.5246-0.67719 0.56184 0.032 0.90832 0.41041l0.0447-0.78473q0.0415-0.72901 0.0139-0.89828-0.023-0.16901-0.0939-0.23361-0.0708-0.0646-0.1823-0.0709-0.12072-7e-3 -0.32462 0.0561l-0.0511-0.16595 1.2972-0.44789 0.20896 0.0119-0.27994 4.9173q-0.0426 0.74758-0.0196 0.91659 0.0279 0.16463 0.0985 0.23387 0.0752 0.0695 0.17739 0.0753 0.12537 7e-3 0.33882-0.0599l0.0418 0.16543-1.2929 0.4528-0.2136-0.0122zm0.0185-0.32504 0.12476-2.1917q-0.01-0.31734-0.13438-0.5853-0.1245-0.26795-0.34927-0.41119-0.21985-0.14761-0.43809-0.16003-0.40862-0.0233-0.74989 0.32533-0.45004 0.45885-0.50291 1.3875-0.0534 0.93796 0.32668 1.4627 0.38033 0.5201 0.88181 0.54865 0.42255 0.024 0.84129-0.37603z" style="font-feature-settings:normal;font-variant-caps:normal;font-variant-ligatures:normal;font-variant-numeric:normal"/>
   <path d="m378.84 347.61 1.7219-0.79704 0.1705 3e-3 -0.12072 5.9157q-0.0125 0.58897 0.0316 0.7346 0.0488 0.14572 0.20214 0.22638 0.15341 0.0806 0.62852 0.10073l-4e-3 0.19116-2.635-0.0534 4e-3 -0.19116q0.49621-2.3e-4 0.64235-0.0696 0.14625-0.0746 0.20561-0.19738 0.0595-0.12802 0.0723-0.75834l0.0767-3.7819q0.0155-0.76466-0.0316-0.9827-0.0328-0.16607-0.12938-0.24557-0.0914-0.0794-0.22575-0.0821-0.19116-4e-3 -0.53542 0.14932z" style="font-feature-settings:normal;font-variant-caps:normal;font-variant-ligatures:normal;font-variant-numeric:normal"/>
   <path d="m385.02 350.37q-0.84929-0.66047-1.1027-1.0675-0.24827-0.40716-0.25971-0.85142-0.0176-0.68191 0.49671-1.1862 0.51415-0.5095 1.3872-0.53199 0.84721-0.0218 1.3756 0.42464 0.52843 0.44646 0.54361 1.0354 0.0101 0.39261-0.25833 0.8079-0.26846 0.41529-1.1376 0.9908 0.9273 0.67915 1.2321 1.0745 0.40618 0.51682 0.42122 1.1006 0.0191 0.73874-0.53048 1.2802-0.54964 0.53626-1.464 0.55981-0.99702 0.0257-1.571-0.58502-0.45719-0.48965-0.47248-1.0837-0.012-0.46494 0.28626-0.92752 0.30328-0.46789 1.0536-1.0403zm0.7968-0.57364q0.60555-0.57389 0.7626-0.89843 0.15693-0.32972 0.14641-0.73783-0.014-0.54242-0.32661-0.83936-0.31277-0.3021-0.8397-0.28853-0.52692 0.0136-0.8497 0.32688-0.32276 0.31331-0.31225 0.72142 7e-3 0.26862 0.14816 0.53379 0.14639 0.26504 0.40579 0.50131zm-0.54895 0.76369q-0.41946 0.37267-0.61505 0.80676-0.19573 0.42893-0.18295 0.92486 0.0171 0.6664 0.38916 1.06 0.37702 0.38833 0.94011 0.37382 0.55792-0.0144 0.8856-0.33814 0.32766-0.32377 0.31608-0.77321-0.01-0.37194-0.21347-0.66134-0.38089-0.53814-1.5195-1.3928z" style="font-feature-settings:normal;font-variant-caps:normal;font-variant-ligatures:normal;font-variant-numeric:normal"/>
   <path d="m389.11 346.79 3.7458-0.28834 0.0154 0.19578-1.7951 7.1144-0.57709 0.0439 1.6025-6.4517-1.9218 0.14791q-0.58219 0.0452-0.81884 0.20298-0.41454 0.27032-0.63924 0.78518l-0.15379-0.0452z" style="font-feature-settings:normal;font-variant-caps:normal;font-variant-ligatures:normal;font-variant-numeric:normal"/>
   <path d="m398.83 351.54-0.34387 1.3935-4.1104 0.44213-0.0204-0.1901q1.6358-1.8495 2.2629-2.9773t0.53373-1.9961q-0.0713-0.6628-0.52307-1.0456t-1.017-0.322q-0.51381 0.0552-0.89224 0.40262-0.37385 0.34166-0.50664 0.94326l-0.19011 0.0204q0.0262-0.96435 0.50072-1.5299 0.47963-0.56614 1.276-0.6518 0.84776-0.0912 1.4715 0.39265 0.6289 0.48327 0.70848 1.2232 0.0569 0.52921-0.13277 1.085-0.29069 0.87326-1.0436 1.895-1.129 1.5352-1.4166 1.8571l1.8188-0.19563q0.55491-0.0597 0.77142-0.12457 0.22165-0.0654 0.38822-0.20807 0.16602-0.14779 0.27473-0.39338z" style="font-feature-settings:normal;font-variant-caps:normal;font-variant-ligatures:normal;font-variant-numeric:normal"/>
   <path d="m423.24 341.64c-0.0243 1.8e-4 -0.0509 3e-3 -0.0801 9e-3 -0.6772 0.13393-1.1714 0.8365-0.50281 1.4113-0.0236 0.4998 0.0609 0.64207 0.17621 0.82889 0.0623-0.73702 1.3358-1.3663 1.3358-1.3663l-0.032-0.42426c-0.40159 0.22606-1.0894 0.66826-1.063 0.68937-0.58391 0.0859-0.61791-0.77311-0.014-0.81082 0.38449 0.23694 0.54575-0.33993 0.17983-0.33692zm3.4396 0.28887-0.12401 0.68471-0.99116-0.17983-0.15505 0.85367 1.125 0.20363 0.12401-0.68421 0.99116 0.17933 0.15452-0.8537zm-2.8319 1.3968c-0.42934 0.42892-0.59539 0.79981-0.35242 1.3818 0.20288 0.48606 0.83098 1.9035 1.2464 2.8551 0.22958 0.52589 0.88035 0.28949 1.434 0.11007 0.72072-0.23349 1.9765-0.64029 2.5761-0.83455 0.47623-0.1543 0.60672-0.43275 0.47596-1.0217-0.17632-0.63984-0.79827-1.1274-1.2893-1.5844l-0.0816 0.95808c0.29332 0.30422 0.7202 0.55105 0.7302 0.97668l-2.8737 0.84286c-0.51848 0.16097-0.61032 0.053-0.82632-0.48731l-0.86246-2.158-0.14936-0.41651zm-1.2413 2.9099-0.48681 0.73692c0.33896 0.37071 0.49932 0.63965 0.46871 0.92345l-1.4604 0.36121-0.0563-1.4976-0.47903 0.67696 0.0532 0.93999-1.7146 0.42426-0.0579-1.5327-0.47903 0.67694 0.0548 0.97515-2.574 0.63716c-0.0167-0.41907-0.107-1.1999-0.5421-1.5368l-0.36328 0.79324c0.31727 0.24072 0.38926 0.59278 0.39741 0.83974l-1.4914 0.25836-0.0558-1.4836-0.47955 0.67646 0.0501 0.89088-1.7875 0.31006-0.0537-1.4175-0.47906 0.67697 0.0481 0.85524-2.4143 0.64235c-0.0298-0.12811-0.31388-1.2879-0.98393-1.5689l-0.14624 0.8604c0.44477 0.18145 0.58875 0.61114 0.63561 0.83974l-0.0858 0.0228c-2.2896 0.67508-5.5912 1.841-5.5232-0.70281 0 0-0.0434 0.10321-0.0579 0.15711-1.0438 3.8731 5.5184 1.4956 5.6219 1.0955 0.22291 0.0108 1.8649-0.31787 2.7161-0.55293 0.3147-0.0869 0.49094-0.25167 0.49094-0.25167 0.76377 0.1732 1.5025 0.0835 2.1782-0.33279 0.65397 0.57848 5.3337-0.87728 5.2095-1.2537 0.73186 0.1111 1.653 0.1323 2.142-0.53072 0.28858 0.26455 2.1922-0.0798 2.1963-0.38137 0.0111-0.74967 0.14139-1.471-0.49094-2.2278zm-17.226 2.1647-0.30798 0.62375-0.90331-0.44598-0.38396 0.77774 1.0248 0.50591 0.30798-0.62373 0.90331 0.44596 0.38397-0.77772z" style="paint-order:markers fill stroke"/>
  </g>
 </g>
</svg>
