<?xml version="1.0" encoding="UTF-8"?>
<svg id="svg2" xmlns="http://www.w3.org/2000/svg" viewBox="0 0 43.78 55.81">
  <defs>
    <style>
      .cls-1 {
        fill: #80c832;
      }
    </style>
  </defs>
  <path id="path72" class="cls-1" d="M32.49,15.14c.66.28,1.37.38,2.03.58,4.27,1.31,7.87,3.86,8.97,8.43.23.93.37,2.58.25,3.84-.63,6.3-3.83,10.6-10.71,10.79-.1,2.4-.01,4.97-.04,7.44-.18.05-.57.08-.74,0v-7.32l.54-.08c.06-.47.07-1.19,0-1.65-.04-.18-.43,0-.54-.12.02-.31-.05-.71.04-.95.15-.09.45-.02.66-.04.09.3.02.75.04,1.12,1.75.13,3.22-.23,4.55-.91,2.69-1.37,4.26-4.52,4.67-8.02.15-1.26.02-3.11-.25-4.09-.93-3.39-3.89-5.6-7.27-6.74-.74-.25-1.25-.43-2.11-.62-.55-.12-1.4-.21-2.03-.33.39-1.28.61-2.56.78-4.01.09-.75.1-1.72,0-2.56-.02-.15-.1-.28-.12-.41-.07-.45-.04-.89-.12-1.32-.16-.77-.48-1.59-.83-2.27-1.17-2.28-3.3-3.82-6.41-4.22-.35-.04-.68.03-1.03,0-.59-.05-1.19-.17-1.69-.12-.16.01-.29.11-.45.12-.8.08-1.55.07-2.23.25-2.57.67-4.57,2.41-5.46,4.84-.19.52-.29,1.03-.41,1.69-.5,2.6-.06,5.56.54,8.02-3.33.31-6.04,1.38-8.14,2.98-1.8,1.36-3.12,3.42-3.43,5.83-.11.9-.08,2.13,0,2.94.45,4.34,2.69,7.91,6.82,8.72.73.14,1.78.31,2.73.25.06.4.07,1.05,0,1.45-3.65.16-6.41-1.08-8.19-3.14-1.75-2.04-2.89-5.06-2.89-8.6,0-7.41,5.2-10.32,11.24-11.74-.22-1.74-.55-3.88-.33-5.83C11.5,3.91,14.52.71,20.01.13c.32-.03.81.1,1.03-.12.61.04,1.4-.11,1.82.12,3.14.17,5.48,1.04,7.23,2.85.89.92,1.67,2.15,2.11,3.51.15.46.34,1,.41,1.45.03.14-.03.32,0,.46l.12.29c.03.22-.03.44,0,.66.02.15.1.3.12.45.23,1.85-.19,3.69-.37,5.33"/>
  <path id="path76" class="cls-1" d="M16.74,6.5c.02,2.48.01,5.48,0,7.98-.18.02-.39.04-.58,0-.1-2.56-.01-5.3-.04-7.94.08-.13.49-.1.62-.04"/>
  <path id="path80" class="cls-1" d="M17.44,6.46c.2.02.48-.04.62.04-.03,2.64.06,5.4-.04,7.98-.14.03-.49,0-.62,0-.1-2.55-.01-5.28-.04-7.89l.08-.12"/>
  <path id="path84" class="cls-1" d="M18.72,6.46c.16.02.4-.04.5.04,0,2.63,0,5.48,0,7.98-.19.04-.4.02-.58,0-.1-2.56-.01-5.3-.04-7.94l.12-.08"/>
  <path id="path88" class="cls-1" d="M19.88,6.46c.2.02.48-.04.62.04-.03,2.64.06,5.4-.04,7.98-.16.05-.48,0-.62,0-.1-2.55-.01-5.28-.04-7.89l.08-.12"/>
  <path id="path92" class="cls-1" d="M21.08,6.46c.21.02.51-.04.66.04-.03,2.64.06,5.4-.04,7.98-.16.05-.52-.01-.66,0-.1-2.55-.01-5.28-.04-7.89l.08-.12"/>
  <path id="path96" class="cls-1" d="M22.36,6.46c.21.02.51-.04.66.04-.03,2.64.05,5.4-.04,7.98-.21.04-.49.01-.66,0-.1-2.55-.01-5.28-.04-7.89l.08-.12"/>
  <path id="path100" class="cls-1" d="M24.22,6.5c-.03,2.65.06,5.4-.04,7.98-.18.03-.46.01-.66,0-.05-2.74.02-4.99-.04-7.89.05-.2.57-.13.74-.08"/>
  <path id="path104" class="cls-1" d="M25.38,6.5c.06,2.74.07,5.37,0,7.98-.25-.04-.41.08-.58,0-.1-2.55-.01-5.28-.04-7.89,0-.22.49-.12.62-.08"/>
  <path id="path108" class="cls-1" d="M26.04,6.46c.2.02.48-.04.62.04v7.98c-.16-.01-.49.06-.66,0-.1-2.55-.01-5.28-.04-7.89l.08-.12"/>
  <path id="path112" class="cls-1" d="M27.36,6.46c.15.03.41-.05.5.04.06,2.42.07,5.42,0,7.98-.19.03-.38.03-.58,0-.03-2.45.06-5.37-.04-7.89l.12-.12"/>
  <path id="path116" class="cls-1" d="M26.83,15.47v.78c.01.19-.29.07-.37.17.56,1.79,1.07,3.65,1.74,5.33.49-.13.67-.57,1.16-.7.05.72-.08,1.67.04,2.19,1.18-.62,2.2-1.63,3.31-2.19.08.71-.1,1.49-.04,2.15.36.06.62-.28.87-.45.28-.2.56-.39.83-.58.54-.39,1.06-.82,1.65-1.12.07.74-.18,1.57.04,2.19,1.18-.63,2.08-1.55,3.27-2.19-.04.73.05,1.72-.04,2.36-4.34.1-8.86.01-13.27.04.12-.28.43-.33.66-.5.15-.11.56-.36.62-.54.08-.23-.2-.89-.33-1.28-.29-.89-.51-1.63-.78-2.52-.24-.76-.47-1.44-.74-2.11-.47.02-1.04-.05-1.45.04.26,1.26.41,2.61.62,3.89.11.66.32,1.28.41,1.9.07.47.05.78.33,1.07-2.08.07-4.45.07-6.53,0,.39-2.24.86-4.58,1.2-6.82-.4-.18-1.12-.03-1.65-.08-.28.35-.38.86-.54,1.36-.37,1.18-.72,2.33-1.12,3.6-.08.24-.23.58-.21.7.09.57,1.24.72,1.36,1.28-2.11-.03-4.33.05-6.37-.04.19-.27.52-.47.78-.66.8-.56,1.68-1.16,2.52-1.74.37.07.48.4.83.5.36-.79.6-1.64.87-2.48.27-.84.56-1.71.74-2.6-.13-.14-.37.05-.5-.12.03-.27-.08-.68.08-.83h10ZM21,16.58c-.38,1.97-.72,3.96-1.07,5.95.46-.04.77-.45,1.2-.74.21-.15.99-.8,1.24-.78.2.01.59.39.79.54.27.21.43.47.78.54-.21-1.82-.68-3.59-.87-5.5-.51-.13-1.56-.14-2.07,0"/>
  <path id="path120" class="cls-1" d="M34.06,17.87v3.72c-.13.07-.49.07-.62,0v-3.64c0-.22.5-.12.62-.08"/>
  <path id="path124" class="cls-1" d="M35.46,18.28c0,.86,0,1.92,0,2.65-.15.03-.51.02-.7-.04.03-.84-.05-1.79.04-2.56.09-.13.51-.1.66-.04"/>
  <path id="path128" class="cls-1" d="M10.33,23.45c-2.11-.03-4.33.06-6.36-.04,1.04-.86,2.29-1.73,3.39-2.4.53.37,1.03.8,1.53,1.2.5.4,1.07.73,1.45,1.24"/>
  <path id="path132" class="cls-1" d="M16.74,24.44c-.1,2.78,0,5.46-.04,8.02-1.31.1-2.8.01-4.17.04-.1-.61-.02-1.39-.04-2.07.7-.03,1.51.05,2.15-.04.07-1.19.07-2.66,0-3.84-.42-.21-1.29.02-1.78-.13.05-.65-.11-1.51.08-2.02,1.26.03,2.62-.06,3.8.04"/>
  <path id="path136" class="cls-1" d="M18.06,24.4h3.64c.07,2.59.07,5.47,0,8.06-1.27.07-2.82.07-4.09,0v-1.98c.58-.12,1.44.04,2.03-.08.1-1.21.01-2.6.04-3.89-.47-.12-1.22.04-1.69-.08,0-.48,0-1.29,0-1.9l.08-.12"/>
  <path id="path140" class="cls-1" d="M26.7,24.44c.03,2-.06,4.11.04,6.04.48.15,1.39.09,1.94.04.1-1.26.01-2.69.04-4.01-.24-.11-.71.03-.95-.08.09-.57.02-1.48.04-1.98.9-.1,1.97-.01,2.94-.04.03,2.69.02,5.57,0,8.18h-7.15c.03-.66-.05-1.43.04-2.03.31-.02.7.04.95-.04.1-1.11.01-2.7.04-4.01-.23-.11-.72.03-.95-.08-.01-.51.07-1.32,0-1.9l.08-.12c.96.03,2.04-.06,2.94.04"/>
  <path id="path144" class="cls-1" d="M31.66,24.4h7.61c.07,2.65.07,5.58,0,8.23h-1.98c-.12-1.94.04-4.17-.08-6.12-1.78-.1-3.73-.01-5.58-.04.03-.5-.06-1.63.04-2.07"/>
  <path id="path148" class="cls-1" d="M3.89,24.52c2.36.03,4.82-.05,7.11.04v8.02c-.59.1-1.36.01-2.02.04-.03-1.97.05-4.05-.04-5.95-1.6-.12-3.49.04-5.08-.08-.1-.57-.02-1.31-.04-1.94l.08-.12"/>
  <path id="path152" class="cls-1" d="M5.87,27.7c-.03,1.63.05,3.36-.04,4.92-.66-.03-1.43.05-2.02-.04v-4.84c.52-.16,1.48-.09,2.07-.04"/>
  <path id="path156" class="cls-1" d="M12.81,33.45c.12.16-.09.27-.04.5,1.27.1,2.71.01,4.05.04.16-.09.1-.4.21-.54h.87c.12.12-.09.36.04.5,2.56.07,5.41.07,7.98,0,.19-.09-.05-.35.08-.5h.87c.14.06.03.38.12.5,1.21.1,2.6.01,3.89.04.17-.13.01-.35,0-.54h1.03c.13.52.3,1,.46,1.49-6.89.07-14.07.07-20.96,0,.13-.47.33-.86.41-1.36.11-.26.68-.06.99-.12"/>
  <path id="path160" class="cls-1" d="M11.9,36.09v.87c-.12.11-.39.08-.62.08v-.95c.14-.08.48-.05.62,0"/>
  <path id="path164" class="cls-1" d="M13.19,36.09c.08.17.05.57,0,.74-.22.04-.39.13-.66.12-.09-.21-.02-.59-.04-.87.15-.07.55-.07.7,0"/>
  <path id="path168" class="cls-1" d="M14.38,36.09c.08.11.02.36.04.54-.18.07-.45.05-.62.12-.06-.13-.08-.53,0-.66h.58"/>
  <path id="path172" class="cls-1" d="M15.71,36.18c-.09.26-.43.26-.74.29-.22-.53.6-.51.74-.29"/>
  <path id="path176" class="cls-1" d="M19.34,36.09c.02,1.01-.05,2.12.04,3.06-.46-.77-.92-1.75-.7-3.06l.08-.04c.19.02.45-.04.58.04"/>
  <path id="path180" class="cls-1" d="M20.54,36.09c.1,1.96.01,4.09.04,6.12-.15-.17-.27-.43-.37-.7-.09-.23-.25-.54-.29-.78-.25-1.36.19-3.09,0-4.55.03-.19.48-.14.62-.08"/>
  <path id="path184" class="cls-1" d="M21.2,36.05c.21,0,.47-.03.62.04-.03,3.36.06,6.83-.04,10.13-.13.08-.42.02-.62.04-.1-3.28-.01-6.74-.04-10.08l.08-.12"/>
  <path id="path188" class="cls-1" d="M22.53,36.05c.16.02.4-.04.5.04v3.31c0,1.14.15,2.34.04,3.27-.03.24-.23.48-.29.7-.03.21.2.3.25.54.15.68-.11,1.72,0,2.31-.12.08-.39.02-.58.04-.1-3.29-.01-6.76-.04-10.13l.12-.08"/>
  <path id="path192" class="cls-1" d="M24.3,36.09c-.1,1.03.24,2.19.04,3.35-.09.53-.57,1.19-.7,1.74-.1-1.58-.01-3.35-.04-5,.02-.23.56-.12.7-.08"/>
  <path id="path196" class="cls-1" d="M25.54,36.14c-.1.7-.35,1.24-.66,1.74.06-.56.03-1.3.04-1.78.14-.07.53-.08.62.04"/>
  <path id="path200" class="cls-1" d="M27.32,36.05c.21.02.51-.04.66.04v.25c-.28-.03-.59-.04-.66-.29"/>
  <path id="path204" class="cls-1" d="M29.18,36.09c0,.18.05.41,0,.58-.24-.02-.38-.14-.62-.17-.17-.49.31-.53.62-.41"/>
  <path id="path208" class="cls-1" d="M30.5,36.14c-.08.27.07.53-.04.79-.29-.06-.49-.11-.7-.17v-.66c.17-.06.63-.09.75.04"/>
  <path id="path212" class="cls-1" d="M31.7,36.09v.95c-.21.06-.56-.03-.74-.12v-.83c.17-.08.57-.06.74,0"/>
  <path id="path216" class="cls-1" d="M16.78,37.87c.16,2.61.08,5.7.04,8.39-.19-.02-.46.04-.58-.04v-8.14c.13-.12.34-.16.54-.21"/>
  <path id="path220" class="cls-1" d="M27.98,38.24c0,2.47,0,5.51,0,7.98-.14.07-.52.07-.66,0-.03-2.51.06-5.48-.04-8.06.08-.26.51.06.7.08"/>
  <path id="path224" class="cls-1" d="M15.58,38.16h.08c.1,2.6.01,5.39.04,8.06-.16.08-.54.05-.7,0-.06-2.32.07-5.23-.04-7.81.16-.13.46-.12.62-.25"/>
  <path id="path228" class="cls-1" d="M29.14,38.49c.1,2.47.01,5.33.04,7.73-.14.08-.48.05-.62,0v-7.69c.02-.24.42-.05.58-.04"/>
  <path id="path232" class="cls-1" d="M14.3,38.45l.08.04c.07,2.48.07,5.25,0,7.73-.14.08-.47.05-.62,0v-7.61c.17-.06.41-.06.54-.17"/>
  <path id="path236" class="cls-1" d="M26.7,38.45c.03,2.06.12,5.62-.04,7.81-.85-.48-.58-2-.58-3.6,0-.98-.12-2.04,0-2.77.1-.59.49-1.1.62-1.45"/>
  <path id="path240" class="cls-1" d="M30.5,38.78c-.1,2.37-.01,5.14-.04,7.44-.15.07-.55.07-.7,0v-7.48c.04-.21.57,0,.75.04"/>
  <path id="path244" class="cls-1" d="M12.61,38.7h.58c.07,2.41.07,5.11,0,7.52-.15.09-.45.02-.66.04-.1-2.41-.01-5-.04-7.48l.12-.08"/>
  <path id="path248" class="cls-1" d="M11.37,38.82c.18.02.43-.04.54.04-.03,2.44.06,4.99-.04,7.36-.11.08-.36.02-.54.04-.1-2.36-.01-4.89-.04-7.32l.08-.12"/>
  <path id="path252" class="cls-1" d="M31,38.82c.24.01.53-.03.7.04v7.36c-.17.07-.58.07-.75,0v-7.28l.04-.12"/>
  <path id="path256" class="cls-1" d="M17.44,39.44c.14.38.59.93.7,1.61.08.47,0,1.16,0,1.78s.09,1.3,0,1.74c-.07.34-.5.88-.7,1.12v-6.24Z"/>
  <path id="path260" class="cls-1" d="M25.46,41.38c.15.87.09,2.17.04,3.1-.17-.35-.55-.62-.62-.99-.14-.75.44-1.43.58-2.11"/>
  <path id="path264" class="cls-1" d="M18.68,42.5c.2.12.15.48.29.66-.08.18-.11.41-.29.5-.07-.3-.07-.86,0-1.16"/>
  <path id="path268" class="cls-1" d="M20.5,44.11c.19.54.03,1.43.08,2.11-.15.05-.48.08-.62,0-.25-.97.22-1.57.54-2.11"/>
  <path id="path272" class="cls-1" d="M23.6,44.94c.32.36.58.77.74,1.28-.17.07-.58.07-.74,0v-1.28Z"/>
  <path id="path276" class="cls-1" d="M19.01,46.35c-.06.33-.32.58-.5.87-.51.83-1.1,1.75-1.53,2.69,2.12.14,3.75.84,4.88,2.02.33-.13.47-.45.75-.66.62-.47,1.4-.72,2.19-1.03.72-.09,1.29-.17,1.94-.25-.55-1.34-1.44-2.34-2.03-3.64h1.65c1.13,1.75,2.21,3.55,3.22,5.41-1.18,0-2.21-.41-3.39-.25-.21.03-.8.16-1.12.25-1.16.34-2.01,1.08-2.56,1.94-.19.76-.4,1.5-.75,2.11-.4-1.96-1.11-3.42-2.93-4.05-1.28-.44-3.25-.3-4.79,0,1.07-1.82,2.12-3.66,3.27-5.41h1.69Z"/>
</svg>