<?xml version="1.0" encoding="utf-8"?>
<!-- Generator: Adobe Illustrator 15.1.0, SVG Export Plug-In . SVG Version: 6.00 Build 0)  -->
<!DOCTYPE svg PUBLIC "-//W3C//DTD SVG 1.1//EN" "http://www.w3.org/Graphics/SVG/1.1/DTD/svg11.dtd">
<svg version="1.1" id="Layer_1" xmlns="http://www.w3.org/2000/svg" xmlns:xlink="http://www.w3.org/1999/xlink" x="0px" y="0px"
	 width="329.479px" height="377.148px" viewBox="0 0 329.479 377.148" enable-background="new 0 0 329.479 377.148"
	 xml:space="preserve">
<g>
	<circle fill="#FFFFFF" stroke="#000000" stroke-miterlimit="10" cx="166.198" cy="200.152" r="137"/>
	<g>
		<g>
			<path fill="#231F20" d="M184.539,199.128c0,0,6.819-11.935,11.594-16.025c4.771-4.092,13.639-6.138,13.639-6.138
				s11.25,3.41,14.66,8.184c3.41,4.771,8.524,13.979,8.524,13.979H184.539z"/>
			<path fill="#D7D725" d="M184.539,199.128c0,0,7.296-11.935,11.296-16.025c4-4.092,13.809-6.138,13.809-6.138
				s5.472,3.41,8.327,8.184c2.859,4.771,7.146,13.979,7.146,13.979H184.539z"/>
		</g>
		<g>
			<path fill="#E1EBAE" d="M237.134,233.82h60.351c0,0-0.768,5.882-3.323,12.274c-2.559,6.394-4.604,10.74-4.604,10.74h-52.423
				V233.82z"/>
			<path fill="#231F20" d="M290.206,257.858h-54.096v-25.062h62.537l-0.149,1.154c-0.031,0.246-0.812,6.084-3.391,12.522
				c-2.539,6.35-4.604,10.753-4.627,10.797L290.206,257.858z M238.156,255.812h50.747c0.639-1.392,2.325-5.146,4.309-10.098
				c1.816-4.547,2.719-8.874,3.072-10.872h-58.127L238.156,255.812L238.156,255.812z"/>
		</g>
		
			<linearGradient id="SVGID_1_" gradientUnits="userSpaceOnUse" x1="86.8845" y1="97.8865" x2="247.5637" y2="97.8865" gradientTransform="matrix(1 0 0 -1 0.1401 376.2026)">
			<stop  offset="0" style="stop-color:#8BC23F"/>
			<stop  offset="0.4724" style="stop-color:#3D6731"/>
			<stop  offset="1" style="stop-color:#000000"/>
		</linearGradient>
		<path fill="url(#SVGID_1_)" d="M87.025,257.091h160.68c0,0-12.41,42.451-78.27,42.451
			C103.577,299.542,87.025,257.091,87.025,257.091z"/>
		<g>
			<path fill="#DDCA23" d="M198.272,200.168c0-0.041,0.008-0.079,0.008-0.121c0-14.385-15.57-26.049-34.778-26.049
				c-19.207,0-34.778,11.664-34.778,26.049c0,0.042,0.008,0.08,0.008,0.121H198.272z"/>
			<path fill="#231F20" d="M198.272,200.68H128.22v-0.513c-0.008-14.767,15.823-26.682,35.281-26.682
				c19.46,0,35.291,11.915,35.291,26.561l-0.038,0.607L198.272,200.68z M129.238,199.658h68.524
				c-0.285-13.908-15.545-25.148-34.262-25.148C144.781,174.51,129.518,185.754,129.238,199.658z"/>
		</g>
		<path fill="#B9AE32" d="M66.568,199.298h88.991v57.793H84.724c0,0-9.973-12.785-16.11-28.642
			C62.477,212.594,66.568,199.298,66.568,199.298z"/>
		<path fill="#562F1B" d="M254.914,279.478c-14.649,15.95-33.659,27.832-55.143,33.756l-2.539-9.382
			c-9.142,2.524-18.771,3.874-28.717,3.874c-10.935,0-21.488-1.634-31.43-4.665l-1.756,9.621
			c-22.575-6.646-42.318-19.902-56.993-37.527l7.092-6.668c-12.088-14.681-20.36-32.617-23.301-52.298l-9.517,2.062
			c-0.913-5.898-1.389-11.944-1.389-18.101c0-14.886,2.772-29.123,7.828-42.225l8.185,5.883c5.822-16.229,15.436-30.65,27.771-42.2
			l-5.026-8.579c15.084-13.605,33.72-23.352,54.348-27.675l2.057,9.5c7.143-1.494,14.546-2.279,22.133-2.279
			c13.603,0,26.611,2.523,38.59,7.127l1.967-9.644c20.72,7.635,38.688,20.949,52.02,38.058l-11.945,13.904
			c-18.052-24.996-47.441-41.263-80.63-41.263c-54.892,0-99.392,44.5-99.392,99.393s44.5,99.392,99.392,99.392
			c29.624,0,56.221-12.96,74.432-33.521L254.914,279.478z"/>
		<g>
			<path fill="#231F20" d="M45.462,294.109l6.462,6.782l-11.901,11.338l10.275,10.784l7.306-6.959l-1.363-1.433l-5.033,0.774
				l-6.542-6.866l12.757-1.868L68.66,318.46l-16.495,15.713l-23.198-24.35L45.462,294.109z"/>
			<path fill="#231F20" d="M66.149,331.332l7.903,5.029l-5.883,9.245l-7.903-5.03L66.149,331.332z M72.498,321.355l27.294,17.369
				L87.56,357.945l-7.902-5.028l8.823-13.867l-19.39-12.341L72.498,321.355z"/>
			<path fill="#231F20" d="M103.949,340.488l28.592,9.896l-7.452,21.528l-8.854-3.063l5.377-15.531l-19.738-6.834L103.949,340.488z"
				/>
			<path fill="#231F20" d="M161.831,354.129l32.324-1.269l0.896,22.765l-9.362,0.368l-0.643-16.425l-13.605,0.534l0.645,16.424
				l-15.815,0.621l-0.249-6.341l6.454-0.254L161.831,354.129z"/>
			<path fill="#231F20" d="M198.642,350.846l9.13-2.094l2.202,9.605l-9.13,2.091L198.642,350.846z"/>
			<path fill="#231F20" d="M212.763,347.331l8.89-2.953l3.105,9.354l-8.891,2.95L212.763,347.331z"/>
			<path fill="#231F20" d="M226.426,343.208l26.828-13.985l10.533,20.201l-8.309,4.331l-7.598-14.573l-18.523,9.654L226.426,343.208
				z"/>
			<path fill="#231F20" d="M256.704,326.018l7.517-5.594l5.881,7.908l-7.518,5.59L256.704,326.018z"/>
			<path fill="#231F20" d="M290.733,318.452l4.019-4.207l0.27-3.764l-10.146-9.691l6.469-6.774l11.887,11.353l-0.755,9.979
				l-17.197,18.011l-4.591-4.382l3.578-3.746l-11.89-11.353l6.472-6.773L290.733,318.452z"/>
		</g>
		<g>
			<path fill="#231F20" d="M115.625,39.088c-1.926-3.719-4.611-6.209-8.055-7.472c-3.919-1.419-8.252-0.981-12.998,1.315l-5.3-10.23
				c-2.823,4.697-4.316,7.303-4.479,7.818c-0.648,1.926-0.257,4.269,1.175,7.03c-3.196,3.22-5.47,6.735-6.822,10.548
				c-1.352,3.812-1.595,7.449-0.731,10.909l-6.294,3.262l-5.242,0.767l-5.366-4.662c-1.101-0.957-1.974-1.483-2.618-1.583
				c-0.493-0.052-1.626,0.157-3.396,0.627c-2.258,0.591-4.176,1.794-5.75,3.607L28.042,86.008c-2.293,2.641-3.402,5.741-3.327,9.303
				L2.306,75.84c-0.714,2.282-1.438,4.576-2.175,6.883c-0.409,2.295,0.136,4.093,1.635,5.396l24.687,21.448l-5.655,6.509
				l3.974,8.562l44.454-51.165l45.975-23.813c1.071-0.556,1.936-1.44,2.593-2.657c0.658-1.217,0.783-2.218,0.375-3.005
				L115.625,39.088z M32.764,102.302l-4.877-4.236l23.868-27.473c0.916-1.055,1.976-1.837,3.181-2.348
				c1.362-0.583,2.415-0.553,3.154,0.09l2.417,2.036L32.764,102.302z M87.043,54.54c-0.442-2.035-0.508-3.658-0.2-4.869
				c0.351-1.34,1.349-2.923,2.998-4.747l3.334,6.439L87.043,54.54z M101.805,46.894l-3.335-6.439
				c2.308-0.791,4.028-1.042,5.162-0.753c1.133,0.289,2.124,1.252,2.971,2.888c0.232,0.445,0.451,0.939,0.659,1.478L101.805,46.894z
				"/>
			<path fill="#231F20" d="M142.798,26.014c-4.603,3.062-7.021,4.719-7.255,4.971c-1.734,1.656-2.301,3.767-1.704,6.33l2.834,12.167
				l-12.248,2.853c0.873,2.353,2.614,3.98,5.221,4.884c2.607,0.904,5.564,0.971,8.875,0.2c3.216-0.749,5.684-2.092,7.401-4.026
				c1.717-1.937,2.299-4.094,1.745-6.471L142.798,26.014z"/>
			<path fill="#231F20" d="M188.085,7.367c1.419,0.17,2.619-0.031,3.599-0.601s1.534-1.401,1.666-2.494
				c0.128-1.069-0.218-1.996-1.035-2.781c-0.817-0.784-1.936-1.262-3.355-1.432c-1.45-0.174-2.657,0.025-3.62,0.598
				c-0.965,0.572-1.51,1.392-1.638,2.462c-0.131,1.093,0.206,2.031,1.007,2.813C185.508,6.716,186.635,7.193,188.085,7.367z"/>
			<path fill="#231F20" d="M204.545,9.334c1.451,0.174,2.657-0.025,3.62-0.597c0.966-0.571,1.513-1.404,1.643-2.498
				c0.128-1.069-0.21-1.995-1.011-2.778c-0.801-0.781-1.928-1.261-3.379-1.435c-1.418-0.168-2.619,0.031-3.599,0.601
				c-0.979,0.57-1.531,1.39-1.659,2.459c-0.133,1.094,0.212,2.032,1.03,2.816C202.008,8.688,203.127,9.164,204.545,9.334z"/>
			<path fill="#231F20" d="M232.839,62.833c-1.341-0.494-2.554-0.576-3.642-0.247c-1.087,0.329-1.814,1.002-2.19,2.019
				c-0.374,1.015-0.256,2,0.356,2.957c0.611,0.957,1.59,1.682,2.93,2.177c1.371,0.504,2.592,0.59,3.662,0.254
				c1.07-0.335,1.794-1.011,2.17-2.025c0.373-1.016,0.262-1.999-0.334-2.949C235.194,64.067,234.209,63.339,232.839,62.833z"/>
			<path fill="#231F20" d="M238.892,39.661c-0.977,0.635-2.253,3.098-3.835,7.386L207.84,37.01l-0.212-0.085l2.224-18.604
				c-2.772,1.524-5.77,2.371-8.985,2.541c-2.581-0.091-5.16-0.184-7.739-0.273c-2.867-0.102-5.217,0.292-7.049,1.183
				c-5.504,2.692-8.554,6.521-9.146,11.486l-1.021,8.556l29.659,3.544l30.706,11.324c1.103,0.406,2.332,0.445,3.688,0.116
				c1.355-0.328,2.188-0.907,2.495-1.738l6.358-17.243C243.083,38.478,239.773,39.094,238.892,39.661z M186.629,34.415
				c0.002-0.289,0.018-0.562,0.05-0.825c0.198-1.663,1.239-3.039,3.119-4.128c1.88-1.088,3.928-1.5,6.145-1.234
				c0.917,0.109,1.868,0.344,2.855,0.703l-0.819,6.843L186.629,34.415z"/>
			<path fill="#231F20" d="M217.285,57.098c-1.37-0.507-2.592-0.591-3.662-0.256s-1.794,1.011-2.169,2.026
				c-0.374,1.015-0.263,1.998,0.335,2.949c0.596,0.951,1.581,1.679,2.951,2.185c1.341,0.495,2.554,0.576,3.64,0.247
				c1.087-0.33,1.817-1.003,2.191-2.018c0.373-1.017,0.257-2.001-0.354-2.958C219.603,58.317,218.626,57.592,217.285,57.098z"/>
			<path fill="#231F20" d="M293.685,118.706c-1.062-0.381-2.046-0.279-2.947,0.31c-0.923,0.6-1.425,1.464-1.504,2.591
				c-0.08,1.127,0.269,2.286,1.045,3.478c0.793,1.218,1.721,2.02,2.782,2.401c1.063,0.382,2.057,0.271,2.979-0.328
				c0.901-0.587,1.394-1.445,1.474-2.571c0.08-1.127-0.277-2.3-1.07-3.518C295.668,119.875,294.749,119.088,293.685,118.706z"/>
			<path fill="#231F20" d="M310.362,113.169l-10.623-16.313l29.74-26.987c-2.306-0.938-4.602-1.864-6.885-2.778
				c-2.317-0.63-4.229-0.261-5.733,1.106l-23.793,21.59l-4.315-4.757l0.037-0.038l-4.616-6.99l4.377-6.18
				c1.135-1.602,1.354-3.484,0.661-5.647c-0.695-2.164-2.203-4.066-4.523-5.71l-12.932-9.159c-1.091-0.772-2.037-1.941-2.839-3.507
				c-0.739-1.432-1.133-2.752-1.175-3.956l-6.434,9.08l15.697,11.119c0.753,0.533,1.348,1.3,1.79,2.301
				c0.44,1.002,0.467,1.776,0.081,2.323l-2.635,3.721l-23.596-16.713l-4.979,7.03l25.729,18.224l20.143,22.195l11.996,18.421
				c0.677,1.038,1.65,1.833,2.925,2.388c1.272,0.553,2.293,0.581,3.056,0.086l15.398-10.029c-5.396-2.853-8.459-4.307-9.182-4.366
				C316.609,109.518,314.152,110.701,310.362,113.169z"/>
		</g>
		<g>
			<path fill="#ACBC61" d="M157.093,199.467c0,0,0-75.691,0-79.955c0-4.262,3.921-5.796,6.479-5.796s5.797,2.388,5.797,6.479
				c0,4.091,0,79.271,0,79.271H157.093z"/>
			<path fill="#231F20" d="M169.879,199.979h-13.297v-80.466c0-4.629,4.181-6.309,6.99-6.309c2.645,0,6.308,2.43,6.308,6.991
				L169.879,199.979L169.879,199.979z M157.604,198.957h11.252v-78.761c0-3.895-3.068-5.968-5.284-5.968
				c-2.397,0-5.968,1.407-5.968,5.285V198.957z"/>
		</g>
		<rect x="162.208" y="105.021" fill="#231F20" width="2.046" height="8.354"/>
		<rect x="208.919" y="168.781" fill="#231F20" width="2.046" height="8.354"/>
		<path fill="#CDD42A" d="M97.592,257.432c0,0,7.501-37.846,10.229-49.097c2.729-11.252,4.092-18.754,9.548-18.754
			s5.795,4.772,6.137,6.818c0.341,2.046,4.091,61.031,4.091,61.031L97.592,257.432L97.592,257.432z"/>
		<rect x="116.62" y="181.397" fill="#CDD42A" width="2.046" height="8.354"/>
		
			<rect x="103.9" y="191.39" transform="matrix(-0.5585 -0.8295 0.8295 -0.5585 -18.7575 429.5391)" fill="#DDCA23" width="2.047" height="56.742"/>
		
			<rect x="85.094" y="173.729" transform="matrix(-0.8393 -0.5437 0.5437 -0.8393 101.2932 379.4464)" fill="#DDCA23" width="43.268" height="2.046"/>
		
			<rect x="105.94" y="153.525" transform="matrix(-0.5903 -0.8072 0.8072 -0.5903 77.4838 348.4237)" fill="#DDCA23" width="42.454" height="2.046"/>
		
			<rect x="183.945" y="124.859" transform="matrix(-0.9654 -0.2608 0.2608 -0.9654 325.0956 337.8936)" fill="#DDCA23" width="2.044" height="45.035"/>
		
			<rect x="209.001" y="143.761" transform="matrix(-0.6836 -0.7299 0.7299 -0.6836 236.1127 424.2599)" fill="#DDCA23" width="2.044" height="34.374"/>
		<g>
			<rect x="155.559" y="199.308" fill="#C7D1A0" width="81.575" height="57.945"/>
			<path fill="#231F20" d="M237.646,257.766h-82.598v-58.971h82.598V257.766z M156.07,256.744h80.553v-56.925H156.07V256.744z"/>
		</g>
		<rect x="165.276" y="207.737" fill="#231F20" width="8.184" height="19.946"/>
		<rect x="180.789" y="207.737" fill="#231F20" width="5.456" height="19.946"/>
		<rect x="191.445" y="207.737" fill="#231F20" width="5.456" height="19.946"/>
		<rect x="202.441" y="207.737" fill="#231F20" width="7.33" height="19.946"/>
		<rect x="199.713" y="197.717" fill="#231F20" width="3.376" height="1.606"/>
		<rect x="206.516" y="197.717" fill="#231F20" width="4.535" height="1.606"/>
		<rect x="162.975" y="199.126" fill="#231F20" width="0.512" height="56.314"/>
		<rect x="173.715" y="199.126" fill="#231F20" width="0.512" height="57.856"/>
		<rect x="182.409" y="199.126" fill="#231F20" width="0.512" height="57.856"/>
		<rect x="188.377" y="199.126" fill="#231F20" width="0.512" height="57.856"/>
		<rect x="196.389" y="199.126" fill="#231F20" width="0.511" height="57.856"/>
		<rect x="203.549" y="199.126" fill="#231F20" width="0.511" height="57.856"/>
		<rect x="211.392" y="199.126" fill="#231F20" width="0.512" height="57.856"/>
		<rect x="220.086" y="199.126" fill="#231F20" width="0.512" height="57.856"/>
		<path fill="#8A8E7F" d="M169.464,245.827c1.496-1.128,2.613-2.719,4.268-3.644c3.186-1.78,6.948-1.765,10.5-2.419
			c4.229-0.781,8.688-2.389,12.636-4.372c8.834-4.438,19.611-4.147,28.509-9.678c4.525-2.812,6.351-6.629,11.835-6.637
			c3.8-0.004,7.931,0.26,11.899,0.082c3.039-0.139,6.095-0.066,9.142-0.082c2.893-0.015,5.688,1.168,8.477,0.651
			c2.433-0.452,4.136-2.068,6.745-2.485c3.166-0.508,7.014-0.682,10.219-0.342c4.914,0.518,5.479,4.27,9.871,6.415
			c2.917,1.429,6.568,2.583,9.845,3.089c-0.276,3.352-2.593,7.3-3.65,10.093c-1.423,3.754-1.127,5.102-5.265,3.891
			c-4.371-1.278-7.133-2.823-11.764-2.812c-5.041,0.012-10.083,0-15.126,0c-10.966,0-20.59,1.11-31.134,2.908
			c-8.631,1.471-18.086,0.85-26.959,2.168c-8.593,1.276-15.893,5.47-24.102,7.264c-5.969,1.304-9.809-0.148-12.296,6.875
			c-4.821,0-10.548,0-15.934,0c0.494-0.726,0.697-0.584,1.16-1.299c0.475-0.729,0.82-1.5,1.367-2.191
			c1.228-1.551,2.918-2.618,4.247-4.062C165.465,247.603,167.728,247.142,169.464,245.827z"/>
		<path fill="#562F1B" d="M238.156,164.034c0,0,4.093,16.258,5.115,18.618c1.022,2.359,3.068,7.867,3.324,14.948
			c0.256,7.077-4.092,10.487-3.836,22.812c0.256,12.325-3.068,31.729-3.068,31.729s2.558,3.672,6.648,3.672s7.16-4.457,7.16-4.457
			s-1.022-8.654,0.256-18.095c1.278-9.439,16.11-39.069,16.11-39.069l-2.303-1.312c0,0-5.37,8.917-9.206,17.309
			c-3.836,8.391-5.626,13.896-5.626,13.896s-2.557-3.67-2.557-11.012c0-7.344,2.812-6.295,2.812-12.062
			c0-5.77-4.347-14.685-6.647-22.552c-2.302-7.866-4.858-15.471-4.858-15.471L238.156,164.034z"/>
		<path fill="#231F20" d="M233.873,257.155l7.269-9.015c0,0-0.342,7.502,3.75,7.16s15.513-6.648,15.513-6.648l-0.34,8.523
			L233.873,257.155z"/>
		<g>
			<path fill="#7DA53F" d="M166.196,58.31c-78.338,0-141.842,63.505-141.842,141.841c0,78.337,63.504,141.842,141.842,141.842
				c78.341,0,141.846-63.505,141.846-141.842C308.04,121.814,244.536,58.31,166.196,58.31z M166.196,335.855
				c-74.947,0-135.704-60.758-135.704-135.704c0-74.947,60.757-135.704,135.704-135.704c74.949,0,135.707,60.757,135.707,135.704
				C301.903,275.097,241.146,335.855,166.196,335.855z"/>
			<path fill="#231F20" d="M166.196,342.759c-78.635,0-142.608-63.974-142.608-142.607S87.561,57.543,166.196,57.543
				c78.636,0,142.611,63.975,142.611,142.608C308.808,278.786,244.831,342.759,166.196,342.759z M166.196,59.077
				c-77.788,0-141.074,63.286-141.074,141.074c0,77.789,63.286,141.074,141.074,141.074c77.79,0,141.077-63.285,141.077-141.074
				C307.273,122.363,243.986,59.077,166.196,59.077z M166.196,336.623c-75.251,0-136.472-61.222-136.472-136.472
				c0-75.251,61.221-136.471,136.472-136.471c75.254,0,136.475,61.22,136.475,136.471
				C302.67,275.401,241.449,336.623,166.196,336.623z M166.196,65.214c-74.404,0-134.938,60.532-134.938,134.938
				s60.533,134.937,134.938,134.937c74.406,0,134.939-60.53,134.939-134.937C301.136,125.746,240.603,65.214,166.196,65.214z"/>
		</g>
		<g>
			<path fill="#6CB645" d="M238.668,151.734c0,0-5.881-12.02-12.53-12.02c-6.647,0-15.343,1.79-15.343,1.79
				s11.251,2.813,14.831,6.138s4.604,6.137,4.604,6.137s-7.416,2.046-10.229,4.858c-2.813,2.813-6.139,8.439-6.139,8.439
				s7.929-5.882,12.02-6.393c4.092-0.513,5.626,0,5.626,0s-5.114,6.647-5.114,10.229s1.022,12.02,1.022,12.02
				s4.092-9.206,5.882-11.764c1.79-2.557,3.324-4.603,3.324-4.603s7.672-2.045,10.996-1.534c3.323,0.511,9.206,4.603,9.206,4.603
				s3.067-8.438-3.068-11.507c-6.138-3.068-10.229-0.768-10.229-0.768s5.114-7.16,10.229-7.16s10.74,2.302,10.74,2.302
				s-2.812-9.206-11.252-9.206C244.806,143.295,238.668,151.734,238.668,151.734z"/>
			<path fill="#231F20" d="M227.131,184.832l-0.222-1.838c-0.042-0.347-1.027-8.511-1.027-12.081c0-3.063,3.415-8.065,4.726-9.872
				c-0.878-0.101-2.698-0.095-4.661,0.151c-3.911,0.488-11.698,6.238-11.776,6.296l-2.034,1.507l1.289-2.178
				c0.136-0.233,3.389-5.715,6.215-8.541c2.443-2.444,8.063-4.277,9.884-4.825c-0.458-0.933-1.681-3.056-4.242-5.435
				c-3.442-3.196-14.497-5.987-14.608-6.016l-2.178-0.544l2.196-0.453c0.088-0.019,8.822-1.801,15.447-1.801
				c5.993,0,11.204,8.932,12.62,11.587c1.652-2.018,7.179-8.007,14.486-8.007c8.717,0,11.711,9.473,11.74,9.567l0.313,1.03
				l-0.996-0.406c-0.057-0.023-5.597-2.265-10.547-2.265c-3.446,0-6.988,3.561-8.721,5.583c0.656-0.152,1.487-0.273,2.47-0.273
				c2.108,0,4.291,0.554,6.479,1.648c6.472,3.235,3.354,12.052,3.322,12.141l-0.228,0.624l-0.545-0.379
				c-0.06-0.04-5.824-4.03-8.992-4.518c-0.328-0.051-0.725-0.076-1.175-0.076c-3.235,0-8.437,1.295-9.442,1.555
				c-0.377,0.507-1.71,2.308-3.206,4.446c-1.742,2.487-5.794,11.585-5.834,11.678L227.131,184.832z M229.158,159.945
				c1.701,0,2.434,0.228,2.512,0.254l0.682,0.228l-0.438,0.569c-0.052,0.065-5.01,6.552-5.01,9.917c0,2.493,0.51,7.437,0.808,10.12
				c1.275-2.797,3.826-8.241,5.167-10.158c1.772-2.534,3.317-4.596,3.334-4.616l0.104-0.142l0.172-0.046
				c0.25-0.067,6.171-1.633,9.877-1.633c0.503,0,0.949,0.028,1.329,0.088c2.819,0.434,7.268,3.251,8.848,4.301
				c0.56-1.958,1.766-7.852-3.016-10.243c-2.048-1.022-4.073-1.542-6.022-1.542c-2.321,0-3.714,0.755-3.729,0.764l-1.978,1.095
				l1.312-1.839c0.215-0.302,5.328-7.374,10.646-7.374c3.867,0,7.953,1.263,9.854,1.934c-1.016-2.332-4.071-7.815-10.364-7.815
				c-8.085,0-14.104,8.146-14.162,8.228l-0.5,0.688l-0.373-0.764c-0.06-0.117-5.818-11.731-12.071-11.731
				c-4.517,0-10.053,0.846-13.054,1.372c3.487,1.003,10.196,3.169,12.89,5.67c3.631,3.368,4.693,6.217,4.737,6.337l0.188,0.521
				l-0.532,0.148c-0.072,0.02-7.318,2.043-10.004,4.727c-1.651,1.652-3.507,4.33-4.725,6.204c2.669-1.802,7.286-4.666,10.181-5.027
				C227.047,160.022,228.17,159.945,229.158,159.945z"/>
		</g>
		<g>
			<path fill="#6CB645" d="M274.725,183.699c0,0,3.58-2.301,10.229-2.301c6.647,0,6.393,5.37,6.393,5.37s-1.021-0.513-6.138-0.256
				c-5.114,0.256-5.881,2.302-5.881,2.302s5.626,3.835,6.393,7.416c0.768,3.58-2.302,6.648-2.302,6.648s-0.255-3.068-2.812-6.138
				c-2.557-3.069-5.113-2.813-5.113-2.813s1.277,4.093-0.257,8.185c-1.533,4.092-3.323,3.324-3.323,3.324s1.277-4.348-0.513-6.904
				s-3.323-5.114-3.323-5.114s0.512-1.79-3.837-1.79c-4.348,0-6.903,1.534-6.903,1.534s0.256-4.858,3.836-5.626
				c3.58-0.767,5.114-0.256,5.114-0.256s1.533-3.324-1.278-5.114c-2.813-1.79-5.882-2.301-5.882-2.301s6.903-4.092,10.229-2.302
				S274.725,183.699,274.725,183.699z"/>
			<path fill="#231F20" d="M272.27,206.004c-0.306,0-0.506-0.076-0.56-0.1l-0.415-0.178l0.126-0.437
				c0.012-0.042,1.187-4.146-0.44-6.467c-1.778-2.544-3.328-5.12-3.344-5.146l-0.114-0.189l0.062-0.213
				c-0.002,0,0.024-0.169-0.139-0.368c-0.235-0.287-0.968-0.771-3.207-0.771c-4.136,0-6.616,1.448-6.643,1.464l-0.821,0.487
				l0.048-0.955c0.013-0.215,0.322-5.259,4.239-6.099c1.346-0.288,2.563-0.434,3.624-0.434c0.565,0,0.987,0.042,1.275,0.087
				c0.271-0.843,0.675-2.879-1.229-4.092c-2.687-1.709-5.661-2.224-5.69-2.229l-1.379-0.232l1.2-0.712
				c0.195-0.115,4.812-2.827,8.415-2.827c0.904,0,1.685,0.175,2.317,0.515c2.797,1.505,4.688,4.661,5.342,5.881
				c1.209-0.63,4.615-2.106,10.017-2.106c2.351,0,4.156,0.645,5.365,1.911c1.626,1.706,1.542,3.903,1.538,3.995l-0.038,0.784
				l-0.7-0.351c-0.017-0.004-1.155-0.436-5.885-0.203c-3.396,0.169-4.729,1.148-5.202,1.665c1.354,0.987,5.505,4.247,6.188,7.434
				c0.816,3.81-2.306,6.984-2.439,7.118l-0.774,0.774l-0.096-1.093c-0.003-0.029-0.284-2.959-2.697-5.854
				c-1.614-1.938-3.19-2.458-4.054-2.591c0.304,1.379,0.771,4.572-0.443,7.812C274.503,205.521,273.037,206.004,272.27,206.004z
				 M268.604,193.301c0.354,0.58,1.7,2.771,3.217,4.937c1.498,2.142,1.037,5.332,0.743,6.693c0.483-0.154,1.354-0.761,2.193-2.999
				c1.456-3.883,0.26-7.812,0.248-7.852l-0.188-0.593l0.624-0.068c-0.002-0.001,2.784-0.331,5.559,2.993
				c1.704,2.046,2.426,4.082,2.725,5.299c0.8-1.087,1.976-3.146,1.497-5.374c-0.718-3.343-6.128-7.063-6.182-7.102l-0.331-0.227
				l0.14-0.377c0.092-0.241,1.039-2.366,6.335-2.632c3.15-0.157,4.771-0.031,5.607,0.106c-0.095-0.667-0.377-1.735-1.222-2.614
				c-1.009-1.051-2.561-1.584-4.615-1.584c-6.397,0-9.92,2.199-9.953,2.221l-0.49,0.312l-0.249-0.525
				c-0.021-0.042-2.016-4.217-5.148-5.904c-0.482-0.261-1.102-0.393-1.834-0.393c-2.287,0-5.146,1.261-6.719,2.054
				c1.188,0.331,2.992,0.959,4.722,2.061c2.522,1.605,2.064,4.47,1.469,5.761l-0.192,0.416l-0.434-0.145
				c0,0-0.459-0.142-1.438-0.142c-0.987,0-2.136,0.138-3.408,0.412c-2.262,0.484-3.045,2.905-3.307,4.25
				c1.133-0.477,3.291-1.17,6.269-1.17c2.082,0,3.441,0.405,4.044,1.202C268.567,192.694,268.613,193.064,268.604,193.301z"/>
		</g>
	</g>
</g>
</svg>
