<?xml version="1.0" encoding="UTF-8" standalone="no"?>
<!-- Created with Inkscape (http://www.inkscape.org/) -->

<svg
   xmlns:dc="http://purl.org/dc/elements/1.1/"
   xmlns:cc="http://creativecommons.org/ns#"
   xmlns:rdf="http://www.w3.org/1999/02/22-rdf-syntax-ns#"
   xmlns:svg="http://www.w3.org/2000/svg"
   xmlns="http://www.w3.org/2000/svg"
   xmlns:sodipodi="http://sodipodi.sourceforge.net/DTD/sodipodi-0.dtd"
   xmlns:inkscape="http://www.inkscape.org/namespaces/inkscape"
   version="1.1"
   id="svg2"
   xml:space="preserve"
   width="404.1048"
   height="167.3461"
   viewBox="0 0 404.10479 167.3461"
   sodipodi:docname="RamatHanegev.svg"
   inkscape:version="0.92.3 (2405546, 2018-03-11)"><metadata
     id="metadata8"><rdf:RDF><cc:Work
         rdf:about=""><dc:format>image/svg+xml</dc:format><dc:type
           rdf:resource="http://purl.org/dc/dcmitype/StillImage" /><dc:title></dc:title></cc:Work></rdf:RDF></metadata><defs
     id="defs6"><clipPath
       clipPathUnits="userSpaceOnUse"
       id="clipPath18"><path
         d="M 0,0 H 841.89 V 595.275 H 0 Z"
         id="path16"
         inkscape:connector-curvature="0" /></clipPath><clipPath
       clipPathUnits="userSpaceOnUse"
       id="clipPath32"><path
         d="m 393.8,73.23 c 8.258,0.776 16.946,1.188 25.914,1.188 v 0 c 9.968,0 19.591,-0.51 28.661,-1.46 v 0 C 445.977,84.956 434.659,94.04 421.06,94.04 v 0 c -13.497,0 -24.745,-8.947 -27.26,-20.81"
         id="path30"
         inkscape:connector-curvature="0" /></clipPath><clipPath
       clipPathUnits="userSpaceOnUse"
       id="clipPath366"><path
         d="M 0,0 H 841.89 V 595.276 H 0 Z"
         id="path364"
         inkscape:connector-curvature="0" /></clipPath><clipPath
       clipPathUnits="userSpaceOnUse"
       id="clipPath418"><path
         d="M 0,0 H 841.89 V 595.276 H 0 Z"
         id="path416"
         inkscape:connector-curvature="0" /></clipPath><clipPath
       clipPathUnits="userSpaceOnUse"
       id="clipPath448"><path
         d="M 0,0 H 841.89 V 595.276 H 0 Z"
         id="path446"
         inkscape:connector-curvature="0" /></clipPath><clipPath
       clipPathUnits="userSpaceOnUse"
       id="clipPath464"><path
         d="M 0,0 H 841.89 V 595.276 H 0 Z"
         id="path462"
         inkscape:connector-curvature="0" /></clipPath><clipPath
       clipPathUnits="userSpaceOnUse"
       id="clipPath480"><path
         d="M 0,0 H 841.89 V 595.276 H 0 Z"
         id="path478"
         inkscape:connector-curvature="0" /></clipPath><clipPath
       clipPathUnits="userSpaceOnUse"
       id="clipPath502"><path
         d="M 0,0 H 841.89 V 595.276 H 0 Z"
         id="path500"
         inkscape:connector-curvature="0" /></clipPath></defs><sodipodi:namedview
     pagecolor="#ffffff"
     bordercolor="#666666"
     borderopacity="1"
     objecttolerance="10"
     gridtolerance="10"
     guidetolerance="10"
     inkscape:pageopacity="0"
     inkscape:pageshadow="2"
     inkscape:window-width="1920"
     inkscape:window-height="1001"
     id="namedview4"
     showgrid="false"
     fit-margin-top="0"
     fit-margin-left="0"
     fit-margin-right="0"
     fit-margin-bottom="0"
     inkscape:zoom="2.3787285"
     inkscape:cx="302.05688"
     inkscape:cy="62.041853"
     inkscape:window-x="-9"
     inkscape:window-y="-9"
     inkscape:window-maximized="1"
     inkscape:current-layer="g10" /><g
     id="g10"
     inkscape:groupmode="layer"
     inkscape:label="חוברת-מועצה-21"
     transform="matrix(1.3333333,0,0,-1.3333333,-250.8162,224.03917)"><g
       id="g26"
       transform="matrix(2.1572744,0,0,2.1572744,-568.44245,-49.207074)"><g
         id="g28"
         clip-path="url(#clipPath32)"><path
           d="m 393.8,94.04 h 54.575 V 72.958 H 393.8 Z"
           style="fill:#ffd420;fill-opacity:1;fill-rule:nonzero;stroke:none"
           id="path34"
           inkscape:connector-curvature="0" /><g
           id="g36"
           transform="translate(352.1523,71.6807)"><path
             d="m 0,0 c 0,11.418 31.102,20.674 69.468,20.674 38.367,0 69.468,-9.256 69.468,-20.674 0,-11.418 -31.101,-20.674 -69.468,-20.674 C 31.102,-20.674 0,-11.418 0,0"
             style="fill:#ffd420;fill-opacity:1;fill-rule:nonzero;stroke:none"
             id="path38"
             inkscape:connector-curvature="0" /></g><g
           id="g40"
           transform="translate(352.6737,71.663)"><path
             d="m 0,0 c 0,11.329 30.86,20.513 68.928,20.513 38.07,0 68.93,-9.184 68.93,-20.513 0,-11.329 -30.86,-20.513 -68.93,-20.513 C 30.86,-20.513 0,-11.329 0,0"
             style="fill:#ffd525;fill-opacity:1;fill-rule:nonzero;stroke:none"
             id="path42"
             inkscape:connector-curvature="0" /></g><g
           id="g44"
           transform="translate(353.215,71.6672)"><path
             d="m 0,0 c 0,11.241 30.619,20.354 68.391,20.354 37.771,0 68.39,-9.113 68.39,-20.354 0,-11.241 -30.619,-20.353 -68.39,-20.353 C 30.619,-20.353 0,-11.241 0,0"
             style="fill:#ffd529;fill-opacity:1;fill-rule:nonzero;stroke:none"
             id="path46"
             inkscape:connector-curvature="0" /></g><g
           id="g48"
           transform="translate(353.7564,71.6714)"><path
             d="m 0,0 c 0,11.153 30.379,20.193 67.852,20.193 37.475,0 67.852,-9.04 67.852,-20.193 0,-11.152 -30.377,-20.193 -67.852,-20.193 C 30.379,-20.193 0,-11.152 0,0"
             style="fill:#ffd62d;fill-opacity:1;fill-rule:nonzero;stroke:none"
             id="path50"
             inkscape:connector-curvature="0" /></g><g
           id="g52"
           transform="translate(354.2986,71.6756)"><path
             d="m 0,0 c 0,11.065 30.137,20.034 67.314,20.034 37.176,0 67.313,-8.969 67.313,-20.034 0,-11.064 -30.137,-20.033 -67.313,-20.033 C 30.137,-20.033 0,-11.064 0,0"
             style="fill:#ffd734;fill-opacity:1;fill-rule:nonzero;stroke:none"
             id="path54"
             inkscape:connector-curvature="0" /></g><g
           id="g56"
           transform="translate(354.84,71.6807)"><path
             d="m 0,0 c 0,10.975 29.896,19.872 66.775,19.872 36.879,0 66.776,-8.897 66.776,-19.872 0,-10.976 -29.897,-19.873 -66.776,-19.873 C 29.896,-19.873 0,-10.976 0,0"
             style="fill:#ffd737;fill-opacity:1;fill-rule:nonzero;stroke:none"
             id="path58"
             inkscape:connector-curvature="0" /></g><g
           id="g60"
           transform="translate(355.3814,71.6849)"><path
             d="m 0,0 c 0,10.887 29.655,19.713 66.237,19.713 36.583,0 66.237,-8.826 66.237,-19.713 0,-10.887 -29.654,-19.713 -66.237,-19.713 C 29.655,-19.713 0,-10.887 0,0"
             style="fill:#ffd73a;fill-opacity:1;fill-rule:nonzero;stroke:none"
             id="path62"
             inkscape:connector-curvature="0" /></g><g
           id="g64"
           transform="translate(355.9227,71.6672)"><path
             d="m 0,0 c 0,10.798 29.414,19.552 65.699,19.552 36.285,0 65.698,-8.754 65.698,-19.552 0,-10.799 -29.413,-19.552 -65.698,-19.552 C 29.414,-19.552 0,-10.799 0,0"
             style="fill:#ffd73d;fill-opacity:1;fill-rule:nonzero;stroke:none"
             id="path66"
             inkscape:connector-curvature="0" /></g><g
           id="g68"
           transform="translate(356.4441,71.6714)"><path
             d="m 0,0 c 0,10.71 29.172,19.392 65.16,19.392 35.988,0 65.16,-8.682 65.16,-19.392 0,-10.71 -29.172,-19.392 -65.16,-19.392 C 29.172,-19.392 0,-10.71 0,0"
             style="fill:#ffd940;fill-opacity:1;fill-rule:nonzero;stroke:none"
             id="path70"
             inkscape:connector-curvature="0" /></g><g
           id="g72"
           transform="translate(356.9864,71.6756)"><path
             d="m 0,0 c 0,10.622 28.931,19.232 64.621,19.232 35.69,0 64.621,-8.61 64.621,-19.232 0,-10.621 -28.931,-19.231 -64.621,-19.231 C 28.931,-19.231 0,-10.621 0,0"
             style="fill:#ffd946;fill-opacity:1;fill-rule:nonzero;stroke:none"
             id="path74"
             inkscape:connector-curvature="0" /></g><g
           id="g76"
           transform="translate(357.5277,71.6579)"><path
             d="m 0,0 c 0,10.534 28.69,19.072 64.083,19.072 35.392,0 64.082,-8.538 64.082,-19.072 0,-10.533 -28.69,-19.071 -64.082,-19.071 C 28.69,-19.071 0,-10.533 0,0"
             style="fill:#ffd949;fill-opacity:1;fill-rule:nonzero;stroke:none"
             id="path78"
             inkscape:connector-curvature="0" /></g><g
           id="g80"
           transform="translate(358.0691,71.6621)"><path
             d="m 0,0 c 0,10.445 28.449,18.911 63.545,18.911 35.095,0 63.544,-8.466 63.544,-18.911 0,-10.444 -28.449,-18.91 -63.544,-18.91 C 28.449,-18.91 0,-10.444 0,0"
             style="fill:#ffd94c;fill-opacity:1;fill-rule:nonzero;stroke:none"
             id="path82"
             inkscape:connector-curvature="0" /></g><g
           id="g84"
           transform="translate(358.6104,71.6672)"><path
             d="m 0,0 c 0,10.355 28.209,18.751 63.006,18.751 34.798,0 63.007,-8.396 63.007,-18.751 0,-10.356 -28.209,-18.751 -63.007,-18.751 C 28.209,-18.751 0,-10.356 0,0"
             style="fill:#ffd94f;fill-opacity:1;fill-rule:nonzero;stroke:none"
             id="path86"
             inkscape:connector-curvature="0" /></g><g
           id="g88"
           transform="translate(359.1527,71.6714)"><path
             d="m 0,0 c 0,10.268 27.967,18.59 62.468,18.59 34.499,0 62.467,-8.322 62.467,-18.59 0,-10.268 -27.968,-18.59 -62.467,-18.59 C 27.967,-18.59 0,-10.268 0,0"
             style="fill:#ffdb52;fill-opacity:1;fill-rule:nonzero;stroke:none"
             id="path90"
             inkscape:connector-curvature="0" /></g><g
           id="g92"
           transform="translate(359.6941,71.6756)"><path
             d="m 0,0 c 0,10.179 27.726,18.43 61.929,18.43 34.204,0 61.929,-8.251 61.929,-18.43 0,-10.179 -27.725,-18.431 -61.929,-18.431 C 27.726,-18.431 0,-10.179 0,0"
             style="fill:#ffdb57;fill-opacity:1;fill-rule:nonzero;stroke:none"
             id="path94"
             inkscape:connector-curvature="0" /></g><g
           id="g96"
           transform="translate(360.2354,71.6799)"><path
             d="m 0,0 c 0,10.09 27.486,18.27 61.391,18.27 33.906,0 61.391,-8.18 61.391,-18.27 0,-10.09 -27.485,-18.27 -61.391,-18.27 C 27.486,-18.27 0,-10.09 0,0"
             style="fill:#ffdb5a;fill-opacity:1;fill-rule:nonzero;stroke:none"
             id="path98"
             inkscape:connector-curvature="0" /></g><g
           id="g100"
           transform="translate(360.7568,71.6841)"><path
             d="m 0,0 c 0,10.002 27.244,18.11 60.852,18.11 33.608,0 60.852,-8.108 60.852,-18.11 0,-10.002 -27.244,-18.11 -60.852,-18.11 C 27.244,-18.11 0,-10.002 0,0"
             style="fill:#ffdc5d;fill-opacity:1;fill-rule:nonzero;stroke:none"
             id="path102"
             inkscape:connector-curvature="0" /></g><g
           id="g104"
           transform="translate(361.2981,71.6664)"><path
             d="m 0,0 c 0,9.914 27.003,17.95 60.314,17.95 33.311,0 60.313,-8.036 60.313,-17.95 0,-9.913 -27.002,-17.949 -60.313,-17.949 C 27.003,-17.949 0,-9.913 0,0"
             style="fill:#ffdc5f;fill-opacity:1;fill-rule:nonzero;stroke:none"
             id="path106"
             inkscape:connector-curvature="0" /></g><g
           id="g108"
           transform="translate(361.8404,71.6706)"><path
             d="M 0,0 C 0,9.825 26.762,17.79 59.774,17.79 92.788,17.79 119.55,9.825 119.55,0 119.55,-9.824 92.788,-17.789 59.774,-17.789 26.762,-17.789 0,-9.824 0,0"
             style="fill:#ffdc62;fill-opacity:1;fill-rule:nonzero;stroke:none"
             id="path110"
             inkscape:connector-curvature="0" /></g><g
           id="g112"
           transform="translate(362.3818,71.6756)"><path
             d="m 0,0 c 0,9.736 26.521,17.628 59.237,17.628 32.716,0 59.237,-7.892 59.237,-17.628 0,-9.736 -26.521,-17.629 -59.237,-17.629 C 26.521,-17.629 0,-9.736 0,0"
             style="fill:#ffde67;fill-opacity:1;fill-rule:nonzero;stroke:none"
             id="path114"
             inkscape:connector-curvature="0" /></g><g
           id="g116"
           transform="translate(362.9031,71.6799)"><path
             d="m 0,0 c 0,9.648 26.28,17.469 58.697,17.469 32.419,0 58.699,-7.821 58.699,-17.469 0,-9.648 -26.28,-17.469 -58.699,-17.469 C 26.28,-17.469 0,-9.648 0,0"
             style="fill:#ffde6a;fill-opacity:1;fill-rule:nonzero;stroke:none"
             id="path118"
             inkscape:connector-curvature="0" /></g><g
           id="g120"
           transform="translate(363.4445,71.6841)"><path
             d="M 0,0 C 0,9.559 26.039,17.308 58.16,17.308 90.28,17.308 116.319,9.559 116.319,0 116.319,-9.56 90.28,-17.308 58.16,-17.308 26.039,-17.308 0,-9.56 0,0"
             style="fill:#ffde6c;fill-opacity:1;fill-rule:nonzero;stroke:none"
             id="path122"
             inkscape:connector-curvature="0" /></g><g
           id="g124"
           transform="translate(363.9858,71.6883)"><path
             d="m 0,0 c 0,9.471 25.798,17.149 57.621,17.149 31.824,0 57.621,-7.678 57.621,-17.149 0,-9.471 -25.797,-17.149 -57.621,-17.149 C 25.798,-17.149 0,-9.471 0,0"
             style="fill:#ffde6e;fill-opacity:1;fill-rule:nonzero;stroke:none"
             id="path126"
             inkscape:connector-curvature="0" /></g><g
           id="g128"
           transform="translate(364.5281,71.6706)"><path
             d="m 0,0 c 0,9.383 25.556,16.988 57.082,16.988 31.526,0 57.083,-7.605 57.083,-16.988 0,-9.382 -25.557,-16.987 -57.083,-16.987 C 25.556,-16.987 0,-9.382 0,0"
             style="fill:#ffde70;fill-opacity:1;fill-rule:nonzero;stroke:none"
             id="path130"
             inkscape:connector-curvature="0" /></g><g
           id="g132"
           transform="translate(365.0695,71.6748)"><path
             d="m 0,0 c 0,9.294 25.315,16.828 56.544,16.828 31.228,0 56.544,-7.534 56.544,-16.828 0,-9.294 -25.316,-16.828 -56.544,-16.828 C 25.315,-16.828 0,-9.294 0,0"
             style="fill:#ffe073;fill-opacity:1;fill-rule:nonzero;stroke:none"
             id="path134"
             inkscape:connector-curvature="0" /></g><g
           id="g136"
           transform="translate(365.6108,71.679)"><path
             d="m 0,0 c 0,9.206 25.074,16.668 56.006,16.668 30.932,0 56.006,-7.462 56.006,-16.668 0,-9.205 -25.074,-16.667 -56.006,-16.667 C 25.074,-16.667 0,-9.205 0,0"
             style="fill:#ffe077;fill-opacity:1;fill-rule:nonzero;stroke:none"
             id="path138"
             inkscape:connector-curvature="0" /></g><g
           id="g140"
           transform="translate(366.1522,71.6621)"><path
             d="m 0,0 c 0,9.117 24.833,16.507 55.467,16.507 30.635,0 55.469,-7.39 55.469,-16.507 0,-9.117 -24.834,-16.508 -55.469,-16.508 C 24.833,-16.508 0,-9.117 0,0"
             style="fill:#ffe079;fill-opacity:1;fill-rule:nonzero;stroke:none"
             id="path142"
             inkscape:connector-curvature="0" /></g><g
           id="g144"
           transform="translate(366.6945,71.6664)"><path
             d="m 0,0 c 0,9.028 24.592,16.346 54.929,16.346 30.336,0 54.928,-7.318 54.928,-16.346 0,-9.029 -24.592,-16.347 -54.928,-16.347 C 24.592,-16.347 0,-9.029 0,0"
             style="fill:#ffe17b;fill-opacity:1;fill-rule:nonzero;stroke:none"
             id="path146"
             inkscape:connector-curvature="0" /></g><g
           id="g148"
           transform="translate(367.2158,71.6706)"><path
             d="M 0,0 C 0,8.94 24.35,16.187 54.39,16.187 84.429,16.187 108.78,8.94 108.78,0 108.78,-8.94 84.429,-16.187 54.39,-16.187 24.35,-16.187 0,-8.94 0,0"
             style="fill:#ffe17d;fill-opacity:1;fill-rule:nonzero;stroke:none"
             id="path150"
             inkscape:connector-curvature="0" /></g><g
           id="g152"
           transform="translate(367.7572,71.6748)"><path
             d="m 0,0 c 0,8.851 24.109,16.026 53.851,16.026 29.742,0 53.852,-7.175 53.852,-16.026 0,-8.851 -24.11,-16.026 -53.852,-16.026 C 24.109,-16.026 0,-8.851 0,0"
             style="fill:#ffe380;fill-opacity:1;fill-rule:nonzero;stroke:none"
             id="path154"
             inkscape:connector-curvature="0" /></g><g
           id="g156"
           transform="translate(368.2985,71.679)"><path
             d="m 0,0 c 0,8.763 23.869,15.867 53.314,15.867 29.444,0 53.313,-7.104 53.313,-15.867 0,-8.763 -23.869,-15.866 -53.313,-15.866 C 23.869,-15.866 0,-8.763 0,0"
             style="fill:#ffe384;fill-opacity:1;fill-rule:nonzero;stroke:none"
             id="path158"
             inkscape:connector-curvature="0" /></g><g
           id="g160"
           transform="translate(368.8399,71.6832)"><path
             d="M 0,0 C 0,8.675 23.628,15.706 52.775,15.706 81.922,15.706 105.55,8.675 105.55,0 105.55,-8.674 81.922,-15.706 52.775,-15.706 23.628,-15.706 0,-8.674 0,0"
             style="fill:#ffe386;fill-opacity:1;fill-rule:nonzero;stroke:none"
             id="path162"
             inkscape:connector-curvature="0" /></g><g
           id="g164"
           transform="translate(369.3822,71.6883)"><path
             d="m 0,0 c 0,8.585 23.386,15.546 52.236,15.546 28.849,0 52.237,-6.961 52.237,-15.546 0,-8.586 -23.388,-15.547 -52.237,-15.547 C 23.386,-15.547 0,-8.586 0,0"
             style="fill:#ffe388;fill-opacity:1;fill-rule:nonzero;stroke:none"
             id="path166"
             inkscape:connector-curvature="0" /></g><g
           id="g168"
           transform="translate(369.9235,71.6706)"><path
             d="m 0,0 c 0,8.497 23.146,15.385 51.698,15.385 28.553,0 51.698,-6.888 51.698,-15.385 0,-8.497 -23.145,-15.386 -51.698,-15.386 C 23.146,-15.386 0,-8.497 0,0"
             style="fill:#ffe38a;fill-opacity:1;fill-rule:nonzero;stroke:none"
             id="path170"
             inkscape:connector-curvature="0" /></g><g
           id="g172"
           transform="translate(370.4649,71.6748)"><path
             d="m 0,0 c 0,8.409 22.905,15.225 51.16,15.225 28.255,0 51.159,-6.816 51.159,-15.225 0,-8.409 -22.904,-15.226 -51.159,-15.226 C 22.905,-15.226 0,-8.409 0,0"
             style="fill:#ffe38b;fill-opacity:1;fill-rule:nonzero;stroke:none"
             id="path174"
             inkscape:connector-curvature="0" /></g><g
           id="g176"
           transform="translate(371.0062,71.679)"><path
             d="M 0,0 C 0,8.32 22.664,15.064 50.622,15.064 78.58,15.064 101.243,8.32 101.243,0 101.243,-8.32 78.58,-15.065 50.622,-15.065 22.664,-15.065 0,-8.32 0,0"
             style="fill:#ffe590;fill-opacity:1;fill-rule:nonzero;stroke:none"
             id="path178"
             inkscape:connector-curvature="0" /></g><g
           id="g180"
           transform="translate(371.5276,71.6613)"><path
             d="m 0,0 c 0,8.231 22.423,14.905 50.083,14.905 27.66,0 50.082,-6.674 50.082,-14.905 0,-8.232 -22.422,-14.905 -50.082,-14.905 C 22.423,-14.905 0,-8.232 0,0"
             style="fill:#ffe692;fill-opacity:1;fill-rule:nonzero;stroke:none"
             id="path182"
             inkscape:connector-curvature="0" /></g><g
           id="g184"
           transform="translate(372.069,71.6655)"><path
             d="m 0,0 c 0,8.144 22.182,14.744 49.544,14.744 27.363,0 49.544,-6.6 49.544,-14.744 0,-8.143 -22.181,-14.744 -49.544,-14.744 C 22.182,-14.744 0,-8.143 0,0"
             style="fill:#ffe694;fill-opacity:1;fill-rule:nonzero;stroke:none"
             id="path186"
             inkscape:connector-curvature="0" /></g><g
           id="g188"
           transform="translate(372.6112,71.6697)"><path
             d="m 0,0 c 0,8.055 21.94,14.585 49.005,14.585 27.066,0 49.006,-6.53 49.006,-14.585 0,-8.054 -21.94,-14.584 -49.006,-14.584 C 21.94,-14.584 0,-8.054 0,0"
             style="fill:#ffe696;fill-opacity:1;fill-rule:nonzero;stroke:none"
             id="path190"
             inkscape:connector-curvature="0" /></g><g
           id="g192"
           transform="translate(373.1526,71.674)"><path
             d="m 0,0 c 0,7.966 21.7,14.424 48.467,14.424 26.768,0 48.468,-6.458 48.468,-14.424 0,-7.966 -21.7,-14.424 -48.468,-14.424 C 21.7,-14.424 0,-7.966 0,0"
             style="fill:#ffe698;fill-opacity:1;fill-rule:nonzero;stroke:none"
             id="path194"
             inkscape:connector-curvature="0" /></g><g
           id="g196"
           transform="translate(373.674,71.679)"><path
             d="M 0,0 C 0,7.878 21.458,14.264 47.928,14.264 74.398,14.264 95.857,7.878 95.857,0 95.857,-7.878 74.398,-14.264 47.928,-14.264 21.458,-14.264 0,-7.878 0,0"
             style="fill:#ffe89c;fill-opacity:1;fill-rule:nonzero;stroke:none"
             id="path198"
             inkscape:connector-curvature="0" /></g><g
           id="g200"
           transform="translate(374.2153,71.6832)"><path
             d="M 0,0 C 0,7.789 21.217,14.103 47.39,14.103 73.563,14.103 94.779,7.789 94.779,0 94.779,-7.79 73.563,-14.103 47.39,-14.103 21.217,-14.103 0,-7.79 0,0"
             style="fill:#ffe89e;fill-opacity:1;fill-rule:nonzero;stroke:none"
             id="path202"
             inkscape:connector-curvature="0" /></g><g
           id="g204"
           transform="translate(374.7567,71.6655)"><path
             d="M 0,0 C 0,7.7 20.976,13.943 46.852,13.943 72.727,13.943 93.703,7.7 93.703,0 93.703,-7.701 72.727,-13.943 46.852,-13.943 20.976,-13.943 0,-7.701 0,0"
             style="fill:#ffe8a0;fill-opacity:1;fill-rule:nonzero;stroke:none"
             id="path206"
             inkscape:connector-curvature="0" /></g><g
           id="g208"
           transform="translate(375.2989,71.6697)"><path
             d="M 0,0 C 0,7.612 20.734,13.783 46.312,13.783 71.891,13.783 92.626,7.612 92.626,0 92.626,-7.612 71.891,-13.783 46.312,-13.783 20.734,-13.783 0,-7.612 0,0"
             style="fill:#ffe9a2;fill-opacity:1;fill-rule:nonzero;stroke:none"
             id="path210"
             inkscape:connector-curvature="0" /></g><g
           id="g212"
           transform="translate(375.8403,71.674)"><path
             d="M 0,0 C 0,7.524 20.493,13.623 45.775,13.623 71.056,13.623 91.549,7.524 91.549,0 91.549,-7.524 71.056,-13.623 45.775,-13.623 20.493,-13.623 0,-7.524 0,0"
             style="fill:#ffe9a4;fill-opacity:1;fill-rule:nonzero;stroke:none"
             id="path214"
             inkscape:connector-curvature="0" /></g><g
           id="g216"
           transform="translate(376.3817,71.6562)"><path
             d="M 0,0 C 0,7.435 20.253,13.462 45.236,13.462 70.22,13.462 90.473,7.435 90.473,0 90.473,-7.435 70.22,-13.462 45.236,-13.462 20.253,-13.462 0,-7.435 0,0"
             style="fill:#ffeba7;fill-opacity:1;fill-rule:nonzero;stroke:none"
             id="path218"
             inkscape:connector-curvature="0" /></g><g
           id="g220"
           transform="translate(376.9239,71.6604)"><path
             d="M 0,0 C 0,7.347 20.011,13.303 44.697,13.303 69.384,13.303 89.395,7.347 89.395,0 89.395,-7.346 69.384,-13.302 44.697,-13.302 20.011,-13.302 0,-7.346 0,0"
             style="fill:#ffebaa;fill-opacity:1;fill-rule:nonzero;stroke:none"
             id="path222"
             inkscape:connector-curvature="0" /></g><g
           id="g224"
           transform="translate(377.4653,71.6655)"><path
             d="M 0,0 C 0,7.258 19.77,13.142 44.16,13.142 68.548,13.142 88.318,7.258 88.318,0 88.318,-7.259 68.548,-13.142 44.16,-13.142 19.77,-13.142 0,-7.259 0,0"
             style="fill:#ffebac;fill-opacity:1;fill-rule:nonzero;stroke:none"
             id="path226"
             inkscape:connector-curvature="0" /></g><g
           id="g228"
           transform="translate(377.9866,71.6917)"><path
             d="M 0,0 C 0,7.17 19.529,12.982 43.62,12.982 67.712,12.982 87.24,7.17 87.24,0 87.24,-7.17 67.712,-12.982 43.62,-12.982 19.529,-12.982 0,-7.17 0,0"
             style="fill:#ffebae;fill-opacity:1;fill-rule:nonzero;stroke:none"
             id="path230"
             inkscape:connector-curvature="0" /></g><g
           id="g232"
           transform="translate(378.528,71.674)"><path
             d="M 0,0 C 0,7.081 19.288,12.821 43.081,12.821 66.876,12.821 86.164,7.081 86.164,0 86.164,-7.081 66.876,-12.821 43.081,-12.821 19.288,-12.821 0,-7.081 0,0"
             style="fill:#ffebb0;fill-opacity:1;fill-rule:nonzero;stroke:none"
             id="path234"
             inkscape:connector-curvature="0" /></g><g
           id="g236"
           transform="translate(379.0694,71.6782)"><path
             d="M 0,0 C 0,6.993 19.047,12.661 42.544,12.661 66.04,12.661 85.087,6.993 85.087,0 85.087,-6.993 66.04,-12.661 42.544,-12.661 19.047,-12.661 0,-6.993 0,0"
             style="fill:#ffebb2;fill-opacity:1;fill-rule:nonzero;stroke:none"
             id="path238"
             inkscape:connector-curvature="0" /></g><g
           id="g240"
           transform="translate(379.6116,71.6824)"><path
             d="M 0,0 C 0,6.904 18.806,12.501 42.005,12.501 65.205,12.501 84.01,6.904 84.01,0 84.01,-6.904 65.205,-12.501 42.005,-12.501 18.806,-12.501 0,-6.904 0,0"
             style="fill:#ffeeb7;fill-opacity:1;fill-rule:nonzero;stroke:none"
             id="path242"
             inkscape:connector-curvature="0" /></g><g
           id="g244"
           transform="translate(380.153,71.6647)"><path
             d="M 0,0 C 0,6.816 18.565,12.341 41.466,12.341 64.369,12.341 82.934,6.816 82.934,0 82.934,-6.815 64.369,-12.34 41.466,-12.34 18.565,-12.34 0,-6.815 0,0"
             style="fill:#ffeeb9;fill-opacity:1;fill-rule:nonzero;stroke:none"
             id="path246"
             inkscape:connector-curvature="0" /></g><g
           id="g248"
           transform="translate(380.6944,71.6689)"><path
             d="M 0,0 C 0,6.727 18.324,12.18 40.929,12.18 63.533,12.18 81.857,6.727 81.857,0 81.857,-6.727 63.533,-12.18 40.929,-12.18 18.324,-12.18 0,-6.727 0,0"
             style="fill:#ffeebb;fill-opacity:1;fill-rule:nonzero;stroke:none"
             id="path250"
             inkscape:connector-curvature="0" /></g><g
           id="g252"
           transform="translate(381.2357,71.674)"><path
             d="M 0,0 C 0,6.638 18.084,12.02 40.39,12.02 62.697,12.02 80.78,6.638 80.78,0 80.78,-6.639 62.697,-12.021 40.39,-12.021 18.084,-12.021 0,-6.639 0,0"
             style="fill:#ffeebd;fill-opacity:1;fill-rule:nonzero;stroke:none"
             id="path254"
             inkscape:connector-curvature="0" /></g><g
           id="g256"
           transform="translate(381.778,71.6782)"><path
             d="M 0,0 C 0,6.55 17.841,11.86 39.852,11.86 61.861,11.86 79.703,6.55 79.703,0 79.703,-6.55 61.861,-11.86 39.852,-11.86 17.841,-11.86 0,-6.55 0,0"
             style="fill:#ffeebe;fill-opacity:1;fill-rule:nonzero;stroke:none"
             id="path258"
             inkscape:connector-curvature="0" /></g><g
           id="g260"
           transform="translate(382.2984,71.6824)"><path
             d="M 0,0 C 0,6.461 17.601,11.7 39.313,11.7 61.025,11.7 78.626,6.461 78.626,0 78.626,-6.462 61.025,-11.7 39.313,-11.7 17.601,-11.7 0,-6.462 0,0"
             style="fill:#fff0c3;fill-opacity:1;fill-rule:nonzero;stroke:none"
             id="path262"
             inkscape:connector-curvature="0" /></g><g
           id="g264"
           transform="translate(382.8407,71.6866)"><path
             d="M 0,0 C 0,6.374 17.359,11.539 38.774,11.539 60.189,11.539 77.548,6.374 77.548,0 77.548,-6.373 60.189,-11.539 38.774,-11.539 17.359,-11.539 0,-6.373 0,0"
             style="fill:#fff0c5;fill-opacity:1;fill-rule:nonzero;stroke:none"
             id="path266"
             inkscape:connector-curvature="0" /></g><g
           id="g268"
           transform="translate(383.3821,71.6689)"><path
             d="M 0,0 C 0,6.285 17.118,11.379 38.236,11.379 59.353,11.379 76.472,6.285 76.472,0 76.472,-6.285 59.353,-11.379 38.236,-11.379 17.118,-11.379 0,-6.285 0,0"
             style="fill:#fff1c7;fill-opacity:1;fill-rule:nonzero;stroke:none"
             id="path270"
             inkscape:connector-curvature="0" /></g><g
           id="g272"
           transform="translate(383.9034,71.6731)"><path
             d="M 0,0 C 0,6.196 16.878,11.219 37.697,11.219 58.517,11.219 75.394,6.196 75.394,0 75.394,-6.196 58.517,-11.219 37.697,-11.219 16.878,-11.219 0,-6.196 0,0"
             style="fill:#fff1c9;fill-opacity:1;fill-rule:nonzero;stroke:none"
             id="path274"
             inkscape:connector-curvature="0" /></g><g
           id="g276"
           transform="translate(384.4448,71.6773)"><path
             d="m 0,0 c 0,6.108 16.636,11.059 37.158,11.059 20.523,0 37.16,-4.951 37.16,-11.059 0,-6.107 -16.637,-11.058 -37.16,-11.058 C 16.636,-11.058 0,-6.107 0,0"
             style="fill:#fff1cb;fill-opacity:1;fill-rule:nonzero;stroke:none"
             id="path278"
             inkscape:connector-curvature="0" /></g><g
           id="g280"
           transform="translate(384.9862,71.6824)"><path
             d="M 0,0 C 0,6.019 16.395,10.898 36.621,10.898 56.845,10.898 73.24,6.019 73.24,0 73.24,-6.02 56.845,-10.898 36.621,-10.898 16.395,-10.898 0,-6.02 0,0"
             style="fill:#fff3cf;fill-opacity:1;fill-rule:nonzero;stroke:none"
             id="path282"
             inkscape:connector-curvature="0" /></g><g
           id="g284"
           transform="translate(385.5284,71.6647)"><path
             d="M 0,0 C 0,5.93 16.154,10.738 36.081,10.738 56.01,10.738 72.163,5.93 72.163,0 72.163,-5.931 56.01,-10.738 36.081,-10.738 16.154,-10.738 0,-5.931 0,0"
             style="fill:#fff3d1;fill-opacity:1;fill-rule:nonzero;stroke:none"
             id="path286"
             inkscape:connector-curvature="0" /></g><g
           id="g288"
           transform="translate(386.0698,71.6689)"><path
             d="M 0,0 C 0,5.842 15.913,10.578 35.543,10.578 55.174,10.578 71.087,5.842 71.087,0 71.087,-5.842 55.174,-10.578 35.543,-10.578 15.913,-10.578 0,-5.842 0,0"
             style="fill:#fff4d3;fill-opacity:1;fill-rule:nonzero;stroke:none"
             id="path290"
             inkscape:connector-curvature="0" /></g><g
           id="g292"
           transform="translate(386.6111,71.6731)"><path
             d="M 0,0 C 0,5.754 15.672,10.417 35.005,10.417 54.338,10.417 70.01,5.754 70.01,0 70.01,-5.754 54.338,-10.418 35.005,-10.418 15.672,-10.418 0,-5.754 0,0"
             style="fill:#fff4d5;fill-opacity:1;fill-rule:nonzero;stroke:none"
             id="path294"
             inkscape:connector-curvature="0" /></g><g
           id="g296"
           transform="translate(387.1525,71.6773)"><path
             d="M 0,0 C 0,5.665 15.431,10.258 34.467,10.258 53.503,10.258 68.934,5.665 68.934,0 68.934,-5.665 53.503,-10.257 34.467,-10.257 15.431,-10.257 0,-5.665 0,0"
             style="fill:#fff4d7;fill-opacity:1;fill-rule:nonzero;stroke:none"
             id="path298"
             inkscape:connector-curvature="0" /></g><g
           id="g300"
           transform="translate(387.6948,71.6816)"><path
             d="m 0,0 c 0,5.577 15.19,10.097 33.927,10.097 18.739,0 33.929,-4.52 33.929,-10.097 0,-5.576 -15.19,-10.097 -33.929,-10.097 C 15.19,-10.097 0,-5.576 0,0"
             style="fill:#fff4d9;fill-opacity:1;fill-rule:nonzero;stroke:none"
             id="path302"
             inkscape:connector-curvature="0" /></g><g
           id="g304"
           transform="translate(388.2152,71.6858)"><path
             d="M 0,0 C 0,5.489 14.949,9.937 33.39,9.937 51.83,9.937 66.779,5.489 66.779,0 66.779,-5.488 51.83,-9.937 33.39,-9.937 14.949,-9.937 0,-5.488 0,0"
             style="fill:#fff6de;fill-opacity:1;fill-rule:nonzero;stroke:none"
             id="path306"
             inkscape:connector-curvature="0" /></g><g
           id="g308"
           transform="translate(388.7575,71.6689)"><path
             d="m 0,0 c 0,5.399 14.707,9.776 32.851,9.776 18.143,0 32.85,-4.377 32.85,-9.776 0,-5.4 -14.707,-9.777 -32.85,-9.777 C 14.707,-9.777 0,-5.4 0,0"
             style="fill:#fff7df;fill-opacity:1;fill-rule:nonzero;stroke:none"
             id="path310"
             inkscape:connector-curvature="0" /></g><g
           id="g312"
           transform="translate(389.2988,71.6731)"><path
             d="M 0,0 C 0,5.31 14.467,9.617 32.313,9.617 50.158,9.617 64.625,5.31 64.625,0 64.625,-5.311 50.158,-9.617 32.313,-9.617 14.467,-9.617 0,-5.311 0,0"
             style="fill:#fff7e1;fill-opacity:1;fill-rule:nonzero;stroke:none"
             id="path314"
             inkscape:connector-curvature="0" /></g><g
           id="g316"
           transform="translate(389.8402,71.6773)"><path
             d="M 0,0 C 0,5.223 14.226,9.456 31.775,9.456 49.323,9.456 63.549,5.223 63.549,0 63.549,-5.222 49.323,-9.456 31.775,-9.456 14.226,-9.456 0,-5.222 0,0"
             style="fill:#fff7e3;fill-opacity:1;fill-rule:nonzero;stroke:none"
             id="path318"
             inkscape:connector-curvature="0" /></g><g
           id="g320"
           transform="translate(390.3825,71.6596)"><path
             d="M 0,0 C 0,5.134 13.984,9.296 31.235,9.296 48.487,9.296 62.471,5.134 62.471,0 62.471,-5.134 48.487,-9.296 31.235,-9.296 13.984,-9.296 0,-5.134 0,0"
             style="fill:#fff7e5;fill-opacity:1;fill-rule:nonzero;stroke:none"
             id="path322"
             inkscape:connector-curvature="0" /></g><g
           id="g324"
           transform="translate(390.9238,71.6638)"><path
             d="M 0,0 C 0,5.045 13.744,9.136 30.698,9.136 47.651,9.136 61.394,5.045 61.394,0 61.394,-5.045 47.651,-9.135 30.698,-9.135 13.744,-9.135 0,-5.045 0,0"
             style="fill:#fffaeb;fill-opacity:1;fill-rule:nonzero;stroke:none"
             id="path326"
             inkscape:connector-curvature="0" /></g><g
           id="g328"
           transform="translate(391.4652,71.668)"><path
             d="M 0,0 C 0,4.957 13.502,8.975 30.159,8.975 46.815,8.975 60.318,4.957 60.318,0 60.318,-4.956 46.815,-8.975 30.159,-8.975 13.502,-8.975 0,-4.956 0,0"
             style="fill:#fffaec;fill-opacity:1;fill-rule:nonzero;stroke:none"
             id="path330"
             inkscape:connector-curvature="0" /></g><g
           id="g332"
           transform="translate(392.0065,71.6723)"><path
             d="M 0,0 C 0,4.869 13.262,8.815 29.621,8.815 45.98,8.815 59.241,4.869 59.241,0 59.241,-4.868 45.98,-8.815 29.621,-8.815 13.262,-8.815 0,-4.868 0,0"
             style="fill:#fffaee;fill-opacity:1;fill-rule:nonzero;stroke:none"
             id="path334"
             inkscape:connector-curvature="0" /></g><g
           id="g336"
           transform="translate(392.5279,71.6773)"><path
             d="M 0,0 C 0,4.78 13.02,8.655 29.082,8.655 45.143,8.655 58.163,4.78 58.163,0 58.163,-4.781 45.143,-8.655 29.082,-8.655 13.02,-8.655 0,-4.781 0,0"
             style="fill:#fffaf0;fill-opacity:1;fill-rule:nonzero;stroke:none"
             id="path338"
             inkscape:connector-curvature="0" /></g><g
           id="g340"
           transform="translate(393.0702,71.6816)"><path
             d="M 0,0 C 0,4.691 12.779,8.494 28.543,8.494 44.307,8.494 57.086,4.691 57.086,0 57.086,-4.692 44.307,-8.495 28.543,-8.495 12.779,-8.495 0,-4.692 0,0"
             style="fill:#fffbf2;fill-opacity:1;fill-rule:nonzero;stroke:none"
             id="path342"
             inkscape:connector-curvature="0" /></g><g
           id="g344"
           transform="translate(393.6115,71.6858)"><path
             d="M 0,0 C 0,4.603 12.537,8.335 28.004,8.335 43.471,8.335 56.01,4.603 56.01,0 56.01,-4.604 43.471,-8.334 28.004,-8.334 12.537,-8.334 0,-4.604 0,0"
             style="fill:#fffef9;fill-opacity:1;fill-rule:nonzero;stroke:none"
             id="path346"
             inkscape:connector-curvature="0" /></g><g
           id="g348"
           transform="translate(394.1529,71.668)"><path
             d="M 0,0 C 0,4.514 12.297,8.174 27.467,8.174 42.635,8.174 54.933,4.514 54.933,0 54.933,-4.515 42.635,-8.174 27.467,-8.174 12.297,-8.174 0,-4.515 0,0"
             style="fill:#fffffb;fill-opacity:1;fill-rule:nonzero;stroke:none"
             id="path350"
             inkscape:connector-curvature="0" /></g><g
           id="g352"
           transform="translate(394.6743,71.6723)"><path
             d="M 0,0 C 0,4.426 12.055,8.013 26.927,8.013 41.799,8.013 53.855,4.426 53.855,0 53.855,-4.426 41.799,-8.014 26.927,-8.014 12.055,-8.014 0,-4.426 0,0"
             style="fill:#ffffff;fill-opacity:1;fill-rule:nonzero;stroke:none"
             id="path354"
             inkscape:connector-curvature="0" /></g><g
           id="g356"
           transform="translate(408.1537,71.6714)"><path
             d="m 0,0 c 0,2.213 6.028,4.007 13.464,4.007 7.435,0 13.464,-1.794 13.464,-4.007 0,-2.213 -6.029,-4.006 -13.464,-4.006 C 6.028,-4.006 0,-2.213 0,0"
             style="fill:#ffffff;fill-opacity:1;fill-rule:nonzero;stroke:none"
             id="path358"
             inkscape:connector-curvature="0" /></g></g></g><g
       id="g360"
       transform="matrix(2.1572744,0,0,2.1572744,-568.44245,-49.207074)"><g
         id="g362"
         clip-path="url(#clipPath366)"><g
           id="g368"
           transform="translate(488.6188,60.143)"><path
             d="M 0,0 C -12.052,3.34 -28.148,5.014 -42.712,5.343 -47.913,5.461 -54.725,4.941 -59.329,5.282 l 1.13,0.494 c 3.74,1.069 7.844,1.113 11.051,2.241 1.335,0.47 3.314,1.716 2.299,2.648 -0.296,0.272 -0.542,0.353 -0.942,0.463 -4.528,1.243 -8.391,1.011 -12.682,1.068 l -2.282,-0.055 c -22.957,0.039 -44.391,-4.167 -62.959,-6.031 -2.58,-0.23 -4.782,-0.828 -7.702,-0.197 -1.195,0.259 -2.382,1.589 -3.847,1.074 -0.404,-0.143 -0.608,-0.283 -0.956,-0.521 -0.514,-0.353 -0.821,-0.575 -1.152,-1.081 -0.828,-1.269 -0.714,-2.657 0.311,-3.794 2.466,-1.338 2.736,-1.8 6.839,-2.43 6.006,-0.922 10.117,0.587 15.874,2.425 5.48,1.75 8.025,3.201 13.953,4.496 14.187,3.1 31.733,6.014 46.737,3.817 -5.647,-1.052 -30.921,-3.039 -33.473,-7.37 1.838,-3.017 16.614,0.44 20.21,1.145 0,0 1.253,-1.793 2.373,-1.796 13.144,-0.035 25.859,0.184 34.504,-0.43 C -21.399,0.834 1.449,-2.042 2.288,-1.763 2.69,-1.63 2.609,-1.201 2.39,-0.959 2.135,-0.677 0.897,-0.248 0,0"
             style="fill:#49aa42;fill-opacity:1;fill-rule:nonzero;stroke:none"
             id="path370"
             inkscape:connector-curvature="0" /></g><g
           id="g372"
           transform="translate(418.2878,91.3604)"><path
             d="m 0,0 c 0.487,4.345 5.735,8.907 5.735,8.907 0,0 1.528,-4.567 1.483,-9.618 C 7.179,-5.081 4.721,-8.419 2.727,-8.222 0.734,-8.026 -0.487,-4.344 0,0"
             style="fill:#49aa42;fill-opacity:1;fill-rule:nonzero;stroke:none"
             id="path374"
             inkscape:connector-curvature="0" /></g><g
           id="g376"
           transform="translate(418.385,91.346)"><path
             d="m 0,0 c 0.487,4.345 5.638,8.922 5.638,8.922 0,0 1.083,-16.264 -3.009,-17.13 C 0.938,-8.567 -0.487,-4.345 0,0"
             style="fill:#000000;fill-opacity:1;fill-rule:nonzero;stroke:none"
             id="path378"
             inkscape:connector-curvature="0" /></g><g
           id="g380"
           transform="translate(418.2878,91.3604)"><path
             d="m 0,0 c 0.487,4.345 5.735,8.907 5.735,8.907 0,0 0.01,-17.345 -3.008,-17.129 C 0.996,-8.099 -0.487,-4.344 0,0"
             style="fill:#8dc63f;fill-opacity:1;fill-rule:nonzero;stroke:none"
             id="path382"
             inkscape:connector-curvature="0" /></g><g
           id="g384"
           transform="translate(409.2655,99.5995)"><path
             d="m 0,0 c 0,0 5.996,-3.522 9.136,-9.563 3.14,-6.039 4.499,-10.45 4.989,-13.822 0.491,-3.373 -1.205,-10.796 -1.205,-10.796 l 0.078,5.818 c 0,0 -0.47,7.818 -1.539,10.741 -1.273,3.481 -2.297,7.517 -5.67,11.399 C 2.527,-2.47 -2.138,1.1 -2.138,1.1 Z"
             style="fill:#49aa42;fill-opacity:1;fill-rule:nonzero;stroke:none"
             id="path386"
             inkscape:connector-curvature="0" /></g><g
           id="g388"
           transform="translate(411.7978,85.3821)"><path
             d="m 0,0 c -2.698,5.34 -4.911,10.094 -4.911,10.094 0,0 5.863,-0.96 9.604,-5.198 C 8.434,0.659 10.416,-3.873 9.12,-5.225 7.824,-6.577 2.471,-4.887 0,0"
             style="fill:#49aa42;fill-opacity:1;fill-rule:nonzero;stroke:none"
             id="path390"
             inkscape:connector-curvature="0" /></g><g
           id="g392"
           transform="translate(411.7978,85.3821)"><path
             d="m 0,0 c -2.698,5.34 -4.911,10.094 -4.911,10.094 0,0 15.475,-12.817 14.031,-15.319 C 8.203,-6.814 2.471,-4.887 0,0"
             style="fill:#000000;fill-opacity:1;fill-rule:nonzero;stroke:none"
             id="path394"
             inkscape:connector-curvature="0" /></g><g
           id="g396"
           transform="translate(411.6244,85.2715)"><path
             d="m 0,0 c -2.7,5.34 -4.738,10.204 -4.738,10.204 0,0 15.34,-14.212 14.045,-15.564 C 8.01,-6.711 2.471,-4.887 0,0"
             style="fill:#8dc63f;fill-opacity:1;fill-rule:nonzero;stroke:none"
             id="path398"
             inkscape:connector-curvature="0" /></g><g
           id="g400"
           transform="translate(392.3463,49.2032)"><path
             d="m 0,0 -0.215,2.435 -1.16,-0.108 c -0.05,0.74 -0.1,1.912 -0.249,3.468 -0.15,1.449 -0.514,2.451 -2.62,2.451 h -2.204 c -0.896,0 -1.625,0.509 -1.84,0.632 L -9.383,6.689 c 0.199,-0.123 1.028,-0.786 2.901,-0.786 h 1.326 c 0.531,0 0.812,-0.385 0.846,-0.833 0.033,-0.338 0.232,-2.989 0.232,-2.989 l -5.918,-0.586 0.215,-2.374 z"
             style="fill:#000000;fill-opacity:1;fill-rule:nonzero;stroke:none"
             id="path402"
             inkscape:connector-curvature="0" /></g><g
           id="g404"
           transform="translate(400.3122,49.1103)"><path
             d="M 0,0 -1.393,7.83 -4.692,8.909 -5.438,6.582 -3.647,5.981 -3.333,3.854 -6.764,1.388 c 0.597,-1.326 0.331,-0.772 0.763,-1.65 l 3.215,1.926 0.415,-2.064 z"
             style="fill:#000000;fill-opacity:1;fill-rule:nonzero;stroke:none"
             id="path406"
             inkscape:connector-curvature="0" /></g></g></g><g
       id="g408"
       transform="matrix(2.1572744,0,0,2.1572744,308.52602,56.471324)"><path
         d="m 0,0 v 7.799 l -3.464,1.11 -1.045,-2.22 1.907,-0.647 V 2.096 L -4.608,1.849 -4.956,-0.508 Z"
         style="fill:#000000;fill-opacity:1;fill-rule:nonzero;stroke:none"
         id="path410"
         inkscape:connector-curvature="0" /></g><g
       id="g412"
       transform="matrix(2.1572744,0,0,2.1572744,-568.44245,-49.207074)"><g
         id="g414"
         clip-path="url(#clipPath418)"><path
           d="m 408.865,48.864 h 2.602 v 4.254 h -2.602 z m 8.604,0 v 6.089 c 0,1.433 -0.216,2.496 -2.205,2.496 h -3.134 c -1.043,0 -2.055,0.355 -2.702,0.817 -0.282,-0.601 -1.011,-2.05 -1.127,-2.297 0.564,-0.555 1.774,-0.863 2.686,-0.863 h 3.879 v -6.242 z"
           style="fill:#000000;fill-opacity:1;fill-rule:nonzero;stroke:none"
           id="path420"
           inkscape:connector-curvature="0" /><g
           id="g422"
           transform="translate(435.0589,48.8637)"><path
             d="M 0,0 V 6.489 C 0,7.244 -0.1,8.57 -2.122,8.57 h -4.045 c -1.044,0 -2.056,0.355 -2.702,0.817 -0.282,-0.601 -1.028,-2.05 -1.144,-2.296 0.299,-0.278 0.779,-0.509 1.326,-0.71 V 2.312 l -1.542,-0.246 -0.397,-2.451 4.542,0.663 v 5.965 h 1.194 2.288 V 0 Z"
             style="fill:#000000;fill-opacity:1;fill-rule:nonzero;stroke:none"
             id="path424"
             inkscape:connector-curvature="0" /></g><g
           id="g426"
           transform="translate(448.602,48.8637)"><path
             d="m 0,0 -0.447,8.585 h -2.238 c -2.951,0 -4.908,-1.633 -4.908,-1.633 l -2.37,1.973 -1.923,-1.866 2.603,-2.173 -1.957,-4.531 2.504,-0.833 1.458,3.376 c 0.846,1.927 1.31,2.435 2.902,2.959 0.845,0.278 1.392,0.201 1.392,0.201 L -2.735,2.096 -5.918,1.788 -5.669,-0.54 Z"
             style="fill:#000000;fill-opacity:1;fill-rule:nonzero;stroke:none"
             id="path428"
             inkscape:connector-curvature="0" /></g><g
           id="g430"
           transform="translate(459.1929,48.8637)"><path
             d="m 0,0 v 5.965 c 0,1.434 -0.349,2.62 -2.338,2.62 h -3 C -6.383,8.585 -7.394,8.94 -8.04,9.403 -8.322,8.802 -9.051,7.352 -9.168,7.106 -8.604,6.551 -7.394,6.243 -6.482,6.243 h 3.879 V 0 Z"
             style="fill:#000000;fill-opacity:1;fill-rule:nonzero;stroke:none"
             id="path432"
             inkscape:connector-curvature="0" /></g><g
           id="g434"
           transform="translate(386.4594,42.8744)"><path
             d="M 0,0 V 2.279 C 0,2.55 -0.028,2.942 -0.632,2.942 h -1.392 c -0.33,0 -0.649,0.096 -0.889,0.243 C -3.009,2.974 -3.141,2.687 -3.221,2.523 -3.135,2.454 -3.004,2.391 -2.793,2.311 V 0.663 l -0.541,-0.095 -0.103,-0.685 1.34,0.207 v 2.227 h 1.402 V 0 Z"
             style="fill:#000000;fill-opacity:1;fill-rule:nonzero;stroke:none"
             id="path436"
             inkscape:connector-curvature="0" /></g></g></g><g
       id="g438"
       transform="matrix(2.1572744,0,0,2.1572744,277.19377,45.377972)"><path
         d="M 0,0 V 1.723 L -1.037,2.094 -1.316,1.468 -0.695,1.267 V 0 Z"
         style="fill:#000000;fill-opacity:1;fill-rule:nonzero;stroke:none"
         id="path440"
         inkscape:connector-curvature="0" /></g><g
       id="g442"
       transform="matrix(2.1572744,0,0,2.1572744,-568.44245,-49.207074)"><g
         id="g444"
         clip-path="url(#clipPath448)"><g
           id="g450"
           transform="translate(399.1459,42.8693)"><path
             d="m 0,0 v 2.126 c 0,0.529 -0.188,0.826 -0.776,0.826 h -0.957 c -0.331,0 -0.656,0.101 -0.895,0.25 C -2.725,2.984 -2.856,2.703 -2.936,2.533 -2.748,2.38 -2.406,2.316 -2.132,2.316 h 1.436 V 0 Z"
             style="fill:#000000;fill-opacity:1;fill-rule:nonzero;stroke:none"
             id="path452"
             inkscape:connector-curvature="0" /></g></g></g><g
       id="g454"
       transform="matrix(2.1572744,0,0,2.1572744,304.56786,43.273766)"><path
         d="M 0,0 V 2.698 L -1.037,3.069 -1.317,2.443 -0.695,2.242 V 0 Z"
         style="fill:#000000;fill-opacity:1;fill-rule:nonzero;stroke:none"
         id="path456"
         inkscape:connector-curvature="0" /></g><g
       id="g458"
       transform="matrix(2.1572744,0,0,2.1572744,-568.44245,-49.207074)"><g
         id="g460"
         clip-path="url(#clipPath464)"><g
           id="g466"
           transform="translate(410.598,45.3023)"><path
             d="M 0,0 -0.228,0.583 C -0.382,0.524 -0.564,0.471 -0.73,0.471 c -0.228,0 -0.513,0.112 -0.701,0.197 L -1.699,0.09 -1.077,-0.149 v -2.284 h 0.695 v 2.284 z"
             style="fill:#000000;fill-opacity:1;fill-rule:nonzero;stroke:none"
             id="path468"
             inkscape:connector-curvature="0" /></g></g></g><g
       id="g470"
       transform="matrix(2.1572744,0,0,2.1572744,333.36445,49.25481)"><path
         d="m 0,0 -0.719,0.572 -0.484,-0.455 0.336,-0.26 -0.529,-0.912 -1.329,1.479 -0.547,-0.393 0.399,-0.434 -0.439,-2.369 h 0.696 l 0.319,1.727 1.613,-1.807 0.536,0.387 -0.781,0.875 z"
         style="fill:#000000;fill-opacity:1;fill-rule:nonzero;stroke:none"
         id="path472"
         inkscape:connector-curvature="0" /></g><g
       id="g474"
       transform="matrix(2.1572744,0,0,2.1572744,-568.44245,-49.207074)"><g
         id="g476"
         clip-path="url(#clipPath480)"><path
           d="m 427.858,42.869 h 0.696 v 1.474 h -0.696 z m 2.765,0 v 2.21 c 0,0.531 -0.103,0.743 -0.691,0.743 h -1.042 c -0.332,0 -0.656,0.1 -0.896,0.249 -0.096,-0.217 -0.228,-0.504 -0.308,-0.673 0.188,-0.154 0.531,-0.207 0.804,-0.207 h 1.437 v -2.322 z"
           style="fill:#000000;fill-opacity:1;fill-rule:nonzero;stroke:none"
           id="path482"
           inkscape:connector-curvature="0" /><g
           id="g484"
           transform="translate(438.0628,45.5616)"><path
             d="m 0,0 -0.708,0.467 -0.37,-0.525 0.279,-0.196 c -0.165,-0.275 -0.302,-0.456 -0.593,-0.785 -0.296,0.466 -0.313,0.435 -0.724,1.177 L -2.987,0.44 -3.17,-0.143 -2.554,-0.35 c 0.296,-0.492 1.032,-1.695 1.032,-1.695 l -1.671,-0.181 0.057,-0.641 c 0.485,0.042 1.693,0.202 2.155,0.244 0.45,0.037 0.416,0.275 0.291,0.477 0,0 -0.211,0.323 -0.354,0.567 0.439,0.365 0.593,0.689 0.787,0.98 C -0.143,-0.424 -0.075,-0.127 0,0"
             style="fill:#000000;fill-opacity:1;fill-rule:nonzero;stroke:none"
             id="path486"
             inkscape:connector-curvature="0" /></g><g
           id="g488"
           transform="translate(446.0305,45.6258)"><path
             d="m 0,0 -1.243,0.345 -0.193,-0.61 0.689,-0.186 c -0.165,-0.747 -0.228,-1.044 -0.228,-1.044 -0.051,-0.233 -0.08,-0.445 -0.33,-0.509 -0.274,-0.068 -0.639,-0.143 -0.639,-0.143 l -0.729,2.285 -0.804,0.217 -0.223,-0.631 0.496,-0.164 0.587,-1.823 -1.248,-0.223 0.103,-0.62 2.257,0.408 c 0.638,0.116 1.101,0.387 1.203,0.975 z"
             style="fill:#000000;fill-opacity:1;fill-rule:nonzero;stroke:none"
             id="path490"
             inkscape:connector-curvature="0" /></g></g></g><g
       id="g492"
       transform="matrix(2.1572744,0,0,2.1572744,405.40513,43.273766)"><path
         d="M 0,0 V 2.698 L -1.037,3.069 -1.317,2.443 -0.695,2.242 V 0 Z"
         style="fill:#000000;fill-opacity:1;fill-rule:nonzero;stroke:none"
         id="path494"
         inkscape:connector-curvature="0" /></g><g
       id="g496"
       transform="matrix(2.1572744,0,0,2.1572744,-568.44245,-49.207074)"><g
         id="g498"
         clip-path="url(#clipPath502)"><g
           id="g504"
           transform="translate(459.5408,42.8744)"><path
             d="m 0,0 -0.148,2.947 h -0.616 c -1.003,0 -1.761,-0.619 -1.761,-0.619 L -3.323,3.027 -3.842,2.486 -2.929,1.734 -3.614,0.09 l 0.645,-0.228 0.45,1.129 c 0.314,0.774 0.376,0.944 1.066,1.183 0.359,0.121 0.621,0.132 0.621,0.132 L -0.735,0.551 -1.818,0.446 -1.761,-0.18 Z"
             style="fill:#000000;fill-opacity:1;fill-rule:nonzero;stroke:none"
             id="path506"
             inkscape:connector-curvature="0" /></g></g></g></g></svg>