<?xml version="1.0" encoding="utf-8"?>
<!-- Generator: Adobe Illustrator 15.1.0, SVG Export Plug-In . SVG Version: 6.00 Build 0)  -->
<!DOCTYPE svg PUBLIC "-//W3C//DTD SVG 1.1//EN" "http://www.w3.org/Graphics/SVG/1.1/DTD/svg11.dtd">
<svg version="1.1" id="Layer_1" xmlns="http://www.w3.org/2000/svg" xmlns:xlink="http://www.w3.org/1999/xlink" x="0px" y="0px"
	 width="428.308px" height="466.832px" viewBox="0 0 428.308 466.832" enable-background="new 0 0 428.308 466.832"
	 xml:space="preserve">
<g>
	<rect x="143.727" y="28.333" fill="#047962" width="143.334" height="55.667"/>
	<path fill="#047962" d="M215.394,0c-22.003,0-41.965,8.312-56.693,21.815h113.387C257.36,8.312,237.397,0,215.394,0z"/>
	<path fill="#047962" d="M118.644,212.832l16.619-41.599h26.35l-5.989,28.353c-8.747,3.679-16.89,8.123-24.251,13.246h72.964
		c4.196-3.98,8.375-18.25,11.01-18.25c2.632,0,6.809,14.27,11.005,18.25h73.064c-7.575-5.271-15.98-9.821-25.018-13.561
		l-5.923-28.039h27.05l16.619,41.599h13.75l-41.5-103.25l4.75-16h-147.5l4.75,16l-41.5,103.25H118.644z M271.394,110.832
		l19.803,49.567h-25.01l-10.47-49.567H271.394z M222.794,110.832h20.173l10.47,49.567h-30.643V110.832z M222.794,171.233h32.931
		l4.885,23.124c-11.851-3.553-24.56-5.739-37.815-6.338V171.233z M207.294,188.057c-13.28,0.658-26.008,2.899-37.862,6.521
		l4.931-23.345h32.931V188.057z M187.122,110.832h20.172v49.567h-30.643L187.122,110.832z M159.394,110.832h14.978l-10.47,49.567
		h-24.31L159.394,110.832z"/>
	<g>
		<path fill="#047962" d="M253.931,222.999c2.979,4.408,3.642,8.882,0.861,10.667h81.519v-10.667H253.931z"/>
		<path fill="#047962" d="M176.756,222.999H94.477v10.667h81.418C173.115,231.881,173.777,227.407,176.756,222.999z"/>
	</g>
	<path fill="#047962" d="M404.309,374.491l-18.129,2.501c-1.154-3.452-3.97-11.461-6.786-16.327c-3.666-6.334-13.334-12-13.334-12
		v-6l-29.666-21.333v-81.333h-96.305c1.901,8.305,5.252,23.371,5.252,33.833c0,19.25-24,25.5-24,25.5v36.635l15.341-9.594
		c0,0-6.474-20.623,7.751-29.519c10.344-6.47,29.557-12.318,32.189-13.449c2.633-1.135-5.014-6.374-6.584-10.532
		c-1.573-4.155,3.207-6.374,9.235-5.776c6.028,0.6,14.715,11.613,17.464,14.777c2.75,3.163,18.73-1.691,20.116,0.523
		c1.386,2.217-9.974,14.462-8.332,18.318s7.743,16.486,5.642,22.168c-2.1,5.684-6.187,9.011-9.235,5.777
		c-3.05-3.232-4.415-12.399-6.585-10.529c-2.171,1.871-15.839,16.587-26.184,23.058c-14.224,8.895-29.932-5.95-29.932-5.95
		l-20.887,13.062v4.28c0,0-0.25,2.75,2.25,3s5.5-1.25,5.5-1.25s-7.25,13-7.25,15.75s0,9,0,9h4.5c0,0,3,30.5-10.995,30.5
		c-14,0-11-30.5-11-30.5h4.5c0,0,0-6.25,0-9s-7.25-15.75-7.25-15.75s3,1.5,5.5,1.25s2.25-3,2.25-3v-3.967l-21.388-13.376
		c0,0-15.708,14.845-29.932,5.95c-10.345-6.471-24.013-21.187-26.183-23.058c-2.17-1.87-3.536,7.297-6.585,10.529
		c-3.049,3.233-7.136-0.094-9.236-5.777c-2.101-5.682,4-18.312,5.642-22.168c1.641-3.856-9.718-16.102-8.332-18.318
		c1.386-2.215,17.366,2.64,20.116-0.523c2.749-3.164,11.436-14.178,17.464-14.777c6.028-0.598,10.809,1.621,9.236,5.776
		c-1.571,4.158-9.217,9.397-6.584,10.532c2.632,1.131,21.845,6.979,32.189,13.449c14.224,8.896,7.75,29.519,7.75,29.519
		l15.843,9.908v-36.949c0,0-24-6.25-24-25.5c0-10.462,3.35-25.528,5.252-33.833H94.394v81.333l-29.667,21.333v6
		c0,0-9.667,5.666-13.333,12c-2.91,5.027-5.818,13.408-6.895,16.654l-20.5-2.828L0,425.618l1.613-0.036
		c0.333-0.008,33.32-0.742,42.423-0.252c4.777,0.259,7.928,1.204,10.708,2.039c2.507,0.752,4.875,1.463,7.846,1.463
		c4.79,0,10.75,0,10.75-5.75c0-1.208-0.304-2.382-0.757-3.46c16.596,12.032,71.673,47.21,141.571,47.21
		c69.896,0,124.973-35.178,141.569-47.21c-0.453,1.078-0.758,2.252-0.758,3.46c0,5.75,5.961,5.75,10.75,5.75
		c2.972,0,5.34-0.711,7.846-1.463c2.781-0.835,5.932-1.78,10.709-2.039c9.104-0.49,42.091,0.244,42.424,0.252l1.613,0.036
		L404.309,374.491z M62.591,426.832c-2.678,0-4.806-0.639-7.271-1.379c-2.888-0.866-6.161-1.849-11.175-2.119
		c-8.01-0.434-34.186,0.072-40.964,0.214l22.002-46.875l19.813,2.733l0.054-0.392l12.668,4.472l-24.07,18.781
		c-0.459,0.449-0.6,1.323-0.6,2.731c0,5.667,13.625,12.208,21,12.208c4.851,0,10.529-0.594,13.858-1.001
		c1.112,1.184,3.434,3.997,3.434,6.876C71.341,425.991,69.378,426.832,62.591,426.832z M214.155,464.832
		c-75.641,0-133.675-41.553-143.893-49.437c-1.554-1.347-6.941-5.562-16.172-8.188c-5.808-1.652-12.123-3.985-15.69-4.959
		l41.299-32.106l-0.399-0.515l0.428-0.295c0,0,64.333,47.333,135.667,47.333c64.305,0,122.911-38.459,133.838-46.039l40.676,31.622
		c-3.568,0.974-9.883,3.307-15.69,4.959c-9.23,2.626-14.618,6.842-16.172,8.188C347.828,423.279,289.794,464.832,214.155,464.832z
		 M384.163,423.334c-5.015,0.271-8.288,1.253-11.175,2.119c-2.465,0.74-4.594,1.379-7.271,1.379c-6.787,0-8.75-0.841-8.75-3.75
		c0-2.879,2.322-5.692,3.434-6.876c3.33,0.407,9.008,1.001,13.859,1.001c7.375,0,21-6.541,21-12.208c0-1.408-0.141-2.282-0.6-2.731
		l-23.019-17.961l13.941-5.214l17.542-2.42l22.002,46.875C418.348,423.406,392.172,422.9,384.163,423.334z"/>
	<g>
		<path fill="#047962" d="M108.795,392.083l-20.437,30.919l-6.592-4.357l20.437-30.919L108.795,392.083z"/>
		<path fill="#047962" d="M121.79,399.606l-13.013,23.393l-6.906-3.841l13.013-23.394L121.79,399.606z"/>
		<path fill="#047962" d="M137.686,436.308l-7.039-3.013l5.182-12.108c1.125-2.628,1.221-4.811,0.288-6.545
			c-0.934-1.735-2.942-3.263-6.025-4.582c-1.575-0.675-3.725-1.42-6.448-2.238l1.666-5.352c2.632,0.522,5.523,1.457,8.674,2.806
			c4.776,2.044,7.969,4.499,9.578,7.365c1.608,2.865,1.546,6.324-0.188,10.376L137.686,436.308z"/>
		<path fill="#047962" d="M157.777,432.862c0.028,1.426,0.662,2.771,1.902,4.033s2.754,2.112,4.543,2.548
			c3.029,0.737,5.671,0.325,7.928-1.237c2.256-1.562,3.875-4.354,4.854-8.374l3.093-9.348l7.333,1.785l-3.354,9.727
			c-1.417,4.121-2.896,7.059-4.44,8.812c-1.543,1.753-3.729,3.064-6.558,3.934c-2.829,0.869-6.166,0.836-10.009-0.101
			c-4.977-1.212-8.56-3.659-10.749-7.344c-2.189-3.684-2.554-8.524-1.093-14.522l1.824-8.878l7.386,1.799l-1.625,6.901
			c-0.206,0.92-0.457,2.261-0.754,4.022c-0.13,0.765-0.233,1.303-0.309,1.613c1.205,0.293,2.333,0.278,3.388-0.045
			c1.054-0.323,1.869-0.912,2.443-1.769c0.574-0.855,1.134-2.402,1.679-4.642l1.394-4.568l7.226,1.76l-1.936,6.332
			c-0.516,1.658-1.006,2.919-1.47,3.784s-1.187,1.676-2.168,2.432c-0.982,0.757-2.336,1.275-4.065,1.556
			C162.512,433.353,160.357,433.282,157.777,432.862z"/>
		<path fill="#047962" d="M199.936,435.872l-0.66,13.887l-7.675-0.364l0.66-13.887L199.936,435.872z M218.668,450.68l-7.648-0.363
			l0.599-12.601c0.155-3.276-0.616-5.582-2.313-6.917s-4.313-2.087-7.845-2.255c-2.64-0.125-5.527-0.052-8.661,0.221l-0.277-5.697
			c2.991-0.346,6.508-0.423,10.55-0.231c4.388,0.209,7.757,0.954,10.105,2.235c2.348,1.282,3.995,2.825,4.94,4.63
			s1.345,4.253,1.198,7.344L218.668,450.68z"/>
		<path fill="#047962" d="M245.073,443.384c1.158,0.084,2.165,0.029,3.019-0.164c1.066-0.24,1.714-0.641,1.943-1.201
			c0.229-0.56,0.19-1.513-0.112-2.858l-2.821-12.503c-1.245,0.281-3.107,0.848-5.587,1.7l-1.792-5.208
			c4.466-1.576,9.17-2.923,14.113-4.038c4.179-0.942,7.562-1.353,10.15-1.229s4.701,0.939,6.341,2.449s2.829,3.905,3.57,7.187
			l3.182,14.103l-7.495,1.69l-2.898-12.847c-0.748-3.314-1.835-5.354-3.259-6.119c-1.425-0.765-4.387-0.64-8.886,0.375l2.949,13.069
			c0.499,2.215,0.675,3.844,0.527,4.886c-0.148,1.042-0.722,1.999-1.721,2.871s-2.549,1.545-4.646,2.019
			c-2.276,0.514-4.514,0.699-6.714,0.558L245.073,443.384z"/>
		<path fill="#047962" d="M286.048,415.997c1.097-4.821,3.536-8.027,7.317-9.617c3.159-1.328,6.158-1.226,8.998,0.309
			c2.84,1.533,5.349,4.89,7.526,10.068l4.303,10.234l-13.638,5.732l-2.366-5.628l6.554-2.756l-2.082-4.954
			c-1.363-3.24-2.61-5.384-3.743-6.432c-1.133-1.047-2.43-1.264-3.892-0.649c-1.546,0.65-2.499,1.959-2.858,3.925
			c-0.359,1.968-0.066,5.252,0.88,9.854l1.887,9.004l-7.486,3.147l-1.023-5.892c-0.597-3.489-0.905-6.105-0.927-7.849l-9.659-10.417
			l6.402-2.692L286.048,415.997z"/>
		<path fill="#047962" d="M342.387,410.407l-6.529,3.998l-6.877-11.231c-1.493-2.438-3.218-3.779-5.172-4.022
			c-1.955-0.242-4.363,0.512-7.224,2.263c-1.461,0.896-3.313,2.217-5.556,3.965l-3.401-4.456c1.948-1.844,4.384-3.66,7.307-5.45
			c4.431-2.713,8.28-3.896,11.549-3.551s6.054,2.398,8.354,6.156L342.387,410.407z"/>
	</g>
</g>
</svg>
