<?xml version="1.0" encoding="UTF-8" standalone="no"?>
<!-- Created with Inkscape (http://www.inkscape.org/) -->

<svg
   xmlns:dc="http://purl.org/dc/elements/1.1/"
   xmlns:cc="http://creativecommons.org/ns#"
   xmlns:rdf="http://www.w3.org/1999/02/22-rdf-syntax-ns#"
   xmlns:svg="http://www.w3.org/2000/svg"
   xmlns="http://www.w3.org/2000/svg"
   xmlns:sodipodi="http://sodipodi.sourceforge.net/DTD/sodipodi-0.dtd"
   xmlns:inkscape="http://www.inkscape.org/namespaces/inkscape"
   width="321.71744mm"
   height="339.83673mm"
   viewBox="0 0 321.71744 339.83673"
   version="1.1"
   id="svg8"
   inkscape:version="0.92.3 (2405546, 2018-03-11)"
   sodipodi:docname="Ramel.svg">
  <defs
     id="defs2" />
  <sodipodi:namedview
     id="base"
     pagecolor="#ffffff"
     bordercolor="#666666"
     borderopacity="1.0"
     inkscape:pageopacity="0.0"
     inkscape:pageshadow="2"
     inkscape:zoom="0.24748737"
     inkscape:cx="834.74405"
     inkscape:cy="544.83083"
     inkscape:document-units="mm"
     inkscape:current-layer="layer1"
     showgrid="false"
     fit-margin-top="0"
     fit-margin-left="0"
     fit-margin-right="0"
     fit-margin-bottom="0"
     inkscape:window-width="1920"
     inkscape:window-height="1005"
     inkscape:window-x="-9"
     inkscape:window-y="-9"
     inkscape:window-maximized="1" />
  <metadata
     id="metadata5">
    <rdf:RDF>
      <cc:Work
         rdf:about="">
        <dc:format>image/svg+xml</dc:format>
        <dc:type
           rdf:resource="http://purl.org/dc/dcmitype/StillImage" />
        <dc:title></dc:title>
      </cc:Work>
    </rdf:RDF>
  </metadata>
  <g
     inkscape:label="Layer 1"
     inkscape:groupmode="layer"
     id="layer1"
     transform="translate(476.09086,-121.78997)">
    <g
       transform="matrix(0.26458333,0,0,0.26458333,-80.883663,120.25115)"
       id="g1756">
      <path
         style="fill:#008963;fill-opacity:1"
         d="m -1244.1738,5.816 -90,820.42228 c -13.5187,123.2335 97.3171,166.98689 233.5976,208.58792 77.2359,23.577 182.55426,42.5772 204.40237,98.3816 36.36982,-62.9944 128.82395,-75.6252 204.40235,-98.3816 136.4382,-41.08097 245.95953,-95.69345 233.59765,-208.58792 l -90,-820.42228 z"
         id="path875"
         inkscape:connector-curvature="0"
         sodipodi:nodetypes="csscsscc" />
      <path
         sodipodi:type="star"
         style="opacity:1;fill:#ffffff;fill-opacity:1;stroke:none;stroke-width:52.70795059;stroke-linecap:round;stroke-linejoin:round;stroke-miterlimit:4;stroke-dasharray:none;stroke-dashoffset:0;stroke-opacity:1"
         id="path1631"
         sodipodi:sides="3"
         sodipodi:cx="-1116.7994"
         sodipodi:cy="772.57098"
         sodipodi:r1="168.19708"
         sodipodi:r2="84.098541"
         sodipodi:arg1="1.5707963"
         sodipodi:arg2="2.6179939"
         inkscape:flatsided="true"
         inkscape:rounded="0"
         inkscape:randomized="0"
         d="m -1116.7994,940.76807 -145.663,-252.29562 291.32591,-10e-6 z"
         inkscape:transform-center-y="42.049265" />
      <path
         transform="scale(1,-1)"
         inkscape:transform-center-y="-42.049238"
         d="m -1116.7994,-604.37488 -145.663,-252.29562 291.32591,-1e-5 z"
         inkscape:randomized="0"
         inkscape:rounded="0"
         inkscape:flatsided="true"
         sodipodi:arg2="2.6179939"
         sodipodi:arg1="1.5707963"
         sodipodi:r2="84.098541"
         sodipodi:r1="168.19708"
         sodipodi:cy="-772.57196"
         sodipodi:cx="-1116.7994"
         sodipodi:sides="3"
         id="path1629"
         style="opacity:1;fill:#ffffff;fill-opacity:1;stroke:none;stroke-width:52.70795059;stroke-linecap:round;stroke-linejoin:round;stroke-miterlimit:4;stroke-dasharray:none;stroke-dashoffset:0;stroke-opacity:1"
         sodipodi:type="star" />
      <g
         transform="matrix(-1,0,0,1,-1792.3476,0)"
         inkscape:transform-center-y="-275.06826"
         inkscape:transform-center-x="487.80159"
         id="g929">
        <path
           sodipodi:nodetypes="cccccccc"
           style="fill:#008963"
           inkscape:connector-curvature="0"
           d="m -385.58256,989.02339 86.93148,108.10711 -154.88495,140.335 -12.77182,-15.883 56.43778,-100.4133 c 13.74629,-26.3289 13.61525,-46.6486 0.82805,-62.0109 l -22.30939,-26.8021 z"
           id="path923" />
        <path
           sodipodi:nodetypes="cccsc"
           style="fill:#008963;stroke-width:1.05863893"
           inkscape:connector-curvature="0"
           d="m -437.13556,1060.7153 c -26.5292,35.5756 -24.8884,46.4378 -80.95775,95.6412 l 38.93891,49.2502 c 29.3909,-59.4652 74.35584,-103.0773 51.16272,-133.0677 z"
           id="path925" />
      </g>
      <path
         inkscape:connector-curvature="0"
         id="path889"
         d="m -1264.1738,952.23828 -78,97.00002 c 0,0 154,241 445.99997,241 291.99997,0 446,-241 446,-241 l -78,-97.00002 c 0,0 -187.12683,175.74272 -368,175.67972 -180.87317,0.063 -367.99997,-175.67972 -367.99997,-175.67972 z"
         style="fill:#008963;fill-opacity:1" />
      <path
         sodipodi:nodetypes="cccccccc"
         style="fill:#008963"
         inkscape:connector-curvature="0"
         d="m -385.58256,989.02339 86.93148,108.10711 -154.88495,140.335 -12.77182,-15.883 56.43778,-100.4133 c 13.74629,-26.3289 13.61525,-46.6486 0.82805,-62.0109 l -22.30939,-26.8021 z"
         id="path835" />
      <path
         sodipodi:nodetypes="cccsc"
         style="fill:#008963;stroke-width:1.05863893"
         inkscape:connector-curvature="0"
         d="m -437.13556,1060.7153 c -26.5292,35.5756 -24.8884,46.4378 -80.95775,95.6412 l 38.93891,49.2502 c 29.3909,-59.4652 74.35584,-103.0773 51.16272,-133.0677 z"
         id="path837" />
      <rect
         ry="0"
         rx="0"
         y="-945.84698"
         x="658.04578"
         height="308.233"
         width="29.739"
         id="rect1663"
         style="opacity:1;fill:#ffffff;fill-opacity:1;stroke:none;stroke-width:38;stroke-linecap:round;stroke-linejoin:round;stroke-miterlimit:4;stroke-dasharray:none;stroke-dashoffset:0;stroke-opacity:1"
         transform="scale(-1)" />
      <rect
         transform="rotate(30)"
         style="opacity:1;fill:#ffffff;fill-opacity:1;stroke:none;stroke-width:38;stroke-linecap:round;stroke-linejoin:round;stroke-miterlimit:4;stroke-dasharray:none;stroke-dashoffset:0;stroke-opacity:1"
         id="rect1653"
         width="29.739"
         height="308.233"
         x="-201.76588"
         y="867.99969"
         rx="0"
         ry="0" />
      <rect
         ry="0"
         rx="0"
         y="824.51038"
         x="334.33154"
         height="308.233"
         width="29.739"
         id="rect1655"
         style="opacity:1;fill:#ffffff;fill-opacity:1;stroke:none;stroke-width:38;stroke-linecap:round;stroke-linejoin:round;stroke-miterlimit:4;stroke-dasharray:none;stroke-dashoffset:0;stroke-opacity:1"
         transform="rotate(60)" />
      <rect
         transform="rotate(90)"
         style="opacity:1;fill:#ffffff;fill-opacity:1;stroke:none;stroke-width:38;stroke-linecap:round;stroke-linejoin:round;stroke-miterlimit:4;stroke-dasharray:none;stroke-dashoffset:0;stroke-opacity:1"
         id="rect1657"
         width="29.739"
         height="308.233"
         x="776.86096"
         y="518.79871"
         rx="0"
         ry="0" />
      <rect
         ry="0"
         rx="0"
         y="32.779903"
         x="1007.2467"
         height="308.233"
         width="29.739"
         id="rect1659"
         style="opacity:1;fill:#ffffff;fill-opacity:1;stroke:none;stroke-width:38;stroke-linecap:round;stroke-linejoin:round;stroke-miterlimit:4;stroke-dasharray:none;stroke-dashoffset:0;stroke-opacity:1"
         transform="rotate(120)" />
      <rect
         transform="rotate(-30)"
         style="opacity:1;fill:#ffffff;fill-opacity:1;stroke:none;stroke-width:38;stroke-linecap:round;stroke-linejoin:round;stroke-miterlimit:4;stroke-dasharray:none;stroke-dashoffset:0;stroke-opacity:1"
         id="rect1665"
         width="29.739"
         height="308.233"
         x="-993.4964"
         y="195.08458"
         rx="0"
         ry="0" />
      <ellipse
         ry="97.203499"
         rx="97.205498"
         cy="791.73047"
         cx="-672.9151"
         id="path1680"
         style="opacity:1;fill:#ffffff;fill-opacity:1;stroke:none;stroke-width:83.56626892;stroke-linecap:round;stroke-linejoin:round;stroke-miterlimit:4;stroke-dasharray:none;stroke-dashoffset:0;stroke-opacity:1" />
      <circle
         style="opacity:1;fill:#008963;fill-opacity:1;stroke:none;stroke-width:58.29594803;stroke-linecap:round;stroke-linejoin:round;stroke-miterlimit:4;stroke-dasharray:none;stroke-dashoffset:0;stroke-opacity:1"
         id="circle1701"
         cx="-672.9151"
         cy="791.73047"
         r="67.809998" />
      <path
         style="fill:#ffffff"
         inkscape:connector-curvature="0"
         d="m -798.09608,436.28647 c -36.965,39.275 -33.5,87.791 -33.5,102.807 0,15.016 -19.637,57.756 -27.723,71.618 -8.086,13.862 -19.098,28.462 -19.098,28.462 0,0 -0.316,-68.948 -0.633,-86.027 -0.317,-17.079 -0.315,-36.372 27.2,-84.446 27.515,-48.074 37.004,-63.571 41.748,-66.102 4.744,-2.531 47.758,-7.271 94.883,-81.596 30.995,-49.971 24.037,-167.626 24.037,-167.626 0,0 -110.38,47.442 -140.11,92.985 -29.73,45.543 -24.67,142.007 -24.67,142.007 l -30.046,53.135 -3.795,-164.147 c 0,0 40.167,-46.809 40.167,-85.078 0,-38.269 -24.037,-91.72 -30.679,-107.217002 -6.642,-15.497 -15.814,-35.739 -15.814,-35.739 h -0.143 c 0,0 -9.172,20.242 -15.814,35.739 -6.642,15.497002 -30.679,68.948002 -30.679,107.217002 0,38.269 40.167,85.078 40.167,85.078 l -3.795,164.147 -30.046,-53.135 c 0,0 5.061,-96.464 -24.669,-142.007 -29.73,-45.543 -140.11002,-92.985 -140.11002,-92.985 0,0 -6.958,117.655 24.037,167.626 47.125,74.325 90.13902,79.066 94.88302,81.596 4.744,2.53 14.232,18.028 41.748,66.102 27.516,48.074 27.516,67.367 27.2,84.446 -0.316,17.079 -0.632,86.027 -0.632,86.027 0,0 -11.012,-14.601 -19.098,-28.462 -8.086,-13.861 -27.723,-56.602 -27.723,-71.618 0,-15.016 3.465,-63.532 -33.499,-102.807 -36.96402,-39.275 -147.85702,-97.031 -147.85702,-97.031 0,0 21.947,150.167 40.43,180.201 18.483,30.034 107.42702,78.549 127.06402,103.962 19.637,25.413 36.964,47.36 36.964,70.463 0,23.103 -2.31,69.309 -5.776,133.996 -3.466,64.687 -10.396,142.081 -10.396,142.081 h 57.673 57.673 c 0,0 -6.931,-77.394 -10.396,-142.081 -3.465,-64.687 -5.775,-110.894 -5.775,-133.996 0,-23.102 17.326,-45.05 36.964,-70.463 19.638,-25.413 108.582,-73.928 127.064,-103.962 18.482,-30.034 40.43,-180.201 40.43,-180.201 0,0 -110.892,57.756 -147.856,97.031 z m -14.698,-149.965 c 26.206,-36.76 77.129,-66.388 77.129,-66.388 0,0 -1.841,68.836 -22.761,99.878 -20.918,31.042 -62.203,56.065 -62.203,56.065 0,0 42.192,-62.11 48.137,-73.57 5.945,-11.46 2.806,-25.476 2.806,-25.476 0,0 -17.581,8.021 -25.221,20.67 -7.64,12.649 -32.933,69.069 -32.933,69.069 0,0 -3.596,-52.216 15.046,-80.248 z m -151.713,80.249 c 0,0 -25.294,-56.419 -32.933,-69.069 -7.63902,-12.65 -25.22102,-20.67 -25.22102,-20.67 0,0 -3.139,14.015 2.806,25.476 5.945,11.461 48.13702,73.57 48.13702,73.57 0,0 -41.28502,-25.023 -62.20402,-56.065 -20.919,-31.042 -22.76,-99.878 -22.76,-99.878 0,0 50.923,29.628 77.12902,66.388 18.641,28.031 15.046,80.248 15.046,80.248 z m -88.36702,115.83 c 6.747,11.007 53.26202,69.95 53.26202,69.95 0,0 -42.96502,-22.015 -66.04402,-51.486 -23.079,-29.471 -29.826,-98.001 -29.826,-98.001 0,0 52.906,25.92 81.667,60.718 20.59402,26.631 24.50002,78.827 24.50002,78.827 0,0 -33.02102,-54.327 -41.54302,-66.399 -8.522,-12.072 -26.631,-18.819 -26.631,-18.819 0,0 -2.131,14.202 4.615,25.21 z m 156.68202,-306.663 c 0,0 -4.866,6.674 -4.866,19.188 0,12.514 2.502,37.262 2.502,37.262 0,0 -13.348,-20.438 -13.348,-41.711 0,-21.273 15.711,-50.332 15.711,-50.332 0,0 15.711,29.059 15.711,50.332 0,21.273 -13.348,41.711 -13.348,41.711 0,0 2.503,-24.749 2.503,-37.262 0,-12.513 -4.865,-19.188 -4.865,-19.188 z m 169.5,325.126 c -23.08,29.471 -66.045,51.486 -66.045,51.486 0,0 46.516,-58.942 53.262,-69.95 6.747,-11.007 4.616,-25.21 4.616,-25.21 0,0 -18.108,6.746 -26.631,18.819 -8.523,12.073 -41.544,66.399 -41.544,66.399 0,0 3.906,-52.196 24.5,-78.827 28.762,-34.797 81.668,-60.718 81.668,-60.718 0,0 -6.746,68.53 -29.826,98.001 z"
         id="path847" />
      <path
         sodipodi:nodetypes="csscsscc"
         inkscape:connector-curvature="0"
         id="path887"
         d="m -1223.0293,32.316575 -85.5144,806.658225 c -9.1949,86.73524 88.5163,133.75648 218.1544,172.79 71.8116,21.6222 171.07721,39.9709 194.21498,80.0466 21.65899,-37.5144 122.40336,-58.4244 194.21493,-80.0466 129.63812,-39.03352 227.34936,-86.05477 218.1545,-172.79 l -85.5144,-806.658225 z"
         style="fill:none;stroke:#ffffff;stroke-width:16;stroke-miterlimit:4;stroke-dasharray:none" />
      <path
         inkscape:connector-curvature="0"
         id="path1612"
         d="m -1038.7726,1109.5538 -24.0571,50.9694 c 17.027,7.5477 34.4746,14.1047 52.2678,19.4205 6.4429,1.9248 12.93122,3.6869 19.46122,5.2744 8.23088,2.0022 16.52977,3.7251 24.87642,5.1586 -10.30747,9.9848 -20.34689,23.0871 -32.08115,32.1517 -8.65199,6.6869 -17.65969,13.1121 -26.98169,19.2733 6.9042,2.0363 13.8778,3.922 20.9179,5.6473 13.8845,3.3861 27.96232,6.0831 42.1714,8.06 21.49776,-19.3444 40.32237,-40.2985 56.06135,-62.375 6.02679,-8.4497 12.11199,-24.1414 17.25909,-32.8736 -5.56363,0.2723 -11.12407,0.3989 -16.67433,0.3744 v 0 c -25.65613,-0.07 -51.44254,-3.3528 -76.60648,-9.4717 v 0 c -5.99078,-1.4505 -11.95794,-3.0701 -17.89793,-4.8471 l 7.7727,-19.4474 c -15.6524,-4.678 -31.1738,-10.5331 -46.4892,-17.3148 z"
         style="fill:#ffffff" />
      <path
         inkscape:connector-curvature="0"
         id="path1608"
         d="m -1224.2845,1010.6403 c -7.2301,7.5913 -17.6197,18.9833 -24.8623,26.5606 35.9852,31.8978 73.8068,61.9562 114.23,87.5011 l -32.2207,51.0069 c 14.9208,11.4282 29.94,22.3345 53.4394,30.476 l 46.8509,-89.0811 c -55.5235,-28.0879 -108.7672,-63.5761 -157.4373,-106.4635 z"
         style="fill:#ffffff" />
      <path
         inkscape:connector-curvature="0"
         id="path1606"
         d="m -673.50573,1091.2112 c 5.20039,9.0923 10.38717,18.1922 15.56024,27.2999 24.18499,-14.9525 47.60481,-31.2775 70.39525,-48.4973 l 36.46681,48.2665 c 15.79962,-11.9318 31.18229,-24.209 46.18661,-36.6961 l -30.87674,-37.3523 -27.5977,-33.3857 c -35.52367,29.1999 -72.03484,56.6956 -110.13447,80.365 z"
         style="fill:#ffffff" />
      <path
         inkscape:connector-curvature="0"
         id="path1035"
         d="m -1253.3814,1049.3959 -32.0358,36.3838 c 14.7094,13.0398 29.8722,25.8343 45.5337,38.2245 l 30.1409,-38.0451 c -14.8938,-11.7975 -29.4249,-24.0382 -43.6388,-36.5632 z"
         style="fill:#ffffff" />
      <path
         sodipodi:nodetypes="ccccccccccsc"
         inkscape:connector-curvature="0"
         id="path1615"
         style="fill:#ffffff"
         d="m -852.712,1259.6524 c 0.0888,0.5327 34.24403,-3.9641 56.0344,-12.8069 -20.04269,-46.8082 8.9182,-69.9058 42.90552,-84.2356 19.57009,-8.0847 41.36953,-10.7768 53.87444,12.4831 -6.95665,3.4779 -13.98379,6.8404 -21.08386,10.079 -16.4996,7.508 -33.43003,14.2713 -50.7478,20.0959 3.73182,9.7953 7.4883,19.5819 11.26928,29.3599 17.98519,-6.0972 35.48707,-13.1121 52.46522,-20.8632 23.36189,-10.7231 45.88806,-22.6306 67.65416,-35.4577 l -31.15358,-45.139 c -16.05078,-24.3937 -55.54179,-22.9784 -98.0862,-5.0644 -75.38787,31.7432 -101.50583,77.4588 -83.13158,131.5489 z" />
      <path
         sodipodi:nodetypes="ccccc"
         inkscape:connector-curvature="0"
         id="path1617"
         d="m -865.86414,1152.9458 -11.52963,38.9792 61.95099,14.7202 9.54632,-40.1841 z"
         style="color:#000000;font-style:normal;font-variant:normal;font-weight:normal;font-stretch:normal;font-size:medium;line-height:normal;font-family:sans-serif;font-variant-ligatures:normal;font-variant-position:normal;font-variant-caps:normal;font-variant-numeric:normal;font-variant-alternates:normal;font-feature-settings:normal;text-indent:0;text-align:start;text-decoration:none;text-decoration-line:none;text-decoration-style:solid;text-decoration-color:#000000;letter-spacing:normal;word-spacing:normal;text-transform:none;writing-mode:lr-tb;direction:ltr;text-orientation:mixed;dominant-baseline:auto;baseline-shift:baseline;text-anchor:start;white-space:normal;shape-padding:0;clip-rule:nonzero;display:inline;overflow:visible;visibility:visible;opacity:1;isolation:auto;mix-blend-mode:normal;color-interpolation:sRGB;color-interpolation-filters:linearRGB;solid-color:#000000;solid-opacity:1;vector-effect:none;fill:#ffffff;fill-opacity:1;fill-rule:nonzero;stroke:none;stroke-width:41.30133438;stroke-linecap:butt;stroke-linejoin:miter;stroke-miterlimit:4;stroke-dasharray:none;stroke-dashoffset:0;stroke-opacity:1;color-rendering:auto;image-rendering:auto;shape-rendering:auto;text-rendering:auto;enable-background:accumulate" />
      <path
         inkscape:transform-center-y="26.54862"
         d="m -1116.8014,878.76915 -91.9673,-159.29203 183.9346,0 z"
         inkscape:randomized="0"
         inkscape:rounded="0"
         inkscape:flatsided="true"
         sodipodi:arg2="2.6179939"
         sodipodi:arg1="1.5707963"
         sodipodi:r2="53.097343"
         sodipodi:r1="106.19469"
         sodipodi:cy="772.57446"
         sodipodi:cx="-1116.8014"
         sodipodi:sides="3"
         id="path1635"
         style="opacity:1;fill:#008963;fill-opacity:1;stroke:none;stroke-width:33.27824783;stroke-linecap:round;stroke-linejoin:round;stroke-miterlimit:4;stroke-dasharray:none;stroke-dashoffset:0;stroke-opacity:1"
         sodipodi:type="star"
         inkscape:transform-center-x="2.7087211e-005" />
      <path
         inkscape:transform-center-x="2.7087211e-005"
         sodipodi:type="star"
         style="opacity:1;fill:#008963;fill-opacity:1;stroke:none;stroke-width:33.27824783;stroke-linecap:round;stroke-linejoin:round;stroke-miterlimit:4;stroke-dasharray:none;stroke-dashoffset:0;stroke-opacity:1"
         id="path1633"
         sodipodi:sides="3"
         sodipodi:cx="-1116.8031"
         sodipodi:cy="-772.57416"
         sodipodi:r1="106.19469"
         sodipodi:r2="53.097343"
         sodipodi:arg1="1.5707963"
         sodipodi:arg2="2.6179939"
         inkscape:flatsided="true"
         inkscape:rounded="0"
         inkscape:randomized="0"
         d="m -1116.8031,-666.37947 -91.9673,-159.29203 183.9346,0 z"
         inkscape:transform-center-y="-26.54863"
         transform="scale(1,-1)" />
    </g>
  </g>
</svg>
