<?xml version="1.0" encoding="UTF-8" standalone="no"?>
<!-- Generator: Adobe Illustrator 15.0.0, SVG Export Plug-In . SVG Version: 6.00 Build 0)  -->

<svg
   xmlns:dc="http://purl.org/dc/elements/1.1/"
   xmlns:cc="http://creativecommons.org/ns#"
   xmlns:rdf="http://www.w3.org/1999/02/22-rdf-syntax-ns#"
   xmlns:svg="http://www.w3.org/2000/svg"
   xmlns="http://www.w3.org/2000/svg"
   xmlns:sodipodi="http://sodipodi.sourceforge.net/DTD/sodipodi-0.dtd"
   xmlns:inkscape="http://www.inkscape.org/namespaces/inkscape"
   version="1.1"
   id="Layer_1"
   x="0px"
   y="0px"
   width="665.14648"
   height="863.60699"
   viewBox="0 0 665.1465 863.60701"
   enable-background="new 0 0 1766.846 1177.897"
   xml:space="preserve"
   inkscape:version="0.48.4 r9939"
   sodipodi:docname="seal rishon.svg"><metadata
   id="metadata3785"><rdf:RDF><cc:Work
       rdf:about=""><dc:format>image/svg+xml</dc:format><dc:type
         rdf:resource="http://purl.org/dc/dcmitype/StillImage" /></cc:Work></rdf:RDF></metadata><defs
   id="defs3783">
	
	
	
	
	
	
	
	
	
	
	
	
	
	
	
	
	
	
	
	
	
	
	
	
	
	
	
	
	
	
	
	
	
	
	
	
	
	
	
	
	
	
	
	
	
	
	
	
	
	
	
	
	
	
	
	
	
	
	
	
	
	
	
	
	
	
	
	
	
	
	
	
	
	
	
	
	
	
	
	
	
	
	
	
	
	
	
	
	
	
	
	
	
	
	
	
	
	
	
	
	
	
	
	
	
	
	
	
	
	
	
	
	
	
	
	
	
	
	
	
	
	
	
	
	
	
	
	
	
	
	
	
	
	
	
	
	
	
	
	
	
	
	
	
	
	
	
	
	
	
	
	
	
	
	
	
	
	
	
	
	
	
	
	
	
	
	
	
	
	
	
	
	
	
	
	
	
	
	
	
	
	
	
	
	
	
	
	
	
	
	
	
	
	
	
</defs><sodipodi:namedview
   pagecolor="#ffffff"
   bordercolor="#666666"
   borderopacity="1"
   objecttolerance="10"
   gridtolerance="10"
   guidetolerance="10"
   inkscape:pageopacity="0"
   inkscape:pageshadow="2"
   inkscape:window-width="1680"
   inkscape:window-height="998"
   id="namedview3781"
   showgrid="false"
   inkscape:zoom="1.6028567"
   inkscape:cx="310.10265"
   inkscape:cy="583.42512"
   inkscape:window-x="-8"
   inkscape:window-y="-8"
   inkscape:window-maximized="1"
   inkscape:current-layer="Layer_1"
   fit-margin-top="0"
   fit-margin-left="0"
   fit-margin-right="0"
   fit-margin-bottom="0" />

<path
   style="fill:#000000"
   inkscape:connector-curvature="0"
   id="path3391"
   d="M 131.61073,-3.906245e-6 H 532.16247 L 665.07467,135.28381 v 282.47028 c 0,0 6.5641,133.38516 -105.7947,266.29444 C 445.09318,819.17437 341.66035,863.607 341.66035,863.607 c 0,0 -167.23287,-59.3834 -238.48652,-177.86432 C 31.88078,567.28891 0,424.89025 0,424.89025 L 0.26932,135.28284 131.61073,-3.906245e-6 z" /><path
   style="fill:#ffffff;fill-opacity:1;stroke:#000000;stroke-width:1px;stroke-linecap:butt;stroke-linejoin:miter;stroke-opacity:1"
   d="m 142.13708,704.93209 17.95318,22.53559 98.24101,3.80063 128.52054,-6.86274 94.83066,-29.94654 71.7469,-41.17648 47.478,-52.08531 8.0478,-23.40491 -24.3315,20.58824 -30.7975,23.26003 -68.4004,32.88972 -74.86629,38.68094 c 0,0 -61.14084,12.47772 -66.13193,14.34938 -4.99109,1.87166 -91.08737,7.48663 -95.45457,8.11052 -4.36721,0.62389 -72.37079,0 -76.11411,0 -3.74332,0 -38.03757,-10.80178 -38.03757,-10.80178 z"
   id="path4956"
   inkscape:connector-curvature="0"
   sodipodi:nodetypes="ccccccccccccssscc" /><rect
   style="fill:#ffffff;fill-opacity:1;fill-rule:nonzero;stroke:none"
   id="rect3984"
   width="645.53607"
   height="47.384644"
   x="9.8678265"
   y="215.82497" /><path
   style="fill:#94b845"
   inkscape:connector-curvature="0"
   id="path3397"
   d="m 562.18687,274.035 c -12.235,0.595 -17.999,6.944 -30.196,6.944 -16.319,0 -25.632,-4.604 -41.896,-6.944 0,4.03 -4.621,5.167 -4.621,9.246 0,7.957 13.985,7.957 13.985,16.005 0,9.734 -6.994,14.296 -6.994,24.058 0,11.449 16.266,13.749 16.266,25.219 0,20.598 -4.576,33.138 -13.923,51.493 10.424,1.132 16.252,2.313 26.732,2.313 24.432,0 36.598,-16.582 52.243,-34.388 10.506,-11.978 25.59,-17.701 25.59,-34.34 0,-27.488 -11.639,-59.605 -39.496,-59.605 -21.499,0 -38.337,6.31 -51.146,22.958 l 53.456,-22.959 z" /><path
   style="fill:none;stroke:#3b4a85;stroke-width:0.208;stroke-miterlimit:3.86400008"
   inkscape:connector-curvature="0"
   id="path3399"
   d="m 562.18687,274.035 c -12.235,0.595 -17.999,6.944 -30.196,6.944 -16.319,0 -25.632,-4.604 -41.896,-6.944 0,4.03 -4.621,5.167 -4.621,9.246 0,7.957 13.985,7.957 13.985,16.005 0,9.734 -6.994,14.296 -6.994,24.058 0,11.449 16.266,13.749 16.266,25.219 0,20.598 -4.576,33.138 -13.923,51.493 10.424,1.132 16.252,2.313 26.732,2.313 24.432,0 36.598,-16.582 52.243,-34.388 10.506,-11.978 25.59,-17.701 25.59,-34.34 0,-27.488 -11.639,-59.605 -39.496,-59.605 -21.499,0 -38.337,6.31 -51.146,22.958 l 53.456,-22.959 z"
   stroke-miterlimit="3.864" /><path
   style="fill:#ffffff;fill-opacity:1;stroke:#000000;stroke-width:1px;stroke-linecap:butt;stroke-linejoin:miter;stroke-opacity:1"
   d="m 102.82765,654.37435 22.61588,31.35028 167.82536,-2.49555 104.18898,-8.7344 84.2246,-33.06597 92.9591,-60.51695 61.7647,-51.15866 c 0,0 18.7166,-68.62747 16.8449,-84.84851 -1.8717,-16.22104 -122.9056,58.64529 -122.9056,58.64529 l -261.40824,76.738 z"
   id="path4952"
   inkscape:connector-curvature="0"
   sodipodi:nodetypes="cccccccsccc" /><path
   style="fill:#000000"
   inkscape:connector-curvature="0"
   id="path3409"
   d="m 256.30487,270.91 c 134.372,1.188 270.776,-2.579 398.925,0.559 3.588,62.319 2.992,112.133 -1.966,173.215 -6.51,29.937 -29.87,53.526 -49.698,75.609 -68.457,66.958 -149.076,117.313 -239.46,138.86 -82.956,18.353 -177.745,20.656 -259.281,-2.072 -19.778,-26.438 -35.986,-54.093 -46.035,-84.374 l -16.541,-34.34 c -9.406,-38.978 -23.916,-77.997 -28.354,-120.168 -4.46,-45.963 -6.174,-104.185 -4.18,-146.731 22.477,-1.728 45.777,0.926 68.819,-1.986 l 177.771,1.428 z" /><path
   style="fill:#000000;fill-opacity:1;stroke:none;stroke-width:4.9000001;marker-start:none"
   inkscape:connector-curvature="0"
   id="path4950"
   d="m 612.38787,578.911 c -101.846,91.04 -229.144,137.845 -370.237,139.578 -24.651,2.207 -101.82093,-1.10811 -106.91393,-1.65611 -8.92146,-4.30009 -26.38124,-46.29498 -26.37847,-46.21144 95.678,14.948 234.7674,13.71255 334.0134,-29.05445 57.302,-25.623 103.255,-59.759 150.724,-99.669 15.389,-15.36 42.791,-42.183 54.605,-58.531 1.724,32.50575 -26.101,71.053 -35.813,95.544"
   sodipodi:nodetypes="cccccccc" /><path
   style="fill:#ffffff"
   inkscape:connector-curvature="0"
   id="path3411"
   d="m 629.27387,279.369 c -2.069,3.825 -7.061,8.446 -12.944,8.186 -0.971,0 -2.093,0.569 -2.725,-0.591 2.012,-5.889 10.115,-12.525 15.669,-7.595" /><path
   style="fill:#ffffff"
   inkscape:connector-curvature="0"
   id="path3413"
   d="m 644.65287,281.399 c -2.348,0.557 -4.189,-0.864 -6.203,-1.455 -0.557,-3.761 4.448,-2.872 6.203,-2.055 v 3.51 z" /><path
   style="fill:#2ad4ff"
   inkscape:connector-curvature="0"
   id="path3415"
   d="m 476.05687,279.945 c 2.333,11.353 -13.596,17.164 -3.528,28.537 0.902,1.496 2.016,1.724 3.528,1.496 2.599,-2.39 3.224,-6.426 7.089,-6.985 8.581,0.806 6.664,4.922 12.888,9.611 1.734,-0.327 0.363,3.529 1.188,1.169 1.268,-3.71 2.417,-6.186 3.652,-9.975 5.623,-2.315 14.146,-0.574 15.613,-7.823 7.382,-7.632 17.431,3.5 24.767,-4.103 10.989,-1.707 16.303,17.765 26.305,6.155 -1.161,-4.144 -2.666,-9.685 -7.933,-11.064 -3.909,-2.034 -9.442,-0.941 -9.135,-7.02 7.646,-3.185 16.519,-3.185 24.172,0 -0.337,10.518 5.928,18.333 5.027,28.537 1.466,2.587 0.604,8.131 -3.521,8.438 -13.902,2.014 -25.679,-6.146 -38.424,-6.146 -0.911,8.161 13.292,4.131 14.189,13.123 8.276,16.897 -16.566,23.315 -18.294,36.403 -2.685,0 -3.814,2.875 -4.421,4.919 -3.002,3.174 -9.463,5.801 -10.653,11.085 2.31,1.726 5.302,0.239 7.06,-1.465 21.295,-11.372 28.104,-30.858 48.164,-44.534 h 2.379 l -1.507,16.57 c 7.421,2.953 9.444,-10.711 16.245,-6.989 0.554,6.738 4.747,12.242 0.554,18.388 -4.113,-1.235 -8.208,-7.307 -14.153,-4.459 -3.247,3.224 -9.146,3.837 -9.75,9.36 0.91,5.831 1.454,11.06 -0.882,16.611 -4.409,8.446 -13.271,10.744 -19.755,15.455 -12.111,-3.854 -21.939,7.238 -33.926,1.44 -2.733,0.892 -5.637,3.749 -10.145,2.568 -2.568,-6.385 5.668,-12.485 0.909,-18.073 1.206,-3.406 5.374,-6.646 7.147,-10.407 0,-6.961 -2.975,-9.972 -2.975,-16.955 8.554,-9.834 21.564,-11.561 32.736,-16.548 3.625,-1.765 4.784,-6.072 4.133,-9.012 -2.35,-4.047 -7.604,-4.047 -11.161,-2.897 -10.011,4.122 -13.608,14.864 -26.282,12.513 -9.158,-7.239 -5.736,-20.607 -12.552,-29.053 -2.083,0.296 -9.32,5.436 -9.599,7.488 0.88,2.953 1.705,7.25 -0.617,9.609 -2.664,-0.26 -5.561,-1.707 -7.648,-1.124 -0.886,1.697 -3.301,2.905 -2.398,5.515 2.04,1.19 3.846,2.607 6.521,2.033 1.129,-1.457 3.241,-2.858 5.023,-1.457 1.171,8.169 13.857,6.136 15.623,15.44 -7.321,21.208 -9.351,38.699 -9.351,58.798 l -2.198,2.59 c -24.479,4.083 -49.571,5.502 -72.895,8.438 -13.869,5.571 -28.344,3.488 -43.072,6.961 -13.936,-0.823 -27.186,3.242 -39.049,9.033 -0.247,-1.736 -2.627,-3.78 -0.884,-5.512 4.507,-3.521 10.742,-4.105 14.224,-7.568 -0.824,-4.631 2.302,-12.523 -2.608,-16.302 -13.951,-8.459 -44.031,-4.969 -43.479,-27.92 l 1.495,-4.069 c -5.646,-18.986 4.672,-43.379 -17.144,-53.851 -10.896,-4.066 -24.798,-4.066 -36.019,0 -3.862,-2.016 -1.472,-8.687 -2.067,-11.902 -2.379,-11.707 -13.609,-19.502 -24.791,-23.061 -5.311,-0.557 -9.212,-1.421 -12.752,-2.012 l 9.158,-0.576 167.165,-0.855 0.873,-0.624 c 27.716,1.806 59.379,-0.822 87.741,2.058" /><path
   style="fill:#ffffff"
   inkscape:connector-curvature="0"
   id="path3417"
   d="m 524.18687,279.369 c -2.349,3.155 -7.059,6.155 -12.724,6.98 -4.711,-0.576 -9.492,-1.775 -12.678,-4.393 0,-4.316 6.493,-2.587 10.027,-4.066 5.882,2.646 9.746,-2.282 15.375,1.479" /><path
   style="fill:#2ad4ff;fill-opacity:1"
   inkscape:connector-curvature="0"
   id="path3419"
   d="m 199.09787,279.945 c -25.202,10.518 -51.762,10.518 -77.424,0 22.745,-0.251 49.002,-0.576 72.867,-1.431 1.255,1.431 3.328,0.309 4.557,1.431" /><path
   style="fill:#2ad4ff;fill-opacity:1"
   inkscape:connector-curvature="0"
   id="path3421"
   d="m 101.30787,279.369 c -2.11,2.912 -7.689,2.912 -11.556,4.681 -21.842,9.012 -47.762,-13.428 -69.415,4.294 -0.221,-2.311 -4.42,-2.57 -2.934,-6.387 10.892,-5.773 21.882,-0.258 33.407,-2.012 l 50.498,-0.576 z" /><path
   style="fill:#71c837;fill-opacity:1"
   inkscape:connector-curvature="0"
   id="path3423"
   d="m 597.99287,284.931 c 1.537,4.045 0.261,8.131 -1.477,11.89 -2.349,1.208 -3.24,5.252 -7.075,4.664 1.772,-7.857 -7.682,-15.71 0.816,-22.106 5.06,-1.73 4.811,3.154 7.736,5.552" /><path
   style="fill:#ffdd55"
   inkscape:connector-curvature="0"
   id="path3425"
   d="m 236.56187,296.82 5.6,9.646 c 1.495,17.742 -0.299,36.979 4.49,55.867 l 37.422,25.274 2.074,-2.311 0.613,-48.93 c -1.803,-4.613 -6.827,-6.887 -11.246,-8.976 -9.439,-0.254 -16.562,6.405 -25.434,4.947 -3.795,-8.13 8.016,-6.98 12.735,-8.994 9.396,0 20.662,-1.171 28.968,6.136 7.068,8.056 1.169,18.604 4.975,27.85 2.094,12.827 1.777,27.116 4.155,38.43 l 2.98,2.933 c 12.113,4.066 25.396,5.257 35.978,12.485 0.943,4.144 -2.617,5.872 -5.609,7.011 -3.211,-0.834 -5.608,1.754 -7.111,4.346 -0.243,5.826 2.713,14.593 -4.99,17.51 -5.289,0.582 -10.017,3.759 -14.748,6.039 -19.192,2.934 -36.906,14.019 -55.183,14.844 -5.36,-6.654 -11.804,-13.082 -19.858,-13.941 -14.155,6.406 -28.311,-6.36 -40.41,2.031 -7.689,-6.94 -12.407,-19.493 -23.357,-24.402 -9.427,-5.257 -20.072,0 -27.157,5.532 -5.878,0 -10.336,-5.291 -15.371,-6.445 l -10.596,-0.594 c -8.842,4.163 -17.98,12.591 -17.154,23.878 -6.741,4.985 -15.294,8.407 -17.098,18.066 -11.596,-3.224 -23.415,1.773 -32.487,9.025 -5.908,0.294 -15.077,2.903 -19.227,-2.055 -4.69,-21.229 -7.394,-43.661 -11.19,-62.8 4.947,-6.463 15.975,-2.685 23.34,-2.108 30.424,4.679 63.16,10.241 91.517,13.972 3.3,-7.221 2.389,-18.326 3.549,-27.34 -1.477,-4.083 -5.908,-3.46 -8.591,-5.506 l 0.613,-2.943 c 23.875,-16.882 46.047,-33.168 70.346,-49.468 12.031,-0.574 20.263,12.803 31.853,15.969 4.424,-14.531 0.308,-30.506 0.579,-45.905 -3.225,-5.831 -7.346,-9.609 -12.736,-12.575 -12.092,0.301 -21.835,6.974 -33.343,9.016 -28.612,14.835 -51.972,-2.042 -82.053,3.559 -25.756,13.633 -54.062,2.59 -83.608,6.961 -3.305,-3.779 -3.555,-9.293 -2.386,-13.942 6.81,-5.85 15.095,-5.85 24.261,-7.039 16.149,-2.629 31.249,11.926 46.623,2.654 29.293,-16.637 56.729,8.135 87.453,0.823 17.973,-6.999 43.051,-11.608 60.819,1.47" /><path
   style="fill:#ffffff"
   inkscape:connector-curvature="0"
   id="path3427"
   d="m 648.21087,294.521 v 7.801 c -8.016,-2.031 -13.318,-7.217 -19.811,-11.305 7.401,-6.443 14.174,10e-4 19.811,3.504" /><path
   style="fill:#ffffff"
   inkscape:connector-curvature="0"
   id="path3429"
   d="m 498.78587,296.82 c -3.271,1.765 -7.991,2.33 -11.211,2.091 -1.21,-1.803 -3.597,-4.105 -1.477,-6.416 4.697,10e-4 9.128,1.39 12.688,4.325" /><path
   style="fill:#71c837;fill-opacity:1"
   inkscape:connector-curvature="0"
   id="path3431"
   d="m 615.61687,305.009 c 16.608,-8.189 23.936,9.615 33.476,16.282 -0.585,1.745 0.54,2.917 2.063,3.512 -1.748,6.95 -0.875,15.418 -2.063,22.081 l 0.54,4.913 c -9.715,0.331 -22.134,9.692 -28.319,-2.601 -1.755,-6.043 2.954,-11.315 4.472,-16.858 1.714,-0.251 6.44,5.829 8.223,0 0.885,-7.535 -2.922,-14.268 -9.74,-17.434 -2.054,-1.485 -4.709,-0.279 -6.404,1.401 3.45,4.419 7.922,7.903 7.058,13.174 -5.629,-1.534 -10.427,-2.98 -15.687,-1.225 -3.264,2.931 -5.297,7.247 -3.541,11.64 8.266,8.737 15.62,17.435 11.546,29.458 -19.544,-0.574 -7.453,19.725 -24.845,20.933 -4.728,2.308 -7.376,13.052 -14.194,6.952 0.875,-1.695 0.644,-4.065 0.644,-6.101 -5.053,-2.338 -10.375,-5.56 -7.174,-11.909 5.639,-4.388 8.021,-14.593 17.771,-12.587 1.772,1.504 1.772,5.856 5.627,4.13 7.021,-10.222 8.218,-28.516 0,-40.465 1.715,-7.825 -0.91,-16.886 4.986,-23.839 -2.359,-1.784 -2.359,-5.274 -0.524,-7.554 2.884,-0.634 4.657,-4.645 8.534,-3.562 0.217,4.135 2.364,9.899 7.551,9.659" /><path
   style="fill:#2ad4ff;fill-opacity:1"
   inkscape:connector-curvature="0"
   id="path3433"
   d="m 223.87487,308.482 c 2.054,3.795 2.054,9.895 0,12.81 -15.358,5.845 -25.104,-8.169 -39.907,-4.372 -18.002,5.253 -35.442,11.939 -53.738,4.372 -15.612,1.745 -28.048,13.385 -45.451,9.014 -22.189,-11.047 -42.778,11.352 -64.995,2.607 -1.988,-2.022 -2.379,-4.054 -1.45,-6.998 27.453,-15.152 61.974,9.042 89.17,-11.011 23.609,-3.834 50.21,11.335 71.745,0 14.202,-3.241 23.942,-15.753 40.121,-11.911 l 4.505,5.489 z" /><path
   style="fill:#ffffff"
   inkscape:connector-curvature="0"
   id="path3435"
   d="m 192.51887,328.255 c -2.35,6.117 -11.775,7.247 -16.194,12.539 -16.282,16.246 -38.732,3.473 -58.196,8.403 l -2.647,3.566 c -15.36,8.728 -30.992,-2.1 -45.481,-3.566 -17.71,1.169 -31.288,18.037 -50.199,9.599 -2.396,-3.742 -1.994,-8.132 -1.468,-11.919 l 2.675,-2.025 c 25.336,4.969 48.992,-15.371 72.303,-2.042 16.292,0.636 32.525,-15.418 48.138,-5.542 19.504,4.389 33.349,-13.713 51.069,-9.013" /><path
   style="fill:#ffffff"
   inkscape:connector-curvature="0"
   id="path3437"
   d="m 226.48387,334.372 -0.556,2.895 c -2.936,-1.438 -10.04,-2.59 -7.7,-6.97 3.26,-0.001 8.869,-0.826 8.256,4.075" /><path
   style="fill:#2ad4ff;fill-opacity:1"
   inkscape:connector-curvature="0"
   id="path3439"
   d="m 278.49687,342.809 c -1.793,9.953 0,21 -1.469,30.817 -9.148,-4.274 -19.831,-11.294 -26.936,-18.889 2.779,-4.926 -3.222,-12.496 4.757,-13.416 8.868,0.921 21.24,-15.42 23.648,1.488" /><path
   style="fill:#67825e"
   inkscape:connector-curvature="0"
   id="path3441"
   d="m 527.08187,356.822 c 0.318,3.478 -3.845,4.879 -7.049,3.976 -1.466,0 -3.25,0.692 -4.15,-0.499 0.604,-4.352 7.354,-6.484 11.199,-3.477" /><path
   style="fill:#2ad4ff;fill-opacity:1"
   inkscape:connector-curvature="0"
   id="path3443"
   d="m 142.92587,360.798 c -1.152,4.411 -6.771,7.346 -10.647,9.985 -7.947,8.773 -20.941,10.402 -26.235,22.389 5.294,5.512 16.246,0.307 20.022,7.01 -1.455,2.865 0.318,10.136 -4.959,10.996 -23.598,-6.059 -47.299,-7.524 -70.296,-12.494 -3.489,0 -4.142,5.554 -7.689,3.499 -4.401,-11.047 -21.25,-0.864 -24.223,-13.944 0.884,-4.38 -1.782,-12.788 2.108,-15.992 22.44,1.977 38.635,-12.526 59.615,-11.449 10.329,4.411 25.421,3.54 37.506,3.54 6.483,-7.299 17.126,-3.214 24.798,-3.54" /><path
   style="fill:#71c837;fill-opacity:1"
   inkscape:connector-curvature="0"
   id="path3445"
   d="m 642.57387,401.56 c 6.834,3.808 5.081,13.419 4.41,20.168 -4.086,1.964 -4.41,-4.374 -8.534,-4.155 -3.549,2.053 -7.067,-0.524 -10.05,-2.042 0.605,-6.078 2.357,-13.598 -1.469,-19.762 -3.221,-0.238 -5.916,1.814 -7.64,2.923 -4.163,-2.355 -0.972,-7.315 -2.975,-10.453 2.656,-7.063 2.656,-18.083 12.964,-18.887 11.79,3.473 12.141,20.925 13.294,32.208" /><path
   style="fill:#ffffff"
   inkscape:connector-curvature="0"
   id="path3447"
   d="m 612.15587,409.8 c -3.863,6.634 -7.036,13.635 -14.757,16.834 -2.628,-0.279 -5.581,-0.917 -7.142,-3.527 1.561,-5.745 1.561,-13.886 7.735,-16.858 4.751,-2.912 12.159,-0.881 14.164,3.551" /><path
   style="fill:#ffffff"
   inkscape:connector-curvature="0"
   id="path3449"
   d="m 555.49187,415.532 c 1.451,4.103 -2.327,7.903 -5.001,11.103 -4.164,2.324 -8.605,4.357 -14.212,3.512 -6.781,-2.667 -3.549,-10.511 -8.565,-14.614 5.575,-3.74 12.41,-4.008 17.74,-7.823 5.334,-0.586 10.038,2.614 10.038,7.822" /><path
   style="fill:#ffffff"
   inkscape:connector-curvature="0"
   id="path3451"
   d="m 579.68987,419.635 c -1.183,4.703 -5.899,7 -9.506,9.882 -3.787,0.898 -7.63,-1.412 -8.255,-4.913 0.338,-3.739 1.178,-8.457 5.618,-9.072 4.431,0 10.653,-0.845 12.143,4.103" /><path
   style="fill:#ffdd55;fill-opacity:1"
   inkscape:connector-curvature="0"
   id="path3453"
   d="m 518.56687,419.06 c -0.335,0.574 1.18,4.047 -1.438,4.641 -4.133,1.766 -4.525,-3.759 -7.094,-4.641 0,-4.631 7.945,-3.518 8.532,0" /><path
   style="fill:#ffffff"
   inkscape:connector-curvature="0"
   id="path3455"
   d="m 627.84287,423.107 c 0,4.163 -2.059,8.784 -6.53,9.917 -3.853,-0.883 -8.831,1.746 -11.162,-2.321 2.331,-4.978 5.218,-11.335 9.708,-14.557 5.926,-2.013 7.072,3.222 7.984,6.961" /><path
   style="fill:#ffdd55;fill-opacity:1"
   inkscape:connector-curvature="0"
   id="path3457"
   d="m 503.75187,423.701 c -2.34,2.342 -7.086,1.773 -9.964,0.913 -1.801,-1.794 -5.655,-3.204 -7.076,-6.426 2.927,-1.139 7.278,-2.657 9.954,0 0.883,2.33 5.305,3.791 7.086,5.513" /><path
   style="fill:#ffdd55;fill-opacity:1"
   inkscape:connector-curvature="0"
   id="path3459"
   d="m 481.06487,425.141 c -3.55,1.208 -7.105,4.375 -11.237,2.129 0,-4.163 -4.729,-2.416 -6.493,-4.748 4.458,-3.462 15.321,-3.462 17.73,2.619" /><path
   style="fill:#ffdd55;fill-opacity:1"
   inkscape:connector-curvature="0"
   id="path3461"
   d="m 461.27387,428.113 v 2.033 c -4.481,-1.786 -7.156,3.76 -10.609,0 -0.937,-2.667 -5.022,-3.512 -1.502,-6.445 4.133,1.154 9.751,0.636 12.111,4.412" /><path
   style="fill:#ffdd55;fill-opacity:1"
   inkscape:connector-curvature="0"
   id="path3463"
   d="m 432.96587,433.024 0.516,2.666 c -4.956,1.975 -11.812,1.429 -15.659,-1.477 l -5.579,-6.099 c 6.805,-2.647 14.719,0.833 20.722,4.91" /><path
   style="fill:#71c837"
   inkscape:connector-curvature="0"
   id="path3465"
   d="m 173.37987,439.141 c 1.178,4.412 3.508,8.208 3.508,12.474 -0.901,4.444 -7.979,7.029 -5.675,11.999 1.569,4.372 6.298,3.701 9.176,5.482 4.21,-1.111 10.347,-2.003 10.662,-7.557 4.171,-4.945 9.791,-5.792 15.659,-6.385 8.88,-1.152 16.273,11.046 23.359,3.49 4.641,-0.861 8.813,1.748 10.018,5.85 3.858,8.688 -5.932,20.042 8.578,22.956 2.942,0.576 5.637,1.427 7.648,4.105 -4.898,15.371 15.01,23.003 9.167,38.415 h 0.863 c 0,3.221 -0.526,8.397 -3.527,10.441 -5.974,4.938 -19.773,1.141 -19.16,13.97 -6.5,12.792 -23.388,6.387 -31.298,15.967 -11.517,4.669 -19.84,-4.305 -28.988,-6.069 -2.627,-2.322 -1.436,-4.413 -0.603,-7.02 2.989,-2.299 2.989,-6.368 2.695,-8.955 -2.093,-4.43 -8.872,-2.954 -12.681,-2.36 -4.466,5.554 -7.689,9.915 -14.821,10.462 -12.945,2.925 -28.674,-15.085 -38.971,2.34 -4.374,-2.022 -8.804,-6.08 -14.155,-3.499 -3.527,2.011 -4.715,7.629 -8.612,9.031 -3.202,-10.463 -20.038,-10.167 -18.581,-22.421 2.98,-0.538 7.729,-0.859 7.978,-4.969 0,-4.657 -2.587,-8.377 -5.543,-11.907 -7.679,-3.784 -12.175,4.402 -19.216,3.529 -4.141,-6.388 -9.166,-14.288 -7.097,-21.584 3.789,-1.736 5.878,-6.398 5.025,-9.839 -2.397,-5.532 -4.419,-12.246 -2.973,-18.083 2.359,-4.066 7.979,-6.396 13.598,-6.396 6.771,0.574 11.814,4.965 18.873,4.372 3.854,-5.524 -1.765,-12.485 5.941,-16.867 4.95,0.573 10.302,-2.621 11.213,-7.565 -2.368,-2.667 -1.562,-7.574 -0.606,-10.471 5.352,-6.676 13.293,-10.185 22.479,-8.461 8.243,-0.851 13.854,11.949 21.21,4.049 1.801,-3.759 6.232,-3.452 9.437,-5.524 5.715,1.474 11.823,2.628 15.42,7" /><path
   style="fill:#ffdd55;fill-opacity:1"
   inkscape:connector-curvature="0"
   id="path3467"
   d="m 410.80587,437.127 c -1.546,5.524 -7.407,0.912 -10.682,2.917 -9.984,3.202 -22.729,-2.005 -27.369,9.54 -17.146,0.621 -31.939,4.418 -49.105,7.011 -4.104,-0.847 -7.642,-3.74 -12.716,-2.592 -2.685,-5.829 5.667,-5.244 8.611,-7.017 l 30.416,-1.421 2.016,-2.011 c -1.197,-4.412 -6.77,-2.121 -9.753,-3.509 v -2.917 c 22.477,-5.236 45.233,-5.236 68.582,-10e-4" /><path
   style="fill:#ffffff"
   inkscape:connector-curvature="0"
   id="path3469"
   d="m 571.08687,446.083 c 1.782,5.888 -5.304,8.803 -8.532,11.41 -5.611,-0.632 -12.063,-1.745 -14.107,-7.919 0.834,-5.18 0,-8.688 4.035,-12.446 6.54,0.257 16.849,1.725 18.604,8.955" /><path
   style="fill:#ffffff"
   inkscape:connector-curvature="0"
   id="path3471"
   d="m 599.52987,442.077 c 0,4.006 -3.587,6.94 -7.136,7.507 -5.313,0.621 -9.445,-2.878 -12.1,-6.933 -0.282,-3.798 3.826,-4.986 6.46,-6.117 5.333,-1.133 10.645,1.13 12.776,5.543" /><path
   style="fill:#ffdd55;fill-opacity:1"
   inkscape:connector-curvature="0"
   id="path3473"
   d="m 486.09787,442.651 c 1.161,5.753 -2.12,10.204 -5.033,13.409 -10.039,5.491 -22.708,0.801 -33.948,1.433 -4.764,-2.607 -8.877,-8.476 -7.074,-13.931 9.126,-3.251 21.231,-5.263 30.983,-6.443 5.031,1.723 13.565,-1.43 15.072,5.532" /><path
   style="fill:#ffdd55;fill-opacity:1"
   inkscape:connector-curvature="0"
   id="path3475"
   d="m 538.37787,447.618 c 2.292,1.956 2.292,6.963 0,8.977 -13.872,9.357 -29.858,-1.43 -46.027,0 -3.085,-2.321 -3.317,-6.39 -2.188,-9.609 2.188,-3.74 3.819,-7.845 8.623,-9.331 14.21,1.187 27.432,4.422 39.592,9.963" /><path
   style="fill:#ffffff"
   inkscape:connector-curvature="0"
   id="path3477"
   d="m 636.38587,446.083 c -1.494,3.49 -4.676,2.665 -7.105,0.903 -2.35,-2.592 -0.621,-4.909 0,-7.845 4.72,-3.452 10.277,1.485 7.105,6.942" /><path
   style="fill:#ffdd55;fill-opacity:1"
   inkscape:connector-curvature="0"
   id="path3479"
   d="m 435.56387,453.085 c 0.546,1.81 1.178,3.51 0.893,5.56 -13.31,6.695 -30.703,9.571 -44.609,2.291 -2.042,-3.152 -5.291,-4.631 -2.923,-8.388 12.38,-3.789 24.469,-8.745 38.978,-7.853 l 7.661,8.39 z" /><path
   style="fill:#ffffff"
   inkscape:connector-curvature="0"
   id="path3481"
   d="m 619.29187,454.58 c -0.615,5.214 1.15,8.756 -1.429,13.405 -3.07,2.005 -4.529,6.635 -9.208,6.08 -5.925,-7.232 -0.939,-14.537 -1.534,-22.958 3.03,-6.146 11.199,-0.902 12.171,3.473" /><path
   style="fill:#000000"
   inkscape:connector-curvature="0"
   id="path3483"
   d="m 147.91087,462.135 c -0.584,6.08 -0.807,13.998 -7.624,15.429 -6.808,1.429 -15.676,1.429 -17.086,-7.009 1.41,-5.811 4.392,-11.027 10.613,-13.953 4.958,-1.209 14.097,-1.428 14.097,5.533" /><path
   style="fill:#71c837;fill-opacity:1"
   inkscape:connector-curvature="0"
   id="path3485"
   d="m 330.18887,460.102 c -0.689,4.95 -7.152,4.95 -11.546,5.532 -1.495,-1.139 -5.601,0.327 -5.601,-2.617 5.294,-2.331 11.212,-6.414 17.147,-2.915" /><path
   style="fill:#ffdd55;fill-opacity:1"
   inkscape:connector-curvature="0"
   id="path3487"
   d="m 396.59387,468.541 c -7.986,11.372 -22.755,12.494 -35.425,15.418 -2.921,1.139 -9.441,2.339 -13.31,0 1.192,-12.792 14.512,-19.794 24.902,-24.432 9.048,0.001 17.631,3.165 23.833,9.014" /><path
   style="fill:#ffffff"
   inkscape:connector-curvature="0"
   id="path3489"
   d="m 597.39887,467.093 c -1.468,2.897 -3.241,6.089 -6.503,7.845 -7.075,0.621 -11.206,-5.268 -14.135,-9.886 4.066,-4.681 20.319,-6.981 20.638,2.041" /><path
   style="fill:#71c837;fill-opacity:1"
   inkscape:connector-curvature="0"
   id="path3491"
   d="m 286.15787,465.628 c -2.084,6.711 -10.903,5.532 -15.65,10.501 -5.3,1.427 -11.795,3.784 -16.858,0.851 l -2.233,-2.034 c 9.072,-4.044 20.798,-5.839 29.181,-11.919 2.319,-0.335 5.798,-0.335 5.56,2.601" /><path
   style="fill:#000000"
   inkscape:connector-curvature="0"
   id="path3493"
   d="m 215.89587,465.628 c 1.229,2.598 -1.438,2.598 -2.626,3.479 -1.806,0 -3.911,-0.239 -2.962,-2.599 l 1.398,-2.895 c 1.199,1.439 3.635,10e-4 4.19,2.015" /><path
   style="fill:#ffdd55;fill-opacity:1"
   inkscape:connector-curvature="0"
   id="path3495"
   d="m 543.32787,488.026 c -0.262,3.519 -5.582,2.616 -7.049,0.865 -0.644,-10.706 -5.315,-16.562 1.467,-25.277 10.319,1.726 3.826,16.282 5.582,24.412" /><path
   style="fill:#ff0000"
   inkscape:connector-curvature="0"
   id="path3497"
   d="m 136.72987,471.456 -1.477,-2.36 -1.439,2.36 c -3.307,-2.016 3.511,-3.817 4.112,-6.961 1.125,2.014 -1.445,4.046 -1.196,6.961" /><path
   style="fill:#71c837;fill-opacity:1"
   inkscape:connector-curvature="0"
   id="path3499"
   d="m 347.85087,464.495 c -1.12,4.047 -4.103,6.673 -7.979,10.443 -2.617,-0.567 -6.443,1.195 -8.246,-1.448 3.512,-4.383 9.438,-8.995 16.225,-8.995" /><path
   style="fill:#ffdd55;fill-opacity:1"
   inkscape:connector-curvature="0"
   id="path3501"
   d="m 505.27887,469.107 c 1.474,-1.468 4.983,-2.906 7.717,-1.122 -0.921,1.685 1.459,1.685 2.023,2.57 1.454,-1.115 3.539,-1.448 5.6,-1.448 l 3.021,5.839 c 0.866,-3.49 4.978,-4.391 7.614,-2.933 l -0.613,15.438 h -6.453 c 0.318,-1.161 -0.938,-1.459 -1.228,-2.022 -2.341,-0.338 -3.213,2.329 -5.831,1.16 -5.054,-2.304 1.975,-9.033 -3.606,-10.46 -0.919,4.627 -1.188,16 -9.771,10.46 0.402,-1.16 -0.554,-1.747 -1.438,-2.629 0.299,4.67 -5.907,5.829 -9.178,4.066 -4.103,-6.102 -0.774,-12.467 -2.973,-19.485 1.564,-4.038 5.65,-0.902 8.047,-2.914 5.302,-1.727 3.488,16.051 7.069,3.48" /><path
   style="fill:#ffdd55;fill-opacity:1"
   inkscape:connector-curvature="0"
   id="path3503"
   d="m 472.53987,470.556 c -0.662,6.414 1.736,13.961 -2.108,18.906 -4.748,1.806 -6.227,-2.607 -5.643,-6.394 -1.463,-6.396 -0.878,-11.055 2.027,-16.56 2.187,0.585 5.944,0.807 5.724,4.048" /><path
   style="fill:#ffdd55;fill-opacity:1"
   inkscape:connector-curvature="0"
   id="path3505"
   d="m 483.14587,469.107 c -2.666,6.452 6.119,19.784 -5.025,20.368 -3.249,-2.341 0.27,-4.958 0,-7.551 -0.605,-4.945 -2.063,-11.608 1.516,-15.416 1.698,-0.556 3.162,1.477 3.509,2.599" /><path
   style="fill:#71c837;fill-opacity:1"
   inkscape:connector-curvature="0"
   id="path3507"
   d="m 310.39687,468.541 c -0.613,6.396 -9.187,7.018 -13.078,10.452 -14.961,-3.78 -17.385,20.396 -30.975,9.898 v -2.302 c 11.29,-9.917 26.037,-11.651 38.061,-19.496 2.11,0.546 4.803,-1.141 5.992,1.448" /><path
   style="fill:#ffffff"
   inkscape:connector-curvature="0"
   id="path3509"
   d="m 577.30787,487.451 c -0.278,5.523 -6.529,3.48 -9.761,4.948 -5.28,-0.256 -9.991,-2.616 -13.588,-5.81 -2.653,-4.67 -4.111,-11.375 -1.478,-16.59 3.818,-3.49 8.535,-2.684 13.071,-0.903 4.995,5.275 9.322,11.66 11.756,18.355" /><path
   style="fill:#ffdd55;fill-opacity:1"
   inkscape:connector-curvature="0"
   id="path3511"
   d="m 449.16887,472.013 v 9.912 c -6.815,2.601 -3.82,-6.711 -5.626,-9.912 l 0.611,-3.472 c 1.746,0.575 4.405,1.14 5.015,3.472" /><path
   style="fill:#ffdd55;fill-opacity:1"
   inkscape:connector-curvature="0"
   id="path3513"
   d="m 459.81387,485.417 c -1.195,0.881 -3.565,0.881 -4.17,-0.881 -0.298,-4.374 -5.916,-11.047 -0.883,-15.995 11.221,-0.547 2.388,11.622 5.053,16.876" /><path
   style="fill:#ffdd55;fill-opacity:1"
   inkscape:connector-curvature="0"
   id="path3515"
   d="m 440.05187,481.925 c -1.188,1.154 -3.311,0.232 -5.056,0.581 -3.26,-2.927 -1.751,-7.559 -2.951,-11.049 1.805,-0.894 2.951,-2.016 5.004,-1.457 4.127,3.496 0.885,7.564 3.003,11.925" /><path
   style="fill:#ffdd55;fill-opacity:1"
   inkscape:connector-curvature="0"
   id="path3517"
   d="m 429.37887,476.133 c -1.153,4.348 2.657,8.958 -3.576,9.858 l -6.463,-1.465 c -1.775,2.62 -4.709,7.019 -8.533,4.365 -2.668,-3.474 -3.588,-8.41 -2.092,-12.758 1.726,-2.068 6.174,-2.068 7.997,0 l 1.111,1.431 c 0.625,-5.551 10.079,-7.26 11.556,-1.431" /><path
   style="fill:#000000"
   inkscape:connector-curvature="0"
   id="path3519"
   d="m 217.33387,480.489 c -2.662,9.601 10.972,14.505 5.075,23.571 -3.845,2.867 -7.95,6.366 -12.726,4.936 -4.496,-2.329 -5.956,-6.138 -6.493,-9.606 l 0.872,-0.892 -8.588,-6.099 c 0,-6.635 -0.252,-14.826 7.132,-17.452 4.431,-3.261 13.598,-0.576 14.728,5.542" /><path
   style="fill:#000000"
   inkscape:connector-curvature="0"
   id="path3521"
   d="m 116.65787,480.489 c -2.414,11.909 12.095,10.441 14.164,20.04 -0.9,4.933 -2.934,10.202 -7.621,11.93 -4.496,0.853 -8.008,1.775 -12.149,-0.518 -1.21,-10.509 -13.263,-10.222 -16.284,-19.542 1.229,-4.948 -0.306,-10.721 5.035,-13.961 4.459,-2.032 12.686,-2.879 16.855,2.051" /><path
   style="fill:#71c837;fill-opacity:1"
   inkscape:connector-curvature="0"
   id="path3523"
   d="m 329.29087,478.437 c 0.197,4.642 -3.877,3.72 -7.129,5.534 -2.616,0 -7.38,0.324 -9.119,-2.927 2.016,-2.858 6.19,-4.638 9.994,-4.911 1.831,1.44 4.745,0 6.254,2.304" /><polygon
   style="fill:#534741"
   id="polygon3527"
   points="1053.076,623.909 1053.076,625.925 1052.538,622.987 "
   transform="translate(-550.22513,-143.42)" /><path
   style="fill:#71c837;fill-opacity:1"
   inkscape:connector-curvature="0"
   id="path3529"
   d="m 50.19687,487.451 c -2.347,3.48 -6.749,5.523 -11.477,4.948 -1.468,-3.194 -3.558,-5.81 -2.674,-9.893 4.754,-2.603 13.518,-2.017 14.151,4.945" /><path
   style="fill:#ffdd55;fill-opacity:1"
   inkscape:connector-curvature="0"
   id="path3531"
   d="m 406.63287,488.891 c 0.585,3.238 -2.042,6.099 -5.053,6.98 -5.907,2.031 -5.907,-3.473 -8.551,-6.396 0,-3.723 2.98,-7.318 6.526,-7.551 4.722,-1.168 5.613,4.067 7.078,6.967" /><path
   style="fill:#ffffff"
   inkscape:connector-curvature="0"
   id="path3533"
   d="m 210.30787,484.526 c -1.545,0 -4.488,0.316 -3.606,-2.031 h 3.606 v 2.031 z" /><path
   style="fill:#ffffff"
   inkscape:connector-curvature="0"
   id="path3535"
   d="m 604.47487,492.398 c -2.591,7.31 -2.956,18.333 -10.596,22.958 -5.896,0 -11.277,-4.066 -13.599,-8.997 2.321,-9.261 6.167,-19.504 16.235,-23.28 6.445,-1.41 5.891,5.812 7.96,9.319" /><path
   style="fill:#ff0000"
   inkscape:connector-curvature="0"
   id="path3537"
   d="m 111.05087,487.451 c 2.051,3.828 -3.26,4.692 -5.609,4.105 l -3.617,-3.518 c 0.356,-3.501 7.462,-5.533 9.226,-0.587" /><path
   style="fill:#71c837;fill-opacity:1"
   inkscape:connector-curvature="0"
   id="path3539"
   d="m 309.44887,488.026 c -1.42,3.796 -4.401,2.053 -7.039,2.053 -0.892,0.277 -1.495,-0.882 -2.098,-1.188 1.535,-2.601 8.255,-4.606 9.137,-0.865" /><path
   style="fill:#71c837;fill-opacity:1"
   inkscape:connector-curvature="0"
   id="path3541"
   d="m 332.21187,488.891 c -5.312,4.945 -0.284,19.512 -12.677,18.64 -1.792,0.593 -3.861,-0.329 -4.477,-2.069 0.615,-6.964 14.441,-6.332 11.555,-15.382 0.881,-2.629 3.797,-2.313 5.599,-1.189" /><path
   style="fill:#000000"
   inkscape:connector-curvature="0"
   id="path3543"
   d="m 178.40287,500.539 c -0.315,7.299 4.681,16.349 -4.103,20.357 -9.839,1.227 -16.033,-7.593 -22.83,-11.887 -3.56,-5.238 -3.56,-12.498 0.604,-17.465 9.762,-7.259 23.03,0.854 26.329,8.995" /><path
   style="fill:#ffdd55;fill-opacity:1"
   inkscape:connector-curvature="0"
   id="path3545"
   d="m 383.90587,492.974 c 2.017,2.897 5.899,5.831 3.551,9.878 -6.214,5.56 -13.261,9.089 -21.279,10.452 -9.185,-1.691 -16.5,-7.854 -23.953,-13.925 -1.16,-6.146 5.9,-7.556 9.76,-9.299 10.387,0 23.618,-3.225 31.921,2.894" /><path
   style="fill:#ffdd55;fill-opacity:1"
   inkscape:connector-curvature="0"
   id="path3547"
   d="m 435.56387,501.432 c -1.446,1.149 -3.238,1.427 -5.601,1.427 -2.637,-1.683 -0.86,-5.253 -1.438,-7.864 2.311,0.883 2.577,-2.596 4.956,-1.386 2.976,1.706 0.369,5.532 2.083,7.823" /><path
   style="fill:#ffdd55;fill-opacity:1"
   inkscape:connector-curvature="0"
   id="path3549"
   d="m 444.15387,501.432 v 1.427 c -4.439,1.449 -4.102,-2.615 -5.023,-4.956 l 1.461,-4.294 c 4.41,0.555 2.402,6.099 3.562,7.823" /><path
   style="fill:#ffdd55;fill-opacity:1"
   inkscape:connector-curvature="0"
   id="path3551"
   d="m 452.71587,499.378 c 0,2.053 0.57,4.047 -2.052,4.047 -1.81,0.882 -2.388,-1.399 -3.555,-1.994 v -7 c 3.221,-1.457 5.607,2.322 5.607,4.947" /><path
   style="fill:#ff0000"
   inkscape:connector-curvature="0"
   id="path3553"
   d="m 218.21687,497.902 c -0.884,1.476 -1.514,2.934 -2.876,4.124 -2.437,-0.861 -9.521,0 -6.578,-4.928 2.36,-3.866 7.133,-1.448 9.454,0.804" /><path
   style="fill:#71c837;fill-opacity:1"
   inkscape:connector-curvature="0"
   id="path3555"
   d="m 295.33287,497.902 c 0.54,3.826 -3.884,4.124 -6.234,4.95 -5.626,0.92 -10.018,0.92 -15.657,0 2.405,-3.474 8.535,-4.643 12.717,-6.981 3.219,0.641 8.514,-2.897 9.174,2.031" /><path
   style="fill:#ffdd55;fill-opacity:1"
   inkscape:connector-curvature="0"
   id="path3557"
   d="m 421.40887,500.539 c -1.733,2.042 0.887,5.553 -2.069,6.991 -2.639,1.479 -4.459,4.939 -8.533,3.469 -3.884,-1.99 -1.229,-6.94 -2.083,-10.46 1.44,-4.027 12.685,-8.717 12.685,0" /><path
   style="fill:#ffdd55;fill-opacity:1"
   inkscape:connector-curvature="0"
   id="path3559"
   d="m 488.13187,497.099 c 0.326,3.441 -2.659,5.482 -5.604,3.441 l -1.464,-1.161 c 1.13,-1.774 4.699,-5.771 7.068,-2.28" /><path
   style="fill:#ff0000"
   inkscape:connector-curvature="0"
   id="path3561"
   d="m 161.56387,504.06 c -1.205,0.565 -2.395,1.122 -3.603,0.844 0,-3.176 -1.112,-6.695 2.666,-8.393 3.319,2.867 0.001,4.028 0.937,7.549" /><path
   style="fill:#71c837;fill-opacity:1"
   inkscape:connector-curvature="0"
   id="path3563"
   d="m 311.57387,496.524 c 1.155,4.322 -6.213,2.854 -7.679,6.334 -1.485,-0.277 -3.269,0.567 -4.142,-0.832 3.231,-2.062 6.751,-6.711 11.821,-5.502" /><path
   style="fill:#ffdd55;fill-opacity:1"
   inkscape:connector-curvature="0"
   id="path3565"
   d="m 530.63987,499.955 c 0.613,3.817 -3.559,3.205 -5.658,4.105 -2.022,-1.479 -4.105,-3.817 -2.022,-6.158 2.667,-1.39 6.529,-2.031 7.68,2.053" /><path
   style="fill:#ff0000"
   inkscape:connector-curvature="0"
   id="path3567"
   d="m 121.67387,498.497 c 0.615,4.361 -2.684,3.808 -3.546,7.862 l -4.096,2.035 c -3.826,-2.592 -2.12,-6.378 -0.948,-9.016 2.397,-3.257 5.608,-2.013 8.59,-0.881" /><path
   style="fill:#71c837;fill-opacity:1"
   inkscape:connector-curvature="0"
   id="path3569"
   d="m 47.32187,499.955 c 0,2.626 -1.87,5.236 -4.183,6.396 -2.666,0.584 -5.636,-0.89 -5.636,-3.499 -0.881,-4.047 3.585,-3.474 5.636,-4.95 1.996,-0.803 2.313,2.053 4.183,2.053" /><path
   style="fill:#ffdd55;fill-opacity:1"
   inkscape:connector-curvature="0"
   id="path3571"
   d="m 500.28287,499.955 c 0.237,0.881 -0.865,1.466 -1.497,2.072 h -2.973 c 0.584,-1.487 -1.227,-4.124 1.475,-4.124 2.13,-0.538 2.341,0.605 2.995,2.052" /><path
   style="fill:#ffdd55;fill-opacity:1"
   inkscape:connector-curvature="0"
   id="path3575"
   d="m 406.63287,506.359 c -1.177,5.253 -0.269,11.354 -5.053,15.169 l -6.148,-0.639 c 1.759,3.237 0.578,5.81 0,9.068 -1.79,3.234 -5.292,2.927 -7.976,2.927 0.871,3.451 4.987,7.533 1.468,10.978 -1.21,1.496 -3.235,0.621 -5.019,0.929 -3.854,-3.239 -6.8,-7.574 -5.599,-11.906 0.558,-2.053 1.745,-3.205 3.502,-3.49 3.614,-1.21 2.979,2.836 5.647,3.49 1.151,-6.501 -6.205,-15.748 3.499,-19.014 l 4.477,2.106 c 1.458,-4.044 -1.245,-13.402 7.081,-13.951 2.394,0.269 3.853,1.737 4.121,4.333" /><path
   style="fill:#ff0000"
   inkscape:connector-curvature="0"
   id="path3577"
   d="m 175.72887,506.935 c -1.429,3.205 -4.747,5.005 -8.583,4.064 -1.746,-1.15 -2.685,-2.597 -2.053,-4.649 2.631,-2.578 8.287,-4.622 10.636,0.585" /><path
   style="fill:#ffdd55;fill-opacity:1"
   inkscape:connector-curvature="0"
   id="path3579"
   d="m 444.15387,510.426 c -3.563,7.883 -9.451,16.282 -14.19,24.473 -8.86,-1.468 -17.72,-3.529 -25.372,-7.55 5.283,-11.67 19.784,-18.646 31.865,-18.954 2.673,0.601 6.787,-1.728 7.697,2.031" /><path
   style="fill:#ffdd55;fill-opacity:1"
   inkscape:connector-curvature="0"
   id="path3581"
   d="m 511.45087,513.858 c 3.232,6.174 2.668,15.208 3.004,22.478 -4.434,5.206 -12.743,1.141 -18.642,3.462 -15.008,-0.836 -35.747,2.347 -50.812,-2.91 -4.949,-10.181 5.328,-19.501 11.247,-27.879 18.028,0.574 37.742,1.131 55.203,4.849" /><path
   style="fill:#71c837;fill-opacity:1"
   inkscape:connector-curvature="0"
   id="path3583"
   d="m 292.68687,511 c -5.061,2.052 -9.486,10.52 -15.648,4.343 0.583,-3.731 4.658,-4.929 7.68,-6.333 2.627,0.573 6.422,-1.479 7.968,1.99" /><path
   style="fill:#71c837;fill-opacity:1"
   inkscape:connector-curvature="0"
   id="path3585"
   d="m 312.44887,513.858 c -2.665,3.03 -6.757,3.529 -10.039,1.485 -0.898,-4.929 4.095,-3.172 6.472,-5.494 2.398,0.565 4.431,0.565 3.567,4.009" /><path
   style="fill:#ffdd55;fill-opacity:1"
   inkscape:connector-curvature="0"
   id="path3587"
   d="m 581.75887,523.869 c 0.336,2.035 2.655,4.027 0.586,6.102 -15.336,6.634 -34.865,4.044 -51.705,7.862 -2.927,-7.307 -5.658,-15.44 -5.658,-23.283 l 2.1,-2.091 c 13.042,2.646 26.878,-1.466 40.466,-2.033 5.071,3.808 8.622,11.103 14.211,13.443" /><path
   style="fill:#71c837;fill-opacity:1"
   inkscape:connector-curvature="0"
   id="path3589"
   d="m 48.10787,511 c 0.634,3.224 2.089,6.137 -1.438,8.403 -2.667,-0.825 -2.34,-2.266 -4.421,-4.06 -1.449,-4.054 3.203,-4.612 5.859,-4.343" /><path
   style="fill:#71c837;fill-opacity:1"
   inkscape:connector-curvature="0"
   id="path3591"
   d="m 328.06087,511.941 c 1.229,4.044 -3.521,5.196 -7.066,5.455 -0.559,-1.159 -2.063,-0.258 -1.449,-2.04 0.546,-2.313 4.708,-4.363 8.515,-3.415" /><path
   style="fill:#ffdd55;fill-opacity:1"
   inkscape:connector-curvature="0"
   id="path3593"
   d="m 362.09987,522.988 c 2.601,5.764 -5.107,10.204 -2.1,15.964 -1.752,5.532 -2.128,11.354 -8.017,14.876 -3.859,-0.262 -8.235,0.802 -10.582,-3.522 -2.421,-10.145 -1.529,-21.555 -0.586,-32.919 6.195,-8.377 14.795,2.332 21.285,5.601" /><path
   style="fill:#000000"
   inkscape:connector-curvature="0"
   id="path3595"
   d="m 147.91087,523.869 c -0.807,4.642 -1.122,10.761 -7.04,12.467 -2.952,2.042 -8.839,2.319 -11.238,-0.881 -5.637,-2.934 -4.782,-10.482 -3.566,-14.565 0.653,-8.708 9.188,-6.11 14.221,-5.534 l 7.623,8.513 z" /><path
   style="fill:#ffdd55;fill-opacity:1"
   inkscape:connector-curvature="0"
   id="path3597"
   d="m 377.74187,518.902 c -0.636,1.13 -2.139,0.247 -2.931,0.509 l 0.532,-2.016 c 0.824,0 2.399,0.626 2.399,1.507" /><path
   style="fill:#000000"
   inkscape:connector-curvature="0"
   id="path3599"
   d="m 213.26987,524.426 c 2.32,3.185 1.401,8.459 0.508,11.911 -3.48,3.452 -10.575,3.452 -14.68,1.496 -4.557,-0.346 -3.311,-5.831 -6.589,-7.011 2.032,-3.211 1.833,-8.18 5.619,-9.293 -0.565,-1.81 2.101,-1.81 3.003,-2.635 4.677,0.255 10.333,0.825 12.139,5.532" /><path
   style="fill:#71c837;fill-opacity:1"
   inkscape:connector-curvature="0"
   id="path3601"
   d="m 293.26287,522.393 c 0.25,0.885 -0.576,2.291 0.574,2.589 -3.809,2.36 -8.342,4.084 -13.252,4.413 0.836,-4.413 6.751,-10.493 12.678,-7.002" /><path
   style="fill:#ffdd55;fill-opacity:1"
   inkscape:connector-curvature="0"
   id="path3603"
   d="m 376.17687,526.384 c 0,5.293 0.28,8.781 -2.98,11.994 -0.862,2.609 -3.778,0.903 -5.534,1.41 -6.493,-4.008 0,-9.817 0,-14.814 2.026,-3.445 7.692,-1.986 8.514,1.41" /><path
   style="fill:#ffffff"
   inkscape:connector-curvature="0"
   id="path3605"
   d="m 142.33187,527.896 c -2.369,-0.555 -6.751,1.784 -7.078,-1.992 2.923,1.713 2.923,-4.124 7.078,-2.035 v 4.027 z" /><path
   style="fill:#71c837;fill-opacity:1"
   inkscape:connector-curvature="0"
   id="path3607"
   d="m 312.44887,524.426 c -0.875,3.759 -5.944,4.085 -9.146,4.969 -1.238,-1.499 -3.549,0.285 -3.549,-2.053 2.954,-2.36 7.969,-4.949 12.695,-2.916" /><path
   style="fill:#71c837;fill-opacity:1"
   inkscape:connector-curvature="0"
   id="path3609"
   d="m 330.71687,524.426 c 2.712,6.1 -4.689,6.396 -7.681,8.459 -1.178,-2.063 -4.104,2.013 -4.394,-1.516 0.29,-5.22 6.772,-9.84 12.075,-6.943" /><path
   style="fill:#ff0000"
   inkscape:connector-curvature="0"
   id="path3611"
   d="m 208.15987,529.395 c 0.356,1.704 -0.22,4.872 -3.502,4.025 -0.931,0 -1.803,0 -2.052,0.846 -2.09,-2.035 -3.277,-5.755 -0.891,-7.883 2.64,0.325 6.801,-0.818 6.445,3.012" /><path
   style="fill:#71c837;fill-opacity:1"
   inkscape:connector-curvature="0"
   id="path3613"
   d="m 52.87487,534.267 c -3.538,1.189 -4.432,-1.756 -4.767,-4.296 l 2.703,-2.629 c 2.944,0.842 5.305,4.66 2.064,6.925" /><path
   style="fill:#71c837;fill-opacity:1"
   inkscape:connector-curvature="0"
   id="path3615"
   d="m 294.67287,535.455 c 0.958,4.962 -7.047,4.962 -9.947,8.407 -2.08,1.487 -5.051,0.621 -7.688,0.929 l -1.523,-2.336 c 5.081,-5.237 12.375,-7.29 19.158,-7" /><path
   style="fill:#ffdd55;fill-opacity:1"
   inkscape:connector-curvature="0"
   id="path3617"
   d="m 429.97387,545.943 c -0.871,7.873 0.3,17.205 -2.072,25.919 -7.681,0.296 -10.908,-10.806 -16.232,-15.457 -3.531,-4.326 -10.365,-4.909 -11.545,-11.056 -2.035,-5.562 3.274,-6.387 6.509,-7.518 7.709,2.581 20.125,-0.942 23.34,8.112" /><path
   style="fill:#71c837;fill-opacity:1"
   inkscape:connector-curvature="0"
   id="path3619"
   d="m 71.46487,542.455 c -0.594,2.596 -1.13,6.663 -5.022,6.961 -3.243,0.325 -5.582,2.663 -9.158,2.338 -1.468,-3.759 -6.224,-5.18 -4.41,-9.3 4.939,-2.667 10.596,-4.087 17.136,-3.492 l 1.454,3.493 z" /><path
   style="fill:#71c837;fill-opacity:1"
   inkscape:connector-curvature="0"
   id="path3621"
   d="m 326.60087,541.858 c 0,6.723 -8.848,4.085 -12.715,7.559 -2.313,-1.113 -7.699,0.576 -6.473,-4.066 5.63,-3.205 13.371,-5.563 19.188,-3.493" /><path
   style="fill:#000000"
   inkscape:connector-curvature="0"
   id="path3623"
   d="m 222.39987,546.807 c 1.188,2.934 -2.676,3.493 -4.183,4.084 -4.736,1.188 -4.134,-4.305 -7.088,-5.532 0.589,-4.668 5.343,0 8.231,-0.567 1.226,0.567 1.793,2.015 3.04,2.015" /><path
   style="fill:#ffdd55;fill-opacity:1"
   inkscape:connector-curvature="0"
   id="path3625"
   d="m 515.01887,546.807 2.961,4.084 c -2.961,11.066 4.979,27.952 -8.552,35.758 -14.202,0.602 -33.08,1.466 -46.695,-0.853 -10.352,-0.297 -24.234,2.319 -27.736,-7.574 2.603,-9.839 -2.961,-27.005 5.056,-33.431 23.618,3.513 50.742,5.202 74.966,2.016" /><path
   style="fill:#ffdd55;fill-opacity:1"
   inkscape:connector-curvature="0"
   id="path3627"
   d="m 558.46587,547.437 c -7.429,9.821 -19.216,17.739 -29.839,24.415 -1.767,2.043 -4.44,-0.286 -4.997,-2.089 1.094,-8.161 -0.66,-18.538 7.01,-22.947 10.614,1.191 18.891,-2.654 27.826,0.621" /><path
   style="fill:#ffdd55;fill-opacity:1"
   inkscape:connector-curvature="0"
   id="path3629"
   d="m 381.25187,550.891 -0.939,0.864 c 3.605,2.357 8.898,2.875 6.532,8.111 -4.442,2.091 -9.738,3.519 -14.089,3.011 -3.066,-5.618 2.319,-11.986 5.552,-16.07 2.619,0 3.194,1.773 2.944,4.084" /><path
   style="fill:#71c837;fill-opacity:1"
   inkscape:connector-curvature="0"
   id="path3631"
   d="m 272.61787,554.381 c -6.533,2.332 -14.521,13.08 -23.356,7.039 2.347,-5.85 8.558,-7.861 13.556,-9.665 3,-0.855 7.047,0.902 9.8,2.626" /><path
   style="fill:#71c837;fill-opacity:1"
   inkscape:connector-curvature="0"
   id="path3633"
   d="m 76.52087,555.247 c 2.329,3.172 1.486,7.266 -2.963,8.149 -2.991,1.78 -6.78,1.228 -10.088,2.33 -1.745,-3.46 -4.144,-6.396 -4.144,-10.479 4.737,-2.332 13.291,-5.254 17.195,0" /><path
   style="fill:#71c837;fill-opacity:1"
   inkscape:connector-curvature="0"
   id="path3635"
   d="m 293.83787,554.381 c -2.053,2.62 -7.076,3.809 -11.191,4.354 -3.327,2.684 -7.995,4.422 -12.139,3.531 5.906,-4.076 14.746,-11.644 23.33,-7.885" /><path
   style="fill:#ffdd55;fill-opacity:1"
   inkscape:connector-curvature="0"
   id="path3637"
   d="m 365.59187,558.736 c -2.647,2.684 -4.994,-0.308 -8.6,0.604 l -1.383,-1.391 7.872,-5.046 c 0.625,2.045 2.967,3.226 2.111,5.833" /><path
   style="fill:#71c837;fill-opacity:1"
   inkscape:connector-curvature="0"
   id="path3639"
   d="m 313.04287,557.259 -1.479,2.607 c -9.711,0.634 -17.727,12.848 -27.49,10.491 2.965,-6.959 12.134,-8.753 18.336,-12.418 3.529,-0.68 7.987,-2.369 10.633,-0.68" /><path
   style="fill:#ffdd55;fill-opacity:1"
   inkscape:connector-curvature="0"
   id="path3641"
   d="m 423.75987,579.697 c 5.618,7.564 1.773,17.492 -2.352,25.62 -3.597,2.36 -11.237,-1.792 -14.19,3.476 0.563,2.05 -1.18,4.659 1.505,5.848 4.44,1.438 5.313,-5.293 10.021,-2.938 5.928,4.662 0.314,12.803 2.053,17.454 -1.458,4.068 -4.766,0.595 -7.03,0.595 -0.374,8.172 -9.5,6.981 -14.199,9.925 -19.832,7.51 -41.695,13.347 -62.313,16.848 -7.391,-12.494 -3.826,-28.228 -5.629,-43.321 l -10.623,-16.014 c 3.546,-5.254 10.623,-2.073 16.252,-2.304 21.243,17.129 51.955,9.8 74.403,0 3.222,-7.92 0.585,-18.371 -5.62,-25.122 -3.525,-2.82 -8.285,-5.475 -10.02,-8.995 0.317,-2.033 2.349,-2.34 4.105,-2.033 10.048,5.888 16.272,11.028 23.637,20.961" /><path
   style="fill:#ffffff"
   inkscape:connector-curvature="0"
   id="path3643"
   d="m 331.62687,560.768 c 0,1.745 -0.25,3.856 -2.336,4.066 -2.992,2.338 -4.75,-0.881 -4.75,-3.415 1.201,-2.999 5.324,-2.683 7.086,-0.651" /><path
   style="fill:#2ad4ff;fill-opacity:1"
   inkscape:connector-curvature="0"
   id="path3645"
   d="m 135.25387,564.835 c 0.316,2.637 -1.439,4.363 -2.975,6.435 -0.907,-0.277 -2.357,0.583 -2.646,-0.913 0.587,-2.885 3.548,-7.843 5.621,-5.522" /><path
   style="fill:#ffdd55;fill-opacity:1"
   inkscape:connector-curvature="0"
   id="path3647"
   d="m 362.61087,566.314 c 1.743,3.179 0,4.679 0.871,9.048 -5.837,4.049 -12.371,9.837 -19.139,7.03 2.388,-6.462 1.535,-16.349 9.13,-18.995 2.672,2.087 7.966,-1.13 9.138,2.917" /><path
   style="fill:#ffdd55;fill-opacity:1"
   inkscape:connector-curvature="0"
   id="path3649"
   d="m 402.51287,573.905 c 1.226,5.207 -4.76,1.457 -6.494,3.49 -5.352,-2.915 -15.707,-1.764 -15.707,-9.022 6.758,-10.424 18.657,-2.053 22.201,5.532" /><path
   style="fill:#ffffff"
   inkscape:connector-curvature="0"
   id="path3651"
   d="m 320.09187,569.198 c -1.16,0 -2.616,-0.567 -3.479,0.566 -0.939,-1.133 -1.555,-4.028 0.863,-4.929 h 2.616 v 4.363 z" /><path
   style="fill:#71c837;fill-opacity:1"
   inkscape:connector-curvature="0"
   id="path3653"
   d="m 96.87787,574.732 c -6.502,4.679 -13.845,4.956 -21.893,7.647 -5.896,0.57 -7.986,-4.715 -9.1,-9.106 -1.503,-8.096 7.909,-4.643 11.757,-6.959 7.729,0 13.321,4.679 19.236,8.418" /><path
   style="fill:#2ad4ff;fill-opacity:1"
   inkscape:connector-curvature="0"
   id="path3655"
   d="m 172.21087,572.714 c -9.215,2.656 -19.583,-2.029 -28.395,-1.436 1.504,-3.817 7.105,-4.105 11.21,-4.958 l 17.185,2.063 v 4.331 z" /><path
   style="fill:#ffffff"
   inkscape:connector-curvature="0"
   id="path3657"
   d="m 126.06587,585.199 c -2.3,12.833 14.805,16.027 11.853,29.442 4.105,-0.651 9.992,-4.382 13.56,-7.864 3.548,-1.459 8.881,-2.897 12.197,-1.459 -0.671,4.019 -5.142,7.559 -8.649,9.323 -15.659,8.131 -10.933,28.221 -14.728,41.884 -4.74,-1.15 -13.906,-0.307 -12.159,-6.388 4.467,-5.551 4.467,-12.792 6.233,-19.502 -0.559,-4.661 -7.98,-2.061 -6.233,-7.863 1.794,-11.928 -7.672,-20.37 -10.547,-29.993 -2.111,-8.04 -10.962,-11.894 -11.549,-20.926 l 5.878,-3.469 c 7.393,3.161 4.423,14.575 14.144,16.815" /><path
   style="fill:#2ad4ff;fill-opacity:1"
   inkscape:connector-curvature="0"
   id="path3659"
   d="m 250.09187,569.198 c 0.919,4.976 -7.651,4.976 -10.005,9.025 -2.652,4.399 -8.829,2.901 -13.604,4.156 -1.179,-1.494 -0.28,-4.156 0.897,-5.618 6.774,-2.587 13.035,-9.014 20.37,-7.563 h 2.342 z" /><path
   style="fill:#ffdd55;fill-opacity:1"
   inkscape:connector-curvature="0"
   id="path3661"
   d="m 344.34287,571.278 c -1.229,5.493 -2.941,11.333 -6.481,15.973 -3.855,1.44 -8.582,2.955 -12.688,1.44 -1.524,-5.523 3.491,-10.125 6.452,-14.787 3.818,-1.745 8.862,-8.169 12.717,-2.626" /><path
   style="fill:#71c837;fill-opacity:1"
   inkscape:connector-curvature="0"
   id="path3663"
   d="m 176.32487,581.73 c -5.111,11.305 -11.489,14.883 -23.341,17.433 -7.104,3.492 -11.815,-3.145 -17.73,-4.89 -3.222,-2.923 -2.975,-7.021 -2.975,-11.105 2.678,-5.177 9.745,-5.763 15.632,-6.407 8.649,1.47 21.634,-2.281 28.414,4.969" /><path
   style="fill:#ffffff"
   inkscape:connector-curvature="0"
   id="path3665"
   d="m 189.91187,580.27 c 0.25,3.492 -3.558,4.105 -5.063,6.373 -0.882,0 -1.775,0 -2.094,-0.847 1.835,-2.033 3.859,-10.165 7.157,-5.526" /><path
   style="fill:#ffffff;fill-opacity:1"
   inkscape:connector-curvature="0"
   id="path3667"
   d="m 376.17687,580.885 c 2.13,4.068 -1.366,9.321 -1.975,14 h -3.002 c -0.89,-4.679 -2.3,-14 4.977,-14" /><path
   style="fill:#2ad4ff;fill-opacity:1"
   inkscape:connector-curvature="0"
   id="path3669"
   d="m 101.30787,585.796 c 2.954,2.654 5.314,2.895 6.194,6.982 -0.269,6.138 -7.988,3.239 -11.287,7.035 -6.463,-0.305 -12.302,6.639 -17.682,2.025 -3.269,-3.512 -5.311,-8.804 -4.364,-13.147 l 1.458,-2.048 c 8.519,-0.847 17.394,-7.531 25.681,-2.88 v 2.033 z" /><path
   style="fill:#2ad4ff;fill-opacity:1"
   inkscape:connector-curvature="0"
   id="path3671"
   d="m 218.21687,587.251 c -9.155,5.536 -17.701,7.875 -27.75,8.47 l 0.584,-3.54 c 6.512,-4.305 13.606,-9.803 22.219,-10.452 1.706,1.23 4.659,3.01 4.947,5.522" /><path
   style="fill:#ffffff;fill-opacity:1"
   inkscape:connector-curvature="0"
   id="path3673"
   d="m 384.78887,594.885 c -0.564,0.845 -1.556,0.845 -2.387,0.845 -2.341,-4.374 -1.15,-10.776 1.504,-14 5.899,2.646 0,9.302 0.883,13.155" /><path
   style="fill:#ffffff;fill-opacity:1"
   inkscape:connector-curvature="0"
   id="path3675"
   d="m 396.59387,584.376 c -0.575,4.659 -0.575,6.98 -2.03,11.345 -2.373,0 -5.64,-1.448 -5.64,-4.365 2.031,-3.49 -1.21,-7.593 2.923,-9.637 2.062,-0.834 4.172,0.892 4.747,2.657" /><path
   style="fill:#2ad4ff;fill-opacity:1"
   inkscape:connector-curvature="0"
   id="path3677"
   d="m 296.20787,586.643 c 5.856,-0.21 12.674,-5.758 18.267,-0.847 0,5.554 -4.69,12.235 -12.064,8.477 -18.563,-9.534 -41.376,6.656 -62.322,-4.941 7.389,-2.366 14.445,-3.535 21.866,-6.953 11.756,-3.547 22.771,6.952 34.253,4.264" /><path
   style="fill:#ffdd55;fill-opacity:1"
   inkscape:connector-curvature="0"
   id="path3679"
   d="m 354.96887,590.744 c -1.228,1.773 -2.992,2.646 -5.008,2.05 l -1.465,-1.438 c 0.883,-4.094 6.473,-3.832 6.473,-0.612" /><path
   style="fill:#ffdd55;fill-opacity:1"
   inkscape:connector-curvature="0"
   id="path3681"
   d="m 460.38987,597.78 c 0.308,6.368 3.521,17.454 -5.629,18.873 -6.798,4.429 -15.631,8.766 -23.366,7.002 -3.493,-8.765 -2.292,-19.218 1.582,-27.925 5.521,-7.602 15.59,-0.361 23.815,-1.449 l 3.598,3.499 z" /><path
   style="fill:#ffdd55;fill-opacity:1"
   inkscape:connector-curvature="0"
   id="path3683"
   d="m 487.57487,595.73 c -1.812,7.787 -11.852,9.601 -17.747,11.047 -1.466,-4.363 -1.161,-10.482 3.595,-12.496 4.418,-1.487 9.981,-0.661 14.152,1.449" /><path
   style="fill:#000000"
   inkscape:connector-curvature="0"
   id="path3685"
   d="m 600.96687,600.622 c -35.75,68.455 -82.409,131.273 -149.744,178.719 -31.002,25.037 -64.926,43.956 -99.239,61.4 -21.574,18.669 -40.165,-6.962 -59.297,-14.538 -47.899,-27.087 -93.589,-58.471 -132.06,-99.254 15.102,-1.707 32.208,0 47.54,1.506 55.83,2.568 116.087,-7.634 172.135,-17.454 36.409,-11.085 73.238,-21.881 106.4,-38.471 40.158,-20.09 81.188,-42.451 113.342,-71.908 h 0.923 z" /><path
   style="fill:#71c837;fill-opacity:1"
   inkscape:connector-curvature="0"
   id="path3687"
   d="m 116.65787,607.677 c 1.737,4.928 -2.414,5.199 -4.745,6.963 -10.088,-1.765 -24.213,13.078 -28.296,-2.368 v -3.479 c 9.404,-2.34 18.208,-6.392 28.872,-6.119 l 4.169,5.003 z" /><path
   style="fill:#2ad4ff;fill-opacity:1"
   inkscape:connector-curvature="0"
   id="path3689"
   d="m 258.40687,615.812 c 21.873,-1.171 53.402,-9.035 64.63,15.395 l 2.149,17.465 c -9.513,2.637 -19.825,-1.161 -28.427,-4.995 -41.623,-11.277 -88.243,-9.285 -131.666,-12.47 -3.529,-2.05 -10.71,-0.881 -10.088,-6.106 6.83,-10.46 22.18,-6.05 31.99,-9.289 13.233,-2.609 24.469,-11.933 39.488,-8.135 8.892,4.595 20.169,10.757 31.924,8.135" /><path
   style="fill:#2ad4ff;fill-opacity:1"
   inkscape:connector-curvature="0"
   id="path3691"
   d="m 122.57687,625.112 c -3.872,10.144 -17.135,5.85 -27.194,9.012 -0.604,-11.352 14.45,-6.998 20.713,-12.483 2.609,-0.559 6.481,0.307 6.481,3.471" /><path
   style="fill:#71c837;fill-opacity:1"
   inkscape:connector-curvature="0"
   id="path3695"
   d="m 118.12887,641.643 c 0.267,3.238 -2.417,5.867 -5.64,5.532 l -5.554,-0.546 c -2.404,-3.164 0.567,-5.553 3.538,-6.355 2.618,0.505 5.872,-1.21 7.656,1.369" /><path
   style="fill:#71c837;fill-opacity:1"
   inkscape:connector-curvature="0"
   id="path3697"
   d="m 211.70687,645.132 c 29.87,0 63.814,2.379 91.596,13.409 -0.595,7.307 -8.629,0.303 -14.213,3.555 -24.518,-0.583 -48.673,8.113 -69.737,-5.014 -20.946,-6.327 -45.052,-13.963 -68.409,-6.944 -3.606,-2.02 -1.498,-5.551 -0.883,-8.484 4.697,-1.698 12.368,0.545 17.086,0.913 15.608,-1.136 28.941,1.743 44.56,2.565" /><path
   style="fill:#ffffff"
   inkscape:connector-curvature="0"
   id="path3699"
   d="m 205.17587,662.087 c -7.613,1.736 -14.449,-0.587 -23.241,-0.883 -5.352,0.883 -11.854,-1.447 -16.842,-0.566 -1.418,-0.881 -1.822,-2.091 -1.418,-3.565 9.705,-2.847 18.853,-0.221 28.278,0 5.275,-0.222 8.889,3.23 13.223,5.014" /><path
   style="fill:#2ad4ff;fill-opacity:1"
   inkscape:connector-curvature="0"
   id="path3701"
   d="m 528.62787,662.087 c -0.567,4.333 -5.391,10.166 -1.534,13.078 -0.576,7.251 -7.061,10.442 -14.098,9.935 -11.024,-1.506 -22.201,0 -33.965,-1.506 0.854,-4.064 6.732,-0.862 7.672,-4.973 l 0.872,0.909 c 11.831,-4.67 22.688,-14.286 34.539,-20.377 3.183,0 5.286,-0.309 6.514,2.934" /><path
   style="fill:#71c837;fill-opacity:1"
   inkscape:connector-curvature="0"
   id="path3703"
   d="m 522.11387,697.585 2.073,2.878 c -7.059,6.94 -13.645,15.745 -18.908,22.399 -2.081,3.499 -7.998,7.623 -12.144,10.527 -8.544,1.729 -15.935,-7.595 -24.769,-9.368 -13.605,-5.532 -25.373,-10.488 -38.393,-17.452 4.46,-5.818 13.903,-5.818 19.74,-10.469 23.718,-4.404 48.776,4.363 72.401,1.485" /><path
   style="fill:#2ad4ff;fill-opacity:1"
   inkscape:connector-curvature="0"
   id="path3707"
   d="m 399.55587,720.571 5.599,8.391 c 15.939,4.427 36.021,-6.981 46.068,9.895 7.134,5.283 14.759,4.449 23.33,3.555 1.795,1.165 4.728,4.627 1.504,5.487 l -28.371,22.996 c -11.855,-1.429 -16.583,-13.128 -26.899,-16.534 -13.005,-5.531 -26.87,-12.818 -36.881,-20.402 -5.874,-2.332 -10.709,-6.424 -16.254,-11.097 8.275,-6.953 21.559,-4.63 31.904,-2.291" /><path
   style="fill:#71c837;fill-opacity:1"
   inkscape:connector-curvature="0"
   id="path3709"
   d="m 355.60987,745.903 c 13.51,1.995 21.786,14.787 35.346,18.039 2.961,11.889 19.216,7.582 21.288,19.438 2.905,1.218 3.797,4.144 3.526,6.991 -11.792,7.294 -23.326,15.19 -34.519,23.922 -4.794,-0.604 -5.908,-4.104 -7.056,-7.625 0.879,-4.654 12.366,-4.954 7.056,-11.303 -6.44,-3.784 -12.359,-2.647 -18.641,-7.021 1.191,-4.321 -0.854,-11.937 -6.176,-13.967 -9.146,-2.33 -20.982,-3.799 -23.599,-15.345 -4.462,-2.664 -14.183,-2.128 -12.744,-10.556 -8.528,-6.378 -24.76,-0.29 -25.419,-13.118 8.044,-5.515 15.377,-0.844 23.98,-4.873 12.968,2.904 22.736,13.37 36.958,15.418" /><path
   style="fill:#2ad4ff;fill-opacity:1"
   inkscape:connector-curvature="0"
   id="path3711"
   d="m 252.23087,738.039 c 17.634,6.1 25.91,24.396 46.622,25.319 3.557,6.998 9.176,11.907 17.155,14.488 22.167,0.402 22.401,25.889 40.427,31.424 l 8.266,9.943 c -5.294,6.327 -15.322,7.258 -22.477,12.53 -8.795,6.664 -18.248,-2.022 -27.166,-4.054 -8.871,-8.784 -16.205,-15.767 -21.221,-26.821 -10.365,-10.499 -21.613,-21.53 -32.488,-31.404 -9.741,-9.917 -22.169,-16.906 -34.865,-22.18 -9.15,-3.146 -18.544,-5.482 -27.386,-9.246 l 2.033,-1.206 c 17.097,-1.715 33.925,2.89 51.1,1.207" /><path
   style="fill:#71c837;fill-opacity:1"
   inkscape:connector-curvature="0"
   id="path3713"
   d="m 259.28887,792.707 v 2.017 h -4.432 c -16.846,-13.025 -32.179,-22.382 -48.146,-36.333 21.251,-4.939 43.101,16.539 52.578,34.316" /><path
   style="fill:#000000"
   inkscape:connector-curvature="0"
   id="path3715"
   d="m 91.763369,225.92277 h -4.88983 c -0.07042,0.19559 -1.450162,1.89946 -2.542706,2.66956 -1.969846,1.4117 -3.851304,2.14906 -4.361974,2.20309 v 5.03058 c 1.230846,-0.38218 1.867545,-0.66535 3.278437,-1.46 0.997608,-0.5172 2.754672,-2.14906 2.754672,-2.14906 v 22.16097 h 5.761401 v -28.45514 z" /><path
   style="fill:#000000"
   inkscape:connector-curvature="0"
   id="path3717"
   d="m 116.07503,228.89103 c 6.82694,0 6.82694,8.45063 0,8.45063 -6.85967,0 -6.85967,-8.45063 0,-8.45063 m 0,12.36494 c 7.92521,0 7.92521,9.8664 0,9.8664 -7.64449,0 -7.64449,-9.8664 0,-9.8664 m -0.44028,14.01724 c 8.20754,0 12.19388,-3.60171 11.98274,-9.38521 -0.25206,-6.01183 -7.5954,-6.59205 -7.62077,-6.59205 -0.0778,0 6.61661,-0.12686 6.89078,-6.01839 0.25206,-5.75404 -5.27203,-8.12489 -10.64797,-8.12489 -6.01837,0 -11.37223,2.84223 -10.90166,8.30331 0.42637,5.23436 6.48322,5.83914 6.45212,5.83914 0,0 -6.57815,0.92478 -7.01763,6.4734 -0.4231,5.58955 3.72119,9.50469 10.86239,9.50469" /><path
   style="fill:#000000"
   inkscape:connector-curvature="0"
   id="path3719"
   d="m 145.67672,228.89103 c 6.83512,0 6.83512,8.45063 0,8.45063 -6.76475,0 -6.76475,-8.45063 0,-8.45063 m 0,12.36494 c 7.9383,0 7.9383,9.8664 0,9.8664 -7.59867,0 -7.59867,-9.8664 0,-9.8664 m -0.39447,14.01724 c 8.18628,0 12.16279,-3.60171 11.96802,-9.38521 -0.24306,-6.01183 -7.57331,-6.59205 -7.69688,-6.59205 0,0 6.69191,-0.12686 6.97506,-6.01839 0.22015,-5.75404 -5.28183,-8.12489 -10.71179,-8.12489 -6.02083,0 -11.37959,2.84223 -10.86238,8.30331 0.43211,5.23436 6.49058,5.83914 6.49058,5.83914 0,0 -6.63707,0.92478 -7.05445,6.4734 -0.42473,5.58955 3.7441,9.50469 10.89184,9.50469" /><path
   style="fill:#000000"
   inkscape:connector-curvature="0"
   id="path3721"
   d="m 170.84194,234.6639 c -0.14975,-3.12049 2.18836,-5.30311 5.03716,-5.30311 3.31198,0 5.17052,2.72358 5.04858,5.30311 -0.25451,3.95607 -5.94963,7.67724 -8.57173,9.54478 l -7.65759,5.35059 v 4.81945 h 21.87779 v -4.46591 h -15.33401 l 5.1468,-3.30299 c 3.81283,-2.37004 10.02927,-7.14856 10.18721,-11.9451 0.25042,-6.04294 -5.47906,-9.35246 -10.8763,-9.35246 -10.17084,0 -10.35989,8.38269 -10.45399,9.35246 h 5.59608 z" /><path
   style="fill:#000000"
   inkscape:connector-curvature="0"
   id="path3723"
   d="m 258.39732,235.826 -5.75976,2.80214 v 15.73993 h 5.75976 V 235.826 z m 13.26024,18.54289 h 5.7213 v -16.26615 c 0,-3.19495 -0.1874,-5.63374 -1.85116,-8.10526 -2.48135,-3.53868 -6.1698,-4.0829 -10.56532,-4.0829 h -12.32564 v 4.71879 h 12.32564 c 2.24563,0 4.07553,0.34454 5.50361,2.03041 1.19157,1.38879 1.19157,3.26451 1.19157,5.43896 v 16.26615 z" /><polygon
   style="fill:#000000"
   id="polygon3725"
   points="849.786,374.077 849.786,368.311 820.879,368.311 820.879,374.077 838.115,374.077 838.115,403.08 845.211,403.08 845.211,374.077 "
   transform="matrix(0.81838158,0,0,0.81838158,-389.63076,-75.504354)" /><path
   style="fill:#000000"
   inkscape:connector-curvature="0"
   id="path3727"
   d="m 317.42718,230.63337 h 8.6863 c 5.82198,0 7.56513,4.81045 7.71406,9.58734 0.21852,5.20573 -2.54434,10.6185 -8.25746,10.6185 -4.42254,0 -8.1429,-2.25299 -8.1429,-7.97431 v -12.23153 z m 8.97519,-4.7106 h -14.76033 v 16.94213 c 0,7.33926 4.46592,12.48524 13.92885,12.48524 10.99498,0 14.01643,-9.58162 14.01643,-14.84627 0.0384,-10.49984 -5.85388,-14.5811 -13.18495,-14.5811" /><rect
   style="fill:#000000"
   id="rect3729"
   height="28.45513"
   width="5.7826843"
   y="225.92279"
   x="346.59595" /><path
   style="fill:#000000"
   inkscape:connector-curvature="0"
   id="path3731"
   d="m 368.80354,233.51898 v 16.17367 h -8.66256 v 4.67624 h 14.43871 v -20.84991 c 0,-1.39779 -0.52623,-4.15819 -2.4797,-5.7925 -2.06232,-1.60075 -4.33906,-1.80371 -6.62235,-1.80371 h -4.71224 v 4.71633 h 4.71224 c 0.30443,0 1.6163,0.0957 2.28329,0.63426 0.89448,0.68661 1.04261,1.66703 1.04261,2.24562" /><path
   style="fill:#000000"
   inkscape:connector-curvature="0"
   id="path3733"
   d="m 462.81677,249.68693 h -3.28007 v -11.57437 c 0,-3.21132 -0.29055,-5.5339 -1.85855,-8.10935 -2.24483,-3.64915 -6.12968,-4.08044 -10.55712,-4.08044 h -8.95883 v 4.7106 h 8.95883 c 2.22519,0 4.12955,0.13258 5.57317,1.83563 0.8552,1.04998 1.09909,3.42002 1.09909,5.64356 v 11.57437 h -15.53125 v 4.69098 h 24.55554 v -4.69098 z" /><path
   style="fill:#000000"
   inkscape:connector-curvature="0"
   id="path3735"
   d="m 484.61763,223.72705 h -5.39232 l -3.61642,10.94749 h 3.17613 l 5.83261,-10.94749 z m -7.83847,0 h -5.34565 l -3.61807,10.94749 h 3.14914 l 5.81458,-10.94749 z" /><path
   style="fill:#000000"
   inkscape:connector-curvature="0"
   id="path3737"
   d="m 497.77066,225.92277 h -6.33509 c 0.18904,0.53603 1.22348,2.96826 1.77261,4.7106 1.40925,3.84394 2.35695,6.51105 2.35695,8.04959 0.0629,1.6024 -0.6989,4.25559 -0.9477,5.55601 l -2.16624,10.13894 h 6.3228 l 1.09991,-6.27782 c 0.032,-0.45338 0.87157,-5.68775 1.92484,-8.80414 1.49682,-4.75481 4.16637,-9.66837 8.5439,-9.66837 4.92666,0 7.09128,5.53307 7.09128,10.40654 0,5.00605 -1.55821,10.56121 -7.55857,10.6897 -1.7137,0 -2.88154,0 -4.41517,-0.66207 v 4.69424 c 1.60892,0.45419 2.70147,0.59496 4.41517,0.59496 9.8844,-0.14077 13.50983,-7.5422 13.3527,-15.37902 -0.10884,-8.93099 -4.57637,-14.82662 -12.4934,-14.82662 -5.15498,0 -8.93674,3.10166 -10.61688,8.00785 -0.33963,-1.50091 -0.57286,-2.41094 -1.0999,-3.90368 -0.47875,-1.42643 -0.73899,-2.07213 -1.24721,-3.32671" /><path
   style="fill:#000000"
   inkscape:connector-curvature="0"
   id="path3739"
   d="m 545.05919,254.36889 h 5.77532 v -16.26615 c 0,-3.19495 -0.23405,-5.63374 -1.82907,-8.10526 -2.51652,-3.53868 -6.21642,-4.0829 -10.59886,-4.0829 h -9.64626 v 4.71879 h 9.64626 c 2.22927,0 3.87586,0.50085 5.29656,2.23418 1.16785,1.34297 1.35688,3.1385 1.35688,5.23437 v 16.26697 z" /><path
   style="fill:#000000"
   inkscape:connector-curvature="0"
   id="path3741"
   d="m 568.92158,247.91268 v -17.27276 h 6.68044 c 2.25873,0 3.84476,0.49512 5.31375,2.22273 1.12201,1.34869 1.3307,3.15158 1.3307,5.24009 v 16.26615 h 5.81542 v -16.26615 c 0,-3.2015 -0.19561,-5.63374 -1.86674,-8.09871 -2.47479,-3.54523 -6.12558,-4.08045 -10.59313,-4.08045 h -17.66477 v 4.71634 h 5.1779 v 16.34635 c 0,1.64822 -0.58022,2.74732 -2.22762,3.2187 -1.36016,0.39036 -3.03785,0.13175 -3.85376,-0.47138 v 4.61403 c 1.44444,0.77745 5.80233,1.27176 8.42114,-0.45584 2.16053,-1.4289 3.46667,-2.76941 3.46667,-5.9791" /><g
   id="g4958"
   transform="matrix(0.89883285,0,0,0.89883285,33.724865,-1.6036861)"><polygon
     transform="translate(-550.22513,-143.42)"
     stroke-miterlimit="3.864"
     points="1077.891,177.297 1203.223,293.719 1204.188,353.728 564.599,354.609 562.978,293.719 686.266,177.404 "
     id="polygon3403"
     style="fill:none;stroke:#1b181d;stroke-width:0.146;stroke-miterlimit:3.86400008" /><rect
     x="79.931854"
     y="93.693993"
     width="15.45"
     height="103.935"
     id="rect3743"
     style="fill:#ffffff" /><rect
     x="108.76785"
     y="93.693993"
     width="15.345"
     height="77.969002"
     id="rect3745"
     style="fill:#ffffff" /><polygon
     transform="translate(-550.22513,-143.42)"
     points="685.019,237.114 685.019,286.892 700.437,281.982 700.437,237.114 "
     id="polygon3747"
     style="fill:#ffffff" /><path
     d="m 160.43387,171.663 h 51.03 v -11.89 l -11.725,-20.943 c 4.873,-2.052 8.979,-7.25 10.568,-11.391 1.965,-5.198 2.865,-11.238 2.865,-18.7 V 93.693996 h -15.007 V 111.963 c 0,4.658 0.328,9.396 -0.604,11.792 -0.604,1.431 -2.349,3.357 -3.7,3.971 l -16.36,-34.032004 h -19.436 l 33.323,62.090004 h -30.954 v 15.879 z"
     id="path3749"
     inkscape:connector-curvature="0"
     style="fill:#ffffff" /><polygon
     transform="translate(-550.22513,-143.42)"
     points="783.381,315.083 800.711,315.083 817.835,250.501 817.835,237.114 786.319,237.114 786.319,211.904 770.063,211.904 770.063,253.042 801.381,253.042 "
     id="polygon3751"
     style="fill:#ffffff" /><rect
     x="276.12485"
     y="126.80601"
     width="48.311001"
     height="10.816"
     id="rect3753"
     style="fill:#ffffff" /><rect
     x="337.25485"
     y="93.693993"
     width="15.389"
     height="103.935"
     id="rect3755"
     style="fill:#ffffff" /><rect
     x="365.99686"
     y="93.693993"
     width="15.408"
     height="77.969002"
     id="rect3757"
     style="fill:#ffffff" /><path
     d="m 406.43987,93.693996 h -15.407 V 130.411 c 0,31.931 13.731,45.413 35.247,45.26 6.447,0 17.213,-1.65 24.794,-10.826 10.283,-12.611 11.617,-21.663 11.617,-49.452 V 93.692996 h -14.949 V 116.2 c 0,22.859 -1.507,30.07 -5.465,35.863 -4.594,6.989 -8.103,8.752 -15.997,9.502 -13.567,1.323 -18.208,-14.383 -18.208,-14.383 0,0 13.667,0.401 20.501,-9.715 5.18,-7.518 6.155,-18.056 6.155,-23.262 V 93.692996 h -15.389 V 116.2 c 0,1.859 0.336,11.927 -5.497,17.173 -2.347,2.082 -5.396,2.801 -7.402,2.801 V 93.693996 z"
     id="path3759"
     inkscape:connector-curvature="0"
     style="fill:#ffffff" /><path
     d="m 489.19587,93.693996 h -19.283 c 0.355,0.787 4.191,6.424004 6.835,10.587004 2.706,4.287 6.542,11.112 7.385,12.57 l 1.828,3.126 c 0,0 -7.398,6.376 -10.352,14.747 -3.225,8.594 -3.35,17.905 -3.35,25.93 v 11.009 h 16.124 v -19.428 c 0,-1.936 -0.367,-9.828 1.33,-15.169 1.485,-4.479 2.848,-6.09 2.848,-5.926 l 1.264,2.071 c 1.21,2.014 4.75,8.188 8.02,14.95 4.362,9.12 7.047,14.268 10.869,23.503 h 18.127 c -2.349,-5.044 -3.844,-7.997 -6.156,-12.946 -2.887,-6.224 -7.123,-14.671 -7.803,-16.022 l -1.115,-2.196 c 0,0 7.584,-5.274 10.751,-14.978 1.878,-5.831 2.318,-9.32 2.318,-18.872 V 93.694996 h -16.122 V 110.841 c 0,4.468 0.225,6.952 -0.427,11.401 -0.892,5.36 -2.858,6.636 -2.955,6.387 0,0 -7.105,-12.637 -11.504,-20.349 -3.32,-5.629 -5.267,-8.918004 -8.632,-14.586004"
     id="path3761"
     inkscape:connector-curvature="0"
     style="fill:#ffffff" /><path
     d="m 564.52687,171.663 h 15.402 v -44.551 c 0,-8.755 -0.145,-15.717 -3.606,-22.055 -5.131,-9.397004 -13.206,-11.363004 -22.471,-11.363004 h -16.549 V 109.622 h 14.508 c 4.45,0 8.747,0.708 11.029,5.686 1.983,4.104 1.687,9.014 1.687,14.931 v 41.424 z"
     id="path3763"
     inkscape:connector-curvature="0"
     style="fill:#ffffff" /></g><path
   style="fill:#ffffff"
   inkscape:connector-curvature="0"
   id="path3765"
   d="m 178.51734,702.97106 -11.29143,-1.06542 1.30685,-13.49197 5.25921,0.52782 c 2.10385,0.18892 3.78421,0.54806 4.93649,1.99703 0.85173,1.23221 0.76428,2.30332 0.57805,4.34122 l -0.78917,7.69132 z m -18.76133,2.89763 25.39918,2.34903 1.23839,-12.45938 c 0.23849,-2.94586 0.14042,-5.4832 -1.74487,-7.56615 -2.36308,-2.83943 -6.27874,-3.48889 -10.73649,-3.94616 l -12.00947,-1.07282 -2.14674,22.69548 z" /><polygon
   style="fill:#ffffff"
   id="polygon3767"
   points="778.415,839.617 771.322,839.617 771.322,854.257 778.415,852.752 "
   transform="matrix(0.99967223,0.02560144,-0.02560144,0.99967223,-527.60165,-172.6226)" /><path
   style="fill:#ffffff"
   inkscape:connector-curvature="0"
   id="path3769"
   d="m 268.27331,686.77864 -7.9109,0.32457 c 0.18064,0.40676 1.17202,2.39679 1.74344,3.79388 1.3539,2.95063 1.86178,5.18836 1.87735,6.45518 0.15053,1.23126 -0.22116,3.90962 -0.49068,4.90304 l -1.46862,7.66092 7.59516,-0.33867 0.67452,-5.01137 c 0.12838,-1.22412 0.65031,-4.7299 1.51687,-7.27955 0.30437,-1.29964 2.04147,-6.24179 5.9148,-6.4787 3.6934,-0.0855 5.25685,3.7058 5.32567,7.03365 0.16397,4.02652 -1.48799,7.48036 -5.39414,7.67042 -1.05737,0.0399 -1.72497,-0.17922 -2.57717,-0.53416 l 0.19762,4.62658 c 1.43059,0.30772 2.31966,0.39451 3.85638,0.30783 8.72176,-0.46487 11.70955,-6.31629 11.3955,-12.72443 -0.30487,-5.71168 -4.70575,-12.02242 -11.47791,-11.36058 -4.47349,0.43062 -7.63253,2.85253 -8.9134,6.698 -0.31048,-1.27436 -0.51128,-2.02675 -0.96843,-3.27686 -0.35781,-1.10553 -0.84189,-2.04623 -0.89606,-2.46975" /><polygon
   style="fill:#ffffff"
   id="polygon3771"
   points="917.161,848.731 923.978,847.055 918.395,824.875 911.487,826.575 "
   transform="matrix(0.99967223,0.02560144,-0.02560144,0.99967223,-527.60165,-172.6226)" /><path
   style="fill:#ffffff"
   inkscape:connector-curvature="0"
   id="path3773"
   d="m 408.09446,671.3372 4.02644,10.46351 -6.53565,2.36345 1.72021,4.38848 13.06164,-4.81818 -5.23349,-13.99257 c -0.38542,-1.08223 -1.3423,-4.18474 -4.50906,-5.09411 -2.68699,-0.77705 -5.36336,0.25777 -7.22285,0.99541 l -3.45783,1.23788 1.57903,4.35485 3.01728,-1.10511 c 0.24161,-0.0988 1.33778,-0.40389 2.12986,-0.20154 0.82889,0.2493 1.34154,1.05069 1.42442,1.40793" /><path
   style="fill:#ffffff"
   inkscape:connector-curvature="0"
   id="path3775"
   d="m 448.87448,645.49275 -7.89408,3.92519 c 0.25326,0.11052 2.5595,0.79479 4.14632,1.32959 1.72248,0.6283 4.19627,1.64497 4.75065,1.79421 l 1.1478,0.48954 c 0,0 -2.18549,3.23411 -2.2559,5.98321 -0.17142,2.90456 0.92187,5.36836 2.0479,7.48989 l 1.4779,2.87577 6.6415,-3.25503 -2.6389,-5.11624 c -0.1907,-0.52305 -1.3842,-2.47124 -1.3951,-4.27211 -0.024,-1.4281 0.3057,-2.2089 0.3034,-2.11893 l 0.8164,0.26599 c 0.8054,0.30872 3.0505,1.19248 5.3497,2.30671 2.9823,1.55286 4.7565,2.34854 7.5338,4.01019 l 7.5023,-3.74215 c -1.5884,-0.82494 -2.6786,-1.34102 -4.2131,-2.16057 -2.0483,-1.03078 -4.9789,-2.33323 -5.3863,-2.55474 l -0.777,-0.36401 c 0,0 2.4359,-2.89159 2.4226,-6.12498 -0.027,-1.92932 -0.238,-2.93206 -1.5428,-5.41828 l -1.6949,-3.34549 -6.6717,3.18724 2.2343,4.50768 c 0.6518,1.18608 1.1046,1.78487 1.3489,3.10455 0.4022,1.60182 -0.2688,2.33489 -0.2868,2.29541 0,0 -4.5873,-1.92107 -7.5131,-3.02233 -2.0302,-0.83925 -3.335,-1.29381 -5.45379,-2.07031" /><path
   style="fill:#ffffff"
   inkscape:connector-curvature="0"
   id="path3777"
   d="m 505.66287,641.71238 20.4196,-11.43898 -1.7266,-3.0472 -7.7319,-2.68083 c 1.6069,-1.6554 2.5203,-3.92576 2.5555,-5.29931 0.045,-1.74443 -0.5427,-3.49404 -1.666,-5.41143 l -2.155,-3.81742 -6.0239,3.39689 2.6593,4.67161 c 0.7312,1.1321 1.5515,2.30348 1.5301,3.13721 0.017,0.39156 -0.4182,1.33073 -0.8976,1.80861 l -11.5206,-5.00358 -7.8283,4.323 22.476,8.41417 -12.4441,6.91368 2.3535,4.03358 z" /><path
   style="fill:#ffffff"
   inkscape:connector-curvature="0"
   id="path3779"
   d="m 549.31777,588.99573 -6.5282,4.34129 c 0.3949,0.24019 2.2251,1.39042 3.4603,2.21731 2.7034,1.97386 4.3316,3.62609 4.9844,4.65714 0.6952,1.01613 1.7923,3.48803 2.1989,4.48776 l 2.6329,7.3018 6.2935,-4.11922 -2.0115,-4.61601 c -0.5306,-1.19398 -1.8454,-4.45971 -2.5089,-7.02754 -0.4185,-1.31314 -1.5057,-6.43666 1.7425,-8.55019 3.076,-1.9939 6.38,0.47049 8.2357,3.24191 2.2033,3.49155 2.6054,7.20406 -0.6722,9.37386 -0.8612,0.58214 -1.5142,0.72847 -2.5075,0.84708 l 2.6649,3.90351 c 1.3808,-0.48081 2.2496,-0.93172 3.4696,-1.73475 7.2478,-4.82102 6.6521,-11.44244 3.1282,-16.64837 -3.3089,-4.77327 -10.2787,-7.95575 -15.7342,-3.90509 -3.6439,2.60456 -5.1007,6.21145 -4.2051,10.18568 -0.9059,-0.91549 -1.4862,-1.45853 -2.5183,-2.32524 -0.9035,-0.69635 -1.7599,-1.31448 -2.125,-1.63093" />
<path
   style="fill:#71c837;fill-opacity:1"
   d="m 497.36867,313.32999 c 3.417,8.16601 2.3358,18.4731 10,24.53125 12.6739,2.351 16.2702,-8.378 26.2812,-12.5 3.557,-1.15 8.8063,-1.14075 11.1562,2.90625 0.651,2.94 -0.5,7.235 -4.125,9 -11.1719,4.987 -24.196,6.69725 -32.75,16.53125 0,6.983 2.9688,10.00775 2.9688,16.96875 -1.773,3.761 -5.9503,7.00025 -7.1562,10.40625 4.7589,5.588 -3.4743,11.6775 -0.9063,18.0625 4.508,1.181 7.4233,-1.6705 10.1563,-2.5625 11.9869,5.798 21.8265,-5.2915 33.9374,-1.4375 6.484,-4.711 15.3411,-6.9915 19.75,-15.4375 2.336,-5.551 1.785,-10.794 0.875,-16.625 0.604,-5.523 6.5031,-6.151 9.75,-9.375 5.945,-2.848 10.0433,3.23375 14.1563,4.46875 4.193,-6.146 -0.01,-11.637 -0.5625,-18.375 -6.801,-3.722 -8.829,9.92175 -16.25,6.96875 l 1.5312,-16.5625 -2.4062,0 c -20.06,13.676 -26.8613,33.15925 -48.1562,44.53125 -1.758,1.704 -4.7526,3.19475 -7.0626,1.46875 1.19,-5.284 7.6543,-7.91975 10.6563,-11.09375 0.607,-2.044 1.7525,-4.90625 4.4375,-4.90625 1.728,-13.088 26.5572,-19.50925 18.2812,-36.40625 -0.8969,-8.992 -15.0984,-4.964 -14.1874,-13.125 12.7449,0 24.5355,8.17025 38.4374,6.15625 4.125,-0.307 4.966,-5.8505 3.5,-8.4375 0.901,-10.204 -5.3682,-18.01325 -5.0312,-28.53125 -7.653,-3.185 -16.5103,-3.185 -24.1562,0 -0.307,6.079 5.216,4.966 9.125,7 5.2669,1.379 6.7765,6.9185 7.9374,11.0625 -10.0019,11.61 -15.3235,-7.86325 -26.3124,-6.15625 -7.336,7.603 -17.3681,-3.507 -24.75,4.125 -1.467,7.249 -10.0021,5.4975 -15.625,7.8125 -1.181,3.62323 -2.2971,6.08215 -3.5,9.53125 z"
   id="path4766"
   inkscape:connector-curvature="0" /><path
   style="fill:#71c837;fill-opacity:1"
   d="m 492.96237,309.61124 c 0.7841,0.95634 1.6778,1.95679 3.0625,3 1.734,-0.327 0.3625,3.51625 1.1875,1.15625 0.055,-0.16231 0.1012,-0.2797 0.1563,-0.4375 -0.6661,-1.59171 -1.4507,-3.12226 -2.5626,-4.5 -0.4092,0.0582 -1.1285,0.40933 -1.8437,0.78125 z"
   id="path4764"
   inkscape:connector-curvature="0" /></svg>