<?xml version="1.0" encoding="utf-8"?>
<!-- Generator: Adobe Illustrator 15.1.0, SVG Export Plug-In . SVG Version: 6.00 Build 0)  -->
<!DOCTYPE svg PUBLIC "-//W3C//DTD SVG 1.1//EN" "http://www.w3.org/Graphics/SVG/1.1/DTD/svg11.dtd">
<svg version="1.1" id="Layer_1" xmlns="http://www.w3.org/2000/svg" xmlns:xlink="http://www.w3.org/1999/xlink" x="0px" y="0px"
	 width="842px" height="983px" viewBox="0 0 842 983" enable-background="new 0 0 842 983" xml:space="preserve">
<path fill="#FFFFFF" d="M774.75,69l-25,55v633.5c0,0-28,16.5-53,26s-142.5,28.5-165.5,36c-52,16-109.125,55.138-109.125,55.138
	S365,835.5,313,819.5c-23-7.5-140.5-26.5-165.5-36s-53-26-53-26V124l-25-55H774.75z"/>
<g>
	<path fill="#27286E" d="M421,875.441l-1.147-0.804c-0.547-0.383-55.312-38.465-105.382-52.21
		c-26.961-7.4-51.917-12.018-76.053-16.48c-21.848-4.041-42.482-7.857-63.929-13.515c-45.217-11.925-74.663-28.021-74.956-28.183
		l1.932-3.502c0.288,0.158,29.34,16.027,74.044,27.817c21.301,5.616,41.865,9.421,63.636,13.447
		c24.217,4.479,49.259,9.11,76.384,16.558c46.699,12.818,97.27,46.422,105.472,52.003c8.201-5.581,58.771-39.185,105.471-52.003
		c27.125-7.446,52.167-12.078,76.384-16.558c21.771-4.026,42.334-7.831,63.636-13.447c44.704-11.79,73.756-27.659,74.044-27.817
		l1.933,3.502c-0.292,0.161-29.739,16.258-74.956,28.183c-21.446,5.656-42.081,9.474-63.929,13.515
		c-24.135,4.464-49.092,9.08-76.053,16.48c-50.087,13.749-104.835,51.827-105.382,52.21L421,875.441z"/>
	<g>
		<path fill="#FFF000" d="M421,921.001c102.666,0,150.666,23.666,224.332,23.666c73.668,0,83-29.333,83-48.666s0-21.334,0-21.334
			s-29.332,18.667-65,18.667c-35.666,0-82.332-31-242.332-31s-206.667,31-242.333,31s-65-18.667-65-18.667s0,2.001,0,21.334
			s9.333,48.666,83,48.666S318.332,921.001,421,921.001z"/>
		<path fill="#27286E" d="M645.332,945.667c-33.87,0-62.63-5.043-93.077-10.382c-35.511-6.228-75.759-13.284-131.255-13.284
			c-55.497,0-95.745,7.058-131.256,13.284c-30.447,5.339-59.207,10.382-93.077,10.382c-55.738,0-84-16.71-84-49.666v-23.155
			l1.537,0.979c0.291,0.186,29.516,18.511,64.463,18.511c11.313,0,23.699-3.142,40.841-7.49c36.907-9.36,92.682-23.51,201.492-23.51
			c108.81,0,164.585,14.148,201.49,23.51c17.144,4.35,29.527,7.49,40.842,7.49c34.973,0,64.173-18.325,64.464-18.511l1.536-0.979
			v23.155C729.332,928.957,701.071,945.667,645.332,945.667z M421,920.001c55.671,0,96.01,7.073,131.601,13.314
			c30.359,5.322,59.035,10.352,92.731,10.352c54.411,0,82-16.037,82-47.666v-19.573c-6.53,3.776-33.046,17.906-64,17.906
			c-11.562,0-24.051-3.167-41.332-7.552c-36.812-9.337-92.439-23.448-201-23.448c-108.562,0-164.19,14.111-201,23.448
			c-17.282,4.385-29.77,7.552-41.333,7.552c-30.954,0-57.47-14.13-64-17.906v19.573c0,31.629,27.589,47.666,82,47.666
			c33.696,0,62.373-5.028,92.731-10.352C324.99,927.074,365.328,920.001,421,920.001z"/>
	</g>
	<path fill="#008455" d="M434.256,465.762c-4.235-0.211-8.434-0.78-12.601-1.329c-4.269-0.562-7.394-1.351-10.898-3.944
		c-7.873-5.827,7.563-15.386,10.859-19.538c5.759-7.255-0.253-12.704-1.978-19.887c-0.697-2.904-0.905-4.806,2.591-5.312
		c2.087-0.302,5.422-0.349,7.289,0.481c2.087,0.928,3.299,2.983,6.249,2.269c3.028-0.733,3.826-3.764,5.732-6.257
		c2.438-3.192,4.246-5.442,8.461-4.993c2.853,0.304,4.453,2.391,6.226,4.562c1.749,2.144,2.351,3.216,5.312,3.188
		c3.453-0.033,7.002-3.261,10.443-2.499c4.641,1.026,1.347,9.245,0.846,12.212c3.465,1.418,11.073-0.345,12.404,4.537
		c0.771,2.831-0.498,5.127-2.153,7.264c-4.356,5.623-9.943,8.737-12.545,15.437c-1.217,3.136-1.444,7.355-5.045,8.8
		c-2.501,1.003-5.901,1.5-8.506,2.028c-3.248,0.658-6.287,1.309-9.443,2.161c-0.896,0.241-1.817,0.35-2.732,0.494
		c-0.442,0.07-0.889,0.076-1.336,0.135c-0.479,0.062-0.953,0.148-1.436,0.176c-1.311,0.073-2.622-0.053-3.936-0.034
		C436.795,465.726,435.523,465.825,434.256,465.762z"/>
	<g>
		<path fill="#27286E" d="M92.735,45.158c-0.018-0.902-0.018-2.022,0-3.362c0.019-1.339,0.027-2.178,0.027-2.518
			c0-2.018,0.08-3.643,0.241-4.875s0.491-2.33,0.991-3.294c0.518-1,1.143-1.812,1.875-2.438c-1.947-0.25-2.93-1.571-2.946-3.964
			c0-1.089,0.209-2.134,0.629-3.134c0.419-1,0.933-1.5,1.54-1.5c0.214,0,0.344,0.049,0.388,0.146
			c0.044,0.099,0.049,0.259,0.015,0.482c-0.036,0.223-0.036,0.415,0,0.576c0.035,0.25,0.143,0.465,0.32,0.643
			c0.179,0.179,0.375,0.268,0.589,0.268h10.071c0.887,0,1.5,0.009,1.839,0.027c0.339,0.018,0.8,0.085,1.383,0.201
			c0.583,0.117,1.092,0.317,1.526,0.603c1.062,0.679,1.699,1.746,1.917,3.201c0.217,1.456,0.326,4.71,0.326,9.763
			c0,4.607-0.158,8.589-0.473,11.946c-0.051,0.696-0.199,1.152-0.447,1.366s-0.629,0.321-1.145,0.321H94.119
			c-0.302,0-0.523-0.022-0.665-0.067c-0.143-0.044-0.267-0.183-0.372-0.415c-0.106-0.232-0.168-0.607-0.187-1.125
			C92.807,47.01,92.753,46.06,92.735,45.158z M95.682,40.618c0.036,0.821,0.144,1.415,0.321,1.781
			c0.178,0.366,0.366,0.58,0.562,0.643c0.196,0.063,0.526,0.094,0.991,0.094c0.089,0,0.161,0,0.214,0h11.705
			c0.394,0,0.67-0.062,0.831-0.188c0.161-0.125,0.269-0.384,0.321-0.777c0.25-1.518,0.375-3.687,0.375-6.509
			c0-0.946-0.031-1.745-0.094-2.397c-0.063-0.652-0.188-1.375-0.375-2.169c-0.188-0.794-0.51-1.397-0.965-1.808
			s-1.03-0.616-1.728-0.616h-7.688c-1.285,0-2.316,0.536-3.094,1.607c-0.776,1.072-1.21,2.429-1.299,4.071
			C95.601,36.85,95.574,38.939,95.682,40.618z"/>
		<path fill="#27286E" d="M123.655,24.654c0-1.089,0.207-2.125,0.623-3.107c0.415-0.982,0.899-1.473,1.453-1.473
			c0.242,0,0.386,0.049,0.431,0.147c0.044,0.099,0.048,0.277,0.013,0.536c-0.036,0.259-0.054,0.451-0.054,0.576
			c0.054,0.25,0.178,0.455,0.375,0.616c0.195,0.161,0.384,0.241,0.562,0.241h2.651c1.429,0,2.491,0.272,3.188,0.817
			s1.188,1.612,1.474,3.201c0.25,1.339,0.219,2.759-0.095,4.259c-0.312,1.5-0.861,2.822-1.646,3.964
			c-0.769,1.161-1.563,2.099-2.384,2.812c-0.822,0.714-1.491,0.804-2.01,0.268c-0.464-0.518-0.331-1.143,0.402-1.875
			c1.821-1.732,2.598-3.411,2.331-5.036c-0.09-0.607-0.362-1.08-0.817-1.42c-0.456-0.339-0.986-0.509-1.594-0.509h-1.152
			c-1.29,0-2.236-0.326-2.842-0.978C123.958,27.042,123.655,26.029,123.655,24.654z"/>
		<path fill="#27286E" d="M144.825,24.708c0-1.072,0.204-2.112,0.615-3.121c0.41-1.009,0.919-1.513,1.526-1.513
			c0.214,0,0.344,0.049,0.389,0.147c0.044,0.099,0.049,0.259,0.014,0.482c-0.036,0.223-0.036,0.415,0,0.576
			c0.035,0.25,0.143,0.465,0.32,0.643c0.179,0.179,0.366,0.268,0.562,0.268h11.223c0.981,0,1.816,0.184,2.504,0.549
			c0.688,0.366,1.214,0.862,1.58,1.486c0.366,0.625,0.625,1.264,0.777,1.915c0.15,0.652,0.228,1.344,0.228,2.076
			c0,1.857,0,4.786,0,8.785c0,4,0,6.723,0,8.169c0,1.429-0.089,2.42-0.268,2.973c-0.179,0.482-0.505,0.893-0.979,1.232
			c-0.473,0.339-0.915,0.509-1.325,0.509c-0.18,0-0.331-0.076-0.455-0.228c-0.125-0.151-0.188-0.317-0.188-0.496V32.42
			c0-1.375-0.295-2.344-0.884-2.906s-1.696-0.844-3.321-0.844h-8.491c-1.339,0-2.312-0.317-2.919-0.951
			C145.128,27.087,144.825,26.083,144.825,24.708z"/>
		<path fill="#27286E" d="M174.888,24.708c0-1.072,0.205-2.112,0.616-3.121c0.41-1.009,0.897-1.513,1.463-1.513
			c0.205,0,0.334,0.049,0.387,0.147c0.052,0.099,0.065,0.259,0.039,0.482c-0.025,0.223-0.04,0.415-0.04,0.576
			c0.125,0.607,0.431,0.929,0.914,0.964l2.446,0.214c0.771,0.089,1.367,0.339,1.788,0.75s0.767,1.018,1.035,1.821
			c0.161,0.464,0.251,1.152,0.269,2.062c0.018,0.911-0.054,1.643-0.215,2.196c-0.089,0.304-0.273,0.429-0.551,0.375
			c-0.278-0.054-0.569-0.147-0.874-0.281c-0.306-0.134-0.654-0.067-1.048,0.201c-0.396,0.304-0.73,1.121-1.009,2.451
			c-0.277,1.33-0.309,2.745-0.094,4.245c0.646,4.911,1.819,7.196,3.522,6.857c0.417-2.768,0.809-4.75,1.174-5.946
			c0.261-0.982,0.779-2.165,1.553-3.549c0.774-1.384,1.233-2.334,1.377-2.853c0.304-0.982,0.413-1.581,0.325-1.795
			c-0.123-0.268-0.413-0.442-0.869-0.522c-0.457-0.081-0.805-0.174-1.044-0.281c-0.907-0.553-1.36-1.714-1.36-3.482
			c0-1.072,0.197-2.112,0.591-3.121c0.393-1.009,0.881-1.513,1.463-1.513c0.205,0,0.338,0.049,0.398,0.146
			c0.062,0.099,0.078,0.259,0.051,0.482c-0.026,0.223-0.04,0.415-0.04,0.576c0.036,0.25,0.152,0.465,0.35,0.643
			c0.197,0.179,0.385,0.268,0.564,0.268l2.419,0.241c1.56,0.161,2.526,0.938,2.903,2.33c0.466,1.732,0.403,3.25-0.188,4.554
			c-0.125,0.268-0.296,0.379-0.512,0.334c-0.215-0.044-0.457-0.134-0.726-0.268c-0.27-0.134-0.618-0.094-1.048,0.121
			c-0.27,0.125-0.502,0.473-0.699,1.044c-0.161,0.429-0.385,1.291-0.672,2.585s-0.564,2.308-0.832,3.04
			c-0.214,0.607-0.549,1.33-1.005,2.169s-0.825,1.625-1.107,2.357s-0.466,1.545-0.552,2.438h3.787c0.782,0,1.347-0.138,1.692-0.415
			c0.347-0.277,0.716-0.764,1.107-1.46c2.083-3.482,4.38-6.848,6.893-10.098c0.519-0.643,0.519-1.286,0-1.929
			c-0.304-0.393-0.875-0.598-1.714-0.616c-0.839-0.018-1.379-0.107-1.617-0.268c-0.958-0.571-1.438-1.786-1.438-3.643
			c0-1.072,0.196-2.112,0.59-3.121c0.395-1.009,0.881-1.513,1.463-1.513c0.205,0,0.338,0.049,0.399,0.147
			c0.061,0.099,0.078,0.259,0.052,0.482c-0.027,0.223-0.041,0.415-0.041,0.576c0.089,0.518,0.394,0.822,0.911,0.911l2.679,0.456
			c0.786,0.125,1.389,0.482,1.809,1.071c0.419,0.589,0.643,1.29,0.669,2.103s-0.014,1.567-0.121,2.263
			c-0.107,0.697-0.25,1.339-0.429,1.929c-0.34,1.036-1.019,2.353-2.036,3.951c-1.019,1.598-1.661,2.638-1.929,3.121
			c-0.554,1.071-1.491,2.946-2.813,5.625c-1.323,2.679-2.33,4.679-3.022,6c-0.249,0.393-0.461,0.643-0.639,0.75
			s-0.498,0.161-0.959,0.161h-10.919c-0.337,0-0.586-0.054-0.746-0.161s-0.284-0.357-0.373-0.75
			c-0.302-1.303-0.631-2.75-0.986-4.339c-0.354-1.589-0.59-2.665-0.706-3.228c-0.114-0.562-0.248-1.223-0.398-1.982
			c-0.151-0.759-0.258-1.354-0.32-1.781c-0.062-0.429-0.129-0.919-0.2-1.473c-0.249-2.125,0.202-4.232,1.354-6.321
			c0.341-0.678,0.197-1.071-0.43-1.178c-0.053,0-0.182-0.009-0.388-0.027c-0.207-0.018-0.399-0.049-0.58-0.094
			c-0.181-0.044-0.356-0.129-0.528-0.254C175.3,27.422,174.888,26.314,174.888,24.708z"/>
		<path fill="#27286E" d="M210.51,49.323c-0.089-0.196-0.08-0.482,0.027-0.857l1.259-4.741c0.053-0.25,0.143-0.411,0.268-0.482
			c0.125-0.071,0.349-0.107,0.669-0.107h5.68c0.88,0,1.446-0.518,1.698-1.554c0.09-0.428,0.135-0.964,0.135-1.607
			s-0.022-1.428-0.067-2.357c-0.045-0.928-0.067-1.669-0.067-2.223c0-1.196,0.058-2.304,0.17-3.321
			c0.114-1.018,0.136-1.705,0.065-2.062c-0.124-0.875-0.741-1.321-1.853-1.339h-1.188c-1.279,0-2.225-0.317-2.838-0.951
			c-0.613-0.634-0.92-1.638-0.92-3.013c0-1.072,0.199-2.112,0.597-3.121c0.397-1.009,0.892-1.513,1.479-1.513
			c0.208,0,0.334,0.049,0.378,0.147c0.043,0.099,0.051,0.259,0.023,0.482c-0.025,0.223-0.03,0.415-0.013,0.576
			c0.036,0.25,0.145,0.465,0.323,0.643c0.18,0.179,0.377,0.268,0.593,0.268h3.101c2.465,0,3.725,1.402,3.777,4.205
			c0,0.465-0.145,1.482-0.433,3.054c-0.533,2.643-0.8,4.598-0.8,5.866c0,1.197,0.236,2.746,0.71,4.647
			c0.473,1.901,0.736,3.219,0.79,3.951c0.125,1.768-0.045,3.348-0.51,4.741c-0.089,0.25-0.165,0.429-0.228,0.536
			c-0.063,0.107-0.197,0.206-0.402,0.295c-0.206,0.089-0.486,0.134-0.844,0.134h-10.725C210.885,49.617,210.6,49.519,210.51,49.323z
			"/>
		<path fill="#27286E" d="M257.709,24.654c0-1.089,0.207-2.125,0.623-3.107c0.415-0.982,0.898-1.473,1.453-1.473
			c0.241,0,0.385,0.049,0.43,0.147c0.044,0.099,0.048,0.277,0.013,0.536c-0.036,0.259-0.054,0.451-0.054,0.576
			c0.054,0.25,0.178,0.455,0.375,0.616c0.196,0.161,0.384,0.241,0.562,0.241h2.651c1.429,0,2.491,0.272,3.188,0.817
			c0.695,0.545,1.188,1.612,1.473,3.201c0.25,1.339,0.219,2.759-0.094,4.259s-0.862,2.822-1.647,3.964
			c-0.768,1.161-1.562,2.099-2.384,2.812c-0.822,0.714-1.491,0.804-2.009,0.268c-0.464-0.518-0.331-1.143,0.401-1.875
			c1.821-1.732,2.599-3.411,2.331-5.036c-0.09-0.607-0.361-1.08-0.816-1.42c-0.456-0.339-0.987-0.509-1.595-0.509h-1.151
			c-1.29,0-2.237-0.326-2.842-0.978C258.012,27.042,257.709,26.029,257.709,24.654z"/>
		<path fill="#27286E" d="M278.599,49.323c-0.098-0.196-0.085-0.482,0.041-0.857l1.232-4.741c0.054-0.25,0.143-0.411,0.268-0.482
			c0.125-0.071,0.357-0.107,0.696-0.107h11.65c1.715,0,2.929-0.696,3.644-2.089c0.714-1.393,1.071-3.348,1.071-5.866
			c0-1.714-0.397-3.228-1.192-4.54s-1.906-1.969-3.334-1.969h-5.759c-0.769,0-1.456,0.308-2.062,0.924
			c-0.606,0.616-1.009,1.272-1.205,1.969c-0.196,0.696-0.188,1.196,0.026,1.5c0.214,0.161,0.357,0.219,0.429,0.174
			c0.071-0.044,0.312-0.098,0.724-0.161c0.41-0.063,0.848-0.084,1.312-0.067c0.946,0.089,1.723,0.366,2.331,0.83
			c0.606,0.465,1.018,1.286,1.232,2.464c0.125,0.786,0.089,1.54-0.107,2.263c-0.196,0.723-0.616,1.085-1.259,1.085
			c-0.339,0-0.616-0.054-0.83-0.161c-0.214-0.107-0.354-0.214-0.415-0.322c-0.063-0.107-0.166-0.294-0.308-0.562
			c-0.305-0.643-1.019-0.964-2.144-0.964c-1.089,0-1.794,0.286-2.116,0.857c-0.161,0.268-0.286,0.464-0.375,0.589
			c-0.09,0.125-0.236,0.25-0.441,0.375c-0.206,0.125-0.47,0.188-0.791,0.188c-0.571,0-0.974-0.121-1.205-0.362
			c-0.232-0.241-0.349-0.611-0.349-1.111c0.054-1.125,0.224-2.357,0.51-3.696c0.606-2.768,1.705-4.714,3.294-5.839
			c-2.446,0.036-3.661-1.276-3.644-3.937c0-1.072,0.205-2.112,0.616-3.121c0.41-1.009,0.919-1.513,1.526-1.513
			c0.214,0,0.344,0.049,0.389,0.147c0.044,0.099,0.049,0.259,0.013,0.482c-0.035,0.223-0.035,0.415,0,0.576
			c0.036,0.25,0.144,0.465,0.321,0.643c0.179,0.179,0.366,0.268,0.562,0.268h9.455c1.554,0,2.778,0.214,3.678,0.643
			c0.897,0.428,1.562,1.178,1.988,2.25c1.15,2.803,1.682,6.428,1.593,10.875c-0.087,4.875-0.779,9.125-2.079,12.75
			c-0.206,0.607-0.655,0.911-1.35,0.911h-16.768C278.987,49.617,278.697,49.519,278.599,49.323z"/>
		<path fill="#27286E" d="M308.396,49.323c-0.089-0.196-0.08-0.482,0.027-0.857l1.259-4.741c0.053-0.25,0.143-0.411,0.268-0.482
			c0.125-0.071,0.349-0.107,0.669-0.107h5.68c0.88,0,1.446-0.518,1.698-1.554c0.09-0.428,0.135-0.964,0.135-1.607
			s-0.022-1.428-0.067-2.357c-0.045-0.928-0.067-1.669-0.067-2.223c0-1.196,0.058-2.304,0.171-3.321
			c0.113-1.018,0.135-1.705,0.064-2.062c-0.124-0.875-0.741-1.321-1.853-1.339h-1.188c-1.279,0-2.225-0.317-2.838-0.951
			c-0.613-0.634-0.92-1.638-0.92-3.013c0-1.072,0.199-2.112,0.597-3.121c0.397-1.009,0.892-1.513,1.479-1.513
			c0.208,0,0.334,0.049,0.378,0.147c0.043,0.099,0.051,0.259,0.023,0.482c-0.025,0.223-0.03,0.415-0.013,0.576
			c0.036,0.25,0.145,0.465,0.323,0.643c0.18,0.179,0.377,0.268,0.593,0.268h3.101c2.465,0,3.725,1.402,3.777,4.205
			c0,0.465-0.145,1.482-0.433,3.054c-0.533,2.643-0.8,4.598-0.8,5.866c0,1.197,0.236,2.746,0.71,4.647
			c0.473,1.901,0.736,3.219,0.79,3.951c0.125,1.768-0.045,3.348-0.51,4.741c-0.089,0.25-0.165,0.429-0.228,0.536
			c-0.063,0.107-0.197,0.206-0.402,0.295c-0.206,0.089-0.486,0.134-0.844,0.134h-10.725
			C308.771,49.617,308.485,49.519,308.396,49.323z"/>
		<path fill="#27286E" d="M332.697,49.323c-0.099-0.196-0.085-0.482,0.04-0.857l1.232-4.741c0.054-0.25,0.143-0.411,0.268-0.482
			c0.125-0.071,0.357-0.107,0.696-0.107h10.178c3.5,0,5.259-2.411,5.277-7.232c0-2.25-0.572-4.018-1.714-5.303
			c-1.144-1.286-2.857-1.929-5.144-1.929h-6.455c-1.304,0-2.264-0.312-2.879-0.938c-0.616-0.625-0.934-1.634-0.951-3.026
			c-0.035-1.072,0.161-2.112,0.59-3.121c0.429-1.009,0.945-1.513,1.554-1.513c0.214,0,0.343,0.049,0.388,0.147
			c0.044,0.099,0.049,0.259,0.015,0.482c-0.036,0.223-0.036,0.415,0,0.576c0.034,0.25,0.15,0.465,0.348,0.643
			c0.196,0.179,0.384,0.268,0.562,0.268h8.464c5.125,0,7.688,4.571,7.688,13.714c0,1.732-0.125,3.371-0.373,4.915
			c-0.249,1.545-0.639,2.996-1.17,4.353s-1.331,2.438-2.399,3.241c-1.067,0.803-2.315,1.205-3.744,1.205H333.54
			C333.075,49.617,332.795,49.519,332.697,49.323z"/>
		<path fill="#27286E" d="M384.654,10.619c0.178-2.036,0.519-3.054,1.019-3.054c0.25,0,0.481,0.161,0.695,0.482
			c0.214,0.321,0.479,0.545,0.797,0.669c0.212,0.054,0.595,0.125,1.148,0.214c0.554,0.089,1.002,0.232,1.345,0.429
			c0.343,0.196,0.621,0.527,0.837,0.991c0.307,0.393,0.383,0.934,0.229,1.621c-0.153,0.688-0.36,1.29-0.621,1.808
			s-0.554,1.188-0.878,2.009c-0.324,0.821-0.531,1.553-0.621,2.196c-0.036,0.732-0.054,1.411-0.054,2.036s0.279,1.143,0.841,1.554
			c0.561,0.411,1.411,0.616,2.55,0.616h11.287c0.946,0,1.589,0.116,1.928,0.348s0.644,0.723,0.911,1.473
			c0.269,0.679,0.451,1.862,0.549,3.549c0.099,1.688,0.084,2.978-0.04,3.87c-0.054,0.679-0.121,1.259-0.2,1.741
			c-0.08,0.482-0.229,1.103-0.442,1.861c-0.214,0.759-0.549,1.451-1.004,2.076c-0.456,0.625-1.022,1.169-1.701,1.634
			c-0.429,0.304-1.13,0.746-2.103,1.326c-0.974,0.581-1.75,1.058-2.33,1.433c-0.581,0.375-1.147,0.875-1.701,1.5
			s-0.911,1.277-1.071,1.955c-0.039,0.161,0,0.527,0.117,1.098c0.116,0.572,0.206,1.112,0.269,1.621
			c0.062,0.509-0.068,0.982-0.394,1.419c-0.325,0.438-0.905,0.674-1.74,0.71c-0.662,0.036-1.234-0.201-1.721-0.71
			c-0.486-0.509-0.758-1.111-0.816-1.808c-0.054-1.161,0.139-2.165,0.576-3.014c0.438-0.848,1.156-1.745,2.156-2.692
			c0.643-0.571,1.491-1.218,2.544-1.942c1.054-0.723,1.906-1.321,2.558-1.794c0.651-0.473,1.276-1.174,1.875-2.103
			c0.599-0.928,0.979-2,1.139-3.214c0.161-1.035,0.098-1.937-0.188-2.705c-0.286-0.768-0.821-1.152-1.606-1.152H387.03
			c-0.35,0-0.586-0.076-0.708-0.228c-0.122-0.151-0.201-0.442-0.235-0.871c-0.18-1.946-0.18-4.044,0-6.294
			c0.052-0.678,0.188-1.473,0.405-2.384c0.22-0.911,0.402-1.665,0.552-2.263c0.147-0.598,0.267-1.223,0.354-1.875
			c0.087-0.652,0.043-1.058-0.131-1.219c-0.175-0.339-0.516-0.589-1.022-0.75s-0.902-0.388-1.188-0.683
			C384.77,11.811,384.636,11.315,384.654,10.619z"/>
		<path fill="#27286E" d="M415.64,55.188l0.375-5.33c0.036-0.393,0.121-0.67,0.254-0.831c0.134-0.161,0.371-0.303,0.71-0.429
			l5.303-2.009c0.857-0.339,1.571-0.772,2.144-1.299c0.57-0.526,0.839-1.112,0.803-1.754c-0.053-0.553-0.21-1.067-0.469-1.54
			c-0.259-0.473-0.474-0.799-0.644-0.978c-0.17-0.178-0.478-0.482-0.924-0.911c-0.606-0.571-1.089-1.04-1.446-1.406
			c-0.356-0.366-0.719-0.848-1.084-1.446c-0.365-0.598-0.594-1.183-0.683-1.754c-0.09-0.571-0.049-1.37,0.121-2.397
			c0.169-1.027,0.315-1.821,0.441-2.384c0.125-0.562,0.107-1.058-0.054-1.487c-0.214-0.25-0.679-0.451-1.393-0.603
			c-0.714-0.151-1.214-0.299-1.5-0.442c-1-0.571-1.5-1.732-1.5-3.482c0-1.072,0.205-2.112,0.616-3.121
			c0.41-1.009,0.919-1.513,1.526-1.513c0.214,0,0.344,0.049,0.39,0.146c0.044,0.099,0.053,0.259,0.025,0.482
			c-0.025,0.223-0.021,0.415,0.014,0.576c0.055,0.465,0.34,0.75,0.857,0.857c0.429,0.09,1.076,0.174,1.942,0.255
			c0.865,0.08,1.565,0.219,2.103,0.415c0.535,0.197,1.019,0.554,1.446,1.071c0.356,0.464,0.565,1.335,0.63,2.611
			c0.062,1.277-0.13,2.264-0.576,2.96c-0.09,0.125-0.411,0.081-0.965-0.134s-0.955-0.223-1.205-0.027
			c-0.25,0.161-0.402,0.669-0.456,1.527c-0.053,0.857,0.054,1.687,0.322,2.491c0.178,0.482,0.565,1.022,1.165,1.621
			c0.599,0.599,1.196,1.237,1.795,1.915c0.598,0.679,1.013,1.419,1.245,2.223c0.464,1.429,0.464,3.045,0,4.848
			c0.768-0.518,1.326-1.161,1.674-1.929c0.349-0.768,0.67-1.701,0.965-2.799c0.295-1.098,0.638-2.022,1.031-2.772
			c0.393-0.785,0.91-1.661,1.554-2.625c0.644-0.964,1.125-1.728,1.446-2.291s0.48-1.075,0.48-1.54
			c-0.034-0.303-0.16-0.553-0.378-0.75c-0.218-0.196-0.491-0.312-0.822-0.348c-1.429-0.089-2.465-0.459-3.108-1.111
			c-0.644-0.652-0.967-1.665-0.967-3.04c0-1.072,0.2-2.112,0.601-3.121c0.399-1.009,0.896-1.513,1.487-1.513
			c0.209,0,0.335,0.049,0.379,0.147c0.044,0.099,0.052,0.259,0.026,0.482c-0.026,0.223-0.022,0.415,0.013,0.576
			c0.034,0.339,0.191,0.589,0.47,0.75c0.279,0.161,0.554,0.259,0.822,0.294c0.27,0.036,0.64,0.072,1.109,0.107
			c0.087,0,0.155,0,0.209,0c3.101,0.125,4.753,1.295,4.955,3.509c0.054,0.607,0.003,1.179-0.152,1.714
			c-0.156,0.536-0.325,0.942-0.509,1.219c-0.185,0.277-0.482,0.656-0.896,1.138c-0.414,0.482-0.692,0.848-0.839,1.098
			c-0.565,0.786-1.066,1.768-1.504,2.946c-0.438,1.178-0.766,2.201-0.984,3.067c-0.219,0.866-0.511,2.166-0.875,3.897
			c-0.036,0.054-0.09,0.268-0.161,0.643c-0.07,0.375-0.115,0.599-0.134,0.669c-0.018,0.072-0.065,0.268-0.146,0.589
			c-0.08,0.321-0.135,0.536-0.16,0.643c-0.027,0.107-0.08,0.304-0.161,0.589c-0.08,0.286-0.151,0.5-0.214,0.643
			s-0.13,0.326-0.201,0.549c-0.071,0.223-0.151,0.419-0.241,0.589c-0.089,0.17-0.188,0.353-0.294,0.549
			c-0.106,0.197-0.224,0.384-0.349,0.562c-0.786,1.196-1.64,2.139-2.559,2.826c-0.92,0.688-2.03,1.334-3.335,1.942l-8.65,4.018
			c-0.394,0.214-0.656,0.286-0.79,0.214C415.627,55.968,415.586,55.688,415.64,55.188z"/>
		<path fill="#27286E" d="M472.363,45.158c-0.019-0.902-0.019-2.022,0-3.362c0.019-1.339,0.026-2.178,0.026-2.518
			c0-2.018,0.08-3.643,0.241-4.875c0.159-1.232,0.49-2.33,0.99-3.294c0.519-1,1.144-1.812,1.875-2.438
			c-1.946-0.25-2.929-1.571-2.945-3.964c0-1.089,0.209-2.134,0.629-3.134s0.933-1.5,1.54-1.5c0.215,0,0.344,0.049,0.389,0.146
			c0.044,0.099,0.049,0.259,0.014,0.482c-0.035,0.223-0.035,0.415,0,0.576c0.035,0.25,0.144,0.465,0.321,0.643
			c0.178,0.179,0.375,0.268,0.589,0.268h10.071c0.887,0,1.5,0.009,1.839,0.027c0.339,0.018,0.801,0.085,1.383,0.201
			c0.583,0.117,1.092,0.317,1.526,0.603c1.061,0.679,1.699,1.746,1.917,3.201c0.217,1.456,0.326,4.71,0.326,9.763
			c0,4.607-0.158,8.589-0.475,11.946c-0.05,0.696-0.197,1.152-0.445,1.366s-0.63,0.321-1.145,0.321h-17.284
			c-0.302,0-0.522-0.022-0.665-0.067c-0.142-0.044-0.266-0.183-0.372-0.415c-0.105-0.232-0.169-0.607-0.187-1.125
			C472.435,47.01,472.381,46.06,472.363,45.158z M475.31,40.618c0.035,0.821,0.143,1.415,0.321,1.781
			c0.178,0.366,0.364,0.58,0.562,0.643c0.196,0.063,0.526,0.094,0.991,0.094c0.089,0,0.16,0,0.214,0h11.705
			c0.393,0,0.67-0.062,0.83-0.188c0.161-0.125,0.268-0.384,0.321-0.777c0.25-1.518,0.375-3.687,0.375-6.509
			c0-0.946-0.031-1.745-0.095-2.397c-0.062-0.652-0.188-1.375-0.375-2.169c-0.187-0.794-0.509-1.397-0.964-1.808
			s-1.031-0.616-1.728-0.616h-7.688c-1.285,0-2.315,0.536-3.094,1.607c-0.776,1.072-1.21,2.429-1.299,4.071
			C475.229,36.85,475.201,38.939,475.31,40.618z"/>
		<path fill="#27286E" d="M503.431,49.323c-0.1-0.196-0.085-0.482,0.04-0.857l1.23-4.741c0.055-0.25,0.145-0.411,0.27-0.482
			c0.124-0.071,0.355-0.107,0.696-0.107h10.178c3.5,0,5.259-2.411,5.276-7.232c0-2.25-0.571-4.018-1.715-5.303
			c-1.143-1.285-2.856-1.929-5.143-1.929h-6.455c-1.304,0-2.264-0.312-2.879-0.938c-0.616-0.625-0.935-1.634-0.951-3.026
			c-0.036-1.072,0.161-2.112,0.589-3.121c0.429-1.009,0.946-1.513,1.554-1.513c0.216,0,0.345,0.049,0.39,0.147
			c0.044,0.099,0.049,0.259,0.014,0.482c-0.036,0.223-0.036,0.415,0,0.576c0.035,0.25,0.151,0.465,0.348,0.643
			c0.196,0.179,0.385,0.268,0.562,0.268h8.464c5.125,0,7.688,4.571,7.688,13.714c0,1.732-0.125,3.371-0.373,4.915
			c-0.249,1.545-0.641,2.996-1.171,4.353s-1.33,2.438-2.398,3.241c-1.068,0.803-2.316,1.205-3.745,1.205h-11.624
			C503.81,49.617,503.528,49.519,503.431,49.323z"/>
		<path fill="#27286E" d="M531.92,49.323c-0.099-0.196-0.086-0.482,0.039-0.857l1.232-4.741c0.054-0.25,0.143-0.411,0.268-0.482
			c0.125-0.071,0.357-0.107,0.696-0.107h1.795c0.357,0,0.651-0.04,0.884-0.121c0.232-0.08,0.381-0.209,0.442-0.388
			c0.062-0.178,0.094-0.321,0.094-0.429c0-0.107-0.042-0.312-0.125-0.616c-0.083-0.303-0.124-0.491-0.124-0.562
			c-0.465-2.411-0.445-4.723,0.056-6.937c0.479-2.125,1.622-3.928,3.429-5.411h-0.799c-1.297,0-2.262-0.317-2.892-0.951
			c-0.631-0.634-0.945-1.638-0.945-3.013c0-1.072,0.194-2.112,0.586-3.121c0.39-1.009,0.874-1.513,1.451-1.513
			c0.221,0,0.354,0.049,0.399,0.147c0.046,0.099,0.057,0.259,0.028,0.482c-0.028,0.223-0.023,0.415,0.014,0.576
			c0.036,0.25,0.147,0.465,0.331,0.643c0.186,0.179,0.369,0.268,0.554,0.268h12.148c0.945,0,1.762,0.184,2.449,0.549
			c0.687,0.366,1.213,0.862,1.579,1.486c0.364,0.625,0.633,1.264,0.803,1.915c0.169,0.652,0.254,1.344,0.254,2.076
			c0,1.857-0.009,4.786-0.026,8.785c-0.019,4-0.026,6.723-0.026,8.169c0,1.429-0.089,2.42-0.269,2.973
			c-0.159,0.482-0.481,0.893-0.964,1.232c-0.481,0.339-0.92,0.509-1.312,0.509c-0.18,0-0.331-0.076-0.455-0.228
			c-0.126-0.151-0.188-0.317-0.188-0.496V32.42c0-1.375-0.3-2.344-0.897-2.906c-0.599-0.562-1.691-0.844-3.281-0.844h-3.269
			c-0.911,0-1.631,0.147-2.156,0.442c-0.527,0.295-1.096,0.835-1.701,1.621c-1.036,1.339-1.582,3.018-1.638,5.036
			c-0.036,1.196,0.125,2.669,0.483,4.419c0.359,1.75,0.539,3.277,0.539,4.58c0,1.518-0.358,2.857-1.078,4.018
			c-0.351,0.554-0.839,0.831-1.466,0.831h-6.072C532.309,49.617,532.019,49.519,531.92,49.323z"/>
		<path fill="#27286E" d="M566.797,48.653c-0.062-0.643,0.058-1.143,0.36-1.5c0.161-0.25,0.491-0.406,0.991-0.469
			c0.5-0.062,0.777-0.147,0.831-0.254c0.16-0.339,0.2-0.763,0.12-1.272c-0.08-0.509-0.219-1.045-0.415-1.607
			c-0.197-0.562-0.34-1.245-0.429-2.049c-0.09-0.804-0.071-1.696,0.054-2.679c0.214-1.339,0.714-2.54,1.5-3.604
			c0.785-1.062,1.856-2.129,3.214-3.201l-3.535-4.151c-0.554-0.679-0.941-1.393-1.165-2.143s-0.305-1.437-0.24-2.062
			c0.062-0.625,0.204-1.196,0.429-1.714c0.223-0.518,0.513-0.928,0.87-1.232c0.356-0.303,0.695-0.455,1.018-0.455
			c0.394,0,0.644,0.103,0.75,0.308c0.107,0.206,0.225,0.549,0.35,1.031c0.124,0.482,0.355,0.92,0.695,1.312l9.644,11.625
			c0.304-2.125,1.143-3.973,2.518-5.544c-0.679-0.178-1.191-0.334-1.54-0.469c-0.349-0.134-0.719-0.352-1.11-0.656
			c-0.395-0.304-0.676-0.714-0.845-1.232c-0.17-0.518-0.255-1.178-0.255-1.982c0-1.089,0.215-2.125,0.644-3.107
			s0.945-1.473,1.554-1.473c0.215,0,0.344,0.049,0.389,0.147c0.044,0.099,0.049,0.277,0.014,0.536c-0.035,0.259-0.035,0.451,0,0.576
			c0.054,0.464,0.438,0.75,1.151,0.857l1.5,0.268c1.554,0.25,2.644,0.625,3.269,1.125s0.938,1.375,0.938,2.625
			c0,1.036-0.076,1.853-0.228,2.451c-0.152,0.598-0.366,0.964-0.644,1.098c-0.277,0.134-0.594,0.13-0.951-0.014
			c-1.07-0.464-2.106,0.429-3.106,2.679c-0.464,1.036-0.72,2.103-0.764,3.201c-0.045,1.098,0.209,2.058,0.764,2.879l3.644,4.393
			c0.553,0.643,0.924,1.393,1.111,2.25s0.201,1.616,0.04,2.277c-0.125,0.732-0.491,1.397-1.1,1.996
			c-0.605,0.598-1.195,0.817-1.768,0.656c-0.25-0.054-0.406-0.157-0.469-0.308c-0.062-0.152-0.085-0.322-0.066-0.509
			c0.019-0.188-0.005-0.419-0.066-0.696c-0.062-0.276-0.201-0.549-0.415-0.817L574.926,34.35c-1.339,0.911-2.035,1.929-2.089,3.054
			c-0.036,0.732,0.139,1.518,0.521,2.357c0.384,0.84,0.812,1.59,1.285,2.25c0.474,0.661,0.915,1.46,1.326,2.397
			c0.411,0.937,0.616,1.853,0.616,2.745c0,1.643-0.51,2.464-1.526,2.464h-7.34C567.166,49.617,566.859,49.296,566.797,48.653z"/>
		<path fill="#27286E" d="M624.323,48.653c-0.062-0.643,0.059-1.143,0.361-1.5c0.161-0.25,0.491-0.406,0.991-0.469
			c0.5-0.062,0.776-0.147,0.831-0.254c0.16-0.339,0.199-0.763,0.12-1.272c-0.08-0.509-0.22-1.045-0.415-1.607
			c-0.197-0.562-0.341-1.245-0.43-2.049c-0.09-0.804-0.07-1.696,0.055-2.679c0.214-1.339,0.714-2.54,1.5-3.604
			c0.784-1.062,1.855-2.129,3.214-3.201l-3.535-4.151c-0.554-0.679-0.942-1.393-1.165-2.143c-0.224-0.75-0.305-1.437-0.241-2.062
			c0.062-0.625,0.205-1.196,0.429-1.714c0.224-0.518,0.514-0.928,0.87-1.232c0.357-0.303,0.696-0.455,1.019-0.455
			c0.393,0,0.643,0.103,0.75,0.308c0.106,0.206,0.224,0.549,0.349,1.031c0.124,0.482,0.356,0.92,0.696,1.312l9.643,11.625
			c0.305-2.125,1.144-3.973,2.519-5.544c-0.68-0.178-1.192-0.334-1.54-0.469c-0.35-0.134-0.719-0.352-1.111-0.656
			c-0.394-0.304-0.675-0.714-0.844-1.232c-0.17-0.518-0.255-1.178-0.255-1.982c0-1.089,0.215-2.125,0.643-3.107
			c0.429-0.982,0.946-1.473,1.554-1.473c0.216,0,0.345,0.049,0.39,0.147c0.044,0.099,0.049,0.277,0.014,0.536
			c-0.036,0.259-0.036,0.451,0,0.576c0.053,0.464,0.438,0.75,1.151,0.857l1.5,0.268c1.554,0.25,2.643,0.625,3.268,1.125
			s0.938,1.375,0.938,2.625c0,1.036-0.076,1.853-0.229,2.451c-0.151,0.598-0.366,0.964-0.643,1.098
			c-0.277,0.134-0.595,0.13-0.951-0.014c-1.071-0.464-2.107,0.429-3.107,2.679c-0.464,1.036-0.719,2.103-0.763,3.201
			c-0.045,1.098,0.209,2.058,0.763,2.879l3.645,4.393c0.553,0.643,0.924,1.393,1.11,2.25c0.188,0.857,0.201,1.616,0.04,2.277
			c-0.125,0.732-0.49,1.397-1.099,1.996c-0.605,0.598-1.196,0.817-1.768,0.656c-0.25-0.054-0.406-0.157-0.47-0.308
			c-0.062-0.152-0.085-0.322-0.065-0.509c0.018-0.188-0.005-0.419-0.067-0.696c-0.062-0.276-0.201-0.549-0.415-0.817L632.451,34.35
			c-1.339,0.911-2.034,1.929-2.089,3.054c-0.036,0.732,0.14,1.518,0.522,2.357c0.384,0.84,0.812,1.59,1.285,2.25
			c0.474,0.661,0.914,1.46,1.325,2.397c0.411,0.937,0.616,1.853,0.616,2.745c0,1.643-0.509,2.464-1.525,2.464h-7.341
			C624.693,49.617,624.386,49.296,624.323,48.653z"/>
		<path fill="#27286E" d="M657.882,24.708c0-1.072,0.205-2.112,0.616-3.121c0.41-1.009,0.897-1.513,1.464-1.513
			c0.205,0,0.334,0.049,0.387,0.147c0.052,0.099,0.063,0.259,0.038,0.482c-0.026,0.223-0.04,0.415-0.04,0.576
			c0.125,0.607,0.43,0.929,0.914,0.964l2.446,0.214c0.771,0.089,1.365,0.339,1.786,0.75s0.768,1.018,1.035,1.821
			c0.161,0.464,0.251,1.152,0.27,2.062c0.018,0.91-0.055,1.643-0.216,2.196c-0.09,0.304-0.272,0.429-0.551,0.375
			c-0.277-0.054-0.568-0.147-0.874-0.281c-0.305-0.134-0.653-0.067-1.049,0.201c-0.394,0.304-0.729,1.121-1.008,2.451
			c-0.279,1.33-0.31,2.745-0.094,4.245c0.645,4.911,1.818,7.196,3.521,6.857c0.418-2.768,0.811-4.75,1.175-5.946
			c0.262-0.982,0.778-2.165,1.554-3.549c0.774-1.384,1.232-2.334,1.377-2.853c0.305-0.982,0.413-1.581,0.324-1.795
			c-0.123-0.268-0.412-0.442-0.868-0.522c-0.456-0.081-0.806-0.174-1.044-0.281c-0.907-0.553-1.36-1.714-1.36-3.482
			c0-1.072,0.196-2.112,0.591-3.121s0.881-1.513,1.463-1.513c0.205,0,0.338,0.049,0.399,0.146c0.061,0.099,0.078,0.259,0.051,0.482
			c-0.026,0.223-0.04,0.415-0.04,0.576c0.036,0.25,0.152,0.465,0.35,0.643c0.197,0.179,0.386,0.268,0.564,0.268l2.419,0.241
			c1.56,0.161,2.526,0.938,2.903,2.33c0.466,1.732,0.402,3.25-0.188,4.554c-0.125,0.268-0.296,0.379-0.511,0.334
			c-0.215-0.044-0.457-0.134-0.726-0.268c-0.27-0.134-0.618-0.094-1.049,0.121c-0.269,0.125-0.502,0.473-0.698,1.044
			c-0.161,0.429-0.386,1.291-0.672,2.585c-0.287,1.294-0.564,2.308-0.832,3.04c-0.215,0.607-0.551,1.33-1.006,2.169
			s-0.824,1.625-1.106,2.357s-0.466,1.545-0.552,2.438h3.787c0.781,0,1.347-0.138,1.692-0.415c0.347-0.277,0.716-0.764,1.106-1.46
			c2.083-3.482,4.381-6.848,6.894-10.098c0.519-0.643,0.519-1.286,0-1.929c-0.304-0.393-0.875-0.598-1.714-0.616
			c-0.84-0.018-1.379-0.107-1.619-0.268c-0.958-0.571-1.437-1.786-1.437-3.643c0-1.072,0.195-2.112,0.59-3.121
			c0.394-1.009,0.882-1.513,1.464-1.513c0.205,0,0.338,0.049,0.399,0.147c0.061,0.099,0.077,0.259,0.051,0.482
			c-0.026,0.223-0.04,0.415-0.04,0.576c0.089,0.518,0.393,0.822,0.911,0.911l2.678,0.456c0.786,0.125,1.389,0.482,1.809,1.071
			c0.419,0.589,0.644,1.29,0.669,2.103c0.027,0.813-0.013,1.567-0.119,2.263c-0.107,0.697-0.25,1.339-0.43,1.929
			c-0.339,1.036-1.018,2.353-2.035,3.951c-1.019,1.598-1.66,2.638-1.929,3.121c-0.554,1.071-1.491,2.946-2.813,5.625
			c-1.322,2.679-2.329,4.679-3.021,6c-0.249,0.393-0.462,0.643-0.64,0.75c-0.177,0.107-0.497,0.161-0.959,0.161H663.42
			c-0.337,0-0.586-0.054-0.745-0.161c-0.16-0.107-0.284-0.357-0.373-0.75c-0.303-1.303-0.631-2.75-0.985-4.339
			c-0.354-1.589-0.591-2.665-0.706-3.228c-0.114-0.563-0.248-1.223-0.398-1.982c-0.15-0.759-0.258-1.354-0.319-1.781
			c-0.062-0.429-0.129-0.919-0.2-1.473c-0.248-2.125,0.202-4.232,1.354-6.321c0.34-0.678,0.195-1.071-0.432-1.178
			c-0.052,0-0.181-0.009-0.387-0.027s-0.398-0.049-0.58-0.094c-0.181-0.045-0.356-0.129-0.527-0.254
			C658.295,27.422,657.882,26.314,657.882,24.708z"/>
		<path fill="#27286E" d="M694.842,48.653c-0.062-0.643,0.058-1.143,0.36-1.5c0.161-0.25,0.491-0.406,0.991-0.469
			c0.5-0.062,0.777-0.147,0.831-0.254c0.16-0.339,0.2-0.763,0.12-1.272c-0.08-0.509-0.219-1.045-0.415-1.607
			c-0.197-0.562-0.34-1.245-0.429-2.049c-0.09-0.804-0.071-1.696,0.054-2.679c0.214-1.339,0.714-2.54,1.5-3.604
			c0.785-1.062,1.856-2.129,3.214-3.201l-3.535-4.151c-0.554-0.679-0.941-1.393-1.165-2.143s-0.305-1.437-0.24-2.062
			c0.062-0.625,0.205-1.196,0.429-1.714c0.223-0.518,0.513-0.928,0.87-1.232c0.356-0.303,0.696-0.455,1.018-0.455
			c0.394,0,0.644,0.103,0.75,0.308c0.107,0.206,0.225,0.549,0.35,1.031c0.124,0.482,0.355,0.92,0.695,1.312l9.644,11.625
			c0.304-2.125,1.143-3.973,2.518-5.544c-0.679-0.178-1.191-0.334-1.54-0.469c-0.349-0.134-0.719-0.352-1.11-0.656
			c-0.395-0.304-0.676-0.714-0.845-1.232c-0.17-0.518-0.255-1.178-0.255-1.982c0-1.089,0.215-2.125,0.644-3.107
			s0.945-1.473,1.554-1.473c0.215,0,0.344,0.049,0.389,0.147c0.044,0.099,0.049,0.277,0.015,0.536c-0.036,0.259-0.036,0.451,0,0.576
			c0.053,0.464,0.437,0.75,1.15,0.857l1.5,0.268c1.554,0.25,2.644,0.625,3.269,1.125s0.938,1.375,0.938,2.625
			c0,1.036-0.076,1.853-0.228,2.451c-0.152,0.598-0.366,0.964-0.644,1.098c-0.276,0.134-0.594,0.13-0.951-0.014
			c-1.07-0.464-2.106,0.429-3.106,2.679c-0.464,1.036-0.719,2.103-0.763,3.201c-0.046,1.098,0.209,2.058,0.763,2.879l3.644,4.393
			c0.553,0.643,0.924,1.393,1.111,2.25s0.201,1.616,0.04,2.277c-0.125,0.732-0.491,1.397-1.099,1.996
			c-0.606,0.598-1.196,0.817-1.769,0.656c-0.25-0.054-0.406-0.157-0.469-0.308c-0.062-0.152-0.085-0.322-0.066-0.509
			c0.019-0.188-0.005-0.419-0.066-0.696c-0.062-0.276-0.201-0.549-0.415-0.817L702.971,34.35c-1.339,0.911-2.035,1.929-2.089,3.054
			c-0.036,0.732,0.139,1.518,0.521,2.357c0.384,0.84,0.812,1.59,1.285,2.25c0.474,0.661,0.915,1.46,1.326,2.397
			c0.411,0.937,0.616,1.853,0.616,2.745c0,1.643-0.51,2.464-1.526,2.464h-7.34C695.212,49.617,694.904,49.296,694.842,48.653z"/>
		<path fill="#27286E" d="M728.694,24.654c0-1.089,0.203-2.125,0.609-3.107s0.895-1.473,1.466-1.473
			c0.244,0,0.388,0.049,0.432,0.147c0.043,0.099,0.047,0.277,0.012,0.536c-0.036,0.259-0.055,0.451-0.055,0.576
			c0.055,0.25,0.175,0.455,0.363,0.616c0.188,0.161,0.373,0.241,0.553,0.241h2.449c2.021,0,3.372,0.509,4.053,1.527
			c0.681,1.018,1.021,2.518,1.021,4.5c0,1.286,0.018,3.241,0.054,5.866c0.035,2.625,0.044,4.879,0.026,6.763
			c-0.019,1.884-0.055,3.728-0.106,5.531c-0.036,1.089-0.331,1.946-0.885,2.571s-1.099,0.938-1.634,0.938
			c-0.16,0-0.294-0.054-0.401-0.161s-0.161-0.231-0.161-0.375c0-2.106,0-5.058,0-8.852s0-6.29,0-7.486
			c0-0.697-0.009-1.209-0.025-1.54c-0.02-0.331-0.096-0.71-0.229-1.139c-0.135-0.428-0.332-0.741-0.593-0.938
			c-0.26-0.196-0.639-0.366-1.131-0.509c-0.493-0.143-1.1-0.214-1.816-0.214h-0.242c-1.278,0-2.225-0.326-2.838-0.978
			C729,27.042,728.694,26.029,728.694,24.654z"/>
	</g>
	<polygon fill="#27286E" points="752,690 742,690 742,119.81 766.627,71 75.373,71 100,119.81 100,690 90,690 90,122.19 59.127,61 
		782.872,61 752,122.19 	"/>
	<g>
		<path fill="#27286E" d="M197.108,903.757c0-1.071,0.205-2.11,0.616-3.12c0.411-1.009,0.911-1.514,1.5-1.514
			c0.25,0,0.394,0.05,0.428,0.146c0.036,0.1,0.041,0.26,0.015,0.482c-0.027,0.223-0.022,0.415,0.013,0.576
			c0.036,0.25,0.143,0.464,0.322,0.643c0.178,0.18,0.356,0.269,0.536,0.269h4.147c1.135,0,1.986,0.401,2.554,1.205
			c0.568,0.804,0.853,1.82,0.853,3.054c0,1.518-0.491,3.134-1.473,4.848c-0.947,1.411-1.421,2.706-1.421,3.886
			c0,1.553,0.175,5.284,0.522,11.194s0.513,9.401,0.496,10.474c-0.089,1.715-0.562,2.991-1.419,3.831
			c-0.482,0.48-1.063,0.83-1.741,1.044c-0.679,0.215-1.106,0.143-1.286-0.214c-0.054-0.091-0.089-0.165-0.106-0.229
			c-0.019-0.062-0.015-0.134,0.013-0.215c0.027-0.08,0.067-0.25,0.121-0.509s0.106-0.595,0.161-1.004
			c0.054-0.411,0.098-1.036,0.134-1.875c0.036-0.841,0.071-1.821,0.107-2.946c0-1.465,0.058-4.817,0.174-10.059
			c0.115-5.24,0.235-8.728,0.361-10.46c0.049-0.945,0.265-1.839,0.646-2.679c0.382-0.839,0.573-1.455,0.573-1.848
			c0-0.269-0.122-0.505-0.366-0.71s-0.504-0.309-0.78-0.309h-1.868c-1.339,0-2.312-0.316-2.919-0.95
			C197.414,906.135,197.108,905.133,197.108,903.757z"/>
		<path fill="#27286E" d="M217.98,903.858c-0.065-1.087,0.078-2.135,0.433-3.141c0.354-1.005,0.808-1.523,1.359-1.559
			c0.241-0.016,0.389,0.025,0.438,0.121s0.064,0.272,0.045,0.533c-0.021,0.262-0.026,0.453-0.019,0.578
			c0.068,0.246,0.206,0.443,0.412,0.593c0.206,0.147,0.398,0.217,0.576,0.205l2.646-0.16c1.426-0.088,2.503,0.119,3.23,0.62
			c0.729,0.503,1.283,1.536,1.666,3.105c0.331,1.321,0.386,2.74,0.166,4.256c-0.221,1.517-0.688,2.869-1.403,4.058
			c-0.695,1.205-1.432,2.189-2.207,2.952c-0.776,0.765-1.439,0.894-1.989,0.391c-0.495-0.488-0.4-1.12,0.287-1.896
			c1.712-1.84,2.386-3.562,2.02-5.168c-0.126-0.601-0.427-1.057-0.901-1.367c-0.476-0.312-1.017-0.447-1.622-0.411l-1.149,0.07
			c-1.287,0.078-2.252-0.188-2.896-0.803C218.428,906.224,218.064,905.231,217.98,903.858z"/>
		<path fill="#27286E" d="M243.32,932.168l-0.501-5.319c-0.028-0.394,0.011-0.681,0.115-0.86c0.106-0.182,0.316-0.359,0.63-0.539
			l4.904-2.849c0.79-0.475,1.424-1.019,1.902-1.632c0.478-0.612,0.646-1.233,0.506-1.861c-0.144-0.537-0.382-1.02-0.714-1.443
			c-0.333-0.424-0.598-0.711-0.794-0.859c-0.197-0.146-0.551-0.396-1.061-0.747c-0.692-0.465-1.245-0.848-1.657-1.15
			c-0.412-0.302-0.848-0.72-1.306-1.249c-0.459-0.53-0.779-1.07-0.961-1.619s-0.272-1.344-0.272-2.385
			c-0.001-1.041,0.016-1.85,0.047-2.426c0.03-0.574-0.067-1.061-0.297-1.457c-0.252-0.212-0.743-0.334-1.473-0.366
			c-0.729-0.033-1.247-0.098-1.552-0.191c-1.081-0.398-1.763-1.463-2.049-3.188c-0.176-1.058-0.144-2.116,0.098-3.181
			c0.24-1.062,0.66-1.643,1.259-1.742c0.211-0.034,0.348-0.008,0.407,0.082c0.06,0.091,0.095,0.247,0.105,0.472
			c0.01,0.226,0.046,0.414,0.106,0.565c0.129,0.449,0.457,0.686,0.986,0.705c0.438,0.02,1.089-0.004,1.958-0.064
			c0.867-0.062,1.582-0.041,2.142,0.064c0.561,0.106,1.095,0.38,1.603,0.82c0.428,0.399,0.776,1.225,1.048,2.474
			c0.27,1.25,0.242,2.254-0.084,3.016c-0.068,0.138-0.394,0.146-0.974,0.024c-0.582-0.121-0.979-0.063-1.193,0.17
			c-0.221,0.2-0.287,0.728-0.2,1.581c0.087,0.854,0.329,1.656,0.725,2.405c0.254,0.446,0.727,0.916,1.414,1.408
			c0.688,0.492,1.382,1.023,2.083,1.596s1.231,1.235,1.592,1.99c0.691,1.333,0.956,2.928,0.792,4.782
			c0.674-0.637,1.119-1.361,1.337-2.177c0.218-0.813,0.383-1.786,0.493-2.919c0.111-1.132,0.3-2.1,0.564-2.902
			c0.259-0.841,0.627-1.787,1.104-2.845c0.478-1.057,0.828-1.889,1.054-2.495c0.225-0.607,0.3-1.141,0.224-1.599
			c-0.084-0.294-0.25-0.52-0.496-0.679c-0.247-0.157-0.537-0.229-0.869-0.209c-1.423,0.146-2.506-0.05-3.249-0.588
			c-0.742-0.538-1.226-1.484-1.449-2.842c-0.176-1.058-0.148-2.115,0.082-3.178c0.229-1.06,0.637-1.639,1.22-1.734
			c0.206-0.034,0.339-0.008,0.397,0.083c0.06,0.09,0.094,0.247,0.104,0.472s0.046,0.413,0.106,0.564
			c0.09,0.329,0.285,0.552,0.586,0.663c0.302,0.113,0.588,0.166,0.859,0.156c0.271-0.008,0.644-0.033,1.112-0.075
			c0.086-0.015,0.153-0.024,0.206-0.033c3.08-0.385,4.9,0.501,5.462,2.651c0.151,0.59,0.194,1.162,0.129,1.716
			c-0.066,0.555-0.167,0.982-0.302,1.285c-0.137,0.305-0.369,0.728-0.698,1.271s-0.545,0.95-0.648,1.221
			c-0.429,0.867-0.763,1.918-1.002,3.152c-0.238,1.233-0.396,2.297-0.47,3.187c-0.074,0.891-0.15,2.22-0.227,3.987
			c-0.027,0.06-0.045,0.278-0.054,0.661c-0.01,0.382-0.017,0.608-0.022,0.683s-0.022,0.274-0.049,0.605
			c-0.027,0.329-0.046,0.55-0.055,0.659c-0.009,0.11-0.029,0.312-0.062,0.607c-0.033,0.295-0.068,0.519-0.106,0.669
			c-0.039,0.151-0.075,0.343-0.107,0.575c-0.034,0.23-0.082,0.438-0.143,0.62s-0.127,0.379-0.201,0.59
			c-0.072,0.212-0.157,0.416-0.251,0.612c-0.58,1.309-1.267,2.377-2.062,3.205s-1.786,1.648-2.973,2.461l-7.879,5.378
			c-0.353,0.274-0.601,0.389-0.744,0.341C243.435,932.945,243.349,932.67,243.32,932.168z"/>
		<path fill="#27286E" d="M270.16,896.52c-0.205-1.068-0.188-2.127,0.049-3.173c0.237-1.045,0.638-1.622,1.202-1.729
			c0.179-0.034,0.297-0.007,0.354,0.082s0.098,0.264,0.12,0.521c0.022,0.261,0.055,0.449,0.099,0.567
			c0.087,0.238,0.25,0.416,0.49,0.533c0.24,0.118,0.459,0.158,0.659,0.119l16.373-3.14c0.894-0.172,1.473,0.336,1.734,1.521
			l0.727,3.788c0.081,0.421,0.096,0.714,0.045,0.878c-0.05,0.164-0.129,0.248-0.238,0.25c-0.107,0.003-0.243,0.105-0.403,0.31
			c-0.161,0.204-0.289,0.533-0.384,0.987c-0.193,0.601-0.143,1.601,0.152,2.998s0.667,2.713,1.117,3.945
			c0.449,1.231,0.906,2.575,1.373,4.031c0.466,1.456,0.75,2.547,0.854,3.272c0.233,1.719-0.015,3.085-0.745,4.098
			c-0.41,0.569-0.943,1.021-1.602,1.356s-1.111,0.354-1.36,0.057c-0.079-0.112-0.133-0.191-0.161-0.242
			c-0.028-0.049-0.037-0.114-0.026-0.198s0.022-0.26,0.035-0.525s0.004-0.596-0.026-0.99c-0.03-0.394-0.109-1.016-0.235-1.862
			c-0.126-0.85-0.282-1.811-0.471-2.884c-0.04-0.21-0.195-0.825-0.463-1.848c-0.268-1.021-0.517-2.082-0.746-3.185
			c-0.229-1.102-0.496-2.868-0.799-5.302c-0.065-0.551-0.037-1.038,0.084-1.462c0.122-0.423,0.272-0.747,0.452-0.973
			c0.18-0.227,0.34-0.42,0.48-0.583c0.142-0.164,0.203-0.289,0.188-0.377c-0.06-0.115-0.13-0.197-0.212-0.246
			c-0.083-0.047-0.156-0.069-0.221-0.066c-0.063,0.003-0.17,0.023-0.318,0.062c-0.149,0.037-0.241,0.06-0.277,0.065l-13.288,2.547
			c-1.329,0.256-2.364,0.122-3.106-0.398C270.919,898.807,270.419,897.87,270.16,896.52z M275.038,920.539
			c0.073-0.941-0.171-2.785-0.734-5.532c-0.03-0.157-0.077-0.403-0.141-0.735c-0.186-0.965-0.357-1.863-0.518-2.696
			s-0.247-1.62-0.261-2.363c-0.015-0.743,0.081-1.298,0.285-1.664c0.51-1.062,1.462-1.726,2.855-1.993
			c0.334-0.062,0.495,0.061,0.482,0.371c-0.098,0.91,0.236,3.082,1.004,6.518s0.948,5.474,0.541,6.113
			c-0.245,0.631-0.724,1.186-1.436,1.667c-0.713,0.481-1.248,0.738-1.607,0.771C275.168,921.021,275.011,920.871,275.038,920.539z"
			/>
		<path fill="#27286E" d="M324.817,886.134c-0.178-1.057-0.147-2.116,0.09-3.18c0.237-1.062,0.635-1.642,1.192-1.734
			c0.202-0.034,0.337-0.007,0.406,0.081c0.067,0.088,0.106,0.244,0.117,0.469c0.012,0.226,0.029,0.416,0.057,0.575
			c0.224,0.577,0.578,0.845,1.061,0.799l2.448-0.193c0.775-0.039,1.404,0.107,1.887,0.442c0.483,0.336,0.924,0.877,1.323,1.625
			c0.236,0.433,0.438,1.095,0.607,1.989c0.169,0.896,0.219,1.629,0.151,2.202c-0.038,0.314-0.197,0.468-0.48,0.461
			s-0.585-0.051-0.908-0.133c-0.323-0.081-0.656,0.042-1,0.372c-0.338,0.365-0.535,1.227-0.588,2.584s0.149,2.759,0.61,4.202
			c1.45,4.735,2.986,6.795,4.609,6.179c-0.047-2.799,0.011-4.818,0.173-6.059c0.096-1.013,0.409-2.266,0.943-3.759
			c0.534-1.492,0.829-2.507,0.885-3.041c0.138-1.019,0.146-1.627,0.023-1.823c-0.166-0.243-0.48-0.367-0.943-0.371
			c-0.463-0.003-0.822-0.038-1.076-0.104c-0.985-0.396-1.625-1.466-1.918-3.209c-0.178-1.057-0.156-2.113,0.065-3.175
			c0.221-1.06,0.619-1.639,1.191-1.735c0.202-0.032,0.343-0.007,0.418,0.079c0.077,0.087,0.12,0.243,0.132,0.468
			c0.011,0.226,0.028,0.417,0.056,0.574c0.077,0.24,0.227,0.434,0.451,0.576c0.224,0.145,0.425,0.2,0.602,0.17l2.426-0.163
			c1.563-0.1,2.646,0.506,3.249,1.817c0.747,1.631,0.938,3.139,0.569,4.521c-0.079,0.285-0.229,0.424-0.448,0.415
			c-0.22-0.009-0.473-0.057-0.76-0.145c-0.287-0.087-0.625,0.011-1.013,0.293c-0.244,0.168-0.417,0.55-0.517,1.146
			c-0.088,0.45-0.167,1.337-0.233,2.661c-0.068,1.324-0.175,2.369-0.317,3.137c-0.111,0.634-0.321,1.402-0.632,2.306
			c-0.31,0.904-0.544,1.739-0.701,2.509s-0.204,1.602-0.14,2.495l3.733-0.628c0.771-0.13,1.306-0.359,1.602-0.69
			c0.296-0.33,0.579-0.87,0.85-1.623c1.478-3.778,3.186-7.479,5.125-11.101c0.404-0.72,0.297-1.354-0.319-1.901
			c-0.365-0.337-0.963-0.444-1.792-0.323c-0.831,0.122-1.379,0.123-1.642,0.005c-1.04-0.405-1.713-1.522-2.021-3.354
			c-0.178-1.057-0.156-2.115,0.064-3.175c0.222-1.061,0.618-1.639,1.192-1.735c0.202-0.033,0.342-0.007,0.418,0.079
			c0.077,0.087,0.12,0.242,0.131,0.468c0.011,0.225,0.029,0.416,0.056,0.574c0.175,0.496,0.523,0.745,1.05,0.747l2.717,0.005
			c0.795-0.007,1.449,0.245,1.96,0.758c0.511,0.512,0.848,1.166,1.009,1.963s0.247,1.547,0.256,2.252
			c0.01,0.704-0.024,1.361-0.103,1.973c-0.163,1.078-0.614,2.489-1.354,4.233c-0.739,1.745-1.201,2.877-1.385,3.396
			c-0.369,1.148-0.982,3.153-1.843,6.014c-0.861,2.861-1.522,5-1.986,6.419c-0.18,0.429-0.349,0.71-0.506,0.846
			c-0.157,0.135-0.463,0.24-0.918,0.317l-10.769,1.81c-0.333,0.056-0.587,0.044-0.762-0.035s-0.339-0.305-0.492-0.678
			c-0.514-1.235-1.077-2.607-1.69-4.116c-0.613-1.508-1.024-2.53-1.231-3.064c-0.207-0.535-0.448-1.165-0.722-1.89
			c-0.275-0.723-0.479-1.291-0.61-1.703c-0.133-0.413-0.279-0.886-0.44-1.42c-0.598-2.055-0.502-4.207,0.287-6.458
			c0.223-0.726,0.017-1.089-0.62-1.091c-0.052,0.009-0.181,0.021-0.387,0.037c-0.206,0.018-0.401,0.019-0.588,0.004
			c-0.186-0.014-0.374-0.068-0.562-0.163C325.674,888.742,325.082,887.719,324.817,886.134z"/>
		<path fill="#27286E" d="M364.936,903.845c-0.14-0.63-0.081-1.141,0.178-1.532c0.129-0.268,0.438-0.462,0.928-0.585
			c0.488-0.122,0.753-0.239,0.794-0.353c0.118-0.356,0.106-0.782-0.034-1.277c-0.142-0.496-0.343-1.011-0.606-1.546
			c-0.263-0.534-0.486-1.194-0.672-1.981c-0.186-0.786-0.276-1.676-0.27-2.665c0.051-1.355,0.401-2.607,1.054-3.757
			c0.652-1.15,1.586-2.339,2.805-3.565l-4.011-3.695c-0.631-0.605-1.103-1.269-1.415-1.985c-0.312-0.719-0.475-1.391-0.488-2.02
			c-0.013-0.627,0.061-1.212,0.22-1.753c0.158-0.541,0.396-0.983,0.716-1.328c0.316-0.345,0.636-0.536,0.955-0.575
			c0.39-0.047,0.65,0.025,0.781,0.217c0.132,0.189,0.288,0.518,0.471,0.98c0.182,0.464,0.465,0.87,0.85,1.219l10.975,10.377
			c0.046-2.146,0.655-4.082,1.831-5.808c-0.695-0.096-1.224-0.188-1.585-0.28c-0.36-0.091-0.756-0.263-1.183-0.517
			s-0.756-0.628-0.986-1.122c-0.23-0.493-0.395-1.139-0.491-1.938c-0.132-1.08-0.045-2.135,0.263-3.161
			c0.307-1.026,0.762-1.576,1.364-1.649c0.213-0.026,0.347,0.008,0.402,0.1c0.057,0.093,0.082,0.27,0.078,0.529
			c-0.004,0.262,0.02,0.453,0.069,0.572c0.108,0.454,0.524,0.69,1.247,0.712l1.521,0.085c1.572,0.061,2.699,0.302,3.38,0.723
			c0.682,0.421,1.097,1.252,1.247,2.492c0.125,1.028,0.148,1.85,0.07,2.461c-0.079,0.612-0.247,1.001-0.506,1.167
			c-0.259,0.167-0.574,0.201-0.945,0.103c-1.12-0.331-2.04,0.68-2.761,3.033c-0.336,1.084-0.46,2.175-0.372,3.271
			s0.456,2.018,1.104,2.766l4.146,3.922c0.627,0.571,1.085,1.271,1.375,2.1s0.395,1.581,0.314,2.256
			c-0.036,0.742-0.319,1.446-0.851,2.113s-1.089,0.955-1.675,0.863c-0.255-0.021-0.422-0.105-0.502-0.249
			c-0.081-0.143-0.124-0.309-0.128-0.497c-0.005-0.188-0.056-0.416-0.151-0.684c-0.096-0.267-0.266-0.521-0.51-0.761l-12.65-11.953
			c-1.22,1.064-1.788,2.16-1.706,3.283c0.054,0.73,0.32,1.489,0.804,2.275c0.481,0.787,0.998,1.48,1.548,2.079
			c0.549,0.6,1.084,1.338,1.604,2.22c0.521,0.882,0.835,1.766,0.942,2.65c0.198,1.631-0.208,2.508-1.218,2.631l-7.285,0.885
			C365.42,904.758,365.075,904.476,364.936,903.845z"/>
		<path fill="#27286E" d="M397.341,876.21c-0.05-1.069,0.105-2.118,0.469-3.146c0.363-1.026,0.848-1.556,1.454-1.583
			c0.214-0.011,0.346,0.032,0.395,0.129c0.049,0.096,0.062,0.257,0.036,0.479c-0.024,0.227-0.017,0.417,0.027,0.576
			c0.047,0.248,0.164,0.457,0.351,0.627c0.188,0.17,0.378,0.25,0.574,0.241l11.21-0.525c0.981-0.046,1.823,0.099,2.527,0.432
			c0.704,0.334,1.253,0.805,1.647,1.411c0.396,0.606,0.684,1.232,0.865,1.877s0.291,1.332,0.325,2.062
			c0.087,1.855,0.224,4.78,0.411,8.776c0.188,3.995,0.314,6.715,0.383,8.16c0.067,1.427,0.023,2.421-0.128,2.981
			c-0.156,0.49-0.462,0.916-0.919,1.276c-0.457,0.359-0.892,0.551-1.301,0.569c-0.179,0.01-0.334-0.061-0.466-0.206
			s-0.201-0.308-0.21-0.485l-0.783-16.723c-0.064-1.374-0.404-2.326-1.02-2.861c-0.615-0.534-1.734-0.764-3.356-0.688l-8.481,0.397
			c-1.337,0.062-2.325-0.209-2.96-0.813C397.755,878.573,397.405,877.584,397.341,876.21z"/>
		<path fill="#27286E" d="M515.983,910.973c-0.061-0.211,0.006-0.488,0.198-0.835l2.089-4.431c0.099-0.235,0.217-0.377,0.353-0.424
			c0.137-0.047,0.371-0.039,0.704,0.022l1.765,0.333c0.351,0.065,0.646,0.081,0.891,0.045c0.244-0.035,0.412-0.136,0.507-0.3
			c0.094-0.163,0.151-0.299,0.171-0.403c0.021-0.104,0.018-0.313-0.008-0.629c-0.024-0.312-0.031-0.506-0.019-0.575
			c-0.011-2.454,0.437-4.725,1.34-6.808c0.864-1.999,2.321-3.56,4.371-4.682l-0.785-0.148c-1.274-0.24-2.162-0.729-2.664-1.47
			c-0.503-0.739-0.626-1.784-0.371-3.136c0.198-1.053,0.582-2.039,1.153-2.958c0.568-0.919,1.139-1.325,1.706-1.22
			c0.217,0.041,0.34,0.114,0.366,0.22c0.026,0.104,0.007,0.266-0.062,0.479c-0.069,0.214-0.1,0.403-0.094,0.568
			c-0.01,0.253,0.059,0.482,0.207,0.692c0.146,0.209,0.312,0.331,0.494,0.365l11.938,2.251c0.929,0.175,1.697,0.506,2.305,0.993
			c0.607,0.486,1.032,1.071,1.276,1.753c0.243,0.683,0.388,1.359,0.434,2.031c0.047,0.672,0.003,1.367-0.134,2.087
			c-0.345,1.825-0.896,4.701-1.653,8.628c-0.76,3.928-1.271,6.602-1.539,8.023c-0.266,1.402-0.536,2.36-0.814,2.872
			c-0.247,0.442-0.639,0.787-1.176,1.031c-0.536,0.243-0.998,0.329-1.384,0.257c-0.177-0.032-0.312-0.137-0.405-0.309
			s-0.126-0.346-0.093-0.521l3.102-16.451c0.255-1.352,0.14-2.358-0.344-3.021c-0.484-0.664-1.507-1.143-3.068-1.438l-3.212-0.605
			c-0.896-0.168-1.629-0.157-2.202,0.035c-0.571,0.191-1.229,0.618-1.971,1.277c-1.267,1.124-2.114,2.673-2.542,4.646
			c-0.258,1.169-0.372,2.646-0.344,4.433s-0.076,3.319-0.318,4.602c-0.281,1.491-0.882,2.741-1.804,3.748
			c-0.447,0.479-0.979,0.661-1.594,0.545l-5.969-1.125C516.311,911.334,516.043,911.185,515.983,910.973z"/>
		<path fill="#27286E" d="M554.635,893.219c0.206-1.068,0.604-2.047,1.197-2.934c0.593-0.886,1.16-1.277,1.704-1.173
			c0.237,0.046,0.369,0.121,0.395,0.226c0.024,0.105-0.004,0.281-0.088,0.529c-0.084,0.247-0.139,0.433-0.161,0.555
			c0.005,0.256,0.089,0.481,0.252,0.676c0.162,0.195,0.331,0.311,0.507,0.344l2.604,0.501c1.401,0.27,2.395,0.736,2.976,1.402
			s0.862,1.808,0.843,3.421c-0.007,1.362-0.306,2.751-0.895,4.165c-0.591,1.414-1.379,2.608-2.366,3.582
			c-0.973,0.995-1.93,1.767-2.871,2.312c-0.94,0.546-1.616,0.508-2.022-0.116c-0.358-0.596-0.109-1.185,0.748-1.766
			c2.114-1.357,3.194-2.859,3.237-4.506c0.026-0.612-0.15-1.13-0.534-1.549s-0.873-0.686-1.47-0.8l-1.131-0.218
			c-1.266-0.243-2.135-0.741-2.606-1.496C554.481,895.622,554.375,894.569,554.635,893.219z"/>
		<path fill="#27286E" d="M575.047,897.112c0.193-1.071,0.583-2.055,1.167-2.946s1.147-1.288,1.691-1.189
			c0.238,0.043,0.371,0.117,0.396,0.223c0.025,0.104-0.001,0.281-0.082,0.528c-0.082,0.248-0.134,0.436-0.156,0.558
			c0.008,0.256,0.095,0.479,0.259,0.674c0.165,0.192,0.335,0.306,0.512,0.337l2.608,0.474c1.405,0.256,2.402,0.714,2.99,1.373
			c0.588,0.661,0.88,1.799,0.878,3.413c0.006,1.362-0.278,2.753-0.854,4.173c-0.575,1.42-1.352,2.623-2.327,3.606
			c-0.964,1.005-1.912,1.786-2.849,2.342c-0.937,0.557-1.61,0.524-2.023-0.096c-0.365-0.592-0.122-1.183,0.729-1.772
			c2.103-1.379,3.166-2.892,3.192-4.539c0.021-0.611-0.163-1.127-0.55-1.542c-0.389-0.415-0.882-0.678-1.479-0.785l-1.134-0.205
			c-1.27-0.23-2.144-0.721-2.621-1.471C574.918,899.517,574.802,898.466,575.047,897.112z"/>
		<path fill="#27286E" d="M595.568,900.869c0.146-1.062,0.488-2.064,1.031-3.009c0.543-0.945,1.115-1.376,1.717-1.294
			c0.213,0.028,0.334,0.096,0.365,0.197c0.03,0.104,0.014,0.265-0.052,0.479c-0.065,0.217-0.093,0.406-0.078,0.571
			c0.002,0.252,0.079,0.479,0.231,0.68s0.326,0.313,0.521,0.342l11.12,1.513c0.973,0.134,1.774,0.428,2.406,0.883
			c0.633,0.456,1.087,1.018,1.365,1.687s0.449,1.336,0.512,2.002c0.062,0.667,0.045,1.362-0.055,2.088
			c-0.25,1.84-0.645,4.741-1.185,8.705c-0.539,3.964-0.906,6.661-1.103,8.095c-0.191,1.416-0.415,2.387-0.666,2.909
			c-0.242,0.454-0.62,0.817-1.135,1.09c-0.515,0.271-0.976,0.382-1.383,0.325c-0.177-0.023-0.316-0.12-0.42-0.287
			c-0.104-0.167-0.145-0.339-0.119-0.517l2.257-16.587c0.187-1.362,0.024-2.362-0.483-2.999c-0.507-0.637-1.566-1.064-3.178-1.284
			l-8.413-1.145c-1.327-0.182-2.249-0.626-2.765-1.337C595.545,903.267,595.383,902.231,595.568,900.869z"/>
		<path fill="#27286E" d="M624.451,903.7c0.001-1.089,0.209-2.125,0.625-3.106c0.415-0.98,0.9-1.473,1.453-1.473
			c0.242,0,0.387,0.05,0.431,0.146c0.045,0.1,0.049,0.277,0.013,0.536s-0.054,0.451-0.054,0.576c0.054,0.25,0.178,0.455,0.374,0.616
			c0.195,0.16,0.384,0.241,0.562,0.241l2.652,0.002c1.428,0.001,2.489,0.272,3.187,0.818c0.696,0.545,1.188,1.612,1.471,3.201
			c0.25,1.34,0.218,2.759-0.097,4.259c-0.313,1.5-0.862,2.821-1.648,3.963c-0.77,1.161-1.564,2.099-2.387,2.812
			c-0.821,0.714-1.491,0.803-2.009,0.267c-0.465-0.518-0.33-1.143,0.402-1.874c1.823-1.729,2.601-3.408,2.334-5.033
			c-0.089-0.607-0.361-1.08-0.816-1.421c-0.455-0.34-0.985-0.51-1.593-0.511h-1.152c-1.289-0.001-2.235-0.327-2.841-0.979
			C624.753,906.089,624.45,905.075,624.451,903.7z"/>
		<path fill="#27286E" d="M645.146,934.238l0.375-5.33c0.035-0.394,0.12-0.67,0.255-0.83c0.134-0.161,0.37-0.305,0.709-0.43
			l5.304-2.009c0.857-0.339,1.571-0.771,2.144-1.3c0.571-0.525,0.84-1.111,0.804-1.754c-0.054-0.554-0.21-1.066-0.469-1.54
			c-0.259-0.473-0.474-0.799-0.644-0.978c-0.17-0.18-0.478-0.482-0.924-0.911c-0.606-0.571-1.09-1.04-1.445-1.406
			c-0.357-0.365-0.721-0.848-1.085-1.446c-0.366-0.598-0.595-1.183-0.685-1.754c-0.089-0.571-0.049-1.37,0.121-2.396
			c0.169-1.026,0.316-1.821,0.441-2.385c0.125-0.562,0.106-1.059-0.055-1.485c-0.214-0.25-0.679-0.451-1.393-0.604
			c-0.714-0.15-1.214-0.299-1.5-0.44c-1-0.571-1.5-1.731-1.5-3.482c0-1.071,0.205-2.111,0.616-3.12s0.92-1.514,1.526-1.514
			c0.214,0,0.344,0.05,0.389,0.146c0.045,0.1,0.054,0.26,0.026,0.482c-0.026,0.224-0.021,0.415,0.013,0.576
			c0.055,0.464,0.341,0.75,0.857,0.855c0.429,0.091,1.075,0.176,1.942,0.256c0.864,0.079,1.565,0.219,2.103,0.414
			c0.535,0.196,1.019,0.555,1.446,1.071c0.355,0.465,0.565,1.335,0.629,2.611c0.062,1.276-0.13,2.264-0.575,2.96
			c-0.09,0.125-0.411,0.08-0.965-0.134c-0.554-0.216-0.955-0.225-1.205-0.027c-0.25,0.161-0.401,0.67-0.455,1.527
			c-0.054,0.855,0.054,1.688,0.321,2.491c0.178,0.48,0.565,1.021,1.165,1.619c0.598,0.6,1.195,1.236,1.795,1.915
			c0.598,0.68,1.013,1.42,1.245,2.225c0.464,1.429,0.464,3.044,0,4.848c0.768-0.518,1.325-1.16,1.674-1.929s0.67-1.701,0.965-2.799
			c0.294-1.1,0.638-2.022,1.031-2.772c0.393-0.785,0.91-1.66,1.553-2.625c0.644-0.964,1.125-1.728,1.446-2.29
			c0.322-0.562,0.481-1.075,0.481-1.54c-0.034-0.304-0.161-0.553-0.379-0.75c-0.218-0.196-0.492-0.312-0.822-0.348
			c-1.428-0.09-2.465-0.46-3.108-1.112c-0.646-0.65-0.966-1.664-0.966-3.04c0-1.071,0.199-2.11,0.6-3.12
			c0.4-1.009,0.896-1.514,1.488-1.514c0.209,0,0.335,0.05,0.379,0.146c0.043,0.1,0.052,0.26,0.024,0.482
			c-0.024,0.224-0.021,0.415,0.015,0.576c0.034,0.339,0.19,0.589,0.47,0.75c0.278,0.16,0.553,0.259,0.822,0.294
			c0.27,0.036,0.639,0.072,1.108,0.106c0.087,0,0.156,0,0.209,0c3.102,0.125,4.753,1.296,4.955,3.51
			c0.055,0.606,0.002,1.179-0.152,1.714c-0.155,0.536-0.325,0.941-0.509,1.219c-0.185,0.277-0.481,0.656-0.896,1.139
			c-0.413,0.482-0.692,0.85-0.838,1.1c-0.565,0.785-1.066,1.768-1.504,2.945c-0.438,1.179-0.767,2.2-0.984,3.066
			s-0.511,2.165-0.875,3.897c-0.036,0.054-0.09,0.268-0.161,0.643c-0.07,0.375-0.116,0.599-0.134,0.67s-0.067,0.268-0.147,0.589
			c-0.079,0.321-0.134,0.536-0.159,0.644c-0.027,0.106-0.081,0.304-0.161,0.59c-0.08,0.285-0.152,0.5-0.214,0.643
			c-0.063,0.145-0.13,0.326-0.201,0.549c-0.071,0.225-0.152,0.42-0.241,0.591c-0.09,0.17-0.188,0.353-0.295,0.549
			c-0.106,0.195-0.223,0.384-0.348,0.562c-0.786,1.196-1.64,2.14-2.56,2.826c-0.919,0.688-2.031,1.334-3.334,1.941l-8.65,4.018
			c-0.395,0.215-0.656,0.285-0.791,0.215C645.132,935.023,645.092,934.738,645.146,934.238z"/>
	</g>
	<path fill="#27286E" d="M421.082,96l8.084,15l32.25-14l-19.75,24.75c0,0,19-14.75,55-14.75s80.75,18.75,139.25,18.75
		s74.75-15.75,74.75-15.75s4.25,4.5,4.25,12.5s-8,6.75-8,6.75s4,7.75-0.25,15.25s-15.5,8.25-15.5,8.25s2.5,21.25-22.75,21.25
		c-10.5,0-13.75-1-13.75-1s0.25,12-25.75,12c-17,0-27.5-1-27.5-1s1.25,8-9.75,8s-28-7-28-7s-2.75,5.25-19.25,5.25
		s-32.5-15.5-32.5-15.5s-2.75,4.75-12.5,4.75c-15.25,0-26.25-18.75-35.5-18.75s-9.75,3.25-9.75,3.25l269,564V146l22-61H421.082H97
		l22,61l-0.333,582L388,164c0,0-0.5-3.25-9.75-3.25S358,179.5,342.75,179.5c-9.75,0-12.5-4.75-12.5-4.75s-16,15.5-32.5,15.5
		S278.5,185,278.5,185s-17,7-28,7s-9.75-8-9.75-8s-10.5,1-27.5,1c-26,0-25.75-12-25.75-12s-3.25,1-13.75,1
		C148.5,174,151,152.75,151,152.75s-11.25-0.75-15.5-8.25s-0.25-15.25-0.25-15.25s-8,1.25-8-6.75s4.25-12.5,4.25-12.5
		s16.25,15.75,74.75,15.75S309.5,107,345.5,107s55,14.75,55,14.75L380.75,97L413,111L421.082,96z"/>
	<path fill="#27286E" d="M273.334,135.333c0,0,39-21,68-21S377.666,139,377.666,139s-22-10.333-41-10.333
		C311.666,128.667,273.334,135.333,273.334,135.333z"/>
	<path fill="#27286E" d="M568.666,135.333c0,0-39-21-68-21S464.334,139,464.334,139s22-10.333,41-10.333
		C530.334,128.667,568.666,135.333,568.666,135.333z"/>
	<polygon fill="#FFEF00" points="118.667,206.667 118.667,227 181.667,201 	"/>
	<polygon fill="#FFEF00" points="118.667,286 118.667,306 275.334,190.667 	"/>
	<polygon fill="#FFEF00" points="118.667,353.333 118.667,381.333 312.334,188.333 	"/>
	<polygon fill="#FFEF00" points="118.667,430.666 118.667,457 341.001,182 	"/>
	<polygon fill="#FFEF00" points="118.667,545.668 118.667,508.668 307,257.334 	"/>
	<polygon fill="#FFEF00" points="118.667,582.334 277.667,329.335 118.667,617.002 	"/>
	<polygon fill="#FFEF00" points="118.667,692.336 118.667,658.002 241.667,434.002 	"/>
	<polygon fill="#FFEF00" points="723.331,206.667 723.331,227 660.332,201 	"/>
	<polygon fill="#FFEF00" points="723.331,286 723.331,306 566.666,190.667 	"/>
	<polygon fill="#FFEF00" points="723.331,353.333 723.331,381.333 529.666,188.333 	"/>
	<polygon fill="#FFEF00" points="723.331,430.666 723.331,457 500.998,182 	"/>
	<polygon fill="#FFEF00" points="723.331,545.668 723.331,508.668 535,257.334 	"/>
	<polygon fill="#FFEF00" points="723.331,582.334 564.332,329.335 723.331,617.002 	"/>
	<polygon fill="#FFEF00" points="723.331,692.336 723.331,658.002 600.332,434.002 	"/>
	<path fill="#49A888" d="M344.475,416.452c-0.459-2.557-1.508-4.61-1.475-7.639c0.024-2.298-0.133-4.528,5.541-8.708
		c4.241-3.125,7.567-4.24,12.439-4.66c3.114-0.268,9.676-1.185,12.212,1.038c4.191-4.426,20.748-13.682,22.101-1.991
		c3.368-1.197,6.138-4.372,10.138-3.99c4.094,0.391,7.745,2.991,10.331,6.124c2.805,3.397,2.993,7.517,2.986,11.831
		c-0.002,1.523-0.197,2.826,0.615,3.798c1.204,1.44,4.579,2.862,6.247,3.871c2.664,1.612,5.979,3.284,8.018,5.636
		c2.354,2.715,0.688,5.284,0.114,8.48c-0.485,2.706-0.598,5.788-0.494,8.568c0.098,2.585,2.224,7.042,1.213,9.438
		c-2.596,6.148-13.395,0.589-17.219,4.877c-1.664,1.866-1.569,5.279-2.749,7.366c-1.446,2.561-4.746,5.376-7.684,6.391
		c-2.99,1.033-6.372,0.501-9.518,0.617c-2.505,0.093-4.599,0.735-7.087,0.999c-6.094,0.646-11.031-0.907-16.091-4.224
		c-8.114-5.32-15.683-11.525-23.086-17.78c-2.756-2.329-5.479-4.432-8.353-6.568c-1.224-0.91-1.801-1.163-2.365-2.697
		c-0.216-0.587-0.297-1.213-0.332-1.835c-0.019-0.331-0.018-0.662-0.024-0.994c-0.005-0.328,0.077-0.6,0.147-0.917
		c0.086-0.394,0.178-0.771,0.297-1.155c0.075-0.242,0.186-0.486,0.214-0.736c0.029-0.253,0.106-0.566,0.047-0.818
		c-0.044-0.188-0.197-0.34-0.281-0.51c-0.153-0.312-0.278-0.64-0.398-0.965c-0.251-0.682-0.45-1.383-0.6-2.094
		c-0.304-1.447-0.408-2.951-0.229-4.421c0.17-1.383,0.605-2.76,1.438-3.893c0.868-1.185,2.131-1.984,3.545-2.358
		C344.248,416.503,344.362,416.477,344.475,416.452z"/>
	<path fill="#27286E" d="M417.282,202.668c-8.245,0-17.3-0.724-22.936-5.577l1.305-1.516c5.281,4.547,14.209,5.124,22.252,5.091
		c7.376-0.031,14.694-1.356,21.752-3.939l0.688,1.878c-7.276,2.663-14.822,4.029-22.432,4.061
		C417.703,202.668,417.492,202.668,417.282,202.668z"/>
	<path fill="#27286E" d="M436.82,235.6c-2.165,0-4.399-0.184-6.753-0.627c-3.916-0.737-6.94-2.494-10.144-4.353l-0.166-0.097
		c-3.986-2.314-5.486-3.896-8.197-7.214c-2.236-2.737-5.805-1.689-9.938-0.478c-3.005,0.881-6.11,1.792-8.917,1.162
		c-5.352-1.206-9.596-4.461-13.7-7.609c-1.896-1.453-3.854-2.956-5.864-4.2l1.053-1.7c2.095,1.297,4.095,2.831,6.028,4.313
		c4.115,3.155,8.001,6.136,12.924,7.245c2.298,0.515,5.153-0.32,7.914-1.129c4.412-1.294,8.975-2.633,12.049,1.131
		c2.603,3.186,3.937,4.592,7.652,6.75l0.166,0.096c3.182,1.848,5.931,3.443,9.51,4.117c7.536,1.421,13.667,0.076,20.766-1.479
		c1.285-0.282,2.593-0.567,3.932-0.841l0.399,1.959c-1.329,0.272-2.626,0.556-3.902,0.836
		C446.698,234.562,441.96,235.6,436.82,235.6z"/>
	<path fill="#27286E" d="M376.794,255.774c-0.385,0-0.771-0.012-1.162-0.036c-2.507-0.155-5.443-0.846-8.978-2.111
		c-2.292-0.821-4.094-2.218-5.836-3.569c-1.208-0.937-2.35-1.822-3.626-2.51l0.948-1.761c1.423,0.766,2.684,1.744,3.904,2.69
		c1.692,1.313,3.292,2.554,5.284,3.267c3.354,1.201,6.11,1.854,8.428,1.998c5.669,0.349,10.331-2.201,15.26-4.904
		c2.747-1.506,5.586-3.063,8.66-4.117l0.647,1.892c-2.911,0.999-5.674,2.514-8.346,3.979
		C387.326,253.142,382.527,255.774,376.794,255.774z"/>
	<path fill="#27286E" d="M470.094,271.005c-13.904,0-30.488-0.582-39.267-14.128l1.679-1.088
		c8.603,13.276,25.05,13.246,39.548,13.213L474,269v2l-1.942,0.002C471.41,271.004,470.754,271.005,470.094,271.005z"/>
	<path fill="#27286E" d="M398.307,282.014c-0.232,0-0.468-0.005-0.707-0.015c-2.497-0.106-4.813-0.843-7.052-1.555
		c-1.404-0.447-2.856-0.909-4.349-1.215c-1.26-0.258-2.484-0.526-3.69-0.79c-4.958-1.083-9.643-2.106-15.175-2.106v-2
		c5.748,0,10.534,1.046,15.602,2.153c1.198,0.262,2.415,0.527,3.666,0.784c1.596,0.327,3.099,0.805,4.553,1.268
		c2.211,0.704,4.3,1.368,6.531,1.463c2.852,0.118,5.155-0.604,7.591-1.371c1.522-0.479,3.097-0.975,4.876-1.29
		c3.257-0.576,6.689-0.487,10.007-0.401c1.182,0.031,2.354,0.061,3.509,0.061v2c-1.172,0-2.362-0.031-3.561-0.062
		c-3.221-0.083-6.55-0.169-9.606,0.372c-1.652,0.292-3.163,0.768-4.625,1.228C403.569,281.265,401.189,282.014,398.307,282.014z"/>
	<path fill="#27286E" d="M466.58,309.376c-5.575,0-10.564-3.033-15.405-5.976c-2.925-1.778-5.688-3.458-8.51-4.458l0.669-1.885
		c3.017,1.068,5.996,2.881,8.88,4.633c5.103,3.103,10.376,6.308,16.057,5.577c3.705-0.478,7.27-2.047,9.629-3.185
		c0.627-0.303,1.293-0.699,1.998-1.118c1.589-0.945,3.391-2.017,5.296-2.288l0.281,1.98c-1.509,0.214-3.059,1.135-4.555,2.026
		c-0.743,0.442-1.445,0.859-2.151,1.2c-2.484,1.199-6.249,2.853-10.242,3.368C467.869,309.336,467.222,309.376,466.58,309.376z"/>
	<path fill="#27286E" d="M376.872,298.391c-1.944,0-3.85-0.137-5.672-0.412c-7.552-1.139-14.32-2.359-20.674-5.764l0.945-1.763
		c6.071,3.254,12.662,4.438,20.026,5.549c3.918,0.592,8.248,0.509,12.521-0.237c1.808-0.316,3.492-1.003,5.121-1.667
		c1.814-0.74,3.691-1.505,5.737-1.756l0.242,1.985c-1.779,0.218-3.454,0.901-5.225,1.623c-1.726,0.704-3.511,1.432-5.531,1.785
		C381.86,298.171,379.334,298.391,376.872,298.391z"/>
	<path fill="#27286E" d="M390.032,318.844c-7.655,0-15.471-0.943-20.48-7.22l1.562-1.248c5.492,6.879,14.829,6.625,23.864,6.379
		c1.623-0.044,3.221-0.088,4.769-0.088c12.057,0,19-2.463,20.639-7.32l1.896,0.64c-2.928,8.68-17.685,8.68-22.534,8.68
		c-1.529,0-3.109,0.043-4.714,0.087C393.396,318.799,391.718,318.844,390.032,318.844z"/>
	<path fill="#27286E" d="M444.398,333.401c-6.565,0-10.213-4.6-12.927-9.228l1.725-1.012c3.822,6.515,7.604,8.867,13.058,8.106
		c3.696-0.514,6.815-1.869,10.361-3.745c1.05-0.556,2.004-1.56,2.927-2.532c1.15-1.212,2.342-2.466,3.817-2.943l0.615,1.903
		c-0.993,0.32-1.959,1.338-2.982,2.417c-1.032,1.088-2.102,2.214-3.44,2.922c-3.732,1.975-7.035,3.404-11.022,3.958
		C445.785,333.352,445.075,333.401,444.398,333.401z"/>
	<path fill="#27286E" d="M476.95,351.034c-4.535,0-9.082-0.446-13.236-1.315c-2.303-0.482-4.469-1.414-6.562-2.315
		c-1.854-0.798-3.77-1.623-5.722-2.098l0.475-1.943c2.114,0.516,4.108,1.374,6.038,2.204c2.096,0.902,4.076,1.754,6.183,2.195
		c5.914,1.238,12.654,1.588,18.981,0.985c4.873-0.465,9.012-1.301,13.841-2.792c1.379-0.426,3.073-0.68,4.867-0.948
		c3.048-0.457,6.502-0.974,8.202-2.431l1.301,1.519c-2.136,1.831-5.729,2.369-9.206,2.89c-1.718,0.257-3.34,0.5-4.574,0.882
		c-4.966,1.534-9.225,2.393-14.24,2.873C481.212,350.936,479.082,351.034,476.95,351.034z"/>
	<path fill="#27286E" d="M343.136,338.337c-4.551,0-9.199-0.131-13.379-2.018c-2.432-1.097-4.407-2.809-6.319-4.465
		c-1.426-1.234-2.772-2.4-4.294-3.335l1.047-1.704c1.661,1.02,3.133,2.294,4.556,3.527c1.887,1.633,3.668,3.176,5.833,4.153
		c4.124,1.862,8.972,1.846,13.655,1.84l1.1-0.002c10.844,0,18.273-3.811,26.876-8.223l0.912,1.779
		c-8.466,4.342-16.462,8.444-27.79,8.444l-1.094,0.002C343.872,338.336,343.504,338.337,343.136,338.337z"/>
	<g>
		<polygon fill="#FFFFFF" points="380.832,500.667 380.832,456.333 388.165,456.333 334.165,421 280.166,456.333 287.5,456.333 
			287.5,500.667 		"/>
		<path fill="#27286E" d="M381.832,501.667H286.5v-44.333h-9.688l57.354-37.528l57.354,37.528h-9.688V501.667L381.832,501.667z
			 M288.5,499.667h91.332v-44.333h4.979l-50.646-33.139l-50.646,33.139h4.979L288.5,499.667L288.5,499.667z"/>
	</g>
	<rect x="251.333" y="499.667" fill="#27286E" width="154.667" height="2"/>
	<rect x="430.081" y="484.417" fill="#27286E" width="148.669" height="2"/>
	<rect x="305.5" y="462.167" fill="#27286E" width="21.166" height="21.167"/>
	<rect x="340.415" y="462.167" fill="#27286E" width="21.167" height="21.167"/>
	<g>
		<polygon fill="#FFFFFF" points="518.173,485.167 518.173,454.986 523.166,454.986 486.405,430.933 449.644,454.986 
			454.636,454.986 454.636,485.167 		"/>
		<path fill="#27286E" d="M519.173,486.167h-65.537v-30.181h-7.348l40.116-26.248l40.115,26.248h-7.348L519.173,486.167
			L519.173,486.167z M455.636,484.167h61.537v-30.181h2.639l-33.406-21.858l-33.407,21.858h2.639L455.636,484.167L455.636,484.167z"
			/>
	</g>
	<rect x="466.891" y="458.958" fill="#27286E" width="14.409" height="14.409"/>
	<rect x="490.659" y="458.958" fill="#27286E" width="14.409" height="14.409"/>
	<rect x="386" y="467" fill="#49A888" width="8.5" height="33"/>
	<rect x="443" y="461.75" fill="#008455" width="10.75" height="23"/>
	<circle fill="#FFEF00" cx="375.666" cy="419.333" r="4.833"/>
	<circle fill="#FFEF00" cx="392.75" cy="409.333" r="4.833"/>
	<circle fill="#FFEF00" cx="406.875" cy="423.083" r="4.833"/>
	<circle fill="#FFEF00" cx="416.562" cy="439.146" r="4.833"/>
	<circle fill="#FFEF00" cx="442.188" cy="423.896" r="4.084"/>
	<circle fill="#FFEF00" cx="453.812" cy="427.146" r="4.084"/>
	<circle fill="#FFEF00" cx="464.312" cy="432.479" r="4.084"/>
	<circle fill="#FFEF00" cx="453.812" cy="443.146" r="4.084"/>
	<circle fill="#FFEF00" cx="445.146" cy="439.146" r="4.084"/>
	<circle fill="#FFEF00" cx="440.312" cy="452.229" r="4.084"/>
	<circle fill="#FFEF00" cx="427.646" cy="457.646" r="4.084"/>
	<circle fill="#FFEF00" cx="393.438" cy="452.021" r="4.833"/>
	<circle fill="#FFEF00" cx="389.25" cy="433.396" r="4.833"/>
	<circle fill="#FFEF00" cx="368.562" cy="433.021" r="4.833"/>
	<circle fill="#FFEF00" cx="359.75" cy="411.833" r="4.833"/>
	<path fill="#27286E" d="M421,691.668c200.666,0,330,47.333,330,47.333s-16,16.001-66,30.667s-104,20-152,35.333
		s-112,40.667-112,40.667s-64-25.334-112-40.667s-102-20.667-152-35.333s-66-30.667-66-30.667S220.333,691.668,421,691.668z"/>
	<path fill="#FFFFFF" d="M268.5,737.831c0,0,7-13.834,24.833-13.834s15.833,12.5,33.499,12.5c17.668,0,30.5-12.166,30.5-12.166
		s-14,19.666-33,19.666s-14.166-12-33.499-12S268.5,737.831,268.5,737.831z"/>
	<path fill="#FFFFFF" d="M151,739.498c0,0,7-13.834,24.833-13.834s15.833,12.5,33.5,12.5s30.5-12.166,30.5-12.166
		s-14,19.666-33,19.666s-14.167-12-33.5-12S151,739.498,151,739.498z"/>
	<path fill="#FFFFFF" d="M197.333,761.998c0,0,7-13.834,24.833-13.834s15.833,12.5,33.5,12.5s30.5-12.166,30.5-12.166
		s-14,19.666-33,19.666s-14.167-12-33.5-12S197.333,761.998,197.333,761.998z"/>
	<path fill="#FFFFFF" d="M257.333,783.164c0,0,7-13.834,24.833-13.834c17.832,0,15.832,12.5,33.5,12.5
		c17.666,0,30.5-12.166,30.5-12.166s-14,19.666-33,19.666s-14.168-12-33.5-12C260.333,777.33,257.333,783.164,257.333,783.164z"/>
	<path fill="#FFFFFF" d="M300.631,760.132c0,0,7-13.834,24.833-13.834s15.833,12.5,33.5,12.5s30.5-12.166,30.5-12.166
		s-14,19.666-33,19.666s-14.167-12-33.5-12S300.631,760.132,300.631,760.132z"/>
	<path fill="#FFFFFF" d="M314.666,802.997c0,0,7-13.834,24.834-13.834c17.832,0,15.832,12.5,33.5,12.5
		c17.666,0,30.5-12.166,30.5-12.166s-14,19.666-33,19.666s-14.168-12-33.5-12C317.666,797.163,314.666,802.997,314.666,802.997z"/>
	<path fill="#FFFFFF" d="M307.666,715.498c0,0,7-13.834,24.834-13.834c17.832,0,15.832,12.5,33.5,12.5
		c17.666,0,30.5-12.166,30.5-12.166s-14,19.666-33,19.666s-14.168-12-33.5-12C310.666,709.664,307.666,715.498,307.666,715.498z"/>
	<path fill="#FFFFFF" d="M573.5,737.831c0,0-7-13.834-24.834-13.834c-17.832,0-15.834,12.5-33.5,12.5s-30.5-12.166-30.5-12.166
		s14,19.666,33,19.666s14.166-12,33.5-12S573.5,737.831,573.5,737.831z"/>
	<path fill="#FFFFFF" d="M691,739.498c0,0-7-13.834-24.834-13.834c-17.832,0-15.834,12.5-33.5,12.5s-30.5-12.166-30.5-12.166
		s14,19.666,33,19.666s14.166-12,33.5-12S691,739.498,691,739.498z"/>
	<path fill="#FFFFFF" d="M644.666,761.998c0,0-7-13.834-24.834-13.834c-17.832,0-15.832,12.5-33.5,12.5
		c-17.666,0-30.5-12.166-30.5-12.166s14,19.666,33,19.666s14.168-12,33.5-12C641.666,756.164,644.666,761.998,644.666,761.998z"/>
	<path fill="#FFFFFF" d="M584.666,783.164c0,0-7-13.834-24.834-13.834c-17.832,0-15.832,12.5-33.5,12.5
		c-17.666,0-30.5-12.166-30.5-12.166s14,19.666,33,19.666s14.168-12,33.5-12C581.666,777.33,584.666,783.164,584.666,783.164z"/>
	<path fill="#FFFFFF" d="M541.368,760.132c0,0-7.001-13.834-24.834-13.834s-15.834,12.5-33.5,12.5s-30.5-12.166-30.5-12.166
		s14,19.666,33,19.666s14.166-12,33.5-12S541.368,760.132,541.368,760.132z"/>
	<path fill="#FFFFFF" d="M527.332,802.997c0,0-7-13.834-24.832-13.834c-17.834,0-15.834,12.5-33.5,12.5
		c-17.668,0-30.5-12.166-30.5-12.166s14,19.666,33,19.666s14.166-12,33.5-12C524.332,797.163,527.332,802.997,527.332,802.997z"/>
	<path fill="#FFFFFF" d="M445.498,715.498c0,0,7.002-13.834,24.833-13.834c17.835,0,15.835,12.5,33.5,12.5
		c17.667,0,30.501-12.166,30.501-12.166s-14,19.666-33,19.666s-14.166-12-33.5-12S445.498,715.498,445.498,715.498z"/>
	<path fill="#FFFFFF" d="M378.831,737.831c0,0,7.001-13.834,24.833-13.834c17.834,0,15.834,12.5,33.5,12.5
		c17.667,0,30.5-12.166,30.5-12.166s-14,19.666-33,19.666s-14.166-12-33.5-12C381.831,731.997,378.831,737.831,378.831,737.831z"/>
	<path fill="#FFFFFF" d="M421,787.667c25.666,0,17.666-13.333,34.666-13.333s20.334,5,20.334,5S466.334,765,453.666,765
		c-12.667,0-16.334,14.334-32.666,14.334c-16.334,0-20-14.334-32.668-14.334C375.666,765,366,779.334,366,779.334s3.332-5,20.332-5
		S395.332,787.667,421,787.667z"/>
	<path fill="#27286E" d="M324.332,724.377l-1.997-0.084c0.009-0.229,1.002-23.439,5.003-67.715
		c4.94-54.682,38.637-89.576,59.663-89.576c20.41,0,34.328,30.298,34.91,31.588l-1.821,0.823
		c-0.139-0.305-13.97-30.411-33.089-30.411c-20.281,0-52.83,34.188-57.671,87.756C325.332,700.979,324.342,724.146,324.332,724.377z
		"/>
	<path fill="#27286E" d="M318.498,724.354l-2-0.035c0.062-3.412,1.667-83.887,15.773-112.101
		c11.325-26.547,34.351-47.386,52.395-47.386c18.529,0,36.505,30.553,37.262,31.854l-1.729,1.006
		c-0.18-0.31-18.149-30.858-35.532-30.858c-17.015,0-39.704,20.736-50.579,46.227C320.156,640.922,318.514,723.521,318.498,724.354z
		"/>
	<path fill="#27286E" d="M310.25,724.344l-2-0.018c0.005-0.603,0.575-60.494,7.032-85.08c11.45-43.6,40.035-75.246,67.968-75.246
		c26.407,0,38.638,34.637,38.758,34.987l-1.892,0.65C420.001,599.302,408.228,566,383.25,566c-12.599,0-26.124,7.124-38.086,20.06
		c-12.47,13.485-22.396,32.556-27.946,53.694C310.823,664.1,310.255,723.744,310.25,724.344z"/>
	<path fill="#FFEF00" d="M296,724.258c-0.002-0.303-0.122-30.939,11.023-80.727c11.893-53.119,47.892-81.781,75.727-81.781
		c29.427,0,39.285,35.549,39.382,35.908l-1.933,0.518c-0.092-0.344-9.565-34.426-37.451-34.426
		c-27.058,0-62.108,28.114-73.773,80.219c-11.091,49.538-10.979,79.973-10.977,80.273L296,724.258z"/>
	<path fill="#27286E" d="M517.75,724.377c-0.01-0.229-1-23.398-4.996-67.619c-4.842-53.568-37.391-87.756-57.672-87.756
		c-19.119,0-32.95,30.106-33.089,30.411l-1.821-0.823c0.582-1.29,14.5-31.588,34.91-31.588c21.026,0,54.723,34.896,59.663,89.576
		c4.001,44.275,4.993,67.486,5.003,67.715L517.75,724.377z"/>
	<path fill="#27286E" d="M523.584,724.354c-0.016-0.831-1.658-83.432-15.562-111.24c-10.899-25.544-33.59-46.28-50.605-46.28
		c-17.381,0-35.352,30.55-35.53,30.858l-1.729-1.007c0.756-1.3,18.732-31.853,37.26-31.853c18.046,0,41.07,20.839,52.421,47.439
		c14.081,28.159,15.687,108.634,15.747,112.046L523.584,724.354z"/>
	<path fill="#27286E" d="M531.832,724.344c-0.005-0.6-0.572-60.244-6.967-84.59c-5.552-21.14-15.478-40.209-27.946-53.693
		C484.956,573.124,471.431,566,458.832,566c-24.996,0-36.751,33.302-36.866,33.638l-1.892-0.649
		c0.12-0.352,12.351-34.987,38.758-34.987c27.934,0,56.519,31.646,67.968,75.246c6.457,24.586,7.027,84.479,7.032,85.08
		L531.832,724.344z"/>
	<path fill="#FFEF00" d="M546.082,724.258l-2-0.016c0.004-0.302,0.115-30.735-10.976-80.273
		c-11.665-52.104-46.717-80.219-73.774-80.219c-27.885,0-37.357,34.082-37.45,34.426l-1.933-0.518
		c0.097-0.359,9.956-35.908,39.382-35.908c27.835,0,63.835,28.662,75.727,81.781C546.204,693.317,546.086,723.955,546.082,724.258z"
		/>
	<g>
		<polygon fill="#8085BE" points="420.875,601.042 405.5,601.042 405.5,594.542 400.25,594.542 400.25,606.167 405,606.167 
			405,651.167 395.5,651.167 395.5,661.042 401.875,661.042 401.875,720.667 420.875,720.667 		"/>
		<path fill="#27286E" d="M421.875,721.667h-21v-59.625H394.5v-11.875h9.5v-43h-4.75v-13.625h7.25v6.5h15.375V721.667z
			 M402.875,719.667h17V602.042H404.5v-6.5h-3.25v9.625H406v47h-9.5v7.875h6.375V719.667z"/>
	</g>
	<g>
		<polygon fill="#B3B7D8" points="421.125,601.042 436.5,601.042 436.5,594.542 441.75,594.542 441.75,606.167 437,606.167 
			437,651.167 446.5,651.167 446.5,661.042 440.125,661.042 440.125,720.667 421.125,720.667 		"/>
		<path fill="#27286E" d="M441.125,721.667h-21V600.042H435.5v-6.5h7.25v13.625H438v43h9.5v11.875h-6.375V721.667z M422.125,719.667
			h17v-59.625h6.375v-7.875H436v-47h4.75v-9.625h-3.25v6.5h-15.375V719.667z"/>
	</g>
	<g>
		<g>
			<path fill="#FFF000" d="M70.502,770.999c0,0,0.166-2.999-0.667-8.166s-13.5-18.834-18-24.334S38.669,727,33.002,715.333
				s-10.5-26.667-10.5-26.667l55.833,31l-3.5-65.999c0,0,17.668,23.666,26.501,40.833s11.167,33.334,11.167,43
				s-6.167,19-12.667,24.333S70.502,770.999,70.502,770.999z"/>
			<path fill="#27286E" d="M69.437,772.191l0.066-1.247c0.001-0.029,0.146-2.977-0.656-7.952
				c-0.62-3.847-9.131-13.741-14.216-19.653c-1.425-1.657-2.655-3.088-3.571-4.207c-1.293-1.58-2.924-3.188-4.812-5.05
				c-4.489-4.425-10.075-9.932-14.146-18.312c-5.633-11.596-10.504-26.646-10.552-26.797l-0.777-2.41l56.467,31.354l-3.578-67.491
				l1.975,2.646c0.177,0.236,17.819,23.931,26.589,40.975c10.179,19.781,11.277,36.98,11.277,43.457
				c0,10.639-7.021,20.174-13.032,25.106c-6.63,5.438-28.86,9.221-29.803,9.379L69.437,772.191z M24.266,690.789
				c1.608,4.716,5.409,15.405,9.635,24.107c3.92,8.07,9.371,13.443,13.75,17.761c1.85,1.823,3.597,3.545,4.957,5.209
				c0.9,1.1,2.123,2.521,3.54,4.168c7.358,8.556,14.019,16.572,14.674,20.64c0.536,3.324,0.667,5.766,0.69,7.13
				c4.722-0.863,22.296-4.317,27.689-8.744c5.674-4.654,12.301-13.618,12.301-23.56c0-6.331-1.077-23.149-11.057-42.542
				c-6.957-13.521-19.577-31.306-24.436-37.996l3.418,64.455L24.266,690.789z"/>
		</g>
		<g>
			<path fill="#FFF000" d="M14,790c0,0-10.75,35.75-10.75,48.25s12.5,36.25,30,36.25s207.75,0,207.75,0s7.75-15.25,7.75-23.25
				s-8-20-14-26S228.5,815,188,815s-84.5,4-120.25,4C20.75,819,14,790,14,790z"/>
			<path fill="#27286E" d="M241.614,875.5H33.25c-18.216,0-31-24.166-31-37.25c0-12.503,10.352-47.072,10.792-48.538l1.073-3.57
				l0.857,3.63C15.041,790.054,22.171,818,67.75,818c17.293,0,36.276-0.926,56.376-1.905C145.251,815.064,167.094,814,188,814
				c37.497,0,40.897,3.611,46.047,9.077c0.447,0.475,0.908,0.964,1.41,1.466c5.935,5.936,14.293,18.146,14.293,26.707
				c0,8.146-7.538,23.071-7.858,23.703L241.614,875.5z M14.103,793.2c-2.538,8.766-9.853,34.907-9.853,45.05
				c0,12.066,12.247,35.25,29,35.25h207.13c1.361-2.775,7.37-15.416,7.37-22.25c0-7.903-8.18-19.765-13.707-25.293
				c-0.518-0.517-0.991-1.02-1.452-1.509C227.971,819.544,224.633,816,188,816c-20.857,0-42.676,1.062-63.776,2.093
				C104.1,819.073,85.092,820,67.75,820C29.558,820,17.398,800.739,14.103,793.2z"/>
		</g>
		<path fill="#27286E" d="M113.667,874.667c0,0,5.333-6.332,8.667-8.666s20.333-6,69.333-6s54.833,3.749,54.833,3.749l-7.25,17.125
			c0,0-38.583,12.459-62.25,12.459C148,893.334,113.667,874.667,113.667,874.667z"/>
		<path fill="#27286E" d="M110.75,744.5c0,0-3.75,16-17,20.75s-20,6-31.25,6s-21.75-2-31.75-2s-14.125,6.125-18.125,22.375
			C12.875,792.375,18.5,804.5,30.5,810s22.25,8.75,30.5,8.75s10.5,0,10.5,0s11-12,18.5-26S110.75,744.5,110.75,744.5z"/>
	</g>
	<g>
		<g>
			<path fill="#FFF000" d="M771.497,770.999c0,0-0.166-2.999,0.667-8.166s13.5-18.834,18-24.334S803.33,727,808.997,715.333
				s10.5-26.667,10.5-26.667l-55.833,31l3.5-65.999c0,0-17.668,23.666-26.501,40.833s-11.166,33.334-11.166,43
				s6.166,19,12.666,24.333S771.497,770.999,771.497,770.999z"/>
			<path fill="#27286E" d="M772.563,772.19l-1.231-0.205c-0.941-0.158-23.173-3.939-29.803-9.38
				c-6.011-4.933-13.031-14.468-13.031-25.105c0-6.477,1.1-23.677,11.276-43.457c8.771-17.044,26.412-40.737,26.589-40.975
				l1.977-2.646l-3.579,67.491l56.467-31.354l-0.776,2.41c-0.049,0.15-4.92,15.201-10.553,26.797
				c-4.07,8.381-9.657,13.889-14.146,18.312c-1.89,1.861-3.521,3.47-4.812,5.05c-0.916,1.119-2.146,2.55-3.571,4.207
				c-5.085,5.912-13.596,15.808-14.216,19.653c-0.803,4.977-0.657,7.923-0.656,7.951L772.563,772.19z M765.989,656.962
				c-4.856,6.69-17.479,24.478-24.436,37.996c-9.979,19.392-11.057,36.211-11.057,42.542c0,9.939,6.627,18.904,12.302,23.56
				c5.393,4.427,22.967,7.88,27.688,8.744c0.022-1.364,0.153-3.806,0.689-7.13c0.655-4.066,7.314-12.084,14.674-20.64
				c1.417-1.646,2.64-3.068,3.539-4.168c1.361-1.664,3.108-3.387,4.957-5.209c4.38-4.316,9.83-9.689,13.751-17.762
				c4.228-8.703,8.027-19.393,9.635-24.106l-55.163,30.628L765.989,656.962z"/>
		</g>
		<g>
			<path fill="#FFF000" d="M828,790c0,0,10.75,35.75,10.75,48.25s-12.5,36.25-30,36.25s-207.75,0-207.75,0s-7.75-15.25-7.75-23.25
				s8-20,14-26S613.5,815,654,815s84.5,4,120.25,4C821.25,819,828,790,828,790z"/>
			<path fill="#27286E" d="M808.75,875.5H600.387l-0.278-0.547c-0.32-0.632-7.857-15.559-7.857-23.703
				c0-8.562,8.357-20.771,14.293-26.707c0.502-0.502,0.962-0.991,1.409-1.466c5.148-5.466,8.551-9.077,46.048-9.077
				c20.904,0,42.749,1.064,63.872,2.095c20.101,0.979,39.084,1.905,56.378,1.905c45.578,0,52.71-27.946,52.775-28.229l0.857-3.628
				l1.073,3.568c0.44,1.466,10.793,36.035,10.793,48.538C839.75,851.334,826.966,875.5,808.75,875.5z M601.619,873.5H808.75
				c16.754,0,29-23.184,29-35.25c0-10.145-7.314-36.285-9.854-45.05c-3.294,7.539-15.454,26.8-53.646,26.8
				c-17.343,0-36.351-0.927-56.475-1.907C696.676,817.062,674.857,816,654,816c-36.634,0-39.972,3.544-44.593,8.448
				c-0.46,0.489-0.935,0.992-1.45,1.509c-5.527,5.528-13.707,17.39-13.707,25.293C594.25,858.087,600.259,870.726,601.619,873.5z"/>
		</g>
		<path fill="#27286E" d="M728.332,874.667c0,0-5.332-6.332-8.666-8.666c-3.332-2.334-20.332-6-69.332-6S595.5,863.75,595.5,863.75
			l7.25,17.125c0,0,38.584,12.459,62.25,12.459C694,893.334,728.332,874.667,728.332,874.667z"/>
		<path fill="#27286E" d="M731.25,744.5c0,0,3.75,16,17,20.75s20,6,31.25,6s21.75-2,31.75-2s14.125,6.125,18.125,22.375
			c-0.25,0.75-5.875,12.875-17.875,18.375s-22.25,8.75-30.5,8.75s-10.5,0-10.5,0s-11-12-18.5-26S731.25,744.5,731.25,744.5z"/>
	</g>
</g>
</svg>
