<?xml version="1.0" encoding="utf-8"?>
<!-- Generator: Adobe Illustrator 15.1.0, SVG Export Plug-In . SVG Version: 6.00 Build 0)  -->
<!DOCTYPE svg PUBLIC "-//W3C//DTD SVG 1.1//EN" "http://www.w3.org/Graphics/SVG/1.1/DTD/svg11.dtd">
<svg version="1.1" id="Layer_1" xmlns="http://www.w3.org/2000/svg" xmlns:xlink="http://www.w3.org/1999/xlink" x="0px" y="0px"
	 width="904px" height="1375px" viewBox="0 0 904 1375" enable-background="new 0 0 904 1375" xml:space="preserve">
<path fill="#231F20" d="M814.334,59c0,0-12,67.333-12.5,70.667s-2.5,5.333-4.5,5.333s-40.167,3-40.167,3l-3.614-20.333h28.114
	l18-54.667H769l-16.937,46.293L743.834,63h-32L731.5,167l96.667-11.667l16-89L814.334,59z"/>
<polygon fill="#231F20" points="538.168,94.167 593.001,94.167 593.001,166.833 619.668,166.833 623.001,93.667 630.835,93.667 
	631.835,62.833 541.501,59.333 "/>
<polygon fill="#231F20" points="370.168,94 425.002,94 425.002,167 451.668,167 456.002,62.833 373.168,58.833 "/>
<polygon fill="#231F20" points="246.833,93.833 257.167,93.833 257.167,166.667 284.833,166.667 287.833,63 251,59 "/>
<polygon fill="#231F20" points="103.666,164.667 103.666,94.167 132,94.167 132,167 159.666,167 163.833,63.167 69.166,59 65,94 
	73.833,94 75.166,135.833 62,135.833 62,168.833 "/>
<path fill="#006735" d="M451.583,1315.059c0,0,191.983-43.498,289.478-160.492s101.995-215.989,101.995-311.984s0-575.971,0-575.971
	h-391.48h0.015H60.11c0,0,0,479.976,0,575.971s4.5,194.99,101.995,311.984S451.583,1315.059,451.583,1315.059z"/>
<g>
	<defs>
		<path id="SVGID_1_" d="M451.583,1264.062c0,0,167.058-39.515,251.897-145.798c84.837-106.281,88.753-196.212,88.753-283.419
			c0-87.206,0-523.235,0-523.235H451.577h0.013H110.934c0,0,0,436.029,0,523.235c0,87.207,3.915,177.138,88.753,283.419
			C284.525,1224.547,451.583,1264.062,451.583,1264.062z"/>
	</defs>
	<clipPath id="SVGID_2_">
		<use xlink:href="#SVGID_1_"  overflow="visible"/>
	</clipPath>
	<g clip-path="url(#SVGID_2_)">
		<rect x="83" y="300" fill="#1183C6" width="747" height="552.75"/>
		<polygon fill="#B7D433" points="186,851.5 250,851.5 117,984 101.5,895.5 		"/>
		<polygon fill="#B7D433" points="327,852.5 164.5,1078.5 225.5,1156.5 368.5,852.5 		"/>
		<polygon fill="#B7D433" points="403.5,851 310.5,1218 404.5,1255.5 434,850 		"/>
		<polygon fill="#B7D433" points="717,851.5 653,851.5 786,984 801.5,895.5 		"/>
		<polygon fill="#B7D433" points="576,852.5 738.5,1078.5 677.5,1156.5 534.5,852.5 		"/>
		<polygon fill="#B7D433" points="499.5,851 592.5,1218 498.5,1255.5 469,850 		"/>
		<path fill="#FFCD04" d="M249.744,764.601L106,713l-8,52l135.767,47.224c-2.68,13.197-4.1,26.827-4.1,40.776H673
			c0-14.025-1.435-27.729-4.144-40.993L804,765l-8-52l-143.176,51.396c-3.81-7.936-8.115-15.605-12.879-22.977L806,600l-6-60
			L606.334,701.229c-6.179-5.79-12.707-11.238-19.557-16.31L799,317l-5-12l-50,3L541.021,658.779
			c-7.825-3.32-15.883-6.228-24.153-8.676L578,305l-54,3l-57.512,333.17c-5.009-0.324-10.06-0.504-15.155-0.504
			c-5.319,0-10.59,0.191-15.815,0.544L378,308l-54-3l61.166,345.291c-8.237,2.464-16.264,5.383-24.057,8.714L158,308l-50-3l-5,12
			l212.421,368.263c-6.795,5.06-13.271,10.491-19.402,16.26L102,540l-6,60l166.483,141.785
			C257.773,749.107,253.514,756.724,249.744,764.601z"/>
		<polygon fill="#ED1C24" points="189.333,799.667 153.167,763.5 256.333,660.333 361.001,765.001 326.001,800.001 257.667,731.667 
					"/>
		<polygon fill="#FFFFFF" points="189.333,799.299 189.333,852.999 325.601,852.999 325.601,799.635 257.467,731.501 		"/>
		<rect x="237" y="777" fill="#231F20" width="39" height="26"/>
		<polygon fill="#FFFFFF" points="517,759 517,852.5 714,852.5 714,695.5 651.25,758.25 651.25,695 585.625,760.625 585.625,692.5 
					"/>
		<rect x="530.5" y="777" fill="#231F20" width="39" height="26"/>
		<rect x="596" y="777" fill="#231F20" width="39" height="26"/>
		<rect x="661.5" y="777" fill="#231F20" width="39" height="26"/>
	</g>
</g>
<g>
	<circle fill="#231F20" cx="469.698" cy="723.682" r="13.095"/>
	<path fill="#231F20" d="M492.138,738.197h-22.439h-22.441c-4.489,0-10.381,3.082-10.381,9.817v1.718
		c-0.426-1.363-0.744-2.351-0.917-2.83c-1.413-3.93-5.815-7.391-9.432-7.391h-18.269h-18.517c-3.616,0-8.015,3.461-9.432,7.391
		c-1.414,3.929-12.577,41.816-13.52,44.017c-0.943,2.199,0.788,5.972,4.246,6.916c3.457,0.941,8.646,1.101,9.905-3.303
		c1.253-4.398,10.217-37.569,10.217-37.569s3.143,0.47,3.143,2.357s-0.471,2.987-0.471,2.987l-16.82,56.12h13.678v32.866
		c0,2.045,3.143,5.662,7.859,5.662c4.714,0,7.545-2.833,7.545-5.504v-33.024c0-1.573,1.414-1.573,2.042-1.573
		c0.631,0,2.046,0,2.046,1.573v33.024c0,2.671,2.828,5.504,7.544,5.504c4.715,0,7.861-3.617,7.861-5.662v-32.866h13.677
		l-16.823-56.12c0,0-0.469-1.1-0.469-2.987s3.145-2.357,3.145-2.357s8.959,33.171,10.217,37.569
		c1.256,4.403,6.445,4.244,9.904,3.303c3.458-0.944,5.187-4.717,4.244-6.916c-0.23-0.535-1.068-3.195-2.223-6.962v-21.779
		c0-0.701,0.701-1.401,1.542-1.401c0.842,0,1.683,0.562,1.683,1.121v85.771c0,2.106,3.368,7.976,8.697,7.976
		c5.327,0,8.978-5.166,8.978-7.554v-48.041c0-0.841,0.84-1.123,1.542-1.123c0.699,0,1.543,0.282,1.543,1.123v48.041
		c0,2.388,3.646,7.554,8.979,7.554c5.327,0,8.69-5.869,8.69-7.976v-85.771c0-0.56,0.843-1.121,1.687-1.121
		c0.841,0,1.541,0.7,1.541,1.401v30.474c0,1.824,2.18,4.358,5.124,4.358c2.946,0,5.257-2.534,5.257-4.216v-44.779
		C502.519,741.279,496.627,738.197,492.138,738.197z"/>
	<circle fill="#231F20" cx="408.134" cy="724.961" r="13.095"/>
</g>
</svg>
