<?xml version="1.0" encoding="utf-8"?>
<!-- Generator: Adobe Illustrator 15.1.0, SVG Export Plug-In . SVG Version: 6.00 Build 0)  -->
<!DOCTYPE svg PUBLIC "-//W3C//DTD SVG 1.1//EN" "http://www.w3.org/Graphics/SVG/1.1/DTD/svg11.dtd">
<svg version="1.1" id="Layer_1" xmlns="http://www.w3.org/2000/svg" xmlns:xlink="http://www.w3.org/1999/xlink" x="0px" y="0px"
	 width="581px" height="295px" viewBox="0 0 581 295" enable-background="new 0 0 581 295" xml:space="preserve">
<g>
	<g>
		<linearGradient id="SVGID_1_" gradientUnits="userSpaceOnUse" x1="50.25" y1="181.25" x2="50.25" y2="122.2505">
			<stop  offset="0" style="stop-color:#8DC4CD"/>
			<stop  offset="1" style="stop-color:#127FB7"/>
		</linearGradient>
		<path fill="url(#SVGID_1_)" d="M65.75,181.25v-50.625c0,0-7.875-8.375-15.5-8.375s-15.5,8.375-15.5,8.375v50.625H65.75z"/>
		<path fill="#231F20" d="M66.25,181.75h-32v-51.323l0.136-0.144c0.328-0.349,8.112-8.533,15.864-8.533s15.537,8.184,15.864,8.533
			l0.136,0.144V181.75z M35.25,180.75h30v-49.922c-1.067-1.084-8.216-8.078-15-8.078s-13.933,6.993-15,8.078V180.75z"/>
	</g>
	<g>
		<linearGradient id="SVGID_2_" gradientUnits="userSpaceOnUse" x1="110.375" y1="181.375" x2="110.375" y2="132.1255">
			<stop  offset="0" style="stop-color:#8DC4CD"/>
			<stop  offset="1" style="stop-color:#127FB7"/>
		</linearGradient>
		<path fill="url(#SVGID_2_)" d="M120.5,181.375v-42.259c0,0-5.144-6.991-10.125-6.991s-10.125,6.991-10.125,6.991v42.259H120.5z"/>
		<path fill="#231F20" d="M121,181.875H99.75v-42.923l0.097-0.132c0.216-0.294,5.354-7.195,10.528-7.195s10.312,6.901,10.528,7.195
			l0.097,0.132V181.875z M100.75,180.875H120v-41.59c-0.722-0.935-5.316-6.66-9.625-6.66s-8.903,5.725-9.625,6.66V180.875z"/>
	</g>
	<g>
		<linearGradient id="SVGID_3_" gradientUnits="userSpaceOnUse" x1="133.75" y1="181.375" x2="133.75" y2="132.1255">
			<stop  offset="0" style="stop-color:#8DC4CD"/>
			<stop  offset="1" style="stop-color:#127FB7"/>
		</linearGradient>
		<path fill="url(#SVGID_3_)" d="M143.875,181.375v-42.259c0,0-5.144-6.991-10.125-6.991s-10.125,6.991-10.125,6.991v42.259H143.875
			z"/>
		<path fill="#231F20" d="M144.375,181.875h-21.25v-42.923l0.097-0.132c0.216-0.294,5.354-7.195,10.528-7.195
			s10.312,6.901,10.528,7.195l0.097,0.132V181.875z M124.125,180.875h19.25v-41.59c-0.722-0.935-5.316-6.66-9.625-6.66
			s-8.903,5.725-9.625,6.66V180.875z"/>
	</g>
	<g>
		<linearGradient id="SVGID_4_" gradientUnits="userSpaceOnUse" x1="157.125" y1="181.375" x2="157.125" y2="132.1255">
			<stop  offset="0" style="stop-color:#8DC4CD"/>
			<stop  offset="1" style="stop-color:#127FB7"/>
		</linearGradient>
		<path fill="url(#SVGID_4_)" d="M167.25,181.375v-42.259c0,0-5.144-6.991-10.125-6.991S147,139.116,147,139.116v42.259H167.25z"/>
		<path fill="#231F20" d="M167.75,181.875H146.5v-42.923l0.097-0.132c0.216-0.294,5.354-7.195,10.528-7.195
			s10.312,6.901,10.528,7.195l0.097,0.132V181.875z M147.5,180.875h19.25v-41.59c-0.722-0.935-5.316-6.66-9.625-6.66
			s-8.903,5.725-9.625,6.66V180.875z"/>
	</g>
	<g>
		<linearGradient id="SVGID_5_" gradientUnits="userSpaceOnUse" x1="232.1665" y1="165.665" x2="232.1665" y2="117.332">
			<stop  offset="0" style="stop-color:#8DC4CD"/>
			<stop  offset="1" style="stop-color:#127FB7"/>
		</linearGradient>
		<rect x="224.833" y="117.332" fill="url(#SVGID_5_)" width="14.667" height="48.333"/>
		<path fill="#231F20" d="M240,166.165h-15.667v-49.333H240V166.165z M225.333,165.165H239v-47.333h-13.667V165.165z"/>
	</g>
	<g>
		<linearGradient id="SVGID_6_" gradientUnits="userSpaceOnUse" x1="252.6665" y1="165.665" x2="252.6665" y2="117.332">
			<stop  offset="0" style="stop-color:#8DC4CD"/>
			<stop  offset="1" style="stop-color:#127FB7"/>
		</linearGradient>
		<rect x="245.333" y="117.332" fill="url(#SVGID_6_)" width="14.667" height="48.333"/>
		<path fill="#231F20" d="M260.5,166.165h-15.667v-49.333H260.5V166.165z M245.833,165.165H259.5v-47.333h-13.667V165.165z"/>
	</g>
	<g>
		<linearGradient id="SVGID_7_" gradientUnits="userSpaceOnUse" x1="273.1665" y1="165.665" x2="273.1665" y2="117.332">
			<stop  offset="0" style="stop-color:#8DC4CD"/>
			<stop  offset="1" style="stop-color:#127FB7"/>
		</linearGradient>
		<rect x="265.833" y="117.332" fill="url(#SVGID_7_)" width="14.667" height="48.333"/>
		<path fill="#231F20" d="M281,166.165h-15.667v-49.333H281V166.165z M266.333,165.165H280v-47.333h-13.667V165.165z"/>
	</g>
	<path fill="#B0D236" d="M193.125,230.375c0,0,4.75-6.375,4.75-12.25s-4-18.5-11.5-30.75s-13.25-27.375-13.25-41
		c0-7.5,1.875-13.5,1.875-13.5S176.875,139,178.875,143s6.25,10.375,8,13.75s4.125,9.375,4.125,9.375s0.375-4.25-0.5-10.125
		c-1.102-7.398-6-15.25-8.375-31.875S183,94,183,94s-2.875-20.5-0.875-35.5S191.25,35,191.25,35s2.5,9,2.5,22s-9,27.375-9,49.875
		s7.25,34.5,10.875,49.25s7,38.125,7,38.125s4.5-6.125,4.5-18.375s-9.25-30.5-9.25-45.375s2.875-31.75,5.125-43
		s5.875-18.125,5.875-18.125s8.125,18,8.125,35.375s-5.25,36.125-5.25,49s0.75,10.75,0.75,20.75c0,13.625-6,22.375-6,22.375
		s17.625-25.375,50.375-25.375s55.75,17.875,55.75,17.875s-15.75-8.125-38.625-8.125s-43.375,12.625-55.25,25.375
		s-15,17.25-18.625,20S193.125,230.375,193.125,230.375z"/>
	<g>
		<polygon fill="#323267" points="521.25,133.25 516.375,124.75 507.25,133.625 512.625,142.625 		"/>
		<polygon fill="#323267" points="559.905,144.929 564.875,153.25 573.5,143.875 568.625,135.375 560.521,143.257 556,135.375 
			546.875,144.25 552.25,153.25 		"/>
		<polygon fill="#323267" points="570.375,127.5 565.5,119 556.375,127.875 561.75,136.875 		"/>
		<path fill="#323267" d="M578.5,150.833l-10.167,9.334c0,0,1.834,3.334,1.834,5.5s-0.833,4.333-3.5,4.333c-5.667,0-7-6.5-7-6.5
			s-5.501,7.083-14.334,7.083c-5.083,0-5.666-0.584-5.666-1.75c0-3.166,3.166-7.583,3.166-7.583s-7.999,9.083-12.166,9.083
			s-13.917,0-13.917,0s2.667-1.582,2.667-7.916s-2.5-15.083-6.417-15.083s-9.167,6.5-12.25,13.75s-2.833,9.084-2.833,9.084h-11.084
			c0,0,1.834-7.083,3.834-19c2-11.917,3.916-23.833,3.916-23.833l-11.666,9.083c0,0-1.25,8.999-2.667,17.583
			s-3.333,19.918-3.333,24.584c0,3.5,0.583,5.083,0.583,5.083s47.251,0,49.417,0s4.416-2.25,4.416-2.25s3.584,3.333,9.584,3.333
			s12.25-5.666,12.25-5.666s1.501,4.333,7.584,4.333s10.833-6.834,13.833-12.417s4.084-11.249,4.084-14.166
			S578.5,150.833,578.5,150.833z M511.501,170.416c0,0-6.333-2.834-6.333-5.25s1.834-4.083,3.5-4.083s3.5,3.833,3.5,5.75
			S511.501,170.416,511.501,170.416z"/>
		<path fill="#323267" d="M449.833,162.834c0-3.5,7.416-6.5,11.75-6.5s6,1.417,6,1.417s-3.082-13-6.916-13
			s-10.584,4.75-15.667,12.583s-4.583,12.917-4.583,12.917H430.5c0,0,0.835-19.084-4.915-19.084s-12.833,6.917-15.75,10.75
			s-3.833,8.167-11.5,8.167c-9.083,0-7.5-9.834-7.5-9.834l-6.917,9.416c0,0-0.5,1.5-0.5,2.833c0,5.75,1.833,8.333,1.833,8.333
			s-1.167,6.5-9.25,12.75s-18.75,7.584-18.75,7.584s7.334,7.083,14.167,7.083s11.833-7.251,15.083-12.667s5.417-12,5.417-12
			s1.166,0.25,3.583,0.25c7.667,0,10.917-4.583,10.917-4.583l14.5,8.833l5.25-4.166c0,0,14.668,0,20.168,0
			s19.333-3.668,19.333-3.668L472,167.334c0,0-12.001,2.667-15.167,2.667S449.833,166.334,449.833,162.834z M421.688,171.719
			c0,0-5.781-4.219-5.781-4.938s1.594-2.719,3.469-2.719s3,3.625,3,4.906S421.688,171.719,421.688,171.719z"/>
		<path fill="#323267" d="M362,149.25c-2.333,0-8.749,5.084-11.666,10.417s-6,11.833-6,16.25s4.75,8.167,7.75,8.167
			s4.333-0.584,4.333-0.584s-1.583,4.166-8.5,9s-10.916,5.834-14.083,5.834s-5.584,0-5.584,0s7.668,9.083,13.834,9.083
			s26.25-16.666,26.25-41.833C368.334,152.167,364.333,149.25,362,149.25z M353.792,167.333c0-3.25,2.457-4.333,3.166-4.333
			s2.875,2.499,2.875,4.208s0.001,2.792,0.001,2.792S353.792,170.583,353.792,167.333z"/>
	</g>
	<path fill="#323267" d="M577.25,164v124.75H545.5c0,0,2.75-32.75-15.5-32.75c-21.75,0-20,36-20,36h-28.5c0,0,2-46.75-8.25-46.75
		c-8,0-9.75,12.5-9.75,16.5s0,29.5,0,29.5h-33.75c0,0,0-45.5,0-50.5s-6.5-12.75-14.5-12.75s-12.75,8.5-12.75,12.25s0,48.25,0,48.25
		H389c0,0-5.5-27.5-19.75-27.5c-6.75,0-14.75,10.75-21.25,18.125s-9.25,10.25-10.5,11s-14.375,3.5-32.875,3.5
		s-34.375-6.5-34.375-19.875s22.25-38.625,44-38.625c15,0,18.625,8.5,18.625,11.75s-0.875,9.625-13,16.5s-21,8.5-21,8.5
		s8.875-6.25,8.875-10.875c0-3.125-0.75-4.625-1.875-4.625s-10.75,5-10.75,10.625s6,8.5,17.625,8.5s23.875-8.125,23.875-8.125
		s9.25-33.125,30.5-33.125c9.375,0,20.125,9.75,20.125,9.75s4-41.625,24.625-41.625c22.875,0,29.5,21.125,30.75,37.25
		s1.625,19.125,1.625,19.125s5.375-34.875,23.875-34.875c20.5,0,23.25,31,23.25,31s13-20.25,29.25-20.25
		c29.375,0,42,20.875,42,20.875v-64.75L577.25,164z"/>
	<path fill="#323267" d="M212.625,265.75l-8.5,20.25c0,0,10.625,5.875,22.5,5.875s40.5-5.375,40.5-29.625
		c0-18.25-21.375-28.25-29.5-28.25s-25.125,4.625-25.125,15.625s19.5,18.25,19.5,18.25s0-12.75,4.625-12.75s7,6.875,7,8.625
		s-2.625,8.75-14.25,8.75S212.625,265.75,212.625,265.75z"/>
	<path fill="#323267" d="M143.5,265.125c0,0,1.375-5.25,3.25-10.75s5.25-10.25,5.25-10.25s14-8,32.125-8s21,12.25,21,18.75
		S200.5,273.375,194.5,280s-16.625,13.5-16.625,13.5s-4-1-7.375-2.75s-5.25-3.375-5.25-3.375s12.5-15.5,12.5-23.375
		c0-3.5-4.75-4.875-8-4.875C158.625,259.125,143.5,265.125,143.5,265.125z"/>
	<path fill="#323267" d="M138.667,247.501c0,0-1-4.668-2.167-6.834s-5-5.666-5-5.666s-5.531,1.874-11,4.687
		c-3.312-4.062-6-6.854-6-6.854s-6.333,2.166-12.5,5.333s-10.167,6.834-10.167,6.834s2.67,1.421,6.218,3.624
		c-4.06,1.919-7.247,3.652-8.552,4.876c-5.333,5-8.667,11.166-8.667,20.166s6.5,18.334,23.167,18.334s34.167-9.001,34.167-26.334
		c0-5.675-3.245-11.646-7.329-16.917C135.32,247.807,138.667,247.501,138.667,247.501z M108.333,274.001c-2,0-5.5-2.334-5.5-5.167
		c0-1.874,3.146-6.661,7.825-10.848c2.926,2.802,5.009,5.672,5.009,8.181C115.667,272.667,110.333,274.001,108.333,274.001z"/>
	<path fill="#323267" d="M294,17.5H190V3.25H81.75V20.5l-76.5,7.75V292.5l28.601,0.25L34,286.917c0,0,2.917,1.666,8.083,1.666
		s15.25-1.166,21.917-5.916s14.25-15.083,14.25-26.25s-5.75-18-17.333-18c-8.417,0-14.667,4.416-14.667,4.416l1.417-5.25
		c0,0-5.417,0.417-11.5,1.167s-9.417,1.917-9.417,1.917s-1.658,4.652-3.583,10.166C21.334,256.083,20,260.5,20,260.5V40l61.5-5.25
		v148h10.25V16.5h92.75v13H294V121c0,0,10.75,7.75,24.25,23.25s24,45.75,24,45.75V67.5L294,17.5z M41.917,259.75
		c2.667-2.333,4.75-3.667,5.75-3.667c1.917,0,5.167,2.25,5.167,4.667s-7.583,9.833-10.917,9.833s-3.333-2.584-3.333-3.75
		S39.251,262.083,41.917,259.75z"/>
</g>
</svg>
