<?xml version="1.0" encoding="UTF-8"?>
<svg id="Layer_1" data-name="Layer 1" xmlns="http://www.w3.org/2000/svg" xmlns:xlink="http://www.w3.org/1999/xlink" viewBox="0 0 332.05 382.87">
  <defs>
    <style>
      .cls-1 {
        fill: none;
      }

      .cls-2 {
        fill: #00aeef;
      }

      .cls-3 {
        fill: #fff;
      }

      .cls-4 {
        clip-path: url(#clippath);
      }
    </style>
    <clipPath id="clippath">
      <path class="cls-1" d="M30.27,24.26h1.36-1.36ZM31.63,24.26c-.75,0-1.36.64-1.36,1.43v264.55c0,5.21,2.98,9.91,7.56,11.94l132.83,58.65c1.31.51,2.33.56,3.68,0l132.82-58.65c4.59-2.03,7.56-6.73,7.56-11.94V25.69c0-.78-.61-1.43-1.36-1.43H31.63Z"/>
    </clipPath>
  </defs>
  <path class="cls-3" d="M31.63,24.26h-1.36,1.36c-.75,0-1.36.64-1.36,1.42v264.55c0,5.21,2.97,9.92,7.56,11.95l132.83,58.65c1.31.51,2.33.56,3.68,0l132.82-58.65c4.58-2.03,7.56-6.73,7.56-11.95V25.68c0-.78-.61-1.42-1.36-1.42H31.63Z"/>
  <g class="cls-4">
    <rect class="cls-2" x="213.31" y="64.11" width="101.56" height="3.56" transform="translate(58.92 244.75) rotate(-55.09)"/>
    <rect class="cls-2" x="206.36" y="61.28" width="90.15" height="3.56" transform="translate(69.27 247.48) rotate(-59.43)"/>
    <polygon class="cls-2" points="252 128.59 249.62 125.95 311.9 69.86 314.28 72.5 252 128.59"/>
    <rect class="cls-2" x="231.18" y="83.44" width="96.92" height="3.56" transform="translate(24.84 228.53) rotate(-46.3)"/>
    <rect class="cls-2" x="206.36" y="61.28" width="90.15" height="3.56" transform="translate(69.27 247.48) rotate(-59.43)"/>
    <polygon class="cls-2" points="223.07 97.61 219.88 96.04 255.55 23.46 258.75 25.03 223.07 97.61"/>
    <rect class="cls-2" x="231.18" y="83.44" width="96.92" height="3.56" transform="translate(24.84 228.53) rotate(-46.3)"/>
    <path class="cls-3" d="M313.08,25.67c0-.07,0-.13-.02-.2l-72.12,88.23"/>
    <path class="cls-2" d="M242.32,114.82l-2.75-2.25,74.72-91.4.55,4.06c.02.16.03.3.03.44h-1.55l1.14.92-72.13,88.23Z"/>
    <polygon class="cls-2" points="242.32 114.82 239.57 112.57 311.69 24.35 314.45 26.59 242.32 114.82"/>
    <rect class="cls-2" x="213.31" y="64.11" width="101.56" height="3.56" transform="translate(58.92 244.75) rotate(-55.09)"/>
    <rect class="cls-2" x="182.28" y="54.7" width="67.58" height="3.56" transform="translate(97.51 245.74) rotate(-72.58)"/>
    <polygon class="cls-2" points="199.34 86.17 195.87 85.37 210.18 23.84 213.64 24.65 199.34 86.17"/>
    <polygon class="cls-2" points="223.07 97.61 219.88 96.04 255.55 23.46 258.75 25.03 223.07 97.61"/>
    <rect class="cls-2" x="190.85" y="56.55" width="73.43" height="3.56" transform="translate(88.9 247.95) rotate(-68.2)"/>
    <rect class="cls-2" x="182.28" y="54.7" width="67.58" height="3.56" transform="translate(97.51 245.74) rotate(-72.58)"/>
    <rect class="cls-2" x="190.85" y="56.55" width="73.43" height="3.56" transform="translate(88.9 247.95) rotate(-68.2)"/>
    <rect class="cls-2" x="247.05" y="110.24" width="73.71" height="3.56" transform="translate(-9.25 196.93) rotate(-37.69)"/>
    <polygon class="cls-2" points="252 128.59 249.62 125.95 311.9 69.86 314.28 72.5 252 128.59"/>
    <rect class="cls-2" x="261.78" y="154.09" width="52.93" height="3.56" transform="translate(-36.09 109.13) rotate(-20.2)"/>
    <rect class="cls-2" x="259.73" y="143.93" width="55.88" height="3.55" transform="translate(-34.53 132.62) rotate(-24.54)"/>
    <rect class="cls-2" x="262.93" y="163.87" width="51.12" height="3.56" transform="translate(-34.26 85.02) rotate(-15.84)"/>
    <rect class="cls-2" x="261.78" y="154.09" width="52.93" height="3.56" transform="translate(-36.09 109.13) rotate(-20.2)"/>
    <rect class="cls-2" x="263.28" y="173.33" width="50.3" height="3.56" transform="translate(-29.03 60.76) rotate(-11.45)"/>
    <rect class="cls-2" x="262.93" y="163.87" width="51.12" height="3.56" transform="translate(-34.26 85.02) rotate(-15.84)"/>
    <rect class="cls-2" x="27.1" y="24.18" width="3.56" height=".52" transform="translate(-8.94 23.58) rotate(-38.94)"/>
    <polygon class="cls-2" points="190.75 83.9 187.24 83.36 196.35 23.97 199.86 24.51 190.75 83.9"/>
    <polygon class="cls-2" points="199.34 86.17 195.87 85.37 210.18 23.84 213.64 24.65 199.34 86.17"/>
    <rect class="cls-2" x="259.73" y="143.93" width="55.88" height="3.55" transform="translate(-34.53 132.62) rotate(-24.54)"/>
    <rect class="cls-2" x="256.69" y="133.31" width="60.14" height="3.56" transform="translate(-29.58 155.35) rotate(-28.89)"/>
    <rect class="cls-2" x="252.52" y="122.13" width="65.98" height="3.56" transform="translate(-21.14 177.14) rotate(-33.31)"/>
    <rect class="cls-2" x="247.05" y="110.24" width="73.71" height="3.56" transform="translate(-9.25 196.93) rotate(-37.69)"/>
    <rect class="cls-2" x="256.69" y="133.31" width="60.14" height="3.56" transform="translate(-29.58 155.35) rotate(-28.89)"/>
    <rect class="cls-2" x="252.52" y="122.13" width="65.98" height="3.56" transform="translate(-21.14 177.14) rotate(-33.31)"/>
    <rect class="cls-2" x="60.52" y="35.54" width="3.56" height="97.6" transform="translate(-40.99 66.27) rotate(-43.63)"/>
    <rect class="cls-2" x="58.17" y="56.27" width="3.56" height="84.31" transform="translate(-53.31 77.1) rotate(-47.99)"/>
    <rect class="cls-2" x="56.18" y="74.26" width="3.55" height="74.08" transform="translate(-65.57 89.21) rotate(-52.35)"/>
    <rect class="cls-2" x="54.53" y="90.15" width="3.56" height="66.23" transform="translate(-77.64 102.7) rotate(-56.72)"/>
    <rect class="cls-2" x="63.41" y="11.75" width="3.56" height="114.21" transform="translate(-28.86 56.81) rotate(-39.27)"/>
    <rect class="cls-2" x="60.52" y="35.54" width="3.56" height="97.6" transform="translate(-40.99 66.27) rotate(-43.63)"/>
    <rect class="cls-2" x="58.17" y="56.27" width="3.56" height="84.31" transform="translate(-53.31 77.1) rotate(-47.99)"/>
    <rect class="cls-2" x="56.18" y="74.26" width="3.55" height="74.08" transform="translate(-65.57 89.21) rotate(-52.35)"/>
    <rect class="cls-2" x="76.7" y="15.17" width="3.56" height="100.81" transform="translate(-23.41 56.71) rotate(-34.9)"/>
    <rect class="cls-2" x="63.41" y="11.75" width="3.56" height="114.21" transform="translate(-28.86 56.81) rotate(-39.27)"/>
    <rect class="cls-2" x="89.41" y="18.03" width="3.55" height="89.48" transform="translate(-19.25 55.04) rotate(-30.54)"/>
    <rect class="cls-2" x="76.7" y="15.17" width="3.56" height="100.81" transform="translate(-23.41 56.71) rotate(-34.9)"/>
    <rect class="cls-2" x="54.53" y="90.15" width="3.56" height="66.23" transform="translate(-77.64 102.7) rotate(-56.72)"/>
    <rect class="cls-2" x="53.24" y="104.38" width="3.56" height="60.3" transform="translate(-89.34 117.63) rotate(-61.08)"/>
    <rect class="cls-2" x="101.57" y="20.13" width="3.56" height="80.29" transform="translate(-15.99 51.77) rotate(-26.18)"/>
    <rect class="cls-2" x="89.41" y="18.03" width="3.55" height="89.48" transform="translate(-19.25 55.04) rotate(-30.54)"/>
    <rect class="cls-2" x="147.44" y="23.9" width="3.56" height="59.89" transform="translate(-6.44 23.25) rotate(-8.72)"/>
    <rect class="cls-2" x="136.22" y="23.43" width="3.55" height="62.86" transform="translate(-8.84 32.67) rotate(-13.09)"/>
    <polygon class="cls-2" points="160.8 82.37 156.39 24.38 159.93 24.11 164.35 82.1 160.8 82.37"/>
    <rect class="cls-2" x="147.44" y="23.9" width="3.56" height="59.89" transform="translate(-6.44 23.25) rotate(-8.72)"/>
    <rect class="cls-2" x="169.7" y="24.24" width="3.56" height="57.63"/>
    <polygon class="cls-2" points="160.8 82.37 156.39 24.38 159.93 24.11 164.35 82.1 160.8 82.37"/>
    <polygon class="cls-2" points="181.97 82.46 178.43 82.2 182.86 24.1 186.4 24.38 181.97 82.46"/>
    <polygon class="cls-2" points="190.75 83.9 187.24 83.36 196.35 23.97 199.86 24.51 190.75 83.9"/>
    <polygon class="cls-2" points="181.97 82.46 178.43 82.2 182.86 24.1 186.4 24.38 181.97 82.46"/>
    <rect class="cls-2" x="136.22" y="23.43" width="3.55" height="62.86" transform="translate(-8.84 32.67) rotate(-13.09)"/>
    <rect class="cls-2" x="124.87" y="22.7" width="3.56" height="67.17" transform="translate(-11.05 40.56) rotate(-17.45)"/>
    <rect class="cls-2" x="124.87" y="22.7" width="3.56" height="67.17" transform="translate(-11.05 40.56) rotate(-17.45)"/>
    <rect class="cls-2" x="113.35" y="21.63" width="3.56" height="72.93" transform="translate(-13.34 46.94) rotate(-21.81)"/>
    <rect class="cls-2" x="113.35" y="21.63" width="3.56" height="72.93" transform="translate(-13.34 46.94) rotate(-21.81)"/>
    <rect class="cls-2" x="101.57" y="20.13" width="3.56" height="80.29" transform="translate(-15.99 51.77) rotate(-26.18)"/>
    <polyline class="cls-3" points="144.34 157.85 144.34 197.64 168.52 197.64"/>
    <polygon class="cls-2" points="168.52 199.42 142.56 199.42 142.56 157.84 146.12 157.84 146.12 195.86 168.52 195.86 168.52 199.42"/>
    <rect class="cls-2" x="204.16" y="165.77" width="3.56" height="23.95"/>
    <path class="cls-2" d="M90.26,213.29s33.23,60.31,83.99,50.71c50.76-9.58,80.6-37.05,83.31-69.87h30.14s-7.79,40.42-19.98,48.5l10.5,8.55-26.76,28.58s-3.73,4.66-8.13-1.02c-4.4-5.67-8.13-10.42-8.13-10.42,0,0-22.46,17.27-37.81,16.94l1.75,15.17c.23,1.95-1.13,3.73-3.07,4-8.23,1.18-29.66,3.51-48.99-.62-2.26-.48-3.78-2.62-3.48-4.91l1.53-11.96s-19.65-7.45-35.9-16.59l-8.83,8.1c-1.93,1.76-4.87,1.78-6.81.03-7.63-6.85-25.47-23.62-28.38-33.03-3.73-12.02-3.73-33.02,23.37-32.17,27.1.85,1.69,0,1.69,0"/>
    <path class="cls-3" d="M171.78,307.19c-7.89,0-16.59-.59-24.91-2.37-2.76-.58-4.63-3.24-4.28-6.03l1.42-11.17c-3.7-1.44-20.42-8.09-34.65-16.01l-8.29,7.6c-2.32,2.13-5.83,2.15-8.17.04-7.63-6.85-25.69-23.82-28.68-33.48-1.15-3.72-4.38-16.52,2.39-25.42,4.32-5.66,11.69-8.38,21.92-8.07l-.03-.06,7.19.24c1.35.05,2.7.09,3.72.13l1.22.04c.09,0,.2,0,.32.02h.09c.48.07,1.06.27,1.03,1.04-.02.75-.55.93-1.1.97h0s-.07,0-.14,0c-.15,0-.29,0-.43,0-.44-.01-1.12-.04-2.09-.06-1.41-.05-3.43-.11-6.22-.19,2.57,4.24,10.24,16.13,21.86,27.12,8.41,7.96,17.23,13.9,26.18,17.66,11.14,4.68,22.56,5.96,33.93,3.81,24.29-4.59,44.76-13.57,59.2-26,13.9-11.96,21.95-26.81,23.29-42.96l.08-.93h32.31l-.24,1.2c-.31,1.62-7.56,38.64-19.33,48.35l10.33,8.41-27.47,29.35c-.25.3-1.9,2.14-4.35,2.14h-.04c-1.87-.01-3.66-1.09-5.31-3.21-3.32-4.27-6.27-8.05-7.51-9.62-4.1,3.04-22.54,16.11-36.49,16.53l1.63,14.05c.29,2.52-1.44,4.77-3.94,5.12-4.79.69-13.88,1.74-24.44,1.74M109.09,269.12l.65.35c16,9,35.56,16.46,35.76,16.53l.75.29-1.63,12.75c-.22,1.75.96,3.42,2.69,3.79,19.14,4.08,40.39,1.78,48.64.6,1.4-.2,2.38-1.46,2.21-2.88l-1.89-16.34,1.17.02c14.81.35,36.95-16.55,37.17-16.72l.8-.61.62.79s3.78,4.81,8.14,10.42c1.23,1.6,2.48,2.42,3.71,2.42h.01c1.62,0,2.79-1.4,2.8-1.41l.05-.07,26.01-27.78-10.73-8.73,1.15-.76c10.54-6.98,17.89-39.89,19.3-46.64h-27.97c-1.61,16.33-9.85,31.32-23.9,43.4-14.7,12.66-35.5,21.8-60.15,26.46-3.64.69-7.3,1.03-10.95,1.03-17.48,0-34.91-7.84-50.97-23.06-13.01-12.32-21.15-25.76-22.83-28.64-.37-.01-.76-.02-1.15-.04-9.57-.29-16.39,2.15-20.3,7.28-1.56,2.05-6.33,9.81-2.07,23.58,2.85,9.17,20.6,25.83,28.1,32.57,1.55,1.4,3.9,1.39,5.44-.03l9.37-8.59Z"/>
    <polygon class="cls-3" points="189.42 126.43 229.12 155.16 114.31 155.16 189.42 126.43"/>
    <path class="cls-2" d="M234.61,156.95H104.69l84.99-32.52,44.93,32.52ZM123.94,153.39h99.7l-34.48-24.96-65.22,24.96Z"/>
    <polygon class="cls-3" points="229.7 140.29 274.51 165.26 195.14 165.77 229.7 140.29"/>
    <path class="cls-2" d="M189.68,167.58l39.88-29.4,51.71,28.81-91.6.59ZM229.83,142.4l-29.24,21.55,67.15-.43-37.91-21.13Z"/>
    <path class="cls-3" d="M207.53,217.28s9.14-3.82,23.88,9.39l-8.13,1.78s12.2,11.93,6.61,27.43c0,0-3.81-4.83-4.83-5.33,0,0,.25,6.6-1.02,9.9,0,0-4.82-4.32-4.57-9.9,0,0-3.81,4.06-8.38-11.18-4.58-15.24-13.97-18.01-3.56-22.09"/>
    <path class="cls-2" d="M224.04,262.23c-.43,0-.85-.16-1.19-.45-.2-.17-4.21-3.83-5.03-8.98-.16-.02-.33-.04-.49-.08-2.97-.7-5.57-4.9-7.95-12.83-1.64-5.5-3.99-9.38-5.7-12.2-1.87-3.1-3.22-5.34-2.42-7.67.6-1.76,2.28-3.07,5.61-4.38.75-.29,10.61-3.83,25.72,9.72.5.45.7,1.13.53,1.78-.17.64-.69,1.14-1.34,1.28l-5.21,1.14c3.42,4.41,9.45,14.53,4.98,26.94-.22.61-.75,1.04-1.39,1.15s-1.28-.15-1.68-.65c-.54-.68-1.13-1.41-1.71-2.09-.12,2.08-.42,4.48-1.08,6.2-.21.54-.67.95-1.24,1.09-.14.03-.28.05-.42.05M219.47,248.77c.24,0,.47.04.69.14.69.29,1.12.98,1.09,1.72-.1,2.27.84,4.35,1.83,5.88.25-2.28.25-4.77.21-5.89-.02-.63.29-1.22.82-1.56.53-.34,1.2-.38,1.75-.09.64.32,1.73,1.38,3.26,3.16,2.63-12.71-6.96-22.3-7.07-22.4-.46-.46-.64-1.13-.46-1.76.18-.63.69-1.11,1.32-1.25l4.61-1.01c-5.85-4.63-10.51-6.3-13.53-6.87-3.69-.69-5.76.09-5.76.09l-.68-1.64.64,1.66c-2.81,1.1-3.43,1.86-3.55,2.21-.27.77.89,2.67,2.1,4.69,1.81,2.99,4.28,7.09,6.06,13.02,2.72,9.06,4.89,10.23,5.3,10.37.1.04.14.03.14.03.35-.32.79-.49,1.24-.49"/>
    <path class="cls-3" d="M202.07,217.4s-2.41-15.87-4.32-21.84c0,0-2.41,6.35-4.19,8.64,0,0,.63-9.78-1.78-13.46,0,0-2.92,9.15-4.95,11.31,0,0-.51-9.9-3.17-12.32l-3.05,12.06s-3.18-8.04-4.57-10.24c-1.4-2.2-1.26,10.5-1.26,10.5,0,0-9.15-.38-10.93,2.54,0,0,6.35,2.42,10.93.77,0,0-9.66,4.19-7.24,4.83,2.41.63,9.9.25,12.44-.76l-2.41,2.79s6.93,3.84,24.51,5.2"/>
    <path class="cls-2" d="M202.07,219.18s-.09,0-.09,0c-17.8-1.39-24.98-5.26-25.28-5.43-.47-.26-.8-.71-.89-1.24-.03-.17-.04-.33-.02-.49-3.29.34-7.03.3-8.71-.14-1.18-.31-1.65-1.18-1.71-1.89-.04-.61-.1-1.36,1.77-2.69-2.19-.41-3.79-1.01-3.92-1.06-.49-.19-.88-.59-1.05-1.09-.17-.5-.11-1.05.16-1.5,1.75-2.88,7.35-3.39,10.67-3.42,0-.98.02-2.24.07-3.52.2-5.22.63-6.69,2.11-7.12.71-.21,1.69-.06,2.36,1,.69,1.09,1.73,3.37,2.66,5.54l1.73-6.85c.16-.61.61-1.09,1.21-1.27.6-.18,1.24-.03,1.71.38.41.38,2.12,2.21,3.11,7.67.79-1.96,1.58-4.15,2.13-5.88.21-.66.78-1.13,1.45-1.22.68-.09,1.35.21,1.73.79,1.17,1.78,1.72,4.59,1.97,7.28.36-.86.66-1.62.85-2.11.26-.69.92-1.15,1.66-1.15h.04c.76.02,1.42.52,1.65,1.24,1.93,6.03,4.28,21.46,4.38,22.12.08.53-.09,1.08-.45,1.48-.34.36-.81.57-1.31.57M180.49,211.52c2.94,1.09,9.14,2.93,19.47,3.92-.53-3.25-1.57-9.43-2.63-14.32-.75,1.58-1.6,3.18-2.37,4.18-.48.62-1.3.84-2.03.57-.73-.28-1.2-1-1.14-1.78.13-2,.12-4.94-.18-7.53-1.03,2.63-2.31,5.47-3.48,6.7-.49.52-1.24.69-1.91.45-.67-.24-1.13-.87-1.16-1.58-.1-2-.43-4.7-.94-6.97l-1.78,7.06c-.19.75-.84,1.29-1.61,1.34-.76.05-1.49-.4-1.77-1.12-.47-1.18-1.4-3.48-2.34-5.62-.06,1.64-.09,3.5-.07,5.2,0,.49-.2.96-.55,1.3-.17.16-.36.29-.58.37.44.18.81.53.99,1,.35.89-.06,1.91-.94,2.29-1.2.52-2.5,1.14-3.65,1.72,2.77-.04,6.09-.38,7.49-.94.76-.31,1.63-.05,2.11.62.48.67.43,1.57-.1,2.19l-.82.96ZM169.45,204.05c1.43.15,2.97.13,4.33-.27-1.61-.02-3.07.08-4.33.27"/>
    <path class="cls-3" d="M163.08,274.04c0,3.16-2.56,5.72-5.72,5.72s-5.71-2.56-5.71-5.72,2.56-5.72,5.71-5.72,5.72,2.56,5.72,5.72"/>
    <path class="cls-2" d="M157.36,281.54c-4.13,0-7.49-3.36-7.49-7.49s3.36-7.5,7.49-7.5,7.49,3.36,7.49,7.5-3.36,7.49-7.49,7.49M157.36,270.11c-2.17,0-3.94,1.77-3.94,3.94s1.77,3.94,3.94,3.94,3.94-1.77,3.94-3.94-1.77-3.94-3.94-3.94"/>
    <path class="cls-3" d="M174.51,272.58c0,3.16-2.56,5.71-5.71,5.71s-5.72-2.55-5.72-5.71,2.56-5.72,5.72-5.72,5.71,2.56,5.71,5.72"/>
    <path class="cls-2" d="M168.8,280.07c-4.13,0-7.49-3.36-7.49-7.5s3.36-7.49,7.49-7.49,7.49,3.36,7.49,7.49-3.36,7.5-7.49,7.5M168.8,268.65c-2.17,0-3.94,1.77-3.94,3.93s1.76,3.94,3.94,3.94,3.93-1.76,3.93-3.94-1.76-3.93-3.93-3.93"/>
    <path class="cls-3" d="M184.85,267.74c0,3.16-2.56,5.71-5.72,5.71s-5.71-2.55-5.71-5.71,2.55-5.71,5.71-5.71,5.72,2.55,5.72,5.71"/>
    <path class="cls-2" d="M179.13,275.23c-4.13,0-7.49-3.36-7.49-7.5s3.36-7.49,7.49-7.49,7.49,3.36,7.49,7.49-3.36,7.5-7.49,7.5M179.13,263.8c-2.17,0-3.94,1.77-3.94,3.93s1.77,3.94,3.94,3.94,3.93-1.76,3.93-3.94-1.76-3.93-3.93-3.93"/>
    <path class="cls-3" d="M195.14,262.61c0,3.16-2.56,5.72-5.72,5.72s-5.72-2.56-5.72-5.72,2.56-5.71,5.72-5.71,5.72,2.55,5.72,5.71"/>
    <path class="cls-2" d="M189.42,270.11c-4.13,0-7.49-3.36-7.49-7.5s3.36-7.49,7.49-7.49,7.49,3.36,7.49,7.49-3.36,7.5-7.49,7.5M189.42,258.68c-2.17,0-3.94,1.77-3.94,3.93s1.77,3.94,3.94,3.94,3.94-1.77,3.94-3.94-1.77-3.93-3.94-3.93"/>
    <path class="cls-3" d="M205.94,258.97c0,3.15-2.56,5.72-5.72,5.72s-5.72-2.56-5.72-5.72,2.56-5.72,5.72-5.72,5.72,2.56,5.72,5.72"/>
    <path class="cls-2" d="M200.22,266.47c-4.13,0-7.49-3.36-7.49-7.49s3.36-7.5,7.49-7.5,7.49,3.36,7.49,7.5-3.36,7.49-7.49,7.49M200.22,255.04c-2.17,0-3.94,1.77-3.94,3.94s1.77,3.94,3.94,3.94,3.94-1.77,3.94-3.94-1.77-3.94-3.94-3.94"/>
    <path class="cls-3" d="M217.37,257.96c0,3.15-2.55,5.72-5.71,5.72s-5.72-2.56-5.72-5.72,2.56-5.71,5.72-5.71,5.71,2.55,5.71,5.71"/>
    <path class="cls-2" d="M211.65,265.45c-4.13,0-7.49-3.36-7.49-7.49s3.36-7.5,7.49-7.5,7.49,3.36,7.49,7.5-3.36,7.49-7.49,7.49M211.65,254.02c-2.17,0-3.94,1.77-3.94,3.94s1.77,3.93,3.94,3.93,3.94-1.76,3.94-3.93-1.77-3.94-3.94-3.94"/>
    <path class="cls-3" d="M210.99,248.35c0,3.16-2.56,5.72-5.72,5.72s-5.71-2.56-5.71-5.72,2.55-5.72,5.71-5.72,5.72,2.56,5.72,5.72"/>
    <path class="cls-2" d="M205.27,255.85c-4.13,0-7.49-3.36-7.49-7.49s3.36-7.5,7.49-7.5,7.49,3.36,7.49,7.5-3.36,7.49-7.49,7.49M205.27,244.41c-2.17,0-3.94,1.77-3.94,3.94s1.77,3.94,3.94,3.94,3.94-1.77,3.94-3.94-1.77-3.94-3.94-3.94"/>
    <path class="cls-3" d="M197.4,251.18c0,3.16-2.55,5.72-5.71,5.72s-5.72-2.56-5.72-5.72,2.55-5.71,5.72-5.71,5.71,2.55,5.71,5.71"/>
    <path class="cls-2" d="M191.68,258.68c-4.13,0-7.49-3.36-7.49-7.5s3.36-7.49,7.49-7.49,7.49,3.36,7.49,7.49-3.36,7.5-7.49,7.5M191.68,247.25c-2.17,0-3.94,1.77-3.94,3.93s1.77,3.94,3.94,3.94,3.93-1.77,3.93-3.94-1.76-3.93-3.93-3.93"/>
    <path class="cls-3" d="M185.94,256.31c0,3.15-2.55,5.71-5.71,5.71s-5.72-2.56-5.72-5.71,2.56-5.72,5.72-5.72,5.71,2.56,5.71,5.72"/>
    <path class="cls-2" d="M180.22,263.8c-4.13,0-7.49-3.36-7.49-7.49s3.36-7.5,7.49-7.5,7.49,3.36,7.49,7.5-3.36,7.49-7.49,7.49M180.22,252.37c-2.17,0-3.93,1.77-3.93,3.94s1.76,3.94,3.93,3.94,3.94-1.77,3.94-3.94-1.76-3.94-3.94-3.94"/>
    <path class="cls-3" d="M175.27,261.15c0,3.15-2.55,5.71-5.71,5.71s-5.72-2.56-5.72-5.71,2.56-5.72,5.72-5.72,5.71,2.56,5.71,5.72"/>
    <path class="cls-2" d="M169.55,268.64c-4.13,0-7.49-3.36-7.49-7.49s3.35-7.5,7.49-7.5,7.49,3.37,7.49,7.5-3.36,7.49-7.49,7.49M169.55,257.21c-2.17,0-3.94,1.77-3.94,3.94s1.77,3.94,3.94,3.94,3.94-1.76,3.94-3.94-1.76-3.94-3.94-3.94"/>
    <path class="cls-3" d="M163.08,262.61c0,3.16-2.56,5.72-5.72,5.72s-5.71-2.56-5.71-5.72,2.56-5.71,5.71-5.71,5.72,2.55,5.72,5.71"/>
    <path class="cls-2" d="M157.36,270.11c-4.13,0-7.49-3.36-7.49-7.5s3.36-7.49,7.49-7.49,7.49,3.36,7.49,7.49-3.36,7.5-7.49,7.5M157.36,258.68c-2.17,0-3.94,1.77-3.94,3.93s1.77,3.94,3.94,3.94,3.94-1.77,3.94-3.94-1.77-3.93-3.94-3.93"/>
    <path class="cls-3" d="M167.86,252.24c0,3.15-2.56,5.71-5.72,5.71s-5.72-2.56-5.72-5.71,2.56-5.72,5.72-5.72,5.72,2.56,5.72,5.72"/>
    <path class="cls-2" d="M162.15,259.74c-4.13,0-7.49-3.36-7.49-7.5s3.36-7.49,7.49-7.49,7.49,3.36,7.49,7.49-3.36,7.5-7.49,7.5M162.15,248.31c-2.17,0-3.94,1.77-3.94,3.93s1.77,3.94,3.94,3.94,3.94-1.76,3.94-3.94-1.77-3.93-3.94-3.93"/>
    <path class="cls-3" d="M178.21,248.35c0,3.16-2.56,5.72-5.71,5.72s-5.72-2.56-5.72-5.72,2.56-5.72,5.72-5.72,5.71,2.56,5.71,5.72"/>
    <path class="cls-2" d="M172.5,255.85c-4.13,0-7.49-3.36-7.49-7.49s3.36-7.5,7.49-7.5,7.49,3.36,7.49,7.5-3.36,7.49-7.49,7.49M172.5,244.41c-2.17,0-3.94,1.77-3.94,3.94s1.76,3.94,3.94,3.94,3.94-1.77,3.94-3.94-1.77-3.94-3.94-3.94"/>
    <path class="cls-3" d="M188.67,244.33c0,3.16-2.56,5.71-5.71,5.71s-5.72-2.55-5.72-5.71,2.56-5.72,5.72-5.72,5.71,2.56,5.71,5.72"/>
    <path class="cls-2" d="M182.96,251.82c-4.13,0-7.49-3.36-7.49-7.49s3.36-7.5,7.49-7.5,7.49,3.36,7.49,7.5-3.36,7.49-7.49,7.49M182.96,240.39c-2.17,0-3.94,1.77-3.94,3.94s1.77,3.93,3.94,3.93,3.94-1.76,3.94-3.93-1.77-3.94-3.94-3.94"/>
    <path class="cls-3" d="M199.56,239.75c0,3.16-2.56,5.72-5.72,5.72s-5.72-2.56-5.72-5.72,2.56-5.72,5.72-5.72,5.72,2.57,5.72,5.72"/>
    <path class="cls-2" d="M193.84,247.25c-4.13,0-7.49-3.36-7.49-7.5s3.36-7.49,7.49-7.49,7.49,3.36,7.49,7.49-3.36,7.5-7.49,7.5M193.84,235.82c-2.17,0-3.93,1.77-3.93,3.93s1.76,3.94,3.93,3.94,3.94-1.76,3.94-3.94-1.76-3.93-3.94-3.93"/>
    <path class="cls-3" d="M171.7,238.61c0,3.15-2.55,5.71-5.71,5.71s-5.72-2.56-5.72-5.71,2.56-5.72,5.72-5.72,5.71,2.56,5.71,5.72"/>
    <path class="cls-2" d="M165.98,246.11c-4.13,0-7.49-3.36-7.49-7.49s3.36-7.5,7.49-7.5,7.49,3.36,7.49,7.5-3.36,7.49-7.49,7.49M165.98,234.67c-2.17,0-3.93,1.77-3.93,3.94s1.76,3.94,3.93,3.94,3.94-1.77,3.94-3.94-1.77-3.94-3.94-3.94"/>
    <path class="cls-3" d="M182.28,235.27c0,3.15-2.56,5.72-5.72,5.72s-5.72-2.56-5.72-5.72,2.56-5.71,5.72-5.71,5.72,2.55,5.72,5.71"/>
    <path class="cls-2" d="M176.57,242.76c-4.13,0-7.49-3.36-7.49-7.49s3.36-7.5,7.49-7.5,7.49,3.36,7.49,7.5-3.36,7.49-7.49,7.49M176.57,231.33c-2.17,0-3.94,1.77-3.94,3.94s1.77,3.94,3.94,3.94,3.94-1.77,3.94-3.94-1.77-3.94-3.94-3.94"/>
    <path class="cls-3" d="M181.36,223.84c0,3.16-2.56,5.72-5.71,5.72s-5.72-2.56-5.72-5.72,2.56-5.71,5.72-5.71,5.71,2.56,5.71,5.71"/>
    <path class="cls-2" d="M175.65,231.33c-4.13,0-7.49-3.36-7.49-7.49s3.36-7.5,7.49-7.5,7.49,3.36,7.49,7.5-3.36,7.49-7.49,7.49M175.65,219.9c-2.17,0-3.94,1.77-3.94,3.94s1.77,3.94,3.94,3.94,3.94-1.77,3.94-3.94-1.77-3.94-3.94-3.94"/>
    <path class="cls-3" d="M192.79,230.44c0,3.16-2.56,5.72-5.71,5.72s-5.72-2.56-5.72-5.72,2.55-5.72,5.72-5.72,5.71,2.56,5.71,5.72"/>
    <path class="cls-2" d="M187.08,237.93c-4.13,0-7.49-3.36-7.49-7.49s3.36-7.5,7.49-7.5,7.49,3.36,7.49,7.5-3.36,7.49-7.49,7.49M187.08,226.5c-2.17,0-3.93,1.77-3.93,3.94s1.76,3.94,3.93,3.94,3.94-1.77,3.94-3.94-1.77-3.94-3.94-3.94"/>
    <path class="cls-3" d="M191.65,219.01c0,3.15-2.56,5.72-5.72,5.72s-5.71-2.56-5.71-5.72,2.56-5.71,5.71-5.71,5.72,2.55,5.72,5.71"/>
    <path class="cls-2" d="M185.94,226.5c-4.13,0-7.49-3.36-7.49-7.5s3.36-7.49,7.49-7.49,7.49,3.36,7.49,7.49-3.36,7.5-7.49,7.5M185.94,215.07c-2.17,0-3.93,1.77-3.93,3.93s1.76,3.94,3.93,3.94,3.94-1.77,3.94-3.94-1.77-3.93-3.94-3.93"/>
    <path class="cls-3" d="M202.07,223.84c0,3.16-2.56,5.72-5.72,5.72s-5.71-2.56-5.71-5.72,2.55-5.71,5.71-5.71,5.72,2.56,5.72,5.71"/>
    <path class="cls-2" d="M196.35,231.33c-4.13,0-7.49-3.36-7.49-7.49s3.36-7.5,7.49-7.5,7.49,3.36,7.49,7.5-3.36,7.49-7.49,7.49M196.35,219.9c-2.17,0-3.93,1.77-3.93,3.94s1.76,3.94,3.93,3.94,3.94-1.77,3.94-3.94-1.76-3.94-3.94-3.94"/>
    <path class="cls-3" d="M210.07,235.76c0,3.15-2.55,5.71-5.71,5.71s-5.72-2.56-5.72-5.71,2.55-5.72,5.72-5.72,5.71,2.56,5.71,5.72"/>
    <path class="cls-2" d="M204.35,243.25c-4.13,0-7.49-3.36-7.49-7.49s3.36-7.5,7.49-7.5,7.49,3.36,7.49,7.5-3.36,7.49-7.49,7.49M204.35,231.82c-2.17,0-3.94,1.77-3.94,3.94s1.76,3.94,3.94,3.94,3.93-1.77,3.93-3.94-1.76-3.94-3.93-3.94"/>
    <path class="cls-3" d="M204.35,216.77s4.1-9.06,20.36-12.45c16.25-3.39-7.35-4.06-7.35-4.06,0,0-15.09,8.98-13.02,16.51"/>
    <path class="cls-2" d="M204.35,218.54s-.1,0-.15,0c-.74-.07-1.37-.58-1.56-1.3-2.37-8.58,12.15-17.52,13.82-18.51.29-.17.61-.27.96-.25.13,0,3.32.09,6.59.39,6.11.54,8.03,1.28,8.19,3.17.2,2.32-2.82,3.13-7.12,4.03-15.04,3.13-19.07,11.37-19.11,11.46-.3.62-.93,1.02-1.62,1.02M217.84,202.05c-2.05,1.27-5.53,3.77-8.2,6.56,3.3-2.33,8.05-4.64,14.72-6.03.12-.02.23-.05.35-.07-2.08-.22-4.56-.38-6.86-.46"/>
    <path class="cls-3" d="M210.99,203.56c-.16-2.96.13-6.1.67-6.22.53-.13.82-1.29,0-2.41-.82-1.11.02-4.32-2.6-3.39-2.62.93-3.78,0-3.78,0,0,0-1.02.2-1.12,2.6-.1,2.4.2,4.21.2,4.21,0,0,6.79,8.18,6.63,5.21"/>
    <path class="cls-2" d="M210.59,206.02c-1.07,0-3-1-7.61-6.54-.2-.24-.33-.53-.39-.85-.01-.08-.32-2.02-.22-4.57.15-3.62,2.16-4.19,2.56-4.27.59-.11,1-.11,1.4.3.2.07.86.22,2.13-.23,1.12-.4,2.09-.35,2.89.13,1.24.74,1.45,2.13,1.61,3.13.04.26.1.65.15.8.8,1.1,1.04,2.46.64,3.56-.17.47-.45.86-.79,1.14-.16.76-.32,2.61-.2,4.84.09,1.68-1.02,2.24-1.36,2.37-.22.09-.48.18-.82.18M209.21,203.65h0s1.77-.1,1.77-.1l-1.77.1ZM206.05,197.6c1.07,1.27,2.2,2.48,3.11,3.38.07-3.01.6-4.29,1.15-4.87-.02-.04-.05-.08-.08-.12-.53-.71-.66-1.57-.78-2.33-.02-.11-.04-.24-.06-.36-1.44.47-2.57.49-3.41.35-.02.15-.04.33-.05.55-.06,1.51.04,2.75.12,3.39"/>
    <path class="cls-3" d="M208.81,211.49l8.56-1.31h4.97s1.02.11,2.37,0c1.35-.11,0-2.51,4.07.05,4.06,2.55,2.37,1.2,4.06,2.55,1.69,1.35,2.37,3.98,2.37,3.98-5.08,1.44-4.74,2.63-6.43,1.35-1.7-1.28-4.41-4.26-4.41-4.26-6.77.51-1.35-.06-4.06-.06h-2.71s3.72,1.01,0,0c-3.73-1.02-8.79-2.31-8.79-2.31"/>
    <path class="cls-2" d="M229.93,220.45c-.67,0-1.35-.25-2.22-.9-1.32-1-3.13-2.86-4.06-3.85-.96.07-1.63.11-2.08.13-.32.01-.83.04-1.33-.11-.41.28-.94.38-1.45.24l-1.66-.45c-3.67-1-8.71-2.29-8.76-2.3-.82-.21-1.38-.97-1.33-1.81.04-.84.67-1.54,1.51-1.67l8.55-1.31c.09-.01.18-.02.27-.02h4.98c.06,0,.12,0,.19,0,0,0,.64.07,1.54.03.24-.38.67-.88,1.44-1.08,1.05-.28,2.19.09,4.21,1.36,1.96,1.24,2.51,1.51,2.78,1.65.46.23.55.31,1.45,1.02,2.09,1.68,2.9,4.6,2.98,4.93.24.94-.31,1.89-1.24,2.16-1.88.53-2.93,1.01-3.7,1.36-.76.35-1.4.6-2.07.6M224.38,212.09c.5,0,.98.21,1.31.58.73.8,2.88,3.08,4.16,4.04.07.05.13.09.18.13.14-.06.33-.14.5-.22.55-.25,1.28-.59,2.34-.96-.3-.55-.67-1.11-1.13-1.47-.39-.31-.67-.54-.74-.58l-.1-.05c-.33-.17-.96-.49-3.06-1.81-.55-.35-.94-.56-1.21-.69-.34.4-.89.84-1.77.91-1.26.1-2.27.03-2.59,0h-4.66c.09.02.16.04.23.06h2.47c.4,0,1.02,0,1.57.23.5-.03,1.25-.08,2.36-.17.04,0,.09,0,.13,0"/>
    <path class="cls-3" d="M36.97,257.42c9.15,1.27,18.78,3.76,22.09-2.51,3.3-6.27,7.5-6.05,17.41-2.67,9.9,3.39,14.22,7.03,21.59,6.73,7.36-.3,17.02.29,14.23-2.66-2.8-2.97.51.17-6.86-4.07-7.36-4.24-39.38-20.73-32.26-35.47,7.12-14.73,29.47-11.69,32.77-9.91,3.3,1.78,13.71,4.07,14.99-7.61,1.27-11.69,7.36-8.89,7.87-12.19.51-3.3,1.53-5.46-2.67-13.46-4.19-8-6.09-25.27-6.73-31.37-.64-6.1-3.56-17.91-19.3-17.14-15.75.76-20.58-3.94-28.32-10.04-7.74-6.09-21.33-7.23-38.23,4.7-16.89,11.94-11.69,63.63-11.69,63.63,0,0,15.11,6.87,17.53,12.58,2.42,5.71,10.41,25.65-2.67,36.95-13.08,11.3-29.21,8.97-20.45,17.69,8.76,8.72,20.7,6.83,20.7,6.83"/>
    <path class="cls-2" d="M97.21,260.77c-4.82,0-8.47-1.57-13.01-3.54-2.36-1.02-5.04-2.18-8.32-3.3-9.98-3.4-12.68-3.08-15.26,1.82-3.48,6.58-12.08,5.25-20.4,3.96-1.09-.17-2.18-.33-3.26-.49-1.97.24-13.31,1.24-21.95-7.36-1.62-1.62-3.42-3.77-2.94-6.12.57-2.73,3.73-3.97,8.09-5.69,4.53-1.78,10.17-3.99,15.38-8.49,5.66-4.9,10.64-14.92,2.19-34.92-1.56-3.69-11.02-9.11-16.63-11.65l-.93-.42-.1-1.02c-.21-2.15-5.11-52.86,12.43-65.26,15.26-10.78,30.34-12.52,40.35-4.65.48.38.95.75,1.4,1.11,6.99,5.56,11.62,9.23,25.73,8.55,12.34-.6,19.84,6.06,21.16,18.74,1.96,18.83,4.63,27.1,6.54,30.73,4.04,7.72,3.54,10.58,3.01,13.61-.05.31-.11.62-.16.95-.32,2.05-1.84,2.8-3.06,3.41-1.82.9-4.08,2.02-4.81,8.71-.62,5.76-3.34,8.34-5.51,9.48-4.15,2.18-9.5.91-12.09-.49-1.83-.98-11.33-2.46-19.4.16-5.19,1.69-8.86,4.7-10.92,8.96-5.89,12.18,20.83,27.15,29.62,32.06.75.42,1.41.79,1.93,1.09,3.51,2.02,4.42,2.25,4.72,2.33.84.22,1.13.52,1.87,1.33.17.19.39.43.68.73,1.25,1.33,1.03,2.5.79,3.08-.93,2.22-4.47,2.37-11.75,2.48-1.5.02-3.06.05-4.49.11-.31.01-.61.02-.91.02M66.41,248.1c3.02,0,6.54,1.06,10.63,2.46,3.41,1.16,6.15,2.35,8.58,3.4,4.58,1.98,7.89,3.41,12.37,3.23,1.48-.06,3.06-.09,4.57-.11,2.43-.04,5.83-.09,7.67-.38-.1-.11-.19-.2-.26-.28-.63-.17-1.85-.59-5.43-2.64-.52-.3-1.16-.67-1.9-1.08-10.51-5.88-38.42-21.52-31.08-36.72,2.5-5.17,6.88-8.8,13.03-10.79,8.89-2.88,19.32-1.45,22.19.09,1.55.83,5.73,2.05,8.74.47,2.04-1.08,3.27-3.33,3.63-6.72.94-8.63,4.59-10.43,6.77-11.51,1-.49,1.09-.6,1.12-.76.05-.35.11-.69.17-1.02.46-2.62.83-4.7-2.65-11.35-2.97-5.68-5.31-16.45-6.92-32.01-1.13-10.83-7-16.05-17.45-15.55-15.45.74-21.04-3.69-28.12-9.31-.45-.36-.92-.73-1.39-1.1-8.71-6.85-22.2-5.07-36.1,4.75-6.44,4.55-10.4,16.62-11.42,34.9-.68,11.85.11,22.81.39,26.1,3.63,1.73,15.17,7.57,17.48,13.07,7.35,17.38,6.27,30.86-3.14,38.98-5.67,4.9-11.87,7.33-16.41,9.11-2.56,1-5.74,2.25-5.91,3.1-.01.07-.1.82,1.97,2.87,7.98,7.95,19.06,6.34,19.17,6.33l.26-.04.27.03c1.18.16,2.37.35,3.55.53,8.71,1.35,14.59,1.93,16.71-2.1,2.33-4.42,5.26-5.98,8.93-5.98"/>
    <path class="cls-3" d="M39.13,181.84s8.13,1.65,12.7,17.91c4.57,16.26,19.7-2.28,19.7-2.28,0,0,9.39-11.56,14.85-14.23"/>
    <path class="cls-2" d="M58.21,208.2c-.49,0-.98-.04-1.46-.15-3.13-.65-5.35-3.28-6.63-7.83-2.19-7.78-5.19-11.91-7.33-14-2.26-2.21-4.03-2.64-4.03-2.64l.72-3.48c.38.08,9.25,2.07,14.06,19.17.89,3.16,2.21,4.94,3.93,5.3,4.15.86,10.71-5.82,12.68-8.23.39-.48,9.7-11.89,15.44-14.7l1.56,3.19c-4.19,2.05-11.71,10.62-14.25,13.75-.85,1.04-8.05,9.61-14.7,9.61"/>
    <path class="cls-3" d="M93.48,190.35s-17.52,11.05-19.68,13.97"/>
    <path class="cls-2" d="M75.23,205.38l-2.86-2.11c2.24-3.04,17.19-12.54,20.16-14.41l1.9,3.01c-6.67,4.2-17.78,11.59-19.2,13.52"/>
    <path class="cls-3" d="M51.07,213.29s4.19-8.08,6.86,1.82c2.66,9.9,3.3,19.05,0,24.63-3.3,5.59-.51,9.15-6.86,9.66-6.35.51-17.53,2.54-13.08,0,4.45-2.54.76.21,7.12-2.88,6.35-3.09,6.22.22,8-5.05,1.78-5.28,1.9-1.22,2.16-9.6.25-8.38,1.77-9.96-.38-11.33-2.16-1.37-3.43-2.57-3.56,0-.13,2.57-.25,3.33-.13,5.49.13,2.16.25,1.15.13,4.01s.76-.07-.13,2.85c-.89,2.92-.76,3.05-1.4,3.94-.63.89-1.22,2.28-1.22,2.28,0,0-1.06,2.05-3.47,2.36-2.42.31-6.36,4.26-3.81,0,2.53-4.26.63.32,3.68-5.72,3.05-6.04,4.15-6.55,3.6-9.34"/>
    <path class="cls-2" d="M38.47,252.44c-1.96,0-2.82-.42-3.18-1.53-.56-1.69,1.23-2.71,1.82-3.04,2.17-1.24,2.75-1.44,3.61-1.46.15,0,.62-.02,3.6-1.47,2.77-1.35,4.5-1.6,5.54-1.75.24-.04.53-.08.65-.11.12-.14.38-.62.9-2.16.68-2.02,1.18-2.84,1.49-3.38.33-.56.42-.71.58-5.7.09-3.13.36-5.33.55-6.93.31-2.57.26-2.61-.11-2.84-.27-.17-.53-.34-.77-.49-.04-.03-.07-.05-.07-.05-.05.25-.07.5-.08.74-.09,1.39-.13,2.15-.04,3.68.04.69.08,1.02.12,1.29.07.66.09.99.01,2.9,0,.15,0,.27,0,.37.48.7.31,1.27-.2,2.92-.25.85-.43,1.46-.55,1.92-.33,1.17-.47,1.65-1.09,2.53-.43.59-.89,1.61-1.04,1.95l-.06.12c-.55,1.06-2.19,2.96-4.82,3.3-.57.07-1.62.67-2.32,1.06-1.24.7-2.64,1.49-3.77.34-1.18-1.21-.24-2.8.52-4.08,1.06-1.77,1.52-2.33,2.07-2.68.17-.26.58-.98,1.56-2.93.86-1.71,1.57-2.98,2.14-4,1.41-2.54,1.56-2.86,1.3-4.19l2.6-.51s0-.07,0-.11c-.1-1.74-.05-2.63.04-4.11.03-.45.06-.96.09-1.57.02-.62.11-2.26,1.47-2.95,1.4-.7,2.7.16,4.09,1.06.23.15.47.31.72.47.8.51,1.3,1.07,1.6,1.71-.33-1.65-.73-3.37-1.22-5.17-.86-3.22-1.7-3.62-1.7-3.62-.33.05-1.29,1.04-1.86,2.15l-3.16-1.64c.38-.73,2.44-4.37,5.41-4.05,3.15.34,4.35,4.77,4.74,6.23,3.15,11.71,3.09,20.45-.19,26-1.06,1.8-1.41,3.36-1.71,4.74-.58,2.63-1.19,5.35-6.53,5.78-1.61.13-3.58.36-5.48.59-3.36.4-5.67.67-7.25.67M57.79,222.8c0,.75-.11,1.58-.22,2.52-.19,1.54-.44,3.64-.53,6.61-.17,5.41-.25,6.04-1.07,7.41-.26.44-.62,1.03-1.18,2.7-1.18,3.51-1.93,4.29-4.41,4.66-.94.14-2.23.33-4.5,1.43-.04.02-.07.04-.11.06,1.8-.21,3.61-.42,5.16-.55,2.73-.22,2.82-.64,3.35-3.01.33-1.47.78-3.49,2.13-5.78,2.07-3.51,2.54-8.98,1.4-16.05M49.54,231c-.26.51-.57,1.06-.91,1.69-.55.99-1.23,2.22-2.07,3.87-.81,1.59-1.31,2.54-1.69,3.15,1.3-.17,1.99-1.19,2.1-1.38.16-.37.73-1.62,1.38-2.53.26-.36.27-.37.56-1.42.14-.48.31-1.11.58-1.99.06-.22.12-.41.18-.59-.08-.24-.12-.51-.13-.79"/>
    <polygon class="cls-2" points="65.41 271.01 55.02 279.53 53.3 277.44 62.03 270.28 60.74 268.71 62.4 267.35 65.41 271.01"/>
    <polygon class="cls-2" points="70.04 276.2 62.4 283.13 60.58 281.13 66.62 275.64 65.46 274.36 67.05 272.91 70.04 276.2"/>
    <path class="cls-2" d="M72.26,281.54c-.24-.23-.45-.44-.63-.64-.18-.19-.34-.37-.49-.55-.15-.19-.29-.39-.43-.61-.13-.22-.28-.48-.42-.78.32-.18.64-.36.97-.53.32-.18.64-.34.97-.49.18.3.33.55.47.77.13.2.27.39.41.57.13.17.29.35.46.52.17.18.38.38.64.63l.86.84c.3.29.56.61.79.96.22.34.36.72.41,1.13.06.4,0,.83-.17,1.29-.17.46-.5.93-1,1.44l-4.79,4.94-1.94-1.88,4.3-4.43c.28-.29.51-.54.66-.76.15-.21.23-.41.24-.6,0-.19-.05-.39-.18-.6-.13-.2-.35-.44-.62-.72l-.51-.49Z"/>
    <path class="cls-2" d="M78.55,285.67c.42.04.83.09,1.23.16.4.06.8.12,1.23.19-.02.27-.03.5-.05.69-.01.2-.03.38-.06.55-.02.17-.06.32-.09.48-.04.16-.09.31-.13.48.78-.09,1.5-.04,2.15.15.65.18,1.2.47,1.66.84.32.27.59.56.8.91.22.34.37.71.46,1.08.08.38.1.78.04,1.18-.05.4-.18.81-.4,1.21-.17.33-.39.66-.67,1.02-.28.35-.58.74-.92,1.16-.16.2-.33.4-.5.62-.18.21-.39.47-.64.77-.29.35-.57.69-.85,1-.28.3-.51.56-.71.76-.1.11-.21.22-.32.33-.11.11-.23.23-.36.34l-4.01-3.31,1.36-1.66,2.04,1.69s.08-.09.15-.16c.07-.08.17-.19.3-.35.13-.16.3-.35.5-.6.2-.24.45-.55.75-.91.09-.11.19-.23.32-.38.12-.15.26-.31.39-.47.13-.16.26-.32.38-.47.11-.15.21-.28.28-.39.28-.45.4-.85.35-1.18-.04-.32-.24-.64-.6-.93-.2-.16-.42-.28-.68-.37-.25-.09-.54-.14-.87-.17-.18-.02-.37-.02-.57,0-.19,0-.39.03-.6.07-.55.5-1.03.92-1.42,1.28-.4.35-.75.67-1.04.94-.29.27-.56.5-.78.7-.23.2-.45.4-.67.6-.22.2-.43.4-.67.61-.23.21-.5.45-.8.72l-2.08-1.72,1.31-1.18c.32-.3.62-.57.9-.82.29-.26.58-.51.86-.76.29-.26.58-.51.87-.77.3-.25.61-.53.94-.82.09-.09.16-.16.22-.23.07-.08.14-.15.2-.22.12-.14.21-.28.29-.41.06-.13.12-.26.17-.4.05-.14.09-.29.11-.44.03-.15.06-.33.09-.53l.14-.87Z"/>
    <polygon class="cls-2" points="92.56 295.56 86.59 303.96 84.38 302.39 89.11 295.74 87.69 294.74 88.94 292.98 92.56 295.56"/>
    <path class="cls-2" d="M92.94,305.71c.11.08.21.16.33.23.11.08.24.15.37.24.33.2.7.38,1.1.53.4.16.82.26,1.24.31.43.06.88.04,1.35-.03.46-.08.93-.25,1.39-.52.67-.37,1.24-.82,1.72-1.34.49-.52.91-1.09,1.28-1.7.15-.24.29-.49.41-.73.12-.25.25-.5.37-.76.28.09.52.16.73.22.2.06.39.13.57.2.19.07.38.14.58.23.2.08.45.19.73.31-.09.28-.21.57-.35.86-.15.29-.32.6-.5.89-.17.27-.34.54-.52.79-.18.25-.35.49-.52.69-1.55,1.91-3.24,3.02-5.09,3.3-1.85.29-3.86-.22-6.03-1.53-.37-.22-.75-.47-1.13-.73-.39-.27-.78-.56-1.19-.87l2.7-5.33c.16-.31.29-.57.42-.8.12-.23.22-.44.31-.62.09-.18.17-.35.24-.51.07-.17.13-.33.18-.5.06-.17.1-.35.14-.55.05-.2.09-.43.13-.69.42.07.84.13,1.27.2.43.05.85.13,1.26.23-.04.41-.1.78-.19,1.11-.08.32-.18.64-.31.94-.12.3-.26.62-.42.94-.17.32-.36.69-.57,1.11l-1.98,3.91ZM96.31,302c.22-.18.42-.34.58-.47.16-.13.29-.25.41-.36.12-.1.22-.2.31-.31.09-.1.17-.22.25-.35.02-.04.05-.09.08-.13.02-.04.05-.08.07-.14.06-.09.11-.19.16-.3.04-.11.1-.23.16-.38.44.11.87.24,1.29.38.41.13.83.27,1.26.42-.08.3-.17.56-.26.78-.09.23-.2.44-.31.64-.1.16-.22.33-.34.47-.12.16-.27.31-.44.47-.16.16-.35.32-.55.49-.21.18-.45.37-.72.57l-1.47,1.15c-.2-.2-.37-.37-.5-.52-.13-.14-.26-.28-.37-.42-.11-.13-.23-.28-.34-.44-.12-.16-.25-.36-.41-.6l1.16-.94Z"/>
    <path class="cls-2" d="M116.17,308.59l-1.55,3.44c-.14.32-.27.6-.37.81-.11.21-.2.41-.31.58-.1.17-.2.33-.31.49-.1.16-.22.32-.37.51l-2.28-1.45c.11-.18.22-.32.31-.47.09-.13.19-.29.28-.44.09-.16.19-.35.3-.55.11-.2.22-.46.36-.75l.59-1.32-2.08-.93.89-1.96,4.54,2.04Z"/>
    <path class="cls-2" d="M120.08,312.49c-.32-.12-.6-.23-.84-.33-.24-.11-.46-.21-.67-.32-.21-.11-.42-.24-.63-.39-.21-.15-.45-.33-.7-.55.22-.3.45-.59.67-.87.23-.29.46-.57.7-.84.28.2.53.38.73.51.21.13.4.25.6.36.2.11.41.21.64.3.22.09.5.2.83.33l1.13.42c.39.14.75.33,1.1.56.34.22.62.52.84.88.2.35.32.76.35,1.25.02.49-.08,1.06-.33,1.73l-2.42,6.43-2.54-.96,2.17-5.78c.15-.38.24-.7.31-.96.06-.25.05-.47-.01-.65-.07-.18-.21-.33-.41-.47-.2-.13-.5-.27-.86-.41l-.66-.25Z"/>
    <path class="cls-2" d="M126.06,320.13c.08-.27.16-.52.23-.74.06-.23.14-.44.22-.64.07-.21.16-.41.25-.6.09-.2.19-.4.32-.62.41.17.82.35,1.22.53.4.19.81.4,1.2.63-.18.33-.34.68-.47,1.02-.13.35-.26.77-.4,1.23l-.81,2.84-2.6-.75.83-2.9ZM130.47,316.05c-.33-.09-.61-.18-.85-.27-.25-.08-.49-.17-.7-.26-.22-.09-.44-.21-.66-.34-.22-.13-.47-.29-.74-.49.2-.31.4-.62.6-.92.2-.31.41-.6.62-.9.3.19.55.33.77.45.22.11.43.22.64.31.2.09.42.17.65.25.23.07.51.16.85.25l2.04.58c.4.11.78.27,1.14.47.36.2.66.47.91.81.23.33.38.73.45,1.22.07.49,0,1.06-.19,1.75l-1.89,6.61-2.6-.75,1.7-5.94c.11-.4.19-.72.22-.98.04-.25.02-.47-.07-.65-.08-.17-.23-.31-.44-.44-.21-.11-.51-.23-.89-.34l-1.56-.44Z"/>
    <path class="cls-2" d="M143.64,321.28c.08-.4.12-.73.14-1,.02-.26-.02-.47-.12-.64-.1-.17-.26-.3-.48-.4-.22-.09-.53-.18-.92-.26-.33-.07-.62-.13-.88-.19-.25-.06-.49-.12-.71-.2-.23-.07-.46-.16-.69-.27-.23-.11-.49-.25-.78-.42.18-.33.35-.66.52-.98.17-.32.35-.63.54-.94.31.16.59.28.81.38.23.1.44.18.66.26.2.07.44.13.67.19.24.06.53.12.87.18l.49.1c.4.08.8.2,1.18.37.38.17.71.41.98.73.26.3.44.69.55,1.17.11.47.09,1.06-.04,1.76l-.91,4.63,1.79.35-.42,2.11-10.1-1.99.42-2.11,5.65,1.11.78-3.95Z"/>
    <path class="cls-2" d="M162.28,319.44c.42.03.82.11,1.22.22.4.13.75.33,1.06.6.3.27.53.64.7,1.09.17.47.23,1.05.18,1.77l-.48,6.84-9.6-.67.39-5.66c.03-.41.09-.82.17-1.24.08-.42.21-.86.35-1.31-.23-.04-.46-.11-.69-.18-.23-.08-.5-.19-.81-.31.13-.35.27-.69.4-1.03.13-.34.28-.67.42-1,.33.12.61.21.85.28.24.07.47.12.69.17.21.04.44.08.69.11.24.02.54.04.89.07l3.57.25ZM162.41,327.64l.29-4.02c.03-.41.03-.74.01-1-.02-.26-.09-.47-.2-.62-.12-.16-.29-.27-.53-.34-.23-.07-.55-.12-.94-.14l-2.23-.16c-.13.45-.22.86-.28,1.24-.04.38-.08.78-.11,1.18l-.24,3.57,4.23.3Z"/>
    <path class="cls-2" d="M172.78,319.63l.06,3.77c0,.36,0,.66,0,.89,0,.24,0,.46-.03.66-.02.2-.04.39-.07.58-.03.18-.07.39-.12.62l-2.67-.34c.03-.2.05-.38.08-.55.02-.17.04-.34.06-.53.01-.19.03-.4.03-.62,0-.24,0-.51,0-.84l-.02-1.44-2.27.04-.04-2.15,4.98-.09Z"/>
    <path class="cls-2" d="M175.03,320.48c.34-.26.66-.5.99-.73.33-.23.67-.47,1.02-.71.18.2.32.38.45.53.12.15.23.3.33.43.09.13.18.27.26.41.07.14.15.29.22.44.52-.6,1.07-1.06,1.66-1.37.6-.31,1.19-.49,1.78-.53.42-.03.82,0,1.21.11.39.1.75.26,1.07.47.32.22.6.49.84.82.24.33.42.72.54,1.15.1.35.17.75.22,1.21.05.44.09.94.13,1.47.02.25.04.52.06.8.02.27.04.6.08,1,.03.46.05.89.07,1.31.01.42.02.76.02,1.04,0,.15,0,.3-.01.46,0,.16,0,.33-.02.49l-5.19.36-.15-2.15,2.64-.19s0-.11,0-.21c0-.1-.01-.25-.02-.46-.01-.2-.03-.46-.04-.78-.02-.31-.05-.71-.09-1.18,0-.13-.02-.3-.03-.49-.01-.19-.02-.4-.04-.61-.02-.21-.03-.42-.05-.6-.02-.19-.04-.34-.07-.47-.11-.53-.29-.9-.55-1.11-.27-.21-.62-.29-1.07-.26-.25.02-.5.09-.75.2-.24.11-.49.26-.75.47-.14.12-.28.24-.42.38-.13.14-.27.3-.39.47-.06.74-.11,1.37-.16,1.91-.04.53-.08,1-.11,1.4-.03.4-.06.75-.08,1.05-.03.31-.05.6-.07.89-.03.3-.05.59-.07.9-.03.31-.06.67-.09,1.07l-2.7.19.14-1.76c.02-.42.05-.83.09-1.21.03-.39.07-.77.1-1.15.03-.38.07-.77.1-1.15.04-.39.07-.8.11-1.24,0-.12,0-.23,0-.33s0-.19,0-.29c-.02-.18-.04-.35-.07-.49-.04-.15-.09-.29-.15-.42-.07-.13-.14-.26-.23-.39-.08-.13-.18-.28-.29-.44l-.5-.73Z"/>
    <path class="cls-2" d="M190.58,320.4c-.34.05-.63.09-.89.12-.25.03-.5.04-.74.05-.24,0-.49,0-.74-.03-.25-.02-.55-.07-.88-.13.05-.38.11-.74.16-1.1.05-.36.12-.72.19-1.07.35.04.65.07.89.09.25.02.48.02.71.02.22,0,.45-.02.7-.06.24-.03.54-.07.88-.12l1.19-.18c.41-.07.83-.08,1.24-.05.41.03.79.15,1.15.35.35.2.66.51.92.91.27.42.45.98.56,1.68l1.03,6.8-2.67.41-.93-6.11c-.07-.4-.14-.73-.21-.99-.07-.25-.18-.43-.33-.55-.14-.13-.34-.2-.58-.21-.24-.02-.56,0-.95.06l-.69.11Z"/>
    <path class="cls-2" d="M201.47,318.38c-.33.07-.62.14-.87.19-.26.05-.5.09-.74.11-.24.02-.49.04-.74.03-.25,0-.55-.02-.88-.07.02-.37.04-.74.07-1.1.03-.36.06-.72.11-1.08.35.02.65.02.9.02.24,0,.48-.02.71-.04.22-.02.45-.06.69-.11.24-.04.53-.11.88-.19l.86-.2c.39-.09.8-.13,1.2-.12.4,0,.8.11,1.16.29.37.19.71.48,1,.87.31.39.56.92.75,1.6.1.35.2.71.29,1.07.09.35.18.72.28,1.11.1.38.2.78.29,1.2.09.42.2.86.31,1.34.03.16.07.3.09.42.02.12.04.26.05.41.02.14.02.31.03.49,0,.18,0,.39,0,.65l-8.44,1.96-.49-2.09,6.1-1.42c-.07-.31-.15-.62-.23-.95-.09-.33-.17-.67-.25-1-.08-.33-.17-.67-.25-1.01-.09-.33-.18-.65-.25-.96-.09-.4-.19-.72-.29-.96-.09-.24-.22-.42-.37-.53-.16-.11-.35-.16-.6-.16-.24,0-.55.05-.95.14l-.42.1Z"/>
    <path class="cls-2" d="M217.83,311.33l1.24,3.56c.12.34.21.62.29.84.07.23.13.44.18.64.04.19.09.38.11.57.03.19.06.4.08.62l-2.66.5c-.02-.2-.06-.37-.09-.54-.04-.16-.07-.33-.11-.52-.04-.18-.09-.38-.16-.61-.07-.22-.15-.49-.26-.79l-.47-1.36-2.14.74-.71-2.03,4.7-1.63Z"/>
    <path class="cls-2" d="M226,309.87c-.06-.37-.1-.73-.14-1.09-.04-.35-.08-.71-.11-1.09l3.93-.58c.1.21.21.41.31.62.1.2.2.42.3.62.14.51.25,1,.33,1.46.08.47.13.93.16,1.38.04.81,0,1.56-.1,2.25-.12.7-.3,1.35-.55,1.95-.25.61-.55,1.18-.9,1.7-.36.53-.76,1.03-1.19,1.5-.44.48-.9.93-1.4,1.36-.49.43-1,.85-1.53,1.25l-1.55-1.81c.57-.44,1.08-.86,1.55-1.26.47-.41.89-.81,1.26-1.21-.64-.67-1.27-1.33-1.9-1.98-.62-.66-1.25-1.32-1.89-1.98-.14-.13-.25-.23-.35-.31-.09-.09-.19-.15-.28-.2-.09-.04-.18-.07-.27-.08-.09-.02-.21-.02-.34-.01h-1.29c0-.37,0-.75.02-1.13.02-.37.03-.74.05-1.12.22-.01.44-.03.68-.04.22-.01.44-.02.67-.02.36-.01.68,0,.94.03.27.03.51.07.71.14.2.07.4.16.56.29.17.12.33.26.49.42.27.27.51.52.73.76.22.24.47.5.72.8.27.29.57.62.91,1.02.34.38.77.86,1.27,1.43.2-.41.32-.8.38-1.17.07-.36.09-.73.1-1.11,0-.48-.02-.98-.09-1.49-.06-.52-.17-1.05-.31-1.59l-1.91.28Z"/>
    <path class="cls-2" d="M236.34,306.69c-.14-.59-.26-1.21-.38-1.86-.12-.65-.22-1.28-.31-1.88.35-.15.73-.31,1.15-.47.42-.16.85-.32,1.29-.49.45-.16.89-.31,1.34-.46.45-.15.87-.27,1.28-.39.26.28.49.59.72.92.22.33.45.71.68,1.13.48.89.82,1.79,1.01,2.68.19.9.2,1.78.03,2.65-.11.58-.3,1.11-.54,1.6-.25.49-.56.93-.91,1.34-.35.4-.74.77-1.17,1.09-.43.33-.88.62-1.35.87-.35.19-.71.37-1.08.53-.38.15-.75.3-1.12.42l-3.22-5.03c-.19-.29-.35-.55-.49-.77-.14-.22-.26-.42-.38-.59-.12-.17-.22-.33-.33-.47-.11-.14-.22-.28-.34-.41-.12-.13-.26-.27-.4-.41-.16-.13-.33-.29-.54-.47.27-.32.54-.65.81-.99.28-.34.55-.67.84-.96.34.25.63.5.87.73.24.24.47.49.66.75.2.26.4.54.6.85.2.31.42.66.68,1.06l2.46,3.85s.09-.04.09-.04c.06-.03.09-.04.09-.04.45-.23.82-.48,1.14-.77.32-.29.58-.61.79-.97.2-.36.35-.75.43-1.18.08-.42.09-.89.03-1.37-.06-.45-.16-.88-.31-1.31-.15-.42-.33-.83-.55-1.21-.07-.13-.15-.28-.23-.43-.08-.16-.15-.28-.22-.39-.26.07-.49.13-.71.2-.22.07-.46.16-.74.26.05.38.11.73.16,1.05.06.32.11.64.18.98l-2.01.39Z"/>
    <path class="cls-2" d="M248.23,295.62c.35-.23.71-.42,1.1-.57.39-.15.79-.2,1.2-.17.4.03.81.18,1.22.44.41.26.82.69,1.21,1.28l3.81,5.72-2.26,1.5-3.42-5.14c-.23-.34-.43-.6-.6-.8-.17-.2-.35-.32-.54-.38-.19-.05-.39-.03-.62.06-.22.09-.51.24-.84.47l-1.25.82c.08.51.22,1,.44,1.48.22.48.47.93.74,1.35.16.24.32.47.47.67.15.2.31.4.48.58.16.18.33.36.52.53.18.17.37.34.58.51l.48.38c.13.24.26.48.37.71s.21.46.29.68l-4.06,2.7-1.2-1.79,1.9-1.27c-.42-.33-.81-.67-1.14-1.01-.33-.34-.62-.71-.88-1.08-.2-.3-.39-.62-.55-.95-.16-.33-.31-.68-.42-1.05-.05-.18-.1-.34-.15-.51-.04-.17-.08-.34-.11-.51-.26.14-.52.26-.79.36-.27.11-.59.2-.98.3-.11-.36-.22-.71-.31-1.06-.1-.35-.2-.7-.28-1.04.33-.11.62-.22.84-.31.23-.09.45-.18.64-.28.2-.09.41-.21.62-.34.2-.13.45-.29.75-.49l2.7-1.8Z"/>
    <path class="cls-2" d="M260.84,288.68c-.25.22-.48.41-.69.58-.2.16-.4.31-.6.44-.2.13-.42.26-.64.37-.23.11-.5.23-.82.35-.16-.33-.3-.67-.45-1.01-.14-.33-.28-.67-.4-1,.31-.16.58-.29.8-.41.22-.11.42-.24.61-.35.19-.13.38-.27.57-.42.19-.16.42-.35.68-.58l4.32-3.75,1.41,1.62-1.52,1.32,5.35,6.17-2.04,1.77-5.35-6.17-1.23,1.06Z"/>
    <polygon class="cls-2" points="268.72 278.42 275.98 285.76 274.05 287.66 268.31 281.86 267.07 283.08 265.56 281.55 268.72 278.42"/>
    <path class="cls-2" d="M275.5,273.56c-.2-.31-.4-.61-.59-.92-.19-.31-.38-.62-.57-.95l3.3-2.22c.19.15.37.29.55.43.18.15.36.29.54.44.34.4.65.79.93,1.18.27.39.52.78.73,1.18.38.71.68,1.41.87,2.09.19.67.31,1.34.35,2,.04.66,0,1.29-.09,1.93-.1.63-.24,1.25-.42,1.86-.19.62-.42,1.22-.68,1.83-.26.6-.55,1.19-.84,1.78l-2.19-.97c.33-.64.61-1.24.86-1.81.25-.56.45-1.11.61-1.62-.86-.33-1.71-.65-2.56-.98-.85-.32-1.71-.64-2.56-.98-.18-.06-.33-.1-.45-.14-.12-.03-.23-.04-.33-.04-.09,0-.19,0-.28.03-.09.03-.2.08-.32.14l-1.17.56c-.16-.35-.31-.69-.46-1.04-.15-.34-.29-.69-.43-1.04.19-.11.39-.22.59-.32.2-.11.4-.21.61-.31.32-.16.61-.29.86-.38.26-.09.49-.14.71-.17.22-.02.43-.02.63.02.2.04.41.09.63.17.36.13.69.25.99.38.3.12.63.26.99.4.36.15.78.33,1.26.53.48.2,1.07.46,1.77.75,0-.45-.06-.85-.16-1.22-.11-.35-.23-.71-.38-1.04-.2-.43-.44-.87-.73-1.31-.28-.44-.6-.88-.96-1.31l-1.61,1.07Z"/>
    <path class="cls-3" d="M275.01,104.89c-1.46,0-2.64,1.18-2.64,2.64v134.85c0,1.46,1.18,2.64,2.64,2.64h14.28V104.89h-14.28Z"/>
    <path class="cls-2" d="M291.06,246.81h-16.05c-2.44,0-4.42-1.99-4.42-4.42V107.54c0-2.44,1.98-4.43,4.42-4.43h16.05v143.7ZM275.01,106.67c-.48,0-.86.39-.86.87v134.85c0,.48.39.86.86.86h12.5V106.67h-12.5Z"/>
    <path class="cls-3" d="M273.77,248.8c-.88,0-1.7.44-2.19,1.18l-2.59,3.9c-1.17,1.74.09,4.08,2.18,4.08h23.86l-5.02-9.16h-16.25Z"/>
    <path class="cls-2" d="M298.04,259.74h-26.86c-1.63,0-3.12-.89-3.89-2.33-.77-1.43-.69-3.17.22-4.52l2.59-3.89c.82-1.23,2.2-1.97,3.68-1.97h17.3l6.96,12.71ZM273.78,250.58c-.29,0-.55.14-.71.38l-2.59,3.89c-.26.38-.11.74-.04.88.08.13.29.45.75.45h20.86l-3.07-5.6h-15.2Z"/>
    <path class="cls-3" d="M274.71,96.92c-1.29,0-2.35,1.05-2.35,2.34s1.05,2.35,2.35,2.35h14.58v-4.69h-14.58Z"/>
    <path class="cls-2" d="M291.06,103.39h-16.36c-2.27,0-4.12-1.85-4.12-4.12s1.85-4.12,4.12-4.12h16.36v8.25ZM274.71,98.7c-.31,0-.56.25-.56.57s.25.56.56.56h12.8v-1.13h-12.8Z"/>
    <path class="cls-3" d="M270.11,77.23c-1.86,0-3.15,1.86-2.49,3.6l4.09,10.85c.39,1.04,1.37,1.72,2.48,1.72h15.75l6.83-16.17h-26.67Z"/>
    <path class="cls-2" d="M291.13,95.18h-16.93c-1.84,0-3.5-1.15-4.15-2.88l-4.09-10.85c-.51-1.36-.33-2.89.51-4.09.83-1.2,2.19-1.91,3.65-1.91h29.35l-8.34,19.73ZM270.11,79.01c-.4,0-.63.24-.73.38-.1.14-.24.44-.1.82l4.09,10.85c.13.34.46.57.82.57h14.57l5.33-12.62h-23.99Z"/>
    <path class="cls-3" d="M299.55,242.39V107.53c0-1.46-1.18-2.64-2.65-2.64h-7.62v140.14h7.62c1.46,0,2.65-1.18,2.65-2.64"/>
    <path class="cls-2" d="M296.91,246.81h-9.4V103.11h9.4c2.44,0,4.43,1.99,4.43,4.43v134.85c0,2.44-1.99,4.42-4.43,4.42M291.06,243.26h5.84c.48,0,.87-.39.87-.86V107.54c0-.48-.39-.87-.87-.87h-5.84v136.59Z"/>
    <path class="cls-3" d="M303.13,253.79l-2.79-3.9c-.49-.69-1.29-1.1-2.13-1.1h-8.18l5.02,9.16h5.94c2.14,0,3.39-2.42,2.14-4.17"/>
    <path class="cls-2" d="M300.99,259.74h-7l-6.96-12.71h11.17c1.42,0,2.76.69,3.59,1.84l2.79,3.9c.96,1.35,1.1,3.1.34,4.58-.76,1.48-2.26,2.39-3.92,2.39M296.09,256.18h4.9c.47,0,.69-.32.76-.46.07-.14.21-.5-.07-.89l-2.79-3.9c-.16-.22-.42-.35-.7-.35h-5.17l3.06,5.6Z"/>
    <path class="cls-3" d="M299.55,99.27c0-1.29-1.05-2.34-2.35-2.34h-7.92v4.68h7.92c1.3,0,2.35-1.05,2.35-2.34"/>
    <path class="cls-2" d="M297.21,103.39h-9.7v-8.25h9.7c2.28,0,4.12,1.85,4.12,4.12s-1.85,4.12-4.12,4.12M291.06,99.83h6.14c.31,0,.57-.25.57-.56s-.25-.57-.57-.57h-6.14v1.13Z"/>
    <path class="cls-3" d="M300.23,91.75l4.4-10.86c.71-1.74-.58-3.66-2.46-3.66h-5.39l-6.83,16.17h7.81c1.08,0,2.06-.65,2.46-1.66"/>
    <path class="cls-2" d="M297.76,95.19h-10.49l8.34-19.73h6.56c1.48,0,2.86.73,3.68,1.96.83,1.23.99,2.78.43,4.14l-4.4,10.86c-.68,1.68-2.3,2.77-4.11,2.77M292.63,91.63h5.13c.36,0,.68-.22.82-.55l4.41-10.85c.15-.38.01-.68-.09-.83-.1-.14-.32-.39-.73-.39h-4.2l-5.33,12.62Z"/>
  </g>
  <path class="cls-2" d="M172.54,364.78c-1.02,0-2.05-.2-3.15-.63l-.17-.07-132.82-58.66c-5.89-2.6-9.69-8.56-9.69-15.19V25.69c0-2.27,1.51-4.19,3.56-4.79v-.2h283.1c2.72,0,4.92,2.24,4.92,4.99v264.55c0,6.63-3.8,12.59-9.68,15.19l-132.92,58.7c-1.07.44-2.1.66-3.15.66M172.01,357.54c.5.19.59.16.94.02l132.78-58.64c3.31-1.46,5.45-4.87,5.45-8.69V27.82H33.82v262.42c0,3.82,2.14,7.23,5.45,8.69l132.74,58.62Z"/>
</svg>