<?xml version="1.0" encoding="UTF-8"?>
<!-- Generator: Adobe Illustrator 15.0.0, SVG Export Plug-In . SVG Version: 6.00 Build 0)  -->
<!DOCTYPE svg PUBLIC "-//W3C//DTD SVG 1.1//EN" "http://www.w3.org/Graphics/SVG/1.1/DTD/svg11.dtd">
<svg version="1.1" id="Layer_1" xmlns="http://www.w3.org/2000/svg" xmlns:xlink="http://www.w3.org/1999/xlink" x="0px" y="0px" width="734.557px" height="1032.898px" viewBox="0 0 734.557 1032.898" enable-background="new 0 0 734.557 1032.898" xml:space="preserve">
<g>
	<path stroke="#FFFFFF" stroke-width="1.721" stroke-miterlimit="3.864" d="M377.502,234.614   c17.468-43.391,22.403-71.364,20.844-118.125c-1.526-45.97-8.1-73.063-27.789-114.644c-22.147,38.066-29.539,64.808-30.118,108.851   c-0.606,46.232,6.88,74.684,30.118,114.666L377.502,234.614z M360.012,276.312c-24.547-20.464-43.53-28.669-75.263-32.435   c-76.032-9.046-144.037,40.623-158.536,115.808c41.581-46.822,78.806-67.359,140.578-77.581   c33.866-5.625,54.392-5.213,88.008,1.732 M366.958,250.834c-14.075-46.516-44.455-74.227-92.057-83.98   c-61.438-12.549-119.289,20.582-139.537,79.909c39.721-24.809,68.97-32.853,115.797-31.838c46.193,1.03,74.617,10.054,112.9,35.91    M388.498,276.312c23.906-21.222,43.424-29.627,75.263-32.435c56.068-4.913,100.44,19.189,126.809,68.924   c-39.837-18.983-64.991-26.051-108.851-30.697c-36.852-3.91-58.486-3.125-94.959,3.47 M381.546,250.834   c14.081-46.516,44.461-74.227,92.063-83.98c61.438-12.549,119.289,20.582,139.542,79.909   c-39.726-24.809-68.969-32.853-115.802-31.838c-46.188,1.03-74.606,10.054-112.895,35.91"/>
	<polygon points="350.866,239.238 389.077,239.238 418.03,856.504 335.805,856.504  "/>
	<polygon stroke="#FFFFFF" stroke-width="0.431" stroke-miterlimit="3.864" points="350.866,239.238 389.077,239.238    418.03,856.504 335.805,856.504  "/>
	<path stroke="#FFFFFF" stroke-width="0.431" stroke-miterlimit="3.864" d="M319.94,301.144l26.843-6.868l-18.938,8.684    M280.398,310.808c1.003-4.361,5.354-7.063,9.698-6.049c4.355,1.03,7.085,5.364,6.082,9.731c-1.008,4.339-5.353,7.052-9.709,6.049   C282.12,319.514,279.396,315.175,280.398,310.808z M298.195,303.082c1.002-4.356,5.353-7.046,9.697-6.043   c4.355,1.025,7.085,5.364,6.077,9.731c-1.003,4.355-5.348,7.063-9.692,6.043C299.916,311.788,297.192,307.455,298.195,303.082z    M273.213,342.073c1.003-4.356,5.337-7.046,9.698-6.043c4.355,1.025,7.073,5.375,6.065,9.708c-0.991,4.367-5.336,7.063-9.691,6.055   C274.935,350.79,272.211,346.445,273.213,342.073z M294.819,320.388c0.992-4.333,5.337-7.046,9.698-6.032   c4.345,1.014,7.068,5.37,6.065,9.72c-1.003,4.356-5.336,7.057-9.697,6.043C296.529,329.117,293.817,324.761,294.819,320.388z    M311.246,366.364c1.002-4.35,5.342-7.063,9.697-6.038c4.355,1.003,7.074,5.353,6.066,9.709c-0.992,4.345-5.337,7.063-9.692,6.06   C312.967,375.064,310.243,370.72,311.246,366.364z M303.737,351.258c1.009-4.367,5.342-7.063,9.697-6.055   c4.362,1.025,7.074,5.37,6.083,9.726c-1.003,4.372-5.353,7.063-9.709,6.06C305.464,359.964,302.734,355.614,303.737,351.258z    M327.171,315.175c1.003-4.367,5.336-7.058,9.697-6.055c4.356,1.025,7.074,5.37,6.077,9.731c-1.003,4.367-5.348,7.057-9.703,6.055   C328.881,323.881,326.168,319.536,327.171,315.175z M292.491,367.912c1.003-4.333,5.342-7.046,9.698-6.043   c4.355,1.025,7.073,5.358,6.065,9.731c-0.991,4.356-5.336,7.058-9.692,6.055C294.201,376.641,291.488,372.285,292.491,367.912z    M299.688,381.788c1.009-4.373,5.342-7.085,9.698-6.061c4.361,1.003,7.073,5.348,6.082,9.709c-1.002,4.367-5.353,7.085-9.697,6.055   C301.415,390.488,298.686,386.121,299.688,381.788z M279.285,325.98c1.002-4.35,5.347-7.063,9.691-6.038   c4.361,1.008,7.085,5.364,6.083,9.708c-1.003,4.367-5.354,7.063-9.698,6.06C281.006,334.704,278.276,330.336,279.285,325.98z    M311.43,316.567c0.991-4.367,5.336-7.085,9.697-6.055c4.345,1.002,7.068,5.347,6.066,9.703c-1.003,4.372-5.336,7.063-9.697,6.06   C313.14,325.251,310.427,320.901,311.43,316.567z M308.076,332.392c1.003-4.361,5.348-7.063,9.692-6.06   c4.361,1.014,7.085,5.375,6.083,9.742c-1.003,4.333-5.348,7.052-9.698,6.021C309.798,341.092,307.068,336.736,308.076,332.392z    M324.386,331.133c1.008-4.345,5.353-7.057,9.697-6.032c4.356,1.002,7.074,5.364,6.083,9.708c-1.008,4.356-5.354,7.085-9.709,6.055   C326.102,339.85,323.383,335.495,324.386,331.133z M319.813,348.473c0.992-4.356,5.342-7.057,9.697-6.055   c4.356,1.014,7.074,5.37,6.066,9.742c-1.003,4.333-5.336,7.046-9.692,6.043C321.522,357.179,318.811,352.845,319.813,348.473z    M290.932,337.282c0.991-4.333,5.336-7.046,9.692-6.021c4.361,1.002,7.073,5.364,6.071,9.708c-1.003,4.345-5.342,7.085-9.697,6.055   C292.642,346.011,289.924,341.655,290.932,337.282z M285.283,354.076c1.003-4.333,5.348-7.052,9.709-6.021   c4.345,1.002,7.068,5.336,6.066,9.703c-1.003,4.35-5.337,7.063-9.698,6.049C287.005,362.793,284.292,358.443,285.283,354.076z    M429.895,305.276l-24.608-12.755l16.51,12.755 M445.234,314.813c0-4.473,3.632-8.11,8.11-8.11s8.11,3.637,8.11,8.11   c0,4.467-3.632,8.099-8.11,8.099S445.234,319.28,445.234,314.813z M429.616,303.232c0-4.484,3.62-8.099,8.099-8.099   s8.11,3.615,8.11,8.099c0,4.473-3.632,8.11-8.11,8.11S429.616,307.705,429.616,303.232z M445.234,346.958   c0-4.495,3.632-8.11,8.11-8.11s8.11,3.615,8.11,8.11c0,4.473-3.632,8.11-8.11,8.11S445.234,351.431,445.234,346.958z    M429.025,320.878c0-4.473,3.632-8.077,8.11-8.077s8.099,3.604,8.099,8.077c0,4.495-3.62,8.11-8.099,8.11   S429.025,325.374,429.025,320.878z M402.69,362.014c0-4.495,3.632-8.11,8.099-8.11c4.479,0,8.11,3.615,8.11,8.11   c0,4.473-3.632,8.088-8.11,8.088C406.322,370.102,402.69,366.486,402.69,362.014z M413.396,348.963c0-4.467,3.632-8.099,8.1-8.099   c4.489,0,8.121,3.632,8.121,8.099c0,4.495-3.632,8.116-8.121,8.116C417.027,357.079,413.396,353.458,413.396,348.963z    M398.624,308.457c0-4.495,3.632-8.132,8.11-8.132s8.099,3.637,8.099,8.132c0,4.473-3.62,8.088-8.099,8.088   S398.624,312.93,398.624,308.457z M420.637,367.79c0-4.473,3.621-8.104,8.11-8.104c4.468,0,8.099,3.631,8.099,8.104   c0,4.467-3.631,8.11-8.099,8.11C424.258,375.9,420.637,372.257,420.637,367.79z M410.5,379.665c0-4.473,3.631-8.115,8.099-8.115   c4.489,0,8.109,3.643,8.109,8.115c0,4.495-3.62,8.11-8.109,8.11C414.131,387.775,410.5,384.16,410.5,379.665z M442.929,329.869   c0-4.473,3.62-8.11,8.11-8.11c4.467,0,8.099,3.637,8.099,8.11s-3.632,8.099-8.099,8.099   C446.549,337.968,442.929,334.341,442.929,329.869z M413.686,313.375c0-4.495,3.632-8.099,8.11-8.099   c4.478,0,8.099,3.604,8.099,8.099c0,4.467-3.621,8.088-8.099,8.088C417.317,321.463,413.686,317.843,413.686,313.375z    M413.396,329.584c0-4.484,3.632-8.121,8.1-8.121c4.489,0,8.121,3.637,8.121,8.121c0,4.473-3.632,8.11-8.121,8.11   C417.027,337.694,413.396,334.057,413.396,329.584z M397.767,324.644c0-4.473,3.62-8.099,8.109-8.099c4.468,0,8.1,3.626,8.1,8.099   c0,4.495-3.632,8.132-8.1,8.132C401.387,332.776,397.767,329.139,397.767,324.644z M398.346,342.602   c0-4.462,3.62-8.088,8.109-8.088c4.468,0,8.1,3.626,8.1,8.088c0,4.484-3.632,8.121-8.1,8.121   C401.966,350.723,398.346,347.086,398.346,342.602z M429.025,338.274c0-4.49,3.632-8.11,8.11-8.11s8.099,3.62,8.099,8.11   c0,4.473-3.62,8.077-8.099,8.077S429.025,342.747,429.025,338.274z M430.764,355.925c0-4.473,3.632-8.11,8.109-8.11   c4.468,0,8.11,3.637,8.11,8.11c0,4.484-3.643,8.099-8.11,8.099C434.396,364.024,430.764,360.41,430.764,355.925z"/>
	<path d="M86.526,600.158c21.7-22.626,33.393-35.972,52.954-60.458c16.188-20.281,24.915-32.089,39.554-53.523l27.388,5.888   l21.563,19.333l19.116-19.256c3.515-1.231,5.704-1.576,9.425-1.493c7.575,0.145,12.466,2.167,17.952,7.38l7.966,28.591   c2.601-9.553,10.07-15.418,19.963-15.691c9.915-0.262,17.701,5.191,20.815,14.622l13.646,3.52l-3.481,26.414L86.526,600.158z"/>
	<path stroke="#FFFFFF" stroke-width="0.175" stroke-miterlimit="3.864" d="M86.526,600.158   c21.7-22.626,33.393-35.972,52.954-60.458c16.188-20.281,24.915-32.089,39.554-53.523l27.388,5.888l21.563,19.333l19.116-19.256   c3.515-1.231,5.704-1.576,9.425-1.493c7.575,0.145,12.466,2.167,17.952,7.38l7.966,28.591c2.601-9.553,10.07-15.418,19.963-15.691   c9.915-0.262,17.701,5.191,20.815,14.622l13.646,3.52l-3.481,26.414L86.526,600.158z"/>
	<path d="M662.022,590.789c-22.091-22.258-34.022-35.393-54.008-59.544c-16.543-19.997-25.478-31.632-40.472-52.804l-27.282,6.344   l-21.223,19.724l-19.45-18.927c-3.543-1.153-5.737-1.481-9.458-1.32c-7.564,0.272-12.422,2.373-17.825,7.698l-7.452,28.725   c-2.774-9.525-10.338-15.251-20.242-15.346c-9.914-0.101-17.602,5.498-20.554,14.956l-13.579,3.765l3.943,26.358L662.022,590.789z"/>
	<path stroke="#FFFFFF" stroke-width="0.175" stroke-miterlimit="3.864" d="M662.022,590.789   c-22.091-22.258-34.022-35.393-54.008-59.544c-16.543-19.997-25.478-31.632-40.472-52.804l-27.282,6.344l-21.223,19.724   l-19.45-18.927c-3.543-1.153-5.737-1.481-9.458-1.32c-7.564,0.272-12.422,2.373-17.825,7.698l-7.452,28.725   c-2.774-9.525-10.338-15.251-20.242-15.346c-9.914-0.101-17.602,5.498-20.554,14.956l-13.579,3.765l3.943,26.358L662.022,590.789z"/>
	<path d="M97.471,620.823l234.836-55.534l-5.799,199.086c-49.779-17.512-77.185-30.713-121.935-58.698   C159.389,677.426,135.309,658.343,97.471,620.823"/>
	<path d="M648.632,612.98l-235.771-51.412l9.279,198.975c49.463-18.404,76.623-32.084,120.883-60.848   C587.706,670.664,611.457,651.168,648.632,612.98"/>
	<path d="M43.559,637.622c0.361,0.479,9.067,12.031,9.067,12.031c1.938,2.584,3.716,4.155-2.512,11.519   c-5.91,5.592-13.642,11.92-25.962,19.685c5.125,2.852,7.186,4.211,8.684,5.615c6.205-5.804,21.228-17.902,33.092-26.458   c1.654-1.37,7.13-9.926,4.629-13.234c-4.434-5.893-16.12-21.412-18.069-23.996c-1.938-2.584,2.089-5.749,2.089-5.749l-3.342-3.431   c0,0-9.687,8.689-14.934,12.388c0.423,0.557,4.222,7.575,4.222,7.575c-4.3,1.226-11.714,2.25-15.312,5.592   c-4.757,4.345-8.026,6.94-7.938,6.862c0.1-0.067-5.052-4.545-6.161-5.614L0,645.23l10.951,14.538l9.708-4.901   c2.74-2.696,3.721-4.946,10.817-11.942C38.573,635.929,43.19,637.132,43.559,637.622"/>
	<path d="M94.58,677.938c0.379-0.657,2.423-3.32,0.173-5.659c-0.763-0.802-5.815-6.038-5.815-6.038   c-1.414-1.459-0.345-3.599,1.811-6.684c-0.145,0.011-4.584-3.71-4.584-3.71s-8.361,10.171-14.477,15.663   c0.774,0.791,4.211,4.367,6.322,6.54c0.773,0.802-1.382,7.653-5.743,10.327c-1.242,0.78-7.503,3.877-13.586,4.256   c0.14,1.002,1.883,6.06,2.729,10.873C81.09,693.078,88.731,686.26,94.58,677.938"/>
	<path d="M88.776,744.746c5.598,1.727,7.904,2.629,9.664,3.676c4.846-6.974,17.028-21.913,26.864-32.763   c1.32-1.682,4.891-11.174,1.766-13.903c-5.564-4.834-16.86-14.66-16.86-14.66c-1.609-1.393,0.218-5.804,0.218-5.804l-4.117-3.587   c0,0-7.691,12.087-12.059,16.799c1.069,0.936,15.033,13.067,15.033,13.067c1.761,1.682,5.354,4.021,0.791,12.51   C105.453,726.788,99.203,734.597,88.776,744.746"/>
	<path d="M147.229,717.185c-1.632-1.181,0.914-5.213,0.914-5.213s-3.654-2.362-4.395-2.896   c-4.925,8.333-10.473,16.644-11.029,17.423l5.648,4.1c-0.619,5.146-3.515,10.683-5.648,14.148   c-4.222,6.328-15.88,21.679-15.88,21.679l8.783,2.718c4.301-8.355,27.661-39.303,27.661-39.303s3.393-5.336-0.167-8.355   C152.387,720.951,148.371,718.021,147.229,717.185"/>
	<path d="M154.393,785.452c2.428-9.458,13.585-29.388,16.437-33.51c1.565,1.315,7.336,6.707,7.336,6.707   c1.961-3.387,6.891-11.942,6.891-11.942c0.936-2.217,0.696-5.659-0.317-6.506l-13.313-7.687l0.924-4.412l-5.274-2.228   c0,0-3.281,7.72-8.795,17.858c0.936,0.813,3.676,2.952,5.981,4.422c-0.116,0.201-20.23,35.014-20.23,35.014L154.393,785.452"/>
	<path d="M198.496,770.524c0,0,15.34,35.448,18.03,45.263c0,0,9.825-14.895,10.784-16.176c-3.526-4.244-7.369-11.441-10.623-18.526   l7.358-5.236l10.372,4.824l5.28-16.855c-13.803-6.595-17.067-6.896-17.067-6.896l-3.742,14.404l-4.139,5.37   c-4.769-12.188-10.154-21.545-9.938-32.619l-3.955-0.446c-0.629,1.538-1.03,2.273-1.654,3.821   c-2.021,4.445-3.503,7.052-6.038,11.151l3.092,6.64c-8.807,6.706-9.524,18.738-9.843,21.434l-6.912-1.259l-7.246,10.928   l17.434,7.052l5.008-8.633C194.697,794.766,191.227,783.102,198.496,770.524"/>
	<path fill-rule="evenodd" clip-rule="evenodd" d="M245.229,793.005c-2.179,10.717-7.447,28.697-7.447,28.697   s5.269-0.936,10.254-1.582c2.579-15.507,5.543-27.527,5.543-27.527S248.365,792.827,245.229,793.005 M254.107,761.457   c0,0-3.938-0.49-4.829-0.668c-1.103,9.625-2.79,19.473-2.985,20.409c4.551,0.958,31.449,6.684,31.449,6.684   c1.086,8.021-7.554,40.851-7.554,40.851l11.386-0.992c0,0,2.228-30.903,5.363-37.899l5.27-0.468l1.549-11.697   c0,0-0.212-2.852-2.791-3.386c-3.163-0.68-32.045-6.829-33.426-7.13C254.175,766.447,254.107,761.457,254.107,761.457z"/>
	<path fill-rule="evenodd" clip-rule="evenodd" d="M466.367,796.949c2.563,10.65,5.381,29.165,5.381,29.165s4.367-3.085,8.623-5.771   c-4.223-15.15-6.606-27.293-6.606-27.293S469.142,795.456,466.367,796.949 M461.076,764.598c0,0-3.766,1.248-4.657,1.448   c3.053,9.18,5.704,18.827,5.916,19.752c4.534-1.036,31.326-7.23,31.326-7.23c4.367,6.807,10.427,40.205,10.427,40.205l9.893-5.704   c0,0-11.04-28.942-11.151-36.618l4.567-2.651l-3.531-11.252c0,0-1.403-2.495-3.977-1.894c-3.142,0.713-31.906,7.353-33.287,7.675   C463.248,769.099,461.076,764.598,461.076,764.598z"/>
	<path d="M519.061,752.834c-0.836,0.368-3.298-3.365-3.298-3.365l-4.7,2.384c2.751,5.425,9.246,19.718,9.246,19.718   c2.518-1.07,7.219-1.381,7.219-1.381c10.884,5.971,19.863,14.181,19.863,14.181l-20.008,8.5l3.665,15.106l31.649-13.435   c2.139-0.913,1.671-3.81,1.671-3.81l-1.86-7.486c-0.424-2.54-3.309-3.899-3.309-3.899c-5.203-2.184-9.904-4.712-9.904-4.712   l2.474-14.605l7.72-5.091l-5.904-13.914c-1.114-2.362-3.063-1.538-3.063-1.538l-12.009,5.102l7.074,16.644l-0.201,11.452   l-8.733-6.372l-5.827-13.691c-1.615-4.088-4.5-2.863-4.5-2.863L519.061,752.834"/>
	<path d="M612.761,760.777c-1.024-2.885-11.386-29.221-11.386-29.221c0.892-0.847,1.738-2.518,1.95-4.222   c-0.914-1.404-7.832-12.087-7.832-12.087c-0.791-1.192-1.771-1.972-3.476-0.869c-0.925,0.613-11.096,7.219-11.096,7.219   c-0.59,0.379-1.103,1.27-0.111,2.618c1.66,2.183,5.927,7.631,8.879,11.263c0,0,4.679-0.78,5.704-0.88   c0.769,0.067,1.136,0.256,1.303,0.724c0.424,1.003,4.813,12.042,5.904,19.284c-1.337,3.13-3.22,6.918-3.22,6.918l-19.751-16.12   c-0.557-0.479-0.256-0.958-0.156-1.17c0.546-0.635,1.159-3.587,3.075-3.977l-6.328-11.786c-0.579-0.902-1.671-2.751-4.211-1.092   c-1.949,1.259-5.503,3.576-8.222,5.336l-3.163-3.187l-4.356,3.666c0,0,6.518,8.544,12.154,16.654   c1.949-0.134,3.91-0.267,3.91-0.267s22.626,16.086,23.049,16.376c0.39,0.59,0.29,0.802-0.066,1.181   c-1.638,2.473-5.047,7.252-10.305,12.366c0.657,1.002,8.5,11.786,8.5,11.786C606.645,773.822,609.854,770.034,612.761,760.777"/>
	<path d="M606.645,703.293c-1.57,1.27-4.801-2.239-4.801-2.239s-3.231,2.919-3.933,3.498c6.772,6.907,13.379,14.427,13.97,15.151   l5.414-4.367c4.823,1.916,9.413,6.149,12.198,9.09c5.035,5.726,16.844,20.966,16.844,20.966l4.88-7.776   c-6.94-6.328-30.792-36.918-30.792-36.918s-4.288-4.634-8.121-1.983C611.591,699.272,607.748,702.413,606.645,703.293"/>
	<path d="M666.4,729.773c0,0,4.435-7.52,6.428-9.246c0,0-14.671-17.535-20.208-25.132c-4.3-9.77,0.523-13.391,2.14-15.073   c0,0,2.807-2.908,4.144-4.3c5.57-0.802,23.116,10.662,23.116,10.662l-15.307,15.841l9.491,12.276l20.654-21.389   c0,0-5.727-7.776-8.924-11.14c-5.392-5.203-17.323-15.463-18.994-16.655c-14.349-10.472-17.456-5.046-17.456-5.046l-11.374,11.797   c0,0,5.804,17.111,5.726,17.189c0.313,0.713-0.045,1.069-0.624,0.646c0,0-9.38-7.063-11.14-8.5   c-1.415-1.081-2.105-0.902-2.952-0.033l-3.286,3.42l-5.838-2.529c0,0-3.832,4.322-4.033,4.523   c7.754,6.372,16.432,14.326,16.432,14.326s5.314-4.3,6.027-4.868c2.941,1.593,7.509,7.809,7.509,7.809L666.4,729.773"/>
	<path fill-rule="evenodd" clip-rule="evenodd" d="M687.734,660.448c8.801,6.495,22.871,18.86,22.871,18.86s1.37-5.169,2.896-9.959   c-12.979-8.89-22.615-16.666-22.615-16.666S688.893,657.519,687.734,660.448 M662.869,639.059c0,0-2.083,3.364-2.629,4.088   c8.244,5.08,16.465,10.761,17.234,11.341c2.796-3.721,19.339-25.689,19.339-25.689c7.72,2.406,33.833,24.096,33.833,24.096   l3.91-10.728c0,0-27.082-15.073-32.084-20.876l1.794-4.969l-9.948-6.35c0,0-2.674-1.003-4.244,1.092   c-1.961,2.584-19.719,26.168-20.565,27.293C667.437,641.12,662.869,639.059,662.869,639.059z"/>
	<path d="M211.234,1030.235c14.138-5.324,20.275-7.196,25.611-7.998c-2.406-18.928-4.004-62.129-3.208-94.948   c-0.262-4.79-9.603-26.135-20.531-26.135c-19.462,0-58.932,0-58.932,0c-5.598,0-9.603-10.126-9.603-10.126h-14.399   c0,0,5.604,31.738,5.063,46.131c3.743,0,52.531,0,52.531,0c6.4,0.268,17.607-1.058,23.205,20.008   C213.379,975.303,214.443,997.695,211.234,1030.235"/>
	<path d="M278.733,1032.898c0,0,22.392-4.534,29.332-4c0,0,6.4-50.933,10.661-71.731c10.667-22.146,26.413-20.008,32.535-20.008   c0,0,10.666,0,15.735,0c11.73,7.731,22.136,53.874,22.136,53.874h-58.13l-5.876,34.401h78.41c0,0,4.267-21.334,4.801-31.738   c0-16.8-2.406-52.014-3.208-56.537c-6.395-39.469-22.392-36.005-22.392-36.005h-43.202c0,0-21.868,36.005-22.141,36.005   c-0.797,1.604-2.134,1.604-2.396,0c0,0-3.731-26.135-4.267-31.192c-0.534-4.01-2.134-4.813-5.342-4.813H292.87l-5.876-13.324   c0,0-15.195,0.535-15.992,0.535c2.134,22.392,2.93,48.794,2.93,48.794s17.863,1.872,20.27,2.139   c2.396,7.197-1.069,24.274-1.069,24.274L278.733,1032.898"/>
	<path d="M495.321,937.159c1.593,0,39.726,0,39.726,0c8.533,0,14.672-1.058,20.264,20.008c2.406,18.136,3.465,40.528,0.279,73.068   c14.125-5.324,20.252-7.196,25.589-7.998c-2.396-18.928-4-62.129-3.197-94.948c-0.268-4.79-9.604-26.135-20.543-26.135   c-19.45,0-70.651,0-79.185,0s-8.801-11.452-8.801-11.452l-12.532,1.326c0,0,2.93,29.065,2.395,43.458   c1.872,0,22.671,2.673,22.671,2.673c-4.267,9.336-13.858,23.996-12.533,34.936c1.604,14.404,1.86,23.728,1.86,23.472   s-17.602,2.93-21.589,3.465l-7.476,26.402h48.003l5.069-23.996c-1.337-8.533-4.534-13.346-7.999-35.471   C483.857,943.833,493.717,937.159,495.321,937.159"/>
</g>
</svg>