<?xml version="1.0" encoding="UTF-8" standalone="no"?>
<svg
   xmlns:dc="http://purl.org/dc/elements/1.1/"
   xmlns:cc="http://creativecommons.org/ns#"
   xmlns:rdf="http://www.w3.org/1999/02/22-rdf-syntax-ns#"
   xmlns:svg="http://www.w3.org/2000/svg"
   xmlns="http://www.w3.org/2000/svg"
   xmlns:sodipodi="http://sodipodi.sourceforge.net/DTD/sodipodi-0.dtd"
   xmlns:inkscape="http://www.inkscape.org/namespaces/inkscape"
   version="1.0"
   width="690"
   height="859"
   viewBox="26 117 690 859"
   id="svg103"
   sodipodi:docname="Emblem_of_Tel_Aviv.svg"
   inkscape:version="0.92.3 (2405546, 2018-03-11)">
  <metadata
     id="metadata109">
    <rdf:RDF>
      <cc:Work
         rdf:about="">
        <dc:format>image/svg+xml</dc:format>
        <dc:type
           rdf:resource="http://purl.org/dc/dcmitype/StillImage" />
        <dc:title></dc:title>
      </cc:Work>
    </rdf:RDF>
  </metadata>
  <defs
     id="defs107" />
  <sodipodi:namedview
     pagecolor="#ffffff"
     bordercolor="#666666"
     borderopacity="1"
     objecttolerance="10"
     gridtolerance="10"
     guidetolerance="10"
     inkscape:pageopacity="0"
     inkscape:pageshadow="2"
     inkscape:window-width="1920"
     inkscape:window-height="1005"
     id="namedview105"
     showgrid="false"
     inkscape:snap-bbox="true"
     inkscape:bbox-paths="true"
     inkscape:bbox-nodes="true"
     inkscape:snap-bbox-edge-midpoints="true"
     inkscape:snap-bbox-midpoints="true"
     inkscape:object-paths="true"
     inkscape:snap-intersection-paths="true"
     inkscape:snap-smooth-nodes="true"
     inkscape:snap-object-midpoints="true"
     inkscape:snap-center="true"
     inkscape:zoom="0.63313996"
     inkscape:cx="25.793368"
     inkscape:cy="443.76"
     inkscape:window-x="-9"
     inkscape:window-y="-9"
     inkscape:window-maximized="1"
     inkscape:current-layer="svg103" />
  <g
     id="g2575">
    <path
       style="fill:#159a0b;fill-opacity:1;fill-rule:nonzero;stroke:#0d14a0;stroke-width:14.17322826;stroke-linejoin:miter;stroke-miterlimit:4;stroke-dasharray:none;stroke-dashoffset:0;stroke-opacity:1"
       d="m 345.625,17.935547 -59.74609,38.353515 -1.03125,76.199218 -70.04688,-0.5039 V 85.052734 c 0,0 -17.51143,7.139302 -32.05469,10.044922 -9.109,1.81991 -18.46064,2.386998 -27.6914,3.580078 l 0.51562,34.314456 H 85.007812 l -1.03125,-32.29688 H 21.140625 v 69.5625 H 671.24414 l -0.12891,-68.90625 -62.96875,-0.58008 0.12891,31.3379 -71.05078,-0.125 V 97.871094 c 0,0 -15.85418,0.05198 -30.5332,-3.480469 -14.67902,-3.53245 -28.9043,-9.236328 -28.9043,-9.236328 l 0.7207,46.728513 -73.13672,0.15039 V 55.279297 Z M 29.223,172.00391 c -22.7427297,0 8.778656,16.08175 19.882469,33.01953 9.431612,14.3871 5.875,39.80223 5.875,60.58594 l -1.960938,371.63085 c 0,118.27298 111.387419,116.91335 204.513669,135.63672 47.09174,9.46796 61.63377,71.5918 93.21289,71.5918 31.57912,0 41.6836,-58.24936 93.21289,-71.5918 78.65441,-20.36593 194.82618,-48.06004 194.82618,-135.05273 l 0.91015,-370.80078 c 0,-21.83567 -3.16616,-46.33718 5.71289,-60.96289 9.52184,-15.68453 40.16535,-34.05664 18.40039,-34.05664 z"
       transform="translate(26,117)"
       id="rect2332"
       inkscape:connector-curvature="0"
       sodipodi:nodetypes="cccccsccccccccccccscccccscccszsccsss" />
    <g
       id="g18772">
      <path
         d="M 383.98588,256.38306 C 383.50847,256.74309 370.79911,250.58914 370.20126,250.59979 C 369.60341,250.61045 357.12145,257.21345 356.63151,256.87066 C 356.14158,256.52788 358.06693,242.53888 357.87205,241.97359 C 357.67716,241.40828 347.5402,231.57768 347.71481,231.00579 C 347.88942,230.43391 361.78871,227.94219 362.26612,227.58216 C 362.74352,227.22213 368.96049,214.54347 369.55835,214.53282 C 370.1562,214.52216 376.82108,226.97119 377.31102,227.31397 C 377.80095,227.65676 391.78022,229.65153 391.9751,230.21683 C 392.16998,230.78213 382.38982,240.96777 382.21521,241.53965 C 382.0406,242.11154 384.46329,256.02303 383.98588,256.38306 z "
         style="fill:#eaf60e;fill-opacity:0.98823529;fill-rule:nonzero;stroke:#eaf60e;stroke-width:7.49563599;stroke-linejoin:miter;stroke-miterlimit:4;stroke-dashoffset:0;stroke-opacity:0.98823529"
         id="path4121" />
    </g>
    <g
       id="g18776">
      <path
         d="M 162.43355,318.01067 L 573.26259,318.01067 L 573.26259,378.11475 L 162.43355,378.11475 L 162.43355,318.01067 z "
         style="fill:#ffffff;fill-opacity:1;fill-rule:nonzero;stroke:#ffffff;stroke-width:10;stroke-linejoin:miter;stroke-miterlimit:4;stroke-dashoffset:0;stroke-opacity:1"
         id="rect4131" />
      <path
         d="M 557.40793,344.5451 C 557.45869,347.67663 556.99319,350.52038 556.01144,353.07635 C 553.84476,355.78469 550.71325,358.17987 546.61691,360.2619 C 543.63774,361.76841 539.62602,363.3257 534.58176,364.93378 L 537.29855,356.50409 C 539.21131,356.16555 541.32719,355.6662 543.64621,355.00604 C 542.24125,349.70788 539.76144,344.84981 536.20676,340.43182 L 542.3259,332.78925 C 543.71391,335.6838 545.03422,339.40776 546.28683,343.96112 C 547.26859,347.54968 547.92875,350.5373 548.2673,352.92401 C 549.04593,352.38235 549.83304,351.83222 550.62863,351.27362 C 551.47497,350.54577 551.89815,349.7248 551.89816,348.81073 C 551.89815,346.79642 550.9333,343.98653 549.00363,340.38104 L 554.97043,332.58612 C 556.54463,336.78406 557.35712,340.77039 557.40793,344.5451 L 557.40793,344.5451 z M 532.65207,343.45331 C 532.65205,347.27884 529.58825,351.0959 523.46066,354.90448 L 522.31808,354.75214 C 523.57068,352.70397 524.30701,351.45983 524.52707,351.01971 C 525.33956,349.41165 525.74581,347.91361 525.74582,346.52557 C 525.74581,345.61153 525.50037,344.93444 525.00949,344.49432 C 523.55376,343.19096 521.53097,341.7183 518.94113,340.07635 L 523.76535,333.06854 C 526.42289,335.08289 528.835,337.20724 531.00168,339.44159 C 532.10192,340.59265 532.65205,341.92989 532.65207,343.45331 L 532.65207,343.45331 z M 514.52316,356.25018 C 513.28747,359.04315 511.45088,361.45526 509.0134,363.48651 L 508.86105,349.59784 C 508.82718,345.89082 507.28682,344.03731 504.23996,344.03729 L 494.31223,344.03729 C 495.78488,339.75476 498.08696,335.92078 501.21848,332.53534 C 501.28617,333.70334 501.34542,334.43966 501.39621,334.74432 C 501.49776,335.40451 501.70089,336.00542 502.00558,336.54706 L 508.35324,336.54706 C 510.67223,336.54708 512.36494,337.46961 513.43137,339.31464 C 514.15921,340.60112 514.52314,342.17533 514.52316,344.03729 L 514.52316,356.25018 z M 490.90988,343.45331 C 490.90987,347.27884 487.84607,351.0959 481.71848,354.90448 L 480.5759,354.75214 C 481.82849,352.70397 482.56482,351.45983 482.78488,351.01971 C 483.59737,349.41165 484.00362,347.91361 484.00363,346.52557 C 484.00362,345.61153 483.75818,344.93444 483.2673,344.49432 C 481.81157,343.19096 479.78878,341.7183 477.19894,340.07635 L 482.02316,333.06854 C 484.68071,335.08289 487.09281,337.20724 489.25949,339.44159 C 490.35974,340.59265 490.90987,341.92989 490.90988,343.45331 L 490.90988,343.45331 z M 473.64426,343.45331 C 473.64424,347.27884 470.58044,351.0959 464.45285,354.90448 L 463.31027,354.75214 C 464.56287,352.70397 465.2992,351.45983 465.51926,351.01971 C 466.33175,349.41165 466.738,347.91361 466.73801,346.52557 C 466.738,345.61153 466.49256,344.93444 466.00168,344.49432 C 464.54594,343.19096 462.52316,341.7183 459.93332,340.07635 L 464.75754,333.06854 C 467.41508,335.08289 469.82719,337.20724 471.99387,339.44159 C 473.09411,340.59265 473.64424,341.92989 473.64426,343.45331 L 473.64426,343.45331 z M 456.86105,355.6662 C 455.77769,358.64537 454.05959,361.23521 451.70676,363.43573 L 450.61496,349.11542 C 450.47952,347.27038 450.28486,346.04317 450.03098,345.43378 C 449.64163,344.5028 448.92223,344.03731 447.87277,344.03729 L 440.10324,344.03729 C 441.16963,347.54121 441.84672,351.03665 442.13449,354.52362 C 441.45739,356.96113 440.54333,359.35631 439.3923,361.70917 L 428.09348,361.70917 L 431.36887,354.21893 L 436.32004,354.21893 C 435.84607,350.96894 434.92355,347.57507 433.55246,344.03729 L 429.13449,344.03729 C 430.28553,340.36414 432.45219,336.61479 435.63449,332.78925 C 436.05766,334.04188 436.5824,335.29448 437.20871,336.54706 L 451.19894,336.54706 C 453.16246,336.54708 454.51663,337.34266 455.26144,338.93378 C 455.66767,339.81401 455.9385,341.30359 456.07394,343.40253 L 456.86105,355.6662 z M 415.11887,355.6662 C 414.0355,358.64537 412.31741,361.23521 409.96457,363.43573 L 408.87277,349.11542 C 408.73733,347.27038 408.54267,346.04317 408.28879,345.43378 C 407.89944,344.5028 407.18004,344.03731 406.13058,344.03729 L 398.36105,344.03729 C 399.42745,347.54121 400.10453,351.03665 400.3923,354.52362 C 399.71521,356.96113 398.80114,359.35631 397.65012,361.70917 L 386.35129,361.70917 L 389.62668,354.21893 L 394.57785,354.21893 C 394.10388,350.96894 393.18136,347.57507 391.81027,344.03729 L 387.3923,344.03729 C 388.54334,340.36414 390.71001,336.61479 393.8923,332.78925 C 394.31547,334.04188 394.84021,335.29448 395.46652,336.54706 L 409.45676,336.54706 C 411.42027,336.54708 412.77444,337.34266 413.51926,338.93378 C 413.92548,339.81401 414.19631,341.30359 414.33176,343.40253 L 415.11887,355.6662 z M 384.87863,340.4826 C 384.87861,344.27429 383.85452,348.22676 381.80637,352.34003 C 378.94567,358.09524 373.50362,361.59914 365.48019,362.85175 L 369.59348,354.26971 C 371.82784,353.94811 373.94372,353.22024 375.94113,352.08612 C 377.66768,351.10436 378.53096,349.16621 378.53098,346.27167 C 378.53096,344.7821 378.06547,344.03731 377.13449,344.03729 L 368.04465,344.03729 C 366.57199,344.03731 365.66639,343.81726 365.32785,343.37714 C 365.12472,343.10632 365.02316,342.31921 365.02316,341.01581 C 365.02316,340.42338 365.04855,339.54317 365.09933,338.37518 C 365.15011,337.20724 365.1755,336.36935 365.17551,335.86151 C 365.1755,334.84591 365.03162,334.11805 364.74387,333.67792 C 364.59152,333.42404 364.23605,333.12782 363.67746,332.78925 L 368.7048,326.08612 C 369.82198,327.37261 370.38058,330.00477 370.38058,333.9826 L 370.40598,335.68378 C 370.52446,336.25932 370.93071,336.54708 371.62473,336.54706 L 382.08566,336.54706 C 383.28747,336.54708 384.07457,336.88562 384.44699,337.56268 C 384.73473,338.07052 384.87861,339.04383 384.87863,340.4826 L 384.87863,340.4826 z M 351.21066,356.09784 C 350.29657,358.43378 349.13707,360.78664 347.73215,363.15643 C 344.00817,358.65383 340.10648,354.49824 336.02707,350.68964 C 335.31612,350.01256 333.94503,348.81921 331.91379,347.10956 C 330.59347,348.53145 329.9587,350.22415 330.00949,352.18768 C 330.02641,352.91556 330.16183,353.59264 330.41574,354.21893 L 335.31613,354.21893 L 332.75168,361.70917 L 323.66183,361.70917 L 325.46457,357.90057 C 325.43071,357.56204 325.41379,357.04576 325.41379,356.35175 C 325.41379,352.81399 326.78488,349.14082 329.52707,345.33221 C 327.49581,343.74109 325.48996,342.31921 323.50949,341.06659 C 324.60975,338.83224 326.04855,336.59786 327.8259,334.36346 C 330.41573,336.25932 333.80961,339.06922 338.00754,342.79315 C 338.70153,343.40255 340.25882,344.95984 342.67941,347.46503 C 343.17028,346.65254 343.41572,345.85697 343.41574,345.07831 C 343.41572,343.23327 342.72171,341.8114 341.33371,340.81268 C 342.19697,339.71244 343.79658,337.41883 346.13254,333.93182 C 348.23147,335.74305 349.28095,337.90971 349.28098,340.43182 C 349.28095,342.9032 347.86754,345.95853 345.04074,349.59784 C 347.35973,351.79837 349.41637,353.96503 351.21066,356.09784 L 351.21066,356.09784 z M 322.79855,354.21893 L 319.52316,361.70917 L 298.88058,361.70917 L 302.46066,354.21893 L 313.58176,354.21893 C 313.44632,351.29056 313.29398,348.97155 313.12473,347.2619 C 312.90466,345.11218 311.81286,344.03731 309.84933,344.03729 L 299.28683,344.03729 C 300.42095,340.0256 302.53683,336.19161 305.63449,332.53534 C 305.63448,333.77104 305.7699,335.10828 306.04074,336.54706 L 313.48019,336.54706 C 316.00231,336.54708 317.64424,337.66427 318.40598,339.89862 C 318.76142,340.98197 318.93916,342.94551 318.93918,345.78925 L 318.93918,354.21893 L 322.79855,354.21893 z M 296.62082,343.45331 C 296.6208,347.27884 293.557,351.0959 287.42941,354.90448 L 286.28683,354.75214 C 287.53943,352.70397 288.27576,351.45983 288.49582,351.01971 C 289.30831,349.41165 289.71456,347.91361 289.71457,346.52557 C 289.71456,345.61153 289.46912,344.93444 288.97824,344.49432 C 287.52251,343.19096 285.49972,341.7183 282.90988,340.07635 L 287.7341,333.06854 C 290.39164,335.08289 292.80375,337.20724 294.97043,339.44159 C 296.07067,340.59265 296.6208,341.92989 296.62082,343.45331 L 296.62082,343.45331 z M 281.05637,354.21893 L 277.78098,361.70917 L 257.1384,361.70917 L 260.71848,354.21893 L 271.83957,354.21893 C 271.70414,351.29056 271.55179,348.97155 271.38254,347.2619 C 271.16247,345.11218 270.07068,344.03731 268.10715,344.03729 L 257.54465,344.03729 C 258.67876,340.0256 260.79464,336.19161 263.8923,332.53534 C 263.8923,333.77104 264.02771,335.10828 264.29855,336.54706 L 271.73801,336.54706 C 274.26012,336.54708 275.90205,337.66427 276.66379,339.89862 C 277.01924,340.98197 277.19697,342.94551 277.19699,345.78925 L 277.19699,354.21893 L 281.05637,354.21893 z M 254.54855,343.1994 L 251.4509,350.63885 L 237.96848,350.63885 L 241.24387,343.1994 L 254.54855,343.1994 z M 231.82394,343.45331 C 231.82393,347.27884 228.76013,351.0959 222.63254,354.90448 L 221.48996,354.75214 C 222.74256,352.70397 223.47888,351.45983 223.69894,351.01971 C 224.51144,349.41165 224.91769,347.91361 224.91769,346.52557 C 224.91769,345.61153 224.67224,344.93444 224.18137,344.49432 C 222.72563,343.19096 220.70285,341.7183 218.11301,340.07635 L 222.93723,333.06854 C 225.59477,335.08289 228.00688,337.20724 230.17355,339.44159 C 231.2738,340.59265 231.82393,341.92989 231.82394,343.45331 L 231.82394,343.45331 z M 214.25363,348.40448 C 214.25361,349.79251 214.15205,351.9084 213.94894,354.75214 C 213.67809,355.95396 212.78942,358.27297 211.28293,361.70917 L 190.69113,361.70917 L 194.44894,354.21893 L 208.69308,354.21893 C 208.74385,353.33873 208.76077,352.4416 208.74387,351.52753 C 208.70999,349.34395 208.49841,347.38041 208.1091,345.6369 C 205.40075,343.72416 202.35388,342.30229 198.96848,341.37128 C 198.25753,341.94682 197.91053,342.59005 197.92746,343.30096 C 197.96131,344.62129 198.90076,345.54382 200.74582,346.06854 L 198.13058,352.08612 C 196.15011,351.03665 194.83826,350.24954 194.19504,349.72479 C 192.80701,348.57376 192.113,347.26192 192.11301,345.78925 C 192.113,343.85958 193.0186,341.66752 194.8298,339.21307 C 196.47172,337.0295 198.23214,335.37912 200.11105,334.2619 C 204.66442,335.32833 209.13317,337.71505 213.5173,341.42206 C 214.00817,343.70723 214.25361,346.0347 214.25363,348.40448 L 214.25363,348.40448 z M 188.40598,346.06854 L 188.27902,355.71698 C 187.02641,358.40839 185.2406,360.85435 182.9216,363.05487 L 182.76926,350.68964 C 182.75232,349.38626 182.71001,348.46374 182.6423,347.92206 C 182.43917,346.53405 182.03292,345.50996 181.42355,344.84979 C 179.95089,343.30945 178.14816,341.78601 176.01535,340.27948 C 177.30181,337.75737 178.96912,335.26063 181.0173,332.78925 C 183.42094,334.65125 185.40987,336.69943 186.9841,338.93378 C 187.96586,340.30489 188.43982,342.68314 188.40598,346.06854 L 188.40598,346.06854 z "
         style="font-size:52px;font-style:normal;font-variant:normal;font-weight:bold;font-stretch:normal;text-align:end;line-height:125%;writing-mode:lr-tb;text-anchor:end;fill:#be0202;fill-opacity:1;stroke:none;stroke-width:1px;stroke-linecap:butt;stroke-linejoin:miter;stroke-opacity:1;font-family:David"
         id="text4142" />
    </g>
    <g
       id="g18790">
      <g
         id="g18780">
        <path
           d="M 545.30339,451.54075 C 544.84183,451.92088 531.88077,446.31643 531.28392,446.35265 C 530.68707,446.38889 518.4991,453.51997 517.99494,453.19846 C 517.49079,452.87695 518.81576,438.81838 518.59686,438.26194 C 518.37797,437.7055 507.82962,428.31768 507.97959,427.73885 C 508.12957,427.16002 521.9095,424.0758 522.37107,423.69567 C 522.83263,423.31554 528.50136,410.38246 529.09821,410.34623 C 529.69506,410.30999 536.88656,422.46242 537.39071,422.78392 C 537.89487,423.10543 551.94669,424.50017 552.16559,425.05661 C 552.38448,425.61306 543.04914,436.20788 542.89916,436.78671 C 542.74918,437.36555 545.76495,451.16062 545.30339,451.54075 z "
           style="fill:#eaf60e;fill-opacity:0.98678415;fill-rule:nonzero;stroke:#eaf60e;stroke-width:7.49563646;stroke-linejoin:miter;stroke-miterlimit:4;stroke-dashoffset:0;stroke-opacity:0.98823529"
           id="path4109" />
        <path
           d="M 606.07348,439.70874 C 605.57365,440.03693 593.29181,433.06875 592.69453,433.04046 C 592.09726,433.01219 579.21196,438.78871 578.74537,438.41475 C 578.27879,438.0408 581.11063,424.2068 580.95296,423.63002 C 580.79529,423.05323 571.31972,412.58363 571.53118,412.02433 C 571.74264,411.46503 585.77465,409.88332 586.27448,409.55513 C 586.77431,409.22694 593.80338,396.97984 594.40066,397.00813 C 594.99793,397.0364 600.83835,409.89287 601.30494,410.26681 C 601.77152,410.64077 615.5913,413.54125 615.74897,414.11803 C 615.90664,414.69482 605.48421,424.22224 605.27275,424.78155 C 605.06128,425.34086 606.57331,439.38054 606.07348,439.70874 z "
           style="fill:#eaf60e;fill-opacity:0.98678415;fill-rule:nonzero;stroke:#eaf60e;stroke-width:7.49563646;stroke-linejoin:miter;stroke-miterlimit:4;stroke-dashoffset:0;stroke-opacity:0.98823529"
           id="path4113" />
        <path
           d="M 594.73687,502.43281 C 594.26005,502.79362 581.54068,496.66036 580.94285,496.67199 C 580.34502,496.68362 567.87382,503.30694 567.38332,502.96494 C 566.89283,502.62296 568.79541,488.63084 568.59961,488.06587 C 568.40381,487.50088 558.25085,477.68679 558.42453,477.11462 C 558.59821,476.54246 572.49343,474.02811 572.97025,473.6673 C 573.44707,473.30649 579.6434,460.61774 580.24123,460.60611 C 580.83906,460.59447 587.5242,473.03264 588.0147,473.37463 C 588.50519,473.71662 602.48769,475.68863 602.68349,476.25361 C 602.87929,476.81859 593.11571,487.02014 592.94204,487.59231 C 592.76836,488.16448 595.21369,502.072 594.73687,502.43281 z "
           style="fill:#eaf60e;fill-opacity:0.98678415;fill-rule:nonzero;stroke:#eaf60e;stroke-width:7.49563646;stroke-linejoin:miter;stroke-miterlimit:4;stroke-dashoffset:0;stroke-opacity:0.98823529"
           id="path4115" />
      </g>
      <g
         id="g18785">
        <path
           d="M 332.04169,824.50851 C 331.55681,824.85842 318.97977,818.43837 318.38183,818.43644 C 317.78388,818.43452 305.16573,824.77338 304.68311,824.42036 C 304.2005,824.06734 306.41982,810.12195 306.23688,809.55268 C 306.05393,808.98341 296.12609,798.94165 296.31269,798.37357 C 296.4993,797.80549 310.44795,795.60682 310.93283,795.25691 C 311.41771,794.90701 317.90012,782.36199 318.49806,782.36392 C 319.096,782.36585 325.49743,794.95238 325.98004,795.3054 C 326.46266,795.65842 340.39685,797.94694 340.57979,798.5162 C 340.76274,799.08548 330.77038,809.06305 330.58378,809.63113 C 330.39717,810.19922 332.52657,824.15861 332.04169,824.50851 z "
           style="fill:#eaf60e;fill-opacity:0.98678415;fill-rule:nonzero;stroke:#eaf60e;stroke-width:7.49563646;stroke-linejoin:miter;stroke-miterlimit:4;stroke-dashoffset:0;stroke-opacity:0.98823529"
           id="path4117" />
        <path
           d="M 385.72181,864.9715 C 385.25017,865.33906 372.4448,859.38746 371.84719,859.4076 C 371.24959,859.42774 358.87393,866.22789 358.37861,865.89291 C 357.8833,865.55794 359.58653,851.54016 359.38271,850.97803 C 359.17889,850.41589 348.88727,840.7473 349.05279,840.17272 C 349.21831,839.59815 363.07633,836.88628 363.54797,836.51872 C 364.0196,836.15116 370.0347,823.3755 370.6323,823.35536 C 371.22991,823.33522 378.09141,835.67697 378.58672,836.01194 C 379.08203,836.34692 393.09118,838.11971 393.295,838.68185 C 393.49883,839.24398 383.88144,849.58346 383.71593,850.15805 C 383.55041,850.73263 386.19344,864.60394 385.72181,864.9715 z "
           style="fill:#eaf60e;fill-opacity:0.98678415;fill-rule:nonzero;stroke:#eaf60e;stroke-width:7.49563599;stroke-linejoin:miter;stroke-miterlimit:4;stroke-dashoffset:0;stroke-opacity:0.98823529"
           id="path4119" />
        <path
           d="M 445.84427,824.56482 C 445.3605,824.91626 432.7632,818.53604 432.16526,818.536 C 431.56731,818.53597 418.96928,824.91474 418.48555,824.56324 C 418.00182,824.21175 420.177,810.25941 419.99226,809.69072 C 419.80751,809.12203 409.84794,799.11174 410.03275,798.54307 C 410.21756,797.9744 424.15918,795.7316 424.64295,795.38016 C 425.12672,795.02873 431.5694,782.46326 432.16735,782.4633 C 432.76529,782.46333 439.20652,795.02954 439.69024,795.38103 C 440.17397,795.73253 454.11534,797.97694 454.30008,798.54563 C 454.48482,799.11432 444.52409,809.12346 444.33929,809.69213 C 444.15448,810.2608 446.32804,824.21339 445.84427,824.56482 z "
           style="fill:#eaf60e;fill-opacity:0.98678415;fill-rule:nonzero;stroke:#eaf60e;stroke-width:7.49563646;stroke-linejoin:miter;stroke-miterlimit:4;stroke-dashoffset:0;stroke-opacity:0.98823529"
           id="path4123" />
      </g>
    </g>
    <path
       d="M 545.87705,589.53966 C 545.87705,686.05522 468.33754,764.3867 372.7978,764.3867 C 277.25806,764.3867 199.71856,686.05522 199.71856,589.53966 C 199.71856,493.0241 277.25806,414.69263 372.7978,414.69263 C 468.33754,414.69263 545.87705,493.0241 545.87705,589.53966 z "
       style="fill:#ffffff;fill-opacity:1;fill-rule:nonzero;stroke:#be0202;stroke-width:12.44511986;stroke-linejoin:miter;stroke-miterlimit:4;stroke-dashoffset:0;stroke-opacity:1"
       id="path4105" />
    <path
       d="M 468.11175,592.92184 C 467.80562,608.15876 494.1276,646.71698 486.22938,659.76904 C 478.33117,672.82111 431.86131,667.55784 418.48731,674.92776 C 405.11331,682.29768 384.78913,724.36864 369.5229,724.08164 C 354.25668,723.79465 335.6377,680.99159 322.56984,673.12458 C 309.50196,665.25758 262.85578,668.77031 255.48778,655.43126 C 248.11978,642.09221 275.97066,604.55239 276.27677,589.31548 C 276.58291,574.07856 250.26092,535.52034 258.15914,522.46827 C 266.05736,509.41621 312.52722,514.67947 325.90121,507.30956 C 339.27521,499.93964 359.5994,457.86867 374.86563,458.15568 C 390.13184,458.44267 408.75082,501.24573 421.81869,509.11273 C 434.88657,516.97973 481.53274,513.467 488.90074,526.80606 C 496.26874,540.14511 468.41787,577.68492 468.11175,592.92184 z "
       style="fill:#0d14a0;fill-opacity:1;fill-rule:nonzero;stroke:#be0202;stroke-width:18.47941399;stroke-linejoin:miter;stroke-miterlimit:4;stroke-dashoffset:0;stroke-opacity:1"
       id="path4107" />
    <path
       d="M 467.10742,690.79517 L 468.99468,695.79412 L 453.04426,693.59638 C 453.12072,693.71412 453.21142,693.89975 453.31638,694.15325 C 453.42133,694.40677 453.51204,694.59239 453.5885,694.71011 C 454.32913,695.8506 455.61353,696.7453 457.44171,697.3942 L 459.35533,701.55292 L 453.82085,705.14705 L 451.97122,700.48174 L 453.73886,698.79782 C 452.89983,697.98324 452.32226,697.33255 452.00612,696.84574 C 451.2984,695.75594 450.99042,694.62051 451.08218,693.43943 L 448.92282,693.08965 L 446.73978,687.85377 L 447.78874,687.10053 C 448.69326,688.01597 449.58854,688.53168 450.47457,688.64762 L 458.04286,689.67125 C 457.96742,689.00487 457.61922,688.19357 456.99826,687.23736 C 456.37729,686.28117 455.58964,685.3619 454.6353,684.47954 C 455.3055,683.63897 456.11025,682.91368 457.04956,682.30366 C 457.98886,681.69369 459.09625,681.17722 460.37173,680.75426 L 462.71018,684.85105 C 462.52154,684.85422 462.20072,685.00289 461.74771,685.29707 C 461.4462,685.49288 460.77459,686.00071 459.73288,686.82056 L 459.91324,689.85173 L 467.10742,690.79517 z M 449.8041,702.56918 L 451.64483,706.56018 L 438.58719,715.03991 L 436.3616,710.51176 L 445.34362,704.67876 C 444.13427,702.81654 443.22242,701.59621 442.60809,701.01778 C 441.26463,699.72006 439.95561,699.48506 438.68102,700.31277 L 432.51691,704.31579 L 429.60521,698.73112 L 430.46057,698.17564 C 430.88384,698.49683 431.24656,698.66063 431.54875,698.66704 C 431.85095,698.67349 432.22856,698.52961 432.68157,698.2354 L 437.46205,695.13092 C 438.56925,694.41191 439.6035,694.20531 440.56479,694.5111 C 441.43237,694.78245 442.38165,695.65643 443.41264,697.13304 L 446.58584,701.68987 C 447.24058,702.62415 447.97117,702.99608 448.77761,702.80567 L 449.8041,702.56918 z M 436.91026,716.12892 L 428.75902,721.4224 L 426.43284,716.95957 L 431.4644,713.69203 C 431.6323,713.58301 431.49286,713.18451 431.04609,712.49653 C 430.54513,711.72513 429.76923,710.75055 428.71839,709.57282 C 427.66755,708.39509 426.82323,708.01332 426.18542,708.42751 L 423.61935,710.09394 L 420.75651,704.58451 L 421.88148,703.7819 C 422.5796,704.30667 423.23911,704.36743 423.86002,703.96418 L 425.29431,703.03274 C 425.99867,702.57535 426.55982,702.38378 426.97775,702.45803 C 427.39569,702.53233 427.83624,702.90813 428.29939,703.58544 L 436.91026,716.12892 z M 431.61178,728.19049 L 428.95977,730.77184 C 428.53492,730.11765 427.92828,729.12832 427.13985,727.80383 C 426.3514,726.47936 425.74475,725.49002 425.31993,724.83583 C 423.10866,721.43079 420.89052,718.36425 418.66552,715.63618 C 418.17362,715.02556 417.72686,714.69565 417.32521,714.64643 C 416.92356,714.59726 416.39564,714.78508 415.74146,715.2099 L 408.54616,719.88258 L 405.87561,714.2843 L 406.98281,713.56527 C 407.59786,714.07195 408.21583,714.12366 408.83674,713.72041 L 415.47843,709.40725 C 416.25035,708.90598 417.03953,708.79885 417.84598,709.08584 C 418.57508,709.32775 419.21798,709.84033 419.77467,710.62357 C 420.41793,711.54129 421.23129,712.84922 422.21475,714.54738 C 423.3344,716.49116 424.12293,717.81522 424.58035,718.51956 C 425.23422,719.52645 426.44809,721.23036 428.22199,723.63131 C 430.35119,726.46959 431.48111,727.98932 431.61178,728.19049 L 431.61178,728.19049 z "
       style="font-size:29.99999809px;font-style:normal;font-variant:normal;font-weight:bold;font-stretch:normal;text-align:start;line-height:125%;writing-mode:lr-tb;text-anchor:start;fill:#be0202;fill-opacity:1;font-family:Guttman Hodes"
       id="flowRoot4147" />
    <path
       d="M 329.78957,728.36528 L 326.75191,727.43337 C 327.11751,726.74433 327.69652,725.73841 328.48893,724.4156 C 329.28133,723.09278 329.86034,722.08686 330.22595,721.39782 C 332.02595,718.00546 332.53723,716.10302 331.75977,715.69048 L 328.87179,714.1581 L 332.32638,708.92686 L 333.59688,709.6694 C 333.47819,710.48948 333.63101,711.01208 334.05534,711.2372 L 336.30766,712.4323 C 337.31479,712.96671 337.50439,713.82563 336.87646,715.00906 L 329.78957,728.36528 z M 321.34032,724.08623 L 312.75481,719.53071 L 315.52673,715.33018 L 320.82635,718.14219 C 321.00318,718.23603 321.28385,717.92063 321.66834,717.19601 C 322.09946,716.3835 322.57468,715.232 323.09402,713.74149 C 323.61334,712.25099 323.53711,711.3275 322.86533,710.97104 L 320.16255,709.53693 L 323.58882,704.35906 L 324.83671,704.9528 C 324.71693,705.8179 324.98405,706.42394 325.63805,706.77094 L 327.14877,707.57254 C 327.89063,707.96619 328.33057,708.36373 328.46859,708.76515 C 328.60657,709.16658 328.49195,709.73419 328.12474,710.46795 L 321.34032,724.08623 z M 313.05802,714.76754 L 310.46287,718.31459 L 296.70957,711.01701 L 299.58742,706.87269 L 309.04797,711.89252 C 310.08871,709.93108 310.71277,708.54139 310.92015,707.72347 C 311.40228,705.9189 310.97211,704.66044 309.62962,703.9481 L 303.13712,700.50314 L 306.60544,695.24601 L 307.50637,695.72405 C 307.43111,696.25003 307.46404,696.64666 307.60516,696.91395 C 307.74626,697.18126 308.05539,697.4415 308.53256,697.69467 L 313.56773,700.36636 C 314.7339,700.98516 315.41671,701.78898 315.61615,702.77782 C 315.8002,703.66801 315.49709,704.92225 314.70684,706.54053 L 312.26404,711.52717 C 311.76521,712.5532 311.79482,713.37248 312.35285,713.98502 L 313.05802,714.76754 z M 294.9433,710.07982 L 286.3578,705.5243 L 289.12971,701.32377 L 294.42933,704.13578 C 294.60616,704.22962 294.88683,703.91422 295.27133,703.1896 C 295.70244,702.37709 296.17767,701.22559 296.697,699.73508 C 297.21632,698.24457 297.14009,697.32109 296.46832,696.96463 L 293.76553,695.53052 L 297.1918,690.35265 L 298.43969,690.94639 C 298.31991,691.81149 298.58703,692.41753 299.24104,692.76453 L 300.75175,693.56612 C 301.49361,693.95978 301.93355,694.35732 302.07157,694.75873 C 302.20956,695.16017 302.09494,695.72778 301.72772,696.46154 L 294.9433,710.07982 z M 290.94236,692.538 C 290.53926,693.29768 289.94368,694.24955 289.15561,695.39362 C 288.29336,696.63447 287.22516,698.07143 285.95099,699.70449 L 282.90369,698.08758 L 285.45873,695.63963 C 285.96261,695.16008 286.36918,694.62889 286.67844,694.04606 C 287.01601,693.40986 287.13372,692.88916 287.03158,692.48395 C 286.92943,692.07876 286.56915,691.71209 285.95075,691.38395 L 283.16871,689.90778 L 286.98967,684.49783 L 288.40616,685.28362 C 288.2818,686.37223 288.57304,687.10405 289.27988,687.47908 L 290.5779,688.16782 C 291.97375,688.90849 292.09524,690.36522 290.94236,692.538 L 290.94236,692.538 z M 275.77111,699.49963 L 272.14915,698.32505 L 275.48047,692.11117 C 276.09896,690.94551 276.57727,689.93729 276.91541,689.0865 C 277.25351,688.2357 277.26799,687.5469 276.95884,687.0201 C 276.7181,686.62084 276.19149,686.20564 275.379,685.77452 L 271.58928,683.76367 C 270.38804,683.12629 269.27176,683.77943 268.24046,685.72308 C 267.64998,686.8359 267.13281,688.42912 266.68894,690.50275 L 264.18074,693.75702 L 258.56328,690.77637 L 261.59965,686.71616 L 264.35581,688.1786 C 264.66698,687.16633 264.93971,686.43942 265.17402,685.99785 C 266.05542,684.33671 267.43417,683.18891 269.31028,682.55442 L 268.99244,682.38577 C 267.4731,681.57961 266.51625,680.82282 266.12191,680.11538 L 269.44462,675.32409 L 270.70139,676.09251 C 270.52688,677.01909 270.8901,677.72138 271.79104,678.19941 L 278.52212,681.77096 C 281.08362,683.13013 282.14165,684.69892 281.6962,686.47736 C 281.48853,687.29582 280.9343,688.57538 280.03352,690.31605 C 279.37589,691.59707 278.71787,692.90067 278.05947,694.22686 C 277.40102,695.55304 276.63824,697.31063 275.77111,699.49963 L 275.77111,699.49963 z "
       style="font-size:29.99999809px;font-style:normal;font-variant:normal;font-weight:bold;font-stretch:normal;text-align:start;line-height:125%;writing-mode:lr-tb;text-anchor:start;fill:#be0202;fill-opacity:1;font-family:Guttman Hodes"
       id="flowRoot4155" />
    <path
       d="M 290.06632,611.81354 L 303.1478,576.00414 L 295.01607,557.71987 L 329.31075,557.71987 L 359.71634,521.30387 L 360.42345,495.49447 L 357.59502,489.83762 L 362.19121,483.82721 L 367.14096,488.83462 L 372.79781,483.47366 L 379.16178,488.77696 L 384.81863,483.82721 L 390.3057,490.34265 L 388.18742,495.90569 L 388.35417,521.65742 L 418.05265,557.71987 L 448.81179,557.71988 L 441.03362,575.29703 L 457.29708,612.16709 L 290.06632,611.81354 z "
       style="fill:#be0202;fill-opacity:1;fill-rule:evenodd;stroke:none;stroke-width:1px;stroke-linecap:butt;stroke-linejoin:miter;stroke-opacity:1"
       id="path4165" />
    <path
       d="M 304.12751,577.63742 L 359.13386,577.63742 L 359.13386,580.96061 L 304.12751,580.96061 L 304.12751,577.63742 z "
       style="fill:#eaf60e;fill-opacity:0.98823529;fill-rule:nonzero;stroke:none;stroke-width:6.72706223;stroke-linejoin:miter;stroke-miterlimit:4;stroke-dashoffset:0;stroke-opacity:0.88235294"
       id="rect4169" />
    <path
       d="M 346.6032,610.93213 C 341.63896,611.00234 355.75317,580.03287 369.56625,579.40379 C 384.11529,578.7412 393.73251,610.83268 392.63547,610.80556 C 391.84269,610.78596 390.0656,611.12042 389.29069,610.6261 C 383.78832,607.11608 379.64615,591.95645 369.52797,591.94189 C 359.59861,591.9276 353.54025,607.36459 348.75849,611.00059 C 348.09307,611.50658 347.20963,610.92355 346.6032,610.93213 z "
       style="fill:#eaf60e;fill-opacity:0.98823529;fill-rule:nonzero;stroke:#caf60e;stroke-width:0;stroke-linecap:round;stroke-linejoin:round;stroke-miterlimit:4;stroke-dashoffset:0;stroke-opacity:0.88235294"
       id="path44983" />
    <path
       d="M 383.44009,577.4173 L 440.62992,577.4173 L 440.62992,580.96061 L 383.44009,580.96061 L 383.44009,577.4173 z "
       style="fill:#eaf60e;fill-opacity:0.98823529;fill-rule:nonzero;stroke:none;stroke-width:6.72706223;stroke-linejoin:miter;stroke-miterlimit:4;stroke-dashoffset:0;stroke-opacity:0.88235294"
       id="rect47900" />
    <path
       d="M 298.89764,593.13992 L 348.18277,593.13992 L 348.18277,595.58443 L 298.89764,595.58443 L 298.89764,593.13992 z "
       style="fill:#eaf60e;fill-opacity:0.98823529;fill-rule:nonzero;stroke:none;stroke-width:6.72706223;stroke-linejoin:miter;stroke-miterlimit:4;stroke-dashoffset:0;stroke-opacity:0.88235294"
       id="rect47902" />
    <path
       d="M 390.35743,593.13993 L 446.14256,593.13993 L 446.14256,595.58444 L 390.35743,595.58444 L 390.35743,593.13993 z "
       style="fill:#eaf60e;fill-opacity:0.98823529;fill-rule:nonzero;stroke:none;stroke-width:6.72706223;stroke-linejoin:miter;stroke-miterlimit:4;stroke-dashoffset:0;stroke-opacity:0.88235294"
       id="path47910" />
    <path
       d="M 299.85743,559.70077 L 318.14256,559.70077 L 318.14256,566.08444 L 299.85743,566.08444 L 299.85743,559.70077 z "
       style="fill:#eaf60e;fill-opacity:0.98823529;fill-rule:nonzero;stroke:none;stroke-width:6.72706223;stroke-linejoin:miter;stroke-miterlimit:4;stroke-dashoffset:0;stroke-opacity:0.88235294"
       id="path47912" />
    <path
       d="M 319.85743,559.70077 L 339.14256,559.70077 L 339.14256,565.79155 L 319.85743,565.79155 L 319.85743,559.70077 z "
       style="fill:#eaf60e;fill-opacity:0.98823529;fill-rule:nonzero;stroke:none;stroke-width:6.72706223;stroke-linejoin:miter;stroke-miterlimit:4;stroke-dashoffset:0;stroke-opacity:0.88235294"
       id="path47914" />
    <path
       d="M 340.71021,559.70077 L 358.42675,559.70077 L 358.42675,565.49884 L 340.71021,565.49884 L 340.71021,559.70077 z "
       style="fill:#eaf60e;fill-opacity:0.98823529;fill-rule:nonzero;stroke:none;stroke-width:6.72706223;stroke-linejoin:miter;stroke-miterlimit:4;stroke-dashoffset:0;stroke-opacity:0.88235294"
       id="path47916" />
    <path
       d="M 374.38757,565.21642 L 387.48031,565.21642 L 387.48031,559.70077 L 374.38757,559.70077 L 374.38757,565.21642 z "
       style="fill:#eaf60e;fill-opacity:0.98823529;fill-rule:nonzero;stroke:none;stroke-width:6.72706223;stroke-linejoin:miter;stroke-miterlimit:4;stroke-dashoffset:0;stroke-opacity:0.88235294"
       id="path47918" />
    <path
       d="M 359.91172,559.70077 L 372.61106,559.70077 L 372.61106,565.37733 L 359.91172,565.37733 L 359.91172,559.70077 z "
       style="fill:#eaf60e;fill-opacity:0.98823529;fill-rule:nonzero;stroke:none;stroke-width:6.72706223;stroke-linejoin:miter;stroke-miterlimit:4;stroke-dashoffset:0;stroke-opacity:0.88235294"
       id="path47922" />
    <path
       d="M 389.0937,559.70077 L 404.13619,559.70077 L 404.13619,565.2433 L 389.0937,565.2433 L 389.0937,559.70077 z "
       style="fill:#eaf60e;fill-opacity:0.98823529;fill-rule:nonzero;stroke:none;stroke-width:6.72706223;stroke-linejoin:miter;stroke-miterlimit:4;stroke-dashoffset:0;stroke-opacity:0.88235294"
       id="path47924" />
    <path
       d="M 270.7981,547.3235 L 360.20981,502.85306 L 359.98745,508.80519 L 273.87921,553.01616 L 270.7981,547.3235 z "
       style="fill:#eaf60e;fill-opacity:0.98823529;fill-rule:nonzero;stroke:#caf60e;stroke-width:0;stroke-linecap:round;stroke-linejoin:round;stroke-miterlimit:4;stroke-dashoffset:0;stroke-opacity:0.88235294"
       id="path47926" />
    <path
       d="M 274.10886,555.08381 L 359.83893,511.78767 L 359.89113,517.16299 L 277.07226,560.68816 L 274.10886,555.08381 z "
       style="fill:#eaf60e;fill-opacity:0.98823529;fill-rule:nonzero;stroke:#caf60e;stroke-width:0;stroke-linecap:round;stroke-linejoin:round;stroke-miterlimit:4;stroke-dashoffset:0;stroke-opacity:0.88235294"
       id="path47930" />
    <path
       d="M 476.23262,548.60807 L 387.79966,504.0975 L 388.02294,510.53677 L 473.17322,554.2606 L 476.23262,548.60807 z "
       style="fill:#eaf60e;fill-opacity:0.98823529;fill-rule:nonzero;stroke:#caf60e;stroke-width:0;stroke-linecap:round;stroke-linejoin:round;stroke-miterlimit:4;stroke-dashoffset:0;stroke-opacity:0.88235294"
       id="path47938" />
    <path
       d="M 472.64535,556.33392 L 388.05865,513.34931 L 388.01064,519.0395 L 469.70327,561.89794 L 472.64535,556.33392 z "
       style="fill:#eaf60e;fill-opacity:0.98823529;fill-rule:nonzero;stroke:#caf60e;stroke-width:0;stroke-linecap:round;stroke-linejoin:round;stroke-miterlimit:4;stroke-dashoffset:0;stroke-opacity:0.88235294"
       id="path47940" />
    <path
       d="M 366.00844,486.11558 C 364.42622,486.13319 368.88492,478.36505 373.28747,478.20726 C 377.9246,478.04105 381.18904,486.02792 380.83938,486.02112 C 378.7925,485.9813 377.03402,481.32503 373.35495,481.32086 C 369.74983,481.31677 367.59066,486.09796 366.00844,486.11558 z "
       style="fill:#eaf60e;fill-opacity:0.98823529;fill-rule:nonzero;stroke:#caf60e;stroke-width:0;stroke-linecap:round;stroke-linejoin:round;stroke-miterlimit:4;stroke-dashoffset:0;stroke-opacity:0.88235294"
       id="path48911" />
    <path
       d="M 405.62569,565.21642 L 418.71843,565.21642 L 418.71843,559.70077 L 405.62569,559.70077 L 405.62569,565.21642 z "
       style="fill:#eaf60e;fill-opacity:0.98823529;fill-rule:nonzero;stroke:none;stroke-width:6.72706223;stroke-linejoin:miter;stroke-miterlimit:4;stroke-dashoffset:0;stroke-opacity:0.88235294"
       id="path49894" />
    <path
       d="M 420.33182,559.70077 L 435.37431,559.70077 L 435.37431,565.2433 L 420.33182,565.2433 L 420.33182,559.70077 z "
       style="fill:#eaf60e;fill-opacity:0.98823529;fill-rule:nonzero;stroke:none;stroke-width:6.72706223;stroke-linejoin:miter;stroke-miterlimit:4;stroke-dashoffset:0;stroke-opacity:0.88235294"
       id="path49896" />
    <path
       d="M 436.97875,559.70077 L 445.02124,559.70077 L 445.02124,565.13345 L 436.97875,565.13345 L 436.97875,559.70077 z "
       style="fill:#eaf60e;fill-opacity:0.98823529;fill-rule:nonzero;stroke:none;stroke-width:6.72706223;stroke-linejoin:miter;stroke-miterlimit:4;stroke-dashoffset:0;stroke-opacity:0.88235294"
       id="path49898" />
    <path
       d="M 335.03782,551.05154 L 352.75436,551.05154 L 352.75436,556.84961 L 335.03782,556.84961 L 335.03782,551.05154 z "
       style="fill:#eaf60e;fill-opacity:0.98823529;fill-rule:nonzero;stroke:none;stroke-width:6.72706223;stroke-linejoin:miter;stroke-miterlimit:4;stroke-dashoffset:0;stroke-opacity:0.88235294"
       id="path49912" />
    <path
       d="M 368.00807,556.4788 L 381.10081,556.4788 L 381.10081,550.96315 L 368.00807,550.96315 L 368.00807,556.4788 z "
       style="fill:#eaf60e;fill-opacity:0.98823529;fill-rule:nonzero;stroke:none;stroke-width:6.72706223;stroke-linejoin:miter;stroke-miterlimit:4;stroke-dashoffset:0;stroke-opacity:0.88235294"
       id="path49914" />
    <path
       d="M 353.97416,551.05154 L 366.6735,551.05154 L 366.6735,556.7281 L 353.97416,556.7281 L 353.97416,551.05154 z "
       style="fill:#eaf60e;fill-opacity:0.98823529;fill-rule:nonzero;stroke:none;stroke-width:6.72706223;stroke-linejoin:miter;stroke-miterlimit:4;stroke-dashoffset:0;stroke-opacity:0.88235294"
       id="path49916" />
    <path
       d="M 382.44903,551.05154 L 397.49152,551.05154 L 397.49152,556.59407 L 382.44903,556.59407 L 382.44903,551.05154 z "
       style="fill:#eaf60e;fill-opacity:0.98823529;fill-rule:nonzero;stroke:none;stroke-width:6.72706223;stroke-linejoin:miter;stroke-miterlimit:4;stroke-dashoffset:0;stroke-opacity:0.88235294"
       id="path49918" />
    <path
       d="M 398.71586,556.5994 L 411.8086,556.5994 L 411.8086,551.08375 L 398.71586,551.08375 L 398.71586,556.5994 z "
       style="fill:#eaf60e;fill-opacity:0.98823529;fill-rule:nonzero;stroke:none;stroke-width:6.72706223;stroke-linejoin:miter;stroke-miterlimit:4;stroke-dashoffset:0;stroke-opacity:0.88235294"
       id="path49920" />
    <path
       d="M 343.49589,542.46315 L 357.35154,542.46315 L 357.35154,548.08444 L 343.49589,548.08444 L 343.49589,542.46315 z "
       style="fill:#eaf60e;fill-opacity:0.98823529;fill-rule:nonzero;stroke:none;stroke-width:6.72706223;stroke-linejoin:miter;stroke-miterlimit:4;stroke-dashoffset:0;stroke-opacity:0.88235294"
       id="path49922" />
    <path
       d="M 369.83409,548.15558 L 380.07358,548.15558 L 380.07358,542.46315 L 369.83409,542.46315 L 369.83409,548.15558 z "
       style="fill:#eaf60e;fill-opacity:0.98823529;fill-rule:nonzero;stroke:none;stroke-width:6.72706223;stroke-linejoin:miter;stroke-miterlimit:4;stroke-dashoffset:0;stroke-opacity:0.88235294"
       id="path49924" />
    <path
       d="M 358.5129,542.46315 L 368.44472,542.46315 L 368.44472,548.13971 L 358.5129,548.13971 L 358.5129,542.46315 z "
       style="fill:#eaf60e;fill-opacity:0.98823529;fill-rule:nonzero;stroke:none;stroke-width:6.72706223;stroke-linejoin:miter;stroke-miterlimit:4;stroke-dashoffset:0;stroke-opacity:0.88235294"
       id="path49926" />
    <path
       d="M 381.33537,542.46315 L 393.09972,542.46315 L 393.09972,548.00568 L 381.33537,548.00568 L 381.33537,542.46315 z "
       style="fill:#eaf60e;fill-opacity:0.98823529;fill-rule:nonzero;stroke:none;stroke-width:6.72706223;stroke-linejoin:miter;stroke-miterlimit:4;stroke-dashoffset:0;stroke-opacity:0.88235294"
       id="path49928" />
    <path
       d="M 394.26462,547.9788 L 404.50411,547.9788 L 404.50411,542.46315 L 394.26462,542.46315 L 394.26462,547.9788 z "
       style="fill:#eaf60e;fill-opacity:0.98823529;fill-rule:nonzero;stroke:none;stroke-width:6.72706223;stroke-linejoin:miter;stroke-miterlimit:4;stroke-dashoffset:0;stroke-opacity:0.88235294"
       id="path49930" />
    <path
       d="M 350.00394,533.46315 L 358.80754,533.46315 L 358.80754,539.26122 L 350.00394,539.26122 L 350.00394,533.46315 z "
       style="fill:#eaf60e;fill-opacity:0.98823529;fill-rule:nonzero;stroke:none;stroke-width:6.72706223;stroke-linejoin:miter;stroke-miterlimit:4;stroke-dashoffset:0;stroke-opacity:0.88235294"
       id="path49932" />
    <path
       d="M 369.44865,538.9788 L 378.1776,538.9788 L 378.1776,533.46315 L 369.44865,533.46315 L 369.44865,538.9788 z "
       style="fill:#eaf60e;fill-opacity:0.98823529;fill-rule:nonzero;stroke:none;stroke-width:6.72706223;stroke-linejoin:miter;stroke-miterlimit:4;stroke-dashoffset:0;stroke-opacity:0.88235294"
       id="path49934" />
    <path
       d="M 359.79757,533.46315 L 368.26424,533.46315 L 368.26424,539.13971 L 359.79757,539.13971 L 359.79757,533.46315 z "
       style="fill:#eaf60e;fill-opacity:0.98823529;fill-rule:nonzero;stroke:none;stroke-width:6.72706223;stroke-linejoin:miter;stroke-miterlimit:4;stroke-dashoffset:0;stroke-opacity:0.88235294"
       id="path49936" />
    <path
       d="M 379.25325,533.37476 L 389.2821,533.37476 L 389.2821,539.00568 L 379.25325,539.00568 L 379.25325,533.37476 z "
       style="fill:#eaf60e;fill-opacity:0.98823529;fill-rule:nonzero;stroke:none;stroke-width:6.72706223;stroke-linejoin:miter;stroke-miterlimit:4;stroke-dashoffset:0;stroke-opacity:0.88235294"
       id="path49938" />
    <path
       d="M 390.27516,538.9788 L 397.87911,538.9788 L 397.87911,533.46315 L 390.27516,533.46315 L 390.27516,538.9788 z "
       style="fill:#eaf60e;fill-opacity:0.98823529;fill-rule:nonzero;stroke:none;stroke-width:6.72706223;stroke-linejoin:miter;stroke-miterlimit:4;stroke-dashoffset:0;stroke-opacity:0.88235294"
       id="path49940" />
    <path
       d="M 355.96188,525.811 L 362.25898,525.811 L 362.25898,531.34961 L 355.96188,531.34961 L 355.96188,525.811 z "
       style="fill:#eaf60e;fill-opacity:0.98823529;fill-rule:nonzero;stroke:none;stroke-width:6.72706223;stroke-linejoin:miter;stroke-miterlimit:4;stroke-dashoffset:0;stroke-opacity:0.88235294"
       id="path49942" />
    <path
       d="M 370.26806,531.33235 L 376.98296,531.33235 L 376.98296,525.811 L 370.26806,525.811 L 370.26806,531.33235 z "
       style="fill:#eaf60e;fill-opacity:0.98823529;fill-rule:nonzero;stroke:none;stroke-width:6.72706223;stroke-linejoin:miter;stroke-miterlimit:4;stroke-dashoffset:0;stroke-opacity:0.88235294"
       id="path49944" />
    <path
       d="M 362.93887,525.99055 L 369.45201,525.99055 L 369.45201,531.49604 L 362.93887,531.49604 L 362.93887,525.99055 z "
       style="fill:#eaf60e;fill-opacity:0.98823529;fill-rule:nonzero;stroke:none;stroke-width:6.72706223;stroke-linejoin:miter;stroke-miterlimit:4;stroke-dashoffset:0;stroke-opacity:0.88235294"
       id="path49946" />
    <path
       d="M 377.81042,525.811 L 385.52529,525.811 L 385.52529,531.35923 L 377.81042,531.35923 L 377.81042,525.811 z "
       style="fill:#eaf60e;fill-opacity:0.98823529;fill-rule:nonzero;stroke:none;stroke-width:6.72706223;stroke-linejoin:miter;stroke-miterlimit:4;stroke-dashoffset:0;stroke-opacity:0.88235294"
       id="path49948" />
    <path
       d="M 386.28921,531.42074 L 391.87911,531.42074 L 391.87911,525.811 L 386.28921,525.811 L 386.28921,531.42074 z "
       style="fill:#eaf60e;fill-opacity:0.98823529;fill-rule:nonzero;stroke:none;stroke-width:6.72706223;stroke-linejoin:miter;stroke-miterlimit:4;stroke-dashoffset:0;stroke-opacity:0.88235294"
       id="path49950" />
    <path
       d="M 361.32564,502.60478 L 386.74212,502.60478 L 386.74212,505.22088 L 361.32564,505.22088 L 361.32564,502.60478 z "
       style="fill:#eaf60e;fill-opacity:0.98823529;fill-rule:nonzero;stroke:none;stroke-width:6.72706223;stroke-linejoin:miter;stroke-miterlimit:4;stroke-dashoffset:0;stroke-opacity:0.88235294"
       id="path49952" />
    <path
       d="M 304.00806,568.86077 L 321.15757,568.86077 L 321.15757,575.24444 L 304.00806,575.24444 L 304.00806,568.86077 z "
       style="fill:#eaf60e;fill-opacity:0.98823529;fill-rule:nonzero;stroke:none;stroke-width:6.72706223;stroke-linejoin:miter;stroke-miterlimit:4;stroke-dashoffset:0;stroke-opacity:0.88235294"
       id="path50032" />
    <path
       d="M 322.76593,568.86077 L 340.85333,568.86077 L 340.85333,574.95155 L 322.76593,574.95155 L 322.76593,568.86077 z "
       style="fill:#eaf60e;fill-opacity:0.98823529;fill-rule:nonzero;stroke:none;stroke-width:6.72706223;stroke-linejoin:miter;stroke-miterlimit:4;stroke-dashoffset:0;stroke-opacity:0.88235294"
       id="path50034" />
    <path
       d="M 342.32362,568.86077 L 358.93985,568.86077 L 358.93985,574.65884 L 342.32362,574.65884 L 342.32362,568.86077 z "
       style="fill:#eaf60e;fill-opacity:0.98823529;fill-rule:nonzero;stroke:none;stroke-width:6.72706223;stroke-linejoin:miter;stroke-miterlimit:4;stroke-dashoffset:0;stroke-opacity:0.88235294"
       id="path50036" />
    <path
       d="M 373.9094,574.37642 L 386.18899,574.37642 L 386.18899,568.86077 L 373.9094,568.86077 L 373.9094,574.37642 z "
       style="fill:#eaf60e;fill-opacity:0.98823529;fill-rule:nonzero;stroke:none;stroke-width:6.72706223;stroke-linejoin:miter;stroke-miterlimit:4;stroke-dashoffset:0;stroke-opacity:0.88235294"
       id="path50038" />
    <path
       d="M 360.33259,568.86077 L 372.24322,568.86077 L 372.24322,574.53733 L 360.33259,574.53733 L 360.33259,568.86077 z "
       style="fill:#eaf60e;fill-opacity:0.98823529;fill-rule:nonzero;stroke:none;stroke-width:6.72706223;stroke-linejoin:miter;stroke-miterlimit:4;stroke-dashoffset:0;stroke-opacity:0.88235294"
       id="path50040" />
    <path
       d="M 387.70218,568.86077 L 401.81043,568.86077 L 401.81043,574.4033 L 387.70218,574.4033 L 387.70218,568.86077 z "
       style="fill:#eaf60e;fill-opacity:0.98823529;fill-rule:nonzero;stroke:none;stroke-width:6.72706223;stroke-linejoin:miter;stroke-miterlimit:4;stroke-dashoffset:0;stroke-opacity:0.88235294"
       id="path50042" />
    <path
       d="M 403.20743,574.37642 L 415.48702,574.37642 L 415.48702,568.86077 L 403.20743,568.86077 L 403.20743,574.37642 z "
       style="fill:#eaf60e;fill-opacity:0.98823529;fill-rule:nonzero;stroke:none;stroke-width:6.72706223;stroke-linejoin:miter;stroke-miterlimit:4;stroke-dashoffset:0;stroke-opacity:0.88235294"
       id="path50044" />
    <path
       d="M 417.00021,568.86077 L 431.10847,568.86077 L 431.10847,574.4033 L 417.00021,574.4033 L 417.00021,568.86077 z "
       style="fill:#eaf60e;fill-opacity:0.98823529;fill-rule:nonzero;stroke:none;stroke-width:6.72706223;stroke-linejoin:miter;stroke-miterlimit:4;stroke-dashoffset:0;stroke-opacity:0.88235294"
       id="path50046" />
    <path
       d="M 432.61326,568.86077 L 440.15626,568.86077 L 440.15626,574.29345 L 432.61326,574.29345 L 432.61326,568.86077 z "
       style="fill:#eaf60e;fill-opacity:0.98823529;fill-rule:nonzero;stroke:none;stroke-width:6.72706223;stroke-linejoin:miter;stroke-miterlimit:4;stroke-dashoffset:0;stroke-opacity:0.88235294"
       id="path50048" />
    <path
       d="M 300.21592,584.50391 L 318.50105,584.50391 L 318.50105,590.88758 L 300.21592,590.88758 L 300.21592,584.50391 z "
       style="fill:#eaf60e;fill-opacity:0.98823529;fill-rule:nonzero;stroke:none;stroke-width:6.72706223;stroke-linejoin:miter;stroke-miterlimit:4;stroke-dashoffset:0;stroke-opacity:0.88235294"
       id="path50050" />
    <path
       d="M 320.21592,584.50391 L 339.50105,584.50391 L 339.50105,590.59469 L 320.21592,590.59469 L 320.21592,584.50391 z "
       style="fill:#eaf60e;fill-opacity:0.98823529;fill-rule:nonzero;stroke:none;stroke-width:6.72706223;stroke-linejoin:miter;stroke-miterlimit:4;stroke-dashoffset:0;stroke-opacity:0.88235294"
       id="path50052" />
    <path
       d="M 341.0687,584.50391 L 353.78524,584.50391 L 353.78524,590.30198 L 341.0687,590.30198 L 341.0687,584.50391 z "
       style="fill:#eaf60e;fill-opacity:0.98823529;fill-rule:nonzero;stroke:none;stroke-width:6.72706223;stroke-linejoin:miter;stroke-miterlimit:4;stroke-dashoffset:0;stroke-opacity:0.88235294"
       id="path50054" />
    <path
       d="M 389.45219,584.50391 L 404.49468,584.50391 L 404.49468,590.04644 L 389.45219,590.04644 L 389.45219,584.50391 z "
       style="fill:#eaf60e;fill-opacity:0.98823529;fill-rule:nonzero;stroke:none;stroke-width:6.72706223;stroke-linejoin:miter;stroke-miterlimit:4;stroke-dashoffset:0;stroke-opacity:0.88235294"
       id="path50060" />
    <path
       d="M 405.98418,590.01956 L 419.07692,590.01956 L 419.07692,584.50391 L 405.98418,584.50391 L 405.98418,590.01956 z "
       style="fill:#eaf60e;fill-opacity:0.98823529;fill-rule:nonzero;stroke:none;stroke-width:6.72706223;stroke-linejoin:miter;stroke-miterlimit:4;stroke-dashoffset:0;stroke-opacity:0.88235294"
       id="path50062" />
    <path
       d="M 420.69031,584.50391 L 435.7328,584.50391 L 435.7328,590.04644 L 420.69031,590.04644 L 420.69031,584.50391 z "
       style="fill:#eaf60e;fill-opacity:0.98823529;fill-rule:nonzero;stroke:none;stroke-width:6.72706223;stroke-linejoin:miter;stroke-miterlimit:4;stroke-dashoffset:0;stroke-opacity:0.88235294"
       id="path50064" />
    <path
       d="M 437.33724,584.50391 L 443.37973,584.50391 L 443.37973,589.93659 L 437.33724,589.93659 L 437.33724,584.50391 z "
       style="fill:#eaf60e;fill-opacity:0.98823529;fill-rule:nonzero;stroke:none;stroke-width:6.72706223;stroke-linejoin:miter;stroke-miterlimit:4;stroke-dashoffset:0;stroke-opacity:0.88235294"
       id="path50066" />
    <path
       d="M 296.91809,599.67035 L 316.14794,599.67035 L 316.14794,606.05402 L 296.91809,606.05402 L 296.91809,599.67035 z "
       style="fill:#eaf60e;fill-opacity:0.98823529;fill-rule:nonzero;stroke:none;stroke-width:6.72706223;stroke-linejoin:miter;stroke-miterlimit:4;stroke-dashoffset:0;stroke-opacity:0.88235294"
       id="path50068" />
    <path
       d="M 317.95141,599.67035 L 341.23292,599.67035 L 341.23292,605.76113 L 317.95141,605.76113 L 317.95141,599.67035 z "
       style="fill:#eaf60e;fill-opacity:0.98823529;fill-rule:nonzero;stroke:none;stroke-width:6.72706223;stroke-linejoin:miter;stroke-miterlimit:4;stroke-dashoffset:0;stroke-opacity:0.88235294"
       id="path50070" />
    <path
       d="M 394.76482,599.67035 L 406.58449,599.67035 L 406.58449,605.21288 L 394.76482,605.21288 L 394.76482,599.67035 z "
       style="fill:#eaf60e;fill-opacity:0.98823529;fill-rule:nonzero;stroke:none;stroke-width:6.72706223;stroke-linejoin:miter;stroke-miterlimit:4;stroke-dashoffset:0;stroke-opacity:0.88235294"
       id="path50078" />
    <path
       d="M 408.15095,605.186 L 421.92014,605.186 L 421.92014,599.67035 L 408.15095,599.67035 L 408.15095,605.186 z "
       style="fill:#eaf60e;fill-opacity:0.98823529;fill-rule:nonzero;stroke:none;stroke-width:6.72706223;stroke-linejoin:miter;stroke-miterlimit:4;stroke-dashoffset:0;stroke-opacity:0.88235294"
       id="path50080" />
    <path
       d="M 423.61688,599.67035 L 439.43655,599.67035 L 439.43655,605.21288 L 423.61688,605.21288 L 423.61688,599.67035 z "
       style="fill:#eaf60e;fill-opacity:0.98823529;fill-rule:nonzero;stroke:none;stroke-width:6.72706223;stroke-linejoin:miter;stroke-miterlimit:4;stroke-dashoffset:0;stroke-opacity:0.88235294"
       id="path50082" />
    <path
       d="M 441.12389,599.67035 L 449.5819,599.67035 L 449.5819,605.10303 L 441.12389,605.10303 L 441.12389,599.67035 z "
       style="fill:#eaf60e;fill-opacity:0.98823529;fill-rule:nonzero;stroke:none;stroke-width:6.72706223;stroke-linejoin:miter;stroke-miterlimit:4;stroke-dashoffset:0;stroke-opacity:0.88235294"
       id="path50084" />
    <path
       d="M 361.08092,499.03001 L 362.27386,494.38587 L 359.888,491.41363 L 363.76501,488.25562 L 367.94025,490.88663 L 372.71195,488.06985 L 378.08013,490.85634 L 382.85182,488.25562 L 387.48031,491.67898 L 385.69349,494.60194 L 385.83415,499.03 L 361.08092,499.03001 z "
       style="fill:#eaf60e;fill-opacity:0.98823529;fill-rule:evenodd;stroke:none;stroke-width:1px;stroke-linecap:butt;stroke-linejoin:miter;stroke-opacity:1"
       id="path50099" />
    <path
       d="M 361.15023,508.32856 L 386.56671,508.32856 L 386.56671,510.94466 L 361.15023,510.94466 L 361.15023,508.32856 z "
       style="fill:#eaf60e;fill-opacity:0.98823529;fill-rule:nonzero;stroke:none;stroke-width:6.72706223;stroke-linejoin:miter;stroke-miterlimit:4;stroke-dashoffset:0;stroke-opacity:0.88235294"
       id="path53008" />
    <path
       d="M 361.05597,515.7227 L 372.51885,515.7227 L 372.51885,521.9353 L 361.05597,521.9353 L 361.05597,515.7227 z "
       style="fill:#eaf60e;fill-opacity:0.98823529;fill-rule:nonzero;stroke:none;stroke-width:6.72706223;stroke-linejoin:miter;stroke-miterlimit:4;stroke-dashoffset:0;stroke-opacity:0.88235294"
       id="path53010" />
    <path
       d="M 374.13744,515.57245 L 385.60033,515.57245 L 385.60033,521.78505 L 374.13744,521.78505 L 374.13744,515.57245 z "
       style="fill:#eaf60e;fill-opacity:0.98823529;fill-rule:nonzero;stroke:none;stroke-width:6.72706223;stroke-linejoin:miter;stroke-miterlimit:4;stroke-dashoffset:0;stroke-opacity:0.88235294"
       id="path53012" />
    <path
       d="M 371.01049,476.63944 L 377.22539,476.63944 L 377.47539,469.74309 L 374.30504,468.01679 L 370.88549,470.24309 L 371.01049,476.63944 z "
       style="fill:#eaf60e;fill-opacity:0.98823529;fill-rule:nonzero;stroke:none;stroke-width:6.72706223;stroke-linejoin:miter;stroke-miterlimit:4;stroke-dashoffset:0;stroke-opacity:0.88235294"
       id="path53014" />
    <path
       d="M 378.75319,477.09643 L 382.57532,477.22143 L 382.57532,475.52863 L 378.62819,470.90363 L 378.75319,477.09643 z "
       style="fill:#eaf60e;fill-opacity:0.98823529;fill-rule:nonzero;stroke:none;stroke-width:6.72706223;stroke-linejoin:miter;stroke-miterlimit:4;stroke-dashoffset:0;stroke-opacity:0.88235294"
       id="path53016" />
    <path
       d="M 369.47357,477.45262 L 365.65144,477.57762 L 365.65144,475.88482 L 369.59857,471.25982 L 369.47357,477.45262 z "
       style="fill:#eaf60e;fill-opacity:0.98823529;fill-rule:nonzero;stroke:none;stroke-width:6.72706223;stroke-linejoin:miter;stroke-miterlimit:4;stroke-dashoffset:0;stroke-opacity:0.88235294"
       id="path15844" />
    <path
       d="M 364.84842,481.78947 L 361.41732,481.88974 L 361.41732,480.53187 L 364.96063,476.82194 L 364.84842,481.78947 z "
       style="fill:#eaf60e;fill-opacity:0.98823529;fill-rule:nonzero;stroke:none;stroke-width:6.72706223;stroke-linejoin:miter;stroke-miterlimit:4;stroke-dashoffset:0;stroke-opacity:0.88235294"
       id="path15846" />
    <path
       d="M 383.21556,481.17081 L 386.64666,481.27108 L 386.64666,479.91321 L 383.10335,476.20328 L 383.21556,481.17081 z "
       style="fill:#eaf60e;fill-opacity:0.98823529;fill-rule:nonzero;stroke:none;stroke-width:6.72706223;stroke-linejoin:miter;stroke-miterlimit:4;stroke-dashoffset:0;stroke-opacity:0.88235294"
       id="path15848" />
    <path
       d="M 356.99936,701.01491 C 358.87228,698.8753 361.96024,698.01529 364.22778,696.88223 C 365.02928,697.02264 365.80892,697.28828 366.59913,697.4941 C 367.30358,697.62081 368.0203,697.61271 368.73282,697.63071 C 369.52888,697.63679 370.32497,697.63115 371.12103,697.62815 C 371.84281,697.62535 372.5646,697.62517 373.28638,697.62453 C 375.2442,697.05717 378.52453,694.87135 370.85972,699.26488 C 373.2874,697.68524 375.80965,696.2711 378.31625,694.81853 C 368.37053,700.42566 380.16988,693.83377 381.06858,693.3393 C 382.00497,692.96416 382.52889,693.22175 383.34687,693.61811 C 384.07186,694.00368 384.8784,694.21957 385.65164,694.48948 C 385.94362,694.58491 386.24935,694.61415 386.54821,694.67648 L 382.2692,697.65473 C 381.96347,697.57642 381.65021,697.52758 381.35201,697.4198 C 380.53737,697.13382 379.68521,696.90695 378.93996,696.4613 C 378.24767,696.3639 377.69928,696.10182 376.9747,696.56011 C 382.6526,693.16308 379.77343,694.92458 374.28908,698.07873 C 382.03064,693.584 377.46601,696.2224 375.71929,697.36223 C 373.32299,698.76979 371.63251,700.36129 369.05308,700.70051 C 368.33273,700.70091 367.61237,700.70124 366.89201,700.70216 C 366.0948,700.7022 365.29754,700.70499 364.50038,700.69414 C 363.7633,700.6594 363.02086,700.65683 362.30016,700.47187 C 361.55769,700.25639 360.81387,699.9631 360.03288,699.97996 C 361.07204,699.2964 362.01548,698.43834 363.15037,697.92929 C 362.6965,698.26866 362.18784,698.53284 361.84404,699.00818 L 356.99936,701.01491 z "
       style="opacity:0.98000004;fill:#ffffff;fill-opacity:1;fill-rule:nonzero;stroke:none;stroke-width:6.73228359;stroke-linecap:round;stroke-linejoin:round;stroke-miterlimit:4;stroke-dasharray:1.68307087, 1.68307087;stroke-dashoffset:10.09842414;stroke-opacity:1"
       id="path22052" />
    <path
       d="M 335.70326,664.99114 C 336.82285,664.37515 338.0596,664.17384 339.30083,663.9789 C 340.66563,663.99685 341.92737,663.64355 343.21149,663.23779 C 344.87957,662.53904 346.62676,662.19676 348.41208,661.97793 C 350.90903,661.63604 353.32864,662.07978 355.63748,663.02419 C 358.28828,664.19165 360.09907,666.34272 361.94275,668.47368 C 362.76802,669.65115 363.74713,669.8818 365.02851,670.18481 C 366.52343,670.15461 367.97711,669.78447 369.43168,669.47884 C 371.71715,669.11249 377.42781,665.59688 369.46252,670.1578 C 370.48464,669.54503 371.21316,668.62324 371.96211,667.7218 C 374.33998,665.5174 377.30084,664.111 380.42457,663.45777 C 382.50409,663.10893 384.55455,663.19204 386.6255,663.46261 C 388.10869,663.7653 389.29669,664.65035 390.55708,665.42319 C 391.29025,665.81832 392.11681,665.9357 392.91373,666.12774 C 394.12693,666.27794 395.35119,666.27901 396.57153,666.29463 C 397.72692,666.46368 398.70005,666.17893 399.77536,665.86574 C 401.07301,665.27179 402.35485,664.64678 403.65352,664.05497 C 405.15789,663.38408 406.66528,662.71973 408.15152,662.01374 C 408.94197,661.46094 409.80518,661.25506 410.71919,661.02409 C 412.22999,660.7212 413.78122,660.72641 415.31559,660.67903 C 416.61605,660.66339 417.87947,660.99514 419.13543,661.26994 L 414.82955,664.21714 C 413.62661,663.9582 412.42253,663.65156 411.17882,663.70348 C 409.64157,663.77061 408.08645,663.7884 406.5888,664.18527 C 405.72939,664.48429 404.8825,664.7597 404.10106,665.25272 C 402.61423,665.91587 401.11699,666.55636 399.64235,667.24692 C 398.32635,667.86129 397.0303,668.52764 395.67539,669.05211 C 394.57903,669.33336 393.51353,669.42963 392.37294,669.33599 C 391.12736,669.30453 389.87578,669.2933 388.6407,669.1116 C 387.79833,668.89221 386.93765,668.73021 386.19343,668.24404 C 385.00945,667.46555 383.8716,666.64617 382.4348,666.40558 C 380.39711,666.18782 378.37227,666.13033 376.34332,666.54589 C 370.29756,668.19776 380.44796,664.04018 376.74265,665.71564 C 375.95865,666.61228 375.27082,667.59333 374.28881,668.29826 C 371.28065,670.03541 368.71864,671.86592 365.35275,672.581 C 363.84609,672.88582 362.32354,673.29665 360.77436,673.17209 C 359.41655,672.81915 358.39811,672.30867 357.57636,671.09471 C 355.84563,668.95603 354.10118,666.87951 351.45749,665.83195 C 349.15289,664.99664 346.78081,664.6225 344.33483,665.02506 C 342.54733,665.29111 340.81709,665.73721 339.13194,666.39819 C 337.82721,666.7687 336.53484,667.02195 335.17173,667.07299 C 333.93258,667.33098 332.70907,667.60829 331.60593,668.26862 L 335.70326,664.99114 z "
       style="opacity:0.98000004;fill:#ffffff;fill-opacity:1;fill-rule:nonzero;stroke:none;stroke-width:6.73228359;stroke-linecap:round;stroke-linejoin:round;stroke-miterlimit:4;stroke-dasharray:1.68307087, 1.68307087;stroke-dashoffset:10.09842414;stroke-opacity:1"
       id="path22046" />
    <path
       d="M 339.99518,678.06179 C 342.11996,676.21415 344.57364,674.44503 347.38009,674.00545 C 348.41048,674.11309 349.23865,674.68723 350.10689,675.19357 C 350.88677,675.7825 351.71548,676.2904 352.54322,676.79298 C 353.2639,677.27286 354.07261,677.31923 354.8975,677.43717 C 355.88212,677.41546 356.81537,677.72093 357.76126,677.96058 C 358.71408,677.99603 359.66756,677.92293 360.6193,677.8791 C 361.42,677.84014 362.2216,677.83596 363.02297,677.82677 C 363.7527,677.96635 364.24887,677.62004 364.86966,677.36934 C 357.42915,682.21835 360.50681,679.96834 362.07994,678.67575 C 362.55296,678.23444 363.02708,677.79229 363.502,677.35229 C 363.95439,676.89095 364.44959,676.47638 364.93781,676.0536 C 367.30206,673.84554 369.20627,673.02497 371.92559,673.02339 C 372.72409,673.04966 373.49267,673.20116 374.26933,673.34817 C 374.98139,673.6314 375.44076,674.22505 375.95982,674.76011 C 376.52215,675.51194 377.22704,676.08166 377.91428,676.66605 C 379.36012,677.1238 380.8949,677.10095 382.39566,677.14922 C 383.92942,677.19816 385.31839,676.71808 386.73541,676.21212 C 393.16662,672.55465 375.1036,682.896 390.0155,674.33157 C 381.1411,679.68628 389.87134,673.74382 393.37295,673.05931 C 394.63689,672.89163 395.91273,672.89154 397.18499,672.87502 C 398.08451,672.76975 398.91479,672.93831 399.77635,673.13387 C 400.73979,673.3799 401.67088,673.72411 402.61668,674.02939 C 403.11588,674.23074 403.64968,674.3139 404.16506,674.45585 L 399.88136,677.41176 C 399.36357,677.25451 398.83354,677.13428 398.32695,676.93971 C 397.37729,676.6414 396.43094,676.33766 395.46643,676.09032 C 394.64269,675.97131 393.82815,675.86427 392.988,675.92971 C 391.73774,675.94711 390.48137,675.95503 389.24633,676.17713 C 382.38992,677.98983 401.23775,670.02628 385.97688,677.59067 C 394.96477,672.38446 385.80077,677.86363 382.6708,679.38806 C 381.21876,679.8529 379.77852,680.25557 378.23043,680.15733 C 376.65511,680.08641 375.03097,680.10806 373.55049,679.49726 C 372.84196,678.85697 372.11074,678.24424 371.50617,677.4755 C 371.02877,677.01652 370.62499,676.50244 369.95732,676.32469 C 369.20632,676.22492 368.45585,676.08402 367.69322,676.06641 C 365.905,676.26404 358.79681,678.5193 369.79291,674.11302 C 369.30582,674.51673 368.77545,674.89136 368.35732,675.3694 C 367.89099,675.81484 367.43135,676.27138 366.90977,676.65658 C 365.07119,678.45445 363.66368,679.44789 360.78363,680.64405 C 360.12353,680.77735 359.49601,681.02434 358.79389,680.90454 C 358.00143,680.91565 357.2088,680.92258 356.41697,680.96004 C 355.43917,680.99948 354.45194,681.09233 353.48086,680.92723 C 352.54438,680.69493 351.62144,680.44522 350.64688,680.45427 C 349.78814,680.28009 348.93921,680.16965 348.18907,679.66186 C 347.36512,679.12366 346.54869,678.56987 345.7346,678.01209 C 344.9199,677.5783 344.17799,677.06011 343.21106,677.11435 C 344.18418,676.45392 345.11363,675.72408 346.13041,675.13308 C 346.5825,674.87029 344.35712,676.23781 344.82252,675.99937 L 339.99518,678.06179 z "
       style="opacity:0.98000004;fill:#ffffff;fill-opacity:1;fill-rule:nonzero;stroke:none;stroke-width:6.73228359;stroke-linecap:round;stroke-linejoin:round;stroke-miterlimit:4;stroke-dasharray:1.68307087, 1.68307087;stroke-dashoffset:10.09842414;stroke-opacity:1"
       id="path22048" />
    <path
       d="M 354.44158,686.43658 C 355.59077,685.90526 356.68839,685.93288 357.90398,686.07137 C 359.11624,686.43991 360.20591,687.09961 361.36603,687.60087 C 362.82948,688.06066 364.3715,688.05133 365.88859,688.10694 C 367.50987,688.19367 369.07881,688.14046 370.66168,687.82191 C 374.73672,685.42603 365.47764,691.68301 369.6791,688.12095 C 386.88077,677.56437 361.58743,692.3176 376.60142,683.8291 C 377.59071,683.4176 378.46338,683.61913 379.45944,683.85687 C 380.69197,684.39106 381.94398,684.78403 383.25252,685.06776 C 384.52702,685.38767 385.806,685.6526 387.105,685.84709 C 388.16929,685.9676 389.24074,685.95854 390.30975,685.97179 C 393.38324,685.89688 384.63696,689.8702 387.94561,687.1889 C 390.02198,685.28647 392.22637,684.20559 394.76974,682.72338 C 394.98644,682.52681 395.21124,682.70787 395.43199,682.70011 L 391.18947,685.79734 C 391.03013,685.86693 390.84596,685.87729 390.71146,686.00613 C 398.50375,681.44755 394.35936,683.67271 392.78242,685.25543 C 390.8759,686.9223 388.70108,688.92186 386.09406,689.02856 C 385.01637,688.99906 383.93594,688.99083 382.8664,688.83517 C 381.57215,688.60232 380.2933,688.30808 379.00922,688.02396 C 377.70718,687.69464 376.45954,687.24826 375.19265,686.80339 C 374.23394,686.67187 373.4104,686.60124 372.5203,687.08205 C 373.8845,686.28862 377.99337,683.93703 376.61289,684.70177 C 361.59485,693.02125 380.28725,682.38109 374.4685,686.1535 C 372.21413,688.26802 369.4945,689.94852 366.55863,690.94031 C 364.95636,691.15285 363.35942,691.19959 361.73823,691.10445 C 360.16112,691.03972 358.55896,691.04096 357.05943,690.47829 C 355.94811,689.96684 354.87568,689.32186 353.67282,689.05649 C 352.48958,689.02679 351.41,689.1154 350.34426,689.71405 L 354.44158,686.43658 z "
       style="opacity:0.98000004;fill:#ffffff;fill-opacity:1;fill-rule:nonzero;stroke:none;stroke-width:6.73228359;stroke-linecap:round;stroke-linejoin:round;stroke-miterlimit:4;stroke-dasharray:1.68307087, 1.68307087;stroke-dashoffset:10.09842414;stroke-opacity:1"
       id="path22050" />
    <path
       d="M 307.84453,658.21281 C 310.53897,655.4407 314.13835,653.46919 317.70593,652.03926 C 319.97635,651.24673 322.20411,651.75532 324.44135,652.32535 C 326.38264,652.90329 327.67943,654.27101 329.03641,655.67942 C 330.02501,656.95612 331.09601,658.09528 332.42733,658.99157 C 333.07445,659.2682 333.75819,659.15732 334.43784,659.14575 C 335.66528,659.09456 336.78843,658.54923 337.91857,658.11718 C 342.37921,655.49403 332.9307,661.76322 337.18064,658.19987 C 337.87026,657.57456 338.64621,657.06064 339.40698,656.53091 C 341.75953,654.98417 344.16975,653.50846 346.7691,652.43196 C 348.06336,651.86429 349.43247,651.58986 350.82071,651.39277 C 351.96989,651.18207 352.98787,651.47333 354.0571,651.8503 C 355.08476,652.38021 356.11601,652.82452 357.22038,653.1597 C 358.4515,653.34433 359.60139,653.80317 360.73045,654.30653 C 361.51364,654.70451 362.35718,654.74832 363.20883,654.83545 C 364.07415,654.9873 364.71015,654.64154 365.46121,654.3063 C 368.81481,653.71469 359.55872,658.03499 363.70101,655.16579 C 366.37477,653.4571 369.00885,651.75695 372.03023,650.83666 C 373.04096,650.52662 374.05826,650.65248 375.06895,650.71328 C 376.52255,651.15613 377.61962,652.24406 378.76181,653.19609 C 379.71617,654.01322 380.84704,654.21638 382.01929,654.46599 C 383.23127,654.55812 384.44817,654.53114 385.66248,654.52365 C 387.10625,654.49809 388.54952,654.52535 389.99111,654.56923 C 391.16058,654.79931 392.33559,654.97077 393.5159,655.12688 C 394.62553,655.26061 395.63266,654.79716 396.67519,654.48774 C 398.03853,654.02936 399.45221,653.75909 400.86006,653.48286 C 402.84963,653.17539 404.87841,653.19681 406.88773,653.15014 C 408.52186,653.09422 410.10088,653.44275 411.66974,653.84293 C 412.61817,654.10425 413.60234,654.09744 414.57601,654.14391 C 415.6569,654.16373 416.73798,654.1539 417.81895,654.1507 C 418.79165,654.25281 419.54561,653.80729 420.37322,653.42333 C 418.99817,654.21041 417.62976,655.00919 416.24807,655.78456 C 415.79963,656.03622 417.09443,655.19927 417.53359,654.93175 C 419.50732,653.72947 421.53433,652.61689 423.53824,651.46562 C 423.90457,651.26424 424.99928,650.65253 424.63721,650.86147 C 416.13816,655.76621 427.44006,649.104 430.23846,648.26344 C 431.97717,647.75346 433.75846,647.53638 435.54823,647.5517 C 436.78999,647.8033 437.60333,648.55278 438.4337,649.43846 C 439.03312,650.52132 439.81678,650.87724 440.94645,651.17201 C 442.74813,651.39182 444.56806,651.35809 446.37961,651.36411 C 447.89577,651.38605 449.39595,651.38784 450.8858,651.1434 C 451.98246,650.84124 453.01155,650.39281 454.03245,649.89773 C 448.71105,652.97568 455.36777,648.948 459.64296,646.75767 C 460.91124,645.96699 462.25076,645.60015 463.6694,645.32597 C 464.62978,645.46789 465.27377,646.09227 466.011,646.65336 C 466.67786,647.48804 467.33616,647.45638 468.29676,647.57853 C 470.63444,647.40628 472.96231,647.12592 475.28789,646.83583 C 476.76041,646.69499 478.20726,646.39066 479.64806,646.06802 L 475.53635,649.19222 C 474.11164,649.47378 472.68331,649.73686 471.23355,649.85769 C 468.85545,650.14379 466.47322,650.44581 464.08441,650.60849 C 463.06444,650.44762 462.29579,650.252 461.59562,649.42288 C 460.91507,648.93891 460.3617,648.40382 459.46773,648.42408 C 458.14597,648.7962 456.86895,649.24404 455.66208,649.94106 C 448.78326,653.56782 463.0996,645.76075 450.00961,653.10252 C 448.95096,653.57536 447.89165,654.05965 446.74225,654.27315 C 445.24535,654.39511 443.74605,654.38933 442.24208,654.3688 C 440.39049,654.35481 438.52541,654.39254 436.68935,654.11923 C 435.51931,653.70864 434.6261,653.26355 433.99149,652.11672 C 433.21658,651.34578 432.4789,650.69826 431.33821,650.56431 C 429.6106,650.63058 427.89169,650.83979 426.23066,651.36744 C 416.90502,654.47584 435.16865,646.88281 419.57407,654.66814 C 420.73131,653.99572 421.88424,653.31584 423.04577,652.65088 C 425.32004,651.34891 414.06248,658.05262 416.30936,656.70393 C 415.42428,656.99299 414.57408,657.32025 413.61046,657.20962 C 412.52824,657.20811 411.44574,657.21338 410.36384,657.1834 C 409.36141,657.13231 408.35383,657.092 407.38751,656.78818 C 405.88302,656.38677 404.36333,656.07141 402.79224,656.1398 C 400.76664,656.18396 398.72191,656.20302 396.73008,656.61434 C 395.32968,656.88386 393.93302,657.17458 392.58399,657.64854 C 391.48661,657.98292 390.43433,658.34027 389.26956,658.13699 C 388.11279,657.95363 386.96173,657.73629 385.80165,657.57746 C 384.35866,657.54778 382.91577,657.54689 381.47194,657.57134 C 380.23544,657.57095 378.99198,657.6035 377.76201,657.4583 C 376.55536,657.11318 375.37632,656.81306 374.4085,655.93236 C 373.30646,655.02264 372.25713,653.98769 370.80655,653.70524 C 369.83763,653.71932 368.8638,653.6836 367.92388,654.00141 C 363.36703,655.611 367.79164,654.89547 368.52641,653.30312 C 366.24285,654.8469 363.86369,656.31085 361.38693,657.55927 C 360.57257,657.79076 359.83327,658.05211 358.96097,657.86879 C 358.07763,657.72775 357.20192,657.62823 356.40061,657.18198 C 355.28626,656.69849 354.15244,656.29094 352.94712,656.08953 C 351.85297,655.71071 350.81137,655.24066 349.75494,654.76667 C 348.71502,654.51365 347.75389,654.23424 346.66359,654.49881 C 345.3125,654.73703 343.98219,655.04539 342.72235,655.61231 C 338.29501,657.74535 348.03168,652.42312 344.27715,654.62154 C 343.48975,655.13118 342.71335,655.65505 341.98136,656.24751 C 339.57217,658.3396 336.8272,660.04006 333.88497,661.28363 C 332.69133,661.72284 331.50815,662.24584 330.21157,662.23764 C 329.45477,662.18281 328.72653,662.26745 328.05535,661.80859 C 326.77394,660.79525 325.68528,659.61485 324.67388,658.32505 C 323.35961,656.99304 322.09589,655.73472 320.22592,655.22263 C 318.04675,654.69273 315.91584,654.27515 313.74371,655.16565 C 311.93282,655.95961 317.86257,652.2494 312.62645,656.08121 L 307.84453,658.21281 z "
       style="opacity:0.98000004;fill:#ffffff;fill-opacity:1;fill-rule:nonzero;stroke:none;stroke-width:6.73228359;stroke-linecap:round;stroke-linejoin:round;stroke-miterlimit:4;stroke-dasharray:1.68307087, 1.68307087;stroke-dashoffset:10.09842414;stroke-opacity:1"
       id="path22054" />
    <path
       d="M 271.75937,628.56432 C 272.25287,627.78752 272.93971,627.20414 273.6098,626.59217 C 275.49084,625.01447 277.84188,624.03496 279.94594,622.87124 C 280.63296,622.62943 281.34724,622.73589 282.04254,622.73266 C 282.66418,622.91485 283.27809,623.14473 283.89075,623.35566 C 284.41021,623.68868 284.8614,624.12876 285.32319,624.53214 C 285.88556,624.73452 286.4777,624.85455 287.06088,624.99369 C 287.77739,625.13065 288.50773,625.12511 289.23345,625.14848 C 290.29551,625.20491 291.34802,625.15052 292.39653,625.05025 C 293.6561,624.68602 294.93717,624.42284 296.22856,624.20682 C 297.26104,624.10019 298.11318,623.63793 299.01412,623.17992 C 292.84611,626.71562 296.45504,624.64101 301.67632,621.68965 C 302.4227,621.17771 303.2623,621.09439 304.12409,620.95606 C 304.90761,620.84781 305.69192,620.91916 306.46924,620.96191 C 307.36139,621.08618 308.09488,621.59323 308.86802,622.00651 C 309.69579,622.48487 310.28061,623.23324 310.90914,623.93093 C 311.59208,624.80709 312.30124,624.78529 313.27328,624.89077 C 314.46549,624.70582 315.66632,624.6014 316.86881,624.51744 C 318.13946,624.40194 319.36096,624.74007 320.57121,625.07685 C 321.40679,625.52237 322.11902,625.24531 322.90997,625.16017 C 323.86777,624.65674 324.838,624.17317 325.80709,623.68876 C 326.89469,623.02788 328.05595,622.57739 329.23911,622.14287 C 330.71335,621.93575 337.09663,618.35529 327.05886,623.512 C 328.95618,621.32897 331.52974,620.32869 334.07098,618.87945 C 334.83838,618.49124 335.6508,618.31915 336.47978,618.14195 C 337.46176,617.91605 338.32246,618.19837 339.24949,618.38945 C 340.38567,618.93655 341.16033,619.96284 341.99953,620.87171 C 342.94373,621.95287 344.21072,622.49571 345.50588,623.01948 C 346.43464,623.35489 347.41188,623.35269 348.38218,623.3989 C 349.23066,623.47101 350.05427,623.35287 350.88913,623.25658 C 351.86651,622.94877 352.80459,622.53312 353.76809,622.1811 C 353.35708,622.6531 356.01458,621.08065 355.47251,621.39349 C 354.11172,622.16854 352.75092,622.94359 351.39013,623.71865 C 351.51351,623.63592 351.63689,623.5532 351.76027,623.47047 C 353.78773,621.86546 356.27908,620.81186 358.48985,619.63887 C 359.512,619.48333 360.54872,619.50221 361.57943,619.48559 C 362.72992,619.37646 363.26705,619.98908 364.05906,620.65974 C 364.64227,621.42302 365.4175,621.40771 366.29093,621.5647 C 367.48508,621.65428 368.68351,621.63778 369.87999,621.63526 C 370.77244,621.62593 371.66491,621.61953 372.55739,621.6135 C 373.36686,621.64339 374.1741,621.5924 374.97926,621.55799 C 377.16087,621.29376 381.13757,618.60068 373.23772,623.10651 C 373.85527,622.657 374.34654,622.04834 374.8643,621.48978 C 377.56332,619.68266 380.45127,618.16426 383.30994,616.62191 C 385.31254,615.55892 387.36037,614.69343 389.51416,614.00236 C 391.03136,613.58901 392.59652,613.52829 394.15706,613.47552 C 395.40828,613.58053 396.49573,614.13542 397.60042,614.67825 C 398.6178,615.24687 399.58192,615.90109 400.57588,616.50933 C 401.33945,616.77642 402.04408,617.10802 402.76273,617.46544 C 403.61193,618.0816 404.37748,618.80447 405.15697,619.50352 C 405.79715,620.21068 406.56806,620.4734 407.42342,620.77791 C 408.49179,621.00457 409.5268,620.86076 410.58188,620.68634 C 411.48808,620.49332 412.30556,620.03322 413.14378,619.65345 C 414.10632,619.29334 422.41331,614.66172 410.80075,620.99665 C 413.7596,618.87786 415.62893,617.92491 418.8166,617.5112 C 420.46005,617.39278 422.10723,617.39236 423.75112,617.43193 C 424.89339,617.57862 426.04029,617.64991 427.18973,617.70413 C 428.67636,617.60658 429.85222,618.04565 431.0682,618.77742 C 431.9193,619.64961 432.57907,620.68923 433.304,621.66407 C 433.97021,622.27829 434.77691,622.24229 435.62475,622.33159 C 436.93427,622.21645 438.19169,621.78301 439.43583,621.38372 C 443.5942,619.25664 433.94087,624.85371 438.0987,622.1716 C 440.34041,620.32352 442.97559,619.0687 445.48746,617.6408 C 446.46606,617.17382 447.53544,617.13866 448.5914,617.03659 C 449.72749,616.94831 450.48923,617.60123 451.38552,618.1785 C 452.09958,618.8691 452.92104,619.09257 453.82764,619.36719 C 454.76027,619.47639 455.70381,619.51454 456.63784,619.56996 C 457.37092,619.72275 458.11605,619.76511 458.86007,619.82013 C 459.63826,619.94335 460.35298,619.75412 461.09371,619.58725 C 463.9488,618.20134 460.12943,620.16289 459.222,620.66021 C 459.96317,620.28886 460.07552,619.67355 460.39621,619.02352 C 460.41145,618.9164 460.4267,618.80928 460.44194,618.70216 L 465.13227,616.37583 C 465.123,616.49457 465.11374,616.6133 465.10448,616.73204 C 464.90855,617.54434 464.79875,618.21943 464.06498,618.75226 C 461.73893,620.14925 459.55008,621.91145 456.94879,622.77394 C 456.16922,622.85949 455.39651,622.98076 454.60731,622.86854 C 453.86294,622.79183 453.11957,622.71561 452.38078,622.5916 C 451.43341,622.54241 450.47878,622.52274 449.54634,622.32954 C 448.62318,621.97313 447.73291,621.67828 446.99248,620.9644 C 446.13494,620.46964 445.4599,619.95732 444.40331,620.12835 C 443.38003,620.27463 442.35567,620.3562 441.43284,620.88369 C 446.83382,617.69022 446.12611,617.81204 442.92566,620.2509 C 440.54951,621.90481 438.09726,623.54298 435.3637,624.54933 C 434.06663,624.92705 432.75823,625.39001 431.39047,625.3598 C 430.41917,625.18581 429.54359,625.14293 428.83956,624.34607 C 428.16269,623.38633 427.549,622.35663 426.69344,621.54398 C 425.51624,620.94968 424.35121,620.64044 422.99139,620.7292 C 421.84036,620.67014 420.69401,620.58245 419.54895,620.44721 C 417.92589,620.41665 416.29735,620.40797 414.6807,620.59473 C 412.35711,621.00789 407.69178,623.13988 415.6604,619.0882 C 413.48636,620.4004 411.41561,621.93075 409.0576,622.90232 C 408.20637,623.27485 407.36702,623.68931 406.43475,623.81617 C 405.32297,623.93435 404.21807,624.01177 403.11812,623.72555 C 402.24818,623.33329 401.40862,622.99027 400.74059,622.25769 C 399.98408,621.57314 399.25045,620.85054 398.38691,620.29887 C 397.65307,619.99286 396.89784,619.71706 396.19911,619.33235 C 395.23479,618.7158 394.29571,618.05424 393.2787,617.52619 C 392.21722,617.03953 391.17477,616.5367 389.97775,616.52935 C 388.46017,616.59487 386.94052,616.67977 385.47406,617.12012 C 383.35868,617.85298 381.33061,618.74486 379.35414,619.80754 C 373.9369,622.75421 383.8251,617.20288 379.71631,619.54275 C 379.14534,620.06861 378.57455,620.58253 378.10448,621.21944 C 375.52643,622.71004 373.64184,624.38667 370.7944,624.65403 C 369.97316,624.6726 369.1514,624.70252 368.32911,624.68744 C 367.44641,624.688 366.56372,624.68922 365.68103,624.68642 C 364.47052,624.67989 363.25712,624.68614 362.05132,624.56319 C 361.06875,624.36623 360.22387,624.20846 359.58831,623.35706 C 358.86015,622.81655 358.37431,622.40916 357.37344,622.54783 C 356.36406,622.57984 355.33928,622.54648 354.3577,622.82548 C 362.35575,617.9623 358.60348,620.06072 356.61494,621.56728 C 354.34646,622.90903 352.18126,624.50898 349.67723,625.3886 C 348.69848,625.74946 347.74165,626.20144 346.71077,626.38961 C 345.85906,626.44042 345.00683,626.51468 344.15053,626.45034 C 343.1505,626.36029 342.14594,626.31593 341.20813,625.905 C 339.88156,625.30295 338.57222,624.68733 337.59245,623.56319 C 336.78624,622.71122 336.05557,621.75215 334.93715,621.3087 C 334.06106,621.21522 333.19522,621.04494 332.30531,621.292 C 331.52193,621.52146 330.73498,621.73461 330.01248,622.13511 C 337.89424,617.54705 333.23502,619.86564 331.86294,621.51603 C 329.75348,622.84111 327.73095,624.87249 325.11988,625.3308 C 323.98167,625.80956 322.85554,626.30468 321.7758,626.91448 C 320.78618,627.41501 319.81424,627.96868 318.77863,628.36629 C 317.92476,628.36609 317.11098,628.36378 316.28921,628.0122 C 315.10793,627.70853 313.92942,627.43166 312.69769,627.59061 C 311.48561,627.6947 310.27862,627.83786 309.06856,627.95879 C 308.03791,627.6934 307.15461,627.57659 306.45371,626.62995 C 305.85097,625.97656 305.29422,625.27307 304.49692,624.84104 C 303.75665,624.4779 303.05545,624.03404 302.20284,623.98769 C 301.44948,623.98694 300.69253,623.96194 299.94427,624.08248 C 299.12829,624.29141 298.32601,624.46557 297.6061,624.94492 C 298.66271,624.31824 299.7127,623.68023 300.77594,623.06486 C 302.71492,621.94264 296.95726,625.41701 294.96577,626.44315 C 294.02276,626.82579 293.10936,627.24386 292.07125,627.32745 C 290.78673,627.561 289.51999,627.86252 288.24756,628.15387 C 287.16717,628.20801 286.08599,628.24252 285.00223,628.20747 C 284.25041,628.16819 283.49346,628.16335 282.75832,627.97483 C 282.122,627.80701 281.45078,627.7092 280.8913,627.34215 C 280.46469,626.96064 280.06727,626.51764 279.53905,626.2783 C 278.95836,626.08499 278.37947,625.85252 277.77147,625.77093 C 277.1158,625.83711 276.44375,625.80723 275.82975,626.10454 C 276.67766,625.60584 281.27069,622.69196 278.45265,624.65868 C 277.77387,625.21537 277.02191,625.71162 276.58671,626.50189 L 271.75937,628.56432 z "
       style="opacity:0.98000004;fill:#ffffff;fill-opacity:1;fill-rule:nonzero;stroke:none;stroke-width:6.73228359;stroke-linecap:round;stroke-linejoin:round;stroke-miterlimit:4;stroke-dasharray:1.68307087, 1.68307087;stroke-dashoffset:10.09842414;stroke-opacity:1"
       id="path22081" />
    <path
       d="M 265.80609,638.43003 C 268.6093,636.35282 271.18349,635.32205 274.35396,634.45092 C 275.63766,634.12524 276.94737,634.04556 278.25962,634.05168 C 279.40925,634.14011 280.31762,634.74584 281.28224,635.28655 C 281.97315,635.72179 282.5523,636.29642 283.15464,636.83112 C 283.64782,637.47685 284.16798,638.10111 284.68605,638.72633 C 285.19346,639.40118 285.81606,639.44951 286.58012,639.61121 C 287.54849,639.81843 288.2794,639.49563 289.15654,639.16374 C 288.84774,639.3158 290.39334,638.45325 290.08453,638.63154 C 277.85167,645.69403 299.04684,633.52343 287.45361,640.10962 C 288.41555,639.52375 289.34212,638.88709 290.26957,638.2501 C 290.94024,637.73424 291.58561,637.1866 292.24153,636.65224 C 294.15762,634.90329 296.3204,633.93142 298.65108,632.58131 C 299.41198,632.23945 300.22775,632.29785 301.02819,632.28346 C 301.81876,632.54522 302.18535,633.25039 302.6564,633.8885 C 303.11473,634.57697 303.76897,634.97128 304.44461,635.39937 C 305.12713,635.72332 305.86707,635.70884 306.60152,635.75864 C 307.6536,635.78369 308.7061,635.77258 309.75835,635.76852 C 312.3282,635.21411 315.2663,633.20412 308.0545,637.0504 C 309.38268,635.97404 310.81209,635.05047 312.26291,634.15258 C 315.16421,632.07425 317.33821,630.97587 320.55227,630.51149 C 321.64456,630.3273 322.1044,630.77159 322.85977,631.39822 C 323.27689,632.37301 323.81915,633.16339 324.54326,633.92013 C 325.57177,634.84207 326.80248,635.25201 328.10482,635.59113 C 329.04806,635.84614 329.99634,635.72491 330.91938,635.64686 C 331.03636,635.59974 331.15335,635.55261 331.27033,635.50549 C 329.87163,636.2886 328.48211,637.08833 327.07423,637.85481 C 326.59531,638.11554 327.92938,637.17797 328.35369,636.83548 C 326.01229,637.74371 337.15076,631.98781 334.98447,633.25833 C 333.62809,634.05384 332.25154,634.81446 330.88508,635.59253 C 333.20374,634.0697 335.65525,632.75302 338.06111,631.38291 C 338.94969,630.93995 339.90753,630.90013 340.87159,630.81213 C 342.02073,630.68888 343.02426,630.92487 344.06029,631.34029 C 345.18475,632.22307 346.27652,633.05486 347.54315,633.69564 C 348.62408,634.03459 349.74953,634.0086 350.86614,634.02981 C 351.7601,634.22171 352.65243,634.41254 353.55336,634.57835 C 354.61351,634.74033 355.64194,634.69239 356.68615,634.52179 C 361.32215,632.27569 351.56907,637.75398 355.64487,635.2319 C 358.04479,633.55266 360.49289,632.0911 363.25195,631.25021 C 364.45454,631.41384 364.90754,632.27552 365.55956,633.1891 C 366.16138,633.87608 366.91727,633.86038 367.75769,633.98015 C 368.74625,633.97571 369.72263,634.1212 370.70174,634.24057 C 371.44527,634.32288 372.19336,634.32422 372.94012,634.3388 C 373.64481,634.34311 374.34951,634.34048 375.0542,634.33983 C 376.40327,634.41718 377.57203,633.88634 378.7742,633.36474 C 371.77795,638.04633 376.69995,634.23265 378.08482,632.47347 C 378.9109,631.28853 379.86062,630.19624 380.78505,629.08864 C 383.75941,626.6325 387.23562,624.67776 390.9274,623.51666 C 393.17864,622.89319 395.50919,622.80563 397.82542,622.74972 C 399.58895,622.85071 400.38495,623.52824 401.27316,624.93822 C 401.75432,626.37129 402.20849,627.78433 402.90016,629.12088 C 403.72839,630.1887 405.03343,630.66285 406.20185,631.27542 C 407.45823,631.89724 408.63987,632.65171 409.79842,633.43574 C 410.65037,634.18716 411.51602,634.31703 412.53715,634.43484 C 413.38835,634.07478 414.20988,633.63587 415.04003,633.22602 C 416.02411,632.68143 417.03138,632.18725 418.03195,631.67835 C 419.05371,631.33858 420.09137,631.0548 421.12797,630.76605 C 421.88478,630.69256 422.56757,630.39874 423.27642,630.1802 C 424.10534,629.63286 425.11783,629.60571 426.07875,629.48532 C 427.34833,629.27986 428.25569,629.80845 429.28569,630.45173 C 430.21724,631.12006 431.2571,631.53276 432.29906,631.96616 C 433.22113,632.28913 434.0892,632.14973 434.99245,632.03256 C 432.72264,632.04787 430.44284,636.31684 432.47564,632.42077 C 434.11712,629.68907 437.40989,628.78016 440.09892,627.32042 C 442.16986,626.50623 444.33981,626.05074 446.53734,625.75461 C 448.13297,625.45408 449.32578,625.43656 450.69921,626.23276 C 451.52078,626.91181 452.484,627.37375 453.40923,627.88991 C 454.49308,628.61753 455.58142,629.32328 456.72648,629.94695 C 457.50846,630.47065 458.26645,630.2643 459.05745,630.25137 C 459.75818,629.90503 460.49623,629.71183 461.24548,629.51079 C 462.34819,629.22648 463.32852,628.63084 464.31191,628.07783 C 460.01032,630.3334 459.98077,631.04329 462.98657,628.43824 C 463.10188,628.33007 463.21719,628.2219 463.3325,628.11373 L 468.15354,626.1435 C 468.0327,626.25009 467.91186,626.35669 467.79102,626.46328 C 465.56356,628.48197 463.08902,630.05654 460.29955,631.32446 C 459.26719,631.86451 458.24464,632.44852 457.08843,632.68117 C 456.35631,632.93034 455.63282,633.20708 454.89234,633.42985 C 454.01652,633.34574 453.17423,633.27933 452.38885,632.78813 C 451.26298,632.12597 450.17785,631.40247 449.05938,630.72711 C 448.11555,630.20965 447.16043,629.71077 446.32191,629.02652 C 445.03179,628.64739 443.87241,628.44454 442.45928,628.80537 C 440.27784,629.1752 438.10486,629.58951 436.06949,630.50356 C 435.80889,630.62114 435.5483,630.73872 435.2877,630.8563 C 436.55853,630.10958 437.82936,629.36285 439.1002,628.61613 C 439.82215,628.18414 436.38154,630.09692 437.20262,630.28039 C 435.9091,633.02594 434.36873,634.14139 430.8377,635.20635 C 429.87758,635.20107 428.92178,635.23337 427.99509,634.88095 C 426.91971,634.43031 425.89333,633.89756 424.91637,633.25277 C 423.93023,632.70186 423.07813,632.34944 421.91521,632.58924 C 420.95068,632.7475 420.01298,632.91002 419.15912,633.41985 C 418.43997,633.59038 417.72267,633.7782 417.00121,633.94514 C 415.9782,634.22835 414.94076,634.48273 413.96825,634.91692 C 412.96701,635.43102 411.97472,635.9613 410.97498,636.47815 C 410.11946,636.89327 409.27985,637.40872 408.32132,637.51648 C 407.28221,637.23446 406.3044,636.97754 405.44699,636.22995 C 404.29677,635.45946 403.12702,634.71586 401.89274,634.08484 C 400.62832,633.44143 399.25876,632.93277 398.42579,631.72204 C 397.75631,630.36336 397.26399,628.94994 396.7935,627.50296 C 395.98605,626.28381 395.22318,625.79202 393.68105,625.7554 C 391.40921,625.82063 389.1242,625.92936 386.93495,626.61633 C 380.96373,628.67876 391.19435,623.79748 385.55238,627.08667 C 384.60597,628.16769 383.66039,629.25652 382.80981,630.41746 C 380.66621,633.3735 378.33608,634.93898 374.75505,636.55776 C 373.47238,637.03323 372.22161,637.50245 370.8208,637.4163 C 370.11445,637.41568 369.40804,637.42011 368.70176,637.40719 C 367.94814,637.37882 367.19305,637.36392 366.44475,637.25797 C 365.46973,637.13704 364.49713,637.01959 363.51345,636.99676 C 362.55414,636.77635 361.71341,636.70011 361.07491,635.84204 C 360.48624,635.02546 360.20923,634.35098 359.10817,634.41896 C 357.29193,635.11138 353.63944,636.88035 361.08014,632.98763 C 360.87149,633.11655 360.66284,633.24548 360.45418,633.3744 C 357.91632,634.96393 355.44478,636.87733 352.53633,637.65357 C 351.45531,637.73196 350.37807,637.75675 349.30037,637.57559 C 348.42054,637.39367 347.54009,637.16586 346.64493,637.09017 C 345.49335,637.01998 344.33407,636.99561 343.24369,636.55776 C 342.00758,635.85573 340.91125,634.99899 339.73039,634.20395 C 338.72001,633.98481 337.73962,633.70945 336.67469,633.90847 C 335.75222,634.04919 334.83822,634.14127 334.00945,634.62702 C 333.84397,634.71577 333.6785,634.80452 333.51302,634.89328 C 334.82263,634.13385 336.13223,633.37442 337.44184,632.61499 C 336.87523,632.97908 336.31766,633.35376 335.75343,633.72044 C 333.7539,634.86393 332.05957,635.93349 330.09899,636.89018 C 329.79381,637.0391 328.88393,637.49417 329.17524,637.31968 C 330.51326,636.51823 331.87057,635.74945 333.21823,634.96433 C 331.1621,636.33191 329.26731,638.24924 326.75644,638.79893 C 325.77826,638.7876 324.79632,638.81433 323.84081,638.53358 C 322.49416,638.10748 321.20877,637.60788 320.13816,636.64105 C 319.41076,635.86339 318.80929,635.07596 318.36871,634.09188 C 317.68869,633.7537 317.28796,633.34048 316.39104,633.62057 C 314.21336,634.0043 309.48814,636.14521 317.07637,632.30272 C 315.61337,633.17477 314.14964,634.04314 312.84246,635.14564 C 310.51587,636.55556 308.38085,638.74647 305.55304,638.82583 C 304.49195,638.82585 303.43049,638.8362 302.36974,638.80274 C 301.56804,638.7086 300.77651,638.68534 300.06182,638.24796 C 299.36875,637.75829 298.67755,637.30218 298.18712,636.58179 C 297.76337,636.0267 297.4961,635.45891 296.77716,635.33532 C 296.01605,635.41851 295.25616,635.4371 294.58416,635.86654 C 302.37799,631.32952 298.63441,633.27427 297.08417,634.68866 C 296.41056,635.22075 295.76636,635.77932 295.11599,636.34099 C 294.19295,636.99902 293.25166,637.61861 292.30171,638.23797 C 278.85301,646.10203 299.12026,634.37725 285.06221,642.37994 C 284.12854,642.59609 283.2811,642.87108 282.30074,642.61157 C 281.47065,642.34266 280.73227,642.18151 280.20561,641.3989 C 279.69077,640.78543 279.17541,640.17155 278.67742,639.54372 C 278.10088,639.03989 277.53618,638.51171 276.88954,638.08868 C 275.97595,637.61198 275.1195,637.09076 274.0387,637.09233 C 272.77358,637.16738 271.50285,637.21466 270.27437,637.58083 C 268.09126,638.24472 262.21937,640.77752 270.68834,636.51975 L 265.80609,638.43003 z "
       style="opacity:0.98000004;fill:#ffffff;fill-opacity:1;fill-rule:nonzero;stroke:none;stroke-width:6.73228359;stroke-linecap:round;stroke-linejoin:round;stroke-miterlimit:4;stroke-dasharray:1.68307087, 1.68307087;stroke-dashoffset:10.09842414;stroke-opacity:1"
       id="path22083" />
    <path
       d="M 262.9406,649.41259 C 265.05114,647.88133 267.4955,646.75265 269.73872,645.53139 C 270.511,645.22385 271.23881,645.42414 272.01499,645.48498 C 272.75395,645.6251 273.4742,645.85757 274.20071,646.05582 C 275.03288,646.31868 275.65785,646.91309 276.32678,647.43834 C 277.14736,648.18482 277.92063,648.98095 278.69585,649.77368 C 279.35373,650.32824 280.0907,650.72287 280.83729,651.11203 C 281.82085,651.35642 282.82868,651.18273 283.82354,651.0988 C 286.0785,650.85314 289.37392,648.50622 281.96275,652.73761 C 282.91475,652.02996 283.81977,651.26885 284.77919,650.57066 C 287.6061,648.47779 289.31348,647.56056 292.28441,647.10319 C 293.15184,646.96601 294.0049,647.09606 294.84716,647.186 C 295.90901,647.48951 296.87569,648.03472 297.85355,648.53426 C 300.10927,649.24448 303.89917,646.21596 296.69323,650.33141 C 297.9043,649.48339 299.03878,648.53146 300.20573,647.62418 C 302.43425,645.81217 304.9284,644.546 307.43098,643.09958 C 308.57349,642.5708 309.53235,642.98787 310.65827,643.36513 C 311.78584,643.9105 312.94256,644.35296 314.11988,644.76572 C 314.90195,645.08147 315.57741,644.80871 316.33352,644.69903 C 317.20042,644.37424 318.06884,644.06677 318.94457,643.76924 C 319.79957,643.5563 320.68398,643.56329 321.55815,643.52834 C 322.46831,643.5478 323.20861,643.01293 323.99721,642.61664 C 325.04788,642.23086 326.08534,641.81114 327.12091,641.39712 C 328.08086,640.78672 328.66783,641.07094 329.6369,641.36846 C 330.22092,642.01484 330.91287,642.15433 331.70663,642.36937 C 332.77622,642.37257 333.75121,642.59219 334.75656,642.91268 C 336.02255,643.64711 337.34457,644.16012 338.73855,644.57089 C 340.27906,644.91239 341.81581,644.96351 343.36776,644.79194 C 345.51442,644.13053 349.55794,641.64152 341.36318,646.12376 C 342.08262,645.57695 342.80733,645.03931 343.53334,644.50194 C 346.45372,642.3812 348.86318,641.21232 352.16483,640.5539 C 353.37245,640.30916 354.56514,640.40728 355.77564,640.52918 C 357.13546,640.67639 358.16868,641.51167 359.24153,642.28092 C 360.04585,642.93 360.98295,643.16881 361.94244,643.43979 C 362.92126,643.44423 363.84177,643.63281 364.79192,643.80448 C 365.62674,644.0789 366.49429,644.13374 367.35998,644.21566 C 368.50149,644.10987 369.48552,643.45451 370.49164,642.94694 C 363.11633,647.79767 368.15383,644.10701 369.70489,642.60815 C 383.00076,634.66477 363.84914,645.50169 377.51891,638.12081 C 380.02729,637.231 382.73181,637.14385 385.36657,636.98706 C 387.53245,636.80888 389.49965,637.12877 391.40343,638.09739 C 392.23787,638.90939 393.06609,639.66613 393.98467,640.36477 C 395.05386,640.7102 396.20009,640.726 397.30811,640.85015 C 398.36923,641.19618 399.40773,641.60033 400.46814,641.94892 C 401.23318,642.12924 402.01964,642.11009 402.79933,642.12964 C 403.63344,642.1308 404.46755,642.12698 405.30165,642.12348 C 406.24891,642.22889 407.12931,642.00814 408.04433,641.82006 C 408.94249,641.47469 409.78817,641.011 410.66173,640.60813 C 411.43963,640.4844 412.21742,640.36765 412.99519,640.19971 C 414.01937,640.05793 415.05255,640.0422 416.08381,640.00803 C 417.09159,639.92008 417.96426,640.34108 418.87237,640.70529 C 419.69359,640.9866 420.55583,640.99783 421.41038,641.05458 C 422.42607,641.21191 423.22943,640.77664 424.13399,640.41452 C 423.22699,640.84401 418.85047,643.64023 422.96685,640.99815 C 424.39559,640.13749 425.79518,639.23873 427.16895,638.29323 C 429.678,636.4802 432.29483,634.75364 435.33391,634.0983 C 436.437,633.83871 437.31375,634.17272 438.32176,634.57499 C 439.43128,635.03625 440.48776,635.58648 441.51553,636.2057 C 442.29981,636.59622 442.88101,637.21614 443.49996,637.81434 C 444.14062,638.41973 444.88689,638.42995 445.70571,638.55234 C 446.8133,638.62369 447.78179,639.03649 448.76637,639.50554 C 449.95619,640.19087 451.27618,640.52921 452.59871,640.84017 C 453.76771,641.20624 454.63221,640.85234 455.69528,640.47019 C 448.11051,645.34394 452.25688,642.35881 453.86689,640.92824 C 456.18638,639.19149 458.82265,637.87088 461.32338,636.44468 C 462.45324,635.96843 463.60377,635.54356 464.77404,635.17757 C 465.58871,634.85818 466.44858,634.79654 467.30646,634.70775 C 468.01175,634.46852 468.73861,634.47431 469.46028,634.44404 C 470.28879,634.67797 471.08619,634.54502 471.90894,634.4809 C 472.05877,634.44274 472.20861,634.40458 472.35845,634.36642 L 468.21117,637.5202 C 468.05629,637.54964 467.90142,637.57909 467.74654,637.60854 C 466.9018,637.60962 466.06132,637.64522 465.2181,637.50844 C 464.51388,637.61064 463.8045,637.69594 463.10189,637.81697 C 462.27715,637.94288 461.45192,638.05175 460.66901,638.36631 C 459.51997,638.74736 458.36896,639.14266 457.28611,639.68918 C 465.02517,635.18412 460.395,637.79898 458.686,638.98079 C 456.4632,640.90888 454.60839,642.52704 451.61634,643.69905 C 450.49692,643.93759 449.50564,644.18816 448.35265,643.78628 C 447.00775,643.42369 445.66495,643.0391 444.43392,642.36495 C 443.47465,641.95656 442.52239,641.61684 441.46543,641.5637 C 440.55816,641.35624 439.72817,641.27483 439.04709,640.54743 C 438.45585,639.9814 437.88901,639.40735 437.14744,639.02967 C 436.12674,638.45708 435.11944,637.86369 434.01102,637.46339 C 433.0408,637.20878 432.21796,636.91526 431.19851,637.23248 C 426.04192,638.63361 436.24071,634.07535 431.94802,636.41313 C 430.5843,637.36686 429.2078,638.29465 427.76676,639.12922 C 425.25513,640.72679 422.78397,642.42881 420.05756,643.64669 C 419.09763,643.9418 418.2109,644.27203 417.17641,644.09831 C 416.28353,644.00625 415.38432,643.96124 414.5403,643.61351 C 413.66082,643.29092 412.84682,642.94728 411.87957,643.0791 C 410.86181,643.12678 409.83851,643.14145 408.83443,643.33807 C 408.07263,643.48919 407.29272,643.58325 406.56045,643.83826 C 405.70198,644.27048 404.85537,644.75561 403.9089,644.96764 C 402.96873,645.1398 402.03982,645.25474 401.07926,645.19346 C 400.24273,645.19578 399.4061,645.2043 398.56964,645.19094 C 397.75962,645.14899 396.94363,645.15052 396.16262,644.89418 C 395.14462,644.51489 394.14004,644.07036 393.07964,643.82697 C 391.9069,643.7272 390.69291,643.72245 389.6147,643.19595 C 388.67935,642.50466 387.95938,641.63419 387.05906,640.90239 C 385.24628,640.04281 383.35994,639.79022 381.33204,639.95613 C 378.6786,640.12268 375.96951,640.27234 373.48528,641.30504 C 382.79004,635.49152 364.34703,646.54442 375.3918,640.03969 C 375.70344,639.85616 374.03945,640.74208 374.48736,640.63901 C 372.06303,643.00482 369.78414,644.78727 366.46589,646.18201 C 365.38637,646.70067 364.35527,647.32267 363.1166,647.25051 C 362.23767,647.13415 361.35844,647.03802 360.50869,646.76119 C 359.56183,646.63869 358.61147,646.53102 357.66136,646.41172 C 356.67743,646.06174 355.6942,645.7505 354.87102,645.05848 C 353.84069,644.32425 352.8611,643.60308 351.54404,643.54043 C 350.37073,643.44784 349.20896,643.41133 348.04707,643.66467 C 345.81778,644.18112 340.2875,646.72248 348.3762,642.60918 C 347.62491,643.11306 346.89376,643.61797 346.22155,644.22442 C 343.95489,645.56692 341.88113,647.51395 339.21898,647.89116 C 337.63695,647.94279 336.06384,647.85781 334.51319,647.48207 C 333.11353,647.03174 331.77129,646.49444 330.46102,645.81222 C 329.45417,645.5769 328.45001,645.45583 327.41894,645.34343 C 326.64787,645.06261 325.89953,644.85102 325.28678,644.25861 C 324.43352,644.16947 323.83714,644.09619 323.04913,644.63756 C 322.00602,645.02184 320.94563,645.37891 319.94234,645.86143 C 319.09048,646.24588 318.31772,646.70039 317.34189,646.61065 C 316.49312,646.66632 315.63589,646.67866 314.82012,646.956 C 313.94752,647.27981 313.07882,647.62464 312.18382,647.88241 C 311.37289,647.93549 310.60532,648.02008 309.81719,647.69963 C 308.66462,647.23725 307.52996,646.73585 306.38005,646.26534 C 305.26597,645.97299 304.4275,645.73047 303.3839,646.37087 C 311.33667,641.75293 306.64397,644.33126 305.00438,645.71677 C 303.82248,646.6152 302.65632,647.53223 301.50564,648.47101 C 298.66346,650.12088 296.62316,652.53587 293.52276,651.3859 C 292.56793,650.90465 291.62,650.38707 290.56293,650.16656 C 289.74576,650.14309 288.92422,650.09364 288.10796,650.21329 C 286.00506,650.67963 282.01209,652.53325 289.60672,648.67647 C 288.63236,649.34798 287.69147,650.0456 286.81366,650.84252 C 283.88666,652.55622 282.57852,653.95865 279.64676,654.18424 C 278.58503,654.26134 277.52138,654.39378 276.49658,654.01851 C 275.72534,653.5533 274.93878,653.10477 274.25953,652.49391 C 273.50308,651.70119 272.75455,650.89838 271.90646,650.20077 C 271.27243,649.72752 270.68113,649.20149 269.8916,649.00461 C 269.17468,648.81967 268.46283,648.60046 267.72726,648.49872 C 267.01205,648.51118 266.31268,648.39404 265.62798,648.74089 C 271.45909,645.23255 270.17163,645.9783 267.8124,647.4575 L 262.9406,649.41259 z "
       style="opacity:0.98000004;fill:#ffffff;fill-opacity:1;fill-rule:nonzero;stroke:none;stroke-width:6.73228359;stroke-linecap:round;stroke-linejoin:round;stroke-miterlimit:4;stroke-dasharray:1.68307087, 1.68307087;stroke-dashoffset:10.09842414;stroke-opacity:1"
       id="path22085" />
  </g>
</svg>
