<?xml version="1.0" encoding="UTF-8" standalone="no"?>
<!-- Generator: Adobe Illustrator 15.1.0, SVG Export Plug-In . SVG Version: 6.00 Build 0)  -->

<svg
   xmlns:dc="http://purl.org/dc/elements/1.1/"
   xmlns:cc="http://creativecommons.org/ns#"
   xmlns:rdf="http://www.w3.org/1999/02/22-rdf-syntax-ns#"
   xmlns:svg="http://www.w3.org/2000/svg"
   xmlns="http://www.w3.org/2000/svg"
   xmlns:xlink="http://www.w3.org/1999/xlink"
   xmlns:sodipodi="http://sodipodi.sourceforge.net/DTD/sodipodi-0.dtd"
   xmlns:inkscape="http://www.inkscape.org/namespaces/inkscape"
   version="1.1"
   id="Layer_1"
   x="0px"
   y="0px"
   width="196.06561"
   height="244.69011"
   viewBox="0 0 196.06561 244.69011"
   enable-background="new 0 0 194.701 244.082"
   xml:space="preserve"
   sodipodi:docname="Coat_of_Arms_of_Tiberias (1).svg"
   inkscape:version="0.92.3 (2405546, 2018-03-11)"><metadata
   id="metadata348"><rdf:RDF><cc:Work
       rdf:about=""><dc:format>image/svg+xml</dc:format><dc:type
         rdf:resource="http://purl.org/dc/dcmitype/StillImage" /><dc:title></dc:title></cc:Work></rdf:RDF></metadata><defs
   id="defs346"><clipPath
     clipPathUnits="userSpaceOnUse"
     id="clipPath1888"><path
       d="m 119.05535,812.86662 v -5.29133 h -8.31971 v 5.29133 z"
       id="path1886"
       inkscape:connector-curvature="0" /></clipPath><linearGradient
     x1="0"
     y1="0"
     x2="1"
     y2="0"
     gradientUnits="userSpaceOnUse"
     gradientTransform="matrix(1e-7,-5.2909674,-5.2909674,-1e-7,114.89566,812.86619)"
     spreadMethod="pad"
     id="linearGradient1894"><stop
       style="stop-opacity:1;stop-color:#e6cb9b"
       offset="0"
       id="stop1890" /><stop
       style="stop-opacity:1;stop-color:#ffffff"
       offset="1"
       id="stop1892" /></linearGradient><clipPath
     clipPathUnits="userSpaceOnUse"
     id="clipPath1914"><path
       d="m 106.69197,812.86623 v -5.5218 h -8.347047 v 5.5218 z"
       id="path1912"
       inkscape:connector-curvature="0" /></clipPath><linearGradient
     x1="-0.035547551"
     y1="-0.15805985"
     x2="1.1274339"
     y2="-0.14541873"
     gradientUnits="userSpaceOnUse"
     gradientTransform="matrix(1e-7,-5.5217833,-5.5217833,-1e-7,102.51837,812.86619)"
     spreadMethod="pad"
     id="linearGradient1920"
     xlink:href="#radialGradient2006"><stop
       style="stop-opacity:1;stop-color:#e6cb9b"
       offset="0"
       id="stop1916" /><stop
       style="stop-opacity:1;stop-color:#ffffff"
       offset="1"
       id="stop1918" /></linearGradient><clipPath
     clipPathUnits="userSpaceOnUse"
     id="clipPath1930"><path
       d="m 87,769.834 h 43.618 v 60.489 H 87 Z"
       id="path1928"
       inkscape:connector-curvature="0" /></clipPath><clipPath
     clipPathUnits="userSpaceOnUse"
     id="clipPath2000"><path
       d="m 101.75717,805.50827 h 13.85176 v -7.89294 h -13.85176 z"
       id="path1998"
       inkscape:connector-curvature="0" /></clipPath><radialGradient
     fx="0"
     fy="0"
     cx="0"
     cy="0"
     r="1"
     gradientUnits="userSpaceOnUse"
     gradientTransform="matrix(9.6398132,0,0,-9.6398132,108.6831,804.32434)"
     spreadMethod="pad"
     id="radialGradient2006"><stop
       style="stop-opacity:1;stop-color:#ffffff"
       offset="0"
       id="stop2002" /><stop
       style="stop-opacity:1;stop-color:#d0ebf1"
       offset="1"
       id="stop2004" /></radialGradient><radialGradient
     inkscape:collect="always"
     xlink:href="#radialGradient2006"
     id="radialGradient929"
     gradientUnits="userSpaceOnUse"
     gradientTransform="matrix(45.854488,0,0,45.854488,97.431222,120.86362)"
     cx="0"
     cy="0"
     fx="0"
     fy="0"
     r="1"
     spreadMethod="pad" /></defs><sodipodi:namedview
   pagecolor="#ffffff"
   bordercolor="#666666"
   borderopacity="1"
   objecttolerance="10"
   gridtolerance="10"
   guidetolerance="10"
   inkscape:pageopacity="0"
   inkscape:pageshadow="2"
   inkscape:window-width="1920"
   inkscape:window-height="1005"
   id="namedview344"
   showgrid="false"
   inkscape:zoom="6.1628973"
   inkscape:cx="98.944749"
   inkscape:cy="157.3901"
   inkscape:window-x="-9"
   inkscape:window-y="-9"
   inkscape:window-maximized="1"
   inkscape:current-layer="Layer_1"
   fit-margin-top="0"
   fit-margin-left="0"
   fit-margin-right="0"
   fit-margin-bottom="0" />

<path
   inkscape:connector-curvature="0"
   id="path1870"
   style="fill:none;stroke:#3f4e85;stroke-width:2;stroke-linecap:butt;stroke-linejoin:miter;stroke-miterlimit:3.86400008;stroke-dasharray:none;stroke-opacity:1"
   d="M 106.29073,1 H 12.368077 C 7.8634037,71.633453 5.4517154,103.00919 1.1040168,166.02703 -1.9022693,209.59915 60.235572,213.22382 98.037717,243.41036 135.8351,213.22382 197.96343,209.59915 194.9619,166.02703 190.60944,103.00919 188.19775,71.633453 183.68832,1 H 89.760916 Z" /><path
   d="M 106.29073,1 H 12.368077 C 7.8634037,71.633453 5.4517154,103.00919 1.1040168,166.02703 -1.9022693,209.59915 60.235572,213.22382 98.037717,243.41036 135.8351,213.22382 197.96343,209.59915 194.9619,166.02703 190.60944,103.00919 188.19775,71.633453 183.68832,1 H 89.760916 Z"
   style="fill:#ffffff;stroke:none;stroke-width:1.24865532;stroke-linecap:butt;stroke-linejoin:miter;stroke-miterlimit:3.86400008;stroke-dasharray:none;stroke-opacity:1"
   id="path1204"
   inkscape:connector-curvature="0" /><path
   style="fill:#62251b;fill-opacity:1;fill-rule:evenodd;stroke:none;stroke-width:4.75678158"
   d="M 38.503906 109.23828 C 36.701086 109.23828 36.356844 110.47169 36.080078 111.93945 L 34.919922 118.0957 C 34.919922 119.59408 35.810461 120.79688 37.613281 120.79688 L 45.085938 120.79688 C 46.888759 120.79688 48.347656 119.59408 48.347656 118.0957 L 48.347656 111.93945 C 48.347656 110.44582 46.888759 109.23828 45.085938 109.23828 L 38.503906 109.23828 z M 53.9375 109.23828 C 52.129923 109.23828 50.660156 110.44582 50.660156 111.93945 L 50.660156 118.0957 C 50.660156 119.59408 52.129923 120.79688 53.9375 120.79688 L 84.324219 120.79688 C 86.150823 120.79687 95.435547 115.54102 95.435547 115.54102 L 95.6875 111.93945 C 95.6875 110.44582 94.217733 109.23828 92.410156 109.23828 L 53.9375 109.23828 z M 101.94922 109.23828 C 100.13213 109.23828 98.685547 110.44582 98.685547 111.93945 L 99.564453 115.80273 L 109.65039 118.0957 C 113.69365 118.72835 116.3986 120.79688 118.21094 120.79688 L 136.41992 120.79688 C 138.24652 120.79688 139.70312 119.59408 139.70312 118.0957 L 139.70312 111.93945 C 139.70313 110.44582 138.24652 109.23828 136.41992 109.23828 L 101.94922 109.23828 z M 144.43359 109.23828 C 142.64028 109.23828 141.16992 110.44582 141.16992 111.93945 L 141.16992 118.0957 C 141.16992 119.59408 142.64028 120.79688 144.43359 120.79688 L 156.13477 120.79688 C 157.94235 120.79688 159.39258 119.59408 159.39258 118.0957 L 158.82812 111.93945 C 158.82813 110.44582 157.35751 109.23828 155.55469 109.23828 L 144.43359 109.23828 z M 36.837891 123.14648 C 35.025557 123.14648 34.16572 124.38039 33.886719 125.85742 L 32.154297 135.02344 C 32.154297 136.50756 33.6154 137.7207 35.427734 137.7207 L 56.404297 137.7207 C 58.20236 137.7207 59.658203 136.50756 59.658203 135.02344 L 59.658203 125.85742 C 59.658203 124.35427 58.20236 123.14648 56.404297 123.14648 L 36.837891 123.14648 z M 65.431641 123.14648 C 63.638334 123.14648 62.167969 124.35427 62.167969 125.85742 L 62.167969 135.02344 C 62.167969 136.50756 63.638334 137.7207 65.431641 137.7207 L 68.480469 137.7207 C 70.288046 137.7207 71.757812 136.50756 71.757812 135.02344 L 78.673828 125.85742 C 78.673828 124.35427 77.217733 123.14648 75.410156 123.14648 L 65.431641 123.14648 z M 120.92188 123.2832 C 119.10954 123.2832 120.41602 124.48073 120.41602 125.96484 L 125.61133 135.02148 C 125.61133 136.30046 126.69785 137.37302 128.14844 137.64648 C 129.60318 137.3725 130.69727 136.29996 130.69727 135.02148 L 130.69727 125.96484 C 130.69727 124.48073 129.22665 123.2832 127.42383 123.2832 L 120.92188 123.2832 z M 128.14844 137.64648 C 127.91445 137.69055 127.67362 137.71875 127.42383 137.71875 L 128.86914 137.71875 C 128.62061 137.71875 128.3811 137.69035 128.14844 137.64648 z M 136.9668 123.2832 C 135.15922 123.2832 133.69922 124.48073 133.69922 125.96484 L 133.69922 135.02148 C 133.69922 136.50559 135.15922 137.71875 136.9668 137.71875 L 158.93945 137.71875 C 160.73751 137.71875 162.2168 136.50559 162.2168 135.02148 L 161.06055 125.96484 C 161.06055 124.48073 159.59553 123.2832 157.7832 123.2832 L 136.9668 123.2832 z M 130.9375 138.90039 C 129.15846 138.90039 127.68945 140.26388 127.68945 141.9668 L 130.5625 149.86914 C 130.5625 151.5578 130.30995 152.9375 132.09375 152.9375 L 140.15625 152.9375 C 141.93053 152.9375 143.4043 151.5578 143.4043 149.86914 L 143.4043 141.9668 C 143.4043 140.26388 141.93053 138.90039 140.15625 138.90039 L 130.9375 138.90039 z M 149.97461 138.9668 C 148.16703 138.9668 146.71094 140.17494 146.71094 141.6543 L 146.71094 150.29297 C 146.71094 151.79135 148.16703 152.99414 149.97461 152.99414 L 162.44141 152.99414 C 164.24898 152.99414 165.71484 151.79135 165.71484 150.29297 L 164.55859 141.6543 C 164.55859 140.17494 163.10336 138.9668 161.29102 138.9668 L 149.97461 138.9668 z M 33.289062 139.78906 C 31.495755 139.78906 31.209981 141.02615 30.886719 142.48438 L 29.154297 150.29688 C 29.154297 151.79051 30.624662 152.99805 32.417969 152.99805 L 43.386719 152.99805 C 45.203809 152.99805 46.664062 151.7905 46.664062 150.29688 L 46.664062 142.48438 C 46.664063 140.99074 45.203809 139.78906 43.386719 139.78906 L 33.289062 139.78906 z M 53.9375 139.78906 C 52.129923 139.78906 50.660156 140.99075 50.660156 142.48438 L 50.660156 150.29688 C 50.660156 151.79051 52.129923 152.99805 53.9375 152.99805 L 62.595703 152.99805 C 64.393766 152.99805 65.847656 151.7905 65.847656 150.29688 L 68.166016 142.48438 C 68.166016 140.99074 66.704313 139.78906 64.90625 139.78906 L 53.9375 139.78906 z "
   id="path1934" /><path
   inkscape:connector-curvature="0"
   id="path2020"
   style="fill:none;stroke:#ffffff;stroke-width:1.16541159;stroke-linecap:butt;stroke-linejoin:miter;stroke-miterlimit:3.86400008;stroke-dasharray:none;stroke-opacity:1"
   d="m 130.37622,151.55928 -0.0238,1.21774 c -8.47183,-0.0333 -30.429125,-0.0428 -65.843365,-0.0428 l -0.02378,-1.17493 c 0,-20.05459 14.755537,-36.32754 32.954984,-36.32754 18.185171,0 32.935951,16.27295 32.935951,36.32754 z" /><path
   inkscape:connector-curvature="0"
   id="path2008"
   style="fill:url(#radialGradient929);stroke:none;stroke-width:4.75678158;opacity:1"
   d="m 64.490032,151.55599 0.01903,1.17968 c 35.418997,0 57.371538,0.01 65.843368,0.0428 v 0 l 0.0238,-1.22249 c 0,-20.04983 -14.75078,-36.32278 -32.935958,-36.32278 v 0 c -18.199447,0 -32.950228,16.27295 -32.950228,36.32278" /><path
   inkscape:connector-curvature="0"
   id="path2028"
   style="fill:#1f4fa2;fill-opacity:1;fill-rule:evenodd;stroke:none;stroke-width:4.75678158"
   d="m 16.197762,159.89982 c 0,0 8.005663,5.27527 17.890256,5.27527 9.875079,0 17.885499,-5.27527 17.885499,-5.27527 0,0 -8.01042,12.31055 -17.885499,12.31055 -9.884593,0 -17.890256,-12.31055 -17.890256,-12.31055" /><path
   inkscape:connector-curvature="0"
   id="path2032"
   style="fill:#1f4fa2;fill-opacity:1;fill-rule:evenodd;stroke:none;stroke-width:4.75678158"
   d="m 58.424665,159.89982 c 0,0 8.01042,5.27527 17.885499,5.27527 9.884593,0 17.904527,-5.27527 17.904527,-5.27527 0,0 -8.019934,12.31055 -17.904527,12.31055 -9.875079,0 -17.885499,-12.31055 -17.885499,-12.31055" /><path
   inkscape:connector-curvature="0"
   id="path2036"
   style="fill:#1f4fa2;fill-opacity:1;fill-rule:evenodd;stroke:none;stroke-width:4.75678158"
   d="m 100.66774,159.89982 c 0,0 8.00566,5.27527 17.87123,5.27527 9.8941,0 17.89977,-5.27527 17.89977,-5.27527 0,0 -8.00567,12.31055 -17.89977,12.31055 -9.86557,0 -17.87123,-12.31055 -17.87123,-12.31055" /><path
   inkscape:connector-curvature="0"
   id="path2040"
   style="fill:#1f4fa2;fill-opacity:1;fill-rule:evenodd;stroke:none;stroke-width:4.75678158"
   d="m 142.88322,159.89982 c 0,0 8.01518,5.27527 17.89026,5.27527 9.88459,0 17.89501,-5.27527 17.89501,-5.27527 0,0 -8.01042,12.31055 -17.89501,12.31055 -9.87508,0 -17.89026,-12.31055 -17.89026,-12.31055" /><path
   inkscape:connector-curvature="0"
   id="path2044"
   style="fill:#1f4fa2;fill-opacity:1;fill-rule:evenodd;stroke:none;stroke-width:4.75678158"
   d="m 121.7693,170.2092 c 0,0 8.01042,5.27527 17.89025,5.27527 9.89411,0 17.89977,-5.27527 17.89977,-5.27527 0,0 -8.00566,12.31055 -17.89977,12.31055 -9.87983,0 -17.89025,-12.31055 -17.89025,-12.31055" /><path
   inkscape:connector-curvature="0"
   id="path2048"
   style="fill:#1f4fa2;fill-opacity:1;fill-rule:evenodd;stroke:none;stroke-width:4.75678158"
   d="m 79.545727,170.2092 c 0,0 8.000907,5.27527 17.895014,5.27527 9.875069,0 17.890249,-5.27527 17.890249,-5.27527 0,0 -8.01518,12.31055 -17.890249,12.31055 -9.894107,0 -17.895014,-12.31055 -17.895014,-12.31055" /><path
   inkscape:connector-curvature="0"
   id="path2052"
   style="fill:#1f4fa2;fill-opacity:1;fill-rule:evenodd;stroke:none;stroke-width:4.75678158"
   d="m 37.306456,170.2092 c 0,0 8.015178,5.27527 17.890257,5.27527 9.894106,0 17.89977,-5.27527 17.89977,-5.27527 0,0 -8.005664,12.31055 -17.89977,12.31055 -9.875079,0 -17.890257,-12.31055 -17.890257,-12.31055" /><path
   inkscape:connector-curvature="0"
   id="path2056"
   style="fill:#1f4fa2;fill-opacity:1;fill-rule:evenodd;stroke:none;stroke-width:4.75678158"
   d="m 58.424665,180.75118 c 0,0 8.01042,5.27051 17.885499,5.27051 9.884593,0 17.904527,-5.27051 17.904527,-5.27051 0,0 -8.019934,12.30579 -17.904527,12.30579 -9.875079,0 -17.885499,-12.30579 -17.885499,-12.30579" /><path
   inkscape:connector-curvature="0"
   id="path2060"
   style="fill:#1f4fa2;fill-opacity:1;fill-rule:evenodd;stroke:none;stroke-width:4.75678158"
   d="m 100.66774,180.75118 c 0,0 8.00566,5.27051 17.87123,5.27051 9.8941,0 17.89977,-5.27051 17.89977,-5.27051 0,0 -8.00567,12.30579 -17.89977,12.30579 -9.86557,0 -17.87123,-12.30579 -17.87123,-12.30579" /><path
   inkscape:connector-curvature="0"
   id="path2064"
   style="fill:#1f4fa2;fill-opacity:1;fill-rule:evenodd;stroke:none;stroke-width:4.75678158"
   d="m 79.545727,191.26176 c 0,0 8.000907,5.27051 17.895014,5.27051 9.875069,0 17.890249,-5.27051 17.890249,-5.27051 0,0 -8.01518,12.30104 -17.890249,12.30104 -9.894107,0 -17.895014,-12.30104 -17.895014,-12.30104" /><path
   inkscape:connector-curvature="0"
   id="path2068"
   style="fill:#1f4fa2;fill-opacity:1;fill-rule:evenodd;stroke:none;stroke-width:4.75678158"
   d="m 79.678917,152.76417 h 35.509373 c 0,0 -7.94383,7.94859 -17.752306,7.94859 -9.808484,0 -17.757067,-7.94859 -17.757067,-7.94859" /><path
   inkscape:connector-curvature="0"
   id="path2072"
   style="fill:#1f4fa2;fill-opacity:1;fill-rule:evenodd;stroke:none;stroke-width:4.75678158"
   d="m 171.90958,183.68611 c -0.33297,0.25211 -0.4947,0.58984 -0.65168,0.87049 0,0 -1.51741,4.6664 -1.02271,4.50467 0.51849,-0.18075 2.02164,-2.87309 2.02164,-2.87309 l 2.56866,-1.07979 c 0.15222,-0.0951 0.36627,-0.13319 0.47568,-0.12368 0.15221,0.005 0.25686,0.0428 0.33773,0.1427 l 1.39374,1.40326 c 0.0761,0.15221 0.019,0.39957 -0.10941,0.60886 -0.19503,0.34249 -0.58033,0.70876 -0.96563,0.95136 l -5.69862,4.44759 c 0,0 -0.64692,0.58033 -1.17017,0.44714 -0.82768,-0.25687 -1.6839,-0.92757 -1.90271,-1.21298 -0.12368,-0.14746 -0.12368,-0.3853 -0.0476,-0.66595 0.1427,-0.55179 0.64217,-0.0856 1.03222,-0.87049 0.4186,-0.79438 0.91806,-2.0359 0.54703,-2.5211 -0.13795,-0.17124 -1.74098,0.28065 -2.88261,0.76109 -1.056,0.45665 -1.03222,0.23784 -1.31763,0.49946 -0.52324,0.41384 -0.83719,2.44974 -0.77535,2.77321 0.0856,0.32346 2.31179,-0.76109 2.23568,-0.30444 0,0.23308 -0.01,0.46141 -0.0856,0.86574 -0.0761,0.50421 0.0761,0.76108 0.29492,1.09406 l 2.75418,2.43547 c 0.019,0.01 0.22357,0.22357 0.51849,0.1094 0.29492,-0.10465 0.50422,-0.19027 0.76108,-0.40908 0.0143,-0.0285 6.50728,-5.09927 6.89258,-5.38943 0.9133,-0.76109 1.02747,-1.40325 1.43179,-2.59245 0.67071,-1.98833 0.0285,-2.33082 0.0238,-2.33082 l -2.35937,-3.00629 c -0.25211,-0.0904 -0.352,-0.28541 -0.81816,-0.0904 -1.0132,0.35676 -3.13472,1.26055 -3.48197,1.55547 m -41.07481,30.16751 c -0.0333,0.01 -0.93233,0.352 -1.06076,0.63741 -0.81341,1.84563 -0.68973,2.51158 -0.40433,2.57817 0.14271,0.0381 0.94184,-0.38054 0.96563,-0.38054 l 9.58491,-4.54272 c 0.11892,-0.0476 0.98941,-0.45666 1.32715,-0.80866 0.50422,-0.50897 0.47092,-0.89427 0.21881,-1.26054 -0.29492,-0.38055 -0.31871,-0.80866 -0.95136,-0.93709 -0.1427,-0.0523 -0.5946,-0.038 -0.5946,-0.038 l -1.76952,-3.9957 c -0.12843,-0.19027 -0.39957,-0.23308 -0.7373,-0.26162 -0.38054,-0.0523 -1.62206,0.45665 -1.62206,0.45665 l -5.8223,2.58293 c -0.21406,0.0428 -0.52325,0.0904 -0.72303,0.0904 -0.18076,-0.0238 -0.40909,-0.0809 -0.64217,0.0428 -0.27114,0.11892 -0.7373,0.78962 -0.94184,1.25103 -0.32822,0.76584 -0.74206,1.65536 0.31395,1.72671 0.62789,0.0428 0.76108,-0.038 1.17968,-0.19027 l 6.37884,-2.83504 c 0.0333,-0.0143 0.58984,-0.25687 0.80865,-0.29968 0.19979,-0.0238 0.42336,0.12844 0.42811,0.13795 l 1.21298,2.18336 c 0.0809,0.0714 0.0666,0.23309 0,0.34725 -0.0714,0.12367 -0.48994,0.37103 -0.52324,0.3853 z m -46.878079,2.18336 c -0.04757,0.26163 0.504219,0.39957 0.860978,0.56606 l 8.476585,1.14638 c 0.304434,0.0381 0.556543,0.12368 0.727788,0.23784 0.247352,0.14271 0.375785,0.35201 0.271136,0.54703 l -0.604111,4.96133 c -0.02378,0.0713 0.09989,0.16648 0.07611,0.19502 0.299678,0.32822 1.564982,-0.18551 1.636333,-0.38529 0.214055,-0.51849 1.488873,-6.52155 1.488873,-6.52155 0,-0.0428 0.08087,-0.43287 -0.332975,-0.68022 -0.5613,-0.352 -1.779036,-0.54703 -1.779036,-0.54703 l -6.559602,-0.83244 c -0.556544,-0.0713 -0.713518,-0.0713 -1.422278,-0.41384 -0.489949,-0.22357 -0.252109,-0.43287 -0.689733,-0.51373 -0.54703,-0.10941 -2.159579,1.3319 -2.150066,2.24044 M 51.6629,203.12232 c -0.147461,0.13319 0.06184,0.46617 0.176001,0.68973 l 1.298601,2.16434 c 0.14746,0.19503 0.233082,0.35676 0.180758,0.48995 -0.07135,0.12843 -0.06184,0.19978 -0.375786,0.26162 -0.746815,0.28541 -1.993092,0.72779 -1.693414,0.98465 0.684976,0.65644 5.199162,-0.69924 5.665327,-1.28433 0.14746,-0.24259 -0.114163,-0.56605 -0.271137,-0.91806 L 55.416,203.8073 c -0.118919,-0.26638 -0.299677,-0.51849 -0.466164,-0.76109 -0.06184,-0.15222 -0.07135,-0.38054 -0.342488,-0.51849 -0.442381,-0.18551 -2.525852,0.29492 -2.944448,0.5946 M 13.175778,186.19293 c -0.04757,0.12844 -0.152217,0.30919 0.05708,0.48044 0.965627,0.704 1.698172,0.60887 2.254715,0.39481 0.123676,-0.0476 0.156974,0.0381 0.390056,-0.19503 l 1.422278,-1.83611 c 0,0 0.171244,-0.29492 -0.356759,-0.70876 -0.252109,-0.2093 -1.331899,-0.47093 -1.859901,-0.34249 -0.07135,0.038 -0.23784,0.0571 -0.275894,0.13319 z m 4.209752,-5.74143 c -0.68022,0.11892 -1.498386,0.0143 -1.003681,1.03698 0.228326,0.48519 0.979897,1.10833 1.265304,1.28433 l 5.294298,4.1384 c 0.0333,0.0285 0.556544,0.45189 0.651679,0.69449 0.09514,0.22832 0.06659,0.39005 -0.08086,0.50897 l -3.053854,3.91959 c 0.06184,0.176 0.104649,0.352 0.309191,0.52325 1.079789,0.79438 2.359364,0.61362 2.36412,0.5946 l 1.855145,-3.71029 c 0.204542,-0.0618 0.432867,-0.0523 0.737301,-0.0809 0.06184,-0.0143 0.851464,0.18552 1.393738,0.27114 0.547029,0.10465 0.409083,-0.81817 0.404326,-1.47461 -0.03805,-0.49946 0.14746,-1.09881 -0.41384,-1.48411 -0.390056,-0.28541 -0.656436,-0.11416 -1.046492,-0.34725 -0.09514,-0.0571 -0.228326,-0.13319 -0.332975,-0.20454 l -5.817544,-4.55224 c 0,0 -0.409083,-0.32346 -0.513732,-0.67546 -0.01427,-0.15697 0.04757,-0.24735 -0.285407,-0.53276 -0.261623,-0.21406 -1.113087,-0.0285 -1.726712,0.0904" /><path
   inkscape:connector-curvature="0"
   id="path2132"
   style="fill:#ae7009;fill-opacity:1;fill-rule:evenodd;stroke:none;stroke-width:4.75678158"
   d="m 96.03416,42.790707 3.053854,-0.256866 c 0,17.191009 -0.98941,50.222102 1.817086,50.222102 h -7.948578 c 2.801745,0 3.077638,-37.445387 3.077638,-49.965236" /><path
   inkscape:connector-curvature="0"
   id="path2136"
   style="fill:none;stroke:#ae7009;stroke-width:0.69449013;stroke-linecap:butt;stroke-linejoin:miter;stroke-miterlimit:3.86400008;stroke-dasharray:none;stroke-opacity:1"
   d="m 96.03416,42.790707 3.053854,-0.256866 c 0,17.191009 -0.98941,50.222102 1.817086,50.222102 h -7.948578 c 2.801745,0 3.077638,-37.445387 3.077638,-49.965236 z" /><path
   inkscape:connector-curvature="0"
   id="path2076"
   style="fill:none;stroke:#ae7009;stroke-width:1.16541159;stroke-linecap:butt;stroke-linejoin:miter;stroke-miterlimit:3.86400008;stroke-dasharray:none;stroke-opacity:1"
   d="M 48.244201,95.828824 V 80.345499 h 39.709614 v 15.559433" /><g
   id="g1900"
   transform="matrix(4.7567818,0,0,-4.7567818,-419.55057,3946.859)"><g
     id="g1906"><g
       id="g1908"><g
         clip-path="url(#clipPath1914)"
         id="g1910"><path
           inkscape:connector-curvature="0"
           id="path1922"
           style="fill:url(#linearGradient1920);fill-opacity:1;stroke:none"
           d="m 98.345,807.344 h 8.348 v 5.522 h -8.348 z" /></g></g></g></g><path
   inkscape:connector-curvature="0"
   id="path2152"
   style="fill:#62251b;fill-opacity:1;fill-rule:evenodd;stroke:none;stroke-width:4.75678158"
   d="m 40.628593,95.10722 h 17.585822 c 1.80282,0 3.263152,1.203466 3.263152,2.701852 v 7.220798 c 0,1.48887 -1.460332,2.69709 -3.263152,2.69709 H 40.628593 c -1.793307,0 -3.263152,-1.20822 -3.263152,-2.69709 l 1.146384,-7.220798 c 0.234937,-1.479835 0.323461,-2.701852 2.116768,-2.701852"
   sodipodi:nodetypes="cssssscsc" /><path
   inkscape:connector-curvature="0"
   id="path2080"
   style="fill:none;stroke:#ae7009;stroke-width:1.16541159;stroke-linecap:butt;stroke-linejoin:miter;stroke-miterlimit:3.86400008;stroke-dasharray:none;stroke-opacity:1"
   d="M 107.06846,95.828824 V 80.345499 h 39.69535 v 15.559433" /><g
   id="g1874"
   transform="matrix(4.7567818,0,0,-4.7567818,-419.55057,3946.859)"><g
     id="g1880"><g
       id="g1882"><g
         clip-path="url(#clipPath1888)"
         id="g1884"><path
           inkscape:connector-curvature="0"
           id="path1896"
           style="fill:url(#linearGradient1894);stroke:none"
           d="m 110.736,807.575 h 8.32 v 5.291 h -8.32 z" /></g></g></g></g><path
   inkscape:connector-curvature="0"
   id="path2156"
   style="fill:#62251b;fill-opacity:1;fill-rule:evenodd;stroke:none;stroke-width:4.75678158"
   d="m 135.18437,95.10722 h 17.79512 c 1.80758,0 3.28218,1.203466 3.28218,2.701852 l 1.14163,7.220798 c 0,1.48887 -1.46509,2.69709 -3.26791,2.69709 h -18.95102 c -1.79806,0 -3.26791,-1.20822 -3.26791,-2.69709 v -7.220798 c 0,-1.498386 1.46985,-2.701852 3.26791,-2.701852" /><path
   inkscape:connector-curvature="0"
   id="path2160"
   style="fill:#62251b;fill-opacity:1;fill-rule:evenodd;stroke:none;stroke-width:4.75678158"
   d="m 86.113892,97.824294 c 0,-1.498386 1.465089,-2.701852 3.263152,-2.701852 H 105.6595 c 1.82185,0 3.28694,1.203466 3.28694,2.701852 v 7.216036 c 0,1.49839 -1.46509,2.69234 -3.28694,2.69234 H 89.377044 c -1.798063,0 -3.263152,-1.19395 -3.263152,-2.69234 z" /><path
   inkscape:connector-curvature="0"
   id="path2164"
   style="fill:#7ad3dc;fill-opacity:1;fill-rule:nonzero;stroke:none;stroke-width:4.75678158"
   d="m 97.19862,153.16279 c 0.751572,-16.22538 2.249958,-16.86755 6.37408,-16.86755 5.57019,0 6.31225,7.82967 5.8556,12.59596 3.26315,-5.67484 -0.57557,-15.53565 -4.69494,-15.58797 -2.30228,-0.0238 -3.80067,0.29016 -5.660568,1.62682 0.114163,-2.36888 0.65168,-5.20392 2.996768,-5.28479 2.19763,-0.0713 3.67224,9.2567 4.10035,12.43899 1.22725,-2.8731 1.97406,-14.52721 -3.83873,-15.38819 -2.706601,-0.39481 -4.214501,2.34509 -5.13256,4.97084 z" /><path
   inkscape:connector-curvature="0"
   id="path2168"
   style="fill:#2590cf;fill-opacity:1;fill-rule:evenodd;stroke:none;stroke-width:4.75678158"
   d="m 109.09866,149.77596 c 0,-0.18551 0.16648,-0.34724 0.36151,-0.34724 0.21881,0 0.36627,0.16173 0.36627,0.34724 0,0.20455 -0.14746,0.36628 -0.36627,0.36628 -0.19503,0 -0.36151,-0.16173 -0.36151,-0.36628" /><path
   inkscape:connector-curvature="0"
   id="path2172"
   style="fill:#2590cf;fill-opacity:1;fill-rule:evenodd;stroke:none;stroke-width:4.75678158"
   d="m 109.09866,151.10786 c 0,-0.21881 0.16648,-0.41384 0.36151,-0.41384 0.21881,0 0.36627,0.19503 0.36627,0.41384 0,0.20454 -0.14746,0.3853 -0.36627,0.3853 -0.19503,0 -0.36151,-0.18076 -0.36151,-0.3853" /><path
   inkscape:connector-curvature="0"
   id="path2176"
   style="fill:#2590cf;fill-opacity:1;fill-rule:evenodd;stroke:none;stroke-width:4.75678158"
   d="m 109.09866,152.41645 c 0,-0.19978 0.16648,-0.36627 0.36151,-0.36627 0.21881,0 0.36627,0.16649 0.36627,0.36627 0,0.18552 -0.14746,0.35201 -0.36627,0.35201 -0.19503,0 -0.36151,-0.16649 -0.36151,-0.35201" /><path
   inkscape:connector-curvature="0"
   id="path2180"
   style="fill:#7ad3dc;fill-opacity:1;fill-rule:nonzero;stroke:none;stroke-width:4.75678158"
   d="m 97.19862,153.16279 c -0.171244,-16.71533 -2.249957,-16.86755 -6.364574,-16.86755 -5.574948,0 -6.336033,7.82967 -5.860355,12.59596 -1.993091,-11.12135 0.618382,-14.84116 4.694944,-15.58797 2.273742,-0.4186 3.810182,0.29016 5.66057,1.62682 -0.104649,-1.87893 -0.537516,-3.81018 -2.892123,-3.88629 -2.20239,-0.0666 -2.654284,5.10878 -3.068124,8.28631 -0.09038,-3.62467 -2.563906,-10.08913 3.234611,-10.9406 2.692339,-0.39957 3.648452,1.28909 4.595051,3.27743 z" /><path
   inkscape:connector-curvature="0"
   id="path2184"
   style="fill:#2590cf;fill-opacity:1;fill-rule:evenodd;stroke:none;stroke-width:4.75678158"
   d="m 105.7789,142.86151 c 0,-0.19979 0.15697,-0.34725 0.36151,-0.34725 0.21406,0 0.38055,0.14746 0.38055,0.34725 0,0.19502 -0.16649,0.35675 -0.38055,0.35675 -0.20454,0 -0.36151,-0.16173 -0.36151,-0.35675" /><path
   inkscape:connector-curvature="0"
   id="path2188"
   style="fill:#2590cf;fill-opacity:1;fill-rule:evenodd;stroke:none;stroke-width:4.75678158"
   d="m 105.7789,144.17438 c 0,-0.22357 0.15697,-0.39957 0.36151,-0.39957 0.21406,0 0.38055,0.176 0.38055,0.39957 0,0.21881 -0.16649,0.39957 -0.38055,0.39957 -0.20454,0 -0.36151,-0.18076 -0.36151,-0.39957" /><path
   inkscape:connector-curvature="0"
   id="path2192"
   style="fill:#2590cf;fill-opacity:1;fill-rule:evenodd;stroke:none;stroke-width:4.75678158"
   d="m 105.7789,145.4882 c 0,-0.20454 0.15697,-0.36151 0.36151,-0.36151 0.21406,0 0.38055,0.15697 0.38055,0.36151 0,0.19503 -0.16649,0.35676 -0.38055,0.35676 -0.20454,0 -0.36151,-0.16173 -0.36151,-0.35676" /><path
   inkscape:connector-curvature="0"
   id="path2196"
   style="fill:#2590cf;fill-opacity:1;fill-rule:evenodd;stroke:none;stroke-width:4.75678158"
   d="m 105.8179,146.74589 c 0,-0.19502 0.176,-0.35675 0.37579,-0.35675 0.20454,0 0.37103,0.16173 0.37103,0.35675 0,0.19979 -0.16649,0.35201 -0.37103,0.35201 -0.19979,0 -0.37579,-0.15222 -0.37579,-0.35201" /><path
   inkscape:connector-curvature="0"
   id="path2200"
   style="fill:#2590cf;fill-opacity:1;fill-rule:evenodd;stroke:none;stroke-width:4.75678158"
   d="m 105.8179,148.06019 c 0,-0.21881 0.176,-0.40432 0.37579,-0.40432 0.20454,0 0.37103,0.18551 0.37103,0.40432 0,0.21881 -0.16649,0.39957 -0.37103,0.39957 -0.19979,0 -0.37579,-0.18076 -0.37579,-0.39957" /><path
   inkscape:connector-curvature="0"
   id="path2204"
   style="fill:#2590cf;fill-opacity:1;fill-rule:evenodd;stroke:none;stroke-width:4.75678158"
   d="m 105.8179,149.37021 c 0,-0.19027 0.176,-0.352 0.37579,-0.352 0.20454,0 0.37103,0.16173 0.37103,0.352 0,0.19979 -0.16649,0.36152 -0.37103,0.36152 -0.19979,0 -0.37579,-0.16173 -0.37579,-0.36152" /><path
   inkscape:connector-curvature="0"
   id="path2208"
   style="fill:#2590cf;fill-opacity:1;fill-rule:evenodd;stroke:none;stroke-width:4.75678158"
   d="m 88.90089,140.23671 c 0,-0.19502 0.161731,-0.352 0.375786,-0.352 0.204542,0 0.375786,0.15698 0.375786,0.352 0,0.19979 -0.171244,0.36152 -0.375786,0.36152 -0.214055,0 -0.375786,-0.16173 -0.375786,-0.36152" /><path
   inkscape:connector-curvature="0"
   id="path2212"
   style="fill:#2590cf;fill-opacity:1;fill-rule:evenodd;stroke:none;stroke-width:4.75678158"
   d="m 88.90089,141.54721 c 0,-0.21881 0.161731,-0.39957 0.375786,-0.39957 0.204542,0 0.375786,0.18076 0.375786,0.39957 0,0.2093 -0.171244,0.39005 -0.375786,0.39005 -0.214055,0 -0.375786,-0.18075 -0.375786,-0.39005" /><path
   inkscape:connector-curvature="0"
   id="path2216"
   style="fill:#2590cf;fill-opacity:1;fill-rule:evenodd;stroke:none;stroke-width:4.75678158"
   d="m 88.90089,142.85057 c 0,-0.19028 0.161731,-0.34725 0.375786,-0.34725 0.204542,0 0.375786,0.15697 0.375786,0.34725 0,0.19502 -0.171244,0.36627 -0.375786,0.36627 -0.214055,0 -0.375786,-0.17125 -0.375786,-0.36627" /><path
   inkscape:connector-curvature="0"
   id="path2220"
   style="fill:#2590cf;fill-opacity:1;fill-rule:evenodd;stroke:none;stroke-width:4.75678158"
   d="m 88.947507,144.12491 c 0,-0.19979 0.176001,-0.37579 0.380542,-0.37579 0.195028,0 0.366272,0.176 0.366272,0.37579 0,0.19027 -0.171244,0.36151 -0.366272,0.36151 -0.204541,0 -0.380542,-0.17124 -0.380542,-0.36151" /><path
   inkscape:connector-curvature="0"
   id="path2224"
   style="fill:#2590cf;fill-opacity:1;fill-rule:evenodd;stroke:none;stroke-width:4.75678158"
   d="m 88.947507,145.42494 c 0,-0.21882 0.176001,-0.39006 0.380542,-0.39006 0.195028,0 0.366272,0.17124 0.366272,0.39006 0,0.21881 -0.171244,0.40432 -0.366272,0.40432 -0.204541,0 -0.380542,-0.18551 -0.380542,-0.40432" /><path
   inkscape:connector-curvature="0"
   id="path2228"
   style="fill:#2590cf;fill-opacity:1;fill-rule:evenodd;stroke:none;stroke-width:4.75678158"
   d="m 88.947507,146.74589 c 0,-0.19502 0.176001,-0.35675 0.380542,-0.35675 0.195028,0 0.366272,0.16173 0.366272,0.35675 0,0.19979 -0.171244,0.34725 -0.366272,0.34725 -0.204541,0 -0.380542,-0.14746 -0.380542,-0.34725" /><path
   inkscape:connector-curvature="0"
   id="path2128"
   style="fill:none;stroke:#4da52c;stroke-width:0.69567931;stroke-linecap:butt;stroke-linejoin:miter;stroke-miterlimit:3.86400008;stroke-dasharray:none;stroke-opacity:1"
   d="m 96.03416,42.414921 c -0.799139,-1.897956 -2.064443,-3.03007 -4.076562,-3.510505 -3.225098,-0.799139 -6.597656,1.536441 -6.997226,4.828134 -1.584008,-3.5771 0.599355,-8.077016 4.400023,-9.033129 2.249958,-0.5613 4.005211,-0.166487 5.774733,1.322385 -1.427034,-3.424883 -4.067048,-5.284784 -7.767824,-5.479812 -2.944448,-0.156974 -4.980351,0.665949 -7.001983,2.806501 0.313948,-3.795912 3.020556,-6.573873 6.797441,-7.001983 2.568662,-0.29492 4.599808,-0.656436 6.236141,1.312872 -2.321309,-3.45818 -5.860355,-5.398947 -10.426866,-5.670084 -1.645846,-0.09038 -2.606716,-0.0048 -4.200238,0.39957 2.192876,-3.025314 6.288466,-4.166941 8.585991,-4.266834 5.35138,-0.252109 8.79529,4.875702 9.199616,6.069654 -0.704003,-3.106179 -0.85622,-4.970837 -0.608868,-8.153124 0.290164,-3.610397 1.38898,-5.479813 2.278499,-8.990318 0.894275,3.510505 2.097743,5.379921 2.278493,8.990318 0.13795,2.582932 -0.0143,4.086076 -0.599349,6.5929 0.390059,-1.193953 3.596119,-4.185968 6.602409,-4.50943 2.2785,-0.252109 6.12198,0.223569 8.59075,2.716123 -1.55071,-0.54703 -2.58294,-0.661193 -4.205,-0.39957 -2.6305,0.39957 -4.25732,1.412764 -5.789,3.596127 1.4746,-0.751571 2.53536,-0.96087 4.19072,-0.799139 3.78164,0.380542 6.53106,3.201314 6.79269,6.997226 -1.98834,-2.154822 -4.05754,-2.982502 -6.98772,-2.801745 -3.81969,0.242596 -6.58338,2.349851 -7.7916,5.984032 1.8932,-1.255791 3.62466,-1.503143 5.789,-0.789626 3.37256,1.103573 5.26576,4.542727 4.39527,7.986637 -1.26055,-2.825529 -3.92911,-4.24305 -6.99247,-3.791155 -3.10618,0.466164 -4.809105,2.468769 -5.15635,5.593975 z" /><path
   inkscape:connector-curvature="0"
   id="path2096"
   style="fill:none;stroke:#231f20;stroke-width:0.69449013;stroke-linecap:butt;stroke-linejoin:miter;stroke-miterlimit:3.86400008;stroke-dasharray:none;stroke-opacity:1"
   d="M 99.040446,42.624695 H 98.912013" /><path
   inkscape:connector-curvature="0"
   id="path2100"
   style="fill:none;stroke:#231f20;stroke-width:0.69449013;stroke-linecap:butt;stroke-linejoin:miter;stroke-miterlimit:3.86400008;stroke-dasharray:none;stroke-opacity:1"
   d="m 99.107517,42.624695 h -0.06659" /><path
   inkscape:connector-curvature="0"
   id="path2104"
   style="fill:none;stroke:#231f20;stroke-width:0.69449013;stroke-linecap:butt;stroke-linejoin:miter;stroke-miterlimit:3.86400008;stroke-dasharray:none;stroke-opacity:1"
   d="m 99.216923,42.624695 h -0.05708" /><path
   inkscape:connector-curvature="0"
   id="path2108"
   style="fill:none;stroke:#ae7009;stroke-width:0.69449013;stroke-linecap:butt;stroke-linejoin:miter;stroke-miterlimit:3.86400008;stroke-dasharray:none;stroke-opacity:1"
   d="m 99.406719,42.661322 -0.299678,-0.03805" /><path
   inkscape:connector-curvature="0"
   id="path2112"
   style="fill:none;stroke:#ae7009;stroke-width:0.69449013;stroke-linecap:butt;stroke-linejoin:miter;stroke-miterlimit:3.86400008;stroke-dasharray:none;stroke-opacity:1"
   d="M 99.293983,42.624695 H 99.108468" /><path
   inkscape:connector-curvature="0"
   id="path2116"
   style="fill:none;stroke:#ae7009;stroke-width:0.69449013;stroke-linecap:butt;stroke-linejoin:miter;stroke-miterlimit:3.86400008;stroke-dasharray:none;stroke-opacity:1"
   d="m 99.160317,42.624695 h -0.05232" /><path
   inkscape:connector-curvature="0"
   id="path2120"
   style="fill:none;stroke:#ae7009;stroke-width:0.69449013;stroke-linecap:butt;stroke-linejoin:miter;stroke-miterlimit:3.86400008;stroke-dasharray:none;stroke-opacity:1"
   d="M 99.216923,42.624695 H 98.983841" /><path
   inkscape:connector-curvature="0"
   id="path2124"
   style="fill:#008e43;fill-opacity:1;fill-rule:evenodd;stroke:none;stroke-width:4.75678158"
   d="m 96.03416,42.414921 c -0.799139,-1.897956 -2.064443,-3.03007 -4.076562,-3.510505 -3.225098,-0.799139 -6.597656,1.536441 -6.997226,4.828134 -1.584008,-3.5771 0.599355,-8.077016 4.400023,-9.033129 2.249958,-0.5613 4.005211,-0.166487 5.774733,1.322385 -1.427034,-3.424883 -4.067048,-5.284784 -7.767824,-5.479812 -2.944448,-0.156974 -4.980351,0.665949 -7.001983,2.806501 0.313948,-3.795912 3.020556,-6.573873 6.797441,-7.001983 2.568662,-0.29492 4.599808,-0.656436 6.236141,1.312872 -2.321309,-3.45818 -5.860355,-5.398947 -10.426866,-5.670084 -1.645846,-0.09038 -2.606716,-0.0048 -4.200238,0.39957 2.192876,-3.025314 6.288466,-4.166941 8.585991,-4.266834 5.35138,-0.252109 8.79529,4.875702 9.199616,6.069654 -0.704003,-3.106179 -0.85622,-4.970837 -0.608868,-8.153124 0.290164,-3.610397 1.38898,-5.479813 2.278499,-8.990318 0.894275,3.510505 2.097743,5.379921 2.278493,8.990318 0.13795,2.582932 -0.0143,4.086076 -0.599349,6.5929 0.390059,-1.193953 3.596119,-4.185968 6.602409,-4.50943 2.2785,-0.252109 6.12198,0.223569 8.59075,2.716123 -1.55071,-0.54703 -2.58294,-0.661193 -4.205,-0.39957 -2.6305,0.39957 -4.25732,1.412764 -5.789,3.596127 1.4746,-0.751571 2.53536,-0.96087 4.19072,-0.799139 3.78164,0.380542 6.53106,3.201314 6.79269,6.997226 -1.98834,-2.154822 -4.05754,-2.982502 -6.98772,-2.801745 -3.81969,0.242596 -6.58338,2.349851 -7.7916,5.984032 1.8932,-1.255791 3.62466,-1.503143 5.789,-0.789626 3.37256,1.103573 5.26576,4.542727 4.39527,7.986637 -1.26055,-2.825529 -3.92911,-4.24305 -6.99247,-3.791155 -3.10618,0.466164 -4.809105,2.468769 -5.15635,5.593975 z" /><path
   inkscape:connector-curvature="0"
   id="path2086"
   style="fill:none;stroke:#ae7009;stroke-width:1.16541159;stroke-linecap:butt;stroke-linejoin:miter;stroke-miterlimit:3.86400008;stroke-dasharray:none;stroke-opacity:1"
   d="m 110.74736,83.713776 h 13.52353 v 8.452802 h -13.52353 z" /><path
   d="m 110.74498,83.714728 h 13.52353 v 8.452801 h -13.52353 z"
   style="fill:#ffffff;fill-opacity:1;fill-rule:evenodd;stroke:none;stroke-width:4.75678158"
   id="path2082"
   inkscape:connector-curvature="0" /><path
   inkscape:connector-curvature="0"
   id="path2092"
   style="fill:none;stroke:#ae7009;stroke-width:1.16541159;stroke-linecap:butt;stroke-linejoin:miter;stroke-miterlimit:3.86400008;stroke-dasharray:none;stroke-opacity:1"
   d="m 51.633883,83.713776 h 31.2473 v 5.080243 h -31.2473 z" /><path
   d="m 51.632456,83.714728 h 31.2473 v 5.080243 h -31.2473 z"
   style="fill:#ffffff;fill-opacity:1;fill-rule:evenodd;stroke:none;stroke-width:4.75678158"
   id="path2088"
   inkscape:connector-curvature="0" /><path
   inkscape:connector-curvature="0"
   id="path2024"
   style="fill:#ae7009;fill-opacity:1;fill-rule:evenodd;stroke:none;stroke-width:4.75678158"
   d="m 137.18983,51.982712 3.44391,1.636333 c -0.5946,28.711935 -1.11784,39.138801 0.56606,39.138801 h -5.16587 c 1.66963,0 1.1559,-22.295037 1.1559,-40.775134" /><path
   d="m 144.41966,53.160491 c -1.24152,-0.03805 -2.12628,0.02378 -3.13472,0.275893 l -5.17062,-0.02854 c -1.13211,-0.223569 -2.02163,-0.285407 -3.31072,-0.247353 -2.40217,0.09038 -3.87677,0.528003 -5.9317,1.807577 0.41859,-2.773204 2.26422,-4.666403 5.02791,-5.165865 1.35569,-0.237839 2.22618,-0.137947 3.48197,0.385299 -0.9133,-2.040659 -2.5211,-3.120448 -4.7663,-3.220341 -1.92649,-0.08086 -3.31547,0.54703 -4.51894,2.073957 -0.65168,-3.115692 1.19395,-6.131492 4.25732,-6.963928 3.2251,-0.894275 6.61193,1.127357 7.35874,4.390509 -0.20454,-2.316553 -0.22832,-3.629424 -0.12843,-5.950734 0.12843,-3.087151 0.35676,-4.842404 1.02271,-7.867717 0.69924,3.025313 0.89903,4.780566 1.03222,7.867717 0.0999,2.32131 0.0666,3.634181 -0.13319,5.950734 0.76108,-3.263152 4.1384,-5.284784 7.37777,-4.390509 3.06812,0.832436 4.90424,3.848236 4.25256,6.963928 -1.20822,-1.526927 -2.57342,-2.154822 -4.51894,-2.073957 -2.2452,0.09989 -3.85775,1.179682 -4.78057,3.220341 1.26531,-0.523246 2.14531,-0.623138 3.49148,-0.385299 2.75893,0.499462 4.61408,2.392661 5.02792,5.165865 -2.05969,-1.279574 -3.50575,-1.717198 -5.93647,-1.807577"
   style="fill:#008e43;fill-opacity:1;fill-rule:evenodd;stroke:#4da52c;stroke-width:0.69567931;stroke-miterlimit:4;stroke-dasharray:none;stroke-opacity:1"
   id="path61378"
   inkscape:connector-curvature="0" /><path
   inkscape:connector-curvature="0"
   id="path2140"
   style="fill:#008e43;fill-opacity:1;fill-rule:evenodd;stroke:none;stroke-width:4.75678158"
   d="m 144.41966,53.160491 c -1.24152,-0.03805 -2.12628,0.02378 -3.13472,0.275893 l -5.17062,-0.02854 c -1.13211,-0.223569 -2.02163,-0.285407 -3.31072,-0.247353 -2.40217,0.09038 -3.87677,0.528003 -5.9317,1.807577 0.41859,-2.773204 2.26422,-4.666403 5.02791,-5.165865 1.35569,-0.237839 2.22618,-0.137947 3.48197,0.385299 -0.9133,-2.040659 -2.5211,-3.120448 -4.7663,-3.220341 -1.92649,-0.08086 -3.31547,0.54703 -4.51894,2.073957 -0.65168,-3.115692 1.19395,-6.131492 4.25732,-6.963928 3.2251,-0.894275 6.61193,1.127357 7.35874,4.390509 -0.20454,-2.316553 -0.22832,-3.629424 -0.12843,-5.950734 0.12843,-3.087151 0.35676,-4.842404 1.02271,-7.867717 0.69924,3.025313 0.89903,4.780566 1.03222,7.867717 0.0999,2.32131 0.0666,3.634181 -0.13319,5.950734 0.76108,-3.263152 4.1384,-5.284784 7.37777,-4.390509 3.06812,0.832436 4.90424,3.848236 4.25256,6.963928 -1.20822,-1.526927 -2.57342,-2.154822 -4.51894,-2.073957 -2.2452,0.09989 -3.85775,1.179682 -4.78057,3.220341 1.26531,-0.523246 2.14531,-0.623138 3.49148,-0.385299 2.75893,0.499462 4.61408,2.392661 5.02792,5.165865 -2.05969,-1.279574 -3.50575,-1.717198 -5.93647,-1.807577" /><path
   inkscape:connector-curvature="0"
   id="path2144"
   style="fill:#ae7009;fill-opacity:1;fill-rule:evenodd;stroke:none;stroke-width:4.75678158"
   d="m 56.262232,51.982712 3.424883,1.636333 c -0.589841,28.711935 -1.098817,39.138801 0.585084,39.138801 h -5.180135 c 1.674387,0 1.170168,-22.295037 1.170168,-40.775134" /><path
   d="m 63.482551,53.160491 c -1.24152,-0.03805 -2.126281,0.02378 -3.144233,0.275893 l -5.165865,-0.02854 c -1.117844,-0.223569 -2.031146,-0.285407 -3.301206,-0.247353 -2.416446,0.09038 -3.881534,0.528003 -5.936464,1.807577 0.418597,-2.773204 2.254715,-4.666403 5.027918,-5.165865 1.350926,-0.237839 2.230931,-0.137947 3.496235,0.385299 -0.932329,-2.040659 -2.535365,-3.120448 -4.790079,-3.220341 -1.92174,-0.08086 -3.305964,0.54703 -4.495159,2.073957 -0.675463,-3.115692 1.170168,-6.131492 4.252563,-6.963928 3.210828,-0.894275 6.602413,1.127357 7.339714,4.390509 -0.176001,-2.316553 -0.204541,-3.629424 -0.118919,-5.950734 0.137946,-3.087151 0.352001,-4.842404 1.036978,-7.867717 0.665949,3.025313 0.889518,4.780566 1.022708,7.867717 0.109406,2.32131 0.07135,3.634181 -0.13319,5.950734 0.751572,-3.263152 4.128887,-5.284784 7.353985,-4.390509 3.072881,0.832436 4.918512,3.848236 4.25732,6.963928 -1.193953,-1.526927 -2.578176,-2.154822 -4.518943,-2.073957 -2.240444,0.09989 -3.838723,1.179682 -4.766295,3.220341 1.265303,-0.523246 2.135795,-0.623138 3.477207,-0.385299 2.768447,0.499462 4.614078,2.392661 5.042189,5.165865 -2.059687,-1.279574 -3.520019,-1.717198 -5.936464,-1.807577"
   style="fill:none;fill-opacity:1;fill-rule:evenodd;stroke:#4da52c;stroke-width:0.69567931;stroke-miterlimit:4;stroke-dasharray:none;stroke-opacity:1"
   id="path61376"
   inkscape:connector-curvature="0" /><path
   inkscape:connector-curvature="0"
   id="path2148"
   style="fill:#008e43;fill-opacity:1;fill-rule:evenodd;stroke:none;stroke-width:4.75678158"
   d="m 63.482551,53.160491 c -1.24152,-0.03805 -2.126281,0.02378 -3.144233,0.275893 l -5.165865,-0.02854 c -1.117844,-0.223569 -2.031146,-0.285407 -3.301206,-0.247353 -2.416446,0.09038 -3.881534,0.528003 -5.936464,1.807577 0.418597,-2.773204 2.254715,-4.666403 5.027918,-5.165865 1.350926,-0.237839 2.230931,-0.137947 3.496235,0.385299 -0.932329,-2.040659 -2.535365,-3.120448 -4.790079,-3.220341 -1.92174,-0.08086 -3.305964,0.54703 -4.495159,2.073957 -0.675463,-3.115692 1.170168,-6.131492 4.252563,-6.963928 3.210828,-0.894275 6.602413,1.127357 7.339714,4.390509 -0.176001,-2.316553 -0.204541,-3.629424 -0.118919,-5.950734 0.137946,-3.087151 0.352001,-4.842404 1.036978,-7.867717 0.665949,3.025313 0.889518,4.780566 1.022708,7.867717 0.109406,2.32131 0.07135,3.634181 -0.13319,5.950734 0.751572,-3.263152 4.128887,-5.284784 7.353985,-4.390509 3.072881,0.832436 4.918512,3.848236 4.25732,6.963928 -1.193953,-1.526927 -2.578176,-2.154822 -4.518943,-2.073957 -2.240444,0.09989 -3.838723,1.179682 -4.766295,3.220341 1.265303,-0.523246 2.135795,-0.623138 3.477207,-0.385299 2.768447,0.499462 4.614078,2.392661 5.042189,5.165865 -2.059687,-1.279574 -3.520019,-1.717198 -5.936464,-1.807577" /></svg>