<?xml version="1.0"?>
<svg height="128" width="128" xmlns="http://www.w3.org/2000/svg" xmlns:xlink="http://www.w3.org/1999/xlink">
<defs>
<linearGradient id="n" gradientTransform="matrix(2.144 0 0 2.152 2.59 2.34)" gradientUnits="userSpaceOnUse" x1="36.92" x2="19.07" y1="66.29" y2="5.54">
<stop offset="0" stop-color="#a40000"/>
<stop offset="1" stop-color="#ff1717"/>
</linearGradient>
<linearGradient id="m" gradientTransform="matrix(1.994 0 0 2.002 1.31 .52)" gradientUnits="userSpaceOnUse" x1="43.94" x2="20.06" y1="53.84" y2="-8.56">
<stop offset="0" stop-color="#ffe69b"/>
<stop offset="1" stop-color="#fff"/>
</linearGradient>
<linearGradient id="l" gradientTransform="matrix(2.336 0 0 2.345 -3.09 .11)" gradientUnits="userSpaceOnUse" x1="21.99" x2="20.92" y1="33.96" y2="15.81">
<stop offset="0" stop-color="#fffeff" stop-opacity=".33"/>
<stop offset="1" stop-color="#fffeff" stop-opacity=".22"/>
</linearGradient>
<radialGradient id="b" cx="92.96" cy="19.92" gradientTransform="matrix(.3319 0 0 .3285 47 48.28)" gradientUnits="userSpaceOnUse" r="176.5">
<stop offset=".0056" stop-color="#fff"/>
<stop offset=".45" stop-color="#94caff"/>
<stop offset=".6" stop-color="#c9e6ff"/>
<stop offset="1" stop-color="#fff"/>
</radialGradient>
<radialGradient id="a" cx="92.63" cy="20.06" gradientTransform="matrix(-.2347 .2323 .2347 .2323 96.41 36.05)" gradientUnits="userSpaceOnUse" r="176.5">
<stop offset=".0056" stop-color="#0035ed"/>
<stop offset=".5674" stop-color="#94caff"/>
<stop offset=".7079" stop-color="#c9e6ff"/>
<stop offset="1" stop-color="#034cfe"/>
</radialGradient>
<linearGradient id="k" gradientTransform="matrix(.3319 0 0 .3285 47 48.28)" gradientUnits="userSpaceOnUse" x1="27.74" x2="169.1" y1="98.41" y2="98.41">
<stop offset="0" stop-color="#fff"/>
<stop offset="1" stop-color="#494949"/>
</linearGradient>
<linearGradient id="j" gradientTransform="matrix(-.2347 .2323 .1934 .1914 103.3 42.84)" gradientUnits="userSpaceOnUse" x1="134.8" x2="124.6" y1="149.9" y2="149.9">
<stop offset="0" stop-color="#b2b2b2"/>
<stop offset="1" stop-color="#fff"/>
</linearGradient>
<linearGradient id="i" gradientTransform="matrix(-.2347 .2323 .2347 .2323 96.41 36.05)" gradientUnits="userSpaceOnUse" x1="131.6" x2="131.6" y1="-4.03" y2="211">
<stop offset="0" stop-color="#dadada"/>
<stop offset=".6124" stop-color="#949494"/>
<stop offset="1" stop-color="#dadada"/>
</linearGradient>
<linearGradient id="h" gradientTransform="matrix(.3319 0 0 .3285 47 48.28)" gradientUnits="userSpaceOnUse" x1="182.1" x2="164.1" y1="182.1" y2="164.1">
<stop offset="0" stop-color="#ffd700"/>
<stop offset="1" stop-color="#fff"/>
</linearGradient>
<linearGradient id="g" gradientTransform="matrix(-.4063 -.0423 .0428 .4022 127.7 34.84)" gradientUnits="userSpaceOnUse" x1="48.53" x2="64.11" y1="194.8" y2="210.4">
<stop offset="0" stop-color="#ff6"/>
<stop offset="1" stop-color="#ff6d00"/>
</linearGradient>
<linearGradient id="f" gradientTransform="matrix(-.3319 0 0 .3285 132.6 48.28)" gradientUnits="userSpaceOnUse" x1="47.96" x2="69.61" y1="190.2" y2="211.9">
<stop offset="0" stop-color="#ffc957"/>
<stop offset="1" stop-color="#ff6d00"/>
</linearGradient>
<linearGradient id="e" gradientTransform="matrix(.3319 0 0 .3285 47 48.28)" gradientUnits="userSpaceOnUse" x1="17.17" x2="181" y1="99.1" y2="99.1">
<stop offset="0" stop-color="#a2a2a2"/>
<stop offset="1" stop-color="#494949"/>
</linearGradient>
<linearGradient id="d" gradientTransform="matrix(.3319 0 0 .3285 47 48.28)" gradientUnits="userSpaceOnUse" x1="15.17" x2="183" y1="99.1" y2="99.1">
<stop offset="0" stop-color="#494949"/>
<stop offset=".5" stop-color="#616161"/>
<stop offset="1"/>
</linearGradient>
<linearGradient id="c" gradientTransform="matrix(.3319 0 0 .3285 47 48.28)" gradientUnits="userSpaceOnUse" x1="196.7" x2="196.7" y1="248.7" y2="149.5">
<stop offset="0" stop-color="#7c0000"/>
<stop offset="1" stop-color="#cf0000"/>
</linearGradient>
<radialGradient id="s" cx="21.85" cy="40.01" gradientTransform="matrix(2.493 0 0 .6135 0 77.25)" gradientUnits="userSpaceOnUse" r="17.14">
<stop offset="0"/>
<stop offset="1" stop-opacity="0"/>
</radialGradient>
</defs>
<ellipse cx="54.48" cy="101.8" fill="url(#s)" opacity=".6" rx="42.74" ry="10.52" stroke-width="1.75"/>
<ellipse cx="52.97" cy="53.84" fill="url(#n)" rx="50.07" ry="50.27" stroke="#b20000" stroke-width="2.33"/>
<ellipse cx="52.97" cy="53.84" fill="none" opacity=".35" rx="47.83" ry="48.03" stroke="url(#m)" stroke-width="2.33"/>
<path d="m98.22 51.04c0 25.4-24.19-14.7-43.62.91-18.98 15.24-48.11 28.59-48.11 3.19 0-26 20.31-50.11 45.61-50.11s46.12 20.62 46.12 46.02z" fill="url(#l)"/>
<text fill="#fff" font-family="DejaVu Sans" font-size="7.52" font-weight="bold" stroke="#c00" transform="scale(.98 1.02)" x="27.36" y="92.2"><tspan font-size="98.43" x="27.36" y="92.2">?</tspan></text>
<path d="m60.11 61.26c-10.78 10.67-10.78 28.02 0 38.69 4.68 4.63 10.89 7.45 17.47 7.94 6.37.47 12.71-1.29 17.93-4.93.66.65 4.61 4.56 4.61 4.56 1.45 1.43 3.98 1.08 5.9-.82 1.13-1.12 1.71-2.44 1.71-3.64 0-.84-.29-1.61-.89-2.2 0 0-3.95-3.91-4.61-4.56 3.28-4.61 5.05-10.11 5.05-15.73 0-.67-.02-1.35-.08-2.02-.49-6.52-3.34-12.66-8.02-17.29-10.78-10.67-28.31-10.67-39.09 0z" fill="url(#d)"/>
<path d="m100.2 100.9c-1.65 1.63-2.52 3.62-2.52 5.37 0 1.03.3 1.99.93 2.75l.02.02.02.05 17.3 17.12c2 1.98 5.73 1.4 8.49-1.33 2.76-2.73 3.35-6.42 1.34-8.4l-17.32-17.14-.04-.01c-2.07-1.7-5.6-1.03-8.22 1.56z" fill="url(#c)"/>
<path d="m61.05 62.19c-4.96 4.91-7.69 11.45-7.69 18.42 0 6.96 2.73 13.5 7.69 18.42 4.46 4.41 10.36 7.09 16.63 7.55 6.25.46 12.47-1.31 17.52-4.99l.46-.33 5.4 5.34c.91.9 2.64.55 4.02-.82 1.38-1.37 1.74-3.08.83-3.98l-5.4-5.34.34-.45c3.72-5 5.51-11.16 5.04-17.34-.47-6.2-3.18-12.05-7.63-16.46-10.26-10.15-26.95-10.15-37.21 0z" fill="url(#e)"/>
<path d="m107.3 100.8l17.09 16.92c1.26 1.24.65 3.86-1.34 5.83-2 1.98-4.64 2.57-5.89 1.33l-17.09-16.92 7.24-7.16z" fill="url(#f)"/>
<path d="m107.1 101.5l16.66 16.49c1.22 1.21.94 3.46-.64 5.02-1.58 1.56-3.85 1.84-5.07.63l-16.66-16.49 5.71-5.65z" fill="url(#g)"/>
<path d="m107.3 100.8c1.26 1.24.65 3.86-1.35 5.83-2 1.98-4.64 2.57-5.89 1.33-1.26-1.24-.65-3.85 1.34-5.83 2-1.98 4.64-2.57 5.89-1.33z" fill="url(#h)"/>
<path d="m61.41 98.66c-10.08-9.98-10.08-26.15 0-36.12 10.08-9.98 26.42-9.98 36.5 0 9.38 9.28 10.03 23.93 1.95 33.96l5.7 5.64c.69.68.32 2.14-.83 3.28-1.14 1.13-2.62 1.5-3.31.82l-5.7-5.64c-10.13 8-24.93 7.35-34.31-1.93z" fill="url(#i)"/>
<path d="m99.83 97.47s5.71 5.65 6.04 5.97c-.1.25-.38.72-.95 1.28-.56.56-1.04.84-1.29.94-.32-.32-6.04-5.97-6.04-5.97l2.24-2.22z" fill="url(#j)"/>
<path d="m96.25 64.18c9.15 9.06 9.15 23.79 0 32.85-9.15 9.06-24.04 9.06-33.19 0-9.15-9.06-9.15-23.79 0-32.85 9.15-9.06 24.04-9.06 33.19 0z" fill="url(#k)"/>
<path d="m95.43 65c8.69 8.61 8.69 22.6 0 31.21-8.69 8.61-22.84 8.61-31.53 0-8.69-8.61-8.69-22.61 0-31.21 8.69-8.61 22.84-8.61 31.53 0z" fill="url(#a)"/>
<path d="m64.83 65.93c-3.95 3.91-6.13 9.13-6.13 14.68 0 5.55 2.18 10.76 6.13 14.68 8.18 8.09 21.48 8.09 29.66 0 8.18-8.09 8.18-21.26 0-29.35-8.18-8.09-21.48-8.09-29.66 0z" fill="url(#b)"/>
</svg>
