<?xml version="1.0" encoding="UTF-8" standalone="no"?>
<!-- Generator: Adobe Illustrator 15.1.0, SVG Export Plug-In . SVG Version: 6.00 Build 0)  -->

<svg
   xmlns:dc="http://purl.org/dc/elements/1.1/"
   xmlns:cc="http://creativecommons.org/ns#"
   xmlns:rdf="http://www.w3.org/1999/02/22-rdf-syntax-ns#"
   xmlns:svg="http://www.w3.org/2000/svg"
   xmlns="http://www.w3.org/2000/svg"
   xmlns:sodipodi="http://sodipodi.sourceforge.net/DTD/sodipodi-0.dtd"
   xmlns:inkscape="http://www.inkscape.org/namespaces/inkscape"
   version="1.1"
   id="Layer_1"
   x="0px"
   y="0px"
   width="1492px"
   height="2067px"
   viewBox="0 0 1492 2067"
   enable-background="new 0 0 1492 2067"
   xml:space="preserve"
   sodipodi:docname="Coat_of_arms_of_Tirat_Karmel.svg"
   inkscape:version="0.92.3 (2405546, 2018-03-11)"><metadata
   id="metadata45"><rdf:RDF><cc:Work
       rdf:about=""><dc:format>image/svg+xml</dc:format><dc:type
         rdf:resource="http://purl.org/dc/dcmitype/StillImage" /><dc:title></dc:title></cc:Work></rdf:RDF></metadata><defs
   id="defs43">
	
	
	
	
	
	
	
	
	
	
	
	
	
	
	
	

		
		
	</defs><sodipodi:namedview
   pagecolor="#ffffff"
   bordercolor="#666666"
   borderopacity="1"
   objecttolerance="10"
   gridtolerance="10"
   guidetolerance="10"
   inkscape:pageopacity="0"
   inkscape:pageshadow="2"
   inkscape:window-width="1920"
   inkscape:window-height="1005"
   id="namedview41"
   showgrid="false"
   inkscape:zoom="0.19054453"
   inkscape:cx="-1070.2931"
   inkscape:cy="1704.2444"
   inkscape:window-x="-9"
   inkscape:window-y="-9"
   inkscape:window-maximized="1"
   inkscape:current-layer="Layer_1" />
<path
   style="fill:#ffffff"
   inkscape:connector-curvature="0"
   id="path2"
   d="m 1428.083,1553.761 c 0,129.915 -157.426,279.696 -328.605,279.696 -210.919,0 -353.478,166.051 -353.478,166.051 0,0 -142.559,-166.051 -353.477,-166.051 -171.18,0 -328.605,-149.781 -328.605,-279.696 0,-129.914 0,-1164.638 0,-1164.638 h 1364.165 c 0,0 0,1034.724 0,1164.638 z" /><path
   inkscape:connector-curvature="0"
   style="fill:#008fd8;fill-opacity:1"
   id="path4"
   d="m 880.69,1325.186 c 11.497,-1.72 24.149,-2.147 36.079,-2.526 13.7,-0.436 27.604,-1.468 41.133,1 7.893,1.439 15.538,3.139 23.597,4.249 5.881,0.811 11.217,3.044 16.917,4.684 4.037,1.161 8.347,2.006 12.081,3.952 4.002,2.087 7.447,5.141 11.514,7.104 2.087,1.008 3.451,2.544 5.313,3.627 1.074,0.624 3.562,0.996 4.185,2.142 1.527,2.81 -4.015,8.202 -5.517,10.689 -4.063,6.729 -7.642,13.193 -13.738,18.498 -12.264,10.67 -33.187,7.506 -48.386,7.736 -11.751,0.178 -22.57,-4.769 -34.078,-5.267 -7.277,-0.314 -12.175,1.997 -18.973,4.179 -5.913,1.897 -11.158,4.845 -16.312,8.005 -1.468,0.899 -3.162,2.584 -4.683,3.278 -3.812,1.74 -8.705,1.723 -12.768,2.704 -7.201,1.739 -20.694,5.938 -27.664,1.423 -7.758,-5.026 -6.724,-18.882 -6.724,-26.938 0,-7.061 1.995,-13.843 3.461,-20.688 1.216,-5.681 1.286,-13.055 5.587,-17.509 2.693,-2.79 6.919,-3.382 10.289,-5.07 6.22,-3.116 11.827,-4.246 18.687,-5.272 z" /><path
   style="fill:#6d6100;fill-opacity:1"
   inkscape:connector-curvature="0"
   id="path6"
   d="m 1393.125,71 c 0,0 5.625,12.21 10.375,12.21 4.75,0 58.25,0 58.25,0 0,0 0,112.04 0,133.29 0,21.25 -17,57 -30.75,57 -13.75,0 -93.75,0 -93.75,0 0,0 -13.5,-37.75 -13.5,-56 0,-18.25 0,-75.612 0,-75.612 H 1300.5 V 71 c 0,0 3,12.21 10.25,12.21 7.25,0 49,0 49,0 v 58.677 H 1336 V 214.5 h 116.25 v -72.612 h -59.125 z" /><path
   style="fill:#6d6100;fill-opacity:1"
   inkscape:connector-curvature="0"
   id="path8"
   d="M 1226.25,83.21 H 1286 c 0,0 0,97.915 0,98.54 0,0.625 -0.625,2.125 -1.625,2.125 -1,0 -8.375,0 -8.375,0 v -41.987 h -60 V 71 c 0,0 3.5,12.21 10.25,12.21 z" /><path
   style="fill:#6d6100;fill-opacity:1"
   inkscape:connector-curvature="0"
   id="path10"
   d="m 1069.75,83.21 h 130 V 273.5 h -11.5 V 141.888 h -129 V 71 c 0,0 3,12.21 10.5,12.21 z" /><path
   style="fill:#6d6100;fill-opacity:1"
   inkscape:connector-curvature="0"
   id="path12"
   d="m 382.75,83.21 h 130 V 273.5 h -11.5 V 141.888 h -129 V 71 c 0,0 3,12.21 10.5,12.21 z" /><path
   style="fill:#6d6100;fill-opacity:1"
   inkscape:connector-curvature="0"
   id="path14"
   d="m 900.667,83.21 c -7.5,0 -10.5,-12.21 -10.5,-12.21 v 70.888 H 903.25 V 214.25 H 867 v 59.25 h 45.75 V 141.888 h 120.5 V 273.5 h 12.35 V 83.21 Z" /><path
   style="fill:#6d6100;fill-opacity:1"
   inkscape:connector-curvature="0"
   id="path16"
   d="m 543.75,83.21 c -7.5,0 -10.5,-12.21 -10.5,-12.21 v 70.888 H 673.567 V 214.25 H 528.125 v 59.25 c 0,0 102,0 118.5,0 16.5,0 38.625,-23 38.625,-51.75 V 83.21 Z" /><path
   style="fill:#6d6100;fill-opacity:1"
   d="m 178.66797,71 v 70.88867 h 54.33398 c -20.17517,46.39879 -42.33398,114.83279 -42.33398,134.7793 H 201 c 8.61029,-50.62232 23.32887,-95.14536 46.57332,-134.7793 H 344 V 214 h -93.33203 v 59.5 H 357.33398 V 141.88867 c 0,-30.333 -32.66698,-58.677733 -59.33398,-58.677732 -20.875,0 -40.56384,10.693687 -55.08984,36.429682 l -1.24219,-36.429682 h -52 c -7.333,0 -11,-12.210938 -11,-12.210938 z"
   id="path18"
   inkscape:connector-curvature="0"
   sodipodi:nodetypes="cccccccccccssccsc" /><path
   style="fill:#6d6100;fill-opacity:1"
   inkscape:connector-curvature="0"
   id="path20"
   d="m 106,273.5 c -24.667,0 -60,0 -60,0 v -59 h 96.75 V 141.888 H 3 V 3.5 H 59.75 V 59.75 H 20.25 V 83.21 H 157.5 c 0,0 0,115.79 0,135.29 0,19.5 -34.75,55 -51.5,55 z" /><path
   inkscape:connector-curvature="0"
   style="fill:#008fd8;fill-opacity:1"
   id="path22"
   d="m 147,1643 c 9.904,-3.736 18.32,-12.047 29.526,-17.496 12.981,-6.312 27.023,-9.213 40.676,-13.233 32.72,-9.636 63.874,-27.715 97.546,-38.071 57.205,-17.594 115.897,-33.482 172.21,-56.199 19.048,-7.685 41.206,-9.788 57.767,-21.53 11.026,-7.817 19.189,-16.381 25.781,-27.769 7.608,-13.146 19.5,-23.84 21.493,-38.701 1.319,-9.841 7.977,-24.487 6.667,-34.333 -1.377,-10.351 -4.374,-19.917 -8.249,-29.667 -1.483,-3.731 -1.017,-10.64 -4.5,-13.404 -4.124,-3.273 -11.731,-2.901 -16.604,-4.576 -8.687,-2.984 -17.388,-6.237 -26.528,-8.209 -20.809,-4.487 -42.734,0.291 -63.569,1.182 -7.26,0.311 -14.474,0.675 -21.776,0.675 -4.587,0 -10.031,-1.369 -12.874,2.714 -2.373,3.407 -1.965,4.712 -6.084,6.378 -3.898,1.575 -6.611,3.744 -10.214,6.178 -6.771,4.575 -16.387,11.295 -24.609,12.412 -11.092,1.508 -22.096,-0.525 -33.086,-0.895 -12.385,-0.415 -24.775,-0.703 -37.156,-1.231 -36.817,-1.571 -58.417,3.027 -111.292,-1.973 -22.651,-2.142 -43.768,-1 -66.625,-1 -11.405,0 -40.973,1.789 -49.5,9.75 l -38,4 c 0,0 -14,157 1,216 15,59 40,72 40,72 z" /><path
   style="fill:#6d3011;fill-opacity:1"
   inkscape:connector-curvature="0"
   id="path24"
   d="m 105,1668 c 0,0 53,-41.5 133,-70.5 80,-29 240.5,-73.5 292,-97.5 51.5,-24 66.5,-83 65.5,-102 -1,-19 -13.333,-46.832 -13.333,-59.665 0,-12.833 9.167,-25.832 9.167,-43.832 0,-28.333 -15.667,-4.833 -15.667,-65.666 0,-29.333 6.333,-40 22.667,-40 20,0 41.333,25.667 41.333,46 0,5.5 -2.833,8.667 -2.833,22.667 0,14 8,24.332 27.5,39.332 19.5,15 41.668,35.667 51.334,61.167 9.666,25.5 22.167,45.333 30.667,45.333 8.5,0 28.915,-12.586 35.165,-28.336 6.25,-15.75 14.5,-69.25 14.5,-114 0,-44.75 -7.334,-63.249 -13,-63.249 -5.666,0 -19.875,19.874 -19.875,37.499 0,5.875 16.625,36.875 16.625,65.375 0,11.625 -7.375,35.875 -8.875,49.75 -1.5,13.875 -4.25,28.875 -4.25,28.875 0,0 -5.293,-19.25 -17.292,-39.583 -12,-20.333 -65.334,-67.002 -85.667,-107.002 -9.333,-16 -13.333,-35.332 -17,-43.666 -3.667,-8.334 -24.667,-38 -24.667,-38 0,0 11.333,9.667 69.667,-3 58.334,-12.667 81.667,-38 81.667,-38 0,0 5.999,13.332 -11.667,31.666 -5.416,5.252 -10.666,2.835 -18.583,14.585 -7.917,11.75 -7.75,19.749 -12.75,28.083 -5,8.334 -12.583,22.167 -12.583,30.667 0,8.5 5.75,12.75 5.75,34.5 0,21.75 3.5,29.25 8,34.5 4.5,5.25 13.5,9.5 22,12 8.5,2.5 14,3.25 14,3.25 0,0 -1.5,-10 -7.75,-23 -6.25,-13 -15.5,-43 -15.5,-56.25 0,-13.25 10.25,-37 15.75,-52 5.5,-15 13,-34 13,-34 0,0 0.25,20.25 13.75,38.5 13.5,18.25 41,54.5 53.75,82.5 5.5,12 7.5,26.75 13.75,41.5 6.25,14.75 8,23.5 8,30 0,6.5 -7.25,30 -10.25,44 -3,14 -3.25,28 7.75,28 11,0 24.75,-11.75 32.25,-16.5 7.5,-4.75 26,-18.5 35.75,-18.5 9.75,0 23.25,10.5 49,10.5 47.75,0 52.5,-47.25 118,-71.5 44,-15.5 78.5,-10.75 113.5,-13.75 35,-3 71.751,-3.416 118.751,-22.416 47,-19 90.333,-47.667 90.333,-47.667 0,0 0,304.335 0,329.668 0,76.726 -70.333,276.333 -327.333,276.333 -210.917,0 -339.91,164.875 -339.91,164.875 L 744,1988.335 c 0,0 -143.333,-164 -348.333,-164 C 190.667,1824.335 105,1668 105,1668 Z" /><path
   style="fill:#bc6828"
   inkscape:connector-curvature="0"
   id="path26"
   d="m 1262.425,1726.564 c -7.367,-1.165 -15.03,-0.207 -22.536,-0.566 -16.003,-0.765 -31.386,-2.779 -47.274,-5.389 -6.685,-1.098 -13.045,-1.955 -19.316,-3.852 -8.187,-2.476 -15.042,-6.438 -22.386,-10.369 -5.865,-3.139 -12.366,-5.972 -18.549,-8.403 -11.219,-4.411 -21.521,-9.532 -32.493,-14.574 -12.505,-5.746 -24.865,-11.851 -36.632,-19.007 -6.79,-4.13 -14.664,-9.484 -20.677,-14.612 -5.159,-4.4 -8.787,-10.147 -14.307,-14.351 -6.71,-5.108 -13.46,-10.011 -19.84,-15.553 -6.25,-5.429 -11.206,-12.199 -17.487,-17.624 -13.814,-11.933 -25.468,-25.457 -38.191,-38.652 -11.258,-11.676 -21.494,-23.352 -31.101,-36.464 -13.259,-18.099 -26.722,-36.099 -37.15,-55.889 -8.369,-15.883 -14.12,-26.672 -30.45,-34.398 -7.691,-3.64 -14.137,-7.909 -22.448,-8.857 -7.505,-0.857 -14.188,2.683 -20.889,5.507 -7.442,3.137 -15.117,7.254 -21.637,11.866 -6.642,4.698 -14.548,14.18 -17.225,21.975 -3.904,11.372 1.444,25.923 6.163,35.611 6.558,13.462 19.627,23.934 27.248,36.262 4.893,7.913 9.022,16.833 12.779,25.174 2.671,5.93 5.805,11.715 7.75,17.942 1.954,6.256 1.223,11.6 1.223,18.007 0,7.563 -0.503,12.615 -3,19.641 -3.198,8.997 -4.904,18.983 -9.363,27.396 -5.218,9.849 -11.396,19.26 -19.247,27.402 -8.394,8.705 -18.994,15.589 -27.951,23.678 -9.911,8.95 -19.76,20.076 -31.438,26.7 -14.862,8.429 -29.919,16.806 -46.072,21.723 -11.748,3.576 -23.098,8.338 -34.855,11.885 -3.002,0.906 -15.069,5.809 -17.792,3.937 -2.767,-1.903 2.688,-10.829 4.193,-13.197 5.018,-7.895 10.055,-15.778 15.099,-23.671 8.19,-12.816 18.898,-23.506 27.489,-35.989 5.058,-7.351 10.443,-14.68 16.339,-21.096 4.957,-5.393 9.997,-11.684 14.462,-17.731 6.371,-8.629 8.731,-18.696 12.524,-28.589 6.707,-17.491 3.356,-33.731 -2.503,-51.289 -6.582,-19.722 -8.468,-39.927 -23.381,-54.872 -5.381,-5.394 -7.698,-4.281 -15.033,-1.275 -10.129,4.151 -19.789,4.967 -30.364,8.079 -11.795,3.473 -23.103,7.931 -34.519,12.249 -6.415,2.427 -13.444,3.27 -19.929,5.66 -11.677,4.305 -24.049,9.582 -36.24,11.961 -6.933,1.353 -13.81,2.073 -20.544,4.277 -16.753,5.485 -34.428,7.6 -51.759,10.276 -18.416,2.844 -35.965,5.478 -53.775,11.368 -16.626,5.499 -33.785,9.773 -48.92,18.905 -9.979,6.021 -16.606,25.912 -4.206,33.101 6.84,3.966 17.719,4.329 25.284,5.999 10.342,2.284 20.883,5.801 31.1,8.778 8.961,2.611 19.228,6.865 28.424,7.898 5.164,0.58 9.872,0.492 14.889,2.037 0.154,3.551 -0.647,7.319 -2.438,10.412 -1.199,2.07 -2.961,3.61 -3.936,5.831 -2.783,6.339 -6.314,11.641 -9.731,17.65 -3.015,5.303 -5.406,10.438 -9.806,14.704 -3.683,3.57 -6.953,8.296 -10.743,11.862 -4.583,4.311 -10.114,8.017 -15.257,11.659 -2.944,2.085 -5.287,3.904 -7.55,6.749 -2.188,2.749 -4.017,5.904 -6.086,8.748 -2.601,3.575 -5.252,7.818 -5.883,12.276 -0.002,0.013 -0.004,0.024 -0.005,0.037 -0.665,4.697 -1.237,9.014 -0.17,13.612 1.251,5.396 2.951,10.771 3.232,16.337 3.96,-0.442 7.859,-2.686 11.713,-4.225 5.833,-2.329 10.171,-5.087 15.248,-9.249 3.891,-3.188 9.262,-5.177 12.563,-9.175 4.955,-6 9.201,-11.848 12.869,-18.755 1.548,-2.916 2.77,-6.02 4.188,-9.004 2.319,-4.881 5.551,-9.237 8.068,-13.997 2.337,-4.42 5.375,-8.577 7.131,-13.253 1.196,-3.185 1.727,-6.992 3.42,-10.067 5.256,-9.546 13.026,-16.882 19.943,-25.045 4.087,-4.824 7.745,-9.852 12.257,-14.261 2.123,-2.075 3.724,-4.726 6.227,-6.396 2.177,-1.453 4.75,-2.393 6.854,-4.034 1.508,-1.176 2.832,-2.653 4.164,-4.007 3.21,-3.263 6.13,-6.73 9.312,-10.02 -3.83,-1.914 -7.277,-5.167 -11.695,-6.188 -5.953,-1.377 -12.662,-2.137 -18.442,0.212 -5.403,2.194 -10.507,2.482 -16.368,2.495 -5.327,0.011 -10.601,-0.447 -15.863,-0.807 -6.569,-0.447 -13.69,-0.656 -20.127,-1.974 -2.909,-0.597 -5.899,-2.117 -8.753,-3.025 -4.081,-1.298 -7.064,-4.146 -11.007,-5.882 -8.093,-3.562 2.401,-7.929 6.445,-9.293 9.038,-3.049 18.161,-8.766 27.819,-10.914 8.954,-1.992 18.201,-4.206 27.181,-6.234 5.499,-1.242 10.954,-2.764 16.611,-3.559 5.745,-0.807 11.111,-2.772 16.853,-3.743 4.54,-0.768 8.766,-2.442 13.217,-3.376 5.009,-1.051 10.12,-1.541 15.139,-2.543 11.919,-2.38 23.812,-4.21 35.767,-5.894 8.492,-1.196 16.711,-3.881 25.303,-4.7 4.448,-0.424 8.967,-0.605 13.429,-1.174 1.698,-0.216 17.125,-3.652 17.707,-1.595 0.937,3.315 1.485,6.051 2.406,9.376 2.835,10.243 2.348,21.541 2.388,32.188 0.039,10.447 -5.814,18.256 -10.682,27.136 -2.688,4.904 -6.377,9.532 -9.439,13.987 -4.55,6.622 -11.088,11.102 -16.88,16.465 -5.762,5.336 -12.017,9.177 -18.286,13.76 -4.22,3.086 -7.855,6.878 -11.987,10.072 -3.788,2.928 -8.07,5.011 -11.915,7.891 -3.882,2.908 -7.472,6.503 -11.959,8.495 -2.166,0.962 -3.874,1.14 -5.82,2.57 -1.967,1.444 -3.851,3.011 -5.754,4.537 -4.284,3.435 -8.997,6.021 -13.917,8.487 -5.209,2.611 -9,6.722 -13.997,9.798 -10.967,6.751 -22.809,12.892 -33.585,19.915 -7.131,4.646 -11.413,12.472 -17.115,18.555 -6.06,6.465 -14.803,10.193 -22.315,14.883 -3.726,2.325 -25.026,15.734 -15.359,20.096 3.933,1.774 10.427,-1.419 14.135,-2.373 5.253,-1.352 10.302,-1.981 15.398,-3.628 15.516,-5.013 32.423,-8.393 48.267,-14.136 8.598,-3.117 16.681,-6.233 23.736,-11.725 9.918,-7.72 34.786,-24.329 46.11,-10.191 4.062,5.071 6.509,12.091 8.876,18.19 3.616,9.319 6.04,20.231 11.489,28.712 10.151,15.797 21.461,21.146 40.04,21.152 14.057,0 26.716,-4.52 38.108,-13.123 12.226,-9.232 23.564,-18.518 35.451,-28.244 7.556,-6.184 14.919,-13.299 22.784,-19.518 6.515,-5.149 12.109,-10.814 20.187,-13.38 7.269,-2.309 14.341,-6.756 22.415,-6.735 10.285,0.026 15.689,3.699 24.601,8.361 9.741,5.096 16.37,14.646 25.164,21.265 6.068,4.567 12.728,7.383 18.373,11.419 8.136,5.818 14.793,13.207 24.538,15.942 14.955,4.198 27.651,5.988 43.451,4.901 11.526,-0.793 27.624,-2.441 37.347,-7.948 4.328,-2.451 9.427,-7.999 12.19,-11.766 7.756,-10.571 7.046,-19.005 8.849,-31.188 0.839,-5.664 0.904,-11.63 1.5,-17.474 1.086,-10.658 3.552,-20.538 5.611,-30.93 1.868,-9.43 3.199,-17.647 13.386,-21.097 10.556,-3.574 22.141,-1.146 32.879,0.136 4.463,0.532 10.631,-0.181 14.643,1.789 3.859,1.896 7.077,6.866 10.606,9.463 7.486,5.504 15.712,10.089 23.084,16.14 3.309,2.714 6.927,4.282 10.264,6.487 3.226,2.131 5.973,5.384 9.115,7.385 5.491,3.497 12.667,5.654 18.649,8.475 9.293,4.381 18.979,8.043 28.797,11.76 14.745,5.582 27.529,12.756 44.05,11.49 8.309,-0.637 16.557,-1.384 24.777,-2.611 5.45,-0.813 12.674,-1.539 17.123,-4.153 5.28,-3.103 8.659,-7.658 11.393,-12.832 2.055,-3.894 5.321,-12.852 4.543,-17.446 z M 976,1661.25 c -3.702,2.045 -7.914,3.197 -11.584,5.15 -3.431,1.825 -9.302,5.683 -11.764,8.6 -4.178,4.949 -6.291,12.904 -4.144,19.27 2.223,6.586 6.862,11.631 10.147,17.814 1.768,3.328 3.735,6.064 5.692,9.259 3.829,6.248 -2.036,19.509 -6.573,24.333 -1.225,1.302 -2.764,1.867 -4.359,2.676 -1.62,0.82 -3.358,1.963 -4.899,2.906 -3.358,2.058 -8.229,3.998 -12.157,4.762 -7.091,1.378 -16.713,1.637 -23.284,-1.102 -6.257,-2.607 -12.389,-5.049 -18.725,-7.575 -9.762,-3.892 -21.543,-3.624 -32.077,-3.676 -7.814,-0.038 -15.612,0.542 -23.418,0.827 -3.169,0.116 -5.249,0.706 -7.252,-1.759 -1.649,-2.03 -2.936,-6.525 -3.345,-9.061 -0.785,-4.867 0.062,-9.537 0.831,-14.368 0.849,-5.317 1.965,-7.843 5.718,-11.734 5.918,-6.136 13.685,-11.153 20.47,-16.146 10.536,-7.752 23.502,-11.054 33.607,-18.518 4.268,-3.151 8.472,-5.233 11.765,-9.315 4.996,-6.193 11.112,-11.419 16.363,-17.362 4.882,-5.527 10.245,-9.83 17.562,-11.562 8.901,-2.105 18.485,-2.493 27.498,-3.076 3.964,-0.256 8.285,-0.946 11.837,1.15 3.002,1.772 7.272,5.438 8.357,8.591 2.379,6.904 -0.174,16.551 -6.266,19.916 z" /><path
   style="fill:#bc6828"
   inkscape:connector-curvature="0"
   id="path28"
   d="m 947.998,1436.363 c 3.791,2.822 6.677,5.971 11.039,8.402 8.285,4.618 16.739,9.033 24.811,14.021 6.864,4.242 12.263,10.59 19.264,15.089 5.408,3.474 10.812,6.065 15.912,10.05 13.914,10.869 29.646,17.793 43.404,28.88 12.184,9.818 26.831,15.266 39.742,23.558 6.317,4.057 11.394,9.03 18.193,12.162 5.675,2.615 11.129,4.539 16.953,7.237 12.425,5.754 24.592,9.326 37.81,12.603 4.326,1.073 8.779,1.029 13.193,1.377 4.205,0.331 7.107,2.472 11.119,2.845 1.207,28.219 -23.73,39.262 -46.313,50.299 -13.766,6.729 -32.377,7.879 -47.511,7.126 -8.163,-0.406 -18.192,0.863 -25.691,-2.737 -6.414,-3.079 -11.294,-12.143 -15.296,-17.734 -10.401,-14.536 -13.759,-30.595 -20.589,-46.627 -3.009,-7.064 -9.743,-12.34 -15.749,-17.037 -10.065,-7.872 -24.291,-14.893 -36.285,-19.162 -14.914,-5.307 -32.207,-9.118 -43.515,-20.616 -8.341,-8.48 -14.05,-22.147 -15.878,-33.794 -1.274,-8.115 -0.487,-16.258 0.188,-24.295 0.21,-2.489 0.395,-4.894 0.654,-7.375 0.276,-2.64 0.877,-5.255 1.305,-7.854 0.148,-0.898 0.47,-1.759 0.745,-2.623 0.208,-0.655 0.349,-1.575 0.91,-2.034 0.367,0.262 0.679,0.564 0.938,0.924 0.152,0.211 0.398,0.287 0.578,0.456 0.173,0.162 0.326,0.356 0.497,0.522 0.36,0.349 0.74,0.677 1.133,0.986 0.807,0.638 1.667,1.204 2.544,1.74 1.738,1.062 3.557,1.997 5.241,3.146 0.221,0.151 0.439,0.305 0.654,0.465 z" /><path
   d="m 727.334,680.666 c 0,0 46,-9 46,-42.333 0,-33.333 -56.333,-65 -56.333,-65 0,0 -1.333,13 -1.333,32.333 0,19.333 8,42.333 10.333,53.667 2.333,11.334 1.333,21.333 1.333,21.333 z"
   id="path30"
   inkscape:connector-curvature="0"
   style="fill:#6d6100;fill-opacity:1" /><path
   d="m 1417.33,769.998 c 0,-17.667 -19.667,-30 -31.667,-30 -12,0 -31.666,10.667 -55,10.667 -23.334,0 -39.332,-24.667 -53.665,-34.333 -14.333,-9.666 -33,-9.667 -46,-9.667 -13,0 -37.334,-7.333 -37.334,-31 0,-47 45.667,-51.667 54.334,-51.667 8.667,0 49,-3.333 49,-30.333 0,-27 -20.333,-26 -41.333,-58.666 -21,-32.666 -20.667,-48.667 -50,-48.667 -19.666,0 -20,19.333 -19,26.667 1,7.334 -4.667,25.667 -6.334,37 -1.667,11.333 3.334,25.333 -7.666,37 -11,11.667 -15,16.667 -29.334,45.333 -14.334,28.666 -31.666,26.333 -59.333,31.333 -27.667,5 -28.667,3 -36.333,4.333 -7.666,1.333 -42,39.333 -67.334,39.333 -25.334,0 -51.666,-10.667 -51.666,-30.667 0,-34.333 66.666,-23 125,-38.667 58.334,-15.667 80.666,-51.667 84,-56.333 3.334,-4.666 25,-16 25,-29.333 0,-13.333 -8,-31 -29,-31 -33.667,0 -45.334,25.333 -86,25.333 -22.333,0 -27,-24.333 -27,-36 0,-11.667 7.334,-27.667 7.334,-30 0,-2.333 -1.333,-4 -3,-10 -23.667,0 -45.667,5 -50.667,5 -42.334,0 -48.666,-19.333 -48.666,-26.667 0,-7.334 9.333,-7 9.333,-17.667 0,-10.667 -16.333,-25 -34.667,-25 -18.334,0 -40.333,15 -52,15 -11.667,0 -8.666,-21.667 -8.666,-21.667 H 730.999 c 0,0 -17.333,14.333 -42.333,31.667 -25,17.334 -31.333,38 -43.666,54.334 -12.333,16.334 -31.667,21 -31.667,21 0,0 1.667,2.669 9.667,22.669 8,20 16.333,16.667 16.333,43 -34.667,0 -40,-49.667 -40,-72.667 0,-23 15.667,-48 37.667,-69.666 22,-21.666 21.667,-33 21.667,-33 h -83.333 c 0,0 -23.333,7 -51.333,19.333 -28,12.333 -48,48 -48,48 0,0 -32.333,-13 -57,-13 -24.667,0 -83.667,11.333 -83.667,58.667 0,47.334 49,83.666 63.667,112.333 14.667,28.667 29,59.333 29,59.333 0,0 -34,-14.667 -71,-60.667 -24.333,-27 -40.333,-45.665 -64.666,-45.665 -24.333,0 -41.333,0 -41.333,0 0,0 0,-3.333 0,-8.333 0,-5 -8,-28 -8,-44 0,-16 -5.333,-28.667 -16.333,-28.667 -31,0 -34.667,34 -56.333,80 -21.666,46 -68.836,39.791 -68.836,87.291 0,4.875 1.5,6.25 9.625,14 8.125,7.75 9.875,6.046 9.875,38.712 0,32.666 -31.667,31.333 -31.667,56 0,24.667 45,57.666 45,57.666 0,0 -13,-9 -30.667,-9 -17.667,0 -21.333,14.333 -21.333,49 0,76.667 17.333,93 24,118.333 6.667,25.333 15.667,28.667 15.667,73 0,44.333 -48.334,51.667 -48.334,84.665 0,14 14,28.667 38.667,28.667 24.667,0 47.667,-14.333 63.667,-20 16,-5.667 23.667,-4 23.667,-4 0,0 -0.333,2.333 -7.333,8.333 -7,6 -21.667,14 -32.333,22.667 -10.666,8.667 -6.667,26 -6.667,33.667 0,7.667 -1.333,24.333 13,24.333 14.333,0 34.333,-15.667 49.333,-15.667 15,0 24.667,10 24.667,10 0,0 -8.333,10 -22,27 -13.667,17 -21,32.332 -23.667,63.666 -2.667,31.334 4,43.666 4,43.666 0,0 28.667,3.667 74,3.667 45.333,0 95.333,0.333 95.333,0.333 l 5.333,-3.666 c 0,0 12,-10.002 31,-35.669 19,-25.667 43,-35.001 43,-61.668 0,-26.667 -22,-40.333 -22,-62 0,-8.334 13,-19.666 13,-19.666 0,0 13,6.333 21.333,22 8.333,15.667 15.334,25.333 30.334,25.333 15,0 36.333,-12.666 50.667,-37.666 14.334,-25 36.333,-56 64,-56 26.667,0 4.333,32.333 92.666,5.667 137.334,-38.334 79.333,-83 135.667,-87 31.667,0 45,33.666 45,54 0,20.334 -21.666,52 -21.666,78.333 0,26.333 37,42 43.666,51 6.666,9 8,25.333 23.334,25.333 3.334,0 10.666,-2 10.666,-2 0,0 8.667,-10.667 43.001,-43.667 34.334,-33 47.333,-58.333 68.665,-58.333 45,0 41.667,32 86,32 44.333,0 65,-48.667 74,-63.334 9,-14.667 15.666,-23.666 15.666,-23.666 0,0 11.333,1.667 24.666,-4.333 13.333,-6 30,-22.667 46,-32.667 16,-10 35,-15.333 47.334,-35.333 12.334,-20 2.333,-25.333 2.333,-52.333 0,-27 32.334,-52.333 32.334,-80.333 0,-23.667 -27.334,-27.333 -27.334,-59.667 -10e-4,-58 70.665,-38.667 70.665,-75 z M 333.333,725.5 c 0,0 13.833,-1.5 24.333,-1.5 10.5,0 20,11.833 20,25.833 0,14 -10.5,16.667 -18.5,16.667 -8,0 -15.167,-5 -20.667,-18.333 -5.5,-13.333 -5.166,-22.667 -5.166,-22.667 z m -40.171,35.496 c 0.945,2.833 0.731,6.438 0.034,9.295 -0.682,2.795 -2.101,4.998 -3.158,7.659 -2.187,5.505 -4.488,12.887 -10.829,14.757 -2.902,0.856 -5.824,1.478 -8.815,2.088 -2.061,0.42 -4.941,1.158 -7.03,0.875 -0.976,-0.133 -1.158,-0.379 -2.003,-0.842 -0.486,-10.542 2.831,-20.603 7.445,-30.022 1.557,-3.179 4.242,-5.544 6.881,-7.812 1.275,-1.097 2.61,-2.152 3.791,-3.354 1.379,-1.404 2.362,-4.349 4.616,-3.251 1.759,0.856 3.398,3.192 4.737,4.599 1.525,1.604 3.67,4.027 4.331,6.008 z M 272.667,646.5 C 280,638.166 290,627.833 290,627.833 c 0,0 5.833,19.833 -6,33 -11.833,13.167 -23.667,12.5 -23.667,12.5 0,0 5,-18.5 12.334,-26.833 z m 143.98,343.822 c -0.792,2.804 -3.065,5.648 -4.324,8.245 -1.799,3.711 -3.062,7.315 -5.241,10.76 -2.567,4.059 -1.771,7.989 -2.416,12.673 -1.894,13.762 -5.957,36.826 6.574,46.258 1.559,1.174 3.072,2.086 4.407,3.342 -2.013,0.378 -4.271,-0.555 -6.405,-0.601 -2.3,-0.05 -4.589,0.151 -6.826,0.26 -4.466,0.217 -9.348,0.555 -13.666,-0.519 -11.147,-2.771 -20.015,-11.792 -30.919,-14.425 -8.33,-2.01 -18.617,-0.98 -26.249,1.691 -4.075,1.427 -6.703,2.636 -10.251,4.993 -4.329,2.877 -8.785,6.957 -13.024,9.296 -1.586,0.876 -1.894,1.622 -4.257,1.327 -1.921,-6.079 -3.549,-13.623 -4.392,-20.114 -1.031,-7.941 -1.134,-14.913 2.509,-22.025 4.999,-9.759 16.288,-16.376 25.054,-22.439 4.911,-3.396 10.741,-5.141 15.553,-8.878 4.694,-3.645 9.993,-7.523 15.092,-10.941 7.656,-5.132 15.114,-11.533 22.741,-16.982 3.476,-2.483 6.884,-5.177 10.666,-7.665 4.667,-3.071 4.858,-3.031 1.958,-7.881 -6.866,-11.482 -18.427,-19.167 -25.824,-30.548 -4.982,-7.667 -8.009,-14.706 -16.02,-19.88 -6.897,-4.456 -16.681,0.012 -24.639,0.399 -9.095,0.442 -18.482,-2.606 -27.666,-0.51 -5.138,1.173 -8.417,5.156 -13.327,6.906 -6.745,2.404 -13.859,5.554 -21.151,5.604 -7.992,0.054 -16.009,0.779 -23.99,-0.008 -4.605,-0.454 -6.709,-3.818 -10.576,-5.725 -1.093,-6.779 0.053,-11.194 2.56,-17.26 1.614,-3.907 1.773,-9.448 4.147,-12.925 1.905,-2.79 4.265,-2.521 7.455,-2.661 9.52,-0.419 19.186,-0.652 28.578,1.235 4.97,0.999 10.505,1.739 15.244,3.352 3.836,1.305 7.833,3.266 11.859,3.982 5.454,0.97 8.04,-1.307 12.84,-3.25 5.619,-2.275 9.231,-5.989 12.767,-11.05 6.551,-9.381 14.673,-19.833 24.238,-26.035 5.174,-3.355 10.015,-6.949 16.215,-7.997 6.433,-1.087 9.664,-0.595 15.959,1.44 9.353,3.022 14.075,10.435 16.675,19.659 2.52,8.939 2.09,18.403 2.09,27.948 0,4.334 0.585,9.082 0,13.368 -0.48,3.52 -2.784,6.529 -3.408,10.103 -1.011,5.798 0.121,10.563 2.344,15.808 3.583,8.45 6.767,17.234 11.719,25.252 3.956,6.404 5.017,11.506 5.361,19.453 0.242,5.5 1.491,11.566 -0.034,16.965 z m 75.946,43.827 c -0.564,3.936 -2.37,6.781 -4.567,10.184 -2.502,3.874 -7.928,5.438 -12.026,6.862 -4.57,1.589 -9.183,3.191 -13.816,4.389 -3.353,0.867 -6.733,0.535 -10.017,1.416 0.262,-2.877 -3.492,-6.555 -4.591,-9.417 -1.664,-4.332 -1.676,-9.217 -0.409,-13.69 2.493,-8.807 10.743,-12.656 18.175,-16.641 6.749,-3.618 14.98,-7.92 22.315,-3.15 5.835,3.793 5.968,12.848 4.936,20.047 z m 90.057,15.426 c -3.564,-2.222 -7.107,-3.7 -10.597,-6.055 -6.56,-4.427 -13.569,-7.852 -18.621,-13.921 -6.49,-7.798 -7.1,-15.401 -7.1,-25.217 0,-8.842 2.974,-13.216 5.667,-21.215 5.376,2.658 9.5,8.811 14.603,12.334 7.318,5.054 12.826,12.975 17.406,20.49 7.719,12.666 4.596,28.5 10.882,41.048 -3.867,-0.773 -8.747,-5.286 -12.24,-7.464 z M 692.5,623.243 c 4.342,-6.879 9.852,-11.39 9.834,-20.18 -0.016,-7.794 -0.881,-15.171 -2.415,-22.658 -1.461,-7.133 -4.169,-14.07 -4.918,-21.064 -0.668,-6.243 3.622,-11.27 6.833,-15.509 2.011,8.483 10.901,14.926 19.107,16.915 10.917,2.646 22.992,2.141 33.052,7.162 17.145,8.557 13.65,33.438 26.424,46.432 6.768,6.885 17.09,13.121 19.917,22.666 2.234,7.544 0.83,17.08 -2.685,24 -4.234,8.338 -8.305,15.662 -16.565,20.233 -10.15,5.617 -23.346,6.016 -34.107,9.992 -6.958,2.571 -16.127,6.449 -20.559,12.6 -2.472,3.431 -7.128,12.997 -12.832,10.582 -5.458,-2.311 -3.654,-16.753 -4.269,-21.849 -1.077,-8.92 -2.624,-15.372 -7.559,-22.983 -4.57,-7.048 -12.343,-12.785 -14.682,-21.575 -2.332,-8.763 0.921,-17.629 5.424,-24.764 z M 812.733,976.31 c -1.577,8.562 -3.821,19.68 -8.98,26.75 -5.978,8.194 -10.917,17.077 -16.521,25.565 -5.684,8.61 -13.506,15.9 -21.417,22.115 -8.274,6.499 -17.329,12.113 -26.484,17.603 -5.557,3.332 -17.519,9.143 -18.415,16.631 -6.221,-7.089 -4.043,-23.362 -1.492,-31.312 2.819,-8.783 9.778,-16.83 4.824,-25.887 -2.314,-4.23 -5.447,-7.787 -8.647,-11.489 -4.843,-5.603 -8.732,-11.961 -12.649,-18.043 -3.577,-5.553 -6.703,-11.107 -9.509,-17.094 -2.312,-4.933 -2.819,-9.549 -4.37,-14.783 -3.331,-11.245 -5.002,-24.31 -5.931,-36.176 -0.507,-6.473 -0.289,-13.022 -0.551,-19.516 -0.163,-4.043 -0.83,-8.639 -0.276,-12.698 0.658,-4.823 4.101,-11.206 6.25,-15.676 1.524,-3.171 4.918,-6.82 8.388,-7.892 3.709,-1.146 5.628,1.319 7.498,4.359 3.37,5.481 4.557,11.992 6.624,18.001 4.973,14.457 5.206,30.022 8.192,45.189 3.016,15.319 7.213,30.434 17.791,42.192 4.736,5.265 9.64,10.483 15.857,13.925 3.071,1.7 7.509,4.552 11.037,4.142 1.338,-8.156 2.375,-16.943 2.697,-25.209 0.19,-4.88 1.021,-9.496 1.018,-14.399 -0.004,-6.182 0.1,-12.849 1.259,-18.854 1.414,-7.326 9.335,-17.175 14.492,-22.753 4.68,-5.061 8.926,-10.429 12.907,-15.856 3.297,6.955 5.83,13.812 9.774,20.613 2.578,4.445 5.253,9.466 5.99,14.394 1.781,11.904 2.826,24.314 0.644,36.158 z M 820.5,769.002 c -0.334,6.728 -4.583,10.331 -9.111,15.221 -5.273,5.694 -10.768,10.417 -16.713,15.4 -4.995,4.188 -14.024,10.407 -20.152,11.988 3.545,7.453 21.671,4.878 27.977,8.639 1.533,2.452 -10.167,17.681 -12.602,21.139 -3.396,4.823 -8.787,13.331 -14.058,16.323 -3.28,-4.643 -4.704,-10.523 -7.702,-15.614 -3.346,-5.681 -8.489,-10.351 -13.002,-15.171 -2.56,-2.735 -10.536,-10.602 -11.174,-13.803 -1.114,-5.585 8.705,-13.009 11.413,-18.097 7.039,-13.231 13.48,-29.502 25.266,-39.415 6.716,-5.648 17.087,-11.679 25.867,-12.623 6.191,-0.666 7.999,3.919 10.479,9.036 2.471,5.101 3.804,11.086 3.512,16.977 z"
   id="path32"
   inkscape:connector-curvature="0"
   style="fill:#6d6100;fill-opacity:1" /><path
   style="fill:#6d6100;fill-opacity:1"
   inkscape:connector-curvature="0"
   id="path36"
   d="m 4,323.5 c 0,0 0,1153.067 0,1244.563 0,116.995 128.121,317.985 345.61,317.985 277.486,0 396.577,176.99 396.577,176.99 0,0 119.091,-176.99 396.577,-176.99 217.489,0 345.61,-200.99 345.61,-317.985 0,-91.496 0,-1244.563 0,-1244.563 z m 1411.377,1223.565 c 0,127.494 -154.493,274.486 -322.484,274.486 -206.989,0 -346.893,162.957 -346.893,162.957 0,0 -139.903,-162.957 -346.893,-162.957 -167.991,0 -322.484,-146.992 -322.484,-274.486 0,-127.494 0,-1142.943 0,-1142.943 h 1338.753 c 10e-4,0 10e-4,1015.449 10e-4,1142.943 z" />
</svg>