<?xml version="1.0" encoding="utf-8"?>
<!-- Generator: Adobe Illustrator 15.1.0, SVG Export Plug-In . SVG Version: 6.00 Build 0)  -->
<!DOCTYPE svg PUBLIC "-//W3C//DTD SVG 1.1//EN" "http://www.w3.org/Graphics/SVG/1.1/DTD/svg11.dtd">
<svg version="1.1" id="Layer_1" xmlns="http://www.w3.org/2000/svg" xmlns:xlink="http://www.w3.org/1999/xlink" x="0px" y="0px"
	 width="484px" height="532px" viewBox="0 0 484 532" enable-background="new 0 0 484 532" xml:space="preserve">
<path fill="#231F20" d="M243.333,8.835c105.983,0,165.601,57.96,165.601,57.96h69.553l-60.444,392.473l-174.709,67.896
	L68.625,459.269L8.18,66.795h69.552C77.732,66.795,137.348,8.835,243.333,8.835z"/>
<g>
	<path fill="#FFFFFF" d="M243.343,442.434c123.081,0,173.043-86.111,173.043-86.111l45.262-277.107h-53.541
		c0,0-72.593-56.855-164.764-56.855c-92.187,0-164.779,56.855-164.779,56.855H25.018l45.266,277.107
		C70.284,356.322,120.245,442.434,243.343,442.434z"/>
	<path fill="#231F20" d="M243.343,442.848c-63.705,0-107.458-23.463-132.945-43.144c-27.622-21.331-40.348-42.96-40.472-43.176
		l-0.052-0.139L24.531,78.801h53.892c3.32-2.547,75.333-56.855,164.92-56.855c89.569,0,161.583,54.309,164.905,56.855h53.888
		l-0.081,0.48l-45.31,277.247c-0.126,0.216-12.851,21.845-40.473,43.176C350.789,419.385,307.04,442.848,243.343,442.848z
		 M70.68,356.179c0.785,1.316,13.497,22.24,40.255,42.896c25.382,19.59,68.956,42.946,132.408,42.946
		c63.463,0,107.042-23.369,132.426-42.969c26.745-20.659,39.437-41.557,40.222-42.873l45.17-276.549h-53.197l-0.112-0.087
		c-0.726-0.568-73.544-56.769-164.508-56.769c-90.98,0-163.799,56.201-164.524,56.769l-0.113,0.087h-53.2L70.68,356.179z"/>
</g>
<path fill="#231F20" d="M237.189,268.483c0,0,0-100.394,0-112.537s-10.624-24.84-10.624-28.152c0,3.312-10.624,16.009-10.624,28.152
	s0,112.537,0,112.537H237.189z"/>
<path fill="#231F20" d="M345.177,254.131c0,0,0-2.484,0-2.691c0-15.318-27.737-31.257-43.677-31.257
	c-15.938,0-43.678,15.939-43.678,31.257c0,0.207,0,2.691,0,2.691H345.177z"/>
<rect x="259.582" y="254.131" fill="#231F20" width="83.836" height="14.352"/>
<rect x="197.585" y="268.483" fill="#231F20" width="176.986" height="48.163"/>
<polygon fill="#CA2229" points="243.333,100.743 430.462,155.943 444.259,101.848 243.333,36.159 42.404,101.848 56.204,155.943 "/>
<path fill="#231F20" d="M174.885,362.531l52.026-34.914l32.982,3.037l-2.897,3.172l68.724,8.005l-46.093,38.228l-46.092-13.525
	l-1.516,3.726c0,0-0.83,1.382-7.177,1.382c-6.348,0-7.728-2.485-7.728-2.485l1.379-2.483L174.885,362.531z"/>
<g>
	<path fill="#C82227" d="M113.546,364.297c-0.569,1.006-1.882,1.844-3.938,2.52c-1.791,0.585-3.157,0.779-4.102,0.602
		c-1.462-0.278-3.494-1.058-6.1-2.342c-3.438-1.652-6.189-3.477-8.256-5.459c-1.555-1.499-2.578-3.044-3.075-4.632
		c-0.496-1.595-0.301-2.976,0.592-4.146c2.42-3.18,9.11-4.296,20.073-3.341c0.181,1.406,0.38,2.394,0.592,2.971
		c0.62,1.653,1.551,4.142,2.794,7.466C113.441,361.477,113.914,363.596,113.546,364.297z M105.755,362.168
		c0.291-0.122-1.058-4.137-4.04-12.034c-0.435-0.253-1.522-0.289-3.255-0.126c-1.965,0.21-3.206,0.655-3.723,1.335
		c-0.176,0.23-0.248,0.498-0.218,0.802c0.173,1.496,1.229,3.178,3.162,5.037c0.912,0.872,2.264,1.927,4.056,3.149
		C103.895,361.811,105.236,362.421,105.755,362.168z M121.214,350.783l-5.318-0.196l-2.094-6.635l-4.959-0.148l-2.14-6.831
		l5.29,0.165l2.147,6.505l4.898,0.161L121.214,350.783z"/>
	<path fill="#C82227" d="M136.61,391.562l-1.943-1.09c-0.144,0.324-0.715,1.109-1.714,2.354c-2.413,2.986-5.668,4.794-9.77,5.428
		c-3.651,0.565-6.774,0.123-9.363-1.333c-0.335-0.188-0.676-0.42-1.026-0.701c-2.267-1.802-4.095-3.998-5.484-6.586
		c-1.066-2.002-1.797-4.026-2.194-6.08c-0.335-1.698-0.362-2.61-0.087-2.73c-0.098,0.03,0.696,1.038,2.38,3.028
		c1.926,2.312,4.009,4.098,6.24,5.353c5.268,2.956,10.972,2.856,17.107-0.291c0.22-0.111,0.382-0.294,0.495-0.55
		c0.476-1.074,0.074-3.06-1.198-5.968c-0.901-2.061-1.631-3.487-2.192-4.295l6.132-3.833c1.524,2.41,2.414,4.334,2.666,5.773
		c0.312,1.747,0.436,3.007,0.373,3.783l2.41,1.35L136.61,391.562z M148.565,414.191l-5.2,1.264l-3.463-5.87l-4.84,1.206
		l-3.551-6.045l5.167-1.277l3.486,5.718l4.788-1.174L148.565,414.191z M160.819,405.147l-3.851-2.165
		c-1.875-1.044-3.826-2.056-5.851-3.026c-2.025-0.964-3.084-1.472-3.171-1.521c-1.271-0.715-3.162-1.862-5.668-3.438
		c-2.507-1.578-4.397-2.72-5.668-3.436l-1.576-0.882l2.902-6.347l1.506,0.841c1.206,0.676,2.972,1.76,5.296,3.245
		c2.322,1.487,4.088,2.567,5.293,3.24c3.416,1.918,5.331,2.787,5.741,2.615c0.171-0.07,0.298-0.196,0.372-0.365
		c0.543-1.225-0.029-3.929-1.715-8.108c-0.043-0.216,1.077-0.733,3.368-1.555c2.243-0.787,3.42-1.143,3.532-1.077
		c0.18,0.096,0.473,1.038,0.879,2.82c0.445,2.014,0.6,3.803,0.465,5.362c-0.277,3.08-0.655,5.155-1.129,6.227l2.107,1.188
		L160.819,405.147z"/>
	<path fill="#C82227" d="M207.354,416.352l-4.63-1.207l-0.98-1.4c-0.378,0.094-1.198,0.107-2.465,0.029
		c-3.781-0.281-9.246-1.355-16.39-3.221c-3.574-0.929-7.551-2.067-11.937-3.406l-6.176-1.906l-2.005-0.521l1.433-6.954l1.643,0.428
		c4.276,1.119,6.67,1.358,7.185,0.733c0.627-0.811,1.247-2.69,1.853-5.644c0.532-2.574,0.814-5.236,0.843-7.979
		c0.081-4.128,0.099-6.064,0.049-5.822c0.071-0.352,0.98-1.032,2.727-2.044c1.745-1.01,2.895-1.569,3.456-1.676
		c0.343,2.433,1.045,4.376,2.102,5.826c0.203,0.265,0.619,0.658,1.256,1.176c0.508,0.386,0.746,0.664,0.712,0.829l-0.229,0.172
		l-3.3,2.043c-0.052,0.864-0.225,2.08-0.524,3.649c-0.386,2.002-0.826,3.509-1.314,4.517c-0.391,0.776-1.146,1.893-2.269,3.364
		c-0.938,1.197-1.374,1.866-1.297,2.002l7.882-2.279c5.634-1.617,9.393-2.313,11.269-2.1c0.849,0.104,1.759,0.284,2.732,0.537
		c4.64,1.209,7.525,3.742,8.652,7.595c0.233,0.841,0.25,1.95,0.043,3.318c-0.197,1.199-0.481,2.025-0.855,2.471l1.967,0.515
		L207.354,416.352z M203.312,406.888c0.252-1.226-1.035-2.617-3.864-4.176c-2.547-1.423-5.048-2.396-7.504-2.925
		c-0.856-0.183-3.295,0.065-7.315,0.745c-4.021,0.682-6.057,1.145-6.105,1.384c-0.102,0.498,4.158,1.876,12.786,4.123
		c6.977,1.822,10.848,2.352,11.618,1.595C203.123,407.437,203.251,407.182,203.312,406.888z"/>
	<path fill="#C82227" d="M228.627,410.325c-0.134,4.153-0.411,6.319-0.828,6.508c-0.774,0.301-2.629,0.301-5.558,0.003
		l-14.574-1.491l0.574-7.106l14.426,1.477c0.246,0.025,0.394-0.256,0.441-0.845c0.004-0.059-0.081-2.406-0.257-7.047
		c-0.096-3.145-0.246-7.938-0.453-14.378l7.03-3.267L228.627,410.325z"/>
	<path fill="#C82227" d="M245.337,412.845c-0.01,0.644-0.84,1.882-2.507,3.704c-1.966,1.727-3.439,2.93-4.419,3.625
		c0.001-0.175,0.035-0.896,0.099-2.169c0.125-2.359,0.183-4.187,0.17-5.48c-0.073-2.587-0.232-5.191-0.477-7.801
		c-0.604-6.553-0.891-10.201-0.86-10.942l0.111-3.421c3.657-3.669,5.797-5.509,6.423-5.545c0.147-0.032,0.394,2.795,0.735,8.49
		l0.533,9.539L245.337,412.845z"/>
	<path fill="#C82227" d="M301.179,410.468l-3.459,0.673c-1.944,0.382-3.409,0.346-4.406-0.107c-0.996-0.455-1.728-1.387-2.202-2.804
		l-0.996-3.018c-0.101-0.307-0.359-0.618-0.785-0.919c-0.402,0.036-0.877,0.489-1.425,1.35l-0.833,2.48
		c-0.476,1.35-1.417,2.157-2.815,2.43c-1.648,0.323-4.834,0.18-9.56-0.422c-1.32-0.181-2.058-0.757-2.203-1.713
		c-0.11-0.726,0.137-1.89,0.756-3.481l1.595-3.929c0.217-0.562,0.629-1.271,1.229-2.123c1.175-1.735,4.594-3.631,10.25-5.682
		l-0.938-3.38l4.657-4.765l3.351,17.746c0.267,1.24,0.767,1.789,1.504,1.647l5.197-1.02L301.179,410.468z M292.056,380.869
		l-3.521,4.486l-5.881-2.419l-3.261,4.201l-6.048-2.497l3.487-4.475l5.821,2.278l3.234-4.137L292.056,380.869z M288.902,402
		c-0.612-2.294-1.203-4.33-1.782-6.113c-0.133-0.206-0.359-0.281-0.68-0.217c-0.242,0.053-2.189,1.058-5.834,3.028
		c-0.56,0.319-1.943,1.514-4.159,3.587c0.248,0.106,2.166,0.504,5.769,1.192c1.333,0.264,2.809,0.233,4.432-0.08
		C288.317,403.07,289.066,402.605,288.902,402z"/>
	<path fill="#C82227" d="M325.646,397.88c0.458,1.717,0.427,3.023-0.088,3.93c-0.123,0.226-1.67,0.922-4.635,2.099
		c-2.759,1.087-4.722,1.824-5.896,2.219c-1.361,0.463-3.423,1.08-6.182,1.873c-2.756,0.786-4.814,1.41-6.184,1.866l-1.686,0.565
		l-1.743-6.862l1.611-0.54c1.291-0.435,3.24-1.006,5.832-1.709c2.603-0.704,4.548-1.274,5.837-1.707
		c3.655-1.232,5.584-2.067,5.781-2.51c0.079-0.185,0.096-0.37,0.048-0.55c-0.349-1.313-2.41-2.847-6.188-4.596
		c-0.159-0.124,0.343-1.366,1.514-3.729c1.158-2.294,1.802-3.461,1.921-3.504c0.188-0.062,0.977,0.395,2.358,1.381
		c1.556,1.148,2.759,2.332,3.604,3.555C323.648,392.773,325.018,395.513,325.646,397.88z M325.021,417.279l-3.031,4.919
		l-6.089-1.617l-2.801,4.606l-6.26-1.676l2.989-4.91l6.019,1.491l2.781-4.54L325.021,417.279z"/>
	<path fill="#C82227" d="M356.533,386.977l-2.798,1.416l-8.528,6.172c-1.968,1.433-3.649,2.506-5.036,3.204
		c-2.433,1.237-4.429,1.619-5.981,1.152c-1.019-0.281-1.854-1.245-2.512-2.891c-0.544-1.35-0.884-2.821-1.021-4.396
		c-0.119-1.527-0.028-2.349,0.283-2.459c0.112-0.062,0.423,0.378,0.934,1.307c0.586,1.045,1.146,1.672,1.705,1.892
		c0.883,0.366,2.483-0.039,4.803-1.215c1.915-0.968,4.036-2.294,6.372-3.977c2.118-1.549,3.128-2.409,3.037-2.573
		c-1.312-1.963-3.225-3.668-5.744-5.104c-2.084-1.175-3.251-1.698-3.504-1.575l1.603-7.069c0.995,0.304,1.808,0.613,2.425,0.931
		c1.796,0.99,3.681,2.497,5.666,4.519c1.53,1.564,2.73,3.303,3.61,5.214l2.079-1.054L356.533,386.977z"/>
	<path fill="#C82227" d="M375.892,373.021l-19.391,13.552l-3.352-6.061l12.304-8.598c0.214-0.148,0.179-0.472-0.096-0.978
		c-0.026-0.042-1.355-1.862-3.985-5.447c-1.757-2.441-4.443-6.167-8.06-11.168l3.855-7.368l13.37,21.406l2.002-1.4L375.892,373.021z
		"/>
	<path fill="#C82227" d="M394.281,350.382c1.032,1.366,1.469,2.575,1.323,3.639c-0.032,0.259-1.199,1.598-3.503,4.008
		c-2.138,2.238-3.675,3.808-4.605,4.693c-1.083,1.035-2.749,2.536-4.997,4.496c-2.248,1.97-3.913,3.471-4.998,4.506l-1.342,1.273
		l-4.043-5.498l1.281-1.223c1.029-0.983,2.607-2.377,4.738-4.195c2.132-1.817,3.707-3.215,4.736-4.194
		c2.91-2.775,4.379-4.412,4.401-4.907c0.009-0.2-0.046-0.382-0.152-0.523c-0.79-1.048-3.222-1.521-7.304-1.423
		c-0.193-0.042-0.174-1.411,0.058-4.095c0.241-2.626,0.407-3.981,0.509-4.076c0.148-0.147,1.035-0.08,2.651,0.201
		c1.834,0.349,3.354,0.892,4.564,1.637C390.634,346.599,392.864,348.491,394.281,350.382z M398.222,368.818l0.633,6.313
		l-7.672,3.943l-0.808-6.153L398.222,368.818z"/>
</g>
<g>
	<g>
		<path fill="#FFFFFF" d="M271.059,91.839l1.584-2.894c0.677,0.472,1.453,0.83,2.336,1.079c0.996,0.281,1.739,0.252,2.245-0.081
			c0.494-0.336,0.908-1.077,1.234-2.235l3.732-13.245c-1.241-0.351-2.801-0.65-4.68-0.899l0.599-3.545
			c3.411,0.508,6.812,1.242,10.203,2.196c3.434,0.966,5.995,1.999,7.677,3.097c1.688,1.098,2.801,2.553,3.344,4.365
			c0.537,1.811,0.389,4.209-0.452,7.196l-3.496,12.404l-4.134-1.164l3.182-11.299c0.632-2.237,0.922-3.923,0.877-5.058
			c-0.045-1.135-0.549-2.187-1.505-3.158c-0.959-0.969-2.748-1.826-5.374-2.566l-2.09-0.54l-3.92,13.917
			c-0.408,1.444-0.854,2.511-1.339,3.201c-0.479,0.687-1.213,1.159-2.196,1.412c-0.984,0.255-2.31,0.144-3.985-0.327
			C273.545,93.314,272.261,92.693,271.059,91.839z"/>
		<path fill="#FFFFFF" d="M321.438,81.829l-3.349,11.883l-4.221-1.19l3.344-11.883L321.438,81.829z"/>
		<path fill="#FFFFFF" d="M341.231,87.404l-3.345,11.883l-4.221-1.188l3.347-11.883L341.231,87.404z"/>
		<path fill="#FFFFFF" d="M354.263,91.309c2.31,0.307,4.396,0.724,6.258,1.249c4.646,1.31,7.63,3.118,8.948,5.43
			c1.322,2.309,1.471,5.275,0.451,8.897l-3.496,12.404l-4.11-1.158l3.182-11.297c0.593-2.093,0.81-3.737,0.664-4.931
			c-0.149-1.194-0.76-2.301-1.84-3.323c-1.088-1.022-2.77-1.854-5.05-2.497c-1.547-0.436-3.429-0.811-5.664-1.129L354.263,91.309z"
			/>
		<path fill="#FFFFFF" d="M392.477,101.84l-3.347,11.883l-4.222-1.187l3.345-11.883L392.477,101.84z"/>
		<path fill="#FFFFFF" d="M405.854,127.382l1.701-21.294l4.348,1.225l-1.921,19.856c2.723-0.277,4.654-1.234,5.782-2.869
			c1.128-1.637,2.083-3.826,2.853-6.569l2.445-7.837l4.173,1.176l-1.925,6.021c-0.942,2.897-1.646,4.919-2.118,6.064
			c-0.473,1.143-1.21,2.342-2.226,3.591c-1.017,1.246-2.261,2.228-3.739,2.939c-1.475,0.714-3.484,1.181-6.013,1.404
			c-2.528,0.22-6.019,0.086-10.456-0.401l0.427-3.758C401.872,127.282,404.095,127.434,405.854,127.382z"/>
	</g>
	<g>
		<path fill="#FFFFFF" d="M61.431,120.79c2.455-1.251,4.903-2.261,7.349-3.027c4.749-1.485,8.309-1.632,10.677-0.44
			c2.368,1.194,4.12,3.604,5.259,7.239l3.846,12.301l-4.102,1.281l-3.506-11.206c-0.708-2.274-1.498-3.861-2.358-4.763
			c-0.864-0.899-2.028-1.424-3.5-1.569c-1.465-0.146-3.434,0.165-5.912,0.941c-1.941,0.608-4.05,1.488-6.313,2.636L61.431,120.79z
			 M68.77,128.958l4.014,12.835l-4.102,1.281l-4.013-12.834L68.77,128.958z"/>
		<path fill="#FFFFFF" d="M89.871,111.686c2.105-1.003,4.082-1.793,5.928-2.371c4.605-1.439,8.093-1.555,10.458-0.338
			c2.374,1.215,4.113,3.618,5.239,7.211l3.846,12.297l-4.076,1.277l-3.506-11.206c-0.647-2.074-1.361-3.571-2.138-4.491
			c-0.773-0.921-1.889-1.513-3.357-1.777c-1.465-0.264-3.325-0.045-5.589,0.663c-1.533,0.479-3.318,1.195-5.363,2.148
			L89.871,111.686z"/>
		<path fill="#FFFFFF" d="M123.243,101.016l3.684,11.782l-4.189,1.31l-3.684-11.783L123.243,101.016z"/>
		<path fill="#FFFFFF" d="M133.965,97.661l4.102-1.281l3.697,11.825c1.055,3.364,2.368,5.389,3.94,6.074
			c1.571,0.686,3.125,0.789,4.654,0.311c1.633-0.51,2.807-1.294,3.519-2.348c0.715-1.059,1.025-2.239,0.932-3.543
			c-0.097-1.305-0.463-2.991-1.106-5.051l-0.906-2.896c-1.045-3.334-2.532-4.7-4.463-4.096c-1.358,0.427-2.371,1.575-3.024,3.445
			l-1.943-1.702c0.747-3.03,2.315-4.919,4.706-5.667c2.002-0.626,3.765-0.312,5.292,0.938c1.52,1.251,2.755,3.396,3.707,6.426
			l0.511,1.634c0.918,2.946,1.355,5.34,1.31,7.177c-0.045,1.835-0.679,3.599-1.905,5.286c-1.226,1.685-3.089,2.92-5.592,3.703
			c-2.203,0.689-4.289,0.744-6.253,0.164c-1.963-0.579-3.525-1.598-4.689-3.058c-1.161-1.459-2.212-3.674-3.144-6.65L133.965,97.661
			z"/>
		<path fill="#FFFFFF" d="M167.314,101.604l-1.066-3.412l11.462-3.584l1.067,3.413L167.314,101.604z"/>
		<path fill="#FFFFFF" d="M186.375,81.274l12.621-3.948l1.772,5.667c0.501,1.601,0.753,2.95,0.767,4.037
			c0.006,1.088-0.198,2.257-0.624,3.506l-0.676,1.908c-0.672,1.921-0.731,3.771-0.175,5.544l1.142,3.649l-4.102,1.283l-0.96-3.073
			c-0.576-1.843-0.828-3.289-0.754-4.334c0.075-1.043,0.32-2.125,0.744-3.247l0.776-2.035c0.378-0.997,0.557-1.847,0.534-2.549
			c-0.023-0.699-0.19-1.554-0.508-2.571l-0.96-3.068l-12.601,3.941l-3.791-12.129l4.075-1.274L186.375,81.274z"/>
		<path fill="#FFFFFF" d="M236.44,90.62l-5.068,1.583l-12.533-9.583c-1.119,1.152-1.455,2.875-1.002,5.167l1.539,8.166l-4.25,1.329
			l-1.54-8.165c-0.718-3.798-0.007-6.74,2.142-8.824l-7.637-5.81l5.042-1.578l10.49,7.913c0.702-0.863,1.115-1.719,1.232-2.563
			c0.12-0.851,0.016-2.147-0.311-3.897l-0.893-4.742l4.25-1.326l0.954,4.858c0.398,2.091,0.466,3.891,0.191,5.396
			c-0.275,1.509-1.087,3.031-2.448,4.57L236.44,90.62z"/>
	</g>
</g>
<g>
	<path fill="#FFFFFF" d="M71.6,429.073l18.183-11.632l2.316,1.701l-5.314,21.117l-2.445-1.802l1.728-6.306l-6.783-5.001
		l-5.405,3.604L71.6,429.073z M81.19,425.861l5.502,4.053l1.617-5.741c0.488-1.747,0.931-3.151,1.326-4.212
		c-0.97,0.887-2.024,1.705-3.157,2.452L81.19,425.861z"/>
	<path fill="#FFFFFF" d="M91.814,443.398l10.402-17.262l2.283,1.376l-9.172,15.226l8.5,5.12l-1.226,2.037L91.814,443.398z"/>
	<path fill="#FFFFFF" d="M121.882,459.605l7.31-16.201l-6.052-2.73l0.977-2.166l14.562,6.569l-0.98,2.166l-6.075-2.739
		l-7.313,16.198L121.882,459.605z"/>
	<path fill="#FFFFFF" d="M136.698,465.849l7.184-18.828l2.49,0.951l-7.181,18.827L136.698,465.849z"/>
	<path fill="#FFFFFF" d="M146.942,469.699l5.993-19.241l8.529,2.659c1.717,0.533,2.966,1.112,3.752,1.736
		c0.782,0.624,1.306,1.456,1.568,2.497c0.259,1.042,0.227,2.093-0.103,3.15c-0.427,1.365-1.226,2.378-2.403,3.037
		c-1.174,0.663-2.724,0.831-4.648,0.511c0.572,0.534,0.983,1.013,1.236,1.438c0.53,0.911,0.97,1.985,1.316,3.217l1.714,6.277
		l-3.202-0.995l-1.301-4.798c-0.381-1.387-0.721-2.461-1.008-3.224c-0.291-0.763-0.589-1.326-0.893-1.688
		c-0.304-0.361-0.637-0.656-1.002-0.873c-0.269-0.152-0.731-0.329-1.388-0.534l-2.953-0.922l-2.662,8.546L146.942,469.699z
		 M152.834,459.744l5.472,1.704c1.165,0.362,2.112,0.525,2.843,0.489s1.35-0.265,1.857-0.689c0.505-0.421,0.854-0.944,1.048-1.565
		c0.285-0.909,0.188-1.759-0.291-2.552c-0.479-0.793-1.43-1.409-2.856-1.856l-6.09-1.896L152.834,459.744z"/>
	<path fill="#FFFFFF" d="M167.839,476.016l12.007-17.937l2.801,0.633l3.583,21.479l-2.962-0.672l-0.941-6.472l-8.219-1.867
		l-3.506,5.463L167.839,476.016z M175.339,469.234l6.663,1.511l-0.815-5.906c-0.252-1.796-0.408-3.261-0.47-4.393
		c-0.536,1.204-1.173,2.374-1.911,3.513L175.339,469.234z"/>
	<path fill="#FFFFFF" d="M201.267,482.734l2.267-20.024l3.988,0.45l3.134,14.717c0.288,1.367,0.495,2.394,0.621,3.071
		c0.311-0.704,0.786-1.732,1.43-3.088l6.371-13.39l3.564,0.403l-2.268,20.024l-2.555-0.291l1.898-16.758l-7.717,16.102l-2.391-0.272
		l-3.858-17.701l-1.931,17.044L201.267,482.734z"/>
	<path fill="#FFFFFF" d="M242.308,465.722l2.665,0.091l-0.388,11.637c-0.068,2.025-0.352,3.623-0.851,4.801
		c-0.498,1.173-1.355,2.115-2.575,2.82c-1.222,0.707-2.804,1.027-4.745,0.963c-1.886-0.064-3.418-0.439-4.596-1.132
		c-1.177-0.688-2.001-1.659-2.474-2.907c-0.472-1.252-0.673-2.944-0.602-5.075l0.391-11.638l2.666,0.09l-0.392,11.623
		c-0.058,1.749,0.062,3.043,0.358,3.884c0.298,0.838,0.835,1.497,1.611,1.972c0.779,0.478,1.74,0.731,2.885,0.771
		c1.96,0.064,3.37-0.332,4.234-1.192c0.863-0.861,1.339-2.557,1.423-5.082L242.308,465.722z"/>
	<path fill="#FFFFFF" d="M252.386,485.937l-0.788-20.138l2.731-0.106l11.198,15.396l-0.621-15.811l2.556-0.101l0.788,20.135
		l-2.731,0.106l-11.198-15.405l0.621,15.822L252.386,485.937z"/>
	<path fill="#FFFFFF" d="M276.614,484.578l-1.879-20.062l2.655-0.25l1.88,20.063L276.614,484.578z"/>
	<path fill="#FFFFFF" d="M300.63,474.398l2.736,0.272c-0.23,2.248-0.977,4.05-2.241,5.402c-1.265,1.351-2.937,2.186-5.014,2.497
		c-2.146,0.318-3.958,0.145-5.437-0.528c-1.475-0.672-2.691-1.785-3.642-3.338c-0.951-1.556-1.569-3.282-1.854-5.184
		c-0.311-2.077-0.186-3.947,0.374-5.612c0.564-1.663,1.516-3.005,2.86-4.027c1.342-1.021,2.891-1.662,4.651-1.927
		c1.991-0.298,3.745-0.042,5.259,0.769c1.51,0.812,2.671,2.097,3.483,3.855l-2.508,1.003c-0.678-1.381-1.507-2.339-2.486-2.868
		c-0.978-0.528-2.132-0.692-3.464-0.495c-1.533,0.229-2.759,0.788-3.679,1.679c-0.917,0.886-1.49,1.982-1.724,3.279
		c-0.231,1.3-0.248,2.607-0.051,3.92c0.256,1.694,0.722,3.139,1.406,4.328c0.683,1.19,1.592,2.021,2.73,2.49
		c1.136,0.469,2.309,0.611,3.526,0.43c1.474-0.22,2.66-0.833,3.558-1.84C300.015,477.498,300.518,476.13,300.63,474.398z"/>
	<path fill="#FFFFFF" d="M311.378,479.506l-4.114-19.726l2.613-0.543l4.111,19.726L311.378,479.506z"/>
	<path fill="#FFFFFF" d="M321.905,477.249l-5.2-19.472l7.343-1.96c1.293-0.346,2.295-0.546,3.01-0.604
		c1-0.098,1.884-0.006,2.649,0.265c0.764,0.275,1.453,0.765,2.061,1.462c0.61,0.703,1.044,1.536,1.3,2.501
		c0.443,1.656,0.292,3.194-0.456,4.625c-0.747,1.427-2.497,2.51-5.253,3.243l-4.989,1.336l2.111,7.916L321.905,477.249z
		 M321.753,466.347l5.034-1.344c1.665-0.445,2.762-1.069,3.299-1.879c0.534-0.805,0.649-1.769,0.349-2.895
		c-0.217-0.815-0.61-1.459-1.176-1.928c-0.567-0.468-1.211-0.709-1.935-0.715c-0.464,0.003-1.282,0.159-2.449,0.473l-4.98,1.329
		L321.753,466.347z"/>
	<path fill="#FFFFFF" d="M339.426,472.523l0.765-21.573l2.714-0.935l14.356,16.371l-2.871,0.99l-4.213-5.007l-7.965,2.739
		l-0.106,6.491L339.426,472.523z M342.234,462.807l6.458-2.222l-3.803-4.593c-1.158-1.395-2.064-2.559-2.714-3.487
		c0.178,1.305,0.256,2.638,0.228,3.993L342.234,462.807z"/>
	<path fill="#FFFFFF" d="M362.582,464.179l-7.986-18.5l2.448-1.059l7.045,16.318l9.111-3.934l0.94,2.183L362.582,464.179z"/>
	<path fill="#FFFFFF" d="M380.549,456.022l-9.053-18.004l2.38-1.197l9.056,18.004L380.549,456.022z"/>
	<path fill="#FFFFFF" d="M394.695,448.424l-8.997-15.324l-5.729,3.36l-1.203-2.05l13.774-8.09l1.204,2.05l-5.748,3.377l8.998,15.327
		L394.695,448.424z"/>
	<path fill="#FFFFFF" d="M412.902,436.716l-5.001-6.919l-13.1-4.861l2.627-1.898l6.783,2.594c1.257,0.492,2.478,1.013,3.653,1.563
		c-0.125-1.21-0.226-2.602-0.304-4.173l-0.307-7.09l2.517-1.822l0.29,14.126l5.005,6.918L412.902,436.716z"/>
</g>
<g>
	<path fill="#FFCF64" d="M235.326,268.483c0,0,0-100.394,0-112.537s-10.623-24.84-10.623-28.152
		c0,3.312-10.624,16.009-10.624,28.152s0,112.537,0,112.537H235.326z"/>
	<path fill="#231F20" d="M235.74,268.897h-22.075V155.946c0-8.084,4.684-16.479,7.783-22.033c1.524-2.731,2.841-5.091,2.841-6.12
		h0.828c0,1.028,1.317,3.389,2.841,6.12c3.099,5.553,7.782,13.949,7.782,22.033V268.897z M214.493,268.069h20.418V155.946
		c0-7.869-4.62-16.149-7.678-21.629c-1.116-2.001-2.032-3.642-2.531-4.884c-0.5,1.242-1.415,2.882-2.531,4.884
		c-3.058,5.479-7.679,13.76-7.679,21.629V268.069z"/>
</g>
<g>
	<rect x="205.658" y="160.152" fill="#FFFFFF" width="37.261" height="5.382"/>
	<path fill="#231F20" d="M243.333,165.948h-38.088v-6.209h38.088V165.948z M206.073,165.121h36.432v-4.554h-36.432V165.121z"/>
</g>
<rect x="224.289" y="119.374" fill="#231F20" width="0.828" height="8.901"/>
<rect x="299.224" y="211.075" fill="#231F20" width="0.827" height="8.901"/>
<g>
	<path fill="#FFCF64" d="M343.314,254.131c0,0,0-2.484,0-2.691c0-15.318-27.737-31.257-43.677-31.257
		c-15.94,0-43.678,15.939-43.678,31.257c0,0.207,0,2.691,0,2.691H343.314z"/>
	<path fill="#231F20" d="M343.729,254.545h-88.183v-3.105c0-15.708,28.289-31.671,44.092-31.671
		c15.802,0,44.091,15.963,44.091,31.671V254.545z M256.374,253.717h86.527v-2.277c0-15.297-27.755-30.843-43.264-30.843
		c-15.51,0-43.264,15.546-43.264,30.843V253.717z"/>
</g>
<g>
	<rect x="257.72" y="254.131" fill="#FFCF64" width="83.835" height="14.352"/>
	<path fill="#231F20" d="M341.968,268.897h-84.663v-15.181h84.663V268.897z M258.134,268.069h83.007v-13.524h-83.007V268.069z"/>
</g>
<g>
	<rect x="195.723" y="268.483" fill="#FFCF64" width="176.986" height="48.163"/>
	<path fill="#231F20" d="M373.122,317.06H195.309v-48.99h177.813V317.06z M196.137,316.23h176.158v-47.333H196.137V316.23z"/>
</g>
<path fill="#231F20" d="M238.779,316.646c0,0,0-22.771,0-27.532s-4.554-8.694-10.143-8.694c-5.589,0-10.144,3.934-10.144,8.694
	s0,27.532,0,27.532H238.779z"/>
<path fill="#231F20" d="M263.618,305.674c0,0,0-17.11,0-19.318c0-2.21-2.348-5.936-7.037-5.936c-4.69,0-7.038,3.726-7.038,5.936
	c0,2.208,0,19.318,0,19.318H263.618z"/>
<path fill="#231F20" d="M293.428,305.674c0,0,0-17.11,0-19.318c0-2.21-2.349-5.936-7.039-5.936s-7.037,3.726-7.037,5.936
	c0,2.208,0,19.318,0,19.318H293.428z"/>
<path fill="#231F20" d="M323.235,305.674c0,0,0-17.11,0-19.318c0-2.21-2.349-5.936-7.039-5.936c-4.688,0-7.037,3.726-7.037,5.936
	c0,2.208,0,19.318,0,19.318H323.235z"/>
<path fill="#231F20" d="M353.043,305.674c0,0,0-17.11,0-19.318c0-2.21-2.349-5.936-7.037-5.936c-4.69,0-7.039,3.726-7.039,5.936
	c0,2.208,0,19.318,0,19.318H353.043z"/>
<rect x="261.41" y="258.203" fill="#231F20" width="7.177" height="8.969"/>
<rect x="284.319" y="258.203" fill="#231F20" width="7.177" height="8.969"/>
<rect x="311.087" y="258.203" fill="#231F20" width="7.177" height="8.969"/>
<rect x="334.549" y="258.203" fill="#231F20" width="6.071" height="8.969"/>
<g>
	<path fill="#FFFFFF" d="M228.292,319.476c0,0-1.244,5.793,8.141,6.898c9.384,1.106,12.696-2.483,19.735-2.483
		c7.037,0,9.796,7.177,9.796,7.177l-40.019,33.395c0,0-5.796-10.625-14.904-10.625c-9.108,0-6.208,3.866-13.386,3.866
		c-7.177,0-10.35-11.043-10.35-11.043L228.292,319.476z"/>
	<path fill="#231F20" d="M225.824,365.103l-0.243-0.442c-0.056-0.104-5.788-10.408-14.54-10.408c-4.688,0-6.068,1.027-7.402,2.021
		c-1.215,0.905-2.472,1.844-5.984,1.844c-7.403,0-10.615-10.877-10.748-11.342l-0.084-0.292l42.077-27.906l-0.204,0.983
		c-0.004,0.017-0.326,1.659,0.833,3.263c1.212,1.683,3.552,2.74,6.952,3.142c1.175,0.138,2.322,0.207,3.409,0.207
		c3.487,0,6.057-0.708,8.541-1.392c2.428-0.669,4.723-1.304,7.737-1.304c7.238,0,10.155,7.368,10.181,7.443l0.106,0.278
		l-0.226,0.188L225.824,365.103z M211.041,353.423c8.289,0,13.793,8.358,15.017,10.405l39.405-32.881
		c-0.586-1.274-3.393-6.643-9.295-6.643c-2.902,0-5.144,0.618-7.516,1.271c-2.54,0.701-5.165,1.424-8.763,1.424
		c-1.119,0-2.298-0.071-3.506-0.214c-3.652-0.431-6.188-1.608-7.54-3.493c-0.807-1.128-1.001-2.258-1.02-3.012l-40.031,26.554
		c0.558,1.712,3.713,10.455,9.861,10.455c3.238,0,4.281-0.776,5.489-1.679C204.521,354.584,206.079,353.423,211.041,353.423z"/>
</g>
<g>
	<path fill="#FFFFFF" d="M225.945,364.462l40.019-33.395c0,0,5.382-3.172,12.421-3.172c7.037,0,19.043,11.865,26.081,11.865
		c7.039,0,8.28-0.552,8.28-0.552l-39.466,32.156c0,0-5.382,0.275-9.936,0.275c-4.556,0-9.662-10.627-19.321-10.627
		C234.362,361.014,225.945,364.462,225.945,364.462z"/>
	<path fill="#231F20" d="M263.345,372.054c-2.016,0-4.041-1.834-6.386-3.956c-3.282-2.973-7.368-6.669-12.936-6.669
		c-9.462,0-17.838,3.384-17.921,3.415l-0.422-0.698l40.02-33.396c0.278-0.171,5.613-3.27,12.686-3.27
		c3.637,0,8.527,3.047,13.26,5.997c4.632,2.884,9.422,5.87,12.821,5.87c6.719,0,8.066-0.501,8.122-0.521l0.42,0.701l-39.466,32.157
		l-0.239,0.093C273.247,371.781,267.855,372.054,263.345,372.054z M244.023,360.601c5.886,0,10.103,3.816,13.492,6.883
		c2.219,2.009,4.134,3.741,5.829,3.741c4.095,0,8.916-0.226,9.781-0.268l38.112-31.053c-1.231,0.138-3.308,0.271-6.772,0.271
		c-3.639,0-8.529-3.046-13.26-5.996c-4.632-2.886-9.423-5.87-12.821-5.87c-6.848,0-12.159,3.086-12.211,3.114l-38.19,31.874
		C231.138,362.272,237.311,360.601,244.023,360.601z"/>
</g>
<rect x="181.647" y="313.955" fill="#231F20" width="208.243" height="3.726"/>
<g>
	<path fill="#23964C" d="M173.781,164.914c-8.735,0-19.92,22.896-23.83,31.532c1.041-4.535,2.508-12.066,2.508-18.491
		c0-3.726-4.347-21.114-11.592-21.114c-7.246,0-17.388,32.706-17.388,32.706s15.525-22.148,17.388-22.148
		c1.863,0,4.761,4.14,6.624,10.971c1.468,5.384,1.521,16.013,1.478,20.286c-0.283,0.653-0.443,1.035-0.443,1.035
		s0.181-0.215,0.438-0.521c-0.001,0.146-0.003,0.266-0.006,0.391c-0.217,0.848-0.516,2.031-0.878,3.487
		c-0.917-4.507-4.394-20.539-7.419-20.539c-2.542,0-7.556,8.745-10.152,16.491c-0.111-0.287-0.223-0.574-0.336-0.827
		c-2.484-5.52-6.9-9.108-13.524-9.108s-3.588,24.84-3.588,24.84s2.484-17.388,9.384-17.388c2.558,0,4.923,2.962,6.891,6.685
		c-0.294,1.373-0.474,2.649-0.474,3.732c0,7.659,1.862,13.248,1.862,13.248s0.88-5.096,1.721-9.793
		c1.516,4.163,2.42,7.656,2.42,7.656s-0.783-5.065-1.935-10.336c0.267-1.459,0.509-2.762,0.692-3.672
		c0.828-4.14,4.554-7.866,6.624-7.866c1.752,0,6.306,5.764,7.67,7.542c-2.741,11.107-8.585,36.256-10.154,54.765
		c-2.07,24.426-4.141,45.955-4.141,45.955s-1.242-10.765-6.624-36.433c-3.529-16.83-9.533-30.059-13.261-37.202
		c0.757-2.807,2.506-8.338,4.567-8.338c3.035,0,6.072,3.589,9.107,10.213c3.036,6.624,4.968,19.596,4.968,19.596
		s0.828-9.108,0.828-16.007c0-6.898-9.385-27.324-14.077-27.324c-3.824,0-5.264,15.579-5.666,21.342
		c-1.81-3.428-3.027-5.335-3.027-5.335s12.834,33.12,15.318,50.508c2.358,16.502,4.713,53.861,4.947,57.627
		c-3.64,0.899-6.189,2.931-6.189,5.301c0,3.203,4.633,5.796,10.351,5.796c5.716,0,10.35-2.593,10.35-5.796
		c0-2.753-3.43-5.042-8.02-5.634c-0.411-4.631-1.333-20.467,1.395-51.498c2.275-25.854,6.495-55.41,8.921-71.412
		c2.212-2.118,7.48-6.835,10.538-6.835c3.934,0,6.624,4.968,6.624,19.665c0,14.698-8.486,33.328-8.486,33.328
		s14.076-20.907,14.076-36.639s0.621-27.531-5.796-27.531c-5.178,0-13.722,12.394-16.827,17.181c0.574-3.783,1.039-6.735,1.337-8.62
		c0.068-0.245,0.233-0.87,0.457-1.765c3.469-4.062,16.198-18.595,20.83-18.595c5.382,0,7.038,2.277,7.038,13.041
		c0,10.764-7.038,36.847-7.038,36.847s13.455-22.356,13.455-36.847C183.717,187.27,184.545,164.914,173.781,164.914z"/>
	<path fill="#23964C" d="M169.64,159.325c0,0,0.208-7.659-0.621-9.109c-0.828-1.449-3.105-2.898-7.452,1.45
		c-4.347,4.347-5.381,19.872-5.381,19.872s4.761-8.073,7.866-10.971S169.64,159.325,169.64,159.325z"/>
	<path fill="#23964C" d="M97.604,190.444c2.761,1.656,8.28,6.073,8.28,6.073s-5.796-13.802-9.108-13.802
		c-3.312,0-4.417,6.35-4.417,6.35S94.844,188.788,97.604,190.444z"/>
	<path fill="#23964C" d="M109.473,218.873c0,0-13.526-23.184-20.425-23.184c-6.898,0-7.175,13.524-7.175,19.044
		c0,5.519,4.692,20.424,4.692,20.424s-2.209-25.945,5.796-25.945C100.365,209.212,109.473,218.873,109.473,218.873z"/>
	<path fill="#23964C" d="M105.333,229.36c3.036,0,6.899,0.552,6.899,0.552s-4.968-12.144-12.42-12.144
		c-7.452,0-6.071,19.319-3.035,27.047c3.035,7.729,9.659,15.458,9.659,15.458s-6.347-14.351-6.347-19.873
		C100.088,234.88,102.297,229.36,105.333,229.36z"/>
</g>
</svg>
