<?xml version="1.0" encoding="utf-8"?>
<!-- Generator: Adobe Illustrator 15.1.0, SVG Export Plug-In . SVG Version: 6.00 Build 0)  -->
<!DOCTYPE svg PUBLIC "-//W3C//DTD SVG 1.1//EN" "http://www.w3.org/Graphics/SVG/1.1/DTD/svg11.dtd">
<svg version="1.1" id="Layer_1" xmlns="http://www.w3.org/2000/svg" xmlns:xlink="http://www.w3.org/1999/xlink" x="0px" y="0px"
	 width="513.173px" height="822.665px" viewBox="0 0 513.173 822.665" enable-background="new 0 0 513.173 822.665"
	 xml:space="preserve">
<g>
	<path fill="#221D56" d="M502.42,39.083c-5.5,0-11.5,4-15.5-2.75c-6-10,4-19.75,2.75-21.25s-6.417-0.083-11.667,4.333
		s-12.833,14.75-16.583,4.917s-1.501-18.25-3.333-19.667c-1.834-1.417-15.5,19.5-20.417,17.667s-6.083-4.417-6.083-10
		S431.003,0,429.253,0s-4.332,15.667-5.25,17.75c-0.916,2.083-4.144,4.227-4.144,4.227c-19.354,7.433-33.189,25.664-33.189,47.105
		c0,12.315,4.519,23.604,12.03,32.392c0.053,0.479,0.046,1.022-0.113,1.608c-0.5,1.833-3.75,6.167-6.084,8.5
		c-0.305,0.305-0.597,0.569-0.877,0.804c-11.769-9.105-23.683-15.722-33.456-15.722c-31.334,0-20.001,14.667-53.334,14.667
		S256.67,66.495,256.67,66.495s-14.833,44.837-48.167,44.837s-22-14.667-53.334-14.667c-9.797,0-21.744,6.648-33.54,15.787
		c-0.306-0.252-0.623-0.533-0.959-0.869c-2.333-2.333-5.583-6.667-6.083-8.5c-0.16-0.585-0.167-1.128-0.114-1.608
		c7.512-8.789,12.03-20.077,12.03-32.392c0-21.442-13.835-39.672-33.189-47.105c0,0-3.227-2.144-4.144-4.227S85.67,0,83.92,0
		s-2.333,6.749-2.333,12.333s-1.167,8.167-6.083,10S56.92,3.249,55.087,4.666s0.417,9.833-3.333,19.667s-11.333-0.5-16.583-4.917
		s-10.417-5.833-11.667-4.333s8.75,11.25,2.75,21.25c-4,6.75-10,2.75-15.5,2.75s-10.5,4.25-10.75,6s14.25,5.5,19.25,8.75
		s3.666,6.528,3.666,6.528c-0.492,2.799-0.916,5.787-0.916,8.722c0,28.028,23.394,50.75,52.25,50.75
		c7.301,0,14.249-1.459,20.56-4.086c0.475-0.019,3.844-0.134,4.773,0.252c0.898,0.374,6.482,6.377,7.678,8.75
		c-20.137,18.724-36.761,39.917-36.761,39.917v658h372.333v-658c0,0-16.688-21.274-36.876-40.023
		c1.31-2.444,6.743-8.274,7.627-8.643c0.929-0.387,4.298-0.271,4.773-0.252c6.311,2.627,13.259,4.086,20.56,4.086
		c28.856,0,52.25-22.722,52.25-50.75c0-2.936-0.424-5.923-0.916-8.722c0,0-1.334-3.278,3.666-6.528s19.5-7,19.25-8.75
		S507.92,39.083,502.42,39.083z"/>
	<g>
		<path fill="#221D56" d="M191.307,38.517c0,0,4.762-8.708,1.806-19.858c-2.956-11.15-16.791-16.545-16.791-16.545
			s-6.069,13.469-0.319,23.469S191.307,38.517,191.307,38.517z"/>
		<path fill="#221D56" d="M185.16,46.624c0,0-5.161-8.478-16.296-11.493c-11.134-3.015-22.724,6.269-22.724,6.269
			s8.63,11.99,20.166,12.011C177.841,53.43,185.16,46.624,185.16,46.624z"/>
		<path fill="#221D56" d="M189.105,56c0,0-9.922,0.231-18.101,8.366c-8.179,8.135-5.933,22.813-5.933,22.813
			s14.698-1.479,20.484-11.459C191.341,65.742,189.105,56,189.105,56z"/>
		<path fill="#221D56" d="M199.199,57.272c0,0-4.761,8.708-1.805,19.858c2.955,11.15,16.791,16.545,16.791,16.545
			s6.068-13.469,0.318-23.47C208.753,60.206,199.199,57.272,199.199,57.272z"/>
		<path fill="#221D56" d="M205.347,49.167c0,0,5.16,8.477,16.296,11.492c11.134,3.017,22.724-6.269,22.724-6.269
			s-8.63-11.99-20.166-12.011C212.666,42.359,205.347,49.167,205.347,49.167z"/>
		<path fill="#221D56" d="M201.402,39.789c0,0,9.922-0.23,18.1-8.366c8.18-8.134,5.934-22.813,5.934-22.813
			s-14.699,1.479-20.484,11.458C199.166,30.047,201.402,39.789,201.402,39.789z"/>
		<circle fill="#221D56" cx="195.378" cy="47.833" r="5.625"/>
	</g>
	<path fill="#DC9427" d="M411.253,190.958c0,0-10.75,0-17.625,0s-11.375-5.625-15.375-5.625c-1.75,0-5,4.875-5,7.125s0,23,0,23
		s-0.875,0.75-3.25,5.625c-1.314,2.698-1.938,5.354-2.234,7.191c-5.386-4.359-9.766-9.818-9.766-15.066c0-6.125,0-6.125,0-11.25
		s-6.75-10.125-10-10.125s-8,0-14.75,0s-7.375-7.375-10-7.375c-1.25,0-3.75,3.25-4.5,5s-0.625,17.375-0.625,20.875
		s4.875,6.625,9.625,7.625s17,0.875,17,0.875s-0.375,10.25,8.5,20.75s19.75,12.625,19.75,12.625s-38.375,0-39.375,0s-6,4.625-9,10
		s-3.5,10.875-3.5,12s0.25,2.625,1.375,2.625s62,0,67.25,0s8.125-7.125,8.5-10.125s0.5-8.25,0.5-15.5s-10.375-12.125-19.125-15.75
		c-0.553-0.229-1.122-0.482-1.704-0.758c0.3-2.301,0.764-5.892,1.079-8.492c0.5-4.125,3.625-8.75,4.5-9.625s4.875-1,13.75-1
		s12.75-6.25,13.5-10.125S411.253,190.958,411.253,190.958z"/>
	<path fill="#DC9427" d="M227.503,275.333c0,0,3.125-10,5.625-14.75s6.125-8.375,8.25-8.375s45.625,0,47.25,0s3.25-3.5,3.25-5.875
		s-2.5-12.25-4.125-15.625s-4.625-8.625-5.875-9.375s-8.5-3.125-18.75-4.375s-18.875-1-18.875-1s-1.375,3.125-0.375,3.375
		s16.625,5.25,17.875,6.75s2.625,7.75,1.625,11.125s-6.625,11.625-8.5,11.625s-8.875-2-14.5-4.25s-12-5.875-12-7.25
		s1.125-6.25,3.25-11.25s5.125-12.125,5.125-12.125s-7.25-6.75-7.25-10.375s6.375-19.25,9.25-19.25s2.625,1.875,5,2.25
		s47.375,6.5,49.875,9.875s5.5,20.25,6.875,26.875s3.75,16.5,3.75,23s-4.5,15.5-9.25,20.125s-9.625,10-16.625,10
		S227.503,275.333,227.503,275.333z"/>
	<path fill="#DC9427" d="M194.504,273.666c0-3.073-2-46.958-2.25-48.208s0.25-7.5-4.5-8.25s-37.25-1.125-41-0.875
		s-8.625,4.25-8.625,10s1.625,12.375,2.75,16.625s2.125,8.375,2.125,8.375s3.875,3.5,3.875,6.75c0,9-7.25,14.125-7.25,14.125
		s-7.5,1.25-16,2.75s-12.625,3.125-14.875,3.125s-4.875-3.625-4.875-6.25s3.875-14.75,8.625-19.375s14.375-5.625,14.375-5.625
		s-2-10.625-2-16s6.75-12.875,6.75-12.875s-13.625-4.5-13.625-13.125s10.5-22.125,12.5-22.125s4.875,6.625,8.75,6.625
		s45.875,0,50.5,0s18.25,6.25,18.25,15.375s-0.5,56-0.75,60s-5.875,13.25-8.5,13.25S194.504,275.374,194.504,273.666z"/>
	<path fill="none" stroke="#C0CAC3" stroke-width="16" stroke-linecap="round" stroke-miterlimit="10" d="M299.503,630.833
		c0,0,9.5-13,21.75-13c29,0,25.75,19.25,47.75,19.25s36.5-18.75,36.5-18.75"/>
	<path fill="none" stroke="#C0CAC3" stroke-width="16" stroke-linecap="round" stroke-miterlimit="10" d="M299.503,660.833
		c0,0,9.5-13,21.75-13c29,0,25.75,19.25,47.75,19.25s36.5-18.75,36.5-18.75"/>
	<path fill="none" stroke="#C0CAC3" stroke-width="16" stroke-linecap="round" stroke-miterlimit="10" d="M299.503,690.833
		c0,0,9.5-13,21.75-13c29,0,25.75,19.25,47.75,19.25s36.5-18.75,36.5-18.75"/>
	<path fill="#C0CAC3" d="M243.17,540.667c0,0,15.333-54,71.667-54c12.334,0,23.334,5.666,23.334,5.666s17-25.666,33.333-25.666
		S412.17,481,412.17,481s-22.334-1.666-41.667,5.667s-26,24.333-26,24.333s-25.332-12.333-55.333,1
		C259.17,525.333,243.17,540.667,243.17,540.667z"/>
	<path fill="#C0CAC3" d="M101.503,440.833c0,0,2.834-6.167,14.667-6.167c7,0,12,3.5,14.333,4.5s4.167,1.334,4.167,1.334
		s-0.333,8.833-15.333,8.833S101.503,440.833,101.503,440.833z"/>
	<path fill="#C0CAC3" d="M90.551,401.014c0,0,5.636-3.781,15.729,2.396c5.971,3.654,8.408,9.249,9.876,11.32
		c1.468,2.071,2.857,3.313,2.857,3.313s-4.895,7.359-17.689-0.47C88.531,409.743,90.551,401.014,90.551,401.014z"/>
	<path fill="#C0CAC3" d="M83.812,364.138c0,0,6.004-3.165,15.388,4.043c5.551,4.264,7.384,10.085,8.626,12.3
		c1.241,2.214,2.492,3.596,2.492,3.596s-5.645,6.802-17.541-2.335C80.882,372.605,83.812,364.138,83.812,364.138z"/>
	<path fill="#C0CAC3" d="M166.319,395.523c0,0,6.766,0.543,10.83,11.656c2.404,6.574,0.835,12.472,0.697,15.006
		c-0.138,2.535,0.178,4.372,0.178,4.372s-8.409,2.721-13.562-11.366C159.31,401.104,166.319,395.523,166.319,395.523z"/>
	<path fill="#C0CAC3" d="M195.493,370.34c0,0,6.601,1.575,8.912,13.18c1.366,6.866-1.09,12.453-1.615,14.936
		c-0.525,2.484-0.495,4.347-0.495,4.347s-8.727,1.398-11.657-13.313C187.71,374.779,195.493,370.34,195.493,370.34z"/>
	<path fill="#C0CAC3" d="M215.789,353.751c0,0,6.787,0.03,11.682,10.802c2.895,6.373,1.778,12.373,1.833,14.911
		c0.055,2.539,0.509,4.346,0.509,4.346s-8.179,3.35-14.385-10.305C209.223,359.848,215.789,353.751,215.789,353.751z"/>
	<path fill="#C0CAC3" d="M246.933,344.154c0,0,6.112,1.465,8.241,12.214c1.259,6.359-1.02,11.531-1.509,13.831
		c-0.489,2.3-0.463,4.025-0.463,4.025s-8.083,1.287-10.784-12.339C239.72,348.258,246.933,344.154,246.933,344.154z"/>
	<path fill="#C0CAC3" d="M129.838,353.869c0,0-6.783-0.213-12.06,10.379c-3.121,6.266-2.218,12.301-2.363,14.835
		c-0.145,2.535-0.663,4.325-0.663,4.325s8.055,3.64,14.743-9.786C136.184,360.195,129.838,353.869,129.838,353.869z"/>
	<path fill="#C0CAC3" d="M141.342,384.177c0,0-6.783,0.229-11.358,11.142c-2.707,6.456-1.412,12.42-1.392,14.958
		c0.021,2.539-0.38,4.359-0.38,4.359s8.274,3.107,14.074-10.725C148.085,390.077,141.342,384.177,141.342,384.177z"/>
	<path fill="#C0CAC3" d="M152.515,400.869c0,0-6.71,1.014-9.991,12.384c-1.94,6.726,0.037,12.5,0.351,15.019
		c0.315,2.52,0.128,4.374,0.128,4.374s8.579,2.127,12.736-12.285C159.897,405.947,152.515,400.869,152.515,400.869z"/>
	<path fill="#C0CAC3" d="M223.382,434.03c0,0-1.5-6.271-12.527-8.466c-6.523-1.297-11.833,1.039-14.19,1.538
		c-2.36,0.5-4.132,0.472-4.132,0.472s-1.326,8.293,12.653,11.073C219.166,441.426,223.382,434.03,223.382,434.03z"/>
	<path fill="#C0CAC3" d="M238.882,415.53c0,0-1.5-6.271-12.527-8.466c-6.523-1.297-11.833,1.039-14.19,1.538
		c-2.36,0.5-4.132,0.472-4.132,0.472s-1.326,8.293,12.653,11.073C234.666,422.926,238.882,415.53,238.882,415.53z"/>
	<path fill="#C0CAC3" d="M263.715,397.53c0,0-1.5-6.271-12.527-8.466c-6.523-1.297-11.833,1.039-14.19,1.538
		c-2.36,0.5-4.132,0.472-4.132,0.472s-1.326,8.293,12.653,11.073C259.499,404.926,263.715,397.53,263.715,397.53z"/>
	<path fill="#C0CAC3" d="M287.635,379.098c0,0-2.487-5.973-13.761-6.386c-6.667-0.243-11.553,2.919-13.809,3.79
		c-2.258,0.872-4.018,1.127-4.018,1.127s0.011,8.426,14.3,8.948C284.639,387.096,287.635,379.098,287.635,379.098z"/>
	<path fill="#C0CAC3" d="M70.503,164.665v9.167h372.333v-9.167c0,0-0.81-1.031-2.28-2.833H72.784
		C71.312,163.634,70.503,164.665,70.503,164.665z"/>
	<path fill="#C0CAC3" d="M442.836,436.213v-15.862l-70.345-60.819l45.069-50.699h25.275v-12H70.503v12h193.5l58.165,50.289
		L132.17,573.781l-61.667-53.13v15.841l53.712,46.276l-9.119,10.303l-44.593-38.42v15.841l36.638,31.565l-36.638,41.394v18.105
		l45.73-51.666l9.991,8.608l-55.721,62.68v18.062l64.813-72.908l227.88,196.333h16.899l62.74-63.747v-17.108l-71.171,72.312
		l-228.375-196.76l9.142-10.284l219.909,189.466l70.495-71.626v-17.108l-71.171,72.312L160.406,598.108L350.829,383.9l92.008,79.549
		v-15.863l-84.034-72.655l5.716-6.43L442.836,436.213z M366.68,308.833l-22.902,25.875l-29.927-25.875H366.68z M282.351,308.833
		h13.153l40.32,34.86l-5.702,6.442L282.351,308.833z M134.198,609.528l-10.01-8.624l9.119-10.303l10.033,8.644L134.198,609.528z
		 M151.314,590.274l-10.052-8.66L331.248,366.97l10.503,9.081L151.314,590.274z M349.723,367.082l-10.522-9.098l5.702-6.442
		l10.537,9.11L349.723,367.082z M352.856,342.556l29.85-33.724h18.8l-38.093,42.85L352.856,342.556z"/>
	<path fill="#C0CAC3" d="M251.503,375.083c0,0-29.25,6-52,28.25s-31.5,45.25-31.5,45.25l-10.75-0.5c0,0-18.5-13.25-29.25-31
		s-13.25-40.75-13.25-40.75l-5.25-3c0,0-0.75,24,12,45.5s33.25,33.25,33.25,33.25s-0.5,6.25-0.75,8.5s0.75,8.75,0.75,8.75
		s-2.25,4.5-3.75,7.75s-3,10-3,10s-5.75,6.25-11,14s-3.75,24.5-3.75,24.5h11.5c0,0,3.5-7.75,10-17.25s9.75-12.25,9.75-12.25
		s-0.25-6.25,0.5-9.75s3-10,3-10s0-12,0.25-15.75s7-9.5,8.5-14s12.25-21.5,29-38.5s46.75-27.25,46.75-27.25L251.503,375.083z"/>
	<path fill="#D99628" d="M143.837,699.333c0,0,6.333-14.667,15-14.667S191.503,695.667,200.17,707s19.667,26,19.667,60
		c0,13.666-22,28.333-41.667,28.333s-45-12-59.667-27S97.837,730.667,97.837,713c0-8,8.333-17,16-17s14.333,1.999,19.667,2.666
		S143.837,699.333,143.837,699.333z"/>
	<g>
		
			<ellipse transform="matrix(0.9752 0.2214 -0.2214 0.9752 164.5211 -9.2867)" fill="#C4CABA" cx="123.691" cy="729.333" rx="12.687" ry="6.125"/>
		
			<ellipse transform="matrix(0.9752 0.2214 -0.2214 0.9752 164.5211 -9.2867)" fill="#C0CAC3" cx="123.691" cy="729.333" rx="12.687" ry="6.125"/>
	</g>
	
		<ellipse transform="matrix(0.7413 0.6711 -0.6711 0.7413 520.4406 83.9647)" fill="#1F1415" cx="151.295" cy="717.139" rx="10.335" ry="8.146"/>
	
		<ellipse transform="matrix(0.6088 0.7933 -0.7933 0.6088 632.8559 136.3495)" fill="#E52625" cx="178.17" cy="709.889" rx="10.335" ry="8.146"/>
	
		<ellipse transform="matrix(-0.2318 0.9728 -0.9728 -0.2318 964.2513 727.0741)" fill="#E65425" cx="195.045" cy="744.265" rx="10.335" ry="8.146"/>
	
		<ellipse transform="matrix(0.9523 -0.3051 0.3051 0.9523 -225.2285 79.8152)" fill="#201D55" cx="142.795" cy="760.641" rx="10.335" ry="8.146"/>
	<path fill="none" stroke="#221D56" stroke-miterlimit="10" d="M74.253,18.333"/>
	<path fill="#C0CAC3" d="M117.793,61.217c0,0-1.219-7.191-9.313-12.959c-8.094-5.768-20.961-3.845-20.961-3.845
		S90.34,55.044,99.835,59.04C109.33,63.035,117.793,61.217,117.793,61.217z"/>
	<path fill="#C0CAC3" d="M106.992,83.696c0,0,1.041-7.22-4.899-15.188c-5.94-7.969-18.778-10.076-18.778-10.076
		s-0.568,10.985,7.249,17.694C98.379,82.836,106.992,83.696,106.992,83.696z"/>
	<path fill="#C0CAC3" d="M100.269,105.623c0,0,2.326-6.914-2.081-15.822c-4.406-8.91-16.654-13.297-16.654-13.297
		s-2.539,10.703,3.94,18.711C91.952,103.224,100.269,105.623,100.269,105.623z"/>
	<path fill="#C0CAC3" d="M75.212,102.006c0,0,3.24-6.535,0.08-15.958C72.131,76.624,60.59,70.619,60.59,70.619
		s-3.964,10.261,1.372,19.072C67.296,98.503,75.212,102.006,75.212,102.006z"/>
	<path fill="#C0CAC3" d="M50.344,96.576c0,0,4.758-5.529,4.031-15.441c-0.727-9.913-10.42-18.59-10.42-18.59
		s-6.383,8.959-3.396,18.818C43.543,91.221,50.344,96.576,50.344,96.576z"/>
	<g>
		<path fill="#221D56" d="M321.867,38.517c0,0-4.762-8.708-1.807-19.858c2.957-11.15,16.791-16.545,16.791-16.545
			s6.069,13.469,0.319,23.469S321.867,38.517,321.867,38.517z"/>
		<path fill="#221D56" d="M328.014,46.624c0,0,5.161-8.478,16.296-11.493c11.134-3.015,22.724,6.269,22.724,6.269
			s-8.63,11.99-20.166,12.011C335.333,53.43,328.014,46.624,328.014,46.624z"/>
		<path fill="#221D56" d="M324.069,56c0,0,9.922,0.231,18.101,8.366c8.179,8.135,5.933,22.813,5.933,22.813
			s-14.698-1.479-20.484-11.459C321.833,65.742,324.069,56,324.069,56z"/>
		<path fill="#221D56" d="M313.975,57.272c0,0,4.761,8.708,1.805,19.858c-2.955,11.15-16.791,16.545-16.791,16.545
			s-6.068-13.469-0.318-23.47C304.42,60.206,313.975,57.272,313.975,57.272z"/>
		<path fill="#221D56" d="M307.827,49.167c0,0-5.16,8.477-16.296,11.492c-11.134,3.017-22.724-6.269-22.724-6.269
			s8.63-11.99,20.166-12.011C300.508,42.359,307.827,49.167,307.827,49.167z"/>
		<path fill="#221D56" d="M311.772,39.789c0,0-9.922-0.23-18.1-8.366c-8.18-8.134-5.934-22.813-5.934-22.813
			s14.699,1.479,20.484,11.458C314.008,30.047,311.772,39.789,311.772,39.789z"/>
		<circle fill="#221D56" cx="317.795" cy="47.833" r="5.625"/>
	</g>
	<path fill="none" stroke="#221D56" stroke-miterlimit="10" d="M438.92,18.333"/>
	<path fill="#C0CAC3" d="M395.38,61.217c0,0,1.22-7.191,9.313-12.959c8.095-5.768,20.961-3.845,20.961-3.845
		s-2.821,10.631-12.316,14.626S395.38,61.217,395.38,61.217z"/>
	<path fill="#C0CAC3" d="M406.181,83.696c0,0-1.04-7.22,4.9-15.188c5.939-7.969,18.777-10.076,18.777-10.076
		s0.568,10.985-7.248,17.694S406.181,83.696,406.181,83.696z"/>
	<path fill="#C0CAC3" d="M412.905,105.623c0,0-2.325-6.914,2.081-15.822c4.406-8.91,16.653-13.297,16.653-13.297
		s2.539,10.703-3.94,18.711C421.222,103.224,412.905,105.623,412.905,105.623z"/>
	<path fill="#C0CAC3" d="M437.962,102.006c0,0-3.24-6.535-0.08-15.958c3.16-9.424,14.701-15.428,14.701-15.428
		s3.965,10.261-1.371,19.072C445.877,98.503,437.962,102.006,437.962,102.006z"/>
	<path fill="#C0CAC3" d="M462.83,96.576c0,0-4.758-5.529-4.031-15.441c0.727-9.913,10.42-18.59,10.42-18.59
		s6.383,8.959,3.396,18.818C469.63,91.221,462.83,96.576,462.83,96.576z"/>
</g>
</svg>
