<?xml version="1.0" encoding="utf-8"?>
<!-- Generator: Adobe Illustrator 15.1.0, SVG Export Plug-In . SVG Version: 6.00 Build 0)  -->
<!DOCTYPE svg PUBLIC "-//W3C//DTD SVG 1.1//EN" "http://www.w3.org/Graphics/SVG/1.1/DTD/svg11.dtd">
<svg version="1.1" id="Layer_1" xmlns="http://www.w3.org/2000/svg" xmlns:xlink="http://www.w3.org/1999/xlink" x="0px" y="0px"
	 width="180.416px" height="297.545px" viewBox="0 0 180.416 297.545" enable-background="new 0 0 180.416 297.545"
	 xml:space="preserve">
<path fill="#FFFFFF" d="M90.219,222.313c74.166,0,89.651-37.71,89.651-46.418c0-6.156-0.558-164.282-0.558-164.282h-24.844v13.875
	h-48.031L90.219,9.926L74,25.488H25.969V11.613H1.125c0,0-0.558,158.125-0.558,164.282C0.567,184.603,16.052,222.313,90.219,222.313
	z"/>
<g>
	<path fill="#A31E22" d="M90.219,39.725c2.688,0,6.031,0.188,6.031,0.188s-1.562-6.188-1.562-12.75s2.375-9.062,2.375-9.062
		l-1.125-2.75l-5.719-5.688L84.5,15.35l-1.125,2.75c0,0,2.375,2.5,2.375,9.062s-1.562,12.75-1.562,12.75
		S87.531,39.725,90.219,39.725z"/>
	<path fill="#725D27" d="M180.112,71.573l0.075-0.072V53.163h-0.135c-0.076-23.448-0.135-40.992-0.137-41.501l-0.002-0.499h-25.998
		v13.875h-47.172L91.066,9.798c0.626,0.181,1.289,0.281,1.977,0.281c3.62,0,6.579-2.693,6.848-6.111
		c-1.211,1.888-3.373,3.15-5.848,3.15c-3.798,0-6.876-2.961-6.876-6.615c0-0.17,0.013-0.336,0.026-0.503
		c-0.646,1.009-1.026,2.193-1.026,3.464c0,2.542,1.493,4.746,3.679,5.854l-16.174,15.72H26.5V11.163H0.501L0.5,11.661
		c-0.001,0.51-0.06,18.053-0.137,41.501H0.312v15.683C0.17,112.75,0,167.183,0,175.163c0,6.973,5,18.735,19.093,28.937
		c11.541,8.354,33.248,18.313,71.116,18.313c37.867,0,59.573-9.959,71.114-18.313c14.093-10.201,19.093-21.964,19.093-28.937
		C180.416,167.347,180.252,114.974,180.112,71.573z M179.151,83.663c-0.797,0-4.025,0-13.276,0c-11,0-28.875,9-28.875,9
		s-6.625-2.75-10.375-6.5c-2.845-2.845-5.758-6.835-7-8.599v-3.948c1.879,0.891,6.033,2.047,14.957,2.047
		c11.094,0,21.781-7.433,28.739-13.596c-2.123,2.367-4.319,4.723-6.041,6.358c-4.727,4.488-9.928,4.674-9.98,4.675l-0.691,0.018
		l0.233,0.651c0.03,0.083,3.105,8.331,12.721,8.331c7.978,0,16.73-7.118,19.553-9.613C179.127,76.162,179.139,79.897,179.151,83.663
		z M60.791,77.327c-1.128,1.613-4.183,5.853-7.166,8.835c-3.75,3.75-10.375,6.5-10.375,6.5s-17.875-9-28.875-9
		c-8.708,0-12.079,0-13.11,0c0.012-3.791,0.024-7.551,0.036-11.25C4.026,74.834,12.875,82.1,20.938,82.1
		c9.615,0,12.69-8.248,12.721-8.331l0.219-0.612c3.746,1.53,7.699,2.506,11.706,2.506c9.344,0,13.46-1.268,15.208-2.171V77.327z
		 M1.36,54.163h7.656c1.178,1.408,8.969,10.672,13.515,14.988c4.009,3.806,8.26,4.687,9.925,4.889
		c-0.869,1.826-4.013,7.061-11.518,7.061c-8.467,0-18.283-8.79-19.625-10.029v-2.253C1.329,63.764,1.345,58.85,1.36,54.163z
		 M179.111,71.141c-1.552,1.423-11.198,9.959-19.549,9.959c-7.505,0-10.649-5.234-11.518-7.061c1.664-0.203,5.915-1.083,9.925-4.889
		c4.545-4.316,12.336-13.58,13.514-14.988h7.572C179.073,59.566,179.092,65.267,179.111,71.141z M134.582,74.663
		c-9.762,0-13.608-1.433-14.957-2.187v-1.04c1.801-3.24,7.657-12.755,15.971-15.974c10.683-4.136,15.887-4.966,20.819-4.966
		c4.365,0,11.487,2.558,13.663,3.38C167.232,57.168,151.312,74.663,134.582,74.663z M119.625,69.415v-8.919h-6.922
		c-0.243-8.944-10.241-16.167-22.495-16.167c-12.254,0-22.252,7.222-22.496,16.167h-6.921v9.341
		c-2.204-3.758-7.229-11.155-14.297-14.615c9.157-9.197,25.794-14.892,43.714-14.892c17.867,0,34.456,5.662,43.63,14.812
		C126.939,58.442,121.964,65.517,119.625,69.415z M60.791,71.893v0.432c-1.091,0.699-4.765,2.338-15.208,2.338
		c-16.731,0-32.651-17.495-35.497-20.787c2.176-0.822,9.298-3.38,13.664-3.38c4.933,0,10.136,0.831,20.819,4.966
		C53.321,58.85,59.352,69.217,60.791,71.893z M33.771,73.115L33.2,73.1c-0.052-0.001-5.253-0.188-9.98-4.675
		c-1.401-1.331-3.117-3.14-4.852-5.042C22.587,66.941,27.917,70.706,33.771,73.115z M61.791,72.832
		c0.102-0.093,0.162-0.163,0.189-0.199l0.188-0.245l-0.136-0.278c-0.025-0.052-0.107-0.218-0.242-0.476V61.496h6.423l0.494-0.167
		v-0.5c0-8.547,9.645-15.5,21.5-15.5c11.855,0,21.5,6.953,21.5,15.5h0.494l-0.5,0.158l-0.009,0.509h6.932v9.668
		c-0.285,0.526-0.454,0.867-0.492,0.946l-0.136,0.278l0.188,0.245c0.045,0.059,0.172,0.205,0.44,0.403v37.959H61.791V72.832z
		 M1.499,12.163H25.5v13.875h48.578L90.209,10.36l16.129,15.678h48.578V12.163h24.002c0.01,3.06,0.064,19.563,0.135,41h-8.037
		l-0.001,0.001c-0.886-0.35-9.404-3.668-14.6-3.668c-5.048,0-10.353,0.842-21.181,5.034c-0.14,0.054-0.275,0.116-0.414,0.173
		c-9.303-9.49-26.314-15.374-44.612-15.374c-18.345,0-35.405,5.914-44.688,15.447c-0.196-0.083-0.39-0.169-0.589-0.247
		c-10.829-4.191-16.133-5.034-21.181-5.034c-5.188,0-13.688,3.308-14.595,3.667H1.363C1.433,31.726,1.488,15.222,1.499,12.163z
		 M160.737,203.289c-1.975,1.43-4.26,2.907-6.868,4.372c-11.416-10.354-35.528-17.498-63.453-17.498
		c-28.056,0-52.258,7.212-63.608,17.645c-2.719-1.514-5.089-3.041-7.13-4.519C6.776,193.948,1,182.432,1,175.163
		c0-4.69,0.059-25.441,0.136-50.664c1.279,0.985,7.474,5.164,20.489,5.164c14.75,0,20.25-3.125,20.25-3.125s5.875,35,46.25,35
		l-2.625-30.25l-29.125,2.375c0,0-2.875-20.5-29.125-20.5c-11.75,0-21.625,3.25-21.625,3.25s12.25-10.625,29.25-10.625
		c14.83,0,23.853,4.342,25.916,5.451v0.757h58.834v-0.844c2.316-1.22,11.246-5.364,25.75-5.364c17,0,29.25,10.625,29.25,10.625
		s-9.875-3.25-21.625-3.25c-26.25,0-29.125,20.5-29.125,20.5l-29.125-2.375l-2.625,30.25c40.375,0,46.25-35,46.25-35
		s5.5,3.125,20.25,3.125c13.722,0,19.863-4.646,20.654-5.295c0.077,25.282,0.137,46.097,0.137,50.795
		C179.416,182.432,173.641,193.948,160.737,203.289z"/>
	<path fill="#206231" d="M137.625,96.663c0,0,4.625-4.875,17.375-4.875s23,11.5,23,11.5s-2.125,2.75-8,2.75s-15.5-9.5-22.125-9.5
		S137.625,96.663,137.625,96.663z"/>
	<g>
		<path fill="#A71F23" d="M22.273,287.952v5.776c0,0.679,0.096,1.243,0.289,1.692c0.286,0.679,0.768,1.018,1.446,1.018
			c0.813,0,1.365-0.366,1.658-1.101c0.158-0.398,0.236-0.935,0.236-1.609v-5.776h0.961v5.248c0,1.149-0.117,2.034-0.35,2.653
			c-0.429,1.128-1.238,1.692-2.428,1.692s-1.998-0.564-2.423-1.692c-0.233-0.619-0.35-1.504-0.35-2.653v-5.248H22.273z"/>
		<path fill="#A71F23" d="M28.293,287.952h1.363l2.02,7.901l2.005-7.901h1.354v9.346h-0.908v-5.516c0-0.191,0.003-0.507,0.009-0.948
			s0.01-0.914,0.01-1.419l-2.005,7.883h-0.943l-2.024-7.883v0.286c0,0.229,0.005,0.578,0.015,1.047
			c0.009,0.469,0.014,0.813,0.014,1.034v5.516h-0.908V287.952z"/>
		<path fill="#A71F23" d="M36.45,287.952h1.363l2.02,7.901l2.005-7.901h1.354v9.346h-0.908v-5.516c0-0.191,0.003-0.507,0.009-0.948
			s0.01-0.914,0.01-1.419l-2.005,7.883h-0.943l-2.024-7.883v0.286c0,0.229,0.005,0.578,0.015,1.047
			c0.009,0.469,0.014,0.813,0.014,1.034v5.516H36.45V287.952z"/>
		<path fill="#A71F23" d="M48.865,287.952h1.074l2.549,9.346h-1.042l-0.733-2.8h-2.755l-0.762,2.8H46.22L48.865,287.952z
			 M50.442,293.467l-1.081-4.129l-1.124,4.129H50.442z"/>
		<path fill="#A71F23" d="M53.347,287.952h0.951v8.232h3.524v1.113h-4.475V287.952z"/>
		<path fill="#A71F23" d="M58.453,293.08h2.4v1.177h-2.4V293.08z"/>
		<path fill="#A71F23" d="M62.144,287.952h4.872v1.145h-3.921v2.838h3.447v1.113h-3.447v4.25h-0.951V287.952z"/>
		<path fill="#A71F23" d="M69.548,287.952h1.074l2.549,9.346h-1.042l-0.733-2.8h-2.755l-0.762,2.8h-0.976L69.548,287.952z
			 M71.126,293.467l-1.081-4.129l-1.124,4.129H71.126z"/>
		<path fill="#A71F23" d="M74.054,287.952h0.961v3.861h3.61v-3.861h0.961v9.346h-0.961v-4.371h-3.61v4.371h-0.961V287.952z"/>
		<path fill="#A71F23" d="M81.078,287.952h1.363l2.02,7.901l2.005-7.901h1.354v9.346h-0.908v-5.516c0-0.191,0.003-0.507,0.009-0.948
			s0.01-0.914,0.01-1.419l-2.005,7.883h-0.943l-2.024-7.883v0.286c0,0.229,0.005,0.578,0.015,1.047
			c0.009,0.469,0.014,0.813,0.014,1.034v5.516h-0.908V287.952z"/>
		<path fill="#A71F23" d="M91.955,287.952h1.362l2.02,7.901l2.006-7.901h1.354v9.346h-0.909v-5.516c0-0.191,0.004-0.507,0.01-0.948
			c0.007-0.441,0.01-0.914,0.01-1.419l-2.005,7.883h-0.943l-2.024-7.883v0.286c0,0.229,0.005,0.578,0.015,1.047
			s0.015,0.813,0.015,1.034v5.516h-0.908V287.952z"/>
		<path fill="#A71F23" d="M101.163,287.952v5.776c0,0.679,0.097,1.243,0.29,1.692c0.285,0.679,0.768,1.018,1.445,1.018
			c0.812,0,1.365-0.366,1.658-1.101c0.157-0.398,0.235-0.935,0.235-1.609v-5.776h0.962v5.248c0,1.149-0.117,2.034-0.351,2.653
			c-0.429,1.128-1.238,1.692-2.428,1.692s-1.997-0.564-2.423-1.692c-0.233-0.619-0.351-1.504-0.351-2.653v-5.248H101.163z"/>
		<path fill="#A71F23" d="M107.207,287.952h1.12l3.503,7.551v-7.551h0.908v9.346h-1.068l-3.555-7.542v7.542h-0.908V287.952z"/>
		<path fill="#A71F23" d="M114.493,287.952h0.961v9.346h-0.961V287.952z"/>
		<path fill="#A71F23" d="M121.967,288.632c0.484,0.623,0.754,1.332,0.808,2.125h-0.928c-0.104-0.603-0.309-1.08-0.617-1.432
			c-0.309-0.353-0.741-0.528-1.298-0.528c-0.68,0-1.229,0.324-1.646,0.971c-0.418,0.647-0.627,1.64-0.627,2.978
			c0,1.095,0.189,1.983,0.566,2.665c0.377,0.681,0.94,1.021,1.688,1.021c0.688,0,1.213-0.358,1.573-1.075
			c0.191-0.378,0.334-0.874,0.428-1.489h0.928c-0.082,0.984-0.354,1.81-0.813,2.476c-0.551,0.802-1.295,1.202-2.23,1.202
			c-0.807,0-1.484-0.329-2.032-0.986c-0.722-0.87-1.082-2.214-1.082-4.03c0-1.379,0.271-2.511,0.812-3.394
			c0.586-0.959,1.394-1.438,2.424-1.438C120.799,287.697,121.481,288.008,121.967,288.632z"/>
		<path fill="#A71F23" d="M124.285,287.952h0.961v9.346h-0.961V287.952z"/>
		<path fill="#A71F23" d="M126.882,287.952h3.143c0.621,0,1.123,0.234,1.505,0.703c0.383,0.469,0.573,1.127,0.573,1.975
			c0,0.73-0.17,1.365-0.511,1.906c-0.342,0.54-0.863,0.811-1.565,0.811h-2.193v3.951h-0.951V287.952z M130.572,289.237
			c-0.209-0.132-0.495-0.197-0.859-0.197h-1.88v3.238h1.88c0.424,0,0.769-0.121,1.032-0.363c0.265-0.241,0.396-0.668,0.396-1.278
			C131.142,289.949,130.952,289.483,130.572,289.237z"/>
		<path fill="#A71F23" d="M134.649,287.952h1.073l2.55,9.346h-1.043l-0.732-2.8h-2.756l-0.762,2.8h-0.976L134.649,287.952z
			 M136.227,293.467l-1.081-4.129l-1.124,4.129H136.227z"/>
		<path fill="#A71F23" d="M139.131,287.952h0.951v8.232h3.523v1.113h-4.475V287.952z"/>
		<path fill="#A71F23" d="M144.792,287.952h0.961v9.346h-0.961V287.952z"/>
		<path fill="#A71F23" d="M152.403,287.952v1.113h-2.367v8.232h-0.961v-8.232h-2.366v-1.113H152.403z"/>
		<path fill="#A71F23" d="M152.736,287.952h1.109l2.019,4.491l2.02-4.491h1.119l-2.66,5.579v3.767h-0.951v-3.767L152.736,287.952z"
			/>
	</g>
	<g>
		<path fill="#A31E22" d="M155.25,247.914v5.813h-4.75v-14.313h-3v14.313h-3.666v-0.48c0-5.168-7.126-7.833-10.167-7.833v3
			c2.078,0,7.167,2.092,7.167,4.833v0.48h-6.917v3h24.333v-8.813H155.25z"/>
		<path fill="#A31E22" d="M131.5,256.727v-8.98h-3v5.98h-4.833v-9.044l-1.906,0.536c-0.931,0.262-9.094,2.709-9.094,7.944
			c0,2.132,1.336,3.563,2.583,3.563h3.834v-3h-3.32c-0.049-0.122-0.097-0.307-0.097-0.563c0-1.788,2.714-3.422,5-4.378v7.941H131.5z
			"/>
		<rect x="103.335" y="240.891" fill="#A31E22" width="3" height="15.021"/>
		<rect x="77.084" y="239.414" fill="#A31E22" width="3" height="16.499"/>
		<path fill="#A31E22" d="M71.584,253.727h-4.417v-7.897h-5.167c-2.363,0-5.25,3.627-5.25,5.417v2.48h-3.496
			c-0.855-4.333-5.124-8.313-7.629-8.313H40.25v3h5.362c0.806,0.071,3.74,2.431,4.575,5.313H35.293v-7.897h-5.167
			c-2.363,0-5.25,3.627-5.25,5.417v2.48h-0.125c-1.53,0-4.167,2.141-4.167,4.332v5.938h3v-5.938c0-0.349,0.829-1.14,1.299-1.332
			h49.701v-17.313h-3V253.727z M59.743,251.342c0.149-0.664,1.646-2.382,2.258-2.513h2.167v4.897h-4.42L59.743,251.342z
			 M27.868,251.342c0.149-0.664,1.646-2.382,2.258-2.513h2.167v4.897h-4.42L27.868,251.342z"/>
		<path fill="#A31E22" d="M90.251,251.247v2.48c-2.173,0-3.75,1.822-3.75,4.332v5.938h3v-5.938c0-0.663,0.232-1.332,0.75-1.332
			h10.417V245.83h-5.167C93.139,245.83,90.251,249.457,90.251,251.247z M97.668,253.727h-4.42l-0.005-2.385
			c0.149-0.664,1.646-2.382,2.258-2.513h2.167V253.727z"/>
		<rect x="155.166" y="257.663" fill="#A31E22" width="3.043" height="3"/>
		<rect x="128.5" y="257.663" fill="#A31E22" width="3.043" height="3"/>
		<rect x="124.584" y="257.663" fill="#A31E22" width="3.043" height="3"/>
		<rect x="120.833" y="240.829" fill="#A31E22" width="3.043" height="3"/>
		<rect x="116.917" y="240.829" fill="#A31E22" width="3.043" height="3"/>
		<rect x="62.167" y="240.829" fill="#A31E22" width="3.043" height="3"/>
		<path fill="#A31E22" d="M104.417,236.179c0-0.574,1.225-1.062,1.783-1.197l-0.232-0.973c-0.261,0.062-2.551,0.652-2.551,2.17
			v2.066h-1.583v1H107v-1h-2.583V236.179z"/>
	</g>
	<g>
		<path fill="#A71F23" d="M30.897,279.535c0,0.239-0.012,0.384-0.035,0.434c-0.058,0.073-0.2,0.11-0.425,0.11H22.01
			c-0.18,0-0.29-0.019-0.33-0.056c-0.041-0.036-0.061-0.156-0.061-0.359v-8.613c0-0.301,0.142-0.451,0.425-0.451h5.242
			c1.342,0,2.262,0.199,2.76,0.599c0.567,0.455,0.851,1.356,0.851,2.702V279.535z M28.085,278.4v-4.592
			c0-0.627-0.109-1.045-0.326-1.254s-0.629-0.314-1.237-0.314h-2.074v6.16H28.085z"/>
		<path fill="#A71F23" d="M42.198,280.079h-2.795V273.9c0-0.627-0.122-1.061-0.364-1.3c-0.243-0.24-0.66-0.36-1.25-0.36h-1.883
			v7.839h-2.83v-8.991c0-0.325,0.142-0.488,0.425-0.488h5.069c1.325,0,2.242,0.228,2.751,0.682c0.584,0.492,0.876,1.418,0.876,2.776
			V280.079z"/>
		<path fill="#A71F23" d="M53.299,275.938c0.035,0.265,0.052,0.511,0.052,0.738c0,1.149-0.35,2.02-1.05,2.609
			c-0.602,0.528-1.415,0.793-2.439,0.793h-6.093c0.035-0.252,0.134-0.555,0.299-0.908s0.326-0.61,0.482-0.771h4.27
			c0.694,0,1.166-0.166,1.415-0.498c0.214-0.276,0.298-0.729,0.252-1.355l-0.252-3.209c-0.035-0.528-0.149-0.892-0.343-1.088
			s-0.505-0.295-0.933-0.295h-0.477c-0.608,0-0.969,0.304-1.085,0.913l-0.538,2.72c-0.59,0.351-1.58,0.526-2.968,0.526l0.746-3.154
			c0.394-1.672,1.551-2.508,3.472-2.508h1.38c1.14,0,1.973,0.216,2.5,0.649c0.526,0.434,0.856,1.173,0.989,2.218L53.299,275.938z"/>
		<path fill="#A71F23" d="M62.742,271.613l-0.634,4.464c-0.382,2.668-1.918,4.002-4.608,4.002h-1.667
			c0.081-0.554,0.292-1.094,0.634-1.623h0.625c0.724,0,1.244-0.15,1.562-0.452c0.289-0.276,0.486-0.78,0.59-1.512l0.564-3.854
			c0.041-0.277-0.052-0.415-0.278-0.415h-4.339c-0.498,0-0.747-0.271-0.747-0.812v-3.698h2.795v2.887h4.617
			c0.602,0,0.903,0.233,0.903,0.7C62.759,271.386,62.753,271.491,62.742,271.613z"/>
		<path fill="#A71F23" d="M74.528,280.079h-3.082l-3.732-5.155c-0.318,0.191-0.478,0.517-0.478,0.978v4.178h-2.716v-3.246
			c0-0.719,0.13-1.256,0.391-1.609c0.26-0.354,0.905-0.819,1.936-1.396l-2.561-3.043v-0.185h3.168l3.394,4.288
			c0.307-0.179,0.46-0.52,0.46-1.024v-3.264h2.812v2.452c0,0.658-0.185,1.188-0.555,1.587c-0.318,0.356-0.975,0.812-1.97,1.364
			l2.934,3.929V280.079z"/>
		<path fill="#A71F23" d="M89.848,279.535c0,0.239-0.012,0.384-0.035,0.434c-0.058,0.073-0.2,0.11-0.425,0.11H80.96
			c-0.18,0-0.29-0.019-0.33-0.056c-0.041-0.036-0.061-0.156-0.061-0.359v-8.613c0-0.301,0.142-0.451,0.425-0.451h5.242
			c1.342,0,2.262,0.199,2.76,0.599c0.567,0.455,0.851,1.356,0.851,2.702V279.535z M87.036,278.4v-4.592
			c0-0.627-0.109-1.045-0.326-1.254s-0.629-0.314-1.237-0.314h-2.074v6.16H87.036z"/>
		<path fill="#A71F23" d="M94.82,280.079h-2.794v-9.479h2.794V280.079z"/>
		<path fill="#A71F23" d="M106.876,280.079h-3.081l-3.731-5.155c-0.318,0.191-0.478,0.517-0.478,0.978v4.178h-2.717v-3.246
			c0-0.719,0.13-1.256,0.391-1.609c0.26-0.354,0.905-0.819,1.936-1.396l-2.561-3.043v-0.185h3.168l3.394,4.288
			c0.307-0.179,0.46-0.52,0.46-1.024v-3.264h2.812v2.452c0,0.658-0.186,1.188-0.556,1.587c-0.318,0.356-0.976,0.812-1.971,1.364
			l2.934,3.929V280.079z"/>
		<path fill="#A71F23" d="M122.864,280.079h-2.786v-6.104c0-0.664-0.138-1.122-0.412-1.374c-0.275-0.252-0.708-0.378-1.298-0.378
			h-1.458v5.266c0,0.86-0.217,1.507-0.651,1.94c-0.434,0.434-1.01,0.65-1.727,0.65h-2.422c0.104-0.744,0.274-1.297,0.512-1.66h0.79
			c0.48,0,0.721-0.276,0.721-0.83v-5.366h-0.973c-0.237-0.289-0.422-0.83-0.555-1.623h6.578c1.256,0,2.155,0.215,2.699,0.646
			c0.654,0.516,0.981,1.447,0.981,2.794V280.079z"/>
		<path fill="#A71F23" d="M127.715,275.32c-0.845,0.591-1.782,0.886-2.812,0.886v-5.606h2.812V275.32z"/>
		<path fill="#A71F23" d="M132.472,275.32c-0.845,0.591-1.782,0.886-2.812,0.886v-5.606h2.812V275.32z"/>
		<path fill="#A71F23" d="M141.697,280.079h-2.804v-6.16c0-1.119-0.491-1.679-1.475-1.679h-3.021
			c-0.336-0.35-0.55-0.897-0.643-1.641h4.765c1.244,0,2.085,0.246,2.521,0.737c0.437,0.492,0.655,1.411,0.655,2.758V280.079z"/>
		<path fill="#A71F23" d="M146.523,275.32c-0.845,0.591-1.782,0.886-2.812,0.886v-5.606h2.812V275.32z"/>
		<path fill="#A71F23" d="M157.91,270.599l-0.59,5.173c-0.145,1.261-0.448,2.174-0.911,2.739c-0.579,0.731-1.632,1.26-3.159,1.586
			l-5.529,1.171c0.069-0.614,0.246-1.162,0.529-1.642l2.049-0.415l-2.17-8.612h3.037l1.797,8.041
			c0.677-0.185,1.111-0.485,1.302-0.904c0.081-0.19,0.156-0.676,0.226-1.456l0.521-5.681H157.91z"/>
	</g>
	<path fill="#206231" d="M61.583,72.329c0,0-6.5-13.333-16.833-17.333s-15.667-5-21-5s-14.5,3.667-14.5,3.667s17.5,21.5,36.333,21.5
		C59.417,75.163,61.583,72.329,61.583,72.329z"/>
	<path fill="#206231" d="M118.582,72.329c0,0,6.5-13.333,16.833-17.333s15.667-5,21-5s14.5,3.667,14.5,3.667
		s-17.501,21.5-36.333,21.5C120.748,75.163,118.582,72.329,118.582,72.329z"/>
	<path fill="#206231" d="M9.25,53.663H0.812v17.625c0,0,10.75,10.312,20.125,10.312s12.25-8,12.25-8s-5.375-0.125-10.312-4.812
		S9.25,53.663,9.25,53.663z"/>
	<path fill="#206231" d="M171.25,53.663h8.438v17.625c0,0-10.75,10.312-20.125,10.312s-12.25-8-12.25-8s5.375-0.125,10.312-4.812
		S171.25,53.663,171.25,53.663z"/>
	<g>
		<polygon fill="#A51E22" points="124.416,135.579 119.75,116.329 60.75,116.329 56.083,135.579 		"/>
		<path fill="#725D27" d="M125.052,136.079H55.448l4.909-20.25h59.787L125.052,136.079z M56.719,135.079h67.061l-4.424-18.25H61.143
			L56.719,135.079z"/>
	</g>
	<g>
		<polygon fill="#A51E22" points="76.083,192.162 79.75,135.579 100.75,135.579 104.416,192.162 85.167,193.83 		"/>
		<path fill="#725D27" d="M85.143,194.333l-0.066-0.012l-9.521-1.749l3.726-57.494h21.938l3.728,57.539L85.143,194.333z
			 M76.611,191.75l8.58,1.575l18.695-1.62l-3.604-55.627H80.219L76.611,191.75z"/>
	</g>
	
		<rect x="86.083" y="135.798" transform="matrix(0.9989 0.0469 -0.0469 0.9989 7.8127 -3.8771)" fill="#725D27" width="1" height="57.727"/>
	<path fill="#206231" d="M42.625,96.663c0,0-4.625-4.875-17.375-4.875s-23,11.5-23,11.5s2.125,2.75,8,2.75s15.5-9.5,22.125-9.5
		S42.625,96.663,42.625,96.663z"/>
	<g>
		
			<ellipse transform="matrix(-0.5668 -0.8238 0.8238 -0.5668 -96.8276 360.3026)" fill="#231F20" cx="46.31" cy="205.607" rx="2.188" ry="4.27"/>
		
			<ellipse transform="matrix(-0.4133 0.9106 -0.9106 -0.4133 300.501 206.629)" fill="#231F20" cx="83.688" cy="200.117" rx="4.498" ry="1.627"/>
		<path fill="#231F20" d="M87.239,204.475c-0.884,0.049-1.626,0.95-2.073,2.324c-0.789,0.459-1.741,1.675-2.464,3.268
			c-0.055,0.122-0.098,0.241-0.149,0.362c-0.793-1.036-1.737-1.606-2.537-1.455c0.251-0.419,0.401-0.927,0.401-1.478
			c0-1.428-0.989-2.584-2.208-2.584c-0.393,0-0.755,0.13-1.075,0.34c-0.007-0.288-0.072-0.514-0.23-0.628
			c-0.73-0.525-2.874,1.211-4.789,3.876c-1.915,2.666-2.874,5.25-2.143,5.775c0.73,0.525,2.874-1.213,4.788-3.877
			c0.531-0.738,0.979-1.466,1.347-2.149c0.277,1.057,1.108,1.83,2.102,1.83c0.255,0,0.496-0.061,0.723-0.153
			c-0.438,0.976-0.404,2.538,0.201,4.145c0.877,2.325,2.593,3.83,3.835,3.361c0.953-0.358,1.342-1.777,1.079-3.466
			c0.32-0.351,0.642-0.789,0.95-1.296c0.517,2.356,1.667,4.007,2.915,3.937c1.573-0.085,2.695-2.875,2.509-6.223
			C90.236,207.034,88.811,204.389,87.239,204.475z"/>
		<path fill="#231F20" d="M93.695,209.104c-1.146,0.759-0.819,3.265,0.724,5.6c1.546,2.336,3.725,3.615,4.869,2.855
			c1.146-0.756,0.818-3.265-0.727-5.596C97.019,209.626,94.839,208.349,93.695,209.104z"/>
		
			<ellipse transform="matrix(-0.5517 -0.834 0.834 -0.5517 -18.9704 397.5063)" fill="#231F20" cx="97.347" cy="203.852" rx="2.399" ry="1.389"/>
		
			<ellipse transform="matrix(0.5517 0.8341 -0.8341 0.5517 207.6227 8.466)" fill="#231F20" cx="95.937" cy="197.358" rx="1.483" ry="0.858"/>
		
			<ellipse transform="matrix(-0.7049 -0.7093 0.7093 -0.7049 27.9727 435.4681)" fill="#231F20" cx="104.575" cy="211.915" rx="5.069" ry="1.759"/>
		
			<ellipse transform="matrix(-0.7049 -0.7093 0.7093 -0.7049 34.4425 424.3259)" fill="#231F20" cx="105.492" cy="204.998" rx="5.069" ry="1.759"/>
		
			<ellipse transform="matrix(0.7049 0.7093 -0.7093 0.7049 170.8652 -14.8539)" fill="#231F20" cx="103.284" cy="197.915" rx="4.628" ry="1.313"/>
		
			<ellipse transform="matrix(0.8896 0.4568 -0.4568 0.8896 105.2157 -29.9598)" fill="#231F20" cx="114.571" cy="202.629" rx="4.628" ry="1.313"/>
		
			<ellipse transform="matrix(0.8896 0.4568 -0.4568 0.8896 105.7138 -34.5512)" fill="#231F20" cx="124.321" cy="201.379" rx="5.782" ry="1.438"/>
		
			<ellipse transform="matrix(0.4566 -0.8897 0.8897 0.4566 -123.3203 219.6102)" fill="#231F20" cx="118.112" cy="210.755" rx="1.268" ry="2.557"/>
		
			<ellipse transform="matrix(0.1822 -0.9833 0.9833 0.1822 -88.9883 301.5936)" fill="#231F20" cx="136.822" cy="204.296" rx="1.315" ry="2.794"/>
		
			<ellipse transform="matrix(0.0938 -0.9956 0.9956 0.0938 -92.5729 316.3068)" fill="#231F20" cx="127.463" cy="209.004" rx="2.161" ry="3.148"/>
		
			<ellipse transform="matrix(0.8896 0.4567 -0.4567 0.8896 101.5722 -29.3404)" fill="#231F20" cx="111.489" cy="195.474" rx="3.027" ry="1.179"/>
		
			<ellipse transform="matrix(0.5669 0.8238 -0.8238 0.5669 197.1622 21.465)" fill="#231F20" cx="78.167" cy="198.247" rx="0.844" ry="2.372"/>
		<path fill="#231F20" d="M69.745,205.269c-0.685-0.996-3.485-0.258-6.252,1.647c-0.256,0.176-0.492,0.358-0.728,0.54
			c-0.726-0.232-1.627-0.377-2.62-0.377c-0.828,0-1.594,0.101-2.249,0.268c2.15-1.74,3.358-3.631,2.766-4.494
			c-0.007-0.011-0.022-0.015-0.03-0.025c0.33-0.248,0.535-0.528,0.535-0.831c0-0.967-1.913-1.75-4.271-1.75s-4.271,0.783-4.271,1.75
			c0,0.805,1.333,1.476,3.139,1.68c-0.463,0.256-0.932,0.533-1.404,0.858c-2.796,1.923-4.507,4.288-3.822,5.284
			c0.608,0.884,2.898,0.386,5.359-1.08c-0.004,0.031-0.022,0.06-0.022,0.091c0,0.93,1.775,1.683,4.009,1.739
			c-0.343,0.66-0.42,1.224-0.163,1.598c0.685,0.996,3.484,0.259,6.252-1.646C68.741,208.617,70.43,206.265,69.745,205.269z"/>
		
			<ellipse transform="matrix(0.3747 0.9271 -0.9271 0.3747 228.1152 61.6982)" fill="#231F20" cx="68.316" cy="199.969" rx="1.542" ry="5.014"/>
		
			<ellipse transform="matrix(0.1951 0.9808 -0.9808 0.1951 245.359 91.5296)" fill="#231F20" cx="66.916" cy="195.247" rx="0.94" ry="2.415"/>
		<ellipse fill="#231F20" cx="91.25" cy="200.205" rx="1" ry="1.625"/>
	</g>
</g>
</svg>
