<?xml version="1.0" encoding="utf-8"?>
<!-- Generator: Adobe Illustrator 15.1.0, SVG Export Plug-In . SVG Version: 6.00 Build 0)  -->
<!DOCTYPE svg PUBLIC "-//W3C//DTD SVG 1.1//EN" "http://www.w3.org/Graphics/SVG/1.1/DTD/svg11.dtd">
<svg version="1.1" id="Layer_1" xmlns="http://www.w3.org/2000/svg" xmlns:xlink="http://www.w3.org/1999/xlink" x="0px" y="0px"
	 width="1708px" height="2032px" viewBox="0 0 1708 2032" enable-background="new 0 0 1708 2032" xml:space="preserve">
<g>
	<path fill="#161F4C" d="M544.098,144.752V271.13h30v-90.646C571.145,175.655,560.938,159.993,544.098,144.752z"/>
	<path fill="#161F4C" d="M496.149,116.222v552.227h30V130.78C517.282,124.927,507.266,119.793,496.149,116.222z"/>
	<path fill="#161F4C" d="M303.433,230v680.93h30v-745.62C315.111,184.013,303.433,206.271,303.433,230z"/>
	<path fill="#161F4C" d="M399.433,123.398v646.464h30v-655.26C419.344,116.696,409.26,119.665,399.433,123.398z"/>
	<path fill="#161F4C" d="M349.015,151.454V271.13h30V132.459C368.3,137.935,358.171,144.32,349.015,151.454z"/>
	<path fill="#161F4C" d="M463,111c-5.408,0-10.904,0.312-16.444,0.901V271.13h30V111.857C472.172,111.302,467.654,111,463,111z"/>
	<path fill="#161F4C" d="M786.149,55.143v506.746h30V50.434C806.885,51.529,796.763,53.048,786.149,55.143z"/>
	<path fill="#161F4C" d="M836.722,48.521V271.13h30V47.735h-12.828C849.221,47.84,843.413,48.068,836.722,48.521z"/>
	<path fill="#161F4C" d="M592.149,178.758v432.859h30V145.124C608.944,158.344,598.799,170.347,592.149,178.758z"/>
	<path fill="#161F4C" d="M739.181,67.948V271.13h30V58.915C759.332,61.362,749.246,64.339,739.181,67.948z"/>
	<path fill="#161F4C" d="M698,87c-2.313,1.276-4.597,2.58-6.852,3.907v492.294h30V75.154C713.279,78.646,705.518,82.572,698,87z"/>
	<path fill="#161F4C" d="M641.639,126.897V271.13h30v-167.7C660.752,111.002,650.725,118.973,641.639,126.897z"/>
</g>
<g>
	<path fill="#F15B22" d="M1188.566,144.752V271.13h-30v-90.646C1161.52,175.655,1171.727,159.993,1188.566,144.752z"/>
	<path fill="#F15B22" d="M1236.515,116.222v552.227h-30V130.78C1215.381,124.927,1225.398,119.793,1236.515,116.222z"/>
	<path fill="#F15B22" d="M1429.23,230v680.93h-30v-745.62C1417.553,184.013,1429.23,206.271,1429.23,230z"/>
	<path fill="#F15B22" d="M1333.23,123.398v646.464h-30v-655.26C1313.32,116.696,1323.404,119.665,1333.23,123.398z"/>
	<path fill="#F15B22" d="M1383.649,151.454V271.13h-30V132.459C1364.364,137.935,1374.491,144.32,1383.649,151.454z"/>
	<path fill="#F15B22" d="M1269.663,111c5.408,0,10.904,0.312,16.443,0.901V271.13h-30V111.857
		C1260.491,111.302,1265.01,111,1269.663,111z"/>
	<path fill="#F15B22" d="M946.515,55.143v506.746h-30V50.434C925.779,51.529,935.9,53.048,946.515,55.143z"/>
	<path fill="#F15B22" d="M895.941,48.521V271.13h-30V47.735h12.828C883.443,47.84,889.25,48.068,895.941,48.521z"/>
	<path fill="#F15B22" d="M1140.515,178.758v432.859h-30V145.124C1123.72,158.344,1133.865,170.347,1140.515,178.758z"/>
	<path fill="#F15B22" d="M993.483,67.948V271.13h-30V58.915C973.331,61.362,983.418,64.339,993.483,67.948z"/>
	<path fill="#F15B22" d="M1034.663,87c2.312,1.276,4.597,2.58,6.852,3.907v492.294h-30V75.154
		C1019.385,78.646,1027.146,82.572,1034.663,87z"/>
	<path fill="#F15B22" d="M1091.025,126.897V271.13h-30v-167.7C1071.911,111.002,1081.939,118.973,1091.025,126.897z"/>
</g>
<path fill="#161F4C" d="M864.642,1568.723c-9.646-9.832-21.466-21.284-35.286-33.58c-37.763-33.598-98.236-80.067-171.882-110.646
	c-59.091-24.534-136.523-40.094-230.147-46.243c-69.26-4.551-120.758-2.038-122.915-1.93l2.021,39.949
	c2.022-0.101,203.807-9.599,335.704,45.165c68.196,28.316,124.637,71.643,159.976,103.003
	c38.622,34.274,61.204,62.166,61.428,62.443l1.104-0.887v-57.275H864.642z"/>
<path fill="#161F4C" d="M864.642,1474.58c-9.646-9.832-21.466-21.283-35.286-33.58c-37.763-33.598-98.236-80.066-171.882-110.645
	c-59.091-24.535-136.523-40.094-230.147-46.244c-69.26-4.55-120.758-2.038-122.915-1.929l2.021,39.949
	c2.022-0.102,203.807-9.6,335.704,45.165c68.196,28.315,124.637,71.643,159.976,103.003c38.622,34.273,61.204,62.166,61.428,62.442
	l1.104-0.887v-57.275H864.642z"/>
<path fill="#161F4C" d="M864.642,1380.438c-9.646-9.832-21.466-21.284-35.286-33.58c-37.763-33.598-98.236-80.067-171.882-110.645
	c-59.091-24.535-136.523-40.095-230.147-46.244c-69.26-4.55-120.758-2.038-122.915-1.929l2.021,39.948
	c2.022-0.101,203.807-9.599,335.704,45.165c68.196,28.316,124.637,71.644,159.976,103.003
	c38.622,34.274,61.204,62.166,61.428,62.443l1.104-0.887v-57.275H864.642z"/>
<path fill="#161F4C" d="M864.642,1286.296c-9.646-9.832-21.466-21.284-35.286-33.58c-37.763-33.599-98.236-80.067-171.882-110.646
	c-59.091-24.535-136.523-40.094-230.147-46.244c-69.26-4.55-120.758-2.037-122.915-1.929l2.021,39.949
	c2.022-0.101,203.807-9.599,335.704,45.165c68.196,28.316,124.637,71.643,159.976,103.003
	c38.622,34.274,61.204,62.166,61.428,62.443l1.104-0.888v-57.274H864.642z"/>
<path fill="#161F4C" d="M864.642,1192.152c-9.646-9.832-21.466-21.284-35.286-33.58c-37.763-33.598-98.236-80.066-171.882-110.645
	c-59.091-24.535-136.523-40.094-230.147-46.244c-69.26-4.55-120.758-2.038-122.915-1.929l2.021,39.948
	c2.022-0.101,203.807-9.599,335.704,45.165c68.196,28.316,124.637,71.644,159.976,103.003
	c38.622,34.274,61.204,62.166,61.428,62.443l1.104-0.887v-57.275H864.642z"/>
<path fill="#161F4C" d="M864.642,1098.01c-9.646-9.832-21.466-21.284-35.286-33.58c-37.763-33.599-98.236-80.067-171.882-110.646
	c-59.091-24.534-136.523-40.094-230.147-46.244c-69.26-4.55-120.758-2.037-122.915-1.929l2.021,39.949
	c2.022-0.101,203.807-9.599,335.704,45.165c68.196,28.315,124.637,71.643,159.976,103.003
	c38.622,34.274,61.204,62.166,61.428,62.443l1.104-0.888v-57.274H864.642z"/>
<path fill="#F15B22" d="M864.358,1568.723c9.646-9.832,21.466-21.284,35.286-33.58c37.762-33.598,98.236-80.067,171.882-110.646
	c59.091-24.534,136.523-40.094,230.147-46.243c69.26-4.551,120.758-2.038,122.916-1.93l-2.021,39.949
	c-2.021-0.101-203.808-9.599-335.704,45.165c-68.197,28.316-124.637,71.643-159.976,103.003
	c-38.622,34.274-61.204,62.166-61.428,62.443l-1.104-0.887v-57.275H864.358z"/>
<path fill="#F15B22" d="M864.358,1474.58c9.646-9.832,21.466-21.283,35.286-33.58c37.762-33.598,98.236-80.066,171.882-110.645
	c59.091-24.535,136.523-40.094,230.147-46.244c69.26-4.55,120.758-2.038,122.916-1.929l-2.021,39.949
	c-2.021-0.102-203.808-9.6-335.704,45.165c-68.197,28.315-124.637,71.643-159.976,103.003
	c-38.622,34.273-61.204,62.166-61.428,62.442l-1.104-0.887v-57.275H864.358z"/>
<path fill="#F15B22" d="M864.358,1380.438c9.646-9.832,21.466-21.284,35.286-33.58c37.762-33.598,98.236-80.067,171.882-110.645
	c59.091-24.535,136.523-40.095,230.147-46.244c69.26-4.55,120.758-2.038,122.916-1.929l-2.021,39.948
	c-2.021-0.101-203.808-9.599-335.704,45.165c-68.197,28.316-124.637,71.644-159.976,103.003
	c-38.622,34.274-61.204,62.166-61.428,62.443l-1.104-0.887v-57.275H864.358z"/>
<path fill="#F15B22" d="M864.358,1286.296c9.646-9.832,21.466-21.284,35.286-33.58c37.762-33.599,98.236-80.067,171.882-110.646
	c59.091-24.535,136.523-40.094,230.147-46.244c69.26-4.55,120.758-2.037,122.916-1.929l-2.021,39.949
	c-2.021-0.101-203.808-9.599-335.704,45.165c-68.197,28.316-124.637,71.643-159.976,103.003
	c-38.622,34.274-61.204,62.166-61.428,62.443l-1.104-0.888v-57.274H864.358z"/>
<path fill="#F15B22" d="M864.358,1192.152c9.646-9.832,21.466-21.284,35.286-33.58c37.762-33.598,98.236-80.066,171.882-110.645
	c59.091-24.535,136.523-40.094,230.147-46.244c69.26-4.55,120.758-2.038,122.916-1.929l-2.021,39.948
	c-2.021-0.101-203.808-9.599-335.704,45.165c-68.197,28.316-124.637,71.644-159.976,103.003
	c-38.622,34.274-61.204,62.166-61.428,62.443l-1.104-0.887v-57.275H864.358z"/>
<path fill="#F15B22" d="M864.358,1098.01c9.646-9.832,21.466-21.284,35.286-33.58c37.762-33.599,98.236-80.067,171.882-110.646
	c59.091-24.534,136.523-40.094,230.147-46.244c69.26-4.55,120.758-2.037,122.916-1.929l-2.021,39.949
	c-2.021-0.101-203.808-9.599-335.704,45.165c-68.197,28.315-124.637,71.643-159.976,103.003
	c-38.622,34.274-61.204,62.166-61.428,62.443l-1.104-0.888v-57.274H864.358z"/>
<path fill="#F15B22" d="M785.48,1028.314c0,0,16.404-16.062,36.225-22.555c19.821-6.493,33.328-7.86,43.92-7.86v-33.49
	c-29.555,0-44.945,4.784-61.349,11.277s-46.477,32.807-46.477,32.807L785.48,1028.314z"/>
<path fill="#F15B22" d="M685.692,965.775l30.073,16.403c0,0,15.61-31.026,62.197-57.412c38.616-21.872,87.663-19.821,87.663-19.821
	v-34.856c0,0-72.284,2.733-114.318,31.439S685.692,965.775,685.692,965.775z"/>
<path fill="#F15B22" d="M643.317,948.005c0,0,37.592-52.286,97.396-84.751c59.804-32.465,124.912-31.1,124.912-31.1V797.98
	c0,0-82.194-0.684-148.834,40.325c-66.641,41.009-106.966,98.763-106.966,98.763L643.317,948.005z"/>
<path fill="#F15B22" d="M550.021,922.373c0,0,40.667-71.424,131.57-127.127c90.902-55.703,184.034-50.235,184.034-50.235v-33.833
	c0,0-96.906-10.019-210.349,60.83c-91.928,57.412-141.139,144.556-141.139,144.556L550.021,922.373z"/>
<path fill="#F15B22" d="M460.825,910.071c0,0,75.738-117.69,178.73-177.362c122.685-71.082,226.069-63.223,226.069-63.223v-33.148
	c0,0-123.476-9.957-263.66,80.65c-112.092,72.449-179.756,190.35-179.756,190.35L460.825,910.071z"/>
<path fill="#F15B22" d="M304.41,905.612c0,0,84.154-176.133,226.59-263.612c169.332-104,334.625-96.666,334.625-96.666v33.332
	c0,0-155.478-11.56-328.625,99.334c-118.667,76-194.667,227.332-194.667,227.332L304.41,905.612z"/>
<path fill="#161F4C" d="M944.52,1028.314c0,0-16.403-16.062-36.225-22.555c-19.82-6.493-33.327-7.86-43.92-7.86v-33.49
	c29.555,0,44.944,4.784,61.35,11.277c16.402,6.493,46.477,32.807,46.477,32.807L944.52,1028.314z"/>
<path fill="#161F4C" d="M1044.308,965.775l-30.073,16.403c0,0-15.609-31.026-62.197-57.412
	c-38.615-21.872-87.662-19.821-87.662-19.821v-34.856c0,0,72.284,2.733,114.318,31.439S1044.308,965.775,1044.308,965.775z"/>
<path fill="#161F4C" d="M1086.684,948.005c0,0-37.592-52.286-97.396-84.751c-59.804-32.465-124.912-31.1-124.912-31.1V797.98
	c0,0,82.194-0.684,148.834,40.325c66.641,41.009,106.966,98.763,106.966,98.763L1086.684,948.005z"/>
<path fill="#161F4C" d="M1179.979,922.373c0,0-40.667-71.424-131.57-127.127c-90.901-55.703-184.033-50.235-184.033-50.235v-33.833
	c0,0,96.906-10.019,210.349,60.83c91.928,57.412,141.139,144.556,141.139,144.556L1179.979,922.373z"/>
<path fill="#161F4C" d="M1269.174,910.071c0,0-75.738-117.69-178.73-177.362c-122.685-71.082-226.068-63.223-226.068-63.223v-33.148
	c0,0,123.476-9.957,263.66,80.65c112.092,72.449,179.756,190.35,179.756,190.35L1269.174,910.071z"/>
<path fill="#161F4C" d="M1425.59,905.612c0,0-84.154-176.133-226.59-263.612c-169.334-104-334.625-96.666-334.625-96.666v33.332
	c0,0,155.477-11.56,328.625,99.334c118.666,76,194.666,227.332,194.666,227.332L1425.59,905.612z"/>
<g>
	<path fill="#161F4C" d="M206.015,1798.582c-11.417-14.68-25.283-19.573-44.04-19.573h-52.601c-11.823,0-19.979,1.226-28.952-4.893
		c-5.706-4.074-6.931-11.415-6.931-11.415h-9.784l-22.835,61.568c0,0,5.709,8.973,12.64,11.418
		c14.273,5.3,15.901,4.078,35.883,4.078h47.707c12.644,0,24.874,2.443,30.583,10.601c5.709,8.156,9.379,26.505,8.972,83.179
		c0,33.845,1.222,48.933,2.038,48.933h8.565l27.724-31.396c2.856-3.262,1.226-24.877,0.408-34.253
		C208.459,1847.514,223.546,1821.418,206.015,1798.582L206.015,1798.582z M98.365,1863.414h-9.379l-33.844,29.355
		c0,14.275,0,13.867,0,36.294c0,20.794,0.817,33.437,1.633,53.821h7.341l34.25-34.248L98.365,1863.414L98.365,1863.414z"/>
	<path fill="#161F4C" d="M329.907,1978.403l11.414-50.974c1.224-6.113-3.261-28.949-2.853-53.006
		c0.406-26.506,6.526-61.98-3.264-76.25c-6.932-10.193-15.901-10.603-35.063-19.979c-19.574-9.787-16.721-16.31-17.535-17.535
		h-9.378l-24.061,54.231c0,0.409,12.233,13.457,24.469,18.352c24.463,10.193,27.725,5.706,28.949,47.707
		c0.408,17.531-1.226,38.324-1.631,38.324c0,0.409-7.339,0.817-16.719,0.817c-19.165,0-25.688,2.042-25.688,2.042l-15.088,53.004
		l4.078,4.078c13.046-0.408,15.9-0.812,34.658-0.812C305.848,1978.403,329.907,1978.807,329.907,1978.403L329.907,1978.403z"/>
	<path fill="#161F4C" d="M523.55,1978.403l6.932-56.679c0,0-10.192,0-16.718-3.262c-11.826-6.528-9.784-25.285-8.562-48.115
		c1.631-30.174,9.787-58.721-4.482-77.475c-10.195-13.05-27.321-13.865-47.305-13.865h-24.463c-6.521,0-15.494,0.815-23.65-5.297
		c-5.298-4.078-7.748-11.011-7.748-11.011h-9.784l-21.609,61.978c2.444,4.078,4.892,8.156,8.967,9.787
		c14.272,6.117,16.721,5.301,36.7,5.301h7.744c24.468,0,35.887,0.408,42.408,10.601c4.895,7.747,3.67,19.981,3.67,33.027v36.289
		H443.63c-2.039,0-21.201,1.225-30.583,1.225c-19.166,0-37.514,2.036-37.514,2.036l-12.231,55.46H523.55L523.55,1978.403z"/>
	<path fill="#161F4C" d="M614.49,1882.172c43.22-79.512,5.3-89.706-19.573-101.938c-14.68-6.932-13.454-15.496-15.088-16.718h-8.152
		l-24.466,54.64c-0.408,1.22,3.67,8.153,11.418,13.046c10.191,6.117,19.979,12.234,24.87,19.981
		c8.156,13.046-17.531,64.014-18.349,64.422l9.378,6.528C576.977,1921.316,603.072,1903.375,614.49,1882.172L614.49,1882.172z"/>
	<path fill="#161F4C" d="M807.187,1860.968c1.633,25.688,1.225,60.758,1.225,60.758s-10.194,0.408-16.718,0.408
		c-5.3,0-13.457,2.036-13.457,2.036l-12.233,53.009l4.077,2.444c14.68-0.407,22.836-1.22,38.331-1.22
		c15.496,0,27.729-0.815,27.729-0.815l14.271-50.975c0-0.811-2.447-24.463-3.262-39.142c-0.814-17.94-1.631-47.298-1.631-47.298
		h41.998c11.825,0,21.204-0.816,28.952,11.009c8.562,12.64,6.114,69.725,6.114,88.481c0,31.395,0.407,45.262,0.407,46.072h8.564
		l31.806-33.839c0-5.711-3.265-59.939-3.265-69.317c-0.408-9.787,6.524-71.358-4.075-86.037
		c-10.195-14.273-23.651-17.127-41.184-17.127h-69.319c-3.261,0-20.796,0.407-29.357-5.301c-5.303-3.67-9.786-12.23-9.786-12.23
		h-9.787l-24.467,55.861c0,0,4.893,9.784,17.943,14.68C801.889,1836.505,805.964,1843.026,807.187,1860.968L807.187,1860.968z"/>
	<path fill="#161F4C" d="M1059.103,1882.172c43.223-79.512,5.304-89.706-19.57-101.938c-14.679-6.932-13.457-15.496-15.088-16.718
		h-8.155l-24.464,54.64c-0.407,1.22,3.667,8.153,11.415,13.046c10.195,6.117,19.982,12.234,24.874,19.981
		c8.156,13.046-17.534,64.014-18.349,64.422l9.379,6.528C1021.592,1921.316,1047.686,1903.375,1059.103,1882.172L1059.103,1882.172z
		"/>
	<path fill="#161F4C" d="M1169.111,1882.172c43.224-79.512,5.304-89.706-19.569-101.938c-14.681-6.932-13.457-15.496-15.089-16.718
		h-8.155l-24.463,54.64c-0.411,1.22,3.67,8.153,11.414,13.046c10.195,6.117,19.982,12.234,24.875,19.981
		c8.155,13.046-17.534,64.014-18.35,64.422l9.379,6.528C1131.598,1921.316,1157.694,1903.375,1169.111,1882.172L1169.111,1882.172z"
		/>
	<path fill="#161F4C" d="M1350.07,1800.214c-10.602-16.72-32.211-20.798-55.454-20.798h-10.191c-11.011,0-18.759,0-28.544-5.704
		c-5.302-3.266-6.936-10.195-6.936-10.195h-9.375l-23.651,60.346c0,0.408,4.896,8.156,11.825,11.826
		c13.457,6.931,24.874,4.486,29.357,4.486h17.127c15.904,0,28.949,2.036,37.104,15.9c4.078,6.935,2.447,60.347,2.447,79.104
		c0,31.399,2.444,52.192,2.444,52.602h11.418l29.356-33.845c-0.404-5.706-4.892-39.142-4.892-64.427
		C1352.109,1852.405,1363.936,1822.233,1350.07,1800.214L1350.07,1800.214z"/>
	<path fill="#161F4C" d="M1447.072,1882.172c43.224-79.512,5.302-89.706-19.573-101.938c-14.68-6.932-13.457-15.496-15.088-16.718
		h-8.152l-24.466,54.64c-0.408,1.22,3.67,8.153,11.418,13.046c10.191,6.117,19.979,12.234,24.87,19.981
		c8.156,13.046-17.531,64.014-18.349,64.422l9.379,6.528C1409.559,1921.316,1435.654,1903.375,1447.072,1882.172L1447.072,1882.172z
		"/>
	<path fill="#161F4C" d="M1528.129,1945.37c-6.523,2.858-11.011,5.305-17.532,8.156l-6.525,54.645l4.486,3.261
		c7.34-1.634,84.403-42.817,103.161-58.312c24.06-19.572,42-50.56,53.826-88.48c6.931-22.427,6.521-46.073,1.222-55.862
		c-5.3-9.784-8.155-18.757-28.952-28.541c-11.414-5.304-16.718-18.349-16.718-18.349h-7.745l-22.427,52.191
		c0,0.408,2.036,6.522,10.191,11.823c15.496,9.787,28.137,11.826,25.283,39.146c-3.265,31.803-42.813,49.748-42.813,49.748
		c-1.635-8.156-4.896-24.062-7.344-39.147c-4.482-26.91-4.482-45.262-10.191-70.541c-2.039-8.97-8.971-16.718-26.504-25.28
		c-13.865-6.521-17.127-17.123-18.351-17.938h-7.747l-22.427,53.82c-2.039,4.895,21.612,15.495,31.396,23.651
		c6.934,5.708,13.457,25.279,14.271,32.213l11.012,63.607C1547.701,1935.178,1535.469,1942.109,1528.129,1945.37L1528.129,1945.37z"
		/>
</g>
</svg>
