<?xml version="1.0" encoding="utf-8"?>
<!-- Generator: Adobe Illustrator 15.1.0, SVG Export Plug-In . SVG Version: 6.00 Build 0)  -->
<!DOCTYPE svg PUBLIC "-//W3C//DTD SVG 1.1//EN" "http://www.w3.org/Graphics/SVG/1.1/DTD/svg11.dtd">
<svg version="1.1" id="Layer_1" xmlns="http://www.w3.org/2000/svg" xmlns:xlink="http://www.w3.org/1999/xlink" x="0px" y="0px"
	 width="407.193px" height="627.101px" viewBox="0 0 407.193 627.101" enable-background="new 0 0 407.193 627.101"
	 xml:space="preserve">
<g>
	<g>
		<path fill="#FFFFFF" d="M323.11,57.343c-82.638,0-119.514-55.537-119.514-55.537S166.721,57.343,84.083,57.343
			C28.102,57.343,1,32.019,1,32.019v46.206c0,0,22.659,6.665,22.659,32.434c0,25.769,0,290.917,0,315.795s38.506,72.07,92.857,72.07
			c7.553,0,27.989,0,31.544,0c30.212,0,55.536,42.652,55.536,42.652s25.323-42.652,55.535-42.652c3.556,0,23.991,0,31.546,0
			c42.207,0,92.855-42.652,92.855-67.533c0-24.879,0-294.565,0-320.333c0-25.769,22.659-32.434,22.659-32.434V32.019
			C406.193,32.019,379.093,57.343,323.11,57.343z"/>
		<path fill="#0384C0" d="M203.597,543.134l-0.859-1.447c-0.251-0.422-25.386-42.162-54.677-42.162h-31.544
			c-24.363,0-48.329-9.576-67.482-26.965c-16.021-14.547-26.375-32.645-26.375-46.105V110.658c0-24.735-21.722-31.41-21.94-31.474
			L0,78.973V29.719l1.683,1.568c0.269,0.25,27.514,25.056,82.4,25.056c42.424,0,72.45-15,90.167-27.583
			c19.176-13.619,28.423-27.369,28.515-27.506L203.596,0l0.834,1.253c0.092,0.138,9.388,13.94,28.589,27.56
			c17.708,12.559,47.711,27.53,90.092,27.53c54.888,0,82.132-24.805,82.4-25.056l1.683-1.568V78.97l-0.717,0.212
			c-0.896,0.266-21.942,6.784-21.942,31.475V430.99c0,12.395-11.875,29.213-30.99,43.891c-20.099,15.432-43.6,24.645-62.865,24.645
			h-31.546c-29.304,0-54.426,41.74-54.677,42.162L203.597,543.134z M2,77.512c3.936,1.445,22.659,9.567,22.659,33.146v315.796
			c0,12.725,10.335,30.658,25.719,44.623c18.784,17.055,42.272,26.447,66.139,26.447h31.544c27.671,0,50.785,34.215,55.536,41.744
			c4.751-7.529,27.864-41.744,55.535-41.744h31.546c18.842,0,41.887-9.059,61.646-24.23c18.353-14.09,30.21-30.695,30.21-42.303
			V110.658c0-23.579,18.726-31.702,22.659-33.146V34.154c-6.778,5.357-34.036,24.189-82.083,24.189
			c-42.952,0-73.37-15.201-91.325-27.953c-16.223-11.522-25.491-23.201-28.188-26.861c-2.697,3.661-11.967,15.339-28.188,26.861
			c-17.955,12.752-48.374,27.953-91.325,27.953C36.036,58.343,8.779,39.511,2,34.154V77.512z"/>
	</g>
	<path fill="#0384C0" d="M396.715,71.265c0,0-23.398,11.551-23.398,34.951c0,23.4,0,309.524,0,324.333
		c0,14.811-35.248,57.461-70.198,57.461c-8.591,0-30.212,0-34.654,0c-46.206,0-64.865,37.025-64.865,37.025
		s-18.659-37.025-64.865-37.025c-4.443,0-26.065,0-34.655,0c-34.952,0-70.199-42.65-70.199-57.461c0-14.809,0-300.932,0-324.333
		c0-23.4-23.399-34.951-23.399-34.951V50.531c0,0,25.769,18.067,70.791,18.067c79.381,0,122.327-51.464,122.327-51.464
		s42.945,51.464,122.329,51.464c45.02,0,70.788-18.067,70.788-18.067V71.265L396.715,71.265z"/>
	<path fill="#FFFFFF" d="M203.597,28.687c0,0,12.438,31.544,12.438,64.2c0,32.656-12.438,68.199-12.438,68.199
		s-12.44-35.543-12.44-68.199C191.156,60.231,203.597,28.687,203.597,28.687z"/>
	<path fill="#FFFFFF" d="M191.378,144.424c0,0-16.216-60.646-72.196-60.646c-41.985,0-60.646,23.992-60.646,23.992
		s19.104-6.664,38.431-6.664C155.169,101.106,191.378,144.424,191.378,144.424z"/>
	<path fill="#FFFFFF" d="M190.268,158.864c0,0-26.879-33.766-69.31-33.766c-42.43,0-67.31,35.543-67.31,35.543
		s34.655-16.438,67.31-16.438C153.614,144.203,190.268,158.864,190.268,158.864z"/>
	<path fill="#FFFFFF" d="M286.599,79.647c-55.963,1.376-73.672,64.111-73.672,64.111s38.121-45.904,96.307-47.334
		c19.32-0.476,38.535,1.35,38.535,1.35S328.57,78.614,286.599,79.647z"/>
	<path fill="#FFFFFF" d="M209.595,160.419c0,0,30.416-32.878,67.531-32.878c37.119,0,51.761,25.991,51.761,25.991
		s-24.082-6.887-52.648-6.887C247.671,146.646,209.595,160.419,209.595,160.419z"/>
	<g>
		<path fill="#FFFFFF" d="M293.197,113.464c0.931-1.455,2.34-3.655,3.51-4.566c1.606-1.25,5.794-1.926,7.838-2.255
			c3.026-0.49,8.633-0.594,11.034,0.734c0.822,0.455,1.469,1.334,2.151,2.263c0.667,0.904,1.357,1.84,2.298,2.517
			c2.919,2.104,8.511,1.697,12.999,1.37c1.435-0.104,2.787-0.203,3.854-0.203l0.78-0.002c2.53-0.002,4.715-0.02,6.77,0.976
			c1.739,0.845,2.829,2.209,4.089,3.789c0.344,0.432,0.694,0.872,1.069,1.312l0.196,0.234c0.854,1,1.527,1.791,2.065,2.953
			l1.61-0.75c-0.64-1.381-1.42-2.295-2.321-3.356l-0.198-0.232c-0.361-0.424-0.701-0.85-1.034-1.269
			c-1.337-1.677-2.6-3.258-4.703-4.279c-2.427-1.178-4.907-1.171-7.553-1.155l-0.771,0.003c-1.128,0-2.517,0.101-3.98,0.207
			c-4.207,0.308-9.435,0.688-11.833-1.04c-0.715-0.514-1.291-1.298-1.902-2.127c-0.771-1.043-1.562-2.122-2.725-2.765
			c-2.957-1.635-9.042-1.44-12.208-0.929c-2.325,0.375-6.65,1.072-8.615,2.603c-1.412,1.099-2.859,3.36-3.915,5.011l-0.215,0.336
			l1.496,0.96L293.197,113.464z"/>
		<path fill="#FFFFFF" d="M362.285,174.29l4.498-1.947l-0.705-1.632l-8.527,3.692l0.146-51.601H349.4l0.774-0.779
			c-3.643-3.611-11.045-3.199-16.994-2.864c-1.496,0.083-2.885,0.162-4.068,0.163c-0.004,0-0.007,0-0.011,0
			c-1.86,0-3.526-0.478-5.29-0.983c-1.673-0.481-3.404-0.978-5.289-1.017l-2.059-0.054c-3.791-0.108-7.717-0.222-11.303,0.517
			l0.357,1.741c3.384-0.696,7.199-0.585,10.896-0.48l2.068,0.054c1.656,0.034,3.201,0.478,4.839,0.948
			c1.805,0.517,3.669,1.052,5.779,1.052c0.004,0,0.011,0,0.014,0c1.212-0.002,2.632-0.081,4.162-0.167
			c5.262-0.292,11.68-0.617,14.998,1.87h-0.188l-1.504,56.254l0.201,0.005l-29.08,12.586v-15.666l4.648-2.011l-0.705-1.631
			l-48.372,20.937v-13.009l4.646-2.001l-0.704-1.631l-5.672,2.444H271.5v0.02l-47.89,20.639l0.704,1.631l3.939-1.698v23.897h-5.032
			v1.777h143.207v-1.777h-4.145L362.285,174.29L362.285,174.29z M349.82,124.58h6.095l-0.146,50.593l-7.387,3.198L349.82,124.58z
			 M230.031,198.905l41.469-17.871v14.948l44.43-19.23v17.602l44.579-19.295v48.509H230.031V198.905z"/>
	</g>
	<rect x="243.805" y="196.406" fill="#FFFFFF" width="13.922" height="9.774"/>
	<rect x="283.201" y="196.406" fill="#FFFFFF" width="13.922" height="9.774"/>
	<rect x="326.116" y="196.406" fill="#FFFFFF" width="13.923" height="9.774"/>
	<g>
		<path fill="#FFFFFF" d="M132.732,197.147h-1.777c0,1.311-0.077,2.635-0.154,3.956c-0.094,1.632-0.191,3.32-0.141,4.958
			l1.775-0.056c-0.002-0.042,0.001-0.086,0-0.127c0.423,0.162,0.871,0.274,1.343,0.274c0.637,0,1.289-0.148,1.874-0.448
			c0.947-0.484,1.516-1.292,1.63-2.229c1.33-0.167,2.53-0.477,3.211-0.775l-0.713-1.628c-1.803,0.791-5.893,1.152-7.06,0.143
			l-0.155,0.179c0.003-0.062,0.006-0.125,0.01-0.187C132.654,199.851,132.732,198.492,132.732,197.147z M135.419,203.599
			c-0.139,0.244-0.368,0.417-0.576,0.523c-0.66,0.335-1.546,0.329-2.062-0.014l-0.335,0.502c0.007-0.504,0.01-1.003,0.033-1.512
			C133.312,203.451,134.348,203.598,135.419,203.599z"/>
		<path fill="#FFFFFF" d="M131.677,192.037c6.448-1.598,10.473-2.136,12.051,3.849c0.142,0.536,0.176,0.937,0.206,1.254
			c0.106,1.167,0.333,1.765,2.037,2.591c1.404,0.682,3.47,0.555,5.297,0.445c0.566-0.034,1.1-0.067,1.548-0.067
			c1.581,0,2.959,0.008,4.281,0.113l-0.371,0.329c0.357,0.403,0.434,0.979,0.521,1.646c0.104,0.786,0.219,1.678,0.834,2.473
			c0.82,1.06,1.984,1.4,3.01,1.699c0.231,0.067,0.458,0.134,0.679,0.208l0.087-0.256c-0.115,1.91-0.521,3.783-1.378,5.274
			c-1.781,3.094-5.472,2.816-9.38,2.521c-1.75-0.133-3.562-0.272-5.203-0.081c-3.283,0.375-3.878,1.034-3.981,4.41
			c-0.054,1.795-0.128,4.252,2.052,5.847c2.26,1.65,5.547,1.487,8.725,1.332c2.023-0.101,3.947-0.195,5.495,0.158
			c0.05,2.294-0.277,5.035-1.899,6.303c-1.153,0.902-2.915,0.998-5.234,0.291c-0.612-0.187-1.677-0.891-2.803-1.636
			c-2.615-1.732-5.578-3.698-7.699-2.667c-1.097,0.531-1.732,1.762-1.89,3.655l1.771,0.147c0.069-0.842,0.282-1.906,0.896-2.204
			c1.203-0.579,4.055,1.301,5.941,2.55c1.291,0.854,2.404,1.591,3.266,1.854c1.189,0.363,2.278,0.544,3.261,0.544
			c1.42,0,2.62-0.378,3.586-1.133c1.909-1.492,2.77-4.328,2.558-8.431l-0.032-0.607l-0.577-0.19
			c-1.948-0.645-4.378-0.523-6.724-0.407c-2.109,0.104-4.268,0.207-5.96-0.253c1.198-1.104,2.799-1.788,4.514-1.868
			c1.415-0.062,2.374,0.403,3.501,0.943c0.913,0.438,1.857,0.891,3.057,1.054c3.283,0.445,5.543,0.117,7.365-2.879
			c0.222-0.364,0.589-0.834,1-1.362c1.38-1.779,2.943-3.795,2.576-5.49l-0.545-2.509l-1.123,2.309
			c-1.567,3.225-5.138,8.284-11.499,5.929c-0.421-0.156-0.767-0.442-1.132-0.746c-0.437-0.36-0.929-0.769-1.597-0.989
			c-1.164-0.385-3.73-0.188-4.778,0.027c-1.702,0.345-3.135,1.36-4.249,2.441c-0.069-0.585-0.064-1.237-0.042-1.958
			c0.074-2.432,0.074-2.432,2.406-2.699c1.475-0.167,3.125-0.044,4.866,0.087c4.083,0.307,8.717,0.657,11.056-3.409
			c1.692-2.946,2.127-7.508,1.158-12.203l-0.099-0.477l-0.455-0.173c-3.381-1.295-6.218-1.295-9.81-1.295
			c-0.48,0-1.048,0.034-1.656,0.07c-1.528,0.093-3.429,0.207-4.414-0.27c-0.979-0.476-0.981-0.5-1.043-1.156
			c-0.034-0.369-0.08-0.874-0.257-1.544c-2.141-8.112-8.545-6.523-14.197-5.121c-1.432,0.355-2.913,0.723-4.271,0.921l0.256,1.758
			C128.679,192.781,130.203,192.402,131.677,192.037z M162.528,221.228c-0.808,0.717-1.805,0.959-3.354,0.864
			C160.345,222.024,161.468,221.734,162.528,221.228z M148.337,219.758c1.062-0.217,3.209-0.298,3.866-0.08
			c0.256,0.084,0.491,0.245,0.74,0.442c-0.562-0.127-1.179-0.197-1.867-0.165c-2.381,0.11-4.6,1.152-6.143,2.833
			c-0.195-0.154-0.358-0.32-0.499-0.497C145.333,221.3,146.714,220.088,148.337,219.758z M161.886,204.755
			c-0.1-0.029-0.195-0.062-0.296-0.091c-0.842-0.247-1.637-0.479-2.104-1.082c-0.321-0.415-0.395-0.971-0.479-1.616
			c-0.063-0.492-0.149-1.022-0.344-1.542c0.941,0.15,1.882,0.349,2.865,0.694C161.735,202.238,161.862,203.485,161.886,204.755z"/>
		<path fill="#FFFFFF" d="M149.469,209.266c-1.035-0.071-2.208-0.002-3.2,0.597l0.917,1.521c0.562-0.338,1.419-0.342,2.252-0.342
			c0.02-0.001,0.04,0.001,0.058,0c1.145,0,2.322-0.007,3.087-0.863c0.518-0.578,0.707-1.408,0.582-2.539
			c-0.124-1.108-0.551-1.897-1.271-2.344c-1.375-0.856-3.271-0.171-5.104,0.492c-0.743,0.268-1.444,0.521-2.007,0.629l0.333,1.746
			c0.701-0.134,1.467-0.411,2.278-0.704c1.3-0.471,2.917-1.056,3.561-0.654c0.233,0.145,0.383,0.493,0.442,1.032
			c0.062,0.565,0.013,0.987-0.14,1.156C151.018,209.265,150.235,209.246,149.469,209.266z"/>
		<path fill="#FFFFFF" d="M162.12,263.196l-0.128-1.772c-2.464,0.178-4.377,2.394-5.643,3.86l1.345,1.161
			C158.832,265.126,160.391,263.321,162.12,263.196z"/>
		<path fill="#FFFFFF" d="M165.378,245.936c-1.202,0.631-2.296,1.384-3.529,1.915c0.444,0.476,1.169,0.671,1.698,1.089
			c0.846,0.668,1.504,1.674,2.096,2.56c1.138,1.707,2.098,3.564,2.871,5.465c1.35,3.322,1.671,6.23,1.896,9.773
			c1.519-1.591,3.026-2.97,4.119-4.458c0.033,0.548-0.131,1.142-0.332,1.82c-0.207,0.699-0.421,1.42-0.441,2.22
			c-0.027,1.093,0.069,2.622,0.371,4.01c-0.099,0.052-0.206,0.094-0.301,0.151c-3.655,2.168-3.639,5.745-3.625,8.619l0.002,0.725
			c-0.007,2.905,0.639,5.118,2.032,6.963c1.14,1.51,3.822,2.738,5.979,2.738c2.08,0,3.604-1.109,4.076-2.965
			c0.328-1.284,0.318-2.712,0.31-4.094c-0.004-0.708-0.013-1.4,0.041-2.012l0.056-0.611c0.209-2.266,0.496-5.368-0.581-7.616
			c-0.833-1.739-2.532-2.736-4.661-2.736c-0.541,0-1.093,0.08-1.636,0.208c-0.216-1.114-0.308-2.357-0.284-3.334
			c0.014-0.565,0.187-1.146,0.368-1.761c0.271-0.917,0.552-1.866,0.356-2.903l-1.525,0.288c1.325-1.92,1.931-4.055,0.949-7.083
			c-0.762-2.346-2.331-5.812-4.229-8.262c0.978-2.241,2.345-5.454,2.763-8.357c0.077-0.542,0.139-1.048,0.195-1.525
			c0.283-2.367,0.454-3.796,2.253-5.507c1.803-1.716,4.935-3.128,6.43-2.453c0.597,0.271,0.91,0.954,0.972,1.991
			c-1.007,0.155-1.934,0.613-2.712,1.377c-2.826,2.771-2.969,8.537-2.969,9.665h1.776c0-2.771,0.638-6.633,2.438-8.396
			c0.657-0.647,1.42-0.96,2.32-0.935l0.003-0.139c1.243,0.171,2.107,0.615,2.627,1.363c0.609,0.874,0.743,2.248,0.446,3.959
			c-3.303,1.562-4.938,6.995-5.249,8.133l1.714,0.467c0.521-1.91,1.764-4.988,3.485-6.432l1.159-0.499
			c0.722-0.311,1.693-0.58,2.208-0.081c0.57,0.551,0.653,2.034,0.184,3.238c-0.305,0.776-1.447,2.161-2.265,2.878
			c-0.498,0.437-1.133,0.653-1.808,0.881c-0.722,0.245-1.467,0.498-2.12,1.039c-1.485,1.228-1.402,3.133-1.327,4.814
			c0.061,1.357,0.115,2.638-0.602,3.358c-0.785,0.788-5.261,1.333-6.999,1.127l-0.208,1.765c0.236,0.028,0.575,0.043,0.984,0.043
			c2.146,0,6.228-0.423,7.48-1.681c1.27-1.274,1.188-3.089,1.118-4.691c-0.072-1.682-0.065-2.747,0.685-3.366
			c0.402-0.333,0.939-0.516,1.562-0.727c0.77-0.261,1.643-0.558,2.405-1.229c0.83-0.728,2.277-2.366,2.748-3.566
			c0.321-0.821,0.479-1.802,0.411-2.731l0.156-0.027c0.146-0.213,0.847-0.407,2.086-0.576l1.819-0.288l-0.816-1.16
			c-0.461-0.658-1.121-1.071-1.909-1.196c-0.93-0.148-1.907,0.136-2.693,0.544c-0.517-0.363-1.258-0.623-2.329-0.451
			c0.132-1.121,0.06-2.099-0.168-2.962c0.54-0.306,1.383-0.381,2.101-0.44l2.278-0.21l-1.356-1.339
			c-0.871-0.859-2.731-1.401-4.16-1.212c-0.368,0.049-0.689,0.158-0.984,0.295c-0.503-0.3-1.075-0.533-1.729-0.682
			c-0.035-0.654-0.156-1.186-0.323-1.637l0.281,0.133c0.233-0.495,0.648-0.942,1.052-1.375c0.343-0.371,0.697-0.755,0.958-1.186
			l0.763-1.259l-1.671-0.101c-1.35-0.085-3.994-0.233-4.795,1.58c-2.358,0.016-5.133,1.611-6.683,3.087
			c-2.263,2.151-2.497,4.107-2.793,6.583c-0.055,0.464-0.114,0.956-0.19,1.482c-0.342,2.373-1.414,5.068-2.307,7.151
			c-0.419-0.39-0.845-0.731-1.28-0.971C168.458,243.988,165.839,245.696,165.378,245.936z M178.908,273.762
			c0.652,1.363,0.408,4.005,0.247,5.755l-0.057,0.631c-0.062,0.712-0.061,1.517-0.055,2.341c0.007,1.157,0.016,2.353-0.199,3.193
			c-0.039,0.154-0.073,0.288-0.632,0.288c-1.258,0-2.792-0.86-3.143-1.325c-0.914-1.21-1.319-2.694-1.314-4.812l-0.002-0.751
			c-0.013-2.901,0.064-4.466,1.885-5.544c0.521-0.309,1.198-0.493,1.813-0.493C178.19,273.045,178.68,273.286,178.908,273.762z
			 M184.645,227.729c-0.191-0.172-0.385-0.312-0.58-0.421c0.271-0.15,0.656-0.232,1.123-0.26
			C185.002,227.259,184.816,227.485,184.645,227.729z"/>
		<path fill="#FFFFFF" d="M164.109,271.73c0.777-1.157,1.685-2.282,2.562-3.371c0.783-0.97,1.592-1.973,2.33-3.021l-1.453-1.024
			c-0.704,1-1.495,1.981-2.261,2.929c-0.901,1.118-1.835,2.274-2.655,3.495c-0.785,1.171-1.391,1.992-2.589,2.72
			c-2.33,1.416-4.932,2.403-6.961,2.643l-2.376,0.28l1.983,1.339c2.415,1.63,4.978,3.496,7.369,6.082
			c0.854,0.923,1.551,1.908,2.289,2.951c0.307,0.434,0.615,0.87,0.938,1.305c0.21,0.283,0.457,0.662,0.729,1.076
			c1.185,1.813,2.179,3.231,3.296,3.631l0.599-1.673c-0.644-0.231-1.792-1.986-2.407-2.93c-0.293-0.449-0.561-0.856-0.788-1.163
			c-0.313-0.424-0.614-0.85-0.916-1.273c-0.737-1.043-1.502-2.122-2.434-3.13c-1.946-2.105-3.982-3.744-5.965-5.161
			c1.801-0.504,3.769-1.366,5.566-2.459C162.47,274.065,163.247,273.013,164.109,271.73z"/>
		<path fill="#FFFFFF" d="M139.994,295.403c-1.952-1.527-3.687-3.243-5.365-4.901c-1.334-1.317-2.713-2.681-4.201-3.953
			l-0.766-0.652l-0.554,0.839c-1.364,2.065-4.138,4.192-6.586,6.069c-0.908,0.697-1.776,1.362-2.521,1.983
			c-1.233,1.029-2.498,2.017-3.755,2.997c-1.434,1.12-2.916,2.277-4.306,3.463l1.154,1.352c1.358-1.161,2.826-2.307,4.244-3.415
			c1.271-0.993,2.552-1.992,3.801-3.033c0.729-0.607,1.576-1.257,2.464-1.938c2.256-1.729,4.777-3.663,6.39-5.683
			c1.175,1.049,2.295,2.157,3.385,3.234c1.715,1.694,3.487,3.446,5.521,5.037c1.619,1.266,3.218,2.696,4.913,4.209
			c3.342,2.988,6.799,6.077,10.518,7.929l0.791-1.591c-3.504-1.745-6.87-4.753-10.125-7.663
			C143.355,298.221,141.658,296.705,139.994,295.403z"/>
		<path fill="#FFFFFF" d="M159.897,313.014c1.104-2.398,2.364-4.437,3.865-6.622c2.764-4.025,7.447-7.184,9.815-11.304
			c-1.128-1.383-3.173-3.956-5.08-4.047l-0.443,0.444c0.157,1.789-2.283,3.779-3.062,5.348c-0.938,1.891-1.818,3.874-3.31,5.593
			c-1.568,1.809-6.833,7.148-5.585,9.89c0.101,0.222,0.69,0.917,1.261,1.493c-0.411,2.214-0.683,4.241-0.814,6.185
			c-0.354-0.076-0.71-0.142-1.081-0.142c-3.79,0-7.26,3.959-8.08,6.799c-1.089,3.771,0.371,7.505,4.007,10.241
			c0.383,0.288,0.684,0.547,0.938,0.768c0.556,0.478,1.127,0.967,1.902,1.178c-0.16,0.826-0.312,1.635-0.427,2.471
			c-3.321,0.605-7.987,4.511-7.739,8.488l3.547-0.219c-0.113-1.804,2.948-4.524,4.911-4.793c1.386-0.195,1.904,0.219,2.077,0.354
			c0.655,0.519,1.09,1.688,1.255,3.387c0.47,4.824-1.365,7.185-7.013,9.024l1.101,3.377c4.825-1.568,10.26-4.438,9.449-12.745
			c-0.27-2.761-1.116-4.669-2.589-5.832c-0.888-0.699-1.958-1.067-3.188-1.142c0.107-0.711,0.238-1.41,0.376-2.123
			c0.017-0.092,0.035-0.188,0.053-0.282c0.423-0.113,0.889-0.296,1.455-0.573c1.869-0.913,3.926-2.062,4.674-4.165
			c1.243-3.483-0.67-11.224-3.901-13.37c0.104-1.891,0.351-3.854,0.728-5.996C159.803,314.685,159.403,314.083,159.897,313.014z
			 M158.826,332.873c-0.325,0.914-2.056,1.76-2.888,2.164c-0.44,0.217-0.683,0.303-0.801,0.336
			c-0.126-0.093-0.325-0.265-0.492-0.408c-0.306-0.26-0.664-0.568-1.12-0.912c-1.716-1.291-3.583-3.454-2.729-6.416
			c0.521-1.807,2.925-4.229,4.665-4.229c0.299,0,0.568,0.071,0.824,0.221C157.914,324.572,159.599,330.707,158.826,332.873z"/>
		<path fill="#FFFFFF" d="M61.215,337.009l-0.573-0.027l-0.262,0.51c-0.62,1.213-0.711,2.19-0.271,2.912
			c0.211,0.344,0.744,0.926,1.938,0.926c1.55,0,3.519-0.959,4.389-2.139c1.967-2.664,2.28-7.027,2.534-10.535l0.087-1.164
			c0.059-0.74,0.107-1.496,0.158-2.259c0.269-4.078,0.545-8.295,2.363-11.601c0.957-1.74,2.192-3.489,3.671-5.2
			c0.29-0.334,0.79-0.765,1.318-1.22c1.182-1.017,2.405-2.069,2.773-3.201c0.104-0.316,0.417-1.274-0.096-1.982
			c-0.162-0.222-0.542-0.593-1.28-0.593c-2.196,0-6.705,3.525-6.748,3.562c-3.072,2.579-5.686,6.012-7.356,9.666
			c-1.592,3.477-1.574,7.686-1.557,11.754C62.318,330.05,62.334,333.802,61.215,337.009L61.215,337.009z M61.769,338.724
			c0.197-0.049,0.389-0.125,0.571-0.229l0.276-0.156l0.114-0.297c1.385-3.605,1.368-7.686,1.35-11.633
			c-0.018-4.056-0.034-7.887,1.396-11.008c1.564-3.419,4.01-6.63,6.884-9.043c1.002-0.841,4.002-2.825,5.354-3.11
			c-0.015,0.06-0.034,0.129-0.061,0.211c-0.216,0.661-1.389,1.669-2.244,2.406c-0.581,0.499-1.128,0.971-1.504,1.404
			c-1.56,1.805-2.868,3.657-3.884,5.505c-2.009,3.652-2.298,8.068-2.58,12.342c-0.049,0.754-0.098,1.502-0.157,2.234l-0.087,1.177
			c-0.235,3.278-0.529,7.356-2.191,9.608c-0.536,0.727-1.975,1.416-2.958,1.416c-0.277,0-0.402-0.061-0.421-0.075
			C61.625,339.474,61.55,339.275,61.769,338.724z"/>
		<path fill="#FFFFFF" d="M107.626,350.89c0.398-3.883-1.928-8.553-5.791-11.621c-3.273-2.604-6.936-3.48-10.043-2.419l0.576,1.685
			c2.52-0.867,5.571-0.094,8.361,2.127c3.407,2.707,5.468,6.744,5.128,10.045L107.626,350.89z"/>
		<path fill="#FFFFFF" d="M118.327,376.019c-3.448-4.408-5.529-8.381-7.183-13.711l-1.697,0.527
			c1.724,5.551,3.89,9.688,7.479,14.276L118.327,376.019z"/>
		<path fill="#FFFFFF" d="M73.317,194.127c-0.298,0.688-0.605,1.398-0.827,2.187l1.711,0.482c0.189-0.674,0.46-1.301,0.747-1.964
			c0.437-1.011,0.888-2.057,1.054-3.305c0.188-1.398,0.176-2.809,0.163-4.172l-0.006-1.018h-1.777l0.007,1.034
			c0.012,1.361,0.022,2.647-0.146,3.921C74.108,192.296,73.724,193.185,73.317,194.127z"/>
		<path fill="#FFFFFF" d="M147.971,374.628c-0.097-0.199-0.193-0.398-0.263-0.605l-0.096-0.291l-0.254-0.17
			c-0.116-0.076-0.273-0.201-0.457-0.346c-0.722-0.57-1.627-1.271-2.516-1.467c-0.377-0.392-0.871-0.734-1.544-1.006
			c-0.74-0.3-1.47-0.412-2.181-0.412c0.241-0.443,0.304-0.845,0.358-1.197l0.021-0.121l0.148,0.123
			c0.518-0.623,1.525-0.629,2.593-0.639c0.251,0,0.499-0.002,0.738-0.015l1.123-0.045l-0.305-1.08
			c-0.359-1.287-1.999-1.854-2.815-1.979c-1.178-0.174-2.149,0.049-3.049,0.672c-0.833-0.381-1.741-0.521-2.169-0.582
			c-2.938-0.416-4.429,1.076-6.01,2.658l-0.142,0.143c-1.904,1.902-2.738,2.521-5.279,2.521c-0.009,0-0.019,0-0.028,0l-0.884,0.006
			c-2.272,0.022-3.217,0.035-4.143-1.754c-1.82-3.513-1.925-8.531-2.017-12.957c-0.019-0.896-0.037-1.767-0.068-2.597
			c-0.064-1.698-0.041-3.39-0.019-5.024c0.079-5.545,0.153-10.785-3.046-15.959c-1.423-2.301-3.268-4.221-5.053-6.08
			c-0.614-0.639-1.227-1.276-1.822-1.93c-0.283-0.311-0.569-0.641-0.861-0.978c-1.644-1.892-3.506-4.037-6.159-4.476l-0.29,1.752
			c2.021,0.336,3.591,2.143,5.106,3.889c0.303,0.349,0.599,0.689,0.892,1.01c0.604,0.664,1.229,1.312,1.854,1.964
			c1.722,1.791,3.5,3.644,4.823,5.783c2.926,4.731,2.856,9.719,2.78,14.999c-0.023,1.658-0.047,3.374,0.019,5.119
			c0.031,0.818,0.049,1.681,0.068,2.566c0.096,4.618,0.205,9.854,2.215,13.735c1.295,2.5,2.979,2.718,5.076,2.718
			c0.216,0,0.437,0,0.663-0.005l0.86-0.006c0.012,0,0.021,0,0.03,0c3.161,0,4.422-0.929,6.538-3.043l0.144-0.142
			c1.474-1.477,2.454-2.45,4.5-2.155c1.894,0.271,2.266,0.769,2.307,1.108l-0.096,0.525c-0.046,0.295-0.074,0.455-0.162,0.617
			c-0.285,0.52-0.822,0.969-1.438,1.201l0.051,0.135c-0.133,0.035-0.268,0.072-0.398,0.109c-1.046,0.283-2.031,0.562-3.009,0.531
			l-0.042,1.776c1.241,0.021,2.396-0.287,3.52-0.595c1.534-0.422,2.985-0.815,4.394-0.247c1.552,0.625,1.573,1.61,1.435,3.758
			c-0.252,0.071-0.673,0.176-1.375,0.332c-0.645,0.149-1.298,0.265-1.957,0.347l-0.919,0.118c-0.964,0.132-1.875,0.257-2.805,0.259
			c-0.001,0-0.003,0-0.004,0c-0.101,0-0.248-0.037-0.373-0.058c-0.17-0.797-0.513-1.485-1.062-2.033
			c-1.868-1.864-5.698-2.036-11.712-0.521l0.434,1.725c6.578-1.66,9.081-0.887,10.022,0.053c0.708,0.707,0.86,1.896,0.45,3.535
			c-0.077,0.307-0.121,0.537-0.152,0.744c-0.131,0.053-0.296,0.123-0.506,0.223c-0.853,0.402-2.556,0.344-4.06,0.291
			c-1.183-0.041-2.296-0.08-3.188,0.07l-0.232,0.037c-1.945,0.32-4.109,0.678-5.921,1.75c-1.883-4.135-5.557-6.674-9.118-9.135
			c-4.479-3.094-8.708-6.019-9.061-11.855c-0.081-1.342-0.022-2.744,0.032-4.104c0.165-4.01,0.334-8.155-2.97-11.334
			c-1.781-1.715-3.88-2.475-5.881-3.037c-0.822-0.232-1.724-0.566-2.66-0.911c-1.729-0.64-3.642-1.335-5.446-1.558
			c3.084-3.246,4.682-8.088,5.614-11.547c0.47-1.74,0.784-3.537,1.09-5.275c0.075-0.424,0.156-0.856,0.233-1.286
			c3.211-5.443,9.041-9.628,17.438-12.475c0.819-0.278,1.655-0.547,2.496-0.817c3.312-1.064,6.737-2.165,9.703-3.991
			c1.062-0.654,2.153-1.392,3.265-2.144c2.637-1.784,5.365-3.628,8.036-4.565l-0.588-1.676c-2.889,1.012-5.711,2.922-8.443,4.771
			c-1.09,0.736-2.16,1.461-3.201,2.103c-2.78,1.713-6.102,2.78-9.313,3.812c-0.852,0.272-1.695,0.545-2.523,0.825
			c-6.907,2.341-12.175,5.571-15.783,9.647c0.866-2.531,2.319-4.457,4.15-6.777l0.18-0.229c1.716-2.175,3.339-3.577,5.485-5.428
			c0.719-0.62,1.397-1.454,2.115-2.335c1.172-1.44,2.385-2.929,3.7-3.375l-0.571-1.684c-1.8,0.61-3.239,2.377-4.507,3.936
			c-0.667,0.82-1.298,1.594-1.988,2.189c-2.129,1.835-3.81,3.286-5.63,5.596l-0.18,0.229c-2.103,2.665-3.917,4.966-4.807,8.375
			c-0.288,1.104-0.51,2.231-0.717,3.354c-1.189,2.08-2.038,4.331-2.529,6.754l1.111,0.226c-0.94,3.449-2.538,8.24-5.614,11.092
			l-1.127,1.049c-2.265,2.113-4.605,4.299-7.021,6.039c-0.511,0.363-1.028,0.708-1.546,1.052c-0.854,0.565-1.736,1.149-2.586,1.843
			c-0.581,0.471-1.188,0.938-1.797,1.406c-3.829,2.943-8.168,6.28-7.253,12.295c0.1,0.654,0.188,1.369,0.278,2.117
			c0.313,2.555,0.671,5.451,1.669,7.602l0.222,0.479l1.647,0.112c2.077,0.156,4.659,0.353,6.646-0.059
			c1.544-0.316,2.503-1.332,3.351-2.227c0.682-0.721,1.271-1.344,2.073-1.578c1.054-0.305,2.374-0.068,3.502,0.389
			c-0.002,0.031-0.014,0.062-0.014,0.094h0.234c1.101,0.486,1.983,1.181,2.171,1.775c0.16,0.51-0.512,0.912-1.129,1.168
			c-2.137-0.418-4.422,0.365-6.291,1.018l-0.497,0.172c-0.621,0.214-1.245,0.408-1.869,0.604c-0.679,0.212-1.357,0.421-2.027,0.654
			l-0.532,0.192c-0.666,0.248-1.663,0.621-2.199,0.574l-0.156,1.771c0.079,0.006,0.16,0.01,0.242,0.01
			c0.877,0,1.899-0.379,2.734-0.689l0.497-0.182c0.65-0.227,1.31-0.432,1.972-0.635c0.64-0.203,1.281-0.4,1.918-0.621l0.504-0.174
			c1.607-0.562,3.395-1.178,4.964-1.018c0.931,1.049,1.227,2.022,0.856,2.895c-0.648,1.523-3.142,2.609-5.165,2.732
			c-0.239-0.084-0.458-0.201-0.673-0.322c-0.332-0.187-0.708-0.393-1.164-0.518l-0.533-0.156c-0.645-0.195-1.31-0.396-2.047-0.433
			c-1.188-0.06-2.495-0.06-3.992,0.002l-0.433,0.013c-0.383,0.008-0.773,0.018-1.138,0.063c-0.657,0.086-1.229,0.354-1.734,0.588
			c-0.354,0.164-0.688,0.32-1.008,0.396l0.41,1.729c0.495-0.116,0.93-0.317,1.349-0.514c0.426-0.199,0.827-0.386,1.211-0.437
			c0.303-0.039,0.629-0.043,0.946-0.051l0.469-0.014c1.44-0.057,2.696-0.059,3.833-0.002c0.521,0.027,1.057,0.186,1.624,0.354
			l0.569,0.169c0.252,0.067,0.494,0.204,0.775,0.36c0.201,0.108,0.419,0.196,0.631,0.293c0.501,1.157,0.592,2.045,0.231,2.612
			c-0.888,1.396-4.451,1.396-6.365,1.396c-1.888,0-3.776,0.063-5.666,0.129c-2.55,0.089-5.18,0.179-7.771,0.097
			c-0.024-0.594,0.006-1.123,0.037-1.642c0.103-1.7,0.198-3.31-2.148-5.266c-1.114-0.929-2.636-1.482-4.106-2.019
			c-1.789-0.652-3.477-1.268-4.061-2.385c-0.561-1.074-0.407-1.379-0.405-1.381c0.142-0.264,1.295-0.375,1.916-0.434
			c1.004-0.099,2.042-0.199,2.854-0.674c1.046-0.617,2.083-1.386,1.849-2.431c-0.292-1.306-2.212-1.481-4.643-1.701
			c-0.646-0.059-1.412-0.129-1.876-0.219c-0.049-0.125-0.104-0.261-0.162-0.397c-0.344-0.838-0.919-2.234-0.542-2.802
			c0.498-0.745,1.585-0.694,3.185-0.538c1.1,0.106,2.233,0.219,3.15-0.179c1.419-0.608,1.66-1.56,1.68-2.063
			c0.036-0.972-0.647-1.916-1.826-2.531c-1-0.521-2.164-0.451-3.198-0.391c-1.41,0.086-2.067,0.061-2.392-0.529
			c-0.561-1.016-0.288-3.979,0.201-6.299c0.501-2.383,0.972-2.812,3.356-3.056c0.722-0.071,1.492-0.026,2.308,0.021
			c1.399,0.084,2.85,0.17,4.251-0.344c1.578-0.582,2.09-1.97,2.224-3.404l0.441-0.082c-0.007-0.032-0.204-1.11-0.474-2.729
			c-0.014-0.254-0.031-0.516-0.031-0.738h-0.089c-0.607-3.735-1.466-9.59-1.466-12.959V311.65l-0.325-0.266
			c-0.145-0.12-14.483-12.118-14.483-30.414c0-10.088,9.333-23.693,17.566-35.696c7.263-10.586,13.533-19.729,13.533-25.912
			c0-12.954-1.754-15.669-1.955-15.935l-0.123-0.134c-0.047-0.042-4.733-4.241-4.733-9.7c0-2.951,2.414-7.898,4.704-11.93
			c-0.046,0.79-0.198,1.558-0.384,2.36l-0.111,0.49c-0.158,0.704-0.233,1.424-0.308,2.12c-0.132,1.249-0.256,2.429-0.82,3.402
			l1.537,0.892c0.756-1.302,0.905-2.729,1.052-4.108c0.067-0.65,0.134-1.297,0.272-1.918l0.109-0.479
			c0.227-0.981,0.46-1.997,0.463-3.121l-1.605-0.003c1.042-1.813,2.041-3.421,2.757-4.537c0.448,1.683,1.052,4.118,1.225,5.673
			c0.124,1.116,0.784,2.452,1.619,4.145c1.388,2.811,3.114,6.309,3.114,10.27c0,5.665-6.665,6.779-6.948,6.823l-1.361,0.217
			l0.756,1.152c0.028,0.042,2.814,4.389,2.814,13.431c0,8.713-3.887,15.686-9.268,25.338l-0.987,1.776
			c-1.321,2.376-2.819,4.699-4.405,7.158c-5.346,8.288-11.405,17.683-11.405,31.482c0,17.774,11.777,25.044,12.279,25.346
			l0.597,0.358l0.491-0.495c0.845-0.851,1.666-1.691,2.477-2.52c3.907-4,7.599-7.779,12.433-11.141
			c4.633-3.225,9.53-6.738,13.953-10.589c3.604-3.136,6.091-7.78,6.652-12.421c0.266-2.196,0.06-4.623-0.141-6.969
			c-0.155-1.829-0.306-3.688-0.239-5.438c0.24,0.547,0.491,1.062,0.752,1.496c1.602,2.667,3.114,4.665,4.628,6.105
			c2.271,2.162,4.146,3.251,5.586,3.251c0.272,0,0.531-0.039,0.773-0.118l0.432-0.141c0.021,0.035,0.05,0.071,0.07,0.106
			c0.787,1.311,1.641,2.713,2.66,4.168c0.188,0.269,0.396,0.676,0.629,1.125c0.767,1.475,1.637,3.147,3.008,3.409l0.98,0.188
			l0.073-0.995c0.087-1.191,0.135-2.398,0.166-3.605c0.957,0.326,1.894,0.838,2.882,1.39c1.198,0.669,2.438,1.36,3.84,1.769
			c2.11,0.614,4.363,0.909,6.542,1.194c0.911,0.119,1.816,0.237,2.708,0.378c0.461,0.072,1.018,0.184,1.634,0.306
			c1.762,0.352,3.882,0.774,5.813,0.774c1.573,0,3.021-0.281,4.049-1.11c0.908-0.734,1.379-1.797,1.398-3.16l0.012-0.779
			l-0.771-0.113c-0.957-0.14-1.742-0.182-2.478-0.221c-0.938-0.05-1.733-0.096-2.702-0.333c0.602-0.442,1.287-1.06,1.348-1.637
			c0.094-0.891-0.684-1.466-1.199-1.846c-0.129-0.095-0.253-0.177-0.325-0.255c-1.73-1.979-2.561-5.581-3.109-7.964
			c-0.687-2.979-1.396-6.061-1.414-9.101c-0.018-2.8-0.457-5.014-1.382-6.966c-0.412-0.868-0.855-1.702-1.296-2.528
			c-0.295-0.555-0.585-1.101-0.862-1.65c0.415,0.422,0.848,0.849,1.305,1.279c1.068,1.005,2.247,1.755,3.386,2.482
			c0.52,0.332,1.042,0.664,1.554,1.022c0.438,0.307,0.807,0.65,1.198,1.015c0.37,0.344,0.736,0.687,1.16,1.002
			c0.322,0.242,0.691,0.434,1.067,0.624c0.339,0.171,0.658,0.333,0.902,0.531c1.361,1.111,1.926,2.766,2.299,4.239
			c0.631,2.495,0.571,5.233,0.513,7.883c-0.049,2.219-0.099,4.514,0.244,6.719c0.271,1.734,1.039,4.748,3.161,5.431
			c0.28,0.09,0.565,0.135,0.857,0.135c1.062,0,2.191-0.601,3.371-1.798l1.537-1.559l-2.188,0.046
			c-0.838,0.014-1.447-0.165-1.851-0.56c-0.508-0.499-0.763-1.421-0.758-2.744c0.005-1.772,0.039-3.547,0.073-5.325
			c0.037-1.954,0.075-3.91,0.075-5.867c0-0.685-0.015-1.357-0.019-2.036c2.667-0.376,6.482-2.814,7.237-5.292l-1.701-0.518
			c-0.48,1.581-3.438,3.644-5.553,4.028c-0.032-1.68-0.091-3.353-0.232-5.022c-0.223-2.662-1.384-4.307-2.727-6.212l-0.492-0.7
			c-1.534-2.21-2.959-3.919-4.484-5.377c-0.779-0.746-1.614-1.491-2.458-2.244c-0.866-0.773-1.742-1.555-2.575-2.354l-0.356-0.337
			c-1.144-1.076-3.822-3.598-3.284-5.067c0.22-0.596,1.261-1.128,2.179-1.598c0.796-0.406,1.618-0.827,2.183-1.396
			c2.137-2.153,2.039-5.239,1.952-7.961c-0.019-0.549-0.035-1.097-0.035-1.633h-1.777c0,0.555,0.02,1.121,0.036,1.689
			c0.083,2.594,0.162,5.043-1.437,6.654c-0.364,0.366-1.06,0.721-1.73,1.064c-1.209,0.618-2.579,1.318-3.038,2.567
			c-0.943,2.573,2.1,5.437,3.733,6.975l0.343,0.324c0.849,0.814,1.741,1.611,2.624,2.398c0.829,0.74,1.648,1.471,2.413,2.203
			c1.457,1.394,2.769,2.968,4.254,5.107l0.499,0.711c1.292,1.833,2.227,3.156,2.41,5.336c0.239,2.857,0.259,5.741,0.259,8.691
			c0,1.946-0.037,3.891-0.074,5.833c-0.035,1.787-0.067,3.572-0.073,5.353c-0.007,1.844,0.417,3.158,1.291,4.017
			c0.285,0.281,0.616,0.508,0.989,0.678c-0.32,0.139-0.639,0.191-0.927,0.098c-0.862-0.277-1.609-1.815-1.95-4.012
			c-0.318-2.051-0.271-4.167-0.224-6.408c0.061-2.767,0.124-5.629-0.566-8.357c-0.442-1.754-1.134-3.743-2.899-5.181
			c-0.394-0.32-0.834-0.543-1.224-0.739c-0.28-0.143-0.562-0.279-0.805-0.46c-0.37-0.277-0.69-0.578-1.013-0.879
			c-0.419-0.39-0.853-0.794-1.394-1.172c-0.533-0.372-1.075-0.718-1.617-1.063c-1.118-0.713-2.175-1.387-3.121-2.278
			c-1.741-1.638-3.136-3.196-4.225-4.704c-0.029-0.15-0.077-0.287-0.101-0.44l-0.19,0.029c-0.784-1.14-1.396-2.25-1.825-3.342
			c-0.421-1.07-0.717-2.274-0.931-3.788c-0.182-1.292-0.267-2.631-0.348-3.927c-0.09-1.433-0.184-2.913-0.409-4.377l-1.756,0.271
			c0.213,1.384,0.304,2.824,0.392,4.217c0.083,1.33,0.17,2.705,0.362,4.064c0.234,1.655,0.563,2.986,1.037,4.188
			c0.495,1.264,1.208,2.542,2.12,3.845c0.535,2.42,1.591,4.483,2.645,6.463c0.427,0.803,0.858,1.612,1.258,2.455
			c0.812,1.709,1.195,3.684,1.21,6.215c0.021,3.237,0.751,6.415,1.459,9.49c0.589,2.556,1.479,6.419,3.504,8.736
			c0.167,0.189,0.382,0.347,0.608,0.515c0.086,0.063,0.21,0.155,0.318,0.243c-0.334,0.298-0.892,0.707-1.094,0.805
			c-1.493,0.707-3.105-0.22-4.197-1.124c-1.019-0.843-1.059-1.776-1.045-3.641l0.002-0.51c-0.001-2.941-0.101-5.65-0.949-8.677
			c0.2-0.423,0.367-0.855,0.484-1.296c0.406-1.52,0.375-3.214,0.313-4.684c-0.083-2.01-0.834-3.37-1.628-4.811
			c-0.211-0.383-0.43-0.779-0.646-1.207c-1.47-2.904-3.15-5.314-5.801-8.317c-2.204-2.496-3.744-4.79-4.577-6.817
			c-1.147-2.798-1.02-6.368-0.896-9.819c0.037-1.03,0.073-2.035,0.073-2.987h-1.777c0,0.932-0.036,1.915-0.072,2.922
			c-0.125,3.471-0.267,7.405,1.028,10.559c0.908,2.212,2.552,4.674,4.887,7.318c2.544,2.882,4.151,5.183,5.547,7.943
			c0.228,0.448,0.456,0.863,0.678,1.263c0.75,1.36,1.343,2.434,1.408,4.027c0.057,1.338,0.087,2.873-0.254,4.151
			c-0.677,2.533-3.414,4.939-5.728,6.817c-0.014-0.365-0.023-0.728-0.034-1.089c-0.108-3.766-0.21-7.324-2.903-10.601
			c-1.032-1.257-2.298-1.979-3.521-2.676c-0.881-0.502-1.714-0.977-2.479-1.645c-2.309-2.017-3.222-3.887-3.15-6.455l-0.326-0.009
			c1.63-2.314,1.687-5.698,1.724-8.48c0.012-0.841,0.021-1.641,0.074-2.353c0.102-1.375,0.146-2.76,0.191-4.146
			c0.085-2.688,0.173-5.467,0.722-8.087c0.078-0.37,0.144-0.717,0.208-1.047c0.342-1.788,0.547-2.869,1.875-4.14l-1.23-1.283
			c-1.734,1.664-2.022,3.175-2.39,5.089c-0.061,0.32-0.126,0.658-0.201,1.016c-0.581,2.772-0.672,5.631-0.759,8.396
			c-0.043,1.36-0.086,2.72-0.187,4.07c-0.057,0.745-0.068,1.581-0.079,2.461c-0.038,2.934-0.082,6.259-1.836,8.026
			c-1.35,1.359-4.77,2.385-7.243,2.529c0.191-0.288,0.407-0.613,0.558-1.012c0.428-1.13,0.504-2.294,0.578-3.418l0.028-0.424
			c0.235-3.326-0.276-6.675-0.771-9.912c-0.208-1.355-0.414-2.704-0.562-4.039c-0.417-3.722-0.158-6.485,0.813-8.693
			c1.094-2.484,2.843-4.997,4.541-7.356c1.572-2.183,3.947-4.479,5.712-4.686L115,203.817c-3.171,0.374-6.342,4.575-6.945,5.413
			c-1.752,2.437-3.562,5.036-4.726,7.677c-0.788,1.79-1.149,3.875-1.14,6.381c-0.045-0.258-0.075-0.515-0.129-0.775
			c-0.074-0.355-0.147-0.904-0.235-1.545c-0.2-1.465-0.404-2.815-0.686-3.926c0.656-0.318,1.228-0.724,1.496-0.938
			c1.728-1.384,2.796-3.482,3.828-5.512c0.617-1.21,1.2-2.354,1.906-3.323c2.349-3.22,3.824-4.401,4.691-4.8
			c0.001,0.311,0.006,0.622,0.006,0.933h1.777c0-0.02,0-0.038,0-0.057c0.008,0.02,0.017,0.035,0.024,0.055l1.652-0.656
			c-0.464-1.168-1.102-1.736-1.694-2.006c-0.002-0.298-0.002-0.594-0.005-0.891c-0.021-2.32-0.043-4.72,0.022-7.066l0.007-0.306
			c0.047-2.117,0.247-4.073,1.374-4.073c0.007,0,0.014,0,0.021,0c1.072,0.022,2.159,0.819,3.154,1.752
			c-0.01,0-0.021-0.004-0.031-0.004c-0.428,0-1.042,0.166-1.534,0.954c-0.798,1.279-0.61,2.826-0.475,3.957
			c0.03,0.25,0.008,0.61-0.011,0.986c-0.037,0.783-0.072,1.523,0.143,2.068c0.251,0.643,0.901,1.41,2.56,1.41
			c1.293,0,2.777-0.468,3.412-0.668l0.233-0.072c0.519-0.159,1.009-0.308,1.236-0.838c0.237-0.555-0.032-1.092-0.248-1.522
			c-0.301-0.6-0.7-1.199-1.097-1.784c0.721,0.928,1.393,1.917,1.921,2.864l1.552-0.866c-1.083-1.942-2.646-3.991-4.178-5.479
			c-0.272-0.266-0.563-0.57-0.869-0.893c-1.522-1.601-3.417-3.592-5.732-3.641c-1.635,0.003-2.415,1.091-2.804,2.395
			c-6.465,1.446-12.193,8.806-13.825,14.901c-0.486,1.817-0.62,3.66-0.749,5.442c-0.123,1.699-0.254,3.309-0.654,4.856
			c-1.826,0.449-3.823,2.958-3.916,3.074c-1.965,2.513-2.435,6.301-2.482,9.035c-0.06,3.357,0.042,6.753,0.141,10.036
			c0.079,2.633,0.16,5.355,0.156,8.016l-0.002,1.08c-0.002,1.533-0.005,3.066,0.002,4.599c0.008,1.541-0.471,2.728-1.026,4.103
			l-0.536,1.335l1.182,0.114c0.361,0.036,0.722,0.053,1.081,0.053c1.28,0,2.539-0.227,3.734-0.656
			c0.045,0.509,0.118,1.025,0.221,1.542c-0.876,2.877-0.608,6.188-0.336,9.396c0.2,2.361,0.391,4.591,0.146,6.604
			c-0.502,4.154-2.823,8.481-6.054,11.295c-4.36,3.794-9.21,7.274-13.804,10.469c-4.971,3.459-8.72,7.296-12.688,11.358
			c-0.64,0.654-1.286,1.316-1.946,1.985c-2.309-1.683-10.849-8.891-10.849-23.432c0-13.276,5.653-22.042,11.121-30.519
			c1.603-2.484,3.116-4.831,4.465-7.259l0.987-1.773c5.51-9.887,9.491-17.029,9.491-26.204c0-7.061-1.602-11.41-2.508-13.307
			c3.018-0.835,7.247-3.282,7.247-8.316c0-4.376-1.907-8.237-3.297-11.057c-0.729-1.476-1.357-2.75-1.447-3.555
			c-0.301-2.712-1.747-7.646-1.808-7.854l-0.53-1.8l-1.057,1.55c-0.369,0.542-9.041,13.331-9.041,19.458
			c0,5.836,4.46,10.223,5.23,10.936c0.248,0.466,1.582,3.497,1.582,14.833c0,5.632-6.422,14.994-13.222,24.907
			c-8.38,12.216-17.878,26.063-17.878,36.702c0,17.813,12.552,29.545,14.809,31.511v17.361c0,3.736,0.977,10.183,1.595,13.898
			c0.006,0.105,0.006,0.192,0.012,0.301c0.122,2.028,0.122,3.612-1.047,4.043c-1.055,0.388-2.258,0.314-3.533,0.24
			c-0.849-0.051-1.726-0.102-2.594-0.015c-3.153,0.321-4.255,1.319-4.916,4.453c-0.271,1.282-1.071,5.614-0.02,7.524
			c0.898,1.633,2.647,1.531,4.055,1.445c0.84-0.049,1.706-0.102,2.271,0.193c0.646,0.338,0.876,0.725,0.87,0.889
			c-0.004,0.119-0.193,0.322-0.606,0.5c-0.496,0.211-1.399,0.125-2.272,0.039c-1.655-0.164-3.712-0.363-4.837,1.324
			c-0.902,1.352-0.133,3.223,0.376,4.461c0.114,0.275,0.217,0.521,0.279,0.719l0.121,0.389l0.376,0.164
			c0.542,0.229,1.396,0.314,2.744,0.439c0.769,0.07,2.052,0.184,2.753,0.369c-0.154,0.117-0.379,0.27-0.698,0.457
			c-0.474,0.279-1.313,0.361-2.125,0.439c-1.334,0.129-2.715,0.262-3.307,1.354c-0.549,1.01-0.039,2.225,0.392,3.049
			c0.901,1.732,2.999,2.496,5.026,3.236c1.329,0.483,2.701,0.983,3.577,1.715c1.658,1.381,1.609,2.186,1.515,3.793
			c-0.047,0.768-0.1,1.639,0.034,2.715l0.093,0.742l0.75,0.035c1.002,0.045,2.007,0.062,3.011,0.062
			c1.912,0,3.816-0.063,5.681-0.129c1.869-0.062,3.737-0.127,5.604-0.127c2.496,0,5.002-0.106,6.63-1.065l-0.002,0.01l0.285,0.062
			c0.978,0.205,1.9,0.397,2.558,0.985l1.33,1.189l0.146-1.775c0.069-0.824-0.156-1.637-0.653-2.355
			c-0.216-0.309-1.029-1.248-1.969-1.59c-0.039-0.35-0.108-0.711-0.229-1.094c1.749-0.287,3.597-1.082,4.784-2.309
			c0.858-0.06,1.782,0.098,2.758,0.276c0.838,0.153,1.705,0.312,2.564,0.326l1.231,0.018l-0.374-1.176
			c-0.739-2.326-3.327-3.172-5.216-3.795l-0.007-0.002c-0.121-0.308-0.273-0.623-0.488-0.955c1.667-0.906,1.762-2.08,1.632-2.776
			c0.307-0.06,0.629-0.109,0.961-0.16c0.933-0.146,1.896-0.293,2.758-0.681l1.529-0.69l-1.429-0.877
			c-0.791-0.486-5.131-1.773-7.008-0.736c-1.596-0.707-3.486-1.004-4.969-0.572c-1.266,0.365-2.116,1.268-2.867,2.061
			c-0.764,0.808-1.421,1.502-2.417,1.709c-1.744,0.357-4.189,0.175-6.154,0.025l-0.593-0.043c-0.733-1.861-1.041-4.367-1.315-6.598
			c-0.094-0.764-0.184-1.496-0.286-2.164c-0.757-4.982,2.808-7.723,6.58-10.621c0.623-0.479,1.242-0.954,1.836-1.438
			c0.781-0.638,1.589-1.172,2.445-1.737c0.537-0.357,1.074-0.712,1.603-1.095c2.51-1.805,4.894-4.029,7.197-6.18l0.22-0.207
			l0.019,0.268c1.855-0.125,4.212,0.746,6.287,1.514c0.982,0.361,1.929,0.712,2.793,0.955c1.777,0.5,3.631,1.163,5.13,2.605
			c2.727,2.625,2.582,6.199,2.426,9.982c-0.058,1.402-0.117,2.852-0.031,4.285c0.405,6.699,5.192,10.008,9.822,13.207
			c3.794,2.623,7.378,5.098,8.888,9.336l0.426,1.191l0.976-0.806c1.599-1.312,3.965-1.7,6.051-2.045l0.233-0.039
			c0.72-0.116,1.75-0.082,2.837-0.045c1.788,0.062,3.639,0.127,4.881-0.461c0.245-0.115,0.418-0.185,0.542-0.235
			c0.146-0.058,0.271-0.117,0.379-0.183c0.659,0.303,1.345,0.778,2.012,1.25c0.249,0.176,0.493,0.349,0.729,0.508l1.517,1.019
			l-0.135-1.824c-0.148-2.016-1.503-3.115-2.827-4.035c1.024-0.008,2.015-0.139,2.973-0.268l0.895-0.121
			c0.732-0.088,1.455-0.217,2.27-0.404c1.793-0.398,2.534-0.562,2.586-1.383l0.027-0.451c0.006-0.088,0.011-0.176,0.017-0.266
			c0.587,0.199,1.216,0.522,1.707,0.842l1.655,1.074l-0.293-1.951C148.384,375.492,148.164,375.035,147.971,374.628z
			 M122.935,197.162c-0.557,0.175-1.857,0.587-2.878,0.587c-0.24,0-0.807-0.028-0.905-0.282c-0.075-0.201-0.04-0.939-0.021-1.335
			c0.023-0.489,0.039-0.957,0-1.283c-0.115-0.963-0.248-2.055,0.22-2.803c0.03-0.049,0.056-0.082,0.064-0.102
			c0.357,0.139,0.985,0.945,1.869,2.4c0.128,0.211,0.239,0.394,0.328,0.528l0.404,0.602c0.375,0.554,0.763,1.125,1.038,1.652
			L122.935,197.162z M118.523,252.727c1.133,0.646,2.204,1.256,3.029,2.26c2.306,2.808,2.396,5.921,2.498,9.524
			c0.027,0.946,0.056,1.908,0.125,2.884l0.121,1.695l1.867-1.503c1.708-1.37,3.817-3.072,5.341-5.025
			c0.437,2.215,0.488,4.333,0.489,6.603l-0.002,0.498c-0.012,1.854-0.024,3.604,1.688,5.022c1.437,1.19,2.858,1.792,4.198,1.792
			c0.429,0,0.844-0.085,1.25-0.208l-0.18,0.503c1.802,0.644,3.04,0.71,4.35,0.779c0.454,0.024,0.929,0.048,1.455,0.101
			c-0.113,0.427-0.325,0.763-0.639,1.016c-1.639,1.323-5.707,0.511-8.398-0.024c-0.642-0.128-1.222-0.244-1.702-0.319
			c-0.907-0.144-1.83-0.265-2.757-0.385c-2.111-0.276-4.296-0.561-6.273-1.137c-1.208-0.352-2.359-0.994-3.471-1.615
			c-1.06-0.59-2.152-1.2-3.316-1.577l-0.41,1.271c0.076-4.114-0.18-8.275-0.76-12.226c-0.121-0.82-0.291-1.711-0.469-2.642
			c-0.569-2.971-1.196-6.292-0.483-8.9C116.878,251.76,117.711,252.263,118.523,252.727z M112.069,244.474
			c0.223,1.974,1.051,3.687,2.576,5.318c-1.234,3.167-0.499,7.082,0.167,10.553c0.172,0.904,0.339,1.771,0.457,2.567
			c0.668,4.549,0.896,9.384,0.669,14.093c-0.32-0.507-0.624-1.092-0.823-1.474c-0.276-0.53-0.528-1.007-0.751-1.325
			c-0.986-1.407-1.821-2.778-2.59-4.062c-0.35-0.582-0.793-1.184-1.247-1.796c-0.659-0.889-1.316-1.801-1.668-2.661
			c-0.179-0.559-0.354-1.12-0.498-1.68c-0.305-1.181-0.354-2.317-0.404-3.521c-0.026-0.631-0.055-1.268-0.118-1.918
			c-0.106-1.084-0.369-2.147-0.625-3.174c-0.244-0.983-0.475-1.911-0.577-2.854c-0.219-1.989-0.254-3.997-0.259-5.896
			C108.392,246.283,110.579,245.555,112.069,244.474z M101.375,204.383c1.438-5.375,6.407-11.791,11.773-13.438
			c-0.043,0.55-0.06,1.073-0.069,1.492l-0.007,0.296c-0.065,2.378-0.042,4.794-0.021,7.131c0.003,0.253,0.003,0.506,0.005,0.759
			c-2.198,0.558-4.491,3.371-6.127,5.616c-0.777,1.066-1.421,2.327-2.042,3.547c-0.947,1.861-1.929,3.786-3.357,4.932
			c-0.362,0.291-0.692,0.498-0.981,0.651c-0.133-0.258-0.276-0.495-0.439-0.674c-0.035-0.038-0.083-0.049-0.12-0.083
			c0.431-1.693,0.573-3.431,0.695-5.12C100.805,207.794,100.933,206.036,101.375,204.383z M93.929,245.466l0.001-1.081
			c0.004-2.688-0.078-5.424-0.157-8.07c-0.098-3.263-0.199-6.637-0.141-9.952c0.036-2.017,0.355-5.733,2.107-7.971
			c0.733-0.938,1.638-1.747,2.292-2.175c0.107,0.487,0.355,0.805,0.622,0.984c0.234,0.158,0.496,0.225,0.764,0.251
			c0.298,1.194,0.513,2.75,0.65,3.76c0.095,0.691,0.176,1.282,0.255,1.666c0.171,0.827,0.292,1.647,0.411,2.464
			c0.155,1.063,0.316,2.163,0.588,3.269c0.107,0.438,0.278,0.884,0.453,1.33c0.093,0.24,0.184,0.474,0.26,0.698l-0.312,0.293
			c0.832,0.885,0.813,2.597,0.799,4.106l-0.004,0.582c0,0.76,0.008,1.522,0.015,2.285c0.022,2.312,0.035,4.698-0.15,7
			c-0.149,0.318-0.263,0.677-0.261,1.1l0.003,0.437c-0.472,2.002-1.581,3.863-3.223,5.229c-0.613,0.509-1.283,0.904-1.975,1.242
			l-0.326-0.042c-0.01,0.066-0.005,0.138-0.013,0.205c-1.091,0.48-2.25,0.773-3.44,0.811c0.439-1.159,0.788-2.344,0.781-3.831
			C93.924,248.524,93.927,246.995,93.929,245.466z M100.04,253.035c1.923-1.598,3.26-3.774,3.829-6.126
			c0.234-0.004,0.479-0.015,0.733-0.033c0.007,1.884,0.046,3.868,0.265,5.859c0.116,1.062,0.373,2.092,0.62,3.089
			c0.251,1.009,0.488,1.964,0.582,2.919c0.06,0.617,0.086,1.221,0.111,1.821c0.053,1.242,0.107,2.526,0.458,3.888
			c0.117,0.458,0.264,0.907,0.401,1.359l-0.04,0.011c0.043,0.146,0.114,0.288,0.17,0.432c0.258,0.804,0.528,1.6,0.803,2.377
			c0.074,0.21,0.147,0.421,0.222,0.631c-0.816-0.317-2.019-1.098-3.583-2.588c-1.396-1.33-2.813-3.205-4.33-5.731
			c-0.988-1.648-1.897-4.468-1.957-6.731C98.922,253.873,99.499,253.486,100.04,253.035z M78.631,386
			c0.016-0.033,0.031-0.063,0.044-0.098c0.071,0.051,0.14,0.094,0.213,0.154C78.801,386.035,78.717,386.019,78.631,386z
			 M86.565,379.15c-0.653-0.121-1.32-0.234-1.992-0.293c0.061-0.191,0.104-0.404,0.134-0.625c0.736,0.256,1.487,0.559,2.092,0.961
			C86.723,379.179,86.644,379.166,86.565,379.15z M84.66,370.933c-0.051-0.055-0.094-0.109-0.147-0.162
			c0.188,0.012,0.386,0.025,0.594,0.047C84.953,370.849,84.808,370.894,84.66,370.933z"/>
		<path fill="#FFFFFF" d="M191.149,297.383c-0.375-0.829-0.88-1.562-1.417-2.072c-2.547-2.423-7.268-0.938-9.642,0.567
			c-0.474,0.301-0.958,0.66-1.456,1.03c-1.474,1.094-3.004,2.221-4.604,1.992l-0.257,1.758c2.339,0.345,4.242-1.073,5.921-2.324
			c0.461-0.343,0.909-0.677,1.348-0.955c2.004-1.272,5.764-2.403,7.464-0.781c0.831,0.79,1.598,2.384,1.438,3.683
			c-0.08,0.644-0.372,1.1-0.937,1.42c-0.731,0.416-1.267,0.719-1.751,0.939c-1.175-0.29-2.437-0.048-3.502,0.708l-2.335,1.657
			l2.863-0.043c1.341-0.021,2.211-0.147,3.023-0.428c0.097,0.045,0.19,0.097,0.282,0.156c0.841,0.533,1.623,1.746,1.296,3.551
			c-0.277,1.554-2.137,3.466-3.781,4.735c-1.017,0.785-1.859,0.811-3.136,0.849c-0.36,0.011-0.742,0.022-1.151,0.052l-1.237,0.087
			l0.48,1.143c0.442,1.057,0.73,3.521,0.407,4.502c-0.252,0.766-0.939,1.307-1.771,1.648c-0.003,0-0.006-0.002-0.009-0.002v0.006
			c-0.637,0.261-1.354,0.41-2.035,0.438c-2.777,0.111-5.021-0.107-6.675-0.652c-1.321-0.436-1.835-1.295-2.486-2.383
			c-0.266-0.443-0.541-0.9-0.873-1.347l-1.425,1.062c0.296,0.396,0.537,0.803,0.771,1.197c0.74,1.236,1.507,2.516,3.456,3.158
			c1.555,0.512,3.527,0.77,5.88,0.77c0.461,0,0.936-0.01,1.424-0.029c0.669-0.027,1.401-0.156,2.114-0.385
			c1.307,0.293,2.709,1.586,3.278,2.742l1.479,3.004l0.204-3.342c0.117-1.875-0.394-3.24-0.935-4.687
			c-0.177-0.474-0.36-0.96-0.525-1.487l-0.022,0.008c0.141-1.146,0-2.596-0.259-3.727c1.373-0.042,2.673-0.089,4.132-1.219
			c0.65-0.501,1.782-1.458,2.754-2.628l0.007,0.048c0.725-0.111,2.53,0.646,3.851,1.432l1.109,0.661l0.219-1.274
			c0.371-2.144-1.531-4.816-3.446-5.766c-0.128-1.266-0.643-2.397-1.527-3.198c0.241-0.134,0.497-0.279,0.778-0.438
			c0.651-0.372,1.121-0.909,1.423-1.559c0.087,0.008,0.167,0.009,0.253,0.017c0.537,0.049,1.082,0.097,1.623,0.097
			c0.526,0,1.05-0.046,1.561-0.185l1.086-0.295l-0.538-0.988C194.939,299.573,193.758,297.471,191.149,297.383z M180.856,322.013
			c0.145-0.121,0.292-0.238,0.421-0.375c0.11,0.296,0.219,0.588,0.314,0.875C181.356,322.33,181.11,322.164,180.856,322.013z
			 M192.109,310.869c-0.636-0.291-1.368-0.562-2.071-0.717c0.222-0.417,0.395-0.845,0.507-1.28
			C191.17,309.379,191.769,310.115,192.109,310.869z M191.771,299.908c-0.013-0.001-0.024-0.001-0.038-0.003
			c0-0.228-0.019-0.453-0.049-0.679c0.479,0.118,0.901,0.356,1.288,0.767C192.579,299.981,192.173,299.944,191.771,299.908z"/>
		<path fill="#FFFFFF" d="M157.397,301.123c-1.296-1.501-3.055-2.994-4.914-4.575c-4.755-4.039-10.146-8.618-9.684-14.92
			l-1.771-0.13c-0.529,7.203,5.478,12.305,10.304,16.405c1.808,1.535,3.514,2.984,4.721,4.381L157.397,301.123z"/>
	</g>
	<g>
		<path fill="#FFFFFF" d="M359.176,248.389c-0.769,0-1.413,0.104-2.027,0.249l0.25-0.473v-0.219c0-2.131-1.048-3.917-1.972-5.494
			c-0.227-0.385-0.447-0.766-0.652-1.148c-1.476-2.732-4.592-5.65-8.928-5.65c-3.937,0-6.55,1.915-8.278,3.182
			c-0.347,0.253-0.659,0.482-0.938,0.659c-1.632,1.038-40.306,28.621-41.95,29.794l0.306,0.427h-58.289
			c-3.898,0-9.477,4.971-9.477,8.441c0,3.173,2.623,9.034,6.365,9.034c2.919,0,6.338-3.684,7.376-4.887h64.729
			c0.712,0.088,1.607,0.179,2.298,0.179c0.254,0,0.479-0.013,0.663-0.039c0.104-0.015,0.222-0.091,0.337-0.14h1.905v-1.748
			c0.049-0.06,0.094-0.122,0.139-0.183c2.56,0.859,5.193,2.323,5.193,3.264c0,1.413-2.159,3.688-3.521,4.789l-0.42,0.342
			l-1.907-4.317c0,0-10.441,14.589-15.479,21.105c-5.033,6.516-15.696,16.883-15.696,16.883s16.141-5.628,26.657-10.96
			c10.514-5.331,20.438-15.697,20.438-15.697l-8.781-1.334l1.957-0.306l0.348-0.133c0.239-0.155,5.883-3.893,5.883-10.52
			c0-5.371-6.236-7.973-9.151-8.897c10.071-5.009,39.174-17.388,41.586-17.464c2.609,0,3.405,0.761,3.405,3.258
			c0,1.302-0.285,2.823-0.538,4.165c-0.406,2.16-0.674,3.586,0.007,4.401c0.17,0.204,0.493,0.447,1.08,0.447
			c2.157,0,8.931-3.985,8.931-9.605C371.021,253.569,362.421,248.389,359.176,248.389z M346.665,252.97l-4.974-5.743
			c1.333-0.865,3.526-2.096,4.895-2.096c1.132,0,1.299,0.277,1.625,2.693c0.049,0.36,0.101,0.743,0.162,1.147
			c0.299,1.885-0.065,2.982-0.229,3.358C347.692,252.523,347.203,252.736,346.665,252.97z M240.125,280.527l-0.264,0.325
			c-1.447,1.764-4.429,4.562-6.275,4.562c-2.276,0-4.589-4.656-4.589-7.257c0-2.491,4.821-6.664,7.699-6.664h61.756v-1.777h-1.309
			c7.144-5.095,39.021-27.818,40.441-28.721c0.306-0.195,0.648-0.446,1.03-0.725c1.636-1.198,3.877-2.838,7.229-2.838
			c4.471,0,6.766,3.609,7.361,4.716c0.216,0.399,0.447,0.799,0.685,1.203c0.851,1.451,1.656,2.824,1.722,4.385l-0.943,1.8
			c-0.212,0.098-0.416,0.189-0.636,0.293c-0.909,0.432-1.937,0.922-3.313,1.432c-0.129,0.049-0.323,0.125-0.531,0.21
			c0.097-0.724,0.121-1.641-0.06-2.774c-0.062-0.39-0.11-0.759-0.159-1.107c-0.292-2.177-0.569-4.233-3.385-4.233
			c-2.587,0-6.324,2.679-6.744,2.984l-0.777,0.57l4.808,5.55l-11.856-1.893l-30.944,20.781l0.989,1.475l30.365-20.391l11.34,1.81
			c-6.717,2.958-16.963,7.551-25.814,11.52c-8.417,3.772-16.365,7.336-16.982,7.562c-2.197,0.799-1.486,2.887-1.06,4.136
			c0.072,0.22,0.148,0.44,0.215,0.657c0.25,0.839,1.088,1.702,1.947,2.411h-61.945V280.527z M323.927,283.488
			c0,5.1-4.104,8.328-4.934,8.928l-3.749,0.587l-0.975-3.575c1.11-0.976,3.73-3.521,3.73-5.792c0-2.348-3.866-4.05-5.933-4.791
			c0.59-0.971,1.06-1.907,1.25-2.468c0.25-0.199,0.771-0.504,1.472-0.882l-0.094,0.418
			C314.791,275.935,323.927,278.043,323.927,283.488z M362.368,267.58c-0.014-0.594,0.212-1.788,0.383-2.701
			c0.268-1.418,0.568-3.026,0.568-4.493c0-3.482-1.597-5.035-5.183-5.035c-2.268,0-20.524,7.848-24.158,9.421
			c-21.999,9.518-22.211,10.463-22.322,10.97c-0.239,1.074-2.225,4.081-3.058,4.785h-2.818c-0.341-0.045-0.632-0.087-0.799-0.112
			c-1.194-0.729-2.933-2.057-3.158-2.809c-0.072-0.238-0.152-0.479-0.235-0.72c-0.576-1.688-0.399-1.753-0.015-1.893
			c0.646-0.235,6.921-3.045,17.103-7.61c10.059-4.51,21.946-9.838,28.334-12.624l1.401,0.224l-0.523-0.605
			c0.632-0.274,1.205-0.521,1.688-0.727l6.077-2.171l0.311-0.583c1.033-0.452,1.942-0.73,3.214-0.73
			c2.395,0,10.068,4.44,10.068,9.627C369.244,264.078,364.038,267.189,362.368,267.58z"/>
		<circle fill="#FFFFFF" cx="235.585" cy="278.6" r="1.333"/>
	</g>
	<path fill="#FFFFFF" d="M209.712,394.83c0.561-3.326,1.924-10.674,3.287-12.268c1.777-2.072,2.965-4.738,2.965-4.738l-2.666-0.297
		l2.666-10.367l-5.332,0.889l5.627-17.178l-4.442,1.185l5.037-16.587l-4.443,1.48l3.851-15.402l-3.851,2.074
		c0,0,0.59-8.59,1.479-10.071c0.889-1.481,2.965-6.517,2.965-6.517l-5.332,1.481l0.59-10.367l3.26-5.627l-4.147,0.889l1.481-7.109
		l4.148-8.59l-5.332-0.296v-9.479l4.442-10.366l-4.741,2.073l0.594-7.405l3.26-5.332l-4.443,0.592l0.591-7.404l3.555-6.813
		l-4.146,1.481v-7.405l5.033-9.183l-5.922-0.296l0.889-6.516l3.556-5.628l-4.443,0.297l0.591-5.332l2.665-6.517l-5.033,0.593
		l1.479-8.293l6.22-10.071l-4.737,0.889c0,0,1.481-4.74,2.37-6.22c0.89-1.48,2.962-5.923,2.962-5.923s-7.997,5.33-13.922,5.33
		c-5.033,0-12.143-5.035-12.143-5.035s4.443,5.628,5.035,7.998c0.592,2.369,0,6.516,0,6.516l-3.555-2.073
		c0,0,3.258,8.293,3.258,10.959s0.594,4.443,0.594,4.443l-4.443-1.185l3.776,7.334l0.073,6.883l-2.072-0.889l3.555,13.329h-2.963
		l5.035,16.586l-2.666-1.48l3.851,13.921l-3.257-1.48l2.369,12.44l-3.258-0.297l3.776,10.668l0.368,9.474l-3.257-1.777l3.555,15.106
		l-3.852-0.592l3.852,14.217l-3.555-0.888l4.146,17.771l-3.555-0.889l2.963,14.514l-2.963-1.186l2.073,15.698l-3.259-0.593
		l4.738,15.402l-4.738-1.187l4.442,13.925l-4.147-1.187l3.854,10.364l0.242,7.529H46.244v7.109h321.667v-7.109H209.712V394.83z"/>
	<g>
		<rect x="267.353" y="350.242" fill="#FFFFFF" width="13.661" height="7.998"/>
		<path fill="#FFFFFF" d="M365.874,369.013v-25.436h4.828l-12.753-14.772H312.43l-15.439,14.565l-12.572-14.565H238.9
			l-15.658,14.772h9.566v25.436h59.534v-25.436h4.43h0.398h9.168v25.436H365.874z M364.097,367.236h-35.767v-16.771h-9.552v16.771
			h-10.663V343.8h55.98L364.097,367.236L364.097,367.236z M290.566,367.236H254.8v-16.771h-9.552v16.771h-10.663V343.8h55.98
			L290.566,367.236L290.566,367.236z M227.717,341.8l11.889-11.217h44.002l9.685,11.217H227.717z M313.135,330.583h44.003
			l9.684,11.217h-65.574L313.135,330.583z"/>
		<rect x="340.884" y="350.242" fill="#FFFFFF" width="13.661" height="7.998"/>
		<path fill="#FFFFFF" d="M232.204,374.91c-0.729,1.857-2.37,3.717-3.816,5.359c-0.316,0.359-0.625,0.711-0.921,1.055
			c-1.188,1.387-2.517,2.732-3.801,4.031c-1.795,1.816-3.65,3.695-5.228,5.781l1.42,1.072c1.503-1.994,3.317-3.828,5.071-5.604
			c1.308-1.321,2.657-2.688,3.887-4.125c0.288-0.34,0.594-0.685,0.906-1.037c1.541-1.75,3.291-3.735,4.138-5.885L232.204,374.91z"/>
		<path fill="#FFFFFF" d="M237.938,378.537c-0.315,0.688-0.61,1.336-0.977,1.924l-0.579,0.922c-0.469,0.732-0.931,1.461-1.337,2.24
			l-0.314,0.613c-0.819,1.604-1.947,3.797-3.218,4.717l1.037,1.441c1.621-1.168,2.86-3.584,3.764-5.35l0.309-0.601
			c0.382-0.731,0.819-1.416,1.26-2.106c0.198-0.312,0.399-0.627,0.595-0.943c0.42-0.684,0.753-1.414,1.076-2.119
			c0.492-1.076,0.958-2.096,1.687-2.883l-1.309-1.205C239.011,376.185,238.466,377.38,237.938,378.537z"/>
		<path fill="#FFFFFF" d="M248.244,376.669l-0.261,0.442c-0.506,0.875-0.871,1.796-1.226,2.685c-0.148,0.379-0.299,0.76-0.462,1.139
			c-1.101,2.562-2.76,5.57-4.676,8.471l1.482,0.979c1.972-2.981,3.687-6.092,4.828-8.747c0.167-0.396,0.322-0.791,0.479-1.185
			c0.344-0.867,0.67-1.688,1.11-2.451l0.253-0.434c0.431-0.736,0.879-1.496,1.198-2.361l-1.671-0.61
			C249.039,375.312,248.653,375.972,248.244,376.669z"/>
		<path fill="#FFFFFF" d="M256.505,378.398c-0.522,1.174-1.064,2.387-1.513,3.617c-0.167,0.453-0.319,0.914-0.473,1.377
			c-0.229,0.688-0.458,1.381-0.735,2.055c-0.156,0.387-0.393,0.807-0.639,1.242c-0.611,1.098-1.31,2.342-1.229,3.594l1.774-0.107
			c-0.045-0.731,0.514-1.735,1.006-2.62c0.281-0.505,0.549-0.99,0.732-1.435c0.292-0.711,0.534-1.44,0.777-2.17
			c0.146-0.447,0.295-0.891,0.454-1.328c0.427-1.17,0.955-2.354,1.465-3.5c0.569-1.276,1.159-2.596,1.625-3.93l-1.677-0.586
			C257.633,375.871,257.057,377.156,256.505,378.398z"/>
		<path fill="#FFFFFF" d="M264.836,377.724c-0.322,0.756-0.655,1.535-0.893,2.367c-0.444,1.582-1.19,3.152-1.912,4.668
			c-0.799,1.682-1.625,3.42-2.093,5.248l1.721,0.441c0.428-1.662,1.181-3.246,1.979-4.927c0.75-1.584,1.53-3.224,2.018-4.948
			c0.204-0.724,0.499-1.416,0.815-2.15c0.438-1.027,0.892-2.088,1.093-3.262l-1.753-0.3
			C265.645,375.83,265.252,376.751,264.836,377.724z"/>
		<path fill="#FFFFFF" d="M270.812,382.222c-1.135,2.613-2.309,5.314-2.78,8.195l1.753,0.289c0.438-2.664,1.565-5.265,2.659-7.775
			c1.159-2.67,2.36-5.43,2.787-8.346l-1.76-0.258C273.079,377.013,271.979,379.542,270.812,382.222z"/>
		<path fill="#FFFFFF" d="M280.334,379.945c-0.368,1.861-1.101,3.719-1.806,5.516c-0.635,1.619-1.291,3.289-1.707,5.002l1.725,0.42
			c0.39-1.594,0.993-3.137,1.636-4.771c0.735-1.868,1.496-3.805,1.896-5.821c0.33-1.668,0.705-3.437,1.326-5.074l-1.663-0.629
			C281.069,376.351,280.678,378.203,280.334,379.945z"/>
		<path fill="#FFFFFF" d="M286.138,379.851c-0.084,0.963-0.167,1.924-0.229,2.871c-0.09,1.312-0.201,2.838-0.413,4.352
			c-0.128,0.914-0.243,1.824-0.354,2.73l-0.129,1.027c-0.035,0.276-0.042,0.606-0.05,0.951c-0.007,0.461-0.021,1.229-0.188,1.43
			l1.361,1.141c0.575-0.684,0.59-1.67,0.604-2.541c0.004-0.277,0.007-0.539,0.035-0.76l0.128-1.027
			c0.111-0.9,0.223-1.801,0.351-2.705c0.22-1.57,0.333-3.137,0.428-4.479c0.062-0.934,0.146-1.885,0.229-2.836
			c0.132-1.535,0.271-3.119,0.322-4.629l-1.776-0.062C286.404,376.785,286.272,378.318,286.138,379.851z"/>
		<path fill="#FFFFFF" d="M295.564,381.908c-0.031,0.916-0.107,1.873-0.182,2.85c-0.203,2.679-0.412,5.447,0.088,7.978l1.742-0.344
			c-0.455-2.291-0.254-4.938-0.056-7.498c0.072-1,0.148-1.979,0.184-2.92c0.104-2.791,0.223-5.957,0.223-9.07h-1.776
			C295.787,375.982,295.669,379.13,295.564,381.908z"/>
		<path fill="#FFFFFF" d="M303.18,379.109c-0.132-0.555-0.173-1.184-0.218-1.85c-0.066-0.936-0.134-1.902-0.452-2.775l-1.669,0.611
			c0.231,0.635,0.288,1.438,0.347,2.285c0.049,0.709,0.101,1.438,0.261,2.131l0.118,0.514c0.735,3.148,1.496,6.404,1.333,9.49
			l1.773,0.094c0.177-3.336-0.646-6.871-1.375-9.99L303.18,379.109z"/>
		<path fill="#FFFFFF" d="M310.64,379.667c-0.125-0.482-0.288-0.951-0.448-1.42c-0.174-0.5-0.347-1-0.465-1.517
			c-0.049-0.224-0.073-0.469-0.101-0.719c-0.061-0.566-0.122-1.148-0.396-1.65l-1.559,0.854c0.104,0.188,0.148,0.613,0.188,0.984
			c0.034,0.319,0.069,0.641,0.135,0.926c0.133,0.578,0.323,1.139,0.519,1.699c0.146,0.428,0.291,0.854,0.409,1.293
			c0.277,1.062,0.613,2.146,0.95,3.235c0.663,2.129,1.348,4.332,1.583,6.418l1.768-0.198c-0.257-2.257-0.965-4.539-1.652-6.748
			C311.24,381.761,310.91,380.707,310.64,379.667z"/>
		<path fill="#FFFFFF" d="M319.286,381.945c-0.69-0.998-1.155-2.104-1.601-3.172c-0.261-0.627-0.604-1.17-0.938-1.695
			c-0.193-0.309-0.385-0.609-0.545-0.916c-0.079-0.152-0.148-0.529-0.204-0.832c-0.129-0.709-0.261-1.44-0.825-1.826l-1.111,1.361
			c0.066,0.113,0.143,0.533,0.188,0.783c0.088,0.465,0.175,0.947,0.383,1.34c0.181,0.348,0.396,0.691,0.613,1.039
			c0.307,0.484,0.599,0.939,0.8,1.43c0.481,1.156,0.981,2.351,1.779,3.502c0.59,0.853,1.065,1.781,1.569,2.767
			c0.559,1.094,1.135,2.228,1.892,3.254l1.431-1.054c-0.67-0.909-1.19-1.93-1.739-3.01
			C320.47,383.923,319.945,382.896,319.286,381.945z"/>
		<path fill="#FFFFFF" d="M329.137,383.593c-0.403-0.766-0.852-1.473-1.31-2.186c-0.302-0.476-0.604-0.949-0.896-1.447
			c-1.094-1.881-2.242-3.658-3.325-5.142l-1.438,1.05c1.049,1.434,2.162,3.155,3.229,4.985c0.302,0.519,0.617,1.015,0.934,1.506
			c0.428,0.675,0.854,1.341,1.232,2.06c0.315,0.598,0.704,1.215,1.106,1.848c0.844,1.32,1.712,2.686,1.893,3.975l1.76-0.248
			c-0.232-1.668-1.208-3.199-2.151-4.682C329.797,384.722,329.432,384.148,329.137,383.593z"/>
		<path fill="#FFFFFF" d="M336.385,379.242c-0.33-0.533-0.607-1.066-0.878-1.59c-0.479-0.92-0.973-1.871-1.715-2.764l-1.367,1.135
			c0.621,0.746,1.048,1.572,1.506,2.447c0.292,0.562,0.59,1.135,0.943,1.709c0.444,0.715,0.886,1.443,1.334,2.178
			c1.616,2.666,3.286,5.422,5.198,7.863l1.399-1.094c-1.847-2.359-3.488-5.07-5.082-7.691
			C337.276,380.695,336.832,379.96,336.385,379.242z"/>
		<path fill="#FFFFFF" d="M350.66,384.302c-0.621-0.787-1.154-1.629-1.725-2.52c-0.587-0.921-1.194-1.871-1.902-2.75
			c-0.389-0.482-0.814-0.921-1.243-1.354c-0.314-0.322-0.635-0.644-0.934-0.992c-0.271-0.31-0.621-0.644-0.985-0.981
			c-0.511-0.478-1.087-1.015-1.312-1.441l-1.572,0.83c0.364,0.693,1.031,1.312,1.673,1.91c0.312,0.293,0.622,0.578,0.852,0.846
			c0.326,0.379,0.67,0.727,1.014,1.076c0.389,0.393,0.774,0.785,1.125,1.223c0.646,0.801,1.2,1.672,1.787,2.592
			c0.569,0.889,1.152,1.807,1.829,2.662l0.646,0.809c1.095,1.359,2.128,2.644,2.829,4.166l1.614-0.74
			c-0.791-1.725-1.944-3.155-3.058-4.538L350.66,384.302z"/>
		<path fill="#FFFFFF" d="M355.354,379.117l-0.56-0.619c-1.201-1.326-2.562-2.832-3.937-3.865l-1.066,1.425
			c1.239,0.93,2.482,2.303,3.685,3.635l0.564,0.623c3.431,3.763,7.237,7.154,11.315,10.082l1.038-1.444
			C362.413,386.097,358.699,382.787,355.354,379.117z"/>
		<path fill="#FFFFFF" d="M366.677,378.966c-0.743-0.6-1.485-1.197-2.197-1.814c-0.458-0.393-0.889-0.803-1.322-1.209
			c-0.757-0.715-1.538-1.451-2.427-2.096l-1.041,1.439c0.795,0.575,1.499,1.243,2.249,1.946c0.451,0.427,0.902,0.854,1.378,1.265
			c0.729,0.629,1.485,1.239,2.242,1.852c1.375,1.111,2.795,2.26,4.013,3.504l1.271-1.244
			C369.551,381.291,368.089,380.109,366.677,378.966z"/>
	</g>
	<g>
		<path fill="#FFFFFF" d="M64.287,413.789H53.329c0.656-0.893,1.656-2.037,3-3.438l3.202-3.156l0.012,2.129h6.663l3.295-2.129
			l0.013,2.129h4.545l-4.545,4.465v13.203l-5.215,4.027L64.287,413.789z"/>
		<path fill="#FFFFFF" d="M80.435,407.164l2.836,1.664c2.244,1.555,3.365,3.068,3.365,4.541v8.07l-4.757,4.027l-0.012-8.9
			c0-0.602-0.16-1.139-0.479-1.615c-0.434-0.549-1.282-1.15-2.549-1.803l-2.932-1.521L80.435,407.164z"/>
		<path fill="#FFFFFF" d="M101.64,413.789H90.682c0.881-1.307,2.474-3.09,4.777-5.35l1.423-1.244l0.013,2.129h6.663l3.295-2.129
			l0.012,2.129h4.552l-4.552,4.465v8.18l-5.214,3.498L101.64,413.789z"/>
		<path fill="#FFFFFF" d="M116.488,407.164l2.836,1.664c2.244,1.555,3.365,3.068,3.365,4.541v8.07l-4.756,4.027l-0.013-8.9
			c0-0.602-0.159-1.139-0.479-1.615c-0.434-0.549-1.282-1.15-2.548-1.803l-2.933-1.521L116.488,407.164z"/>
		<path fill="#FFFFFF" d="M138.934,413.505c0,1.812-2.537,3.899-7.611,6.262l-1.758,0.793c0.449-0.465,0.938-1.121,1.469-1.969
			c1.156-1.613,1.734-2.688,1.734-3.227c0-0.496-0.338-0.972-1.015-1.427c-0.87-0.526-2.293-1.076-4.272-1.646l4.527-4.463
			c2.525,1.515,4.312,2.633,5.356,3.357C138.411,411.945,138.934,412.716,138.934,413.505z"/>
		<path fill="#FFFFFF" d="M155.467,413.789c1.123-1.598,2.766-3.447,4.926-5.553l1.275-1.041l0.013,2.129h10.066
			c2.585,0,4.335,0.395,5.25,1.184c1.061,0.746,1.589,2.037,1.589,3.871v8.195l-4.516,2.893l-0.012-9.174
			c0-1.026-0.297-1.676-0.892-1.944c-0.578-0.373-1.662-0.56-3.251-0.56H155.467z M163.8,422.574l-4.973,2.893l-0.012-6.625
			l4.984-3.497V422.574z"/>
		<path fill="#FFFFFF" d="M194.314,420.568l-2.746,4.137h-9.682l3.054-4.463h4.399l-2.479-6.453h-4.467
			c1.538-2.043,3.935-4.24,7.188-6.594l0.012,2.129h11.994c1.332,0,2.625,0.328,3.877,0.98c1.284,0.789,1.928,1.686,1.928,2.691
			v9.424l-4.517,3.047l-0.012-9.609c0-0.686-0.273-1.209-0.82-1.572c-0.609-0.33-1.479-0.496-2.604-0.496h-7.45L194.314,420.568z"/>
		<path fill="#FFFFFF" d="M214.545,408.111c3.066,1.621,5.041,2.691,5.925,3.211c1.221,0.705,2.528,1.52,3.926,2.443
			c1.59,1.119,2.794,1.996,3.611,2.627c0.369-0.631,0.556-1.229,0.556-1.787c0-0.695-0.583-1.572-1.746-2.629l4.286-3.865
			c2.513,1.611,3.77,3.256,3.77,4.938c0,1.104-1.727,2.558-5.178,4.357l5.659,4.025l-3.602,4.035
			c-2.068-1.771-4.362-3.617-6.882-5.535c-2.438-1.701-4.724-3.08-6.856-4.137c-1.156,0.664-1.734,1.793-1.734,3.391
			c0.032,0.414,0.08,0.766,0.145,1.057h4.433l-2.603,4.463h-8.092l1.879-2.162v-0.311v-0.357c0-1.004,0.12-1.94,0.361-2.812
			c0.353-1.017,0.811-1.808,1.372-2.377c0.627-0.633,1.356-1.312,2.191-2.035l-5.562-2.549L214.545,408.111z"/>
		<path fill="#FFFFFF" d="M252.066,413.789c1.123-1.598,2.765-3.447,4.926-5.553l1.275-1.041l0.013,2.129h10.066
			c2.585,0,4.335,0.395,5.25,1.184c1.061,0.746,1.59,2.037,1.59,3.871v8.195l-4.517,2.893l-0.012-9.174
			c0-1.026-0.298-1.676-0.892-1.944c-0.578-0.373-1.661-0.56-3.251-0.56H252.066z M260.399,422.574l-4.975,2.893l-0.012-6.625
			l4.985-3.497L260.399,422.574L260.399,422.574z"/>
		<path fill="#FFFFFF" d="M289.492,413.789h-10.958c0.881-1.307,2.474-3.09,4.778-5.35l1.423-1.244l0.012,2.129h6.664l3.295-2.129
			l0.013,2.129h4.552l-4.552,4.465v8.18l-5.215,3.498L289.492,413.789z"/>
		<path fill="#FFFFFF" d="M304.341,407.164l2.837,1.664c2.243,1.555,3.364,3.068,3.364,4.541v8.07l-4.757,4.027l-0.012-8.9
			c0-0.602-0.161-1.139-0.479-1.615c-0.435-0.549-1.282-1.15-2.55-1.803l-2.932-1.521L304.341,407.164z"/>
		<path fill="#FFFFFF" d="M314.853,413.789c1.123-1.598,2.765-3.447,4.926-5.553l1.275-1.041l0.013,2.129h10.066
			c2.585,0,4.335,0.395,5.25,1.184c1.061,0.746,1.59,2.037,1.59,3.871v8.195l-4.517,2.893l-0.012-9.174
			c0-1.026-0.298-1.676-0.892-1.944c-0.578-0.373-1.661-0.56-3.251-0.56H314.853z M323.186,422.574l-4.974,2.893l-0.013-6.625
			l4.985-3.497L323.186,422.574L323.186,422.574z"/>
		<path fill="#FFFFFF" d="M353.519,413.505c0,1.812-2.537,3.899-7.61,6.262l-1.759,0.793c0.45-0.465,0.939-1.121,1.47-1.969
			c1.156-1.613,1.733-2.688,1.733-3.227c0-0.496-0.338-0.972-1.014-1.427c-0.869-0.526-2.293-1.076-4.272-1.646l4.528-4.463
			c2.523,1.515,4.311,2.633,5.354,3.357C352.996,411.945,353.519,412.716,353.519,413.505z"/>
		<path fill="#FFFFFF" d="M78.062,461.23l-0.013-12.875c0-1.131-0.337-2.008-1.012-2.629c-0.562-0.602-1.437-1.203-2.625-1.805
			c-1.237-0.674-2.393-1.16-3.468-1.461c-0.658,0.486-0.987,0.891-0.987,1.213c0,0.602,0.787,1.176,2.36,1.727l-2.36,3.498
			c-3.388-2-5.13-3.582-5.226-4.742c0-1.732,2.368-3.676,7.104-5.832c1.702,0.426,3.492,1.102,5.371,2.029s3.171,1.693,3.877,2.293
			c0.707,0.551,1.061,1.826,1.061,3.826v10.73L78.062,461.23z"/>
		<path fill="#FFFFFF" d="M85.684,444c2.219-2.943,4.287-5.143,6.2-6.594l0.013,2.131h6.525c1.35,0,2.625,0.379,3.83,1.135
			c1.156,0.83,1.734,1.732,1.734,2.707v8.443l-4.54,3.857l-0.012-9.736c0-0.568-0.273-1.031-0.819-1.383
			C98.07,444.187,97.275,444,96.232,444H85.684L85.684,444z"/>
		<path fill="#FFFFFF" d="M110.646,437.375l2.836,1.664c2.244,1.555,3.365,3.068,3.365,4.541v8.072l-4.757,4.027l-0.012-8.9
			c0-0.602-0.16-1.141-0.479-1.617c-0.434-0.549-1.282-1.148-2.549-1.801l-2.932-1.523L110.646,437.375z"/>
		<path fill="#FFFFFF" d="M127.963,437.685c1.527,2.852,2.7,5.408,3.521,7.668c0.708,2.074,1.213,3.551,1.519,4.432l1.642-0.684
			c1.222-0.508,1.834-1.209,1.834-2.1c0-1.338-0.844-2.945-2.529-4.82l5.238-4.496c1.582,2.604,2.373,5.174,2.373,7.715
			c0,1.564-0.41,2.836-1.229,3.811c-0.722,1.025-2.312,2.098-4.769,3.219c-1.35,0.633-5.338,1.855-11.97,3.67
			c-1.044,0.303-1.959,0.576-2.745,0.824l2.387-5.102c2.396-0.258,4.3-0.514,5.715-0.762c-0.145-0.352-0.491-1.129-1.037-2.332
			c-0.481-1.006-0.94-1.811-1.375-2.41c-0.788-1.172-2.203-2.551-4.246-4.137L127.963,437.685z"/>
		<path fill="#FFFFFF" d="M145.219,444c1.912-2.852,3.979-5.049,6.201-6.594l0.013,2.131h4.889c1.975,0,3.436,0.357,4.383,1.072
			c0.947,0.613,1.421,1.613,1.421,3.002v6.844h3.613l-2.915,4.463h-18.303l3.372-4.463h9.729v-4.215c0-0.809-0.226-1.369-0.676-1.68
			c-0.435-0.373-1.319-0.561-2.654-0.561H145.219L145.219,444z"/>
		<path fill="#FFFFFF" d="M191.893,444h-10.958c0.655-0.891,1.655-2.037,3-3.438l3.202-3.156l0.012,2.131h6.663l3.295-2.131
			l0.012,2.131h4.547L197.118,444v13.203l-5.213,4.027L191.893,444z"/>
		<path fill="#FFFFFF" d="M215.085,444h-10.958c0.881-1.307,2.475-3.09,4.778-5.35l1.423-1.244l0.012,2.131h6.664l3.295-2.131
			l0.013,2.131h4.552L220.311,444v8.18l-5.214,3.5L215.085,444z"/>
		<path fill="#FFFFFF" d="M238.218,443.716c0,1.812-2.536,3.9-7.609,6.264l-1.759,0.793c0.449-0.465,0.938-1.123,1.47-1.971
			c1.156-1.611,1.733-2.688,1.733-3.225c0-0.496-0.339-0.975-1.015-1.428c-0.869-0.527-2.293-1.074-4.271-1.645l4.527-4.463
			c2.524,1.512,4.312,2.631,5.355,3.355C237.695,442.158,238.218,442.929,238.218,443.716z"/>
		<path fill="#FFFFFF" d="M265.444,444h-10.958c0.655-0.891,1.655-2.037,3-3.438l3.201-3.156l0.012,2.131h6.664l3.295-2.131
			l0.012,2.131h4.546L270.67,444v13.203l-5.214,4.027L265.444,444z"/>
		<path fill="#FFFFFF" d="M289.877,443.716c0,1.812-2.537,3.9-7.609,6.264l-1.76,0.793c0.45-0.465,0.939-1.123,1.471-1.971
			c1.156-1.611,1.732-2.688,1.732-3.225c0-0.496-0.338-0.975-1.014-1.428c-0.869-0.527-2.293-1.074-4.272-1.645l4.528-4.463
			c2.524,1.512,4.312,2.631,5.355,3.355C289.354,442.158,289.877,442.929,289.877,443.716z"/>
		<path fill="#FFFFFF" d="M299.21,439.537h7.172c2.858,0,5.004,0.57,6.435,1.713c1.43,1.143,2.146,2.508,2.146,4.096v7.18
			l-4.54,3.154l-0.013-7.695c0-1.133-0.394-2.076-1.181-2.842c-0.786-0.762-1.982-1.143-3.588-1.143h-6.431v8.523l-4.492,3.156
			l-0.013-6.686c0-2.676-0.281-5.164-0.843-7.461c-0.337-0.959-0.763-1.609-1.276-1.951c2.152-0.691,4.356-1.416,6.611-2.176
			L299.21,439.537z"/>
		<path fill="#FFFFFF" d="M322.427,438.324c3.065,1.621,5.041,2.689,5.924,3.209c1.221,0.707,2.529,1.521,3.926,2.443
			c1.59,1.119,2.794,1.996,3.612,2.629c0.369-0.633,0.555-1.229,0.555-1.789c0-0.693-0.583-1.57-1.746-2.627l4.286-3.865
			c2.513,1.609,3.771,3.256,3.771,4.936c0,1.105-1.728,2.559-5.179,4.359l5.659,4.025l-3.601,4.035
			c-2.069-1.773-4.363-3.619-6.883-5.537c-2.438-1.699-4.724-3.078-6.856-4.137c-1.156,0.664-1.734,1.795-1.734,3.391
			c0.032,0.414,0.08,0.768,0.146,1.059h4.432l-2.602,4.463h-8.092l1.879-2.162v-0.311v-0.357c0-1.006,0.119-1.941,0.36-2.811
			c0.354-1.018,0.812-1.811,1.372-2.379c0.627-0.633,1.357-1.312,2.192-2.035l-5.563-2.549L322.427,438.324z"/>
		<path fill="#FFFFFF" d="M156.321,474.212h-10.958c0.656-0.893,1.656-2.037,3-3.438l3.202-3.156l0.012,2.129h6.663l3.295-2.129
			l0.012,2.129h4.545l-4.545,4.465v13.203l-5.214,4.027L156.321,474.212z"/>
		<path fill="#FFFFFF" d="M180.754,473.929c0,1.812-2.537,3.9-7.61,6.262l-1.758,0.793c0.448-0.465,0.938-1.121,1.469-1.969
			c1.156-1.613,1.733-2.688,1.733-3.227c0-0.496-0.338-0.971-1.014-1.426c-0.87-0.527-2.293-1.076-4.273-1.646l4.528-4.463
			c2.525,1.514,4.312,2.633,5.356,3.357C180.231,472.369,180.754,473.14,180.754,473.929z"/>
		<path fill="#FFFFFF" d="M184.499,474.212c1.913-2.852,3.98-5.049,6.202-6.594l0.012,2.129h4.89c1.975,0,3.436,0.359,4.383,1.074
			c0.947,0.609,1.421,1.609,1.421,3.002v6.842h3.612l-2.914,4.463H183.8l3.372-4.463h9.729v-4.215c0-0.811-0.227-1.367-0.675-1.68
			c-0.436-0.373-1.319-0.561-2.655-0.561h-9.072V474.212z"/>
		<path fill="#FFFFFF" d="M219.239,473.929c0,1.812-2.537,3.9-7.61,6.262l-1.759,0.793c0.45-0.465,0.939-1.121,1.47-1.969
			c1.156-1.613,1.733-2.688,1.733-3.227c0-0.496-0.338-0.971-1.014-1.426c-0.869-0.527-2.293-1.076-4.272-1.646l4.528-4.463
			c2.523,1.514,4.311,2.633,5.354,3.357C218.717,472.369,219.239,473.14,219.239,473.929z"/>
		<path fill="#FFFFFF" d="M226.247,467.587l2.837,1.664c2.243,1.555,3.365,3.068,3.365,4.541v8.07l-4.757,4.025l-0.012-8.898
			c0-0.604-0.161-1.141-0.48-1.615c-0.434-0.549-1.282-1.15-2.549-1.803l-2.932-1.521L226.247,467.587z"/>
		<path fill="#FFFFFF" d="M240.493,468.535c3.066,1.621,5.041,2.691,5.924,3.211c1.222,0.705,2.529,1.52,3.926,2.443
			c1.591,1.119,2.795,1.996,3.612,2.627c0.369-0.631,0.555-1.229,0.555-1.787c0-0.695-0.583-1.572-1.745-2.629l4.285-3.865
			c2.514,1.611,3.771,3.256,3.771,4.938c0,1.105-1.728,2.559-5.178,4.357l5.658,4.025l-3.601,4.035
			c-2.069-1.771-4.363-3.617-6.882-5.535c-2.438-1.701-4.725-3.08-6.857-4.137c-1.155,0.664-1.733,1.793-1.733,3.391
			c0.031,0.414,0.08,0.766,0.145,1.057h4.433l-2.603,4.463h-8.092l1.879-2.162v-0.311v-0.357c0-1.004,0.12-1.939,0.361-2.811
			c0.353-1.018,0.811-1.809,1.372-2.377c0.627-0.635,1.356-1.312,2.191-2.035l-5.562-2.549L240.493,468.535z"/>
	</g>
	<g>
		<path fill="#0384C0" d="M34.154,627.101h-9.525v-39.918l2.473-6.979h-5.744v-9.02h11.561c0.97,0,1.708,0.074,2.219,0.221
			c0.509,0.145,0.872,0.438,1.09,0.873s0.328,0.992,0.328,1.672v1.309v4.945l-2.399,6.18L34.154,627.101L34.154,627.101z"/>
		<path fill="#0384C0" d="M60.11,613.941h-9.888v-33.736h-5.744v-9.018h12.665c0.771,0,1.302,0.062,1.592,0.184
			s0.592,0.436,0.905,0.945c0.312,0.508,0.47,1.344,0.47,2.508V613.941z"/>
		<path fill="#0384C0" d="M104.752,597.552c0,4.855-1.831,8.945-5.489,12.271c-3.66,3.326-7.986,4.986-12.979,4.986
			c-5.042,0-9.392-1.648-13.051-4.951c-3.661-3.305-5.49-7.408-5.49-12.314v-9.908l1.672-7.432h-2.472v-9.02h34.899
			c0.921,0,1.637,0.256,2.146,0.768c0.509,0.51,0.764,1.201,0.764,2.076L104.752,597.552L104.752,597.552z M77.196,580.205v16.479
			c0,2.48,0.896,4.619,2.69,6.416c1.792,1.801,3.926,2.697,6.397,2.697c2.423,0,4.532-0.896,6.326-2.697
			c1.793-1.797,2.689-3.938,2.689-6.416v-16.479H77.196z"/>
		<path fill="#0384C0" d="M128.381,613.941h-9.888v-33.736h-5.744v-9.018h12.665c0.771,0,1.302,0.062,1.592,0.184
			s0.593,0.436,0.905,0.945c0.313,0.508,0.47,1.344,0.47,2.508V613.941z"/>
		<path fill="#0384C0" d="M136.669,613.941v-9.016h6.98v-24.721h-6.18v-9.02h12.797c0.532,0,0.992,0.037,1.381,0.109
			c0.387,0.074,0.727,0.316,1.018,0.73c0.291,0.41,0.437,0.979,0.437,1.705v1.164v39.045h-16.433V613.941z"/>
		<path fill="#0384C0" d="M176.876,613.941h-9.888v-33.736h-5.744v-9.018h12.665c0.771,0,1.302,0.062,1.592,0.184
			s0.592,0.436,0.905,0.945c0.313,0.508,0.47,1.344,0.47,2.508V613.941L176.876,613.941z"/>
		<path fill="#0384C0" d="M208.213,570.751c4.604,0,8.604,1.504,11.997,4.508c3.394,3.006,5.09,6.715,5.09,11.125v27.557h-22.176
			v-9.016h12.725V586.82c0-2.229-0.909-4.021-2.728-5.381c-1.816-1.355-3.963-2.035-6.435-2.035h-0.873
			c-2.278,0-4.253,0.703-5.926,2.109s-2.509,3.174-2.509,5.307v27.121h-9.524v-28.43c0-0.387,0.073-0.848,0.219-1.381
			c0.146-0.533,0.291-0.994,0.437-1.381c0.146-0.389,0.461-0.848,0.944-1.383c0.484-0.533,0.873-0.92,1.164-1.162h-6.035v-9.018
			h9.089c0.629,0,1.103,0.061,1.418,0.184c0.314,0.121,0.715,0.424,1.199,0.908c0.484,0.482,0.787,0.895,0.909,1.234
			c0.12,0.342,0.182,0.801,0.182,1.383c1.647-1.453,3.319-2.51,5.018-3.162C204.093,571.08,206.032,570.751,208.213,570.751z"/>
		<path fill="#0384C0" d="M234.097,587.621h20.213v9.016h-20.213V587.621z"/>
		<path fill="#0384C0" d="M263.979,571.187h29.229c0.389,0,0.824,0.086,1.31,0.256c0.484,0.17,0.921,0.498,1.31,0.98
			c0.387,0.486,0.665,0.934,0.836,1.346c0.169,0.412,0.254,0.789,0.254,1.127v5.309h-3.708v33.736h-9.452v-33.736h-19.775v-9.018
			H263.979z"/>
		<path fill="#0384C0" d="M319.601,613.941h-9.889v-33.736h-5.744v-9.018h12.665c0.771,0,1.302,0.062,1.592,0.184
			c0.29,0.123,0.592,0.436,0.905,0.945c0.312,0.508,0.471,1.344,0.471,2.508V613.941L319.601,613.941z"/>
		<path fill="#0384C0" d="M354.136,580.205h-26.32v-9.018h31.628c0.921,0,1.647,0.146,2.182,0.438
			c0.533,0.291,0.909,0.594,1.128,0.908c0.218,0.316,0.483,0.717,0.8,1.199c0.313,0.486,0.473,1.141,0.473,1.965v38.244h-9.889
			L354.136,580.205L354.136,580.205z M327.815,613.941v-24.285h9.452v24.285H327.815z"/>
		<path fill="#0384C0" d="M386.054,591.328h-9.452v-11.123h-6.543v-9.018h13.087c0.388,0.1,0.787,0.219,1.2,0.365
			c0.411,0.145,0.738,0.375,0.98,0.689s0.425,0.752,0.545,1.309c0.12,0.559,0.183,0.982,0.183,1.273V591.328L386.054,591.328z"/>
	</g>
</g>
</svg>
