<svg height="205.51787" viewBox="0 0 190.10029 205.51787" width="190.1003" xmlns="http://www.w3.org/2000/svg" xmlns:xlink="http://www.w3.org/1999/xlink"><clipPath id="a"><path d="m50.492 4368.599v-52.696c0-14.99 12.139-27.141 27.109-27.141 14.97 0 27.112 12.151 27.112 27.141v52.696z"/></clipPath><clipPath id="b"><path d="m50.492 4368.599v-52.696c0-14.99 12.139-27.141 27.109-27.141 14.97 0 27.112 12.151 27.112 27.141v52.696z"/></clipPath><clipPath id="c"><path d="m50.492 4368.599v-52.696c0-14.99 12.139-27.141 27.109-27.141 14.97 0 27.112 12.151 27.112 27.141v52.696z"/></clipPath><clipPath id="d"><path d="m50.492 4341.863v-25.96c0-14.99 12.139-27.141 27.109-27.141 4.817 0 9.341 1.257 13.262 3.463-1.397.619-5.71 2.736-6.395 5.556-.82 3.368.557 8.032.557 8.032s-4.007-3.404-7.116-4.391c-5.609-1.784-9.982-.99-14.941 2.187-3.891 2.495-6.477 4.753-7.375 9.29-1.181 6.012-2.097 28.964-2.097 28.964z"/></clipPath><clipPath id="e"><path d="m50.492 4368.599v-52.696c0-14.99 12.139-27.141 27.109-27.141 14.97 0 27.112 12.151 27.112 27.141v52.696z"/></clipPath><g transform="matrix(1.3333333 0 0 -1.3333333 -47.320397 5838.9509)"><path d="m53.755617 4365.5864h15.484081c5.26418 0 8.811486 2.2744 13.92652 4.9252 4.637089 2.4134 11.036814 7.642 11.036814 7.642s7.638658-2.9151 12.728268-2.8863c4.96419.029 12.39608 2.8863 12.39608 2.8863s6.05397-5.254 10.52836-7.642c5.25062-2.8016 9.49959-4.9252 14.43667-4.9252h16.20777v-6.7913h8.07254s-1.34232-10.0267-.39151-16.3247c1.20334-7.9996 7.5251-13.8231 7.5251-13.8231h-137.877127s6.259053 5.8285 7.46917 13.8231c.959281 6.2913-.344053 16.3247-.344053 16.3247h8.801317z" fill="#ffe600"/><path d="m53.755617 4365.5864v-.9186h15.484081c2.765983 0 5.111645.605 7.37087 1.5372 2.259224.9321 4.440487 2.1745 6.977666 3.4897 4.786235 2.4982 11.170706 7.7284 11.196129 7.7471l-.581331.7118-.330494-.861c.01695 0 1.928731-.7321 4.494722-1.4677 2.56938-.7305 5.77263-1.4745 8.48608-1.4779h.083c2.64735.019 5.78959.761 8.31151 1.4881 2.51684.7305 4.39303 1.4525 4.41168 1.4575l-.33219.861-.60167-.6949c.007-.017 1.53214-1.3304 3.62357-2.9575 2.09483-1.6287 4.74556-3.5591 7.07427-4.8015 5.25062-2.7981 9.64874-5.0285 14.86886-5.0319h15.28578v-6.7947h8.99453v.922l-.91183.1204c-.005-.02-.73895-5.5066-.74064-10.9843 0-1.9406.0932-3.8812.35083-5.5964.63218-4.2066 2.58972-7.7759 4.371-10.3063 1.78467-2.5304 3.40663-4.027 3.43883-4.0592l.6254.678v.9203h-137.877087v-.9203l.627091-.6729c.0339.03 1.640608 1.5288 3.408328 4.0592 1.766026 2.5321 3.703231 6.1014 4.342187 10.3012.26948 1.7627.362696 3.7643.362696 5.7625 0 5.4167-.69997 10.7927-.69997 10.8148l-.915215-.117v-.922h9.721617v7.7133h-.9203v-.9186.9186h-.920299v-5.8727h-8.92843l.135587-1.0372s.04068-.3254.106775-.9034c.191517-1.7389.581331-5.7285.579636-9.6758.0017-1.9372-.09322-3.8643-.342358-5.4879-.571162-3.7965-2.366-7.1404-4.03203-9.5199-.830473-1.1915-1.627049-2.1406-2.21177-2.7898-.294902-.3254-.53218-.5745-.694885-.7372l-.186433-.1881-.05932-.054-1.711791-1.5914h142.575231l-1.73552 1.5948-.0576.056c-.64574.5983-6.13025 6.1066-7.17935 13.2283-.24067 1.5796-.33219 3.4439-.33219 5.3235 0 2.6575.18134 5.3523.36269 7.3743.0915 1.0118.18135 1.8541.24914 2.4439.0695.5932.11186.9203.11186.922l.14068 1.0423h-8.20474v6.7947h-17.12807c-4.65235 0-8.75217 2.0117-14.00279 4.815-2.14906 1.1457-4.76251 3.0355-6.80988 4.6303-1.02707.7983-1.91517 1.5254-2.54735 2.0508-.63048.5237-.99826.844-.99995.8457l-.41863.3627-.51523-.2s-.10678-.042-.31524-.1169c-.72879-.2678-2.63887-.9441-4.88793-1.5542-2.24567-.6101-4.84725-1.144-6.87089-1.1525h.007-.078c-2.37787 0-5.49807.6966-7.981018 1.4067-1.244014.3576-2.333798.7135-3.110036.9796-.389814.1339-.698275.2441-.91013.3221-.211856.076-.323715.1169-.323715.1169l-.496589.1898-.411847-.3372c-.0017 0-.391508-.3204-1.059276-.8424-1.993135-1.5677-6.459045-4.9472-9.819917-6.6946-2.574466-1.3339-4.726916-2.5524-6.83191-3.4219-2.111774-.8678-4.171008-1.3965-6.669205-1.3982h-16.40438v-.922h.920299" fill="#010202"/><path d="m0 0h54.219v-41.715c0-14.992-12.141-27.143-27.11-27.143-14.97 0-27.109 12.151-27.109 27.143z" fill="#ffe600" transform="matrix(1.6948424 0 0 1.6948424 60.916496 4342.6148)"/><path d="m0 0v-.378h53.841v-41.337c0-7.393-2.992-14.081-7.83-18.926-4.84-4.844-11.521-7.838-18.902-7.838-7.382 0-14.062 2.994-18.901 7.838-4.838 4.845-7.83 11.533-7.83 18.926l-0 41.715h-.378v-.378.378h-.378v-41.715c0-15.201 12.308-27.52 27.487-27.521 15.179.001 27.488 12.32 27.488 27.521v42.093h-54.975v-.378z" fill="#010202" transform="matrix(1.6948424 0 0 1.6948424 60.916496 4342.6148)"/><path d="m60.916496 4361.225h91.892664v-89.3114c0-25.4074-20.57708-46.0014-45.94718-46.0014-25.371792 0-45.945484 20.594-45.945484 46.0014z" fill="#ffe600"/><g clip-path="url(#a)" transform="matrix(1.6948424 0 0 1.6948424 -24.660167 -3042.863)"><path d="m0 0-.946-.237-.465 1.857.953.235c-.198 1.002-.321 2.029-.367 3.077l-.999.016.037 1.911.953-.014c.037 1.072.139 2.095.31 3.091l-.887.22.465 1.855.852-.212c.282.989.649 1.953 1.121 2.911l-.795.423.896 1.687.818-.434c.532.857 1.144 1.717 1.852 2.586 5.941-4.971 12.832-4.569 19.325-4.569 5.565 0 7.694 2.797 11.107 6.467 4.589-4.393 6.396-9.094 6.396-14.984 0-11.452-9.282-20.738-20.739-20.738-.518 0-1.034.018-1.55.059l-.114-.973-1.898.233.119.965c-1.032.176-2.037.425-3.011.739l-.347-.915-1.788.687.35.908c-.955.413-1.868.898-2.741 1.441l-.562-.806-1.569 1.102.558.794c-.824.628-1.598 1.311-2.316 2.055l-.72-.65-1.285 1.422.738.655c-.651.805-1.238 1.655-1.762 2.549l-.861-.455-.896 1.687.869.461c-.436.928-.807 1.897-1.101 2.894" fill="#ed1c24" transform="translate(71.2707 4328.188)"/><path d="m0 0-.072.287-.657-.163-.322 1.279.664.164.275.069-.056.277c-.194.987-.316 1.998-.361 3.031l-.012.278-.981.019.026 1.317.658-.008.291-.005.009.29c.037 1.059.138 2.07.306 3.049l.047.273-.866.214.322 1.281.561-.141.28-.071.079.276c.277.975.638 1.922 1.101 2.863l.127.256-.787.42.618 1.164.558-.295.244-.131.146.236c.524.846 1.13 1.695 1.83 2.556l-.23.187-.19-.227c5.199-4.352 11.116-4.647 16.781-4.647.918 0 1.831.008 2.734.008 2.832-.002 4.835.722 6.53 1.912 1.698 1.19 3.091 2.821 4.793 4.649l-.216.203-.206-.214c4.537-4.352 6.299-8.94 6.305-14.77 0-5.644-2.286-10.754-5.986-14.453-3.699-3.701-8.808-5.989-14.456-5.989-.511 0-1.02.019-1.527.058l-.284.023-.112-.96-1.308.16.083.671.035.283-.279.046c-1.018.173-2.01.418-2.971.729l-.269.086-.34-.9-1.233.472.242.634.102.265-.261.113c-.941.406-1.84.883-2.702 1.42l-.238.147-.554-.791-1.082.761.388.549.163.235-.226.172c-.814.62-1.575 1.295-2.283 2.027l-.2.205-.712-.643-.885.98.726.645-.179.22c-.641.792-1.22 1.63-1.737 2.512l-.143.243-.851-.448-.617 1.163.607.323.249.133-.12.254c-.429.915-.795 1.87-1.085 2.853l-.08.271-.276-.068.072-.287-.284-.085c.298-1.012.675-1.994 1.116-2.935l.269.126-.14.262-1.13-.601 1.173-2.207 1.123.59-.138.263-.257-.151c.532-.907 1.127-1.77 1.788-2.584l.231.186-.197.221-.961-.854 1.682-1.864.942.85-.199.22-.213-.206c.729-.755 1.514-1.448 2.349-2.085l.18.236-.242.17-.729-1.036 2.054-1.443.733 1.048-.243.171-.156-.253c.884-.549 1.809-1.041 2.779-1.459l.118.271-.277.107-.455-1.187 2.342-.898.452 1.192-.277.106-.092-.283c.988-.318 2.008-.571 3.054-.748l.049.292-.293.037-.12-.966-.038-.295 2.49-.305.149 1.269-.295.035-.024-.296c.525-.04 1.049-.059 1.574-.059 11.621 0 21.035 9.419 21.036 21.034.005 5.951-1.846 10.763-6.489 15.197l-.217.209-.204-.221c-1.712-1.84-3.089-3.441-4.699-4.567-1.614-1.126-3.457-1.802-6.191-1.805-.906 0-1.818-.008-2.734-.008-5.657.001-11.375.302-16.4 4.508l-.232.192-.189-.232c-.715-.879-1.336-1.748-1.873-2.617l.251-.156.139.261-1.08.576-1.173-2.212 1.055-.562.14.261-.267.13c-.48-.973-.853-1.954-1.14-2.96l.286-.081.072.286-.851.214-.287.073-.612-2.432 1.176-.293.072.289-.292.049c-.174-1.008-.276-2.047-.314-3.13l.296-.01.005.297-1.249.018-.048-2.503 1.296-.022.005.297-.296-.015c.046-1.061.171-2.101.373-3.118l.29.056-.071.289-.953-.236-.29-.072.612-2.432 1.232.308-.072.288-.284-.085z" fill="#010202" transform="translate(71.2707 4328.188)"/><path d="m50.493 4341.863h54.219v16.122h-54.219z" fill="#84d5f7"/><path d="m0 0c2.317.843 5.346-1.623 6.759-5.506 1.412-3.883.679-7.717-1.641-8.559-2.32-.846-5.344 1.617-6.759 5.501-1.414 3.883-.68 7.72 1.641 8.564" fill="#ed1c24" transform="translate(85.895 4306.3496)"/><path d="m0 0 .064-.177c.286.103.584.155.888.155 2.001.014 4.426-2.222 5.63-5.551.479-1.317.707-2.627.707-3.81 0-1.123-.207-2.13-.591-2.911-.384-.783-.938-1.338-1.644-1.595-.288-.103-.585-.154-.892-.154-2.001-.014-4.421 2.219-5.626 5.545-.48 1.317-.708 2.63-.708 3.812 0 1.124.207 2.13.59 2.913.386.783.94 1.338 1.646 1.596l-.064.177-.064.177c-.816-.296-1.442-.937-1.857-1.784-.415-.849-.629-1.909-.629-3.079 0-1.23.237-2.583.732-3.943 1.249-3.409 3.704-5.778 5.98-5.792.349 0 .692.058 1.021.178.814.296 1.44.935 1.854 1.784.416.847.63 1.908.63 3.076 0 1.23-.236 2.582-.731 3.941-1.248 3.413-3.708 5.782-5.984 5.796-.346 0-.688-.057-1.016-.177z" fill="#010202" transform="translate(85.895 4306.3496)"/><path d="m0 0 1.096-1.566-1.566-1.102-1.097 1.567z" fill="#ed1c24" fill-rule="evenodd" transform="translate(103.1768 4318.3418)"/></g><path d="m143.23872 4271.9389 1.15758-3.0304-3.01851-1.1644-1.16436 3.027z" fill="#ed1c24" fill-rule="evenodd"/><g clip-path="url(#b)" transform="matrix(1.6948424 0 0 1.6948424 -24.660167 -3042.863)"><path d="m0 0 .229-1.898-1.894-.233-.231 1.897z" fill="#ed1c24" fill-rule="evenodd" transform="translate(94.4931 4314.5527)"/><path d="m0 0c8.679 0 15.713-7.034 15.713-15.712 0-8.676-7.034-15.711-15.713-15.711-8.677 0-15.711 7.035-15.711 15.711 0 8.678 7.034 15.712 15.711 15.712" fill="#ffe600" transform="translate(91.1575 4349.7866)"/><path d="m0 0s2.943.112 4.249 1.239c1.757 1.518 1.461 5.012 1.555 5.742.09.728 0 34.152 0 34.152h14.846s7.164-24.43-.819-35.975c-2.873-4.152-5.158-6.134-9.327-8.982-2.504-1.708-6.822-3.717-6.822-3.717s-2.8 2.202-3.433 4.229c-.391 1.238-.249 3.312-.249 3.312" fill="#0053a5" fill-rule="evenodd" transform="translate(84.2189 4301.001)"/><g fill="#fff"><path d="m0 0c0-.007-.098-.979-.099-1.749l.004-.219c.049-1.496.698-2.563 1.274-3.539.582-.986 1.093-1.878 1.094-3.139v-.05l.395.001-.395.004c-.012-1.256-.468-2.134-1.013-3.093-.538-.953-1.168-1.976-1.353-3.418-.04-.327-.06-.643-.06-.949.001-1.922.749-3.443 1.452-4.901.708-1.465 1.373-2.865 1.373-4.608 0-.215-.01-.436-.032-.664-.138-1.445-.587-2.485-1.093-3.575-.506-1.088-1.072-2.222-1.359-3.771-.073-.395-.102-.781-.102-1.155.007-1.648.555-3.073.546-4.309-.004-.739-.167-1.398-.729-2.098-.562-.705-1.564-1.162-2.676-1.42-1.11-.261-2.313-.33-3.238-.329-.471 0-.871.017-1.151.034-.281.018-.437.034-.437.034l-.084-.785c.011-.001.691-.073 1.672-.073.964 0 2.217.068 3.418.349 1.198.284 2.363.774 3.11 1.693.682.838.908 1.732.905 2.595-.009 1.449-.553 2.844-.546 4.309 0 .332.026.667.09 1.01.265 1.434.783 2.48 1.297 3.582.512 1.099 1.015 2.258 1.163 3.835.025.252.036.498.036.738-.001 1.954-.748 3.492-1.452 4.952-.709 1.465-1.374 2.85-1.373 4.557 0 .274.017.556.054.85.16 1.256.705 2.153 1.257 3.126.548.966 1.104 2.018 1.115 3.477v.052c0 1.492-.625 2.562-1.204 3.541-.584.988-1.122 1.892-1.166 3.163l-.002.193c0 .353.024.774.048 1.103s.047.566.047.566z" transform="translate(92.0043 4342.7236)"/><path d="m0 0c-.001-.005-.13-.556-.185-.942-.035-.237-.051-.466-.051-.689.001-1.482.715-2.594 1.359-3.644.652-1.058 1.244-2.052 1.243-3.349l-.004-.191c-.06-1.262-.524-2.149-1.057-3.11-.53-.955-1.132-1.978-1.312-3.414-.041-.328-.061-.646-.061-.954.001-1.921.749-3.442 1.452-4.9.708-1.463 1.373-2.865 1.372-4.606 0-.216-.01-.437-.032-.665-.139-1.451-.556-2.5-1.044-3.591-.486-1.088-1.047-2.211-1.407-3.736-.186-.792-.234-1.533-.234-2.226.001-.736.052-1.421.052-2.071-.002-1.094-.134-2.064-.852-3.13-.937-1.402-3.005-2.224-5.039-2.641-2.027-.424-3.99-.467-4.677-.466-.169 0-.258.003-.258.003l-.021-.79c.003 0 .101-.003.279-.003.719 0 2.724.042 4.839.482 2.11.446 4.36 1.265 5.531 2.972.833 1.221.991 2.419.988 3.573 0 .69-.052 1.373-.052 2.071 0 .658.045 1.329.214 2.045.336 1.429.861 2.485 1.359 3.594.496 1.107.96 2.271 1.108 3.839.025.253.036.499.036.74-.001 1.952-.748 3.491-1.451 4.949-.709 1.465-1.374 2.85-1.373 4.557 0 .275.017.56.055.855.158 1.262.679 2.159 1.219 3.129.535.964 1.089 2.008 1.155 3.46l.004.225c-.001 1.553-.711 2.71-1.359 3.765-.657 1.061-1.244 2.02-1.242 3.228 0 .183.013.375.043.574.022.164.067.388.104.566.038.179.068.313.068.314z" transform="translate(95.1998 4342.6802)"/><path d="m0 0c-.002-.007-.203-.776-.28-1.319-.034-.231-.05-.456-.05-.674.002-1.484.715-2.599 1.357-3.648.652-1.058 1.24-2.049 1.239-3.344l-.004-.203c-.057-1.266-.516-2.151-1.048-3.112-.528-.955-1.132-1.977-1.315-3.412-.041-.328-.06-.645-.06-.953.001-1.92.748-3.441 1.45-4.898.708-1.464 1.372-2.865 1.372-4.604 0-.218-.01-.441-.031-.672-.142-1.461-.512-2.529-.969-3.621-.458-1.089-1.01-2.199-1.474-3.679-.466-1.495-.566-2.778-.77-3.95-.207-1.177-.505-2.235-1.357-3.4-.685-.936-1.759-1.68-3.001-2.254-1.861-.861-4.082-1.334-5.83-1.583-.876-.126-1.633-.196-2.168-.236-.27-.02-.482-.031-.628-.038-.146-.006-.221-.008-.221-.008l.019-.79c.016.001 2.329.057 5.035.628 1.355.287 2.807.701 4.124 1.31 1.316.61 2.505 1.414 3.307 2.504.944 1.282 1.286 2.508 1.497 3.73.213 1.226.309 2.451.747 3.851.443 1.416.976 2.487 1.448 3.608s.878 2.295 1.027 3.854c.024.254.036.502.036.746-.001 1.95-.747 3.488-1.452 4.947-.708 1.465-1.372 2.85-1.371 4.555 0 .274.017.559.054.853.162 1.26.683 2.158 1.221 3.128.537.965 1.086 2.009 1.147 3.461l.005.238c-.001 1.55-.71 2.706-1.356 3.758-.656 1.062-1.241 2.021-1.239 3.234 0 .18.012.368.041.562.032.231.098.544.155.794.059.251.108.438.108.438z" transform="translate(98.7549 4342.8726)"/><path d="m89.608 4341.909h15.104v7.24h-15.104z"/></g></g><g fill="#010202"><path d="m127.21178 4318.9757v-2.9897h.10508v2.7422h5.51502v-2.7422h.24745v2.9897z"/><path d="m132.83171 4318.9757v-.1238h.12373-.12373v-2.8659h.24575l.002 2.7422h5.51332v-2.7422h.24745v2.9897z"/><path d="m138.59231 4318.9757v-.1238h.12373-.12373v-2.8659h.24745v2.7422h5.51671v-2.7422h.24745v2.9897z"/><path d="m144.35664 4318.9757v-.1238h.12372-.12372v-2.8659h.24745v2.7422h5.51163v-2.7422h.24575v2.9897z"/><path d="m150.11555 4318.9757v-.1238h.12372-.12372v-2.8659h.24575v2.7422h2.44905v.2475z"/><path d="m127.21178 4322.0765v-.2474h2.64565v-2.8541h-2.64565v-.2475h2.8931v3.349z"/><path d="m129.9815 4321.954h-.12373v-3.2253h6.01161v3.349h-6.01161v-.1237h.12373v-.1237h5.64043v-2.8541h-5.51671v2.9778h-.12372v-.1237z"/><path d="m135.74565 4321.954h-.12372v-3.2253h6.0133v3.349h-6.0133v-.1237h.12372v-.1237h5.64213v-2.8541h-5.5184v2.9778h-.12373v-.1237z"/><path d="m141.51151 4321.954h-.12373v-3.2253h6.00483v3.349h-6.00483v-.1237h.12373v-.1237h5.63365v-2.8541h-5.50993v2.9778h-.12372v-.1237z"/><path d="m147.14449 4322.0765v-.122h.12542-.12542v-3.227h5.66586v.2475h-5.41842v2.8541h5.41842v.2474z"/><path d="m127.21128 4321.8274h5.86754v3.3524h-5.86754zm5.62009.2508h-5.51501v2.8592h5.51501z"/><path d="m132.95544 4325.0598h-.12373v-3.2304h6.00822v3.3524h-6.00822v-.122h.12373v-.1237h5.63704v-2.8592h-5.51332v2.9829h-.12372v-.1237z"/><path d="m138.71688 4325.0598h-.12372v-3.2304h6.01161v3.3524h-6.01161v-.122h.12372v-.1237h5.64044v-2.8592h-5.51671v2.9829h-.12373v-.1237z"/><path d="m144.48104 4325.0598h-.12372v-3.2304h6.00483v3.3524h-6.00483v-.122h.12372v-.1237h5.63366v-2.8575h-5.50993v2.9812h-.12373v-.1237z"/><path d="m150.11555 4325.1806v-.1203h.12372-.12372v-3.2321h2.6948v.2475h-2.44905v2.8609h2.44905v.244z"/><path d="m127.21043 4328.2575v-.2221h2.64734v-2.8541h-2.64734v-.2457h2.89479v3.3219z"/><path d="m129.9815 4328.1615h-.12373v-3.2253h6.01161v3.3474h-6.01161v-.1221h.12373v-.1254h5.64043v-2.8541h-5.51671v2.9795h-.12372v-.1254z"/><path d="m135.74565 4328.1615h-.12372v-3.2253h6.0133v3.3474h-6.0133v-.1221h.12372v-.1254h5.64213v-2.8541h-5.5184v2.9795h-.12373v-.1254z"/><path d="m141.51151 4328.1615h-.12373v-3.2253h6.00483v3.3474h-6.00483v-.1221h.12373v-.1254h5.63365v-2.8541h-5.50993v2.9795h-.12372v-.1254z"/><path d="m147.145 4328.2575v-.097h.12372-.12372v-3.2253h5.66416v.2457h-5.41672v2.8541h5.41672v.2221z"/></g><g clip-path="url(#c)" transform="matrix(1.6948424 0 0 1.6948424 -24.660167 -3042.863)"><path d="m0 0h-.068v-7.307h15.451v7.375h-15.451v-.068h.068v-.067h15.248v-7.104h-15.181v7.171h-.067v-.067z" fill="#010202" transform="translate(89.6075 4349.1479)"/><path d="m0 0h5.81v-2.097h3.69v2.097h5.807v-4.693h-15.307z" fill="#fff" transform="translate(89.6075 4353.7959)"/><path d="m0 0v-.199h5.614v-2.096h4.084v2.096h5.411v-4.297h-14.912v4.496h-.197v-.199.199h-.198v-4.89h15.702v5.087h-6.201v-2.096h-3.295v2.096h-6.206v-.197z" fill="#010202" transform="translate(89.6075 4353.7959)"/><path d="m0 0s.916-22.952 2.098-28.964c.897-4.537 3.483-6.796 7.376-9.291 4.958-3.177 9.33-3.971 14.94-2.185 3.108.987 7.116 4.389 7.116 4.389s-1.379-4.662-.557-8.031c.819-3.373 6.83-5.741 6.83-5.741s-3.425-2.099-5.833-2.913c-5.081-1.72-8.508-1.599-13.75-.454-8.901 1.938-14.055 6.175-18.671 14.025-4.414 7.498-3.645 20.128-3.462 22.04.184 1.913.184 17.125.184 17.125z" fill="#84d5f7" fill-rule="evenodd" transform="translate(53.4955 4341.8633)"/></g><g clip-path="url(#d)" fill="#010202" transform="matrix(1.6948424 0 0 1.6948424 -24.660167 -3042.863)"><path d="m0 0c0 1.99 1.485 3.601 3.321 3.601 1.835 0 3.325-1.611 3.325-3.601 0-.12-.007-.243-.017-.36-.17 1.813-1.585 3.232-3.308 3.232-1.719 0-3.137-1.419-3.304-3.232-.015.117-.017.24-.017.36" transform="translate(48.6747 4335.2568)"/><path d="m0 0c0 1.989 1.485 3.597 3.321 3.597 1.835 0 3.325-1.608 3.325-3.597 0-.125-.007-.245-.017-.365-.17 1.813-1.585 3.234-3.308 3.234-1.719 0-3.137-1.421-3.304-3.234-.015.12-.017.24-.017.365" transform="translate(48.6747 4330.7974)"/><path d="m0 0c0 1.988 1.485 3.601 3.321 3.601 1.835 0 3.325-1.613 3.325-3.601 0-.12-.007-.243-.017-.362-.17 1.816-1.585 3.233-3.308 3.233-1.719 0-3.137-1.417-3.304-3.233-.015.119-.017.242-.017.362" transform="translate(48.6747 4325.9668)"/><path d="m0 0c-.173 1.98 1.168 3.714 2.997 3.872 1.831.159 3.452-1.314 3.626-3.292.01-.123.015-.246.015-.368-.326 1.795-1.862 3.083-3.576 2.934-1.717-.15-3.003-1.683-3.012-3.509-.023.119-.037.241-.05.363" transform="translate(48.825 4320.9502)"/><path d="m0 0c-.34 1.956.844 3.8 2.654 4.118 1.805.319 3.555-1.01 3.896-2.967.024-.122.04-.24.049-.36-.484 1.761-2.124 2.911-3.817 2.61-1.698-.299-2.846-1.94-2.699-3.756-.033.111-.056.232-.083.355" transform="translate(49.7165 4314.2939)"/><path d="m0 0c-.75 2.054.184 4.279 2.08 4.972 1.899.689 4.046-.414 4.791-2.47.045-.127.085-.252.122-.382-.861 1.813-2.857 2.747-4.636 2.098-1.783-.649-2.712-2.647-2.202-4.589-.061.122-.112.245-.155.371" transform="translate(50.6044 4307.8784)"/><path d="m0 0c-1.517 2.166-1.128 5.059.879 6.461 2 1.402 4.852.782 6.368-1.386.096-.132.181-.268.259-.411-1.568 1.854-4.197 2.318-6.072 1.003-1.878-1.318-2.341-3.944-1.139-6.05-.102.119-.205.247-.295.383" transform="translate(54.6624 4300.2104)"/><path d="m0 0c-2.885 2.019-3.711 5.816-1.845 8.48 1.866 2.667 5.715 3.19 8.599 1.171.179-.125.351-.259.512-.396-2.807 1.602-6.304.986-8.053-1.516-1.75-2.499-1.133-5.994 1.33-8.085-.184.105-.367.221-.543.346" transform="translate(62.342 4292.4492)"/><path d="m0 0c-4.245.37-7.406 3.849-7.066 7.77.345 3.92 4.063 6.8 8.307 6.43.259-.023.522-.058.774-.103-3.91-.024-7.201-2.784-7.523-6.464-.323-3.675 2.441-6.964 6.288-7.666-.258 0-.518.009-.78.033" transform="translate(75.5229 4288.0039)"/></g><g clip-path="url(#e)" transform="matrix(1.6948424 0 0 1.6948424 -24.660167 -3042.863)"><path d="m0 0-.188-.007c0-.001.228-5.74.605-12.231.378-6.494.901-13.729 1.495-16.762.906-4.603 3.559-6.921 7.46-9.414 3.236-2.075 6.249-3.151 9.516-3.151 1.765 0 3.6.314 5.582.945 3.171 1.011 7.171 4.42 7.183 4.426l-.123.143-.182.053c-.002-.008-.825-2.785-.826-5.632 0-.849.074-1.704.267-2.497.44-1.779 2.187-3.223 3.805-4.249 1.622-1.024 3.133-1.62 3.14-1.623l.069.176-.099.161s-.212-.13-.569-.338c-1.07-.627-3.448-1.957-5.226-2.557-2.676-.906-4.878-1.295-7.133-1.295-2.004 0-4.055.31-6.516.846-8.857 1.935-13.942 6.115-18.548 13.937-3.028 5.138-3.607 12.785-3.604 17.62 0 2.138.111 3.728.167 4.307.094.98.138 5.25.162 9.296.023 4.042.023 7.846.023 7.846h-.189v-.189h3.729v.189l-.188-.007.188.007v.19h-3.918v-.19c0-.002 0-.952-.004-2.407-.008-4.362-.044-13.293-.179-14.699-.058-.593-.169-2.191-.169-4.343.003-4.866.563-12.551 3.655-17.811 4.627-7.879 9.851-12.174 18.794-14.115 2.474-.54 4.553-.854 6.597-.854 2.3-.001 4.55.399 7.255 1.314 2.442.828 5.865 2.928 5.871 2.931l.324.198-.354.14s-.09.035-.255.105c-.574.247-2.028.914-3.418 1.878-1.393.964-2.709 2.233-3.043 3.624-.184.755-.256 1.582-.256 2.409 0 1.388.203 2.773.406 3.808.102.517.204.948.279 1.249.076.3.126.469.126.469l.18.607-.483-.41c-.001 0-.248-.209-.67-.543-1.264-.997-4.101-3.089-6.382-3.81-1.952-.622-3.748-.926-5.468-.926-3.182 0-6.112 1.04-9.313 3.09-3.884 2.496-6.402 4.696-7.292 9.169-.586 2.978-1.112 10.226-1.488 16.711-.189 3.243-.34 6.299-.444 8.545-.106 2.245-.162 3.675-.162 3.679l-.008.182h-.181z" fill="#010202" transform="translate(53.4955 4341.8633)"/><path d="m50.493 4358.104h54.219v10.496h-54.219z" fill="#fff"/></g><path d="m60.916496 4361.225v-.8372h91.058804v-88.4742c-.002-12.4757-5.05063-23.76-13.21808-31.9376-8.16406-8.1742-19.43815-13.2266-31.89524-13.2266-12.455397 0-23.727794 5.0524-31.89524 13.2266-8.164056 8.1776-13.212992 19.4619-13.212992 31.9376v89.3114h-.837252v-.8372.8372h-.837252v-89.3114c0-25.8701 20.946558-46.8387 46.782736-46.8387 25.83448 0 46.78443 20.9686 46.78613 46.8387v90.1487h-93.568866v-.8373z" fill="#010202"/><path d="m100.67004 4315.9887h26.47005v9.569h-26.47005z" fill="#fff"/><path d="m0 0h-.198v-5.842h16.013v6.04h-16.013v-.198h.198v-.197h15.421v-5.251h-15.223v5.448h-.198v-.197z" fill="#010202" transform="matrix(1.6948424 0 0 1.6948424 100.67055 4325.5564)"/><path d="m0 0c.184.362 1.835 3.387 3.874 4.461 1.898 1.007 3.358 1.213 5.462.777v-1.639c-1.301.493-2.358.401-3.553-.322-1.325-.802-1.957-3.458-1.957-3.458s-4.005-.182-3.826.181" fill="#010202" fill-rule="evenodd" transform="matrix(1.6948424 0 0 1.6948424 111.16146 4315.7565)"/><path d="m0 0s.613-2.95 1.909-4.189c1.278-1.225 4.192-1.731 4.192-1.731v-9.565l-2.914-7.467.635 10.747-5.917-8.014 2.912 9.471-5.827-5.284 3.551 6.923-6.194-1.912 4.83 4.553-5.65-.183 5.193 2.372-4.465 1.182 3.46.91-1.999 2.187z" fill="#010202" fill-rule="evenodd" transform="matrix(1.6948424 0 0 1.6948424 117.72778 4315.9112)"/><path d="m116.71952 4313.8232c0 4.776 3.87102 8.6504 8.65048 8.6504.52201 0 .94064-.035 1.53892-.1457v-5.7116l.0746-.7814.86437.076v-10.369c-.94064-.2746-1.62705-.3593-2.47786-.3593-4.77946 0-8.65048 3.8659-8.65048 8.6403" fill="#fff" fill-rule="evenodd"/><path d="m0 0 .037 1.911 1.913-.033-.037-1.913z" fill="#ed1c24" fill-rule="evenodd" transform="matrix(1.6948424 0 0 1.6948424 93.041218 4301.1202)"/><path d="m108.61885 4325.7137h18.36532v6.9454h-18.36532z" fill="#fff"/><path d="m0 0h-.198v-4.295h11.231v4.492h-11.231v-.197h.198v-.199h10.638v-3.701h-10.441v3.9h-.197v-.199z" fill="#010202" transform="matrix(1.6948424 0 0 1.6948424 108.61885 4332.6593)"/><path d="m128.75697 4329.1101h2.47278v2.4711h-2.47278z" fill="#ed1c24"/><path d="m128.75697 4332.7354h2.47278v2.4694h-2.47278z" fill="#ed1c24"/><path d="m132.46529 4329.1101h2.47277v2.4711h-2.47277z" fill="#ed1c24"/><path d="m132.46529 4332.7354h2.47277v2.4694h-2.47277z" fill="#ed1c24"/><path d="m144.58341 4329.1101h2.46939v2.4711h-2.46939z" fill="#ed1c24"/><path d="m144.58341 4332.7354h2.46939v2.4694h-2.46939z" fill="#ed1c24"/><path d="m148.28664 4329.1101h2.46939v2.4711h-2.46939z" fill="#ed1c24"/><path d="m148.28664 4332.7354h2.46939v2.4694h-2.46939z" fill="#ed1c24"/><path d="m102.2937 4322.0732h1.77959v1.7863h-1.77959z" fill="#ed1c24"/><path d="m107.03418 4322.0732h1.78128v1.7863h-1.78128z" fill="#ed1c24"/><path d="m111.77465 4322.0732h1.78806v1.7863h-1.78806z" fill="#ed1c24"/><path d="m113.56271 4332.7354h2.46599v6.7963h-2.46599z" fill="#010202"/><path d="m118.954 4332.7354h2.46939v6.7963h-2.46939z" fill="#010202"/><path d="m0 0s4.102 3.099 4.92 3.735c.818.639.455 3.736.455 3.736l.456.091-.093-3.188s2.824 1.549 4.009 1.73c1.186.183 1.911.275 1.911.275l.64 3.095.365-.364-.454-2.549s.177.364 2.547.545c2.371.181 3.824 1.643 3.824 1.643s-.272-1.097-2.181-1.824c-1.918-.73-4.19-1.275-6.56-1.912-2.369-.639-5.281-2.643-5.281-2.643l-2.551-2.641-2.463.091z" fill="#00a650" fill-rule="evenodd" transform="matrix(1.6948424 0 0 1.6948424 61.070557 4316.3705)"/><path d="m0 0 .652 1.137-1.131.647c-.248.147-.328.461-.188.709l.118.21c.144.247.459.329.71.19l1.128-.655.653 1.128c.142.248.459.333.706.192l.208-.124c.25-.139.335-.458.19-.706l-.654-1.129 1.129-.648c.249-.146.333-.463.192-.708l-.122-.21c-.139-.248-.46-.332-.706-.191l-1.13.656-.654-1.135c-.135-.243-.455-.329-.705-.189l-.206.124c-.25.14-.331.456-.19.702" fill="#00a650" transform="matrix(1.6948424 0 0 1.6948424 67.137415 4329.3433)"/><path d="m0 0 .225 1.286-1.29.227c-.275.05-.467.319-.413.599l.035.24c.054.28.32.469.605.416l1.283-.224.23 1.282c.045.282.315.467.594.421l.239-.044c.284-.048.471-.319.421-.599l-.227-1.284 1.284-.224c.283-.052.468-.318.418-.598l-.04-.24c-.05-.281-.319-.469-.599-.42l-1.285.225-.227-1.283c-.046-.28-.316-.47-.598-.42l-.238.041c-.282.048-.472.32-.417.599" fill="#00a650" transform="matrix(1.6948424 0 0 1.6948424 79.818057 4330.1469)"/><path d="m0 0-.223 1.287-1.29-.227c-.283-.049-.547.137-.597.419l-.043.241c-.05.279.138.545.421.596l1.281.226-.222 1.284c-.05.284.136.551.421.597l.235.044c.281.051.55-.137.598-.417l.228-1.285 1.282.229c.282.048.552-.143.603-.423l.039-.238c.047-.279-.139-.549-.417-.598l-1.289-.227.232-1.288c.047-.278-.143-.547-.417-.597l-.244-.04c-.278-.05-.544.138-.598.417" fill="#00a650" transform="matrix(1.6948424 0 0 1.6948424 94.23015 4329.6172)"/><path d="m0 0 3.918 2.461 3.371-2.461s-2.12.896-3.553.912c-1.5.02-3.736-.912-3.736-.912" fill="#010202" fill-rule="evenodd" transform="matrix(1.6948424 0 0 1.6948424 84.5326 4253.8525)"/><path d="m0 0 3.913 2.459 3.375-2.459s-2.125.894-3.556.913c-1.501.016-3.732-.913-3.732-.913" fill="#010202" fill-rule="evenodd" transform="matrix(1.6948424 0 0 1.6948424 77.74679 4262.0371)"/><path d="m0 0 3.915 2.459 3.373-2.459s-2.124.894-3.553.911c-1.5.017-3.735-.911-3.735-.911" fill="#010202" fill-rule="evenodd" transform="matrix(1.6948424 0 0 1.6948424 70.953692 4270.2191)"/><path d="m0 0 3.92 2.462 3.368-2.462s-2.119.896-3.554.915c-1.495.014-3.734-.915-3.734-.915" fill="#010202" fill-rule="evenodd" transform="matrix(1.6948424 0 0 1.6948424 101.97524 4259.5635)"/><path d="m0 0 3.919 2.455 3.369-2.455s-2.119.894-3.553.909c-1.496.017-3.735-.909-3.735-.909" fill="#010202" fill-rule="evenodd" transform="matrix(1.6948424 0 0 1.6948424 95.182143 4267.7521)"/><path d="m0 0 3.92 2.458 3.369-2.458s-2.12.894-3.553.909c-1.496.02-3.736-.909-3.736-.909" fill="#010202" fill-rule="evenodd" transform="matrix(1.6948424 0 0 1.6948424 88.698692 4275.1621)"/><path d="m0 0 3.915 2.458 3.374-2.458s-2.122.896-3.553.913c-1.5.018-3.736-.913-3.736-.913" fill="#010202" fill-rule="evenodd" transform="matrix(1.6948424 0 0 1.6948424 70.179657 4280.4048)"/><path d="m0 0 3.918 2.458 3.371-2.458s-2.127.894-3.555.909c-1.501.02-3.734-.909-3.734-.909" fill="#010202" fill-rule="evenodd" transform="matrix(1.6948424 0 0 1.6948424 69.410199 4290.5962)"/><path d="m0 0 3.917 2.46 3.371-2.46s-2.125.896-3.554.913c-1.499.018-3.734-.913-3.734-.913" fill="#010202" fill-rule="evenodd" transform="matrix(1.6948424 0 0 1.6948424 68.637859 4300.7808)"/><path d="m0 0 3.918 2.46 3.366-2.46s-2.119.894-3.548.909c-1.5.022-3.736-.909-3.736-.909" fill="#010202" fill-rule="evenodd" transform="matrix(1.6948424 0 0 1.6948424 67.863825 4310.9723)"/><path d="m0 0 3.919 2.459 3.368-2.459s-2.12.896-3.551.916c-1.498.015-3.736-.916-3.736-.916" fill="#010202" fill-rule="evenodd" transform="matrix(1.6948424 0 0 1.6948424 83.143507 4283.0272)"/><path d="m0 0 3.917 2.458 3.367-2.458s-2.119.896-3.552.911c-1.499.014-3.732-.911-3.732-.911" fill="#010202" fill-rule="evenodd" transform="matrix(1.6948424 0 0 1.6948424 81.912882 4293.0656)"/><path d="m0 0 3.912 2.461 3.374-2.461s-2.123.896-3.552.914c-1.503.015-3.734-.914-3.734-.914" fill="#010202" fill-rule="evenodd" transform="matrix(1.6948424 0 0 1.6948424 79.6001 4302.7869)"/><path d="m0 0 3.914 2.458 3.37-2.458s-2.119.896-3.554.91c-1.497.017-3.73-.91-3.73-.91" fill="#010202" fill-rule="evenodd" transform="matrix(1.6948424 0 0 1.6948424 80.989362 4311.7453)"/><path d="m0 0h-1.465v1.564h.503v2.289h-.202l-1.084-3.853h-1.073l.985 3.232h-.886v2.181h.974v-1.917l.568 1.917h1.68z" fill="#0053a5" fill-rule="evenodd" transform="matrix(1.6948424 0 0 1.6948424 149.67607 4346.8528)"/><path d="m141.86149 4346.8534h1.63383v9.1708h-1.63383z" fill="#0053a5"/><path d="m0 0-.924-1.494h-2.041v1.564h.422v3.849h.964v-3.856h.255l.356.574v3.282h.968z" fill="#0053a5" fill-rule="evenodd" transform="matrix(1.6948424 0 0 1.6948424 141.10966 4349.3852)"/><path d="m0 0h-3.48v1.564h1.615l-1.808 3.849h1.093l1.317-2.787v2.787h.975v-2.967h-.87z" fill="#0053a5" fill-rule="evenodd" transform="matrix(1.6948424 0 0 1.6948424 135.64481 4346.8528)"/><path d="m124.80799 4346.8534h-1.63383v4.7676h1.63383zm3.81339 0h-1.63891v6.5286h-3.80831v2.6456h5.44722z" fill="#0053a5" fill-rule="evenodd"/><path d="m0 0h-1.464v1.564h.502v2.289h-.201l-1.081-3.853h-1.075l.989 3.232h-.89v2.181h.976v-1.917l.568 1.917h1.676z" fill="#0053a5" fill-rule="evenodd" transform="matrix(1.6948424 0 0 1.6948424 120.23937 4346.8528)"/><path d="m110.06625 4345.3467h-1.62874v6.1913h1.62874zm3.97779 4.3304-1.4779-2.8237h-2.1677l2.00839 3.8931v2.6355h-3.96932v2.6456h5.60653z" fill="#0053a5" fill-rule="evenodd"/><path d="m105.8766 4346.8534h1.63722v9.1708h-1.63722z" fill="#0053a5"/><path d="m0 0h-1.464v1.564h.502v2.289h-.201l-1.085-3.853h-1.072l.987 3.232h-.887v2.181h.972v-1.917l.572 1.917h1.676z" fill="#0053a5" fill-rule="evenodd" transform="matrix(1.6948424 0 0 1.6948424 105.05765 4346.8528)"/><path d="m97.246461 4351.4414h1.628743v4.5862h-1.628743z" fill="#0053a5"/><path d="m0 0h-.966v3.853h-1.286v-3.853h-1.461v1.564h.495v3.849h3.218z" fill="#0053a5" fill-rule="evenodd" transform="matrix(1.6948424 0 0 1.6948424 96.345991 4346.8528)"/><path d="m85.635095 4351.4414h1.637218v4.5862h-1.637218z" fill="#0053a5"/><path d="m0 0h-.966v3.544l-.203.309h-1.868v1.56h2.543l.494-.78z" fill="#0053a5" fill-rule="evenodd" transform="matrix(1.6948424 0 0 1.6948424 84.879704 4346.8528)"/><path d="m77.359179 4346.8534h1.640608v9.1708h-1.640608z" fill="#0053a5"/><path d="m0 0h-.967v3.853h-1.38v-3.853h-.966v5.413h3.313z" fill="#0053a5" fill-rule="evenodd" transform="matrix(1.6948424 0 0 1.6948424 76.493962 4346.8528)"/><path d="m68.305331 4353.382h-2.508367v-3.8795h2.508367zm1.637218-6.5286h-5.776023v9.1708h5.776023z" fill="#0053a5" fill-rule="evenodd"/><path d="m61.070049 4315.8378h66.997121v.4559h-66.997121z" fill="#010202"/><path d="m110.31539 4328.8017h2.47278v2.4677h-2.47278z" fill="#ed1c24"/><path d="m116.87274 4328.8017h2.46938v2.4677h-2.46938z" fill="#ed1c24"/><path d="m123.44025 4328.8017h2.46261v2.4677h-2.46261z" fill="#ed1c24"/></g></svg>