<?xml version="1.0" encoding="UTF-8" standalone="no"?>
<!-- Generator: Adobe Illustrator 15.0.0, SVG Export Plug-In . SVG Version: 6.00 Build 0)  -->

<svg
   xmlns:dc="http://purl.org/dc/elements/1.1/"
   xmlns:cc="http://creativecommons.org/ns#"
   xmlns:rdf="http://www.w3.org/1999/02/22-rdf-syntax-ns#"
   xmlns:svg="http://www.w3.org/2000/svg"
   xmlns="http://www.w3.org/2000/svg"
   xmlns:sodipodi="http://sodipodi.sourceforge.net/DTD/sodipodi-0.dtd"
   xmlns:inkscape="http://www.inkscape.org/namespaces/inkscape"
   version="1.1"
   id="Layer_1"
   x="0px"
   y="0px"
   width="681.81934"
   height="774.74323"
   viewBox="0 0 681.81932 774.74323"
   enable-background="new 0 0 722.851 800.581"
   xml:space="preserve"
   sodipodi:docname="Yoav_Regional_Council_COA.svg"
   inkscape:version="0.92.3 (2405546, 2018-03-11)"><metadata
   id="metadata13"><rdf:RDF><cc:Work
       rdf:about=""><dc:format>image/svg+xml</dc:format><dc:type
         rdf:resource="http://purl.org/dc/dcmitype/StillImage" /><dc:title></dc:title></cc:Work></rdf:RDF></metadata><defs
   id="defs11">
	
	
</defs><sodipodi:namedview
   pagecolor="#ffffff"
   bordercolor="#666666"
   borderopacity="1"
   objecttolerance="10"
   gridtolerance="10"
   guidetolerance="10"
   inkscape:pageopacity="0"
   inkscape:pageshadow="2"
   inkscape:window-width="1920"
   inkscape:window-height="1005"
   id="namedview9"
   showgrid="false"
   inkscape:zoom="1.0400389"
   inkscape:cx="287.68488"
   inkscape:cy="290.75791"
   inkscape:window-x="-9"
   inkscape:window-y="-9"
   inkscape:window-maximized="1"
   inkscape:current-layer="Layer_1"
   inkscape:snap-bbox="true"
   inkscape:bbox-nodes="true"
   inkscape:bbox-paths="true"
   inkscape:snap-bbox-midpoints="true"
   inkscape:snap-bbox-edge-midpoints="true"
   inkscape:snap-intersection-paths="true"
   inkscape:object-paths="true"
   inkscape:snap-smooth-nodes="true"
   inkscape:snap-center="true"
   inkscape:snap-object-midpoints="true"
   inkscape:snap-global="true"
   inkscape:lockguides="false"
   showguides="true"
   inkscape:guide-bbox="true"
   fit-margin-top="0"
   fit-margin-left="0"
   fit-margin-right="0"
   fit-margin-bottom="0" />

<path
   inkscape:connector-curvature="0"
   style="clip-rule:evenodd;fill:none;fill-opacity:1;fill-rule:evenodd;stroke:#285d97;stroke-width:8.4477663;stroke-miterlimit:4;stroke-dasharray:none;stroke-opacity:1"
   d="m 160.83718,6.5200932 c -5.52131,5.0544458 -8.4341,11.2259408 -8.73651,18.5124978 -0.59318,7.639969 1.66229,14.214296 6.76892,19.721077 4.23831,-4.710643 6.64674,-10.912401 7.22681,-18.603247 0.39916,-6.927612 -1.35352,-13.471315 -5.25922,-19.6303278 z"
   id="path2342" /><path
   style="clip-rule:evenodd;fill:none;fill-opacity:1;fill-rule:evenodd;stroke:#285d97;stroke-width:8.4477663;stroke-miterlimit:4;stroke-dasharray:none;stroke-opacity:1"
   d="m 193.14836,44.324965 c -10.01151,1.870103 -17.81158,6.903663 -23.39866,15.103803 -6.17705,8.399424 -8.29831,17.61336 -6.35745,27.64561 8.28227,-2.395174 15.52215,-7.825757 21.72064,-16.293375 5.44083,-7.715957 8.1202,-16.533587 8.03547,-26.456038 z"
   id="path2340"
   inkscape:connector-curvature="0" /><path
   style="clip-rule:evenodd;fill:none;fill-opacity:1;fill-rule:evenodd;stroke:#285d97;stroke-width:8.4477663;stroke-miterlimit:4;stroke-dasharray:none;stroke-opacity:1"
   d="m 136.30411,50.84417 c -3.33601,8.348842 -3.71345,18.77007 -1.13017,31.262098 2.01262,9.764583 7.75283,17.587299 17.2225,23.462842 1.48734,-7.995595 1.2847,-16.380995 -0.60931,-25.152796 C 149.3219,68.9158 144.16087,59.057912 136.30411,50.84417 Z"
   id="path2338"
   inkscape:connector-curvature="0" /><path
   inkscape:connector-curvature="0"
   style="clip-rule:evenodd;fill:none;fill-opacity:1;fill-rule:evenodd;stroke:#285d97;stroke-width:8.4477663;stroke-miterlimit:4;stroke-dasharray:none;stroke-opacity:1"
   d="m 177.05621,110.21972 c -7.96732,8.87623 -12.75655,19.15184 -14.37108,30.82528 -1.24685,8.90492 -0.64503,17.27123 1.81082,25.10406 10.00222,-6.68983 15.64353,-14.98528 16.9244,-24.88957 1.64816,-12.6715 0.19324,-23.01858 -4.36414,-31.03977 z"
   id="path2336" /><path
   inkscape:connector-curvature="0"
   style="clip-rule:evenodd;fill:none;fill-opacity:1;fill-rule:evenodd;stroke:#285d97;stroke-width:8.4477663;stroke-miterlimit:4;stroke-dasharray:none;stroke-opacity:1"
   d="m 142.59693,131.02977 c -4.28667,8.53284 -5.65453,19.53996 -4.10426,33.0197 1.20478,10.53606 6.50564,19.36526 15.91379,26.48178 2.30998,-8.33241 2.88048,-17.23572 1.70772,-26.70864 -1.51865,-12.41803 -6.02313,-23.35043 -13.51725,-32.79284 z"
   id="path2239" /><path
   inkscape:connector-curvature="0"
   style="color:#000000;font-style:normal;font-variant:normal;font-weight:normal;font-stretch:normal;font-size:medium;line-height:normal;font-family:sans-serif;font-variant-ligatures:normal;font-variant-position:normal;font-variant-caps:normal;font-variant-numeric:normal;font-variant-alternates:normal;font-feature-settings:normal;text-indent:0;text-align:start;text-decoration:none;text-decoration-line:none;text-decoration-style:solid;text-decoration-color:#000000;letter-spacing:normal;word-spacing:normal;text-transform:none;writing-mode:lr-tb;direction:ltr;text-orientation:mixed;dominant-baseline:auto;baseline-shift:baseline;text-anchor:start;white-space:normal;shape-padding:0;clip-rule:nonzero;display:inline;overflow:visible;visibility:visible;opacity:1;isolation:auto;mix-blend-mode:normal;color-interpolation:sRGB;color-interpolation-filters:linearRGB;solid-color:#000000;solid-opacity:1;vector-effect:none;fill:#285d97;fill-opacity:1;fill-rule:nonzero;stroke:none;stroke-width:23.12197876;stroke-linecap:round;stroke-linejoin:round;stroke-miterlimit:4;stroke-dasharray:none;stroke-dashoffset:0;stroke-opacity:1;color-rendering:auto;image-rendering:auto;shape-rendering:auto;text-rendering:auto;enable-background:accumulate"
   d="m 336.21495,99.89513 c -156.52493,0 -283.660159,127.13523 -283.660159,283.66014 0,156.52492 127.135229,283.66426 283.660159,283.66426 156.52486,0 283.66015,-127.13934 283.66015,-283.66426 0,-156.52491 -127.13529,-283.66014 -283.66015,-283.66014 z"
   id="path2170" /><path
   style="fill:#285d97;fill-opacity:1;stroke:none;stroke-width:2.11194158px;stroke-linecap:butt;stroke-linejoin:miter;stroke-opacity:1"
   d="M 82.98339,483.11857 8.1879895,613.80275 H 681.8194 l -93.00843,-123.0655 z"
   id="path2154"
   inkscape:connector-curvature="0"
   sodipodi:nodetypes="ccccc" /><path
   style="fill:#ffffff;stroke:none;stroke-width:2.11194158px;stroke-linecap:butt;stroke-linejoin:miter;stroke-opacity:1"
   d="M 71.353224,333.14678 65.803528,436.2125 c 139.291142,28.37886 180.971502,-36.08524 281.693842,-40.01183 73.30063,0 131.78008,18.03366 196.54255,24.16454 21.57011,2.32012 22.83537,-6.62007 -0.90876,-15.33384 C 445.1225,368.05696 347.01669,306.4454 268.37969,306.4454 c -57.89613,0 -92.89599,37.515 -127.45831,37.515 -35.2229,0 -59.939624,-4.18398 -69.568156,-10.81362 z"
   id="path2132"
   inkscape:connector-curvature="0"
   sodipodi:nodetypes="ccccccsc" /><path
   style="clip-rule:evenodd;fill:#ffffff;fill-rule:evenodd;stroke-width:0.89398277"
   d="m 294.19059,162.14378 28.6061,120.30641 -34.35618,18.35163 c 25.93241,2.98502 49.01732,10.46273 69.94983,18.09174 11.54493,-26.67737 38.10555,-45.37373 68.99692,-45.37373 41.46881,0 75.15132,33.68253 75.15132,75.15128 0,10.97749 -2.38015,21.39878 -6.62051,30.80465 12.0991,5.36556 24.52534,10.51654 37.73047,15.2332 l 33.93531,-22.29912 -33.44872,-19.32923 39.81749,-44.21877 -52.8809,-0.17318 20.42226,-43.10918 -39.52879,2.24393 2.66464,-76.62799 -60.89572,43.57117 -27.0261,-27.97911 -22.41466,28.04922 z m 133.19667,117.5015 c -28.2601,0 -52.50392,16.94014 -63.18908,41.22411 55.01227,20.7374 85.60522,37.80216 126.13486,56.14381 3.89421,-8.64695 6.08007,-18.23353 6.08007,-28.34209 0,-38.15812 -30.86772,-69.02583 -69.02585,-69.02583 z"
   id="path2115"
   inkscape:connector-curvature="0"
   sodipodi:nodetypes="ccccsscccccccccccccsccss" /><path
   style="fill:#ffffff;stroke:none;stroke-width:2.14117432px;stroke-linecap:butt;stroke-linejoin:miter;stroke-opacity:1"
   d="m 667.94521,606.4553 -74.88649,-98.81506 c -16.88539,40.11912 -41.73788,72.60699 -70.28879,98.81506 z"
   id="path2136"
   inkscape:connector-curvature="0"
   sodipodi:nodetypes="cccc" /><path
   style="fill:#285d97;fill-opacity:1;stroke:none;stroke-width:2.11194158px;stroke-linecap:butt;stroke-linejoin:miter;stroke-opacity:1"
   d="M 3.453953e-5,774.74325 72.966494,606.68153 H 598.57384 l 70.56039,168.06172 z"
   id="path2156"
   inkscape:connector-curvature="0"
   sodipodi:nodetypes="ccccc" /><path
   style="color:#000000;font-style:normal;font-variant:normal;font-weight:normal;font-stretch:normal;font-size:medium;line-height:normal;font-family:sans-serif;font-variant-ligatures:normal;font-variant-position:normal;font-variant-caps:normal;font-variant-numeric:normal;font-variant-alternates:normal;font-feature-settings:normal;text-indent:0;text-align:start;text-decoration:none;text-decoration-line:none;text-decoration-style:solid;text-decoration-color:#000000;letter-spacing:normal;word-spacing:normal;text-transform:none;writing-mode:lr-tb;direction:ltr;text-orientation:mixed;dominant-baseline:auto;baseline-shift:baseline;text-anchor:start;white-space:normal;shape-padding:0;clip-rule:nonzero;display:inline;overflow:visible;visibility:visible;opacity:1;isolation:auto;mix-blend-mode:normal;color-interpolation:sRGB;color-interpolation-filters:linearRGB;solid-color:#000000;solid-opacity:1;vector-effect:none;fill:#ffffff;fill-opacity:1;fill-rule:nonzero;stroke:none;stroke-width:2.11194158px;stroke-linecap:butt;stroke-linejoin:miter;stroke-miterlimit:4;stroke-dasharray:none;stroke-dashoffset:0;stroke-opacity:1;color-rendering:auto;image-rendering:auto;shape-rendering:auto;text-rendering:auto;enable-background:accumulate"
   d="m 465.93441,429.59725 c -3.35904,0.006 -6.73561,0.0522 -10.13077,0.13622 -9.705,0.24033 -19.31391,1.03652 -28.87425,2.21504 l 25.25671,84.26729 c 1.18142,-0.57337 2.35608,-1.12908 3.53919,-1.70769 22.55342,-11.03057 37.31399,-15.71692 52.90984,-16.75942 5.19854,-0.34754 10.48642,-0.29166 16.19014,0.0701 l 7.51154,0.47848 -29.35683,-66.90977 c -8.84312,-0.91131 -17.8552,-1.46744 -27.0263,-1.68297 -3.31913,-0.0779 -6.66043,-0.11299 -10.01927,-0.10728 z m 44.32184,2.61517 29.1959,66.53442 49.34594,2.87504 c 4.93856,-11.91603 9.05664,-24.11262 12.38295,-36.59599 l 0.19429,-0.73422 -0.63527,-0.42074 c -26.77308,-17.67777 -57.32844,-27.41701 -90.48339,-31.65851 z m -89.69162,0.57749 c -17.50102,2.49469 -34.84936,6.30539 -52.24985,10.84433 l -44.53225,128.72531 c 40.00129,-16.39072 80.72607,-33.26933 122.62044,-53.35539 z m -59.63341,12.80364 c -24.48649,6.64443 -49.15922,14.50385 -74.59441,21.87427 l 0.43312,0.37124 -118.51623,139.20252 h 78.1336 l -0.0329,-0.0741 c 21.54628,-9.21831 47.61638,-22.39294 69.61569,-31.39864 z m -84.59724,24.72871 c -56.59404,15.9113 -117.32188,28.31456 -188.746536,18.75583 l -0.705346,-0.0948 -5.508577,9.66264 0.604078,1.44156 c 20.241921,48.2373 51.443751,82.98347 80.018651,106.9129 l -1.17145,-1.01058 z m 240.1468,33.51469 c -17.89512,-0.17128 -32.04512,3.68131 -57.97533,16.36341 -66.65182,32.59837 -133.88993,60.37363 -196.11772,86.84206 l 250.17012,-8.4e-4 0.30116,-0.26811 c 33.79381,-30.16655 57.44016,-63.24832 73.26621,-98.96425 l -61.69995,-3.66703 c -2.75461,-0.17466 -5.3882,-0.28078 -7.94449,-0.30524 z M 77.452596,505.52401 19.588714,607.04158 H 21.407772 152.31516 C 125.47981,583.46807 96.77515,550.04746 77.452596,505.52401 Z"
   id="path2210"
   inkscape:connector-curvature="0"
   sodipodi:nodetypes="ccccccccccsccccccccccccccccccccccccccccccccccccccccccc" /><path
   style="fill:none;stroke:#285d97;stroke-width:6.33582449;stroke-linecap:butt;stroke-linejoin:miter;stroke-opacity:1"
   d="M 158.67525,38.499829 C 157.09744,230.71079 151.79936,381.99886 153.94182,615.13272"
   id="path2037"
   inkscape:connector-curvature="0"
   sodipodi:nodetypes="cc" /><path
   inkscape:connector-curvature="0"
   style="clip-rule:evenodd;fill:#ffffff;fill-opacity:1;fill-rule:evenodd;stroke-width:0.53109652"
   d="m 160.83718,6.5200932 c -5.52131,5.0544458 -8.4341,11.2259408 -8.73651,18.5124978 -0.59318,7.639969 1.66229,14.214296 6.76892,19.721077 4.23831,-4.710643 6.64674,-10.912401 7.22681,-18.603247 0.39916,-6.927612 -1.35352,-13.471315 -5.25922,-19.6303278 z"
   id="path2332" /><path
   style="clip-rule:evenodd;fill:#ffffff;fill-opacity:1;fill-rule:evenodd;stroke-width:0.46961305"
   d="m 193.14836,44.324965 c -10.01151,1.870103 -17.81158,6.903663 -23.39866,15.103803 -6.17705,8.399424 -8.29831,17.61336 -6.35745,27.64561 8.28227,-2.395174 15.52215,-7.825757 21.72064,-16.293375 5.44083,-7.715957 8.1202,-16.533587 8.03547,-26.456038 z"
   id="path2330"
   inkscape:connector-curvature="0" /><path
   style="clip-rule:evenodd;fill:#ffffff;fill-opacity:1;fill-rule:evenodd;stroke-width:0.53109652"
   d="m 136.30411,50.84417 c -3.33601,8.348842 -3.71345,18.77007 -1.13017,31.262098 2.01262,9.764583 7.75283,17.587299 17.2225,23.462842 1.48734,-7.995595 1.2847,-16.380995 -0.60931,-25.152796 C 149.3219,68.9158 144.16087,59.057912 136.30411,50.84417 Z"
   id="path2328"
   inkscape:connector-curvature="0" /><path
   inkscape:connector-curvature="0"
   style="clip-rule:evenodd;fill:#ffffff;fill-opacity:1;fill-rule:evenodd;stroke-width:0.53109652"
   d="m 177.05621,110.21972 c -7.96732,8.87623 -12.75655,19.15184 -14.37108,30.82528 -1.24685,8.90492 -0.64503,17.27123 1.81082,25.10406 10.00222,-6.68983 15.64353,-14.98528 16.9244,-24.88957 1.64816,-12.6715 0.19324,-23.01858 -4.36414,-31.03977 z"
   id="path2326" /><path
   inkscape:connector-curvature="0"
   style="clip-rule:evenodd;fill:#ffffff;fill-opacity:1;fill-rule:evenodd;stroke-width:0.53109652"
   d="m 142.59693,131.02977 c -4.28667,8.53284 -5.65453,19.53996 -4.10426,33.0197 1.20478,10.53606 6.50564,19.36526 15.91379,26.48178 2.30998,-8.33241 2.88048,-17.23572 1.70772,-26.70864 -1.51865,-12.41803 -6.02313,-23.35043 -13.51725,-32.79284 z"
   id="path2236" /><path
   inkscape:connector-curvature="0"
   style="clip-rule:evenodd;fill:#ffffff;fill-opacity:1;fill-rule:evenodd;stroke-width:0.81721473"
   d="m 176.14875,187.11996 c -7.96734,8.87624 -12.75657,19.15185 -14.3711,30.82529 -1.24683,8.90491 -0.64091,17.27538 1.81494,25.10817 10.00221,-6.6898 15.63941,-14.98528 16.92028,-24.88957 1.64816,-12.6715 0.19324,-23.02269 -4.36412,-31.04389 z"
   id="path2250" /><path
   inkscape:connector-curvature="0"
   style="clip-rule:evenodd;fill:#ffffff;fill-opacity:1;fill-rule:evenodd;stroke-width:0.81721473"
   d="m 142.48143,224.58217 c -4.28667,8.53284 -5.65453,19.53998 -4.10426,33.01972 1.20477,10.53605 6.50978,19.36112 15.91793,26.47764 2.30998,-8.33241 2.88046,-17.23158 1.7077,-26.7045 -1.51866,-12.41803 -6.02725,-23.35045 -13.52137,-32.79286 z"
   id="path2248" /><path
   inkscape:connector-curvature="0"
   style="clip-rule:evenodd;fill:#ffffff;fill-opacity:1;fill-rule:evenodd;stroke-width:0.81721473"
   d="m 176.21887,251.7198 c -8.2579,7.59863 -13.46766,16.62438 -15.63333,27.07988 -2.20077,11.66195 -1.09044,21.83895 3.33292,30.52828 9.78308,-6.15098 15.75337,-15.02635 17.91437,-26.61789 2.45243,-10.95044 0.57941,-21.27898 -5.61396,-30.99027 z"
   id="path2246" /><path
   sodipodi:nodetypes="cscsc"
   inkscape:connector-curvature="0"
   id="path2352"
   d="m 93.665949,380.05517 c 16.136941,39.91369 10.881481,49.64315 20.742201,86.22791 3.07237,11.39898 24.54942,38.31436 35.56818,45.45942 -0.73912,-10.08575 -6.16875,-29.88009 -10.11702,-46.88548 -9.40032,-40.48761 -22.4042,-73.17977 -46.193361,-84.80185 z"
   style="clip-rule:evenodd;fill:none;fill-rule:evenodd;stroke:#285d97;stroke-width:8.4477663;stroke-miterlimit:4;stroke-dasharray:none;stroke-opacity:1" /><path
   id="path2252"
   d="m 122.85021,306.42396 c -2.15097,10.41071 -0.45121,22.64286 5.09979,36.69129 4.33132,10.98256 12.57951,18.94785 24.74685,23.88962 0.0832,-9.62563 -1.86901,-19.36665 -5.85954,-29.2152 -5.21109,-12.91585 -13.20779,-23.37134 -23.9871,-31.36571 z"
   style="clip-rule:evenodd;fill:none;fill-opacity:1;fill-rule:evenodd;stroke:#285d97;stroke-width:8.4477663;stroke-miterlimit:4;stroke-dasharray:none;stroke-opacity:1"
   inkscape:connector-curvature="0" /><path
   style="clip-rule:evenodd;fill:#ffffff;fill-opacity:1;fill-rule:evenodd;stroke-width:0.81721473"
   d="m 122.85021,306.42396 c -2.15097,10.41071 -0.45121,22.64286 5.09979,36.69129 4.33132,10.98256 12.57951,18.94785 24.74685,23.88962 0.0832,-9.62563 -1.86901,-19.36665 -5.85954,-29.2152 -5.21109,-12.91585 -13.20779,-23.37134 -23.9871,-31.36571 z"
   id="path1969"
   inkscape:connector-curvature="0" /><path
   style="clip-rule:evenodd;fill:none;fill-rule:evenodd;stroke:#285d97;stroke-width:8.4477663;stroke-miterlimit:4;stroke-dasharray:none;stroke-opacity:1"
   d="m 210.55534,355.55114 c -24.74543,8.00806 -54.16973,58.50722 -54.16973,58.50722 l 0.2755,29.31322 c 20.03455,1.77969 36.06385,-63.39233 53.89423,-87.82044 z"
   id="path2350"
   inkscape:connector-curvature="0" /><path
   style="clip-rule:evenodd;fill:#ffffff;fill-rule:evenodd;stroke-width:0.79368985"
   d="m 210.55534,355.55114 c -24.74543,8.00806 -54.16973,58.50722 -54.16973,58.50722 l 0.2755,29.31322 c 20.03455,1.77969 36.06385,-63.39233 53.89423,-87.82044 z"
   id="path2346"
   inkscape:connector-curvature="0" /><path
   style="clip-rule:evenodd;fill:#ffffff;fill-rule:evenodd;stroke-width:0.79368985"
   d="m 93.665949,380.05517 c 16.136941,39.91369 10.881481,49.64315 20.742201,86.22791 3.07237,11.39898 24.54942,38.31436 35.56818,45.45942 -0.73912,-10.08575 -6.16875,-29.88009 -10.11702,-46.88548 -9.40032,-40.48761 -22.4042,-73.17977 -46.193361,-84.80185 z"
   id="path2027"
   inkscape:connector-curvature="0"
   sodipodi:nodetypes="cscsc" /><g
   aria-label="המועצה האזורית"
   transform="matrix(11.362906,0,0,11.362906,-7820.4296,-6256.1968)"
   style="font-style:normal;font-variant:normal;font-weight:normal;font-stretch:normal;font-size:5.4666667px;line-height:1000%;font-family:'Guttman Haim';-inkscape-font-specification:'Guttman Haim';letter-spacing:0px;word-spacing:0px;fill:#ffffff;fill-opacity:1;stroke:none;stroke-width:1px;stroke-linecap:butt;stroke-linejoin:miter;stroke-opacity:1"
   id="flowRoot2259"><path
     d="m 739.10259,609.72844 h -0.9184 v -2.23586 h -2.23587 v -0.9184 h 3.15427 z m -2.23587,0 h -0.9184 v -1.4924 h 0.9184 z"
     style="letter-spacing:0.18586279px;fill:#ffffff"
     id="path882" /><path
     d="m 735.43753,609.72844 h -1.35573 v -0.9184 h 0.4428 v -1.31746 h -0.2132 l -1.12613,2.23586 h -0.9676 l 0.902,-1.79853 h -0.902 v -1.35573 h 0.9184 v 1.312 l 0.64506,-1.312 h 1.6564 z"
     style="letter-spacing:0.18586279px;fill:#ffffff"
     id="path884" /><path
     d="m 731.67964,609.72844 h -0.9184 v -3.15426 h 0.9184 z"
     style="letter-spacing:0.18586279px;fill:#ffffff"
     id="path886" /><path
     d="m 730.24242,608.84831 -0.79814,0.88013 h -2.30693 v -0.9184 h 0.46467 v -2.23586 h 0.9184 v 2.23586 h 0.5248 l 0.2788,-0.30613 v -1.92973 h 0.9184 z"
     style="letter-spacing:0.18586279px;fill:#ffffff"
     id="path888" /><path
     d="m 726.62392,609.72844 h -3.33467 v -0.9184 h 1.6236 l -1.6236,-2.23586 h 1.08787 l 1.21906,1.7056 v -1.7056 h 0.91294 v 1.77666 h -0.87467 z"
     style="letter-spacing:0.18586279px;fill:#ffffff"
     id="path890" /><path
     d="m 722.76625,609.72844 h -0.9184 v -2.23586 h -2.23587 v -0.9184 h 3.15427 z m -2.23587,0 h -0.9184 v -1.4924 h 0.9184 z"
     style="letter-spacing:0.18586279px;fill:#ffffff"
     id="path892" /><path
     d="m 716.16978,609.72844 h -0.9184 v -2.23586 h -2.23587 v -0.9184 h 3.15427 z m -2.23587,0 h -0.9184 v -1.4924 h 0.9184 z"
     style="letter-spacing:0.18586279px;fill:#ffffff"
     id="path894" /><path
     d="m 712.47474,609.72844 h -1.08786 l -0.902,-1.2628 -0.39907,0.3444 v 0.9184 h -0.9184 v -1.35573 l 0.80907,-0.64507 -0.80907,-1.15346 h 1.07693 l 0.90747,1.27373 0.3608,-0.32253 v -0.9512 h 0.9184 v 1.35573 l -0.7544,0.66693 z"
     style="letter-spacing:0.18586279px;fill:#ffffff"
     id="path896" /><path
     d="m 708.61366,607.49258 h -0.4592 v 2.23586 h -0.9184 v -2.23586 h -0.46467 v -0.9184 h 1.84227 z"
     style="letter-spacing:0.18586279px;fill:#ffffff"
     id="path898" /><path
     d="m 706.23336,609.72844 h -0.9184 v -3.15426 h 0.9184 z"
     style="letter-spacing:0.18586279px;fill:#ffffff"
     id="path900" /><path
     d="m 704.77043,609.72844 h -0.9184 v -2.23586 h -2.0008 v -0.9184 h 2.9192 z"
     style="letter-spacing:0.18586279px;fill:#ffffff"
     id="path902" /><path
     d="m 701.31319,607.90804 h -0.9184 v -1.33386 h 0.9184 z"
     style="letter-spacing:0.18586279px;fill:#ffffff"
     id="path904" /><path
     d="m 699.83882,609.72844 h -0.9184 v -2.23586 h -1.31747 v 2.23586 h -1.33386 v -0.9184 h 0.41546 v -2.23586 h 3.15427 z"
     style="letter-spacing:0.18586279px;fill:#ffffff"
     id="path906" /></g><path
   sodipodi:nodetypes="cccccccc"
   inkscape:connector-curvature="0"
   id="path2304"
   d="m 386.93619,707.69103 h -7.63826 v -15.55944 h 16.78423 c 12.48411,0 14.59267,4.70457 14.59499,10.03149 v 47.13683 h -23.74096 z"
   style="fill:#ffffff;stroke-width:0.39072147" /><path
   style="fill:#ffffff;stroke-width:0.39072147"
   d="m 199.96983,734.02375 h 44.36006 V 707.6716 l -44.36006,-0.16389 v -15.5615 h 60.65813 c 3.6828,0 7.29718,2.1244 7.29718,4.21843 l 0.26526,37.85911 h 6.54554 v 15.21924 h -74.76611 z"
   id="path2284"
   inkscape:connector-curvature="0"
   sodipodi:nodetypes="cccccccccccc" /><path
   style="fill:#ffffff;stroke-width:0.39072147"
   d="M 287.96172,734.02375 H 293.91 l -0.22598,-0.86294 c -0.1246,-0.47462 -1.04837,-3.40472 -2.05133,-6.51133 -2.3377,-7.24404 -2.28491,-9.54859 0.298,-13.05784 1.75988,-2.39046 6.04311,-5.72783 8.39095,-6.53838 0.69483,-0.23983 1.26337,-0.56025 1.26337,-0.71204 -4.9278,-5.07474 -14.59529,-14.17854 -14.59529,-14.17854 l 28.9472,-0.031 24.1657,22.94662 c 0,0 0.35079,-0.20042 0.57444,-0.2963 2.24436,-0.96115 2.97848,-2.03309 3.16031,-4.61428 l 0.17318,-2.63034 h -7.64163 v -15.4057 h 19.19036 c 10.96351,0 12.5424,3.10026 12.6292,8.90238 0,1.51359 -0.0317,3.37068 -0.0824,5.67086 -0.25217,9.30861 -0.55925,10.69086 -3.14067,14.13936 -1.61036,2.15123 -5.95357,4.99867 -9.28621,6.08788 -1.38987,0.45447 -2.52799,0.9726 -2.52799,1.15137 0,0.17867 4.50963,4.86045 10.02053,10.40364 5.51132,5.54323 10.13204,10.26629 10.26847,10.49569 0.20274,0.34127 -2.40635,0.41713 -14.34811,0.41713 H 344.49545 L 329.7993,734.6514 c -8.08261,-8.1117 -14.95553,-14.74853 -14.95553,-14.74853 0,0 0.28807,5.00973 1.15587,8.62945 0.41246,1.7259 2.04438,6.94664 3.62644,11.60166 1.58184,4.65503 3.34595,9.16595 3.34595,9.16595 h -35.01158 z"
   id="path2282"
   inkscape:connector-curvature="0"
   sodipodi:nodetypes="ccccccccccccccccccccsccscccccccc" /><path
   style="fill:#ffffff;stroke-width:0.39072147"
   d="m 432.65423,707.69103 h -7.54048 v -15.55944 h 16.78402 c 12.48411,0 14.59289,4.70457 14.595,10.03149 v 23.7019 h -23.83854 z"
   id="path2278"
   inkscape:connector-curvature="0"
   sodipodi:nodetypes="cccccccc" /></svg>