<?xml version="1.0" encoding="utf-8"?>
<!-- Generator: Adobe Illustrator 15.1.0, SVG Export Plug-In . SVG Version: 6.00 Build 0)  -->
<!DOCTYPE svg PUBLIC "-//W3C//DTD SVG 1.1//EN" "http://www.w3.org/Graphics/SVG/1.1/DTD/svg11.dtd">
<svg version="1.1" id="Layer_1" xmlns="http://www.w3.org/2000/svg" xmlns:xlink="http://www.w3.org/1999/xlink" x="0px" y="0px"
	 width="324.109px" height="575.447px" viewBox="0 0 324.109 575.447" enable-background="new 0 0 324.109 575.447"
	 xml:space="preserve">
<g>
	<path fill="#EAF1C3" d="M317,94c0,0,0,248,0,273s-25.5,64-74,64c-75.5,0-82,26.053-82,26.053S154.5,431,79,431c-48.5,0-74-39-74-64
		S5,94,5,94H317z"/>
	<path fill="#009047" d="M160.933,470l-4.771-11.66C155.609,456.921,146.218,436,79,436c-50.868,0-79-40.799-79-69V89h322v278
		c0,28.201-28.133,69-79,69c-67.248,0-76.617,20.939-77.163,22.342L160.933,470z M10,99v268c0,12.263,6.67,26.785,17.409,37.901
		C36.707,414.526,53.205,426,79,426c53.248,0,74,12.751,82,21.662c8-8.911,28.752-21.662,82-21.662
		c25.795,0,42.293-11.474,51.592-21.099C305.329,393.785,312,379.263,312,367V99H10z"/>
	<polygon fill="#47A146" points="26.5,372.167 42.167,338.167 42.167,229.167 138.167,229.167 138.167,278.834 89.833,311.501 
		113.833,329.167 	"/>
	<rect x="31.625" y="190.625" fill="#247139" width="40" height="33.375"/>
	<rect x="77.125" y="190.625" fill="#247139" width="61.375" height="33.375"/>
	<polygon fill="#E21F26" points="73,186.25 31,186.25 81.5,123.75 105.5,152.25 	"/>
	<polygon fill="#E21F26" points="80.5,185.875 135.75,185.875 107.375,157.75 	"/>
	<path fill="#FCAF17" d="M32.75,377.75l204-95c0,0,5.417,10.083,5.417,15.583s1.57,11.448-4.667,13.5
		C231.292,313.875,32.75,377.75,32.75,377.75z"/>
	<path fill="#247139" d="M32.5,385.5c0,0,188.5-62,200-65.75s17-9,17-16c0-13.25-5.25-22.75-5.25-22.75c25,0,32,13,32,13l10.75-7.75
		c0,0,2.75,4.75,2.75,13.5s-1.5,21.75-10,33s-38.25,31-61,33.5S32.5,385.5,32.5,385.5z"/>
	<path fill="#44A046" d="M278,287c0,0-9.25-10.25-24.25-10.25s-108.25,0-108.25,0V228h108.75v-67.5c0,0,49.25,39.75,49.25,82.25
		C303.5,273.25,278,287,278,287z"/>
	<polygon fill="#247139" points="247.75,168 247.75,223.25 150,223.25 150,190.5 170.5,169.25 170.5,208.75 204,177 204,210 	"/>
	<polygon fill="#227239" points="166.934,127.346 166.934,165 154,179.25 154,127.346 	"/>
	<path fill="#009147" d="M159.25,0l34.25,34.25l51-33.75c0,0-14.25,131.25-85.25,131.25S74,0.5,74,0.5l51,33.75L159.25,0z"/>
	
		<rect x="143.336" y="19.903" transform="matrix(0.7071 -0.7071 0.7071 0.7071 21.1874 123.4024)" fill="#FCB216" width="32.445" height="32.444"/>
	<g>
		<polygon fill="#E21F26" points="79.75,10.25 147.833,65.333 108.333,89.833 		"/>
		<path fill="#227239" d="M107.025,93.587L74.377,2.688l77.764,62.916L107.025,93.587z M85.123,17.812l24.519,68.268l33.884-21.016
			L85.123,17.812z"/>
	</g>
	<g>
		<path fill="#E21F26" d="M111.083,95.667L233.25,17.875c0,0-15.375,107.5-73.125,107.5
			C126.667,125.375,111.083,95.667,111.083,95.667z"/>
		<path fill="#227239" d="M160.125,127.875c-34.572,0-50.59-29.779-51.255-31.047l-1.068-2.035l128.693-81.947l-0.771,5.384
			c-0.039,0.272-4.016,27.495-15.069,54.348C205.765,108.753,184.833,127.875,160.125,127.875z M114.479,96.469
			c4.124,6.427,19.086,26.406,45.646,26.406c47.575,0,65.617-78.191,69.7-99.855L114.479,96.469z"/>
	</g>
	<path fill="#247139" d="M308.688,512.188l2.438-7.125c0,0,4.062,0,5.625,0s6.5,2.188,6.5,6.438s0,5.938,0,11.125
		s-5.562,13.812-9.938,16.688s-19.812,6.75-19.812,6.75l-3.562-5.562l8.938-3.438c0,0-4.688-20.75-5.188-22.75s-4.5-2.125-4.5-2.125
		l2.375-6.875c0,0,4.625,0,6.25,0s4,2.375,4.75,4.625s5,23.438,5,23.438s1.438-0.125,3.125-2s2.438-8,2.438-11.562s0-5.25,0-5.812
		s-1.312-1-2-1.312S308.688,512.188,308.688,512.188z"/>
	<path fill="#247139" d="M60.188,512.188l2.438-7.125c0,0,4.062,0,5.625,0s6.5,2.188,6.5,6.438s0,5.938,0,11.125
		s-5.562,13.812-9.938,16.688S45,546.062,45,546.062l-3.562-5.562l8.938-3.438c0,0-4.688-20.75-5.188-22.75s-4.5-2.125-4.5-2.125
		l2.375-6.875c0,0,4.625,0,6.25,0s4,2.375,4.75,4.625s5,23.438,5,23.438s1.438-0.125,3.125-2s2.438-8,2.438-11.562s0-5.25,0-5.812
		s-1.312-1-2-1.312S60.188,512.188,60.188,512.188z"/>
	<path fill="#247139" d="M271.125,512.562l2.75-7.375c0,0,5.438,0,6.75,0s5.75,2.875,5.75,7.062s0,14.688,0,14.688h-10.312
		c0,0,0-11,0-12.438s-1.188-1.875-2.062-1.875S271.125,512.562,271.125,512.562z"/>
	<path fill="#247139" d="M224.938,512.562l2.75-7.375c0,0,5.438,0,6.75,0s5.75,2.875,5.75,7.062s0,14.688,0,14.688h-10.312
		c0,0,0-11,0-12.438s-1.188-1.875-2.062-1.875S224.938,512.562,224.938,512.562z"/>
	<path fill="#247139" d="M207.375,512.562l2.75-7.375c0,0,5.438,0,6.75,0s5.75,2.875,5.75,7.062s0,14.688,0,14.688h-10.312
		c0,0,0-11,0-12.438s-1.188-1.875-2.062-1.875S207.375,512.562,207.375,512.562z"/>
	<path fill="#247139" d="M136.625,512.562l2.75-7.375c0,0,5.438,0,6.75,0s5.75,2.875,5.75,7.062s0,14.688,0,14.688h-10.312
		c0,0,0-11,0-12.438s-1.188-1.875-2.062-1.875S136.625,512.562,136.625,512.562z"/>
	<path fill="#247139" d="M243.438,513.438l3.25-7.625c0,0,3.062-0.812,8.062-0.812s13.812,3.25,13.812,10.938s0,26.375,0,26.375
		h-10.25c0,0,0-21.375,0-24.062s-3.438-6.375-7.688-6.375S243.438,513.438,243.438,513.438z"/>
	<path fill="#247139" d="M205.188,515.875V542h-10.062c0,0,0-22.625,0-25.312s-0.875-3.812-3.812-3.812s-8.188,0-8.188,0
		s2,3.312,2,6.188s0,11,0,14.375s-3.312,9.688-11.062,9.688c-1.875,0-3.5-0.438-3.5-0.438s-1.062-0.938-1.938-2.812
		s-0.625-4.5-0.625-4.5s2.562,0.125,3.938,0.125s2.562-1.5,2.562-3.188s0-14.062,0-16.875s-4.562-3.375-4.562-3.375l3.375-7.375
		c0,0,16.938,0,20.688,0S205.188,509.062,205.188,515.875z"/>
	<rect x="101.5" y="520.334" fill="#247139" width="10.333" height="32.5"/>
	<path fill="#247139" d="M100.5,512.562l2.75-7.75c0,0,4.688-0.875,13.5-0.875s18.438,3,18.438,10.812s-1.875,10-3,12.375
		S126,540.875,126,540.875h-10.062c0,0,6.625-15.75,7.312-17.562s0.875-3.625,0.875-5c0-4.625-2.75-6.375-9.75-6.375
		C104.5,511.938,100.5,512.562,100.5,512.562z"/>
	<path fill="#247139" d="M79,511.584l2.75-7.167c0,0,4.5,0,6.667,0s8.083,3.001,8.083,7.834s0,28.75,0,28.75H78.333l2.5-7.25h5.083
		c0,0,0-14.916,0-17.5s-2.167-4.667-3.667-4.667S79,511.584,79,511.584z"/>
	<path fill="#247139" d="M28.188,504.062c-5.312,0-21.562,0-21.562,0l-3.5,6.75c0,0,3.188,0.625,3.188,3.562s0,26.75,0,26.75h31.875
		c0,0,0-21.438,0-26.25S33.5,504.062,28.188,504.062z M27.875,534H16.5c0,0,0-17.062,0-18.938S15,512,15,512s7.75,0,9.125,0
		s3.75,1.938,3.75,4.438S27.875,534,27.875,534z"/>
	<g>
		<path fill="#247139" d="M11.232,573.227v-6.415l-6.289-8.703h2.939l2.792,4.172c0.734,1.145,1.352,2.063,1.969,3.118h0.059
			c0.529-0.987,1.234-1.974,1.999-3.118l2.851-4.172h2.88l-6.612,8.681v6.438H11.232z"/>
		<path fill="#247139" d="M38.594,565.511c0,5.182-4.144,7.963-9.198,7.963c-5.261,0-8.905-3.118-8.905-7.694
			c0-4.8,3.879-7.94,9.169-7.94C35.097,557.839,38.594,561.002,38.594,565.511z M23.195,565.734c0,3.253,2.292,6.146,6.348,6.146
			c4.055,0,6.348-2.849,6.348-6.28c0-3.028-2.057-6.169-6.318-6.169C25.311,559.432,23.195,562.438,23.195,565.734z"/>
		<path fill="#247139" d="M58.258,575.447c-2.674-0.538-5.29-1.145-7.582-1.75c-0.441-0.111-0.823-0.224-1.205-0.224
			c-4.731-0.135-8.728-2.781-8.728-7.672c0-4.845,3.85-7.963,9.198-7.963c5.408,0,8.905,3.186,8.905,7.649
			c0,3.902-2.351,6.37-5.643,7.268v0.09c1.969,0.381,4.114,0.74,5.79,0.964L58.258,575.447z M56.142,565.601
			c0-3.051-2.057-6.169-6.26-6.169c-4.32,0-6.436,3.051-6.436,6.325c0,3.23,2.292,6.124,6.348,6.124
			C53.85,571.881,56.142,569.032,56.142,565.601z"/>
		<path fill="#247139" d="M62.169,573.227v-15.118h2.821l6.319,7.648c1.44,1.772,2.615,3.365,3.526,4.913l0.088-0.022
			c-0.235-2.02-0.294-3.858-0.294-6.214v-6.325h2.41v15.118h-2.586l-6.29-7.671c-1.381-1.683-2.704-3.41-3.673-5.047l-0.088,0.022
			c0.147,1.906,0.177,3.723,0.177,6.235v6.46H62.169z"/>
		<path fill="#247139" d="M91.736,566.139h-7.67v5.45h8.581v1.638H81.48v-15.118h10.727v1.638h-8.141v4.777h7.67V566.139z"/>
		<path fill="#247139" d="M99.173,568.472l-2.057,4.755h-2.645l6.759-15.118h3.056l6.759,15.118h-2.733l-2.116-4.755H99.173z
			 M105.697,566.946l-1.969-4.352c-0.441-0.987-0.735-1.885-1.029-2.759h-0.059c-0.294,0.874-0.588,1.816-1,2.736l-1.939,4.374
			H105.697z"/>
		<path fill="#247139" d="M130.533,566.587c-0.147-2.108-0.323-4.665-0.323-6.527h-0.059c-0.705,1.75-1.499,3.656-2.498,5.742
			l-3.497,7.335h-1.939l-3.233-7.2c-0.94-2.153-1.705-4.082-2.263-5.877h-0.059c-0.059,1.885-0.206,4.396-0.382,6.685l-0.529,6.482
			h-2.439l1.381-15.118h3.262l3.379,7.312c0.823,1.861,1.469,3.521,1.999,5.092h0.059c0.529-1.525,1.234-3.186,2.116-5.092
			l3.526-7.312h3.262l1.234,15.118h-2.527L130.533,566.587z"/>
		<path fill="#247139" d="M166.626,566.587c-0.146-2.108-0.323-4.665-0.323-6.527h-0.059c-0.705,1.75-1.499,3.656-2.498,5.742
			l-3.497,7.335h-1.939l-3.233-7.2c-0.94-2.153-1.705-4.082-2.263-5.877h-0.059c-0.059,1.885-0.206,4.396-0.382,6.685l-0.529,6.482
			h-2.439l1.381-15.118h3.262l3.38,7.312c0.823,1.861,1.469,3.521,1.999,5.092h0.059c0.529-1.525,1.234-3.186,2.116-5.092
			l3.527-7.312h3.262l1.234,15.118h-2.527L166.626,566.587z"/>
		<path fill="#247139" d="M176.121,558.108v8.973c0,3.364,1.97,4.8,4.614,4.8c2.909,0,4.819-1.48,4.819-4.8v-8.973h2.587v8.838
			c0,4.643-3.204,6.527-7.494,6.527c-4.056,0-7.112-1.75-7.112-6.46v-8.905H176.121z"/>
		<path fill="#247139" d="M192.581,573.227v-15.118h2.821l6.318,7.648c1.44,1.772,2.616,3.365,3.527,4.913l0.088-0.022
			c-0.235-2.02-0.294-3.858-0.294-6.214v-6.325h2.41v15.118h-2.587l-6.289-7.671c-1.381-1.683-2.703-3.41-3.673-5.047l-0.089,0.022
			c0.147,1.906,0.177,3.723,0.177,6.235v6.46H192.581z"/>
		<path fill="#247139" d="M214.478,558.108v15.118h-2.586v-15.118H214.478z"/>
		<path fill="#247139" d="M232.759,572.756c-0.911,0.358-2.821,0.718-5.231,0.718c-5.583,0-9.757-2.692-9.757-7.672
			c0-4.755,4.203-7.94,10.345-7.94c2.439,0,4.026,0.404,4.702,0.673l-0.646,1.593c-0.94-0.358-2.321-0.628-3.967-0.628
			c-4.644,0-7.729,2.266-7.729,6.235c0,3.724,2.792,6.079,7.582,6.079c1.587,0,3.174-0.247,4.203-0.628L232.759,572.756z"/>
		<path fill="#247139" d="M238.55,558.108v15.118h-2.586v-15.118H238.55z"/>
		<path fill="#247139" d="M243.018,558.288c1.234-0.157,2.851-0.292,4.908-0.292c2.527,0,4.379,0.449,5.555,1.256
			c1.058,0.718,1.733,1.817,1.733,3.163c0,1.368-0.529,2.445-1.528,3.23c-1.381,1.099-3.556,1.659-6.054,1.659
			c-0.765,0-1.47-0.022-2.058-0.135v6.057h-2.557V558.288z M245.574,565.578c0.559,0.111,1.264,0.156,2.116,0.156
			c3.086,0,4.967-1.166,4.967-3.207c0-2.019-1.881-2.983-4.673-2.983c-1.117,0-1.969,0.067-2.41,0.157V565.578z"/>
		<path fill="#247139" d="M259.389,568.472l-2.057,4.755h-2.646l6.76-15.118h3.057l6.759,15.118h-2.732l-2.116-4.755H259.389z
			 M265.913,566.946l-1.969-4.352c-0.441-0.987-0.734-1.885-1.028-2.759h-0.06c-0.294,0.874-0.587,1.816-0.999,2.736l-1.939,4.374
			H265.913z"/>
		<path fill="#247139" d="M274.145,558.108h2.586v13.48h8.464v1.638h-11.05V558.108z"/>
		<path fill="#247139" d="M290.604,558.108v15.118h-2.586v-15.118H290.604z"/>
		<path fill="#247139" d="M298.833,559.769h-6.024v-1.66h14.665v1.66h-6.055v13.458h-2.586V559.769z"/>
		<path fill="#247139" d="M314.91,573.227v-6.415l-6.289-8.703h2.939l2.791,4.172c0.735,1.145,1.353,2.063,1.97,3.118h0.059
			c0.529-0.987,1.234-1.974,1.998-3.118l2.851-4.172h2.881l-6.613,8.681v6.438H314.91z"/>
	</g>
</g>
</svg>
