<?xml version="1.0" encoding="utf-8"?>
<!-- Generator: Adobe Illustrator 15.1.0, SVG Export Plug-In . SVG Version: 6.00 Build 0)  -->
<!DOCTYPE svg PUBLIC "-//W3C//DTD SVG 1.1//EN" "http://www.w3.org/Graphics/SVG/1.1/DTD/svg11.dtd">
<svg version="1.1" id="Layer_1" xmlns="http://www.w3.org/2000/svg" xmlns:xlink="http://www.w3.org/1999/xlink" x="0px" y="0px"
	 width="882.132px" height="1203.688px" viewBox="0 0 882.132 1203.688" enable-background="new 0 0 882.132 1203.688"
	 xml:space="preserve">
<path fill="#FFFFFF" d="M873.165,188.375c0,0,0,754,0,827c0,61-81,108-136,108s-139,0-196,0c-69,0-101,60-101,60s-32-60-101-60
	c-57,0-141,0-196,0s-136-47-136-108c0-73,0-827,0-827H873.165z"/>
<g>
	<path fill="#5D2C19" d="M441.066,1203.688l-6.256-12.492c-0.312-0.62-31.843-61.975-87.15-61.975H136.67
		c-54.643,0-87.621-25.953-105.665-47.726C8.12,1053.88,0,1022.834,0,1004.639V179.381h882.132v825.257
		c0,18.195-8.12,49.241-31.006,76.856c-18.043,21.772-51.021,47.726-105.664,47.726h-210.99c-55.475,0-86.836,61.348-87.146,61.968
		L441.066,1203.688z M14,193.381v811.257c0,17.12,8.591,44.763,27.786,67.923c16.127,19.461,45.681,42.659,94.885,42.659H347.66
		c26.665,0,52.398,12.127,74.418,35.069c8.413,8.766,14.761,17.495,18.988,23.999c4.228-6.504,10.575-15.233,18.988-23.999
		c22.021-22.942,47.753-35.069,74.418-35.069h210.99c49.204,0,78.757-23.198,94.885-42.659
		c19.193-23.16,27.785-50.803,27.785-67.923V193.381H14z"/>
	<path fill="#5D2C19" d="M685.507,775.158c0,0,5.486,12.04-0.945,22.758c-4.288,7.145-11.492,16.233-11.492,16.233
		s3.399,17.008,15.117,24.041c20.437,12.265,42.787,10.325,42.787,10.325s5.834-18.466-3.027-23.784
		c-2.858-1.715-6.058-8.689-4.6-11.117c1.459-2.432,5.202-3.487,8.632-1.429c3.431,2.059,6.43,9.69,6.43,9.69
		s9.634,1.115,18.209-2.484c8.575-3.602,26.126-15.031,31.787-24.463c5.66-9.434,10.292-23.953,10.292-23.953
		s-6.858-7.031-14.605-11.291c-7.744-4.26-21.72-4.29-31.27,0.282c-9.546,4.57-13.377,4.8-15.521,3.513
		c-2.143-1.286-3.371-5.717-1.313-9.146c2.059-3.43,19.324-2.398,28.757-18.118c12.35-20.578-15.685-66.95-15.685-66.95
		s-54.107-2.928-66.457,17.65c-9.435,15.72-0.404,30.469-2.463,33.9c-2.058,3.429-6.547,4.43-8.69,3.143
		c-2.144-1.286-3.742-4.772-4.198-15.35c-0.457-10.576-7.057-22.896-14.461-27.727c-7.402-4.832-16.834-7.577-16.834-7.577
		s-10.635,10.918-16.295,20.35c-5.661,9.431-7.493,30.297-6.637,39.558s6.372,17.236,6.372,17.236s8.146-0.942,11.576,1.117
		c3.43,2.059,4.26,5.858,2.801,8.288c-1.459,2.431-9.118,2.886-11.977,1.171c-8.86-5.318-22.411,8.515-22.411,8.515
		s8.801,20.636,29.236,32.902c11.719,7.033,28.326,2.034,28.326,2.034s4.634-10.634,8.92-17.779
		C672.301,775.979,685.507,775.158,685.507,775.158z"/>
	<path fill="#5D2C19" d="M730.12,935.575c0,0-10.457,4.165-19.299-1.741c-5.895-3.938-13.319-10.435-13.319-10.435
		s-14.593,2.188-21.052,11.854c-11.264,16.86-10.537,35.931-10.537,35.931s15.45,5.72,20.334-1.592
		c1.575-2.357,7.634-4.788,9.636-3.45c2.007,1.341,2.749,4.564,0.858,7.395c-1.89,2.83-8.499,5.063-8.499,5.063
		s-1.345,8.14,1.361,15.575c2.707,7.435,11.694,22.818,19.476,28.018c7.782,5.198,19.929,9.732,19.929,9.732
		s6.257-5.538,10.196-11.945c3.938-6.404,4.54-18.278,1.049-26.581c-3.49-8.3-3.526-11.564-2.345-13.333
		c1.181-1.767,4.996-2.628,7.826-0.738c2.829,1.89,1.241,16.518,14.209,25.182c16.977,11.341,57.535-10.567,57.535-10.567
		s4.718-45.855-12.258-57.197c-12.97-8.664-25.875-1.599-28.704-3.489s-3.494-5.746-2.312-7.515
		c1.181-1.768,4.209-2.982,13.215-2.935s19.746-5.053,24.156-11.145c4.411-6.091,7.134-13.991,7.134-13.991
		s-8.841-9.487-16.621-14.686c-7.779-5.198-25.435-7.615-33.339-7.27c-7.904,0.347-14.908,4.705-14.908,4.705
		s0.465,6.96-1.427,9.789c-1.891,2.83-5.153,3.378-7.157,2.039c-2.006-1.34-2.076-7.867-0.501-10.226
		c4.884-7.31-6.312-19.394-6.312-19.394s-17.897,6.628-29.162,23.486c-6.46,9.668-2.896,23.985-2.896,23.985
		s8.845,4.375,14.739,8.312C729.967,924.319,730.12,935.575,730.12,935.575z"/>
	<path fill="#5D2C19" d="M543.617,762.301c0,0,7.127-1.29,11.947,3.564c3.215,3.237,7.066,8.282,7.066,8.282
		s9.483,0.485,14.792-4.785c9.258-9.193,11.236-21.313,11.236-21.313s-9.013-5.581-13.027-1.595
		c-1.295,1.286-5.426,2.044-6.518,0.945c-1.095-1.103-1.149-3.23,0.403-4.773c1.554-1.543,6.008-2.107,6.008-2.107
		s1.888-4.961,1.131-9.996c-0.758-5.034-4.459-15.885-8.702-20.158c-4.243-4.272-11.324-8.685-11.324-8.685
		s-4.653,2.693-7.956,6.231c-3.303,3.535-5.199,10.946-4.059,16.628c1.142,5.682,0.746,7.744-0.226,8.709
		c-0.971,0.964-3.485,1.019-5.029-0.534c-1.543-1.554,1.328-10.576-5.743-17.697c-9.257-9.321-37.635-0.688-37.635-0.688
		s-8.834,28.314,0.422,37.638c7.071,7.121,16.112,4.313,17.655,5.868c1.543,1.554,1.469,4.07,0.499,5.035
		c-0.971,0.964-3.036,1.343-8.709,0.161c-5.673-1.181-13.099,0.664-16.659,3.941c-3.56,3.278-6.286,7.913-6.286,7.913
		s4.363,7.112,8.605,11.385c4.241,4.271,15.066,8.053,20.097,8.845c5.028,0.791,10.003-1.062,10.003-1.062s0.596-4.449,2.15-5.991
		c1.554-1.543,3.683-1.473,4.774-0.371c1.093,1.1,0.304,5.227-0.991,6.513c-4.014,3.985,1.502,13.037,1.502,13.037
		s12.135-1.893,21.393-11.086c5.311-5.271,4.892-14.756,4.892-14.756s-5.02-3.889-8.233-7.125
		C542.275,769.419,543.617,762.301,543.617,762.301z"/>
	<circle fill="#5D2C19" cx="576.499" cy="848.99" r="30.333"/>
	<circle fill="#5D2C19" cx="507.749" cy="873.99" r="30.333"/>
	<circle fill="#5D2C19" cx="516.999" cy="937.557" r="24.083"/>
	<circle fill="#5D2C19" cx="524.499" cy="996.057" r="24.083"/>
	<circle fill="#5D2C19" cx="572.249" cy="957.557" r="24.083"/>
	<circle fill="#5D2C19" cx="567.999" cy="905.807" r="21.333"/>
	<circle fill="#5D2C19" cx="637.749" cy="839.057" r="21.333"/>
	<circle fill="#5D2C19" cx="623.999" cy="955.557" r="18.333"/>
	<circle fill="#5D2C19" cx="585.915" cy="1004.125" r="18.333"/>
	<circle fill="#5D2C19" cx="546.498" cy="1041.043" r="18.333"/>
	<circle fill="#5D2C19" cx="585.498" cy="1054.477" r="14.667"/>
	<circle fill="#5D2C19" cx="551.115" cy="1083.377" r="12.001"/>
	<circle fill="#5D2C19" cx="628.165" cy="900.125" r="30.333"/>
	<g>
		<path fill="#5D2C19" d="M298.756,972.135c-3.245,3.777-19.262,23.409-29.129,53.574c-8.718,26.652-15.428,56.459-18.134,69.166
			c33.51,0,67.126,0,99.172,0c62.5,0,89.5,53.5,89.5,53.5V790.583l-95.586,170.223L298.756,972.135z"/>
		<path fill="#5D2C19" d="M282.879,967.946l-12.729-41.795l-28.613,19.407c-1.982,8.41-8.539,38.119-8.539,63.151
			c0,24.743,4.214,46.831,8.409,62.688c3.458-14.485,8.258-32.915,13.962-50.354C263.708,995.557,275.893,977.157,282.879,967.946z"
			/>
		<path fill="#5D2C19" d="M657.165,483.479V326.375h-12c-13.625,20.79-34.5,38.753-34.5,78.5
			C610.665,438.25,629.993,466.862,657.165,483.479z"/>
		<path fill="#5D2C19" d="M541.299,450.505l-5.599-14.942c-11.541,8.469-21.201,23.086-21.201,43.146
			c0,66,67.333,133.667,147.666,133.667s85-57,85-72.667c0-11.542-1.807-19.812-2.759-23.374
			c-10.482,2.774-21.685,4.291-33.508,4.291c-57.954,0-101.071-36.281-116.885-79.845c-6.411-5.076-19.625-13.738-35.182-13.738
			c-0.421,0-0.851,0.02-1.281,0.041l-1.147,22.598c10.205,1.708,17.762,7.862,17.762,15.194c0,8.653-10.52,15.667-23.5,15.667
			s-23.5-7.014-23.5-15.667C527.165,458.443,532.981,452.918,541.299,450.505z M691.331,555.81c8.653,0,15.667,7.015,15.667,15.667
			c0,8.653-7.014,15.667-15.667,15.667s-15.667-7.014-15.667-15.667C675.664,562.825,682.678,555.81,691.331,555.81z
			 M638.831,562.31c8.653,0,15.667,7.015,15.667,15.667c0,8.653-7.014,15.667-15.667,15.667s-15.667-7.014-15.667-15.667
			C623.164,569.325,630.178,562.31,638.831,562.31z M592.831,540.81c8.653,0,15.667,7.015,15.667,15.667
			c0,8.653-7.014,15.667-15.667,15.667s-15.667-7.014-15.667-15.667C577.164,547.825,584.178,540.81,592.831,540.81z
			 M554.165,503.708c8.653,0,15.667,7.015,15.667,15.667c0,8.653-7.014,15.667-15.667,15.667s-15.667-7.014-15.667-15.667
			C538.498,510.723,545.512,503.708,554.165,503.708z"/>
		<path fill="#5D2C19" d="M763.165,484.365c27.941-16.474,47.967-45.517,47.967-79.49c0-39.747-20.875-57.71-34.5-78.5h-13.467
			V484.365z"/>
		<path fill="#5D2C19" d="M846.165,252.366v-39.991h-405.5v178.504c-15.601,0.092-33.699,8.777-39.407,11.731
			c-0.379-0.181-0.769-0.363-1.146-0.543c-13.126-6.271-25.525-12.193-44.697-12.193c-18.524,0-37.57,9.111-42.974,11.905
			l-17.606-6.88c3.151-10.618,3.83-21.434,3.83-28.774c0-8.949-1.364-13.884-2.36-17.488c-0.517-1.869-0.89-3.218-0.89-4.512v-7.509
			c4.707-0.827,11.675-3.255,17.43-10.194c9.687-11.676,6.764-25.069,6.764-25.069s-13.701-0.397-23.387,11.28
			c-5.76,6.944-6.855,14.245-6.797,19.023c-1.763,1.596-13.009,12.545-13.009,31.969c0,23.704-9.59,34.5-18.5,34.5
			c-5.785,0-9.249-0.657-11.066-1.168c-1.108-19.938-15.803-27.952-20.758-30.655c-2.979-1.625-8.703-3.123-15.329-4.858
			c-6.252-1.636-13.338-3.491-16.083-5.093c-2.672-1.559-4.01-7.833-4.228-12.468c3.184-2.953,9.277-10.091,9.39-21.558
			c0.154-15.532-10.816-24.283-10.816-24.283s-11.141,8.533-11.295,24.064c-0.084,8.587,3.232,14.811,6.217,18.665
			c-0.431,0.673-4.781,7.7-4.781,17.103c0,13.383,18.16,21.052,31.419,26.651c3.133,1.323,5.838,2.466,7.701,3.446
			c5.337,2.81,6.816,8.937,7.225,12.196c-4.248,1.859-13.785,5.91-21.101,8.104c-7.72,2.316-14.958,8.488-18.617,11.994
			c-4.159-3.8-12.754-11.613-19.828-17.78c-1.953-1.703-3.913-3.271-5.808-4.787c-6.975-5.58-12.563-10.057-13.181-17.24
			c1.319,0.707,8.96,4.423,17.858,0.85c9.788-3.931,11.8-12.97,11.8-12.97s-7.705-5.139-17.493-1.208
			c-8.354,3.356-11.463,10.586-12.197,12.637c-0.009-0.215-0.03-0.424-0.03-0.644c0-5.26,2.721-9.567,5.602-14.128
			c1.437-2.275,2.897-4.589,4.006-7.048c3.468,0.049,8.384-0.662,13.084-4.098c8.516-6.225,8.234-15.481,8.234-15.481
			s-8.734-3.079-17.25,3.146c-1.172,0.857-2.174,1.782-3.054,2.734c-2.675-8.716-10.598-14.852-11.001-15.159l-0.213-0.163
			c0.787-1.5,6.044-12.391-0.137-24.971c-6.658-13.552-20.285-16.217-20.285-16.217s-6.219,12.415,0.439,25.967
			c3.928,7.994,10.14,11.915,14.576,13.788v4.38c0,12.539-4.378,20.483-8.612,28.167c-3.878,7.036-7.888,14.312-7.888,24.333
			c0,11.984,9.887,21.928,20.355,32.455c1.849,1.859,3.76,3.782,5.62,5.719c9.397,9.789,18.078,17.514,21.614,20.583
			c-1.581,6.021-5.395,17.506-10.388,21.854c-2.229,1.942-6.867,3.857-12.176,5.626c-15.05-10.387-39.965-16.561-60.04-17.938
			c10.504-12.481,24.765-29.53,24.765-50.299c0-24.295-20.378-37.551-40.979-44.457c2.47-2.507,3.507-4.847,3.507-4.847
			s-6.574-6.522-16.935-4.544c-3.748,0.716-6.695,2.3-8.946,4.029c-6.678-1.034-12.329-1.431-15.896-1.431v7
			c2.379,0,5.963,0.219,10.279,0.747c-0.078,0.14-0.13,0.237-0.13,0.237s7.197,6.403,17.557,4.425
			c0.921-0.176,1.772-0.418,2.591-0.687c20.159,5.625,41.953,17.212,41.953,39.527c0,18.319-13.455,34.307-23.279,45.98
			c-6.659,7.913-11.471,13.63-11.471,18.77c0,15.248,25.486,31.646,28.393,33.466l2.202,1.378l1.957-1.708
			c3.745-3.268,14.392-12.255,18.625-14.564c1.635-0.892,7.045-2.374,12.277-3.808c4.038-1.106,8.258-2.266,12.285-3.508
			c0.016,0.013,0.034,0.026,0.05,0.039l0.06-0.073c7.524-2.326,14.35-4.946,17.951-8.083c8.374-7.293,12.656-25.566,13.117-27.625
			l0.464-2.075l-1.626-1.368c-0.109-0.091-11.008-9.287-22.728-21.495c-1.902-1.981-3.836-3.926-5.706-5.807
			c-9.42-9.474-18.319-18.423-18.319-27.52c0-8.22,3.252-14.122,7.018-20.955c3.561-6.46,7.501-13.611,8.928-23.573
			c2.1,2.715,4.054,6.255,4.054,10.027c0,3.759-2.232,7.292-4.816,11.384c-3.133,4.959-6.684,10.58-6.684,17.866
			c0,11.347,7.708,17.513,15.869,24.042c1.838,1.471,3.739,2.991,5.581,4.597c9.602,8.371,22.056,19.823,22.18,19.938l2.595,2.384
			l2.368-2.609c0.089-0.098,8.987-9.82,17.912-12.498c10.11-3.033,23.622-9.157,24.192-9.416l2.007-0.913l0.044-2.204
			c0.012-0.599,0.163-14.729-11.12-20.667c-2.125-1.119-4.958-2.315-8.237-3.7c-10.152-4.287-27.143-11.463-27.143-20.203
			c0-0.442,0.013-0.878,0.036-1.308c1.131,2.397,2.719,4.53,4.95,5.832c3.573,2.084,10.502,3.898,17.838,5.818
			c5.4,1.414,11.521,3.016,13.75,4.231c4.697,2.562,17.176,9.369,17.176,26.927v1.911l1.607,1.034
			c0.729,0.468,4.944,2.806,16.393,2.806c12.693,0,25.5-12.832,25.5-41.5c0-8.396,2.441-14.879,5-19.371
			c0.02,2.188,0.541,4.073,1.142,6.248c0.939,3.397,2.107,7.624,2.107,15.623c0,9.637-1.411,33.461-14.475,46.525
			c-7.813,7.813-19.839,9.87-30.45,11.685c-5.89,1.007-11.454,1.958-16.103,3.782c-1.835,0.72-3.576,1.329-5.258,1.919
			c-10.011,3.507-17.918,6.278-23.321,24.6l-0.529,1.796c-5.207,17.687-6.145,20.874-17.952,33.837
			c-11.239,12.341-26.764,19.41-34.225,22.807c-0.701,0.319-1.341,0.61-1.911,0.875c-4.744,2.202-15.776,8.041-15.776,14.674
			c0,4.222,2.721,7.143,5.121,9.719c1.738,1.865,3.379,3.626,3.379,5.281c0,2.888-1.188,11.192-2.235,18.52
			c-1.082,7.563-2.015,14.095-2.015,16.73c0,3.398,1.019,9.83,1.773,14.126c-10.905-0.974-20.301-1.376-27.523-1.376
			c-6.253,0-12.485,0.168-18.5,0.443v-42.844l-0.967-1.014c-10.193-10.692-25.923-27.355-27.483-29.435l-0.421-0.555
			c-12.091-15.859-14.629-28.246-14.629-35.845c0-14.716,13.256-29.191,26.077-43.19c11.66-12.731,22.673-24.757,22.673-36.56
			c0-22.678-47.053-35.75-62-35.75v7c15.066,0,55,13.059,55,28.75c0,9.082-10.121,20.133-20.835,31.833
			c-13.084,14.287-27.915,30.48-27.915,47.917c0,8.678,2.787,22.677,16.062,40.089l0.388,0.511
			c2.127,2.836,21.92,23.663,27.05,29.05v16.426c-14.512-4.928-33.978-9.639-48.03-11.544l-0.94,6.937
			c14.411,1.954,34.682,6.945,48.97,12.018v16.577c-23.6,1.416-42.271,4.188-42.521,4.226l1.041,6.922
			c0.33-0.049,33.402-4.961,66.979-4.961c8,0,18.712,0.502,31.21,1.748c0.538,0.321,1.154,0.503,1.791,0.503
			c0.375,0,0.754-0.071,1.127-0.199c31.965,3.408,74.685,11.596,113.738,28.413c0.683,0.294,1.354,0.584,2.022,0.873
			c0.598,1.176,1.808,1.913,3.111,1.913c0.319,0,0.644-0.044,0.966-0.136c0,0,0.01-0.003,0.012-0.003
			c9.709,4.227,17.734,7.834,24.347,10.896c0.516,0.466,1.164,0.772,1.87,0.868c8.79,4.096,14.921,7.153,19.158,9.375h-28.039
			c-0.35-0.57-0.866-1.047-1.52-1.347c0,0-2.051-0.942-5.538-2.465c-1.771-0.776-3.834,0.035-4.608,1.806
			c-0.287,0.656-0.354,1.351-0.238,2.007h-59.929c-0.416-0.871-1.175-1.573-2.175-1.862c0,0-1.833-0.53-5.115-1.405
			c-1.867-0.5-3.786,0.612-4.284,2.48c-0.07,0.263-0.101,0.526-0.109,0.788H35.665c0,0,0,312,0,345s32.5,97,100,97
			c19.042,0,38.879,0,59.119,0c-5.298-8.071-12.299-20.165-18.354-35.395c-7.175-18.045-11.164-33.652-13.142-42.782l-40.773-23.375
			l-48.582-198.13l7.687-10.644l44.653,182.11l37.848,24.183l25.99-40.35l-44.794-182.685l11.903,5.932l48.829,197.041
			l-27.971,43.272c1.898,8.612,5.671,23.237,12.29,39.886c8.521,21.434,19.112,36.171,22.776,40.936c6.566,0,13.161,0,19.773,0
			c-5.135-14.31-14.919-46.746-14.919-86.165c0-25.943,6.32-55.42,8.691-65.564l-28.812-37.957l32.605-201.377l11.231-6.799
			l-29.969,185.095l25.407,37.037l39.677-27.005l30.064-185.679l8.644,10.107l-26.594,166.854l79.659-141.039l12.891-2.49
			l-92.212,163.264l11.009,43.546l46.574-11.596l92.504-163.778l0.797,2.16V652.875H322.151l0.402-0.521
			c-0.264-0.204-5.055-3.794-26.475-13.895c-0.585-1.487-2.133-2.435-3.772-2.183c-0.25,0.038-0.472,0.071-0.677,0.103
			c-5.899-2.735-12.88-5.888-21.135-9.507c-0.018-0.127-0.024-0.253-0.056-0.38c-0.473-1.874-2.376-3.004-4.25-2.536
			c-0.561,0.142-1.054,0.269-1.5,0.385c-1.271-0.551-2.562-1.109-3.888-1.68c-6.969-3.001-14.054-5.729-21.174-8.212
			c0.747-0.809,1.106-1.954,0.856-3.112c-0.407-1.89-2.271-3.089-4.159-2.684c-3.798,0.819-5.94,1.311-5.94,1.311
			c-0.638,0.146-1.186,0.468-1.626,0.89c-9.459-2.963-18.908-5.509-28.167-7.686c0.448-0.788,0.594-1.747,0.325-2.688
			c-0.531-1.859-2.471-2.935-4.326-2.405c-4.931,1.407-7.675,2.254-7.79,2.29c-0.117,0.036-0.221,0.093-0.331,0.14
			c-10.867-2.233-21.335-3.967-31.096-5.284c0.604-0.887,0.804-2.034,0.421-3.125c-0.64-1.824-2.635-2.784-4.461-2.146
			c-3.726,1.306-6.595,2.351-8.531,3.069c-0.607-3.369-1.388-8.086-1.722-11.474c11.793-4.942,105.997-42.669,231.586-42.669
			c22.375,0,44.517,0.634,65.811,1.884l0.189-3.228v16.354c-0.75-0.083-1.527-0.162-2.331-0.241
			c-1.919-0.189-3.637,1.214-3.828,3.138c-0.19,1.923,1.214,3.637,3.138,3.828c1.234,0.123,2.224,0.24,3.021,0.348v52.961
			c-0.659-0.126-1.383-0.25-2.203-0.369c-1.914-0.275-3.688,1.047-3.967,2.961c-0.278,1.913,1.048,3.688,2.96,3.967
			c1.841,0.268,2.789,0.491,3.209,0.607v31.79h405.5V315.319c-4.428,2.359-9.717,3.722-15.867,3.722
			c-21.833,0-30.5-17.167-30.5-26.5c0-6.667,4-10,7.667-10s7.834,4.167,7.834,7.167c0,7.5,6.167,12.5,12,12.5
			s13.666-5,13.666-13.167s-5.334-25.167-24-25.167s-29.833,15.167-29.833,30c0,30,47.25,44,47.25,110.25
			c0,42.288-26.67,85.108-69.907,105.009c1.851,3.755,5.69,13.769,5.69,32.241c0,59-47.666,92.333-105.333,92.333
			c-23,0-65-1.333-108.333-35s-65-80.667-65-122c0-28.177,16.733-50.458,36.465-61.793l-32.816-87.586
			c-5.566-0.065-11.219-2.93-15.051-12.342c-6.126-15.051,4.158-26.255-0.555-37.833c-3.252-7.988-5.749-9.04-5.749-9.04
			s29.576,8.115,38.624,30.344c4.879,11.987,2.309,19.372-2.536,23.608l30.298,87.364c1.188-0.391,2.375-0.734,3.562-1.042
			l2.251-37.767c-5.149-2.15-9.326-6.933-9.326-17.121c0-16.25,13.75-22.75,13.75-35.25c0-8.625-1.917-10.54-1.917-10.54
			s24.334,18.667,24.334,42.667c0,13.797-5.87,19.558-12.467,21.277l-1.781,35.079c18.142,0.335,26.083,4.408,29.29,6.951
			c-0.299-3.183-0.459-6.372-0.459-9.559c0-66.25,47.25-80.25,47.25-110.25c0-14.833-11.167-30-29.833-30s-24,17-24,25.167
			s7.833,13.167,13.666,13.167s12-5,12-12.5c0-3,4.167-7.167,7.834-7.167s7.667,3.333,7.667,10c0,9.333-8.667,26.5-30.5,26.5
			s-32.834-17.166-32.834-35.166s20-42,43.5-42s54.5,15.5,54.5,49.5c0,5.459-0.726,10.406-1.992,15h27.775v-19.5
			c0-2.485,2.015-4.5,4.5-4.5s4.5,2.015,4.5,4.5v19.5h14.5v-19.5c0-2.485,2.015-4.5,4.5-4.5s4.5,2.015,4.5,4.5v19.5h14.5v-19.5
			c0-2.485,2.015-4.5,4.5-4.5s4.5,2.015,4.5,4.5v19.5h28.676c-1.267-4.594-1.992-9.541-1.992-15c0-34,31-49.5,54.5-49.5
			C829.504,241.875,838.751,246.119,846.165,252.366z M134.018,475.139c-7.299,2-11.537,3.191-13.778,4.414
			c-4.513,2.462-13.773,10.208-17.869,13.707c-9.67-6.498-22.955-18.157-22.955-26.134c0-1.565,1.917-4.458,4.448-7.709
			c17.924,0.469,41.322,5.516,56.643,13.92C138.264,473.974,136.061,474.579,134.018,475.139z M104.68,752.621l25.725,104.916
			l3.624,3.23l2.813-5.323l-25.659-104.646l12.023,5.991l27.22,111.015l-10.435,15.183l-15.931-8.284L96.802,763.53L104.68,752.621z
			 M147.583,913.945l-15.932-8.286l-5.388-21.974l15.931,8.285l10.435-15.184l5.388,21.976L147.583,913.945z M160.22,907.745
			l5.212,21.257l-10.501,15.959l-15.905-9.227l-5.171-21.09l15.931,8.283L160.22,907.745z M184.396,946.23l-18.841,31.562
			l-4.899,1.716l-31.084-18.292L85.079,779.761l7.879-10.909l42.283,172.444l22.374,13.562l13.26-22.557l-42.391-172.882
			l11.513,5.738L184.396,946.23z M275.408,676.618l-17.266,106.634l2.076,4.389l4.668-3.803l17.221-106.362l8.73,10.209
			l-18.27,112.834l-15.533,9.905l-11.434-13.846l18.295-112.993L275.408,676.618z M251.94,841.891l-11.434-13.847l3.616-22.334
			l11.434,13.847l15.534-9.906l-3.617,22.335L251.94,841.891z M265.994,841.115l-3.498,21.604l-15.898,10.595l-11.042-14.703
			l3.471-21.436l11.434,13.845L265.994,841.115z M273.231,885.984l-29.666,21.704l-5.18-0.332l-21.479-28.974l29.861-184.43
			l11.512-6.968l-28.378,175.27l15.305,21.219l21.012-15.592l28.451-175.715l8.36,9.776L273.231,885.984z M420.164,732.426
			l-53.125,94.06l0.428,4.835l5.696-1.95l52.988-93.817l4.655,12.601l-56.213,99.526l-18.001,3.913l-5.932-16.948l56.292-99.667
			L420.164,732.426z M340.915,879.348l-5.931-16.949l11.126-19.7l5.931,16.949l18.003-3.914l-11.128,19.701L340.915,879.348z
			 M354.369,883.487l-10.763,19.058l-18.583,4.433l-5.267-17.617l10.678-18.907l5.933,16.948L354.369,883.487z M400.506,736.224
			L313.189,890.82l7.01,25.206l25.111-7.352l87.54-154.99l4.457,12.066L345.62,928.087l-35.346,10.087l-4.745-2.104l-10.116-34.619
			l91.88-162.679L400.506,736.224z M440.665,489.143c-21.847,0.188-37.734,8.455-50.521,15.124
			c-8.601,4.485-16.028,8.359-22.729,8.359c-4.267,0-9.102-1.739-16.42-4.371c-10.871-3.909-26.586-9.56-53.221-14.105
			c9.13-6.014,27.475-15.774,50.391-15.774c22.007,0,36.871,5.471,37.015,5.525l2.329,0.877l1.594-1.911
			c0.29-0.347,29.239-34.741,51.562-34.741V489.143z M440.665,397.882v19.266c-5.998-1.777-20.011-6.09-31.14-10.762
			C417.096,402.918,429.812,397.957,440.665,397.882z M208.244,458.408l0.528-1.793c4.388-14.881,9.55-16.689,18.921-19.973
			c1.743-0.611,3.544-1.242,5.5-2.009c3.98-1.561,9.2-2.454,14.727-3.398c11.64-1.991,24.833-4.247,34.221-13.635
			c4.6-4.6,7.943-10.191,10.37-16.094l20.417,7.979l1.441-0.802c0.212-0.118,21.433-11.808,41.047-11.808
			c17.585,0,28.751,5.333,41.68,11.509c1.675,0.8,3.366,1.608,5.09,2.413c13.483,6.292,33.64,12.252,38.48,13.646v16.682
			c-22.604,0-48.701,27.872-55.366,35.435c-5.222-1.629-18.727-5.185-37.134-5.185c-7.699,0-14.875,0.995-21.417,2.554
			c0.507-0.705,3.417-5.108,3.417-13.285c0-8.954-3.5-13.936-3.5-13.936s-3.5,4.981-3.5,13.936c0,8.294,2.999,12.71,3.441,13.317
			c-7.649,1.835-14.416,4.444-20.102,7.165c1.367-2.19,4.661-8.57,4.661-19.222c0-13.431-5.25-20.904-5.25-20.904
			s-5.25,7.473-5.25,20.904c0,11.481,3.827,18.001,4.941,19.658c-9.1,4.461-15.29,9.114-17.673,11.037
			c-2.188-0.317-4.441-0.626-6.761-0.926c1.558-2.285,6.243-10.303,6.243-24.173c0-16.625-6.75-25.875-6.75-25.875
			s-6.75,9.25-6.75,25.875c0,13.566,4.492,21.551,6.146,24.031c-21.616-2.742-49.015-4.681-84.189-4.886
			C202.417,478.188,204.112,472.441,208.244,458.408z M374.665,531.875c-119.208,0-210.656,33.717-231.28,41.984
			c0.385-3.102,0.95-7.051,1.475-10.724c1.186-8.292,2.305-16.125,2.305-19.51c0-4.41-2.915-7.539-5.257-10.052
			c-1.668-1.79-3.243-3.481-3.25-4.852c0.255-1.156,3.959-4.813,11.731-8.422c0.557-0.258,1.181-0.542,1.864-0.854
			c7.885-3.59,24.293-11.061,36.5-24.464c0.421-0.462,0.829-0.914,1.226-1.356c99.729,0.029,138.052,13.809,158.647,21.216
			c7.723,2.777,13.302,4.784,18.789,4.784c8.417,0,16.55-4.241,25.966-9.152c12.735-6.642,27.159-14.145,47.284-14.33v37.616
			C419.303,532.509,397.1,531.875,374.665,531.875z"/>
		<path fill="#5D2C19" d="M691.448,326.375v170.561c4.769,0.95,9.614,1.564,14.5,1.812V326.375H691.448z"/>
		<path fill="#5D2C19" d="M754.165,326.375h-15.717v168.599c5.395-1.537,10.653-3.507,15.717-5.873V326.375z"/>
		<path fill="#5D2C19" d="M714.948,326.375v172.409c4.883-0.203,9.729-0.769,14.5-1.675V326.375H714.948z"/>
		<path fill="#5D2C19" d="M666.165,326.375v162.026c5.232,2.543,10.682,4.666,16.283,6.317V326.375H666.165z"/>
		<path fill="#5D2C19" d="M38.496,624.542c0.234,0,0.473-0.023,0.711-0.073c0.021-0.004,2.09-0.43,5.767-1.043
			c1.907-0.318,3.195-2.121,2.876-4.028c-0.318-1.907-2.122-3.197-4.028-2.876c-3.827,0.638-5.945,1.074-6.033,1.093
			c-1.893,0.391-3.109,2.243-2.718,4.136C35.413,623.404,36.87,624.542,38.496,624.542z"/>
		<path fill="#5D2C19" d="M196.433,630.6c0.256,0.057,0.512,0.085,0.765,0.085c1.604,0,3.05-1.109,3.413-2.74
			c0.42-1.887-0.768-3.757-2.655-4.177c-3.99-0.889-8.068-1.756-12.122-2.578c-1.896-0.387-3.742,0.84-4.125,2.735
			s0.84,3.742,2.735,4.125C188.453,628.863,192.487,629.721,196.433,630.6z"/>
		<path fill="#5D2C19" d="M254.743,648.429c0.425,0.169,0.863,0.25,1.294,0.25c1.391,0,2.707-0.835,3.252-2.206
			c0.715-1.796-0.161-3.832-1.956-4.547c-3.975-1.583-7.873-3.082-11.584-4.452c-1.812-0.671-3.826,0.257-4.496,2.071
			c-0.67,1.813,0.257,3.826,2.071,4.496C246.981,645.391,250.823,646.867,254.743,648.429z"/>
		<path fill="#5D2C19" d="M218.922,636.088c2.241,0.603,4.628,1.293,7.095,2.052c0.342,0.105,0.689,0.156,1.029,0.156
			c1.497,0,2.882-0.967,3.345-2.473c0.568-1.848-0.47-3.806-2.317-4.374c-2.544-0.783-5.011-1.496-7.332-2.121
			c-1.487-0.4-3.054-0.812-4.692-1.234c-1.872-0.482-3.78,0.645-4.262,2.517s0.645,3.78,2.517,4.262
			C215.917,635.289,217.459,635.694,218.922,636.088z"/>
		<path fill="#5D2C19" d="M154.285,622.726c3.944,0.587,8.012,1.24,12.092,1.941c0.2,0.034,0.4,0.051,0.596,0.051
			c1.673,0,3.153-1.204,3.446-2.908c0.327-1.905-0.952-3.715-2.857-4.042c-4.131-0.709-8.251-1.371-12.246-1.965
			c-1.919-0.283-3.693,1.035-3.978,2.946C151.054,620.66,152.373,622.441,154.285,622.726z"/>
		<path fill="#5D2C19" d="M105.723,611.542h-0.225c-4.024,0-8.13,0.068-12.205,0.201c-1.932,0.063-3.447,1.68-3.384,3.612
			c0.062,1.893,1.616,3.386,3.496,3.386c0.039,0,0.077,0,0.116-0.002c3.999-0.13,8.029-0.197,11.977-0.197h0.225
			c1.933,0,3.5-1.567,3.5-3.5S107.656,611.542,105.723,611.542z"/>
		<path fill="#5D2C19" d="M136.837,613.415c-4.258-0.459-8.427-0.839-12.392-1.129c-1.932-0.14-3.605,1.307-3.747,3.235
			s1.307,3.605,3.235,3.747c3.885,0.285,7.974,0.657,12.153,1.108c0.127,0.014,0.254,0.021,0.379,0.021
			c1.765,0,3.282-1.331,3.476-3.125C140.149,615.348,138.759,613.623,136.837,613.415z"/>
		<path fill="#5D2C19" d="M62.695,620.956c0.13,0,0.261-0.007,0.393-0.022c4.001-0.447,8.09-0.839,12.153-1.165
			c1.927-0.154,3.363-1.841,3.209-3.769c-0.154-1.927-1.836-3.36-3.769-3.209c-4.135,0.332-8.297,0.73-12.371,1.185
			c-1.921,0.215-3.304,1.946-3.09,3.867C59.421,619.633,60.937,620.956,62.695,620.956z"/>
		<path fill="#5D2C19" d="M215.321,574.798c-0.494-1.869-2.411-2.981-4.279-2.489c-3.833,1.014-7.75,2.082-11.643,3.175
			c-1.861,0.522-2.946,2.455-2.423,4.316c0.434,1.544,1.838,2.555,3.368,2.555c0.313,0,0.632-0.042,0.948-0.131
			c3.858-1.083,7.741-2.143,11.54-3.147C214.701,578.583,215.815,576.667,215.321,574.798z"/>
		<path fill="#5D2C19" d="M244.526,567.822c-0.42-1.888-2.29-3.076-4.176-2.657c-3.89,0.865-7.846,1.779-11.76,2.717
			c-1.88,0.451-3.038,2.34-2.588,4.22c0.385,1.605,1.819,2.685,3.401,2.685c0.27,0,0.544-0.032,0.819-0.097
			c3.876-0.929,7.796-1.835,11.648-2.692C243.756,571.579,244.946,569.708,244.526,567.822z"/>
		<path fill="#5D2C19" d="M182.031,580.573c-3.855,1.176-7.73,2.391-11.518,3.61c-1.84,0.592-2.851,2.564-2.259,4.404
			c0.478,1.483,1.852,2.428,3.331,2.428c0.355,0,0.717-0.055,1.074-0.169c3.753-1.208,7.594-2.413,11.416-3.578
			c1.849-0.564,2.89-2.52,2.326-4.369C185.835,581.051,183.88,580.008,182.031,580.573z"/>
		<path fill="#5D2C19" d="M303.702,557.873c-0.232-1.919-1.976-3.282-3.895-3.054c-3.926,0.475-7.951,1.008-11.963,1.585
			c-1.913,0.275-3.241,2.049-2.966,3.963c0.251,1.744,1.748,3.002,3.46,3.002c0.166,0,0.334-0.012,0.503-0.036
			c3.96-0.57,7.933-1.096,11.807-1.565C302.566,561.536,303.934,559.792,303.702,557.873z"/>
		<path fill="#5D2C19" d="M274.001,562.107c-0.334-1.904-2.148-3.181-4.052-2.843c-3.894,0.683-7.889,1.422-11.875,2.199
			c-1.897,0.37-3.136,2.208-2.766,4.105c0.326,1.671,1.791,2.831,3.432,2.831c0.222,0,0.448-0.021,0.673-0.065
			c3.942-0.769,7.894-1.5,11.745-2.176C273.062,565.826,274.335,564.012,274.001,562.107z"/>
		<path fill="#5D2C19" d="M333.627,555.435c-0.106-1.93-1.747-3.422-3.687-3.302c-3.947,0.217-8.014,0.499-12.085,0.837
			c-1.926,0.16-3.358,1.852-3.198,3.778c0.152,1.828,1.682,3.21,3.484,3.21c0.097,0,0.195-0.004,0.294-0.012
			c4.007-0.333,8.007-0.61,11.89-0.824C332.254,559.016,333.733,557.365,333.627,555.435z"/>
		<path fill="#5D2C19" d="M393.606,555.333c0.027-1.933-1.517-3.521-3.45-3.549c-3.745-0.053-7.742-0.098-12.008-0.135
			c-1.941-0.013-3.514,1.537-3.53,3.47c-0.017,1.933,1.537,3.514,3.47,3.53c4.252,0.037,8.237,0.081,11.97,0.134
			c0.017,0,0.034,0,0.05,0C392.018,558.784,393.579,557.25,393.606,555.333z"/>
		<path fill="#5D2C19" d="M419.923,559.522c0.047,0.002,0.095,0.003,0.142,0.003c1.869,0,3.419-1.477,3.495-3.36
			c0.077-1.931-1.426-3.56-3.357-3.637c-3.65-0.146-7.696-0.277-12.026-0.391c-0.031,0-0.062-0.001-0.094-0.001
			c-1.89,0-3.447,1.507-3.497,3.408c-0.05,1.933,1.475,3.54,3.407,3.591C412.291,559.247,416.305,559.377,419.923,559.522z"/>
		<path fill="#5D2C19" d="M348.162,558.552c4.11-0.032,8.139-0.009,11.958,0c0.003,0,0.006,0,0.009,0c1.929,0,3.495-1.562,3.5-3.491
			c0.005-1.933-1.559-3.504-3.491-3.509c-3.842-0.01-7.906-0.032-12.029,0c-1.933,0.015-3.488,1.594-3.474,3.526
			c0.015,1.924,1.579,3.474,3.5,3.474C348.144,558.552,348.153,558.552,348.162,558.552z"/>
		<path fill="#5D2C19" d="M236.341,594.949c0.262,0,0.528-0.03,0.794-0.092c2.523-0.586,5.119-1.176,7.779-1.767
			c1.887-0.419,3.077-2.289,2.658-4.175s-2.29-3.079-4.175-2.658c-2.682,0.596-5.299,1.191-7.844,1.782
			c-1.883,0.437-3.055,2.318-2.618,4.201C233.311,593.856,234.75,594.949,236.341,594.949z"/>
		<path fill="#5D2C19" d="M411.098,579.697c1.877,0,3.43-1.488,3.496-3.378c0.067-1.932-1.445-3.552-3.376-3.62
			c-2.498-0.086-5.167-0.169-8.019-0.247c-1.928-0.048-3.541,1.471-3.593,3.403c-0.053,1.933,1.471,3.542,3.403,3.594
			c2.833,0.077,5.484,0.159,7.965,0.246C411.016,579.697,411.057,579.697,411.098,579.697z"/>
		<path fill="#5D2C19" d="M294.821,580.225c-0.292-1.911-2.078-3.221-3.988-2.932c-2.668,0.407-5.32,0.83-7.953,1.267
			c-1.907,0.316-3.197,2.118-2.881,4.025c0.284,1.713,1.768,2.928,3.449,2.928c0.19,0,0.383-0.016,0.577-0.048
			c2.604-0.432,5.227-0.85,7.864-1.252C293.8,583.921,295.112,582.136,294.821,580.225z"/>
		<path fill="#5D2C19" d="M271.124,584.167c-0.361-1.899-2.192-3.146-4.091-2.786c-2.668,0.507-5.303,1.022-7.897,1.544
			c-1.896,0.381-3.123,2.226-2.742,4.121c0.334,1.663,1.794,2.811,3.427,2.811c0.229,0,0.461-0.022,0.693-0.069
			c2.571-0.517,5.181-1.027,7.824-1.529C270.238,587.897,271.485,586.065,271.124,584.167z"/>
		<path fill="#5D2C19" d="M342.621,575.582c-0.093-1.931-1.739-3.402-3.664-3.329c-2.625,0.126-5.34,0.286-8.069,0.476
			c-1.929,0.135-3.383,1.807-3.249,3.735c0.129,1.846,1.666,3.257,3.488,3.257c0.082,0,0.164-0.003,0.247-0.008
			c2.679-0.187,5.343-0.344,7.917-0.467C341.223,579.153,342.713,577.513,342.621,575.582z"/>
		<path fill="#5D2C19" d="M387.172,572.114c-2.562-0.041-5.232-0.076-8.012-0.107c-0.013,0-0.026,0-0.04,0
			c-1.915,0-3.478,1.542-3.499,3.461c-0.021,1.933,1.528,3.517,3.461,3.539c2.769,0.03,5.427,0.066,7.978,0.106
			c0.019,0,0.038,0,0.057,0c1.907,0,3.468-1.531,3.499-3.444C390.647,573.736,389.105,572.145,387.172,572.114z"/>
		<path fill="#5D2C19" d="M318.663,577.268c-0.206-1.922-1.935-3.311-3.853-3.107c-2.674,0.286-5.347,0.595-8.015,0.924
			c-1.918,0.237-3.282,1.984-3.045,3.902c0.219,1.773,1.728,3.072,3.469,3.072c0.143,0,0.288-0.009,0.433-0.027
			c2.631-0.325,5.266-0.629,7.903-0.912C317.477,580.915,318.869,579.189,318.663,577.268z"/>
		<path fill="#5D2C19" d="M434.77,580.931c0.092,0.007,0.184,0.01,0.274,0.01c1.81,0,3.343-1.395,3.486-3.229
			c0.149-1.927-1.292-3.611-3.219-3.76c-2.415-0.187-5.121-0.367-8.044-0.534c-1.913-0.112-3.583,1.364-3.694,3.294
			s1.364,3.584,3.294,3.694C429.743,580.57,432.401,580.747,434.77,580.931z"/>
		<path fill="#5D2C19" d="M213.01,600.715c0.294,0,0.593-0.038,0.89-0.115c2.424-0.636,5.005-1.301,7.729-1.988
			c1.875-0.473,3.011-2.375,2.538-4.25c-0.473-1.874-2.375-3.013-4.25-2.538c-2.747,0.692-5.35,1.363-7.793,2.004
			c-1.87,0.491-2.988,2.404-2.498,4.273C210.039,599.674,211.457,600.715,213.01,600.715z"/>
		<path fill="#5D2C19" d="M363.128,578.89c1.927,0,3.493-1.559,3.5-3.488c0.006-1.933-1.555-3.505-3.488-3.512
			c-2.591-0.009-5.259-0.014-8.007-0.015c0,0-0.001,0-0.001,0c-1.933,0-3.5,1.566-3.5,3.499c0,1.933,1.566,3.501,3.499,3.501
			c2.741,0.001,5.403,0.006,7.987,0.015C363.12,578.89,363.124,578.89,363.128,578.89z"/>
		<path fill="#5D2C19" d="M302.108,603.875c0.163,0,0.328-0.011,0.493-0.035c1.964-0.277,3.937-0.547,5.914-0.809
			c1.916-0.253,3.264-2.012,3.011-3.929c-0.254-1.916-2.011-3.262-3.929-3.011c-1.997,0.264-3.99,0.537-5.973,0.816
			c-1.914,0.27-3.247,2.041-2.977,3.955C298.894,602.611,300.392,603.875,302.108,603.875z"/>
		<path fill="#5D2C19" d="M427.919,601.531c1.83,0,3.37-1.422,3.489-3.274c0.125-1.929-1.338-3.594-3.267-3.718
			c-1.879-0.122-3.887-0.246-6.012-0.372c-1.908-0.116-3.586,1.358-3.7,3.288c-0.114,1.93,1.358,3.586,3.288,3.7
			c2.111,0.125,4.105,0.248,5.973,0.369C427.767,601.528,427.843,601.531,427.919,601.531z"/>
		<path fill="#5D2C19" d="M287.75,602.534c-0.313-1.907-2.112-3.2-4.021-2.886c-2.012,0.33-3.997,0.664-5.949,0.998
			c-1.905,0.326-3.185,2.135-2.859,4.041c0.292,1.706,1.772,2.91,3.445,2.91c0.196,0,0.396-0.017,0.595-0.051
			c1.937-0.332,3.906-0.662,5.902-0.99C286.771,606.242,288.064,604.442,287.75,602.534z"/>
		<path fill="#5D2C19" d="M403.786,600.24c0.052,0.002,0.103,0.003,0.154,0.003c1.863,0,3.413-1.469,3.494-3.349
			c0.084-1.931-1.414-3.564-3.345-3.648c-1.956-0.085-3.963-0.166-6.017-0.244c-1.95-0.063-3.557,1.433-3.63,3.365
			c-0.073,1.932,1.433,3.557,3.365,3.63C399.847,600.075,401.841,600.156,403.786,600.24z"/>
		<path fill="#5D2C19" d="M379.94,599.462c1.897,0,3.456-1.517,3.498-3.424c0.042-1.933-1.49-3.533-3.423-3.575
			c-1.981-0.043-3.989-0.082-6.021-0.115c-0.02,0-0.039,0-0.058,0c-1.906,0-3.467,1.529-3.499,3.443
			c-0.032,1.933,1.509,3.525,3.442,3.557c2.02,0.033,4.015,0.072,5.983,0.114C379.889,599.461,379.915,599.462,379.94,599.462z"/>
		<path fill="#5D2C19" d="M325.611,593.991c-1.923,0.191-3.328,1.905-3.137,3.829c0.18,1.806,1.701,3.154,3.479,3.154
			c0.116,0,0.233-0.006,0.351-0.018c1.99-0.198,3.97-0.382,5.936-0.551c1.926-0.166,3.353-1.861,3.188-3.787
			c-0.166-1.926-1.868-3.352-3.787-3.188C329.643,593.604,327.632,593.791,325.611,593.991z"/>
		<path fill="#5D2C19" d="M349.925,599.326c0.037,0,0.074,0,0.112-0.002c2.038-0.063,4.027-0.102,5.914-0.112
			c1.933-0.011,3.491-1.587,3.48-3.52s-1.579-3.49-3.52-3.48c-1.946,0.011-3.996,0.05-6.093,0.116
			c-1.932,0.061-3.449,1.676-3.388,3.608C346.488,597.831,348.042,599.326,349.925,599.326z"/>
		<path fill="#5D2C19" d="M259.979,603.864c-2.053,0.391-4.031,0.772-5.921,1.144c-1.897,0.372-3.133,2.211-2.761,4.108
			c0.328,1.67,1.791,2.827,3.431,2.827c0.224,0,0.45-0.021,0.677-0.066c1.879-0.368,3.843-0.748,5.882-1.136
			c1.899-0.361,3.146-2.193,2.785-4.092C263.709,604.75,261.876,603.502,259.979,603.864z"/>
		<path fill="#5D2C19" d="M376.104,618.208c1.932,0,3.498-1.565,3.5-3.497c0.002-1.933-1.564-3.501-3.497-3.503l-1.611,0
			c-0.807,0-1.611,0.002-2.412,0.007c-1.933,0.011-3.491,1.586-3.48,3.52c0.011,1.926,1.576,3.48,3.5,3.48c0.006,0,0.013,0,0.02,0
			c0.79-0.004,1.582-0.006,2.375-0.007l1.602,0C376.102,618.208,376.103,618.208,376.104,618.208z"/>
		<path fill="#5D2C19" d="M350.107,618.864c0.062,0,0.125-0.001,0.189-0.005c1.312-0.07,2.634-0.135,3.966-0.194
			c1.931-0.086,3.427-1.722,3.34-3.653c-0.086-1.931-1.72-3.443-3.653-3.34c-1.353,0.061-2.694,0.126-4.026,0.197
			c-1.93,0.103-3.412,1.751-3.309,3.681C346.715,617.417,348.26,618.864,350.107,618.864z"/>
		<path fill="#5D2C19" d="M415.925,618.876c1.393,0.056,2.712,0.114,3.962,0.175c0.058,0.002,0.115,0.004,0.172,0.004
			c1.855,0,3.402-1.458,3.493-3.331c0.093-1.931-1.396-3.572-3.327-3.666c-1.269-0.061-2.607-0.12-4.021-0.177
			c-1.945-0.079-3.56,1.425-3.637,3.357C412.491,617.17,413.994,618.799,415.925,618.876z"/>
		<path fill="#5D2C19" d="M313.755,618.691c-0.265-1.915-2.03-3.254-3.946-2.989c-1.354,0.187-2.685,0.376-3.991,0.568
			c-1.913,0.28-3.236,2.058-2.956,3.97c0.255,1.741,1.75,2.993,3.458,2.993c0.168,0,0.34-0.012,0.512-0.038
			c1.288-0.188,2.599-0.375,3.933-0.559C312.682,622.372,314.02,620.605,313.755,618.691z"/>
		<path fill="#5D2C19" d="M328.516,620.529c1.304-0.13,2.622-0.256,3.956-0.378c1.925-0.176,3.342-1.88,3.166-3.805
			s-1.88-3.341-3.805-3.166c-1.352,0.124-2.689,0.251-4.011,0.383c-1.923,0.192-3.327,1.907-3.136,3.83
			c0.18,1.806,1.702,3.153,3.479,3.153C328.281,620.546,328.398,620.541,328.516,620.529z"/>
		<path fill="#5D2C19" d="M284.627,626.944c0.224,0,0.452-0.021,0.68-0.066c1.251-0.247,2.551-0.496,3.898-0.748
			c1.9-0.355,3.152-2.184,2.797-4.083c-0.355-1.9-2.183-3.152-4.083-2.797c-1.37,0.256-2.692,0.51-3.964,0.761
			c-1.896,0.374-3.131,2.214-2.758,4.11C281.525,625.788,282.989,626.944,284.627,626.944z"/>
		<path fill="#5D2C19" d="M398.028,618.389c0.021,0,0.041,0,0.061,0c1.905,0,3.466-1.528,3.499-3.44
			c0.033-1.933-1.507-3.526-3.44-3.559c-1.298-0.022-2.635-0.042-4.01-0.06c-1.928-0.039-3.52,1.521-3.545,3.454
			c-0.026,1.933,1.521,3.52,3.454,3.545C395.411,618.347,396.739,618.367,398.028,618.389z"/>
		<path fill="#5D2C19" d="M417.934,639.109l1.974,0.26c0.157,0.021,0.313,0.031,0.467,0.031c1.727,0,3.23-1.279,3.465-3.038
			c0.255-1.916-1.09-3.677-3.006-3.932l-1.996-0.263c-1.92-0.255-3.673,1.103-3.922,3.019
			C414.665,637.104,416.017,638.859,417.934,639.109z"/>
		<path fill="#5D2C19" d="M371.499,628.542l-1.003,0.003c-1.933,0.012-3.491,1.588-3.479,3.521c0.011,1.926,1.576,3.479,3.5,3.479
			c0.007,0,0.014,0,0.021,0l0.962-0.003l1.002,0.002c0.005,0,0.01,0,0.016,0c1.926,0,3.491-1.557,3.5-3.485
			c0.008-1.933-1.552-3.507-3.485-3.515L371.499,628.542z"/>
		<path fill="#5D2C19" d="M433.703,641.367l1.971,0.311c0.186,0.029,0.37,0.043,0.552,0.043c1.691,0,3.179-1.229,3.453-2.953
			c0.302-1.909-1-3.702-2.909-4.005l-1.986-0.312c-1.909-0.296-3.7,1.008-3.998,2.918S431.793,641.069,433.703,641.367z"/>
		<path fill="#5D2C19" d="M402.128,637.284c0.66,0.065,1.318,0.132,1.973,0.201c0.125,0.013,0.248,0.02,0.37,0.02
			c1.769,0,3.288-1.337,3.477-3.135c0.202-1.923-1.193-3.645-3.116-3.846c-0.667-0.07-1.337-0.138-2.009-0.205
			c-1.919-0.19-3.638,1.212-3.83,3.136C398.801,635.377,400.205,637.092,402.128,637.284z"/>
		<path fill="#5D2C19" d="M322.613,639.242c0.138,0,0.277-0.008,0.417-0.025l1.98-0.232c1.92-0.224,3.295-1.961,3.072-3.881
			c-0.224-1.92-1.958-3.298-3.881-3.072l-1.996,0.234c-1.919,0.228-3.291,1.969-3.063,3.888
			C319.354,637.934,320.865,639.242,322.613,639.242z"/>
		<path fill="#5D2C19" d="M386.311,636.012c0.657,0.039,1.316,0.079,1.974,0.122c0.077,0.005,0.153,0.007,0.229,0.007
			c1.83,0,3.37-1.422,3.489-3.274c0.125-1.929-1.338-3.594-3.267-3.718c-0.672-0.043-1.343-0.085-2.014-0.125
			c-1.929-0.108-3.586,1.358-3.7,3.289C382.909,634.242,384.381,635.898,386.311,636.012z"/>
		<path fill="#5D2C19" d="M308.246,634.025l-1.992,0.267c-1.916,0.259-3.259,2.021-3,3.937c0.237,1.757,1.739,3.032,3.464,3.032
			c0.156,0,0.314-0.011,0.473-0.032l1.979-0.266c1.916-0.254,3.263-2.014,3.008-3.931
			C311.922,635.118,310.164,633.771,308.246,634.025z"/>
		<path fill="#5D2C19" d="M338.541,637.513c0.114,0,0.229-0.006,0.345-0.017l1.982-0.19c1.924-0.181,3.338-1.888,3.157-3.812
			c-0.181-1.924-1.881-3.333-3.812-3.157l-2.007,0.193c-1.924,0.188-3.331,1.9-3.143,3.824
			C335.238,636.161,336.761,637.513,338.541,637.513z"/>
		<path fill="#5D2C19" d="M354.507,636.185c0.078,0,0.156-0.002,0.235-0.008c0.663-0.044,1.322-0.086,1.977-0.125
			c1.929-0.117,3.399-1.775,3.282-3.705s-1.788-3.395-3.705-3.282c-0.669,0.041-1.342,0.083-2.018,0.128
			c-1.929,0.128-3.388,1.795-3.26,3.724C351.141,634.767,352.68,636.185,354.507,636.185z"/>
		<path fill="#5D2C19" d="M82.658,633.926c-1.931,0.091-3.422,1.73-3.332,3.661c0.088,1.875,1.636,3.335,3.493,3.335
			c0.056,0,0.112-0.001,0.167-0.004c1.939-0.091,3.919-0.168,5.937-0.228c1.932-0.058,3.452-1.67,3.395-3.603
			c-0.058-1.932-1.646-3.443-3.603-3.395C86.657,633.754,84.636,633.833,82.658,633.926z"/>
		<path fill="#5D2C19" d="M55.419,639.761c0.206,1.784,1.719,3.1,3.473,3.1c0.134,0,0.269-0.008,0.405-0.023
			c1.879-0.217,3.852-0.428,5.91-0.63c1.923-0.189,3.33-1.902,3.141-3.826c-0.189-1.923-1.897-3.328-3.826-3.141
			c-2.098,0.206-4.11,0.422-6.027,0.643C56.575,636.104,55.198,637.841,55.419,639.761z"/>
		<path fill="#5D2C19" d="M41.672,645.364c1.904-0.333,3.178-2.146,2.845-4.051c-0.333-1.904-2.145-3.181-4.051-2.845
			c-3.836,0.671-5.963,1.136-6.051,1.155c-1.888,0.414-3.083,2.28-2.668,4.168c0.358,1.636,1.807,2.751,3.416,2.751
			c0.248,0,0.5-0.026,0.752-0.082C35.935,646.457,38.002,646.005,41.672,645.364z"/>
		<path fill="#5D2C19" d="M174.674,646.568c-0.417,1.888,0.776,3.755,2.664,4.172c2.024,0.446,3.969,0.887,5.827,1.317
			c0.265,0.061,0.53,0.091,0.792,0.091c1.593,0,3.033-1.094,3.407-2.712c0.436-1.883-0.738-3.763-2.622-4.199
			c-1.879-0.435-3.848-0.88-5.895-1.333C176.959,643.492,175.091,644.681,174.674,646.568z"/>
		<path fill="#5D2C19" d="M153.922,646.092c1.987,0.349,3.946,0.705,5.872,1.064c0.217,0.041,0.434,0.06,0.647,0.06
			c1.652,0,3.122-1.175,3.437-2.857c0.355-1.9-0.897-3.729-2.797-4.083c-1.951-0.365-3.937-0.726-5.949-1.078
			c-1.908-0.337-3.718,0.939-4.052,2.843C150.745,643.945,152.018,645.759,153.922,646.092z"/>
		<path fill="#5D2C19" d="M137.188,636.408c-1.996-0.268-4.001-0.522-6.013-0.76c-1.918-0.231-3.66,1.145-3.887,3.064
			c-0.228,1.919,1.145,3.66,3.064,3.887c1.975,0.234,3.945,0.483,5.905,0.746c0.158,0.021,0.314,0.032,0.469,0.032
			c1.726,0,3.229-1.277,3.464-3.035C140.449,638.426,139.104,636.665,137.188,636.408z"/>
		<path fill="#5D2C19" d="M103.329,637.064c-0.072,1.932,1.436,3.556,3.368,3.627c1.92,0.071,3.911,0.169,5.917,0.291
			c0.072,0.004,0.144,0.006,0.215,0.006c1.836,0,3.377-1.431,3.49-3.288c0.117-1.929-1.352-3.588-3.282-3.706
			c-2.06-0.125-4.106-0.226-6.081-0.299C105.001,633.623,103.4,635.133,103.329,637.064z"/>
		<path fill="#5D2C19" d="M227.54,462.75c0,16.625,6.75,24.875,6.75,24.875s6.75-8.25,6.75-24.875s-6.75-25.875-6.75-25.875
			S227.54,446.125,227.54,462.75z"/>
		<path fill="#5D2C19" d="M250.915,463.875c0,16.625,6.75,24.875,6.75,24.875s6.75-8.25,6.75-24.875S257.665,438,257.665,438
			S250.915,447.25,250.915,463.875z"/>
		<path fill="#5D2C19" d="M215.207,283.94c-3.185-15.203-15.778-21.394-15.778-21.394s-9.049,10.726-5.864,25.928
			c3.186,15.203,15.587,20.48,15.587,20.48S218.392,299.143,215.207,283.94z"/>
		<path fill="#5D2C19" d="M188.818,269.621c0,0,9.241-9.812,6.055-25.014c-3.185-15.203-15.778-21.394-15.778-21.394
			s-9.049,10.726-5.864,25.928C176.417,264.343,188.818,269.621,188.818,269.621z"/>
		<path fill="#5D2C19" d="M164.854,334.374c0,0,10.318-8.481,8.925-23.516c-1.392-15.035-13.176-22.38-13.176-22.38
			s-10.234,9.385-8.842,24.419C153.155,327.932,164.854,334.374,164.854,334.374z"/>
		<path fill="#5D2C19" d="M130.233,249.074c0,0-6.219,12.415,0.439,25.967c6.659,13.552,19.885,15.403,19.885,15.403
			s6.62-11.601-0.039-25.153C143.861,251.739,130.233,249.074,130.233,249.074z"/>
		<path fill="#5D2C19" d="M187.922,293.65c0,0,3.86-12.786-5.658-24.508c-9.517-11.722-23.396-11.275-23.396-11.275
			s-3.288,13.491,6.23,25.213C174.617,294.801,187.922,293.65,187.922,293.65z"/>
		<path fill="#5D2C19" d="M160.891,255.444c0,0,6.62-11.601-0.039-25.153c-6.658-13.552-20.285-16.217-20.285-16.217
			s-6.219,12.415,0.439,25.967C147.665,253.593,160.891,255.444,160.891,255.444z"/>
		<path fill="#5D2C19" d="M117.733,254.808c-9.715-11.559-23.584-10.875-23.584-10.875s-3.058,13.544,6.657,25.103
			c9.716,11.558,23,10.181,23,10.181S127.449,266.366,117.733,254.808z"/>
		<path fill="#5D2C19" d="M95.016,301.841c11.337,9.973,24.266,6.622,24.266,6.622s1.676-13.25-9.661-23.224
			c-11.337-9.973-24.947-7.221-24.947-7.221S83.679,291.868,95.016,301.841z"/>
		<path fill="#5D2C19" d="M120.117,317.546c-12.967-7.736-25.846-2.545-25.846-2.545s1.55,13.798,14.517,21.534
			c12.968,7.735,25.067,2.08,25.067,2.08S133.084,325.281,120.117,317.546z"/>
		<path fill="#5D2C19" d="M107.114,364.534c14.776-3.107,19.835-15.468,19.835-15.468s-9.608-9.278-24.384-6.17
			c-14.776,3.107-20.722,15.655-20.722,15.655S92.338,367.64,107.114,364.534z"/>
		<path fill="#5D2C19" d="M51.705,335.474c0,0,8.873,10.681,23.957,10.026c15.085-0.656,22.092-12.025,22.092-12.025
			s-7.966-10.721-23.051-10.065C59.617,324.064,51.705,335.474,51.705,335.474z"/>
		<path fill="#5D2C19" d="M73.179,319.014c12.734-0.553,18.654-10.05,18.654-10.05s-6.72-8.949-19.455-8.396
			c-12.735,0.553-19.419,10.083-19.419,10.083S60.445,319.567,73.179,319.014z"/>
		<path fill="#5D2C19" d="M60.351,293.525c11.996,4.31,21.071-2.239,21.071-2.239S78.59,280.46,66.594,276.15
			c-11.996-4.31-21.791,1.98-21.791,1.98S48.356,289.216,60.351,293.525z"/>
		<path fill="#5D2C19" d="M356.75,368.125c0,0-5.131-9.946-17.778-11.528c-12.648-1.583-20.831,6.697-20.831,6.697
			s5.89,10.041,18.538,11.623S356.75,368.125,356.75,368.125z"/>
		<path fill="#5D2C19" d="M327.142,316.293c0,0,5.89,10.041,18.538,11.623s20.071-6.792,20.071-6.792s-5.131-9.946-17.778-11.528
			C335.324,308.013,327.142,316.293,327.142,316.293z"/>
		<path fill="#5D2C19" d="M364.644,358.908c12.729-0.667,18.564-10.216,18.564-10.216s-6.8-8.888-19.529-8.222
			c-12.729,0.667-19.328,10.257-19.328,10.257S351.915,359.574,364.644,358.908z"/>
		<path fill="#5D2C19" d="M398.12,297.561c0,0-8.149-7.67-20.602-4.953c-12.454,2.718-17.413,13.25-17.413,13.25
			s8.896,7.507,21.349,4.789C393.907,307.928,398.12,297.561,398.12,297.561z"/>
		<path fill="#5D2C19" d="M356.135,272.167c11.086-6.292,12.032-17.442,12.032-17.442s-10.058-4.907-21.144,1.384
			c-11.086,6.291-12.697,17.819-12.697,17.819S345.05,278.457,356.135,272.167z"/>
		<path fill="#5D2C19" d="M332.873,252.404c8.774-9.247,6.433-20.189,6.433-20.189s-11.051-1.767-19.825,7.479
			c-8.774,9.246-6.96,20.744-6.96,20.744S324.098,261.648,332.873,252.404z"/>
		<path fill="#5D2C19" d="M78.759,252.28c-10.812-6.751-21.717-2.676-21.717-2.676s1.126,11.586,11.938,18.336
			c10.812,6.75,21.067,2.271,21.067,2.271S89.571,259.03,78.759,252.28z"/>
		<path fill="#5D2C19" d="M253.325,372.216c10.521,0.739,16.279-6.514,16.279-6.514s-4.686-7.988-15.208-8.727
			c-10.522-0.738-16.912,6.47-16.912,6.47S242.804,371.477,253.325,372.216z"/>
		<path fill="#5D2C19" d="M315.813,386.75c8.817,4.136,16.189-0.196,16.189-0.196s-1.379-8.439-10.198-12.576
			c-8.819-4.136-16.72-0.051-16.72-0.051S306.996,382.615,315.813,386.75z"/>
		<path fill="#5D2C19" d="M361.114,244.042c8.329-6.473,7.776-15.716,7.776-15.716s-8.821-2.821-17.15,3.651
			c-8.328,6.473-8.275,16.105-8.275,16.105S352.786,250.514,361.114,244.042z"/>
		<path fill="#5D2C19" d="M56.75,241.257c13.817,6.089,25.133-1.006,25.133-1.006s-2.398-13.139-16.215-19.229
			c-13.817-6.089-25.963,0.64-25.963,0.64S42.933,235.167,56.75,241.257z"/>
		<path fill="#5D2C19" d="M228.697,335.229c3.548-15.122-5.242-26.061-5.242-26.061s-12.737,5.889-16.285,21.01
			c-3.547,15.123,5.456,25.152,5.456,25.152S225.15,350.352,228.697,335.229z"/>
		<path fill="#5D2C19" d="M289.985,313.388c3.772-15.067-4.854-26.136-4.854-26.136s-12.823,5.699-16.596,20.766
			c-3.772,15.068,5.081,25.231,5.081,25.231S286.213,328.456,289.985,313.388z"/>
		<path fill="#5D2C19" d="M221.415,278.043c-2.808,15.277,6.671,24.858,6.671,24.858s12.268-5.582,15.077-20.859
			c2.809-15.276-6.501-25.775-6.501-25.775S224.224,262.768,221.415,278.043z"/>
		<path fill="#5D2C19" d="M213.959,267.332c0,0,12.524-4.979,16.071-20.102c3.548-15.122-5.242-26.061-5.242-26.061
			s-12.737,5.889-16.285,21.01C204.956,257.302,213.959,267.332,213.959,267.332z"/>
		<path fill="#5D2C19" d="M257.447,280.591c0,0,11.45-7.109,12.275-22.621c0.826-15.51-9.755-24.728-9.755-24.728
			s-11.5,8.042-12.326,23.552C246.816,272.306,257.447,280.591,257.447,280.591z"/>
		<path fill="#5D2C19" d="M252.356,349.543c11.564-10.369,10.617-24.371,10.617-24.371s-13.815-2.461-25.379,7.908
			c-11.563,10.371-9.922,23.748-9.922,23.748S240.793,359.914,252.356,349.543z"/>
		<path fill="#5D2C19" d="M235.379,321.25c0,0,13.243,2.51,24.343-8.355c11.101-10.864,9.544-24.811,9.544-24.811
			s-13.91-1.856-25.01,9.008C233.156,307.957,235.379,321.25,235.379,321.25z"/>
		<path fill="#5D2C19" d="M280.241,252.558c-10.02,11.869-6.545,24.891-6.545,24.891s13.421,1.243,23.44-10.626
			c10.021-11.868,7.148-25.604,7.148-25.604S290.261,240.69,280.241,252.558z"/>
		<path fill="#5D2C19" d="M290.487,289.198c0,0,12.127,5.883,25.68-1.706c13.553-7.587,15.694-21.456,15.694-21.456
			s-12.942-5.425-26.495,2.162C291.813,275.787,290.487,289.198,290.487,289.198z"/>
		<path fill="#5D2C19" d="M367.745,289.405c0,0-9.78-10.063-25.222-8.396c-15.443,1.669-21.919,13.488-21.919,13.488
			s8.851,10.165,24.293,8.496C360.34,301.325,367.745,289.405,367.745,289.405z"/>
		<path fill="#5D2C19" d="M301.097,346.124c0,0,9.356,9.703,24.693,7.251c15.338-2.451,22.128-14.731,22.128-14.731
			s-10.278-9.554-25.615-7.104C306.964,333.991,301.097,346.124,301.097,346.124z"/>
		<path fill="#5D2C19" d="M363.829,276.414c0,0,9.516,9.545,24.811,6.839c15.295-2.705,21.88-15.097,21.88-15.097
			s-10.436-9.381-25.73-6.677C369.494,264.185,363.829,276.414,363.829,276.414z"/>
		<path fill="#5D2C19" d="M82.825,232.001c11.23,10.093,24.194,6.88,24.194,6.88s1.818-13.232-9.413-23.325
			c-1.947-1.75-3.967-3.111-5.976-4.178H72.799C73.178,216.093,74.987,224.957,82.825,232.001z"/>
		<path fill="#5D2C19" d="M130.954,241.57c0,0,6.154-11.854-1.038-25.131c-1.035-1.912-2.208-3.585-3.454-5.061h-19.59
			c-0.167,4.481,0.561,9.978,3.601,15.591C117.664,240.246,130.954,241.57,130.954,241.57z"/>
		<path fill="#5D2C19" d="M202.79,239.89c0,0,11.132-7.599,11.285-23.131c0.019-1.896-0.13-3.69-0.403-5.381h-21.233
			c-0.284,1.625-0.457,3.343-0.475,5.162C191.811,232.072,202.79,239.89,202.79,239.89z"/>
		<path fill="#5D2C19" d="M255.03,226.229c1.326-5.653,0.928-10.721-0.09-14.852h-17.304c-1.731,2.707-3.23,5.954-4.133,9.801
			c-3.547,15.123,5.456,25.152,5.456,25.152S251.483,241.352,255.03,226.229z"/>
		<path fill="#5D2C19" d="M292.697,227.229c1.436-6.118,0.851-11.55-0.354-15.852h-16.374c-2.01,2.896-3.783,6.468-4.8,10.801
			c-3.547,15.123,5.456,25.152,5.456,25.152S289.15,242.352,292.697,227.229z"/>
		<path fill="#5D2C19" d="M56.355,266.706c0,0-4.58-10.211-17.123-12.481c-1.614-0.292-3.161-0.415-4.635-0.411v18.295
			c0.44,0.104,0.887,0.201,1.346,0.284C48.486,274.662,56.355,266.706,56.355,266.706z"/>
		<path fill="#5D2C19" d="M53.604,299.035c0,0-4.686-7.988-15.208-8.727c-1.335-0.094-2.602-0.058-3.799,0.074v14.779
			c0.871,0.176,1.77,0.321,2.728,0.388C47.847,306.288,53.604,299.035,53.604,299.035z"/>
		<path fill="#5D2C19" d="M41.955,331.868c10.36-1.978,14.071-10.463,14.071-10.463s-6.574-6.522-16.935-4.544
			c-1.655,0.316-3.139,0.813-4.493,1.405v13.7C36.792,332.323,39.263,332.382,41.955,331.868z"/>
	</g>
	<g>
		<path fill="#5D2C19" d="M819.438,0v25.076h20.221c0,0-13.648,12.133-13.648,21.232s12.636,63.188,12.636,63.188l26.795-7.076
			c0,0-9.1-55.606-9.1-63.695c0-8.089,0.503-13.649,5.053-13.649s16.179,0,16.179,0V0H819.438z"/>
		<path fill="#5D2C19" d="M800.227,73.606c0-10.109,0-33.871,0-39.43C800.227,13.954,786.577,0,773.435,0
			c-13.142,0-57.125,0-57.125,0v27.1h51.562v57.628H714.29l-4.047,25.275c0,0,53.08,0,58.136,0
			C786.577,110.003,800.227,83.715,800.227,73.606z"/>
		<path fill="#5D2C19" d="M663.23,112.026l29.824-8.593c0,0,0-57.122,0-74.817C693.055,10.921,681.933,0,670.307,0
			s-62.179,0-62.179,0v29.12h55.103V112.026L663.23,112.026z"/>
		<path fill="#5D2C19" d="M558.589,108.993l30.331-7.076c0,0,0-88.466,0-93.52S583.863,0,581.841,0c-2.023,0-37.914,0-37.914,0
			v26.593h14.662V108.993z"/>
		<path fill="#5D2C19" d="M379.641,67.54l30.33-7.076c0,0,0-47.013,0-52.069S404.914,0,402.891,0c-2.023,0-34.47,0-34.47,0v26.593
			h11.22V67.54z"/>
		<path fill="#5D2C19" d="M496.917,149.433l30.331-7.076c0,0,0-128.906,0-133.962S522.191,0,520.169,0c-2.023,0-37.914,0-37.914,0
			v26.593h14.662V149.433z"/>
		<path fill="#5D2C19" d="M239.111,127.191c0,0,40.44-13.649,68.245-25.781c27.805-12.132,32.354-33.871,35.891-46.506
			S350.323,0,350.323,0h-44.486v28.109h11.625c0,0,0,5.056-1.01,11.123c-1.01,6.066-5.056,32.354-19.715,39.937
			c-4.684,2.423-12.005,5.361-19.798,8.24L295.22,67.54L278.035,0h-36.903v25.076h12.132l17.797,64.462
			c-14.831,5.287-29.426,9.849-29.426,9.849L239.111,127.191z"/>
		<path fill="#5D2C19" d="M183.505,69.056c-5.56,5.56-23.255,12.639-23.255,12.639l12.132,27.298c0,0,10.616-5.056,19.209-10.616
			c19.715-11.122,20.725-25.781,25.274-42.97C221.416,38.219,226.472,0,226.472,0H115.764v27.1h74.311
			C190.075,27.1,189.065,63.497,183.505,69.056z"/>
		<polygon fill="#5D2C19" points="149.128,139.828 149.128,43.781 120.314,43.781 120.314,150.443 		"/>
		<path fill="#5D2C19" d="M102.622,84.725H67.71l23.787-13.649c0,0,0-34.88,0-47.013S82.397,0,70.265,0S10.616,0,10.616,0v28.106
			h50.046v56.619H9.606L0,110.507h93.016L102.622,84.725z"/>
	</g>
</g>
</svg>
