<?xml version="1.0" encoding="utf-8"?>
<!-- Generator: Adobe Illustrator 15.0.0, SVG Export Plug-In . SVG Version: 6.00 Build 0)  -->
<!DOCTYPE svg PUBLIC "-//W3C//DTD SVG 1.1//EN" "http://www.w3.org/Graphics/SVG/1.1/DTD/svg11.dtd">
<svg version="1.1" id="Layer_1" xmlns="http://www.w3.org/2000/svg" xmlns:xlink="http://www.w3.org/1999/xlink" x="0px" y="0px"
	 width="1130.672px" height="1538.976px" viewBox="0 0 1130.672 1538.976" enable-background="new 0 0 1130.672 1538.976"
	 xml:space="preserve">
<polygon fill-rule="evenodd" clip-rule="evenodd" fill="#0F4E9E" points="7.078,1531.136 143.123,1147.453 143.123,203.929 
	114.818,164.155 114.818,5 290.548,5 296.182,101.642 364.238,101.642 364.238,10.667 540.012,10.667 540.012,107.287 
	619.358,107.287 619.358,10.667 783.774,10.667 783.774,107.287 857.465,107.287 857.465,13.53 1027.56,13.53 1027.56,164.155 
	987.876,203.929 987.876,1087.78 1123.92,1533.976 715.741,1533.976 659.065,1471.418 610.885,1531.136 557.004,1471.418 
	511.641,1528.252 466.277,1471.418 418.097,1531.136 "/>
<polygon fill="none" stroke="#FFFFFF" stroke-width="10" points="7.078,1531.136 143.123,1147.453 143.123,203.929 114.818,164.155 
	114.818,5 290.548,5 296.182,101.642 364.238,101.642 364.238,10.667 540.012,10.667 540.012,107.287 619.358,107.287 
	619.358,10.667 783.774,10.667 783.774,107.287 857.465,107.287 857.465,13.53 1027.56,13.53 1027.56,164.155 987.876,203.929 
	987.876,1087.78 1123.92,1533.976 715.741,1533.976 659.065,1471.418 610.885,1531.136 557.004,1471.418 511.641,1528.252 
	466.277,1471.418 418.097,1531.136 "/>
<polygon fill-rule="evenodd" clip-rule="evenodd" fill="#209FDA" points="194.188,809.268 936.834,809.268 936.834,206.78 
	982.174,155.614 983.616,49.067 902.828,49.067 902.828,151.366 748.35,151.366 748.35,49.067 656.203,49.067 656.203,151.366 
	490.39,149.935 490.39,49.067 405.364,49.067 405.364,151.366 250.886,151.366 252.261,49.067 168.678,49.067 168.678,157.044 
	194.188,208.21 "/>
<path fill-rule="evenodd" clip-rule="evenodd" fill="#08A650" d="M938.253,513.72l-77.949-14.22
	c-57.374,12.102-68.709,79.572-127.549,79.572c-38.985,0-58.096-28.406-97.081-28.406h-58.141
	c-81.465,0-92.102,116.507-173.611,116.507c-39.684,0-62.354-11.369-102.017-11.369c-38.265,0-84.326,40.496-109.16,69.611
	c0,0,1.442,82.434,2.84,83.875c0,0,737.958,0.947,739.852,0C936.811,808.524,938.253,513.72,938.253,513.72"/>
<path fill="none" stroke="#0F4E9E" stroke-width="10" stroke-linecap="round" stroke-miterlimit="3.864" d="M171.518,738.226
	c70.828-28.428,62.332-73.893,153.036-88.101c11.2-1.758,82.929,20.597,93.543,25.566"/>
<path fill="none" stroke="#0F4E9E" stroke-width="10" stroke-linecap="round" stroke-miterlimit="3.864" d="M327.393,701.28h13.499
	c125.408,0,147.357-153.453,272.788-153.453c56,0,123.335,34.806,158.737,79.572"/>
<path fill="none" stroke="#0F4E9E" stroke-width="10" stroke-linecap="round" stroke-miterlimit="3.864" d="M724.26,579.072
	c71.571-23.437,72.292-79.561,147.38-79.561c34.727,0,55.256,7.797,85.024,25.566"/>
<polygon fill-rule="evenodd" clip-rule="evenodd" fill="#FFFFFF" points="552.632,382.52 606.919,382.52 606.919,454.43 
	591.189,454.43 591.189,402.554 568.451,402.554 568.451,454.43 541.77,454.43 541.77,434.396 552.632,434.396 "/>
<rect x="616.181" y="382.509" fill-rule="evenodd" clip-rule="evenodd" fill="#FFFFFF" width="15.707" height="31.11"/>
<polygon fill-rule="evenodd" clip-rule="evenodd" fill="#FFFFFF" points="641.353,382.52 692.079,382.52 692.079,454.43 
	676.372,454.43 676.372,402.554 641.353,402.554 "/>
<rect x="700.26" y="382.509" fill-rule="evenodd" clip-rule="evenodd" fill="#FFFFFF" width="15.729" height="71.91"/>
<polygon fill-rule="evenodd" clip-rule="evenodd" fill="#FFFFFF" points="723.29,382.52 754.254,382.52 754.254,402.554 
	746.659,402.554 746.659,454.43 730.907,454.43 730.907,402.554 723.29,402.554 "/>
<polygon fill-rule="evenodd" clip-rule="evenodd" fill="#FFFFFF" points="779.357,382.52 795.042,411.647 802.051,403.906 
	802.051,382.52 817.78,382.52 817.78,413.63 804.191,428.785 817.78,454.43 798.873,454.43 783.64,426.069 776.586,433.63 
	776.586,454.43 760.856,454.43 760.856,423.32 774.445,408.785 760.315,382.52 "/>
<path fill-rule="evenodd" clip-rule="evenodd" fill="#FFFFFF" d="M827.764,382.509h54.31v71.932H866.23v-51.898h-38.467V382.509z
	 M827.764,419.85h15.707v34.591h-15.707V419.85z"/>
<path fill-rule="evenodd" clip-rule="evenodd" fill="#FFFFFF" d="M542.469,258.104h54.265v71.91h-15.798v-51.876h-38.467V258.104z
	 M542.469,295.422h15.707v34.591h-15.707V295.422z"/>
<polygon fill-rule="evenodd" clip-rule="evenodd" fill="#FFFFFF" points="605.928,258.115 625.104,258.115 644.801,296.166 
	644.801,258.115 660.53,258.115 660.53,297.416 645.589,297.416 662.355,330.024 605.928,330.024 605.928,309.991 632.992,309.991 
	"/>
<polygon fill-rule="evenodd" clip-rule="evenodd" fill="#FFFFFF" points="695.955,309.991 705.69,309.991 710.626,302.396 
	710.626,258.115 726.287,258.115 726.287,309.991 713.308,330.024 671.527,330.024 671.527,309.991 680.226,309.991 
	680.226,258.115 695.955,258.115 "/>
<rect x="735.595" y="258.104" fill-rule="evenodd" clip-rule="evenodd" fill="#FFFFFF" width="15.707" height="71.91"/>
<polygon fill-rule="evenodd" clip-rule="evenodd" fill="#FFFFFF" points="760.541,258.115 776.879,258.115 776.879,287.219 
	788.281,258.115 816.946,258.115 816.946,330.024 793.149,330.024 793.149,309.991 801.262,309.991 801.262,278.148 
	798.063,278.148 777.353,330.024 760.045,330.024 776.271,289.225 760.541,289.225 "/>
<path fill-rule="evenodd" clip-rule="evenodd" fill="#FFFFFF" d="M827.764,258.104h54.31v71.91H866.23v-51.876h-38.467V258.104z
	 M827.764,295.422h15.707v34.591h-15.707V295.422z"/>
<rect x="282.029" y="1108.062" fill-rule="evenodd" clip-rule="evenodd" fill="#FFFFFF" width="32.315" height="165.814"/>
<rect x="331.021" y="1108.062" fill-rule="evenodd" clip-rule="evenodd" fill="#FFFFFF" width="32.314" height="140.101"/>
<polygon fill-rule="evenodd" clip-rule="evenodd" fill="#FFFFFF" points="383.821,570.553 416.113,570.553 416.113,1108.062 
	496.429,1108.062 496.429,1198.248 461.928,1248.163 419.539,1248.163 464.091,1184.907 464.091,1147.115 383.821,1147.115 "/>
<rect x="512.947" y="1108.062" fill-rule="evenodd" clip-rule="evenodd" fill="#FFFFFF" width="32.338" height="140.101"/>
<polygon fill-rule="evenodd" clip-rule="evenodd" fill="#FFFFFF" points="563.11,1108.062 675.741,1108.062 675.741,1209.154 
	689.015,1209.154 689.015,1248.163 563.11,1248.163 563.11,1209.154 643.426,1209.154 643.426,1147.093 563.11,1147.093 "/>
<polygon fill-rule="evenodd" clip-rule="evenodd" fill="#FFFFFF" points="702.242,1108.062 765.904,1108.062 765.904,1147.093 
	750.197,1147.093 750.197,1248.163 717.904,1248.163 717.904,1147.093 702.242,1147.093 "/>
<path fill-rule="evenodd" clip-rule="evenodd" fill="#FFFFFF" d="M403.922,816.367c0,0,11.313-82.399,82.209-82.399
	c70.873,0,69.453,65.363,66.591,85.262c-2.816,19.876-29.724,39.774-36.8,45.453c-7.099,5.679-34.028,8.519-34.028,8.519
	s35.426-25.555,39.685-49.713c4.214-24.158-1.42-54.005-32.608-54.005s-43.943,14.208-60.935,46.884
	c-17.015,32.699-24.113,48.315-24.113,48.315V816.367z"/>
<path fill-rule="evenodd" clip-rule="evenodd" fill="#FFFFFF" d="M389.793,859.003c0,0-1.465-29.837-38.31-29.837
	c-36.846,0-42.524,31.279-46.806,51.155c-4.215,19.898-1.353,31.256-1.353,31.256s12.732-55.414,41.06-58.276
	c28.371-2.817,39.707,4.259,43.943,17.082C392.587,883.161,389.793,859.003,389.793,859.003"/>
<polygon fill="#FFFFFF" points="331.111,457.472 390.334,493.889 389.973,535.771 330.705,499.376 "/>
<polygon fill="#FFFFFF" points="356.688,522.497 393.264,544.976 392.835,585.934 356.283,563.455 "/>
<polygon fill="#FFFFFF" points="331.111,404.897 390.334,441.314 389.973,483.196 330.705,446.779 "/>
<polygon fill="#FFFFFF" points="331.111,352.334 390.334,388.729 389.973,430.633 330.705,394.238 "/>
<polygon fill="#FFFFFF" points="331.111,299.76 390.334,336.154 389.973,378.036 330.705,341.641 "/>
<polygon fill="#FFFFFF" points="461.071,457.472 401.781,493.889 402.21,535.771 461.5,499.376 "/>
<polygon fill="#FFFFFF" points="435.449,522.497 398.829,544.976 399.28,585.934 435.877,563.455 "/>
<polygon fill="#FFFFFF" points="461.071,404.897 401.781,441.314 402.21,483.196 461.5,446.779 "/>
<polygon fill="#FFFFFF" points="461.071,352.334 401.781,388.729 402.21,430.633 461.5,394.238 "/>
<polygon fill="#FFFFFF" points="461.071,299.76 401.781,336.154 402.21,378.036 461.5,341.641 "/>
<rect x="333.095" y="222.408" fill="#FFFFFF" width="14.129" height="66.073"/>
<rect x="450.705" y="222.408" fill="#FFFFFF" width="14.152" height="63.234"/>
<polygon fill-rule="evenodd" clip-rule="evenodd" fill="#FFFFFF" points="354.322,270.025 399.01,297.72 442.908,271.456 
	443.629,212.684 354.322,212.684 "/>
<rect x="354.322" y="152.797" fill="#FFFFFF" width="13.972" height="73.442"/>
<rect x="429.68" y="152.797" fill="#FFFFFF" width="13.927" height="73.442"/>
<rect x="393.398" y="152.797" fill="#FFFFFF" width="13.949" height="73.442"/>
</svg>
