<?xml version="1.0" encoding="utf-8"?>
<!-- Generator: Adobe Illustrator 15.0.0, SVG Export Plug-In . SVG Version: 6.00 Build 0)  -->
<!DOCTYPE svg PUBLIC "-//W3C//DTD SVG 1.1//EN" "http://www.w3.org/Graphics/SVG/1.1/DTD/svg11.dtd">
<svg version="1.1" id="Layer_1" xmlns="http://www.w3.org/2000/svg" xmlns:xlink="http://www.w3.org/1999/xlink" x="0px" y="0px"
	 width="1820.782px" height="1653.046px" viewBox="0 0 1820.782 1653.046" enable-background="new 0 0 1820.782 1653.046"
	 xml:space="preserve">
<g>
	<g>
		<path fill="#010101" d="M735.813,7.858c72.845-6.212,146.083-9.58,219.221-6.965c171.781,6.67,342.157,37.633,507.498,84.158
			c85.168,24.391,169.425,52.967,249.563,90.991c44.333,138.923,80.231,281.048,98.214,425.921
			c6.114,53.162,10.986,106.587,10.396,160.142c1.896,240.048-30.799,482.778-116.917,707.884
			c-1.961,8.828-12.162,9.709-18.832,13.569c-215.853,99.002-450.9,155.401-687.941,166.845
			c-87.066,4.444-174.624,3.889-261.267-6.376c-140.394-16.022-278.433-49.602-412.385-94.229
			c-70.066-23.899-139.183-51.595-203.462-88.571c-4.218-1.929-4.709-7.063-6.344-10.82
			C55.883,1276.956,13.772,1097.199,2.753,914.333C-11.47,664.64,30.217,413.835,109.243,177.187
			C306.851,86.686,519.142,27.148,735.813,7.858z M772.693,39.05c-220.497,12.294-439.816,59.996-642.92,147.456
			c-4.543,0.98-5.198,6.081-6.571,9.644C74.028,354.525,41.791,518.395,30.903,683.93c-20.369,256.035,18.08,514.883,99.818,757.844
			c0.72,2.943,2.486,4.936,5.331,5.983c77.096,39.592,158.964,69.119,241.977,93.673c133.691,38.973,271.339,65.292,410.325,74.771
			c28.674,3.074,57.643,1.309,86.349,3.959c18.604-0.166,37.304,0.913,55.842-0.885c252.932-3.139,507.105-47.635,741.301-145.133
			c7.487-3.729,18.701-4.904,20.237-14.911c68.531-194.632,96.518-401.43,102.013-606.988
			c10.626-226.313-30.049-452.075-93.999-668.55c-90.046-36.552-183.585-63.887-278.172-85.694
			C1241.51,56.771,1056.62,32.838,871.433,34.897C838.607,37.774,805.487,35.584,772.693,39.05z"/>
	</g>
	<g>
		<path fill="#010101" d="M1255.211,122.03c8.824-7.487,21.22-8.632,31.846-4.545c25.141,5.493,41.063,29.295,46.523,53.064
			c6.31,29.001,9.186,60.682-3.956,88.342c-17.688,36.913-50.515,63.593-83.766,86.087c-12.229,8.305-17.59,23.869-16.185,38.188
			c2.356,30.505,18.898,57.87,39.104,80.004c13.438,12.785,28.544,23.77,41.556,37.044c9.975,10.822,5.526,27.007,2.714,39.79
			c-10.722,11.771-25.339,20.861-31.553,36.227c-5.619,11.051-2.417,23.704-4.643,35.443c-7.483,6.146-18.863,6.636-25.601,14.451
			c0.263,1.667,0.754,5.001,1.016,6.67c9.451,0.98,19.126,1.274,28.445-1.047c27.235-6.408,54.34-13.471,81.247-21.218
			c5.756-1.276,12.752-4.382,17.558,0.849c0.722,4.446-0.687,7.781-4.285,10.07c-12.88,8.926-28.608,12.164-43.321,16.675
			c-133.099,34.231-271.304,44.204-408.326,42.21c-37.569-3.075-75.365-1.276-112.965-4.121
			c-105.475-5.297-211.277-16.086-313.875-42.111c-23.572-6.997-48.388-11.377-70.13-23.311c-1.93-5.787,4.087-10.921,9.678-9.025
			c23.802,6.702,47.571,13.83,71.93,18.375c-1.996-8.86-6.049-18.146-2.879-27.203c13.799-13.731,37.109-5.361,51.922-17.459
			c9.188-7.356,18.31-15.3,24.553-25.371c3.369-9.449,1.994-21.023,9.45-28.805c17.002-17.754,39.986-30.701,50.971-53.588
			c3.793-6.474,4.021-15.693-1.962-20.958c-5.264-4.347-11.017-8.402-13.993-14.778c-13.602-0.129-28.705,2.551-40.966-4.642
			c-13.374-14.876-19.488-36.848-11.053-55.713c13.274,9.973,25.046,27.269,44.042,23.018c3.334-16.086-2.125-34.231-16.086-43.648
			c-12.164-8.402-23.673-18.177-37.307-24.095c-5.263-1.996-12.521-4.676-16.937,0.262c-5.787,8.892-4.249,23.082-15.855,27.43
			c-6.769-11.443-9.842-24.456-15.073-36.552c-3.563-8.959-13.438-11.836-20.697-16.905c3.27-9.416,4.97-19.125,5.135-29.065
			c0.98-8.566,10.495-10.364,16.838-13.667c8.336-4.643,17.721-6.506,27.039-8.108c2.941-5.656,5.884-11.345,8.959-16.937
			c10.103-4.609,19.648-10.265,30.178-13.896c16.151-7.551,21.087-27.595,36.193-35.931c14.419-0.948,29.557,2.78,40.77,12.227
			c12.098,0.524,22.561-6.178,33.709-9.709c6.441-2.354,12.229,1.994,17.688,4.773c9.188,5.559,20.893,6.866,28.02,15.562
			c8.697,9.777,25.045,8.501,30.342,21.776c12.228,1.242,24.194,4.087,36.161,6.898c3.105,5.134,6.081,10.333,9.089,15.53
			c5.689,1.407,11.346,3.075,16.969,4.807c0.916,4.38,1.799,8.763,2.714,13.144c2.942,1.406,5.853,2.811,8.795,4.25
			c1.178,6.049-1.896,14.517,4.577,18.113c5.787,3.531,8.338,9.842,11.509,15.499c45.055,8.664,89.682,19.813,134.899,28.019
			c7.686,1.831,15.498-0.065,23.181-0.98c34.234-4.643,66.865-16.872,100.8-22.887c21.909,0.817,43.519,5.787,65.457,6.408
			c31.779-0.883,64.641-10.168,88.539-31.977c20.827-18.538,40.64-42.569,41.131-71.831c-0.491-23.117-5.884-47.997-22.625-64.932
			c-7.551-7.979-21.645-9.908-30.017-2.323c-8.697,9.024-6.341,22.527-8.467,33.808c-4.349,8.305-16.022,2.942-19.355-3.597
			C1227.975,155.87,1240.071,134.912,1255.211,122.03z M671.861,215.211c6.146,6.146,11.149,13.405,17.786,19.028
			c9.547,2.714,18.604-3.204,28.118-3.595c7.847,0.687,15.368,3.302,23.083,4.708c0.621-1.438,1.863-4.317,2.484-5.755
			c-8.271-2.255-16.87-2.387-25.208-3.922c-6.112-5.755,4.708-10.953,7.095-16.151c-11.803,0.752-24.881,1.438-32.662-9.319
			C684.546,203.54,676.961,207.986,671.861,215.211z M628.736,207.103c5.298,9.285,10.037,18.897,8.664,29.916
			c4.708,7.488,7.291,15.989,7.063,24.881c1.962,30.669,9.515,64.509-6.736,92.66c-1.275,9.546-2.354,20.924,5.002,28.477
			c6.376,3.433,14.157,1.569,21.123,1.962c8.271-8.011,17.262-16.348,20.008-28.021c2.748-16.249-0.588-32.924,3.139-49.009
			c1.93-12.522,7.259-25.601,2.583-38.155c-4.739-13.177-10.07-26.189-15.921-38.909c-3.042-2.288-6.049-4.577-8.829-7.16
			C655.448,213.708,641.225,211.222,628.736,207.103z M583.06,238c-9.382,3.464-14.221,11.965-18.669,20.27
			c-16.641,1.08-33.217,7.716-45.087,19.585c12.229,0.556,24.49,0.262,36.717,0.457c-0.325,1.831-0.979,5.461-1.308,7.291
			c-11.443,3.5-23.9,4.873-33.512,12.719c8.469,9.874,23.441,10.594,34.525,4.873c0.425-1.831,1.308-5.494,1.734-7.356
			c5.818-4.742,9.874-11.116,13.634-17.526c12.913,9.09,4.904,27.432,7.453,40.74c5.395,0.359,10.791,0.653,16.217,0.881
			c1.896,3.531,3.794,7.063,5.69,10.594c6.505-0.915,14.417-2.68,17.327-9.416c4.643-10.691,0.883-22.103,0.196-33.088
			c2.027-7.226,10.006-13.144,6.702-21.35c-4.347-7.096-13.896-6.114-20.99-6.507c2.387,5.035,4.873,10.005,7.391,14.975
			c-4.187,2.845-9.222,6.114-14.288,3.139c-9.089-2.583-20.011-7.194-17.035-18.897c4.021-0.492,7.912-1.44,11.706-2.748
			c1.177-3.597,2.222-7.225,3.104-10.888c9.318-0.196,18.637-0.228,27.922-0.948c-0.752-8.696,4.152-20.107-3.27-26.712
			C606.895,224.137,595.844,232.67,583.06,238z M699.194,248.757c-1.895,10.364,10.626,9.055,17.264,8.468
			c0.294-3.728,0.523-7.456,0.719-11.182C711.194,244.31,702.791,241.661,699.194,248.757z M733.655,254.217
			c12.621,0.294,25.731,0.784,37.861-3.204c-10.005-3.335-20.107-6.704-30.537-8.404
			C735.519,243.722,734.799,249.835,733.655,254.217z M768.477,259.743c0.914,3.563,1.862,7.095,2.843,10.626
			c5.428,2.418,11.28,3.466,17.002,1.373c0.196-2.355,0.589-7.063,0.752-9.45C782.011,264.189,775.08,262.26,768.477,259.743z
			 M724.697,260.265c-3.728,6.311-6.245,14.419-13.503,17.526c-8.011,3.17-13.046,11.41-12.948,19.911
			c-0.915,19.225,15.825,33.35,16.446,52.346c1.406,20.924,3.236,43.157-5.755,62.774c-10.854,24.979-33.838,42.21-57.673,53.98
			c-8.371,15.269-14.027,32.695-27.139,44.857c-5.295,5.363-11.965,9.156-17.328,14.451c-0.131,8.174,0.394,16.348,0.621,24.521
			c13.307-5.656,26.581-11.475,39.79-17.393c1.048-15.693,15.203-25.143,24.946-35.802c4.251-0.587,8.535-1.176,12.818-1.766
			c4.249-3.891,8.892-7.323,14.155-9.709c-2.877-3.139-5.492-6.474-7.944-9.939c9.416-11.771,9.023-27.694,16.807-40.346
			c1.797-1.145,5.459-3.4,7.257-4.545c5.46,0.393,10.953,0.098,15.367-3.531c-3.728-0.262-7.455-0.49-11.181-0.687
			c-0.883-3.76-1.701-7.52-2.453-11.28c8.337-5.198,17.852-1.798,26.844-0.784c-2.453-9.318-14.878-6.114-22.135-7.88
			c-0.394-2.222-1.211-6.67-1.604-8.926c10.66-0.784,22.363,0.883,31.388-6.18c-7.945-2.157-15.988-3.792-23.997-5.688
			c-4.71-0.49-8.731-5.198-6.573-9.971c9.939-2.192,20.337-0.883,30.178-3.728c-10.233-2.289-21.284-2.779-30.274-8.763
			c13.273-5.885,27.364-10.331,39.462-18.57c-10.757-1.014-21.579-0.786-32.368-1.341c-5.395,0.359-8.533-5.362-7.39-10.136
			c8.305-4.805,19.062-1.341,26.745-7.519c-7.814-3.073-15.792-5.69-23.801-8.174c-0.427-1.079-1.244-3.238-1.669-4.283
			c8.599-2.845,17.492-4.512,26.287-6.573c-10.788-3.792-20.369-10.07-29.753-16.445c-0.458-1.569-1.34-4.676-1.798-6.246
			c2.518-0.228,7.585-0.752,10.136-0.98c-0.033-1.407-0.033-4.186-0.033-5.591c4.676,0.49,9.351,0.98,14.026,1.536
			c0.851-1.536,2.55-4.609,3.4-6.146C737.35,269.321,730.451,265.562,724.697,260.265z M798.784,302.54
			c6.278,1.668,12.784,1.603,19.226,1.341c2.157-3.073,4.283-6.146,6.375-9.253C814.805,289.331,805.323,295.511,798.784,302.54z
			 M807.84,323.171c7.848,5.264,24.424,7.781,28.348-2.714C826.967,317.581,815.72,316.404,807.84,323.171z M1002.053,353.414
			c-38.417-5.231-75.822-16.054-113.684-24.063c-9.482-3.008-22.527,4.38-18.734,15.465c18.931,21.48,45.775,33.316,69.805,47.996
			c7.324,4.021,4.838,13.111,2.909,19.52c13.931-0.556,28.314,1.407,41.849-2.714c18.213-6.801,38.092-4.708,57.153-4.577
			c12.555-0.851,23.64,5.623,34.886,10.168c0.096-5.591,0.162-11.213,0.229-16.806c13.634-3.825,27.854-7.323,42.108-5.46
			c19.652,3.761,30.473,22.561,46.102,33.25c14.748,10.202,21.808,28.315,37.567,37.241c19.685,13.373,39.79,26.059,60.062,38.516
			c4.413,16.969,6.473,36.683-3.99,51.92c9.221,8.271,5.003,20.27,2.618,30.57c-6.999,7.781-15.824,13.993-21.284,23.083
			c4.087,1.111,8.237,2.157,12.389,3.139c10.888-18.768,14.323-41.034,27.366-58.655c5.788-10.136,18.669-17.427,16.414-30.636
			c-18.704-15.138-35.575-32.532-50.288-51.561c-22.331-27.824-44.104-59.8-44.821-96.778c-1.111-16.576,12.586-28.215,25.01-36.586
			c-39.496-3.924-79.024-11.377-118.846-8.042C1071.364,334.353,1038.212,351.027,1002.053,353.414z M811.208,344.455
			c5.754,2.027,11.64,3.696,17.59,5.166c4.152-2.19,8.402-4.413,11.607-7.912C830.858,340.925,819.154,337.263,811.208,344.455z
			 M777.5,363.55c-11.019,16.021-10.168,37.469-5.46,55.582c5.492,11.116,19.715,3.073,20.532-6.801
			c0.851-14.288,0.851-28.706-0.065-42.994C792.637,361.686,782.731,362.046,777.5,363.55z M820.755,397.128
			c12.229,2.419,26.68,7.062,37.633-1.504c-10.888-4.186-22.396-6.311-33.578-9.515c-0.229-2.549-0.654-7.65-0.851-10.201
			c7.749-1.504,16.479,0.065,23.541-4.152c1.209-3.367,0.392-5.787-2.518-7.257c-10.725-3.204-22.004-3.107-33.022-2.387
			C809.606,373.946,806.076,391.994,820.755,397.128z M819.218,408.082c-0.687,2.484-1.34,4.97-2.026,7.422
			c10.299,3.204,20.957,7.192,31.878,4.936C844.427,407.524,830.302,409.355,819.218,408.082z M814.609,430.869
			c-0.981,1.668-2.877,5.003-3.858,6.67c6.376,6.049,16.74,3.531,24.849,5.95c6.637,3.074,11.346-6.67,5.297-10.495
			C833.441,427.796,822.815,427.764,814.609,430.869z M744.412,460.36c11.051-2.518,28.281,3.4,34.56-8.501
			c-3.728-5.918-8.436-11.083-12.784-16.511C754.972,439.664,749.12,449.996,744.412,460.36z M1054.037,452.415
			c-21.776,2.224-42.993,7.815-64.673,10.561c1.277,1.014,3.825,3.075,5.103,4.087c9.253,0.262,17.59-3.956,26.45-5.917
			c14.648-0.785,29.457,0.131,43.94-2.976c9.157-2.256,20.173,0.687,27.466-6.638
			C1080.093,444.175,1066.396,447.413,1054.037,452.415z M816.08,459.739c2.976,8.566,13.274,10.07,20.108,14.517
			c13.11,6.963,32.073,10.659,42.732-2.419c-6.572-2.779-13.699-3.335-20.696-3.695c-10.822-0.294-19.977-6.605-29.688-10.495
			C823.796,454.9,819.676,455.587,816.08,459.739z M969.747,474.093c-0.031,8.958,11.574,11.64,15.336,19.256
			c17.066-2.256,32.041-11.475,46.885-19.552C1011.498,470.855,989.987,469.744,969.747,474.093z M1074.832,488.314
			c-10.07,7.063-23.053,6.704-33.807,12.261c-24.032,11.215-49.962,18.996-76.606,19.782c-9.187-6.507-17.526-14.747-27.756-19.421
			c-21.712-0.23-43.226,3.629-64.902,3.597c-18.016-0.164-35.213-6.441-52.934-8.666c-3.564,0.883-7.128,1.831-10.626,2.878
			c-5.951,11.378-12.687,22.429-20.664,32.499c-15.791,13.568-33.61,25.043-47.212,41.032c-8.729,9.743-15.007,21.546-24.291,30.799
			c-5.396,3.106-11.968,2.617-17.917,3.597c-6.9,10.267-15.53,20.141-27.235,24.946c-14.42,1.047-28.708-2.909-43.159-1.831
			c-8.697-6.047-15.53-17.132-27.201-16.969c-12.784-1.766-27.987,5.886-30.309,19.454c75.623,14.092,152.195,25.176,229.291,24.163
			c65.456-0.458,130.847,1.601,196.269-0.72c30.866-2.452,61.895-1.732,92.757-3.859c20.958-2.974,42.536,1.08,63.169-4.053
			c-0.754-1.472-2.29-4.414-3.04-5.884c-11.284-5.69-22.137,0.621-32.306,5.395c-6.571-2.028-13.797-4.904-18.078-10.495
			c-3.008-7.946-1.277-16.708-1.571-25.013c8.5-5.492,18.442-7.617,28.478-7.716c6.734-11.019,10.923-23.54,19.161-33.578
			c3.627-5.067,8.403-9.384,11.149-15.04c3.464-12.586-7.979-21.087-14.257-30.275c-12.915-18.734-30.243-33.774-48.324-47.311
			C1086.732,481.088,1080.716,484.588,1074.832,488.314z M741.338,501.099c-5.95,4.021-13.699,4.872-19.159,9.546
			c-13.503,23.9-19.192,51.398-32.988,75.167c0.946-0.197,2.777-0.589,3.726-0.786c5.004-5.395,10.922-9.743,16.903-13.993
			c6.539-8.729,10.822-19.225,19.095-26.646c7.553-7.063,12.816-16.054,18.146-24.817c1.668,0.621,5.035,1.799,6.704,2.42
			c7.388-11.771,11.082-25.895,5.001-39.104C750.689,486.484,747.55,495.377,741.338,501.099z M1139.337,494.462
			c7.095,9.906,16.479,17.786,24.192,27.137c8.047,18.799,7.491,41.196-1.437,59.637c-4.773,10.461-11.836,20.27-12.717,32.041
			c9.122,4.218,17.065-1.797,24.779-6.049c4.253-12.816,8.437-25.861,15.371-37.566c8.206-9.777,18.959-17.82,24.423-29.656
			c2.551-15.203-10.495-27.987-22.526-34.886c-15.565-4.708-30.311-11.671-45.479-17.328
			C1141.397,484.915,1141.04,492.01,1139.337,494.462z M1236.149,538.567c0.98-1.21,2.909-3.662,3.89-4.871
			c-2.615-7.783-5.1-15.661-8.794-23.018C1227.944,520.291,1229.511,530.721,1236.149,538.567z M666.108,532.062
			c-1.048,4.543-1.963,9.122-2.779,13.699c-11.968,5.623-20.011,16.02-29.164,25.045c-7.095,7.912-20.469,3.629-26.484,12.816
			c-4.348,4.674-4.707,12.031-1.11,17.296c8.86-8.077,18.669-15.596,29.916-19.913c12.488-1.177,26.253,1.831,36.585-7.226
			c2.746-7.487,7.192-14.092,13.603-18.865c1.993-5.819,6.047-10.364,10.854-14.026c0.098-6.015,0-12.031-0.262-18.048
			C688.374,529.969,677.386,532.552,666.108,532.062z M1207.082,578.357c-7.912,11.901-17.328,23.117-21.903,36.881
			c8.761-3.89,17.031-8.729,25.533-13.144c6.179-18.081,21.775-31.028,26.058-50.122
			C1222.905,553.835,1215.389,568.451,1207.082,578.357z M565.078,592.449c-3.987,1.996-7.978,4.021-11.934,6.083
			c6.343,2.909,12.622,5.95,18.899,9.088c10.037-5.459,7.847-16.74,7.257-26.253C572.893,582.64,568.282,586.989,565.078,592.449z
			 M622.917,607.75c7.388,0.393,13.665-4.218,13.83-11.933C628.474,594.248,625.86,601.93,622.917,607.75z M646.653,615.891
			c1.832-6.637,5.166-12.652,8.86-18.439C647.439,598.27,636.19,610.792,646.653,615.891z M1113.868,618.932
			c3.991,4.446,8.86,7.946,14.813,9.22c0.099-2.288,0.293-6.898,0.393-9.186C1124.002,618.835,1118.903,618.835,1113.868,618.932z
			 M1162.943,643.912c7.618,0,15.269,0,22.919,0.032c0.36-0.817,1.047-2.518,1.407-3.367c-3.074-4.317-5.983-8.729-8.86-13.177
			C1173.307,632.927,1168.176,638.484,1162.943,643.912z"/>
	</g>
	<g>
		<path fill="#010101" d="M129.055,735.131c6.44-80.072,17.688-159.618,28.674-239.166c-6.146,79.973-13.176,159.848-17.885,239.917
			c13.112-19.159,28.478-42.7,53.949-44.663c11.051-62.742,21.938-125.516,35.342-187.801c-9.22,70.753-18.57,141.538-24.521,212.65
			c-6.244,38.351-28.182,77.389-64.932,93.606c-0.425,11.739-2.19,23.41-2.06,35.211c12.916-19.517,25.993-41.489,47.604-52.277
			c7.257-5.101,16.151,0.883,16.282,9.154c1.504,24.783-4.904,49.892-15.76,72.096c-9.122,19.288-27.299,31.514-44.627,42.699
			c-0.817,14.288-0.198,28.573,2.123,42.698c4.416-12.356,10.693-23.899,17.264-35.179c9.057-13.142,22.69-22.331,36.782-29.33
			c10.888,14.157,13.11,33.417,8.37,50.352c-7.553,29.656-26.811,56.466-53.522,71.735c0,9.218,0.262,18.407,0.948,27.628
			c8.501-21.252,22.234-40.511,40.444-54.471c3.857-3.595,9.122-3.139,13.993-3.333c11.215,18.959,8.533,42.108,4.415,62.772
			c-6.146,27.465-20.697,54.535-45.152,69.739c3.007,18.669,8.272,36.814,13.274,55.026c15.465-52.051,36.193-102.76,65.553-148.601
			c13.961-21.121,26.287-43.842,44.073-62.054c10.332-2.618,18.833,7.324,27.138,12.126c8.632-3.203,18.375-14.873,27.464-7.516
			c7.88,8.075,11.28,19.355,15.04,29.751c12.849,42.274,19.813,86.282,21.808,130.388c-0.098,11.9-1.831,23.704-3.858,35.409
			c-8.729-19.812-9.906-42.015-15.432-62.839c-9.122-39.595-24.325-78.207-47.964-111.493
			c-24.064,14.582-42.472,36.293-59.244,58.458c-20.304,27.006-35.638,57.447-47.474,89.031
			c-8.468,18.57-16.151,37.536-21.678,57.217c5.102,29.49,12.98,58.491,20.632,87.46c4.087,15.824,10.037,31.552,9.416,48.193
			c-8.86-0.428-15.596-6.539-17.623-15.006c-20.697-62.22-27.563-128.103-46.722-190.712
			c-33.154-17.721-62.317-47.475-69.706-85.436c-1.832-12.162-7.553-25.173-1.504-37.009c4.837,1.076,9.809,2.028,14.09,4.709
			c17.427,10.134,34.854,21.022,47.998,36.616c-1.308-7.618-2.78-15.236-4.021-22.854c-26.057-9.055-48.75-28.577-58.951-54.535
			c-7.289-18.963-13.174-40.313-7.388-60.455c1.7-0.651,5.067-2.024,6.769-2.714c24.161,10.039,43.027,30.441,54.11,53.883
			c-0.98-13.014-1.7-26.025-3.76-38.909c-33.677-23.998-55.679-62.185-61.958-102.826c0.228-5.624-2.615-13.536,3.924-16.445
			c11.703,1.177,23.737,4.839,31.975,13.666c9.352,10.43,16.937,22.363,25.993,33.056c0.099-11.348,0.065-22.692,0.032-34.004
			c-30.699-17.786-55.09-48.748-59.177-84.647c-0.425-18.474-0.623-37.044,1.111-55.484c7.029-57.576,11.999-115.741,26.68-172.042
			c-7.781,60.879-16.546,121.92-16.677,183.42C98.648,697.859,116.957,714.141,129.055,735.131z M148.148,745.037
			c-13.437,11.901-6.963,31.649-8.305,47.408c31.421-15.89,50.483-50.351,51.497-85.008
			C173.161,715.024,160.016,729.933,148.148,745.037z M83.575,705.967c-4.315,34.951,17.232,66.143,43.682,86.543
			C132.879,757.821,113.624,722.936,83.575,705.967z M141.216,866.075c-0.849,11.411-0.26,22.887,0,34.33
			c27.366-19.911,42.963-53.261,42.472-86.903C165.642,827.398,152.007,846.228,141.216,866.075z M91.651,852.147
			c8.894,16.412,18.669,33.414,34.427,44.234c-0.687-10.559,0.817-21.545-1.797-31.775c-8.892-16.839-21.022-32.076-35.017-44.991
			C81.123,829.326,87.63,842.045,91.651,852.147z M150.862,1001.141c28.053-19.454,47.735-55.224,39.824-89.487
			C165.478,933.755,149.489,967.366,150.862,1001.141z M83.25,924.502c1.504,17.458,10.037,33.088,17.558,48.519
			c6.047,13.407,19.355,21.121,31.386,28.509C129.578,970.275,111.596,939.02,83.25,924.502z M259.443,1019.58
			c-14.026,23.637-27.757,47.635-37.991,73.203c25.895-39.592,44.432-88.111,88.408-111.652c-5.362-3.531-10.888-6.836-16.74-9.416
			C279.617,985.937,269.678,1002.97,259.443,1019.58z M321.76,985.445c19.062,27.302,29.655,59.212,45.087,88.411
			c-6.637-32.338-8.141-68.66-29.557-95.372C332.092,980.738,326.894,983.024,321.76,985.445z M176.725,1028.44
			c-13.11,23.312-20.466,51.853-13.241,78.175c25.764-25.632,40.639-64.509,33.872-100.57
			C188.789,1011.7,181.466,1019.251,176.725,1028.44z M93.582,1029.615c4.053,15.109,10.983,29.426,20.629,41.753
			c10.658,13.829,21.775,28.053,37.306,36.715c-5.166-14.416-8.926-29.292-14.778-43.417
			C126.34,1049.038,111.04,1036.518,93.582,1029.615z"/>
	</g>
	<g>
		<path fill="#010101" d="M1554.373,670.461c-0.198-8.305,3.825-18.768,13.241-19.748c23.049-0.621,46.134-0.165,69.215-0.23
			c9.219-0.784,16.609,8.174,16.903,16.871c0.556,16.379,0.195,32.792,0.195,49.174c-0.032,15.203-13.864,26.418-13.5,41.687
			c-1.079,28.084-0.753,56.203,0.063,84.288c20.598,17.526,42.111,35.08,68.006,44.106c11.377,5.393,23.931,7.29,36.422,5.983
			c0.031,2.973,0.066,8.893,0.099,11.868c-146.934,0-293.864,0.032-440.795,0c-0.067,1.865-0.134,5.623-0.166,7.52
			c146.997,0.099,294.027,0,441.06,0.035c0.588,15.006-2.355,29.882-7.126,44.036c-269.212-0.16-538.428,0.297-807.608-0.227
			c-165.633-0.786-331.299-0.131-496.967-0.329c-70.948-1.012-141.963-0.195-212.944-0.556c-5.492,0.853-7.878-5.198-9.285-9.316
			c-3.042-11.15,3.073-21.744,7.519-31.552c282.979-0.16,565.988-0.032,848.966-0.064c0-1.896,0-5.658,0-7.555
			c-24.554,0.035-49.143-0.063-73.695,0.035c0-6.019-0.032-12.034-0.064-18.017c5.689,0.035,11.412,0.102,17.133,0.134
			c-0.035-3.467-0.035-6.9-0.035-10.332c-5.788,0.032-11.605,0.032-17.359,0.096c0.23-4.61,0.488-9.253,0.785-13.864
			c12.293-4.15,24.094-9.511,36.061-14.515c2.321,8.078,4.773,16.086,7.293,24.129c12.816-7.781,25.435-15.891,37.926-24.193
			c1.21,7.65,2.289,15.333,3.301,23.015c15.891-7.321,31.977-14.158,48.063-21.118c-0.131,15.693-0.066,31.418-0.066,47.115
			c-2.874,2.452-5.722,4.936-8.563,7.452c-3.857,0.032-7.718,0.063-11.543,0.099c0-6.146-0.031-12.261,0-18.375
			c-8.729,0-17.458,0-26.155,0c0,7.976,0,15.923,0,23.902c61.529,0,123.063,0,184.629,0c-0.032-1.897-0.032-5.658-0.064-7.555
			c-44.074,0-88.146,0-132.221,0.032c-0.163-19.257,0.23-38.513-0.259-57.741c-17.299,3.142-32.893,11.673-49.534,16.903
			c-0.361-6.047-0.817-12.095-1.21-18.11c-2.845,0.032-8.535,0.096-11.377,0.127c-9.776,6.277-19.879,12.098-29.789,18.148
			c-1.469-7.031-3.008-14.062-4.346-21.089c-1.472-0.195-4.416-0.524-5.885-0.687c-14.451,5.952-28.576,12.685-42.964,18.832
			c-0.063,14.093-0.031,28.216-0.031,42.341c-105.214-0.457-210.427,0.98-315.672,0.521c-147.325-0.453-294.65,0.92-441.975,0.885
			c33.054-30.081,65.357-61.007,98.118-91.416c5.755-5.395,12.098-10.299,16.839-16.675c-28.772-15.596-60.781-25.926-93.869-24.946
			c0.851-7.061,1.896-14.516,9.024-17.949c5.329,3.726,10.463,7.781,16.25,10.789c20.99-5.231,37.925-20.827,58.916-26.123
			c24.979-1.145,46.396,14.025,68.987,22.298c8.828,3.759,17.264-2.812,25.339-5.625c28.642-13.731,59.898-23.867,92.005-22.887
			c23.214-0.817,45.676,9.711,68.922,6.311c23.539-5.754,45.087-17.624,68.626-23.542c9.549-2.843,18.604,2.845,26.549,7.456
			c12.916,8.37,25.143,17.818,38.352,25.731c10.364-4.904,20.631-12.032,32.729-9.809c40.28,3.498,79.711,13.209,119.305,21.121
			c4.773,0.883,9.939,2.418,14.615-0.065c52.018-19.879,99.688-50.416,153.404-65.946c35.933-5.331,73.175,1.373,106.358,15.725
			c11.805,4.283,23.05,10.104,35.08,13.701c16.153-0.817,30.572-14.647,47.408-9.318c27.858,9.809,54.57,22.526,81.61,34.362
			c43.68,20.403,88.667,37.861,133.297,56.04c8.273-7.487-0.881-16.445-5.59-22.92c8.106-15.921,16.708-31.779,27.922-45.773
			c12.915,10.104,22.528,23.575,32.631,36.292c7.551,8.011-0.099,18.44-3.205,26.646c1.603,3.172,2.355,7.586,6.408,8.566
			c12.359,1.603,24.914,0.393,37.372,0.655c0.063,4.053,0.096,8.14,0.227,12.227c-56.07-0.229-112.144-0.032-168.186-0.098
			c0,2.387,0,7.16,0,9.547c52.574,0.034,105.181-0.032,157.755,0.034c2.03,1.994,4.055,3.958,6.117,5.95
			c-11.217,0.198-22.43,0.948-33.646,0.85c-0.556,1.699-1.699,5.07-2.254,6.737c18.931,0.39,37.893,0.23,56.891,0.128
			c3.465-31.811,7.127-63.59,10.594-95.402c-5.526-3.041-11.021-6.049-16.545-8.959
			C1554.373,715.71,1554.239,693.085,1554.373,670.461z M1585.267,671.669c-6.733,8.729-5.229,21.121-5.917,31.584
			c0.195,8.501-1.472,21.187,8.698,24.652c11.67,2.125,23.669,0.621,35.508,1.079c4.869-0.262,11.345,0.915,14.419-4.055
			c4.541-13.241,3.43-27.463,3.302-41.196c-0.329-5.067-1.702-12.783-8.142-12.783
			C1617.279,670.689,1600.896,669.316,1585.267,671.669z M994.137,737.877c-0.916,4.97-1.733,10.039-3.4,14.844
			c-2.286,9.973-12.848,13.798-20.562,18.768c4.674-0.034,9.38,0,14.122,0.131c24.032,21.153,61.335,7.847,85.824,28.805
			c-0.622-21.187,0.163-42.375-0.488-63.527c2.778,0.621,8.334,1.896,11.115,2.518c0,21.252,0,42.47,0,63.722
			c8.859,5.722,17.653,11.509,26.188,17.722c-0.063-19.357,0-38.679-0.032-58.034c3.171-2.845,6.377-5.656,9.582-8.501
			c0.454,24.292,0.128,48.584,0.227,72.91c21.515,6.344,42.277-4.119,61.077-13.437c19.876-14.485,44.397-20.697,63.916-35.899
			c-15.202-20.337-42.37-25.045-62.61-38.776c-36.096-16.315-75.917-23.248-115.35-24.261
			C1038.995,716.659,1016.437,727.906,994.137,737.877z M639.754,749.32c6.933,5.656,14.255,10.791,21.774,15.596
			c11.149-0.621,22.3,0.524,33.384,1.276c5.785-3.498,3.464-12.588-0.034-17.197c-6.114-7.848-12.915-17.036-23.083-19.488
			C657.769,727.644,647.764,739.708,639.754,749.32z M1215.127,736.504c20.99,1.701,40.933,10.233,57.737,22.756
			c8.732,5.853,17.101,13.177,27.691,15.302c10.888,1.504,22.331,1.176,32.567-3.139c-21.711-10.888-43.289-22.038-65.195-32.499
			C1251.514,732.286,1231.769,729.279,1215.127,736.504z M492.136,764.72c-16.609,8.991-32.761,19.095-50.515,25.765
			c-5.591,1.536-8.37,6.799-11.443,11.182c3.466,7.094,14.059,5.787,15.857,13.896c14.549-2.78,24.063,9.318,33.316,18.31
			c10.888,12.554,17.949,28.704,32.336,38.024c9.775-2.615,19.584-5.689,29.785-6.277c8.108-0.195,14.713,5.329,22.428,6.996
			c6.442,0.492,12.916-0.064,19.355-0.39c7.814,5.523,15.465,11.277,22.986,17.229c5.426-1.96,10.854-3.924,16.348-5.786
			c4.643,2.711,9.35,5.357,14.092,7.944c5.395-2.484,10.495-5.919,16.444-6.999c10.985,1.08,21.448,5.036,32.303,6.9
			c6.801,0.489,12.163-5.757,19.062-5.166c26.908-0.457,53.686,2.321,80.594,1.83c-11.803-12.229-20.695-27.43-35.245-36.846
			c-38.973-28.346-76.702-60.649-123-76.375c-37.075-13.046-75.067-24.948-114.465-28.053
			C501.225,744.481,497.497,757.724,492.136,764.72z M322.839,757.135c15.988,4.511,31.519,11.967,40.085,26.941
			c6.048-0.654,15.203,2.026,17.852-5.461c0.065-2.549,0.131-7.617,0.163-10.168c-14.32-6.44-33.774-5.525-43.419-19.879
			C331.242,748.667,326.829,752.721,322.839,757.135z M1590.139,756.808c10.396,3.531,24.883,9.287,33.318-0.849
			C1612.339,755.238,1601.158,755.369,1590.139,756.808z M1466.977,760.143c-0.198,3.76-0.394,7.553-0.556,11.346
			c5.229-0.065,10.495-0.131,15.76-0.327C1478.781,765.44,1472.959,762.464,1466.977,760.143z M726.135,776.72
			c-1.896,4.381-1.373,9.351-2.027,14.025c16.512,6.441,34.33,8.501,50.842,14.975c27.791,10.757,55.745,21.121,83.634,31.584
			c25.797,8.991,49.796,22.331,74.48,33.905c11.28,5.067,21.839,13.308,34.886,12.325c-2.027-6.833-3.86-13.697-5.655-20.562
			c5.524-6.868,12.421-12.363,19.551-17.462c0.131-1.44,0.425-4.346,0.556-5.786c-41.882-20.631-84.55-39.595-127.315-58.296
			c-29.589-13.961-62.873-18.212-95.307-17.526C747.877,764.884,733.655,766.094,726.135,776.72z M1607.336,801.077
			c0.654,29.426-1.83,58.721-1.667,88.114c8.828,0.096,17.721,0.032,26.481-1.504c-6.078-13.177-6.766-27.922-4.348-42.079
			c2.649-12.13-2.025-24.063-3.596-35.998c-3.008-12.717,0.326-26.319-4.674-38.646
			C1602.956,771.292,1608.416,790.223,1607.336,801.077z M1282.772,793.002c-21.677,5.853-43.452,11.671-64.442,19.649
			c-24.815,11.64-49.371,23.902-73.203,37.402c14.776,0.817,26.974-8.793,40.215-13.762c0.031,2.874,0.099,8.596,0.131,11.476
			c12.063-3.793,23.8-8.602,35.767-12.721c0.197,18.014,0.066,36.064,0.099,54.082c7.027,0,14.091,0,21.121,0
			c-0.032-11.839,0-23.641,0-35.477c-2.943,0-8.793,0-11.705-0.032c-2.254-12.424,9.122-19.097,16.185-27.138
			c5.198-5.557,10.004-11.606,15.987-16.379c14.323-1.799,28.934-0.23,43.388-0.752c0,4.021,0,8.043,0.032,12.096
			c-8.174,0.196-16.574-0.849-24.62,0.883c-6.77,2.617-7.715,10.201-8.174,16.479c7.388,1.699,4.936,9.416,5.265,14.943
			c1.536,8.991-7.063,13.991-11.772,20.173c0.035,6.245,0.1,12.456,0.198,18.701c2.158-0.131,6.507-0.393,8.666-0.524
			c1.012-1.698,3.007-5.099,3.987-6.797c6.277-0.035,12.555,0,18.867,0c0-10.236,0-20.435-0.067-30.639
			c-4.249-0.357-8.436-0.718-12.653-1.079c12.197-17.586,25.402-34.459,37.798-51.918c8.302-0.328,16.642-0.655,24.978-0.23
			c10.103,0.589,19.126,6.801,29.391,6.017c16.348-0.295,32.763,0.555,49.078-0.752c-3.011-7.521-12.066-6.998-18.573-9.025
			c-16.673-3.17-33.021-8.533-50.087-8.761C1333.319,788.358,1307.492,786.43,1282.772,793.002z M1466.552,798.56
			c0,2.19,0,6.604,0,8.829c4.349,0,8.697,0,13.078,0c0-2.19,0-6.638,0-8.829C1475.25,798.56,1470.901,798.56,1466.552,798.56z
			 M1336.294,811.116c-4.972,12.325-9.09,24.946-13.732,37.37c10.562,0.163,21.121,0.131,31.715,0.067
			c-0.591,4.837-1.146,9.675-1.67,14.547c-2.317,0.492-6.929,1.44-9.218,1.929c-0.035,7.848-0.035,15.696-0.035,23.544
			c8.209,0,16.415,0,24.624,0c0-17.101,0-34.17,0-51.269c-7.718,0-15.435,0-23.149,0.032c3.234-8.729,6.144-17.556,9.48-26.22
			C1348.293,811.116,1342.278,811.116,1336.294,811.116z M1588.569,888.572c3.403-0.035,6.801-0.035,10.268-0.035
			c-0.229-18.701,1.144-37.6-2.42-56.105C1590.957,850.644,1587.131,869.476,1588.569,888.572z M1404.431,848.156
			c0,13.474,0,26.942,0,40.416c8.566,0,17.098,0,25.667,0c0-5.92-0.035-11.808-0.035-17.657c-4.217,0.817-8.4,1.667-12.586,2.548
			c0.032-1.96,0.032-5.849,0.032-7.778c9.972,0.064,20.042,0.488,29.882-1.475c3.662,7.65,2.846,16.153,2.912,24.394
			c8.666-0.067,17.359-0.032,26.058-0.032c-0.032-4.154-0.032-8.276-0.032-12.395c-3.171-2.254-6.376-4.444-9.253-6.963
			c-6.472-5.46-2.06-18.113-11.868-20.24C1438.368,847.112,1421.334,848.648,1404.431,848.156z M1540.541,853.651
			c-0.294,5.591-0.718,11.182-1.309,16.74c-12.063,0.914-24.161,0.687-36.227,0.651c-0.032,5.07-0.032,10.173,0,15.304
			c16.188-0.425,32.469,0.948,48.621-0.718c11.31-5.983,4.771-21.744,6.472-31.977
			C1552.214,853.651,1546.393,853.651,1540.541,853.651z M1153.887,880.2c-2.582,0.163-7.717,0.492-10.3,0.651
			c4.61,4.384,10.594,6.412,16.642,7.947c-0.651-6.083-1.175-12.162-1.604-18.244C1157.026,873.725,1155.423,876.963,1153.887,880.2
			z M1641.539,871.439c0.032,5.722,0.063,11.443,0.096,17.197c8.436,0,16.871-0.166,25.274-0.983
			C1658.18,882.652,1649.776,877.161,1641.539,871.439z M1175.759,878.534c-2.255-0.23-6.801-0.689-9.056-0.884
			c0.294,1.932,0.914,5.789,1.242,7.717c4.61-0.064,9.253-0.131,13.931-0.166c-0.297-4.183-0.591-8.369-0.919-12.523
			C1179.651,874.153,1177.068,877.062,1175.759,878.534z M1016.468,878.304c-0.031,1.993-0.099,5.983-0.131,7.976
			c8.896,0.067,17.788,0.067,26.681,0.067c-0.032-2.679-0.032-5.361,0-8.043C1034.158,878.304,1025.297,878.304,1016.468,878.304z
			 M1054.56,878.368c0,1.996,0.032,6.016,0.063,8.011c2.321-0.032,7.031-0.099,9.384-0.099c-0.031-2.024-0.131-6.016-0.162-8.04
			C1060.738,878.272,1057.634,878.304,1054.56,878.368z"/>
	</g>
	<path fill="#010101" d="M1087.288,895.667c4.709,0,9.415-0.035,14.122-0.035c0,3.598,0,7.226,0,10.855
		c-4.707-0.035-9.413-0.067-14.122-0.035C1087.288,903.738,1087.288,898.381,1087.288,895.667z"/>
	<path fill="#010101" d="M361.55,979.234c459.532,0.326,919.096,0.163,1378.661,0.067c-6.245,20.435-13.308,40.997-25.699,58.622
		c-85.924-0.293-171.877-0.032-257.801-0.134c-251.722,1.603-503.507,0.262-755.26,0.785c-7.684,0.198-15.303,1.507-23.018,1.472
		c-96.975-0.032-193.981-0.064-290.988,0c-2.027-0.361-6.049-1.076-8.076-1.44C373.517,1018.794,368.089,998.816,361.55,979.234z"/>
	<path fill="#010101" d="M216.252,980.674c16.381,0,32.761,0.032,49.142-0.035c-13.112,19.55-25.96,39.301-38.124,59.442
		C223.773,1020.234,218.935,1000.649,216.252,980.674z"/>
	<path fill="#010101" d="M270.789,1043.252c8.894-17.296,21.808-33.056,39.986-40.968c9.547,12.458,16.969,26.418,23.05,40.901
		C312.802,1043.383,291.812,1043.284,270.789,1043.252z"/>
	<path fill="#010101" d="M382.868,1062.346c439.85,0.163,879.7,0,1319.515,0.099c-26.418,36.16-66.271,59.34-105.735,78.794
		c-6.016,2.615-11.77,6.964-18.603,6.67c-395.842,0-791.685,0-1187.559,0C390.192,1119.233,386.595,1090.759,382.868,1062.346z"/>
	<path fill="#010101" d="M254.473,1066.301c29.263-0.326,58.525-0.032,87.787-0.131c8.501,25.633,15.269,51.888,20.402,78.437
		c-15.563-0.067-31.159,0.293-46.722-0.067c-9.907-1.207-17.819-8.369-24.424-15.332
		C275.824,1110.536,261.012,1090.168,254.473,1066.301z"/>
	<path fill="#010101" d="M265.264,1177.302c3.922-8.697,8.14-17.232,12.292-25.795c37.829,18.927,77.063,35.08,117.082,48.746
		c-11.574,28.12-22.429,56.53-33.545,84.845c-9.58-4.023-19.127-8.142-28.739-12.098c7.16-19.355,14.941-38.481,22.657-57.609
		c-15.726-6.539-31.42-13.241-47.179-19.713c-7.814,20.269-15.857,40.476-24.228,60.518c-16.151-7.095-32.336-14.125-48.553-21.089
		c4.152-7.685,8.338-15.335,12.457-23.018c7.586,2.618,15.236,5.167,22.92,7.555c4.119-11.609,8.958-22.954,13.078-34.56
		C277.458,1182.401,271.378,1179.854,265.264,1177.302z"/>
	<path fill="#010101" d="M1405.839,1207.609c39.624-16.313,78.858-33.576,118.521-49.86c11.769,27.954,24.585,55.518,36.061,83.603
		c-18.832,7.749-37.37,16.217-56.237,23.931c-3.27-8.694-6.833-17.261-10.329-25.859c10.103-4.384,20.105-8.927,30.142-13.407
		c-4.444-10.134-8.857-20.301-13.532-30.307c-17.068,6.996-34.071,14.059-51.105,21.121c7.063,18.867,15.007,37.37,22.363,56.105
		c-9.119,4.02-18.244,8.107-27.299,12.261c-7.912-19.358-16.055-38.58-24.426-57.708c-3.334,1.114-10.004,3.337-13.372,4.448
		C1413.03,1223.826,1409.403,1215.719,1405.839,1207.609z"/>
	<path fill="#010101" d="M391.238,1167.232c354.122-0.457,708.278-0.067,1062.399-0.195c-56.4,29.458-118.39,46.195-180.281,59.535
		c-100.375,21.156-202.579,32.957-304.918,38.516c-55.122,2.126-110.508,3.008-165.502-1.928
		c-77.846-6.083-155.041-18.8-231.613-33.775c-40.313-8.305-80.692-17.066-119.762-30.275
		C430.113,1191.492,408.076,1183.155,391.238,1167.232z"/>
	<path fill="#010101" d="M395.848,1256.065c5.559-16.772,11.019-33.548,16.806-50.221c7.847,3.336,15.824,6.309,23.9,9.023
		c-3.924,16.839-10.528,32.925-13.994,49.896C413.34,1262.799,404.545,1259.465,395.848,1256.065z"/>
	<path fill="#010101" d="M1366.701,1220.818c8.634-2.024,17.165-4.413,25.664-6.963c9.189,29.263,18.344,58.522,27.204,87.852
		c-8.566,2.42-17.102,5.036-25.537,7.781C1384.814,1279.964,1375.267,1250.538,1366.701,1220.818z"/>
	<path fill="#010101" d="M439.758,1250.049c3.563-10.594,7.127-21.188,10.495-31.846c33.349,9.218,66.729,18.244,100.111,27.302
		c-7.847,30.371-16.052,60.646-24.095,90.956c-10.104-2.417-20.141-4.971-30.243-7.388c4.904-19.652,9.089-39.531,15.431-58.752
		C487.722,1263.061,463.625,1256.981,439.758,1250.049z"/>
	<path fill="#010101" d="M1324.295,1233.143c9.25-1.667,18.407-3.825,27.629-5.687c1.797,31.287,4.348,62.545,7.451,93.769
		c-36.028,8.142-72.057,16.51-108.188,24.327c-1.698-8.698-3.762-17.264-5.722-25.895c7.03-1.539,14.094-2.845,21.22-4.087
		c-7.848-20.827-15.073-41.853-23.116-62.581c8.828-2.318,17.625-4.873,26.354-7.551c6.701,21.022,15.463,41.293,22.231,62.315
		c12.162-3.397,24.486-6.079,36.651-9.546C1327.434,1276.5,1325.113,1254.887,1324.295,1233.143z"/>
	<path fill="#010101" d="M573.251,1251.489c9.549,1.6,19.03,3.365,28.642,4.477c-5.918,30.275-13.764,60.161-18.865,90.566
		c-10.429-1.079-20.662-3.27-30.897-5.495C558.866,1311.123,566.026,1281.305,573.251,1251.489z"/>
	<path fill="#010101" d="M623.112,1259.005c22.168,3.793,44.369,7.618,66.699,10.364c-0.064,11.935-4.676,23.053-10.201,33.449
		c-6.277-0.294-12.554-0.62-18.833-0.881c-2.942,19.125-6.898,38.056-10.396,57.083c-9.091-1.143-18.113-2.71-27.105-4.38
		c3.957-19.582,7.75-39.199,12.097-58.686c-6.702-1.178-13.338-2.452-20.042-3.563
		C618.208,1281.336,620.825,1270.187,623.112,1259.005z"/>
	<path fill="#010101" d="M1189.067,1260.902c11.214-2.091,22.625-3.007,33.938-4.706c-4.218,16.705-8.924,33.283-11.932,50.285
		c7.158,5.428,14.84,10.265,21.641,16.217c3.5,7.65,4.35,16.379,6.476,24.521c-36.718,6.603-73.564,12.618-110.148,19.879
		c-1.245-8.729-2.65-17.458-3.337-26.255c25.112-3.497,50.056-8.139,75.199-11.702c-17.459-11.903-36.063-21.974-53.721-33.513
		c-11.309,2.024-22.656,3.921-33.901,6.277c-0.556-10.205-1.21-20.435-3.139-30.473c14.416-1.539,28.771-3.467,43.254-4.448
		c9.221,7.586,18.735,14.78,28.116,22.168C1184.329,1279.836,1186.781,1270.385,1189.067,1260.902z"/>
	<path fill="#010101" d="M704.655,1271.234c12.62,2.222,25.404,3.729,37.894,6.769c11.934,15.137,25.862,28.544,38.058,43.452
		c5.558-13.209,11.443-26.255,16.445-39.69c10.267,0.063,20.5,1.469,30.767,1.96c-8.37,20.371-15.923,41.032-24.293,61.399
		c8.763,13.276,18.571,25.799,27.628,38.909c-12.784-1.667-25.601-2.976-38.45-3.627c-19.879-23.279-38.384-47.737-59.146-70.231
		c-2.452,20.895-4.807,41.786-7.324,62.645c-9.579-1.96-19.094-4.087-28.706-5.853C699.39,1334.99,703.02,1303.179,704.655,1271.234
		z"/>
	<path fill="#010101" d="M980.504,1283.789c38.81-3.825,77.912-4.38,116.69-8.369c2.06,31.616,6.667,63.038,8.403,94.717
		c-11.021,0.948-21.909,2.778-32.797,4.448c-2.811-21.089-5.23-42.21-7.321-63.363c-26.779,1.83-53.587,4.183-80.234,7.519
		C982.825,1307.199,981.746,1295.462,980.504,1283.789z"/>
	<path fill="#010101" d="M984.821,1339.7c8.468-1.865,17.066-3.238,25.664-4.611c1.408,14.614,2.421,29.295,2.846,44.008
		c-8.404,1.143-16.84,1.797-25.275,2.516C986.717,1367.653,985.341,1353.694,984.821,1339.7z"/>
	<path fill="#010101" d="M1244.911,1393.516c9.483-1.079,21.546,2.65,24.323,12.912c6.019,31.651,10.236,63.628,17.069,95.113
		c1.31,6.472,0.817,13.11,0.817,19.716c-36.227,7.29-73.171,10.722-109.628,16.836c0.457-15.757,3.171-31.322,4.281-47.015
		c19.161-3.04,38.354-6.048,57.514-9.189c-3.237-16.214-5.916-32.529-9.319-48.682c-30.046,5.166-60.257,9.415-90.468,13.7
		c-6.733,32.728-13.272,65.486-19.681,98.28c-14.222,2.354-28.708,2.06-43.028,3.4c7.977-30.996,14.094-62.446,21.646-93.57
		c-11.217,0.913-22.3,2.548-33.351,4.54c6.702-14.872,14.189-29.358,21.055-44.139
		C1139.043,1407.903,1191.979,1400.773,1244.911,1393.516z"/>
	<path fill="#010101" d="M551.575,1421.37c20.894-8.662,41.852-17.196,62.645-26.089c-8.107,43.127-16.575,86.186-24.259,129.373
		c-12.522-2.646-25.273-3.921-37.83-6.44c6.802-30.274,13.668-60.518,21.221-90.63
		C566.06,1425.524,558.834,1423.366,551.575,1421.37z"/>
	<path fill="#010101" d="M632.53,1442.495c9.644-12.721,19.845-25.014,29.784-37.504c56.628,4.936,113.224,10.495,169.754,16.642
		c-6.964,13.633-13.862,27.299-21.284,40.706c-8.6-0.1-17.165-0.1-25.765-0.067c-2.026,28.774-4.643,57.479-7.52,86.186
		c-13.993-1.21-28.184-0.817-42.079-3.17c2.42-30.147,4.414-60.288,7.814-90.305C706.387,1450.34,669.409,1446.939,632.53,1442.495z
		"/>
	<path fill="#010101" d="M958.891,1462.271c15.629-15.038,29.822-32.006,48.455-43.48c15.368,36.977,31.747,73.497,47.146,110.442
		c-10.754,6.864-21.315,14.062-31.974,21.089c-3.499-7.13-7.03-14.225-10.53-21.319c-19.157,10.693-38.448,21.188-57.542,32.012
		c-5.523-9.221-11.118-18.41-16.609-27.631c20.565-12.356,40.901-25.173,61.597-37.401c-3.955-11.38-9.121-22.3-12.979-33.676
		C977.27,1462.271,968.081,1462.239,958.891,1462.271z"/>
	<path fill="#010101" d="M843.936,1462.271c21.089-12.127,39.268-28.541,60.226-40.834c1.635,4.675,4.381,9.218,4.313,14.384
		c0.262,19.094-0.162,38.19,0.135,57.316c-13.113,10.398-26.257,20.763-39.008,31.552c0.262-20.795,0.065-41.622,0.131-62.418
		C861.134,1462.271,852.536,1462.239,843.936,1462.271z"/>
</g>
</svg>
