<svg height="714.24017" width="725.81793" xmlns="http://www.w3.org/2000/svg"><g transform="translate(-10.398166 -174.86404)"><path d="m712.87563 764.16872-81.7019-328.03674-19.09256 100.28173-11.82161-.13396-57.41208-230.42914-30.91417 152.36285-68.45286-267.18701-44.16321 284.85231 13.24895 287.0604z" fill="#1b7f37" fill-rule="evenodd"/><path d="m438.07412 763.2542h-359.122719v-59.33337h-52.128779l139.567348-83.8605v-66.03413h-60.88522l193.71246-145.97276 193.71238 145.97276h-54.85547z" fill="#8b8cc2" fill-rule="evenodd"/><path d="m384.12085 601.75638c-5.16298.04101-10.19263.43675-15.14908 1.20306l3.4338 23.36044c-6.44562 1.01053-12.7426 2.68454-18.5828 5.12828l-8.83531-21.80168c-9.11294 3.79982-17.63514 8.83008-25.21808 14.92594l14.87427 18.72191c-4.98042 4.01667-9.63503 8.46039-13.53523 13.53383l-18.73756-14.36021c-5.95326 7.73867-10.69899 16.21732-14.30696 25.45031l21.93921 8.48784c-2.29317 5.82271-3.73564 12.05507-4.61763 18.44359l-23.41194-3.06236c-.65632 4.86053-1.22239 9.68889-1.18226 14.73497.03821 4.8107.52682 9.65007 1.19625 14.28301l23.36035-3.43389c.93961 6.44894 2.53869 12.72869 4.91177 18.58454l-21.80158 8.83523c3.73284 9.2322 8.63185 17.74295 14.71101 25.43632l18.50542-14.87251c4.0143 5.11515 8.63674 9.73978 13.75207 13.75006l-14.36021 18.73765c7.62945 5.93962 16.12927 10.87526 25.23547 14.52512l8.70434-21.94096c5.83486 2.33986 12.03627 4.13226 18.44709 5.05072l-3.06402 23.19552c5.04109.70904 10.142 1.21872 15.38455 1.17702 4.79356-.03804 9.4494-.52962 14.06651-1.1945l-3.43398-23.36035c6.43259-.92047 12.74068-2.34852 18.58629-4.69519l8.83357 21.585c9.24305-3.73389 17.9514-8.62731 25.65282-14.71277l-14.87252-18.50532c5.14166-4.05156 9.94728-8.58874 13.96674-13.75383l18.52098 14.36187c6.07226-7.79978 11.06404-16.33203 14.73821-25.67021l-21.94088-8.70442c2.34782-5.96139 3.96438-12.32631 4.83064-18.87834l23.19727 3.28052c.63682-4.79155 1.2217-9.76357 1.18226-14.73498-.04013-5.04608-.68281-9.86499-1.41624-14.71433l-23.36035 3.43388c-1.00869-6.53769-2.64869-12.88276-5.13011-18.79929l21.80158-8.83532c-3.83427-9.24724-8.73354-17.75973-14.92751-25.43465l-18.50716 14.6561c-4.05619-5.00673-8.83978-9.40699-13.96508-13.31541l14.57671-18.73931c-7.76787-5.95063-16.40382-10.92991-25.66855-14.52162l-8.70268 22.15755c-5.90341-2.26842-12.18745-3.79449-18.66018-4.61597l3.27711-23.63028c-4.68784-.60796-9.43925-.79123-14.29839-.75258zm.66908 84.2336c10.96524-.087 19.99266 8.79807 20.07983 19.7633.08709 10.96523-8.7999 19.77616-19.76505 19.86325-10.96515.08717-19.99099-8.58158-20.07808-19.54672-.087-10.96506 8.79816-19.99274 19.7633-20.07983z" fill="#ccd1d5"/><path d="m422.86328 583.58816-.80078-2.16309h.91309l.38086 1.14258c.15299-.33528.39225-.6193.71777-.85205.32552-.23274.67545-.34912 1.0498-.34912.39714 0 .73975.10173 1.02784.30517.28808.20346.49722.5005.62744.89112.1302.39062.1953.97819.19531 1.76269v2.28027h-2.6709v-.78125h1.72852v-1.51855c-.00001-.57291-.01873-.99039-.05616-1.25244-.03743-.26204-.13346-.47526-.28808-.63965-.15463-.16438-.34913-.24658-.5835-.24658-.36458 0-.67464.18799-.93017.56396-.25554.37598-.47282 1.02784-.65186 1.95557l-.36621 1.91894h-.94238l.41015-2.02148c.03906-.19205.11882-.52409.23926-.99609zm-1.94336-2.16309v5.18066h-.95215v-5.18066zm-5.45898 4.55078-.89844-4.55078h.98145l.7666 4.2627c.55338-.2181.90006-.53142 1.04004-.93995.13997-.40852.20995-.92203.20996-1.54052l.04883-1.78223h.94238l-.04883 1.37207c-.02605.66081-.05453 1.12468-.08545 1.3916-.03093.26693-.11556.56071-.25391.88135s-.34098.59896-.60791.83496-.65836.45166-1.17431.64697c-.51595.19532-1.25244.37272-2.20947.53223l-.13184-.81055c.58268-.08463 1.05631-.18392 1.4209-.29785zm-2.08008-4.55078-.04883.93262c-.01628.30925-.05127.55908-.10498.74951s-.16683.38656-.33935.58838c-.17253.20182-.4476.41178-.8252.62988l1.1084 1.72852v.55175h-3.73047v-.78125h2.60254l-2.86133-4.39941h1.05957l1.44043 2.29981c.24414-.17904.41829-.37028.52246-.57374.10417-.20344.15625-.49234.15625-.86669l.04883-.85938zm-9.53125.09277c.58919-.1009 1.16211-.15136 1.71875-.15136 1.08073 0 1.82779.2002 2.24121.60058.41341.4004.62011 1.014.62012 1.84082v2.79785h-.93262v-2.54882c0-.51758-.06023-.89762-.18066-1.14014-.12045-.24251-.32797-.42643-.62256-.55176-.2946-.12532-.72348-.18798-1.28662-.18799-.44271.00001-.93588.04558-1.4795.13672zm.99121 2.16797v2.91992h-.93262v-2.91992zm-4.76074 2.91992h-1.15235l-1.97753-2.79785c-.306.16602-.48666.50131-.542 1.00586l-.20996 1.79199h-.96679l.20996-1.79199c.09765-.83333.43619-1.39648 1.01562-1.68945l-1.20605-1.69922h1.14746l1.66015 2.31934c.20182-.13346.34261-.28402.42237-.45166.07975-.16764.14241-.44352.18799-.82764l.12207-1.04004h.96679l-.11719 1.06934c-.05208.45898-.15544.83577-.31005 1.13037-.15463.2946-.42237.55745-.80323.78857zm-5.58594-4.52148c-.49805 0-.88786.14242-1.16943.42725-.28158.28483-.42237.6665-.42237 1.14502 0 .0944.01465.27832.04395.55175.08463.78777.12695 1.34766.12695 1.67969v.71777h-.9375v-.8496c0-.34506-.03255-.87565-.09765-1.5918-.02279-.24088-.03418-.44108-.03418-.60059 0-.5371.21972-.98958.65918-1.35742h-1.3086v-.78125h3.13965zm-4.35547-.65918v5.18066h-.95215v-5.18066zm-6.61133.04883c.50131-.07161.96192-.10742 1.38184-.10742 1.04817 0 1.77815.20264 2.18994.60791.41178.40527.61767 1.01644.61768 1.83349v2.79785h-.92774v-2.54882c0-.47201-.05046-.82845-.15136-1.06934-.10092-.24088-.2946-.43619-.58106-.58594-.28646-.14973-.68685-.2246-1.20117-.22461-.34831.00001-.76498.03256-1.25.09766zm-.94726-.04883v2.68066h-.95215v-2.68066zm-7.93946 5.05859.16114-.69824c.16927.0586.35319.08789.55176.08789.2246 0 .37923-.04964.46386-.14892.08464-.09929.12695-.27914.12696-.53955v-2.98828c-.27995 0-.62338.0293-1.03028.08789l-.08301-.77637c.74219-.0944 1.49577-.1416 2.26075-.1416.77473 0 1.37044.06511 1.78711.19531.41666.13021.73485.36866.95459.71533.21972.34669.32958.85694.32959 1.53076v2.79785h-.93262v-2.54882c-.00001-.50456-.03825-.87402-.11475-1.1084-.0765-.23437-.24333-.4248-.50049-.57129-.25716-.14648-.68197-.21972-1.27441-.21973l-.46875.00977v3.13965c0 .32552-.03011.57454-.09033.74707-.06023.17252-.18555.31412-.37598.4248s-.47445.16602-.85205.16602c-.30599 0-.61035-.05371-.91309-.16114zm-7.79296-2.8955-.80078-2.16309h.91308l.38086 1.14258c.15299-.33528.39225-.6193.71777-.85205.32552-.23274.67546-.34912 1.04981-.34912.39713 0 .73974.10173 1.02783.30517.28808.20346.49723.5005.62744.89112.1302.39062.19531.97819.19531 1.76269v2.28027h-2.67089v-.78125h1.72851v-1.51855c0-.57291-.01872-.99039-.05615-1.25244-.03744-.26204-.13347-.47526-.28809-.63965-.15462-.16438-.34912-.24658-.58349-.24658-.36459 0-.67465.18799-.93018.56396-.25553.37598-.47282 1.02784-.65185 1.95557l-.36622 1.91894h-.94238l.41016-2.02148c.03906-.19205.11881-.52409.23926-.99609zm-6.70899-2.16309.01953.83984c.01953.86264.05697 1.45997.11231 1.792.34505 0 .65592-.08626.93261-.25879s.41504-.49967.41504-.98145l.10254-1.3916h.9375l-.11718 1.63086c-.01954.2767-.05046.48666-.09278.62988-.04232.14323-.1294.2946-.26123.4541-.13184.15951-.34017.29867-.625.41748-.28483.11882-.66813.19776-1.1499.23682.08138.35157.27018.63314.56641.84473.29622.21159.6608.31738 1.09375.31738.40038 0 .74381-.09521 1.03027-.28564.28645-.19043.49804-.4362.63476-.73731.13672-.3011.22786-.72998.27344-1.28662l.20996-2.22168h.9375l-.17578 1.91895c-.06836.7194-.19043 1.31836-.36621 1.79687-.17579.47852-.48096.86589-.91553 1.16211s-.99528.44434-1.68213.44434c-.60872 0-1.11898-.1473-1.53076-.4419-.41178-.29459-.7194-.71533-.92285-1.26221-.20345-.54687-.30517-1.27603-.30517-2.1875l-.06836-1.43066zm-2.26562 1.83106v1.59179l.47851 1.75781h-.91308l-.35645-1.26953c-.40039 0-.73405.24252-1.00098.72754l-.28808.54199h-.95215l.41016-.80078c.24414-.47526.52734-.78694.84961-.93506.32226-.14811.60221-.22216.83984-.22216v-1.36231c0-.27994-.02035-.49234-.06104-.6372s-.13102-.26123-.27099-.34913c-.13998-.08788-.32552-.13183-.55664-.13183-.19857 0-.37598.01628-.53223.04883l-.06836-.74219c.2181-.07161.48503-.10742.80078-.10742.44271 0 .78125.08301 1.01563.24902.23437.16602.39388.37028.47851.61279.08464.24252.12695.58513.12696 1.02784zm-4.20899 2.56835h.8252v.78125h-4.95606v-.78125h3.19825v-1.76757c-.00001-.48177-.05372-.84391-.16114-1.08643-.10742-.24251-.30192-.43538-.58349-.57861-.28158-.14323-.72022-.21484-1.31592-.21485-.21159.00001-.53874.02279-.98145.06836l-.07812-.77148c.43945-.07161.90657-.10742 1.40137-.10742.93098 0 1.60562.20182 2.02392.60547.41829.40365.62744 1.01562.62744 1.83593z" fill="#8b8cc2" transform="matrix(8.6377252 0 0 8.6377252 -2968.2977 -4198.1307)"/></g></svg>